<?xml version="1.0" encoding="UTF-8" standalone="no"?>
<!DOCTYPE svg PUBLIC "-//W3C//DTD SVG 1.1//EN"
 "http://www.w3.org/Graphics/SVG/1.1/DTD/svg11.dtd">
<!-- Generated by graphviz version 9.0.0 (20230911.1827)
 -->
<!-- Title: /github/workspace/dev_area/sourcecode/tpglibs/include/tpglibs/AbstractProcessor.hpp Pages: 1 -->
<svg width="237pt" height="105pt"
 viewBox="0.00 0.00 236.88 105.00" xmlns="http://www.w3.org/2000/svg" xmlns:xlink="http://www.w3.org/1999/xlink">
<g id="graph0" class="graph" transform="scale(1 1) rotate(0) translate(4 101)">
<title>/github/workspace/dev_area/sourcecode/tpglibs/include/tpglibs/AbstractProcessor.hpp</title>
<!-- Node1 -->
<g id="Node000001" class="node">
<title>Node1</title>
<g id="a_Node000001"><a xlink:title=" ">
<polygon fill="#999999" stroke="#666666" points="203.25,-97 20,-97 20,-55.25 203.25,-55.25 203.25,-97"/>
<text text-anchor="start" x="28" y="-83.5" font-family="Helvetica,sans-Serif" font-size="10.00">/github/workspace/dev</text>
<text text-anchor="start" x="28" y="-72.25" font-family="Helvetica,sans-Serif" font-size="10.00">_area/sourcecode/tpglibs</text>
<text text-anchor="middle" x="111.62" y="-61" font-family="Helvetica,sans-Serif" font-size="10.00">/include/tpglibs/AbstractProcessor.hpp</text>
</a>
</g>
</g>
<!-- Node2 -->
<g id="Node000002" class="node">
<title>Node2</title>
<g id="a_Node000002"><a xlink:title=" ">
<polygon fill="#e0e0e0" stroke="#999999" points="45.25,-19.25 0,-19.25 0,0 45.25,0 45.25,-19.25"/>
<text text-anchor="middle" x="22.62" y="-5.75" font-family="Helvetica,sans-Serif" font-size="10.00">cstdint</text>
</a>
</g>
</g>
<!-- Node1&#45;&gt;Node2 -->
<g id="edge1_Node000001_Node000002" class="edge">
<title>Node1&#45;&gt;Node2</title>
<g id="a_edge1_Node000001_Node000002"><a xlink:title=" ">
<path fill="none" stroke="#63b8ff" d="M83.95,-55.07C71.2,-45.83 56.28,-35.01 44.35,-26.37"/>
<polygon fill="#63b8ff" stroke="#63b8ff" points="46.52,-23.62 36.37,-20.58 42.41,-29.29 46.52,-23.62"/>
</a>
</g>
</g>
<!-- Node3 -->
<g id="Node000003" class="node">
<title>Node3</title>
<g id="a_Node000003"><a xlink:title=" ">
<polygon fill="#e0e0e0" stroke="#999999" points="160.12,-19.25 63.12,-19.25 63.12,0 160.12,0 160.12,-19.25"/>
<text text-anchor="middle" x="111.62" y="-5.75" font-family="Helvetica,sans-Serif" font-size="10.00">nlohmann/json.hpp</text>
</a>
</g>
</g>
<!-- Node1&#45;&gt;Node3 -->
<g id="edge2_Node000001_Node000003" class="edge">
<title>Node1&#45;&gt;Node3</title>
<g id="a_edge2_Node000001_Node000003"><a xlink:title=" ">
<path fill="none" stroke="#63b8ff" d="M111.62,-55.07C111.62,-47.4 111.62,-38.64 111.62,-30.95"/>
<polygon fill="#63b8ff" stroke="#63b8ff" points="115.13,-31.21 111.63,-21.21 108.13,-31.21 115.13,-31.21"/>
</a>
</g>
</g>
<!-- Node4 -->
<g id="Node000004" class="node">
<title>Node4</title>
<g id="a_Node000004"><a xlink:title=" ">
<polygon fill="#e0e0e0" stroke="#999999" points="228.88,-19.25 178.38,-19.25 178.38,0 228.88,0 228.88,-19.25"/>
<text text-anchor="middle" x="203.62" y="-5.75" font-family="Helvetica,sans-Serif" font-size="10.00">memory</text>
</a>
</g>
</g>
<!-- Node1&#45;&gt;Node4 -->
<g id="edge3_Node000001_Node000004" class="edge">
<title>Node1&#45;&gt;Node4</title>
<g id="a_edge3_Node000001_Node000004"><a xlink:title=" ">
<path fill="none" stroke="#63b8ff" d="M140.48,-54.89C153.79,-45.57 169.33,-34.67 181.66,-26.02"/>
<polygon fill="#63b8ff" stroke="#63b8ff" points="183.34,-29.12 189.52,-20.51 179.32,-23.39 183.34,-29.12"/>
</a>
</g>
</g>
</g>
</svg>
