<?xml version="1.0" encoding="UTF-8" standalone="no"?>
<!DOCTYPE svg PUBLIC "-//W3C//DTD SVG 1.1//EN"
 "http://www.w3.org/Graphics/SVG/1.1/DTD/svg11.dtd">
<!-- Generated by graphviz version 9.0.0 (20230911.1827)
 -->
<!-- Title: /github/workspace/dev_area/sourcecode/wibmod/src/wibmod/WIB1/ADC_ASIC_reg_mapping.hh Pages: 1 -->
<svg width="414pt" height="228pt"
 viewBox="0.00 0.00 414.25 227.75" xmlns="http://www.w3.org/2000/svg" xmlns:xlink="http://www.w3.org/1999/xlink">
<g id="graph0" class="graph" transform="scale(1 1) rotate(0) translate(4 223.75)">
<title>/github/workspace/dev_area/sourcecode/wibmod/src/wibmod/WIB1/ADC_ASIC_reg_mapping.hh</title>
<!-- Node1 -->
<g id="Node000001" class="node">
<title>Node1</title>
<g id="a_Node000001"><a xlink:title=" ">
<polygon fill="#999999" stroke="#666666" points="232,-219.75 84,-219.75 84,-166.75 232,-166.75 232,-219.75"/>
<text text-anchor="start" x="92" y="-206.25" font-family="Helvetica,sans-Serif" font-size="10.00">/github/workspace/dev</text>
<text text-anchor="start" x="92" y="-195" font-family="Helvetica,sans-Serif" font-size="10.00">_area/sourcecode/wibmod</text>
<text text-anchor="start" x="92" y="-183.75" font-family="Helvetica,sans-Serif" font-size="10.00">/src/wibmod/WIB1/ADC_ASIC</text>
<text text-anchor="middle" x="158" y="-172.5" font-family="Helvetica,sans-Serif" font-size="10.00">_reg_mapping.hh</text>
</a>
</g>
</g>
<!-- Node2 -->
<g id="Node000002" class="node">
<title>Node2</title>
<g id="a_Node000002"><a xlink:href="ADC__ASIC__reg__mapping_8cpp.html" target="_top" xlink:title=" ">
<polygon fill="white" stroke="#666666" points="130,-130.75 0,-130.75 0,-77.75 130,-77.75 130,-130.75"/>
<text text-anchor="start" x="8" y="-117.25" font-family="Helvetica,sans-Serif" font-size="10.00">/github/workspace/dev</text>
<text text-anchor="start" x="8" y="-106" font-family="Helvetica,sans-Serif" font-size="10.00">_area/sourcecode/wibmod</text>
<text text-anchor="start" x="8" y="-94.75" font-family="Helvetica,sans-Serif" font-size="10.00">/src/WIB1/ADC_ASIC_reg</text>
<text text-anchor="middle" x="65" y="-83.5" font-family="Helvetica,sans-Serif" font-size="10.00">_mapping.cpp</text>
</a>
</g>
</g>
<!-- Node1&#45;&gt;Node2 -->
<g id="edge1_Node000001_Node000002" class="edge">
<title>Node1&#45;&gt;Node2</title>
<g id="a_edge1_Node000001_Node000002"><a xlink:title=" ">
<path fill="none" stroke="#63b8ff" d="M122.01,-158.58C112.28,-149.48 101.9,-139.77 92.71,-131.17"/>
<polygon fill="#63b8ff" stroke="#63b8ff" points="119.55,-161.07 129.24,-165.35 124.33,-155.96 119.55,-161.07"/>
</a>
</g>
</g>
<!-- Node3 -->
<g id="Node000003" class="node">
<title>Node3</title>
<g id="a_Node000003"><a xlink:href="WIB__FEMB_8cpp.html" target="_top" xlink:title=" ">
<polygon fill="white" stroke="#666666" points="223.75,-41.75 92.25,-41.75 92.25,0 223.75,0 223.75,-41.75"/>
<text text-anchor="start" x="100.25" y="-28.25" font-family="Helvetica,sans-Serif" font-size="10.00">/github/workspace/dev</text>
<text text-anchor="start" x="100.25" y="-17" font-family="Helvetica,sans-Serif" font-size="10.00">_area/sourcecode/wibmod</text>
<text text-anchor="middle" x="158" y="-5.75" font-family="Helvetica,sans-Serif" font-size="10.00">/src/WIB1/WIB_FEMB.cpp</text>
</a>
</g>
</g>
<!-- Node1&#45;&gt;Node3 -->
<g id="edge2_Node000001_Node000003" class="edge">
<title>Node1&#45;&gt;Node3</title>
<g id="a_edge2_Node000001_Node000003"><a xlink:title=" ">
<path fill="none" stroke="#63b8ff" d="M158,-155.27C158,-120.57 158,-69.96 158,-42.11"/>
<polygon fill="#63b8ff" stroke="#63b8ff" points="154.5,-154.86 158,-164.86 161.5,-154.86 154.5,-154.86"/>
</a>
</g>
</g>
<!-- Node4 -->
<g id="Node000004" class="node">
<title>Node4</title>
<g id="a_Node000004"><a xlink:href="ASIC__reg__mapping_8hh.html" target="_top" xlink:title=" ">
<polygon fill="white" stroke="#666666" points="327.62,-130.75 186.38,-130.75 186.38,-77.75 327.62,-77.75 327.62,-130.75"/>
<text text-anchor="start" x="194.38" y="-117.25" font-family="Helvetica,sans-Serif" font-size="10.00">/github/workspace/dev</text>
<text text-anchor="start" x="194.38" y="-106" font-family="Helvetica,sans-Serif" font-size="10.00">_area/sourcecode/wibmod</text>
<text text-anchor="start" x="194.38" y="-94.75" font-family="Helvetica,sans-Serif" font-size="10.00">/src/wibmod/WIB1/ASIC_reg</text>
<text text-anchor="middle" x="257" y="-83.5" font-family="Helvetica,sans-Serif" font-size="10.00">_mapping.hh</text>
</a>
</g>
</g>
<!-- Node1&#45;&gt;Node4 -->
<g id="edge3_Node000001_Node000004" class="edge">
<title>Node1&#45;&gt;Node4</title>
<g id="a_edge3_Node000001_Node000004"><a xlink:title=" ">
<path fill="none" stroke="#63b8ff" d="M196,-158.86C206.45,-149.68 217.62,-139.86 227.51,-131.17"/>
<polygon fill="#63b8ff" stroke="#63b8ff" points="193.77,-156.15 188.57,-165.38 198.39,-161.41 193.77,-156.15"/>
</a>
</g>
</g>
<!-- Node4&#45;&gt;Node3 -->
<g id="edge5_Node000004_Node000003" class="edge">
<title>Node4&#45;&gt;Node3</title>
<g id="a_edge5_Node000004_Node000003"><a xlink:title=" ">
<path fill="none" stroke="#63b8ff" d="M216.77,-70.18C205.24,-60.7 193.02,-50.66 182.72,-42.19"/>
<polygon fill="#63b8ff" stroke="#63b8ff" points="214.29,-72.67 224.23,-76.32 218.73,-67.26 214.29,-72.67"/>
</a>
</g>
</g>
<!-- Node5 -->
<g id="Node000005" class="node">
<title>Node5</title>
<g id="a_Node000005"><a xlink:href="ASIC__reg__mapping_8cpp.html" target="_top" xlink:title=" ">
<polygon fill="white" stroke="#666666" points="406.25,-41.75 241.75,-41.75 241.75,0 406.25,0 406.25,-41.75"/>
<text text-anchor="start" x="249.75" y="-28.25" font-family="Helvetica,sans-Serif" font-size="10.00">/github/workspace/dev</text>
<text text-anchor="start" x="249.75" y="-17" font-family="Helvetica,sans-Serif" font-size="10.00">_area/sourcecode/wibmod</text>
<text text-anchor="middle" x="324" y="-5.75" font-family="Helvetica,sans-Serif" font-size="10.00">/src/WIB1/ASIC_reg_mapping.cpp</text>
</a>
</g>
</g>
<!-- Node4&#45;&gt;Node5 -->
<g id="edge4_Node000004_Node000005" class="edge">
<title>Node4&#45;&gt;Node5</title>
<g id="a_edge4_Node000004_Node000005"><a xlink:title=" ">
<path fill="none" stroke="#63b8ff" d="M285.5,-68.64C292.97,-59.56 300.78,-50.08 307.4,-42.04"/>
<polygon fill="#63b8ff" stroke="#63b8ff" points="282.82,-66.39 279.16,-76.33 288.22,-70.84 282.82,-66.39"/>
</a>
</g>
</g>
</g>
</svg>
