<?xml version="1.0" encoding="UTF-8" standalone="no"?>
<!DOCTYPE svg PUBLIC "-//W3C//DTD SVG 1.1//EN"
 "http://www.w3.org/Graphics/SVG/1.1/DTD/svg11.dtd">
<!-- Generated by graphviz version 9.0.0 (20230911.1827)
 -->
<!-- Title: /github/workspace/dev_area/sourcecode/wibmod/src/wibmod/WIB1/AddressTableException.hh Pages: 1 -->
<svg width="766pt" height="139pt"
 viewBox="0.00 0.00 766.25 138.75" xmlns="http://www.w3.org/2000/svg" xmlns:xlink="http://www.w3.org/1999/xlink">
<g id="graph0" class="graph" transform="scale(1 1) rotate(0) translate(4 134.75)">
<title>/github/workspace/dev_area/sourcecode/wibmod/src/wibmod/WIB1/AddressTableException.hh</title>
<!-- Node1 -->
<g id="Node000001" class="node">
<title>Node1</title>
<g id="a_Node000001"><a xlink:title=" ">
<polygon fill="#999999" stroke="#666666" points="504.25,-130.75 290.25,-130.75 290.25,-89 504.25,-89 504.25,-130.75"/>
<text text-anchor="start" x="298.25" y="-117.25" font-family="Helvetica,sans-Serif" font-size="10.00">/github/workspace/dev</text>
<text text-anchor="start" x="298.25" y="-106" font-family="Helvetica,sans-Serif" font-size="10.00">_area/sourcecode/wibmod</text>
<text text-anchor="middle" x="397.25" y="-94.75" font-family="Helvetica,sans-Serif" font-size="10.00">/src/wibmod/WIB1/AddressTableException.hh</text>
</a>
</g>
</g>
<!-- Node2 -->
<g id="Node000002" class="node">
<title>Node2</title>
<g id="a_Node000002"><a xlink:href="AddressTable_8cpp.html" target="_top" xlink:title=" ">
<polygon fill="white" stroke="#666666" points="140.5,-47.38 0,-47.38 0,-5.62 140.5,-5.62 140.5,-47.38"/>
<text text-anchor="start" x="8" y="-33.88" font-family="Helvetica,sans-Serif" font-size="10.00">/github/workspace/dev</text>
<text text-anchor="start" x="8" y="-22.62" font-family="Helvetica,sans-Serif" font-size="10.00">_area/sourcecode/wibmod</text>
<text text-anchor="middle" x="70.25" y="-11.38" font-family="Helvetica,sans-Serif" font-size="10.00">/src/WIB1/AddressTable.cpp</text>
</a>
</g>
</g>
<!-- Node1&#45;&gt;Node2 -->
<g id="edge1_Node000001_Node000002" class="edge">
<title>Node1&#45;&gt;Node2</title>
<g id="a_edge1_Node000001_Node000002"><a xlink:title=" ">
<path fill="none" stroke="#63b8ff" d="M286.4,-86.15C243.36,-76.74 193.8,-65.18 149.25,-53 143.41,-51.4 137.36,-49.64 131.33,-47.82"/>
<polygon fill="#63b8ff" stroke="#63b8ff" points="285.49,-89.53 296.01,-88.24 286.98,-82.69 285.49,-89.53"/>
</a>
</g>
</g>
<!-- Node3 -->
<g id="Node000003" class="node">
<title>Node3</title>
<g id="a_Node000003"><a xlink:href="AddressTable__IO_8cpp.html" target="_top" xlink:title=" ">
<polygon fill="white" stroke="#666666" points="314.38,-47.38 158.12,-47.38 158.12,-5.62 314.38,-5.62 314.38,-47.38"/>
<text text-anchor="start" x="166.12" y="-33.88" font-family="Helvetica,sans-Serif" font-size="10.00">/github/workspace/dev</text>
<text text-anchor="start" x="166.12" y="-22.62" font-family="Helvetica,sans-Serif" font-size="10.00">_area/sourcecode/wibmod</text>
<text text-anchor="middle" x="236.25" y="-11.38" font-family="Helvetica,sans-Serif" font-size="10.00">/src/WIB1/AddressTable_IO.cpp</text>
</a>
</g>
</g>
<!-- Node1&#45;&gt;Node3 -->
<g id="edge2_Node000001_Node000003" class="edge">
<title>Node1&#45;&gt;Node3</title>
<g id="a_edge2_Node000001_Node000003"><a xlink:title=" ">
<path fill="none" stroke="#63b8ff" d="M346.92,-83.43C324.24,-71.97 297.84,-58.63 276.51,-47.85"/>
<polygon fill="#63b8ff" stroke="#63b8ff" points="345.18,-86.48 355.69,-87.87 348.34,-80.23 345.18,-86.48"/>
</a>
</g>
</g>
<!-- Node4 -->
<g id="Node000004" class="node">
<title>Node4</title>
<g id="a_Node000004"><a xlink:href="AddressTable__fileIO_8cpp.html" target="_top" xlink:title=" ">
<polygon fill="white" stroke="#666666" points="462.25,-53 332.25,-53 332.25,0 462.25,0 462.25,-53"/>
<text text-anchor="start" x="340.25" y="-39.5" font-family="Helvetica,sans-Serif" font-size="10.00">/github/workspace/dev</text>
<text text-anchor="start" x="340.25" y="-28.25" font-family="Helvetica,sans-Serif" font-size="10.00">_area/sourcecode/wibmod</text>
<text text-anchor="start" x="340.25" y="-17" font-family="Helvetica,sans-Serif" font-size="10.00">/src/WIB1/AddressTable</text>
<text text-anchor="middle" x="397.25" y="-5.75" font-family="Helvetica,sans-Serif" font-size="10.00">_fileIO.cpp</text>
</a>
</g>
</g>
<!-- Node1&#45;&gt;Node4 -->
<g id="edge3_Node000001_Node000004" class="edge">
<title>Node1&#45;&gt;Node4</title>
<g id="a_edge3_Node000001_Node000004"><a xlink:title=" ">
<path fill="none" stroke="#63b8ff" d="M397.25,-77.52C397.25,-69.49 397.25,-60.94 397.25,-53.23"/>
<polygon fill="#63b8ff" stroke="#63b8ff" points="393.75,-77.25 397.25,-87.25 400.75,-77.25 393.75,-77.25"/>
</a>
</g>
</g>
<!-- Node5 -->
<g id="Node000005" class="node">
<title>Node5</title>
<g id="a_Node000005"><a xlink:href="AddressTable__item_8cpp.html" target="_top" xlink:title=" ">
<polygon fill="white" stroke="#666666" points="610.25,-53 480.25,-53 480.25,0 610.25,0 610.25,-53"/>
<text text-anchor="start" x="488.25" y="-39.5" font-family="Helvetica,sans-Serif" font-size="10.00">/github/workspace/dev</text>
<text text-anchor="start" x="488.25" y="-28.25" font-family="Helvetica,sans-Serif" font-size="10.00">_area/sourcecode/wibmod</text>
<text text-anchor="start" x="488.25" y="-17" font-family="Helvetica,sans-Serif" font-size="10.00">/src/WIB1/AddressTable</text>
<text text-anchor="middle" x="545.25" y="-5.75" font-family="Helvetica,sans-Serif" font-size="10.00">_item.cpp</text>
</a>
</g>
</g>
<!-- Node1&#45;&gt;Node5 -->
<g id="edge4_Node000001_Node000005" class="edge">
<title>Node1&#45;&gt;Node5</title>
<g id="a_edge4_Node000001_Node000005"><a xlink:title=" ">
<path fill="none" stroke="#63b8ff" d="M444.07,-83.13C461.32,-73.65 480.86,-62.91 498.13,-53.41"/>
<polygon fill="#63b8ff" stroke="#63b8ff" points="442.62,-79.94 435.54,-87.82 445.99,-86.07 442.62,-79.94"/>
</a>
</g>
</g>
<!-- Node6 -->
<g id="Node000006" class="node">
<title>Node6</title>
<g id="a_Node000006"><a xlink:href="AddressTable__search_8cpp.html" target="_top" xlink:title=" ">
<polygon fill="white" stroke="#666666" points="758.25,-53 628.25,-53 628.25,0 758.25,0 758.25,-53"/>
<text text-anchor="start" x="636.25" y="-39.5" font-family="Helvetica,sans-Serif" font-size="10.00">/github/workspace/dev</text>
<text text-anchor="start" x="636.25" y="-28.25" font-family="Helvetica,sans-Serif" font-size="10.00">_area/sourcecode/wibmod</text>
<text text-anchor="start" x="636.25" y="-17" font-family="Helvetica,sans-Serif" font-size="10.00">/src/WIB1/AddressTable</text>
<text text-anchor="middle" x="693.25" y="-5.75" font-family="Helvetica,sans-Serif" font-size="10.00">_search.cpp</text>
</a>
</g>
</g>
<!-- Node1&#45;&gt;Node6 -->
<g id="edge5_Node000001_Node000006" class="edge">
<title>Node1&#45;&gt;Node6</title>
<g id="a_edge5_Node000001_Node000006"><a xlink:title=" ">
<path fill="none" stroke="#63b8ff" d="M495.97,-85.94C534.62,-76.47 579.21,-64.91 619.25,-53 622.12,-52.15 625.03,-51.25 627.98,-50.33"/>
<polygon fill="#63b8ff" stroke="#63b8ff" points="495.59,-82.43 486.7,-88.2 497.25,-89.23 495.59,-82.43"/>
</a>
</g>
</g>
</g>
</svg>
