<?xml version="1.0" encoding="UTF-8" standalone="no"?>
<!DOCTYPE svg PUBLIC "-//W3C//DTD SVG 1.1//EN"
 "http://www.w3.org/Graphics/SVG/1.1/DTD/svg11.dtd">
<!-- Generated by graphviz version 9.0.0 (20230911.1827)
 -->
<!-- Title: /github/workspace/dev_area/sourcecode/sspmodules/src/anlBoard/anlExceptions.hpp Pages: 1 -->
<svg width="529pt" height="205pt"
 viewBox="0.00 0.00 529.32 205.25" xmlns="http://www.w3.org/2000/svg" xmlns:xlink="http://www.w3.org/1999/xlink">
<g id="graph0" class="graph" transform="scale(1 1) rotate(0) translate(4 201.25)">
<title>/github/workspace/dev_area/sourcecode/sspmodules/src/anlBoard/anlExceptions.hpp</title>
<!-- Node1 -->
<g id="Node000001" class="node">
<title>Node1</title>
<g id="a_Node000001"><a xlink:title=" ">
<polygon fill="#999999" stroke="#666666" points="263.32,-197.25 108.57,-197.25 108.57,-155.5 263.32,-155.5 263.32,-197.25"/>
<text text-anchor="start" x="116.57" y="-183.75" font-family="Helvetica,sans-Serif" font-size="10.00">/github/workspace/dev</text>
<text text-anchor="start" x="116.57" y="-172.5" font-family="Helvetica,sans-Serif" font-size="10.00">_area/sourcecode/sspmodules</text>
<text text-anchor="middle" x="185.94" y="-161.25" font-family="Helvetica,sans-Serif" font-size="10.00">/src/anlBoard/anlExceptions.hpp</text>
</a>
</g>
</g>
<!-- Node2 -->
<g id="Node000002" class="node">
<title>Node2</title>
<g id="a_Node000002"><a xlink:href="DeviceInterface_8cxx.html" target="_top" xlink:title=" ">
<polygon fill="white" stroke="#666666" points="211.69,-41.75 50.19,-41.75 50.19,0 211.69,0 211.69,-41.75"/>
<text text-anchor="start" x="58.19" y="-28.25" font-family="Helvetica,sans-Serif" font-size="10.00">/github/workspace/dev</text>
<text text-anchor="start" x="58.19" y="-17" font-family="Helvetica,sans-Serif" font-size="10.00">_area/sourcecode/sspmodules</text>
<text text-anchor="middle" x="130.94" y="-5.75" font-family="Helvetica,sans-Serif" font-size="10.00">/src/anlBoard/DeviceInterface.cxx</text>
</a>
</g>
</g>
<!-- Node1&#45;&gt;Node2 -->
<g id="edge1_Node000001_Node000002" class="edge">
<title>Node1&#45;&gt;Node2</title>
<g id="a_edge1_Node000001_Node000002"><a xlink:title=" ">
<path fill="none" stroke="#63b8ff" d="M96.84,-169.18C63.44,-162 28.61,-147.65 7.94,-119.5 -3.04,-104.54 -2.1,-93.35 7.94,-77.75 18.23,-61.78 34.32,-50.32 51.51,-42.12"/>
<polygon fill="#63b8ff" stroke="#63b8ff" points="96.12,-172.6 106.6,-171.06 97.45,-165.73 96.12,-172.6"/>
</a>
</g>
</g>
<!-- Node3 -->
<g id="Node000003" class="node">
<title>Node3</title>
<g id="a_Node000003"><a xlink:href="DeviceManager_8cxx.html" target="_top" xlink:title=" ">
<polygon fill="white" stroke="#666666" points="177.32,-119.5 16.57,-119.5 16.57,-77.75 177.32,-77.75 177.32,-119.5"/>
<text text-anchor="start" x="24.57" y="-106" font-family="Helvetica,sans-Serif" font-size="10.00">/github/workspace/dev</text>
<text text-anchor="start" x="24.57" y="-94.75" font-family="Helvetica,sans-Serif" font-size="10.00">_area/sourcecode/sspmodules</text>
<text text-anchor="middle" x="96.94" y="-83.5" font-family="Helvetica,sans-Serif" font-size="10.00">/src/anlBoard/DeviceManager.cxx</text>
</a>
</g>
</g>
<!-- Node1&#45;&gt;Node3 -->
<g id="edge2_Node000001_Node000003" class="edge">
<title>Node1&#45;&gt;Node3</title>
<g id="a_edge2_Node000001_Node000003"><a xlink:title=" ">
<path fill="none" stroke="#63b8ff" d="M153.36,-147.64C142.6,-138.48 130.84,-128.48 120.86,-119.98"/>
<polygon fill="#63b8ff" stroke="#63b8ff" points="151.06,-150.28 160.94,-154.09 155.59,-144.95 151.06,-150.28"/>
</a>
</g>
</g>
<!-- Node4 -->
<g id="Node000004" class="node">
<title>Node4</title>
<g id="a_Node000004"><a xlink:href="EthernetDevice_8cxx.html" target="_top" xlink:title=" ">
<polygon fill="white" stroke="#666666" points="354.57,-119.5 195.32,-119.5 195.32,-77.75 354.57,-77.75 354.57,-119.5"/>
<text text-anchor="start" x="203.32" y="-106" font-family="Helvetica,sans-Serif" font-size="10.00">/github/workspace/dev</text>
<text text-anchor="start" x="203.32" y="-94.75" font-family="Helvetica,sans-Serif" font-size="10.00">_area/sourcecode/sspmodules</text>
<text text-anchor="middle" x="274.94" y="-83.5" font-family="Helvetica,sans-Serif" font-size="10.00">/src/anlBoard/EthernetDevice.cxx</text>
</a>
</g>
</g>
<!-- Node1&#45;&gt;Node4 -->
<g id="edge3_Node000001_Node000004" class="edge">
<title>Node1&#45;&gt;Node4</title>
<g id="a_edge3_Node000001_Node000004"><a xlink:title=" ">
<path fill="none" stroke="#63b8ff" d="M218.53,-147.64C229.29,-138.48 241.04,-128.48 251.03,-119.98"/>
<polygon fill="#63b8ff" stroke="#63b8ff" points="216.29,-144.95 210.95,-154.09 220.83,-150.28 216.29,-144.95"/>
</a>
</g>
</g>
<!-- Node5 -->
<g id="Node000005" class="node">
<title>Node5</title>
<g id="a_Node000005"><a xlink:href="RegMap_8hpp.html" target="_top" xlink:title=" ">
<polygon fill="white" stroke="#666666" points="521.32,-119.5 372.57,-119.5 372.57,-77.75 521.32,-77.75 521.32,-119.5"/>
<text text-anchor="start" x="380.57" y="-106" font-family="Helvetica,sans-Serif" font-size="10.00">/github/workspace/dev</text>
<text text-anchor="start" x="380.57" y="-94.75" font-family="Helvetica,sans-Serif" font-size="10.00">_area/sourcecode/sspmodules</text>
<text text-anchor="middle" x="446.94" y="-83.5" font-family="Helvetica,sans-Serif" font-size="10.00">/src/anlBoard/RegMap.hpp</text>
</a>
</g>
</g>
<!-- Node1&#45;&gt;Node5 -->
<g id="edge4_Node000001_Node000005" class="edge">
<title>Node1&#45;&gt;Node5</title>
<g id="a_edge4_Node000001_Node000005"><a xlink:title=" ">
<path fill="none" stroke="#63b8ff" d="M266.63,-151.96C301.88,-141.73 342.84,-129.84 376.81,-119.98"/>
<polygon fill="#63b8ff" stroke="#63b8ff" points="265.97,-148.5 257.34,-154.65 267.92,-155.23 265.97,-148.5"/>
</a>
</g>
</g>
<!-- Node5&#45;&gt;Node2 -->
<g id="edge5_Node000005_Node000002" class="edge">
<title>Node5&#45;&gt;Node2</title>
<g id="a_edge5_Node000005_Node000002"><a xlink:title=" ">
<path fill="none" stroke="#63b8ff" d="M361.5,-77.14C315.05,-66.01 257.91,-52.31 212.14,-41.34"/>
<polygon fill="#63b8ff" stroke="#63b8ff" points="360.44,-80.49 370.98,-79.42 362.08,-73.68 360.44,-80.49"/>
</a>
</g>
</g>
<!-- Node6 -->
<g id="Node000006" class="node">
<title>Node6</title>
<g id="a_Node000006"><a xlink:href="RegMap_8cxx.html" target="_top" xlink:title=" ">
<polygon fill="white" stroke="#666666" points="521.32,-41.75 372.57,-41.75 372.57,0 521.32,0 521.32,-41.75"/>
<text text-anchor="start" x="380.57" y="-28.25" font-family="Helvetica,sans-Serif" font-size="10.00">/github/workspace/dev</text>
<text text-anchor="start" x="380.57" y="-17" font-family="Helvetica,sans-Serif" font-size="10.00">_area/sourcecode/sspmodules</text>
<text text-anchor="middle" x="446.94" y="-5.75" font-family="Helvetica,sans-Serif" font-size="10.00">/src/anlBoard/RegMap.cxx</text>
</a>
</g>
</g>
<!-- Node5&#45;&gt;Node6 -->
<g id="edge6_Node000005_Node000006" class="edge">
<title>Node5&#45;&gt;Node6</title>
<g id="a_edge6_Node000005_Node000006"><a xlink:title=" ">
<path fill="none" stroke="#63b8ff" d="M446.94,-66C446.94,-57.96 446.94,-49.54 446.94,-42.23"/>
<polygon fill="#63b8ff" stroke="#63b8ff" points="443.44,-65.81 446.94,-75.81 450.44,-65.81 443.44,-65.81"/>
</a>
</g>
</g>
</g>
</svg>
