<?xml version="1.0" encoding="UTF-8" standalone="no"?>
<!DOCTYPE svg PUBLIC "-//W3C//DTD SVG 1.1//EN"
 "http://www.w3.org/Graphics/SVG/1.1/DTD/svg11.dtd">
<!-- Generated by graphviz version 9.0.0 (20230911.1827)
 -->
<!-- Title: /github/workspace/dev_area/sourcecode/ers/include/ers/AnyIssue.hpp Pages: 1 -->
<svg width="254pt" height="128pt"
 viewBox="0.00 0.00 254.25 127.50" xmlns="http://www.w3.org/2000/svg" xmlns:xlink="http://www.w3.org/1999/xlink">
<g id="graph0" class="graph" transform="scale(1 1) rotate(0) translate(4 123.5)">
<title>/github/workspace/dev_area/sourcecode/ers/include/ers/AnyIssue.hpp</title>
<!-- Node1 -->
<g id="Node000001" class="node">
<title>Node1</title>
<g id="a_Node000001"><a xlink:title=" ">
<polygon fill="#999999" stroke="#666666" points="187,-119.5 59.25,-119.5 59.25,-77.75 187,-77.75 187,-119.5"/>
<text text-anchor="start" x="67.25" y="-106" font-family="Helvetica,sans-Serif" font-size="10.00">/github/workspace/dev</text>
<text text-anchor="start" x="67.25" y="-94.75" font-family="Helvetica,sans-Serif" font-size="10.00">_area/sourcecode/ers</text>
<text text-anchor="middle" x="123.12" y="-83.5" font-family="Helvetica,sans-Serif" font-size="10.00">/include/ers/AnyIssue.hpp</text>
</a>
</g>
</g>
<!-- Node2 -->
<g id="Node000002" class="node">
<title>Node2</title>
<g id="a_Node000002"><a xlink:href="ers_2pybindsrc_2module_8cpp.html" target="_top" xlink:title=" ">
<polygon fill="white" stroke="#666666" points="114.25,-41.75 0,-41.75 0,0 114.25,0 114.25,-41.75"/>
<text text-anchor="start" x="8" y="-28.25" font-family="Helvetica,sans-Serif" font-size="10.00">/github/workspace/dev</text>
<text text-anchor="start" x="8" y="-17" font-family="Helvetica,sans-Serif" font-size="10.00">_area/sourcecode/ers</text>
<text text-anchor="middle" x="57.12" y="-5.75" font-family="Helvetica,sans-Serif" font-size="10.00">/pybindsrc/module.cpp</text>
</a>
</g>
</g>
<!-- Node1&#45;&gt;Node2 -->
<g id="edge1_Node000001_Node000002" class="edge">
<title>Node1&#45;&gt;Node2</title>
<g id="a_edge1_Node000001_Node000002"><a xlink:title=" ">
<path fill="none" stroke="#63b8ff" d="M98,-68.79C90.29,-59.94 81.97,-50.39 74.86,-42.23"/>
<polygon fill="#63b8ff" stroke="#63b8ff" points="95.24,-70.94 104.44,-76.18 100.51,-66.35 95.24,-70.94"/>
</a>
</g>
</g>
<!-- Node3 -->
<g id="Node000003" class="node">
<title>Node3</title>
<g id="a_Node000003"><a xlink:href="IssueFactory_8cpp.html" target="_top" xlink:title=" ">
<polygon fill="white" stroke="#666666" points="246.25,-41.75 132,-41.75 132,0 246.25,0 246.25,-41.75"/>
<text text-anchor="start" x="140" y="-28.25" font-family="Helvetica,sans-Serif" font-size="10.00">/github/workspace/dev</text>
<text text-anchor="start" x="140" y="-17" font-family="Helvetica,sans-Serif" font-size="10.00">_area/sourcecode/ers</text>
<text text-anchor="middle" x="189.12" y="-5.75" font-family="Helvetica,sans-Serif" font-size="10.00">/src/IssueFactory.cpp</text>
</a>
</g>
</g>
<!-- Node1&#45;&gt;Node3 -->
<g id="edge2_Node000001_Node000003" class="edge">
<title>Node1&#45;&gt;Node3</title>
<g id="a_edge2_Node000001_Node000003"><a xlink:title=" ">
<path fill="none" stroke="#63b8ff" d="M148.25,-68.79C155.96,-59.94 164.28,-50.39 171.39,-42.23"/>
<polygon fill="#63b8ff" stroke="#63b8ff" points="145.74,-66.35 141.81,-76.18 151.01,-70.94 145.74,-66.35"/>
</a>
</g>
</g>
</g>
</svg>
