<?xml version="1.0" encoding="UTF-8" standalone="no"?>
<!DOCTYPE svg PUBLIC "-//W3C//DTD SVG 1.1//EN"
 "http://www.w3.org/Graphics/SVG/1.1/DTD/svg11.dtd">
<!-- Generated by graphviz version 9.0.0 (20230911.1827)
 -->
<!-- Title: /github/workspace/dev_area/build/appfwk/codegen/include/appfwk/cmd/Structs.hpp Pages: 1 -->
<svg width="850pt" height="205pt"
 viewBox="0.00 0.00 850.12 205.25" xmlns="http://www.w3.org/2000/svg" xmlns:xlink="http://www.w3.org/1999/xlink">
<g id="graph0" class="graph" transform="scale(1 1) rotate(0) translate(4 201.25)">
<title>/github/workspace/dev_area/build/appfwk/codegen/include/appfwk/cmd/Structs.hpp</title>
<!-- Node1 -->
<g id="Node000001" class="node">
<title>Node1</title>
<g id="a_Node000001"><a xlink:title=" ">
<polygon fill="#999999" stroke="#666666" points="299.12,-197.25 140.62,-197.25 140.62,-155.5 299.12,-155.5 299.12,-197.25"/>
<text text-anchor="start" x="148.62" y="-183.75" font-family="Helvetica,sans-Serif" font-size="10.00">/github/workspace/dev</text>
<text text-anchor="start" x="148.62" y="-172.5" font-family="Helvetica,sans-Serif" font-size="10.00">_area/build/appfwk/codegen</text>
<text text-anchor="middle" x="219.88" y="-161.25" font-family="Helvetica,sans-Serif" font-size="10.00">/include/appfwk/cmd/Structs.hpp</text>
</a>
</g>
</g>
<!-- Node2 -->
<g id="Node000002" class="node">
<title>Node2</title>
<g id="a_Node000002"><a xlink:href="appfwk_2codegen_2include_2appfwk_2cmd_2Nljs_8hpp.html" target="_top" xlink:title=" ">
<polygon fill="white" stroke="#666666" points="369,-119.5 224.75,-119.5 224.75,-77.75 369,-77.75 369,-119.5"/>
<text text-anchor="start" x="232.75" y="-106" font-family="Helvetica,sans-Serif" font-size="10.00">/github/workspace/dev</text>
<text text-anchor="start" x="232.75" y="-94.75" font-family="Helvetica,sans-Serif" font-size="10.00">_area/build/appfwk/codegen</text>
<text text-anchor="middle" x="296.88" y="-83.5" font-family="Helvetica,sans-Serif" font-size="10.00">/include/appfwk/cmd/Nljs.hpp</text>
</a>
</g>
</g>
<!-- Node1&#45;&gt;Node2 -->
<g id="edge1_Node000001_Node000002" class="edge">
<title>Node1&#45;&gt;Node2</title>
<g id="a_edge1_Node000001_Node000002"><a xlink:title=" ">
<path fill="none" stroke="#63b8ff" d="M248.63,-147.09C257.78,-138.09 267.72,-128.31 276.18,-119.98"/>
<polygon fill="#63b8ff" stroke="#63b8ff" points="246.26,-144.51 241.59,-154.01 251.17,-149.5 246.26,-144.51"/>
</a>
</g>
</g>
<!-- Node8 -->
<g id="Node000008" class="node">
<title>Node8</title>
<g id="a_Node000008"><a xlink:href="sourcecode_2appfwk_2src_2Application_8hpp.html" target="_top" xlink:title=" ">
<polygon fill="white" stroke="#666666" points="206.75,-119.5 79,-119.5 79,-77.75 206.75,-77.75 206.75,-119.5"/>
<text text-anchor="start" x="87" y="-106" font-family="Helvetica,sans-Serif" font-size="10.00">/github/workspace/dev</text>
<text text-anchor="start" x="87" y="-94.75" font-family="Helvetica,sans-Serif" font-size="10.00">_area/sourcecode/appfwk</text>
<text text-anchor="middle" x="142.88" y="-83.5" font-family="Helvetica,sans-Serif" font-size="10.00">/src/Application.hpp</text>
</a>
</g>
</g>
<!-- Node1&#45;&gt;Node8 -->
<g id="edge7_Node000001_Node000008" class="edge">
<title>Node1&#45;&gt;Node8</title>
<g id="a_edge7_Node000001_Node000008"><a xlink:title=" ">
<path fill="none" stroke="#63b8ff" d="M191.12,-147.09C181.97,-138.09 172.03,-128.31 163.57,-119.98"/>
<polygon fill="#63b8ff" stroke="#63b8ff" points="188.58,-149.5 198.16,-154.01 193.49,-144.51 188.58,-149.5"/>
</a>
</g>
</g>
<!-- Node3 -->
<g id="Node000003" class="node">
<title>Node3</title>
<g id="a_Node000003"><a xlink:href="sourcecode_2appfwk_2src_2Application_8cpp.html" target="_top" xlink:title=" ">
<polygon fill="white" stroke="#666666" points="127.75,-41.75 0,-41.75 0,0 127.75,0 127.75,-41.75"/>
<text text-anchor="start" x="8" y="-28.25" font-family="Helvetica,sans-Serif" font-size="10.00">/github/workspace/dev</text>
<text text-anchor="start" x="8" y="-17" font-family="Helvetica,sans-Serif" font-size="10.00">_area/sourcecode/appfwk</text>
<text text-anchor="middle" x="63.88" y="-5.75" font-family="Helvetica,sans-Serif" font-size="10.00">/src/Application.cpp</text>
</a>
</g>
</g>
<!-- Node2&#45;&gt;Node3 -->
<g id="edge2_Node000002_Node000003" class="edge">
<title>Node2&#45;&gt;Node3</title>
<g id="a_edge2_Node000002_Node000003"><a xlink:title=" ">
<path fill="none" stroke="#63b8ff" d="M223.62,-73.81C192.43,-63.67 156.41,-51.96 126.49,-42.23"/>
<polygon fill="#63b8ff" stroke="#63b8ff" points="222.4,-77.09 233,-76.86 224.57,-70.44 222.4,-77.09"/>
</a>
</g>
</g>
<!-- Node4 -->
<g id="Node000004" class="node">
<title>Node4</title>
<g id="a_Node000004"><a xlink:href="DAQModuleManager_8cpp.html" target="_top" xlink:title=" ">
<polygon fill="white" stroke="#666666" points="289.62,-41.75 146.12,-41.75 146.12,0 289.62,0 289.62,-41.75"/>
<text text-anchor="start" x="154.12" y="-28.25" font-family="Helvetica,sans-Serif" font-size="10.00">/github/workspace/dev</text>
<text text-anchor="start" x="154.12" y="-17" font-family="Helvetica,sans-Serif" font-size="10.00">_area/sourcecode/appfwk</text>
<text text-anchor="middle" x="217.88" y="-5.75" font-family="Helvetica,sans-Serif" font-size="10.00">/src/DAQModuleManager.cpp</text>
</a>
</g>
</g>
<!-- Node2&#45;&gt;Node4 -->
<g id="edge3_Node000002_Node000004" class="edge">
<title>Node2&#45;&gt;Node4</title>
<g id="a_edge3_Node000002_Node000004"><a xlink:title=" ">
<path fill="none" stroke="#63b8ff" d="M267.66,-69.61C258.19,-60.53 247.88,-50.64 239.1,-42.23"/>
<polygon fill="#63b8ff" stroke="#63b8ff" points="264.97,-71.88 274.61,-76.28 269.82,-66.83 264.97,-71.88"/>
</a>
</g>
</g>
<!-- Node5 -->
<g id="Node000005" class="node">
<title>Node5</title>
<g id="a_Node000005"><a xlink:href="sourcecode_2timinglibs_2src_2TimingController_8cpp.html" target="_top" xlink:title=" ">
<polygon fill="white" stroke="#666666" points="445.62,-41.75 308.12,-41.75 308.12,0 445.62,0 445.62,-41.75"/>
<text text-anchor="start" x="316.12" y="-28.25" font-family="Helvetica,sans-Serif" font-size="10.00">/github/workspace/dev</text>
<text text-anchor="start" x="316.12" y="-17" font-family="Helvetica,sans-Serif" font-size="10.00">_area/sourcecode/timinglibs</text>
<text text-anchor="middle" x="376.88" y="-5.75" font-family="Helvetica,sans-Serif" font-size="10.00">/src/TimingController.cpp</text>
</a>
</g>
</g>
<!-- Node2&#45;&gt;Node5 -->
<g id="edge4_Node000002_Node000005" class="edge">
<title>Node2&#45;&gt;Node5</title>
<g id="a_edge4_Node000002_Node000005"><a xlink:title=" ">
<path fill="none" stroke="#63b8ff" d="M326.46,-69.61C336.05,-60.53 346.49,-50.64 355.38,-42.23"/>
<polygon fill="#63b8ff" stroke="#63b8ff" points="324.27,-66.87 319.41,-76.28 329.08,-71.95 324.27,-66.87"/>
</a>
</g>
</g>
<!-- Node6 -->
<g id="Node000006" class="node">
<title>Node6</title>
<g id="a_Node000006"><a xlink:href="sourcecode_2timinglibs_2src_2TimingEndpointControllerBase_8cpp.html" target="_top" xlink:title=" ">
<polygon fill="white" stroke="#666666" points="647.88,-41.75 463.88,-41.75 463.88,0 647.88,0 647.88,-41.75"/>
<text text-anchor="start" x="471.88" y="-28.25" font-family="Helvetica,sans-Serif" font-size="10.00">/github/workspace/dev</text>
<text text-anchor="start" x="471.88" y="-17" font-family="Helvetica,sans-Serif" font-size="10.00">_area/sourcecode/timinglibs</text>
<text text-anchor="middle" x="555.88" y="-5.75" font-family="Helvetica,sans-Serif" font-size="10.00">/src/TimingEndpointControllerBase.cpp</text>
</a>
</g>
</g>
<!-- Node2&#45;&gt;Node6 -->
<g id="edge5_Node000002_Node000006" class="edge">
<title>Node2&#45;&gt;Node6</title>
<g id="a_edge5_Node000002_Node000006"><a xlink:title=" ">
<path fill="none" stroke="#63b8ff" d="M376.94,-74.21C411.93,-63.98 452.57,-52.09 486.28,-42.23"/>
<polygon fill="#63b8ff" stroke="#63b8ff" points="376.35,-70.73 367.73,-76.9 378.32,-77.45 376.35,-70.73"/>
</a>
</g>
</g>
<!-- Node7 -->
<g id="Node000007" class="node">
<title>Node7</title>
<g id="a_Node000007"><a xlink:href="sourcecode_2timinglibs_2src_2TimingMasterControllerBase_8cpp.html" target="_top" xlink:title=" ">
<polygon fill="white" stroke="#666666" points="842.12,-41.75 665.62,-41.75 665.62,0 842.12,0 842.12,-41.75"/>
<text text-anchor="start" x="673.62" y="-28.25" font-family="Helvetica,sans-Serif" font-size="10.00">/github/workspace/dev</text>
<text text-anchor="start" x="673.62" y="-17" font-family="Helvetica,sans-Serif" font-size="10.00">_area/sourcecode/timinglibs</text>
<text text-anchor="middle" x="753.88" y="-5.75" font-family="Helvetica,sans-Serif" font-size="10.00">/src/TimingMasterControllerBase.cpp</text>
</a>
</g>
</g>
<!-- Node2&#45;&gt;Node7 -->
<g id="edge6_Node000002_Node000007" class="edge">
<title>Node2&#45;&gt;Node7</title>
<g id="a_edge6_Node000002_Node000007"><a xlink:title=" ">
<path fill="none" stroke="#63b8ff" d="M380.41,-85.82C453.5,-75.22 562.44,-58.74 656.88,-41.75 659.67,-41.25 662.5,-40.73 665.36,-40.19"/>
<polygon fill="#63b8ff" stroke="#63b8ff" points="380.34,-82.3 370.95,-87.19 381.34,-89.22 380.34,-82.3"/>
</a>
</g>
</g>
<!-- Node8&#45;&gt;Node3 -->
<g id="edge8_Node000008_Node000003" class="edge">
<title>Node8&#45;&gt;Node3</title>
<g id="a_edge8_Node000008_Node000003"><a xlink:title=" ">
<path fill="none" stroke="#63b8ff" d="M113.66,-69.61C104.19,-60.53 93.88,-50.64 85.1,-42.23"/>
<polygon fill="#63b8ff" stroke="#63b8ff" points="110.97,-71.88 120.61,-76.28 115.82,-66.83 110.97,-71.88"/>
</a>
</g>
</g>
</g>
</svg>
