<?xml version="1.0" encoding="UTF-8" standalone="no"?>
<!DOCTYPE svg PUBLIC "-//W3C//DTD SVG 1.1//EN"
 "http://www.w3.org/Graphics/SVG/1.1/DTD/svg11.dtd">
<!-- Generated by graphviz version 9.0.0 (20230911.1827)
 -->
<!-- Title: /github/workspace/dev_area/build/appfwk/codegen/include/appfwk/cmd/Nljs.hpp Pages: 1 -->
<svg width="320pt" height="216pt"
 viewBox="0.00 0.00 319.50 215.50" xmlns="http://www.w3.org/2000/svg" xmlns:xlink="http://www.w3.org/1999/xlink">
<g id="graph0" class="graph" transform="scale(1 1) rotate(0) translate(4 211.5)">
<title>/github/workspace/dev_area/build/appfwk/codegen/include/appfwk/cmd/Nljs.hpp</title>
<!-- Node1 -->
<g id="Node000001" class="node">
<title>Node1</title>
<g id="a_Node000001"><a xlink:title=" ">
<polygon fill="#999999" stroke="#666666" points="169.62,-207.5 25.38,-207.5 25.38,-165.75 169.62,-165.75 169.62,-207.5"/>
<text text-anchor="start" x="33.38" y="-194" font-family="Helvetica,sans-Serif" font-size="10.00">/github/workspace/dev</text>
<text text-anchor="start" x="33.38" y="-182.75" font-family="Helvetica,sans-Serif" font-size="10.00">_area/build/appfwk/codegen</text>
<text text-anchor="middle" x="97.5" y="-171.5" font-family="Helvetica,sans-Serif" font-size="10.00">/include/appfwk/cmd/Nljs.hpp</text>
</a>
</g>
</g>
<!-- Node2 -->
<g id="Node000002" class="node">
<title>Node2</title>
<g id="a_Node000002"><a xlink:href="appfwk_2codegen_2include_2appfwk_2cmd_2Structs_8hpp.html" target="_top" xlink:title=" ">
<polygon fill="white" stroke="#666666" points="295.38,-129.75 173.62,-129.75 173.62,-110.5 295.38,-110.5 295.38,-129.75"/>
<text text-anchor="middle" x="234.5" y="-116.25" font-family="Helvetica,sans-Serif" font-size="10.00">appfwk/cmd/Structs.hpp</text>
</a>
</g>
</g>
<!-- Node1&#45;&gt;Node2 -->
<g id="edge1_Node000001_Node000002" class="edge">
<title>Node1&#45;&gt;Node2</title>
<g id="a_edge1_Node000001_Node000002"><a xlink:title=" ">
<path fill="none" stroke="#63b8ff" d="M140.47,-165.39C161.46,-155.51 186.19,-143.87 205.01,-135.01"/>
<polygon fill="#63b8ff" stroke="#63b8ff" points="206.42,-138.22 213.97,-130.79 203.43,-131.88 206.42,-138.22"/>
</a>
</g>
</g>
<!-- Node5 -->
<g id="Node000005" class="node">
<title>Node5</title>
<g id="a_Node000005"><a xlink:title=" ">
<polygon fill="#e0e0e0" stroke="#999999" points="97,-19.25 0,-19.25 0,0 97,0 97,-19.25"/>
<text text-anchor="middle" x="48.5" y="-5.75" font-family="Helvetica,sans-Serif" font-size="10.00">nlohmann/json.hpp</text>
</a>
</g>
</g>
<!-- Node1&#45;&gt;Node5 -->
<g id="edge12_Node000001_Node000005" class="edge">
<title>Node1&#45;&gt;Node5</title>
<g id="a_edge12_Node000001_Node000005"><a xlink:title=" ">
<path fill="none" stroke="#63b8ff" d="M66.17,-165.43C54.58,-156.11 42.75,-143.95 36.5,-129.75 22.1,-97.04 32.46,-54.53 40.81,-30.14"/>
<polygon fill="#63b8ff" stroke="#63b8ff" points="44.05,-31.48 44.22,-20.88 37.48,-29.06 44.05,-31.48"/>
</a>
</g>
</g>
<!-- Node8 -->
<g id="Node000008" class="node">
<title>Node8</title>
<g id="a_Node000008"><a xlink:href="cmdlib_2codegen_2include_2cmdlib_2cmd_2Nljs_8hpp.html" target="_top" xlink:title=" ">
<polygon fill="white" stroke="#666666" points="149.75,-129.75 45.25,-129.75 45.25,-110.5 149.75,-110.5 149.75,-129.75"/>
<text text-anchor="middle" x="97.5" y="-116.25" font-family="Helvetica,sans-Serif" font-size="10.00">cmdlib/cmd/Nljs.hpp</text>
</a>
</g>
</g>
<!-- Node1&#45;&gt;Node8 -->
<g id="edge9_Node000001_Node000008" class="edge">
<title>Node1&#45;&gt;Node8</title>
<g id="a_edge9_Node000001_Node000008"><a xlink:title=" ">
<path fill="none" stroke="#63b8ff" d="M97.5,-165.57C97.5,-157.9 97.5,-149.14 97.5,-141.45"/>
<polygon fill="#63b8ff" stroke="#63b8ff" points="101,-141.71 97.5,-131.71 94,-141.71 101,-141.71"/>
</a>
</g>
</g>
<!-- Node3 -->
<g id="Node000003" class="node">
<title>Node3</title>
<g id="a_Node000003"><a xlink:title=" ">
<polygon fill="#e0e0e0" stroke="#999999" points="222.12,-19.25 176.88,-19.25 176.88,0 222.12,0 222.12,-19.25"/>
<text text-anchor="middle" x="199.5" y="-5.75" font-family="Helvetica,sans-Serif" font-size="10.00">cstdint</text>
</a>
</g>
</g>
<!-- Node2&#45;&gt;Node3 -->
<g id="edge2_Node000002_Node000003" class="edge">
<title>Node2&#45;&gt;Node3</title>
<g id="a_edge2_Node000002_Node000003"><a xlink:title=" ">
<path fill="none" stroke="#63b8ff" d="M244.25,-110.35C256.78,-97.94 275.79,-74.63 265.5,-55.25 258.39,-41.85 245.25,-31.74 232.56,-24.56"/>
<polygon fill="#63b8ff" stroke="#63b8ff" points="234.44,-21.6 223.95,-20.12 231.23,-27.82 234.44,-21.6"/>
</a>
</g>
</g>
<!-- Node4 -->
<g id="Node000004" class="node">
<title>Node4</title>
<g id="a_Node000004"><a xlink:href="cmdlib_2codegen_2include_2cmdlib_2cmd_2Structs_8hpp.html" target="_top" xlink:title=" ">
<polygon fill="white" stroke="#666666" points="194.88,-74.5 76.12,-74.5 76.12,-55.25 194.88,-55.25 194.88,-74.5"/>
<text text-anchor="middle" x="135.5" y="-61" font-family="Helvetica,sans-Serif" font-size="10.00">cmdlib/cmd/Structs.hpp</text>
</a>
</g>
</g>
<!-- Node2&#45;&gt;Node4 -->
<g id="edge3_Node000002_Node000004" class="edge">
<title>Node2&#45;&gt;Node4</title>
<g id="a_edge3_Node000002_Node000004"><a xlink:title=" ">
<path fill="none" stroke="#63b8ff" d="M217.71,-110.09C202.49,-101.91 179.8,-89.71 162.12,-80.19"/>
<polygon fill="#63b8ff" stroke="#63b8ff" points="164.17,-77.32 153.71,-75.67 160.86,-83.49 164.17,-77.32"/>
</a>
</g>
</g>
<!-- Node6 -->
<g id="Node000006" class="node">
<title>Node6</title>
<g id="a_Node000006"><a xlink:title=" ">
<polygon fill="#e0e0e0" stroke="#999999" points="311.5,-19.25 271.5,-19.25 271.5,0 311.5,0 311.5,-19.25"/>
<text text-anchor="middle" x="291.5" y="-5.75" font-family="Helvetica,sans-Serif" font-size="10.00">string</text>
</a>
</g>
</g>
<!-- Node2&#45;&gt;Node6 -->
<g id="edge8_Node000002_Node000006" class="edge">
<title>Node2&#45;&gt;Node6</title>
<g id="a_edge8_Node000002_Node000006"><a xlink:title=" ">
<path fill="none" stroke="#63b8ff" d="M247.62,-110.1C258.26,-102.04 272.71,-89.26 280.5,-74.5 287.66,-60.92 290.32,-43.68 291.23,-30.53"/>
<polygon fill="#63b8ff" stroke="#63b8ff" points="294.71,-31.08 291.61,-20.95 287.72,-30.8 294.71,-31.08"/>
</a>
</g>
</g>
<!-- Node7 -->
<g id="Node000007" class="node">
<title>Node7</title>
<g id="a_Node000007"><a xlink:title=" ">
<polygon fill="#e0e0e0" stroke="#999999" points="256,-74.5 213,-74.5 213,-55.25 256,-55.25 256,-74.5"/>
<text text-anchor="middle" x="234.5" y="-61" font-family="Helvetica,sans-Serif" font-size="10.00">vector</text>
</a>
</g>
</g>
<!-- Node2&#45;&gt;Node7 -->
<g id="edge7_Node000002_Node000007" class="edge">
<title>Node2&#45;&gt;Node7</title>
<g id="a_edge7_Node000002_Node000007"><a xlink:title=" ">
<path fill="none" stroke="#63b8ff" d="M234.5,-110.33C234.5,-103.82 234.5,-94.67 234.5,-86.37"/>
<polygon fill="#63b8ff" stroke="#63b8ff" points="238,-86.37 234.5,-76.37 231,-86.37 238,-86.37"/>
</a>
</g>
</g>
<!-- Node4&#45;&gt;Node3 -->
<g id="edge4_Node000004_Node000003" class="edge">
<title>Node4&#45;&gt;Node3</title>
<g id="a_edge4_Node000004_Node000003"><a xlink:title=" ">
<path fill="none" stroke="#63b8ff" d="M146.36,-54.84C155.61,-47.15 169.12,-35.9 180.21,-26.68"/>
<polygon fill="#63b8ff" stroke="#63b8ff" points="182.19,-29.58 187.64,-20.49 177.71,-24.2 182.19,-29.58"/>
</a>
</g>
</g>
<!-- Node4&#45;&gt;Node5 -->
<g id="edge5_Node000004_Node000005" class="edge">
<title>Node4&#45;&gt;Node5</title>
<g id="a_edge5_Node000004_Node000005"><a xlink:title=" ">
<path fill="none" stroke="#63b8ff" d="M120.74,-54.84C107.62,-46.81 88.18,-34.91 72.77,-25.48"/>
<polygon fill="#63b8ff" stroke="#63b8ff" points="74.98,-22.73 64.62,-20.49 71.32,-28.7 74.98,-22.73"/>
</a>
</g>
</g>
<!-- Node4&#45;&gt;Node6 -->
<g id="edge6_Node000004_Node000006" class="edge">
<title>Node4&#45;&gt;Node6</title>
<g id="a_edge6_Node000004_Node000006"><a xlink:title=" ">
<path fill="none" stroke="#63b8ff" d="M161.96,-54.84C189.28,-45.52 231.87,-30.98 260.69,-21.14"/>
<polygon fill="#63b8ff" stroke="#63b8ff" points="261.6,-24.53 269.94,-17.99 259.34,-17.9 261.6,-24.53"/>
</a>
</g>
</g>
<!-- Node8&#45;&gt;Node4 -->
<g id="edge10_Node000008_Node000004" class="edge">
<title>Node8&#45;&gt;Node4</title>
<g id="a_edge10_Node000008_Node000004"><a xlink:title=" ">
<path fill="none" stroke="#63b8ff" d="M103.77,-110.33C108.86,-103.21 116.2,-92.93 122.53,-84.05"/>
<polygon fill="#63b8ff" stroke="#63b8ff" points="125.25,-86.26 128.21,-76.09 119.55,-82.2 125.25,-86.26"/>
</a>
</g>
</g>
<!-- Node8&#45;&gt;Node5 -->
<g id="edge11_Node000008_Node000005" class="edge">
<title>Node8&#45;&gt;Node5</title>
<g id="a_edge11_Node000008_Node000005"><a xlink:title=" ">
<path fill="none" stroke="#63b8ff" d="M90.19,-110.05C83.49,-101.36 73.71,-87.67 67.5,-74.5 60.85,-60.38 55.93,-43.41 52.77,-30.51"/>
<polygon fill="#63b8ff" stroke="#63b8ff" points="56.25,-30.05 50.61,-21.09 49.43,-31.62 56.25,-30.05"/>
</a>
</g>
</g>
</g>
</svg>
