<?xml version="1.0" encoding="UTF-8" standalone="no"?>
<!DOCTYPE svg PUBLIC "-//W3C//DTD SVG 1.1//EN"
 "http://www.w3.org/Graphics/SVG/1.1/DTD/svg11.dtd">
<!-- Generated by graphviz version 9.0.0 (20230911.1827)
 -->
<!-- Title: /github/workspace/dev_area/sourcecode/appmodel/include/appmodel/appmodelIssues.hpp Pages: 1 -->
<svg width="1909pt" height="205pt"
 viewBox="0.00 0.00 1909.25 205.25" xmlns="http://www.w3.org/2000/svg" xmlns:xlink="http://www.w3.org/1999/xlink">
<g id="graph0" class="graph" transform="scale(1 1) rotate(0) translate(4 201.25)">
<title>/github/workspace/dev_area/sourcecode/appmodel/include/appmodel/appmodelIssues.hpp</title>
<!-- Node1 -->
<g id="Node000001" class="node">
<title>Node1</title>
<g id="a_Node000001"><a xlink:title=" ">
<polygon fill="#999999" stroke="#666666" points="1110.62,-197.25 923.62,-197.25 923.62,-155.5 1110.62,-155.5 1110.62,-197.25"/>
<text text-anchor="start" x="931.62" y="-183.75" font-family="Helvetica,sans-Serif" font-size="10.00">/github/workspace/dev</text>
<text text-anchor="start" x="931.62" y="-172.5" font-family="Helvetica,sans-Serif" font-size="10.00">_area/sourcecode/appmodel</text>
<text text-anchor="middle" x="1017.12" y="-161.25" font-family="Helvetica,sans-Serif" font-size="10.00">/include/appmodel/appmodelIssues.hpp</text>
</a>
</g>
</g>
<!-- Node2 -->
<g id="Node000002" class="node">
<title>Node2</title>
<g id="a_Node000002"><a xlink:href="sourcecode_2appmodel_2src_2DFApplication_8cpp.html" target="_top" xlink:title=" ">
<polygon fill="white" stroke="#666666" points="138.25,-41.75 0,-41.75 0,0 138.25,0 138.25,-41.75"/>
<text text-anchor="start" x="8" y="-28.25" font-family="Helvetica,sans-Serif" font-size="10.00">/github/workspace/dev</text>
<text text-anchor="start" x="8" y="-17" font-family="Helvetica,sans-Serif" font-size="10.00">_area/sourcecode/appmodel</text>
<text text-anchor="middle" x="69.12" y="-5.75" font-family="Helvetica,sans-Serif" font-size="10.00">/src/DFApplication.cpp</text>
</a>
</g>
</g>
<!-- Node1&#45;&gt;Node2 -->
<g id="edge1_Node000001_Node000002" class="edge">
<title>Node1&#45;&gt;Node2</title>
<g id="a_edge1_Node000001_Node000002"><a xlink:title=" ">
<path fill="none" stroke="#63b8ff" d="M912.19,-172.87C786.02,-168.31 568.34,-155.48 385.12,-119.5 290.75,-100.97 184.59,-64.89 122.47,-42.17"/>
<polygon fill="#63b8ff" stroke="#63b8ff" points="911.73,-176.36 921.85,-173.21 911.98,-169.36 911.73,-176.36"/>
</a>
</g>
</g>
<!-- Node3 -->
<g id="Node000003" class="node">
<title>Node3</title>
<g id="a_Node000003"><a xlink:href="sourcecode_2appmodel_2src_2DFOApplication_8cpp.html" target="_top" xlink:title=" ">
<polygon fill="white" stroke="#666666" points="294.25,-41.75 156,-41.75 156,0 294.25,0 294.25,-41.75"/>
<text text-anchor="start" x="164" y="-28.25" font-family="Helvetica,sans-Serif" font-size="10.00">/github/workspace/dev</text>
<text text-anchor="start" x="164" y="-17" font-family="Helvetica,sans-Serif" font-size="10.00">_area/sourcecode/appmodel</text>
<text text-anchor="middle" x="225.12" y="-5.75" font-family="Helvetica,sans-Serif" font-size="10.00">/src/DFOApplication.cpp</text>
</a>
</g>
</g>
<!-- Node1&#45;&gt;Node3 -->
<g id="edge2_Node000001_Node000003" class="edge">
<title>Node1&#45;&gt;Node3</title>
<g id="a_edge2_Node000001_Node000003"><a xlink:title=" ">
<path fill="none" stroke="#63b8ff" d="M911.77,-169C813.29,-161.68 662.56,-146.95 534.12,-119.5 442.66,-99.95 339.67,-64.62 278.71,-42.25"/>
<polygon fill="#63b8ff" stroke="#63b8ff" points="911.48,-172.49 921.71,-169.73 911.99,-165.51 911.48,-172.49"/>
</a>
</g>
</g>
<!-- Node4 -->
<g id="Node000004" class="node">
<title>Node4</title>
<g id="a_Node000004"><a xlink:href="sourcecode_2appmodel_2src_2DTSHSIApplication_8cpp.html" target="_top" xlink:title=" ">
<polygon fill="white" stroke="#666666" points="450.25,-41.75 312,-41.75 312,0 450.25,0 450.25,-41.75"/>
<text text-anchor="start" x="320" y="-28.25" font-family="Helvetica,sans-Serif" font-size="10.00">/github/workspace/dev</text>
<text text-anchor="start" x="320" y="-17" font-family="Helvetica,sans-Serif" font-size="10.00">_area/sourcecode/appmodel</text>
<text text-anchor="middle" x="381.12" y="-5.75" font-family="Helvetica,sans-Serif" font-size="10.00">/src/DTSHSIApplication.cpp</text>
</a>
</g>
</g>
<!-- Node1&#45;&gt;Node4 -->
<g id="edge3_Node000001_Node000004" class="edge">
<title>Node1&#45;&gt;Node4</title>
<g id="a_edge3_Node000001_Node000004"><a xlink:title=" ">
<path fill="none" stroke="#63b8ff" d="M912.21,-162.53C844.33,-153.16 754.35,-138.73 676.12,-119.5 589.82,-98.29 492.42,-63.94 433.95,-42.16"/>
<polygon fill="#63b8ff" stroke="#63b8ff" points="911.45,-165.96 921.84,-163.84 912.4,-159.02 911.45,-165.96"/>
</a>
</g>
</g>
<!-- Node5 -->
<g id="Node000005" class="node">
<title>Node5</title>
<g id="a_Node000005"><a xlink:href="sourcecode_2appmodel_2src_2FakeDataApplication_8cpp.html" target="_top" xlink:title=" ">
<polygon fill="white" stroke="#666666" points="611.88,-41.75 468.38,-41.75 468.38,0 611.88,0 611.88,-41.75"/>
<text text-anchor="start" x="476.38" y="-28.25" font-family="Helvetica,sans-Serif" font-size="10.00">/github/workspace/dev</text>
<text text-anchor="start" x="476.38" y="-17" font-family="Helvetica,sans-Serif" font-size="10.00">_area/sourcecode/appmodel</text>
<text text-anchor="middle" x="540.12" y="-5.75" font-family="Helvetica,sans-Serif" font-size="10.00">/src/FakeDataApplication.cpp</text>
</a>
</g>
</g>
<!-- Node1&#45;&gt;Node5 -->
<g id="edge4_Node000001_Node000005" class="edge">
<title>Node1&#45;&gt;Node5</title>
<g id="a_edge4_Node000001_Node000005"><a xlink:title=" ">
<path fill="none" stroke="#63b8ff" d="M912.53,-152.66C873.77,-143.45 829.65,-132.02 790.12,-119.5 717.72,-96.56 636.17,-63.26 586.47,-42.08"/>
<polygon fill="#63b8ff" stroke="#63b8ff" points="911.3,-155.96 921.84,-154.85 912.91,-149.15 911.3,-155.96"/>
</a>
</g>
</g>
<!-- Node6 -->
<g id="Node000006" class="node">
<title>Node6</title>
<g id="a_Node000006"><a xlink:href="sourcecode_2appmodel_2src_2FakeHSIApplication_8cpp.html" target="_top" xlink:title=" ">
<polygon fill="white" stroke="#666666" points="770.38,-41.75 629.88,-41.75 629.88,0 770.38,0 770.38,-41.75"/>
<text text-anchor="start" x="637.88" y="-28.25" font-family="Helvetica,sans-Serif" font-size="10.00">/github/workspace/dev</text>
<text text-anchor="start" x="637.88" y="-17" font-family="Helvetica,sans-Serif" font-size="10.00">_area/sourcecode/appmodel</text>
<text text-anchor="middle" x="700.12" y="-5.75" font-family="Helvetica,sans-Serif" font-size="10.00">/src/FakeHSIApplication.cpp</text>
</a>
</g>
</g>
<!-- Node1&#45;&gt;Node6 -->
<g id="edge5_Node000001_Node000006" class="edge">
<title>Node1&#45;&gt;Node6</title>
<g id="a_edge5_Node000001_Node000006"><a xlink:title=" ">
<path fill="none" stroke="#63b8ff" d="M946.54,-151.12C922,-142.02 894.52,-131.05 870.12,-119.5 820.29,-95.9 765.45,-63.08 731.9,-42.15"/>
<polygon fill="#63b8ff" stroke="#63b8ff" points="945.21,-154.36 955.8,-154.52 947.62,-147.79 945.21,-154.36"/>
</a>
</g>
</g>
<!-- Node7 -->
<g id="Node000007" class="node">
<title>Node7</title>
<g id="a_Node000007"><a xlink:href="sourcecode_2appmodel_2src_2HSIEventToTCApplication_8cpp.html" target="_top" xlink:title=" ">
<polygon fill="white" stroke="#666666" points="955.88,-41.75 788.38,-41.75 788.38,0 955.88,0 955.88,-41.75"/>
<text text-anchor="start" x="796.38" y="-28.25" font-family="Helvetica,sans-Serif" font-size="10.00">/github/workspace/dev</text>
<text text-anchor="start" x="796.38" y="-17" font-family="Helvetica,sans-Serif" font-size="10.00">_area/sourcecode/appmodel</text>
<text text-anchor="middle" x="872.12" y="-5.75" font-family="Helvetica,sans-Serif" font-size="10.00">/src/HSIEventToTCApplication.cpp</text>
</a>
</g>
</g>
<!-- Node1&#45;&gt;Node7 -->
<g id="edge6_Node000001_Node000007" class="edge">
<title>Node1&#45;&gt;Node7</title>
<g id="a_edge6_Node000001_Node000007"><a xlink:title=" ">
<path fill="none" stroke="#63b8ff" d="M929.9,-150.04C915.17,-142.32 901.36,-132.35 891.12,-119.5 873.48,-97.35 870.64,-63.52 870.89,-42.06"/>
<polygon fill="#63b8ff" stroke="#63b8ff" points="928.32,-153.17 938.85,-154.38 931.37,-146.87 928.32,-153.17"/>
</a>
</g>
</g>
<!-- Node8 -->
<g id="Node000008" class="node">
<title>Node8</title>
<g id="a_Node000008"><a xlink:href="sourcecode_2appmodel_2src_2MLTApplication_8cpp.html" target="_top" xlink:title=" ">
<polygon fill="white" stroke="#666666" points="1268.25,-41.75 1130,-41.75 1130,0 1268.25,0 1268.25,-41.75"/>
<text text-anchor="start" x="1138" y="-28.25" font-family="Helvetica,sans-Serif" font-size="10.00">/github/workspace/dev</text>
<text text-anchor="start" x="1138" y="-17" font-family="Helvetica,sans-Serif" font-size="10.00">_area/sourcecode/appmodel</text>
<text text-anchor="middle" x="1199.12" y="-5.75" font-family="Helvetica,sans-Serif" font-size="10.00">/src/MLTApplication.cpp</text>
</a>
</g>
</g>
<!-- Node1&#45;&gt;Node8 -->
<g id="edge7_Node000001_Node000008" class="edge">
<title>Node1&#45;&gt;Node8</title>
<g id="a_edge7_Node000001_Node000008"><a xlink:title=" ">
<path fill="none" stroke="#63b8ff" d="M1034.3,-145.6C1047.51,-124.64 1067.34,-96.99 1090.12,-77.75 1107.19,-63.35 1128.59,-51.36 1147.9,-42.23"/>
<polygon fill="#63b8ff" stroke="#63b8ff" points="1031.39,-143.64 1029.15,-154 1037.36,-147.3 1031.39,-143.64"/>
</a>
</g>
</g>
<!-- Node9 -->
<g id="Node000009" class="node">
<title>Node9</title>
<g id="a_Node000009"><a xlink:href="ModuleFactory_8hpp.html" target="_top" xlink:title=" ">
<polygon fill="white" stroke="#666666" points="1038.25,-119.5 900,-119.5 900,-77.75 1038.25,-77.75 1038.25,-119.5"/>
<text text-anchor="start" x="908" y="-106" font-family="Helvetica,sans-Serif" font-size="10.00">/github/workspace/dev</text>
<text text-anchor="start" x="908" y="-94.75" font-family="Helvetica,sans-Serif" font-size="10.00">_area/sourcecode/appmodel</text>
<text text-anchor="middle" x="969.12" y="-83.5" font-family="Helvetica,sans-Serif" font-size="10.00">/src/ModuleFactory.hpp</text>
</a>
</g>
</g>
<!-- Node1&#45;&gt;Node9 -->
<g id="edge8_Node000001_Node000009" class="edge">
<title>Node1&#45;&gt;Node9</title>
<g id="a_edge8_Node000001_Node000009"><a xlink:title=" ">
<path fill="none" stroke="#63b8ff" d="M998.15,-145.43C992.74,-136.89 986.98,-127.8 982.02,-119.98"/>
<polygon fill="#63b8ff" stroke="#63b8ff" points="995.14,-147.22 1003.45,-153.8 1001.06,-143.48 995.14,-147.22"/>
</a>
</g>
</g>
<!-- Node10 -->
<g id="Node000010" class="node">
<title>Node10</title>
<g id="a_Node000010"><a xlink:href="sourcecode_2appmodel_2src_2ReadoutApplication_8cpp.html" target="_top" xlink:title=" ">
<polygon fill="white" stroke="#666666" points="1424.25,-41.75 1286,-41.75 1286,0 1424.25,0 1424.25,-41.75"/>
<text text-anchor="start" x="1294" y="-28.25" font-family="Helvetica,sans-Serif" font-size="10.00">/github/workspace/dev</text>
<text text-anchor="start" x="1294" y="-17" font-family="Helvetica,sans-Serif" font-size="10.00">_area/sourcecode/appmodel</text>
<text text-anchor="middle" x="1355.12" y="-5.75" font-family="Helvetica,sans-Serif" font-size="10.00">/src/ReadoutApplication.cpp</text>
</a>
</g>
</g>
<!-- Node1&#45;&gt;Node10 -->
<g id="edge21_Node000001_Node000010" class="edge">
<title>Node1&#45;&gt;Node10</title>
<g id="a_edge21_Node000001_Node000010"><a xlink:title=" ">
<path fill="none" stroke="#63b8ff" d="M1052.46,-147.9C1063.44,-139.06 1075.46,-129.07 1086.12,-119.5 1105.71,-101.92 1105.15,-90.59 1128.12,-77.75 1187.59,-44.51 1211,-58.16 1277.12,-41.75 1279.97,-41.04 1282.88,-40.32 1285.81,-39.58"/>
<polygon fill="#63b8ff" stroke="#63b8ff" points="1050.35,-145.11 1044.71,-154.08 1054.71,-150.58 1050.35,-145.11"/>
</a>
</g>
</g>
<!-- Node11 -->
<g id="Node000011" class="node">
<title>Node11</title>
<g id="a_Node000011"><a xlink:href="sourcecode_2appmodel_2src_2SmartDaqApplication_8cpp.html" target="_top" xlink:title=" ">
<polygon fill="white" stroke="#666666" points="1587.62,-41.75 1442.62,-41.75 1442.62,0 1587.62,0 1587.62,-41.75"/>
<text text-anchor="start" x="1450.62" y="-28.25" font-family="Helvetica,sans-Serif" font-size="10.00">/github/workspace/dev</text>
<text text-anchor="start" x="1450.62" y="-17" font-family="Helvetica,sans-Serif" font-size="10.00">_area/sourcecode/appmodel</text>
<text text-anchor="middle" x="1515.12" y="-5.75" font-family="Helvetica,sans-Serif" font-size="10.00">/src/SmartDaqApplication.cpp</text>
</a>
</g>
</g>
<!-- Node1&#45;&gt;Node11 -->
<g id="edge22_Node000001_Node000011" class="edge">
<title>Node1&#45;&gt;Node11</title>
<g id="a_edge22_Node000001_Node000011"><a xlink:title=" ">
<path fill="none" stroke="#63b8ff" d="M1070.97,-149.79C1087.59,-141.02 1105.59,-130.6 1121.12,-119.5 1143.32,-103.64 1141.45,-89.39 1166.12,-77.75 1274.41,-26.64 1315.45,-63.88 1433.12,-41.75 1436.15,-41.18 1439.23,-40.57 1442.33,-39.93"/>
<polygon fill="#63b8ff" stroke="#63b8ff" points="1069.46,-146.63 1062.18,-154.33 1072.68,-152.85 1069.46,-146.63"/>
</a>
</g>
</g>
<!-- Node12 -->
<g id="Node000012" class="node">
<title>Node12</title>
<g id="a_Node000012"><a xlink:href="TPWriterApplication_8cpp.html" target="_top" xlink:title=" ">
<polygon fill="white" stroke="#666666" points="1745,-41.75 1605.25,-41.75 1605.25,0 1745,0 1745,-41.75"/>
<text text-anchor="start" x="1613.25" y="-28.25" font-family="Helvetica,sans-Serif" font-size="10.00">/github/workspace/dev</text>
<text text-anchor="start" x="1613.25" y="-17" font-family="Helvetica,sans-Serif" font-size="10.00">_area/sourcecode/appmodel</text>
<text text-anchor="middle" x="1675.12" y="-5.75" font-family="Helvetica,sans-Serif" font-size="10.00">/src/TPWriterApplication.cpp</text>
</a>
</g>
</g>
<!-- Node1&#45;&gt;Node12 -->
<g id="edge23_Node000001_Node000012" class="edge">
<title>Node1&#45;&gt;Node12</title>
<g id="a_edge23_Node000001_Node000012"><a xlink:title=" ">
<path fill="none" stroke="#63b8ff" d="M1092.87,-151.11C1114.71,-142.61 1138.05,-132 1158.12,-119.5 1181.56,-104.9 1178.85,-88.86 1204.12,-77.75 1364.69,-7.16 1424.27,-71.5 1597.12,-41.75 1599.74,-41.3 1602.4,-40.81 1605.08,-40.28"/>
<polygon fill="#63b8ff" stroke="#63b8ff" points="1091.81,-147.77 1083.7,-154.58 1094.29,-154.32 1091.81,-147.77"/>
</a>
</g>
</g>
<!-- Node13 -->
<g id="Node000013" class="node">
<title>Node13</title>
<g id="a_Node000013"><a xlink:href="sourcecode_2appmodel_2src_2TriggerApplication_8cpp.html" target="_top" xlink:title=" ">
<polygon fill="white" stroke="#666666" points="1901.25,-41.75 1763,-41.75 1763,0 1901.25,0 1901.25,-41.75"/>
<text text-anchor="start" x="1771" y="-28.25" font-family="Helvetica,sans-Serif" font-size="10.00">/github/workspace/dev</text>
<text text-anchor="start" x="1771" y="-17" font-family="Helvetica,sans-Serif" font-size="10.00">_area/sourcecode/appmodel</text>
<text text-anchor="middle" x="1832.12" y="-5.75" font-family="Helvetica,sans-Serif" font-size="10.00">/src/TriggerApplication.cpp</text>
</a>
</g>
</g>
<!-- Node1&#45;&gt;Node13 -->
<g id="edge24_Node000001_Node000013" class="edge">
<title>Node1&#45;&gt;Node13</title>
<g id="a_edge24_Node000001_Node000013"><a xlink:title=" ">
<path fill="none" stroke="#63b8ff" d="M1121.52,-151.74C1146.64,-143.62 1172.68,-133.05 1195.12,-119.5 1217.66,-105.89 1213.16,-88.63 1237.12,-77.75 1342,-30.16 1640.42,-60.04 1754.12,-41.75 1756.88,-41.31 1759.69,-40.81 1762.51,-40.27"/>
<polygon fill="#63b8ff" stroke="#63b8ff" points="1120.77,-148.3 1112.26,-154.62 1122.85,-154.99 1120.77,-148.3"/>
</a>
</g>
</g>
<!-- Node15 -->
<g id="Node000015" class="node">
<title>Node15</title>
<g id="a_Node000015"><a xlink:href="GraphBuilder_8cpp.html" target="_top" xlink:title=" ">
<polygon fill="white" stroke="#666666" points="1376.5,-119.5 1245.75,-119.5 1245.75,-77.75 1376.5,-77.75 1376.5,-119.5"/>
<text text-anchor="start" x="1253.75" y="-106" font-family="Helvetica,sans-Serif" font-size="10.00">/github/workspace/dev</text>
<text text-anchor="start" x="1253.75" y="-94.75" font-family="Helvetica,sans-Serif" font-size="10.00">_area/sourcecode/daqconf</text>
<text text-anchor="middle" x="1311.12" y="-83.5" font-family="Helvetica,sans-Serif" font-size="10.00">/apps/GraphBuilder.cpp</text>
</a>
</g>
</g>
<!-- Node1&#45;&gt;Node15 -->
<g id="edge25_Node000001_Node000015" class="edge">
<title>Node1&#45;&gt;Node15</title>
<g id="a_edge25_Node000001_Node000015"><a xlink:title=" ">
<path fill="none" stroke="#63b8ff" d="M1106.79,-152.27C1151.53,-140.74 1204.67,-127.05 1245.54,-116.52"/>
<polygon fill="#63b8ff" stroke="#63b8ff" points="1106.19,-148.81 1097.38,-154.7 1107.93,-155.59 1106.19,-148.81"/>
</a>
</g>
</g>
<!-- Node16 -->
<g id="Node000016" class="node">
<title>Node16</title>
<g id="a_Node000016"><a xlink:href="create__config__plot_8cxx.html" target="_top" xlink:title=" ">
<polygon fill="white" stroke="#666666" points="1533.25,-119.5 1395,-119.5 1395,-77.75 1533.25,-77.75 1533.25,-119.5"/>
<text text-anchor="start" x="1403" y="-106" font-family="Helvetica,sans-Serif" font-size="10.00">/github/workspace/dev</text>
<text text-anchor="start" x="1403" y="-94.75" font-family="Helvetica,sans-Serif" font-size="10.00">_area/sourcecode/daqconf</text>
<text text-anchor="middle" x="1464.12" y="-83.5" font-family="Helvetica,sans-Serif" font-size="10.00">/apps/create_config_plot.cxx</text>
</a>
</g>
</g>
<!-- Node1&#45;&gt;Node16 -->
<g id="edge26_Node000001_Node000016" class="edge">
<title>Node1&#45;&gt;Node16</title>
<g id="a_edge26_Node000001_Node000016"><a xlink:title=" ">
<path fill="none" stroke="#63b8ff" d="M1122.11,-162.16C1195.98,-152.19 1297,-137.23 1385.12,-119.5 1388.31,-118.86 1391.57,-118.17 1394.85,-117.45"/>
<polygon fill="#63b8ff" stroke="#63b8ff" points="1121.9,-158.65 1112.45,-163.45 1122.83,-165.59 1121.9,-158.65"/>
</a>
</g>
</g>
<!-- Node9&#45;&gt;Node2 -->
<g id="edge9_Node000009_Node000002" class="edge">
<title>Node9&#45;&gt;Node2</title>
<g id="a_edge9_Node000009_Node000002"><a xlink:title=" ">
<path fill="none" stroke="#63b8ff" d="M888.44,-96.99C740.53,-94.74 416.41,-84.84 147.12,-41.75 144.37,-41.31 141.56,-40.81 138.73,-40.28"/>
<polygon fill="#63b8ff" stroke="#63b8ff" points="888.07,-100.48 898.12,-97.12 888.17,-93.48 888.07,-100.48"/>
</a>
</g>
</g>
<!-- Node9&#45;&gt;Node3 -->
<g id="edge10_Node000009_Node000003" class="edge">
<title>Node9&#45;&gt;Node3</title>
<g id="a_edge10_Node000009_Node000003"><a xlink:title=" ">
<path fill="none" stroke="#63b8ff" d="M888.2,-95.16C762.31,-90.35 512.29,-76.92 303.12,-41.75 300.37,-41.29 297.57,-40.77 294.74,-40.22"/>
<polygon fill="#63b8ff" stroke="#63b8ff" points="887.99,-98.65 898.11,-95.53 888.25,-91.66 887.99,-98.65"/>
</a>
</g>
</g>
<!-- Node9&#45;&gt;Node4 -->
<g id="edge11_Node000009_Node000004" class="edge">
<title>Node9&#45;&gt;Node4</title>
<g id="a_edge11_Node000009_Node000004"><a xlink:title=" ">
<path fill="none" stroke="#63b8ff" d="M888.48,-92.3C787.52,-84.84 609.55,-69.02 459.12,-41.75 456.24,-41.23 453.3,-40.66 450.34,-40.05"/>
<polygon fill="#63b8ff" stroke="#63b8ff" points="888.06,-95.78 898.29,-93.02 888.57,-88.8 888.06,-95.78"/>
</a>
</g>
</g>
<!-- Node9&#45;&gt;Node5 -->
<g id="edge12_Node000009_Node000005" class="edge">
<title>Node9&#45;&gt;Node5</title>
<g id="a_edge12_Node000009_Node000005"><a xlink:title=" ">
<path fill="none" stroke="#63b8ff" d="M888.78,-86.62C818.03,-76.48 712.35,-60.23 621.12,-41.75 618.14,-41.15 615.11,-40.51 612.05,-39.84"/>
<polygon fill="#63b8ff" stroke="#63b8ff" points="887.93,-90.03 898.33,-87.98 888.92,-83.1 887.93,-90.03"/>
</a>
</g>
</g>
<!-- Node9&#45;&gt;Node6 -->
<g id="edge13_Node000009_Node000006" class="edge">
<title>Node9&#45;&gt;Node6</title>
<g id="a_edge13_Node000009_Node000006"><a xlink:title=" ">
<path fill="none" stroke="#63b8ff" d="M888.62,-74.95C851.17,-64.41 807.01,-51.97 770.86,-41.79"/>
<polygon fill="#63b8ff" stroke="#63b8ff" points="887.47,-78.27 898.04,-77.61 889.37,-71.53 887.47,-78.27"/>
</a>
</g>
</g>
<!-- Node9&#45;&gt;Node7 -->
<g id="edge14_Node000009_Node000007" class="edge">
<title>Node9&#45;&gt;Node7</title>
<g id="a_edge14_Node000009_Node000007"><a xlink:title=" ">
<path fill="none" stroke="#63b8ff" d="M934.31,-70.44C922.4,-61.14 909.29,-50.9 898.19,-42.23"/>
<polygon fill="#63b8ff" stroke="#63b8ff" points="931.9,-73 941.94,-76.39 936.21,-67.48 931.9,-73"/>
</a>
</g>
</g>
<!-- Node9&#45;&gt;Node8 -->
<g id="edge15_Node000009_Node000008" class="edge">
<title>Node9&#45;&gt;Node8</title>
<g id="a_edge15_Node000009_Node000008"><a xlink:title=" ">
<path fill="none" stroke="#63b8ff" d="M1041.44,-73.81C1072.23,-63.67 1107.78,-51.96 1137.32,-42.23"/>
<polygon fill="#63b8ff" stroke="#63b8ff" points="1040.6,-70.4 1032.2,-76.85 1042.79,-77.05 1040.6,-70.4"/>
</a>
</g>
</g>
<!-- Node9&#45;&gt;Node10 -->
<g id="edge16_Node000009_Node000010" class="edge">
<title>Node9&#45;&gt;Node10</title>
<g id="a_edge16_Node000009_Node000010"><a xlink:title=" ">
<path fill="none" stroke="#63b8ff" d="M1049.84,-84.57C1112.15,-74.11 1200.39,-58.46 1277.12,-41.75 1279.99,-41.13 1282.91,-40.47 1285.86,-39.79"/>
<polygon fill="#63b8ff" stroke="#63b8ff" points="1049.29,-81.12 1040.01,-86.22 1050.45,-88.02 1049.29,-81.12"/>
</a>
</g>
</g>
<!-- Node9&#45;&gt;Node11 -->
<g id="edge17_Node000009_Node000011" class="edge">
<title>Node9&#45;&gt;Node11</title>
<g id="a_edge17_Node000009_Node000011"><a xlink:title=" ">
<path fill="none" stroke="#63b8ff" d="M1049.71,-87.44C1074.82,-84.3 1102.62,-80.85 1128.12,-77.75 1263.62,-61.28 1298.78,-65.87 1433.12,-41.75 1436.15,-41.21 1439.24,-40.62 1442.34,-40"/>
<polygon fill="#63b8ff" stroke="#63b8ff" points="1049.36,-83.96 1039.88,-88.68 1050.24,-90.9 1049.36,-83.96"/>
</a>
</g>
</g>
<!-- Node9&#45;&gt;Node12 -->
<g id="edge18_Node000009_Node000012" class="edge">
<title>Node9&#45;&gt;Node12</title>
<g id="a_edge18_Node000009_Node000012"><a xlink:title=" ">
<path fill="none" stroke="#63b8ff" d="M1049.71,-89.18C1085.37,-85.52 1127.83,-81.28 1166.12,-77.75 1357.54,-60.1 1407.56,-73.59 1597.12,-41.75 1599.74,-41.31 1602.4,-40.83 1605.08,-40.31"/>
<polygon fill="#63b8ff" stroke="#63b8ff" points="1049.48,-85.68 1039.89,-90.19 1050.2,-92.65 1049.48,-85.68"/>
</a>
</g>
</g>
<!-- Node9&#45;&gt;Node13 -->
<g id="edge19_Node000009_Node000013" class="edge">
<title>Node9&#45;&gt;Node13</title>
<g id="a_edge19_Node000009_Node000013"><a xlink:title=" ">
<path fill="none" stroke="#63b8ff" d="M1049.76,-90.42C1095.1,-86.47 1152.75,-81.6 1204.12,-77.75 1448.41,-59.43 1512.19,-80.16 1754.12,-41.75 1756.89,-41.31 1759.69,-40.82 1762.52,-40.29"/>
<polygon fill="#63b8ff" stroke="#63b8ff" points="1049.67,-86.92 1040.01,-91.28 1050.28,-93.89 1049.67,-86.92"/>
</a>
</g>
</g>
<!-- Node14 -->
<g id="Node000014" class="node">
<title>Node14</title>
<g id="a_Node000014"><a xlink:href="sourcecode_2appmodel_2src_2WIECApplication_8cpp.html" target="_top" xlink:title=" ">
<polygon fill="white" stroke="#666666" points="1112.25,-41.75 974,-41.75 974,0 1112.25,0 1112.25,-41.75"/>
<text text-anchor="start" x="982" y="-28.25" font-family="Helvetica,sans-Serif" font-size="10.00">/github/workspace/dev</text>
<text text-anchor="start" x="982" y="-17" font-family="Helvetica,sans-Serif" font-size="10.00">_area/sourcecode/appmodel</text>
<text text-anchor="middle" x="1043.12" y="-5.75" font-family="Helvetica,sans-Serif" font-size="10.00">/src/WIECApplication.cpp</text>
</a>
</g>
</g>
<!-- Node9&#45;&gt;Node14 -->
<g id="edge20_Node000009_Node000014" class="edge">
<title>Node9&#45;&gt;Node14</title>
<g id="a_edge20_Node000009_Node000014"><a xlink:title=" ">
<path fill="none" stroke="#63b8ff" d="M996.76,-69.34C1005.55,-60.34 1015.1,-50.56 1023.24,-42.23"/>
<polygon fill="#63b8ff" stroke="#63b8ff" points="994.5,-66.64 990.01,-76.24 999.5,-71.54 994.5,-66.64"/>
</a>
</g>
</g>
</g>
</svg>
