<?xml version="1.0" encoding="UTF-8" standalone="no"?>
<!DOCTYPE svg PUBLIC "-//W3C//DTD SVG 1.1//EN"
 "http://www.w3.org/Graphics/SVG/1.1/DTD/svg11.dtd">
<!-- Generated by graphviz version 9.0.0 (20230911.1827)
 -->
<!-- Title: /github/workspace/dev_area/sourcecode/wibmod/src/WIB1/ASIC_reg_mapping.cpp Pages: 1 -->
<svg width="416pt" height="238pt"
 viewBox="0.00 0.00 416.21 238.00" xmlns="http://www.w3.org/2000/svg" xmlns:xlink="http://www.w3.org/1999/xlink">
<g id="graph0" class="graph" transform="scale(1 1) rotate(0) translate(4 234)">
<title>/github/workspace/dev_area/sourcecode/wibmod/src/WIB1/ASIC_reg_mapping.cpp</title>
<!-- Node1 -->
<g id="Node000001" class="node">
<title>Node1</title>
<g id="a_Node000001"><a xlink:title=" ">
<polygon fill="#999999" stroke="#666666" points="372.83,-230 208.33,-230 208.33,-188.25 372.83,-188.25 372.83,-230"/>
<text text-anchor="start" x="216.33" y="-216.5" font-family="Helvetica,sans-Serif" font-size="10.00">/github/workspace/dev</text>
<text text-anchor="start" x="216.33" y="-205.25" font-family="Helvetica,sans-Serif" font-size="10.00">_area/sourcecode/wibmod</text>
<text text-anchor="middle" x="290.58" y="-194" font-family="Helvetica,sans-Serif" font-size="10.00">/src/WIB1/ASIC_reg_mapping.cpp</text>
</a>
</g>
</g>
<!-- Node2 -->
<g id="Node000002" class="node">
<title>Node2</title>
<g id="a_Node000002"><a xlink:href="ASIC__reg__mapping_8hh.html" target="_top" xlink:title=" ">
<polygon fill="white" stroke="#666666" points="210.46,-152.25 88.71,-152.25 88.71,-121.75 210.46,-121.75 210.46,-152.25"/>
<text text-anchor="start" x="96.71" y="-138.75" font-family="Helvetica,sans-Serif" font-size="10.00">wibmod/WIB1/ASIC_reg</text>
<text text-anchor="middle" x="149.58" y="-127.5" font-family="Helvetica,sans-Serif" font-size="10.00">_mapping.hh</text>
</a>
</g>
</g>
<!-- Node1&#45;&gt;Node2 -->
<g id="edge1_Node000001_Node000002" class="edge">
<title>Node1&#45;&gt;Node2</title>
<g id="a_edge1_Node000001_Node000002"><a xlink:title=" ">
<path fill="none" stroke="#63b8ff" d="M249.8,-187.84C230.72,-178.35 208.09,-167.1 189.16,-157.69"/>
<polygon fill="#63b8ff" stroke="#63b8ff" points="190.95,-154.66 180.43,-153.34 187.83,-160.93 190.95,-154.66"/>
</a>
</g>
</g>
<!-- Node8 -->
<g id="Node000008" class="node">
<title>Node8</title>
<g id="a_Node000008"><a xlink:title=" ">
<polygon fill="#e0e0e0" stroke="#999999" points="282.33,-146.62 228.83,-146.62 228.83,-127.38 282.33,-127.38 282.33,-146.62"/>
<text text-anchor="middle" x="255.58" y="-133.12" font-family="Helvetica,sans-Serif" font-size="10.00">iostream</text>
</a>
</g>
</g>
<!-- Node1&#45;&gt;Node8 -->
<g id="edge10_Node000001_Node000008" class="edge">
<title>Node1&#45;&gt;Node8</title>
<g id="a_edge10_Node000001_Node000008"><a xlink:title=" ">
<path fill="none" stroke="#63b8ff" d="M280.46,-187.84C275.58,-178.07 269.77,-166.43 264.99,-156.86"/>
<polygon fill="#63b8ff" stroke="#63b8ff" points="268.25,-155.54 260.65,-148.16 261.98,-158.67 268.25,-155.54"/>
</a>
</g>
</g>
<!-- Node9 -->
<g id="Node000009" class="node">
<title>Node9</title>
<g id="a_Node000009"><a xlink:title=" ">
<polygon fill="#e0e0e0" stroke="#999999" points="350.46,-146.62 300.71,-146.62 300.71,-127.38 350.46,-127.38 350.46,-146.62"/>
<text text-anchor="middle" x="325.58" y="-133.12" font-family="Helvetica,sans-Serif" font-size="10.00">iomanip</text>
</a>
</g>
</g>
<!-- Node1&#45;&gt;Node9 -->
<g id="edge11_Node000001_Node000009" class="edge">
<title>Node1&#45;&gt;Node9</title>
<g id="a_edge11_Node000001_Node000009"><a xlink:title=" ">
<path fill="none" stroke="#63b8ff" d="M300.71,-187.84C305.58,-178.07 311.39,-166.43 316.17,-156.86"/>
<polygon fill="#63b8ff" stroke="#63b8ff" points="319.18,-158.67 320.51,-148.16 312.92,-155.54 319.18,-158.67"/>
</a>
</g>
</g>
<!-- Node10 -->
<g id="Node000010" class="node">
<title>Node10</title>
<g id="a_Node000010"><a xlink:title=" ">
<polygon fill="#e0e0e0" stroke="#999999" points="408.21,-146.62 368.96,-146.62 368.96,-127.38 408.21,-127.38 408.21,-146.62"/>
<text text-anchor="middle" x="388.58" y="-133.12" font-family="Helvetica,sans-Serif" font-size="10.00">limits</text>
</a>
</g>
</g>
<!-- Node1&#45;&gt;Node10 -->
<g id="edge12_Node000001_Node000010" class="edge">
<title>Node1&#45;&gt;Node10</title>
<g id="a_edge12_Node000001_Node000010"><a xlink:title=" ">
<path fill="none" stroke="#63b8ff" d="M318.93,-187.84C334.27,-176.86 352.92,-163.52 367.05,-153.4"/>
<polygon fill="#63b8ff" stroke="#63b8ff" points="368.7,-156.53 374.79,-147.87 364.63,-150.84 368.7,-156.53"/>
</a>
</g>
</g>
<!-- Node3 -->
<g id="Node000003" class="node">
<title>Node3</title>
<g id="a_Node000003"><a xlink:title=" ">
<polygon fill="#e0e0e0" stroke="#999999" points="102.33,-19.25 54.83,-19.25 54.83,0 102.33,0 102.33,-19.25"/>
<text text-anchor="middle" x="78.58" y="-5.75" font-family="Helvetica,sans-Serif" font-size="10.00">stdint.h</text>
</a>
</g>
</g>
<!-- Node2&#45;&gt;Node3 -->
<g id="edge2_Node000002_Node000003" class="edge">
<title>Node2&#45;&gt;Node3</title>
<g id="a_edge2_Node000002_Node000003"><a xlink:title=" ">
<path fill="none" stroke="#63b8ff" d="M88.27,-130.83C58.14,-124.84 24.36,-112.2 5.58,-85.75 -2.27,-74.7 -1.05,-67.07 5.58,-55.25 13.94,-40.34 29.54,-29.82 44.17,-22.75"/>
<polygon fill="#63b8ff" stroke="#63b8ff" points="45.4,-26.03 53.16,-18.81 42.59,-19.62 45.4,-26.03"/>
</a>
</g>
</g>
<!-- Node4 -->
<g id="Node000004" class="node">
<title>Node4</title>
<g id="a_Node000004"><a xlink:title=" ">
<polygon fill="#e0e0e0" stroke="#999999" points="342.08,-80.12 299.08,-80.12 299.08,-60.88 342.08,-60.88 342.08,-80.12"/>
<text text-anchor="middle" x="320.58" y="-66.62" font-family="Helvetica,sans-Serif" font-size="10.00">vector</text>
</a>
</g>
</g>
<!-- Node2&#45;&gt;Node4 -->
<g id="edge3_Node000002_Node000004" class="edge">
<title>Node2&#45;&gt;Node4</title>
<g id="a_edge3_Node000002_Node000004"><a xlink:title=" ">
<path fill="none" stroke="#63b8ff" d="M193.46,-121.34C221.24,-111.79 257.79,-98.74 289.58,-85.75 290.2,-85.5 290.82,-85.24 291.45,-84.98"/>
<polygon fill="#63b8ff" stroke="#63b8ff" points="292.53,-88.32 300.29,-81.11 289.73,-81.91 292.53,-88.32"/>
</a>
</g>
</g>
<!-- Node5 -->
<g id="Node000005" class="node">
<title>Node5</title>
<g id="a_Node000005"><a xlink:href="ADC__ASIC__reg__mapping_8hh.html" target="_top" xlink:title=" ">
<polygon fill="white" stroke="#666666" points="142.83,-85.75 14.33,-85.75 14.33,-55.25 142.83,-55.25 142.83,-85.75"/>
<text text-anchor="start" x="22.33" y="-72.25" font-family="Helvetica,sans-Serif" font-size="10.00">wibmod/WIB1/ADC_ASIC</text>
<text text-anchor="middle" x="78.58" y="-61" font-family="Helvetica,sans-Serif" font-size="10.00">_reg_mapping.hh</text>
</a>
</g>
</g>
<!-- Node2&#45;&gt;Node5 -->
<g id="edge4_Node000002_Node000005" class="edge">
<title>Node2&#45;&gt;Node5</title>
<g id="a_edge4_Node000002_Node000005"><a xlink:title=" ">
<path fill="none" stroke="#63b8ff" d="M133.47,-121.36C124.48,-113.2 113.11,-102.86 103.04,-93.72"/>
<polygon fill="#63b8ff" stroke="#63b8ff" points="105.5,-91.23 95.75,-87.1 100.8,-96.41 105.5,-91.23"/>
</a>
</g>
</g>
<!-- Node7 -->
<g id="Node000007" class="node">
<title>Node7</title>
<g id="a_Node000007"><a xlink:href="FE__ASIC__reg__mapping_8hh.html" target="_top" xlink:title=" ">
<polygon fill="white" stroke="#666666" points="280.71,-85.75 160.46,-85.75 160.46,-55.25 280.71,-55.25 280.71,-85.75"/>
<text text-anchor="start" x="168.46" y="-72.25" font-family="Helvetica,sans-Serif" font-size="10.00">wibmod/WIB1/FE_ASIC</text>
<text text-anchor="middle" x="220.58" y="-61" font-family="Helvetica,sans-Serif" font-size="10.00">_reg_mapping.hh</text>
</a>
</g>
</g>
<!-- Node2&#45;&gt;Node7 -->
<g id="edge7_Node000002_Node000007" class="edge">
<title>Node2&#45;&gt;Node7</title>
<g id="a_edge7_Node000002_Node000007"><a xlink:title=" ">
<path fill="none" stroke="#63b8ff" d="M165.69,-121.36C174.68,-113.2 186.06,-102.86 196.12,-93.72"/>
<polygon fill="#63b8ff" stroke="#63b8ff" points="198.37,-96.41 203.41,-87.1 193.66,-91.23 198.37,-96.41"/>
</a>
</g>
</g>
<!-- Node5&#45;&gt;Node3 -->
<g id="edge5_Node000005_Node000003" class="edge">
<title>Node5&#45;&gt;Node3</title>
<g id="a_edge5_Node000005_Node000003"><a xlink:title=" ">
<path fill="none" stroke="#63b8ff" d="M78.58,-54.95C78.58,-47.71 78.58,-38.84 78.58,-30.94"/>
<polygon fill="#63b8ff" stroke="#63b8ff" points="82.08,-31.21 78.58,-21.21 75.08,-31.21 82.08,-31.21"/>
</a>
</g>
</g>
<!-- Node6 -->
<g id="Node000006" class="node">
<title>Node6</title>
<g id="a_Node000006"><a xlink:title=" ">
<polygon fill="#e0e0e0" stroke="#999999" points="200.58,-19.25 160.58,-19.25 160.58,0 200.58,0 200.58,-19.25"/>
<text text-anchor="middle" x="180.58" y="-5.75" font-family="Helvetica,sans-Serif" font-size="10.00">bitset</text>
</a>
</g>
</g>
<!-- Node5&#45;&gt;Node6 -->
<g id="edge6_Node000005_Node000006" class="edge">
<title>Node5&#45;&gt;Node6</title>
<g id="a_edge6_Node000005_Node000006"><a xlink:title=" ">
<path fill="none" stroke="#63b8ff" d="M104.06,-54.8C119.74,-45.74 139.76,-34.19 155.39,-25.16"/>
<polygon fill="#63b8ff" stroke="#63b8ff" points="156.72,-28.44 163.63,-20.41 153.22,-22.38 156.72,-28.44"/>
</a>
</g>
</g>
<!-- Node7&#45;&gt;Node3 -->
<g id="edge8_Node000007_Node000003" class="edge">
<title>Node7&#45;&gt;Node3</title>
<g id="a_edge8_Node000007_Node000003"><a xlink:title=" ">
<path fill="none" stroke="#63b8ff" d="M185.12,-54.8C162.35,-45.35 133.01,-33.19 110.89,-24.02"/>
<polygon fill="#63b8ff" stroke="#63b8ff" points="112.34,-20.83 101.76,-20.23 109.65,-27.3 112.34,-20.83"/>
</a>
</g>
</g>
<!-- Node7&#45;&gt;Node6 -->
<g id="edge9_Node000007_Node000006" class="edge">
<title>Node7&#45;&gt;Node6</title>
<g id="a_edge9_Node000007_Node000006"><a xlink:title=" ">
<path fill="none" stroke="#63b8ff" d="M210.69,-54.95C205.37,-47.1 198.74,-37.35 193.06,-28.99"/>
<polygon fill="#63b8ff" stroke="#63b8ff" points="196.11,-27.26 187.6,-20.95 190.32,-31.19 196.11,-27.26"/>
</a>
</g>
</g>
</g>
</svg>
