<?xml version="1.0" encoding="UTF-8" standalone="no"?>
<!DOCTYPE svg PUBLIC "-//W3C//DTD SVG 1.1//EN"
 "http://www.w3.org/Graphics/SVG/1.1/DTD/svg11.dtd">
<!-- Generated by graphviz version 9.0.0 (20230911.1827)
 -->
<!-- Title: /github/workspace/dev_area/sourcecode/tpglibs/include/tpglibs/AVXUtils.hpp Pages: 1 -->
<svg width="292pt" height="105pt"
 viewBox="0.00 0.00 292.12 105.00" xmlns="http://www.w3.org/2000/svg" xmlns:xlink="http://www.w3.org/1999/xlink">
<g id="graph0" class="graph" transform="scale(1 1) rotate(0) translate(4 101)">
<title>/github/workspace/dev_area/sourcecode/tpglibs/include/tpglibs/AVXUtils.hpp</title>
<!-- Node1 -->
<g id="Node000001" class="node">
<title>Node1</title>
<g id="a_Node000001"><a xlink:title=" ">
<polygon fill="#999999" stroke="#666666" points="223,-97 80.25,-97 80.25,-55.25 223,-55.25 223,-97"/>
<text text-anchor="start" x="88.25" y="-83.5" font-family="Helvetica,sans-Serif" font-size="10.00">/github/workspace/dev</text>
<text text-anchor="start" x="88.25" y="-72.25" font-family="Helvetica,sans-Serif" font-size="10.00">_area/sourcecode/tpglibs</text>
<text text-anchor="middle" x="151.62" y="-61" font-family="Helvetica,sans-Serif" font-size="10.00">/include/tpglibs/AVXUtils.hpp</text>
</a>
</g>
</g>
<!-- Node2 -->
<g id="Node000002" class="node">
<title>Node2</title>
<g id="a_Node000002"><a xlink:title=" ">
<polygon fill="#e0e0e0" stroke="#999999" points="63.25,-19.25 0,-19.25 0,0 63.25,0 63.25,-19.25"/>
<text text-anchor="middle" x="31.62" y="-5.75" font-family="Helvetica,sans-Serif" font-size="10.00">immintrin.h</text>
</a>
</g>
</g>
<!-- Node1&#45;&gt;Node2 -->
<g id="edge1_Node000001_Node000002" class="edge">
<title>Node1&#45;&gt;Node2</title>
<g id="a_edge1_Node000001_Node000002"><a xlink:title=" ">
<path fill="none" stroke="#63b8ff" d="M113.99,-54.89C95.94,-45.2 74.75,-33.81 58.38,-25.01"/>
<polygon fill="#63b8ff" stroke="#63b8ff" points="60.2,-22.01 49.74,-20.36 56.89,-28.18 60.2,-22.01"/>
</a>
</g>
</g>
<!-- Node3 -->
<g id="Node000003" class="node">
<title>Node3</title>
<g id="a_Node000003"><a xlink:title=" ">
<polygon fill="#e0e0e0" stroke="#999999" points="140.38,-19.25 80.88,-19.25 80.88,0 140.38,0 140.38,-19.25"/>
<text text-anchor="middle" x="110.62" y="-5.75" font-family="Helvetica,sans-Serif" font-size="10.00">fmt/core.h</text>
</a>
</g>
</g>
<!-- Node1&#45;&gt;Node3 -->
<g id="edge2_Node000001_Node000003" class="edge">
<title>Node1&#45;&gt;Node3</title>
<g id="a_edge2_Node000001_Node000003"><a xlink:title=" ">
<path fill="none" stroke="#63b8ff" d="M138.88,-55.07C133.65,-46.84 127.63,-37.37 122.49,-29.29"/>
<polygon fill="#63b8ff" stroke="#63b8ff" points="125.52,-27.53 117.2,-20.97 119.61,-31.29 125.52,-27.53"/>
</a>
</g>
</g>
<!-- Node4 -->
<g id="Node000004" class="node">
<title>Node4</title>
<g id="a_Node000004"><a xlink:title=" ">
<polygon fill="#e0e0e0" stroke="#999999" points="228.62,-19.25 158.62,-19.25 158.62,0 228.62,0 228.62,-19.25"/>
<text text-anchor="middle" x="193.62" y="-5.75" font-family="Helvetica,sans-Serif" font-size="10.00">fmt/ranges.h</text>
</a>
</g>
</g>
<!-- Node1&#45;&gt;Node4 -->
<g id="edge3_Node000001_Node000004" class="edge">
<title>Node1&#45;&gt;Node4</title>
<g id="a_edge3_Node000001_Node000004"><a xlink:title=" ">
<path fill="none" stroke="#63b8ff" d="M164.68,-55.07C170.04,-46.84 176.21,-37.37 181.47,-29.29"/>
<polygon fill="#63b8ff" stroke="#63b8ff" points="184.37,-31.25 186.89,-20.96 178.5,-27.43 184.37,-31.25"/>
</a>
</g>
</g>
<!-- Node5 -->
<g id="Node000005" class="node">
<title>Node5</title>
<g id="a_Node000005"><a xlink:title=" ">
<polygon fill="#e0e0e0" stroke="#999999" points="284.12,-19.25 247.12,-19.25 247.12,0 284.12,0 284.12,-19.25"/>
<text text-anchor="middle" x="265.62" y="-5.75" font-family="Helvetica,sans-Serif" font-size="10.00">array</text>
</a>
</g>
</g>
<!-- Node1&#45;&gt;Node5 -->
<g id="edge4_Node000001_Node000005" class="edge">
<title>Node1&#45;&gt;Node5</title>
<g id="a_edge4_Node000001_Node000005"><a xlink:title=" ">
<path fill="none" stroke="#63b8ff" d="M187.38,-54.89C204.36,-45.29 224.27,-34.02 239.76,-25.26"/>
<polygon fill="#63b8ff" stroke="#63b8ff" points="241.39,-28.36 248.37,-20.39 237.94,-22.27 241.39,-28.36"/>
</a>
</g>
</g>
</g>
</svg>
