<?xml version="1.0" encoding="UTF-8" standalone="no"?>
<!DOCTYPE svg PUBLIC "-//W3C//DTD SVG 1.1//EN"
 "http://www.w3.org/Graphics/SVG/1.1/DTD/svg11.dtd">
<!-- Generated by graphviz version 9.0.0 (20230911.1827)
 -->
<!-- Title: /github/workspace/dev_area/sourcecode/wibmod/src/WIB1/BNL_UDP.cpp Pages: 1 -->
<svg width="1126pt" height="238pt"
 viewBox="0.00 0.00 1125.62 238.00" xmlns="http://www.w3.org/2000/svg" xmlns:xlink="http://www.w3.org/1999/xlink">
<g id="graph0" class="graph" transform="scale(1 1) rotate(0) translate(4 234)">
<title>/github/workspace/dev_area/sourcecode/wibmod/src/WIB1/BNL_UDP.cpp</title>
<!-- Node1 -->
<g id="Node000001" class="node">
<title>Node1</title>
<g id="a_Node000001"><a xlink:title=" ">
<polygon fill="#999999" stroke="#666666" points="821.75,-230 691.75,-230 691.75,-188.25 821.75,-188.25 821.75,-230"/>
<text text-anchor="start" x="699.75" y="-216.5" font-family="Helvetica,sans-Serif" font-size="10.00">/github/workspace/dev</text>
<text text-anchor="start" x="699.75" y="-205.25" font-family="Helvetica,sans-Serif" font-size="10.00">_area/sourcecode/wibmod</text>
<text text-anchor="middle" x="756.75" y="-194" font-family="Helvetica,sans-Serif" font-size="10.00">/src/WIB1/BNL_UDP.cpp</text>
</a>
</g>
</g>
<!-- Node2 -->
<g id="Node000002" class="node">
<title>Node2</title>
<g id="a_Node000002"><a xlink:href="BNL__UDP_8hh.html" target="_top" xlink:title=" ">
<polygon fill="white" stroke="#666666" points="677.25,-146.62 538.25,-146.62 538.25,-127.38 677.25,-127.38 677.25,-146.62"/>
<text text-anchor="middle" x="607.75" y="-133.12" font-family="Helvetica,sans-Serif" font-size="10.00">wibmod/WIB1/BNL_UDP.hh</text>
</a>
</g>
</g>
<!-- Node1&#45;&gt;Node2 -->
<g id="edge1_Node000001_Node000002" class="edge">
<title>Node1&#45;&gt;Node2</title>
<g id="a_edge1_Node000001_Node000002"><a xlink:title=" ">
<path fill="none" stroke="#63b8ff" d="M713.65,-187.84C689.1,-176.28 658.97,-162.1 637.13,-151.83"/>
<polygon fill="#63b8ff" stroke="#63b8ff" points="638.75,-148.72 628.21,-147.63 635.77,-155.05 638.75,-148.72"/>
</a>
</g>
</g>
<!-- Node3 -->
<g id="Node000003" class="node">
<title>Node3</title>
<g id="a_Node000003"><a xlink:title=" ">
<polygon fill="#e0e0e0" stroke="#999999" points="611.75,-19.25 571.75,-19.25 571.75,0 611.75,0 611.75,-19.25"/>
<text text-anchor="middle" x="591.75" y="-5.75" font-family="Helvetica,sans-Serif" font-size="10.00">string</text>
</a>
</g>
</g>
<!-- Node1&#45;&gt;Node3 -->
<g id="edge21_Node000001_Node000003" class="edge">
<title>Node1&#45;&gt;Node3</title>
<g id="a_edge21_Node000001_Node000003"><a xlink:title=" ">
<path fill="none" stroke="#63b8ff" d="M691.4,-200.96C631.62,-192.9 549.56,-177.53 529.75,-152.25 498.84,-112.81 545.98,-55.58 573.78,-27.48"/>
<polygon fill="#63b8ff" stroke="#63b8ff" points="575.9,-30.3 580.59,-20.8 571,-25.3 575.9,-30.3"/>
</a>
</g>
</g>
<!-- Node6 -->
<g id="Node000006" class="node">
<title>Node6</title>
<g id="a_Node000006"><a xlink:title=" ">
<polygon fill="#e0e0e0" stroke="#999999" points="854.12,-80.12 783.38,-80.12 783.38,-60.88 854.12,-60.88 854.12,-80.12"/>
<text text-anchor="middle" x="818.75" y="-66.62" font-family="Helvetica,sans-Serif" font-size="10.00">sys/socket.h</text>
</a>
</g>
</g>
<!-- Node1&#45;&gt;Node6 -->
<g id="edge18_Node000001_Node000006" class="edge">
<title>Node1&#45;&gt;Node6</title>
<g id="a_edge18_Node000001_Node000006"><a xlink:title=" ">
<path fill="none" stroke="#63b8ff" d="M739.53,-187.98C726.24,-169.84 712.09,-142.87 724.75,-121.75 731.71,-110.14 761.43,-95.38 785.62,-84.87"/>
<polygon fill="#63b8ff" stroke="#63b8ff" points="786.67,-88.22 794.5,-81.1 783.93,-81.78 786.67,-88.22"/>
</a>
</g>
</g>
<!-- Node8 -->
<g id="Node000008" class="node">
<title>Node8</title>
<g id="a_Node000008"><a xlink:href="BNL__UDP__Exception_8hh.html" target="_top" xlink:title=" ">
<polygon fill="white" stroke="#666666" points="437.88,-152.25 311.62,-152.25 311.62,-121.75 437.88,-121.75 437.88,-152.25"/>
<text text-anchor="start" x="319.62" y="-138.75" font-family="Helvetica,sans-Serif" font-size="10.00">wibmod/WIB1/BNL_UDP</text>
<text text-anchor="middle" x="374.75" y="-127.5" font-family="Helvetica,sans-Serif" font-size="10.00">_Exception.hh</text>
</a>
</g>
</g>
<!-- Node1&#45;&gt;Node8 -->
<g id="edge7_Node000001_Node000008" class="edge">
<title>Node1&#45;&gt;Node8</title>
<g id="a_edge7_Node000001_Node000008"><a xlink:title=" ">
<path fill="none" stroke="#63b8ff" d="M691.52,-196.15C624.26,-183.8 519.55,-164.58 449.12,-151.65"/>
<polygon fill="#63b8ff" stroke="#63b8ff" points="450.08,-148.27 439.61,-149.91 448.82,-155.16 450.08,-148.27"/>
</a>
</g>
</g>
<!-- Node11 -->
<g id="Node000011" class="node">
<title>Node11</title>
<g id="a_Node000011"><a xlink:title=" ">
<polygon fill="#e0e0e0" stroke="#999999" points="47.5,-19.25 0,-19.25 0,0 47.5,0 47.5,-19.25"/>
<text text-anchor="middle" x="23.75" y="-5.75" font-family="Helvetica,sans-Serif" font-size="10.00">string.h</text>
</a>
</g>
</g>
<!-- Node1&#45;&gt;Node11 -->
<g id="edge19_Node000001_Node000011" class="edge">
<title>Node1&#45;&gt;Node11</title>
<g id="a_edge19_Node000001_Node000011"><a xlink:title=" ">
<path fill="none" stroke="#63b8ff" d="M691.38,-207.14C601.82,-204.21 436.82,-193.15 302.75,-152.25 201.55,-121.38 92.84,-55.5 46.63,-25.76"/>
<polygon fill="#63b8ff" stroke="#63b8ff" points="48.81,-23 38.52,-20.48 44.99,-28.87 48.81,-23"/>
</a>
</g>
</g>
<!-- Node18 -->
<g id="Node000018" class="node">
<title>Node18</title>
<g id="a_Node000018"><a xlink:title=" ">
<polygon fill="#e0e0e0" stroke="#999999" points="779.38,-146.62 734.12,-146.62 734.12,-127.38 779.38,-127.38 779.38,-146.62"/>
<text text-anchor="middle" x="756.75" y="-133.12" font-family="Helvetica,sans-Serif" font-size="10.00">errno.h</text>
</a>
</g>
</g>
<!-- Node1&#45;&gt;Node18 -->
<g id="edge20_Node000001_Node000018" class="edge">
<title>Node1&#45;&gt;Node18</title>
<g id="a_edge20_Node000001_Node000018"><a xlink:title=" ">
<path fill="none" stroke="#63b8ff" d="M756.75,-187.84C756.75,-178.5 756.75,-167.44 756.75,-158.12"/>
<polygon fill="#63b8ff" stroke="#63b8ff" points="760.25,-158.32 756.75,-148.32 753.25,-158.32 760.25,-158.32"/>
</a>
</g>
</g>
<!-- Node19 -->
<g id="Node000019" class="node">
<title>Node19</title>
<g id="a_Node000019"><a xlink:title=" ">
<polygon fill="#e0e0e0" stroke="#999999" points="839.88,-146.62 797.62,-146.62 797.62,-127.38 839.88,-127.38 839.88,-146.62"/>
<text text-anchor="middle" x="818.75" y="-133.12" font-family="Helvetica,sans-Serif" font-size="10.00">fcntl.h</text>
</a>
</g>
</g>
<!-- Node1&#45;&gt;Node19 -->
<g id="edge22_Node000001_Node000019" class="edge">
<title>Node1&#45;&gt;Node19</title>
<g id="a_edge22_Node000001_Node000019"><a xlink:title=" ">
<path fill="none" stroke="#63b8ff" d="M774.68,-187.84C783.79,-177.54 794.74,-165.16 803.44,-155.31"/>
<polygon fill="#63b8ff" stroke="#63b8ff" points="805.96,-157.75 809.97,-147.94 800.72,-153.11 805.96,-157.75"/>
</a>
</g>
</g>
<!-- Node20 -->
<g id="Node000020" class="node">
<title>Node20</title>
<g id="a_Node000020"><a xlink:title=" ">
<polygon fill="#e0e0e0" stroke="#999999" points="909.38,-146.62 858.12,-146.62 858.12,-127.38 909.38,-127.38 909.38,-146.62"/>
<text text-anchor="middle" x="883.75" y="-133.12" font-family="Helvetica,sans-Serif" font-size="10.00">sstream</text>
</a>
</g>
</g>
<!-- Node1&#45;&gt;Node20 -->
<g id="edge23_Node000001_Node000020" class="edge">
<title>Node1&#45;&gt;Node20</title>
<g id="a_edge23_Node000001_Node000020"><a xlink:title=" ">
<path fill="none" stroke="#63b8ff" d="M793.48,-187.84C813.94,-176.55 838.93,-162.75 857.42,-152.54"/>
<polygon fill="#63b8ff" stroke="#63b8ff" points="859.09,-155.61 866.15,-147.72 855.71,-149.49 859.09,-155.61"/>
</a>
</g>
</g>
<!-- Node21 -->
<g id="Node000021" class="node">
<title>Node21</title>
<g id="a_Node000021"><a xlink:title=" ">
<polygon fill="#e0e0e0" stroke="#999999" points="977.62,-146.62 927.88,-146.62 927.88,-127.38 977.62,-127.38 977.62,-146.62"/>
<text text-anchor="middle" x="952.75" y="-133.12" font-family="Helvetica,sans-Serif" font-size="10.00">iomanip</text>
</a>
</g>
</g>
<!-- Node1&#45;&gt;Node21 -->
<g id="edge24_Node000001_Node000021" class="edge">
<title>Node1&#45;&gt;Node21</title>
<g id="a_edge24_Node000001_Node000021"><a xlink:title=" ">
<path fill="none" stroke="#63b8ff" d="M818.63,-187.83C848.97,-177.61 885.95,-164.76 918.75,-152.25 919.53,-151.95 920.33,-151.64 921.13,-151.33"/>
<polygon fill="#63b8ff" stroke="#63b8ff" points="922.24,-154.66 930.21,-147.67 919.63,-148.16 922.24,-154.66"/>
</a>
</g>
</g>
<!-- Node22 -->
<g id="Node000022" class="node">
<title>Node22</title>
<g id="a_Node000022"><a xlink:title=" ">
<polygon fill="#e0e0e0" stroke="#999999" points="1043.5,-146.62 996,-146.62 996,-127.38 1043.5,-127.38 1043.5,-146.62"/>
<text text-anchor="middle" x="1019.75" y="-133.12" font-family="Helvetica,sans-Serif" font-size="10.00">netdb.h</text>
</a>
</g>
</g>
<!-- Node1&#45;&gt;Node22 -->
<g id="edge25_Node000001_Node000022" class="edge">
<title>Node1&#45;&gt;Node22</title>
<g id="a_edge25_Node000001_Node000022"><a xlink:title=" ">
<path fill="none" stroke="#63b8ff" d="M822.02,-195.35C868.52,-185.51 932.2,-170.51 986.75,-152.25 987.73,-151.92 988.73,-151.57 989.73,-151.21"/>
<polygon fill="#63b8ff" stroke="#63b8ff" points="990.99,-154.48 999.01,-147.55 988.42,-147.97 990.99,-154.48"/>
</a>
</g>
</g>
<!-- Node23 -->
<g id="Node000023" class="node">
<title>Node23</title>
<g id="a_Node000023"><a xlink:title=" ">
<polygon fill="#e0e0e0" stroke="#999999" points="1117.62,-146.62 1061.88,-146.62 1061.88,-127.38 1117.62,-127.38 1117.62,-146.62"/>
<text text-anchor="middle" x="1089.75" y="-133.12" font-family="Helvetica,sans-Serif" font-size="10.00">algorithm</text>
</a>
</g>
</g>
<!-- Node1&#45;&gt;Node23 -->
<g id="edge26_Node000001_Node000023" class="edge">
<title>Node1&#45;&gt;Node23</title>
<g id="a_edge26_Node000001_Node000023"><a xlink:title=" ">
<path fill="none" stroke="#63b8ff" d="M822.21,-199.25C882.72,-190.23 974.78,-174.43 1052.75,-152.25 1054.32,-151.8 1055.92,-151.32 1057.53,-150.8"/>
<polygon fill="#63b8ff" stroke="#63b8ff" points="1058.35,-154.22 1066.63,-147.61 1056.04,-147.61 1058.35,-154.22"/>
</a>
</g>
</g>
<!-- Node2&#45;&gt;Node3 -->
<g id="edge2_Node000002_Node000003" class="edge">
<title>Node2&#45;&gt;Node3</title>
<g id="a_edge2_Node000002_Node000003"><a xlink:title=" ">
<path fill="none" stroke="#63b8ff" d="M597.58,-127.21C587.79,-118.01 573.63,-102.59 567.75,-85.75 561,-66.43 570.32,-44.05 579.24,-28.78"/>
<polygon fill="#63b8ff" stroke="#63b8ff" points="581.94,-31.06 584.34,-20.74 576.03,-27.31 581.94,-31.06"/>
</a>
</g>
</g>
<!-- Node4 -->
<g id="Node000004" class="node">
<title>Node4</title>
<g id="a_Node000004"><a xlink:title=" ">
<polygon fill="#e0e0e0" stroke="#999999" points="619.25,-80.12 576.25,-80.12 576.25,-60.88 619.25,-60.88 619.25,-80.12"/>
<text text-anchor="middle" x="597.75" y="-66.62" font-family="Helvetica,sans-Serif" font-size="10.00">vector</text>
</a>
</g>
</g>
<!-- Node2&#45;&gt;Node4 -->
<g id="edge3_Node000002_Node000004" class="edge">
<title>Node2&#45;&gt;Node4</title>
<g id="a_edge3_Node000002_Node000004"><a xlink:title=" ">
<path fill="none" stroke="#63b8ff" d="M606.36,-127.03C604.94,-117.89 602.69,-103.39 600.85,-91.5"/>
<polygon fill="#63b8ff" stroke="#63b8ff" points="604.35,-91.23 599.36,-81.89 597.43,-92.31 604.35,-91.23"/>
</a>
</g>
</g>
<!-- Node5 -->
<g id="Node000005" class="node">
<title>Node5</title>
<g id="a_Node000005"><a xlink:title=" ">
<polygon fill="#e0e0e0" stroke="#999999" points="684.5,-80.12 637,-80.12 637,-60.88 684.5,-60.88 684.5,-80.12"/>
<text text-anchor="middle" x="660.75" y="-66.62" font-family="Helvetica,sans-Serif" font-size="10.00">stdint.h</text>
</a>
</g>
</g>
<!-- Node2&#45;&gt;Node5 -->
<g id="edge4_Node000002_Node000005" class="edge">
<title>Node2&#45;&gt;Node5</title>
<g id="a_edge4_Node000002_Node000005"><a xlink:title=" ">
<path fill="none" stroke="#63b8ff" d="M615.12,-127.03C623.11,-117.31 636.07,-101.54 646.14,-89.28"/>
<polygon fill="#63b8ff" stroke="#63b8ff" points="648.84,-91.51 652.48,-81.56 643.43,-87.07 648.84,-91.51"/>
</a>
</g>
</g>
<!-- Node2&#45;&gt;Node6 -->
<g id="edge5_Node000002_Node000006" class="edge">
<title>Node2&#45;&gt;Node6</title>
<g id="a_edge5_Node000002_Node000006"><a xlink:title=" ">
<path fill="none" stroke="#63b8ff" d="M638.59,-126.93C672.15,-117.01 727.35,-100.55 774.75,-85.75 776.59,-85.17 778.48,-84.58 780.38,-83.98"/>
<polygon fill="#63b8ff" stroke="#63b8ff" points="781.42,-87.32 789.88,-80.94 779.28,-80.65 781.42,-87.32"/>
</a>
</g>
</g>
<!-- Node7 -->
<g id="Node000007" class="node">
<title>Node7</title>
<g id="a_Node000007"><a xlink:title=" ">
<polygon fill="#e0e0e0" stroke="#999999" points="765.38,-80.12 702.12,-80.12 702.12,-60.88 765.38,-60.88 765.38,-80.12"/>
<text text-anchor="middle" x="733.75" y="-66.62" font-family="Helvetica,sans-Serif" font-size="10.00">netinet/ip.h</text>
</a>
</g>
</g>
<!-- Node2&#45;&gt;Node7 -->
<g id="edge6_Node000002_Node000007" class="edge">
<title>Node2&#45;&gt;Node7</title>
<g id="a_edge6_Node000002_Node000007"><a xlink:title=" ">
<path fill="none" stroke="#63b8ff" d="M625.54,-126.9C646.45,-116.19 681.43,-98.28 705.94,-85.74"/>
<polygon fill="#63b8ff" stroke="#63b8ff" points="707.4,-88.92 714.71,-81.25 704.21,-82.69 707.4,-88.92"/>
</a>
</g>
</g>
<!-- Node9 -->
<g id="Node000009" class="node">
<title>Node9</title>
<g id="a_Node000009"><a xlink:href="ExceptionBase_8hh.html" target="_top" xlink:title=" ">
<polygon fill="white" stroke="#666666" points="399.75,-85.75 263.75,-85.75 263.75,-55.25 399.75,-55.25 399.75,-85.75"/>
<text text-anchor="start" x="271.75" y="-72.25" font-family="Helvetica,sans-Serif" font-size="10.00">wibmod/WIB1/BUException</text>
<text text-anchor="middle" x="331.75" y="-61" font-family="Helvetica,sans-Serif" font-size="10.00">/ExceptionBase.hh</text>
</a>
</g>
</g>
<!-- Node8&#45;&gt;Node9 -->
<g id="edge8_Node000008_Node000009" class="edge">
<title>Node8&#45;&gt;Node9</title>
<g id="a_edge8_Node000008_Node000009"><a xlink:title=" ">
<path fill="none" stroke="#63b8ff" d="M364.99,-121.36C359.88,-113.69 353.49,-104.11 347.68,-95.4"/>
<polygon fill="#63b8ff" stroke="#63b8ff" points="350.77,-93.72 342.31,-87.34 344.94,-97.6 350.77,-93.72"/>
</a>
</g>
</g>
<!-- Node9&#45;&gt;Node3 -->
<g id="edge11_Node000009_Node000003" class="edge">
<title>Node9&#45;&gt;Node3</title>
<g id="a_edge11_Node000009_Node000003"><a xlink:title=" ">
<path fill="none" stroke="#63b8ff" d="M400.04,-56.04C443.49,-47.16 501.16,-34.78 560.44,-19.7"/>
<polygon fill="#63b8ff" stroke="#63b8ff" points="561.24,-23.11 570.06,-17.23 559.5,-16.33 561.24,-23.11"/>
</a>
</g>
</g>
<!-- Node10 -->
<g id="Node000010" class="node">
<title>Node10</title>
<g id="a_Node000010"><a xlink:title=" ">
<polygon fill="#e0e0e0" stroke="#999999" points="122.38,-19.25 65.12,-19.25 65.12,0 122.38,0 122.38,-19.25"/>
<text text-anchor="middle" x="93.75" y="-5.75" font-family="Helvetica,sans-Serif" font-size="10.00">exception</text>
</a>
</g>
</g>
<!-- Node9&#45;&gt;Node10 -->
<g id="edge9_Node000009_Node000010" class="edge">
<title>Node9&#45;&gt;Node10</title>
<g id="a_edge9_Node000009_Node000010"><a xlink:title=" ">
<path fill="none" stroke="#63b8ff" d="M272.31,-54.8C229.13,-44.12 171.87,-29.95 133.97,-20.57"/>
<polygon fill="#63b8ff" stroke="#63b8ff" points="134.88,-17.19 124.33,-18.19 133.2,-23.99 134.88,-17.19"/>
</a>
</g>
</g>
<!-- Node9&#45;&gt;Node11 -->
<g id="edge10_Node000009_Node000011" class="edge">
<title>Node9&#45;&gt;Node11</title>
<g id="a_edge10_Node000009_Node000011"><a xlink:title=" ">
<path fill="none" stroke="#63b8ff" d="M263.38,-58.68C209.96,-49.85 133.63,-36.43 58.83,-19.81"/>
<polygon fill="#63b8ff" stroke="#63b8ff" points="59.81,-16.45 49.29,-17.67 58.28,-23.28 59.81,-16.45"/>
</a>
</g>
</g>
<!-- Node12 -->
<g id="Node000012" class="node">
<title>Node12</title>
<g id="a_Node000012"><a xlink:title=" ">
<polygon fill="#e0e0e0" stroke="#999999" points="187.12,-19.25 140.38,-19.25 140.38,0 187.12,0 187.12,-19.25"/>
<text text-anchor="middle" x="163.75" y="-5.75" font-family="Helvetica,sans-Serif" font-size="10.00">stdlib.h</text>
</a>
</g>
</g>
<!-- Node9&#45;&gt;Node12 -->
<g id="edge12_Node000009_Node000012" class="edge">
<title>Node9&#45;&gt;Node12</title>
<g id="a_edge12_Node000009_Node000012"><a xlink:title=" ">
<path fill="none" stroke="#63b8ff" d="M289.79,-54.8C261.56,-44.9 224.79,-32.01 198.26,-22.72"/>
<polygon fill="#63b8ff" stroke="#63b8ff" points="199.59,-19.48 189,-19.47 197.27,-26.08 199.59,-19.48"/>
</a>
</g>
</g>
<!-- Node13 -->
<g id="Node000013" class="node">
<title>Node13</title>
<g id="a_Node000013"><a xlink:title=" ">
<polygon fill="#e0e0e0" stroke="#999999" points="250,-19.25 205.5,-19.25 205.5,0 250,0 250,-19.25"/>
<text text-anchor="middle" x="227.75" y="-5.75" font-family="Helvetica,sans-Serif" font-size="10.00">stdio.h</text>
</a>
</g>
</g>
<!-- Node9&#45;&gt;Node13 -->
<g id="edge13_Node000009_Node000013" class="edge">
<title>Node9&#45;&gt;Node13</title>
<g id="a_edge13_Node000009_Node000013"><a xlink:title=" ">
<path fill="none" stroke="#63b8ff" d="M305.77,-54.8C289.78,-45.74 269.37,-34.19 253.43,-25.16"/>
<polygon fill="#63b8ff" stroke="#63b8ff" points="255.44,-22.28 245.02,-20.4 251.99,-28.37 255.44,-22.28"/>
</a>
</g>
</g>
<!-- Node14 -->
<g id="Node000014" class="node">
<title>Node14</title>
<g id="a_Node000014"><a xlink:title=" ">
<polygon fill="#e0e0e0" stroke="#999999" points="317.62,-19.25 267.88,-19.25 267.88,0 317.62,0 317.62,-19.25"/>
<text text-anchor="middle" x="292.75" y="-5.75" font-family="Helvetica,sans-Serif" font-size="10.00">unistd.h</text>
</a>
</g>
</g>
<!-- Node9&#45;&gt;Node14 -->
<g id="edge14_Node000009_Node000014" class="edge">
<title>Node9&#45;&gt;Node14</title>
<g id="a_edge14_Node000009_Node000014"><a xlink:title=" ">
<path fill="none" stroke="#63b8ff" d="M322.11,-54.95C316.97,-47.19 310.59,-37.56 305.1,-29.26"/>
<polygon fill="#63b8ff" stroke="#63b8ff" points="308.04,-27.37 299.6,-20.96 302.2,-31.23 308.04,-27.37"/>
</a>
</g>
</g>
<!-- Node15 -->
<g id="Node000015" class="node">
<title>Node15</title>
<g id="a_Node000015"><a xlink:title=" ">
<polygon fill="#e0e0e0" stroke="#999999" points="407.5,-19.25 336,-19.25 336,0 407.5,0 407.5,-19.25"/>
<text text-anchor="middle" x="371.75" y="-5.75" font-family="Helvetica,sans-Serif" font-size="10.00">sys/syscall.h</text>
</a>
</g>
</g>
<!-- Node9&#45;&gt;Node15 -->
<g id="edge15_Node000009_Node000015" class="edge">
<title>Node9&#45;&gt;Node15</title>
<g id="a_edge15_Node000009_Node000015"><a xlink:title=" ">
<path fill="none" stroke="#63b8ff" d="M341.64,-54.95C346.97,-47.1 353.6,-37.35 359.28,-28.99"/>
<polygon fill="#63b8ff" stroke="#63b8ff" points="362.01,-31.19 364.73,-20.95 356.22,-27.26 362.01,-31.19"/>
</a>
</g>
</g>
<!-- Node16 -->
<g id="Node000016" class="node">
<title>Node16</title>
<g id="a_Node000016"><a xlink:title=" ">
<polygon fill="#e0e0e0" stroke="#999999" points="485.5,-19.25 426,-19.25 426,0 485.5,0 485.5,-19.25"/>
<text text-anchor="middle" x="455.75" y="-5.75" font-family="Helvetica,sans-Serif" font-size="10.00">execinfo.h</text>
</a>
</g>
</g>
<!-- Node9&#45;&gt;Node16 -->
<g id="edge16_Node000009_Node000016" class="edge">
<title>Node9&#45;&gt;Node16</title>
<g id="a_edge16_Node000009_Node000016"><a xlink:title=" ">
<path fill="none" stroke="#63b8ff" d="M362.72,-54.8C382.24,-45.53 407.29,-33.63 426.48,-24.52"/>
<polygon fill="#63b8ff" stroke="#63b8ff" points="427.83,-27.75 435.37,-20.3 424.83,-21.43 427.83,-27.75"/>
</a>
</g>
</g>
<!-- Node17 -->
<g id="Node000017" class="node">
<title>Node17</title>
<g id="a_Node000017"><a xlink:title=" ">
<polygon fill="#e0e0e0" stroke="#999999" points="554,-19.25 503.5,-19.25 503.5,0 554,0 554,-19.25"/>
<text text-anchor="middle" x="528.75" y="-5.75" font-family="Helvetica,sans-Serif" font-size="10.00">cxxabi.h</text>
</a>
</g>
</g>
<!-- Node9&#45;&gt;Node17 -->
<g id="edge17_Node000009_Node000017" class="edge">
<title>Node9&#45;&gt;Node17</title>
<g id="a_edge17_Node000009_Node000017"><a xlink:title=" ">
<path fill="none" stroke="#63b8ff" d="M380.95,-54.8C415.46,-44.48 460.85,-30.92 492.18,-21.55"/>
<polygon fill="#63b8ff" stroke="#63b8ff" points="493.01,-24.96 501.59,-18.74 491,-18.25 493.01,-24.96"/>
</a>
</g>
</g>
</g>
</svg>
