<?xml version="1.0" encoding="UTF-8" standalone="no"?>
<!DOCTYPE svg PUBLIC "-//W3C//DTD SVG 1.1//EN"
 "http://www.w3.org/Graphics/SVG/1.1/DTD/svg11.dtd">
<!-- Generated by graphviz version 9.0.0 (20230911.1827)
 -->
<!-- Title: /github/workspace/dev_area/sourcecode/datahandlinglibs/include/datahandlinglibs/utils/BufferCopy.hpp Pages: 1 -->
<svg width="257pt" height="116pt"
 viewBox="0.00 0.00 257.00 116.25" xmlns="http://www.w3.org/2000/svg" xmlns:xlink="http://www.w3.org/1999/xlink">
<g id="graph0" class="graph" transform="scale(1 1) rotate(0) translate(4 112.25)">
<title>/github/workspace/dev_area/sourcecode/datahandlinglibs/include/datahandlinglibs/utils/BufferCopy.hpp</title>
<!-- Node1 -->
<g id="Node000001" class="node">
<title>Node1</title>
<g id="a_Node000001"><a xlink:title=" ">
<polygon fill="#999999" stroke="#666666" points="203.12,-108.25 37.12,-108.25 37.12,-55.25 203.12,-55.25 203.12,-108.25"/>
<text text-anchor="start" x="45.12" y="-94.75" font-family="Helvetica,sans-Serif" font-size="10.00">/github/workspace/dev</text>
<text text-anchor="start" x="45.12" y="-83.5" font-family="Helvetica,sans-Serif" font-size="10.00">_area/sourcecode/datahandlinglibs</text>
<text text-anchor="start" x="45.12" y="-72.25" font-family="Helvetica,sans-Serif" font-size="10.00">/include/datahandlinglibs/utils</text>
<text text-anchor="middle" x="120.12" y="-61" font-family="Helvetica,sans-Serif" font-size="10.00">/BufferCopy.hpp</text>
</a>
</g>
</g>
<!-- Node2 -->
<g id="Node000002" class="node">
<title>Node2</title>
<g id="a_Node000002"><a xlink:title=" ">
<polygon fill="#e0e0e0" stroke="#999999" points="48.25,-19.25 0,-19.25 0,0 48.25,0 48.25,-19.25"/>
<text text-anchor="middle" x="24.12" y="-5.75" font-family="Helvetica,sans-Serif" font-size="10.00">cstddef</text>
</a>
</g>
</g>
<!-- Node1&#45;&gt;Node2 -->
<g id="edge1_Node000001_Node000002" class="edge">
<title>Node1&#45;&gt;Node2</title>
<g id="a_edge1_Node000001_Node000002"><a xlink:title=" ">
<path fill="none" stroke="#63b8ff" d="M84.65,-54.84C71.6,-45.3 57.21,-34.8 45.74,-26.42"/>
<polygon fill="#63b8ff" stroke="#63b8ff" points="47.89,-23.65 37.75,-20.57 43.76,-29.3 47.89,-23.65"/>
</a>
</g>
</g>
<!-- Node3 -->
<g id="Node000003" class="node">
<title>Node3</title>
<g id="a_Node000003"><a xlink:title=" ">
<polygon fill="#e0e0e0" stroke="#999999" points="111.75,-19.25 66.5,-19.25 66.5,0 111.75,0 111.75,-19.25"/>
<text text-anchor="middle" x="89.12" y="-5.75" font-family="Helvetica,sans-Serif" font-size="10.00">cstring</text>
</a>
</g>
</g>
<!-- Node1&#45;&gt;Node3 -->
<g id="edge2_Node000001_Node000003" class="edge">
<title>Node1&#45;&gt;Node3</title>
<g id="a_edge2_Node000001_Node000003"><a xlink:title=" ">
<path fill="none" stroke="#63b8ff" d="M108.76,-55.04C105.13,-46.83 101.18,-37.89 97.78,-30.2"/>
<polygon fill="#63b8ff" stroke="#63b8ff" points="101.01,-28.85 93.76,-21.12 94.61,-31.68 101.01,-28.85"/>
</a>
</g>
</g>
<!-- Node4 -->
<g id="Node000004" class="node">
<title>Node4</title>
<g id="a_Node000004"><a xlink:title=" ">
<polygon fill="#e0e0e0" stroke="#999999" points="174.75,-19.25 129.5,-19.25 129.5,0 174.75,0 174.75,-19.25"/>
<text text-anchor="middle" x="152.12" y="-5.75" font-family="Helvetica,sans-Serif" font-size="10.00">cstdint</text>
</a>
</g>
</g>
<!-- Node1&#45;&gt;Node4 -->
<g id="edge3_Node000001_Node000004" class="edge">
<title>Node1&#45;&gt;Node4</title>
<g id="a_edge3_Node000001_Node000004"><a xlink:title=" ">
<path fill="none" stroke="#63b8ff" d="M131.86,-55.04C135.6,-46.83 139.68,-37.89 143.19,-30.2"/>
<polygon fill="#63b8ff" stroke="#63b8ff" points="146.37,-31.66 147.34,-21.11 140,-28.76 146.37,-31.66"/>
</a>
</g>
</g>
<!-- Node5 -->
<g id="Node000005" class="node">
<title>Node5</title>
<g id="a_Node000005"><a xlink:title=" ">
<polygon fill="#e0e0e0" stroke="#999999" points="249,-19.25 193.25,-19.25 193.25,0 249,0 249,-19.25"/>
<text text-anchor="middle" x="221.12" y="-5.75" font-family="Helvetica,sans-Serif" font-size="10.00">algorithm</text>
</a>
</g>
</g>
<!-- Node1&#45;&gt;Node5 -->
<g id="edge4_Node000001_Node000005" class="edge">
<title>Node1&#45;&gt;Node5</title>
<g id="a_edge4_Node000001_Node000005"><a xlink:title=" ">
<path fill="none" stroke="#63b8ff" d="M157.45,-54.84C171.32,-45.21 186.62,-34.58 198.74,-26.16"/>
<polygon fill="#63b8ff" stroke="#63b8ff" points="200.62,-29.12 206.84,-20.54 196.63,-23.37 200.62,-29.12"/>
</a>
</g>
</g>
</g>
</svg>
