<?xml version="1.0" encoding="UTF-8" standalone="no"?>
<!DOCTYPE svg PUBLIC "-//W3C//DTD SVG 1.1//EN"
 "http://www.w3.org/Graphics/SVG/1.1/DTD/svg11.dtd">
<!-- Generated by graphviz version 9.0.0 (20230911.1827)
 -->
<!-- Title: /github/workspace/dev_area/build/timinglibs/codegen/include/timinglibs/dal/TimingController.hpp Pages: 1 -->
<svg width="2718pt" height="328pt"
 viewBox="0.00 0.00 2718.12 328.00" xmlns="http://www.w3.org/2000/svg" xmlns:xlink="http://www.w3.org/1999/xlink">
<g id="graph0" class="graph" transform="scale(1 1) rotate(0) translate(4 324)">
<title>/github/workspace/dev_area/build/timinglibs/codegen/include/timinglibs/dal/TimingController.hpp</title>
<!-- Node1 -->
<g id="Node000001" class="node">
<title>Node1</title>
<g id="a_Node000001"><a xlink:title=" ">
<polygon fill="#999999" stroke="#666666" points="1920.75,-320 1787,-320 1787,-267 1920.75,-267 1920.75,-320"/>
<text text-anchor="start" x="1795" y="-306.5" font-family="Helvetica,sans-Serif" font-size="10.00">/github/workspace/dev</text>
<text text-anchor="start" x="1795" y="-295.25" font-family="Helvetica,sans-Serif" font-size="10.00">_area/build/timinglibs</text>
<text text-anchor="start" x="1795" y="-284" font-family="Helvetica,sans-Serif" font-size="10.00">/codegen/include/timinglibs</text>
<text text-anchor="middle" x="1853.88" y="-272.75" font-family="Helvetica,sans-Serif" font-size="10.00">/dal/TimingController.hpp</text>
</a>
</g>
</g>
<!-- Node2 -->
<g id="Node000002" class="node">
<title>Node2</title>
<g id="a_Node000002"><a xlink:href="build_2timinglibs_2codegen_2include_2timinglibs_2dal_2TimingEndpointControllerBase_8hpp.html" target="_top" xlink:title=" ">
<polygon fill="white" stroke="#666666" points="970.5,-231 787.25,-231 787.25,-178 970.5,-178 970.5,-231"/>
<text text-anchor="start" x="795.25" y="-217.5" font-family="Helvetica,sans-Serif" font-size="10.00">/github/workspace/dev</text>
<text text-anchor="start" x="795.25" y="-206.25" font-family="Helvetica,sans-Serif" font-size="10.00">_area/build/timinglibs</text>
<text text-anchor="start" x="795.25" y="-195" font-family="Helvetica,sans-Serif" font-size="10.00">/codegen/include/timinglibs</text>
<text text-anchor="middle" x="878.88" y="-183.75" font-family="Helvetica,sans-Serif" font-size="10.00">/dal/TimingEndpointControllerBase.hpp</text>
</a>
</g>
</g>
<!-- Node1&#45;&gt;Node2 -->
<g id="edge1_Node000001_Node000002" class="edge">
<title>Node1&#45;&gt;Node2</title>
<g id="a_edge1_Node000001_Node000002"><a xlink:title=" ">
<path fill="none" stroke="#63b8ff" d="M1775.49,-285.51C1597.14,-269.59 1161.74,-230.74 970.97,-213.72"/>
<polygon fill="#63b8ff" stroke="#63b8ff" points="1775.08,-288.98 1785.35,-286.39 1775.7,-282.01 1775.08,-288.98"/>
</a>
</g>
</g>
<!-- Node9 -->
<g id="Node000009" class="node">
<title>Node9</title>
<g id="a_Node000009"><a xlink:href="dump__dunedaq____timinglibs____dal_8cpp.html" target="_top" xlink:title=" ">
<polygon fill="white" stroke="#666666" points="1221.5,-53 1080.25,-53 1080.25,0 1221.5,0 1221.5,-53"/>
<text text-anchor="start" x="1088.25" y="-39.5" font-family="Helvetica,sans-Serif" font-size="10.00">/github/workspace/dev</text>
<text text-anchor="start" x="1088.25" y="-28.25" font-family="Helvetica,sans-Serif" font-size="10.00">_area/build/timinglibs</text>
<text text-anchor="start" x="1088.25" y="-17" font-family="Helvetica,sans-Serif" font-size="10.00">/codegen/src/dump_dunedaq</text>
<text text-anchor="middle" x="1150.88" y="-5.75" font-family="Helvetica,sans-Serif" font-size="10.00">__timinglibs__dal.cpp</text>
</a>
</g>
</g>
<!-- Node1&#45;&gt;Node9 -->
<g id="edge27_Node000001_Node000009" class="edge">
<title>Node1&#45;&gt;Node9</title>
<g id="a_edge27_Node000001_Node000009"><a xlink:title=" ">
<path fill="none" stroke="#63b8ff" d="M1775.7,-283.18C1702.87,-273.18 1600.84,-255.38 1568.88,-231 1540.58,-209.42 1523.55,-110.07 1494.88,-89 1452.46,-57.84 1309.53,-40.67 1221.81,-32.84"/>
<polygon fill="#63b8ff" stroke="#63b8ff" points="1774.8,-286.59 1785.17,-284.46 1775.73,-279.66 1774.8,-286.59"/>
</a>
</g>
</g>
<!-- Node16 -->
<g id="Node000016" class="node">
<title>Node16</title>
<g id="a_Node000016"><a xlink:href="build_2timinglibs_2codegen_2include_2timinglibs_2dal_2TimingMasterControllerBase_8hpp.html" target="_top" xlink:title=" ">
<polygon fill="white" stroke="#666666" points="1753.75,-231 1578,-231 1578,-178 1753.75,-178 1753.75,-231"/>
<text text-anchor="start" x="1586" y="-217.5" font-family="Helvetica,sans-Serif" font-size="10.00">/github/workspace/dev</text>
<text text-anchor="start" x="1586" y="-206.25" font-family="Helvetica,sans-Serif" font-size="10.00">_area/build/timinglibs</text>
<text text-anchor="start" x="1586" y="-195" font-family="Helvetica,sans-Serif" font-size="10.00">/codegen/include/timinglibs</text>
<text text-anchor="middle" x="1665.88" y="-183.75" font-family="Helvetica,sans-Serif" font-size="10.00">/dal/TimingMasterControllerBase.hpp</text>
</a>
</g>
</g>
<!-- Node1&#45;&gt;Node16 -->
<g id="edge17_Node000001_Node000016" class="edge">
<title>Node1&#45;&gt;Node16</title>
<g id="a_edge17_Node000001_Node000016"><a xlink:title=" ">
<path fill="none" stroke="#63b8ff" d="M1787.38,-261.73C1765.91,-251.79 1742.35,-240.89 1721.74,-231.35"/>
<polygon fill="#63b8ff" stroke="#63b8ff" points="1785.8,-264.86 1796.35,-265.88 1788.74,-258.5 1785.8,-264.86"/>
</a>
</g>
</g>
<!-- Node21 -->
<g id="Node000021" class="node">
<title>Node21</title>
<g id="a_Node000021"><a xlink:href="build_2timinglibs_2codegen_2src_2TimingController_8cpp.html" target="_top" xlink:title=" ">
<polygon fill="white" stroke="#666666" points="1935.75,-225.38 1772,-225.38 1772,-183.62 1935.75,-183.62 1935.75,-225.38"/>
<text text-anchor="start" x="1780" y="-211.88" font-family="Helvetica,sans-Serif" font-size="10.00">/github/workspace/dev</text>
<text text-anchor="start" x="1780" y="-200.62" font-family="Helvetica,sans-Serif" font-size="10.00">_area/build/timinglibs</text>
<text text-anchor="middle" x="1853.88" y="-189.38" font-family="Helvetica,sans-Serif" font-size="10.00">/codegen/src/TimingController.cpp</text>
</a>
</g>
</g>
<!-- Node1&#45;&gt;Node21 -->
<g id="edge24_Node000001_Node000021" class="edge">
<title>Node1&#45;&gt;Node21</title>
<g id="a_edge24_Node000001_Node000021"><a xlink:title=" ">
<path fill="none" stroke="#63b8ff" d="M1853.88,-255.63C1853.88,-245.38 1853.88,-234.62 1853.88,-225.71"/>
<polygon fill="#63b8ff" stroke="#63b8ff" points="1850.38,-255.35 1853.88,-265.35 1857.38,-255.35 1850.38,-255.35"/>
</a>
</g>
</g>
<!-- Node22 -->
<g id="Node000022" class="node">
<title>Node22</title>
<g id="a_Node000022"><a xlink:href="build_2timinglibs_2codegen_2src_2TimingEndpointControllerBase_8hpp.html" target="_top" xlink:title=" ">
<polygon fill="white" stroke="#666666" points="2137.5,-231 1954.25,-231 1954.25,-178 2137.5,-178 2137.5,-231"/>
<text text-anchor="start" x="1962.25" y="-217.5" font-family="Helvetica,sans-Serif" font-size="10.00">/github/workspace/dev</text>
<text text-anchor="start" x="1962.25" y="-206.25" font-family="Helvetica,sans-Serif" font-size="10.00">_area/build/timinglibs</text>
<text text-anchor="start" x="1962.25" y="-195" font-family="Helvetica,sans-Serif" font-size="10.00">/codegen/src/TimingEndpointController</text>
<text text-anchor="middle" x="2045.88" y="-183.75" font-family="Helvetica,sans-Serif" font-size="10.00">Base.hpp</text>
</a>
</g>
</g>
<!-- Node1&#45;&gt;Node22 -->
<g id="edge25_Node000001_Node000022" class="edge">
<title>Node1&#45;&gt;Node22</title>
<g id="a_edge25_Node000001_Node000022"><a xlink:title=" ">
<path fill="none" stroke="#63b8ff" d="M1921.49,-261.86C1943.49,-251.89 1967.68,-240.93 1988.82,-231.35"/>
<polygon fill="#63b8ff" stroke="#63b8ff" points="1920.26,-258.57 1912.6,-265.89 1923.15,-264.95 1920.26,-258.57"/>
</a>
</g>
</g>
<!-- Node23 -->
<g id="Node000023" class="node">
<title>Node23</title>
<g id="a_Node000023"><a xlink:href="build_2timinglibs_2codegen_2src_2TimingMasterControllerBase_8hpp.html" target="_top" xlink:title=" ">
<polygon fill="white" stroke="#666666" points="2331.75,-231 2156,-231 2156,-178 2331.75,-178 2331.75,-231"/>
<text text-anchor="start" x="2164" y="-217.5" font-family="Helvetica,sans-Serif" font-size="10.00">/github/workspace/dev</text>
<text text-anchor="start" x="2164" y="-206.25" font-family="Helvetica,sans-Serif" font-size="10.00">_area/build/timinglibs</text>
<text text-anchor="start" x="2164" y="-195" font-family="Helvetica,sans-Serif" font-size="10.00">/codegen/src/TimingMasterController</text>
<text text-anchor="middle" x="2243.88" y="-183.75" font-family="Helvetica,sans-Serif" font-size="10.00">Base.hpp</text>
</a>
</g>
</g>
<!-- Node1&#45;&gt;Node23 -->
<g id="edge26_Node000001_Node000023" class="edge">
<title>Node1&#45;&gt;Node23</title>
<g id="a_edge26_Node000001_Node000023"><a xlink:title=" ">
<path fill="none" stroke="#63b8ff" d="M1932.13,-277.19C1991.28,-265.34 2074.4,-248.12 2146.88,-231 2149.76,-230.32 2152.68,-229.62 2155.63,-228.9"/>
<polygon fill="#63b8ff" stroke="#63b8ff" points="1931.61,-273.72 1922.48,-279.11 1932.98,-280.59 1931.61,-273.72"/>
</a>
</g>
</g>
<!-- Node24 -->
<g id="Node000024" class="node">
<title>Node24</title>
<g id="a_Node000024"><a xlink:href="sourcecode_2timinglibs_2include_2timinglibs_2TimingController_8hpp.html" target="_top" xlink:title=" ">
<polygon fill="white" stroke="#666666" points="2537.62,-225.38 2352.12,-225.38 2352.12,-183.62 2537.62,-183.62 2537.62,-225.38"/>
<text text-anchor="start" x="2360.12" y="-211.88" font-family="Helvetica,sans-Serif" font-size="10.00">/github/workspace/dev</text>
<text text-anchor="start" x="2360.12" y="-200.62" font-family="Helvetica,sans-Serif" font-size="10.00">_area/sourcecode/timinglibs</text>
<text text-anchor="middle" x="2444.88" y="-189.38" font-family="Helvetica,sans-Serif" font-size="10.00">/include/timinglibs/TimingController.hpp</text>
</a>
</g>
</g>
<!-- Node1&#45;&gt;Node24 -->
<g id="edge28_Node000001_Node000024" class="edge">
<title>Node1&#45;&gt;Node24</title>
<g id="a_edge28_Node000001_Node000024"><a xlink:title=" ">
<path fill="none" stroke="#63b8ff" d="M1932.63,-285.36C2029.29,-275.96 2197.95,-257.46 2340.88,-231 2349.01,-229.49 2357.46,-227.74 2365.87,-225.87"/>
<polygon fill="#63b8ff" stroke="#63b8ff" points="1932.33,-281.88 1922.72,-286.32 1933.01,-288.84 1932.33,-281.88"/>
</a>
</g>
</g>
<!-- Node3 -->
<g id="Node000003" class="node">
<title>Node3</title>
<g id="a_Node000003"><a xlink:href="include_2hsilibs_2dal_2HSIController_8hpp.html" target="_top" xlink:title=" ">
<polygon fill="white" stroke="#666666" points="309.75,-136.38 134,-136.38 134,-94.62 309.75,-94.62 309.75,-136.38"/>
<text text-anchor="start" x="142" y="-122.88" font-family="Helvetica,sans-Serif" font-size="10.00">/github/workspace/dev</text>
<text text-anchor="start" x="142" y="-111.62" font-family="Helvetica,sans-Serif" font-size="10.00">_area/build/hsilibs/codegen</text>
<text text-anchor="middle" x="221.88" y="-100.38" font-family="Helvetica,sans-Serif" font-size="10.00">/include/hsilibs/dal/HSIController.hpp</text>
</a>
</g>
</g>
<!-- Node2&#45;&gt;Node3 -->
<g id="edge2_Node000002_Node000003" class="edge">
<title>Node2&#45;&gt;Node3</title>
<g id="a_edge2_Node000002_Node000003"><a xlink:title=" ">
<path fill="none" stroke="#63b8ff" d="M775.83,-196.46C663.55,-187.77 478.97,-170.56 321.88,-142 313.77,-140.53 305.34,-138.76 296.98,-136.85"/>
<polygon fill="#63b8ff" stroke="#63b8ff" points="775.39,-199.93 785.62,-197.2 775.92,-192.95 775.39,-199.93"/>
</a>
</g>
</g>
<!-- Node6 -->
<g id="Node000006" class="node">
<title>Node6</title>
<g id="a_Node000006"><a xlink:href="src_2HSIController_8hpp.html" target="_top" xlink:title=" ">
<polygon fill="white" stroke="#666666" points="852.75,-136.38 719,-136.38 719,-94.62 852.75,-94.62 852.75,-136.38"/>
<text text-anchor="start" x="727" y="-122.88" font-family="Helvetica,sans-Serif" font-size="10.00">/github/workspace/dev</text>
<text text-anchor="start" x="727" y="-111.62" font-family="Helvetica,sans-Serif" font-size="10.00">_area/build/hsilibs/codegen</text>
<text text-anchor="middle" x="785.88" y="-100.38" font-family="Helvetica,sans-Serif" font-size="10.00">/src/HSIController.hpp</text>
</a>
</g>
</g>
<!-- Node2&#45;&gt;Node6 -->
<g id="edge5_Node000002_Node000006" class="edge">
<title>Node2&#45;&gt;Node6</title>
<g id="a_edge5_Node000002_Node000006"><a xlink:title=" ">
<path fill="none" stroke="#63b8ff" d="M843.09,-170.02C831.03,-158.74 817.97,-146.52 807.37,-136.61"/>
<polygon fill="#63b8ff" stroke="#63b8ff" points="840.42,-172.32 850.12,-176.6 845.21,-167.21 840.42,-172.32"/>
</a>
</g>
</g>
<!-- Node7 -->
<g id="Node000007" class="node">
<title>Node7</title>
<g id="a_Node000007"><a xlink:href="include_2timinglibs_2dal_2TimingEndpointController_8hpp.html" target="_top" xlink:title=" ">
<polygon fill="white" stroke="#666666" points="491.25,-142 330.5,-142 330.5,-89 491.25,-89 491.25,-142"/>
<text text-anchor="start" x="338.5" y="-128.5" font-family="Helvetica,sans-Serif" font-size="10.00">/github/workspace/dev</text>
<text text-anchor="start" x="338.5" y="-117.25" font-family="Helvetica,sans-Serif" font-size="10.00">_area/build/timinglibs</text>
<text text-anchor="start" x="338.5" y="-106" font-family="Helvetica,sans-Serif" font-size="10.00">/codegen/include/timinglibs</text>
<text text-anchor="middle" x="410.88" y="-94.75" font-family="Helvetica,sans-Serif" font-size="10.00">/dal/TimingEndpointController.hpp</text>
</a>
</g>
</g>
<!-- Node2&#45;&gt;Node7 -->
<g id="edge6_Node000002_Node000007" class="edge">
<title>Node2&#45;&gt;Node7</title>
<g id="a_edge6_Node000002_Node000007"><a xlink:title=" ">
<path fill="none" stroke="#63b8ff" d="M775.71,-190.12C699.14,-179.38 592.42,-162.69 499.88,-142 497.05,-141.37 494.19,-140.7 491.3,-140"/>
<polygon fill="#63b8ff" stroke="#63b8ff" points="774.89,-193.54 785.28,-191.45 775.86,-186.61 774.89,-193.54"/>
</a>
</g>
</g>
<!-- Node2&#45;&gt;Node9 -->
<g id="edge15_Node000002_Node000009" class="edge">
<title>Node2&#45;&gt;Node9</title>
<g id="a_edge15_Node000002_Node000009"><a xlink:title=" ">
<path fill="none" stroke="#63b8ff" d="M776.32,-187.85C750.47,-178.77 725.62,-164.48 709.88,-142 696.36,-122.7 694.41,-106.77 709.88,-89 757.01,-34.84 967.92,-26.9 1080.12,-26.62"/>
<polygon fill="#63b8ff" stroke="#63b8ff" points="775.01,-191.1 785.6,-190.85 777.16,-184.44 775.01,-191.1"/>
</a>
</g>
</g>
<!-- Node10 -->
<g id="Node000010" class="node">
<title>Node10</title>
<g id="a_Node000010"><a xlink:href="include_2timinglibs_2dal_2TimingFanoutController_8hpp.html" target="_top" xlink:title=" ">
<polygon fill="white" stroke="#666666" points="662.5,-142 509.25,-142 509.25,-89 662.5,-89 662.5,-142"/>
<text text-anchor="start" x="517.25" y="-128.5" font-family="Helvetica,sans-Serif" font-size="10.00">/github/workspace/dev</text>
<text text-anchor="start" x="517.25" y="-117.25" font-family="Helvetica,sans-Serif" font-size="10.00">_area/build/timinglibs</text>
<text text-anchor="start" x="517.25" y="-106" font-family="Helvetica,sans-Serif" font-size="10.00">/codegen/include/timinglibs</text>
<text text-anchor="middle" x="585.88" y="-94.75" font-family="Helvetica,sans-Serif" font-size="10.00">/dal/TimingFanoutController.hpp</text>
</a>
</g>
</g>
<!-- Node2&#45;&gt;Node10 -->
<g id="edge9_Node000002_Node000010" class="edge">
<title>Node2&#45;&gt;Node10</title>
<g id="a_edge9_Node000002_Node000010"><a xlink:title=" ">
<path fill="none" stroke="#63b8ff" d="M780.69,-174.35C742.34,-162.96 699.03,-150.1 662.99,-139.4"/>
<polygon fill="#63b8ff" stroke="#63b8ff" points="779.33,-177.59 789.91,-177.08 781.32,-170.88 779.33,-177.59"/>
</a>
</g>
</g>
<!-- Node12 -->
<g id="Node000012" class="node">
<title>Node12</title>
<g id="a_Node000012"><a xlink:href="src_2TimingEndpointController_8hpp.html" target="_top" xlink:title=" ">
<polygon fill="white" stroke="#666666" points="1072.5,-136.38 871.25,-136.38 871.25,-94.62 1072.5,-94.62 1072.5,-136.38"/>
<text text-anchor="start" x="879.25" y="-122.88" font-family="Helvetica,sans-Serif" font-size="10.00">/github/workspace/dev</text>
<text text-anchor="start" x="879.25" y="-111.62" font-family="Helvetica,sans-Serif" font-size="10.00">_area/build/timinglibs</text>
<text text-anchor="middle" x="971.88" y="-100.38" font-family="Helvetica,sans-Serif" font-size="10.00">/codegen/src/TimingEndpointController.hpp</text>
</a>
</g>
</g>
<!-- Node2&#45;&gt;Node12 -->
<g id="edge12_Node000002_Node000012" class="edge">
<title>Node2&#45;&gt;Node12</title>
<g id="a_edge12_Node000002_Node000012"><a xlink:title=" ">
<path fill="none" stroke="#63b8ff" d="M914.66,-170.02C926.72,-158.74 939.78,-146.52 950.38,-136.61"/>
<polygon fill="#63b8ff" stroke="#63b8ff" points="912.54,-167.21 907.63,-176.6 917.33,-172.32 912.54,-167.21"/>
</a>
</g>
</g>
<!-- Node13 -->
<g id="Node000013" class="node">
<title>Node13</title>
<g id="a_Node000013"><a xlink:href="build_2timinglibs_2codegen_2src_2TimingEndpointControllerBase_8cpp.html" target="_top" xlink:title=" ">
<polygon fill="white" stroke="#666666" points="1273.5,-142 1090.25,-142 1090.25,-89 1273.5,-89 1273.5,-142"/>
<text text-anchor="start" x="1098.25" y="-128.5" font-family="Helvetica,sans-Serif" font-size="10.00">/github/workspace/dev</text>
<text text-anchor="start" x="1098.25" y="-117.25" font-family="Helvetica,sans-Serif" font-size="10.00">_area/build/timinglibs</text>
<text text-anchor="start" x="1098.25" y="-106" font-family="Helvetica,sans-Serif" font-size="10.00">/codegen/src/TimingEndpointController</text>
<text text-anchor="middle" x="1181.88" y="-94.75" font-family="Helvetica,sans-Serif" font-size="10.00">Base.cpp</text>
</a>
</g>
</g>
<!-- Node2&#45;&gt;Node13 -->
<g id="edge13_Node000002_Node000013" class="edge">
<title>Node2&#45;&gt;Node13</title>
<g id="a_edge13_Node000002_Node000013"><a xlink:title=" ">
<path fill="none" stroke="#63b8ff" d="M980.4,-174.35C1016.38,-164.02 1056.6,-152.47 1091.58,-142.43"/>
<polygon fill="#63b8ff" stroke="#63b8ff" points="979.48,-170.97 970.83,-177.1 981.41,-177.7 979.48,-170.97"/>
</a>
</g>
</g>
<!-- Node14 -->
<g id="Node000014" class="node">
<title>Node14</title>
<g id="a_Node000014"><a xlink:href="src_2TimingFanoutController_8hpp.html" target="_top" xlink:title=" ">
<polygon fill="white" stroke="#666666" points="1485.75,-136.38 1292,-136.38 1292,-94.62 1485.75,-94.62 1485.75,-136.38"/>
<text text-anchor="start" x="1300" y="-122.88" font-family="Helvetica,sans-Serif" font-size="10.00">/github/workspace/dev</text>
<text text-anchor="start" x="1300" y="-111.62" font-family="Helvetica,sans-Serif" font-size="10.00">_area/build/timinglibs</text>
<text text-anchor="middle" x="1388.88" y="-100.38" font-family="Helvetica,sans-Serif" font-size="10.00">/codegen/src/TimingFanoutController.hpp</text>
</a>
</g>
</g>
<!-- Node2&#45;&gt;Node14 -->
<g id="edge14_Node000002_Node000014" class="edge">
<title>Node2&#45;&gt;Node14</title>
<g id="a_edge14_Node000002_Node000014"><a xlink:title=" ">
<path fill="none" stroke="#63b8ff" d="M982.03,-190.26C1063.91,-179.16 1181.14,-161.94 1282.88,-142 1290.86,-140.43 1299.16,-138.68 1307.43,-136.83"/>
<polygon fill="#63b8ff" stroke="#63b8ff" points="981.66,-186.78 972.22,-191.58 982.59,-193.71 981.66,-186.78"/>
</a>
</g>
</g>
<!-- Node15 -->
<g id="Node000015" class="node">
<title>Node15</title>
<g id="a_Node000015"><a xlink:href="sourcecode_2timinglibs_2src_2TimingEndpointControllerBase_8cpp.html" target="_top" xlink:title=" ">
<polygon fill="white" stroke="#666666" points="2162.88,-47.38 1978.88,-47.38 1978.88,-5.62 2162.88,-5.62 2162.88,-47.38"/>
<text text-anchor="start" x="1986.88" y="-33.88" font-family="Helvetica,sans-Serif" font-size="10.00">/github/workspace/dev</text>
<text text-anchor="start" x="1986.88" y="-22.62" font-family="Helvetica,sans-Serif" font-size="10.00">_area/sourcecode/timinglibs</text>
<text text-anchor="middle" x="2070.88" y="-11.38" font-family="Helvetica,sans-Serif" font-size="10.00">/src/TimingEndpointControllerBase.cpp</text>
</a>
</g>
</g>
<!-- Node2&#45;&gt;Node15 -->
<g id="edge16_Node000002_Node000015" class="edge">
<title>Node2&#45;&gt;Node15</title>
<g id="a_edge16_Node000002_Node000015"><a xlink:title=" ">
<path fill="none" stroke="#63b8ff" d="M982.07,-201.21C1200.35,-195.67 1694.34,-179.15 1760.88,-142 1786.18,-127.87 1774.72,-105.02 1798.88,-89 1852.03,-53.75 1922.52,-38.49 1978.42,-31.99"/>
<polygon fill="#63b8ff" stroke="#63b8ff" points="982.05,-197.71 972.14,-201.46 982.22,-204.71 982.05,-197.71"/>
</a>
</g>
</g>
<!-- Node4 -->
<g id="Node000004" class="node">
<title>Node4</title>
<g id="a_Node000004"><a xlink:href="HSIController_8cpp.html" target="_top" xlink:title=" ">
<polygon fill="white" stroke="#666666" points="133.75,-47.38 0,-47.38 0,-5.62 133.75,-5.62 133.75,-47.38"/>
<text text-anchor="start" x="8" y="-33.88" font-family="Helvetica,sans-Serif" font-size="10.00">/github/workspace/dev</text>
<text text-anchor="start" x="8" y="-22.62" font-family="Helvetica,sans-Serif" font-size="10.00">_area/build/hsilibs/codegen</text>
<text text-anchor="middle" x="66.88" y="-11.38" font-family="Helvetica,sans-Serif" font-size="10.00">/src/HSIController.cpp</text>
</a>
</g>
</g>
<!-- Node3&#45;&gt;Node4 -->
<g id="edge3_Node000003_Node000004" class="edge">
<title>Node3&#45;&gt;Node4</title>
<g id="a_edge3_Node000003_Node000004"><a xlink:title=" ">
<path fill="none" stroke="#63b8ff" d="M175.94,-88.72C152.7,-75.67 124.89,-60.06 103.17,-47.87"/>
<polygon fill="#63b8ff" stroke="#63b8ff" points="174.17,-91.74 184.61,-93.58 177.6,-85.63 174.17,-91.74"/>
</a>
</g>
</g>
<!-- Node5 -->
<g id="Node000005" class="node">
<title>Node5</title>
<g id="a_Node000005"><a xlink:href="dump__dunedaq____hsilibs____dal_8cpp.html" target="_top" xlink:title=" ">
<polygon fill="white" stroke="#666666" points="291.75,-53 152,-53 152,0 291.75,0 291.75,-53"/>
<text text-anchor="start" x="160" y="-39.5" font-family="Helvetica,sans-Serif" font-size="10.00">/github/workspace/dev</text>
<text text-anchor="start" x="160" y="-28.25" font-family="Helvetica,sans-Serif" font-size="10.00">_area/build/hsilibs/codegen</text>
<text text-anchor="start" x="160" y="-17" font-family="Helvetica,sans-Serif" font-size="10.00">/src/dump_dunedaq__hsilibs</text>
<text text-anchor="middle" x="221.88" y="-5.75" font-family="Helvetica,sans-Serif" font-size="10.00">__dal.cpp</text>
</a>
</g>
</g>
<!-- Node3&#45;&gt;Node5 -->
<g id="edge4_Node000003_Node000005" class="edge">
<title>Node3&#45;&gt;Node5</title>
<g id="a_edge4_Node000003_Node000005"><a xlink:title=" ">
<path fill="none" stroke="#63b8ff" d="M221.88,-82.97C221.88,-73.19 221.88,-62.53 221.88,-53.19"/>
<polygon fill="#63b8ff" stroke="#63b8ff" points="218.38,-82.81 221.88,-92.81 225.38,-82.81 218.38,-82.81"/>
</a>
</g>
</g>
<!-- Node8 -->
<g id="Node000008" class="node">
<title>Node8</title>
<g id="a_Node000008"><a xlink:href="TimingEndpointController_8cpp.html" target="_top" xlink:title=" ">
<polygon fill="white" stroke="#666666" points="511.5,-47.38 310.25,-47.38 310.25,-5.62 511.5,-5.62 511.5,-47.38"/>
<text text-anchor="start" x="318.25" y="-33.88" font-family="Helvetica,sans-Serif" font-size="10.00">/github/workspace/dev</text>
<text text-anchor="start" x="318.25" y="-22.62" font-family="Helvetica,sans-Serif" font-size="10.00">_area/build/timinglibs</text>
<text text-anchor="middle" x="410.88" y="-11.38" font-family="Helvetica,sans-Serif" font-size="10.00">/codegen/src/TimingEndpointController.cpp</text>
</a>
</g>
</g>
<!-- Node7&#45;&gt;Node8 -->
<g id="edge7_Node000007_Node000008" class="edge">
<title>Node7&#45;&gt;Node8</title>
<g id="a_edge7_Node000007_Node000008"><a xlink:title=" ">
<path fill="none" stroke="#63b8ff" d="M410.88,-77.63C410.88,-67.38 410.88,-56.62 410.88,-47.71"/>
<polygon fill="#63b8ff" stroke="#63b8ff" points="407.38,-77.35 410.88,-87.35 414.38,-77.35 407.38,-77.35"/>
</a>
</g>
</g>
<!-- Node7&#45;&gt;Node9 -->
<g id="edge8_Node000007_Node000009" class="edge">
<title>Node7&#45;&gt;Node9</title>
<g id="a_edge8_Node000007_Node000009"><a xlink:title=" ">
<path fill="none" stroke="#63b8ff" d="M502.87,-88.57C717.03,-49.11 961.74,-34.87 1079.95,-29.91"/>
<polygon fill="#63b8ff" stroke="#63b8ff" points="502.4,-85.09 493.22,-90.37 503.69,-91.97 502.4,-85.09"/>
</a>
</g>
</g>
<!-- Node10&#45;&gt;Node9 -->
<g id="edge11_Node000010_Node000009" class="edge">
<title>Node10&#45;&gt;Node9</title>
<g id="a_edge11_Node000010_Node000009"><a xlink:title=" ">
<path fill="none" stroke="#63b8ff" d="M673.8,-89.64C674.83,-89.42 675.86,-89.21 676.88,-89 818.56,-60.11 986.97,-42.06 1080.08,-33.47"/>
<polygon fill="#63b8ff" stroke="#63b8ff" points="673.1,-86.21 664.12,-91.82 674.64,-93.04 673.1,-86.21"/>
</a>
</g>
</g>
<!-- Node11 -->
<g id="Node000011" class="node">
<title>Node11</title>
<g id="a_Node000011"><a xlink:href="TimingFanoutController_8cpp.html" target="_top" xlink:title=" ">
<polygon fill="white" stroke="#666666" points="723.75,-47.38 530,-47.38 530,-5.62 723.75,-5.62 723.75,-47.38"/>
<text text-anchor="start" x="538" y="-33.88" font-family="Helvetica,sans-Serif" font-size="10.00">/github/workspace/dev</text>
<text text-anchor="start" x="538" y="-22.62" font-family="Helvetica,sans-Serif" font-size="10.00">_area/build/timinglibs</text>
<text text-anchor="middle" x="626.88" y="-11.38" font-family="Helvetica,sans-Serif" font-size="10.00">/codegen/src/TimingFanoutController.cpp</text>
</a>
</g>
</g>
<!-- Node10&#45;&gt;Node11 -->
<g id="edge10_Node000010_Node000011" class="edge">
<title>Node10&#45;&gt;Node11</title>
<g id="a_edge10_Node000010_Node000011"><a xlink:title=" ">
<path fill="none" stroke="#63b8ff" d="M602.78,-78.62C607.75,-68.07 613.02,-56.91 617.35,-47.71"/>
<polygon fill="#63b8ff" stroke="#63b8ff" points="599.7,-76.96 598.6,-87.5 606.03,-79.94 599.7,-76.96"/>
</a>
</g>
</g>
<!-- Node16&#45;&gt;Node9 -->
<g id="edge23_Node000016_Node000009" class="edge">
<title>Node16&#45;&gt;Node9</title>
<g id="a_edge23_Node000016_Node000009"><a xlink:title=" ">
<path fill="none" stroke="#63b8ff" d="M1610.12,-171.57C1596.67,-162.76 1582.75,-152.67 1570.88,-142 1548.31,-121.73 1554.12,-104.22 1527.88,-89 1477.1,-59.56 1316.32,-41.43 1221.92,-33.04"/>
<polygon fill="#63b8ff" stroke="#63b8ff" points="1608.22,-174.51 1618.53,-176.93 1611.98,-168.61 1608.22,-174.51"/>
</a>
</g>
</g>
<!-- Node17 -->
<g id="Node000017" class="node">
<title>Node17</title>
<g id="a_Node000017"><a xlink:href="include_2timinglibs_2dal_2TimingMasterControllerPDII_8hpp.html" target="_top" xlink:title=" ">
<polygon fill="white" stroke="#666666" points="1752.25,-142 1579.5,-142 1579.5,-89 1752.25,-89 1752.25,-142"/>
<text text-anchor="start" x="1587.5" y="-128.5" font-family="Helvetica,sans-Serif" font-size="10.00">/github/workspace/dev</text>
<text text-anchor="start" x="1587.5" y="-117.25" font-family="Helvetica,sans-Serif" font-size="10.00">_area/build/timinglibs</text>
<text text-anchor="start" x="1587.5" y="-106" font-family="Helvetica,sans-Serif" font-size="10.00">/codegen/include/timinglibs</text>
<text text-anchor="middle" x="1665.88" y="-94.75" font-family="Helvetica,sans-Serif" font-size="10.00">/dal/TimingMasterControllerPDII.hpp</text>
</a>
</g>
</g>
<!-- Node16&#45;&gt;Node17 -->
<g id="edge18_Node000016_Node000017" class="edge">
<title>Node16&#45;&gt;Node17</title>
<g id="a_edge18_Node000016_Node000017"><a xlink:title=" ">
<path fill="none" stroke="#63b8ff" d="M1665.88,-166.61C1665.88,-158.41 1665.88,-149.89 1665.88,-142.25"/>
<polygon fill="#63b8ff" stroke="#63b8ff" points="1662.38,-166.35 1665.88,-176.35 1669.38,-166.35 1662.38,-166.35"/>
</a>
</g>
</g>
<!-- Node19 -->
<g id="Node000019" class="node">
<title>Node19</title>
<g id="a_Node000019"><a xlink:href="build_2timinglibs_2codegen_2src_2TimingMasterControllerBase_8cpp.html" target="_top" xlink:title=" ">
<polygon fill="white" stroke="#666666" points="1983.75,-142 1808,-142 1808,-89 1983.75,-89 1983.75,-142"/>
<text text-anchor="start" x="1816" y="-128.5" font-family="Helvetica,sans-Serif" font-size="10.00">/github/workspace/dev</text>
<text text-anchor="start" x="1816" y="-117.25" font-family="Helvetica,sans-Serif" font-size="10.00">_area/build/timinglibs</text>
<text text-anchor="start" x="1816" y="-106" font-family="Helvetica,sans-Serif" font-size="10.00">/codegen/src/TimingMasterController</text>
<text text-anchor="middle" x="1895.88" y="-94.75" font-family="Helvetica,sans-Serif" font-size="10.00">Base.cpp</text>
</a>
</g>
</g>
<!-- Node16&#45;&gt;Node19 -->
<g id="edge21_Node000016_Node000019" class="edge">
<title>Node16&#45;&gt;Node19</title>
<g id="a_edge21_Node000016_Node000019"><a xlink:title=" ">
<path fill="none" stroke="#63b8ff" d="M1745.09,-173.54C1771.91,-163.39 1801.62,-152.15 1827.53,-142.35"/>
<polygon fill="#63b8ff" stroke="#63b8ff" points="1744.1,-170.17 1735.99,-176.98 1746.58,-176.72 1744.1,-170.17"/>
</a>
</g>
</g>
<!-- Node20 -->
<g id="Node000020" class="node">
<title>Node20</title>
<g id="a_Node000020"><a xlink:href="src_2TimingMasterControllerPDII_8hpp.html" target="_top" xlink:title=" ">
<polygon fill="white" stroke="#666666" points="2177.75,-142 2002,-142 2002,-89 2177.75,-89 2177.75,-142"/>
<text text-anchor="start" x="2010" y="-128.5" font-family="Helvetica,sans-Serif" font-size="10.00">/github/workspace/dev</text>
<text text-anchor="start" x="2010" y="-117.25" font-family="Helvetica,sans-Serif" font-size="10.00">_area/build/timinglibs</text>
<text text-anchor="start" x="2010" y="-106" font-family="Helvetica,sans-Serif" font-size="10.00">/codegen/src/TimingMasterController</text>
<text text-anchor="middle" x="2089.88" y="-94.75" font-family="Helvetica,sans-Serif" font-size="10.00">PDII.hpp</text>
</a>
</g>
</g>
<!-- Node16&#45;&gt;Node20 -->
<g id="edge22_Node000016_Node000020" class="edge">
<title>Node16&#45;&gt;Node20</title>
<g id="a_edge22_Node000016_Node000020"><a xlink:title=" ">
<path fill="none" stroke="#63b8ff" d="M1765.08,-177.64C1866.11,-157.22 1895.06,-162.46 1992.88,-142 1995.77,-141.39 1998.71,-140.76 2001.68,-140.09"/>
<polygon fill="#63b8ff" stroke="#63b8ff" points="1764.64,-174.16 1755.55,-179.6 1766.06,-181.01 1764.64,-174.16"/>
</a>
</g>
</g>
<!-- Node17&#45;&gt;Node9 -->
<g id="edge20_Node000017_Node000009" class="edge">
<title>Node17&#45;&gt;Node9</title>
<g id="a_edge20_Node000017_Node000009"><a xlink:title=" ">
<path fill="none" stroke="#63b8ff" d="M1567.9,-89.41C1567.22,-89.27 1566.55,-89.14 1565.88,-89 1445.91,-64.88 1304.67,-45.93 1221.75,-35.76"/>
<polygon fill="#63b8ff" stroke="#63b8ff" points="1567.01,-92.8 1577.52,-91.46 1568.47,-85.95 1567.01,-92.8"/>
</a>
</g>
</g>
<!-- Node18 -->
<g id="Node000018" class="node">
<title>Node18</title>
<g id="a_Node000018"><a xlink:href="TimingMasterControllerPDII_8cpp.html" target="_top" xlink:title=" ">
<polygon fill="white" stroke="#666666" points="1753.75,-53 1578,-53 1578,0 1753.75,0 1753.75,-53"/>
<text text-anchor="start" x="1586" y="-39.5" font-family="Helvetica,sans-Serif" font-size="10.00">/github/workspace/dev</text>
<text text-anchor="start" x="1586" y="-28.25" font-family="Helvetica,sans-Serif" font-size="10.00">_area/build/timinglibs</text>
<text text-anchor="start" x="1586" y="-17" font-family="Helvetica,sans-Serif" font-size="10.00">/codegen/src/TimingMasterController</text>
<text text-anchor="middle" x="1665.88" y="-5.75" font-family="Helvetica,sans-Serif" font-size="10.00">PDII.cpp</text>
</a>
</g>
</g>
<!-- Node17&#45;&gt;Node18 -->
<g id="edge19_Node000017_Node000018" class="edge">
<title>Node17&#45;&gt;Node18</title>
<g id="a_edge19_Node000017_Node000018"><a xlink:title=" ">
<path fill="none" stroke="#63b8ff" d="M1665.88,-77.61C1665.88,-69.41 1665.88,-60.89 1665.88,-53.25"/>
<polygon fill="#63b8ff" stroke="#63b8ff" points="1662.38,-77.35 1665.88,-87.35 1669.38,-77.35 1662.38,-77.35"/>
</a>
</g>
</g>
<!-- Node25 -->
<g id="Node000025" class="node">
<title>Node25</title>
<g id="a_Node000025"><a xlink:href="sourcecode_2timinglibs_2include_2timinglibs_2TimingEndpointControllerBase_8hpp.html" target="_top" xlink:title=" ">
<polygon fill="white" stroke="#666666" points="2359.75,-142 2196,-142 2196,-89 2359.75,-89 2359.75,-142"/>
<text text-anchor="start" x="2204" y="-128.5" font-family="Helvetica,sans-Serif" font-size="10.00">/github/workspace/dev</text>
<text text-anchor="start" x="2204" y="-117.25" font-family="Helvetica,sans-Serif" font-size="10.00">_area/sourcecode/timinglibs</text>
<text text-anchor="start" x="2204" y="-106" font-family="Helvetica,sans-Serif" font-size="10.00">/include/timinglibs/TimingEndpoint</text>
<text text-anchor="middle" x="2277.88" y="-94.75" font-family="Helvetica,sans-Serif" font-size="10.00">ControllerBase.hpp</text>
</a>
</g>
</g>
<!-- Node24&#45;&gt;Node25 -->
<g id="edge29_Node000024_Node000025" class="edge">
<title>Node24&#45;&gt;Node25</title>
<g id="a_edge29_Node000024_Node000025"><a xlink:title=" ">
<path fill="none" stroke="#63b8ff" d="M2396.19,-178.14C2374.59,-166.89 2349.21,-153.66 2327.5,-142.35"/>
<polygon fill="#63b8ff" stroke="#63b8ff" points="2394.31,-181.11 2404.8,-182.62 2397.55,-174.9 2394.31,-181.11"/>
</a>
</g>
</g>
<!-- Node26 -->
<g id="Node000026" class="node">
<title>Node26</title>
<g id="a_Node000026"><a xlink:href="sourcecode_2timinglibs_2src_2TimingController_8cpp.html" target="_top" xlink:title=" ">
<polygon fill="white" stroke="#666666" points="2515.62,-136.38 2378.12,-136.38 2378.12,-94.62 2515.62,-94.62 2515.62,-136.38"/>
<text text-anchor="start" x="2386.12" y="-122.88" font-family="Helvetica,sans-Serif" font-size="10.00">/github/workspace/dev</text>
<text text-anchor="start" x="2386.12" y="-111.62" font-family="Helvetica,sans-Serif" font-size="10.00">_area/sourcecode/timinglibs</text>
<text text-anchor="middle" x="2446.88" y="-100.38" font-family="Helvetica,sans-Serif" font-size="10.00">/src/TimingController.cpp</text>
</a>
</g>
</g>
<!-- Node24&#45;&gt;Node26 -->
<g id="edge31_Node000024_Node000026" class="edge">
<title>Node24&#45;&gt;Node26</title>
<g id="a_edge31_Node000024_Node000026"><a xlink:title=" ">
<path fill="none" stroke="#63b8ff" d="M2445.6,-172.14C2445.87,-160.4 2446.17,-147.37 2446.41,-136.87"/>
<polygon fill="#63b8ff" stroke="#63b8ff" points="2442.1,-171.73 2445.37,-181.81 2449.1,-171.89 2442.1,-171.73"/>
</a>
</g>
</g>
<!-- Node27 -->
<g id="Node000027" class="node">
<title>Node27</title>
<g id="a_Node000027"><a xlink:href="sourcecode_2timinglibs_2src_2TimingMasterControllerBase_8hpp.html" target="_top" xlink:title=" ">
<polygon fill="white" stroke="#666666" points="2710.12,-136.38 2533.62,-136.38 2533.62,-94.62 2710.12,-94.62 2710.12,-136.38"/>
<text text-anchor="start" x="2541.62" y="-122.88" font-family="Helvetica,sans-Serif" font-size="10.00">/github/workspace/dev</text>
<text text-anchor="start" x="2541.62" y="-111.62" font-family="Helvetica,sans-Serif" font-size="10.00">_area/sourcecode/timinglibs</text>
<text text-anchor="middle" x="2621.88" y="-100.38" font-family="Helvetica,sans-Serif" font-size="10.00">/src/TimingMasterControllerBase.hpp</text>
</a>
</g>
</g>
<!-- Node24&#45;&gt;Node27 -->
<g id="edge32_Node000024_Node000027" class="edge">
<title>Node24&#45;&gt;Node27</title>
<g id="a_edge32_Node000024_Node000027"><a xlink:title=" ">
<path fill="none" stroke="#63b8ff" d="M2496.26,-178.24C2523.01,-165.09 2555.29,-149.23 2580.43,-136.87"/>
<polygon fill="#63b8ff" stroke="#63b8ff" points="2494.72,-175.1 2487.29,-182.65 2497.8,-181.38 2494.72,-175.1"/>
</a>
</g>
</g>
<!-- Node25&#45;&gt;Node15 -->
<g id="edge30_Node000025_Node000015" class="edge">
<title>Node25&#45;&gt;Node15</title>
<g id="a_edge30_Node000025_Node000015"><a xlink:title=" ">
<path fill="none" stroke="#63b8ff" d="M2205.69,-84.16C2177.09,-72.14 2144.96,-58.64 2119.25,-47.83"/>
<polygon fill="#63b8ff" stroke="#63b8ff" points="2204.08,-87.28 2214.65,-87.93 2206.79,-80.83 2204.08,-87.28"/>
</a>
</g>
</g>
<!-- Node28 -->
<g id="Node000028" class="node">
<title>Node28</title>
<g id="a_Node000028"><a xlink:href="sourcecode_2timinglibs_2src_2TimingMasterControllerBase_8cpp.html" target="_top" xlink:title=" ">
<polygon fill="white" stroke="#666666" points="2710.12,-47.38 2533.62,-47.38 2533.62,-5.62 2710.12,-5.62 2710.12,-47.38"/>
<text text-anchor="start" x="2541.62" y="-33.88" font-family="Helvetica,sans-Serif" font-size="10.00">/github/workspace/dev</text>
<text text-anchor="start" x="2541.62" y="-22.62" font-family="Helvetica,sans-Serif" font-size="10.00">_area/sourcecode/timinglibs</text>
<text text-anchor="middle" x="2621.88" y="-11.38" font-family="Helvetica,sans-Serif" font-size="10.00">/src/TimingMasterControllerBase.cpp</text>
</a>
</g>
</g>
<!-- Node27&#45;&gt;Node28 -->
<g id="edge33_Node000027_Node000028" class="edge">
<title>Node27&#45;&gt;Node28</title>
<g id="a_edge33_Node000027_Node000028"><a xlink:title=" ">
<path fill="none" stroke="#63b8ff" d="M2621.88,-83.14C2621.88,-71.4 2621.88,-58.37 2621.88,-47.87"/>
<polygon fill="#63b8ff" stroke="#63b8ff" points="2618.38,-82.81 2621.88,-92.81 2625.38,-82.81 2618.38,-82.81"/>
</a>
</g>
</g>
</g>
</svg>
