<?xml version="1.0" encoding="UTF-8" standalone="no"?>
<!DOCTYPE svg PUBLIC "-//W3C//DTD SVG 1.1//EN"
 "http://www.w3.org/Graphics/SVG/1.1/DTD/svg11.dtd">
<!-- Generated by graphviz version 9.0.0 (20230911.1827)
 -->
<!-- Title: /github/workspace/dev_area/build/appmodel/codegen/include/appmodel/AVXFrugalPedestalSubtractProcessor.hpp Pages: 1 -->
<svg width="618pt" height="239pt"
 viewBox="0.00 0.00 617.88 239.00" xmlns="http://www.w3.org/2000/svg" xmlns:xlink="http://www.w3.org/1999/xlink">
<g id="graph0" class="graph" transform="scale(1 1) rotate(0) translate(4 235)">
<title>/github/workspace/dev_area/build/appmodel/codegen/include/appmodel/AVXFrugalPedestalSubtractProcessor.hpp</title>
<!-- Node1 -->
<g id="Node000001" class="node">
<title>Node1</title>
<g id="a_Node000001"><a xlink:title=" ">
<polygon fill="#999999" stroke="#666666" points="400.25,-231 196.75,-231 196.75,-178 400.25,-178 400.25,-231"/>
<text text-anchor="start" x="204.75" y="-217.5" font-family="Helvetica,sans-Serif" font-size="10.00">/github/workspace/dev</text>
<text text-anchor="start" x="204.75" y="-206.25" font-family="Helvetica,sans-Serif" font-size="10.00">_area/build/appmodel</text>
<text text-anchor="start" x="204.75" y="-195" font-family="Helvetica,sans-Serif" font-size="10.00">/codegen/include/appmodel</text>
<text text-anchor="middle" x="298.5" y="-183.75" font-family="Helvetica,sans-Serif" font-size="10.00">/AVXFrugalPedestalSubtractProcessor.hpp</text>
</a>
</g>
</g>
<!-- Node2 -->
<g id="Node000002" class="node">
<title>Node2</title>
<g id="a_Node000002"><a xlink:href="build_2appmodel_2codegen_2include_2appmodel_2AVXFixedPedestalSubtractProcessor_8hpp.html" target="_top" xlink:title=" ">
<polygon fill="white" stroke="#666666" points="217.38,-142 17.62,-142 17.62,-89 217.38,-89 217.38,-142"/>
<text text-anchor="start" x="25.62" y="-128.5" font-family="Helvetica,sans-Serif" font-size="10.00">/github/workspace/dev</text>
<text text-anchor="start" x="25.62" y="-117.25" font-family="Helvetica,sans-Serif" font-size="10.00">_area/build/appmodel</text>
<text text-anchor="start" x="25.62" y="-106" font-family="Helvetica,sans-Serif" font-size="10.00">/codegen/include/appmodel</text>
<text text-anchor="middle" x="117.5" y="-94.75" font-family="Helvetica,sans-Serif" font-size="10.00">/AVXFixedPedestalSubtractProcessor.hpp</text>
</a>
</g>
</g>
<!-- Node1&#45;&gt;Node2 -->
<g id="edge1_Node000001_Node000002" class="edge">
<title>Node1&#45;&gt;Node2</title>
<g id="a_edge1_Node000001_Node000002"><a xlink:title=" ">
<path fill="none" stroke="#63b8ff" d="M234.44,-172.71C213.83,-162.8 191.22,-151.94 171.42,-142.42"/>
<polygon fill="#63b8ff" stroke="#63b8ff" points="232.79,-175.8 243.32,-176.98 235.82,-169.49 232.79,-175.8"/>
</a>
</g>
</g>
<!-- Node4 -->
<g id="Node000004" class="node">
<title>Node4</title>
<g id="a_Node000004"><a xlink:href="dump__dunedaq____appmodel_8cpp.html" target="_top" xlink:title=" ">
<polygon fill="white" stroke="#666666" points="316.12,-53 174.88,-53 174.88,0 316.12,0 316.12,-53"/>
<text text-anchor="start" x="182.88" y="-39.5" font-family="Helvetica,sans-Serif" font-size="10.00">/github/workspace/dev</text>
<text text-anchor="start" x="182.88" y="-28.25" font-family="Helvetica,sans-Serif" font-size="10.00">_area/build/appmodel</text>
<text text-anchor="start" x="182.88" y="-17" font-family="Helvetica,sans-Serif" font-size="10.00">/codegen/src/dump_dunedaq</text>
<text text-anchor="middle" x="245.5" y="-5.75" font-family="Helvetica,sans-Serif" font-size="10.00">__appmodel.cpp</text>
</a>
</g>
</g>
<!-- Node1&#45;&gt;Node4 -->
<g id="edge6_Node000001_Node000004" class="edge">
<title>Node1&#45;&gt;Node4</title>
<g id="a_edge6_Node000001_Node000004"><a xlink:title=" ">
<path fill="none" stroke="#63b8ff" d="M276.83,-167.7C272.55,-159.48 268.48,-150.62 265.5,-142 255.28,-112.44 250.11,-76.7 247.61,-53.1"/>
<polygon fill="#63b8ff" stroke="#63b8ff" points="273.7,-169.27 281.56,-176.38 279.84,-165.92 273.7,-169.27"/>
</a>
</g>
</g>
<!-- Node5 -->
<g id="Node000005" class="node">
<title>Node5</title>
<g id="a_Node000005"><a xlink:href="build_2appmodel_2codegen_2src_2AVXFixedPedestalSubtractProcessor_8hpp.html" target="_top" xlink:title=" ">
<polygon fill="white" stroke="#666666" points="431,-142 274,-142 274,-89 431,-89 431,-142"/>
<text text-anchor="start" x="282" y="-128.5" font-family="Helvetica,sans-Serif" font-size="10.00">/github/workspace/dev</text>
<text text-anchor="start" x="282" y="-117.25" font-family="Helvetica,sans-Serif" font-size="10.00">_area/build/appmodel</text>
<text text-anchor="start" x="282" y="-106" font-family="Helvetica,sans-Serif" font-size="10.00">/codegen/src/AVXFixedPedestal</text>
<text text-anchor="middle" x="352.5" y="-94.75" font-family="Helvetica,sans-Serif" font-size="10.00">SubtractProcessor.hpp</text>
</a>
</g>
</g>
<!-- Node1&#45;&gt;Node5 -->
<g id="edge4_Node000001_Node000005" class="edge">
<title>Node1&#45;&gt;Node5</title>
<g id="a_edge4_Node000001_Node000005"><a xlink:title=" ">
<path fill="none" stroke="#63b8ff" d="M320.35,-168.3C325.75,-159.59 331.45,-150.42 336.52,-142.25"/>
<polygon fill="#63b8ff" stroke="#63b8ff" points="317.51,-166.24 315.21,-176.58 323.46,-169.93 317.51,-166.24"/>
</a>
</g>
</g>
<!-- Node6 -->
<g id="Node000006" class="node">
<title>Node6</title>
<g id="a_Node000006"><a xlink:href="build_2appmodel_2codegen_2src_2AVXFrugalPedestalSubtractProcessor_8cpp.html" target="_top" xlink:title=" ">
<polygon fill="white" stroke="#666666" points="609.88,-142 449.12,-142 449.12,-89 609.88,-89 609.88,-142"/>
<text text-anchor="start" x="457.12" y="-128.5" font-family="Helvetica,sans-Serif" font-size="10.00">/github/workspace/dev</text>
<text text-anchor="start" x="457.12" y="-117.25" font-family="Helvetica,sans-Serif" font-size="10.00">_area/build/appmodel</text>
<text text-anchor="start" x="457.12" y="-106" font-family="Helvetica,sans-Serif" font-size="10.00">/codegen/src/AVXFrugalPedestal</text>
<text text-anchor="middle" x="529.5" y="-94.75" font-family="Helvetica,sans-Serif" font-size="10.00">SubtractProcessor.cpp</text>
</a>
</g>
</g>
<!-- Node1&#45;&gt;Node6 -->
<g id="edge5_Node000001_Node000006" class="edge">
<title>Node1&#45;&gt;Node6</title>
<g id="a_edge5_Node000001_Node000006"><a xlink:title=" ">
<path fill="none" stroke="#63b8ff" d="M378.06,-173.54C405,-163.39 434.84,-152.15 460.86,-142.35"/>
<polygon fill="#63b8ff" stroke="#63b8ff" points="377.04,-170.18 368.91,-176.98 379.5,-176.73 377.04,-170.18"/>
</a>
</g>
</g>
<!-- Node3 -->
<g id="Node000003" class="node">
<title>Node3</title>
<g id="a_Node000003"><a xlink:href="build_2appmodel_2codegen_2src_2AVXFixedPedestalSubtractProcessor_8cpp.html" target="_top" xlink:title=" ">
<polygon fill="white" stroke="#666666" points="157,-53 0,-53 0,0 157,0 157,-53"/>
<text text-anchor="start" x="8" y="-39.5" font-family="Helvetica,sans-Serif" font-size="10.00">/github/workspace/dev</text>
<text text-anchor="start" x="8" y="-28.25" font-family="Helvetica,sans-Serif" font-size="10.00">_area/build/appmodel</text>
<text text-anchor="start" x="8" y="-17" font-family="Helvetica,sans-Serif" font-size="10.00">/codegen/src/AVXFixedPedestal</text>
<text text-anchor="middle" x="78.5" y="-5.75" font-family="Helvetica,sans-Serif" font-size="10.00">SubtractProcessor.cpp</text>
</a>
</g>
</g>
<!-- Node2&#45;&gt;Node3 -->
<g id="edge2_Node000002_Node000003" class="edge">
<title>Node2&#45;&gt;Node3</title>
<g id="a_edge2_Node000002_Node000003"><a xlink:title=" ">
<path fill="none" stroke="#63b8ff" d="M101.34,-78.46C97.55,-70 93.59,-61.15 90.04,-53.25"/>
<polygon fill="#63b8ff" stroke="#63b8ff" points="98.11,-79.79 105.39,-87.49 104.49,-76.93 98.11,-79.79"/>
</a>
</g>
</g>
<!-- Node2&#45;&gt;Node4 -->
<g id="edge3_Node000002_Node000004" class="edge">
<title>Node2&#45;&gt;Node4</title>
<g id="a_edge3_Node000002_Node000004"><a xlink:title=" ">
<path fill="none" stroke="#63b8ff" d="M165.01,-82.21C178.98,-72.71 194.07,-62.46 207.37,-53.42"/>
<polygon fill="#63b8ff" stroke="#63b8ff" points="163.11,-79.27 156.81,-87.78 167.05,-85.06 163.11,-79.27"/>
</a>
</g>
</g>
</g>
</svg>
