<?xml version="1.0" encoding="UTF-8" standalone="no"?>
<!DOCTYPE svg PUBLIC "-//W3C//DTD SVG 1.1//EN"
 "http://www.w3.org/Graphics/SVG/1.1/DTD/svg11.dtd">
<!-- Generated by graphviz version 9.0.0 (20230911.1827)
 -->
<!-- Title: /github/workspace/dev_area/sourcecode/dbe/include/dbe/BuildingBlockEditors.hpp Pages: 1 -->
<svg width="918pt" height="283pt"
 viewBox="0.00 0.00 917.50 283.00" xmlns="http://www.w3.org/2000/svg" xmlns:xlink="http://www.w3.org/1999/xlink">
<g id="graph0" class="graph" transform="scale(1 1) rotate(0) translate(4 279)">
<title>/github/workspace/dev_area/sourcecode/dbe/include/dbe/BuildingBlockEditors.hpp</title>
<!-- Node1 -->
<g id="Node000001" class="node">
<title>Node1</title>
<g id="a_Node000001"><a xlink:title=" ">
<polygon fill="#999999" stroke="#666666" points="659.12,-275 480.38,-275 480.38,-233.25 659.12,-233.25 659.12,-275"/>
<text text-anchor="start" x="488.38" y="-261.5" font-family="Helvetica,sans-Serif" font-size="10.00">/github/workspace/dev</text>
<text text-anchor="start" x="488.38" y="-250.25" font-family="Helvetica,sans-Serif" font-size="10.00">_area/sourcecode/dbe</text>
<text text-anchor="middle" x="569.75" y="-239" font-family="Helvetica,sans-Serif" font-size="10.00">/include/dbe/BuildingBlockEditors.hpp</text>
</a>
</g>
</g>
<!-- Node2 -->
<g id="Node000002" class="node">
<title>Node2</title>
<g id="a_Node000002"><a xlink:href="ObjectEditor_8hpp.html" target="_top" xlink:title=" ">
<polygon fill="white" stroke="#666666" points="592.12,-197.25 449.38,-197.25 449.38,-155.5 592.12,-155.5 592.12,-197.25"/>
<text text-anchor="start" x="457.38" y="-183.75" font-family="Helvetica,sans-Serif" font-size="10.00">/github/workspace/dev</text>
<text text-anchor="start" x="457.38" y="-172.5" font-family="Helvetica,sans-Serif" font-size="10.00">_area/sourcecode/dbe</text>
<text text-anchor="middle" x="520.75" y="-161.25" font-family="Helvetica,sans-Serif" font-size="10.00">/include/dbe/ObjectEditor.hpp</text>
</a>
</g>
</g>
<!-- Node1&#45;&gt;Node2 -->
<g id="edge1_Node000001_Node000002" class="edge">
<title>Node1&#45;&gt;Node2</title>
<g id="a_edge1_Node000001_Node000002"><a xlink:title=" ">
<path fill="none" stroke="#63b8ff" d="M550.38,-223.18C544.86,-214.64 538.97,-205.55 533.92,-197.73"/>
<polygon fill="#63b8ff" stroke="#63b8ff" points="547.43,-225.06 555.8,-231.55 553.3,-221.26 547.43,-225.06"/>
</a>
</g>
</g>
<!-- Node5 -->
<g id="Node000005" class="node">
<title>Node5</title>
<g id="a_Node000005"><a xlink:href="MainWindow_8cpp.html" target="_top" xlink:title=" ">
<polygon fill="white" stroke="#666666" points="143.5,-41.75 0,-41.75 0,0 143.5,0 143.5,-41.75"/>
<text text-anchor="start" x="8" y="-28.25" font-family="Helvetica,sans-Serif" font-size="10.00">/github/workspace/dev</text>
<text text-anchor="start" x="8" y="-17" font-family="Helvetica,sans-Serif" font-size="10.00">_area/sourcecode/dbe</text>
<text text-anchor="middle" x="71.75" y="-5.75" font-family="Helvetica,sans-Serif" font-size="10.00">/src/internal/MainWindow.cpp</text>
</a>
</g>
</g>
<!-- Node1&#45;&gt;Node5 -->
<g id="edge13_Node000001_Node000005" class="edge">
<title>Node1&#45;&gt;Node5</title>
<g id="a_edge13_Node000001_Node000005"><a xlink:title=" ">
<path fill="none" stroke="#63b8ff" d="M484.27,-229.54C408.15,-206.78 295.03,-168.59 203.75,-119.5 162.58,-97.36 119.99,-63.52 94.69,-42.06"/>
<polygon fill="#63b8ff" stroke="#63b8ff" points="483.19,-232.87 493.77,-232.35 485.18,-226.16 483.19,-232.87"/>
</a>
</g>
</g>
<!-- Node9 -->
<g id="Node000009" class="node">
<title>Node9</title>
<g id="a_Node000009"><a xlink:href="BuildingBlockEditors_8cpp.html" target="_top" xlink:title=" ">
<polygon fill="white" stroke="#666666" points="909.5,-119.5 730,-119.5 730,-77.75 909.5,-77.75 909.5,-119.5"/>
<text text-anchor="start" x="738" y="-106" font-family="Helvetica,sans-Serif" font-size="10.00">/github/workspace/dev</text>
<text text-anchor="start" x="738" y="-94.75" font-family="Helvetica,sans-Serif" font-size="10.00">_area/sourcecode/dbe</text>
<text text-anchor="middle" x="819.75" y="-83.5" font-family="Helvetica,sans-Serif" font-size="10.00">/src/widgets/BuildingBlockEditors.cpp</text>
</a>
</g>
</g>
<!-- Node1&#45;&gt;Node9 -->
<g id="edge15_Node000001_Node000009" class="edge">
<title>Node1&#45;&gt;Node9</title>
<g id="a_edge15_Node000001_Node000009"><a xlink:title=" ">
<path fill="none" stroke="#63b8ff" d="M587.84,-223.26C603.58,-198.14 625.85,-164.86 638.75,-155.5 654.92,-143.77 696.52,-130.59 735.76,-119.98"/>
<polygon fill="#63b8ff" stroke="#63b8ff" points="585.05,-221.13 582.75,-231.47 590.99,-224.81 585.05,-221.13"/>
</a>
</g>
</g>
<!-- Node11 -->
<g id="Node000011" class="node">
<title>Node11</title>
<g id="a_Node000011"><a xlink:href="CustomDelegate_8cpp.html" target="_top" xlink:title=" ">
<polygon fill="white" stroke="#666666" points="814.12,-197.25 647.38,-197.25 647.38,-155.5 814.12,-155.5 814.12,-197.25"/>
<text text-anchor="start" x="655.38" y="-183.75" font-family="Helvetica,sans-Serif" font-size="10.00">/github/workspace/dev</text>
<text text-anchor="start" x="655.38" y="-172.5" font-family="Helvetica,sans-Serif" font-size="10.00">_area/sourcecode/dbe</text>
<text text-anchor="middle" x="730.75" y="-161.25" font-family="Helvetica,sans-Serif" font-size="10.00">/src/structure/CustomDelegate.cpp</text>
</a>
</g>
</g>
<!-- Node1&#45;&gt;Node11 -->
<g id="edge14_Node000001_Node000011" class="edge">
<title>Node1&#45;&gt;Node11</title>
<g id="a_edge14_Node000001_Node000011"><a xlink:title=" ">
<path fill="none" stroke="#63b8ff" d="M623.21,-227.97C644.09,-218.15 667.71,-207.04 687.49,-197.73"/>
<polygon fill="#63b8ff" stroke="#63b8ff" points="621.82,-224.76 614.26,-232.18 624.8,-231.09 621.82,-224.76"/>
</a>
</g>
</g>
<!-- Node3 -->
<g id="Node000003" class="node">
<title>Node3</title>
<g id="a_Node000003"><a xlink:href="ObjectCreator_8hpp.html" target="_top" xlink:title=" ">
<polygon fill="white" stroke="#666666" points="473.5,-119.5 324,-119.5 324,-77.75 473.5,-77.75 473.5,-119.5"/>
<text text-anchor="start" x="332" y="-106" font-family="Helvetica,sans-Serif" font-size="10.00">/github/workspace/dev</text>
<text text-anchor="start" x="332" y="-94.75" font-family="Helvetica,sans-Serif" font-size="10.00">_area/sourcecode/dbe</text>
<text text-anchor="middle" x="398.75" y="-83.5" font-family="Helvetica,sans-Serif" font-size="10.00">/include/dbe/ObjectCreator.hpp</text>
</a>
</g>
</g>
<!-- Node2&#45;&gt;Node3 -->
<g id="edge2_Node000002_Node000003" class="edge">
<title>Node2&#45;&gt;Node3</title>
<g id="a_edge2_Node000002_Node000003"><a xlink:title=" ">
<path fill="none" stroke="#63b8ff" d="M478.28,-149.01C462.95,-139.49 445.9,-128.9 431.53,-119.98"/>
<polygon fill="#63b8ff" stroke="#63b8ff" points="476.43,-151.98 486.77,-154.28 480.12,-146.03 476.43,-151.98"/>
</a>
</g>
</g>
<!-- Node2&#45;&gt;Node5 -->
<g id="edge8_Node000002_Node000005" class="edge">
<title>Node2&#45;&gt;Node5</title>
<g id="a_edge8_Node000002_Node000005"><a xlink:title=" ">
<path fill="none" stroke="#63b8ff" d="M438.11,-155.32C400.21,-145.52 354.88,-132.95 314.75,-119.5 244.92,-96.09 166.16,-63.21 117.73,-42.23"/>
<polygon fill="#63b8ff" stroke="#63b8ff" points="437.09,-158.67 447.64,-157.77 438.82,-151.89 437.09,-158.67"/>
</a>
</g>
</g>
<!-- Node6 -->
<g id="Node000006" class="node">
<title>Node6</title>
<g id="a_Node000006"><a xlink:href="CustomTableView_8cpp.html" target="_top" xlink:title=" ">
<polygon fill="white" stroke="#666666" points="853.88,-41.75 679.62,-41.75 679.62,0 853.88,0 853.88,-41.75"/>
<text text-anchor="start" x="687.62" y="-28.25" font-family="Helvetica,sans-Serif" font-size="10.00">/github/workspace/dev</text>
<text text-anchor="start" x="687.62" y="-17" font-family="Helvetica,sans-Serif" font-size="10.00">_area/sourcecode/dbe</text>
<text text-anchor="middle" x="766.75" y="-5.75" font-family="Helvetica,sans-Serif" font-size="10.00">/src/structure/CustomTableView.cpp</text>
</a>
</g>
</g>
<!-- Node2&#45;&gt;Node6 -->
<g id="edge9_Node000002_Node000006" class="edge">
<title>Node2&#45;&gt;Node6</title>
<g id="a_edge9_Node000002_Node000006"><a xlink:title=" ">
<path fill="none" stroke="#63b8ff" d="M525.4,-143.91C530.2,-122.38 539.78,-94.76 558.75,-77.75 568.25,-69.23 626.75,-53.91 679.3,-41.47"/>
<polygon fill="#63b8ff" stroke="#63b8ff" points="521.98,-143.16 523.49,-153.65 528.85,-144.51 521.98,-143.16"/>
</a>
</g>
</g>
<!-- Node7 -->
<g id="Node000007" class="node">
<title>Node7</title>
<g id="a_Node000007"><a xlink:href="CustomTreeView_8cpp.html" target="_top" xlink:title=" ">
<polygon fill="white" stroke="#666666" points="661.62,-41.75 491.88,-41.75 491.88,0 661.62,0 661.62,-41.75"/>
<text text-anchor="start" x="499.88" y="-28.25" font-family="Helvetica,sans-Serif" font-size="10.00">/github/workspace/dev</text>
<text text-anchor="start" x="499.88" y="-17" font-family="Helvetica,sans-Serif" font-size="10.00">_area/sourcecode/dbe</text>
<text text-anchor="middle" x="576.75" y="-5.75" font-family="Helvetica,sans-Serif" font-size="10.00">/src/structure/CustomTreeView.cpp</text>
</a>
</g>
</g>
<!-- Node2&#45;&gt;Node7 -->
<g id="edge10_Node000002_Node000007" class="edge">
<title>Node2&#45;&gt;Node7</title>
<g id="a_edge10_Node000002_Node000007"><a xlink:title=" ">
<path fill="none" stroke="#63b8ff" d="M517.07,-143.62C516.05,-123.92 517.09,-98.5 525.75,-77.75 531.42,-64.18 541.89,-51.78 551.87,-42.14"/>
<polygon fill="#63b8ff" stroke="#63b8ff" points="513.58,-143.83 517.81,-153.55 520.56,-143.32 513.58,-143.83"/>
</a>
</g>
</g>
<!-- Node2&#45;&gt;Node9 -->
<g id="edge11_Node000002_Node000009" class="edge">
<title>Node2&#45;&gt;Node9</title>
<g id="a_edge11_Node000002_Node000009"><a xlink:title=" ">
<path fill="none" stroke="#63b8ff" d="M603.52,-154.41C645.96,-143.65 697.42,-130.62 739.5,-119.96"/>
<polygon fill="#63b8ff" stroke="#63b8ff" points="602.67,-151.01 593.84,-156.86 604.39,-157.8 602.67,-151.01"/>
</a>
</g>
</g>
<!-- Node10 -->
<g id="Node000010" class="node">
<title>Node10</title>
<g id="a_Node000010"><a xlink:href="ObjectEditor_8cpp.html" target="_top" xlink:title=" ">
<polygon fill="white" stroke="#666666" points="711.5,-119.5 568,-119.5 568,-77.75 711.5,-77.75 711.5,-119.5"/>
<text text-anchor="start" x="576" y="-106" font-family="Helvetica,sans-Serif" font-size="10.00">/github/workspace/dev</text>
<text text-anchor="start" x="576" y="-94.75" font-family="Helvetica,sans-Serif" font-size="10.00">_area/sourcecode/dbe</text>
<text text-anchor="middle" x="639.75" y="-83.5" font-family="Helvetica,sans-Serif" font-size="10.00">/src/widgets/ObjectEditor.cpp</text>
</a>
</g>
</g>
<!-- Node2&#45;&gt;Node10 -->
<g id="edge12_Node000002_Node000010" class="edge">
<title>Node2&#45;&gt;Node10</title>
<g id="a_edge12_Node000002_Node000010"><a xlink:title=" ">
<path fill="none" stroke="#63b8ff" d="M562.18,-149.01C577.12,-139.49 593.76,-128.9 607.77,-119.98"/>
<polygon fill="#63b8ff" stroke="#63b8ff" points="560.47,-145.94 553.92,-154.26 564.23,-151.85 560.47,-145.94"/>
</a>
</g>
</g>
<!-- Node4 -->
<g id="Node000004" class="node">
<title>Node4</title>
<g id="a_Node000004"><a xlink:href="GraphView_8cpp.html" target="_top" xlink:title=" ">
<polygon fill="white" stroke="#666666" points="305.5,-41.75 162,-41.75 162,0 305.5,0 305.5,-41.75"/>
<text text-anchor="start" x="170" y="-28.25" font-family="Helvetica,sans-Serif" font-size="10.00">/github/workspace/dev</text>
<text text-anchor="start" x="170" y="-17" font-family="Helvetica,sans-Serif" font-size="10.00">_area/sourcecode/dbe</text>
<text text-anchor="middle" x="233.75" y="-5.75" font-family="Helvetica,sans-Serif" font-size="10.00">/src/graphical/GraphView.cpp</text>
</a>
</g>
</g>
<!-- Node3&#45;&gt;Node4 -->
<g id="edge3_Node000003_Node000004" class="edge">
<title>Node3&#45;&gt;Node4</title>
<g id="a_edge3_Node000003_Node000004"><a xlink:title=" ">
<path fill="none" stroke="#63b8ff" d="M344.26,-72.61C322.79,-62.75 298.45,-51.58 278.09,-42.23"/>
<polygon fill="#63b8ff" stroke="#63b8ff" points="342.61,-75.7 353.16,-76.69 345.53,-69.34 342.61,-75.7"/>
</a>
</g>
</g>
<!-- Node3&#45;&gt;Node5 -->
<g id="edge4_Node000003_Node000005" class="edge">
<title>Node3&#45;&gt;Node5</title>
<g id="a_edge4_Node000003_Node000005"><a xlink:title=" ">
<path fill="none" stroke="#63b8ff" d="M312.47,-78.41C265.24,-67.8 205.72,-54.26 152.75,-41.75 149.79,-41.05 146.77,-40.33 143.72,-39.6"/>
<polygon fill="#63b8ff" stroke="#63b8ff" points="311.58,-81.8 322.1,-80.57 313.11,-74.97 311.58,-81.8"/>
</a>
</g>
</g>
<!-- Node3&#45;&gt;Node6 -->
<g id="edge5_Node000003_Node000006" class="edge">
<title>Node3&#45;&gt;Node6</title>
<g id="a_edge5_Node000003_Node000006"><a xlink:title=" ">
<path fill="none" stroke="#63b8ff" d="M484.95,-79.95C538.45,-68.98 608.6,-54.57 670.75,-41.75 673.58,-41.17 676.46,-40.57 679.37,-39.97"/>
<polygon fill="#63b8ff" stroke="#63b8ff" points="484.38,-76.5 475.28,-81.94 485.78,-83.36 484.38,-76.5"/>
</a>
</g>
</g>
<!-- Node3&#45;&gt;Node7 -->
<g id="edge6_Node000003_Node000007" class="edge">
<title>Node3&#45;&gt;Node7</title>
<g id="a_edge6_Node000003_Node000007"><a xlink:title=" ">
<path fill="none" stroke="#63b8ff" d="M456.91,-72.88C480.22,-62.95 506.75,-51.66 528.92,-42.23"/>
<polygon fill="#63b8ff" stroke="#63b8ff" points="455.67,-69.6 447.84,-76.73 458.42,-76.04 455.67,-69.6"/>
</a>
</g>
</g>
<!-- Node8 -->
<g id="Node000008" class="node">
<title>Node8</title>
<g id="a_Node000008"><a xlink:href="ObjectCreator_8cpp.html" target="_top" xlink:title=" ">
<polygon fill="white" stroke="#666666" points="473.88,-41.75 323.62,-41.75 323.62,0 473.88,0 473.88,-41.75"/>
<text text-anchor="start" x="331.62" y="-28.25" font-family="Helvetica,sans-Serif" font-size="10.00">/github/workspace/dev</text>
<text text-anchor="start" x="331.62" y="-17" font-family="Helvetica,sans-Serif" font-size="10.00">_area/sourcecode/dbe</text>
<text text-anchor="middle" x="398.75" y="-5.75" font-family="Helvetica,sans-Serif" font-size="10.00">/src/widgets/ObjectCreator.cpp</text>
</a>
</g>
</g>
<!-- Node3&#45;&gt;Node8 -->
<g id="edge7_Node000003_Node000008" class="edge">
<title>Node3&#45;&gt;Node8</title>
<g id="a_edge7_Node000003_Node000008"><a xlink:title=" ">
<path fill="none" stroke="#63b8ff" d="M398.75,-66C398.75,-57.96 398.75,-49.54 398.75,-42.23"/>
<polygon fill="#63b8ff" stroke="#63b8ff" points="395.25,-65.81 398.75,-75.81 402.25,-65.81 395.25,-65.81"/>
</a>
</g>
</g>
</g>
</svg>
