<?xml version="1.0" encoding="UTF-8" standalone="no"?>
<!DOCTYPE svg PUBLIC "-//W3C//DTD SVG 1.1//EN"
 "http://www.w3.org/Graphics/SVG/1.1/DTD/svg11.dtd">
<!-- Generated by graphviz version 9.0.0 (20230911.1827)
 -->
<!-- Title: /github/workspace/dev_area/sourcecode/flxlibs/src/CardControllerWrapper.hpp Pages: 1 -->
<svg width="670pt" height="116pt"
 viewBox="0.00 0.00 670.38 116.25" xmlns="http://www.w3.org/2000/svg" xmlns:xlink="http://www.w3.org/1999/xlink">
<g id="graph0" class="graph" transform="scale(1 1) rotate(0) translate(4 112.25)">
<title>/github/workspace/dev_area/sourcecode/flxlibs/src/CardControllerWrapper.hpp</title>
<!-- Node1 -->
<g id="Node000001" class="node">
<title>Node1</title>
<g id="a_Node000001"><a xlink:title=" ">
<polygon fill="#999999" stroke="#666666" points="502.88,-108.25 351.88,-108.25 351.88,-66.5 502.88,-66.5 502.88,-108.25"/>
<text text-anchor="start" x="359.88" y="-94.75" font-family="Helvetica,sans-Serif" font-size="10.00">/github/workspace/dev</text>
<text text-anchor="start" x="359.88" y="-83.5" font-family="Helvetica,sans-Serif" font-size="10.00">_area/sourcecode/flxlibs</text>
<text text-anchor="middle" x="427.38" y="-72.25" font-family="Helvetica,sans-Serif" font-size="10.00">/src/CardControllerWrapper.hpp</text>
</a>
</g>
</g>
<!-- Node2 -->
<g id="Node000002" class="node">
<title>Node2</title>
<g id="a_Node000002"><a xlink:title=" ">
<polygon fill="#e0e0e0" stroke="#999999" points="118.75,-30.5 0,-30.5 0,0 118.75,0 118.75,-30.5"/>
<text text-anchor="start" x="8" y="-17" font-family="Helvetica,sans-Serif" font-size="10.00">flxlibs/felixcardcontroller</text>
<text text-anchor="middle" x="59.38" y="-5.75" font-family="Helvetica,sans-Serif" font-size="10.00">/Nljs.hpp</text>
</a>
</g>
</g>
<!-- Node1&#45;&gt;Node2 -->
<g id="edge1_Node000001_Node000002" class="edge">
<title>Node1&#45;&gt;Node2</title>
<g id="a_edge1_Node000001_Node000002"><a xlink:title=" ">
<path fill="none" stroke="#63b8ff" d="M351.42,-72.59C293.53,-61.99 211.56,-46.78 130.16,-30.83"/>
<polygon fill="#63b8ff" stroke="#63b8ff" points="131.17,-27.46 120.69,-28.97 129.82,-34.33 131.17,-27.46"/>
</a>
</g>
</g>
<!-- Node3 -->
<g id="Node000003" class="node">
<title>Node3</title>
<g id="a_Node000003"><a xlink:title=" ">
<polygon fill="#e0e0e0" stroke="#999999" points="255.75,-30.5 137,-30.5 137,0 255.75,0 255.75,-30.5"/>
<text text-anchor="start" x="145" y="-17" font-family="Helvetica,sans-Serif" font-size="10.00">flxlibs/felixcardcontroller</text>
<text text-anchor="middle" x="196.38" y="-5.75" font-family="Helvetica,sans-Serif" font-size="10.00">/Structs.hpp</text>
</a>
</g>
</g>
<!-- Node1&#45;&gt;Node3 -->
<g id="edge2_Node000001_Node000003" class="edge">
<title>Node1&#45;&gt;Node3</title>
<g id="a_edge2_Node000001_Node000003"><a xlink:title=" ">
<path fill="none" stroke="#63b8ff" d="M360.56,-66.09C327.42,-56.03 287.74,-43.99 255.69,-34.26"/>
<polygon fill="#63b8ff" stroke="#63b8ff" points="256.73,-30.92 246.15,-31.36 254.7,-37.61 256.73,-30.92"/>
</a>
</g>
</g>
<!-- Node4 -->
<g id="Node000004" class="node">
<title>Node4</title>
<g id="a_Node000004"><a xlink:title=" ">
<polygon fill="#e0e0e0" stroke="#999999" points="361,-24.88 273.75,-24.88 273.75,-5.63 361,-5.63 361,-24.88"/>
<text text-anchor="middle" x="317.38" y="-11.38" font-family="Helvetica,sans-Serif" font-size="10.00">flxcard/FlxCard.h</text>
</a>
</g>
</g>
<!-- Node1&#45;&gt;Node4 -->
<g id="edge3_Node000001_Node000004" class="edge">
<title>Node1&#45;&gt;Node4</title>
<g id="a_edge3_Node000001_Node000004"><a xlink:title=" ">
<path fill="none" stroke="#63b8ff" d="M395.56,-66.09C378.17,-55.01 357.01,-41.52 341.08,-31.36"/>
<polygon fill="#63b8ff" stroke="#63b8ff" points="343.06,-28.47 332.75,-26.05 339.3,-34.38 343.06,-28.47"/>
</a>
</g>
</g>
<!-- Node5 -->
<g id="Node000005" class="node">
<title>Node5</title>
<g id="a_Node000005"><a xlink:title=" ">
<polygon fill="#e0e0e0" stroke="#999999" points="475.88,-24.88 378.88,-24.88 378.88,-5.63 475.88,-5.63 475.88,-24.88"/>
<text text-anchor="middle" x="427.38" y="-11.38" font-family="Helvetica,sans-Serif" font-size="10.00">nlohmann/json.hpp</text>
</a>
</g>
</g>
<!-- Node1&#45;&gt;Node5 -->
<g id="edge4_Node000001_Node000005" class="edge">
<title>Node1&#45;&gt;Node5</title>
<g id="a_edge4_Node000001_Node000005"><a xlink:title=" ">
<path fill="none" stroke="#63b8ff" d="M427.38,-66.09C427.38,-56.75 427.38,-45.69 427.38,-36.37"/>
<polygon fill="#63b8ff" stroke="#63b8ff" points="430.88,-36.57 427.38,-26.57 423.88,-36.57 430.88,-36.57"/>
</a>
</g>
</g>
<!-- Node6 -->
<g id="Node000006" class="node">
<title>Node6</title>
<g id="a_Node000006"><a xlink:title=" ">
<polygon fill="#e0e0e0" stroke="#999999" points="544.62,-24.88 494.12,-24.88 494.12,-5.63 544.62,-5.63 544.62,-24.88"/>
<text text-anchor="middle" x="519.38" y="-11.38" font-family="Helvetica,sans-Serif" font-size="10.00">memory</text>
</a>
</g>
</g>
<!-- Node1&#45;&gt;Node6 -->
<g id="edge5_Node000001_Node000006" class="edge">
<title>Node1&#45;&gt;Node6</title>
<g id="a_edge5_Node000001_Node000006"><a xlink:title=" ">
<path fill="none" stroke="#63b8ff" d="M453.99,-66.09C468.33,-55.16 485.76,-41.87 499.02,-31.77"/>
<polygon fill="#63b8ff" stroke="#63b8ff" points="500.79,-34.81 506.62,-25.97 496.55,-29.25 500.79,-34.81"/>
</a>
</g>
</g>
<!-- Node7 -->
<g id="Node000007" class="node">
<title>Node7</title>
<g id="a_Node000007"><a xlink:title=" ">
<polygon fill="#e0e0e0" stroke="#999999" points="604.5,-24.88 562.25,-24.88 562.25,-5.63 604.5,-5.63 604.5,-24.88"/>
<text text-anchor="middle" x="583.38" y="-11.38" font-family="Helvetica,sans-Serif" font-size="10.00">mutex</text>
</a>
</g>
</g>
<!-- Node1&#45;&gt;Node7 -->
<g id="edge6_Node000001_Node000007" class="edge">
<title>Node1&#45;&gt;Node7</title>
<g id="a_edge6_Node000001_Node000007"><a xlink:title=" ">
<path fill="none" stroke="#63b8ff" d="M473.88,-66.1C497.72,-55.62 527.17,-42.53 553.38,-30.5 553.6,-30.4 553.82,-30.29 554.05,-30.19"/>
<polygon fill="#63b8ff" stroke="#63b8ff" points="555.42,-33.41 562.99,-26.01 552.45,-27.07 555.42,-33.41"/>
</a>
</g>
</g>
<!-- Node8 -->
<g id="Node000008" class="node">
<title>Node8</title>
<g id="a_Node000008"><a xlink:title=" ">
<polygon fill="#e0e0e0" stroke="#999999" points="662.38,-24.88 622.38,-24.88 622.38,-5.63 662.38,-5.63 662.38,-24.88"/>
<text text-anchor="middle" x="642.38" y="-11.38" font-family="Helvetica,sans-Serif" font-size="10.00">string</text>
</a>
</g>
</g>
<!-- Node1&#45;&gt;Node8 -->
<g id="edge7_Node000001_Node000008" class="edge">
<title>Node1&#45;&gt;Node8</title>
<g id="a_edge7_Node000001_Node000008"><a xlink:title=" ">
<path fill="none" stroke="#63b8ff" d="M503,-66.72C537.16,-57.06 577.76,-44.49 613.38,-30.5 613.86,-30.31 614.34,-30.12 614.83,-29.92"/>
<polygon fill="#63b8ff" stroke="#63b8ff" points="616.03,-33.22 623.72,-25.93 613.16,-26.83 616.03,-33.22"/>
</a>
</g>
</g>
</g>
</svg>
