<?xml version="1.0" encoding="UTF-8" standalone="no"?>
<!DOCTYPE svg PUBLIC "-//W3C//DTD SVG 1.1//EN"
 "http://www.w3.org/Graphics/SVG/1.1/DTD/svg11.dtd">
<!-- Generated by graphviz version 9.0.0 (20230911.1827)
 -->
<!-- Title: dbe::CustomTreeView Pages: 1 -->
<svg width="232pt" height="83pt"
 viewBox="0.00 0.00 232.38 82.50" xmlns="http://www.w3.org/2000/svg" xmlns:xlink="http://www.w3.org/1999/xlink">
<g id="graph0" class="graph" transform="scale(1 1) rotate(0) translate(4 78.5)">
<title>dbe::CustomTreeView</title>
<!-- Node1 -->
<g id="Node000001" class="node">
<title>Node1</title>
<g id="a_Node000001"><a xlink:title=" ">
<polygon fill="#999999" stroke="#666666" points="148,-19.25 36.75,-19.25 36.75,0 148,0 148,-19.25"/>
<text text-anchor="middle" x="92.38" y="-5.75" font-family="Helvetica,sans-Serif" font-size="10.00">dbe::CustomTreeView</text>
</a>
</g>
</g>
<!-- Node2 -->
<g id="Node000002" class="node">
<title>Node2</title>
<g id="a_Node000002"><a xlink:title=" ">
<polygon fill="white" stroke="#666666" points="64.75,-74.5 0,-74.5 0,-55.25 64.75,-55.25 64.75,-74.5"/>
<text text-anchor="middle" x="32.38" y="-61" font-family="Helvetica,sans-Serif" font-size="10.00">QTreeView</text>
</a>
</g>
</g>
<!-- Node2&#45;&gt;Node1 -->
<g id="edge1_Node000001_Node000002" class="edge">
<title>Node2&#45;&gt;Node1</title>
<g id="a_edge1_Node000001_Node000002"><a xlink:title=" ">
<path fill="none" stroke="#63b8ff" d="M50.95,-47.39C61.31,-38.19 73.81,-27.1 82.35,-19.52"/>
<polygon fill="#63b8ff" stroke="#63b8ff" points="48.84,-44.58 43.69,-53.84 53.49,-49.82 48.84,-44.58"/>
</a>
</g>
</g>
<!-- Node3 -->
<g id="Node000003" class="node">
<title>Node3</title>
<g id="a_Node000003"><a xlink:href="classdbe_1_1view__common__interface.html" target="_top" xlink:title=" ">
<polygon fill="white" stroke="#666666" points="224.38,-74.5 82.38,-74.5 82.38,-55.25 224.38,-55.25 224.38,-74.5"/>
<text text-anchor="middle" x="153.38" y="-61" font-family="Helvetica,sans-Serif" font-size="10.00">dbe::view_common_interface</text>
</a>
</g>
</g>
<!-- Node3&#45;&gt;Node1 -->
<g id="edge2_Node000001_Node000003" class="edge">
<title>Node3&#45;&gt;Node1</title>
<g id="a_edge2_Node000001_Node000003"><a xlink:title=" ">
<path fill="none" stroke="#63b8ff" d="M134.49,-47.39C123.95,-38.19 111.25,-27.1 102.57,-19.52"/>
<polygon fill="#63b8ff" stroke="#63b8ff" points="132.05,-49.91 141.89,-53.85 136.66,-44.63 132.05,-49.91"/>
</a>
</g>
</g>
</g>
</svg>
