<?xml version="1.0" encoding="UTF-8" standalone="no"?>
<!DOCTYPE svg PUBLIC "-//W3C//DTD SVG 1.1//EN"
 "http://www.w3.org/Graphics/SVG/1.1/DTD/svg11.dtd">
<!-- Generated by graphviz version 9.0.0 (20230911.1827)
 -->
<!-- Title: dunedaq::timing::I2CSFPSlave Pages: 1 -->
<svg width="155pt" height="193pt"
 viewBox="0.00 0.00 155.25 193.00" xmlns="http://www.w3.org/2000/svg" xmlns:xlink="http://www.w3.org/1999/xlink">
<g id="graph0" class="graph" transform="scale(1 1) rotate(0) translate(4 189)">
<title>dunedaq::timing::I2CSFPSlave</title>
<!-- Node1 -->
<g id="Node000001" class="node">
<title>Node1</title>
<g id="a_Node000001"><a xlink:title="I2C slave class to control SFP transceivers.">
<polygon fill="#999999" stroke="#666666" points="147.25,-74.5 0,-74.5 0,-55.25 147.25,-55.25 147.25,-74.5"/>
<text text-anchor="middle" x="73.62" y="-61" font-family="Helvetica,sans-Serif" font-size="10.00">dunedaq::timing::I2CSFPSlave</text>
</a>
</g>
</g>
<!-- Node4 -->
<g id="Node000004" class="node">
<title>Node4</title>
<g id="a_Node000004"><a xlink:href="classdunedaq_1_1timing_1_1I2CSFPNode.html" target="_top" xlink:title=" ">
<polygon fill="white" stroke="#666666" points="146.5,-19.25 0.75,-19.25 0.75,0 146.5,0 146.5,-19.25"/>
<text text-anchor="middle" x="73.62" y="-5.75" font-family="Helvetica,sans-Serif" font-size="10.00">dunedaq::timing::I2CSFPNode</text>
</a>
</g>
</g>
<!-- Node1&#45;&gt;Node4 -->
<g id="edge3_Node000001_Node000004" class="edge">
<title>Node1&#45;&gt;Node4</title>
<g id="a_edge3_Node000001_Node000004"><a xlink:title=" ">
<path fill="none" stroke="#63b8ff" d="M73.62,-43.63C73.62,-35.34 73.62,-26.17 73.62,-19.61"/>
<polygon fill="#63b8ff" stroke="#63b8ff" points="70.13,-43.57 73.63,-53.57 77.13,-43.57 70.13,-43.57"/>
</a>
</g>
</g>
<!-- Node2 -->
<g id="Node000002" class="node">
<title>Node2</title>
<g id="a_Node000002"><a xlink:href="classdunedaq_1_1timing_1_1I2CSlave.html" target="_top" xlink:title=" ">
<polygon fill="white" stroke="#666666" points="137.5,-129.75 9.75,-129.75 9.75,-110.5 137.5,-110.5 137.5,-129.75"/>
<text text-anchor="middle" x="73.62" y="-116.25" font-family="Helvetica,sans-Serif" font-size="10.00">dunedaq::timing::I2CSlave</text>
</a>
</g>
</g>
<!-- Node2&#45;&gt;Node1 -->
<g id="edge1_Node000001_Node000002" class="edge">
<title>Node2&#45;&gt;Node1</title>
<g id="a_edge1_Node000001_Node000002"><a xlink:title=" ">
<path fill="none" stroke="#63b8ff" d="M73.62,-98.88C73.62,-90.59 73.62,-81.42 73.62,-74.86"/>
<polygon fill="#63b8ff" stroke="#63b8ff" points="70.13,-98.82 73.63,-108.82 77.13,-98.82 70.13,-98.82"/>
</a>
</g>
</g>
<!-- Node3 -->
<g id="Node000003" class="node">
<title>Node3</title>
<g id="a_Node000003"><a xlink:title=" ">
<polygon fill="white" stroke="#666666" points="122.88,-185 24.37,-185 24.37,-165.75 122.88,-165.75 122.88,-185"/>
<text text-anchor="middle" x="73.62" y="-171.5" font-family="Helvetica,sans-Serif" font-size="10.00">boost::noncopyable</text>
</a>
</g>
</g>
<!-- Node3&#45;&gt;Node2 -->
<g id="edge2_Node000002_Node000003" class="edge">
<title>Node3&#45;&gt;Node2</title>
<g id="a_edge2_Node000002_Node000003"><a xlink:title=" ">
<path fill="none" stroke="#8b1a1a" d="M73.62,-154.13C73.62,-145.84 73.62,-136.67 73.62,-130.11"/>
<polygon fill="#8b1a1a" stroke="#8b1a1a" points="70.13,-154.07 73.63,-164.07 77.13,-154.07 70.13,-154.07"/>
</a>
</g>
</g>
</g>
</svg>
