<?xml version="1.0" encoding="UTF-8" standalone="no"?>
<!DOCTYPE svg PUBLIC "-//W3C//DTD SVG 1.1//EN"
 "http://www.w3.org/Graphics/SVG/1.1/DTD/svg11.dtd">
<!-- Generated by graphviz version 9.0.0 (20230911.1827)
 -->
<!-- Title: dunedaq::opmon::ComplexInfo Pages: 1 -->
<svg width="282pt" height="249pt"
 viewBox="0.00 0.00 281.75 249.25" xmlns="http://www.w3.org/2000/svg" xmlns:xlink="http://www.w3.org/1999/xlink">
<g id="graph0" class="graph" transform="scale(1 1) rotate(0) translate(4 245.25)">
<title>dunedaq::opmon::ComplexInfo</title>
<!-- Node1 -->
<g id="Node000001" class="node">
<title>Node1</title>
<g id="a_Node000001"><a xlink:title=" ">
<polygon fill="#999999" stroke="#666666" points="152.75,-19.25 7.75,-19.25 7.75,0 152.75,0 152.75,-19.25"/>
<text text-anchor="middle" x="80.25" y="-5.75" font-family="Helvetica,sans-Serif" font-size="10.00">dunedaq::opmon::ComplexInfo</text>
</a>
</g>
</g>
<!-- Node2 -->
<g id="Node000002" class="node">
<title>Node2</title>
<g id="a_Node000002"><a xlink:title=" ">
<polygon fill="white" stroke="#666666" points="128.5,-235.62 0,-235.62 0,-216.38 128.5,-216.38 128.5,-235.62"/>
<text text-anchor="middle" x="64.25" y="-222.12" font-family="Helvetica,sans-Serif" font-size="10.00">google::protobuf::Message</text>
</a>
</g>
</g>
<!-- Node2&#45;&gt;Node1 -->
<g id="edge1_Node000001_Node000002" class="edge">
<title>Node2&#45;&gt;Node1</title>
<g id="a_edge1_Node000001_Node000002"><a xlink:title=" ">
<path fill="none" stroke="#63b8ff" d="M65.75,-204.87C69.13,-159.64 77.2,-51.46 79.58,-19.6"/>
<polygon fill="#63b8ff" stroke="#63b8ff" points="62.28,-204.32 65.03,-214.55 69.26,-204.84 62.28,-204.32"/>
</a>
</g>
</g>
<!-- Node4 -->
<g id="Node000004" class="node">
<title>Node4</title>
<g id="a_Node000004"><a xlink:href="classdunedaq_1_1opmon_1_1TestInfo.html" target="_top" xlink:title=" ">
<polygon fill="white" stroke="#666666" points="228.75,-163.5 101.75,-163.5 101.75,-144.25 228.75,-144.25 228.75,-163.5"/>
<text text-anchor="middle" x="165.25" y="-150" font-family="Helvetica,sans-Serif" font-size="10.00">dunedaq::opmon::TestInfo</text>
</a>
</g>
</g>
<!-- Node2&#45;&gt;Node4 -->
<g id="edge4_Node000004_Node000002" class="edge">
<title>Node2&#45;&gt;Node4</title>
<g id="a_edge4_Node000004_Node000002"><a xlink:title=" ">
<path fill="none" stroke="#63b8ff" d="M86.39,-209.63C106.54,-195.64 135.61,-175.46 152.24,-163.91"/>
<polygon fill="#63b8ff" stroke="#63b8ff" points="84.5,-206.68 78.28,-215.26 88.5,-212.43 84.5,-206.68"/>
</a>
</g>
</g>
<!-- Node3 -->
<g id="Node000003" class="node">
<title>Node3</title>
<g id="a_Node000003"><a xlink:href="structdunedaq_1_1opmon_1_1ComplexInfo_1_1Impl__.html" target="_top" xlink:title=" ">
<polygon fill="white" stroke="#666666" points="237.75,-97 92.75,-97 92.75,-66.5 237.75,-66.5 237.75,-97"/>
<text text-anchor="start" x="100.75" y="-83.5" font-family="Helvetica,sans-Serif" font-size="10.00">dunedaq::opmon::ComplexInfo</text>
<text text-anchor="middle" x="165.25" y="-72.25" font-family="Helvetica,sans-Serif" font-size="10.00">::Impl_</text>
</a>
</g>
</g>
<!-- Node3&#45;&gt;Node1 -->
<g id="edge2_Node000001_Node000003" class="edge">
<title>Node3&#45;&gt;Node1</title>
<g id="a_edge2_Node000001_Node000003"><a xlink:title=" ">
<path fill="none" stroke="#9a32cd" stroke-dasharray="5,2" d="M139.08,-59.16C122.85,-45.77 102.87,-29.28 90.86,-19.38"/>
<polygon fill="#9a32cd" stroke="#9a32cd" points="136.53,-61.59 146.47,-65.26 140.98,-56.19 136.53,-61.59"/>
</a>
</g>
<text text-anchor="middle" x="141.62" y="-39" font-family="Helvetica,sans-Serif" font-size="10.00" fill="grey"> _impl_</text>
</g>
<!-- Node4&#45;&gt;Node3 -->
<g id="edge3_Node000003_Node000004" class="edge">
<title>Node4&#45;&gt;Node3</title>
<g id="a_edge3_Node000003_Node000004"><a xlink:title=" ">
<path fill="none" stroke="#9a32cd" stroke-dasharray="5,2" d="M165.25,-132.67C165.25,-121.41 165.25,-107.64 165.25,-97.42"/>
<polygon fill="#9a32cd" stroke="#9a32cd" points="161.75,-132.48 165.25,-142.48 168.75,-132.48 161.75,-132.48"/>
</a>
</g>
<text text-anchor="middle" x="199.38" y="-116.75" font-family="Helvetica,sans-Serif" font-size="10.00" fill="grey"> sub_message_</text>
</g>
<!-- Node5 -->
<g id="Node000005" class="node">
<title>Node5</title>
<g id="a_Node000005"><a xlink:href="structdunedaq_1_1opmon_1_1TestInfo_1_1Impl__.html" target="_top" xlink:title=" ">
<polygon fill="white" stroke="#666666" points="273.75,-241.25 146.75,-241.25 146.75,-210.75 273.75,-210.75 273.75,-241.25"/>
<text text-anchor="start" x="154.75" y="-227.75" font-family="Helvetica,sans-Serif" font-size="10.00">dunedaq::opmon::TestInfo</text>
<text text-anchor="middle" x="210.25" y="-216.5" font-family="Helvetica,sans-Serif" font-size="10.00">::Impl_</text>
</a>
</g>
</g>
<!-- Node5&#45;&gt;Node4 -->
<g id="edge5_Node000004_Node000005" class="edge">
<title>Node5&#45;&gt;Node4</title>
<g id="a_edge5_Node000004_Node000005"><a xlink:title=" ">
<path fill="none" stroke="#9a32cd" stroke-dasharray="5,2" d="M194.95,-201.15C186.64,-188.21 176.87,-172.98 170.87,-163.63"/>
<polygon fill="#9a32cd" stroke="#9a32cd" points="191.76,-202.67 200.11,-209.2 197.65,-198.89 191.76,-202.67"/>
</a>
</g>
<text text-anchor="middle" x="204.62" y="-183.25" font-family="Helvetica,sans-Serif" font-size="10.00" fill="grey"> _impl_</text>
</g>
</g>
</svg>
