<?xml version="1.0" encoding="UTF-8" standalone="no"?>
<!DOCTYPE svg PUBLIC "-//W3C//DTD SVG 1.1//EN"
 "http://www.w3.org/Graphics/SVG/1.1/DTD/svg11.dtd">
<!-- Generated by graphviz version 9.0.0 (20230911.1827)
 -->
<!-- Title: dunedaq::timinglibs::dal::TimingEndpointControllerConf Pages: 1 -->
<svg width="174pt" height="227pt"
 viewBox="0.00 0.00 174.00 226.75" xmlns="http://www.w3.org/2000/svg" xmlns:xlink="http://www.w3.org/1999/xlink">
<g id="graph0" class="graph" transform="scale(1 1) rotate(0) translate(4 222.75)">
<title>dunedaq::timinglibs::dal::TimingEndpointControllerConf</title>
<!-- Node1 -->
<g id="Node000001" class="node">
<title>Node1</title>
<g id="a_Node000001"><a xlink:title=" ">
<polygon fill="#999999" stroke="#666666" points="166,-97 0,-97 0,-66.5 166,-66.5 166,-97"/>
<text text-anchor="start" x="8" y="-83.5" font-family="Helvetica,sans-Serif" font-size="10.00">dunedaq::timinglibs</text>
<text text-anchor="middle" x="83" y="-72.25" font-family="Helvetica,sans-Serif" font-size="10.00">::dal::TimingEndpointControllerConf</text>
</a>
</g>
</g>
<!-- Node4 -->
<g id="Node000004" class="node">
<title>Node4</title>
<g id="a_Node000004"><a xlink:href="classdunedaq_1_1hsilibs_1_1dal_1_1HSIControllerConf.html" target="_top" xlink:title=" ">
<polygon fill="white" stroke="#666666" points="134.12,-30.5 31.88,-30.5 31.88,0 134.12,0 134.12,-30.5"/>
<text text-anchor="start" x="39.88" y="-17" font-family="Helvetica,sans-Serif" font-size="10.00">dunedaq::hsilibs::dal</text>
<text text-anchor="middle" x="83" y="-5.75" font-family="Helvetica,sans-Serif" font-size="10.00">::HSIControllerConf</text>
</a>
</g>
</g>
<!-- Node1&#45;&gt;Node4 -->
<g id="edge5_Node000001_Node000004" class="edge">
<title>Node1&#45;&gt;Node4</title>
<g id="a_edge5_Node000001_Node000004"><a xlink:title=" ">
<path fill="none" stroke="#63b8ff" d="M76.37,-54.81C76.06,-46.64 76.36,-37.91 77.25,-30.83"/>
<polygon fill="#63b8ff" stroke="#63b8ff" points="72.86,-54.9 77.12,-64.6 79.84,-54.37 72.86,-54.9"/>
</a>
</g>
</g>
<!-- Node1&#45;&gt;Node4 -->
<g id="edge6_Node000001_Node000004" class="edge">
<title>Node1&#45;&gt;Node4</title>
<g id="a_edge6_Node000001_Node000004"><a xlink:title=" ">
<path fill="none" stroke="#63b8ff" d="M89.63,-54.81C89.94,-46.64 89.64,-37.91 88.75,-30.83"/>
<polygon fill="#63b8ff" stroke="#63b8ff" points="86.16,-54.37 88.88,-64.6 93.14,-54.9 86.16,-54.37"/>
</a>
</g>
</g>
<!-- Node2 -->
<g id="Node000002" class="node">
<title>Node2</title>
<g id="a_Node000002"><a xlink:href="classdunedaq_1_1timinglibs_1_1dal_1_1TimingControllerConf.html" target="_top" xlink:title=" ">
<polygon fill="white" stroke="#666666" points="147.25,-163.5 18.75,-163.5 18.75,-133 147.25,-133 147.25,-163.5"/>
<text text-anchor="start" x="26.75" y="-150" font-family="Helvetica,sans-Serif" font-size="10.00">dunedaq::timinglibs</text>
<text text-anchor="middle" x="83" y="-138.75" font-family="Helvetica,sans-Serif" font-size="10.00">::dal::TimingControllerConf</text>
</a>
</g>
</g>
<!-- Node2&#45;&gt;Node1 -->
<g id="edge1_Node000001_Node000002" class="edge">
<title>Node2&#45;&gt;Node1</title>
<g id="a_edge1_Node000001_Node000002"><a xlink:title=" ">
<path fill="none" stroke="#63b8ff" d="M76.37,-121.31C76.06,-113.14 76.36,-104.41 77.25,-97.33"/>
<polygon fill="#63b8ff" stroke="#63b8ff" points="72.86,-121.4 77.12,-131.1 79.84,-120.87 72.86,-121.4"/>
</a>
</g>
</g>
<!-- Node2&#45;&gt;Node1 -->
<g id="edge4_Node000001_Node000002" class="edge">
<title>Node2&#45;&gt;Node1</title>
<g id="a_edge4_Node000001_Node000002"><a xlink:title=" ">
<path fill="none" stroke="#63b8ff" d="M89.63,-121.31C89.94,-113.14 89.64,-104.41 88.75,-97.33"/>
<polygon fill="#63b8ff" stroke="#63b8ff" points="86.16,-120.87 88.88,-131.1 93.14,-121.4 86.16,-120.87"/>
</a>
</g>
</g>
<!-- Node3 -->
<g id="Node000003" class="node">
<title>Node3</title>
<g id="a_Node000003"><a xlink:href="classdunedaq_1_1conffwk_1_1DalObject.html" target="_top" xlink:title="The base class for any generated DAL object.">
<polygon fill="white" stroke="#666666" points="152.12,-218.75 13.88,-218.75 13.88,-199.5 152.12,-199.5 152.12,-218.75"/>
<text text-anchor="middle" x="83" y="-205.25" font-family="Helvetica,sans-Serif" font-size="10.00">dunedaq::conffwk::DalObject</text>
</a>
</g>
</g>
<!-- Node3&#45;&gt;Node2 -->
<g id="edge2_Node000002_Node000003" class="edge">
<title>Node3&#45;&gt;Node2</title>
<g id="a_edge2_Node000002_Node000003"><a xlink:title=" ">
<path fill="none" stroke="#63b8ff" d="M76.55,-187.92C76.02,-179.99 76.19,-171.06 77.09,-163.78"/>
<polygon fill="#63b8ff" stroke="#63b8ff" points="73.06,-188.2 77.8,-197.68 80.01,-187.32 73.06,-188.2"/>
</a>
</g>
</g>
<!-- Node3&#45;&gt;Node2 -->
<g id="edge3_Node000002_Node000003" class="edge">
<title>Node3&#45;&gt;Node2</title>
<g id="a_edge3_Node000002_Node000003"><a xlink:title=" ">
<path fill="none" stroke="#63b8ff" d="M89.45,-187.92C89.98,-179.99 89.81,-171.06 88.91,-163.78"/>
<polygon fill="#63b8ff" stroke="#63b8ff" points="85.99,-187.32 88.2,-197.68 92.94,-188.2 85.99,-187.32"/>
</a>
</g>
</g>
</g>
</svg>
