<?xml version="1.0" encoding="UTF-8" standalone="no"?>
<!DOCTYPE svg PUBLIC "-//W3C//DTD SVG 1.1//EN"
 "http://www.w3.org/Graphics/SVG/1.1/DTD/svg11.dtd">
<!-- Generated by graphviz version 9.0.0 (20230911.1827)
 -->
<!-- Title: dbe::actions::ChangeDate&lt; T &gt; Pages: 1 -->
<svg width="156pt" height="193pt"
 viewBox="0.00 0.00 156.00 193.00" xmlns="http://www.w3.org/2000/svg" xmlns:xlink="http://www.w3.org/1999/xlink">
<g id="graph0" class="graph" transform="scale(1 1) rotate(0) translate(4 189)">
<title>dbe::actions::ChangeDate&lt; T &gt;</title>
<!-- Node1 -->
<g id="Node000001" class="node">
<title>Node1</title>
<g id="a_Node000001"><a xlink:title=" ">
<polygon fill="#999999" stroke="#666666" points="148,-19.25 0,-19.25 0,0 148,0 148,-19.25"/>
<text text-anchor="middle" x="74" y="-5.75" font-family="Helvetica,sans-Serif" font-size="10.00">dbe::actions::ChangeDate&lt; T &gt;</text>
</a>
</g>
</g>
<!-- Node2 -->
<g id="Node000002" class="node">
<title>Node2</title>
<g id="a_Node000002"><a xlink:href="classdbe_1_1actions_1_1onobject.html" target="_top" xlink:title=" ">
<polygon fill="white" stroke="#666666" points="128.5,-74.5 19.5,-74.5 19.5,-55.25 128.5,-55.25 128.5,-74.5"/>
<text text-anchor="middle" x="74" y="-61" font-family="Helvetica,sans-Serif" font-size="10.00">dbe::actions::onobject</text>
</a>
</g>
</g>
<!-- Node2&#45;&gt;Node1 -->
<g id="edge1_Node000001_Node000002" class="edge">
<title>Node2&#45;&gt;Node1</title>
<g id="a_edge1_Node000001_Node000002"><a xlink:title=" ">
<path fill="none" stroke="#63b8ff" d="M74,-43.63C74,-35.34 74,-26.17 74,-19.61"/>
<polygon fill="#63b8ff" stroke="#63b8ff" points="70.5,-43.57 74,-53.57 77.5,-43.57 70.5,-43.57"/>
</a>
</g>
</g>
<!-- Node3 -->
<g id="Node000003" class="node">
<title>Node3</title>
<g id="a_Node000003"><a xlink:href="classdbe_1_1actions_1_1state.html" target="_top" xlink:title=" ">
<polygon fill="white" stroke="#666666" points="121,-129.75 27,-129.75 27,-110.5 121,-110.5 121,-129.75"/>
<text text-anchor="middle" x="74" y="-116.25" font-family="Helvetica,sans-Serif" font-size="10.00">dbe::actions::state</text>
</a>
</g>
</g>
<!-- Node3&#45;&gt;Node2 -->
<g id="edge2_Node000002_Node000003" class="edge">
<title>Node3&#45;&gt;Node2</title>
<g id="a_edge2_Node000002_Node000003"><a xlink:title=" ">
<path fill="none" stroke="#63b8ff" d="M74,-98.88C74,-90.59 74,-81.42 74,-74.86"/>
<polygon fill="#63b8ff" stroke="#63b8ff" points="70.5,-98.82 74,-108.82 77.5,-98.82 70.5,-98.82"/>
</a>
</g>
</g>
<!-- Node4 -->
<g id="Node000004" class="node">
<title>Node4</title>
<g id="a_Node000004"><a xlink:title=" ">
<polygon fill="white" stroke="#666666" points="119.5,-185 28.5,-185 28.5,-165.75 119.5,-165.75 119.5,-185"/>
<text text-anchor="middle" x="74" y="-171.5" font-family="Helvetica,sans-Serif" font-size="10.00">QUndoCommand</text>
</a>
</g>
</g>
<!-- Node4&#45;&gt;Node3 -->
<g id="edge3_Node000003_Node000004" class="edge">
<title>Node4&#45;&gt;Node3</title>
<g id="a_edge3_Node000003_Node000004"><a xlink:title=" ">
<path fill="none" stroke="#63b8ff" d="M74,-154.13C74,-145.84 74,-136.67 74,-130.11"/>
<polygon fill="#63b8ff" stroke="#63b8ff" points="70.5,-154.07 74,-164.07 77.5,-154.07 70.5,-154.07"/>
</a>
</g>
</g>
</g>
</svg>
