<?xml version="1.0" encoding="UTF-8" standalone="no"?>
<!DOCTYPE svg PUBLIC "-//W3C//DTD SVG 1.1//EN"
 "http://www.w3.org/Graphics/SVG/1.1/DTD/svg11.dtd">
<!-- Generated by graphviz version 9.0.0 (20230911.1827)
 -->
<!-- Title: dunedaq::utilities::Named Pages: 1 -->
<svg width="717pt" height="341pt"
 viewBox="0.00 0.00 717.25 341.12" xmlns="http://www.w3.org/2000/svg" xmlns:xlink="http://www.w3.org/1999/xlink">
<g id="graph0" class="graph" transform="scale(1 1) rotate(0) translate(4 337.12)">
<title>dunedaq::utilities::Named</title>
<!-- Node1 -->
<g id="Node000001" class="node">
<title>Node1</title>
<g id="a_Node000001"><a xlink:title="A Named is a DAQ object (Queue or DAQModule) which has an instance name.">
<polygon fill="#999999" stroke="#666666" points="88,-235.12 0,-235.12 0,-204.62 88,-204.62 88,-235.12"/>
<text text-anchor="start" x="8" y="-221.62" font-family="Helvetica,sans-Serif" font-size="10.00">dunedaq::utilities</text>
<text text-anchor="middle" x="44" y="-210.38" font-family="Helvetica,sans-Serif" font-size="10.00">::Named</text>
</a>
</g>
</g>
<!-- Node2 -->
<g id="Node000002" class="node">
<title>Node2</title>
<g id="a_Node000002"><a xlink:href="classdunedaq_1_1utilities_1_1NamedObject.html" target="_top" xlink:title="Implements the Named interface.">
<polygon fill="white" stroke="#666666" points="212,-235.12 124,-235.12 124,-204.62 212,-204.62 212,-235.12"/>
<text text-anchor="start" x="132" y="-221.62" font-family="Helvetica,sans-Serif" font-size="10.00">dunedaq::utilities</text>
<text text-anchor="middle" x="168" y="-210.38" font-family="Helvetica,sans-Serif" font-size="10.00">::NamedObject</text>
</a>
</g>
</g>
<!-- Node1&#45;&gt;Node2 -->
<g id="edge1_Node000001_Node000002" class="edge">
<title>Node1&#45;&gt;Node2</title>
<g id="a_edge1_Node000001_Node000002"><a xlink:title=" ">
<path fill="none" stroke="#63b8ff" d="M99.63,-219.88C107.73,-219.88 115.97,-219.88 123.78,-219.88"/>
<polygon fill="#63b8ff" stroke="#63b8ff" points="99.87,-216.38 89.87,-219.88 99.87,-223.38 99.87,-216.38"/>
</a>
</g>
</g>
<!-- Node3 -->
<g id="Node000003" class="node">
<title>Node3</title>
<g id="a_Node000003"><a xlink:href="classdunedaq_1_1dfmodules_1_1DataStore.html" target="_top" xlink:title="comment">
<polygon fill="white" stroke="#666666" points="350.25,-333.12 248,-333.12 248,-302.62 350.25,-302.62 350.25,-333.12"/>
<text text-anchor="start" x="256" y="-319.62" font-family="Helvetica,sans-Serif" font-size="10.00">dunedaq::dfmodules</text>
<text text-anchor="middle" x="299.12" y="-308.38" font-family="Helvetica,sans-Serif" font-size="10.00">::DataStore</text>
</a>
</g>
</g>
<!-- Node2&#45;&gt;Node3 -->
<g id="edge2_Node000002_Node000003" class="edge">
<title>Node2&#45;&gt;Node3</title>
<g id="a_edge2_Node000002_Node000003"><a xlink:title=" ">
<path fill="none" stroke="#63b8ff" d="M191.08,-243.5C206.16,-258.79 227.12,-278.46 248,-292.88 252.8,-296.19 258.11,-299.32 263.41,-302.18"/>
<polygon fill="#63b8ff" stroke="#63b8ff" points="193.87,-241.35 184.39,-236.6 188.84,-246.22 193.87,-241.35"/>
</a>
</g>
</g>
<!-- Node4 -->
<g id="Node000004" class="node">
<title>Node4</title>
<g id="a_Node000004"><a xlink:href="classdunedaq_1_1dfmodules_1_1TriggerInhibitAgent.html" target="_top" xlink:title=" ">
<polygon fill="white" stroke="#666666" points="350.25,-284.12 248,-284.12 248,-253.62 350.25,-253.62 350.25,-284.12"/>
<text text-anchor="start" x="256" y="-270.62" font-family="Helvetica,sans-Serif" font-size="10.00">dunedaq::dfmodules</text>
<text text-anchor="middle" x="299.12" y="-259.38" font-family="Helvetica,sans-Serif" font-size="10.00">::TriggerInhibitAgent</text>
</a>
</g>
</g>
<!-- Node2&#45;&gt;Node4 -->
<g id="edge3_Node000002_Node000004" class="edge">
<title>Node2&#45;&gt;Node4</title>
<g id="a_edge3_Node000002_Node000004"><a xlink:title=" ">
<path fill="none" stroke="#63b8ff" d="M220.96,-239.59C232.9,-244.12 245.44,-248.88 256.86,-253.22"/>
<polygon fill="#63b8ff" stroke="#63b8ff" points="222.22,-236.33 211.63,-236.05 219.73,-242.87 222.22,-236.33"/>
</a>
</g>
</g>
<!-- Node5 -->
<g id="Node000005" class="node">
<title>Node5</title>
<g id="a_Node000005"><a xlink:href="classdunedaq_1_1iomanager_1_1QueueBase.html" target="_top" xlink:title="The QueueBase class allows to address generic behavior of any Queue implementation.">
<polygon fill="white" stroke="#666666" points="350.25,-235.12 248,-235.12 248,-204.62 350.25,-204.62 350.25,-235.12"/>
<text text-anchor="start" x="256" y="-221.62" font-family="Helvetica,sans-Serif" font-size="10.00">dunedaq::iomanager</text>
<text text-anchor="middle" x="299.12" y="-210.38" font-family="Helvetica,sans-Serif" font-size="10.00">::QueueBase</text>
</a>
</g>
</g>
<!-- Node2&#45;&gt;Node5 -->
<g id="edge4_Node000002_Node000005" class="edge">
<title>Node2&#45;&gt;Node5</title>
<g id="a_edge4_Node000002_Node000005"><a xlink:title=" ">
<path fill="none" stroke="#63b8ff" d="M223.72,-219.88C231.61,-219.88 239.71,-219.88 247.52,-219.88"/>
<polygon fill="#63b8ff" stroke="#63b8ff" points="223.87,-216.38 213.87,-219.88 223.87,-223.38 223.87,-216.38"/>
</a>
</g>
</g>
<!-- Node9 -->
<g id="Node000009" class="node">
<title>Node9</title>
<g id="a_Node000009"><a xlink:href="classdunedaq_1_1iomanager_1_1Receiver.html" target="_top" xlink:title=" ">
<polygon fill="white" stroke="#666666" points="350.25,-186.12 248,-186.12 248,-155.62 350.25,-155.62 350.25,-186.12"/>
<text text-anchor="start" x="256" y="-172.62" font-family="Helvetica,sans-Serif" font-size="10.00">dunedaq::iomanager</text>
<text text-anchor="middle" x="299.12" y="-161.38" font-family="Helvetica,sans-Serif" font-size="10.00">::Receiver</text>
</a>
</g>
</g>
<!-- Node2&#45;&gt;Node9 -->
<g id="edge8_Node000002_Node000009" class="edge">
<title>Node2&#45;&gt;Node9</title>
<g id="a_edge8_Node000002_Node000009"><a xlink:title=" ">
<path fill="none" stroke="#63b8ff" d="M220.96,-200.16C232.9,-195.63 245.44,-190.87 256.86,-186.53"/>
<polygon fill="#63b8ff" stroke="#63b8ff" points="219.73,-196.88 211.63,-203.7 222.22,-203.42 219.73,-196.88"/>
</a>
</g>
</g>
<!-- Node13 -->
<g id="Node000013" class="node">
<title>Node13</title>
<g id="a_Node000013"><a xlink:href="classdunedaq_1_1iomanager_1_1Sender.html" target="_top" xlink:title=" ">
<polygon fill="white" stroke="#666666" points="350.25,-132.12 248,-132.12 248,-101.62 350.25,-101.62 350.25,-132.12"/>
<text text-anchor="start" x="256" y="-118.62" font-family="Helvetica,sans-Serif" font-size="10.00">dunedaq::iomanager</text>
<text text-anchor="middle" x="299.12" y="-107.38" font-family="Helvetica,sans-Serif" font-size="10.00">::Sender</text>
</a>
</g>
</g>
<!-- Node2&#45;&gt;Node13 -->
<g id="edge12_Node000002_Node000013" class="edge">
<title>Node2&#45;&gt;Node13</title>
<g id="a_edge12_Node000002_Node000013"><a xlink:title=" ">
<path fill="none" stroke="#63b8ff" d="M191.74,-196.49C206.95,-181.46 227.82,-161.98 248,-146.88 254.74,-141.83 262.38,-136.9 269.62,-132.55"/>
<polygon fill="#63b8ff" stroke="#63b8ff" points="189.57,-193.71 184.98,-203.26 194.52,-198.66 189.57,-193.71"/>
</a>
</g>
</g>
<!-- Node6 -->
<g id="Node000006" class="node">
<title>Node6</title>
<g id="a_Node000006"><a xlink:href="classdunedaq_1_1iomanager_1_1Queue.html" target="_top" xlink:title="Implementations of the Queue class are responsible for relaying data between DAQModules within a DAQ ...">
<polygon fill="white" stroke="#666666" points="512.12,-270.12 409.88,-270.12 409.88,-239.62 512.12,-239.62 512.12,-270.12"/>
<text text-anchor="start" x="417.88" y="-256.62" font-family="Helvetica,sans-Serif" font-size="10.00">dunedaq::iomanager</text>
<text text-anchor="middle" x="461" y="-245.38" font-family="Helvetica,sans-Serif" font-size="10.00">::Queue&lt; T &gt;</text>
</a>
</g>
</g>
<!-- Node5&#45;&gt;Node6 -->
<g id="edge5_Node000005_Node000006" class="edge">
<title>Node5&#45;&gt;Node6</title>
<g id="a_edge5_Node000005_Node000006"><a xlink:title=" ">
<path fill="none" stroke="#63b8ff" d="M361.95,-233.41C377.67,-236.85 394.38,-240.51 409.47,-243.81"/>
<polygon fill="#63b8ff" stroke="#63b8ff" points="362.71,-229.99 352.19,-231.27 361.21,-236.83 362.71,-229.99"/>
</a>
</g>
</g>
<!-- Node7 -->
<g id="Node000007" class="node">
<title>Node7</title>
<g id="a_Node000007"><a xlink:href="classdunedaq_1_1iomanager_1_1FollyQueue.html" target="_top" xlink:title=" ">
<polygon fill="white" stroke="#666666" points="709.25,-329.75 571.75,-329.75 571.75,-288 709.25,-288 709.25,-329.75"/>
<text text-anchor="start" x="579.75" y="-316.25" font-family="Helvetica,sans-Serif" font-size="10.00">dunedaq::iomanager</text>
<text text-anchor="start" x="579.75" y="-305" font-family="Helvetica,sans-Serif" font-size="10.00">::FollyQueue&lt; T, FollyQueue</text>
<text text-anchor="middle" x="640.5" y="-293.75" font-family="Helvetica,sans-Serif" font-size="10.00">Type &gt;</text>
</a>
</g>
</g>
<!-- Node6&#45;&gt;Node7 -->
<g id="edge6_Node000006_Node000007" class="edge">
<title>Node6&#45;&gt;Node7</title>
<g id="a_edge6_Node000006_Node000007"><a xlink:title=" ">
<path fill="none" stroke="#63b8ff" d="M522.97,-273.42C538.58,-278.17 555.47,-283.31 571.42,-288.16"/>
<polygon fill="#63b8ff" stroke="#63b8ff" points="524.42,-270.21 513.84,-270.65 522.39,-276.9 524.42,-270.21"/>
</a>
</g>
</g>
<!-- Node8 -->
<g id="Node000008" class="node">
<title>Node8</title>
<g id="a_Node000008"><a xlink:href="classdunedaq_1_1iomanager_1_1StdDeQueue.html" target="_top" xlink:title="A Queue Implementation that uses a std::deque as its backend.">
<polygon fill="white" stroke="#666666" points="691.62,-270.12 589.38,-270.12 589.38,-239.62 691.62,-239.62 691.62,-270.12"/>
<text text-anchor="start" x="597.38" y="-256.62" font-family="Helvetica,sans-Serif" font-size="10.00">dunedaq::iomanager</text>
<text text-anchor="middle" x="640.5" y="-245.38" font-family="Helvetica,sans-Serif" font-size="10.00">::StdDeQueue&lt; T &gt;</text>
</a>
</g>
</g>
<!-- Node6&#45;&gt;Node8 -->
<g id="edge7_Node000006_Node000008" class="edge">
<title>Node6&#45;&gt;Node8</title>
<g id="a_edge7_Node000006_Node000008"><a xlink:title=" ">
<path fill="none" stroke="#63b8ff" d="M523.64,-254.88C544.98,-254.88 568.64,-254.88 588.98,-254.88"/>
<polygon fill="#63b8ff" stroke="#63b8ff" points="523.9,-251.38 513.9,-254.88 523.9,-258.38 523.9,-251.38"/>
</a>
</g>
</g>
<!-- Node10 -->
<g id="Node000010" class="node">
<title>Node10</title>
<g id="a_Node000010"><a xlink:href="classdunedaq_1_1iomanager_1_1ReceiverConcept.html" target="_top" xlink:title=" ">
<polygon fill="white" stroke="#666666" points="535.75,-186.12 386.25,-186.12 386.25,-155.62 535.75,-155.62 535.75,-186.12"/>
<text text-anchor="start" x="394.25" y="-172.62" font-family="Helvetica,sans-Serif" font-size="10.00">dunedaq::iomanager</text>
<text text-anchor="middle" x="461" y="-161.38" font-family="Helvetica,sans-Serif" font-size="10.00">::ReceiverConcept&lt; Datatype &gt;</text>
</a>
</g>
</g>
<!-- Node9&#45;&gt;Node10 -->
<g id="edge9_Node000009_Node000010" class="edge">
<title>Node9&#45;&gt;Node10</title>
<g id="a_edge9_Node000009_Node000010"><a xlink:title=" ">
<path fill="none" stroke="#63b8ff" d="M362.22,-170.88C369.95,-170.88 377.91,-170.88 385.8,-170.88"/>
<polygon fill="#63b8ff" stroke="#63b8ff" points="362.22,-167.38 352.22,-170.88 362.22,-174.38 362.22,-167.38"/>
</a>
</g>
</g>
<!-- Node11 -->
<g id="Node000011" class="node">
<title>Node11</title>
<g id="a_Node000011"><a xlink:href="classdunedaq_1_1iomanager_1_1NetworkReceiverModel.html" target="_top" xlink:title=" ">
<polygon fill="white" stroke="#666666" points="701.38,-221.75 579.62,-221.75 579.62,-180 701.38,-180 701.38,-221.75"/>
<text text-anchor="start" x="587.62" y="-208.25" font-family="Helvetica,sans-Serif" font-size="10.00">dunedaq::iomanager</text>
<text text-anchor="start" x="587.62" y="-197" font-family="Helvetica,sans-Serif" font-size="10.00">::NetworkReceiverModel</text>
<text text-anchor="middle" x="640.5" y="-185.75" font-family="Helvetica,sans-Serif" font-size="10.00">&lt; Datatype &gt;</text>
</a>
</g>
</g>
<!-- Node10&#45;&gt;Node11 -->
<g id="edge10_Node000010_Node000011" class="edge">
<title>Node10&#45;&gt;Node11</title>
<g id="a_edge10_Node000010_Node000011"><a xlink:title=" ">
<path fill="none" stroke="#63b8ff" d="M547.42,-185.31C558.19,-187.13 569.02,-188.96 579.29,-190.7"/>
<polygon fill="#63b8ff" stroke="#63b8ff" points="548.18,-181.89 537.74,-183.68 547.02,-188.79 548.18,-181.89"/>
</a>
</g>
</g>
<!-- Node12 -->
<g id="Node000012" class="node">
<title>Node12</title>
<g id="a_Node000012"><a xlink:href="classdunedaq_1_1iomanager_1_1QueueReceiverModel.html" target="_top" xlink:title=" ">
<polygon fill="white" stroke="#666666" points="697.25,-161.75 583.75,-161.75 583.75,-120 697.25,-120 697.25,-161.75"/>
<text text-anchor="start" x="591.75" y="-148.25" font-family="Helvetica,sans-Serif" font-size="10.00">dunedaq::iomanager</text>
<text text-anchor="start" x="591.75" y="-137" font-family="Helvetica,sans-Serif" font-size="10.00">::QueueReceiverModel</text>
<text text-anchor="middle" x="640.5" y="-125.75" font-family="Helvetica,sans-Serif" font-size="10.00">&lt; Datatype &gt;</text>
</a>
</g>
</g>
<!-- Node10&#45;&gt;Node12 -->
<g id="edge11_Node000010_Node000012" class="edge">
<title>Node10&#45;&gt;Node12</title>
<g id="a_edge11_Node000010_Node000012"><a xlink:title=" ">
<path fill="none" stroke="#63b8ff" d="M547.41,-156.44C559.62,-154.38 571.92,-152.3 583.38,-150.36"/>
<polygon fill="#63b8ff" stroke="#63b8ff" points="547.02,-152.96 537.74,-158.07 548.18,-159.86 547.02,-152.96"/>
</a>
</g>
</g>
<!-- Node14 -->
<g id="Node000014" class="node">
<title>Node14</title>
<g id="a_Node000014"><a xlink:href="classdunedaq_1_1iomanager_1_1SenderConcept.html" target="_top" xlink:title=" ">
<polygon fill="white" stroke="#666666" points="532,-96.12 390,-96.12 390,-65.62 532,-65.62 532,-96.12"/>
<text text-anchor="start" x="398" y="-82.62" font-family="Helvetica,sans-Serif" font-size="10.00">dunedaq::iomanager</text>
<text text-anchor="middle" x="461" y="-71.38" font-family="Helvetica,sans-Serif" font-size="10.00">::SenderConcept&lt; Datatype &gt;</text>
</a>
</g>
</g>
<!-- Node13&#45;&gt;Node14 -->
<g id="edge13_Node000013_Node000014" class="edge">
<title>Node13&#45;&gt;Node14</title>
<g id="a_edge13_Node000013_Node000014"><a xlink:title=" ">
<path fill="none" stroke="#63b8ff" d="M361.82,-102.98C371.1,-100.89 380.73,-98.72 390.17,-96.6"/>
<polygon fill="#63b8ff" stroke="#63b8ff" points="361.17,-99.54 352.19,-105.15 362.71,-106.37 361.17,-99.54"/>
</a>
</g>
</g>
<!-- Node15 -->
<g id="Node000015" class="node">
<title>Node15</title>
<g id="a_Node000015"><a xlink:href="classdunedaq_1_1iomanager_1_1NetworkSenderModel.html" target="_top" xlink:title=" ">
<polygon fill="white" stroke="#666666" points="697.62,-101.75 583.38,-101.75 583.38,-60 697.62,-60 697.62,-101.75"/>
<text text-anchor="start" x="591.38" y="-88.25" font-family="Helvetica,sans-Serif" font-size="10.00">dunedaq::iomanager</text>
<text text-anchor="start" x="591.38" y="-77" font-family="Helvetica,sans-Serif" font-size="10.00">::NetworkSenderModel</text>
<text text-anchor="middle" x="640.5" y="-65.75" font-family="Helvetica,sans-Serif" font-size="10.00">&lt; Datatype &gt;</text>
</a>
</g>
</g>
<!-- Node14&#45;&gt;Node15 -->
<g id="edge14_Node000014_Node000015" class="edge">
<title>Node14&#45;&gt;Node15</title>
<g id="a_edge14_Node000014_Node000015"><a xlink:title=" ">
<path fill="none" stroke="#63b8ff" d="M543.57,-80.88C556.94,-80.88 570.54,-80.88 583.13,-80.88"/>
<polygon fill="#63b8ff" stroke="#63b8ff" points="543.92,-77.38 533.92,-80.88 543.92,-84.38 543.92,-77.38"/>
</a>
</g>
</g>
<!-- Node16 -->
<g id="Node000016" class="node">
<title>Node16</title>
<g id="a_Node000016"><a xlink:href="classdunedaq_1_1iomanager_1_1QueueSenderModel.html" target="_top" xlink:title=" ">
<polygon fill="white" stroke="#666666" points="696.5,-41.75 584.5,-41.75 584.5,0 696.5,0 696.5,-41.75"/>
<text text-anchor="start" x="592.5" y="-28.25" font-family="Helvetica,sans-Serif" font-size="10.00">dunedaq::iomanager</text>
<text text-anchor="start" x="592.5" y="-17" font-family="Helvetica,sans-Serif" font-size="10.00">::QueueSenderModel&lt;</text>
<text text-anchor="middle" x="640.5" y="-5.75" font-family="Helvetica,sans-Serif" font-size="10.00"> Datatype &gt;</text>
</a>
</g>
</g>
<!-- Node14&#45;&gt;Node16 -->
<g id="edge15_Node000014_Node000016" class="edge">
<title>Node14&#45;&gt;Node16</title>
<g id="a_edge15_Node000014_Node000016"><a xlink:title=" ">
<path fill="none" stroke="#63b8ff" d="M518.82,-61.67C539.7,-54.61 563.31,-46.63 584.08,-39.61"/>
<polygon fill="#63b8ff" stroke="#63b8ff" points="517.96,-58.26 509.61,-64.78 520.2,-64.9 517.96,-58.26"/>
</a>
</g>
</g>
</g>
</svg>
