<?xml version="1.0" encoding="UTF-8" standalone="no"?>
<!DOCTYPE svg PUBLIC "-//W3C//DTD SVG 1.1//EN"
 "http://www.w3.org/Graphics/SVG/1.1/DTD/svg11.dtd">
<!-- Generated by graphviz version 9.0.0 (20230911.1827)
 -->
<!-- Title: dbse::SchemaGraphicObject Pages: 1 -->
<svg width="663pt" height="584pt"
 viewBox="0.00 0.00 662.88 583.75" xmlns="http://www.w3.org/2000/svg" xmlns:xlink="http://www.w3.org/1999/xlink">
<g id="graph0" class="graph" transform="scale(1 1) rotate(0) translate(4 579.75)">
<title>dbse::SchemaGraphicObject</title>
<!-- Node1 -->
<g id="Node000001" class="node">
<title>Node1</title>
<g id="a_Node000001"><a xlink:title=" ">
<polygon fill="#999999" stroke="#666666" points="139.75,-347.12 0,-347.12 0,-327.88 139.75,-327.88 139.75,-347.12"/>
<text text-anchor="middle" x="69.88" y="-333.62" font-family="Helvetica,sans-Serif" font-size="10.00">dbse::SchemaGraphicObject</text>
</a>
</g>
</g>
<!-- Node2 -->
<g id="Node000002" class="node">
<title>Node2</title>
<g id="a_Node000002"><a xlink:title=" ">
<polygon fill="white" stroke="#666666" points="110.38,-441.75 19.38,-441.75 19.38,-422.5 110.38,-422.5 110.38,-441.75"/>
<text text-anchor="middle" x="64.88" y="-428.25" font-family="Helvetica,sans-Serif" font-size="10.00">QGraphicsObject</text>
</a>
</g>
</g>
<!-- Node2&#45;&gt;Node1 -->
<g id="edge1_Node000001_Node000002" class="edge">
<title>Node2&#45;&gt;Node1</title>
<g id="a_edge1_Node000001_Node000002"><a xlink:title=" ">
<path fill="none" stroke="#63b8ff" d="M65.97,-410.87C67.03,-391.14 68.6,-362.05 69.39,-347.49"/>
<polygon fill="#63b8ff" stroke="#63b8ff" points="62.48,-410.56 65.44,-420.73 69.47,-410.94 62.48,-410.56"/>
</a>
</g>
</g>
<!-- Node3 -->
<g id="Node000003" class="node">
<title>Node3</title>
<g id="a_Node000003"><a xlink:href="classdunedaq_1_1oks_1_1OksClass.html" target="_top" xlink:title="The OKS class.">
<polygon fill="white" stroke="#666666" points="390,-441.75 269.75,-441.75 269.75,-422.5 390,-422.5 390,-441.75"/>
<text text-anchor="middle" x="329.88" y="-428.25" font-family="Helvetica,sans-Serif" font-size="10.00">dunedaq::oks::OksClass</text>
</a>
</g>
</g>
<!-- Node3&#45;&gt;Node1 -->
<g id="edge2_Node000001_Node000003" class="edge">
<title>Node3&#45;&gt;Node1</title>
<g id="a_edge2_Node000001_Node000003"><a xlink:title=" ">
<path fill="none" stroke="#9a32cd" stroke-dasharray="5,2" d="M258.02,-430.51C199.77,-428.64 123.46,-422.65 98.88,-404.5 80.14,-390.68 73.32,-362.1 70.99,-347.5"/>
<polygon fill="#9a32cd" stroke="#9a32cd" points="257.8,-434.01 267.89,-430.79 257.99,-427.01 257.8,-434.01"/>
</a>
</g>
<text text-anchor="middle" x="128.88" y="-383.75" font-family="Helvetica,sans-Serif" font-size="10.00" fill="grey"> m_class_info</text>
</g>
<!-- Node11 -->
<g id="Node000011" class="node">
<title>Node11</title>
<g id="a_Node000011"><a xlink:href="uniondunedaq_1_1oks_1_1OksData_1_1Data.html" target="_top" xlink:title=" ">
<polygon fill="white" stroke="#666666" points="566.75,-352.75 451,-352.75 451,-322.25 566.75,-322.25 566.75,-352.75"/>
<text text-anchor="start" x="459" y="-339.25" font-family="Helvetica,sans-Serif" font-size="10.00">dunedaq::oks::OksData</text>
<text text-anchor="middle" x="508.88" y="-328" font-family="Helvetica,sans-Serif" font-size="10.00">::Data</text>
</a>
</g>
</g>
<!-- Node3&#45;&gt;Node11 -->
<g id="edge13_Node000011_Node000003" class="edge">
<title>Node3&#45;&gt;Node11</title>
<g id="a_edge13_Node000011_Node000003"><a xlink:title=" ">
<path fill="none" stroke="#9a32cd" stroke-dasharray="5,2" d="M357.35,-416.91C390.71,-399.64 446.71,-370.67 480.49,-353.19"/>
<polygon fill="#9a32cd" stroke="#9a32cd" points="355.98,-413.68 348.71,-421.38 359.2,-419.89 355.98,-413.68"/>
</a>
</g>
<text text-anchor="middle" x="462.88" y="-389.38" font-family="Helvetica,sans-Serif" font-size="10.00" fill="grey"> CLASS</text>
<text text-anchor="middle" x="462.88" y="-378.12" font-family="Helvetica,sans-Serif" font-size="10.00" fill="grey">class_id</text>
</g>
<!-- Node4 -->
<g id="Node000004" class="node">
<title>Node4</title>
<g id="a_Node000004"><a xlink:href="classdunedaq_1_1oks_1_1OksFile.html" target="_top" xlink:title="Provides interface to the OKS XML schema and data files.">
<polygon fill="white" stroke="#666666" points="435.5,-19.25 324.25,-19.25 324.25,0 435.5,0 435.5,-19.25"/>
<text text-anchor="middle" x="379.88" y="-5.75" font-family="Helvetica,sans-Serif" font-size="10.00">dunedaq::oks::OksFile</text>
</a>
</g>
</g>
<!-- Node4&#45;&gt;Node3 -->
<g id="edge3_Node000003_Node000004" class="edge">
<title>Node4&#45;&gt;Node3</title>
<g id="a_edge3_Node000003_Node000004"><a xlink:title=" ">
<path fill="none" stroke="#9a32cd" stroke-dasharray="5,2" d="M313.35,-21.88C252.82,-34.07 172.88,-55.93 172.88,-86.38 172.88,-338.5 172.88,-338.5 172.88,-338.5 172.88,-387.39 230.06,-411.01 275.4,-422.05"/>
<polygon fill="#9a32cd" stroke="#9a32cd" points="313.78,-25.37 322.92,-20.01 312.43,-18.5 313.78,-25.37"/>
</a>
</g>
<text text-anchor="middle" x="185.25" y="-228.25" font-family="Helvetica,sans-Serif" font-size="10.00" fill="grey"> p_file</text>
</g>
<!-- Node4&#45;&gt;Node4 -->
<g id="edge4_Node000004_Node000004" class="edge">
<title>Node4&#45;&gt;Node4</title>
<g id="a_edge4_Node000004_Node000004"><a xlink:title=" ">
<path fill="none" stroke="#9a32cd" stroke-dasharray="5,2" d="M446.96,-14.69C451.05,-13.48 453.5,-11.8 453.5,-9.62 453.5,-5.87 446.16,-3.56 435.74,-2.71"/>
<polygon fill="#9a32cd" stroke="#9a32cd" points="446.53,-11.21 437.23,-16.29 447.67,-18.12 446.53,-11.21"/>
</a>
</g>
<text text-anchor="middle" x="485.38" y="-5.75" font-family="Helvetica,sans-Serif" font-size="10.00" fill="grey"> p_included_by</text>
</g>
<!-- Node5 -->
<g id="Node000005" class="node">
<title>Node5</title>
<g id="a_Node000005"><a xlink:href="classdunedaq_1_1oks_1_1OksKernel.html" target="_top" xlink:title="Provides interface to the OKS kernel.">
<polygon fill="white" stroke="#666666" points="441.5,-97 318.25,-97 318.25,-77.75 441.5,-77.75 441.5,-97"/>
<text text-anchor="middle" x="379.88" y="-83.5" font-family="Helvetica,sans-Serif" font-size="10.00">dunedaq::oks::OksKernel</text>
</a>
</g>
</g>
<!-- Node4&#45;&gt;Node5 -->
<g id="edge6_Node000005_Node000004" class="edge">
<title>Node4&#45;&gt;Node5</title>
<g id="a_edge6_Node000005_Node000004"><a xlink:title=" ">
<path fill="none" stroke="#9a32cd" stroke-dasharray="5,2" d="M387.29,-30.22C387.94,-32.56 388.49,-34.94 388.88,-37.25 390.5,-47.12 390.5,-49.88 388.88,-59.75 387.86,-65.91 385.61,-72.57 383.61,-77.68"/>
<polygon fill="#9a32cd" stroke="#9a32cd" points="390.61,-29.11 384.1,-20.75 383.98,-31.34 390.61,-29.11"/>
</a>
</g>
<text text-anchor="middle" x="429.12" y="-50.25" font-family="Helvetica,sans-Serif" font-size="10.00" fill="grey"> p_active_data</text>
<text text-anchor="middle" x="429.12" y="-39" font-family="Helvetica,sans-Serif" font-size="10.00" fill="grey">p_active_schema</text>
</g>
<!-- Node8 -->
<g id="Node000008" class="node">
<title>Node8</title>
<g id="a_Node000008"><a xlink:href="classdunedaq_1_1oks_1_1OksObject.html" target="_top" xlink:title="OksObject describes instance of OksClass.">
<polygon fill="white" stroke="#666666" points="648.88,-208.5 524.88,-208.5 524.88,-189.25 648.88,-189.25 648.88,-208.5"/>
<text text-anchor="middle" x="586.88" y="-195" font-family="Helvetica,sans-Serif" font-size="10.00">dunedaq::oks::OksObject</text>
</a>
</g>
</g>
<!-- Node4&#45;&gt;Node8 -->
<g id="edge18_Node000008_Node000004" class="edge">
<title>Node4&#45;&gt;Node8</title>
<g id="a_edge18_Node000008_Node000004"><a xlink:title=" ">
<path fill="none" stroke="#9a32cd" stroke-dasharray="5,2" d="M431.91,-22.86C477.96,-36.73 542.43,-64.32 572.88,-115 587.15,-138.76 587.95,-172.9 587.41,-188.93"/>
<polygon fill="#9a32cd" stroke="#9a32cd" points="432.96,-19.52 422.38,-20.12 431.03,-26.24 432.96,-19.52"/>
</a>
</g>
<text text-anchor="middle" x="566" y="-83.5" font-family="Helvetica,sans-Serif" font-size="10.00" fill="grey"> file</text>
</g>
<!-- Node5&#45;&gt;Node3 -->
<g id="edge19_Node000003_Node000005" class="edge">
<title>Node5&#45;&gt;Node3</title>
<g id="a_edge19_Node000003_Node000005"><a xlink:title=" ">
<path fill="none" stroke="#9a32cd" stroke-dasharray="5,2" d="M372.01,-107.95C364.04,-129.59 352.88,-165.64 352.88,-197.88 352.88,-338.5 352.88,-338.5 352.88,-338.5 352.88,-369.98 340.21,-405.75 333.67,-422.11"/>
<polygon fill="#9a32cd" stroke="#9a32cd" points="375.25,-109.28 375.58,-98.69 368.72,-106.76 375.25,-109.28"/>
</a>
</g>
<text text-anchor="middle" x="372.38" y="-261.5" font-family="Helvetica,sans-Serif" font-size="10.00" fill="grey"> p_kernel</text>
</g>
<!-- Node5&#45;&gt;Node4 -->
<g id="edge5_Node000004_Node000005" class="edge">
<title>Node5&#45;&gt;Node4</title>
<g id="a_edge5_Node000004_Node000005"><a xlink:title=" ">
<path fill="none" stroke="#9a32cd" stroke-dasharray="5,2" d="M356.73,-69.8C353.96,-66.79 351.52,-63.42 349.88,-59.75 345.77,-50.63 345.77,-46.37 349.88,-37.25 353.07,-30.14 359.21,-24.15 365.11,-19.67"/>
<polygon fill="#9a32cd" stroke="#9a32cd" points="354.21,-72.24 363.99,-76.32 358.89,-67.03 354.21,-72.24"/>
</a>
</g>
<text text-anchor="middle" x="369.38" y="-44.62" font-family="Helvetica,sans-Serif" font-size="10.00" fill="grey"> p_kernel</text>
</g>
<!-- Node6 -->
<g id="Node000006" class="node">
<title>Node6</title>
<g id="a_Node000006"><a xlink:href="classdunedaq_1_1oks_1_1OksProfiler.html" target="_top" xlink:title=" ">
<polygon fill="white" stroke="#666666" points="506.62,-208.5 381.12,-208.5 381.12,-189.25 506.62,-189.25 506.62,-208.5"/>
<text text-anchor="middle" x="443.88" y="-195" font-family="Helvetica,sans-Serif" font-size="10.00">dunedaq::oks::OksProfiler</text>
</a>
</g>
</g>
<!-- Node6&#45;&gt;Node5 -->
<g id="edge7_Node000005_Node000006" class="edge">
<title>Node6&#45;&gt;Node5</title>
<g id="a_edge7_Node000005_Node000006"><a xlink:title=" ">
<path fill="none" stroke="#9a32cd" stroke-dasharray="5,2" d="M419.4,-182.07C415.6,-178.83 411.99,-175.19 409.12,-171.25 392.09,-147.79 384.23,-113.5 381.31,-97.38"/>
<polygon fill="#9a32cd" stroke="#9a32cd" points="417.07,-184.7 427.15,-187.94 421.3,-179.12 417.07,-184.7"/>
</a>
</g>
<text text-anchor="middle" x="424.25" y="-139.25" font-family="Helvetica,sans-Serif" font-size="10.00" fill="grey"> profiler</text>
</g>
<!-- Node7 -->
<g id="Node000007" class="node">
<title>Node7</title>
<g id="a_Node000007"><a xlink:href="structdunedaq_1_1oks_1_1LoadErrors.html" target="_top" xlink:title=" ">
<polygon fill="white" stroke="#666666" points="325.25,-208.5 200.5,-208.5 200.5,-189.25 325.25,-189.25 325.25,-208.5"/>
<text text-anchor="middle" x="262.88" y="-195" font-family="Helvetica,sans-Serif" font-size="10.00">dunedaq::oks::LoadErrors</text>
</a>
</g>
</g>
<!-- Node7&#45;&gt;Node5 -->
<g id="edge8_Node000005_Node000007" class="edge">
<title>Node7&#45;&gt;Node5</title>
<g id="a_edge8_Node000005_Node000007"><a xlink:title=" ">
<path fill="none" stroke="#9a32cd" stroke-dasharray="5,2" d="M260.93,-177.47C260.33,-158.84 262.59,-131.72 278.12,-115 288.56,-103.76 303.11,-97.03 317.94,-93.06"/>
<polygon fill="#9a32cd" stroke="#9a32cd" points="257.42,-177.53 261.57,-187.27 264.41,-177.07 257.42,-177.53"/>
</a>
</g>
<text text-anchor="middle" x="309.25" y="-139.25" font-family="Helvetica,sans-Serif" font-size="10.00" fill="grey"> p_load_errors</text>
</g>
<!-- Node8&#45;&gt;Node5 -->
<g id="edge9_Node000005_Node000008" class="edge">
<title>Node8&#45;&gt;Node5</title>
<g id="a_edge9_Node000005_Node000008"><a xlink:title=" ">
<path fill="none" stroke="#9a32cd" stroke-dasharray="5,2" d="M513.3,-188.02C491.38,-183.83 470.97,-178.26 462.62,-171.25 441.98,-153.9 458.62,-134.38 439.88,-115 432.35,-107.22 422.14,-101.55 412.29,-97.49"/>
<polygon fill="#9a32cd" stroke="#9a32cd" points="512.54,-191.44 523,-189.76 513.78,-184.55 512.54,-191.44"/>
</a>
</g>
<text text-anchor="start" x="461.88" y="-161.75" font-family="Helvetica,sans-Serif" font-size="10.00" fill="grey"> p_change_object_notify</text>
<text text-anchor="middle" x="517" y="-150.5" font-family="Helvetica,sans-Serif" font-size="10.00" fill="grey">_fn</text>
<text text-anchor="start" x="461.88" y="-139.25" font-family="Helvetica,sans-Serif" font-size="10.00" fill="grey">p_create_object_notify</text>
<text text-anchor="middle" x="517" y="-128" font-family="Helvetica,sans-Serif" font-size="10.00" fill="grey">_fn</text>
<text text-anchor="middle" x="517" y="-116.75" font-family="Helvetica,sans-Serif" font-size="10.00" fill="grey">p_delete_object_notify_fn</text>
</g>
<!-- Node8&#45;&gt;Node11 -->
<g id="edge14_Node000011_Node000008" class="edge">
<title>Node8&#45;&gt;Node11</title>
<g id="a_edge14_Node000011_Node000008"><a xlink:title=" ">
<path fill="none" stroke="#9a32cd" stroke-dasharray="5,2" d="M520.57,-212.22C496.14,-220.33 470.92,-233.71 456.38,-255.75 441.18,-278.78 467.38,-305.67 487.93,-321.87"/>
<polygon fill="#9a32cd" stroke="#9a32cd" points="521.32,-215.65 529.87,-209.4 519.29,-208.95 521.32,-215.65"/>
</a>
</g>
<text text-anchor="middle" x="476.12" y="-261.5" font-family="Helvetica,sans-Serif" font-size="10.00" fill="grey"> OBJECT</text>
</g>
<!-- Node9 -->
<g id="Node000009" class="node">
<title>Node9</title>
<g id="a_Node000009"><a xlink:title=" ">
<polygon fill="white" stroke="#666666" points="649.25,-441.75 608.5,-441.75 608.5,-422.5 649.25,-422.5 649.25,-441.75"/>
<text text-anchor="middle" x="628.88" y="-428.25" font-family="Helvetica,sans-Serif" font-size="10.00">struct</text>
</a>
</g>
</g>
<!-- Node9&#45;&gt;Node8 -->
<g id="edge10_Node000008_Node000009" class="edge">
<title>Node9&#45;&gt;Node8</title>
<g id="a_edge10_Node000008_Node000009"><a xlink:title=" ">
<path fill="none" stroke="#9a32cd" stroke-dasharray="5,2" d="M633.38,-411.08C639.94,-377.75 649.44,-309.32 630.88,-255.75 624.25,-236.62 608.05,-219.07 597.27,-208.92"/>
<polygon fill="#9a32cd" stroke="#9a32cd" points="630.02,-410.04 631.39,-420.54 636.87,-411.48 630.02,-410.04"/>
</a>
</g>
<text text-anchor="middle" x="647.38" y="-294.75" font-family="Helvetica,sans-Serif" font-size="10.00" fill="grey"> uid</text>
</g>
<!-- Node9&#45;&gt;Node11 -->
<g id="edge17_Node000011_Node000009" class="edge">
<title>Node9&#45;&gt;Node11</title>
<g id="a_edge17_Node000011_Node000009"><a xlink:title=" ">
<path fill="none" stroke="#9a32cd" stroke-dasharray="5,2" d="M609.33,-415.26C594.08,-402.96 572.29,-385.57 552.88,-370.75 545.2,-364.89 536.65,-358.58 529.15,-353.11"/>
<polygon fill="#9a32cd" stroke="#9a32cd" points="606.75,-417.67 616.73,-421.24 611.15,-412.23 606.75,-417.67"/>
</a>
</g>
<text text-anchor="middle" x="605.12" y="-389.38" font-family="Helvetica,sans-Serif" font-size="10.00" fill="grey"> UID</text>
<text text-anchor="middle" x="605.12" y="-378.12" font-family="Helvetica,sans-Serif" font-size="10.00" fill="grey">UID2</text>
</g>
<!-- Node10 -->
<g id="Node000010" class="node">
<title>Node10</title>
<g id="a_Node000010"><a xlink:href="structdunedaq_1_1oks_1_1OksData.html" target="_top" xlink:title="the structure to pass common parameters to various read() methods of OksData and OksObject class">
<polygon fill="white" stroke="#666666" points="621.75,-275 506,-275 506,-255.75 621.75,-255.75 621.75,-275"/>
<text text-anchor="middle" x="563.88" y="-261.5" font-family="Helvetica,sans-Serif" font-size="10.00">dunedaq::oks::OksData</text>
</a>
</g>
</g>
<!-- Node10&#45;&gt;Node8 -->
<g id="edge11_Node000008_Node000010" class="edge">
<title>Node10&#45;&gt;Node8</title>
<g id="a_edge11_Node000008_Node000010"><a xlink:title=" ">
<path fill="none" stroke="#9a32cd" stroke-dasharray="5,2" d="M570.91,-244.65C575.18,-232.68 580.42,-217.98 583.7,-208.77"/>
<polygon fill="#9a32cd" stroke="#9a32cd" points="567.64,-243.39 567.58,-253.98 574.24,-245.74 567.64,-243.39"/>
</a>
</g>
<text text-anchor="middle" x="586.38" y="-228.25" font-family="Helvetica,sans-Serif" font-size="10.00" fill="grey"> data</text>
</g>
<!-- Node11&#45;&gt;Node10 -->
<g id="edge12_Node000010_Node000011" class="edge">
<title>Node11&#45;&gt;Node10</title>
<g id="a_edge12_Node000010_Node000011"><a xlink:title=" ">
<path fill="none" stroke="#9a32cd" stroke-dasharray="5,2" d="M527.28,-313.03C537.5,-300.01 549.6,-284.57 557.01,-275.13"/>
<polygon fill="#9a32cd" stroke="#9a32cd" points="524.62,-310.75 521.21,-320.78 530.13,-315.07 524.62,-310.75"/>
</a>
</g>
<text text-anchor="middle" x="553.38" y="-294.75" font-family="Helvetica,sans-Serif" font-size="10.00" fill="grey"> data</text>
</g>
<!-- Node12 -->
<g id="Node000012" class="node">
<title>Node12</title>
<g id="a_Node000012"><a xlink:href="classdunedaq_1_1oks_1_1OksString.html" target="_top" xlink:title="Class OKS string.">
<polygon fill="white" stroke="#666666" points="569.38,-441.75 448.38,-441.75 448.38,-422.5 569.38,-422.5 569.38,-441.75"/>
<text text-anchor="middle" x="508.88" y="-428.25" font-family="Helvetica,sans-Serif" font-size="10.00">dunedaq::oks::OksString</text>
</a>
</g>
</g>
<!-- Node12&#45;&gt;Node11 -->
<g id="edge15_Node000011_Node000012" class="edge">
<title>Node12&#45;&gt;Node11</title>
<g id="a_edge15_Node000011_Node000012"><a xlink:title=" ">
<path fill="none" stroke="#9a32cd" stroke-dasharray="5,2" d="M508.88,-410.79C508.88,-393.28 508.88,-368.45 508.88,-352.92"/>
<polygon fill="#9a32cd" stroke="#9a32cd" points="505.38,-410.73 508.88,-420.73 512.38,-410.73 505.38,-410.73"/>
</a>
</g>
<text text-anchor="middle" x="528.75" y="-395" font-family="Helvetica,sans-Serif" font-size="10.00" fill="grey"> STRING</text>
<text text-anchor="middle" x="528.75" y="-383.75" font-family="Helvetica,sans-Serif" font-size="10.00" fill="grey">class_id</text>
<text text-anchor="middle" x="528.75" y="-372.5" font-family="Helvetica,sans-Serif" font-size="10.00" fill="grey">object_id</text>
</g>
<!-- Node13 -->
<g id="Node000013" class="node">
<title>Node13</title>
<g id="a_Node000013"><a xlink:title=" ">
<polygon fill="white" stroke="#666666" points="537.88,-508.25 479.88,-508.25 479.88,-489 537.88,-489 537.88,-508.25"/>
<text text-anchor="middle" x="508.88" y="-494.75" font-family="Helvetica,sans-Serif" font-size="10.00">std::string</text>
</a>
</g>
</g>
<!-- Node13&#45;&gt;Node12 -->
<g id="edge16_Node000012_Node000013" class="edge">
<title>Node13&#45;&gt;Node12</title>
<g id="a_edge16_Node000012_Node000013"><a xlink:title=" ">
<path fill="none" stroke="#63b8ff" d="M508.88,-477.15C508.88,-465.32 508.88,-451.04 508.88,-442.02"/>
<polygon fill="#63b8ff" stroke="#63b8ff" points="505.38,-477.14 508.88,-487.14 512.38,-477.14 505.38,-477.14"/>
</a>
</g>
</g>
<!-- Node14 -->
<g id="Node000014" class="node">
<title>Node14</title>
<g id="a_Node000014"><a xlink:href="classdunedaq_1_1conffwk_1_1map.html" target="_top" xlink:title=" ">
<polygon fill="white" stroke="#666666" points="398.25,-508.25 261.5,-508.25 261.5,-489 398.25,-489 398.25,-508.25"/>
<text text-anchor="middle" x="329.88" y="-494.75" font-family="Helvetica,sans-Serif" font-size="10.00">dunedaq::conffwk::map&lt; T &gt;</text>
</a>
</g>
</g>
<!-- Node14&#45;&gt;Node3 -->
<g id="edge20_Node000003_Node000014" class="edge">
<title>Node14&#45;&gt;Node3</title>
<g id="a_edge20_Node000003_Node000014"><a xlink:title=" ">
<path fill="none" stroke="#9a32cd" stroke-dasharray="5,2" d="M329.88,-477.15C329.88,-465.32 329.88,-451.04 329.88,-442.02"/>
<polygon fill="#9a32cd" stroke="#9a32cd" points="326.38,-477.14 329.88,-487.14 333.38,-477.14 326.38,-477.14"/>
</a>
</g>
<text text-anchor="middle" x="356.12" y="-461.5" font-family="Helvetica,sans-Serif" font-size="10.00" fill="grey"> p_data_info</text>
</g>
<!-- Node15 -->
<g id="Node000015" class="node">
<title>Node15</title>
<g id="a_Node000015"><a xlink:title=" ">
<polygon fill="white" stroke="#666666" points="380.25,-575.75 279.5,-575.75 279.5,-545.25 380.25,-545.25 380.25,-575.75"/>
<text text-anchor="start" x="287.5" y="-562.25" font-family="Helvetica,sans-Serif" font-size="10.00">std::unordered_map</text>
<text text-anchor="middle" x="329.88" y="-551" font-family="Helvetica,sans-Serif" font-size="10.00">&lt; std::string, T &gt;</text>
</a>
</g>
</g>
<!-- Node15&#45;&gt;Node14 -->
<g id="edge21_Node000014_Node000015" class="edge">
<title>Node15&#45;&gt;Node14</title>
<g id="a_edge21_Node000014_Node000015"><a xlink:title=" ">
<path fill="none" stroke="#63b8ff" d="M329.88,-533.77C329.88,-524.79 329.88,-515.29 329.88,-508.6"/>
<polygon fill="#63b8ff" stroke="#63b8ff" points="326.38,-533.49 329.88,-543.49 333.38,-533.49 326.38,-533.49"/>
</a>
</g>
</g>
</g>
</svg>
