<?xml version="1.0" encoding="UTF-8" standalone="no"?>
<!DOCTYPE svg PUBLIC "-//W3C//DTD SVG 1.1//EN"
 "http://www.w3.org/Graphics/SVG/1.1/DTD/svg11.dtd">
<!-- Generated by graphviz version 9.0.0 (20230911.1827)
 -->
<!-- Title: dunedaq::datahandlinglibs::DataHandlingModel&lt; ReadoutType, RequestHandlerType, LatencyBufferType, RawDataProcessorType &gt; Pages: 1 -->
<svg width="1018pt" height="153pt"
 viewBox="0.00 0.00 1017.50 152.88" xmlns="http://www.w3.org/2000/svg" xmlns:xlink="http://www.w3.org/1999/xlink">
<g id="graph0" class="graph" transform="scale(1 1) rotate(0) translate(4 148.88)">
<title>dunedaq::datahandlinglibs::DataHandlingModel&lt; ReadoutType, RequestHandlerType, LatencyBufferType, RawDataProcessorType &gt;</title>
<!-- Node1 -->
<g id="Node000001" class="node">
<title>Node1</title>
<g id="a_Node000001"><a xlink:title=" ">
<polygon fill="#999999" stroke="#666666" points="1009.5,-90.75 811.25,-90.75 811.25,-37.75 1009.5,-37.75 1009.5,-90.75"/>
<text text-anchor="start" x="819.25" y="-77.25" font-family="Helvetica,sans-Serif" font-size="10.00">dunedaq::datahandlinglibs</text>
<text text-anchor="start" x="819.25" y="-66" font-family="Helvetica,sans-Serif" font-size="10.00">::DataHandlingModel&lt; ReadoutType,</text>
<text text-anchor="start" x="819.25" y="-54.75" font-family="Helvetica,sans-Serif" font-size="10.00"> RequestHandlerType, LatencyBufferType,</text>
<text text-anchor="middle" x="910.38" y="-43.5" font-family="Helvetica,sans-Serif" font-size="10.00"> RawDataProcessorType &gt;</text>
</a>
</g>
</g>
<!-- Node2 -->
<g id="Node000002" class="node">
<title>Node2</title>
<g id="a_Node000002"><a xlink:href="classdunedaq_1_1datahandlinglibs_1_1DataHandlingConcept.html" target="_top" xlink:title=" ">
<polygon fill="white" stroke="#666666" points="684.5,-128.5 557.5,-128.5 557.5,-98 684.5,-98 684.5,-128.5"/>
<text text-anchor="start" x="565.5" y="-115" font-family="Helvetica,sans-Serif" font-size="10.00">dunedaq::datahandlinglibs</text>
<text text-anchor="middle" x="621" y="-103.75" font-family="Helvetica,sans-Serif" font-size="10.00">::DataHandlingConcept</text>
</a>
</g>
</g>
<!-- Node2&#45;&gt;Node1 -->
<g id="edge1_Node000001_Node000002" class="edge">
<title>Node2&#45;&gt;Node1</title>
<g id="a_edge1_Node000001_Node000002"><a xlink:title=" ">
<path fill="none" stroke="#63b8ff" d="M695.81,-100.66C730.84,-94.69 773.2,-87.47 810.92,-81.04"/>
<polygon fill="#63b8ff" stroke="#63b8ff" points="695.47,-97.17 686.2,-102.3 696.65,-104.07 695.47,-97.17"/>
</a>
</g>
</g>
<!-- Node3 -->
<g id="Node000003" class="node">
<title>Node3</title>
<g id="a_Node000003"><a xlink:href="classdunedaq_1_1opmonlib_1_1MonitorableObject.html" target="_top" xlink:title=" ">
<polygon fill="white" stroke="#666666" points="520.5,-128.5 419.75,-128.5 419.75,-98 520.5,-98 520.5,-128.5"/>
<text text-anchor="start" x="427.75" y="-115" font-family="Helvetica,sans-Serif" font-size="10.00">dunedaq::opmonlib::</text>
<text text-anchor="middle" x="470.12" y="-103.75" font-family="Helvetica,sans-Serif" font-size="10.00">MonitorableObject</text>
</a>
</g>
</g>
<!-- Node3&#45;&gt;Node2 -->
<g id="edge2_Node000002_Node000003" class="edge">
<title>Node3&#45;&gt;Node2</title>
<g id="a_edge2_Node000002_Node000003"><a xlink:title=" ">
<path fill="none" stroke="#63b8ff" d="M532.15,-113.25C540.4,-113.25 548.86,-113.25 557.14,-113.25"/>
<polygon fill="#63b8ff" stroke="#63b8ff" points="532.21,-109.75 522.21,-113.25 532.21,-116.75 532.21,-109.75"/>
</a>
</g>
</g>
<!-- Node4 -->
<g id="Node000004" class="node">
<title>Node4</title>
<g id="a_Node000004"><a xlink:href="classdunedaq_1_1opmon_1_1OpMonId.html" target="_top" xlink:title=" ">
<polygon fill="white" stroke="#666666" points="328.25,-122.88 197.5,-122.88 197.5,-103.62 328.25,-103.62 328.25,-122.88"/>
<text text-anchor="middle" x="262.88" y="-109.38" font-family="Helvetica,sans-Serif" font-size="10.00">dunedaq::opmon::OpMonId</text>
</a>
</g>
</g>
<!-- Node4&#45;&gt;Node3 -->
<g id="edge3_Node000003_Node000004" class="edge">
<title>Node4&#45;&gt;Node3</title>
<g id="a_edge3_Node000003_Node000004"><a xlink:title=" ">
<path fill="none" stroke="#9a32cd" stroke-dasharray="5,2" d="M339.76,-113.25C366.36,-113.25 395.53,-113.25 419.44,-113.25"/>
<polygon fill="#9a32cd" stroke="#9a32cd" points="340.05,-109.75 330.05,-113.25 340.05,-116.75 340.05,-109.75"/>
</a>
</g>
<text text-anchor="middle" x="374" y="-115" font-family="Helvetica,sans-Serif" font-size="10.00" fill="grey"> m_parent_id</text>
</g>
<!-- Node5 -->
<g id="Node000005" class="node">
<title>Node5</title>
<g id="a_Node000005"><a xlink:title=" ">
<polygon fill="white" stroke="#666666" points="129.62,-144.88 1.12,-144.88 1.12,-125.62 129.62,-125.62 129.62,-144.88"/>
<text text-anchor="middle" x="65.38" y="-131.38" font-family="Helvetica,sans-Serif" font-size="10.00">google::protobuf::Message</text>
</a>
</g>
</g>
<!-- Node5&#45;&gt;Node4 -->
<g id="edge4_Node000004_Node000005" class="edge">
<title>Node5&#45;&gt;Node4</title>
<g id="a_edge4_Node000004_Node000005"><a xlink:title=" ">
<path fill="none" stroke="#63b8ff" d="M141.4,-126.81C159.81,-124.74 179.35,-122.54 197.21,-120.53"/>
<polygon fill="#63b8ff" stroke="#63b8ff" points="141.17,-123.31 131.62,-127.91 141.95,-130.27 141.17,-123.31"/>
</a>
</g>
</g>
<!-- Node6 -->
<g id="Node000006" class="node">
<title>Node6</title>
<g id="a_Node000006"><a xlink:href="structdunedaq_1_1opmon_1_1OpMonId_1_1Impl__.html" target="_top" xlink:title=" ">
<polygon fill="white" stroke="#666666" points="130.75,-107.5 0,-107.5 0,-77 130.75,-77 130.75,-107.5"/>
<text text-anchor="start" x="8" y="-94" font-family="Helvetica,sans-Serif" font-size="10.00">dunedaq::opmon::OpMonId</text>
<text text-anchor="middle" x="65.38" y="-82.75" font-family="Helvetica,sans-Serif" font-size="10.00">::Impl_</text>
</a>
</g>
</g>
<!-- Node6&#45;&gt;Node4 -->
<g id="edge5_Node000004_Node000006" class="edge">
<title>Node6&#45;&gt;Node4</title>
<g id="a_edge5_Node000004_Node000006"><a xlink:title=" ">
<path fill="none" stroke="#9a32cd" stroke-dasharray="5,2" d="M142.59,-100.44C160.65,-102.38 179.74,-104.43 197.22,-106.31"/>
<polygon fill="#9a32cd" stroke="#9a32cd" points="143.02,-96.96 132.71,-99.38 142.28,-103.92 143.02,-96.96"/>
</a>
</g>
<text text-anchor="middle" x="164.12" y="-105" font-family="Helvetica,sans-Serif" font-size="10.00" fill="grey"> _impl_</text>
</g>
<!-- Node7 -->
<g id="Node000007" class="node">
<title>Node7</title>
<g id="a_Node000007"><a xlink:href="structdunedaq_1_1daqdataformats_1_1SourceID.html" target="_top" xlink:title="SourceID is a generalized representation of the source of a piece of data in the DAQ....">
<polygon fill="white" stroke="#666666" points="683.38,-79.5 558.62,-79.5 558.62,-49 683.38,-49 683.38,-79.5"/>
<text text-anchor="start" x="566.62" y="-66" font-family="Helvetica,sans-Serif" font-size="10.00">dunedaq::daqdataformats</text>
<text text-anchor="middle" x="621" y="-54.75" font-family="Helvetica,sans-Serif" font-size="10.00">::SourceID</text>
</a>
</g>
</g>
<!-- Node7&#45;&gt;Node1 -->
<g id="edge6_Node000001_Node000007" class="edge">
<title>Node7&#45;&gt;Node1</title>
<g id="a_edge6_Node000001_Node000007"><a xlink:title=" ">
<path fill="none" stroke="#9a32cd" stroke-dasharray="5,2" d="M694.79,-64.25C729.99,-64.25 772.75,-64.25 810.81,-64.25"/>
<polygon fill="#9a32cd" stroke="#9a32cd" points="695.16,-60.75 685.16,-64.25 695.16,-67.75 695.16,-60.75"/>
</a>
</g>
<text text-anchor="middle" x="747.88" y="-66" font-family="Helvetica,sans-Serif" font-size="10.00" fill="grey"> m_sourceid</text>
</g>
<!-- Node8 -->
<g id="Node000008" class="node">
<title>Node8</title>
<g id="a_Node000008"><a xlink:href="classdunedaq_1_1datahandlinglibs_1_1ReusableThread.html" target="_top" xlink:title=" ">
<polygon fill="white" stroke="#666666" points="684.5,-30.5 557.5,-30.5 557.5,0 684.5,0 684.5,-30.5"/>
<text text-anchor="start" x="565.5" y="-17" font-family="Helvetica,sans-Serif" font-size="10.00">dunedaq::datahandlinglibs</text>
<text text-anchor="middle" x="621" y="-5.75" font-family="Helvetica,sans-Serif" font-size="10.00">::ReusableThread</text>
</a>
</g>
</g>
<!-- Node8&#45;&gt;Node1 -->
<g id="edge7_Node000001_Node000008" class="edge">
<title>Node8&#45;&gt;Node1</title>
<g id="a_edge7_Node000001_Node000008"><a xlink:title=" ">
<path fill="none" stroke="#9a32cd" stroke-dasharray="5,2" d="M696.16,-23.46C726.38,-27.2 761.58,-32.07 793.25,-37.75 799.05,-38.79 805,-39.93 810.99,-41.13"/>
<polygon fill="#9a32cd" stroke="#9a32cd" points="696.7,-19.99 686.35,-22.26 695.85,-26.94 696.7,-19.99"/>
</a>
</g>
<text text-anchor="middle" x="747.88" y="-51.25" font-family="Helvetica,sans-Serif" font-size="10.00" fill="grey"> m_consumer_thread</text>
<text text-anchor="middle" x="747.88" y="-40" font-family="Helvetica,sans-Serif" font-size="10.00" fill="grey">m_timesync_thread</text>
</g>
</g>
</svg>
