<?xml version="1.0" encoding="UTF-8" standalone="no"?>
<!DOCTYPE svg PUBLIC "-//W3C//DTD SVG 1.1//EN"
 "http://www.w3.org/Graphics/SVG/1.1/DTD/svg11.dtd">
<!-- Generated by graphviz version 9.0.0 (20230911.1827)
 -->
<!-- Title: dunedaq::appmodel::DataReaderConf Pages: 1 -->
<svg width="244pt" height="160pt"
 viewBox="0.00 0.00 244.38 160.25" xmlns="http://www.w3.org/2000/svg" xmlns:xlink="http://www.w3.org/1999/xlink">
<g id="graph0" class="graph" transform="scale(1 1) rotate(0) translate(4 156.25)">
<title>dunedaq::appmodel::DataReaderConf</title>
<!-- Node1 -->
<g id="Node000001" class="node">
<title>Node1</title>
<g id="a_Node000001"><a xlink:title=" ">
<polygon fill="#999999" stroke="#666666" points="166.75,-97 63,-97 63,-66.5 166.75,-66.5 166.75,-97"/>
<text text-anchor="start" x="71" y="-83.5" font-family="Helvetica,sans-Serif" font-size="10.00">dunedaq::appmodel::</text>
<text text-anchor="middle" x="114.88" y="-72.25" font-family="Helvetica,sans-Serif" font-size="10.00">DataReaderConf</text>
</a>
</g>
</g>
<!-- Node3 -->
<g id="Node000003" class="node">
<title>Node3</title>
<g id="a_Node000003"><a xlink:href="classdunedaq_1_1appmodel_1_1DPDKReaderConf.html" target="_top" xlink:title=" ">
<polygon fill="white" stroke="#666666" points="103.75,-30.5 0,-30.5 0,0 103.75,0 103.75,-30.5"/>
<text text-anchor="start" x="8" y="-17" font-family="Helvetica,sans-Serif" font-size="10.00">dunedaq::appmodel::</text>
<text text-anchor="middle" x="51.88" y="-5.75" font-family="Helvetica,sans-Serif" font-size="10.00">DPDKReaderConf</text>
</a>
</g>
</g>
<!-- Node1&#45;&gt;Node3 -->
<g id="edge3_Node000001_Node000003" class="edge">
<title>Node1&#45;&gt;Node3</title>
<g id="a_edge3_Node000001_Node000003"><a xlink:title=" ">
<path fill="none" stroke="#63b8ff" d="M86.65,-58.46C77.16,-49.32 67.3,-38.98 60.36,-30.83"/>
<polygon fill="#63b8ff" stroke="#63b8ff" points="84.02,-60.8 93.71,-65.08 88.81,-55.69 84.02,-60.8"/>
</a>
</g>
</g>
<!-- Node1&#45;&gt;Node3 -->
<g id="edge4_Node000001_Node000003" class="edge">
<title>Node1&#45;&gt;Node3</title>
<g id="a_edge4_Node000001_Node000003"><a xlink:title=" ">
<path fill="none" stroke="#63b8ff" d="M98.8,-57.63C90.56,-48.69 80.59,-38.74 71.87,-30.83"/>
<polygon fill="#63b8ff" stroke="#63b8ff" points="96.07,-59.84 105.33,-64.98 101.31,-55.18 96.07,-59.84"/>
</a>
</g>
</g>
<!-- Node4 -->
<g id="Node000004" class="node">
<title>Node4</title>
<g id="a_Node000004"><a xlink:href="classdunedaq_1_1appmodel_1_1HSI2TCTranslatorConf.html" target="_top" xlink:title=" ">
<polygon fill="white" stroke="#666666" points="236.38,-30.5 121.38,-30.5 121.38,0 236.38,0 236.38,-30.5"/>
<text text-anchor="start" x="129.38" y="-17" font-family="Helvetica,sans-Serif" font-size="10.00">dunedaq::appmodel::</text>
<text text-anchor="middle" x="178.88" y="-5.75" font-family="Helvetica,sans-Serif" font-size="10.00">HSI2TCTranslatorConf</text>
</a>
</g>
</g>
<!-- Node1&#45;&gt;Node4 -->
<g id="edge5_Node000001_Node000004" class="edge">
<title>Node1&#45;&gt;Node4</title>
<g id="a_edge5_Node000001_Node000004"><a xlink:title=" ">
<path fill="none" stroke="#63b8ff" d="M131.31,-57.63C139.69,-48.69 149.82,-38.74 158.66,-30.83"/>
<polygon fill="#63b8ff" stroke="#63b8ff" points="128.77,-55.23 124.65,-64.99 133.96,-59.92 128.77,-55.23"/>
</a>
</g>
</g>
<!-- Node1&#45;&gt;Node4 -->
<g id="edge6_Node000001_Node000004" class="edge">
<title>Node1&#45;&gt;Node4</title>
<g id="a_edge6_Node000001_Node000004"><a xlink:title=" ">
<path fill="none" stroke="#63b8ff" d="M143.44,-58.46C153.08,-49.32 163.1,-38.98 170.16,-30.83"/>
<polygon fill="#63b8ff" stroke="#63b8ff" points="141.24,-55.73 136.27,-65.09 145.99,-60.87 141.24,-55.73"/>
</a>
</g>
</g>
<!-- Node2 -->
<g id="Node000002" class="node">
<title>Node2</title>
<g id="a_Node000002"><a xlink:href="classdunedaq_1_1conffwk_1_1DalObject.html" target="_top" xlink:title="The base class for any generated DAL object.">
<polygon fill="white" stroke="#666666" points="184,-152.25 45.75,-152.25 45.75,-133 184,-133 184,-152.25"/>
<text text-anchor="middle" x="114.88" y="-138.75" font-family="Helvetica,sans-Serif" font-size="10.00">dunedaq::conffwk::DalObject</text>
</a>
</g>
</g>
<!-- Node2&#45;&gt;Node1 -->
<g id="edge1_Node000001_Node000002" class="edge">
<title>Node2&#45;&gt;Node1</title>
<g id="a_edge1_Node000001_Node000002"><a xlink:title=" ">
<path fill="none" stroke="#63b8ff" d="M108.43,-121.42C107.89,-113.49 108.07,-104.56 108.96,-97.28"/>
<polygon fill="#63b8ff" stroke="#63b8ff" points="104.94,-121.7 109.67,-131.18 111.88,-120.82 104.94,-121.7"/>
</a>
</g>
</g>
<!-- Node2&#45;&gt;Node1 -->
<g id="edge2_Node000001_Node000002" class="edge">
<title>Node2&#45;&gt;Node1</title>
<g id="a_edge2_Node000001_Node000002"><a xlink:title=" ">
<path fill="none" stroke="#63b8ff" d="M121.32,-121.42C121.86,-113.49 121.68,-104.56 120.79,-97.28"/>
<polygon fill="#63b8ff" stroke="#63b8ff" points="117.87,-120.82 120.08,-131.18 124.81,-121.7 117.87,-120.82"/>
</a>
</g>
</g>
</g>
</svg>
