<?xml version="1.0" encoding="UTF-8" standalone="no"?>
<!DOCTYPE svg PUBLIC "-//W3C//DTD SVG 1.1//EN"
 "http://www.w3.org/Graphics/SVG/1.1/DTD/svg11.dtd">
<!-- Generated by graphviz version 9.0.0 (20230911.1827)
 -->
<!-- Title: dunedaq::timinglibs::dal::TimingHardwareInterfaceConf Pages: 1 -->
<svg width="553pt" height="88pt"
 viewBox="0.00 0.00 552.50 87.50" xmlns="http://www.w3.org/2000/svg" xmlns:xlink="http://www.w3.org/1999/xlink">
<g id="graph0" class="graph" transform="scale(1 1) rotate(0) translate(4 83.5)">
<title>dunedaq::timinglibs::dal::TimingHardwareInterfaceConf</title>
<!-- Node1 -->
<g id="Node000001" class="node">
<title>Node1</title>
<g id="a_Node000001"><a xlink:title=" ">
<polygon fill="#999999" stroke="#666666" points="341.75,-54.5 174.25,-54.5 174.25,-24 341.75,-24 341.75,-54.5"/>
<text text-anchor="start" x="182.25" y="-41" font-family="Helvetica,sans-Serif" font-size="10.00">dunedaq::timinglibs</text>
<text text-anchor="middle" x="258" y="-29.75" font-family="Helvetica,sans-Serif" font-size="10.00">::dal::TimingHardwareInterfaceConf</text>
</a>
</g>
</g>
<!-- Node3 -->
<g id="Node000003" class="node">
<title>Node3</title>
<g id="a_Node000003"><a xlink:href="classdunedaq_1_1hsilibs_1_1dal_1_1HSIControllerConf.html" target="_top" xlink:title=" ">
<polygon fill="white" stroke="#666666" points="512.25,-79.5 410,-79.5 410,-49 512.25,-49 512.25,-79.5"/>
<text text-anchor="start" x="418" y="-66" font-family="Helvetica,sans-Serif" font-size="10.00">dunedaq::hsilibs::dal</text>
<text text-anchor="middle" x="461.12" y="-54.75" font-family="Helvetica,sans-Serif" font-size="10.00">::HSIControllerConf</text>
</a>
</g>
</g>
<!-- Node1&#45;&gt;Node3 -->
<g id="edge3_Node000001_Node000003" class="edge">
<title>Node1&#45;&gt;Node3</title>
<g id="a_edge3_Node000001_Node000003"><a xlink:title=" ">
<path fill="none" stroke="#63b8ff" d="M353.34,-44.24C372.75,-46.58 392.47,-49.29 409.59,-52.02"/>
<polygon fill="#63b8ff" stroke="#63b8ff" points="353.81,-40.77 343.47,-43.08 352.99,-47.72 353.81,-40.77"/>
</a>
</g>
</g>
<!-- Node1&#45;&gt;Node3 -->
<g id="edge4_Node000001_Node000003" class="edge">
<title>Node1&#45;&gt;Node3</title>
<g id="a_edge4_Node000001_Node000003"><a xlink:title=" ">
<path fill="none" stroke="#63b8ff" d="M344.24,-56.53C366.56,-59.51 389.92,-62.16 409.77,-63.93"/>
<polygon fill="#63b8ff" stroke="#63b8ff" points="344.92,-53.09 334.53,-55.19 343.97,-60.02 344.92,-53.09"/>
</a>
</g>
</g>
<!-- Node4 -->
<g id="Node000004" class="node">
<title>Node4</title>
<g id="a_Node000004"><a xlink:href="classdunedaq_1_1timinglibs_1_1dal_1_1TimingHardwareManagerConf.html" target="_top" xlink:title=" ">
<polygon fill="white" stroke="#666666" points="544.5,-30.5 377.75,-30.5 377.75,0 544.5,0 544.5,-30.5"/>
<text text-anchor="start" x="385.75" y="-17" font-family="Helvetica,sans-Serif" font-size="10.00">dunedaq::timinglibs</text>
<text text-anchor="middle" x="461.12" y="-5.75" font-family="Helvetica,sans-Serif" font-size="10.00">::dal::TimingHardwareManagerConf</text>
</a>
</g>
</g>
<!-- Node1&#45;&gt;Node4 -->
<g id="edge5_Node000001_Node000004" class="edge">
<title>Node1&#45;&gt;Node4</title>
<g id="a_edge5_Node000001_Node000004"><a xlink:title=" ">
<path fill="none" stroke="#63b8ff" d="M346.93,-22.06C357.04,-20.77 367.32,-19.56 377.36,-18.47"/>
<polygon fill="#63b8ff" stroke="#63b8ff" points="346.57,-18.57 337.11,-23.34 347.48,-25.51 346.57,-18.57"/>
</a>
</g>
</g>
<!-- Node1&#45;&gt;Node4 -->
<g id="edge6_Node000001_Node000004" class="edge">
<title>Node1&#45;&gt;Node4</title>
<g id="a_edge6_Node000001_Node000004"><a xlink:title=" ">
<path fill="none" stroke="#63b8ff" d="M353.32,-34.73C363.43,-33.56 373.62,-32.3 383.48,-30.97"/>
<polygon fill="#63b8ff" stroke="#63b8ff" points="353.02,-31.25 343.47,-35.84 353.8,-38.2 353.02,-31.25"/>
</a>
</g>
</g>
<!-- Node2 -->
<g id="Node000002" class="node">
<title>Node2</title>
<g id="a_Node000002"><a xlink:href="classdunedaq_1_1conffwk_1_1DalObject.html" target="_top" xlink:title="The base class for any generated DAL object.">
<polygon fill="white" stroke="#666666" points="138.25,-48.88 0,-48.88 0,-29.62 138.25,-29.62 138.25,-48.88"/>
<text text-anchor="middle" x="69.12" y="-35.38" font-family="Helvetica,sans-Serif" font-size="10.00">dunedaq::conffwk::DalObject</text>
</a>
</g>
</g>
<!-- Node2&#45;&gt;Node1 -->
<g id="edge1_Node000001_Node000002" class="edge">
<title>Node2&#45;&gt;Node1</title>
<g id="a_edge1_Node000001_Node000002"><a xlink:title=" ">
<path fill="none" stroke="#63b8ff" d="M150.08,-32.56C157.96,-32.49 165.97,-32.48 173.88,-32.54"/>
<polygon fill="#63b8ff" stroke="#63b8ff" points="150.11,-29.06 140.16,-32.7 150.21,-36.06 150.11,-29.06"/>
</a>
</g>
</g>
<!-- Node2&#45;&gt;Node1 -->
<g id="edge2_Node000001_Node000002" class="edge">
<title>Node2&#45;&gt;Node1</title>
<g id="a_edge2_Node000001_Node000002"><a xlink:title=" ">
<path fill="none" stroke="#63b8ff" d="M150.08,-45.94C157.96,-46.01 165.97,-46.02 173.88,-45.96"/>
<polygon fill="#63b8ff" stroke="#63b8ff" points="150.21,-42.44 140.16,-45.8 150.11,-49.44 150.21,-42.44"/>
</a>
</g>
</g>
</g>
</svg>
