<?xml version="1.0" encoding="UTF-8" standalone="no"?>
<!DOCTYPE svg PUBLIC "-//W3C//DTD SVG 1.1//EN"
 "http://www.w3.org/Graphics/SVG/1.1/DTD/svg11.dtd">
<!-- Generated by graphviz version 9.0.0 (20230911.1827)
 -->
<!-- Title: wib::ConfigureWIB_ConfigureFEMB Pages: 1 -->
<svg width="296pt" height="105pt"
 viewBox="0.00 0.00 295.50 105.00" xmlns="http://www.w3.org/2000/svg" xmlns:xlink="http://www.w3.org/1999/xlink">
<g id="graph0" class="graph" transform="scale(1 1) rotate(0) translate(4 101)">
<title>wib::ConfigureWIB_ConfigureFEMB</title>
<!-- Node1 -->
<g id="Node000001" class="node">
<title>Node1</title>
<g id="a_Node000001"><a xlink:title=" ">
<polygon fill="#999999" stroke="#666666" points="224,-19.25 56.5,-19.25 56.5,0 224,0 224,-19.25"/>
<text text-anchor="middle" x="140.25" y="-5.75" font-family="Helvetica,sans-Serif" font-size="10.00">wib::ConfigureWIB_ConfigureFEMB</text>
</a>
</g>
</g>
<!-- Node2 -->
<g id="Node000002" class="node">
<title>Node2</title>
<g id="a_Node000002"><a xlink:title=" ">
<polygon fill="white" stroke="#666666" points="128.5,-91.38 0,-91.38 0,-72.12 128.5,-72.12 128.5,-91.38"/>
<text text-anchor="middle" x="64.25" y="-77.88" font-family="Helvetica,sans-Serif" font-size="10.00">google::protobuf::Message</text>
</a>
</g>
</g>
<!-- Node2&#45;&gt;Node1 -->
<g id="edge1_Node000001_Node000002" class="edge">
<title>Node2&#45;&gt;Node1</title>
<g id="a_edge1_Node000001_Node000002"><a xlink:title=" ">
<path fill="none" stroke="#63b8ff" d="M81.96,-64.41C97.07,-50.47 118.23,-30.94 130.46,-19.66"/>
<polygon fill="#63b8ff" stroke="#63b8ff" points="79.96,-61.49 74.99,-70.84 84.71,-66.63 79.96,-61.49"/>
</a>
</g>
</g>
<!-- Node3 -->
<g id="Node000003" class="node">
<title>Node3</title>
<g id="a_Node000003"><a xlink:href="structwib_1_1ConfigureWIB__ConfigureFEMB_1_1Impl__.html" target="_top" xlink:title=" ">
<polygon fill="white" stroke="#666666" points="287.5,-97 147,-97 147,-66.5 287.5,-66.5 287.5,-97"/>
<text text-anchor="start" x="155" y="-83.5" font-family="Helvetica,sans-Serif" font-size="10.00">wib::ConfigureWIB_Configure</text>
<text text-anchor="middle" x="217.25" y="-72.25" font-family="Helvetica,sans-Serif" font-size="10.00">FEMB::Impl_</text>
</a>
</g>
</g>
<!-- Node3&#45;&gt;Node1 -->
<g id="edge2_Node000001_Node000003" class="edge">
<title>Node3&#45;&gt;Node1</title>
<g id="a_edge2_Node000001_Node000003"><a xlink:title=" ">
<path fill="none" stroke="#9a32cd" stroke-dasharray="5,2" d="M193.13,-58.79C178.5,-45.46 160.64,-29.19 149.87,-19.38"/>
<polygon fill="#9a32cd" stroke="#9a32cd" points="190.43,-61.06 200.18,-65.2 195.14,-55.88 190.43,-61.06"/>
</a>
</g>
<text text-anchor="middle" x="196.62" y="-39" font-family="Helvetica,sans-Serif" font-size="10.00" fill="grey"> _impl_</text>
</g>
</g>
</svg>
