<?xml version="1.0" encoding="UTF-8" standalone="no"?>
<!DOCTYPE svg PUBLIC "-//W3C//DTD SVG 1.1//EN"
 "http://www.w3.org/Graphics/SVG/1.1/DTD/svg11.dtd">
<!-- Generated by graphviz version 9.0.0 (20230911.1827)
 -->
<!-- Title: dunedaq::datahandlinglibs::RequestHandlerConcept&lt; ReadoutType, LatencyBufferType &gt; Pages: 1 -->
<svg width="986pt" height="345pt"
 viewBox="0.00 0.00 985.75 345.38" xmlns="http://www.w3.org/2000/svg" xmlns:xlink="http://www.w3.org/1999/xlink">
<g id="graph0" class="graph" transform="scale(1 1) rotate(0) translate(4 341.38)">
<title>dunedaq::datahandlinglibs::RequestHandlerConcept&lt; ReadoutType, LatencyBufferType &gt;</title>
<!-- Node1 -->
<g id="Node000001" class="node">
<title>Node1</title>
<g id="a_Node000001"><a xlink:title=" ">
<polygon fill="#999999" stroke="#666666" points="312.5,-213.75 136.75,-213.75 136.75,-172 312.5,-172 312.5,-213.75"/>
<text text-anchor="start" x="144.75" y="-200.25" font-family="Helvetica,sans-Serif" font-size="10.00">dunedaq::datahandlinglibs</text>
<text text-anchor="start" x="144.75" y="-189" font-family="Helvetica,sans-Serif" font-size="10.00">::RequestHandlerConcept</text>
<text text-anchor="middle" x="224.62" y="-177.75" font-family="Helvetica,sans-Serif" font-size="10.00">&lt; ReadoutType, LatencyBufferType &gt;</text>
</a>
</g>
</g>
<!-- Node3 -->
<g id="Node000003" class="node">
<title>Node3</title>
<g id="a_Node000003"><a xlink:href="classdunedaq_1_1datahandlinglibs_1_1DefaultRequestHandlerModel.html" target="_top" xlink:title=" ">
<polygon fill="white" stroke="#666666" points="547.5,-337.38 367.25,-337.38 367.25,-284.38 547.5,-284.38 547.5,-337.38"/>
<text text-anchor="start" x="375.25" y="-323.88" font-family="Helvetica,sans-Serif" font-size="10.00">dunedaq::datahandlinglibs</text>
<text text-anchor="start" x="375.25" y="-312.62" font-family="Helvetica,sans-Serif" font-size="10.00">::DefaultRequestHandlerModel</text>
<text text-anchor="start" x="375.25" y="-301.38" font-family="Helvetica,sans-Serif" font-size="10.00">&lt; T, datahandlinglibs::SkipListLatency</text>
<text text-anchor="middle" x="457.38" y="-290.12" font-family="Helvetica,sans-Serif" font-size="10.00">BufferModel&lt; T &gt; &gt;</text>
</a>
</g>
</g>
<!-- Node1&#45;&gt;Node3 -->
<g id="edge2_Node000001_Node000003" class="edge">
<title>Node1&#45;&gt;Node3</title>
<g id="a_edge2_Node000001_Node000003"><a xlink:title=" ">
<path fill="none" stroke="#63b8ff" d="M261.62,-220.63C285.32,-237.94 317.59,-259.74 348.5,-274.88 355.06,-278.09 361.98,-281.12 369.01,-283.97"/>
<polygon fill="#63b8ff" stroke="#63b8ff" points="263.99,-218.03 253.87,-214.89 259.82,-223.65 263.99,-218.03"/>
</a>
</g>
</g>
<!-- Node5 -->
<g id="Node000005" class="node">
<title>Node5</title>
<g id="a_Node000005"><a xlink:href="classdunedaq_1_1datahandlinglibs_1_1DefaultRequestHandlerModel.html" target="_top" xlink:title=" ">
<polygon fill="white" stroke="#666666" points="566.25,-266 348.5,-266 348.5,-201.75 566.25,-201.75 566.25,-266"/>
<text text-anchor="start" x="356.5" y="-252.5" font-family="Helvetica,sans-Serif" font-size="10.00">dunedaq::datahandlinglibs</text>
<text text-anchor="start" x="356.5" y="-241.25" font-family="Helvetica,sans-Serif" font-size="10.00">::DefaultRequestHandlerModel</text>
<text text-anchor="start" x="356.5" y="-230" font-family="Helvetica,sans-Serif" font-size="10.00">&lt; types::DAPHNESuperChunkTypeAdapter,</text>
<text text-anchor="start" x="356.5" y="-218.75" font-family="Helvetica,sans-Serif" font-size="10.00"> datahandlinglibs::SkipListLatencyBufferModel</text>
<text text-anchor="middle" x="457.38" y="-207.5" font-family="Helvetica,sans-Serif" font-size="10.00">&lt; types::DAPHNESuperChunkTypeAdapter &gt; &gt;</text>
</a>
</g>
</g>
<!-- Node1&#45;&gt;Node5 -->
<g id="edge4_Node000001_Node000005" class="edge">
<title>Node1&#45;&gt;Node5</title>
<g id="a_edge4_Node000001_Node000005"><a xlink:title=" ">
<path fill="none" stroke="#63b8ff" d="M324.01,-210.36C331.95,-211.77 340.01,-213.2 348.02,-214.62"/>
<polygon fill="#63b8ff" stroke="#63b8ff" points="324.81,-206.94 314.35,-208.64 323.59,-213.84 324.81,-206.94"/>
</a>
</g>
</g>
<!-- Node7 -->
<g id="Node000007" class="node">
<title>Node7</title>
<g id="a_Node000007"><a xlink:href="classdunedaq_1_1datahandlinglibs_1_1DefaultRequestHandlerModel.html" target="_top" xlink:title=" ">
<polygon fill="white" stroke="#666666" points="552.38,-184 362.38,-184 362.38,-119.75 552.38,-119.75 552.38,-184"/>
<text text-anchor="start" x="370.38" y="-170.5" font-family="Helvetica,sans-Serif" font-size="10.00">dunedaq::datahandlinglibs</text>
<text text-anchor="start" x="370.38" y="-159.25" font-family="Helvetica,sans-Serif" font-size="10.00">::DefaultRequestHandlerModel</text>
<text text-anchor="start" x="370.38" y="-148" font-family="Helvetica,sans-Serif" font-size="10.00">&lt; TriggerPrimitiveTypeAdapter,</text>
<text text-anchor="start" x="370.38" y="-136.75" font-family="Helvetica,sans-Serif" font-size="10.00"> datahandlinglibs::SkipListLatencyBuffer</text>
<text text-anchor="middle" x="457.38" y="-125.5" font-family="Helvetica,sans-Serif" font-size="10.00">Model&lt; TriggerPrimitiveTypeAdapter &gt; &gt;</text>
</a>
</g>
</g>
<!-- Node1&#45;&gt;Node7 -->
<g id="edge6_Node000001_Node000007" class="edge">
<title>Node1&#45;&gt;Node7</title>
<g id="a_edge6_Node000001_Node000007"><a xlink:title=" ">
<path fill="none" stroke="#63b8ff" d="M323.9,-175.41C336.55,-173.17 349.49,-170.87 362.08,-168.63"/>
<polygon fill="#63b8ff" stroke="#63b8ff" points="323.59,-171.91 314.35,-177.11 324.81,-178.81 323.59,-171.91"/>
</a>
</g>
</g>
<!-- Node8 -->
<g id="Node000008" class="node">
<title>Node8</title>
<g id="a_Node000008"><a xlink:href="classdunedaq_1_1datahandlinglibs_1_1DefaultRequestHandlerModel.html" target="_top" xlink:title=" ">
<polygon fill="white" stroke="#666666" points="545.25,-101.75 369.5,-101.75 369.5,-60 545.25,-60 545.25,-101.75"/>
<text text-anchor="start" x="377.5" y="-88.25" font-family="Helvetica,sans-Serif" font-size="10.00">dunedaq::datahandlinglibs</text>
<text text-anchor="start" x="377.5" y="-77" font-family="Helvetica,sans-Serif" font-size="10.00">::DefaultRequestHandlerModel</text>
<text text-anchor="middle" x="457.38" y="-65.75" font-family="Helvetica,sans-Serif" font-size="10.00">&lt; ReadoutType, LatencyBufferType &gt;</text>
</a>
</g>
</g>
<!-- Node1&#45;&gt;Node8 -->
<g id="edge7_Node000001_Node000008" class="edge">
<title>Node1&#45;&gt;Node8</title>
<g id="a_edge7_Node000001_Node000008"><a xlink:title=" ">
<path fill="none" stroke="#63b8ff" d="M260.9,-164.93C284.54,-147.34 317.01,-125.31 348.5,-110.88 355.39,-107.72 362.69,-104.82 370.1,-102.19"/>
<polygon fill="#63b8ff" stroke="#63b8ff" points="259.05,-161.94 253.18,-170.76 263.27,-167.53 259.05,-161.94"/>
</a>
</g>
</g>
<!-- Node2 -->
<g id="Node000002" class="node">
<title>Node2</title>
<g id="a_Node000002"><a xlink:href="classdunedaq_1_1opmonlib_1_1MonitorableObject.html" target="_top" xlink:title=" ">
<polygon fill="white" stroke="#666666" points="100.75,-208.12 0,-208.12 0,-177.62 100.75,-177.62 100.75,-208.12"/>
<text text-anchor="start" x="8" y="-194.62" font-family="Helvetica,sans-Serif" font-size="10.00">dunedaq::opmonlib::</text>
<text text-anchor="middle" x="50.38" y="-183.38" font-family="Helvetica,sans-Serif" font-size="10.00">MonitorableObject</text>
</a>
</g>
</g>
<!-- Node2&#45;&gt;Node1 -->
<g id="edge1_Node000001_Node000002" class="edge">
<title>Node2&#45;&gt;Node1</title>
<g id="a_edge1_Node000001_Node000002"><a xlink:title=" ">
<path fill="none" stroke="#63b8ff" d="M112.61,-192.88C120.29,-192.88 128.27,-192.88 136.26,-192.88"/>
<polygon fill="#63b8ff" stroke="#63b8ff" points="112.71,-189.38 102.71,-192.88 112.71,-196.38 112.71,-189.38"/>
</a>
</g>
</g>
<!-- Node4 -->
<g id="Node000004" class="node">
<title>Node4</title>
<g id="a_Node000004"><a xlink:href="classdunedaq_1_1datahandlinglibs_1_1DefaultSkipListRequestHandler.html" target="_top" xlink:title=" ">
<polygon fill="white" stroke="#666666" points="793,-326.12 613.5,-326.12 613.5,-295.62 793,-295.62 793,-326.12"/>
<text text-anchor="start" x="621.5" y="-312.62" font-family="Helvetica,sans-Serif" font-size="10.00">dunedaq::datahandlinglibs</text>
<text text-anchor="middle" x="703.25" y="-301.38" font-family="Helvetica,sans-Serif" font-size="10.00">::DefaultSkipListRequestHandler&lt; T &gt;</text>
</a>
</g>
</g>
<!-- Node3&#45;&gt;Node4 -->
<g id="edge3_Node000003_Node000004" class="edge">
<title>Node3&#45;&gt;Node4</title>
<g id="a_edge3_Node000003_Node000004"><a xlink:title=" ">
<path fill="none" stroke="#63b8ff" d="M559.17,-310.88C577.11,-310.88 595.67,-310.88 613.24,-310.88"/>
<polygon fill="#63b8ff" stroke="#63b8ff" points="559.31,-307.38 549.31,-310.88 559.31,-314.38 559.31,-307.38"/>
</a>
</g>
</g>
<!-- Node6 -->
<g id="Node000006" class="node">
<title>Node6</title>
<g id="a_Node000006"><a xlink:href="classdunedaq_1_1fdreadoutlibs_1_1DAPHNEListRequestHandler.html" target="_top" xlink:title=" ">
<polygon fill="white" stroke="#666666" points="777.25,-249.12 629.25,-249.12 629.25,-218.62 777.25,-218.62 777.25,-249.12"/>
<text text-anchor="start" x="637.25" y="-235.62" font-family="Helvetica,sans-Serif" font-size="10.00">dunedaq::fdreadoutlibs</text>
<text text-anchor="middle" x="703.25" y="-224.38" font-family="Helvetica,sans-Serif" font-size="10.00">::DAPHNEListRequestHandler</text>
</a>
</g>
</g>
<!-- Node5&#45;&gt;Node6 -->
<g id="edge5_Node000005_Node000006" class="edge">
<title>Node5&#45;&gt;Node6</title>
<g id="a_edge5_Node000005_Node000006"><a xlink:title=" ">
<path fill="none" stroke="#63b8ff" d="M577.85,-233.88C595.3,-233.88 612.81,-233.88 628.96,-233.88"/>
<polygon fill="#63b8ff" stroke="#63b8ff" points="577.92,-230.38 567.92,-233.88 577.92,-237.38 577.92,-230.38"/>
</a>
</g>
</g>
<!-- Node9 -->
<g id="Node000009" class="node">
<title>Node9</title>
<g id="a_Node000009"><a xlink:href="classdunedaq_1_1datahandlinglibs_1_1DefaultSkipListRequestHandler.html" target="_top" xlink:title=" ">
<polygon fill="white" stroke="#666666" points="781.75,-161.75 624.75,-161.75 624.75,-120 781.75,-120 781.75,-161.75"/>
<text text-anchor="start" x="632.75" y="-148.25" font-family="Helvetica,sans-Serif" font-size="10.00">dunedaq::datahandlinglibs</text>
<text text-anchor="start" x="632.75" y="-137" font-family="Helvetica,sans-Serif" font-size="10.00">::DefaultSkipListRequestHandler</text>
<text text-anchor="middle" x="703.25" y="-125.75" font-family="Helvetica,sans-Serif" font-size="10.00">&lt; TriggerPrimitiveTypeAdapter &gt;</text>
</a>
</g>
</g>
<!-- Node8&#45;&gt;Node9 -->
<g id="edge8_Node000008_Node000009" class="edge">
<title>Node8&#45;&gt;Node9</title>
<g id="a_edge8_Node000008_Node000009"><a xlink:title=" ">
<path fill="none" stroke="#63b8ff" d="M556.08,-104.91C578.79,-110.5 602.67,-116.37 624.39,-121.72"/>
<polygon fill="#63b8ff" stroke="#63b8ff" points="557.06,-101.55 546.51,-102.56 555.39,-108.35 557.06,-101.55"/>
</a>
</g>
</g>
<!-- Node11 -->
<g id="Node000011" class="node">
<title>Node11</title>
<g id="a_Node000011"><a xlink:href="classdunedaq_1_1datahandlinglibs_1_1EmptyFragmentRequestHandlerModel.html" target="_top" xlink:title=" ">
<polygon fill="white" stroke="#666666" points="795.62,-101.75 610.88,-101.75 610.88,-60 795.62,-60 795.62,-101.75"/>
<text text-anchor="start" x="618.88" y="-88.25" font-family="Helvetica,sans-Serif" font-size="10.00">dunedaq::datahandlinglibs</text>
<text text-anchor="start" x="618.88" y="-77" font-family="Helvetica,sans-Serif" font-size="10.00">::EmptyFragmentRequestHandlerModel</text>
<text text-anchor="middle" x="703.25" y="-65.75" font-family="Helvetica,sans-Serif" font-size="10.00">&lt; ReadoutType, LatencyBufferType &gt;</text>
</a>
</g>
</g>
<!-- Node8&#45;&gt;Node11 -->
<g id="edge10_Node000008_Node000011" class="edge">
<title>Node8&#45;&gt;Node11</title>
<g id="a_edge10_Node000008_Node000011"><a xlink:title=" ">
<path fill="none" stroke="#63b8ff" d="M557.21,-80.88C574.84,-80.88 593.14,-80.88 610.56,-80.88"/>
<polygon fill="#63b8ff" stroke="#63b8ff" points="557.24,-77.38 547.24,-80.88 557.24,-84.38 557.24,-77.38"/>
</a>
</g>
</g>
<!-- Node12 -->
<g id="Node000012" class="node">
<title>Node12</title>
<g id="a_Node000012"><a xlink:href="classdunedaq_1_1datahandlinglibs_1_1ZeroCopyRecordingRequestHandlerModel.html" target="_top" xlink:title=" ">
<polygon fill="white" stroke="#666666" points="804.25,-41.75 602.25,-41.75 602.25,0 804.25,0 804.25,-41.75"/>
<text text-anchor="start" x="610.25" y="-28.25" font-family="Helvetica,sans-Serif" font-size="10.00">dunedaq::datahandlinglibs</text>
<text text-anchor="start" x="610.25" y="-17" font-family="Helvetica,sans-Serif" font-size="10.00">::ZeroCopyRecordingRequestHandler</text>
<text text-anchor="middle" x="703.25" y="-5.75" font-family="Helvetica,sans-Serif" font-size="10.00">Model&lt; ReadoutType, LatencyBufferType &gt;</text>
</a>
</g>
</g>
<!-- Node8&#45;&gt;Node12 -->
<g id="edge11_Node000008_Node000012" class="edge">
<title>Node8&#45;&gt;Node12</title>
<g id="a_edge11_Node000008_Node000012"><a xlink:title=" ">
<path fill="none" stroke="#63b8ff" d="M556.15,-56.82C575.76,-51.99 596.24,-46.96 615.45,-42.23"/>
<polygon fill="#63b8ff" stroke="#63b8ff" points="555.39,-53.4 546.51,-59.19 557.06,-60.2 555.39,-53.4"/>
</a>
</g>
</g>
<!-- Node10 -->
<g id="Node000010" class="node">
<title>Node10</title>
<g id="a_Node000010"><a xlink:href="classdunedaq_1_1trigger_1_1TPRequestHandler.html" target="_top" xlink:title=" ">
<polygon fill="white" stroke="#666666" points="977.75,-156.12 840.25,-156.12 840.25,-125.62 977.75,-125.62 977.75,-156.12"/>
<text text-anchor="start" x="848.25" y="-142.62" font-family="Helvetica,sans-Serif" font-size="10.00">dunedaq::trigger::TPRequest</text>
<text text-anchor="middle" x="909" y="-131.38" font-family="Helvetica,sans-Serif" font-size="10.00">Handler</text>
</a>
</g>
</g>
<!-- Node9&#45;&gt;Node10 -->
<g id="edge9_Node000009_Node000010" class="edge">
<title>Node9&#45;&gt;Node10</title>
<g id="a_edge9_Node000009_Node000010"><a xlink:title=" ">
<path fill="none" stroke="#63b8ff" d="M793.39,-140.88C808.95,-140.88 824.91,-140.88 839.8,-140.88"/>
<polygon fill="#63b8ff" stroke="#63b8ff" points="793.66,-137.38 783.66,-140.88 793.66,-144.38 793.66,-137.38"/>
</a>
</g>
</g>
</g>
</svg>
