<?xml version="1.0" encoding="UTF-8" standalone="no"?>
<!DOCTYPE svg PUBLIC "-//W3C//DTD SVG 1.1//EN"
 "http://www.w3.org/Graphics/SVG/1.1/DTD/svg11.dtd">
<!-- Generated by graphviz version 9.0.0 (20230911.1827)
 -->
<!-- Title: dunedaq::datahandlinglibs::opmon::RequestHandlerInfo Pages: 1 -->
<svg width="384pt" height="76pt"
 viewBox="0.00 0.00 384.25 75.88" xmlns="http://www.w3.org/2000/svg" xmlns:xlink="http://www.w3.org/1999/xlink">
<g id="graph0" class="graph" transform="scale(1 1) rotate(0) translate(4 71.88)">
<title>dunedaq::datahandlinglibs::opmon::RequestHandlerInfo</title>
<!-- Node1 -->
<g id="Node000001" class="node">
<title>Node1</title>
<g id="a_Node000001"><a xlink:title=" ">
<polygon fill="#999999" stroke="#666666" points="376.25,-51.5 235.75,-51.5 235.75,-21 376.25,-21 376.25,-51.5"/>
<text text-anchor="start" x="243.75" y="-38" font-family="Helvetica,sans-Serif" font-size="10.00">dunedaq::datahandlinglibs</text>
<text text-anchor="middle" x="306" y="-26.75" font-family="Helvetica,sans-Serif" font-size="10.00">::opmon::RequestHandlerInfo</text>
</a>
</g>
</g>
<!-- Node2 -->
<g id="Node000002" class="node">
<title>Node2</title>
<g id="a_Node000002"><a xlink:title=" ">
<polygon fill="white" stroke="#666666" points="148.75,-67.88 20.25,-67.88 20.25,-48.62 148.75,-48.62 148.75,-67.88"/>
<text text-anchor="middle" x="84.5" y="-54.38" font-family="Helvetica,sans-Serif" font-size="10.00">google::protobuf::Message</text>
</a>
</g>
</g>
<!-- Node2&#45;&gt;Node1 -->
<g id="edge1_Node000001_Node000002" class="edge">
<title>Node2&#45;&gt;Node1</title>
<g id="a_edge1_Node000001_Node000002"><a xlink:title=" ">
<path fill="none" stroke="#63b8ff" d="M160.34,-50.75C184.68,-48.31 211.57,-45.61 235.51,-43.22"/>
<polygon fill="#63b8ff" stroke="#63b8ff" points="160.1,-47.26 150.49,-51.74 160.79,-54.22 160.1,-47.26"/>
</a>
</g>
</g>
<!-- Node3 -->
<g id="Node000003" class="node">
<title>Node3</title>
<g id="a_Node000003"><a xlink:href="structdunedaq_1_1datahandlinglibs_1_1opmon_1_1RequestHandlerInfo_1_1Impl__.html" target="_top" xlink:title=" ">
<polygon fill="white" stroke="#666666" points="169,-30.5 0,-30.5 0,0 169,0 169,-30.5"/>
<text text-anchor="start" x="8" y="-17" font-family="Helvetica,sans-Serif" font-size="10.00">dunedaq::datahandlinglibs</text>
<text text-anchor="middle" x="84.5" y="-5.75" font-family="Helvetica,sans-Serif" font-size="10.00">::opmon::RequestHandlerInfo::Impl_</text>
</a>
</g>
</g>
<!-- Node3&#45;&gt;Node1 -->
<g id="edge2_Node000001_Node000003" class="edge">
<title>Node3&#45;&gt;Node1</title>
<g id="a_edge2_Node000001_Node000003"><a xlink:title=" ">
<path fill="none" stroke="#9a32cd" stroke-dasharray="5,2" d="M180.76,-24.36C199.12,-26.12 218.03,-27.93 235.39,-29.59"/>
<polygon fill="#9a32cd" stroke="#9a32cd" points="181.22,-20.89 170.93,-23.42 180.55,-27.86 181.22,-20.89"/>
</a>
</g>
<text text-anchor="middle" x="202.38" y="-30" font-family="Helvetica,sans-Serif" font-size="10.00" fill="grey"> _impl_</text>
</g>
</g>
</svg>
