<?xml version="1.0" encoding="UTF-8" standalone="no"?>
<!DOCTYPE svg PUBLIC "-//W3C//DTD SVG 1.1//EN"
 "http://www.w3.org/Graphics/SVG/1.1/DTD/svg11.dtd">
<!-- Generated by graphviz version 9.0.0 (20230911.1827)
 -->
<!-- Title: wib::PowerWIB Pages: 1 -->
<svg width="266pt" height="94pt"
 viewBox="0.00 0.00 265.50 93.75" xmlns="http://www.w3.org/2000/svg" xmlns:xlink="http://www.w3.org/1999/xlink">
<g id="graph0" class="graph" transform="scale(1 1) rotate(0) translate(4 89.75)">
<title>wib::PowerWIB</title>
<!-- Node1 -->
<g id="Node000001" class="node">
<title>Node1</title>
<g id="a_Node000001"><a xlink:title=" ">
<polygon fill="#999999" stroke="#666666" points="174.25,-19.25 92.25,-19.25 92.25,0 174.25,0 174.25,-19.25"/>
<text text-anchor="middle" x="133.25" y="-5.75" font-family="Helvetica,sans-Serif" font-size="10.00">wib::PowerWIB</text>
</a>
</g>
</g>
<!-- Node2 -->
<g id="Node000002" class="node">
<title>Node2</title>
<g id="a_Node000002"><a xlink:title=" ">
<polygon fill="white" stroke="#666666" points="128.5,-85.75 0,-85.75 0,-66.5 128.5,-66.5 128.5,-85.75"/>
<text text-anchor="middle" x="64.25" y="-72.25" font-family="Helvetica,sans-Serif" font-size="10.00">google::protobuf::Message</text>
</a>
</g>
</g>
<!-- Node2&#45;&gt;Node1 -->
<g id="edge1_Node000001_Node000002" class="edge">
<title>Node2&#45;&gt;Node1</title>
<g id="a_edge1_Node000001_Node000002"><a xlink:title=" ">
<path fill="none" stroke="#63b8ff" d="M82.22,-58.33C95.5,-45.91 113.06,-29.5 123.74,-19.52"/>
<polygon fill="#63b8ff" stroke="#63b8ff" points="79.87,-55.74 74.95,-65.12 84.65,-60.85 79.87,-55.74"/>
</a>
</g>
</g>
<!-- Node3 -->
<g id="Node000003" class="node">
<title>Node3</title>
<g id="a_Node000003"><a xlink:href="structwib_1_1PowerWIB_1_1Impl__.html" target="_top" xlink:title=" ">
<polygon fill="white" stroke="#666666" points="257.5,-85.75 147,-85.75 147,-66.5 257.5,-66.5 257.5,-85.75"/>
<text text-anchor="middle" x="202.25" y="-72.25" font-family="Helvetica,sans-Serif" font-size="10.00">wib::PowerWIB::Impl_</text>
</a>
</g>
</g>
<!-- Node3&#45;&gt;Node1 -->
<g id="edge2_Node000001_Node000003" class="edge">
<title>Node3&#45;&gt;Node1</title>
<g id="a_edge2_Node000001_Node000003"><a xlink:title=" ">
<path fill="none" stroke="#9a32cd" stroke-dasharray="5,2" d="M184.28,-58.33C171,-45.91 153.44,-29.5 142.76,-19.52"/>
<polygon fill="#9a32cd" stroke="#9a32cd" points="181.85,-60.85 191.55,-65.12 186.63,-55.74 181.85,-60.85"/>
</a>
</g>
<text text-anchor="middle" x="186.62" y="-39" font-family="Helvetica,sans-Serif" font-size="10.00" fill="grey"> _impl_</text>
</g>
</g>
</svg>
