<?xml version="1.0" encoding="UTF-8" standalone="no"?>
<!DOCTYPE svg PUBLIC "-//W3C//DTD SVG 1.1//EN"
 "http://www.w3.org/Graphics/SVG/1.1/DTD/svg11.dtd">
<!-- Generated by graphviz version 9.0.0 (20230911.1827)
 -->
<!-- Title: dunedaq::oks::OksComparator Pages: 1 -->
<svg width="929pt" height="598pt"
 viewBox="0.00 0.00 928.75 598.25" xmlns="http://www.w3.org/2000/svg" xmlns:xlink="http://www.w3.org/1999/xlink">
<g id="graph0" class="graph" transform="scale(1 1) rotate(0) translate(4 594.25)">
<title>dunedaq::oks::OksComparator</title>
<!-- Node1 -->
<g id="Node000001" class="node">
<title>Node1</title>
<g id="a_Node000001"><a xlink:title="OKS query expression comparator class.">
<polygon fill="#999999" stroke="#666666" points="688.88,-97 543.12,-97 543.12,-77.75 688.88,-77.75 688.88,-97"/>
<text text-anchor="middle" x="616" y="-83.5" font-family="Helvetica,sans-Serif" font-size="10.00">dunedaq::oks::OksComparator</text>
</a>
</g>
</g>
<!-- Node2 -->
<g id="Node000002" class="node">
<title>Node2</title>
<g id="a_Node000002"><a xlink:href="classdunedaq_1_1oks_1_1OksQueryExpression.html" target="_top" xlink:title="OKS query expression class.">
<polygon fill="white" stroke="#666666" points="868.12,-210.12 699.88,-210.12 699.88,-190.88 868.12,-190.88 868.12,-210.12"/>
<text text-anchor="middle" x="784" y="-196.62" font-family="Helvetica,sans-Serif" font-size="10.00">dunedaq::oks::OksQueryExpression</text>
</a>
</g>
</g>
<!-- Node2&#45;&gt;Node1 -->
<g id="edge1_Node000001_Node000002" class="edge">
<title>Node2&#45;&gt;Node1</title>
<g id="a_edge1_Node000001_Node000002"><a xlink:title=" ">
<path fill="none" stroke="#63b8ff" d="M761.22,-184.23C735.84,-167.25 693.57,-139.04 657,-115 648.06,-109.13 637.99,-102.58 630.07,-97.46"/>
<polygon fill="#63b8ff" stroke="#63b8ff" points="759.17,-187.07 769.43,-189.73 763.06,-181.26 759.17,-187.07"/>
</a>
</g>
</g>
<!-- Node3 -->
<g id="Node000003" class="node">
<title>Node3</title>
<g id="a_Node000003"><a xlink:href="classdunedaq_1_1oks_1_1OksAttribute.html" target="_top" xlink:title="OKS attribute class.">
<polygon fill="white" stroke="#666666" points="682.12,-210.12 549.88,-210.12 549.88,-190.88 682.12,-190.88 682.12,-210.12"/>
<text text-anchor="middle" x="616" y="-196.62" font-family="Helvetica,sans-Serif" font-size="10.00">dunedaq::oks::OksAttribute</text>
</a>
</g>
</g>
<!-- Node3&#45;&gt;Node1 -->
<g id="edge2_Node000001_Node000003" class="edge">
<title>Node3&#45;&gt;Node1</title>
<g id="a_edge2_Node000001_Node000003"><a xlink:title=" ">
<path fill="none" stroke="#9a32cd" stroke-dasharray="5,2" d="M616,-178.93C616,-154.51 616,-114.88 616,-97.28"/>
<polygon fill="#9a32cd" stroke="#9a32cd" points="612.5,-178.89 616,-188.89 619.5,-178.89 612.5,-178.89"/>
</a>
</g>
<text text-anchor="middle" x="634.75" y="-139.25" font-family="Helvetica,sans-Serif" font-size="10.00" fill="grey"> attribute</text>
</g>
<!-- Node4 -->
<g id="Node000004" class="node">
<title>Node4</title>
<g id="a_Node000004"><a xlink:href="classdunedaq_1_1oks_1_1OksClass.html" target="_top" xlink:title="The OKS class.">
<polygon fill="white" stroke="#666666" points="593.12,-456.25 472.88,-456.25 472.88,-437 593.12,-437 593.12,-456.25"/>
<text text-anchor="middle" x="533" y="-442.75" font-family="Helvetica,sans-Serif" font-size="10.00">dunedaq::oks::OksClass</text>
</a>
</g>
</g>
<!-- Node4&#45;&gt;Node3 -->
<g id="edge3_Node000003_Node000004" class="edge">
<title>Node4&#45;&gt;Node3</title>
<g id="a_edge3_Node000003_Node000004"><a xlink:title=" ">
<path fill="none" stroke="#9a32cd" stroke-dasharray="5,2" d="M539.76,-425.75C556.77,-375.71 600.87,-245.99 612.92,-210.56"/>
<polygon fill="#9a32cd" stroke="#9a32cd" points="536.44,-424.62 536.54,-435.21 543.07,-426.87 536.44,-424.62"/>
</a>
</g>
<text text-anchor="middle" x="598" y="-309.25" font-family="Helvetica,sans-Serif" font-size="10.00" fill="grey"> p_class</text>
</g>
<!-- Node12 -->
<g id="Node000012" class="node">
<title>Node12</title>
<g id="a_Node000012"><a xlink:href="uniondunedaq_1_1oks_1_1OksData_1_1Data.html" target="_top" xlink:title=" ">
<polygon fill="white" stroke="#666666" points="438.88,-367.25 323.12,-367.25 323.12,-336.75 438.88,-336.75 438.88,-367.25"/>
<text text-anchor="start" x="331.12" y="-353.75" font-family="Helvetica,sans-Serif" font-size="10.00">dunedaq::oks::OksData</text>
<text text-anchor="middle" x="381" y="-342.5" font-family="Helvetica,sans-Serif" font-size="10.00">::Data</text>
</a>
</g>
</g>
<!-- Node4&#45;&gt;Node12 -->
<g id="edge14_Node000012_Node000004" class="edge">
<title>Node4&#45;&gt;Node12</title>
<g id="a_edge14_Node000012_Node000004"><a xlink:title=" ">
<path fill="none" stroke="#9a32cd" stroke-dasharray="5,2" d="M498.54,-432.13C489.7,-428.25 480.34,-423.77 472,-419 468.27,-416.87 426.66,-386.47 401.01,-367.68"/>
<polygon fill="#9a32cd" stroke="#9a32cd" points="496.99,-435.27 507.56,-435.95 499.72,-428.83 496.99,-435.27"/>
</a>
</g>
<text text-anchor="middle" x="490" y="-403.88" font-family="Helvetica,sans-Serif" font-size="10.00" fill="grey"> CLASS</text>
<text text-anchor="middle" x="490" y="-392.62" font-family="Helvetica,sans-Serif" font-size="10.00" fill="grey">class_id</text>
</g>
<!-- Node5 -->
<g id="Node000005" class="node">
<title>Node5</title>
<g id="a_Node000005"><a xlink:href="classdunedaq_1_1oks_1_1OksFile.html" target="_top" xlink:title="Provides interface to the OKS XML schema and data files.">
<polygon fill="white" stroke="#666666" points="342.62,-19.25 231.38,-19.25 231.38,0 342.62,0 342.62,-19.25"/>
<text text-anchor="middle" x="287" y="-5.75" font-family="Helvetica,sans-Serif" font-size="10.00">dunedaq::oks::OksFile</text>
</a>
</g>
</g>
<!-- Node5&#45;&gt;Node4 -->
<g id="edge4_Node000004_Node000005" class="edge">
<title>Node5&#45;&gt;Node4</title>
<g id="a_edge4_Node000004_Node000005"><a xlink:title=" ">
<path fill="none" stroke="#9a32cd" stroke-dasharray="5,2" d="M354.4,-12.07C512.9,-16.35 896,-32.29 896,-86.38 896,-353 896,-353 896,-353 896,-414.71 696.57,-435.83 593.35,-442.62"/>
<polygon fill="#9a32cd" stroke="#9a32cd" points="354.53,-8.57 344.44,-11.81 354.35,-15.57 354.53,-8.57"/>
</a>
</g>
<text text-anchor="middle" x="908.38" y="-237.12" font-family="Helvetica,sans-Serif" font-size="10.00" fill="grey"> p_file</text>
</g>
<!-- Node5&#45;&gt;Node5 -->
<g id="edge5_Node000005_Node000005" class="edge">
<title>Node5&#45;&gt;Node5</title>
<g id="a_edge5_Node000005_Node000005"><a xlink:title=" ">
<path fill="none" stroke="#9a32cd" stroke-dasharray="5,2" d="M354.09,-14.69C358.17,-13.48 360.62,-11.8 360.62,-9.62 360.62,-5.87 353.28,-3.56 342.86,-2.71"/>
<polygon fill="#9a32cd" stroke="#9a32cd" points="353.65,-11.21 344.35,-16.29 354.79,-18.12 353.65,-11.21"/>
</a>
</g>
<text text-anchor="middle" x="392.5" y="-5.75" font-family="Helvetica,sans-Serif" font-size="10.00" fill="grey"> p_included_by</text>
</g>
<!-- Node6 -->
<g id="Node000006" class="node">
<title>Node6</title>
<g id="a_Node000006"><a xlink:href="classdunedaq_1_1oks_1_1OksKernel.html" target="_top" xlink:title="Provides interface to the OKS kernel.">
<polygon fill="white" stroke="#666666" points="348.62,-97 225.38,-97 225.38,-77.75 348.62,-77.75 348.62,-97"/>
<text text-anchor="middle" x="287" y="-83.5" font-family="Helvetica,sans-Serif" font-size="10.00">dunedaq::oks::OksKernel</text>
</a>
</g>
</g>
<!-- Node5&#45;&gt;Node6 -->
<g id="edge7_Node000006_Node000005" class="edge">
<title>Node5&#45;&gt;Node6</title>
<g id="a_edge7_Node000006_Node000005"><a xlink:title=" ">
<path fill="none" stroke="#9a32cd" stroke-dasharray="5,2" d="M245.92,-25.41C241.4,-28.64 237.39,-32.54 234.5,-37.25 229.27,-45.77 229.27,-51.23 234.5,-59.75 239.37,-67.67 247.41,-73.33 255.75,-77.33"/>
<polygon fill="#9a32cd" stroke="#9a32cd" points="247.57,-28.5 254.44,-20.44 244.04,-22.45 247.57,-28.5"/>
</a>
</g>
<text text-anchor="middle" x="273.25" y="-50.25" font-family="Helvetica,sans-Serif" font-size="10.00" fill="grey"> p_active_data</text>
<text text-anchor="middle" x="273.25" y="-39" font-family="Helvetica,sans-Serif" font-size="10.00" fill="grey">p_active_schema</text>
</g>
<!-- Node9 -->
<g id="Node000009" class="node">
<title>Node9</title>
<g id="a_Node000009"><a xlink:href="classdunedaq_1_1oks_1_1OksObject.html" target="_top" xlink:title="OksObject describes instance of OksClass.">
<polygon fill="white" stroke="#666666" points="124,-210.12 0,-210.12 0,-190.88 124,-190.88 124,-210.12"/>
<text text-anchor="middle" x="62" y="-196.62" font-family="Helvetica,sans-Serif" font-size="10.00">dunedaq::oks::OksObject</text>
</a>
</g>
</g>
<!-- Node5&#45;&gt;Node9 -->
<g id="edge19_Node000009_Node000005" class="edge">
<title>Node5&#45;&gt;Node9</title>
<g id="a_edge19_Node000009_Node000005"><a xlink:title=" ">
<path fill="none" stroke="#9a32cd" stroke-dasharray="5,2" d="M231.74,-22.66C182.73,-36.36 113.29,-63.83 76,-115 59.19,-138.07 59.72,-174.07 61.03,-190.62"/>
<polygon fill="#9a32cd" stroke="#9a32cd" points="232.58,-26.06 241.34,-20.09 230.77,-19.29 232.58,-26.06"/>
</a>
</g>
<text text-anchor="middle" x="121.12" y="-83.5" font-family="Helvetica,sans-Serif" font-size="10.00" fill="grey"> file</text>
</g>
<!-- Node6&#45;&gt;Node4 -->
<g id="edge20_Node000004_Node000006" class="edge">
<title>Node6&#45;&gt;Node4</title>
<g id="a_edge20_Node000004_Node000006"><a xlink:title=" ">
<path fill="none" stroke="#9a32cd" stroke-dasharray="5,2" d="M328.32,-100.94C340.6,-105.04 353.97,-109.87 366,-115 447.71,-149.88 522,-151.15 522,-240 522,-353 522,-353 522,-353 522,-383.93 528.12,-420.27 531.23,-436.73"/>
<polygon fill="#9a32cd" stroke="#9a32cd" points="329.46,-97.63 318.87,-97.87 327.29,-104.29 329.46,-97.63"/>
</a>
</g>
<text text-anchor="middle" x="541.5" y="-276" font-family="Helvetica,sans-Serif" font-size="10.00" fill="grey"> p_kernel</text>
</g>
<!-- Node6&#45;&gt;Node5 -->
<g id="edge6_Node000005_Node000006" class="edge">
<title>Node6&#45;&gt;Node5</title>
<g id="a_edge6_Node000005_Node000006"><a xlink:title=" ">
<path fill="none" stroke="#9a32cd" stroke-dasharray="5,2" d="M308.72,-69.49C311.27,-66.53 313.49,-63.26 315,-59.75 318.94,-50.56 318.94,-46.44 315,-37.25 311.98,-30.22 306.1,-24.17 300.5,-19.63"/>
<polygon fill="#9a32cd" stroke="#9a32cd" points="306.39,-66.88 301.6,-76.33 311.24,-71.93 306.39,-66.88"/>
</a>
</g>
<text text-anchor="middle" x="337.5" y="-44.62" font-family="Helvetica,sans-Serif" font-size="10.00" fill="grey"> p_kernel</text>
</g>
<!-- Node7 -->
<g id="Node000007" class="node">
<title>Node7</title>
<g id="a_Node000007"><a xlink:href="classdunedaq_1_1oks_1_1OksProfiler.html" target="_top" xlink:title=" ">
<polygon fill="white" stroke="#666666" points="409.75,-210.12 284.25,-210.12 284.25,-190.88 409.75,-190.88 409.75,-210.12"/>
<text text-anchor="middle" x="347" y="-196.62" font-family="Helvetica,sans-Serif" font-size="10.00">dunedaq::oks::OksProfiler</text>
</a>
</g>
</g>
<!-- Node7&#45;&gt;Node6 -->
<g id="edge8_Node000006_Node000007" class="edge">
<title>Node7&#45;&gt;Node6</title>
<g id="a_edge8_Node000006_Node000007"><a xlink:title=" ">
<path fill="none" stroke="#9a32cd" stroke-dasharray="5,2" d="M336.79,-180.59C323.7,-156.35 301.53,-115.29 291.81,-97.28"/>
<polygon fill="#9a32cd" stroke="#9a32cd" points="333.54,-181.94 341.37,-189.07 339.7,-178.61 333.54,-181.94"/>
</a>
</g>
<text text-anchor="middle" x="346.38" y="-139.25" font-family="Helvetica,sans-Serif" font-size="10.00" fill="grey"> profiler</text>
</g>
<!-- Node8 -->
<g id="Node000008" class="node">
<title>Node8</title>
<g id="a_Node000008"><a xlink:href="structdunedaq_1_1oks_1_1LoadErrors.html" target="_top" xlink:title=" ">
<polygon fill="white" stroke="#666666" points="266.38,-210.12 141.62,-210.12 141.62,-190.88 266.38,-190.88 266.38,-210.12"/>
<text text-anchor="middle" x="204" y="-196.62" font-family="Helvetica,sans-Serif" font-size="10.00">dunedaq::oks::LoadErrors</text>
</a>
</g>
</g>
<!-- Node8&#45;&gt;Node6 -->
<g id="edge9_Node000006_Node000008" class="edge">
<title>Node8&#45;&gt;Node6</title>
<g id="a_edge9_Node000006_Node000008"><a xlink:title=" ">
<path fill="none" stroke="#9a32cd" stroke-dasharray="5,2" d="M207.77,-179.3C212.13,-160.73 220.9,-133.37 237.25,-115 243.96,-107.46 253.32,-101.68 262.12,-97.46"/>
<polygon fill="#9a32cd" stroke="#9a32cd" points="204.35,-178.55 205.73,-189.06 211.21,-179.98 204.35,-178.55"/>
</a>
</g>
<text text-anchor="middle" x="268.38" y="-139.25" font-family="Helvetica,sans-Serif" font-size="10.00" fill="grey"> p_load_errors</text>
</g>
<!-- Node9&#45;&gt;Node6 -->
<g id="edge10_Node000006_Node000009" class="edge">
<title>Node9&#45;&gt;Node6</title>
<g id="a_edge10_Node000006_Node000009"><a xlink:title=" ">
<path fill="none" stroke="#9a32cd" stroke-dasharray="5,2" d="M69.61,-180.1C79.35,-155.32 95.07,-115.54 95.75,-115 115.41,-99.6 176.97,-93.11 225,-90.37"/>
<polygon fill="#9a32cd" stroke="#9a32cd" points="66.46,-178.54 66.07,-189.13 72.98,-181.1 66.46,-178.54"/>
</a>
</g>
<text text-anchor="start" x="96" y="-161.75" font-family="Helvetica,sans-Serif" font-size="10.00" fill="grey"> p_change_object_notify</text>
<text text-anchor="middle" x="151.12" y="-150.5" font-family="Helvetica,sans-Serif" font-size="10.00" fill="grey">_fn</text>
<text text-anchor="start" x="96" y="-139.25" font-family="Helvetica,sans-Serif" font-size="10.00" fill="grey">p_create_object_notify</text>
<text text-anchor="middle" x="151.12" y="-128" font-family="Helvetica,sans-Serif" font-size="10.00" fill="grey">_fn</text>
<text text-anchor="middle" x="151.12" y="-116.75" font-family="Helvetica,sans-Serif" font-size="10.00" fill="grey">p_delete_object_notify_fn</text>
</g>
<!-- Node9&#45;&gt;Node12 -->
<g id="edge15_Node000012_Node000009" class="edge">
<title>Node9&#45;&gt;Node12</title>
<g id="a_edge15_Node000012_Node000009"><a xlink:title=" ">
<path fill="none" stroke="#9a32cd" stroke-dasharray="5,2" d="M91.57,-215.36C151.71,-243.54 287.83,-307.34 349.54,-336.26"/>
<polygon fill="#9a32cd" stroke="#9a32cd" points="93.17,-212.24 82.63,-211.17 90.19,-218.58 93.17,-212.24"/>
</a>
</g>
<text text-anchor="middle" x="268.25" y="-276" font-family="Helvetica,sans-Serif" font-size="10.00" fill="grey"> OBJECT</text>
</g>
<!-- Node10 -->
<g id="Node000010" class="node">
<title>Node10</title>
<g id="a_Node000010"><a xlink:title=" ">
<polygon fill="white" stroke="#666666" points="276.38,-456.25 235.62,-456.25 235.62,-437 276.38,-437 276.38,-456.25"/>
<text text-anchor="middle" x="256" y="-442.75" font-family="Helvetica,sans-Serif" font-size="10.00">struct</text>
</a>
</g>
</g>
<!-- Node10&#45;&gt;Node9 -->
<g id="edge11_Node000009_Node000010" class="edge">
<title>Node10&#45;&gt;Node9</title>
<g id="a_edge11_Node000009_Node000010"><a xlink:title=" ">
<path fill="none" stroke="#9a32cd" stroke-dasharray="5,2" d="M241.93,-427.92C203.51,-379.57 97.78,-246.52 69.2,-210.56"/>
<polygon fill="#9a32cd" stroke="#9a32cd" points="238.96,-429.81 247.92,-435.46 244.44,-425.46 238.96,-429.81"/>
</a>
</g>
<text text-anchor="middle" x="162.5" y="-309.25" font-family="Helvetica,sans-Serif" font-size="10.00" fill="grey"> uid</text>
</g>
<!-- Node10&#45;&gt;Node12 -->
<g id="edge18_Node000012_Node000010" class="edge">
<title>Node10&#45;&gt;Node12</title>
<g id="a_edge18_Node000012_Node000010"><a xlink:title=" ">
<path fill="none" stroke="#9a32cd" stroke-dasharray="5,2" d="M277.14,-429.96C300.75,-412.47 338.63,-384.39 361.54,-367.42"/>
<polygon fill="#9a32cd" stroke="#9a32cd" points="275.15,-427.08 269.2,-435.84 279.32,-432.7 275.15,-427.08"/>
</a>
</g>
<text text-anchor="middle" x="348.25" y="-403.88" font-family="Helvetica,sans-Serif" font-size="10.00" fill="grey"> UID</text>
<text text-anchor="middle" x="348.25" y="-392.62" font-family="Helvetica,sans-Serif" font-size="10.00" fill="grey">UID2</text>
</g>
<!-- Node11 -->
<g id="Node000011" class="node">
<title>Node11</title>
<g id="a_Node000011"><a xlink:href="structdunedaq_1_1oks_1_1OksData.html" target="_top" xlink:title="the structure to pass common parameters to various read() methods of OksData and OksObject class">
<polygon fill="white" stroke="#666666" points="444.88,-289.5 329.12,-289.5 329.12,-270.25 444.88,-270.25 444.88,-289.5"/>
<text text-anchor="middle" x="387" y="-276" font-family="Helvetica,sans-Serif" font-size="10.00">dunedaq::oks::OksData</text>
</a>
</g>
</g>
<!-- Node11&#45;&gt;Node1 -->
<g id="edge25_Node000001_Node000011" class="edge">
<title>Node11&#45;&gt;Node1</title>
<g id="a_edge25_Node000001_Node000011"><a xlink:title=" ">
<path fill="none" stroke="#9a32cd" stroke-dasharray="5,2" d="M403.44,-261.83C412.99,-252.16 425.4,-239.98 437,-229.75 497.3,-176.59 574.52,-118.84 603.91,-97.21"/>
<polygon fill="#9a32cd" stroke="#9a32cd" points="401.12,-259.2 396.63,-268.8 406.12,-264.09 401.12,-259.2"/>
</a>
</g>
<text text-anchor="middle" x="509" y="-202.25" font-family="Helvetica,sans-Serif" font-size="10.00" fill="grey"> m_comp_f</text>
<text text-anchor="middle" x="509" y="-191" font-family="Helvetica,sans-Serif" font-size="10.00" fill="grey">value</text>
</g>
<!-- Node11&#45;&gt;Node3 -->
<g id="edge24_Node000003_Node000011" class="edge">
<title>Node11&#45;&gt;Node3</title>
<g id="a_edge24_Node000003_Node000011"><a xlink:title=" ">
<path fill="none" stroke="#9a32cd" stroke-dasharray="5,2" d="M414.19,-264.53C435.45,-253.77 466,-239.31 494,-229.75 517.35,-221.78 543.98,-215.32 566.39,-210.6"/>
<polygon fill="#9a32cd" stroke="#9a32cd" points="412.62,-261.4 405.33,-269.08 415.82,-267.62 412.62,-261.4"/>
</a>
</g>
<text text-anchor="middle" x="534.5" y="-242.75" font-family="Helvetica,sans-Serif" font-size="10.00" fill="grey"> p_empty_init_data</text>
<text text-anchor="middle" x="534.5" y="-231.5" font-family="Helvetica,sans-Serif" font-size="10.00" fill="grey">p_init_data</text>
</g>
<!-- Node11&#45;&gt;Node9 -->
<g id="edge12_Node000009_Node000011" class="edge">
<title>Node11&#45;&gt;Node9</title>
<g id="a_edge12_Node000009_Node000011"><a xlink:title=" ">
<path fill="none" stroke="#9a32cd" stroke-dasharray="5,2" d="M353.72,-265.67C324.84,-254.67 281.72,-239.3 243,-229.75 231.46,-226.9 171.67,-217.75 123.92,-210.62"/>
<polygon fill="#9a32cd" stroke="#9a32cd" points="352.42,-268.92 363.01,-269.26 354.94,-262.39 352.42,-268.92"/>
</a>
</g>
<text text-anchor="middle" x="325.5" y="-237.12" font-family="Helvetica,sans-Serif" font-size="10.00" fill="grey"> data</text>
</g>
<!-- Node12&#45;&gt;Node11 -->
<g id="edge13_Node000011_Node000012" class="edge">
<title>Node12&#45;&gt;Node11</title>
<g id="a_edge13_Node000011_Node000012"><a xlink:title=" ">
<path fill="none" stroke="#9a32cd" stroke-dasharray="5,2" d="M383.2,-325.23C384.27,-312.73 385.49,-298.52 386.25,-289.63"/>
<polygon fill="#9a32cd" stroke="#9a32cd" points="379.74,-324.7 382.37,-334.96 386.71,-325.3 379.74,-324.7"/>
</a>
</g>
<text text-anchor="middle" x="395.5" y="-309.25" font-family="Helvetica,sans-Serif" font-size="10.00" fill="grey"> data</text>
</g>
<!-- Node13 -->
<g id="Node000013" class="node">
<title>Node13</title>
<g id="a_Node000013"><a xlink:href="classdunedaq_1_1oks_1_1OksString.html" target="_top" xlink:title="Class OKS string.">
<polygon fill="white" stroke="#666666" points="441.5,-456.25 320.5,-456.25 320.5,-437 441.5,-437 441.5,-456.25"/>
<text text-anchor="middle" x="381" y="-442.75" font-family="Helvetica,sans-Serif" font-size="10.00">dunedaq::oks::OksString</text>
</a>
</g>
</g>
<!-- Node13&#45;&gt;Node12 -->
<g id="edge16_Node000012_Node000013" class="edge">
<title>Node13&#45;&gt;Node12</title>
<g id="a_edge16_Node000012_Node000013"><a xlink:title=" ">
<path fill="none" stroke="#9a32cd" stroke-dasharray="5,2" d="M381,-425.29C381,-407.78 381,-382.95 381,-367.42"/>
<polygon fill="#9a32cd" stroke="#9a32cd" points="377.5,-425.23 381,-435.23 384.5,-425.23 377.5,-425.23"/>
</a>
</g>
<text text-anchor="middle" x="400.88" y="-409.5" font-family="Helvetica,sans-Serif" font-size="10.00" fill="grey"> STRING</text>
<text text-anchor="middle" x="400.88" y="-398.25" font-family="Helvetica,sans-Serif" font-size="10.00" fill="grey">class_id</text>
<text text-anchor="middle" x="400.88" y="-387" font-family="Helvetica,sans-Serif" font-size="10.00" fill="grey">object_id</text>
</g>
<!-- Node14 -->
<g id="Node000014" class="node">
<title>Node14</title>
<g id="a_Node000014"><a xlink:title=" ">
<polygon fill="white" stroke="#666666" points="410,-522.75 352,-522.75 352,-503.5 410,-503.5 410,-522.75"/>
<text text-anchor="middle" x="381" y="-509.25" font-family="Helvetica,sans-Serif" font-size="10.00">std::string</text>
</a>
</g>
</g>
<!-- Node14&#45;&gt;Node13 -->
<g id="edge17_Node000013_Node000014" class="edge">
<title>Node14&#45;&gt;Node13</title>
<g id="a_edge17_Node000013_Node000014"><a xlink:title=" ">
<path fill="none" stroke="#63b8ff" d="M381,-491.65C381,-479.82 381,-465.54 381,-456.52"/>
<polygon fill="#63b8ff" stroke="#63b8ff" points="377.5,-491.64 381,-501.64 384.5,-491.64 377.5,-491.64"/>
</a>
</g>
</g>
<!-- Node15 -->
<g id="Node000015" class="node">
<title>Node15</title>
<g id="a_Node000015"><a xlink:href="classdunedaq_1_1conffwk_1_1map.html" target="_top" xlink:title=" ">
<polygon fill="white" stroke="#666666" points="601.38,-522.75 464.62,-522.75 464.62,-503.5 601.38,-503.5 601.38,-522.75"/>
<text text-anchor="middle" x="533" y="-509.25" font-family="Helvetica,sans-Serif" font-size="10.00">dunedaq::conffwk::map&lt; T &gt;</text>
</a>
</g>
</g>
<!-- Node15&#45;&gt;Node4 -->
<g id="edge21_Node000004_Node000015" class="edge">
<title>Node15&#45;&gt;Node4</title>
<g id="a_edge21_Node000004_Node000015"><a xlink:title=" ">
<path fill="none" stroke="#9a32cd" stroke-dasharray="5,2" d="M533,-491.65C533,-479.82 533,-465.54 533,-456.52"/>
<polygon fill="#9a32cd" stroke="#9a32cd" points="529.5,-491.64 533,-501.64 536.5,-491.64 529.5,-491.64"/>
</a>
</g>
<text text-anchor="middle" x="559.25" y="-476" font-family="Helvetica,sans-Serif" font-size="10.00" fill="grey"> p_data_info</text>
</g>
<!-- Node16 -->
<g id="Node000016" class="node">
<title>Node16</title>
<g id="a_Node000016"><a xlink:title=" ">
<polygon fill="white" stroke="#666666" points="583.38,-590.25 482.62,-590.25 482.62,-559.75 583.38,-559.75 583.38,-590.25"/>
<text text-anchor="start" x="490.62" y="-576.75" font-family="Helvetica,sans-Serif" font-size="10.00">std::unordered_map</text>
<text text-anchor="middle" x="533" y="-565.5" font-family="Helvetica,sans-Serif" font-size="10.00">&lt; std::string, T &gt;</text>
</a>
</g>
</g>
<!-- Node16&#45;&gt;Node15 -->
<g id="edge22_Node000015_Node000016" class="edge">
<title>Node16&#45;&gt;Node15</title>
<g id="a_edge22_Node000015_Node000016"><a xlink:title=" ">
<path fill="none" stroke="#63b8ff" d="M533,-548.27C533,-539.29 533,-529.79 533,-523.1"/>
<polygon fill="#63b8ff" stroke="#63b8ff" points="529.5,-547.99 533,-557.99 536.5,-547.99 529.5,-547.99"/>
</a>
</g>
</g>
<!-- Node17 -->
<g id="Node000017" class="node">
<title>Node17</title>
<g id="a_Node000017"><a xlink:href="classdunedaq_1_1oks_1_1OksRange.html" target="_top" xlink:title="OKS range class.">
<polygon fill="white" stroke="#666666" points="740.62,-289.5 617.38,-289.5 617.38,-270.25 740.62,-270.25 740.62,-289.5"/>
<text text-anchor="middle" x="679" y="-276" font-family="Helvetica,sans-Serif" font-size="10.00">dunedaq::oks::OksRange</text>
</a>
</g>
</g>
<!-- Node17&#45;&gt;Node3 -->
<g id="edge23_Node000003_Node000017" class="edge">
<title>Node17&#45;&gt;Node3</title>
<g id="a_edge23_Node000003_Node000017"><a xlink:title=" ">
<path fill="none" stroke="#9a32cd" stroke-dasharray="5,2" d="M664.55,-261.12C651.6,-245.23 633.16,-222.57 623.14,-210.27"/>
<polygon fill="#9a32cd" stroke="#9a32cd" points="661.79,-263.28 670.82,-268.83 667.22,-258.86 661.79,-263.28"/>
</a>
</g>
<text text-anchor="middle" x="684.38" y="-237.12" font-family="Helvetica,sans-Serif" font-size="10.00" fill="grey"> p_range_obj</text>
</g>
</g>
</svg>
