<?xml version="1.0" encoding="UTF-8" standalone="no"?>
<!DOCTYPE svg PUBLIC "-//W3C//DTD SVG 1.1//EN"
 "http://www.w3.org/Graphics/SVG/1.1/DTD/svg11.dtd">
<!-- Generated by graphviz version 9.0.0 (20230911.1827)
 -->
<!-- Title: rawdatautils.unpack.dataclasses.DAQHeaderData Pages: 1 -->
<svg width="291pt" height="184pt"
 viewBox="0.00 0.00 290.62 183.75" xmlns="http://www.w3.org/2000/svg" xmlns:xlink="http://www.w3.org/1999/xlink">
<g id="graph0" class="graph" transform="scale(1 1) rotate(0) translate(4 179.75)">
<title>rawdatautils.unpack.dataclasses.DAQHeaderData</title>
<!-- Node1 -->
<g id="Node000001" class="node">
<title>Node1</title>
<g id="a_Node000001"><a xlink:title=" ">
<polygon fill="#999999" stroke="#666666" points="252.25,-30.5 93,-30.5 93,0 252.25,0 252.25,-30.5"/>
<text text-anchor="start" x="101" y="-17" font-family="Helvetica,sans-Serif" font-size="10.00">rawdatautils.unpack.dataclasses.</text>
<text text-anchor="middle" x="172.62" y="-5.75" font-family="Helvetica,sans-Serif" font-size="10.00">DAQHeaderData</text>
</a>
</g>
</g>
<!-- Node2 -->
<g id="Node000002" class="node">
<title>Node2</title>
<g id="a_Node000002"><a xlink:href="classrawdatautils_1_1unpack_1_1dataclasses_1_1FragmentDataBase.html" target="_top" xlink:title=" ">
<polygon fill="white" stroke="#666666" points="159.25,-108.25 0,-108.25 0,-77.75 159.25,-77.75 159.25,-108.25"/>
<text text-anchor="start" x="8" y="-94.75" font-family="Helvetica,sans-Serif" font-size="10.00">rawdatautils.unpack.dataclasses.</text>
<text text-anchor="middle" x="79.62" y="-83.5" font-family="Helvetica,sans-Serif" font-size="10.00">FragmentDataBase</text>
</a>
</g>
</g>
<!-- Node2&#45;&gt;Node1 -->
<g id="edge1_Node000001_Node000002" class="edge">
<title>Node2&#45;&gt;Node1</title>
<g id="a_edge1_Node000001_Node000002"><a xlink:title=" ">
<path fill="none" stroke="#63b8ff" d="M106.22,-70.34C121.78,-57.67 141,-42.01 154.75,-30.81"/>
<polygon fill="#63b8ff" stroke="#63b8ff" points="104.27,-67.41 98.73,-76.44 108.69,-72.84 104.27,-67.41"/>
</a>
</g>
</g>
<!-- Node3 -->
<g id="Node000003" class="node">
<title>Node3</title>
<g id="a_Node000003"><a xlink:href="classrawdatautils_1_1unpack_1_1dataclasses_1_1RecordDataBase.html" target="_top" xlink:title=" ">
<polygon fill="white" stroke="#666666" points="159.25,-175.75 0,-175.75 0,-145.25 159.25,-145.25 159.25,-175.75"/>
<text text-anchor="start" x="8" y="-162.25" font-family="Helvetica,sans-Serif" font-size="10.00">rawdatautils.unpack.dataclasses.</text>
<text text-anchor="middle" x="79.62" y="-151" font-family="Helvetica,sans-Serif" font-size="10.00">RecordDataBase</text>
</a>
</g>
</g>
<!-- Node3&#45;&gt;Node2 -->
<g id="edge2_Node000002_Node000003" class="edge">
<title>Node3&#45;&gt;Node2</title>
<g id="a_edge2_Node000002_Node000003"><a xlink:title=" ">
<path fill="none" stroke="#63b8ff" d="M79.62,-133.59C79.62,-125.05 79.62,-115.87 79.62,-108.5"/>
<polygon fill="#63b8ff" stroke="#63b8ff" points="76.13,-133.45 79.63,-143.45 83.13,-133.45 76.13,-133.45"/>
</a>
</g>
</g>
<!-- Node4 -->
<g id="Node000004" class="node">
<title>Node4</title>
<g id="a_Node000004"><a xlink:title=" ">
<polygon fill="white" stroke="#666666" points="230.38,-102.62 176.88,-102.62 176.88,-83.38 230.38,-83.38 230.38,-102.62"/>
<text text-anchor="middle" x="203.62" y="-89.12" font-family="Helvetica,sans-Serif" font-size="10.00">datetime</text>
</a>
</g>
</g>
<!-- Node4&#45;&gt;Node1 -->
<g id="edge3_Node000001_Node000004" class="edge">
<title>Node4&#45;&gt;Node1</title>
<g id="a_edge3_Node000001_Node000004"><a xlink:title=" ">
<path fill="none" stroke="#9a32cd" stroke-dasharray="5,2" d="M195.61,-72.42C190.31,-59.47 183.47,-42.76 178.64,-30.94"/>
<polygon fill="#9a32cd" stroke="#9a32cd" points="192.35,-73.68 199.37,-81.61 198.83,-71.03 192.35,-73.68"/>
</a>
</g>
<text text-anchor="middle" x="236.12" y="-50.25" font-family="Helvetica,sans-Serif" font-size="10.00" fill="grey"> timestamp_first_time</text>
</g>
</g>
</svg>
