<?xml version="1.0" encoding="UTF-8" standalone="no"?>
<!DOCTYPE svg PUBLIC "-//W3C//DTD SVG 1.1//EN"
 "http://www.w3.org/Graphics/SVG/1.1/DTD/svg11.dtd">
<!-- Generated by graphviz version 9.0.0 (20230911.1827)
 -->
<!-- Title: dbse::CustomSubClassModel Pages: 1 -->
<svg width="1606pt" height="319pt"
 viewBox="0.00 0.00 1605.50 319.25" xmlns="http://www.w3.org/2000/svg" xmlns:xlink="http://www.w3.org/1999/xlink">
<g id="graph0" class="graph" transform="scale(1 1) rotate(0) translate(4 315.25)">
<title>dbse::CustomSubClassModel</title>
<!-- Node1 -->
<g id="Node000001" class="node">
<title>Node1</title>
<g id="a_Node000001"><a xlink:title=" ">
<polygon fill="#999999" stroke="#666666" points="745.25,-300.25 601.75,-300.25 601.75,-281 745.25,-281 745.25,-300.25"/>
<text text-anchor="middle" x="673.5" y="-286.75" font-family="Helvetica,sans-Serif" font-size="10.00">dbse::CustomSubClassModel</text>
</a>
</g>
</g>
<!-- Node2 -->
<g id="Node000002" class="node">
<title>Node2</title>
<g id="a_Node000002"><a xlink:href="classdbse_1_1CustomModelInterface.html" target="_top" xlink:title=" ">
<polygon fill="white" stroke="#666666" points="502.75,-311.25 363,-311.25 363,-292 502.75,-292 502.75,-311.25"/>
<text text-anchor="middle" x="432.88" y="-297.75" font-family="Helvetica,sans-Serif" font-size="10.00">dbse::CustomModelInterface</text>
</a>
</g>
</g>
<!-- Node2&#45;&gt;Node1 -->
<g id="edge1_Node000001_Node000002" class="edge">
<title>Node2&#45;&gt;Node1</title>
<g id="a_edge1_Node000001_Node000002"><a xlink:title=" ">
<path fill="none" stroke="#63b8ff" d="M514.63,-297.9C542.74,-296.61 574.05,-295.16 601.33,-293.91"/>
<polygon fill="#63b8ff" stroke="#63b8ff" points="514.56,-294.4 504.73,-298.36 514.88,-301.39 514.56,-294.4"/>
</a>
</g>
</g>
<!-- Node3 -->
<g id="Node000003" class="node">
<title>Node3</title>
<g id="a_Node000003"><a xlink:title=" ">
<polygon fill="white" stroke="#666666" points="261.38,-311.25 150.88,-311.25 150.88,-292 261.38,-292 261.38,-311.25"/>
<text text-anchor="middle" x="206.12" y="-297.75" font-family="Helvetica,sans-Serif" font-size="10.00">QAbstractTableModel</text>
</a>
</g>
</g>
<!-- Node3&#45;&gt;Node2 -->
<g id="edge2_Node000002_Node000003" class="edge">
<title>Node3&#45;&gt;Node2</title>
<g id="a_edge2_Node000002_Node000003"><a xlink:title=" ">
<path fill="none" stroke="#63b8ff" d="M273.18,-301.62C301.37,-301.62 334.29,-301.62 362.8,-301.62"/>
<polygon fill="#63b8ff" stroke="#63b8ff" points="273.33,-298.13 263.33,-301.63 273.33,-305.13 273.33,-298.13"/>
</a>
</g>
</g>
<!-- Node4 -->
<g id="Node000004" class="node">
<title>Node4</title>
<g id="a_Node000004"><a xlink:href="classdunedaq_1_1oks_1_1OksClass.html" target="_top" xlink:title="The OKS class.">
<polygon fill="white" stroke="#666666" points="493,-214.25 372.75,-214.25 372.75,-195 493,-195 493,-214.25"/>
<text text-anchor="middle" x="432.88" y="-200.75" font-family="Helvetica,sans-Serif" font-size="10.00">dunedaq::oks::OksClass</text>
</a>
</g>
</g>
<!-- Node4&#45;&gt;Node1 -->
<g id="edge3_Node000001_Node000004" class="edge">
<title>Node4&#45;&gt;Node1</title>
<g id="a_edge3_Node000001_Node000004"><a xlink:title=" ">
<path fill="none" stroke="#9a32cd" stroke-dasharray="5,2" d="M458.26,-220.78C475.2,-231.39 498.61,-244.88 520.75,-253.62 551.01,-265.58 586.25,-274.46 615.14,-280.52"/>
<polygon fill="#9a32cd" stroke="#9a32cd" points="460.21,-217.88 449.9,-215.43 456.44,-223.77 460.21,-217.88"/>
</a>
</g>
<text text-anchor="middle" x="552.25" y="-274.38" font-family="Helvetica,sans-Serif" font-size="10.00" fill="grey"> SchemaClass</text>
</g>
<!-- Node12 -->
<g id="Node000012" class="node">
<title>Node12</title>
<g id="a_Node000012"><a xlink:href="uniondunedaq_1_1oks_1_1OksData_1_1Data.html" target="_top" xlink:title=" ">
<polygon fill="white" stroke="#666666" points="731.38,-86.88 615.62,-86.88 615.62,-56.38 731.38,-56.38 731.38,-86.88"/>
<text text-anchor="start" x="623.62" y="-73.38" font-family="Helvetica,sans-Serif" font-size="10.00">dunedaq::oks::OksData</text>
<text text-anchor="middle" x="673.5" y="-62.12" font-family="Helvetica,sans-Serif" font-size="10.00">::Data</text>
</a>
</g>
</g>
<!-- Node4&#45;&gt;Node12 -->
<g id="edge14_Node000012_Node000004" class="edge">
<title>Node4&#45;&gt;Node12</title>
<g id="a_edge14_Node000012_Node000004"><a xlink:title=" ">
<path fill="none" stroke="#9a32cd" stroke-dasharray="5,2" d="M450.85,-186.83C467.4,-170.31 493.94,-145.94 520.75,-130.12 546.49,-114.94 555.85,-117.33 583.75,-106.62 599.99,-100.4 617.83,-93.39 633.24,-87.29"/>
<polygon fill="#9a32cd" stroke="#9a32cd" points="448.72,-184 444.21,-193.59 453.72,-188.9 448.72,-184"/>
</a>
</g>
<text text-anchor="middle" x="552.25" y="-143.62" font-family="Helvetica,sans-Serif" font-size="10.00" fill="grey"> CLASS</text>
<text text-anchor="middle" x="552.25" y="-132.38" font-family="Helvetica,sans-Serif" font-size="10.00" fill="grey">class_id</text>
</g>
<!-- Node5 -->
<g id="Node000005" class="node">
<title>Node5</title>
<g id="a_Node000005"><a xlink:href="classdunedaq_1_1oks_1_1OksFile.html" target="_top" xlink:title="Provides interface to the OKS XML schema and data files.">
<polygon fill="white" stroke="#666666" points="1597.5,-163.25 1486.25,-163.25 1486.25,-144 1597.5,-144 1597.5,-163.25"/>
<text text-anchor="middle" x="1541.88" y="-149.75" font-family="Helvetica,sans-Serif" font-size="10.00">dunedaq::oks::OksFile</text>
</a>
</g>
</g>
<!-- Node5&#45;&gt;Node4 -->
<g id="edge4_Node000004_Node000005" class="edge">
<title>Node5&#45;&gt;Node4</title>
<g id="a_edge4_Node000004_Node000005"><a xlink:title=" ">
<path fill="none" stroke="#9a32cd" stroke-dasharray="5,2" d="M1517,-169.83C1476.79,-195.5 1392.21,-242.62 1313.12,-242.62 672.5,-242.62 672.5,-242.62 672.5,-242.62 601.39,-242.62 519.84,-225.97 472.84,-214.71"/>
<polygon fill="#9a32cd" stroke="#9a32cd" points="1518.72,-172.88 1525.19,-164.49 1514.9,-167.02 1518.72,-172.88"/>
</a>
</g>
<text text-anchor="middle" x="948.38" y="-244.38" font-family="Helvetica,sans-Serif" font-size="10.00" fill="grey"> p_file</text>
</g>
<!-- Node5&#45;&gt;Node5 -->
<g id="edge5_Node000005_Node000005" class="edge">
<title>Node5&#45;&gt;Node5</title>
<g id="a_edge5_Node000005_Node000005"><a xlink:title=" ">
<path fill="none" stroke="#9a32cd" stroke-dasharray="5,2" d="M1522.02,-174.65C1524.5,-178.53 1531.12,-181.25 1541.88,-181.25 1561.54,-181.25 1567.38,-172.15 1559.39,-163.54"/>
<polygon fill="#9a32cd" stroke="#9a32cd" points="1525.41,-175.53 1524.05,-165.02 1518.56,-174.08 1525.41,-175.53"/>
</a>
</g>
<text text-anchor="middle" x="1541.88" y="-183" font-family="Helvetica,sans-Serif" font-size="10.00" fill="grey"> p_included_by</text>
</g>
<!-- Node6 -->
<g id="Node000006" class="node">
<title>Node6</title>
<g id="a_Node000006"><a xlink:href="classdunedaq_1_1oks_1_1OksKernel.html" target="_top" xlink:title="Provides interface to the OKS kernel.">
<polygon fill="white" stroke="#666666" points="1373.75,-163.25 1250.5,-163.25 1250.5,-144 1373.75,-144 1373.75,-163.25"/>
<text text-anchor="middle" x="1312.12" y="-149.75" font-family="Helvetica,sans-Serif" font-size="10.00">dunedaq::oks::OksKernel</text>
</a>
</g>
</g>
<!-- Node5&#45;&gt;Node6 -->
<g id="edge7_Node000006_Node000005" class="edge">
<title>Node5&#45;&gt;Node6</title>
<g id="a_edge7_Node000006_Node000005"><a xlink:title=" ">
<path fill="none" stroke="#9a32cd" stroke-dasharray="5,2" d="M1507.9,-139.4C1495.68,-134.85 1481.56,-130.39 1468.25,-128.12 1434.73,-122.41 1425.33,-122.82 1391.75,-128.12 1373.04,-131.08 1352.72,-137.77 1337.43,-143.55"/>
<polygon fill="#9a32cd" stroke="#9a32cd" points="1506.51,-142.62 1517.09,-143.01 1509.06,-136.1 1506.51,-142.62"/>
</a>
</g>
<text text-anchor="middle" x="1430" y="-141.62" font-family="Helvetica,sans-Serif" font-size="10.00" fill="grey"> p_active_data</text>
<text text-anchor="middle" x="1430" y="-130.38" font-family="Helvetica,sans-Serif" font-size="10.00" fill="grey">p_active_schema</text>
</g>
<!-- Node9 -->
<g id="Node000009" class="node">
<title>Node9</title>
<g id="a_Node000009"><a xlink:href="classdunedaq_1_1oks_1_1OksObject.html" target="_top" xlink:title="OksObject describes instance of OksClass.">
<polygon fill="white" stroke="#666666" points="1103.5,-40.25 979.5,-40.25 979.5,-21 1103.5,-21 1103.5,-40.25"/>
<text text-anchor="middle" x="1041.5" y="-26.75" font-family="Helvetica,sans-Serif" font-size="10.00">dunedaq::oks::OksObject</text>
</a>
</g>
</g>
<!-- Node5&#45;&gt;Node9 -->
<g id="edge19_Node000009_Node000005" class="edge">
<title>Node5&#45;&gt;Node9</title>
<g id="a_edge19_Node000009_Node000005"><a xlink:title=" ">
<path fill="none" stroke="#9a32cd" stroke-dasharray="5,2" d="M1510.3,-138.85C1497.45,-132.87 1482.26,-126.11 1468.25,-120.62 1365.48,-80.41 1340.85,-63.61 1232.5,-42.62 1189.99,-34.39 1141.24,-31.44 1103.76,-30.53"/>
<polygon fill="#9a32cd" stroke="#9a32cd" points="1508.56,-141.9 1519.1,-143 1511.54,-135.57 1508.56,-141.9"/>
</a>
</g>
<text text-anchor="middle" x="1312.12" y="-84.38" font-family="Helvetica,sans-Serif" font-size="10.00" fill="grey"> file</text>
</g>
<!-- Node6&#45;&gt;Node4 -->
<g id="edge20_Node000004_Node000006" class="edge">
<title>Node6&#45;&gt;Node4</title>
<g id="a_edge20_Node000004_Node000006"><a xlink:title=" ">
<path fill="none" stroke="#9a32cd" stroke-dasharray="5,2" d="M1238.89,-159.02C1184.84,-162.59 1109.08,-166.62 1042.5,-166.62 672.5,-166.62 672.5,-166.62 672.5,-166.62 601.39,-166.62 519.84,-183.28 472.84,-194.54"/>
<polygon fill="#9a32cd" stroke="#9a32cd" points="1238.84,-162.53 1248.58,-158.36 1238.36,-155.55 1238.84,-162.53"/>
</a>
</g>
<text text-anchor="middle" x="860.12" y="-168.38" font-family="Helvetica,sans-Serif" font-size="10.00" fill="grey"> p_kernel</text>
</g>
<!-- Node6&#45;&gt;Node5 -->
<g id="edge6_Node000005_Node000006" class="edge">
<title>Node6&#45;&gt;Node5</title>
<g id="a_edge6_Node000005_Node000006"><a xlink:title=" ">
<path fill="none" stroke="#9a32cd" stroke-dasharray="5,2" d="M1385.49,-154.58C1387.6,-154.6 1389.69,-154.61 1391.75,-154.62 1425.75,-154.84 1434.25,-154.86 1468.25,-154.62 1473.92,-154.59 1479.85,-154.53 1485.76,-154.46"/>
<polygon fill="#9a32cd" stroke="#9a32cd" points="1385.62,-151.08 1375.59,-154.49 1385.56,-158.08 1385.62,-151.08"/>
</a>
</g>
<text text-anchor="middle" x="1430" y="-157.38" font-family="Helvetica,sans-Serif" font-size="10.00" fill="grey"> p_kernel</text>
</g>
<!-- Node7 -->
<g id="Node000007" class="node">
<title>Node7</title>
<g id="a_Node000007"><a xlink:href="classdunedaq_1_1oks_1_1OksProfiler.html" target="_top" xlink:title=" ">
<polygon fill="white" stroke="#666666" points="1104.25,-138.25 978.75,-138.25 978.75,-119 1104.25,-119 1104.25,-138.25"/>
<text text-anchor="middle" x="1041.5" y="-124.75" font-family="Helvetica,sans-Serif" font-size="10.00">dunedaq::oks::OksProfiler</text>
</a>
</g>
</g>
<!-- Node7&#45;&gt;Node6 -->
<g id="edge8_Node000006_Node000007" class="edge">
<title>Node7&#45;&gt;Node6</title>
<g id="a_edge8_Node000006_Node000007"><a xlink:title=" ">
<path fill="none" stroke="#9a32cd" stroke-dasharray="5,2" d="M1115.85,-132.05C1151.17,-134.08 1194.1,-137.1 1232.5,-141.38 1238.27,-142.02 1244.26,-142.78 1250.24,-143.6"/>
<polygon fill="#9a32cd" stroke="#9a32cd" points="1116.35,-128.57 1106.17,-131.51 1115.96,-135.56 1116.35,-128.57"/>
</a>
</g>
<text text-anchor="middle" x="1177.38" y="-143.38" font-family="Helvetica,sans-Serif" font-size="10.00" fill="grey"> profiler</text>
</g>
<!-- Node8 -->
<g id="Node000008" class="node">
<title>Node8</title>
<g id="a_Node000008"><a xlink:href="structdunedaq_1_1oks_1_1LoadErrors.html" target="_top" xlink:title=" ">
<polygon fill="white" stroke="#666666" points="1103.88,-214.25 979.12,-214.25 979.12,-195 1103.88,-195 1103.88,-214.25"/>
<text text-anchor="middle" x="1041.5" y="-200.75" font-family="Helvetica,sans-Serif" font-size="10.00">dunedaq::oks::LoadErrors</text>
</a>
</g>
</g>
<!-- Node8&#45;&gt;Node6 -->
<g id="edge9_Node000006_Node000008" class="edge">
<title>Node8&#45;&gt;Node6</title>
<g id="a_edge9_Node000006_Node000008"><a xlink:title=" ">
<path fill="none" stroke="#9a32cd" stroke-dasharray="5,2" d="M1115.52,-198.94C1151.11,-195.27 1194.36,-189.48 1232.5,-180.62 1250.78,-176.38 1270.77,-169.48 1286.02,-163.72"/>
<polygon fill="#9a32cd" stroke="#9a32cd" points="1115.36,-195.44 1105.75,-199.9 1116.05,-202.4 1115.36,-195.44"/>
</a>
</g>
<text text-anchor="middle" x="1177.38" y="-200.38" font-family="Helvetica,sans-Serif" font-size="10.00" fill="grey"> p_load_errors</text>
</g>
<!-- Node9&#45;&gt;Node6 -->
<g id="edge10_Node000006_Node000009" class="edge">
<title>Node9&#45;&gt;Node6</title>
<g id="a_edge10_Node000006_Node000009"><a xlink:title=" ">
<path fill="none" stroke="#9a32cd" stroke-dasharray="5,2" d="M1114.96,-42.09C1159.74,-50.03 1212.38,-61.15 1232.5,-72.38 1264.9,-90.46 1292.31,-126.13 1304.44,-143.56"/>
<polygon fill="#9a32cd" stroke="#9a32cd" points="1115.71,-38.67 1105.25,-40.4 1114.51,-45.57 1115.71,-38.67"/>
</a>
</g>
<text text-anchor="start" x="1122.25" y="-119.38" font-family="Helvetica,sans-Serif" font-size="10.00" fill="grey"> p_change_object_notify</text>
<text text-anchor="middle" x="1177.38" y="-108.12" font-family="Helvetica,sans-Serif" font-size="10.00" fill="grey">_fn</text>
<text text-anchor="start" x="1122.25" y="-96.88" font-family="Helvetica,sans-Serif" font-size="10.00" fill="grey">p_create_object_notify</text>
<text text-anchor="middle" x="1177.38" y="-85.62" font-family="Helvetica,sans-Serif" font-size="10.00" fill="grey">_fn</text>
<text text-anchor="middle" x="1177.38" y="-74.38" font-family="Helvetica,sans-Serif" font-size="10.00" fill="grey">p_delete_object_notify_fn</text>
</g>
<!-- Node9&#45;&gt;Node12 -->
<g id="edge15_Node000012_Node000009" class="edge">
<title>Node9&#45;&gt;Node12</title>
<g id="a_edge15_Node000012_Node000009"><a xlink:title=" ">
<path fill="none" stroke="#9a32cd" stroke-dasharray="5,2" d="M979.53,-42.67C973.2,-43.75 966.85,-44.76 960.75,-45.62 881.7,-56.84 789.65,-64.19 731.72,-68.13"/>
<polygon fill="#9a32cd" stroke="#9a32cd" points="980.11,-46.13 989.35,-40.94 978.89,-39.23 980.11,-46.13"/>
</a>
</g>
<text text-anchor="middle" x="860.12" y="-64.38" font-family="Helvetica,sans-Serif" font-size="10.00" fill="grey"> OBJECT</text>
</g>
<!-- Node10 -->
<g id="Node000010" class="node">
<title>Node10</title>
<g id="a_Node000010"><a xlink:title=" ">
<polygon fill="white" stroke="#666666" points="453.25,-19.25 412.5,-19.25 412.5,0 453.25,0 453.25,-19.25"/>
<text text-anchor="middle" x="432.88" y="-5.75" font-family="Helvetica,sans-Serif" font-size="10.00">struct</text>
</a>
</g>
</g>
<!-- Node10&#45;&gt;Node9 -->
<g id="edge11_Node000009_Node000010" class="edge">
<title>Node10&#45;&gt;Node9</title>
<g id="a_edge11_Node000009_Node000010"><a xlink:title=" ">
<path fill="none" stroke="#9a32cd" stroke-dasharray="5,2" d="M464.97,-8.14C541.93,-4.83 747.4,1.88 918,-11.62 940.63,-13.42 965.42,-16.96 986.73,-20.5"/>
<polygon fill="#9a32cd" stroke="#9a32cd" points="465.1,-4.64 455.26,-8.58 465.41,-11.63 465.1,-4.64"/>
</a>
</g>
<text text-anchor="middle" x="773.75" y="-7.38" font-family="Helvetica,sans-Serif" font-size="10.00" fill="grey"> uid</text>
</g>
<!-- Node10&#45;&gt;Node12 -->
<g id="edge18_Node000012_Node000010" class="edge">
<title>Node10&#45;&gt;Node12</title>
<g id="a_edge18_Node000012_Node000010"><a xlink:title=" ">
<path fill="none" stroke="#9a32cd" stroke-dasharray="5,2" d="M464.48,-16.33C494.87,-23.12 542.7,-34.14 583.75,-45.12 596.18,-48.45 609.5,-52.28 621.96,-55.98"/>
<polygon fill="#9a32cd" stroke="#9a32cd" points="465.36,-12.94 454.84,-14.19 463.85,-19.78 465.36,-12.94"/>
</a>
</g>
<text text-anchor="middle" x="552.25" y="-58.62" font-family="Helvetica,sans-Serif" font-size="10.00" fill="grey"> UID</text>
<text text-anchor="middle" x="552.25" y="-47.38" font-family="Helvetica,sans-Serif" font-size="10.00" fill="grey">UID2</text>
</g>
<!-- Node11 -->
<g id="Node000011" class="node">
<title>Node11</title>
<g id="a_Node000011"><a xlink:href="structdunedaq_1_1oks_1_1OksData.html" target="_top" xlink:title="the structure to pass common parameters to various read() methods of OksData and OksObject class">
<polygon fill="white" stroke="#666666" points="918,-40.25 802.25,-40.25 802.25,-21 918,-21 918,-40.25"/>
<text text-anchor="middle" x="860.12" y="-26.75" font-family="Helvetica,sans-Serif" font-size="10.00">dunedaq::oks::OksData</text>
</a>
</g>
</g>
<!-- Node11&#45;&gt;Node9 -->
<g id="edge12_Node000009_Node000011" class="edge">
<title>Node11&#45;&gt;Node9</title>
<g id="a_edge12_Node000009_Node000011"><a xlink:title=" ">
<path fill="none" stroke="#9a32cd" stroke-dasharray="5,2" d="M929.49,-30.62C945.82,-30.62 963.16,-30.62 979.15,-30.62"/>
<polygon fill="#9a32cd" stroke="#9a32cd" points="929.89,-27.13 919.89,-30.63 929.89,-34.13 929.89,-27.13"/>
</a>
</g>
<text text-anchor="middle" x="948.38" y="-32.38" font-family="Helvetica,sans-Serif" font-size="10.00" fill="grey"> data</text>
</g>
<!-- Node12&#45;&gt;Node11 -->
<g id="edge13_Node000011_Node000012" class="edge">
<title>Node12&#45;&gt;Node11</title>
<g id="a_edge13_Node000011_Node000012"><a xlink:title=" ">
<path fill="none" stroke="#9a32cd" stroke-dasharray="5,2" d="M742.65,-55.99C749.61,-54.42 756.57,-52.86 763.25,-51.38 779.21,-47.83 796.68,-44.02 812.29,-40.65"/>
<polygon fill="#9a32cd" stroke="#9a32cd" points="742.22,-52.5 733.24,-58.12 743.77,-59.33 742.22,-52.5"/>
</a>
</g>
<text text-anchor="middle" x="773.75" y="-53.38" font-family="Helvetica,sans-Serif" font-size="10.00" fill="grey"> data</text>
</g>
<!-- Node13 -->
<g id="Node000013" class="node">
<title>Node13</title>
<g id="a_Node000013"><a xlink:href="classdunedaq_1_1oks_1_1OksString.html" target="_top" xlink:title="Class OKS string.">
<polygon fill="white" stroke="#666666" points="493.38,-81.25 372.38,-81.25 372.38,-62 493.38,-62 493.38,-81.25"/>
<text text-anchor="middle" x="432.88" y="-67.75" font-family="Helvetica,sans-Serif" font-size="10.00">dunedaq::oks::OksString</text>
</a>
</g>
</g>
<!-- Node13&#45;&gt;Node12 -->
<g id="edge16_Node000012_Node000013" class="edge">
<title>Node13&#45;&gt;Node12</title>
<g id="a_edge16_Node000012_Node000013"><a xlink:title=" ">
<path fill="none" stroke="#9a32cd" stroke-dasharray="5,2" d="M504.98,-71.62C540.26,-71.62 582.31,-71.62 615.45,-71.62"/>
<polygon fill="#9a32cd" stroke="#9a32cd" points="505.3,-68.13 495.3,-71.63 505.3,-75.13 505.3,-68.13"/>
</a>
</g>
<text text-anchor="middle" x="552.25" y="-95.88" font-family="Helvetica,sans-Serif" font-size="10.00" fill="grey"> STRING</text>
<text text-anchor="middle" x="552.25" y="-84.62" font-family="Helvetica,sans-Serif" font-size="10.00" fill="grey">class_id</text>
<text text-anchor="middle" x="552.25" y="-73.38" font-family="Helvetica,sans-Serif" font-size="10.00" fill="grey">object_id</text>
</g>
<!-- Node14 -->
<g id="Node000014" class="node">
<title>Node14</title>
<g id="a_Node000014"><a xlink:title=" ">
<polygon fill="white" stroke="#666666" points="235.12,-81.25 177.12,-81.25 177.12,-62 235.12,-62 235.12,-81.25"/>
<text text-anchor="middle" x="206.12" y="-67.75" font-family="Helvetica,sans-Serif" font-size="10.00">std::string</text>
</a>
</g>
</g>
<!-- Node14&#45;&gt;Node13 -->
<g id="edge17_Node000013_Node000014" class="edge">
<title>Node14&#45;&gt;Node13</title>
<g id="a_edge17_Node000013_Node000014"><a xlink:title=" ">
<path fill="none" stroke="#63b8ff" d="M246.69,-71.62C281.39,-71.62 332.35,-71.62 372.03,-71.62"/>
<polygon fill="#63b8ff" stroke="#63b8ff" points="247.1,-68.13 237.1,-71.63 247.1,-75.13 247.1,-68.13"/>
</a>
</g>
</g>
<!-- Node15 -->
<g id="Node000015" class="node">
<title>Node15</title>
<g id="a_Node000015"><a xlink:href="classdunedaq_1_1conffwk_1_1map.html" target="_top" xlink:title=" ">
<polygon fill="white" stroke="#666666" points="274.5,-214.25 137.75,-214.25 137.75,-195 274.5,-195 274.5,-214.25"/>
<text text-anchor="middle" x="206.12" y="-200.75" font-family="Helvetica,sans-Serif" font-size="10.00">dunedaq::conffwk::map&lt; T &gt;</text>
</a>
</g>
</g>
<!-- Node15&#45;&gt;Node4 -->
<g id="edge21_Node000004_Node000015" class="edge">
<title>Node15&#45;&gt;Node4</title>
<g id="a_edge21_Node000004_Node000015"><a xlink:title=" ">
<path fill="none" stroke="#9a32cd" stroke-dasharray="5,2" d="M286.35,-204.62C314.61,-204.62 345.95,-204.62 372.28,-204.62"/>
<polygon fill="#9a32cd" stroke="#9a32cd" points="286.38,-201.13 276.38,-204.63 286.38,-208.13 286.38,-201.13"/>
</a>
</g>
<text text-anchor="middle" x="318.75" y="-206.38" font-family="Helvetica,sans-Serif" font-size="10.00" fill="grey"> p_data_info</text>
</g>
<!-- Node16 -->
<g id="Node000016" class="node">
<title>Node16</title>
<g id="a_Node000016"><a xlink:title=" ">
<polygon fill="white" stroke="#666666" points="100.75,-219.88 0,-219.88 0,-189.38 100.75,-189.38 100.75,-219.88"/>
<text text-anchor="start" x="8" y="-206.38" font-family="Helvetica,sans-Serif" font-size="10.00">std::unordered_map</text>
<text text-anchor="middle" x="50.38" y="-195.12" font-family="Helvetica,sans-Serif" font-size="10.00">&lt; std::string, T &gt;</text>
</a>
</g>
</g>
<!-- Node16&#45;&gt;Node15 -->
<g id="edge22_Node000015_Node000016" class="edge">
<title>Node16&#45;&gt;Node15</title>
<g id="a_edge22_Node000015_Node000016"><a xlink:title=" ">
<path fill="none" stroke="#63b8ff" d="M112.34,-204.62C120.61,-204.62 129.14,-204.62 137.51,-204.62"/>
<polygon fill="#63b8ff" stroke="#63b8ff" points="112.38,-201.13 102.38,-204.63 112.38,-208.13 112.38,-201.13"/>
</a>
</g>
</g>
</g>
</svg>
