<?xml version="1.0" encoding="UTF-8" standalone="no"?>
<!DOCTYPE svg PUBLIC "-//W3C//DTD SVG 1.1//EN"
 "http://www.w3.org/Graphics/SVG/1.1/DTD/svg11.dtd">
<!-- Generated by graphviz version 9.0.0 (20230911.1827)
 -->
<!-- Title: wib::Command Pages: 1 -->
<svg width="262pt" height="94pt"
 viewBox="0.00 0.00 262.38 93.75" xmlns="http://www.w3.org/2000/svg" xmlns:xlink="http://www.w3.org/1999/xlink">
<g id="graph0" class="graph" transform="scale(1 1) rotate(0) translate(4 89.75)">
<title>wib::Command</title>
<!-- Node1 -->
<g id="Node000001" class="node">
<title>Node1</title>
<g id="a_Node000001"><a xlink:title=" ">
<polygon fill="#999999" stroke="#666666" points="172.12,-19.25 92.38,-19.25 92.38,0 172.12,0 172.12,-19.25"/>
<text text-anchor="middle" x="132.25" y="-5.75" font-family="Helvetica,sans-Serif" font-size="10.00">wib::Command</text>
</a>
</g>
</g>
<!-- Node2 -->
<g id="Node000002" class="node">
<title>Node2</title>
<g id="a_Node000002"><a xlink:title=" ">
<polygon fill="white" stroke="#666666" points="128.5,-85.75 0,-85.75 0,-66.5 128.5,-66.5 128.5,-85.75"/>
<text text-anchor="middle" x="64.25" y="-72.25" font-family="Helvetica,sans-Serif" font-size="10.00">google::protobuf::Message</text>
</a>
</g>
</g>
<!-- Node2&#45;&gt;Node1 -->
<g id="edge1_Node000001_Node000002" class="edge">
<title>Node2&#45;&gt;Node1</title>
<g id="a_edge1_Node000001_Node000002"><a xlink:title=" ">
<path fill="none" stroke="#63b8ff" d="M81.96,-58.33C95.05,-45.91 112.35,-29.5 122.88,-19.52"/>
<polygon fill="#63b8ff" stroke="#63b8ff" points="79.65,-55.69 74.8,-65.11 84.47,-60.77 79.65,-55.69"/>
</a>
</g>
</g>
<!-- Node3 -->
<g id="Node000003" class="node">
<title>Node3</title>
<g id="a_Node000003"><a xlink:href="structwib_1_1Command_1_1Impl__.html" target="_top" xlink:title=" ">
<polygon fill="white" stroke="#666666" points="254.38,-85.75 146.12,-85.75 146.12,-66.5 254.38,-66.5 254.38,-85.75"/>
<text text-anchor="middle" x="200.25" y="-72.25" font-family="Helvetica,sans-Serif" font-size="10.00">wib::Command::Impl_</text>
</a>
</g>
</g>
<!-- Node3&#45;&gt;Node1 -->
<g id="edge2_Node000001_Node000003" class="edge">
<title>Node3&#45;&gt;Node1</title>
<g id="a_edge2_Node000001_Node000003"><a xlink:title=" ">
<path fill="none" stroke="#9a32cd" stroke-dasharray="5,2" d="M182.54,-58.33C169.45,-45.91 152.15,-29.5 141.62,-19.52"/>
<polygon fill="#9a32cd" stroke="#9a32cd" points="180.03,-60.77 189.7,-65.11 184.85,-55.69 180.03,-60.77"/>
</a>
</g>
<text text-anchor="middle" x="185.62" y="-39" font-family="Helvetica,sans-Serif" font-size="10.00" fill="grey"> _impl_</text>
</g>
</g>
</svg>
