<?xml version="1.0" encoding="UTF-8" standalone="no"?>
<!DOCTYPE svg PUBLIC "-//W3C//DTD SVG 1.1//EN"
 "http://www.w3.org/Graphics/SVG/1.1/DTD/svg11.dtd">
<!-- Generated by graphviz version 9.0.0 (20230911.1827)
 -->
<!-- Title: dunedaq::datahandlinglibs::SourceEmulatorModel&lt; ReadoutType &gt; Pages: 1 -->
<svg width="989pt" height="251pt"
 viewBox="0.00 0.00 989.00 250.88" xmlns="http://www.w3.org/2000/svg" xmlns:xlink="http://www.w3.org/1999/xlink">
<g id="graph0" class="graph" transform="scale(1 1) rotate(0) translate(4 246.88)">
<title>dunedaq::datahandlinglibs::SourceEmulatorModel&lt; ReadoutType &gt;</title>
<!-- Node1 -->
<g id="Node000001" class="node">
<title>Node1</title>
<g id="a_Node000001"><a xlink:title=" ">
<polygon fill="#999999" stroke="#666666" points="981,-134.12 854,-134.12 854,-92.38 981,-92.38 981,-134.12"/>
<text text-anchor="start" x="862" y="-120.62" font-family="Helvetica,sans-Serif" font-size="10.00">dunedaq::datahandlinglibs</text>
<text text-anchor="start" x="862" y="-109.38" font-family="Helvetica,sans-Serif" font-size="10.00">::SourceEmulatorModel&lt;</text>
<text text-anchor="middle" x="917.5" y="-98.12" font-family="Helvetica,sans-Serif" font-size="10.00"> ReadoutType &gt;</text>
</a>
</g>
</g>
<!-- Node2 -->
<g id="Node000002" class="node">
<title>Node2</title>
<g id="a_Node000002"><a xlink:href="classdunedaq_1_1datahandlinglibs_1_1SourceEmulatorConcept.html" target="_top" xlink:title=" ">
<polygon fill="white" stroke="#666666" points="702.88,-226.5 575.88,-226.5 575.88,-196 702.88,-196 702.88,-226.5"/>
<text text-anchor="start" x="583.88" y="-213" font-family="Helvetica,sans-Serif" font-size="10.00">dunedaq::datahandlinglibs</text>
<text text-anchor="middle" x="639.38" y="-201.75" font-family="Helvetica,sans-Serif" font-size="10.00">::SourceEmulatorConcept</text>
</a>
</g>
</g>
<!-- Node2&#45;&gt;Node1 -->
<g id="edge1_Node000001_Node000002" class="edge">
<title>Node2&#45;&gt;Node1</title>
<g id="a_edge1_Node000001_Node000002"><a xlink:title=" ">
<path fill="none" stroke="#63b8ff" d="M713.76,-196.5C751.11,-187.81 796.79,-175.34 836,-159.25 852.38,-152.53 869.55,-143.09 883.8,-134.51"/>
<polygon fill="#63b8ff" stroke="#63b8ff" points="713.4,-192.99 704.43,-198.63 714.96,-199.82 713.4,-192.99"/>
</a>
</g>
</g>
<!-- Node3 -->
<g id="Node000003" class="node">
<title>Node3</title>
<g id="a_Node000003"><a xlink:href="classdunedaq_1_1opmonlib_1_1MonitorableObject.html" target="_top" xlink:title=" ">
<polygon fill="white" stroke="#666666" points="520.5,-226.5 419.75,-226.5 419.75,-196 520.5,-196 520.5,-226.5"/>
<text text-anchor="start" x="427.75" y="-213" font-family="Helvetica,sans-Serif" font-size="10.00">dunedaq::opmonlib::</text>
<text text-anchor="middle" x="470.12" y="-201.75" font-family="Helvetica,sans-Serif" font-size="10.00">MonitorableObject</text>
</a>
</g>
</g>
<!-- Node3&#45;&gt;Node2 -->
<g id="edge2_Node000002_Node000003" class="edge">
<title>Node3&#45;&gt;Node2</title>
<g id="a_edge2_Node000002_Node000003"><a xlink:title=" ">
<path fill="none" stroke="#63b8ff" d="M531.97,-211.25C546.13,-211.25 561.23,-211.25 575.47,-211.25"/>
<polygon fill="#63b8ff" stroke="#63b8ff" points="532.37,-207.75 522.37,-211.25 532.37,-214.75 532.37,-207.75"/>
</a>
</g>
</g>
<!-- Node4 -->
<g id="Node000004" class="node">
<title>Node4</title>
<g id="a_Node000004"><a xlink:href="classdunedaq_1_1opmon_1_1OpMonId.html" target="_top" xlink:title=" ">
<polygon fill="white" stroke="#666666" points="328.25,-220.88 197.5,-220.88 197.5,-201.62 328.25,-201.62 328.25,-220.88"/>
<text text-anchor="middle" x="262.88" y="-207.38" font-family="Helvetica,sans-Serif" font-size="10.00">dunedaq::opmon::OpMonId</text>
</a>
</g>
</g>
<!-- Node4&#45;&gt;Node3 -->
<g id="edge3_Node000003_Node000004" class="edge">
<title>Node4&#45;&gt;Node3</title>
<g id="a_edge3_Node000003_Node000004"><a xlink:title=" ">
<path fill="none" stroke="#9a32cd" stroke-dasharray="5,2" d="M339.76,-211.25C366.36,-211.25 395.53,-211.25 419.44,-211.25"/>
<polygon fill="#9a32cd" stroke="#9a32cd" points="340.05,-207.75 330.05,-211.25 340.05,-214.75 340.05,-207.75"/>
</a>
</g>
<text text-anchor="middle" x="374" y="-213" font-family="Helvetica,sans-Serif" font-size="10.00" fill="grey"> m_parent_id</text>
</g>
<!-- Node5 -->
<g id="Node000005" class="node">
<title>Node5</title>
<g id="a_Node000005"><a xlink:title=" ">
<polygon fill="white" stroke="#666666" points="129.62,-242.88 1.12,-242.88 1.12,-223.62 129.62,-223.62 129.62,-242.88"/>
<text text-anchor="middle" x="65.38" y="-229.38" font-family="Helvetica,sans-Serif" font-size="10.00">google::protobuf::Message</text>
</a>
</g>
</g>
<!-- Node5&#45;&gt;Node4 -->
<g id="edge4_Node000004_Node000005" class="edge">
<title>Node5&#45;&gt;Node4</title>
<g id="a_edge4_Node000004_Node000005"><a xlink:title=" ">
<path fill="none" stroke="#63b8ff" d="M141.4,-224.81C159.81,-222.74 179.35,-220.54 197.21,-218.53"/>
<polygon fill="#63b8ff" stroke="#63b8ff" points="141.17,-221.31 131.62,-225.91 141.95,-228.27 141.17,-221.31"/>
</a>
</g>
</g>
<!-- Node6 -->
<g id="Node000006" class="node">
<title>Node6</title>
<g id="a_Node000006"><a xlink:href="structdunedaq_1_1opmon_1_1OpMonId_1_1Impl__.html" target="_top" xlink:title=" ">
<polygon fill="white" stroke="#666666" points="130.75,-205.5 0,-205.5 0,-175 130.75,-175 130.75,-205.5"/>
<text text-anchor="start" x="8" y="-192" font-family="Helvetica,sans-Serif" font-size="10.00">dunedaq::opmon::OpMonId</text>
<text text-anchor="middle" x="65.38" y="-180.75" font-family="Helvetica,sans-Serif" font-size="10.00">::Impl_</text>
</a>
</g>
</g>
<!-- Node6&#45;&gt;Node4 -->
<g id="edge5_Node000004_Node000006" class="edge">
<title>Node6&#45;&gt;Node4</title>
<g id="a_edge5_Node000004_Node000006"><a xlink:title=" ">
<path fill="none" stroke="#9a32cd" stroke-dasharray="5,2" d="M142.59,-198.44C160.65,-200.38 179.74,-202.43 197.22,-204.31"/>
<polygon fill="#9a32cd" stroke="#9a32cd" points="143.02,-194.96 132.71,-197.38 142.28,-201.92 143.02,-194.96"/>
</a>
</g>
<text text-anchor="middle" x="164.12" y="-203" font-family="Helvetica,sans-Serif" font-size="10.00" fill="grey"> _impl_</text>
</g>
<!-- Node7 -->
<g id="Node000007" class="node">
<title>Node7</title>
<g id="a_Node000007"><a xlink:href="classdunedaq_1_1datahandlinglibs_1_1ErrorBitGenerator.html" target="_top" xlink:title=" ">
<polygon fill="white" stroke="#666666" points="702.88,-177.5 575.88,-177.5 575.88,-147 702.88,-147 702.88,-177.5"/>
<text text-anchor="start" x="583.88" y="-164" font-family="Helvetica,sans-Serif" font-size="10.00">dunedaq::datahandlinglibs</text>
<text text-anchor="middle" x="639.38" y="-152.75" font-family="Helvetica,sans-Serif" font-size="10.00">::ErrorBitGenerator</text>
</a>
</g>
</g>
<!-- Node7&#45;&gt;Node1 -->
<g id="edge6_Node000001_Node000007" class="edge">
<title>Node7&#45;&gt;Node1</title>
<g id="a_edge6_Node000001_Node000007"><a xlink:title=" ">
<path fill="none" stroke="#9a32cd" stroke-dasharray="5,2" d="M714.06,-149.66C750.73,-143.34 795.72,-135.5 836,-128.25 841.74,-127.22 847.7,-126.13 853.67,-125.03"/>
<polygon fill="#9a32cd" stroke="#9a32cd" points="713.71,-146.17 704.45,-151.31 714.9,-153.07 713.71,-146.17"/>
</a>
</g>
<text text-anchor="middle" x="787.62" y="-146" font-family="Helvetica,sans-Serif" font-size="10.00" fill="grey"> m_error_bit_generator</text>
</g>
<!-- Node8 -->
<g id="Node000008" class="node">
<title>Node8</title>
<g id="a_Node000008"><a xlink:href="classdunedaq_1_1datahandlinglibs_1_1ReusableThread.html" target="_top" xlink:title=" ">
<polygon fill="white" stroke="#666666" points="702.88,-128.5 575.88,-128.5 575.88,-98 702.88,-98 702.88,-128.5"/>
<text text-anchor="start" x="583.88" y="-115" font-family="Helvetica,sans-Serif" font-size="10.00">dunedaq::datahandlinglibs</text>
<text text-anchor="middle" x="639.38" y="-103.75" font-family="Helvetica,sans-Serif" font-size="10.00">::ReusableThread</text>
</a>
</g>
</g>
<!-- Node8&#45;&gt;Node1 -->
<g id="edge7_Node000001_Node000008" class="edge">
<title>Node8&#45;&gt;Node1</title>
<g id="a_edge7_Node000001_Node000008"><a xlink:title=" ">
<path fill="none" stroke="#9a32cd" stroke-dasharray="5,2" d="M714.41,-113.25C757.88,-113.25 812.23,-113.25 853.61,-113.25"/>
<polygon fill="#9a32cd" stroke="#9a32cd" points="714.55,-109.75 704.55,-113.25 714.55,-116.75 714.55,-109.75"/>
</a>
</g>
<text text-anchor="middle" x="787.62" y="-115" font-family="Helvetica,sans-Serif" font-size="10.00" fill="grey"> m_producer_thread</text>
</g>
<!-- Node9 -->
<g id="Node000009" class="node">
<title>Node9</title>
<g id="a_Node000009"><a xlink:href="structdunedaq_1_1daqdataformats_1_1SourceID.html" target="_top" xlink:title="SourceID is a generalized representation of the source of a piece of data in the DAQ....">
<polygon fill="white" stroke="#666666" points="701.75,-79.5 577,-79.5 577,-49 701.75,-49 701.75,-79.5"/>
<text text-anchor="start" x="585" y="-66" font-family="Helvetica,sans-Serif" font-size="10.00">dunedaq::daqdataformats</text>
<text text-anchor="middle" x="639.38" y="-54.75" font-family="Helvetica,sans-Serif" font-size="10.00">::SourceID</text>
</a>
</g>
</g>
<!-- Node9&#45;&gt;Node1 -->
<g id="edge8_Node000001_Node000009" class="edge">
<title>Node9&#45;&gt;Node1</title>
<g id="a_edge8_Node000001_Node000009"><a xlink:title=" ">
<path fill="none" stroke="#9a32cd" stroke-dasharray="5,2" d="M713.23,-76.53C750.06,-82.81 795.43,-90.66 836,-98 841.74,-99.04 847.7,-100.14 853.68,-101.25"/>
<polygon fill="#9a32cd" stroke="#9a32cd" points="714.03,-73.11 703.59,-74.89 712.86,-80.01 714.03,-73.11"/>
</a>
</g>
<text text-anchor="middle" x="787.62" y="-99" font-family="Helvetica,sans-Serif" font-size="10.00" fill="grey"> m_sourceid</text>
</g>
<!-- Node10 -->
<g id="Node000010" class="node">
<title>Node10</title>
<g id="a_Node000010"><a xlink:href="classdunedaq_1_1datahandlinglibs_1_1SourceEmulatorPatternGenerator.html" target="_top" xlink:title=" ">
<polygon fill="white" stroke="#666666" points="721.25,-30.5 557.5,-30.5 557.5,0 721.25,0 721.25,-30.5"/>
<text text-anchor="start" x="565.5" y="-17" font-family="Helvetica,sans-Serif" font-size="10.00">dunedaq::datahandlinglibs</text>
<text text-anchor="middle" x="639.38" y="-5.75" font-family="Helvetica,sans-Serif" font-size="10.00">::SourceEmulatorPatternGenerator</text>
</a>
</g>
</g>
<!-- Node10&#45;&gt;Node1 -->
<g id="edge9_Node000001_Node000010" class="edge">
<title>Node10&#45;&gt;Node1</title>
<g id="a_edge9_Node000001_Node000010"><a xlink:title=" ">
<path fill="none" stroke="#9a32cd" stroke-dasharray="5,2" d="M732.67,-32.9C765.93,-40.77 803.3,-51.39 836,-65 853.3,-72.2 871.3,-82.67 885.88,-92.02"/>
<polygon fill="#9a32cd" stroke="#9a32cd" points="733.56,-29.52 723.03,-30.68 731.99,-36.34 733.56,-29.52"/>
</a>
</g>
<text text-anchor="middle" x="787.62" y="-66" font-family="Helvetica,sans-Serif" font-size="10.00" fill="grey"> m_pattern_generator</text>
</g>
</g>
</svg>
