<?xml version="1.0" encoding="UTF-8" standalone="no"?>
<!DOCTYPE svg PUBLIC "-//W3C//DTD SVG 1.1//EN"
 "http://www.w3.org/Graphics/SVG/1.1/DTD/svg11.dtd">
<!-- Generated by graphviz version 9.0.0 (20230911.1827)
 -->
<!-- Title: dunedaq::timinglibs::TimingHardwareManagerBase Pages: 1 -->
<svg width="302pt" height="105pt"
 viewBox="0.00 0.00 301.88 105.00" xmlns="http://www.w3.org/2000/svg" xmlns:xlink="http://www.w3.org/1999/xlink">
<g id="graph0" class="graph" transform="scale(1 1) rotate(0) translate(4 101)">
<title>dunedaq::timinglibs::TimingHardwareManagerBase</title>
<!-- Node1 -->
<g id="Node000001" class="node">
<title>Node1</title>
<g id="a_Node000001"><a xlink:title="TimingHardwareManagerBase creates vectors of ints and writes them to the configured output queues.">
<polygon fill="#999999" stroke="#666666" points="226.75,-30.5 75,-30.5 75,0 226.75,0 226.75,-30.5"/>
<text text-anchor="start" x="83" y="-17" font-family="Helvetica,sans-Serif" font-size="10.00">dunedaq::timinglibs</text>
<text text-anchor="middle" x="150.88" y="-5.75" font-family="Helvetica,sans-Serif" font-size="10.00">::TimingHardwareManagerBase</text>
</a>
</g>
</g>
<!-- Node2 -->
<g id="Node000002" class="node">
<title>Node2</title>
<g id="a_Node000002"><a xlink:title=" ">
<polygon fill="white" stroke="#666666" points="145.75,-91.38 0,-91.38 0,-72.12 145.75,-72.12 145.75,-91.38"/>
<text text-anchor="middle" x="72.88" y="-77.88" font-family="Helvetica,sans-Serif" font-size="10.00">dunedaq::appfwk::DAQModule</text>
</a>
</g>
</g>
<!-- Node2&#45;&gt;Node1 -->
<g id="edge1_Node000001_Node000002" class="edge">
<title>Node2&#45;&gt;Node1</title>
<g id="a_edge1_Node000001_Node000002"><a xlink:title=" ">
<path fill="none" stroke="#63b8ff" d="M92.47,-64.54C105,-54.19 121.11,-40.87 133.23,-30.84"/>
<polygon fill="#63b8ff" stroke="#63b8ff" points="90.36,-61.75 84.89,-70.82 94.82,-67.14 90.36,-61.75"/>
</a>
</g>
</g>
<!-- Node3 -->
<g id="Node000003" class="node">
<title>Node3</title>
<g id="a_Node000003"><a xlink:href="classdunedaq_1_1timinglibs_1_1TimingHardwareInterface.html" target="_top" xlink:title="TimingHardwareInterface sets up IPBus UHAL interface.">
<polygon fill="white" stroke="#666666" points="293.88,-97 163.88,-97 163.88,-66.5 293.88,-66.5 293.88,-97"/>
<text text-anchor="start" x="171.88" y="-83.5" font-family="Helvetica,sans-Serif" font-size="10.00">dunedaq::timinglibs</text>
<text text-anchor="middle" x="228.88" y="-72.25" font-family="Helvetica,sans-Serif" font-size="10.00">::TimingHardwareInterface</text>
</a>
</g>
</g>
<!-- Node3&#45;&gt;Node1 -->
<g id="edge2_Node000001_Node000003" class="edge">
<title>Node3&#45;&gt;Node1</title>
<g id="a_edge2_Node000001_Node000003"><a xlink:title=" ">
<path fill="none" stroke="#63b8ff" d="M202.59,-59.02C191.37,-49.73 178.56,-39.15 168.5,-30.83"/>
<polygon fill="#63b8ff" stroke="#63b8ff" points="200.07,-61.47 210.01,-65.15 204.53,-56.08 200.07,-61.47"/>
</a>
</g>
</g>
</g>
</svg>
