<?xml version="1.0" encoding="UTF-8" standalone="no"?>
<!DOCTYPE svg PUBLIC "-//W3C//DTD SVG 1.1//EN"
 "http://www.w3.org/Graphics/SVG/1.1/DTD/svg11.dtd">
<!-- Generated by graphviz version 9.0.0 (20230911.1827)
 -->
<!-- Title: dbe::TableNode Pages: 1 -->
<svg width="284pt" height="83pt"
 viewBox="0.00 0.00 283.50 82.50" xmlns="http://www.w3.org/2000/svg" xmlns:xlink="http://www.w3.org/1999/xlink">
<g id="graph0" class="graph" transform="scale(1 1) rotate(0) translate(4 78.5)">
<title>dbe::TableNode</title>
<!-- Node1 -->
<g id="Node000001" class="node">
<title>Node1</title>
<g id="a_Node000001"><a xlink:title=" ">
<polygon fill="#999999" stroke="#666666" points="174.88,-74.5 91.38,-74.5 91.38,-55.25 174.88,-55.25 174.88,-74.5"/>
<text text-anchor="middle" x="133.12" y="-61" font-family="Helvetica,sans-Serif" font-size="10.00">dbe::TableNode</text>
</a>
</g>
</g>
<!-- Node2 -->
<g id="Node000002" class="node">
<title>Node2</title>
<g id="a_Node000002"><a xlink:href="classdbe_1_1TableAttributeNode.html" target="_top" xlink:title=" ">
<polygon fill="white" stroke="#666666" points="120.25,-19.25 0,-19.25 0,0 120.25,0 120.25,-19.25"/>
<text text-anchor="middle" x="60.12" y="-5.75" font-family="Helvetica,sans-Serif" font-size="10.00">dbe::TableAttributeNode</text>
</a>
</g>
</g>
<!-- Node1&#45;&gt;Node2 -->
<g id="edge1_Node000001_Node000002" class="edge">
<title>Node1&#45;&gt;Node2</title>
<g id="a_edge1_Node000001_Node000002"><a xlink:title=" ">
<path fill="none" stroke="#63b8ff" d="M111.66,-48.22C98.84,-38.87 83.03,-27.33 72.33,-19.52"/>
<polygon fill="#63b8ff" stroke="#63b8ff" points="109.38,-50.88 119.52,-53.95 113.5,-45.23 109.38,-50.88"/>
</a>
</g>
</g>
<!-- Node3 -->
<g id="Node000003" class="node">
<title>Node3</title>
<g id="a_Node000003"><a xlink:href="classdbe_1_1TableRelationshipNode.html" target="_top" xlink:title=" ">
<polygon fill="white" stroke="#666666" points="275.5,-19.25 138.75,-19.25 138.75,0 275.5,0 275.5,-19.25"/>
<text text-anchor="middle" x="207.12" y="-5.75" font-family="Helvetica,sans-Serif" font-size="10.00">dbe::TableRelationshipNode</text>
</a>
</g>
</g>
<!-- Node1&#45;&gt;Node3 -->
<g id="edge2_Node000001_Node000003" class="edge">
<title>Node1&#45;&gt;Node3</title>
<g id="a_edge2_Node000001_Node000003"><a xlink:title=" ">
<path fill="none" stroke="#63b8ff" d="M154.88,-48.22C167.88,-38.87 183.91,-27.33 194.76,-19.52"/>
<polygon fill="#63b8ff" stroke="#63b8ff" points="152.98,-45.28 146.91,-53.96 157.07,-50.96 152.98,-45.28"/>
</a>
</g>
</g>
</g>
</svg>
