<?xml version="1.0" encoding="UTF-8" standalone="no"?>
<!DOCTYPE svg PUBLIC "-//W3C//DTD SVG 1.1//EN"
 "http://www.w3.org/Graphics/SVG/1.1/DTD/svg11.dtd">
<!-- Generated by graphviz version 9.0.0 (20230911.1827)
 -->
<!-- Title: dunedaq::appmodel::SmartDaqApplication Pages: 1 -->
<svg width="738pt" height="480pt"
 viewBox="0.00 0.00 737.50 479.50" xmlns="http://www.w3.org/2000/svg" xmlns:xlink="http://www.w3.org/1999/xlink">
<g id="graph0" class="graph" transform="scale(1 1) rotate(0) translate(4 475.5)">
<title>dunedaq::appmodel::SmartDaqApplication</title>
<!-- Node1 -->
<g id="Node000001" class="node">
<title>Node1</title>
<g id="a_Node000001"><a xlink:title=" ">
<polygon fill="#999999" stroke="#666666" points="420,-250.5 312.5,-250.5 312.5,-220 420,-220 420,-250.5"/>
<text text-anchor="start" x="320.5" y="-237" font-family="Helvetica,sans-Serif" font-size="10.00">dunedaq::appmodel::</text>
<text text-anchor="middle" x="366.25" y="-225.75" font-family="Helvetica,sans-Serif" font-size="10.00">SmartDaqApplication</text>
</a>
</g>
</g>
<!-- Node4 -->
<g id="Node000004" class="node">
<title>Node4</title>
<g id="a_Node000004"><a xlink:href="classdunedaq_1_1appmodel_1_1DFApplication.html" target="_top" xlink:title=" ">
<polygon fill="white" stroke="#666666" points="574.75,-471.5 471,-471.5 471,-441 574.75,-441 574.75,-471.5"/>
<text text-anchor="start" x="479" y="-458" font-family="Helvetica,sans-Serif" font-size="10.00">dunedaq::appmodel::</text>
<text text-anchor="middle" x="522.88" y="-446.75" font-family="Helvetica,sans-Serif" font-size="10.00">DFApplication</text>
</a>
</g>
</g>
<!-- Node1&#45;&gt;Node4 -->
<g id="edge5_Node000001_Node000004" class="edge">
<title>Node1&#45;&gt;Node4</title>
<g id="a_edge5_Node000001_Node000004"><a xlink:title=" ">
<path fill="none" stroke="#63b8ff" d="M373.92,-261.94C384.3,-302.09 408.28,-377.42 456,-422.25 464.92,-430.63 476.92,-436.27 488.23,-440.58"/>
<polygon fill="#63b8ff" stroke="#63b8ff" points="377.36,-261.24 371.55,-252.38 370.56,-262.92 377.36,-261.24"/>
</a>
</g>
</g>
<!-- Node1&#45;&gt;Node4 -->
<g id="edge6_Node000001_Node000004" class="edge">
<title>Node1&#45;&gt;Node4</title>
<g id="a_edge6_Node000001_Node000004"><a xlink:title=" ">
<path fill="none" stroke="#63b8ff" d="M371.32,-261.9C379.95,-305.49 403.74,-391.16 456,-440.25 460.28,-444.27 465.27,-447.66 470.55,-450.46"/>
<polygon fill="#63b8ff" stroke="#63b8ff" points="374.8,-261.48 369.55,-252.28 367.92,-262.75 374.8,-261.48"/>
</a>
</g>
</g>
<!-- Node5 -->
<g id="Node000005" class="node">
<title>Node5</title>
<g id="a_Node000005"><a xlink:href="classdunedaq_1_1appmodel_1_1DFOApplication.html" target="_top" xlink:title=" ">
<polygon fill="white" stroke="#666666" points="574.75,-422.5 471,-422.5 471,-392 574.75,-392 574.75,-422.5"/>
<text text-anchor="start" x="479" y="-409" font-family="Helvetica,sans-Serif" font-size="10.00">dunedaq::appmodel::</text>
<text text-anchor="middle" x="522.88" y="-397.75" font-family="Helvetica,sans-Serif" font-size="10.00">DFOApplication</text>
</a>
</g>
</g>
<!-- Node1&#45;&gt;Node5 -->
<g id="edge7_Node000001_Node000005" class="edge">
<title>Node1&#45;&gt;Node5</title>
<g id="a_edge7_Node000001_Node000005"><a xlink:title=" ">
<path fill="none" stroke="#63b8ff" d="M379.56,-261.38C393.48,-292.16 419.1,-342.47 456,-373.25 465.86,-381.48 478.72,-387.16 490.45,-391.62"/>
<polygon fill="#63b8ff" stroke="#63b8ff" points="382.83,-260.1 375.58,-252.37 376.43,-262.94 382.83,-260.1"/>
</a>
</g>
</g>
<!-- Node1&#45;&gt;Node5 -->
<g id="edge8_Node000001_Node000005" class="edge">
<title>Node1&#45;&gt;Node5</title>
<g id="a_edge8_Node000001_Node000005"><a xlink:title=" ">
<path fill="none" stroke="#63b8ff" d="M374.51,-261.32C386.67,-296.02 414.04,-356.25 456,-391.25 460.42,-394.93 465.43,-398.11 470.67,-400.78"/>
<polygon fill="#63b8ff" stroke="#63b8ff" points="377.9,-260.44 371.44,-252.04 371.26,-262.64 377.9,-260.44"/>
</a>
</g>
</g>
<!-- Node6 -->
<g id="Node000006" class="node">
<title>Node6</title>
<g id="a_Node000006"><a xlink:href="classdunedaq_1_1appmodel_1_1DTSHSIApplication.html" target="_top" xlink:title=" ">
<polygon fill="white" stroke="#666666" points="574.75,-373.5 471,-373.5 471,-343 574.75,-343 574.75,-373.5"/>
<text text-anchor="start" x="479" y="-360" font-family="Helvetica,sans-Serif" font-size="10.00">dunedaq::appmodel::</text>
<text text-anchor="middle" x="522.88" y="-348.75" font-family="Helvetica,sans-Serif" font-size="10.00">DTSHSIApplication</text>
</a>
</g>
</g>
<!-- Node1&#45;&gt;Node6 -->
<g id="edge9_Node000001_Node000006" class="edge">
<title>Node1&#45;&gt;Node6</title>
<g id="a_edge9_Node000001_Node000006"><a xlink:title=" ">
<path fill="none" stroke="#63b8ff" d="M389.71,-259.5C406.05,-279.26 429.81,-306.38 456,-324.25 467.32,-331.97 481.34,-337.72 493.54,-342.5"/>
<polygon fill="#63b8ff" stroke="#63b8ff" points="392.53,-257.41 383.49,-251.89 387.12,-261.85 392.53,-257.41"/>
</a>
</g>
</g>
<!-- Node1&#45;&gt;Node6 -->
<g id="edge10_Node000001_Node000006" class="edge">
<title>Node1&#45;&gt;Node6</title>
<g id="a_edge10_Node000001_Node000006"><a xlink:title=" ">
<path fill="none" stroke="#63b8ff" d="M379.97,-260.4C395.59,-284.73 423.98,-320.4 456,-342.25 460.55,-345.35 465.53,-348.14 470.66,-350.57"/>
<polygon fill="#63b8ff" stroke="#63b8ff" points="383.06,-258.75 374.87,-252.03 377.08,-262.39 383.06,-258.75"/>
</a>
</g>
</g>
<!-- Node7 -->
<g id="Node000007" class="node">
<title>Node7</title>
<g id="a_Node000007"><a xlink:href="classdunedaq_1_1appmodel_1_1FakeDataApplication.html" target="_top" xlink:title=" ">
<polygon fill="white" stroke="#666666" points="575.88,-324.5 469.88,-324.5 469.88,-294 575.88,-294 575.88,-324.5"/>
<text text-anchor="start" x="477.88" y="-311" font-family="Helvetica,sans-Serif" font-size="10.00">dunedaq::appmodel::</text>
<text text-anchor="middle" x="522.88" y="-299.75" font-family="Helvetica,sans-Serif" font-size="10.00">FakeDataApplication</text>
</a>
</g>
</g>
<!-- Node1&#45;&gt;Node7 -->
<g id="edge11_Node000001_Node000007" class="edge">
<title>Node1&#45;&gt;Node7</title>
<g id="a_edge11_Node000001_Node000007"><a xlink:title=" ">
<path fill="none" stroke="#63b8ff" d="M418.18,-256.23C430.39,-262.66 443.52,-269.47 456,-275.25 469.99,-281.73 486.16,-287.88 498.99,-293.54"/>
<polygon fill="#63b8ff" stroke="#63b8ff" points="419.98,-253.23 409.5,-251.66 416.72,-259.42 419.98,-253.23"/>
</a>
</g>
</g>
<!-- Node1&#45;&gt;Node7 -->
<g id="edge12_Node000001_Node000007" class="edge">
<title>Node1&#45;&gt;Node7</title>
<g id="a_edge12_Node000001_Node000007"><a xlink:title=" ">
<path fill="none" stroke="#63b8ff" d="M391.29,-257.24C408.88,-269.04 433.49,-282.83 456,-293.25 460.33,-295.25 464.87,-297.23 469.45,-299.1"/>
<polygon fill="#63b8ff" stroke="#63b8ff" points="393.73,-254.68 383.54,-251.79 389.71,-260.41 393.73,-254.68"/>
</a>
</g>
</g>
<!-- Node8 -->
<g id="Node000008" class="node">
<title>Node8</title>
<g id="a_Node000008"><a xlink:href="classdunedaq_1_1appmodel_1_1FakeHSIApplication.html" target="_top" xlink:title=" ">
<polygon fill="white" stroke="#666666" points="574.75,-275.5 471,-275.5 471,-245 574.75,-245 574.75,-275.5"/>
<text text-anchor="start" x="479" y="-262" font-family="Helvetica,sans-Serif" font-size="10.00">dunedaq::appmodel::</text>
<text text-anchor="middle" x="522.88" y="-250.75" font-family="Helvetica,sans-Serif" font-size="10.00">FakeHSIApplication</text>
</a>
</g>
</g>
<!-- Node1&#45;&gt;Node8 -->
<g id="edge13_Node000001_Node000008" class="edge">
<title>Node1&#45;&gt;Node8</title>
<g id="a_edge13_Node000001_Node000008"><a xlink:title=" ">
<path fill="none" stroke="#63b8ff" d="M431.71,-239.01C444.7,-240.94 458.19,-243.21 470.65,-245.57"/>
<polygon fill="#63b8ff" stroke="#63b8ff" points="432.36,-235.56 421.96,-237.62 431.37,-242.49 432.36,-235.56"/>
</a>
</g>
</g>
<!-- Node1&#45;&gt;Node8 -->
<g id="edge14_Node000001_Node000008" class="edge">
<title>Node1&#45;&gt;Node8</title>
<g id="a_edge14_Node000001_Node000008"><a xlink:title=" ">
<path fill="none" stroke="#63b8ff" d="M431.71,-252.34C444.7,-254.61 458.19,-256.7 470.65,-258.36"/>
<polygon fill="#63b8ff" stroke="#63b8ff" points="432.42,-248.91 421.95,-250.57 431.17,-255.8 432.42,-248.91"/>
</a>
</g>
</g>
<!-- Node9 -->
<g id="Node000009" class="node">
<title>Node9</title>
<g id="a_Node000009"><a xlink:href="classdunedaq_1_1appmodel_1_1HSIEventToTCApplication.html" target="_top" xlink:title=" ">
<polygon fill="white" stroke="#666666" points="587.88,-226.5 457.88,-226.5 457.88,-196 587.88,-196 587.88,-226.5"/>
<text text-anchor="start" x="465.88" y="-213" font-family="Helvetica,sans-Serif" font-size="10.00">dunedaq::appmodel::</text>
<text text-anchor="middle" x="522.88" y="-201.75" font-family="Helvetica,sans-Serif" font-size="10.00">HSIEventToTCApplication</text>
</a>
</g>
</g>
<!-- Node1&#45;&gt;Node9 -->
<g id="edge15_Node000001_Node000009" class="edge">
<title>Node1&#45;&gt;Node9</title>
<g id="a_edge15_Node000001_Node000009"><a xlink:title=" ">
<path fill="none" stroke="#63b8ff" d="M431.6,-218.6C440.2,-217.15 449.02,-215.78 457.62,-214.56"/>
<polygon fill="#63b8ff" stroke="#63b8ff" points="431.2,-215.11 421.95,-220.28 432.41,-222.01 431.2,-215.11"/>
</a>
</g>
</g>
<!-- Node1&#45;&gt;Node9 -->
<g id="edge16_Node000001_Node000009" class="edge">
<title>Node1&#45;&gt;Node9</title>
<g id="a_edge16_Node000001_Node000009"><a xlink:title=" ">
<path fill="none" stroke="#63b8ff" d="M431.59,-231.93C442,-230.45 452.73,-228.76 463,-226.96"/>
<polygon fill="#63b8ff" stroke="#63b8ff" points="431.4,-228.42 421.96,-233.24 432.34,-235.36 431.4,-228.42"/>
</a>
</g>
</g>
<!-- Node10 -->
<g id="Node000010" class="node">
<title>Node10</title>
<g id="a_Node000010"><a xlink:href="classdunedaq_1_1appmodel_1_1ReadoutApplication.html" target="_top" xlink:title=" ">
<polygon fill="white" stroke="#666666" points="574.75,-177.5 471,-177.5 471,-147 574.75,-147 574.75,-177.5"/>
<text text-anchor="start" x="479" y="-164" font-family="Helvetica,sans-Serif" font-size="10.00">dunedaq::appmodel::</text>
<text text-anchor="middle" x="522.88" y="-152.75" font-family="Helvetica,sans-Serif" font-size="10.00">ReadoutApplication</text>
</a>
</g>
</g>
<!-- Node1&#45;&gt;Node10 -->
<g id="edge17_Node000001_Node000010" class="edge">
<title>Node1&#45;&gt;Node10</title>
<g id="a_edge17_Node000001_Node000010"><a xlink:title=" ">
<path fill="none" stroke="#63b8ff" d="M392.13,-213.07C409.68,-201.62 433.9,-188.37 456,-178.25 460.67,-176.11 465.58,-174 470.53,-172.01"/>
<polygon fill="#63b8ff" stroke="#63b8ff" points="390.17,-210.17 383.89,-218.71 394.12,-215.95 390.17,-210.17"/>
</a>
</g>
</g>
<!-- Node1&#45;&gt;Node10 -->
<g id="edge18_Node000001_Node000010" class="edge">
<title>Node1&#45;&gt;Node10</title>
<g id="a_edge18_Node000001_Node000010"><a xlink:title=" ">
<path fill="none" stroke="#63b8ff" d="M419.32,-214.36C431.22,-208.24 443.93,-201.78 456,-196.25 470.13,-189.78 486.45,-183.58 499.31,-177.87"/>
<polygon fill="#63b8ff" stroke="#63b8ff" points="417.73,-211.24 410.45,-218.93 420.94,-217.47 417.73,-211.24"/>
</a>
</g>
</g>
<!-- Node11 -->
<g id="Node000011" class="node">
<title>Node11</title>
<g id="a_Node000011"><a xlink:href="classdunedaq_1_1appmodel_1_1TPStreamWriterApplication.html" target="_top" xlink:title=" ">
<polygon fill="white" stroke="#666666" points="589.75,-128.5 456,-128.5 456,-98 589.75,-98 589.75,-128.5"/>
<text text-anchor="start" x="464" y="-115" font-family="Helvetica,sans-Serif" font-size="10.00">dunedaq::appmodel::</text>
<text text-anchor="middle" x="522.88" y="-103.75" font-family="Helvetica,sans-Serif" font-size="10.00">TPStreamWriterApplication</text>
</a>
</g>
</g>
<!-- Node1&#45;&gt;Node11 -->
<g id="edge19_Node000001_Node000011" class="edge">
<title>Node1&#45;&gt;Node11</title>
<g id="a_edge19_Node000001_Node000011"><a xlink:title=" ">
<path fill="none" stroke="#63b8ff" d="M380.25,-209.92C395.96,-185.83 424.27,-150.78 456,-129.25 456.2,-129.11 456.41,-128.98 456.61,-128.84"/>
<polygon fill="#63b8ff" stroke="#63b8ff" points="377.4,-207.87 375.11,-218.22 383.36,-211.56 377.4,-207.87"/>
</a>
</g>
</g>
<!-- Node1&#45;&gt;Node11 -->
<g id="edge20_Node000001_Node000011" class="edge">
<title>Node1&#45;&gt;Node11</title>
<g id="a_edge20_Node000001_Node000011"><a xlink:title=" ">
<path fill="none" stroke="#63b8ff" d="M390.09,-210.97C406.44,-191.46 430.08,-164.84 456,-147.25 467.44,-139.49 481.61,-133.71 493.88,-128.9"/>
<polygon fill="#63b8ff" stroke="#63b8ff" points="387.55,-208.55 383.85,-218.48 392.93,-213.02 387.55,-208.55"/>
</a>
</g>
</g>
<!-- Node12 -->
<g id="Node000012" class="node">
<title>Node12</title>
<g id="a_Node000012"><a xlink:href="classdunedaq_1_1appmodel_1_1TriggerApplication.html" target="_top" xlink:title=" ">
<polygon fill="white" stroke="#666666" points="574.75,-79.5 471,-79.5 471,-49 574.75,-49 574.75,-79.5"/>
<text text-anchor="start" x="479" y="-66" font-family="Helvetica,sans-Serif" font-size="10.00">dunedaq::appmodel::</text>
<text text-anchor="middle" x="522.88" y="-54.75" font-family="Helvetica,sans-Serif" font-size="10.00">TriggerApplication</text>
</a>
</g>
</g>
<!-- Node1&#45;&gt;Node12 -->
<g id="edge21_Node000001_Node000012" class="edge">
<title>Node1&#45;&gt;Node12</title>
<g id="a_edge21_Node000001_Node000012"><a xlink:title=" ">
<path fill="none" stroke="#63b8ff" d="M374.73,-208.81C387.03,-174.25 414.4,-114.84 456,-80.25 460.42,-76.57 465.44,-73.41 470.69,-70.74"/>
<polygon fill="#63b8ff" stroke="#63b8ff" points="371.48,-207.48 371.62,-218.07 378.12,-209.71 371.48,-207.48"/>
</a>
</g>
</g>
<!-- Node1&#45;&gt;Node12 -->
<g id="edge24_Node000001_Node000012" class="edge">
<title>Node1&#45;&gt;Node12</title>
<g id="a_edge24_Node000001_Node000012"><a xlink:title=" ">
<path fill="none" stroke="#63b8ff" d="M379.62,-209.35C393.58,-178.78 419.23,-128.82 456,-98.25 465.88,-90.04 478.73,-84.36 490.46,-79.89"/>
<polygon fill="#63b8ff" stroke="#63b8ff" points="376.52,-207.72 375.63,-218.28 382.91,-210.58 376.52,-207.72"/>
</a>
</g>
</g>
<!-- Node14 -->
<g id="Node000014" class="node">
<title>Node14</title>
<g id="a_Node000014"><a xlink:href="classdunedaq_1_1appmodel_1_1WIECApplication.html" target="_top" xlink:title=" ">
<polygon fill="white" stroke="#666666" points="574.75,-30.5 471,-30.5 471,0 574.75,0 574.75,-30.5"/>
<text text-anchor="start" x="479" y="-17" font-family="Helvetica,sans-Serif" font-size="10.00">dunedaq::appmodel::</text>
<text text-anchor="middle" x="522.88" y="-5.75" font-family="Helvetica,sans-Serif" font-size="10.00">WIECApplication</text>
</a>
</g>
</g>
<!-- Node1&#45;&gt;Node14 -->
<g id="edge25_Node000001_Node000014" class="edge">
<title>Node1&#45;&gt;Node14</title>
<g id="a_edge25_Node000001_Node000014"><a xlink:title=" ">
<path fill="none" stroke="#63b8ff" d="M371.36,-208.71C380.04,-165.32 403.91,-80.08 456,-31.25 460.28,-27.23 465.28,-23.85 470.56,-21.05"/>
<polygon fill="#63b8ff" stroke="#63b8ff" points="367.96,-207.81 369.57,-218.28 374.84,-209.09 367.96,-207.81"/>
</a>
</g>
</g>
<!-- Node1&#45;&gt;Node14 -->
<g id="edge26_Node000001_Node000014" class="edge">
<title>Node1&#45;&gt;Node14</title>
<g id="a_edge26_Node000001_Node000014"><a xlink:title=" ">
<path fill="none" stroke="#63b8ff" d="M373.97,-208.73C384.4,-168.79 408.44,-93.84 456,-49.25 464.92,-40.88 476.93,-35.24 488.24,-30.93"/>
<polygon fill="#63b8ff" stroke="#63b8ff" points="370.63,-207.68 371.58,-218.23 377.41,-209.38 370.63,-207.68"/>
</a>
</g>
</g>
<!-- Node2 -->
<g id="Node000002" class="node">
<title>Node2</title>
<g id="a_Node000002"><a xlink:href="classdunedaq_1_1confmodel_1_1Application.html" target="_top" xlink:title=" ">
<polygon fill="white" stroke="#666666" points="276.5,-250.5 174.25,-250.5 174.25,-220 276.5,-220 276.5,-250.5"/>
<text text-anchor="start" x="182.25" y="-237" font-family="Helvetica,sans-Serif" font-size="10.00">dunedaq::confmodel</text>
<text text-anchor="middle" x="225.38" y="-225.75" font-family="Helvetica,sans-Serif" font-size="10.00">::Application</text>
</a>
</g>
</g>
<!-- Node2&#45;&gt;Node1 -->
<g id="edge1_Node000001_Node000002" class="edge">
<title>Node2&#45;&gt;Node1</title>
<g id="a_edge1_Node000001_Node000002"><a xlink:title=" ">
<path fill="none" stroke="#63b8ff" d="M288.4,-228.53C296.34,-228.46 304.41,-228.51 312.19,-228.67"/>
<polygon fill="#63b8ff" stroke="#63b8ff" points="288.36,-225.03 278.42,-228.7 288.48,-232.03 288.36,-225.03"/>
</a>
</g>
</g>
<!-- Node2&#45;&gt;Node1 -->
<g id="edge4_Node000001_Node000002" class="edge">
<title>Node2&#45;&gt;Node1</title>
<g id="a_edge4_Node000001_Node000002"><a xlink:title=" ">
<path fill="none" stroke="#63b8ff" d="M288.4,-241.97C296.34,-242.04 304.41,-241.99 312.19,-241.83"/>
<polygon fill="#63b8ff" stroke="#63b8ff" points="288.48,-238.47 278.42,-241.8 288.36,-245.47 288.48,-238.47"/>
</a>
</g>
</g>
<!-- Node3 -->
<g id="Node000003" class="node">
<title>Node3</title>
<g id="a_Node000003"><a xlink:href="classdunedaq_1_1conffwk_1_1DalObject.html" target="_top" xlink:title="The base class for any generated DAL object.">
<polygon fill="white" stroke="#666666" points="138.25,-244.88 0,-244.88 0,-225.62 138.25,-225.62 138.25,-244.88"/>
<text text-anchor="middle" x="69.12" y="-231.38" font-family="Helvetica,sans-Serif" font-size="10.00">dunedaq::conffwk::DalObject</text>
</a>
</g>
</g>
<!-- Node3&#45;&gt;Node2 -->
<g id="edge2_Node000002_Node000003" class="edge">
<title>Node3&#45;&gt;Node2</title>
<g id="a_edge2_Node000002_Node000003"><a xlink:title=" ">
<path fill="none" stroke="#63b8ff" d="M150.17,-228.5C158.3,-228.53 166.39,-228.65 174.08,-228.88"/>
<polygon fill="#63b8ff" stroke="#63b8ff" points="150.18,-225 140.19,-228.53 150.2,-232 150.18,-225"/>
</a>
</g>
</g>
<!-- Node3&#45;&gt;Node2 -->
<g id="edge3_Node000002_Node000003" class="edge">
<title>Node3&#45;&gt;Node2</title>
<g id="a_edge3_Node000002_Node000003"><a xlink:title=" ">
<path fill="none" stroke="#63b8ff" d="M150.17,-242C158.3,-241.97 166.39,-241.85 174.08,-241.62"/>
<polygon fill="#63b8ff" stroke="#63b8ff" points="150.2,-238.5 140.19,-241.97 150.18,-245.5 150.2,-238.5"/>
</a>
</g>
</g>
<!-- Node13 -->
<g id="Node000013" class="node">
<title>Node13</title>
<g id="a_Node000013"><a xlink:href="classdunedaq_1_1appmodel_1_1MLTApplication.html" target="_top" xlink:title=" ">
<polygon fill="white" stroke="#666666" points="729.5,-79.5 625.75,-79.5 625.75,-49 729.5,-49 729.5,-79.5"/>
<text text-anchor="start" x="633.75" y="-66" font-family="Helvetica,sans-Serif" font-size="10.00">dunedaq::appmodel::</text>
<text text-anchor="middle" x="677.62" y="-54.75" font-family="Helvetica,sans-Serif" font-size="10.00">MLTApplication</text>
</a>
</g>
</g>
<!-- Node12&#45;&gt;Node13 -->
<g id="edge22_Node000012_Node000013" class="edge">
<title>Node12&#45;&gt;Node13</title>
<g id="a_edge22_Node000012_Node000013"><a xlink:title=" ">
<path fill="none" stroke="#63b8ff" d="M586.4,-57.6C599.4,-57.41 612.94,-57.49 625.47,-57.84"/>
<polygon fill="#63b8ff" stroke="#63b8ff" points="586.6,-54.09 576.68,-57.8 586.75,-61.09 586.6,-54.09"/>
</a>
</g>
</g>
<!-- Node12&#45;&gt;Node13 -->
<g id="edge23_Node000012_Node000013" class="edge">
<title>Node12&#45;&gt;Node13</title>
<g id="a_edge23_Node000012_Node000013"><a xlink:title=" ">
<path fill="none" stroke="#63b8ff" d="M586.4,-70.9C599.4,-71.09 612.94,-71.01 625.47,-70.66"/>
<polygon fill="#63b8ff" stroke="#63b8ff" points="586.75,-67.41 576.68,-70.7 586.6,-74.41 586.75,-67.41"/>
</a>
</g>
</g>
</g>
</svg>
