<?xml version="1.0" encoding="UTF-8" standalone="no"?>
<!DOCTYPE svg PUBLIC "-//W3C//DTD SVG 1.1//EN"
 "http://www.w3.org/Graphics/SVG/1.1/DTD/svg11.dtd">
<!-- Generated by graphviz version 9.0.0 (20230911.1827)
 -->
<!-- Title: dunedaq::timing::SIChipSlave Pages: 1 -->
<svg width="150pt" height="138pt"
 viewBox="0.00 0.00 150.00 137.75" xmlns="http://www.w3.org/2000/svg" xmlns:xlink="http://www.w3.org/1999/xlink">
<g id="graph0" class="graph" transform="scale(1 1) rotate(0) translate(4 133.75)">
<title>dunedaq::timing::SIChipSlave</title>
<!-- Node1 -->
<g id="Node000001" class="node">
<title>Node1</title>
<g id="a_Node000001"><a xlink:title="Utility class to interface to SI chips.">
<polygon fill="#999999" stroke="#666666" points="142,-19.25 0,-19.25 0,0 142,0 142,-19.25"/>
<text text-anchor="middle" x="71" y="-5.75" font-family="Helvetica,sans-Serif" font-size="10.00">dunedaq::timing::SIChipSlave</text>
</a>
</g>
</g>
<!-- Node2 -->
<g id="Node000002" class="node">
<title>Node2</title>
<g id="a_Node000002"><a xlink:href="classdunedaq_1_1timing_1_1I2CSlave.html" target="_top" xlink:title=" ">
<polygon fill="white" stroke="#666666" points="134.88,-74.5 7.12,-74.5 7.12,-55.25 134.88,-55.25 134.88,-74.5"/>
<text text-anchor="middle" x="71" y="-61" font-family="Helvetica,sans-Serif" font-size="10.00">dunedaq::timing::I2CSlave</text>
</a>
</g>
</g>
<!-- Node2&#45;&gt;Node1 -->
<g id="edge1_Node000001_Node000002" class="edge">
<title>Node2&#45;&gt;Node1</title>
<g id="a_edge1_Node000001_Node000002"><a xlink:title=" ">
<path fill="none" stroke="#63b8ff" d="M71,-43.63C71,-35.34 71,-26.17 71,-19.61"/>
<polygon fill="#63b8ff" stroke="#63b8ff" points="67.5,-43.57 71,-53.57 74.5,-43.57 67.5,-43.57"/>
</a>
</g>
</g>
<!-- Node3 -->
<g id="Node000003" class="node">
<title>Node3</title>
<g id="a_Node000003"><a xlink:title=" ">
<polygon fill="white" stroke="#666666" points="120.25,-129.75 21.75,-129.75 21.75,-110.5 120.25,-110.5 120.25,-129.75"/>
<text text-anchor="middle" x="71" y="-116.25" font-family="Helvetica,sans-Serif" font-size="10.00">boost::noncopyable</text>
</a>
</g>
</g>
<!-- Node3&#45;&gt;Node2 -->
<g id="edge2_Node000002_Node000003" class="edge">
<title>Node3&#45;&gt;Node2</title>
<g id="a_edge2_Node000002_Node000003"><a xlink:title=" ">
<path fill="none" stroke="#8b1a1a" d="M71,-98.88C71,-90.59 71,-81.42 71,-74.86"/>
<polygon fill="#8b1a1a" stroke="#8b1a1a" points="67.5,-98.82 71,-108.82 74.5,-98.82 67.5,-98.82"/>
</a>
</g>
</g>
</g>
</svg>
