<?xml version="1.0" encoding="UTF-8" standalone="no"?>
<!DOCTYPE svg PUBLIC "-//W3C//DTD SVG 1.1//EN"
 "http://www.w3.org/Graphics/SVG/1.1/DTD/svg11.dtd">
<!-- Generated by graphviz version 9.0.0 (20230911.1827)
 -->
<!-- Title: dunedaq::appmodel::TCMakerPrescaleAlgorithm Pages: 1 -->
<svg width="146pt" height="227pt"
 viewBox="0.00 0.00 146.25 226.75" xmlns="http://www.w3.org/2000/svg" xmlns:xlink="http://www.w3.org/1999/xlink">
<g id="graph0" class="graph" transform="scale(1 1) rotate(0) translate(4 222.75)">
<title>dunedaq::appmodel::TCMakerPrescaleAlgorithm</title>
<!-- Node1 -->
<g id="Node000001" class="node">
<title>Node1</title>
<g id="a_Node000001"><a xlink:title=" ">
<polygon fill="#999999" stroke="#666666" points="136.75,-30.5 1.5,-30.5 1.5,0 136.75,0 136.75,-30.5"/>
<text text-anchor="start" x="9.5" y="-17" font-family="Helvetica,sans-Serif" font-size="10.00">dunedaq::appmodel::</text>
<text text-anchor="middle" x="69.12" y="-5.75" font-family="Helvetica,sans-Serif" font-size="10.00">TCMakerPrescaleAlgorithm</text>
</a>
</g>
</g>
<!-- Node2 -->
<g id="Node000002" class="node">
<title>Node2</title>
<g id="a_Node000002"><a xlink:href="classdunedaq_1_1appmodel_1_1TCAlgorithm.html" target="_top" xlink:title=" ">
<polygon fill="white" stroke="#666666" points="121,-97 17.25,-97 17.25,-66.5 121,-66.5 121,-97"/>
<text text-anchor="start" x="25.25" y="-83.5" font-family="Helvetica,sans-Serif" font-size="10.00">dunedaq::appmodel::</text>
<text text-anchor="middle" x="69.12" y="-72.25" font-family="Helvetica,sans-Serif" font-size="10.00">TCAlgorithm</text>
</a>
</g>
</g>
<!-- Node2&#45;&gt;Node1 -->
<g id="edge1_Node000001_Node000002" class="edge">
<title>Node2&#45;&gt;Node1</title>
<g id="a_edge1_Node000001_Node000002"><a xlink:title=" ">
<path fill="none" stroke="#63b8ff" d="M62.49,-54.81C62.19,-46.64 62.48,-37.91 63.37,-30.83"/>
<polygon fill="#63b8ff" stroke="#63b8ff" points="58.99,-54.9 63.25,-64.6 65.97,-54.37 58.99,-54.9"/>
</a>
</g>
</g>
<!-- Node2&#45;&gt;Node1 -->
<g id="edge6_Node000001_Node000002" class="edge">
<title>Node2&#45;&gt;Node1</title>
<g id="a_edge6_Node000001_Node000002"><a xlink:title=" ">
<path fill="none" stroke="#63b8ff" d="M75.76,-54.81C76.06,-46.64 75.77,-37.91 74.88,-30.83"/>
<polygon fill="#63b8ff" stroke="#63b8ff" points="72.28,-54.37 75,-64.6 79.26,-54.9 72.28,-54.37"/>
</a>
</g>
</g>
<!-- Node3 -->
<g id="Node000003" class="node">
<title>Node3</title>
<g id="a_Node000003"><a xlink:href="classdunedaq_1_1confmodel_1_1Jsonable.html" target="_top" xlink:title=" ">
<polygon fill="white" stroke="#666666" points="120.25,-163.5 18,-163.5 18,-133 120.25,-133 120.25,-163.5"/>
<text text-anchor="start" x="26" y="-150" font-family="Helvetica,sans-Serif" font-size="10.00">dunedaq::confmodel</text>
<text text-anchor="middle" x="69.12" y="-138.75" font-family="Helvetica,sans-Serif" font-size="10.00">::Jsonable</text>
</a>
</g>
</g>
<!-- Node3&#45;&gt;Node2 -->
<g id="edge2_Node000002_Node000003" class="edge">
<title>Node3&#45;&gt;Node2</title>
<g id="a_edge2_Node000002_Node000003"><a xlink:title=" ">
<path fill="none" stroke="#63b8ff" d="M62.49,-121.31C62.19,-113.14 62.48,-104.41 63.37,-97.33"/>
<polygon fill="#63b8ff" stroke="#63b8ff" points="58.99,-121.4 63.25,-131.1 65.97,-120.87 58.99,-121.4"/>
</a>
</g>
</g>
<!-- Node3&#45;&gt;Node2 -->
<g id="edge5_Node000002_Node000003" class="edge">
<title>Node3&#45;&gt;Node2</title>
<g id="a_edge5_Node000002_Node000003"><a xlink:title=" ">
<path fill="none" stroke="#63b8ff" d="M75.76,-121.31C76.06,-113.14 75.77,-104.41 74.88,-97.33"/>
<polygon fill="#63b8ff" stroke="#63b8ff" points="72.28,-120.87 75,-131.1 79.26,-121.4 72.28,-120.87"/>
</a>
</g>
</g>
<!-- Node4 -->
<g id="Node000004" class="node">
<title>Node4</title>
<g id="a_Node000004"><a xlink:href="classdunedaq_1_1conffwk_1_1DalObject.html" target="_top" xlink:title="The base class for any generated DAL object.">
<polygon fill="white" stroke="#666666" points="138.25,-218.75 0,-218.75 0,-199.5 138.25,-199.5 138.25,-218.75"/>
<text text-anchor="middle" x="69.12" y="-205.25" font-family="Helvetica,sans-Serif" font-size="10.00">dunedaq::conffwk::DalObject</text>
</a>
</g>
</g>
<!-- Node4&#45;&gt;Node3 -->
<g id="edge3_Node000003_Node000004" class="edge">
<title>Node4&#45;&gt;Node3</title>
<g id="a_edge3_Node000003_Node000004"><a xlink:title=" ">
<path fill="none" stroke="#63b8ff" d="M62.68,-187.92C62.14,-179.99 62.32,-171.06 63.21,-163.78"/>
<polygon fill="#63b8ff" stroke="#63b8ff" points="59.19,-188.2 63.92,-197.68 66.13,-187.32 59.19,-188.2"/>
</a>
</g>
</g>
<!-- Node4&#45;&gt;Node3 -->
<g id="edge4_Node000003_Node000004" class="edge">
<title>Node4&#45;&gt;Node3</title>
<g id="a_edge4_Node000003_Node000004"><a xlink:title=" ">
<path fill="none" stroke="#63b8ff" d="M75.57,-187.92C76.11,-179.99 75.93,-171.06 75.04,-163.78"/>
<polygon fill="#63b8ff" stroke="#63b8ff" points="72.12,-187.32 74.33,-197.68 79.06,-188.2 72.12,-187.32"/>
</a>
</g>
</g>
</g>
</svg>
