<?xml version="1.0" encoding="UTF-8" standalone="no"?>
<!DOCTYPE svg PUBLIC "-//W3C//DTD SVG 1.1//EN"
 "http://www.w3.org/Graphics/SVG/1.1/DTD/svg11.dtd">
<!-- Generated by graphviz version 9.0.0 (20230911.1827)
 -->
<!-- Title: dunedaq::confmodel::HostComponent Pages: 1 -->
<svg width="431pt" height="137pt"
 viewBox="0.00 0.00 431.00 136.50" xmlns="http://www.w3.org/2000/svg" xmlns:xlink="http://www.w3.org/1999/xlink">
<g id="graph0" class="graph" transform="scale(1 1) rotate(0) translate(4 132.5)">
<title>dunedaq::confmodel::HostComponent</title>
<!-- Node1 -->
<g id="Node000001" class="node">
<title>Node1</title>
<g id="a_Node000001"><a xlink:title=" ">
<polygon fill="#999999" stroke="#666666" points="276.5,-79.5 174.25,-79.5 174.25,-49 276.5,-49 276.5,-79.5"/>
<text text-anchor="start" x="182.25" y="-66" font-family="Helvetica,sans-Serif" font-size="10.00">dunedaq::confmodel</text>
<text text-anchor="middle" x="225.38" y="-54.75" font-family="Helvetica,sans-Serif" font-size="10.00">::HostComponent</text>
</a>
</g>
</g>
<!-- Node3 -->
<g id="Node000003" class="node">
<title>Node3</title>
<g id="a_Node000003"><a xlink:href="classdunedaq_1_1confmodel_1_1NetworkDevice.html" target="_top" xlink:title=" ">
<polygon fill="white" stroke="#666666" points="418.88,-128.5 316.62,-128.5 316.62,-98 418.88,-98 418.88,-128.5"/>
<text text-anchor="start" x="324.62" y="-115" font-family="Helvetica,sans-Serif" font-size="10.00">dunedaq::confmodel</text>
<text text-anchor="middle" x="367.75" y="-103.75" font-family="Helvetica,sans-Serif" font-size="10.00">::NetworkDevice</text>
</a>
</g>
</g>
<!-- Node1&#45;&gt;Node3 -->
<g id="edge3_Node000001_Node000003" class="edge">
<title>Node1&#45;&gt;Node3</title>
<g id="a_edge3_Node000001_Node000003"><a xlink:title=" ">
<path fill="none" stroke="#63b8ff" d="M287.47,-78.88C305.05,-84.82 323.41,-91.6 338.03,-97.66"/>
<polygon fill="#63b8ff" stroke="#63b8ff" points="288.69,-75.59 278.09,-75.77 286.49,-82.24 288.69,-75.59"/>
</a>
</g>
</g>
<!-- Node1&#45;&gt;Node3 -->
<g id="edge4_Node000001_Node000003" class="edge">
<title>Node1&#45;&gt;Node3</title>
<g id="a_edge4_Node000001_Node000003"><a xlink:title=" ">
<path fill="none" stroke="#63b8ff" d="M265.86,-84.17C281.55,-90.31 299.79,-96.8 316.4,-102.18"/>
<polygon fill="#63b8ff" stroke="#63b8ff" points="267.45,-81.04 256.87,-80.56 264.84,-87.53 267.45,-81.04"/>
</a>
</g>
</g>
<!-- Node4 -->
<g id="Node000004" class="node">
<title>Node4</title>
<g id="a_Node000004"><a xlink:href="classdunedaq_1_1confmodel_1_1ProcessingResource.html" target="_top" xlink:title=" ">
<polygon fill="white" stroke="#666666" points="423,-79.5 312.5,-79.5 312.5,-49 423,-49 423,-79.5"/>
<text text-anchor="start" x="320.5" y="-66" font-family="Helvetica,sans-Serif" font-size="10.00">dunedaq::confmodel</text>
<text text-anchor="middle" x="367.75" y="-54.75" font-family="Helvetica,sans-Serif" font-size="10.00">::ProcessingResource</text>
</a>
</g>
</g>
<!-- Node1&#45;&gt;Node4 -->
<g id="edge5_Node000001_Node000004" class="edge">
<title>Node1&#45;&gt;Node4</title>
<g id="a_edge5_Node000001_Node000004"><a xlink:title=" ">
<path fill="none" stroke="#63b8ff" d="M288.17,-57.54C296.12,-57.46 304.23,-57.5 312.06,-57.65"/>
<polygon fill="#63b8ff" stroke="#63b8ff" points="288.11,-54.04 278.17,-57.72 288.23,-61.04 288.11,-54.04"/>
</a>
</g>
</g>
<!-- Node1&#45;&gt;Node4 -->
<g id="edge6_Node000001_Node000004" class="edge">
<title>Node1&#45;&gt;Node4</title>
<g id="a_edge6_Node000001_Node000004"><a xlink:title=" ">
<path fill="none" stroke="#63b8ff" d="M288.17,-70.96C296.12,-71.04 304.23,-71 312.06,-70.85"/>
<polygon fill="#63b8ff" stroke="#63b8ff" points="288.23,-67.46 278.17,-70.78 288.11,-74.46 288.23,-67.46"/>
</a>
</g>
</g>
<!-- Node5 -->
<g id="Node000005" class="node">
<title>Node5</title>
<g id="a_Node000005"><a xlink:href="classdunedaq_1_1confmodel_1_1StorageDevice.html" target="_top" xlink:title=" ">
<polygon fill="white" stroke="#666666" points="418.88,-30.5 316.62,-30.5 316.62,0 418.88,0 418.88,-30.5"/>
<text text-anchor="start" x="324.62" y="-17" font-family="Helvetica,sans-Serif" font-size="10.00">dunedaq::confmodel</text>
<text text-anchor="middle" x="367.75" y="-5.75" font-family="Helvetica,sans-Serif" font-size="10.00">::StorageDevice</text>
</a>
</g>
</g>
<!-- Node1&#45;&gt;Node5 -->
<g id="edge7_Node000001_Node000005" class="edge">
<title>Node1&#45;&gt;Node5</title>
<g id="a_edge7_Node000001_Node000005"><a xlink:title=" ">
<path fill="none" stroke="#63b8ff" d="M265.86,-44.33C281.55,-38.19 299.79,-31.7 316.4,-26.32"/>
<polygon fill="#63b8ff" stroke="#63b8ff" points="264.84,-40.97 256.87,-47.94 267.45,-47.46 264.84,-40.97"/>
</a>
</g>
</g>
<!-- Node1&#45;&gt;Node5 -->
<g id="edge8_Node000001_Node000005" class="edge">
<title>Node1&#45;&gt;Node5</title>
<g id="a_edge8_Node000001_Node000005"><a xlink:title=" ">
<path fill="none" stroke="#63b8ff" d="M287.47,-49.62C305.05,-43.68 323.41,-36.9 338.03,-30.84"/>
<polygon fill="#63b8ff" stroke="#63b8ff" points="286.49,-46.26 278.09,-52.73 288.69,-52.91 286.49,-46.26"/>
</a>
</g>
</g>
<!-- Node2 -->
<g id="Node000002" class="node">
<title>Node2</title>
<g id="a_Node000002"><a xlink:href="classdunedaq_1_1conffwk_1_1DalObject.html" target="_top" xlink:title="The base class for any generated DAL object.">
<polygon fill="white" stroke="#666666" points="138.25,-73.88 0,-73.88 0,-54.62 138.25,-54.62 138.25,-73.88"/>
<text text-anchor="middle" x="69.12" y="-60.38" font-family="Helvetica,sans-Serif" font-size="10.00">dunedaq::conffwk::DalObject</text>
</a>
</g>
</g>
<!-- Node2&#45;&gt;Node1 -->
<g id="edge1_Node000001_Node000002" class="edge">
<title>Node2&#45;&gt;Node1</title>
<g id="a_edge1_Node000001_Node000002"><a xlink:title=" ">
<path fill="none" stroke="#63b8ff" d="M150.17,-57.5C158.3,-57.53 166.39,-57.65 174.08,-57.88"/>
<polygon fill="#63b8ff" stroke="#63b8ff" points="150.18,-54 140.19,-57.53 150.2,-61 150.18,-54"/>
</a>
</g>
</g>
<!-- Node2&#45;&gt;Node1 -->
<g id="edge2_Node000001_Node000002" class="edge">
<title>Node2&#45;&gt;Node1</title>
<g id="a_edge2_Node000001_Node000002"><a xlink:title=" ">
<path fill="none" stroke="#63b8ff" d="M150.17,-71C158.3,-70.97 166.39,-70.85 174.08,-70.62"/>
<polygon fill="#63b8ff" stroke="#63b8ff" points="150.2,-67.5 140.19,-70.97 150.18,-74.5 150.2,-67.5"/>
</a>
</g>
</g>
</g>
</svg>
