<?xml version="1.0" encoding="UTF-8" standalone="no"?>
<!DOCTYPE svg PUBLIC "-//W3C//DTD SVG 1.1//EN"
 "http://www.w3.org/Graphics/SVG/1.1/DTD/svg11.dtd">
<!-- Generated by graphviz version 9.0.0 (20230911.1827)
 -->
<!-- Title: triggeralgs::TAMakerMichelElectronAlgorithm Pages: 1 -->
<svg width="396pt" height="88pt"
 viewBox="0.00 0.00 395.50 87.50" xmlns="http://www.w3.org/2000/svg" xmlns:xlink="http://www.w3.org/1999/xlink">
<g id="graph0" class="graph" transform="scale(1 1) rotate(0) translate(4 83.5)">
<title>triggeralgs::TAMakerMichelElectronAlgorithm</title>
<!-- Node1 -->
<g id="Node000001" class="node">
<title>Node1</title>
<g id="a_Node000001"><a xlink:title=" ">
<polygon fill="#999999" stroke="#666666" points="387.5,-54.5 253.75,-54.5 253.75,-24 387.5,-24 387.5,-54.5"/>
<text text-anchor="start" x="261.75" y="-41" font-family="Helvetica,sans-Serif" font-size="10.00">triggeralgs::TAMakerMichel</text>
<text text-anchor="middle" x="320.62" y="-29.75" font-family="Helvetica,sans-Serif" font-size="10.00">ElectronAlgorithm</text>
</a>
</g>
</g>
<!-- Node2 -->
<g id="Node000002" class="node">
<title>Node2</title>
<g id="a_Node000002"><a xlink:href="classtriggeralgs_1_1TriggerActivityMaker.html" target="_top" xlink:title=" ">
<polygon fill="white" stroke="#666666" points="130.75,-79.5 3,-79.5 3,-49 130.75,-49 130.75,-79.5"/>
<text text-anchor="start" x="11" y="-66" font-family="Helvetica,sans-Serif" font-size="10.00">triggeralgs::TriggerActivity</text>
<text text-anchor="middle" x="66.88" y="-54.75" font-family="Helvetica,sans-Serif" font-size="10.00">Maker</text>
</a>
</g>
</g>
<!-- Node2&#45;&gt;Node1 -->
<g id="edge1_Node000001_Node000002" class="edge">
<title>Node2&#45;&gt;Node1</title>
<g id="a_edge1_Node000001_Node000002"><a xlink:title=" ">
<path fill="none" stroke="#63b8ff" d="M142.26,-56.86C177.48,-53.37 219.19,-49.22 253.32,-45.83"/>
<polygon fill="#63b8ff" stroke="#63b8ff" points="142.19,-53.35 132.58,-57.82 142.88,-60.32 142.19,-53.35"/>
</a>
</g>
</g>
<!-- Node3 -->
<g id="Node000003" class="node">
<title>Node3</title>
<g id="a_Node000003"><a xlink:href="classtriggeralgs_1_1TAMakerMichelElectronAlgorithm_1_1Window.html" target="_top" xlink:title=" ">
<polygon fill="white" stroke="#666666" points="133.75,-30.5 0,-30.5 0,0 133.75,0 133.75,-30.5"/>
<text text-anchor="start" x="8" y="-17" font-family="Helvetica,sans-Serif" font-size="10.00">triggeralgs::TAMakerMichel</text>
<text text-anchor="middle" x="66.88" y="-5.75" font-family="Helvetica,sans-Serif" font-size="10.00">ElectronAlgorithm::Window</text>
</a>
</g>
</g>
<!-- Node3&#45;&gt;Node1 -->
<g id="edge2_Node000001_Node000003" class="edge">
<title>Node3&#45;&gt;Node1</title>
<g id="a_edge2_Node000001_Node000003"><a xlink:title=" ">
<path fill="none" stroke="#9a32cd" stroke-dasharray="5,2" d="M145.06,-22.61C179.73,-25.91 220.23,-29.77 253.49,-32.94"/>
<polygon fill="#9a32cd" stroke="#9a32cd" points="145.81,-19.16 135.53,-21.7 145.15,-26.13 145.81,-19.16"/>
</a>
</g>
<text text-anchor="middle" x="193.75" y="-33" font-family="Helvetica,sans-Serif" font-size="10.00" fill="grey"> m_current_window</text>
</g>
</g>
</svg>
