<?xml version="1.0" encoding="UTF-8" standalone="no"?>
<!DOCTYPE svg PUBLIC "-//W3C//DTD SVG 1.1//EN"
 "http://www.w3.org/Graphics/SVG/1.1/DTD/svg11.dtd">
<!-- Generated by graphviz version 9.0.0 (20230911.1827)
 -->
<!-- Title: dbse::CreateClassCommand Pages: 1 -->
<svg width="664pt" height="584pt"
 viewBox="0.00 0.00 663.50 583.75" xmlns="http://www.w3.org/2000/svg" xmlns:xlink="http://www.w3.org/1999/xlink">
<g id="graph0" class="graph" transform="scale(1 1) rotate(0) translate(4 579.75)">
<title>dbse::CreateClassCommand</title>
<!-- Node1 -->
<g id="Node000001" class="node">
<title>Node1</title>
<g id="a_Node000001"><a xlink:title=" ">
<polygon fill="#999999" stroke="#666666" points="139,-347.12 0,-347.12 0,-327.88 139,-327.88 139,-347.12"/>
<text text-anchor="middle" x="69.5" y="-333.62" font-family="Helvetica,sans-Serif" font-size="10.00">dbse::CreateClassCommand</text>
</a>
</g>
</g>
<!-- Node2 -->
<g id="Node000002" class="node">
<title>Node2</title>
<g id="a_Node000002"><a xlink:title=" ">
<polygon fill="white" stroke="#666666" points="108,-441.75 17,-441.75 17,-422.5 108,-422.5 108,-441.75"/>
<text text-anchor="middle" x="62.5" y="-428.25" font-family="Helvetica,sans-Serif" font-size="10.00">QUndoCommand</text>
</a>
</g>
</g>
<!-- Node2&#45;&gt;Node1 -->
<g id="edge1_Node000001_Node000002" class="edge">
<title>Node2&#45;&gt;Node1</title>
<g id="a_edge1_Node000001_Node000002"><a xlink:title=" ">
<path fill="none" stroke="#63b8ff" d="M64.03,-410.87C65.52,-391.14 67.72,-362.05 68.82,-347.49"/>
<polygon fill="#63b8ff" stroke="#63b8ff" points="60.55,-410.5 63.29,-420.73 67.53,-411.03 60.55,-410.5"/>
</a>
</g>
</g>
<!-- Node3 -->
<g id="Node000003" class="node">
<title>Node3</title>
<g id="a_Node000003"><a xlink:href="classdunedaq_1_1oks_1_1OksClass.html" target="_top" xlink:title="The OKS class.">
<polygon fill="white" stroke="#666666" points="390.62,-441.75 270.38,-441.75 270.38,-422.5 390.62,-422.5 390.62,-441.75"/>
<text text-anchor="middle" x="330.5" y="-428.25" font-family="Helvetica,sans-Serif" font-size="10.00">dunedaq::oks::OksClass</text>
</a>
</g>
</g>
<!-- Node3&#45;&gt;Node1 -->
<g id="edge2_Node000001_Node000003" class="edge">
<title>Node3&#45;&gt;Node1</title>
<g id="a_edge2_Node000001_Node000003"><a xlink:title=" ">
<path fill="none" stroke="#9a32cd" stroke-dasharray="5,2" d="M258.79,-430.81C199.56,-429.16 121.35,-423.31 96.5,-404.5 78.14,-390.6 72.21,-362.06 70.33,-347.49"/>
<polygon fill="#9a32cd" stroke="#9a32cd" points="258.39,-434.3 268.47,-431.05 258.55,-427.31 258.39,-434.3"/>
</a>
</g>
<text text-anchor="middle" x="128" y="-383.75" font-family="Helvetica,sans-Serif" font-size="10.00" fill="grey"> SchemaClass</text>
</g>
<!-- Node11 -->
<g id="Node000011" class="node">
<title>Node11</title>
<g id="a_Node000011"><a xlink:href="uniondunedaq_1_1oks_1_1OksData_1_1Data.html" target="_top" xlink:title=" ">
<polygon fill="white" stroke="#666666" points="567.38,-352.75 451.62,-352.75 451.62,-322.25 567.38,-322.25 567.38,-352.75"/>
<text text-anchor="start" x="459.62" y="-339.25" font-family="Helvetica,sans-Serif" font-size="10.00">dunedaq::oks::OksData</text>
<text text-anchor="middle" x="509.5" y="-328" font-family="Helvetica,sans-Serif" font-size="10.00">::Data</text>
</a>
</g>
</g>
<!-- Node3&#45;&gt;Node11 -->
<g id="edge13_Node000011_Node000003" class="edge">
<title>Node3&#45;&gt;Node11</title>
<g id="a_edge13_Node000011_Node000003"><a xlink:title=" ">
<path fill="none" stroke="#9a32cd" stroke-dasharray="5,2" d="M357.97,-416.91C391.34,-399.64 447.34,-370.67 481.11,-353.19"/>
<polygon fill="#9a32cd" stroke="#9a32cd" points="356.61,-413.68 349.33,-421.38 359.82,-419.89 356.61,-413.68"/>
</a>
</g>
<text text-anchor="middle" x="463.5" y="-389.38" font-family="Helvetica,sans-Serif" font-size="10.00" fill="grey"> CLASS</text>
<text text-anchor="middle" x="463.5" y="-378.12" font-family="Helvetica,sans-Serif" font-size="10.00" fill="grey">class_id</text>
</g>
<!-- Node4 -->
<g id="Node000004" class="node">
<title>Node4</title>
<g id="a_Node000004"><a xlink:href="classdunedaq_1_1oks_1_1OksFile.html" target="_top" xlink:title="Provides interface to the OKS XML schema and data files.">
<polygon fill="white" stroke="#666666" points="436.12,-19.25 324.88,-19.25 324.88,0 436.12,0 436.12,-19.25"/>
<text text-anchor="middle" x="380.5" y="-5.75" font-family="Helvetica,sans-Serif" font-size="10.00">dunedaq::oks::OksFile</text>
</a>
</g>
</g>
<!-- Node4&#45;&gt;Node3 -->
<g id="edge3_Node000003_Node000004" class="edge">
<title>Node4&#45;&gt;Node3</title>
<g id="a_edge3_Node000003_Node000004"><a xlink:title=" ">
<path fill="none" stroke="#9a32cd" stroke-dasharray="5,2" d="M313.98,-21.88C253.45,-34.07 173.5,-55.93 173.5,-86.38 173.5,-338.5 173.5,-338.5 173.5,-338.5 173.5,-387.39 230.68,-411.01 276.03,-422.05"/>
<polygon fill="#9a32cd" stroke="#9a32cd" points="314.4,-25.37 323.54,-20.01 313.06,-18.5 314.4,-25.37"/>
</a>
</g>
<text text-anchor="middle" x="185.88" y="-228.25" font-family="Helvetica,sans-Serif" font-size="10.00" fill="grey"> p_file</text>
</g>
<!-- Node4&#45;&gt;Node4 -->
<g id="edge4_Node000004_Node000004" class="edge">
<title>Node4&#45;&gt;Node4</title>
<g id="a_edge4_Node000004_Node000004"><a xlink:title=" ">
<path fill="none" stroke="#9a32cd" stroke-dasharray="5,2" d="M447.59,-14.69C451.67,-13.48 454.12,-11.8 454.12,-9.62 454.12,-5.87 446.78,-3.56 436.36,-2.71"/>
<polygon fill="#9a32cd" stroke="#9a32cd" points="447.15,-11.21 437.85,-16.29 448.29,-18.12 447.15,-11.21"/>
</a>
</g>
<text text-anchor="middle" x="486" y="-5.75" font-family="Helvetica,sans-Serif" font-size="10.00" fill="grey"> p_included_by</text>
</g>
<!-- Node5 -->
<g id="Node000005" class="node">
<title>Node5</title>
<g id="a_Node000005"><a xlink:href="classdunedaq_1_1oks_1_1OksKernel.html" target="_top" xlink:title="Provides interface to the OKS kernel.">
<polygon fill="white" stroke="#666666" points="442.12,-97 318.88,-97 318.88,-77.75 442.12,-77.75 442.12,-97"/>
<text text-anchor="middle" x="380.5" y="-83.5" font-family="Helvetica,sans-Serif" font-size="10.00">dunedaq::oks::OksKernel</text>
</a>
</g>
</g>
<!-- Node4&#45;&gt;Node5 -->
<g id="edge6_Node000005_Node000004" class="edge">
<title>Node4&#45;&gt;Node5</title>
<g id="a_edge6_Node000005_Node000004"><a xlink:title=" ">
<path fill="none" stroke="#9a32cd" stroke-dasharray="5,2" d="M387.92,-30.22C388.57,-32.56 389.12,-34.94 389.5,-37.25 391.12,-47.12 391.12,-49.88 389.5,-59.75 388.49,-65.91 386.24,-72.57 384.24,-77.68"/>
<polygon fill="#9a32cd" stroke="#9a32cd" points="391.24,-29.11 384.72,-20.75 384.6,-31.34 391.24,-29.11"/>
</a>
</g>
<text text-anchor="middle" x="429.75" y="-50.25" font-family="Helvetica,sans-Serif" font-size="10.00" fill="grey"> p_active_data</text>
<text text-anchor="middle" x="429.75" y="-39" font-family="Helvetica,sans-Serif" font-size="10.00" fill="grey">p_active_schema</text>
</g>
<!-- Node8 -->
<g id="Node000008" class="node">
<title>Node8</title>
<g id="a_Node000008"><a xlink:href="classdunedaq_1_1oks_1_1OksObject.html" target="_top" xlink:title="OksObject describes instance of OksClass.">
<polygon fill="white" stroke="#666666" points="649.5,-208.5 525.5,-208.5 525.5,-189.25 649.5,-189.25 649.5,-208.5"/>
<text text-anchor="middle" x="587.5" y="-195" font-family="Helvetica,sans-Serif" font-size="10.00">dunedaq::oks::OksObject</text>
</a>
</g>
</g>
<!-- Node4&#45;&gt;Node8 -->
<g id="edge18_Node000008_Node000004" class="edge">
<title>Node4&#45;&gt;Node8</title>
<g id="a_edge18_Node000008_Node000004"><a xlink:title=" ">
<path fill="none" stroke="#9a32cd" stroke-dasharray="5,2" d="M432.54,-22.86C478.58,-36.73 543.05,-64.32 573.5,-115 587.78,-138.76 588.57,-172.9 588.04,-188.93"/>
<polygon fill="#9a32cd" stroke="#9a32cd" points="433.59,-19.52 423.01,-20.12 431.65,-26.24 433.59,-19.52"/>
</a>
</g>
<text text-anchor="middle" x="566.62" y="-83.5" font-family="Helvetica,sans-Serif" font-size="10.00" fill="grey"> file</text>
</g>
<!-- Node5&#45;&gt;Node3 -->
<g id="edge19_Node000003_Node000005" class="edge">
<title>Node5&#45;&gt;Node3</title>
<g id="a_edge19_Node000003_Node000005"><a xlink:title=" ">
<path fill="none" stroke="#9a32cd" stroke-dasharray="5,2" d="M372.63,-107.95C364.66,-129.59 353.5,-165.64 353.5,-197.88 353.5,-338.5 353.5,-338.5 353.5,-338.5 353.5,-369.98 340.83,-405.75 334.3,-422.11"/>
<polygon fill="#9a32cd" stroke="#9a32cd" points="375.87,-109.28 376.2,-98.69 369.34,-106.76 375.87,-109.28"/>
</a>
</g>
<text text-anchor="middle" x="373" y="-261.5" font-family="Helvetica,sans-Serif" font-size="10.00" fill="grey"> p_kernel</text>
</g>
<!-- Node5&#45;&gt;Node4 -->
<g id="edge5_Node000004_Node000005" class="edge">
<title>Node5&#45;&gt;Node4</title>
<g id="a_edge5_Node000004_Node000005"><a xlink:title=" ">
<path fill="none" stroke="#9a32cd" stroke-dasharray="5,2" d="M357.36,-69.8C354.58,-66.79 352.15,-63.42 350.5,-59.75 346.4,-50.63 346.4,-46.37 350.5,-37.25 353.7,-30.14 359.84,-24.15 365.74,-19.67"/>
<polygon fill="#9a32cd" stroke="#9a32cd" points="354.83,-72.24 364.61,-76.32 359.51,-67.03 354.83,-72.24"/>
</a>
</g>
<text text-anchor="middle" x="370" y="-44.62" font-family="Helvetica,sans-Serif" font-size="10.00" fill="grey"> p_kernel</text>
</g>
<!-- Node6 -->
<g id="Node000006" class="node">
<title>Node6</title>
<g id="a_Node000006"><a xlink:href="classdunedaq_1_1oks_1_1OksProfiler.html" target="_top" xlink:title=" ">
<polygon fill="white" stroke="#666666" points="507.25,-208.5 381.75,-208.5 381.75,-189.25 507.25,-189.25 507.25,-208.5"/>
<text text-anchor="middle" x="444.5" y="-195" font-family="Helvetica,sans-Serif" font-size="10.00">dunedaq::oks::OksProfiler</text>
</a>
</g>
</g>
<!-- Node6&#45;&gt;Node5 -->
<g id="edge7_Node000005_Node000006" class="edge">
<title>Node6&#45;&gt;Node5</title>
<g id="a_edge7_Node000005_Node000006"><a xlink:title=" ">
<path fill="none" stroke="#9a32cd" stroke-dasharray="5,2" d="M420.03,-182.07C416.22,-178.83 412.61,-175.19 409.75,-171.25 392.71,-147.79 384.85,-113.5 381.93,-97.38"/>
<polygon fill="#9a32cd" stroke="#9a32cd" points="417.69,-184.7 427.78,-187.94 421.92,-179.12 417.69,-184.7"/>
</a>
</g>
<text text-anchor="middle" x="424.88" y="-139.25" font-family="Helvetica,sans-Serif" font-size="10.00" fill="grey"> profiler</text>
</g>
<!-- Node7 -->
<g id="Node000007" class="node">
<title>Node7</title>
<g id="a_Node000007"><a xlink:href="structdunedaq_1_1oks_1_1LoadErrors.html" target="_top" xlink:title=" ">
<polygon fill="white" stroke="#666666" points="325.88,-208.5 201.12,-208.5 201.12,-189.25 325.88,-189.25 325.88,-208.5"/>
<text text-anchor="middle" x="263.5" y="-195" font-family="Helvetica,sans-Serif" font-size="10.00">dunedaq::oks::LoadErrors</text>
</a>
</g>
</g>
<!-- Node7&#45;&gt;Node5 -->
<g id="edge8_Node000005_Node000007" class="edge">
<title>Node7&#45;&gt;Node5</title>
<g id="a_edge8_Node000005_Node000007"><a xlink:title=" ">
<path fill="none" stroke="#9a32cd" stroke-dasharray="5,2" d="M261.55,-177.47C260.95,-158.84 263.22,-131.72 278.75,-115 289.19,-103.76 303.73,-97.03 318.56,-93.06"/>
<polygon fill="#9a32cd" stroke="#9a32cd" points="258.05,-177.53 262.2,-187.27 265.03,-177.07 258.05,-177.53"/>
</a>
</g>
<text text-anchor="middle" x="309.88" y="-139.25" font-family="Helvetica,sans-Serif" font-size="10.00" fill="grey"> p_load_errors</text>
</g>
<!-- Node8&#45;&gt;Node5 -->
<g id="edge9_Node000005_Node000008" class="edge">
<title>Node8&#45;&gt;Node5</title>
<g id="a_edge9_Node000005_Node000008"><a xlink:title=" ">
<path fill="none" stroke="#9a32cd" stroke-dasharray="5,2" d="M513.93,-188.02C492.01,-183.83 471.59,-178.26 463.25,-171.25 442.6,-153.9 459.25,-134.38 440.5,-115 432.97,-107.22 422.77,-101.55 412.91,-97.49"/>
<polygon fill="#9a32cd" stroke="#9a32cd" points="513.17,-191.44 523.63,-189.76 514.4,-184.55 513.17,-191.44"/>
</a>
</g>
<text text-anchor="start" x="462.5" y="-161.75" font-family="Helvetica,sans-Serif" font-size="10.00" fill="grey"> p_change_object_notify</text>
<text text-anchor="middle" x="517.62" y="-150.5" font-family="Helvetica,sans-Serif" font-size="10.00" fill="grey">_fn</text>
<text text-anchor="start" x="462.5" y="-139.25" font-family="Helvetica,sans-Serif" font-size="10.00" fill="grey">p_create_object_notify</text>
<text text-anchor="middle" x="517.62" y="-128" font-family="Helvetica,sans-Serif" font-size="10.00" fill="grey">_fn</text>
<text text-anchor="middle" x="517.62" y="-116.75" font-family="Helvetica,sans-Serif" font-size="10.00" fill="grey">p_delete_object_notify_fn</text>
</g>
<!-- Node8&#45;&gt;Node11 -->
<g id="edge14_Node000011_Node000008" class="edge">
<title>Node8&#45;&gt;Node11</title>
<g id="a_edge14_Node000011_Node000008"><a xlink:title=" ">
<path fill="none" stroke="#9a32cd" stroke-dasharray="5,2" d="M521.19,-212.22C496.77,-220.33 471.54,-233.71 457,-255.75 441.81,-278.78 468.01,-305.67 488.56,-321.87"/>
<polygon fill="#9a32cd" stroke="#9a32cd" points="521.94,-215.65 530.5,-209.4 519.91,-208.95 521.94,-215.65"/>
</a>
</g>
<text text-anchor="middle" x="476.75" y="-261.5" font-family="Helvetica,sans-Serif" font-size="10.00" fill="grey"> OBJECT</text>
</g>
<!-- Node9 -->
<g id="Node000009" class="node">
<title>Node9</title>
<g id="a_Node000009"><a xlink:title=" ">
<polygon fill="white" stroke="#666666" points="649.88,-441.75 609.12,-441.75 609.12,-422.5 649.88,-422.5 649.88,-441.75"/>
<text text-anchor="middle" x="629.5" y="-428.25" font-family="Helvetica,sans-Serif" font-size="10.00">struct</text>
</a>
</g>
</g>
<!-- Node9&#45;&gt;Node8 -->
<g id="edge10_Node000008_Node000009" class="edge">
<title>Node9&#45;&gt;Node8</title>
<g id="a_edge10_Node000008_Node000009"><a xlink:title=" ">
<path fill="none" stroke="#9a32cd" stroke-dasharray="5,2" d="M634,-411.08C640.56,-377.75 650.06,-309.32 631.5,-255.75 624.87,-236.62 608.68,-219.07 597.89,-208.92"/>
<polygon fill="#9a32cd" stroke="#9a32cd" points="630.65,-410.04 632.01,-420.54 637.5,-411.48 630.65,-410.04"/>
</a>
</g>
<text text-anchor="middle" x="648" y="-294.75" font-family="Helvetica,sans-Serif" font-size="10.00" fill="grey"> uid</text>
</g>
<!-- Node9&#45;&gt;Node11 -->
<g id="edge17_Node000011_Node000009" class="edge">
<title>Node9&#45;&gt;Node11</title>
<g id="a_edge17_Node000011_Node000009"><a xlink:title=" ">
<path fill="none" stroke="#9a32cd" stroke-dasharray="5,2" d="M609.96,-415.26C594.7,-402.96 572.91,-385.57 553.5,-370.75 545.82,-364.89 537.28,-358.58 529.77,-353.11"/>
<polygon fill="#9a32cd" stroke="#9a32cd" points="607.38,-417.67 617.35,-421.24 611.78,-412.23 607.38,-417.67"/>
</a>
</g>
<text text-anchor="middle" x="605.75" y="-389.38" font-family="Helvetica,sans-Serif" font-size="10.00" fill="grey"> UID</text>
<text text-anchor="middle" x="605.75" y="-378.12" font-family="Helvetica,sans-Serif" font-size="10.00" fill="grey">UID2</text>
</g>
<!-- Node10 -->
<g id="Node000010" class="node">
<title>Node10</title>
<g id="a_Node000010"><a xlink:href="structdunedaq_1_1oks_1_1OksData.html" target="_top" xlink:title="the structure to pass common parameters to various read() methods of OksData and OksObject class">
<polygon fill="white" stroke="#666666" points="622.38,-275 506.62,-275 506.62,-255.75 622.38,-255.75 622.38,-275"/>
<text text-anchor="middle" x="564.5" y="-261.5" font-family="Helvetica,sans-Serif" font-size="10.00">dunedaq::oks::OksData</text>
</a>
</g>
</g>
<!-- Node10&#45;&gt;Node8 -->
<g id="edge11_Node000008_Node000010" class="edge">
<title>Node10&#45;&gt;Node8</title>
<g id="a_edge11_Node000008_Node000010"><a xlink:title=" ">
<path fill="none" stroke="#9a32cd" stroke-dasharray="5,2" d="M571.53,-244.65C575.8,-232.68 581.04,-217.98 584.33,-208.77"/>
<polygon fill="#9a32cd" stroke="#9a32cd" points="568.27,-243.39 568.21,-253.98 574.86,-245.74 568.27,-243.39"/>
</a>
</g>
<text text-anchor="middle" x="587" y="-228.25" font-family="Helvetica,sans-Serif" font-size="10.00" fill="grey"> data</text>
</g>
<!-- Node11&#45;&gt;Node10 -->
<g id="edge12_Node000010_Node000011" class="edge">
<title>Node11&#45;&gt;Node10</title>
<g id="a_edge12_Node000010_Node000011"><a xlink:title=" ">
<path fill="none" stroke="#9a32cd" stroke-dasharray="5,2" d="M527.91,-313.03C538.12,-300.01 550.23,-284.57 557.63,-275.13"/>
<polygon fill="#9a32cd" stroke="#9a32cd" points="525.25,-310.75 521.83,-320.78 530.76,-315.07 525.25,-310.75"/>
</a>
</g>
<text text-anchor="middle" x="554" y="-294.75" font-family="Helvetica,sans-Serif" font-size="10.00" fill="grey"> data</text>
</g>
<!-- Node12 -->
<g id="Node000012" class="node">
<title>Node12</title>
<g id="a_Node000012"><a xlink:href="classdunedaq_1_1oks_1_1OksString.html" target="_top" xlink:title="Class OKS string.">
<polygon fill="white" stroke="#666666" points="570,-441.75 449,-441.75 449,-422.5 570,-422.5 570,-441.75"/>
<text text-anchor="middle" x="509.5" y="-428.25" font-family="Helvetica,sans-Serif" font-size="10.00">dunedaq::oks::OksString</text>
</a>
</g>
</g>
<!-- Node12&#45;&gt;Node11 -->
<g id="edge15_Node000011_Node000012" class="edge">
<title>Node12&#45;&gt;Node11</title>
<g id="a_edge15_Node000011_Node000012"><a xlink:title=" ">
<path fill="none" stroke="#9a32cd" stroke-dasharray="5,2" d="M509.5,-410.79C509.5,-393.28 509.5,-368.45 509.5,-352.92"/>
<polygon fill="#9a32cd" stroke="#9a32cd" points="506,-410.73 509.5,-420.73 513,-410.73 506,-410.73"/>
</a>
</g>
<text text-anchor="middle" x="529.38" y="-395" font-family="Helvetica,sans-Serif" font-size="10.00" fill="grey"> STRING</text>
<text text-anchor="middle" x="529.38" y="-383.75" font-family="Helvetica,sans-Serif" font-size="10.00" fill="grey">class_id</text>
<text text-anchor="middle" x="529.38" y="-372.5" font-family="Helvetica,sans-Serif" font-size="10.00" fill="grey">object_id</text>
</g>
<!-- Node13 -->
<g id="Node000013" class="node">
<title>Node13</title>
<g id="a_Node000013"><a xlink:title=" ">
<polygon fill="white" stroke="#666666" points="538.5,-508.25 480.5,-508.25 480.5,-489 538.5,-489 538.5,-508.25"/>
<text text-anchor="middle" x="509.5" y="-494.75" font-family="Helvetica,sans-Serif" font-size="10.00">std::string</text>
</a>
</g>
</g>
<!-- Node13&#45;&gt;Node12 -->
<g id="edge16_Node000012_Node000013" class="edge">
<title>Node13&#45;&gt;Node12</title>
<g id="a_edge16_Node000012_Node000013"><a xlink:title=" ">
<path fill="none" stroke="#63b8ff" d="M509.5,-477.15C509.5,-465.32 509.5,-451.04 509.5,-442.02"/>
<polygon fill="#63b8ff" stroke="#63b8ff" points="506,-477.14 509.5,-487.14 513,-477.14 506,-477.14"/>
</a>
</g>
</g>
<!-- Node14 -->
<g id="Node000014" class="node">
<title>Node14</title>
<g id="a_Node000014"><a xlink:href="classdunedaq_1_1conffwk_1_1map.html" target="_top" xlink:title=" ">
<polygon fill="white" stroke="#666666" points="398.88,-508.25 262.12,-508.25 262.12,-489 398.88,-489 398.88,-508.25"/>
<text text-anchor="middle" x="330.5" y="-494.75" font-family="Helvetica,sans-Serif" font-size="10.00">dunedaq::conffwk::map&lt; T &gt;</text>
</a>
</g>
</g>
<!-- Node14&#45;&gt;Node3 -->
<g id="edge20_Node000003_Node000014" class="edge">
<title>Node14&#45;&gt;Node3</title>
<g id="a_edge20_Node000003_Node000014"><a xlink:title=" ">
<path fill="none" stroke="#9a32cd" stroke-dasharray="5,2" d="M330.5,-477.15C330.5,-465.32 330.5,-451.04 330.5,-442.02"/>
<polygon fill="#9a32cd" stroke="#9a32cd" points="327,-477.14 330.5,-487.14 334,-477.14 327,-477.14"/>
</a>
</g>
<text text-anchor="middle" x="356.75" y="-461.5" font-family="Helvetica,sans-Serif" font-size="10.00" fill="grey"> p_data_info</text>
</g>
<!-- Node15 -->
<g id="Node000015" class="node">
<title>Node15</title>
<g id="a_Node000015"><a xlink:title=" ">
<polygon fill="white" stroke="#666666" points="380.88,-575.75 280.12,-575.75 280.12,-545.25 380.88,-545.25 380.88,-575.75"/>
<text text-anchor="start" x="288.12" y="-562.25" font-family="Helvetica,sans-Serif" font-size="10.00">std::unordered_map</text>
<text text-anchor="middle" x="330.5" y="-551" font-family="Helvetica,sans-Serif" font-size="10.00">&lt; std::string, T &gt;</text>
</a>
</g>
</g>
<!-- Node15&#45;&gt;Node14 -->
<g id="edge21_Node000014_Node000015" class="edge">
<title>Node15&#45;&gt;Node14</title>
<g id="a_edge21_Node000014_Node000015"><a xlink:title=" ">
<path fill="none" stroke="#63b8ff" d="M330.5,-533.77C330.5,-524.79 330.5,-515.29 330.5,-508.6"/>
<polygon fill="#63b8ff" stroke="#63b8ff" points="327,-533.49 330.5,-543.49 334,-533.49 327,-533.49"/>
</a>
</g>
</g>
</g>
</svg>
