<?xml version="1.0" encoding="UTF-8" standalone="no"?>
<!DOCTYPE svg PUBLIC "-//W3C//DTD SVG 1.1//EN"
 "http://www.w3.org/Graphics/SVG/1.1/DTD/svg11.dtd">
<!-- Generated by graphviz version 9.0.0 (20230911.1827)
 -->
<!-- Title: dbe::datahandler Pages: 1 -->
<svg width="202pt" height="94pt"
 viewBox="0.00 0.00 201.88 93.75" xmlns="http://www.w3.org/2000/svg" xmlns:xlink="http://www.w3.org/1999/xlink">
<g id="graph0" class="graph" transform="scale(1 1) rotate(0) translate(4 89.75)">
<title>dbe::datahandler</title>
<!-- Node1 -->
<g id="Node000001" class="node">
<title>Node1</title>
<g id="a_Node000001"><a xlink:title=" ">
<polygon fill="#999999" stroke="#666666" points="86.5,-19.25 0,-19.25 0,0 86.5,0 86.5,-19.25"/>
<text text-anchor="middle" x="43.25" y="-5.75" font-family="Helvetica,sans-Serif" font-size="10.00">dbe::datahandler</text>
</a>
</g>
</g>
<!-- Node2 -->
<g id="Node000002" class="node">
<title>Node2</title>
<g id="a_Node000002"><a xlink:title=" ">
<polygon fill="white" stroke="#666666" points="53.25,-85.75 1.25,-85.75 1.25,-66.5 53.25,-66.5 53.25,-85.75"/>
<text text-anchor="middle" x="27.25" y="-72.25" font-family="Helvetica,sans-Serif" font-size="10.00">QObject</text>
</a>
</g>
</g>
<!-- Node2&#45;&gt;Node1 -->
<g id="edge1_Node000001_Node000002" class="edge">
<title>Node2&#45;&gt;Node1</title>
<g id="a_edge1_Node000001_Node000002"><a xlink:title=" ">
<path fill="none" stroke="#63b8ff" d="M32.24,-55.02C35.19,-43.12 38.78,-28.63 41.04,-19.52"/>
<polygon fill="#63b8ff" stroke="#63b8ff" points="28.85,-54.14 29.84,-64.69 35.64,-55.82 28.85,-54.14"/>
</a>
</g>
</g>
<!-- Node3 -->
<g id="Node000003" class="node">
<title>Node3</title>
<g id="a_Node000003"><a xlink:href="classdbe_1_1treenode.html" target="_top" xlink:title=" ">
<polygon fill="white" stroke="#666666" points="145.12,-85.75 71.38,-85.75 71.38,-66.5 145.12,-66.5 145.12,-85.75"/>
<text text-anchor="middle" x="108.25" y="-72.25" font-family="Helvetica,sans-Serif" font-size="10.00">dbe::treenode</text>
</a>
</g>
</g>
<!-- Node3&#45;&gt;Node1 -->
<g id="edge2_Node000001_Node000003" class="edge">
<title>Node3&#45;&gt;Node1</title>
<g id="a_edge2_Node000001_Node000003"><a xlink:title=" ">
<path fill="none" stroke="#9a32cd" stroke-dasharray="5,2" d="M91.32,-58.33C78.81,-45.91 62.27,-29.5 52.21,-19.52"/>
<polygon fill="#9a32cd" stroke="#9a32cd" points="88.57,-60.53 98.14,-65.09 93.5,-55.56 88.57,-60.53"/>
</a>
</g>
<text text-anchor="middle" x="88.62" y="-39" font-family="Helvetica,sans-Serif" font-size="10.00" fill="grey"> root</text>
</g>
<!-- Node3&#45;&gt;Node3 -->
<g id="edge3_Node000003_Node000003" class="edge">
<title>Node3&#45;&gt;Node3</title>
<g id="a_edge3_Node000003_Node000003"><a xlink:title=" ">
<path fill="none" stroke="#9a32cd" stroke-dasharray="5,2" d="M156.8,-80.89C160.71,-79.85 163.12,-78.26 163.12,-76.12 163.12,-72.33 155.48,-70.26 145.44,-69.94"/>
<polygon fill="#9a32cd" stroke="#9a32cd" points="156.43,-77.41 146.94,-82.12 157.3,-84.35 156.43,-77.41"/>
</a>
</g>
<text text-anchor="middle" x="178.5" y="-72.25" font-family="Helvetica,sans-Serif" font-size="10.00" fill="grey"> Parent</text>
</g>
</g>
</svg>
