<?xml version="1.0" encoding="UTF-8" standalone="no"?>
<!DOCTYPE svg PUBLIC "-//W3C//DTD SVG 1.1//EN"
 "http://www.w3.org/Graphics/SVG/1.1/DTD/svg11.dtd">
<!-- Generated by graphviz version 9.0.0 (20230911.1827)
 -->
<!-- Title: dbse::SchemaRelationshipEditor Pages: 1 -->
<svg width="679pt" height="595pt"
 viewBox="0.00 0.00 679.00 595.00" xmlns="http://www.w3.org/2000/svg" xmlns:xlink="http://www.w3.org/1999/xlink">
<g id="graph0" class="graph" transform="scale(1 1) rotate(0) translate(4 591)">
<title>dbse::SchemaRelationshipEditor</title>
<!-- Node1 -->
<g id="Node000001" class="node">
<title>Node1</title>
<g id="a_Node000001"><a xlink:title=" ">
<polygon fill="#999999" stroke="#666666" points="277.38,-286.25 146.62,-286.25 146.62,-255.75 277.38,-255.75 277.38,-286.25"/>
<text text-anchor="start" x="154.62" y="-272.75" font-family="Helvetica,sans-Serif" font-size="10.00">dbse::SchemaRelationship</text>
<text text-anchor="middle" x="212" y="-261.5" font-family="Helvetica,sans-Serif" font-size="10.00">Editor</text>
</a>
</g>
</g>
<!-- Node2 -->
<g id="Node000002" class="node">
<title>Node2</title>
<g id="a_Node000002"><a xlink:title=" ">
<polygon fill="white" stroke="#666666" points="346.75,-358.38 293.25,-358.38 293.25,-339.12 346.75,-339.12 346.75,-358.38"/>
<text text-anchor="middle" x="320" y="-344.88" font-family="Helvetica,sans-Serif" font-size="10.00">QWidget</text>
</a>
</g>
</g>
<!-- Node2&#45;&gt;Node1 -->
<g id="edge1_Node000001_Node000002" class="edge">
<title>Node2&#45;&gt;Node1</title>
<g id="a_edge1_Node000001_Node000002"><a xlink:title=" ">
<path fill="none" stroke="#63b8ff" d="M297.82,-332.2C278.8,-318.86 251.6,-299.77 232.94,-286.69"/>
<polygon fill="#63b8ff" stroke="#63b8ff" points="295.75,-335.02 305.95,-337.89 299.77,-329.29 295.75,-335.02"/>
</a>
</g>
</g>
<!-- Node3 -->
<g id="Node000003" class="node">
<title>Node3</title>
<g id="a_Node000003"><a xlink:href="classdunedaq_1_1oks_1_1OksRelationship.html" target="_top" xlink:title=" ">
<polygon fill="white" stroke="#666666" points="176.38,-358.38 27.62,-358.38 27.62,-339.12 176.38,-339.12 176.38,-358.38"/>
<text text-anchor="middle" x="102" y="-344.88" font-family="Helvetica,sans-Serif" font-size="10.00">dunedaq::oks::OksRelationship</text>
</a>
</g>
</g>
<!-- Node3&#45;&gt;Node1 -->
<g id="edge2_Node000001_Node000003" class="edge">
<title>Node3&#45;&gt;Node1</title>
<g id="a_edge2_Node000001_Node000003"><a xlink:title=" ">
<path fill="none" stroke="#9a32cd" stroke-dasharray="5,2" d="M99.55,-327.21C99.69,-319.25 101.31,-310.56 106.5,-304.25 116.54,-292.05 131.07,-284.36 146.14,-279.55"/>
<polygon fill="#9a32cd" stroke="#9a32cd" points="96.05,-327.38 100.17,-337.15 103.04,-326.95 96.05,-327.38"/>
</a>
</g>
<text text-anchor="middle" x="152.75" y="-306" font-family="Helvetica,sans-Serif" font-size="10.00" fill="grey"> SchemaRelationship</text>
</g>
<!-- Node4 -->
<g id="Node000004" class="node">
<title>Node4</title>
<g id="a_Node000004"><a xlink:href="classdunedaq_1_1oks_1_1OksClass.html" target="_top" xlink:title="The OKS class.">
<polygon fill="white" stroke="#666666" points="272.12,-453 151.88,-453 151.88,-433.75 272.12,-433.75 272.12,-453"/>
<text text-anchor="middle" x="212" y="-439.5" font-family="Helvetica,sans-Serif" font-size="10.00">dunedaq::oks::OksClass</text>
</a>
</g>
</g>
<!-- Node4&#45;&gt;Node1 -->
<g id="edge23_Node000001_Node000004" class="edge">
<title>Node4&#45;&gt;Node1</title>
<g id="a_edge23_Node000001_Node000004"><a xlink:title=" ">
<path fill="none" stroke="#9a32cd" stroke-dasharray="5,2" d="M212,-422.29C212,-387.58 212,-317.14 212,-286.64"/>
<polygon fill="#9a32cd" stroke="#9a32cd" points="208.5,-422.18 212,-432.18 215.5,-422.18 208.5,-422.18"/>
</a>
</g>
<text text-anchor="middle" x="243.5" y="-344.88" font-family="Helvetica,sans-Serif" font-size="10.00" fill="grey"> SchemaClass</text>
</g>
<!-- Node4&#45;&gt;Node3 -->
<g id="edge3_Node000003_Node000004" class="edge">
<title>Node4&#45;&gt;Node3</title>
<g id="a_edge3_Node000003_Node000004"><a xlink:title=" ">
<path fill="none" stroke="#9a32cd" stroke-dasharray="5,2" d="M163.23,-429.16C155.28,-425.63 147.52,-421.22 141,-415.75 122.24,-400.01 110.3,-372.8 105.07,-358.74"/>
<polygon fill="#9a32cd" stroke="#9a32cd" points="161.72,-432.32 172.3,-432.75 164.3,-425.81 161.72,-432.32"/>
</a>
</g>
<text text-anchor="middle" x="169.5" y="-400.62" font-family="Helvetica,sans-Serif" font-size="10.00" fill="grey"> p_class</text>
<text text-anchor="middle" x="169.5" y="-389.38" font-family="Helvetica,sans-Serif" font-size="10.00" fill="grey">p_class_type</text>
</g>
<!-- Node12 -->
<g id="Node000012" class="node">
<title>Node12</title>
<g id="a_Node000012"><a xlink:href="uniondunedaq_1_1oks_1_1OksData_1_1Data.html" target="_top" xlink:title=" ">
<polygon fill="white" stroke="#666666" points="578.88,-364 463.12,-364 463.12,-333.5 578.88,-333.5 578.88,-364"/>
<text text-anchor="start" x="471.12" y="-350.5" font-family="Helvetica,sans-Serif" font-size="10.00">dunedaq::oks::OksData</text>
<text text-anchor="middle" x="521" y="-339.25" font-family="Helvetica,sans-Serif" font-size="10.00">::Data</text>
</a>
</g>
</g>
<!-- Node4&#45;&gt;Node12 -->
<g id="edge14_Node000012_Node000004" class="edge">
<title>Node4&#45;&gt;Node12</title>
<g id="a_edge14_Node000012_Node000004"><a xlink:title=" ">
<path fill="none" stroke="#9a32cd" stroke-dasharray="5,2" d="M283.74,-436.76C316.4,-432.89 355.21,-426.44 389,-415.75 429.06,-403.07 471.97,-379.55 497.63,-364.28"/>
<polygon fill="#9a32cd" stroke="#9a32cd" points="283.52,-433.26 273.97,-437.85 284.3,-440.22 283.52,-433.26"/>
</a>
</g>
<text text-anchor="middle" x="483" y="-400.62" font-family="Helvetica,sans-Serif" font-size="10.00" fill="grey"> CLASS</text>
<text text-anchor="middle" x="483" y="-389.38" font-family="Helvetica,sans-Serif" font-size="10.00" fill="grey">class_id</text>
</g>
<!-- Node5 -->
<g id="Node000005" class="node">
<title>Node5</title>
<g id="a_Node000005"><a xlink:href="classdunedaq_1_1oks_1_1OksFile.html" target="_top" xlink:title="Provides interface to the OKS XML schema and data files.">
<polygon fill="white" stroke="#666666" points="457.62,-19.25 346.38,-19.25 346.38,0 457.62,0 457.62,-19.25"/>
<text text-anchor="middle" x="402" y="-5.75" font-family="Helvetica,sans-Serif" font-size="10.00">dunedaq::oks::OksFile</text>
</a>
</g>
</g>
<!-- Node5&#45;&gt;Node4 -->
<g id="edge4_Node000004_Node000005" class="edge">
<title>Node5&#45;&gt;Node4</title>
<g id="a_edge4_Node000004_Node000005"><a xlink:title=" ">
<path fill="none" stroke="#9a32cd" stroke-dasharray="5,2" d="M334.7,-9.68C220.26,-9.91 0,-19.09 0,-86.38 0,-349.75 0,-349.75 0,-349.75 0,-416.32 88.87,-435.52 151.53,-440.78"/>
<polygon fill="#9a32cd" stroke="#9a32cd" points="334.59,-13.18 344.59,-9.69 334.59,-6.18 334.59,-13.18"/>
</a>
</g>
<text text-anchor="middle" x="12.38" y="-228.25" font-family="Helvetica,sans-Serif" font-size="10.00" fill="grey"> p_file</text>
</g>
<!-- Node5&#45;&gt;Node5 -->
<g id="edge5_Node000005_Node000005" class="edge">
<title>Node5&#45;&gt;Node5</title>
<g id="a_edge5_Node000005_Node000005"><a xlink:title=" ">
<path fill="none" stroke="#9a32cd" stroke-dasharray="5,2" d="M469.09,-14.69C473.17,-13.48 475.62,-11.8 475.62,-9.62 475.62,-5.87 468.28,-3.56 457.86,-2.71"/>
<polygon fill="#9a32cd" stroke="#9a32cd" points="468.65,-11.21 459.35,-16.29 469.79,-18.12 468.65,-11.21"/>
</a>
</g>
<text text-anchor="middle" x="507.5" y="-5.75" font-family="Helvetica,sans-Serif" font-size="10.00" fill="grey"> p_included_by</text>
</g>
<!-- Node6 -->
<g id="Node000006" class="node">
<title>Node6</title>
<g id="a_Node000006"><a xlink:href="classdunedaq_1_1oks_1_1OksKernel.html" target="_top" xlink:title="Provides interface to the OKS kernel.">
<polygon fill="white" stroke="#666666" points="463.62,-97 340.38,-97 340.38,-77.75 463.62,-77.75 463.62,-97"/>
<text text-anchor="middle" x="402" y="-83.5" font-family="Helvetica,sans-Serif" font-size="10.00">dunedaq::oks::OksKernel</text>
</a>
</g>
</g>
<!-- Node5&#45;&gt;Node6 -->
<g id="edge7_Node000006_Node000005" class="edge">
<title>Node5&#45;&gt;Node6</title>
<g id="a_edge7_Node000006_Node000005"><a xlink:title=" ">
<path fill="none" stroke="#9a32cd" stroke-dasharray="5,2" d="M409.42,-30.22C410.07,-32.56 410.62,-34.94 411,-37.25 412.62,-47.12 412.62,-49.88 411,-59.75 409.99,-65.91 407.74,-72.57 405.74,-77.68"/>
<polygon fill="#9a32cd" stroke="#9a32cd" points="412.74,-29.11 406.22,-20.75 406.1,-31.34 412.74,-29.11"/>
</a>
</g>
<text text-anchor="middle" x="450.25" y="-50.25" font-family="Helvetica,sans-Serif" font-size="10.00" fill="grey"> p_active_data</text>
<text text-anchor="middle" x="450.25" y="-39" font-family="Helvetica,sans-Serif" font-size="10.00" fill="grey">p_active_schema</text>
</g>
<!-- Node9 -->
<g id="Node000009" class="node">
<title>Node9</title>
<g id="a_Node000009"><a xlink:href="classdunedaq_1_1oks_1_1OksObject.html" target="_top" xlink:title="OksObject describes instance of OksClass.">
<polygon fill="white" stroke="#666666" points="671,-208.5 547,-208.5 547,-189.25 671,-189.25 671,-208.5"/>
<text text-anchor="middle" x="609" y="-195" font-family="Helvetica,sans-Serif" font-size="10.00">dunedaq::oks::OksObject</text>
</a>
</g>
</g>
<!-- Node5&#45;&gt;Node9 -->
<g id="edge19_Node000009_Node000005" class="edge">
<title>Node5&#45;&gt;Node9</title>
<g id="a_edge19_Node000009_Node000005"><a xlink:title=" ">
<path fill="none" stroke="#9a32cd" stroke-dasharray="5,2" d="M453.98,-22.89C499.99,-36.79 564.43,-64.4 595,-115 609.34,-138.73 610.1,-172.89 609.55,-188.92"/>
<polygon fill="#9a32cd" stroke="#9a32cd" points="455.04,-19.55 444.46,-20.15 453.1,-26.28 455.04,-19.55"/>
</a>
</g>
<text text-anchor="middle" x="588.12" y="-83.5" font-family="Helvetica,sans-Serif" font-size="10.00" fill="grey"> file</text>
</g>
<!-- Node6&#45;&gt;Node4 -->
<g id="edge20_Node000004_Node000006" class="edge">
<title>Node6&#45;&gt;Node4</title>
<g id="a_edge20_Node000004_Node000006"><a xlink:title=" ">
<path fill="none" stroke="#9a32cd" stroke-dasharray="5,2" d="M394.13,-107.95C386.16,-129.59 375,-165.64 375,-197.88 375,-349.75 375,-349.75 375,-349.75 375,-399.06 317.91,-422.45 271.31,-433.32"/>
<polygon fill="#9a32cd" stroke="#9a32cd" points="397.37,-109.28 397.7,-98.69 390.84,-106.76 397.37,-109.28"/>
</a>
</g>
<text text-anchor="middle" x="394.5" y="-267.12" font-family="Helvetica,sans-Serif" font-size="10.00" fill="grey"> p_kernel</text>
</g>
<!-- Node6&#45;&gt;Node5 -->
<g id="edge6_Node000005_Node000006" class="edge">
<title>Node6&#45;&gt;Node5</title>
<g id="a_edge6_Node000005_Node000006"><a xlink:title=" ">
<path fill="none" stroke="#9a32cd" stroke-dasharray="5,2" d="M378.86,-69.8C376.08,-66.79 373.65,-63.42 372,-59.75 367.9,-50.63 367.9,-46.37 372,-37.25 375.2,-30.14 381.34,-24.15 387.24,-19.67"/>
<polygon fill="#9a32cd" stroke="#9a32cd" points="376.33,-72.24 386.11,-76.32 381.01,-67.03 376.33,-72.24"/>
</a>
</g>
<text text-anchor="middle" x="391.5" y="-44.62" font-family="Helvetica,sans-Serif" font-size="10.00" fill="grey"> p_kernel</text>
</g>
<!-- Node7 -->
<g id="Node000007" class="node">
<title>Node7</title>
<g id="a_Node000007"><a xlink:href="classdunedaq_1_1oks_1_1OksProfiler.html" target="_top" xlink:title=" ">
<polygon fill="white" stroke="#666666" points="528.75,-208.5 403.25,-208.5 403.25,-189.25 528.75,-189.25 528.75,-208.5"/>
<text text-anchor="middle" x="466" y="-195" font-family="Helvetica,sans-Serif" font-size="10.00">dunedaq::oks::OksProfiler</text>
</a>
</g>
</g>
<!-- Node7&#45;&gt;Node6 -->
<g id="edge8_Node000006_Node000007" class="edge">
<title>Node7&#45;&gt;Node6</title>
<g id="a_edge8_Node000006_Node000007"><a xlink:title=" ">
<path fill="none" stroke="#9a32cd" stroke-dasharray="5,2" d="M441.53,-182.07C437.72,-178.83 434.11,-175.19 431.25,-171.25 414.21,-147.79 406.35,-113.5 403.43,-97.38"/>
<polygon fill="#9a32cd" stroke="#9a32cd" points="439.19,-184.7 449.28,-187.94 443.42,-179.12 439.19,-184.7"/>
</a>
</g>
<text text-anchor="middle" x="446.38" y="-139.25" font-family="Helvetica,sans-Serif" font-size="10.00" fill="grey"> profiler</text>
</g>
<!-- Node8 -->
<g id="Node000008" class="node">
<title>Node8</title>
<g id="a_Node000008"><a xlink:href="structdunedaq_1_1oks_1_1LoadErrors.html" target="_top" xlink:title=" ">
<polygon fill="white" stroke="#666666" points="347.38,-208.5 222.62,-208.5 222.62,-189.25 347.38,-189.25 347.38,-208.5"/>
<text text-anchor="middle" x="285" y="-195" font-family="Helvetica,sans-Serif" font-size="10.00">dunedaq::oks::LoadErrors</text>
</a>
</g>
</g>
<!-- Node8&#45;&gt;Node6 -->
<g id="edge9_Node000006_Node000008" class="edge">
<title>Node8&#45;&gt;Node6</title>
<g id="a_edge9_Node000006_Node000008"><a xlink:title=" ">
<path fill="none" stroke="#9a32cd" stroke-dasharray="5,2" d="M283.05,-177.47C282.45,-158.84 284.72,-131.72 300.25,-115 310.69,-103.76 325.23,-97.03 340.06,-93.06"/>
<polygon fill="#9a32cd" stroke="#9a32cd" points="279.55,-177.53 283.7,-187.27 286.53,-177.07 279.55,-177.53"/>
</a>
</g>
<text text-anchor="middle" x="330.38" y="-139.25" font-family="Helvetica,sans-Serif" font-size="10.00" fill="grey"> p_load_errors</text>
</g>
<!-- Node9&#45;&gt;Node6 -->
<g id="edge10_Node000006_Node000009" class="edge">
<title>Node9&#45;&gt;Node6</title>
<g id="a_edge10_Node000006_Node000009"><a xlink:title=" ">
<path fill="none" stroke="#9a32cd" stroke-dasharray="5,2" d="M535.43,-188.02C513.51,-183.83 493.09,-178.26 484.75,-171.25 464.1,-153.9 480.75,-134.38 462,-115 454.47,-107.22 444.27,-101.55 434.41,-97.49"/>
<polygon fill="#9a32cd" stroke="#9a32cd" points="534.67,-191.44 545.13,-189.76 535.9,-184.55 534.67,-191.44"/>
</a>
</g>
<text text-anchor="start" x="484" y="-161.75" font-family="Helvetica,sans-Serif" font-size="10.00" fill="grey"> p_change_object_notify</text>
<text text-anchor="middle" x="539.12" y="-150.5" font-family="Helvetica,sans-Serif" font-size="10.00" fill="grey">_fn</text>
<text text-anchor="start" x="484" y="-139.25" font-family="Helvetica,sans-Serif" font-size="10.00" fill="grey">p_create_object_notify</text>
<text text-anchor="middle" x="539.12" y="-128" font-family="Helvetica,sans-Serif" font-size="10.00" fill="grey">_fn</text>
<text text-anchor="middle" x="539.12" y="-116.75" font-family="Helvetica,sans-Serif" font-size="10.00" fill="grey">p_delete_object_notify_fn</text>
</g>
<!-- Node9&#45;&gt;Node12 -->
<g id="edge15_Node000012_Node000009" class="edge">
<title>Node9&#45;&gt;Node12</title>
<g id="a_edge15_Node000012_Node000009"><a xlink:title=" ">
<path fill="none" stroke="#9a32cd" stroke-dasharray="5,2" d="M601.48,-219.35C594.22,-237.29 582.36,-264.37 569,-286.25 558.55,-303.36 544.14,-321.24 533.84,-333.28"/>
<polygon fill="#9a32cd" stroke="#9a32cd" points="604.68,-220.79 605.1,-210.2 598.17,-218.22 604.68,-220.79"/>
</a>
</g>
<text text-anchor="middle" x="604.25" y="-267.12" font-family="Helvetica,sans-Serif" font-size="10.00" fill="grey"> OBJECT</text>
</g>
<!-- Node10 -->
<g id="Node000010" class="node">
<title>Node10</title>
<g id="a_Node000010"><a xlink:title=" ">
<polygon fill="white" stroke="#666666" points="643.38,-453 602.62,-453 602.62,-433.75 643.38,-433.75 643.38,-453"/>
<text text-anchor="middle" x="623" y="-439.5" font-family="Helvetica,sans-Serif" font-size="10.00">struct</text>
</a>
</g>
</g>
<!-- Node10&#45;&gt;Node9 -->
<g id="edge11_Node000009_Node000010" class="edge">
<title>Node10&#45;&gt;Node9</title>
<g id="a_edge11_Node000009_Node000010"><a xlink:title=" ">
<path fill="none" stroke="#9a32cd" stroke-dasharray="5,2" d="M626.32,-422.08C631.38,-387.6 639.37,-315.51 629,-255.75 626,-238.49 618.17,-219.52 613.24,-208.71"/>
<polygon fill="#9a32cd" stroke="#9a32cd" points="622.88,-421.44 624.81,-431.85 629.8,-422.51 622.88,-421.44"/>
</a>
</g>
<text text-anchor="middle" x="641.5" y="-306" font-family="Helvetica,sans-Serif" font-size="10.00" fill="grey"> uid</text>
</g>
<!-- Node10&#45;&gt;Node12 -->
<g id="edge18_Node000012_Node000010" class="edge">
<title>Node10&#45;&gt;Node12</title>
<g id="a_edge18_Node000012_Node000010"><a xlink:title=" ">
<path fill="none" stroke="#9a32cd" stroke-dasharray="5,2" d="M607.56,-424.74C596.28,-412.26 580.34,-395.43 565,-382 558.02,-375.89 549.93,-369.73 542.61,-364.45"/>
<polygon fill="#9a32cd" stroke="#9a32cd" points="604.92,-427.04 614.18,-432.18 610.14,-422.38 604.92,-427.04"/>
</a>
</g>
<text text-anchor="middle" x="609.25" y="-400.62" font-family="Helvetica,sans-Serif" font-size="10.00" fill="grey"> UID</text>
<text text-anchor="middle" x="609.25" y="-389.38" font-family="Helvetica,sans-Serif" font-size="10.00" fill="grey">UID2</text>
</g>
<!-- Node11 -->
<g id="Node000011" class="node">
<title>Node11</title>
<g id="a_Node000011"><a xlink:href="structdunedaq_1_1oks_1_1OksData.html" target="_top" xlink:title="the structure to pass common parameters to various read() methods of OksData and OksObject class">
<polygon fill="white" stroke="#666666" points="559.88,-280.62 444.12,-280.62 444.12,-261.38 559.88,-261.38 559.88,-280.62"/>
<text text-anchor="middle" x="502" y="-267.12" font-family="Helvetica,sans-Serif" font-size="10.00">dunedaq::oks::OksData</text>
</a>
</g>
</g>
<!-- Node11&#45;&gt;Node9 -->
<g id="edge12_Node000009_Node000011" class="edge">
<title>Node11&#45;&gt;Node9</title>
<g id="a_edge12_Node000009_Node000011"><a xlink:title=" ">
<path fill="none" stroke="#9a32cd" stroke-dasharray="5,2" d="M522.36,-253.98C533.52,-245.46 547.75,-235.01 561,-226.5 570.78,-220.22 582.14,-213.88 591.35,-208.96"/>
<polygon fill="#9a32cd" stroke="#9a32cd" points="520.41,-251.07 514.64,-259.95 524.69,-256.6 520.41,-251.07"/>
</a>
</g>
<text text-anchor="middle" x="571.5" y="-228.25" font-family="Helvetica,sans-Serif" font-size="10.00" fill="grey"> data</text>
</g>
<!-- Node12&#45;&gt;Node11 -->
<g id="edge13_Node000011_Node000012" class="edge">
<title>Node12&#45;&gt;Node11</title>
<g id="a_edge13_Node000011_Node000012"><a xlink:title=" ">
<path fill="none" stroke="#9a32cd" stroke-dasharray="5,2" d="M514.54,-321.98C510.96,-307.72 506.74,-290.91 504.23,-280.87"/>
<polygon fill="#9a32cd" stroke="#9a32cd" points="511.14,-322.83 516.97,-331.68 517.93,-321.13 511.14,-322.83"/>
</a>
</g>
<text text-anchor="middle" x="522.5" y="-306" font-family="Helvetica,sans-Serif" font-size="10.00" fill="grey"> data</text>
</g>
<!-- Node13 -->
<g id="Node000013" class="node">
<title>Node13</title>
<g id="a_Node000013"><a xlink:href="classdunedaq_1_1oks_1_1OksString.html" target="_top" xlink:title="Class OKS string.">
<polygon fill="white" stroke="#666666" points="581.5,-453 460.5,-453 460.5,-433.75 581.5,-433.75 581.5,-453"/>
<text text-anchor="middle" x="521" y="-439.5" font-family="Helvetica,sans-Serif" font-size="10.00">dunedaq::oks::OksString</text>
</a>
</g>
</g>
<!-- Node13&#45;&gt;Node12 -->
<g id="edge16_Node000012_Node000013" class="edge">
<title>Node13&#45;&gt;Node12</title>
<g id="a_edge16_Node000012_Node000013"><a xlink:title=" ">
<path fill="none" stroke="#9a32cd" stroke-dasharray="5,2" d="M521,-422.04C521,-404.53 521,-379.7 521,-364.17"/>
<polygon fill="#9a32cd" stroke="#9a32cd" points="517.5,-421.98 521,-431.98 524.5,-421.98 517.5,-421.98"/>
</a>
</g>
<text text-anchor="middle" x="540.88" y="-406.25" font-family="Helvetica,sans-Serif" font-size="10.00" fill="grey"> STRING</text>
<text text-anchor="middle" x="540.88" y="-395" font-family="Helvetica,sans-Serif" font-size="10.00" fill="grey">class_id</text>
<text text-anchor="middle" x="540.88" y="-383.75" font-family="Helvetica,sans-Serif" font-size="10.00" fill="grey">object_id</text>
</g>
<!-- Node14 -->
<g id="Node000014" class="node">
<title>Node14</title>
<g id="a_Node000014"><a xlink:title=" ">
<polygon fill="white" stroke="#666666" points="550,-519.5 492,-519.5 492,-500.25 550,-500.25 550,-519.5"/>
<text text-anchor="middle" x="521" y="-506" font-family="Helvetica,sans-Serif" font-size="10.00">std::string</text>
</a>
</g>
</g>
<!-- Node14&#45;&gt;Node13 -->
<g id="edge17_Node000013_Node000014" class="edge">
<title>Node14&#45;&gt;Node13</title>
<g id="a_edge17_Node000013_Node000014"><a xlink:title=" ">
<path fill="none" stroke="#63b8ff" d="M521,-488.4C521,-476.57 521,-462.29 521,-453.27"/>
<polygon fill="#63b8ff" stroke="#63b8ff" points="517.5,-488.39 521,-498.39 524.5,-488.39 517.5,-488.39"/>
</a>
</g>
</g>
<!-- Node15 -->
<g id="Node000015" class="node">
<title>Node15</title>
<g id="a_Node000015"><a xlink:href="classdunedaq_1_1conffwk_1_1map.html" target="_top" xlink:title=" ">
<polygon fill="white" stroke="#666666" points="280.38,-519.5 143.62,-519.5 143.62,-500.25 280.38,-500.25 280.38,-519.5"/>
<text text-anchor="middle" x="212" y="-506" font-family="Helvetica,sans-Serif" font-size="10.00">dunedaq::conffwk::map&lt; T &gt;</text>
</a>
</g>
</g>
<!-- Node15&#45;&gt;Node4 -->
<g id="edge21_Node000004_Node000015" class="edge">
<title>Node15&#45;&gt;Node4</title>
<g id="a_edge21_Node000004_Node000015"><a xlink:title=" ">
<path fill="none" stroke="#9a32cd" stroke-dasharray="5,2" d="M212,-488.4C212,-476.57 212,-462.29 212,-453.27"/>
<polygon fill="#9a32cd" stroke="#9a32cd" points="208.5,-488.39 212,-498.39 215.5,-488.39 208.5,-488.39"/>
</a>
</g>
<text text-anchor="middle" x="238.25" y="-472.75" font-family="Helvetica,sans-Serif" font-size="10.00" fill="grey"> p_data_info</text>
</g>
<!-- Node16 -->
<g id="Node000016" class="node">
<title>Node16</title>
<g id="a_Node000016"><a xlink:title=" ">
<polygon fill="white" stroke="#666666" points="262.38,-587 161.62,-587 161.62,-556.5 262.38,-556.5 262.38,-587"/>
<text text-anchor="start" x="169.62" y="-573.5" font-family="Helvetica,sans-Serif" font-size="10.00">std::unordered_map</text>
<text text-anchor="middle" x="212" y="-562.25" font-family="Helvetica,sans-Serif" font-size="10.00">&lt; std::string, T &gt;</text>
</a>
</g>
</g>
<!-- Node16&#45;&gt;Node15 -->
<g id="edge22_Node000015_Node000016" class="edge">
<title>Node16&#45;&gt;Node15</title>
<g id="a_edge22_Node000015_Node000016"><a xlink:title=" ">
<path fill="none" stroke="#63b8ff" d="M212,-545.02C212,-536.04 212,-526.54 212,-519.85"/>
<polygon fill="#63b8ff" stroke="#63b8ff" points="208.5,-544.74 212,-554.74 215.5,-544.74 208.5,-544.74"/>
</a>
</g>
</g>
</g>
</svg>
