<?xml version="1.0" encoding="UTF-8" standalone="no"?>
<!DOCTYPE svg PUBLIC "-//W3C//DTD SVG 1.1//EN"
 "http://www.w3.org/Graphics/SVG/1.1/DTD/svg11.dtd">
<!-- Generated by graphviz version 9.0.0 (20230911.1827)
 -->
<!-- Title: dunedaq::timing::OuroborosDesign Pages: 1 -->
<svg width="954pt" height="119pt"
 viewBox="0.00 0.00 953.75 118.88" xmlns="http://www.w3.org/2000/svg" xmlns:xlink="http://www.w3.org/1999/xlink">
<g id="graph0" class="graph" transform="scale(1 1) rotate(0) translate(4 114.88)">
<title>dunedaq::timing::OuroborosDesign</title>
<!-- Node1 -->
<g id="Node000001" class="node">
<title>Node1</title>
<g id="a_Node000001"><a xlink:title="Class for PDI timing master design (known as overlord).">
<polygon fill="#999999" stroke="#666666" points="945.75,-51.5 812.75,-51.5 812.75,-21 945.75,-21 945.75,-51.5"/>
<text text-anchor="start" x="820.75" y="-38" font-family="Helvetica,sans-Serif" font-size="10.00">dunedaq::timing::Ouroboros</text>
<text text-anchor="middle" x="879.25" y="-26.75" font-family="Helvetica,sans-Serif" font-size="10.00">Design</text>
</a>
</g>
</g>
<!-- Node2 -->
<g id="Node000002" class="node">
<title>Node2</title>
<g id="a_Node000002"><a xlink:href="classdunedaq_1_1timing_1_1MasterDesign.html" target="_top" xlink:title="Base class for timing master designs.">
<polygon fill="white" stroke="#666666" points="776.75,-67.88 628.75,-67.88 628.75,-48.62 776.75,-48.62 776.75,-67.88"/>
<text text-anchor="middle" x="702.75" y="-54.38" font-family="Helvetica,sans-Serif" font-size="10.00">dunedaq::timing::MasterDesign</text>
</a>
</g>
</g>
<!-- Node2&#45;&gt;Node1 -->
<g id="edge1_Node000001_Node000002" class="edge">
<title>Node2&#45;&gt;Node1</title>
<g id="a_edge1_Node000001_Node000002"><a xlink:title=" ">
<path fill="none" stroke="#63b8ff" d="M788.51,-47.56C796.51,-46.56 804.54,-45.54 812.32,-44.56"/>
<polygon fill="#63b8ff" stroke="#63b8ff" points="788.23,-44.07 778.75,-48.79 789.11,-51.02 788.23,-44.07"/>
</a>
</g>
</g>
<!-- Node3 -->
<g id="Node000003" class="node">
<title>Node3</title>
<g id="a_Node000003"><a xlink:href="classdunedaq_1_1timing_1_1TopDesign.html" target="_top" xlink:title="Base class for timing top design nodes with IO class.">
<polygon fill="white" stroke="#666666" points="586,-110.88 451.5,-110.88 451.5,-91.62 586,-91.62 586,-110.88"/>
<text text-anchor="middle" x="518.75" y="-97.38" font-family="Helvetica,sans-Serif" font-size="10.00">dunedaq::timing::TopDesign</text>
</a>
</g>
</g>
<!-- Node3&#45;&gt;Node2 -->
<g id="edge2_Node000002_Node000003" class="edge">
<title>Node3&#45;&gt;Node2</title>
<g id="a_edge2_Node000002_Node000003"><a xlink:title=" ">
<path fill="none" stroke="#63b8ff" d="M573.37,-88.58C600.69,-82.13 633.44,-74.39 659.03,-68.34"/>
<polygon fill="#63b8ff" stroke="#63b8ff" points="572.82,-85.11 563.89,-90.82 574.43,-91.93 572.82,-85.11"/>
</a>
</g>
</g>
<!-- Node4 -->
<g id="Node000004" class="node">
<title>Node4</title>
<g id="a_Node000004"><a xlink:href="classdunedaq_1_1timing_1_1TopDesignInterface.html" target="_top" xlink:title="Base class for timing top design nodes.">
<polygon fill="white" stroke="#666666" points="408.75,-73.5 274.25,-73.5 274.25,-43 408.75,-43 408.75,-73.5"/>
<text text-anchor="start" x="282.25" y="-60" font-family="Helvetica,sans-Serif" font-size="10.00">dunedaq::timing::TopDesign</text>
<text text-anchor="middle" x="341.5" y="-48.75" font-family="Helvetica,sans-Serif" font-size="10.00">Interface</text>
</a>
</g>
</g>
<!-- Node4&#45;&gt;Node3 -->
<g id="edge3_Node000003_Node000004" class="edge">
<title>Node4&#45;&gt;Node3</title>
<g id="a_edge3_Node000003_Node000004"><a xlink:title=" ">
<path fill="none" stroke="#63b8ff" d="M417.43,-76.63C437.74,-81.62 458.99,-86.83 476.68,-91.17"/>
<polygon fill="#63b8ff" stroke="#63b8ff" points="418.28,-73.24 407.73,-74.26 416.61,-80.04 418.28,-73.24"/>
</a>
</g>
</g>
<!-- Node7 -->
<g id="Node000007" class="node">
<title>Node7</title>
<g id="a_Node000007"><a xlink:href="classdunedaq_1_1timing_1_1MasterDesignInterface.html" target="_top" xlink:title="Base class for timing master designs.">
<polygon fill="white" stroke="#666666" points="592.75,-73.5 444.75,-73.5 444.75,-43 592.75,-43 592.75,-73.5"/>
<text text-anchor="start" x="452.75" y="-60" font-family="Helvetica,sans-Serif" font-size="10.00">dunedaq::timing::MasterDesign</text>
<text text-anchor="middle" x="518.75" y="-48.75" font-family="Helvetica,sans-Serif" font-size="10.00">Interface</text>
</a>
</g>
</g>
<!-- Node4&#45;&gt;Node7 -->
<g id="edge7_Node000007_Node000004" class="edge">
<title>Node4&#45;&gt;Node7</title>
<g id="a_edge7_Node000007_Node000004"><a xlink:title=" ">
<path fill="none" stroke="#63b8ff" d="M420.07,-58.25C428.14,-58.25 436.34,-58.25 444.36,-58.25"/>
<polygon fill="#63b8ff" stroke="#63b8ff" points="420.27,-54.75 410.27,-58.25 420.27,-61.75 420.27,-54.75"/>
</a>
</g>
</g>
<!-- Node8 -->
<g id="Node000008" class="node">
<title>Node8</title>
<g id="a_Node000008"><a xlink:href="classdunedaq_1_1timing_1_1EndpointDesignInterface.html" target="_top" xlink:title="Base class for timing endpoint design nodes.">
<polygon fill="white" stroke="#666666" points="765.5,-30.5 640,-30.5 640,0 765.5,0 765.5,-30.5"/>
<text text-anchor="start" x="648" y="-17" font-family="Helvetica,sans-Serif" font-size="10.00">dunedaq::timing::Endpoint</text>
<text text-anchor="middle" x="702.75" y="-5.75" font-family="Helvetica,sans-Serif" font-size="10.00">DesignInterface</text>
</a>
</g>
</g>
<!-- Node4&#45;&gt;Node8 -->
<g id="edge9_Node000008_Node000004" class="edge">
<title>Node4&#45;&gt;Node8</title>
<g id="a_edge9_Node000008_Node000004"><a xlink:title=" ">
<path fill="none" stroke="#63b8ff" d="M413.63,-40.05C424.02,-37.83 434.62,-35.8 444.75,-34.25 510.86,-24.11 587.4,-19.33 639.65,-17.11"/>
<polygon fill="#63b8ff" stroke="#63b8ff" points="412.96,-36.61 403.96,-42.19 414.48,-43.45 412.96,-36.61"/>
</a>
</g>
</g>
<!-- Node5 -->
<g id="Node000005" class="node">
<title>Node5</title>
<g id="a_Node000005"><a xlink:href="classdunedaq_1_1timing_1_1TimingNode.html" target="_top" xlink:title="Base class for timing nodes.">
<polygon fill="white" stroke="#666666" points="238.25,-67.88 97.75,-67.88 97.75,-48.62 238.25,-48.62 238.25,-67.88"/>
<text text-anchor="middle" x="168" y="-54.38" font-family="Helvetica,sans-Serif" font-size="10.00">dunedaq::timing::TimingNode</text>
</a>
</g>
</g>
<!-- Node5&#45;&gt;Node4 -->
<g id="edge4_Node000004_Node000005" class="edge">
<title>Node5&#45;&gt;Node4</title>
<g id="a_edge4_Node000004_Node000005"><a xlink:title=" ">
<path fill="none" stroke="#63b8ff" d="M249.62,-58.25C257.7,-58.25 265.85,-58.25 273.76,-58.25"/>
<polygon fill="#63b8ff" stroke="#63b8ff" points="249.77,-54.75 239.77,-58.25 249.77,-61.75 249.77,-54.75"/>
</a>
</g>
</g>
<!-- Node6 -->
<g id="Node000006" class="node">
<title>Node6</title>
<g id="a_Node000006"><a xlink:title=" ">
<polygon fill="white" stroke="#666666" points="61.75,-67.88 0,-67.88 0,-48.62 61.75,-48.62 61.75,-67.88"/>
<text text-anchor="middle" x="30.88" y="-54.38" font-family="Helvetica,sans-Serif" font-size="10.00">uhal::Node</text>
</a>
</g>
</g>
<!-- Node6&#45;&gt;Node5 -->
<g id="edge5_Node000005_Node000006" class="edge">
<title>Node6&#45;&gt;Node5</title>
<g id="a_edge5_Node000005_Node000006"><a xlink:title=" ">
<path fill="none" stroke="#63b8ff" d="M73.58,-58.25C81.14,-58.25 89.2,-58.25 97.3,-58.25"/>
<polygon fill="#63b8ff" stroke="#63b8ff" points="73.71,-54.75 63.71,-58.25 73.71,-61.75 73.71,-54.75"/>
</a>
</g>
</g>
<!-- Node7&#45;&gt;Node2 -->
<g id="edge6_Node000002_Node000007" class="edge">
<title>Node7&#45;&gt;Node2</title>
<g id="a_edge6_Node000002_Node000007"><a xlink:title=" ">
<path fill="none" stroke="#63b8ff" d="M604.29,-58.25C612.33,-58.25 620.44,-58.25 628.36,-58.25"/>
<polygon fill="#63b8ff" stroke="#63b8ff" points="604.5,-54.75 594.5,-58.25 604.5,-61.75 604.5,-54.75"/>
</a>
</g>
</g>
<!-- Node8&#45;&gt;Node1 -->
<g id="edge8_Node000001_Node000008" class="edge">
<title>Node8&#45;&gt;Node1</title>
<g id="a_edge8_Node000001_Node000008"><a xlink:title=" ">
<path fill="none" stroke="#63b8ff" d="M776.89,-24.05C788.64,-25.47 800.73,-26.92 812.3,-28.31"/>
<polygon fill="#63b8ff" stroke="#63b8ff" points="777.61,-20.61 767.27,-22.89 776.78,-27.56 777.61,-20.61"/>
</a>
</g>
</g>
</g>
</svg>
