<?xml version="1.0" encoding="UTF-8" standalone="no"?>
<!DOCTYPE svg PUBLIC "-//W3C//DTD SVG 1.1//EN"
 "http://www.w3.org/Graphics/SVG/1.1/DTD/svg11.dtd">
<!-- Generated by graphviz version 9.0.0 (20230911.1827)
 -->
<!-- Title: dunedaq::oksconflibs::OksConfiguration Pages: 1 -->
<svg width="1756pt" height="555pt"
 viewBox="0.00 0.00 1756.25 554.88" xmlns="http://www.w3.org/2000/svg" xmlns:xlink="http://www.w3.org/1999/xlink">
<g id="graph0" class="graph" transform="scale(1 1) rotate(0) translate(4 550.88)">
<title>dunedaq::oksconflibs::OksConfiguration</title>
<!-- Node1 -->
<g id="Node000001" class="node">
<title>Node1</title>
<g id="a_Node000001"><a xlink:title=" ">
<polygon fill="#999999" stroke="#666666" points="861.88,-264.25 755.88,-264.25 755.88,-233.75 861.88,-233.75 861.88,-264.25"/>
<text text-anchor="start" x="763.88" y="-250.75" font-family="Helvetica,sans-Serif" font-size="10.00">dunedaq::oksconflibs</text>
<text text-anchor="middle" x="808.88" y="-239.5" font-family="Helvetica,sans-Serif" font-size="10.00">::OksConfiguration</text>
</a>
</g>
</g>
<!-- Node27 -->
<g id="Node000027" class="node">
<title>Node27</title>
<g id="a_Node000027"><a xlink:href="structdunedaq_1_1oksconflibs_1_1OksConfigurationCheckDB.html" target="_top" xlink:title=" ">
<polygon fill="white" stroke="#666666" points="1132.5,-288.25 996.5,-288.25 996.5,-257.75 1132.5,-257.75 1132.5,-288.25"/>
<text text-anchor="start" x="1004.5" y="-274.75" font-family="Helvetica,sans-Serif" font-size="10.00">dunedaq::oksconflibs</text>
<text text-anchor="middle" x="1064.5" y="-263.5" font-family="Helvetica,sans-Serif" font-size="10.00">::OksConfigurationCheckDB</text>
</a>
</g>
</g>
<!-- Node1&#45;&gt;Node27 -->
<g id="edge35_Node000027_Node000001" class="edge">
<title>Node1&#45;&gt;Node27</title>
<g id="a_edge35_Node000027_Node000001"><a xlink:title=" ">
<path fill="none" stroke="#9a32cd" stroke-dasharray="5,2" d="M873.63,-240.44C905.36,-237.75 944.18,-236.82 978.5,-242.75 987.53,-244.31 1006.06,-250.76 1023.52,-257.31"/>
<polygon fill="#9a32cd" stroke="#9a32cd" points="873.42,-236.95 863.79,-241.36 874.07,-243.92 873.42,-236.95"/>
</a>
</g>
<text text-anchor="middle" x="940.62" y="-243.75" font-family="Helvetica,sans-Serif" font-size="10.00" fill="grey"> m_db</text>
</g>
<!-- Node2 -->
<g id="Node000002" class="node">
<title>Node2</title>
<g id="a_Node000002"><a xlink:href="classdunedaq_1_1conffwk_1_1ConfigurationImpl.html" target="_top" xlink:title="Provides pure virtual interface used by the Configuration class.">
<polygon fill="white" stroke="#666666" points="609.25,-271.62 438.75,-271.62 438.75,-252.38 609.25,-252.38 609.25,-271.62"/>
<text text-anchor="middle" x="524" y="-258.12" font-family="Helvetica,sans-Serif" font-size="10.00">dunedaq::conffwk::ConfigurationImpl</text>
</a>
</g>
</g>
<!-- Node2&#45;&gt;Node1 -->
<g id="edge1_Node000001_Node000002" class="edge">
<title>Node2&#45;&gt;Node1</title>
<g id="a_edge1_Node000001_Node000002"><a xlink:title=" ">
<path fill="none" stroke="#63b8ff" d="M620.77,-257.6C665.76,-255.53 717.67,-253.15 755.38,-251.41"/>
<polygon fill="#63b8ff" stroke="#63b8ff" points="620.83,-254.09 611,-258.05 621.15,-261.08 620.83,-254.09"/>
</a>
</g>
</g>
<!-- Node5 -->
<g id="Node000005" class="node">
<title>Node5</title>
<g id="a_Node000005"><a xlink:href="classdunedaq_1_1conffwk_1_1Configuration.html" target="_top" xlink:title=" ">
<polygon fill="white" stroke="#666666" points="884.75,-376.62 733,-376.62 733,-357.38 884.75,-357.38 884.75,-376.62"/>
<text text-anchor="middle" x="808.88" y="-363.12" font-family="Helvetica,sans-Serif" font-size="10.00">dunedaq::conffwk::Configuration</text>
</a>
</g>
</g>
<!-- Node2&#45;&gt;Node5 -->
<g id="edge13_Node000005_Node000002" class="edge">
<title>Node2&#45;&gt;Node5</title>
<g id="a_edge13_Node000005_Node000002"><a xlink:title=" ">
<path fill="none" stroke="#9a32cd" stroke-dasharray="5,2" d="M575.71,-275.2C586.86,-278.44 598.53,-282.11 609.25,-286 617.48,-288.98 618.97,-291.16 627.25,-294 665.25,-307.04 677.59,-301.09 715,-315.75 743.8,-327.04 774.8,-345.58 792.71,-357"/>
<polygon fill="#9a32cd" stroke="#9a32cd" points="576.83,-271.88 566.26,-272.51 574.92,-278.61 576.83,-271.88"/>
</a>
</g>
<text text-anchor="middle" x="671.12" y="-316.75" font-family="Helvetica,sans-Serif" font-size="10.00" fill="grey"> m_impl</text>
</g>
<!-- Node3 -->
<g id="Node000003" class="node">
<title>Node3</title>
<g id="a_Node000003"><a xlink:href="classdunedaq_1_1conffwk_1_1pmap.html" target="_top" xlink:title=" ">
<polygon fill="white" stroke="#666666" points="331.88,-251.5 172.62,-251.5 172.62,-198.5 331.88,-198.5 331.88,-251.5"/>
<text text-anchor="start" x="180.62" y="-238" font-family="Helvetica,sans-Serif" font-size="10.00">dunedaq::conffwk::pmap</text>
<text text-anchor="start" x="180.62" y="-226.75" font-family="Helvetica,sans-Serif" font-size="10.00">&lt; dunedaq::conffwk::map</text>
<text text-anchor="start" x="180.62" y="-215.5" font-family="Helvetica,sans-Serif" font-size="10.00">&lt; dunedaq::conffwk::ConfigObject</text>
<text text-anchor="middle" x="252.25" y="-204.25" font-family="Helvetica,sans-Serif" font-size="10.00">Impl * &gt; * &gt;</text>
</a>
</g>
</g>
<!-- Node3&#45;&gt;Node2 -->
<g id="edge2_Node000002_Node000003" class="edge">
<title>Node3&#45;&gt;Node2</title>
<g id="a_edge2_Node000002_Node000003"><a xlink:title=" ">
<path fill="none" stroke="#9a32cd" stroke-dasharray="5,2" d="M343.38,-237.36C377.84,-242.09 416.7,-247.42 449.43,-251.91"/>
<polygon fill="#9a32cd" stroke="#9a32cd" points="344.24,-233.95 333.86,-236.06 343.29,-240.88 344.24,-233.95"/>
</a>
</g>
<text text-anchor="middle" x="385.5" y="-248.75" font-family="Helvetica,sans-Serif" font-size="10.00" fill="grey"> m_impl_objects</text>
</g>
<!-- Node4 -->
<g id="Node000004" class="node">
<title>Node4</title>
<g id="a_Node000004"><a xlink:title=" ">
<polygon fill="white" stroke="#666666" points="135.25,-257.12 0,-257.12 0,-192.88 135.25,-192.88 135.25,-257.12"/>
<text text-anchor="start" x="8" y="-243.62" font-family="Helvetica,sans-Serif" font-size="10.00">std::map&lt; const std</text>
<text text-anchor="start" x="8" y="-232.38" font-family="Helvetica,sans-Serif" font-size="10.00">::string *, dunedaq</text>
<text text-anchor="start" x="8" y="-221.12" font-family="Helvetica,sans-Serif" font-size="10.00">::conffwk::map&lt; dunedaq</text>
<text text-anchor="start" x="8" y="-209.88" font-family="Helvetica,sans-Serif" font-size="10.00">::conffwk::ConfigObjectImpl</text>
<text text-anchor="middle" x="67.62" y="-198.62" font-family="Helvetica,sans-Serif" font-size="10.00"> * &gt; * , string_ptr_compare &gt;</text>
</a>
</g>
</g>
<!-- Node4&#45;&gt;Node3 -->
<g id="edge3_Node000003_Node000004" class="edge">
<title>Node4&#45;&gt;Node3</title>
<g id="a_edge3_Node000003_Node000004"><a xlink:title=" ">
<path fill="none" stroke="#63b8ff" d="M146.9,-225C155.29,-225 163.82,-225 172.22,-225"/>
<polygon fill="#63b8ff" stroke="#63b8ff" points="147.1,-221.5 137.1,-225 147.1,-228.5 147.1,-221.5"/>
</a>
</g>
</g>
<!-- Node5&#45;&gt;Node2 -->
<g id="edge4_Node000002_Node000005" class="edge">
<title>Node5&#45;&gt;Node2</title>
<g id="a_edge4_Node000002_Node000005"><a xlink:title=" ">
<path fill="none" stroke="#9a32cd" stroke-dasharray="5,2" d="M793.43,-348.22C776.87,-328.23 747.76,-297.49 715,-282.75 682.32,-268.05 643.4,-262.06 609.31,-260.04"/>
<polygon fill="#9a32cd" stroke="#9a32cd" points="790.58,-350.26 799.56,-355.87 796.04,-345.88 790.58,-350.26"/>
</a>
</g>
<text text-anchor="middle" x="671.12" y="-283.75" font-family="Helvetica,sans-Serif" font-size="10.00" fill="grey"> m_conf</text>
</g>
<!-- Node6 -->
<g id="Node000006" class="node">
<title>Node6</title>
<g id="a_Node000006"><a xlink:href="classdunedaq_1_1conffwk_1_1map.html" target="_top" xlink:title=" ">
<polygon fill="white" stroke="#666666" points="598.75,-535.25 449.25,-535.25 449.25,-504.75 598.75,-504.75 598.75,-535.25"/>
<text text-anchor="start" x="457.25" y="-521.75" font-family="Helvetica,sans-Serif" font-size="10.00">dunedaq::conffwk::map</text>
<text text-anchor="middle" x="524" y="-510.5" font-family="Helvetica,sans-Serif" font-size="10.00">&lt; dunedaq::conffwk::class_t * &gt;</text>
</a>
</g>
</g>
<!-- Node6&#45;&gt;Node5 -->
<g id="edge5_Node000005_Node000006" class="edge">
<title>Node6&#45;&gt;Node5</title>
<g id="a_edge5_Node000005_Node000006"><a xlink:title=" ">
<path fill="none" stroke="#9a32cd" stroke-dasharray="5,2" d="M592.68,-500.84C630.21,-488.66 676.85,-470.85 715,-448 749.32,-427.44 783.06,-393.7 798.75,-377"/>
<polygon fill="#9a32cd" stroke="#9a32cd" points="591.76,-497.46 583.29,-503.83 593.88,-504.13 591.76,-497.46"/>
</a>
</g>
<text text-anchor="start" x="627.25" y="-522.5" font-family="Helvetica,sans-Serif" font-size="10.00" fill="grey"> p_all_classes_desc</text>
<text text-anchor="middle" x="671.12" y="-511.25" font-family="Helvetica,sans-Serif" font-size="10.00" fill="grey">_cache</text>
<text text-anchor="start" x="627.25" y="-500" font-family="Helvetica,sans-Serif" font-size="10.00" fill="grey">p_direct_classes</text>
<text text-anchor="middle" x="671.12" y="-488.75" font-family="Helvetica,sans-Serif" font-size="10.00" fill="grey">_desc_cache</text>
</g>
<!-- Node7 -->
<g id="Node000007" class="node">
<title>Node7</title>
<g id="a_Node000007"><a xlink:title=" ">
<polygon fill="white" stroke="#666666" points="306.38,-546.88 198.12,-546.88 198.12,-505.12 306.38,-505.12 306.38,-546.88"/>
<text text-anchor="start" x="206.12" y="-533.38" font-family="Helvetica,sans-Serif" font-size="10.00">std::unordered_map</text>
<text text-anchor="start" x="206.12" y="-522.12" font-family="Helvetica,sans-Serif" font-size="10.00">&lt; std::string, dunedaq</text>
<text text-anchor="middle" x="252.25" y="-510.88" font-family="Helvetica,sans-Serif" font-size="10.00">::conffwk::class_t * &gt;</text>
</a>
</g>
</g>
<!-- Node7&#45;&gt;Node6 -->
<g id="edge6_Node000006_Node000007" class="edge">
<title>Node7&#45;&gt;Node6</title>
<g id="a_edge6_Node000006_Node000007"><a xlink:title=" ">
<path fill="none" stroke="#63b8ff" d="M318.18,-524.56C357.54,-523.68 407.88,-522.56 448.8,-521.65"/>
<polygon fill="#63b8ff" stroke="#63b8ff" points="318.3,-521.05 308.38,-524.77 318.45,-528.05 318.3,-521.05"/>
</a>
</g>
</g>
<!-- Node8 -->
<g id="Node000008" class="node">
<title>Node8</title>
<g id="a_Node000008"><a xlink:href="classdunedaq_1_1conffwk_1_1fmap.html" target="_top" xlink:title=" ">
<polygon fill="white" stroke="#666666" points="582.62,-470.25 465.38,-470.25 465.38,-439.75 582.62,-439.75 582.62,-470.25"/>
<text text-anchor="start" x="473.38" y="-456.75" font-family="Helvetica,sans-Serif" font-size="10.00">dunedaq::conffwk::fmap</text>
<text text-anchor="middle" x="524" y="-445.5" font-family="Helvetica,sans-Serif" font-size="10.00">&lt; conffwk::fset &gt;</text>
</a>
</g>
</g>
<!-- Node8&#45;&gt;Node5 -->
<g id="edge7_Node000005_Node000008" class="edge">
<title>Node8&#45;&gt;Node5</title>
<g id="a_edge7_Node000005_Node000008"><a xlink:title=" ">
<path fill="none" stroke="#9a32cd" stroke-dasharray="5,2" d="M586.45,-435.88C644.52,-417.82 729.39,-391.42 775.37,-377.11"/>
<polygon fill="#9a32cd" stroke="#9a32cd" points="585.53,-432.51 577.02,-438.82 587.61,-439.19 585.53,-432.51"/>
</a>
</g>
<text text-anchor="middle" x="671.12" y="-434" font-family="Helvetica,sans-Serif" font-size="10.00" fill="grey"> p_subclasses</text>
<text text-anchor="middle" x="671.12" y="-422.75" font-family="Helvetica,sans-Serif" font-size="10.00" fill="grey">p_superclasses</text>
</g>
<!-- Node9 -->
<g id="Node000009" class="node">
<title>Node9</title>
<g id="a_Node000009"><a xlink:title=" ">
<polygon fill="white" stroke="#666666" points="309,-487.5 195.5,-487.5 195.5,-434.5 309,-434.5 309,-487.5"/>
<text text-anchor="start" x="203.5" y="-474" font-family="Helvetica,sans-Serif" font-size="10.00">std::unordered_map</text>
<text text-anchor="start" x="203.5" y="-462.75" font-family="Helvetica,sans-Serif" font-size="10.00">&lt; const std::string</text>
<text text-anchor="start" x="203.5" y="-451.5" font-family="Helvetica,sans-Serif" font-size="10.00"> *, conffwk::fset , string</text>
<text text-anchor="middle" x="252.25" y="-440.25" font-family="Helvetica,sans-Serif" font-size="10.00">_ptr_hash &gt;</text>
</a>
</g>
</g>
<!-- Node9&#45;&gt;Node8 -->
<g id="edge8_Node000008_Node000009" class="edge">
<title>Node9&#45;&gt;Node8</title>
<g id="a_edge8_Node000008_Node000009"><a xlink:title=" ">
<path fill="none" stroke="#63b8ff" d="M320.75,-459.5C365.15,-458.51 422.65,-457.23 464.99,-456.29"/>
<polygon fill="#63b8ff" stroke="#63b8ff" points="320.9,-455.99 310.98,-459.72 321.06,-462.99 320.9,-455.99"/>
</a>
</g>
</g>
<!-- Node10 -->
<g id="Node000010" class="node">
<title>Node10</title>
<g id="a_Node000010"><a xlink:href="classdunedaq_1_1conffwk_1_1map.html" target="_top" xlink:title=" ">
<polygon fill="white" stroke="#666666" points="584.88,-416.12 463.12,-416.12 463.12,-351.88 584.88,-351.88 584.88,-416.12"/>
<text text-anchor="start" x="471.12" y="-402.62" font-family="Helvetica,sans-Serif" font-size="10.00">dunedaq::conffwk::map</text>
<text text-anchor="start" x="471.12" y="-391.38" font-family="Helvetica,sans-Serif" font-size="10.00">&lt; std::list&lt; dunedaq</text>
<text text-anchor="start" x="471.12" y="-380.12" font-family="Helvetica,sans-Serif" font-size="10.00">::conffwk::Configuration</text>
<text text-anchor="start" x="471.12" y="-368.88" font-family="Helvetica,sans-Serif" font-size="10.00">::AttributeConverterBase</text>
<text text-anchor="middle" x="524" y="-357.62" font-family="Helvetica,sans-Serif" font-size="10.00"> * &gt; * &gt;</text>
</a>
</g>
</g>
<!-- Node10&#45;&gt;Node5 -->
<g id="edge9_Node000005_Node000010" class="edge">
<title>Node10&#45;&gt;Node5</title>
<g id="a_edge9_Node000005_Node000010"><a xlink:title=" ">
<path fill="none" stroke="#9a32cd" stroke-dasharray="5,2" d="M596.76,-379.69C638.34,-377.19 690.62,-374.05 732.75,-371.51"/>
<polygon fill="#9a32cd" stroke="#9a32cd" points="596.62,-376.19 586.85,-380.28 597.04,-383.18 596.62,-376.19"/>
</a>
</g>
<text text-anchor="middle" x="671.12" y="-378.75" font-family="Helvetica,sans-Serif" font-size="10.00" fill="grey"> m_convert_map</text>
</g>
<!-- Node11 -->
<g id="Node000011" class="node">
<title>Node11</title>
<g id="a_Node000011"><a xlink:title=" ">
<polygon fill="white" stroke="#666666" points="332.25,-416.12 172.25,-416.12 172.25,-351.88 332.25,-351.88 332.25,-416.12"/>
<text text-anchor="start" x="180.25" y="-402.62" font-family="Helvetica,sans-Serif" font-size="10.00">std::unordered_map</text>
<text text-anchor="start" x="180.25" y="-391.38" font-family="Helvetica,sans-Serif" font-size="10.00">&lt; std::string, std::</text>
<text text-anchor="start" x="180.25" y="-380.12" font-family="Helvetica,sans-Serif" font-size="10.00">list&lt; dunedaq::conffwk</text>
<text text-anchor="start" x="180.25" y="-368.88" font-family="Helvetica,sans-Serif" font-size="10.00">::Configuration::AttributeConverter</text>
<text text-anchor="middle" x="252.25" y="-357.62" font-family="Helvetica,sans-Serif" font-size="10.00">Base * &gt; * &gt;</text>
</a>
</g>
</g>
<!-- Node11&#45;&gt;Node10 -->
<g id="edge10_Node000010_Node000011" class="edge">
<title>Node11&#45;&gt;Node10</title>
<g id="a_edge10_Node000010_Node000011"><a xlink:title=" ">
<path fill="none" stroke="#63b8ff" d="M344.14,-384C383.3,-384 428,-384 462.92,-384"/>
<polygon fill="#63b8ff" stroke="#63b8ff" points="344.24,-380.5 334.24,-384 344.24,-387.5 344.24,-380.5"/>
</a>
</g>
</g>
<!-- Node12 -->
<g id="Node000012" class="node">
<title>Node12</title>
<g id="a_Node000012"><a xlink:href="classdunedaq_1_1conffwk_1_1fmap.html" target="_top" xlink:title=" ">
<polygon fill="white" stroke="#666666" points="608.12,-325.25 439.88,-325.25 439.88,-294.75 608.12,-294.75 608.12,-325.25"/>
<text text-anchor="start" x="447.88" y="-311.75" font-family="Helvetica,sans-Serif" font-size="10.00">dunedaq::conffwk::fmap</text>
<text text-anchor="middle" x="524" y="-300.5" font-family="Helvetica,sans-Serif" font-size="10.00">&lt; dunedaq::conffwk::CacheBase * &gt;</text>
</a>
</g>
</g>
<!-- Node12&#45;&gt;Node5 -->
<g id="edge11_Node000005_Node000012" class="edge">
<title>Node12&#45;&gt;Node5</title>
<g id="a_edge11_Node000005_Node000012"><a xlink:title=" ">
<path fill="none" stroke="#9a32cd" stroke-dasharray="5,2" d="M614.24,-327.98C661.59,-337.52 718,-348.89 757.69,-356.89"/>
<polygon fill="#9a32cd" stroke="#9a32cd" points="615.02,-324.57 604.53,-326.03 613.64,-331.43 615.02,-324.57"/>
</a>
</g>
<text text-anchor="middle" x="671.12" y="-347.75" font-family="Helvetica,sans-Serif" font-size="10.00" fill="grey"> m_cache_map</text>
</g>
<!-- Node13 -->
<g id="Node000013" class="node">
<title>Node13</title>
<g id="a_Node000013"><a xlink:title=" ">
<polygon fill="white" stroke="#666666" points="305.25,-334.12 199.25,-334.12 199.25,-269.88 305.25,-269.88 305.25,-334.12"/>
<text text-anchor="start" x="207.25" y="-320.62" font-family="Helvetica,sans-Serif" font-size="10.00">std::unordered_map</text>
<text text-anchor="start" x="207.25" y="-309.38" font-family="Helvetica,sans-Serif" font-size="10.00">&lt; const std::string</text>
<text text-anchor="start" x="207.25" y="-298.12" font-family="Helvetica,sans-Serif" font-size="10.00"> *, dunedaq::conffwk</text>
<text text-anchor="start" x="207.25" y="-286.88" font-family="Helvetica,sans-Serif" font-size="10.00">::CacheBase *, string</text>
<text text-anchor="middle" x="252.25" y="-275.62" font-family="Helvetica,sans-Serif" font-size="10.00">_ptr_hash &gt;</text>
</a>
</g>
</g>
<!-- Node13&#45;&gt;Node12 -->
<g id="edge12_Node000012_Node000013" class="edge">
<title>Node13&#45;&gt;Node12</title>
<g id="a_edge12_Node000012_Node000013"><a xlink:title=" ">
<path fill="none" stroke="#63b8ff" d="M316.62,-303.88C353.29,-304.97 399.87,-306.35 439.5,-307.52"/>
<polygon fill="#63b8ff" stroke="#63b8ff" points="317.19,-300.39 307.09,-303.6 316.99,-307.39 317.19,-300.39"/>
</a>
</g>
</g>
<!-- Node14 -->
<g id="Node000014" class="node">
<title>Node14</title>
<g id="a_Node000014"><a xlink:href="classdunedaq_1_1oks_1_1OksKernel.html" target="_top" xlink:title="Provides interface to the OKS kernel.">
<polygon fill="white" stroke="#666666" points="585.62,-98.62 462.38,-98.62 462.38,-79.38 585.62,-79.38 585.62,-98.62"/>
<text text-anchor="middle" x="524" y="-85.12" font-family="Helvetica,sans-Serif" font-size="10.00">dunedaq::oks::OksKernel</text>
</a>
</g>
</g>
<!-- Node14&#45;&gt;Node1 -->
<g id="edge14_Node000001_Node000014" class="edge">
<title>Node14&#45;&gt;Node1</title>
<g id="a_edge14_Node000001_Node000014"><a xlink:title=" ">
<path fill="none" stroke="#9a32cd" stroke-dasharray="5,2" d="M546.16,-105.63C582.53,-133.56 660.06,-190.25 733,-225 740.15,-228.41 747.9,-231.5 755.62,-234.25"/>
<polygon fill="#9a32cd" stroke="#9a32cd" points="548.67,-103.15 538.62,-99.8 544.38,-108.69 548.67,-103.15"/>
</a>
</g>
<text text-anchor="middle" x="671.12" y="-217.75" font-family="Helvetica,sans-Serif" font-size="10.00" fill="grey"> m_kernel</text>
</g>
<!-- Node15 -->
<g id="Node000015" class="node">
<title>Node15</title>
<g id="a_Node000015"><a xlink:href="classdunedaq_1_1oks_1_1OksFile.html" target="_top" xlink:title="Provides interface to the OKS XML schema and data files.">
<polygon fill="white" stroke="#666666" points="864.5,-64.62 753.25,-64.62 753.25,-45.38 864.5,-45.38 864.5,-64.62"/>
<text text-anchor="middle" x="808.88" y="-51.12" font-family="Helvetica,sans-Serif" font-size="10.00">dunedaq::oks::OksFile</text>
</a>
</g>
</g>
<!-- Node14&#45;&gt;Node15 -->
<g id="edge17_Node000015_Node000014" class="edge">
<title>Node14&#45;&gt;Node15</title>
<g id="a_edge17_Node000015_Node000014"><a xlink:title=" ">
<path fill="none" stroke="#9a32cd" stroke-dasharray="5,2" d="M557.73,-74.6C577.45,-66.72 603.3,-57.76 627.25,-53.75 669,-46.75 716.95,-47.49 752.95,-49.74"/>
<polygon fill="#9a32cd" stroke="#9a32cd" points="556.49,-71.32 548.58,-78.37 559.16,-77.8 556.49,-71.32"/>
</a>
</g>
<text text-anchor="middle" x="671.12" y="-55.75" font-family="Helvetica,sans-Serif" font-size="10.00" fill="grey"> p_kernel</text>
</g>
<!-- Node22 -->
<g id="Node000022" class="node">
<title>Node22</title>
<g id="a_Node000022"><a xlink:href="classdunedaq_1_1oks_1_1OksClass.html" target="_top" xlink:title="The OKS class.">
<polygon fill="white" stroke="#666666" points="1124.62,-135.62 1004.38,-135.62 1004.38,-116.38 1124.62,-116.38 1124.62,-135.62"/>
<text text-anchor="middle" x="1064.5" y="-122.12" font-family="Helvetica,sans-Serif" font-size="10.00">dunedaq::oks::OksClass</text>
</a>
</g>
</g>
<!-- Node14&#45;&gt;Node22 -->
<g id="edge26_Node000022_Node000014" class="edge">
<title>Node14&#45;&gt;Node22</title>
<g id="a_edge26_Node000022_Node000014"><a xlink:title=" ">
<path fill="none" stroke="#9a32cd" stroke-dasharray="5,2" d="M597.26,-99.66C607.31,-100.92 617.53,-102.08 627.25,-103 761.65,-115.72 920.06,-121.87 1004.11,-124.44"/>
<polygon fill="#9a32cd" stroke="#9a32cd" points="597.87,-96.21 587.5,-98.39 596.97,-103.15 597.87,-96.21"/>
</a>
</g>
<text text-anchor="middle" x="808.88" y="-120.75" font-family="Helvetica,sans-Serif" font-size="10.00" fill="grey"> p_kernel</text>
</g>
<!-- Node15&#45;&gt;Node14 -->
<g id="edge15_Node000014_Node000015" class="edge">
<title>Node15&#45;&gt;Node14</title>
<g id="a_edge15_Node000014_Node000015"><a xlink:title=" ">
<path fill="none" stroke="#9a32cd" stroke-dasharray="5,2" d="M741.65,-63.67C732.69,-64.81 723.62,-65.94 715,-67 671.82,-72.29 623.08,-77.93 585.78,-82.17"/>
<polygon fill="#9a32cd" stroke="#9a32cd" points="741.91,-67.16 751.39,-62.42 741.02,-60.22 741.91,-67.16"/>
</a>
</g>
<text text-anchor="middle" x="671.12" y="-90" font-family="Helvetica,sans-Serif" font-size="10.00" fill="grey"> p_active_data</text>
<text text-anchor="middle" x="671.12" y="-78.75" font-family="Helvetica,sans-Serif" font-size="10.00" fill="grey">p_active_schema</text>
</g>
<!-- Node15&#45;&gt;Node15 -->
<g id="edge16_Node000015_Node000015" class="edge">
<title>Node15&#45;&gt;Node15</title>
<g id="a_edge16_Node000015_Node000015"><a xlink:title=" ">
<path fill="none" stroke="#9a32cd" stroke-dasharray="5,2" d="M785.49,-76.03C788.41,-79.9 796.21,-82.62 808.88,-82.62 832.03,-82.62 838.91,-73.52 829.5,-64.91"/>
<polygon fill="#9a32cd" stroke="#9a32cd" points="788.87,-76.93 787.88,-66.38 782.08,-75.24 788.87,-76.93"/>
</a>
</g>
<text text-anchor="middle" x="808.88" y="-84.38" font-family="Helvetica,sans-Serif" font-size="10.00" fill="grey"> p_included_by</text>
</g>
<!-- Node18 -->
<g id="Node000018" class="node">
<title>Node18</title>
<g id="a_Node000018"><a xlink:href="classdunedaq_1_1oks_1_1OksObject.html" target="_top" xlink:title="OksObject describes instance of OksClass.">
<polygon fill="white" stroke="#666666" points="1748.25,-127.62 1624.25,-127.62 1624.25,-108.38 1748.25,-108.38 1748.25,-127.62"/>
<text text-anchor="middle" x="1686.25" y="-114.12" font-family="Helvetica,sans-Serif" font-size="10.00">dunedaq::oks::OksObject</text>
</a>
</g>
</g>
<!-- Node15&#45;&gt;Node18 -->
<g id="edge33_Node000018_Node000015" class="edge">
<title>Node15&#45;&gt;Node18</title>
<g id="a_edge33_Node000018_Node000015"><a xlink:title=" ">
<path fill="none" stroke="#9a32cd" stroke-dasharray="5,2" d="M875.95,-61.46C927.09,-65.9 999.72,-71 1063.5,-71 1063.5,-71 1063.5,-71 1510.38,-71 1566.81,-71 1630.08,-94.11 1662.85,-107.92"/>
<polygon fill="#9a32cd" stroke="#9a32cd" points="876.51,-57.99 866.24,-60.6 875.89,-64.96 876.51,-57.99"/>
</a>
</g>
<text text-anchor="middle" x="1336.62" y="-72.75" font-family="Helvetica,sans-Serif" font-size="10.00" fill="grey"> file</text>
</g>
<!-- Node15&#45;&gt;Node22 -->
<g id="edge25_Node000022_Node000015" class="edge">
<title>Node15&#45;&gt;Node22</title>
<g id="a_edge25_Node000022_Node000015"><a xlink:title=" ">
<path fill="none" stroke="#9a32cd" stroke-dasharray="5,2" d="M854.54,-68.14C869.81,-72.59 887.01,-77.56 902.75,-82 944.94,-93.91 993.49,-107.13 1026.1,-115.94"/>
<polygon fill="#9a32cd" stroke="#9a32cd" points="855.84,-64.87 845.26,-65.43 853.87,-71.59 855.84,-64.87"/>
</a>
</g>
<text text-anchor="middle" x="940.62" y="-104.75" font-family="Helvetica,sans-Serif" font-size="10.00" fill="grey"> p_file</text>
</g>
<!-- Node16 -->
<g id="Node000016" class="node">
<title>Node16</title>
<g id="a_Node000016"><a xlink:href="classdunedaq_1_1oks_1_1OksProfiler.html" target="_top" xlink:title=" ">
<polygon fill="white" stroke="#666666" points="315,-117.62 189.5,-117.62 189.5,-98.38 315,-98.38 315,-117.62"/>
<text text-anchor="middle" x="252.25" y="-104.12" font-family="Helvetica,sans-Serif" font-size="10.00">dunedaq::oks::OksProfiler</text>
</a>
</g>
</g>
<!-- Node16&#45;&gt;Node14 -->
<g id="edge18_Node000014_Node000016" class="edge">
<title>Node16&#45;&gt;Node14</title>
<g id="a_edge18_Node000014_Node000016"><a xlink:title=" ">
<path fill="none" stroke="#9a32cd" stroke-dasharray="5,2" d="M326.86,-102.82C369.27,-99.83 421.94,-96.12 462.02,-93.3"/>
<polygon fill="#9a32cd" stroke="#9a32cd" points="326.71,-99.32 316.98,-103.51 327.21,-106.3 326.71,-99.32"/>
</a>
</g>
<text text-anchor="middle" x="385.5" y="-102.75" font-family="Helvetica,sans-Serif" font-size="10.00" fill="grey"> profiler</text>
</g>
<!-- Node17 -->
<g id="Node000017" class="node">
<title>Node17</title>
<g id="a_Node000017"><a xlink:href="structdunedaq_1_1oks_1_1LoadErrors.html" target="_top" xlink:title=" ">
<polygon fill="white" stroke="#666666" points="314.62,-80.62 189.88,-80.62 189.88,-61.38 314.62,-61.38 314.62,-80.62"/>
<text text-anchor="middle" x="252.25" y="-67.12" font-family="Helvetica,sans-Serif" font-size="10.00">dunedaq::oks::LoadErrors</text>
</a>
</g>
</g>
<!-- Node17&#45;&gt;Node14 -->
<g id="edge19_Node000014_Node000017" class="edge">
<title>Node17&#45;&gt;Node14</title>
<g id="a_edge19_Node000014_Node000017"><a xlink:title=" ">
<path fill="none" stroke="#9a32cd" stroke-dasharray="5,2" d="M326.41,-70.8C355.77,-71.2 389.91,-72.26 420.75,-74.75 434.15,-75.83 448.47,-77.5 462.03,-79.32"/>
<polygon fill="#9a32cd" stroke="#9a32cd" points="326.54,-67.3 316.5,-70.69 326.46,-74.3 326.54,-67.3"/>
</a>
</g>
<text text-anchor="middle" x="385.5" y="-76.75" font-family="Helvetica,sans-Serif" font-size="10.00" fill="grey"> p_load_errors</text>
</g>
<!-- Node18&#45;&gt;Node14 -->
<g id="edge20_Node000014_Node000018" class="edge">
<title>Node18&#45;&gt;Node14</title>
<g id="a_edge20_Node000014_Node000018"><a xlink:title=" ">
<path fill="none" stroke="#9a32cd" stroke-dasharray="5,2" d="M1670.74,-99.11C1643.33,-65.78 1580.38,0 1510.38,0 807.88,0 807.88,0 807.88,0 703.62,0 587.3,-55.69 543.24,-78.96"/>
<polygon fill="#9a32cd" stroke="#9a32cd" points="1667.87,-101.13 1676.85,-106.76 1673.34,-96.76 1667.87,-101.13"/>
</a>
</g>
<text text-anchor="start" x="1150.5" y="-46.75" font-family="Helvetica,sans-Serif" font-size="10.00" fill="grey"> p_change_object_notify</text>
<text text-anchor="middle" x="1205.62" y="-35.5" font-family="Helvetica,sans-Serif" font-size="10.00" fill="grey">_fn</text>
<text text-anchor="start" x="1150.5" y="-24.25" font-family="Helvetica,sans-Serif" font-size="10.00" fill="grey">p_create_object_notify</text>
<text text-anchor="middle" x="1205.62" y="-13" font-family="Helvetica,sans-Serif" font-size="10.00" fill="grey">_fn</text>
<text text-anchor="middle" x="1205.62" y="-1.75" font-family="Helvetica,sans-Serif" font-size="10.00" fill="grey">p_delete_object_notify_fn</text>
</g>
<!-- Node21 -->
<g id="Node000021" class="node">
<title>Node21</title>
<g id="a_Node000021"><a xlink:href="uniondunedaq_1_1oks_1_1OksData_1_1Data.html" target="_top" xlink:title=" ">
<polygon fill="white" stroke="#666666" points="1394.5,-179.25 1278.75,-179.25 1278.75,-148.75 1394.5,-148.75 1394.5,-179.25"/>
<text text-anchor="start" x="1286.75" y="-165.75" font-family="Helvetica,sans-Serif" font-size="10.00">dunedaq::oks::OksData</text>
<text text-anchor="middle" x="1336.62" y="-154.5" font-family="Helvetica,sans-Serif" font-size="10.00">::Data</text>
</a>
</g>
</g>
<!-- Node18&#45;&gt;Node21 -->
<g id="edge29_Node000021_Node000018" class="edge">
<title>Node18&#45;&gt;Node21</title>
<g id="a_edge29_Node000021_Node000018"><a xlink:title=" ">
<path fill="none" stroke="#9a32cd" stroke-dasharray="5,2" d="M1624.3,-130.03C1618.21,-131.1 1612.12,-132.11 1606.25,-133 1533.62,-144.07 1449.4,-153.19 1394.9,-158.61"/>
<polygon fill="#9a32cd" stroke="#9a32cd" points="1624.48,-133.55 1633.7,-128.34 1623.24,-126.67 1624.48,-133.55"/>
</a>
</g>
<text text-anchor="middle" x="1509.38" y="-153.75" font-family="Helvetica,sans-Serif" font-size="10.00" fill="grey"> OBJECT</text>
</g>
<!-- Node19 -->
<g id="Node000019" class="node">
<title>Node19</title>
<g id="a_Node000019"><a xlink:title=" ">
<polygon fill="white" stroke="#666666" points="1084.88,-237.62 1044.12,-237.62 1044.12,-218.38 1084.88,-218.38 1084.88,-237.62"/>
<text text-anchor="middle" x="1064.5" y="-224.12" font-family="Helvetica,sans-Serif" font-size="10.00">struct</text>
</a>
</g>
</g>
<!-- Node19&#45;&gt;Node18 -->
<g id="edge21_Node000018_Node000019" class="edge">
<title>Node19&#45;&gt;Node18</title>
<g id="a_edge21_Node000018_Node000019"><a xlink:title=" ">
<path fill="none" stroke="#9a32cd" stroke-dasharray="5,2" d="M1096.05,-237.45C1112.09,-241.92 1132.17,-246.77 1150.5,-249 1199.14,-254.92 1212.17,-255.39 1260.75,-249 1400.56,-230.62 1433.73,-212.36 1567.25,-167 1601.49,-155.37 1639.96,-138.68 1663.4,-128.1"/>
<polygon fill="#9a32cd" stroke="#9a32cd" points="1097.2,-234.14 1086.62,-234.72 1095.26,-240.86 1097.2,-234.14"/>
</a>
</g>
<text text-anchor="middle" x="1423" y="-219.75" font-family="Helvetica,sans-Serif" font-size="10.00" fill="grey"> uid</text>
</g>
<!-- Node19&#45;&gt;Node21 -->
<g id="edge32_Node000021_Node000019" class="edge">
<title>Node19&#45;&gt;Node21</title>
<g id="a_edge32_Node000021_Node000019"><a xlink:title=" ">
<path fill="none" stroke="#9a32cd" stroke-dasharray="5,2" d="M1096.47,-227.38C1135.59,-225.84 1204.57,-220.61 1260.75,-203 1278.37,-197.48 1296.79,-187.94 1310.94,-179.68"/>
<polygon fill="#9a32cd" stroke="#9a32cd" points="1096.5,-223.87 1086.62,-227.7 1096.73,-230.87 1096.5,-223.87"/>
</a>
</g>
<text text-anchor="middle" x="1205.62" y="-236" font-family="Helvetica,sans-Serif" font-size="10.00" fill="grey"> UID</text>
<text text-anchor="middle" x="1205.62" y="-224.75" font-family="Helvetica,sans-Serif" font-size="10.00" fill="grey">UID2</text>
</g>
<!-- Node20 -->
<g id="Node000020" class="node">
<title>Node20</title>
<g id="a_Node000020"><a xlink:href="structdunedaq_1_1oks_1_1OksData.html" target="_top" xlink:title="the structure to pass common parameters to various read() methods of OksData and OksObject class">
<polygon fill="white" stroke="#666666" points="1567.25,-127.62 1451.5,-127.62 1451.5,-108.38 1567.25,-108.38 1567.25,-127.62"/>
<text text-anchor="middle" x="1509.38" y="-114.12" font-family="Helvetica,sans-Serif" font-size="10.00">dunedaq::oks::OksData</text>
</a>
</g>
</g>
<!-- Node20&#45;&gt;Node18 -->
<g id="edge22_Node000018_Node000020" class="edge">
<title>Node20&#45;&gt;Node18</title>
<g id="a_edge22_Node000018_Node000020"><a xlink:title=" ">
<path fill="none" stroke="#9a32cd" stroke-dasharray="5,2" d="M1578.83,-118C1593.71,-118 1609.36,-118 1623.95,-118"/>
<polygon fill="#9a32cd" stroke="#9a32cd" points="1579.15,-114.5 1569.15,-118 1579.15,-121.5 1579.15,-114.5"/>
</a>
</g>
<text text-anchor="middle" x="1595.75" y="-119.75" font-family="Helvetica,sans-Serif" font-size="10.00" fill="grey"> data</text>
</g>
<!-- Node21&#45;&gt;Node20 -->
<g id="edge23_Node000020_Node000021" class="edge">
<title>Node21&#45;&gt;Node20</title>
<g id="a_edge23_Node000020_Node000021"><a xlink:title=" ">
<path fill="none" stroke="#9a32cd" stroke-dasharray="5,2" d="M1391.99,-144.88C1398.86,-142.69 1405.82,-140.59 1412.5,-138.75 1426.78,-134.81 1442.43,-131.15 1456.87,-128.04"/>
<polygon fill="#9a32cd" stroke="#9a32cd" points="1391.18,-141.46 1382.76,-147.88 1393.35,-148.11 1391.18,-141.46"/>
</a>
</g>
<text text-anchor="middle" x="1423" y="-139.75" font-family="Helvetica,sans-Serif" font-size="10.00" fill="grey"> data</text>
</g>
<!-- Node22&#45;&gt;Node21 -->
<g id="edge24_Node000021_Node000022" class="edge">
<title>Node22&#45;&gt;Node21</title>
<g id="a_edge24_Node000021_Node000022"><a xlink:title=" ">
<path fill="none" stroke="#9a32cd" stroke-dasharray="5,2" d="M1136.29,-125.4C1173.64,-126.28 1220.03,-129.27 1260.75,-137.5 1273.05,-139.99 1286.07,-144.05 1297.74,-148.26"/>
<polygon fill="#9a32cd" stroke="#9a32cd" points="1136.59,-121.9 1126.52,-125.22 1136.46,-128.9 1136.59,-121.9"/>
</a>
</g>
<text text-anchor="middle" x="1205.62" y="-150" font-family="Helvetica,sans-Serif" font-size="10.00" fill="grey"> CLASS</text>
<text text-anchor="middle" x="1205.62" y="-138.75" font-family="Helvetica,sans-Serif" font-size="10.00" fill="grey">class_id</text>
</g>
<!-- Node23 -->
<g id="Node000023" class="node">
<title>Node23</title>
<g id="a_Node000023"><a xlink:href="classdunedaq_1_1conffwk_1_1map.html" target="_top" xlink:title=" ">
<polygon fill="white" stroke="#666666" points="877.25,-178.62 740.5,-178.62 740.5,-159.38 877.25,-159.38 877.25,-178.62"/>
<text text-anchor="middle" x="808.88" y="-165.12" font-family="Helvetica,sans-Serif" font-size="10.00">dunedaq::conffwk::map&lt; T &gt;</text>
</a>
</g>
</g>
<!-- Node23&#45;&gt;Node22 -->
<g id="edge27_Node000022_Node000023" class="edge">
<title>Node23&#45;&gt;Node22</title>
<g id="a_edge27_Node000022_Node000023"><a xlink:title=" ">
<path fill="none" stroke="#9a32cd" stroke-dasharray="5,2" d="M888.79,-158.32C917.14,-154.22 949.31,-149.25 978.5,-144 991.56,-141.65 1005.69,-138.79 1018.61,-136.05"/>
<polygon fill="#9a32cd" stroke="#9a32cd" points="888.62,-154.81 879.22,-159.7 889.62,-161.74 888.62,-154.81"/>
</a>
</g>
<text text-anchor="middle" x="940.62" y="-156.75" font-family="Helvetica,sans-Serif" font-size="10.00" fill="grey"> p_data_info</text>
</g>
<!-- Node24 -->
<g id="Node000024" class="node">
<title>Node24</title>
<g id="a_Node000024"><a xlink:title=" ">
<polygon fill="white" stroke="#666666" points="574.38,-204.25 473.62,-204.25 473.62,-173.75 574.38,-173.75 574.38,-204.25"/>
<text text-anchor="start" x="481.62" y="-190.75" font-family="Helvetica,sans-Serif" font-size="10.00">std::unordered_map</text>
<text text-anchor="middle" x="524" y="-179.5" font-family="Helvetica,sans-Serif" font-size="10.00">&lt; std::string, T &gt;</text>
</a>
</g>
</g>
<!-- Node24&#45;&gt;Node23 -->
<g id="edge28_Node000023_Node000024" class="edge">
<title>Node24&#45;&gt;Node23</title>
<g id="a_edge28_Node000023_Node000024"><a xlink:title=" ">
<path fill="none" stroke="#63b8ff" d="M586.05,-184.68C631.44,-181.47 693.37,-177.1 740.25,-173.78"/>
<polygon fill="#63b8ff" stroke="#63b8ff" points="585.83,-181.19 576.11,-185.39 586.33,-188.17 585.83,-181.19"/>
</a>
</g>
</g>
<!-- Node25 -->
<g id="Node000025" class="node">
<title>Node25</title>
<g id="a_Node000025"><a xlink:href="classdunedaq_1_1oks_1_1OksString.html" target="_top" xlink:title="Class OKS string.">
<polygon fill="white" stroke="#666666" points="1125,-190.62 1004,-190.62 1004,-171.38 1125,-171.38 1125,-190.62"/>
<text text-anchor="middle" x="1064.5" y="-177.12" font-family="Helvetica,sans-Serif" font-size="10.00">dunedaq::oks::OksString</text>
</a>
</g>
</g>
<!-- Node25&#45;&gt;Node21 -->
<g id="edge30_Node000021_Node000025" class="edge">
<title>Node25&#45;&gt;Node21</title>
<g id="a_edge30_Node000021_Node000025"><a xlink:title=" ">
<path fill="none" stroke="#9a32cd" stroke-dasharray="5,2" d="M1136.43,-170.61C1141.18,-170.09 1145.91,-169.63 1150.5,-169.25 1193.28,-165.7 1241.78,-164.42 1278.41,-164.02"/>
<polygon fill="#9a32cd" stroke="#9a32cd" points="1136.35,-167.09 1126.82,-171.72 1137.15,-174.05 1136.35,-167.09"/>
</a>
</g>
<text text-anchor="middle" x="1205.62" y="-193.25" font-family="Helvetica,sans-Serif" font-size="10.00" fill="grey"> STRING</text>
<text text-anchor="middle" x="1205.62" y="-182" font-family="Helvetica,sans-Serif" font-size="10.00" fill="grey">class_id</text>
<text text-anchor="middle" x="1205.62" y="-170.75" font-family="Helvetica,sans-Serif" font-size="10.00" fill="grey">object_id</text>
</g>
<!-- Node26 -->
<g id="Node000026" class="node">
<title>Node26</title>
<g id="a_Node000026"><a xlink:title=" ">
<polygon fill="white" stroke="#666666" points="837.88,-215.62 779.88,-215.62 779.88,-196.38 837.88,-196.38 837.88,-215.62"/>
<text text-anchor="middle" x="808.88" y="-202.12" font-family="Helvetica,sans-Serif" font-size="10.00">std::string</text>
</a>
</g>
</g>
<!-- Node26&#45;&gt;Node25 -->
<g id="edge31_Node000025_Node000026" class="edge">
<title>Node26&#45;&gt;Node25</title>
<g id="a_edge31_Node000025_Node000026"><a xlink:title=" ">
<path fill="none" stroke="#63b8ff" d="M849.21,-202.12C890.47,-198.06 955.85,-191.61 1003.55,-186.91"/>
<polygon fill="#63b8ff" stroke="#63b8ff" points="849.1,-198.62 839.49,-203.08 849.79,-205.58 849.1,-198.62"/>
</a>
</g>
</g>
<!-- Node27&#45;&gt;Node1 -->
<g id="edge34_Node000001_Node000027" class="edge">
<title>Node27&#45;&gt;Node1</title>
<g id="a_edge34_Node000001_Node000027"><a xlink:title=" ">
<path fill="none" stroke="#9a32cd" stroke-dasharray="5,2" d="M985.04,-265.58C945.07,-261.79 897.57,-257.3 862.12,-253.94"/>
<polygon fill="#9a32cd" stroke="#9a32cd" points="984.57,-269.05 994.86,-266.5 985.23,-262.08 984.57,-269.05"/>
</a>
</g>
<text text-anchor="middle" x="940.62" y="-265.75" font-family="Helvetica,sans-Serif" font-size="10.00" fill="grey"> m_check_db_obj</text>
</g>
</g>
</svg>
