<?xml version="1.0" encoding="UTF-8" standalone="no"?>
<!DOCTYPE svg PUBLIC "-//W3C//DTD SVG 1.1//EN"
 "http://www.w3.org/Graphics/SVG/1.1/DTD/svg11.dtd">
<!-- Generated by graphviz version 9.0.0 (20230911.1827)
 -->
<!-- Title: dunedaq::timinglibs::dal::TimingMasterController Pages: 1 -->
<svg width="166pt" height="293pt"
 viewBox="0.00 0.00 165.75 293.25" xmlns="http://www.w3.org/2000/svg" xmlns:xlink="http://www.w3.org/1999/xlink">
<g id="graph0" class="graph" transform="scale(1 1) rotate(0) translate(4 289.25)">
<title>dunedaq::timinglibs::dal::TimingMasterController</title>
<!-- Node1 -->
<g id="Node000001" class="node">
<title>Node1</title>
<g id="a_Node000001"><a xlink:title=" ">
<polygon fill="#999999" stroke="#666666" points="148,-97 9.75,-97 9.75,-66.5 148,-66.5 148,-97"/>
<text text-anchor="start" x="17.75" y="-83.5" font-family="Helvetica,sans-Serif" font-size="10.00">dunedaq::timinglibs</text>
<text text-anchor="middle" x="78.88" y="-72.25" font-family="Helvetica,sans-Serif" font-size="10.00">::dal::TimingMasterController</text>
</a>
</g>
</g>
<!-- Node5 -->
<g id="Node000005" class="node">
<title>Node5</title>
<g id="a_Node000005"><a xlink:href="classdunedaq_1_1timinglibs_1_1dal_1_1TimingMasterControllerPDII.html" target="_top" xlink:title=" ">
<polygon fill="white" stroke="#666666" points="157.75,-30.5 0,-30.5 0,0 157.75,0 157.75,-30.5"/>
<text text-anchor="start" x="8" y="-17" font-family="Helvetica,sans-Serif" font-size="10.00">dunedaq::timinglibs</text>
<text text-anchor="middle" x="78.88" y="-5.75" font-family="Helvetica,sans-Serif" font-size="10.00">::dal::TimingMasterControllerPDII</text>
</a>
</g>
</g>
<!-- Node1&#45;&gt;Node5 -->
<g id="edge7_Node000001_Node000005" class="edge">
<title>Node1&#45;&gt;Node5</title>
<g id="a_edge7_Node000001_Node000005"><a xlink:title=" ">
<path fill="none" stroke="#63b8ff" d="M72.24,-54.81C71.94,-46.64 72.23,-37.91 73.12,-30.83"/>
<polygon fill="#63b8ff" stroke="#63b8ff" points="68.74,-54.9 73,-64.6 75.72,-54.37 68.74,-54.9"/>
</a>
</g>
</g>
<!-- Node1&#45;&gt;Node5 -->
<g id="edge8_Node000001_Node000005" class="edge">
<title>Node1&#45;&gt;Node5</title>
<g id="a_edge8_Node000001_Node000005"><a xlink:title=" ">
<path fill="none" stroke="#63b8ff" d="M85.51,-54.81C85.81,-46.64 85.52,-37.91 84.63,-30.83"/>
<polygon fill="#63b8ff" stroke="#63b8ff" points="82.03,-54.37 84.75,-64.6 89.01,-54.9 82.03,-54.37"/>
</a>
</g>
</g>
<!-- Node2 -->
<g id="Node000002" class="node">
<title>Node2</title>
<g id="a_Node000002"><a xlink:href="classdunedaq_1_1timinglibs_1_1dal_1_1TimingController.html" target="_top" xlink:title=" ">
<polygon fill="white" stroke="#666666" points="133,-163.5 24.75,-163.5 24.75,-133 133,-133 133,-163.5"/>
<text text-anchor="start" x="32.75" y="-150" font-family="Helvetica,sans-Serif" font-size="10.00">dunedaq::timinglibs</text>
<text text-anchor="middle" x="78.88" y="-138.75" font-family="Helvetica,sans-Serif" font-size="10.00">::dal::TimingController</text>
</a>
</g>
</g>
<!-- Node2&#45;&gt;Node1 -->
<g id="edge1_Node000001_Node000002" class="edge">
<title>Node2&#45;&gt;Node1</title>
<g id="a_edge1_Node000001_Node000002"><a xlink:title=" ">
<path fill="none" stroke="#63b8ff" d="M72.24,-121.31C71.94,-113.14 72.23,-104.41 73.12,-97.33"/>
<polygon fill="#63b8ff" stroke="#63b8ff" points="68.74,-121.4 73,-131.1 75.72,-120.87 68.74,-121.4"/>
</a>
</g>
</g>
<!-- Node2&#45;&gt;Node1 -->
<g id="edge6_Node000001_Node000002" class="edge">
<title>Node2&#45;&gt;Node1</title>
<g id="a_edge6_Node000001_Node000002"><a xlink:title=" ">
<path fill="none" stroke="#63b8ff" d="M85.51,-121.31C85.81,-113.14 85.52,-104.41 84.63,-97.33"/>
<polygon fill="#63b8ff" stroke="#63b8ff" points="82.03,-120.87 84.75,-131.1 89.01,-121.4 82.03,-120.87"/>
</a>
</g>
</g>
<!-- Node3 -->
<g id="Node000003" class="node">
<title>Node3</title>
<g id="a_Node000003"><a xlink:href="classdunedaq_1_1confmodel_1_1DaqModule.html" target="_top" xlink:title=" ">
<polygon fill="white" stroke="#666666" points="130,-230 27.75,-230 27.75,-199.5 130,-199.5 130,-230"/>
<text text-anchor="start" x="35.75" y="-216.5" font-family="Helvetica,sans-Serif" font-size="10.00">dunedaq::confmodel</text>
<text text-anchor="middle" x="78.88" y="-205.25" font-family="Helvetica,sans-Serif" font-size="10.00">::DaqModule</text>
</a>
</g>
</g>
<!-- Node3&#45;&gt;Node2 -->
<g id="edge2_Node000002_Node000003" class="edge">
<title>Node3&#45;&gt;Node2</title>
<g id="a_edge2_Node000002_Node000003"><a xlink:title=" ">
<path fill="none" stroke="#63b8ff" d="M72.24,-187.81C71.94,-179.64 72.23,-170.91 73.12,-163.83"/>
<polygon fill="#63b8ff" stroke="#63b8ff" points="68.74,-187.9 73,-197.6 75.72,-187.37 68.74,-187.9"/>
</a>
</g>
</g>
<!-- Node3&#45;&gt;Node2 -->
<g id="edge5_Node000002_Node000003" class="edge">
<title>Node3&#45;&gt;Node2</title>
<g id="a_edge5_Node000002_Node000003"><a xlink:title=" ">
<path fill="none" stroke="#63b8ff" d="M85.51,-187.81C85.81,-179.64 85.52,-170.91 84.63,-163.83"/>
<polygon fill="#63b8ff" stroke="#63b8ff" points="82.03,-187.37 84.75,-197.6 89.01,-187.9 82.03,-187.37"/>
</a>
</g>
</g>
<!-- Node4 -->
<g id="Node000004" class="node">
<title>Node4</title>
<g id="a_Node000004"><a xlink:href="classdunedaq_1_1conffwk_1_1DalObject.html" target="_top" xlink:title="The base class for any generated DAL object.">
<polygon fill="white" stroke="#666666" points="148,-285.25 9.75,-285.25 9.75,-266 148,-266 148,-285.25"/>
<text text-anchor="middle" x="78.88" y="-271.75" font-family="Helvetica,sans-Serif" font-size="10.00">dunedaq::conffwk::DalObject</text>
</a>
</g>
</g>
<!-- Node4&#45;&gt;Node3 -->
<g id="edge3_Node000003_Node000004" class="edge">
<title>Node4&#45;&gt;Node3</title>
<g id="a_edge3_Node000003_Node000004"><a xlink:title=" ">
<path fill="none" stroke="#63b8ff" d="M72.43,-254.42C71.89,-246.49 72.07,-237.56 72.96,-230.28"/>
<polygon fill="#63b8ff" stroke="#63b8ff" points="68.94,-254.7 73.67,-264.18 75.88,-253.82 68.94,-254.7"/>
</a>
</g>
</g>
<!-- Node4&#45;&gt;Node3 -->
<g id="edge4_Node000003_Node000004" class="edge">
<title>Node4&#45;&gt;Node3</title>
<g id="a_edge4_Node000003_Node000004"><a xlink:title=" ">
<path fill="none" stroke="#63b8ff" d="M85.32,-254.42C85.86,-246.49 85.68,-237.56 84.79,-230.28"/>
<polygon fill="#63b8ff" stroke="#63b8ff" points="81.87,-253.82 84.08,-264.18 88.81,-254.7 81.87,-253.82"/>
</a>
</g>
</g>
</g>
</svg>
