<?xml version="1.0" encoding="UTF-8" standalone="no"?>
<!DOCTYPE svg PUBLIC "-//W3C//DTD SVG 1.1//EN"
 "http://www.w3.org/Graphics/SVG/1.1/DTD/svg11.dtd">
<!-- Generated by graphviz version 9.0.0 (20230911.1827)
 -->
<!-- Title: dunedaq::fddetdataformats::DAPHNEStreamFrame Pages: 1 -->
<svg width="384pt" height="137pt"
 viewBox="0.00 0.00 384.25 136.50" xmlns="http://www.w3.org/2000/svg" xmlns:xlink="http://www.w3.org/1999/xlink">
<g id="graph0" class="graph" transform="scale(1 1) rotate(0) translate(4 132.5)">
<title>dunedaq::fddetdataformats::DAPHNEStreamFrame</title>
<!-- Node1 -->
<g id="Node000001" class="node">
<title>Node1</title>
<g id="a_Node000001"><a xlink:title=" ">
<polygon fill="#999999" stroke="#666666" points="376.25,-79.5 245.5,-79.5 245.5,-49 376.25,-49 376.25,-79.5"/>
<text text-anchor="start" x="253.5" y="-66" font-family="Helvetica,sans-Serif" font-size="10.00">dunedaq::fddetdataformats</text>
<text text-anchor="middle" x="310.88" y="-54.75" font-family="Helvetica,sans-Serif" font-size="10.00">::DAPHNEStreamFrame</text>
</a>
</g>
</g>
<!-- Node2 -->
<g id="Node000002" class="node">
<title>Node2</title>
<g id="a_Node000002"><a xlink:href="structdunedaq_1_1detdataformats_1_1DAQHeader.html" target="_top" xlink:title="DAQHeader is a versioned and unified structure for every FE electronics.">
<polygon fill="white" stroke="#666666" points="139.75,-128.5 17.25,-128.5 17.25,-98 139.75,-98 139.75,-128.5"/>
<text text-anchor="start" x="25.25" y="-115" font-family="Helvetica,sans-Serif" font-size="10.00">dunedaq::detdataformats</text>
<text text-anchor="middle" x="78.5" y="-103.75" font-family="Helvetica,sans-Serif" font-size="10.00">::DAQHeader</text>
</a>
</g>
</g>
<!-- Node2&#45;&gt;Node1 -->
<g id="edge1_Node000001_Node000002" class="edge">
<title>Node2&#45;&gt;Node1</title>
<g id="a_edge1_Node000001_Node000002"><a xlink:title=" ">
<path fill="none" stroke="#9a32cd" stroke-dasharray="5,2" d="M150.91,-98.06C181.07,-91.65 215.94,-84.23 245.31,-77.98"/>
<polygon fill="#9a32cd" stroke="#9a32cd" points="150.56,-94.56 141.51,-100.06 152.02,-101.4 150.56,-94.56"/>
</a>
</g>
<text text-anchor="middle" x="201.25" y="-93" font-family="Helvetica,sans-Serif" font-size="10.00" fill="grey"> daq_header</text>
</g>
<!-- Node3 -->
<g id="Node000003" class="node">
<title>Node3</title>
<g id="a_Node000003"><a xlink:href="structdunedaq_1_1fddetdataformats_1_1DAPHNEStreamFrame_1_1Header.html" target="_top" xlink:title=" ">
<polygon fill="white" stroke="#666666" points="157,-79.5 0,-79.5 0,-49 157,-49 157,-79.5"/>
<text text-anchor="start" x="8" y="-66" font-family="Helvetica,sans-Serif" font-size="10.00">dunedaq::fddetdataformats</text>
<text text-anchor="middle" x="78.5" y="-54.75" font-family="Helvetica,sans-Serif" font-size="10.00">::DAPHNEStreamFrame::Header</text>
</a>
</g>
</g>
<!-- Node3&#45;&gt;Node1 -->
<g id="edge2_Node000001_Node000003" class="edge">
<title>Node3&#45;&gt;Node1</title>
<g id="a_edge2_Node000001_Node000003"><a xlink:title=" ">
<path fill="none" stroke="#9a32cd" stroke-dasharray="5,2" d="M168.7,-64.25C194.26,-64.25 221.61,-64.25 245.37,-64.25"/>
<polygon fill="#9a32cd" stroke="#9a32cd" points="169.01,-60.75 159.01,-64.25 169.01,-67.75 169.01,-60.75"/>
</a>
</g>
<text text-anchor="middle" x="201.25" y="-66" font-family="Helvetica,sans-Serif" font-size="10.00" fill="grey"> header</text>
</g>
<!-- Node4 -->
<g id="Node000004" class="node">
<title>Node4</title>
<g id="a_Node000004"><a xlink:href="structdunedaq_1_1fddetdataformats_1_1DAPHNEStreamFrame_1_1Trailer.html" target="_top" xlink:title=" ">
<polygon fill="white" stroke="#666666" points="154.75,-30.5 2.25,-30.5 2.25,0 154.75,0 154.75,-30.5"/>
<text text-anchor="start" x="10.25" y="-17" font-family="Helvetica,sans-Serif" font-size="10.00">dunedaq::fddetdataformats</text>
<text text-anchor="middle" x="78.5" y="-5.75" font-family="Helvetica,sans-Serif" font-size="10.00">::DAPHNEStreamFrame::Trailer</text>
</a>
</g>
</g>
<!-- Node4&#45;&gt;Node1 -->
<g id="edge3_Node000001_Node000004" class="edge">
<title>Node4&#45;&gt;Node1</title>
<g id="a_edge3_Node000001_Node000004"><a xlink:title=" ">
<path fill="none" stroke="#9a32cd" stroke-dasharray="5,2" d="M164.27,-33.28C191.07,-38.98 220.23,-45.18 245.38,-50.53"/>
<polygon fill="#9a32cd" stroke="#9a32cd" points="165.33,-29.93 154.82,-31.27 163.88,-36.77 165.33,-29.93"/>
</a>
</g>
<text text-anchor="middle" x="201.25" y="-48" font-family="Helvetica,sans-Serif" font-size="10.00" fill="grey"> trailer</text>
</g>
</g>
</svg>
