<?xml version="1.0" encoding="UTF-8" standalone="no"?>
<!DOCTYPE svg PUBLIC "-//W3C//DTD SVG 1.1//EN"
 "http://www.w3.org/Graphics/SVG/1.1/DTD/svg11.dtd">
<!-- Generated by graphviz version 9.0.0 (20230911.1827)
 -->
<!-- Title: dunedaq::datahandlinglibs::FixedRateQueueModel&lt; T &gt; Pages: 1 -->
<svg width="286pt" height="453pt"
 viewBox="0.00 0.00 285.62 452.75" xmlns="http://www.w3.org/2000/svg" xmlns:xlink="http://www.w3.org/1999/xlink">
<g id="graph0" class="graph" transform="scale(1 1) rotate(0) translate(4 448.75)">
<title>dunedaq::datahandlinglibs::FixedRateQueueModel&lt; T &gt;</title>
<!-- Node1 -->
<g id="Node000001" class="node">
<title>Node1</title>
<g id="a_Node000001"><a xlink:title=" ">
<polygon fill="#999999" stroke="#666666" points="208.88,-30.5 67.62,-30.5 67.62,0 208.88,0 208.88,-30.5"/>
<text text-anchor="start" x="75.62" y="-17" font-family="Helvetica,sans-Serif" font-size="10.00">dunedaq::datahandlinglibs</text>
<text text-anchor="middle" x="138.25" y="-5.75" font-family="Helvetica,sans-Serif" font-size="10.00">::FixedRateQueueModel&lt; T &gt;</text>
</a>
</g>
</g>
<!-- Node2 -->
<g id="Node000002" class="node">
<title>Node2</title>
<g id="a_Node000002"><a xlink:href="classdunedaq_1_1datahandlinglibs_1_1BinarySearchQueueModel.html" target="_top" xlink:title=" ">
<polygon fill="white" stroke="#666666" points="216,-98 60.5,-98 60.5,-67.5 216,-67.5 216,-98"/>
<text text-anchor="start" x="68.5" y="-84.5" font-family="Helvetica,sans-Serif" font-size="10.00">dunedaq::datahandlinglibs</text>
<text text-anchor="middle" x="138.25" y="-73.25" font-family="Helvetica,sans-Serif" font-size="10.00">::BinarySearchQueueModel&lt; T &gt;</text>
</a>
</g>
</g>
<!-- Node2&#45;&gt;Node1 -->
<g id="edge1_Node000001_Node000002" class="edge">
<title>Node2&#45;&gt;Node1</title>
<g id="a_edge1_Node000001_Node000002"><a xlink:title=" ">
<path fill="none" stroke="#63b8ff" d="M138.25,-55.84C138.25,-47.3 138.25,-38.12 138.25,-30.75"/>
<polygon fill="#63b8ff" stroke="#63b8ff" points="134.75,-55.7 138.25,-65.7 141.75,-55.7 134.75,-55.7"/>
</a>
</g>
</g>
<!-- Node3 -->
<g id="Node000003" class="node">
<title>Node3</title>
<g id="a_Node000003"><a xlink:href="structdunedaq_1_1datahandlinglibs_1_1IterableQueueModel.html" target="_top" xlink:title=" ">
<polygon fill="white" stroke="#666666" points="203.25,-165.5 73.25,-165.5 73.25,-135 203.25,-135 203.25,-165.5"/>
<text text-anchor="start" x="81.25" y="-152" font-family="Helvetica,sans-Serif" font-size="10.00">dunedaq::datahandlinglibs</text>
<text text-anchor="middle" x="138.25" y="-140.75" font-family="Helvetica,sans-Serif" font-size="10.00">::IterableQueueModel&lt; T &gt;</text>
</a>
</g>
</g>
<!-- Node3&#45;&gt;Node2 -->
<g id="edge2_Node000002_Node000003" class="edge">
<title>Node3&#45;&gt;Node2</title>
<g id="a_edge2_Node000002_Node000003"><a xlink:title=" ">
<path fill="none" stroke="#63b8ff" d="M138.25,-123.34C138.25,-114.8 138.25,-105.62 138.25,-98.25"/>
<polygon fill="#63b8ff" stroke="#63b8ff" points="134.75,-123.2 138.25,-133.2 141.75,-123.2 134.75,-123.2"/>
</a>
</g>
</g>
<!-- Node4 -->
<g id="Node000004" class="node">
<title>Node4</title>
<g id="a_Node000004"><a xlink:href="classdunedaq_1_1datahandlinglibs_1_1LatencyBufferConcept.html" target="_top" xlink:title=" ">
<polygon fill="white" stroke="#666666" points="207.75,-233 68.75,-233 68.75,-202.5 207.75,-202.5 207.75,-233"/>
<text text-anchor="start" x="76.75" y="-219.5" font-family="Helvetica,sans-Serif" font-size="10.00">dunedaq::datahandlinglibs</text>
<text text-anchor="middle" x="138.25" y="-208.25" font-family="Helvetica,sans-Serif" font-size="10.00">::LatencyBufferConcept&lt; T &gt;</text>
</a>
</g>
</g>
<!-- Node4&#45;&gt;Node3 -->
<g id="edge3_Node000003_Node000004" class="edge">
<title>Node4&#45;&gt;Node3</title>
<g id="a_edge3_Node000003_Node000004"><a xlink:title=" ">
<path fill="none" stroke="#63b8ff" d="M138.25,-190.84C138.25,-182.3 138.25,-173.12 138.25,-165.75"/>
<polygon fill="#63b8ff" stroke="#63b8ff" points="134.75,-190.7 138.25,-200.7 141.75,-190.7 134.75,-190.7"/>
</a>
</g>
</g>
<!-- Node5 -->
<g id="Node000005" class="node">
<title>Node5</title>
<g id="a_Node000005"><a xlink:href="classdunedaq_1_1opmonlib_1_1MonitorableObject.html" target="_top" xlink:title=" ">
<polygon fill="white" stroke="#666666" points="188.62,-300.5 87.88,-300.5 87.88,-270 188.62,-270 188.62,-300.5"/>
<text text-anchor="start" x="95.88" y="-287" font-family="Helvetica,sans-Serif" font-size="10.00">dunedaq::opmonlib::</text>
<text text-anchor="middle" x="138.25" y="-275.75" font-family="Helvetica,sans-Serif" font-size="10.00">MonitorableObject</text>
</a>
</g>
</g>
<!-- Node5&#45;&gt;Node4 -->
<g id="edge4_Node000004_Node000005" class="edge">
<title>Node5&#45;&gt;Node4</title>
<g id="a_edge4_Node000004_Node000005"><a xlink:title=" ">
<path fill="none" stroke="#63b8ff" d="M138.25,-258.34C138.25,-249.8 138.25,-240.62 138.25,-233.25"/>
<polygon fill="#63b8ff" stroke="#63b8ff" points="134.75,-258.2 138.25,-268.2 141.75,-258.2 134.75,-258.2"/>
</a>
</g>
</g>
<!-- Node6 -->
<g id="Node000006" class="node">
<title>Node6</title>
<g id="a_Node000006"><a xlink:href="classdunedaq_1_1opmon_1_1OpMonId.html" target="_top" xlink:title=" ">
<polygon fill="white" stroke="#666666" points="203.62,-367 72.88,-367 72.88,-347.75 203.62,-347.75 203.62,-367"/>
<text text-anchor="middle" x="138.25" y="-353.5" font-family="Helvetica,sans-Serif" font-size="10.00">dunedaq::opmon::OpMonId</text>
</a>
</g>
</g>
<!-- Node6&#45;&gt;Node5 -->
<g id="edge5_Node000005_Node000006" class="edge">
<title>Node6&#45;&gt;Node5</title>
<g id="a_edge5_Node000005_Node000006"><a xlink:title=" ">
<path fill="none" stroke="#9a32cd" stroke-dasharray="5,2" d="M138.25,-336.17C138.25,-324.91 138.25,-311.14 138.25,-300.92"/>
<polygon fill="#9a32cd" stroke="#9a32cd" points="134.75,-335.98 138.25,-345.98 141.75,-335.98 134.75,-335.98"/>
</a>
</g>
<text text-anchor="middle" x="166" y="-320.25" font-family="Helvetica,sans-Serif" font-size="10.00" fill="grey"> m_parent_id</text>
</g>
<!-- Node7 -->
<g id="Node000007" class="node">
<title>Node7</title>
<g id="a_Node000007"><a xlink:title=" ">
<polygon fill="white" stroke="#666666" points="128.5,-439.12 0,-439.12 0,-419.88 128.5,-419.88 128.5,-439.12"/>
<text text-anchor="middle" x="64.25" y="-425.62" font-family="Helvetica,sans-Serif" font-size="10.00">google::protobuf::Message</text>
</a>
</g>
</g>
<!-- Node7&#45;&gt;Node6 -->
<g id="edge6_Node000006_Node000007" class="edge">
<title>Node7&#45;&gt;Node6</title>
<g id="a_edge6_Node000006_Node000007"><a xlink:title=" ">
<path fill="none" stroke="#63b8ff" d="M81.91,-411.77C96.59,-397.86 116.92,-378.59 128.72,-367.41"/>
<polygon fill="#63b8ff" stroke="#63b8ff" points="79.57,-409.16 74.72,-418.58 84.39,-414.24 79.57,-409.16"/>
</a>
</g>
</g>
<!-- Node8 -->
<g id="Node000008" class="node">
<title>Node8</title>
<g id="a_Node000008"><a xlink:href="structdunedaq_1_1opmon_1_1OpMonId_1_1Impl__.html" target="_top" xlink:title=" ">
<polygon fill="white" stroke="#666666" points="277.62,-444.75 146.88,-444.75 146.88,-414.25 277.62,-414.25 277.62,-444.75"/>
<text text-anchor="start" x="154.88" y="-431.25" font-family="Helvetica,sans-Serif" font-size="10.00">dunedaq::opmon::OpMonId</text>
<text text-anchor="middle" x="212.25" y="-420" font-family="Helvetica,sans-Serif" font-size="10.00">::Impl_</text>
</a>
</g>
</g>
<!-- Node8&#45;&gt;Node6 -->
<g id="edge7_Node000006_Node000008" class="edge">
<title>Node8&#45;&gt;Node6</title>
<g id="a_edge7_Node000006_Node000008"><a xlink:title=" ">
<path fill="none" stroke="#9a32cd" stroke-dasharray="5,2" d="M188.68,-406.16C174.69,-392.91 157.75,-376.85 147.49,-367.13"/>
<polygon fill="#9a32cd" stroke="#9a32cd" points="186.15,-408.59 195.82,-412.93 190.97,-403.51 186.15,-408.59"/>
</a>
</g>
<text text-anchor="middle" x="193.62" y="-386.75" font-family="Helvetica,sans-Serif" font-size="10.00" fill="grey"> _impl_</text>
</g>
</g>
</svg>
