<?xml version="1.0" encoding="UTF-8" standalone="no"?>
<!DOCTYPE svg PUBLIC "-//W3C//DTD SVG 1.1//EN"
 "http://www.w3.org/Graphics/SVG/1.1/DTD/svg11.dtd">
<!-- Generated by graphviz version 9.0.0 (20230911.1827)
 -->
<!-- Title: dunedaq::oks::QueryPath Pages: 1 -->
<svg width="887pt" height="528pt"
 viewBox="0.00 0.00 886.88 527.50" xmlns="http://www.w3.org/2000/svg" xmlns:xlink="http://www.w3.org/1999/xlink">
<g id="graph0" class="graph" transform="scale(1 1) rotate(0) translate(4 523.5)">
<title>dunedaq::oks::QueryPath</title>
<!-- Node1 -->
<g id="Node000001" class="node">
<title>Node1</title>
<g id="a_Node000001"><a xlink:title=" ">
<polygon fill="#999999" stroke="#666666" points="433,-335.88 309.75,-335.88 309.75,-316.62 433,-316.62 433,-335.88"/>
<text text-anchor="middle" x="371.38" y="-322.38" font-family="Helvetica,sans-Serif" font-size="10.00">dunedaq::oks::QueryPath</text>
</a>
</g>
</g>
<!-- Node2 -->
<g id="Node000002" class="node">
<title>Node2</title>
<g id="a_Node000002"><a xlink:href="classdunedaq_1_1oks_1_1OksObject.html" target="_top" xlink:title="OksObject describes instance of OksClass.">
<polygon fill="white" stroke="#666666" points="674.38,-453 550.38,-453 550.38,-433.75 674.38,-433.75 674.38,-453"/>
<text text-anchor="middle" x="612.38" y="-439.5" font-family="Helvetica,sans-Serif" font-size="10.00">dunedaq::oks::OksObject</text>
</a>
</g>
</g>
<!-- Node2&#45;&gt;Node1 -->
<g id="edge1_Node000001_Node000002" class="edge">
<title>Node2&#45;&gt;Node1</title>
<g id="a_edge1_Node000001_Node000002"><a xlink:title=" ">
<path fill="none" stroke="#9a32cd" stroke-dasharray="5,2" d="M538.82,-433.74C498.83,-428.46 456.03,-421.62 448.62,-415.75 427.42,-398.95 443.05,-379.98 425.38,-359.5 416.74,-349.5 404.2,-341.75 393.38,-336.35"/>
<polygon fill="#9a32cd" stroke="#9a32cd" points="538.12,-437.18 548.49,-434.99 539.02,-430.24 538.12,-437.18"/>
</a>
</g>
<text text-anchor="middle" x="463.75" y="-383.75" font-family="Helvetica,sans-Serif" font-size="10.00" fill="grey"> p_goal</text>
</g>
<!-- Node5 -->
<g id="Node000005" class="node">
<title>Node5</title>
<g id="a_Node000005"><a xlink:href="uniondunedaq_1_1oks_1_1OksData_1_1Data.html" target="_top" xlink:title=" ">
<polygon fill="white" stroke="#666666" points="787.25,-97 671.5,-97 671.5,-66.5 787.25,-66.5 787.25,-97"/>
<text text-anchor="start" x="679.5" y="-83.5" font-family="Helvetica,sans-Serif" font-size="10.00">dunedaq::oks::OksData</text>
<text text-anchor="middle" x="729.38" y="-72.25" font-family="Helvetica,sans-Serif" font-size="10.00">::Data</text>
</a>
</g>
</g>
<!-- Node2&#45;&gt;Node5 -->
<g id="edge16_Node000005_Node000002" class="edge">
<title>Node2&#45;&gt;Node5</title>
<g id="a_edge16_Node000005_Node000002"><a xlink:title=" ">
<path fill="none" stroke="#9a32cd" stroke-dasharray="5,2" d="M620.18,-422.76C628.46,-400.12 640.38,-361.6 640.38,-327.25 640.38,-327.25 640.38,-327.25 640.38,-175.38 640.38,-139.92 674.71,-112.77 700.72,-97.29"/>
<polygon fill="#9a32cd" stroke="#9a32cd" points="616.99,-421.3 616.69,-431.89 623.53,-423.8 616.99,-421.3"/>
</a>
</g>
<text text-anchor="middle" x="660.62" y="-239" font-family="Helvetica,sans-Serif" font-size="10.00" fill="grey"> OBJECT</text>
</g>
<!-- Node8 -->
<g id="Node000008" class="node">
<title>Node8</title>
<g id="a_Node000008"><a xlink:href="classdunedaq_1_1oks_1_1OksKernel.html" target="_top" xlink:title="Provides interface to the OKS kernel.">
<polygon fill="white" stroke="#666666" points="281,-335.88 157.75,-335.88 157.75,-316.62 281,-316.62 281,-335.88"/>
<text text-anchor="middle" x="219.38" y="-322.38" font-family="Helvetica,sans-Serif" font-size="10.00">dunedaq::oks::OksKernel</text>
</a>
</g>
</g>
<!-- Node2&#45;&gt;Node8 -->
<g id="edge12_Node000008_Node000002" class="edge">
<title>Node2&#45;&gt;Node8</title>
<g id="a_edge12_Node000008_Node000002"><a xlink:title=" ">
<path fill="none" stroke="#9a32cd" stroke-dasharray="5,2" d="M538.57,-435.88C449.43,-428.04 311.26,-415.86 311.12,-415.75 290.45,-399.41 310.11,-378.99 292.38,-359.5 282.49,-348.64 268.28,-341.24 255.01,-336.3"/>
<polygon fill="#9a32cd" stroke="#9a32cd" points="538.22,-439.36 548.49,-436.76 538.83,-432.39 538.22,-439.36"/>
</a>
</g>
<text text-anchor="start" x="310.38" y="-406.25" font-family="Helvetica,sans-Serif" font-size="10.00" fill="grey"> p_change_object_notify</text>
<text text-anchor="middle" x="365.5" y="-395" font-family="Helvetica,sans-Serif" font-size="10.00" fill="grey">_fn</text>
<text text-anchor="start" x="310.38" y="-383.75" font-family="Helvetica,sans-Serif" font-size="10.00" fill="grey">p_create_object_notify</text>
<text text-anchor="middle" x="365.5" y="-372.5" font-family="Helvetica,sans-Serif" font-size="10.00" fill="grey">_fn</text>
<text text-anchor="middle" x="365.5" y="-361.25" font-family="Helvetica,sans-Serif" font-size="10.00" fill="grey">p_delete_object_notify_fn</text>
</g>
<!-- Node3 -->
<g id="Node000003" class="node">
<title>Node3</title>
<g id="a_Node000003"><a xlink:title=" ">
<polygon fill="white" stroke="#666666" points="754.75,-519.5 714,-519.5 714,-500.25 754.75,-500.25 754.75,-519.5"/>
<text text-anchor="middle" x="734.38" y="-506" font-family="Helvetica,sans-Serif" font-size="10.00">struct</text>
</a>
</g>
</g>
<!-- Node3&#45;&gt;Node2 -->
<g id="edge2_Node000002_Node000003" class="edge">
<title>Node3&#45;&gt;Node2</title>
<g id="a_edge2_Node000002_Node000003"><a xlink:title=" ">
<path fill="none" stroke="#9a32cd" stroke-dasharray="5,2" d="M707.02,-494.42C683.28,-481.86 649.63,-464.07 629.51,-453.43"/>
<polygon fill="#9a32cd" stroke="#9a32cd" points="705.34,-497.48 715.82,-499.06 708.61,-491.29 705.34,-497.48"/>
</a>
</g>
<text text-anchor="middle" x="687.88" y="-472.75" font-family="Helvetica,sans-Serif" font-size="10.00" fill="grey"> uid</text>
</g>
<!-- Node3&#45;&gt;Node5 -->
<g id="edge19_Node000005_Node000003" class="edge">
<title>Node3&#45;&gt;Node5</title>
<g id="a_edge19_Node000005_Node000003"><a xlink:title=" ">
<path fill="none" stroke="#9a32cd" stroke-dasharray="5,2" d="M766.08,-505.77C802.23,-500.28 856.38,-485.23 856.38,-444.38 856.38,-444.38 856.38,-444.38 856.38,-175.38 856.38,-135.67 815.35,-111.18 779.93,-97.43"/>
<polygon fill="#9a32cd" stroke="#9a32cd" points="766.02,-502.25 756.57,-507.04 766.95,-509.19 766.02,-502.25"/>
</a>
</g>
<text text-anchor="middle" x="867.62" y="-283.5" font-family="Helvetica,sans-Serif" font-size="10.00" fill="grey"> UID</text>
<text text-anchor="middle" x="867.62" y="-272.25" font-family="Helvetica,sans-Serif" font-size="10.00" fill="grey">UID2</text>
</g>
<!-- Node4 -->
<g id="Node000004" class="node">
<title>Node4</title>
<g id="a_Node000004"><a xlink:href="structdunedaq_1_1oks_1_1OksData.html" target="_top" xlink:title="the structure to pass common parameters to various read() methods of OksData and OksObject class">
<polygon fill="white" stroke="#666666" points="832.25,-19.25 716.5,-19.25 716.5,0 832.25,0 832.25,-19.25"/>
<text text-anchor="middle" x="774.38" y="-5.75" font-family="Helvetica,sans-Serif" font-size="10.00">dunedaq::oks::OksData</text>
</a>
</g>
</g>
<!-- Node4&#45;&gt;Node2 -->
<g id="edge3_Node000002_Node000004" class="edge">
<title>Node4&#45;&gt;Node2</title>
<g id="a_edge3_Node000002_Node000004"><a xlink:title=" ">
<path fill="none" stroke="#9a32cd" stroke-dasharray="5,2" d="M792.53,-27.54C804.65,-40.72 818.38,-60.2 818.38,-80.75 818.38,-327.25 818.38,-327.25 818.38,-327.25 818.38,-393.83 735.37,-422.27 674.74,-434.16"/>
<polygon fill="#9a32cd" stroke="#9a32cd" points="795.16,-25.22 785.64,-20.56 790.17,-30.14 795.16,-25.22"/>
</a>
</g>
<text text-anchor="middle" x="828.88" y="-205.75" font-family="Helvetica,sans-Serif" font-size="10.00" fill="grey"> data</text>
</g>
<!-- Node5&#45;&gt;Node4 -->
<g id="edge4_Node000004_Node000005" class="edge">
<title>Node5&#45;&gt;Node4</title>
<g id="a_edge4_Node000004_Node000005"><a xlink:title=" ">
<path fill="none" stroke="#9a32cd" stroke-dasharray="5,2" d="M744.68,-56.9C752.99,-43.96 762.75,-28.73 768.76,-19.38"/>
<polygon fill="#9a32cd" stroke="#9a32cd" points="741.97,-54.64 739.52,-64.95 747.86,-58.42 741.97,-54.64"/>
</a>
</g>
<text text-anchor="middle" x="766.88" y="-39" font-family="Helvetica,sans-Serif" font-size="10.00" fill="grey"> data</text>
</g>
<!-- Node6 -->
<g id="Node000006" class="node">
<title>Node6</title>
<g id="a_Node000006"><a xlink:href="classdunedaq_1_1oks_1_1OksClass.html" target="_top" xlink:title="The OKS class.">
<polygon fill="white" stroke="#666666" points="528.5,-186 408.25,-186 408.25,-166.75 528.5,-166.75 528.5,-186"/>
<text text-anchor="middle" x="468.38" y="-172.5" font-family="Helvetica,sans-Serif" font-size="10.00">dunedaq::oks::OksClass</text>
</a>
</g>
</g>
<!-- Node6&#45;&gt;Node5 -->
<g id="edge5_Node000005_Node000006" class="edge">
<title>Node6&#45;&gt;Node5</title>
<g id="a_edge5_Node000005_Node000006"><a xlink:title=" ">
<path fill="none" stroke="#9a32cd" stroke-dasharray="5,2" d="M493.42,-160.83C517.57,-147.33 555.49,-127.49 590.38,-115 616.26,-105.73 645.84,-98.44 671.03,-93.15"/>
<polygon fill="#9a32cd" stroke="#9a32cd" points="491.95,-157.64 484.98,-165.62 495.4,-163.73 491.95,-157.64"/>
</a>
</g>
<text text-anchor="middle" x="608.38" y="-133.62" font-family="Helvetica,sans-Serif" font-size="10.00" fill="grey"> CLASS</text>
<text text-anchor="middle" x="608.38" y="-122.38" font-family="Helvetica,sans-Serif" font-size="10.00" fill="grey">class_id</text>
</g>
<!-- Node7 -->
<g id="Node000007" class="node">
<title>Node7</title>
<g id="a_Node000007"><a xlink:href="classdunedaq_1_1oks_1_1OksFile.html" target="_top" xlink:title="Provides interface to the OKS XML schema and data files.">
<polygon fill="white" stroke="#666666" points="368,-252.5 256.75,-252.5 256.75,-233.25 368,-233.25 368,-252.5"/>
<text text-anchor="middle" x="312.38" y="-239" font-family="Helvetica,sans-Serif" font-size="10.00">dunedaq::oks::OksFile</text>
</a>
</g>
</g>
<!-- Node7&#45;&gt;Node2 -->
<g id="edge20_Node000002_Node000007" class="edge">
<title>Node7&#45;&gt;Node2</title>
<g id="a_edge20_Node000002_Node000007"><a xlink:title=" ">
<path fill="none" stroke="#9a32cd" stroke-dasharray="5,2" d="M349.13,-257.01C359.12,-260.97 369.81,-265.58 379.38,-270.5 408.98,-285.72 415.18,-291.8 442.38,-311 504.24,-354.66 574.89,-411.69 601.49,-433.43"/>
<polygon fill="#9a32cd" stroke="#9a32cd" points="350.67,-253.84 340.08,-253.52 348.15,-260.38 350.67,-253.84"/>
</a>
</g>
<text text-anchor="middle" x="488.5" y="-322.38" font-family="Helvetica,sans-Serif" font-size="10.00" fill="grey"> file</text>
</g>
<!-- Node7&#45;&gt;Node6 -->
<g id="edge6_Node000006_Node000007" class="edge">
<title>Node7&#45;&gt;Node6</title>
<g id="a_edge6_Node000006_Node000007"><a xlink:title=" ">
<path fill="none" stroke="#9a32cd" stroke-dasharray="5,2" d="M344.91,-228.42C375.37,-215.83 420.04,-197.36 446.47,-186.43"/>
<polygon fill="#9a32cd" stroke="#9a32cd" points="343.7,-225.14 335.79,-232.19 346.37,-231.61 343.7,-225.14"/>
</a>
</g>
<text text-anchor="middle" x="411.75" y="-205.75" font-family="Helvetica,sans-Serif" font-size="10.00" fill="grey"> p_file</text>
</g>
<!-- Node7&#45;&gt;Node7 -->
<g id="edge7_Node000007_Node000007" class="edge">
<title>Node7&#45;&gt;Node7</title>
<g id="a_edge7_Node000007_Node000007"><a xlink:title=" ">
<path fill="none" stroke="#9a32cd" stroke-dasharray="5,2" d="M379.46,-247.2C383.55,-246.18 386,-244.73 386,-242.88 386,-239.66 378.66,-237.69 368.24,-236.96"/>
<polygon fill="#9a32cd" stroke="#9a32cd" points="379.15,-243.71 369.74,-248.58 380.13,-250.64 379.15,-243.71"/>
</a>
</g>
<text text-anchor="middle" x="417.88" y="-239" font-family="Helvetica,sans-Serif" font-size="10.00" fill="grey"> p_included_by</text>
</g>
<!-- Node7&#45;&gt;Node8 -->
<g id="edge9_Node000008_Node000007" class="edge">
<title>Node7&#45;&gt;Node8</title>
<g id="a_edge9_Node000008_Node000007"><a xlink:title=" ">
<path fill="none" stroke="#9a32cd" stroke-dasharray="5,2" d="M303.43,-262.95C298.08,-272.84 290.54,-284.57 281.38,-293 270.48,-303.02 255.89,-310.82 243.6,-316.23"/>
<polygon fill="#9a32cd" stroke="#9a32cd" points="306.46,-264.71 307.82,-254.2 300.2,-261.57 306.46,-264.71"/>
</a>
</g>
<text text-anchor="middle" x="336.62" y="-283.5" font-family="Helvetica,sans-Serif" font-size="10.00" fill="grey"> p_active_data</text>
<text text-anchor="middle" x="336.62" y="-272.25" font-family="Helvetica,sans-Serif" font-size="10.00" fill="grey">p_active_schema</text>
</g>
<!-- Node8&#45;&gt;Node6 -->
<g id="edge13_Node000006_Node000008" class="edge">
<title>Node8&#45;&gt;Node6</title>
<g id="a_edge13_Node000006_Node000008"><a xlink:title=" ">
<path fill="none" stroke="#9a32cd" stroke-dasharray="5,2" d="M209.67,-306.01C200.95,-285.67 191.82,-253.74 208.38,-233.25 232.97,-202.81 338.97,-188.19 407.8,-181.78"/>
<polygon fill="#9a32cd" stroke="#9a32cd" points="206.4,-307.27 213.8,-314.85 212.74,-304.31 206.4,-307.27"/>
</a>
</g>
<text text-anchor="middle" x="227.88" y="-239" font-family="Helvetica,sans-Serif" font-size="10.00" fill="grey"> p_kernel</text>
</g>
<!-- Node8&#45;&gt;Node7 -->
<g id="edge8_Node000007_Node000008" class="edge">
<title>Node8&#45;&gt;Node7</title>
<g id="a_edge8_Node000007_Node000008"><a xlink:title=" ">
<path fill="none" stroke="#9a32cd" stroke-dasharray="5,2" d="M223.66,-305.09C227.02,-293.63 232.79,-279.76 242.38,-270.5 250.6,-262.55 261.45,-256.92 272.13,-252.95"/>
<polygon fill="#9a32cd" stroke="#9a32cd" points="220.27,-304.23 221.25,-314.78 227.06,-305.92 220.27,-304.23"/>
</a>
</g>
<text text-anchor="middle" x="261.88" y="-277.88" font-family="Helvetica,sans-Serif" font-size="10.00" fill="grey"> p_kernel</text>
</g>
<!-- Node9 -->
<g id="Node000009" class="node">
<title>Node9</title>
<g id="a_Node000009"><a xlink:href="classdunedaq_1_1oks_1_1OksProfiler.html" target="_top" xlink:title=" ">
<polygon fill="white" stroke="#666666" points="268.12,-453 142.62,-453 142.62,-433.75 268.12,-433.75 268.12,-453"/>
<text text-anchor="middle" x="205.38" y="-439.5" font-family="Helvetica,sans-Serif" font-size="10.00">dunedaq::oks::OksProfiler</text>
</a>
</g>
</g>
<!-- Node9&#45;&gt;Node8 -->
<g id="edge10_Node000008_Node000009" class="edge">
<title>Node9&#45;&gt;Node8</title>
<g id="a_edge10_Node000008_Node000009"><a xlink:title=" ">
<path fill="none" stroke="#9a32cd" stroke-dasharray="5,2" d="M207.39,-422.53C209.15,-405.73 211.84,-381.01 214.62,-359.5 215.64,-351.64 216.97,-342.73 217.96,-336.27"/>
<polygon fill="#9a32cd" stroke="#9a32cd" points="203.94,-421.84 206.4,-432.15 210.91,-422.56 203.94,-421.84"/>
</a>
</g>
<text text-anchor="middle" x="230.75" y="-383.75" font-family="Helvetica,sans-Serif" font-size="10.00" fill="grey"> profiler</text>
</g>
<!-- Node10 -->
<g id="Node000010" class="node">
<title>Node10</title>
<g id="a_Node000010"><a xlink:href="structdunedaq_1_1oks_1_1LoadErrors.html" target="_top" xlink:title=" ">
<polygon fill="white" stroke="#666666" points="124.75,-453 0,-453 0,-433.75 124.75,-433.75 124.75,-453"/>
<text text-anchor="middle" x="62.38" y="-439.5" font-family="Helvetica,sans-Serif" font-size="10.00">dunedaq::oks::LoadErrors</text>
</a>
</g>
</g>
<!-- Node10&#45;&gt;Node8 -->
<g id="edge11_Node000008_Node000010" class="edge">
<title>Node10&#45;&gt;Node8</title>
<g id="a_edge11_Node000008_Node000010"><a xlink:title=" ">
<path fill="none" stroke="#9a32cd" stroke-dasharray="5,2" d="M76.32,-424.47C91.32,-406.17 116.68,-377.89 143.62,-359.5 158.15,-349.59 176.2,-341.76 191.04,-336.29"/>
<polygon fill="#9a32cd" stroke="#9a32cd" points="73.75,-422.08 70.23,-432.07 79.21,-426.46 73.75,-422.08"/>
</a>
</g>
<text text-anchor="middle" x="174.75" y="-383.75" font-family="Helvetica,sans-Serif" font-size="10.00" fill="grey"> p_load_errors</text>
</g>
<!-- Node11 -->
<g id="Node000011" class="node">
<title>Node11</title>
<g id="a_Node000011"><a xlink:href="classdunedaq_1_1conffwk_1_1map.html" target="_top" xlink:title=" ">
<polygon fill="white" stroke="#666666" points="604.75,-252.5 468,-252.5 468,-233.25 604.75,-233.25 604.75,-252.5"/>
<text text-anchor="middle" x="536.38" y="-239" font-family="Helvetica,sans-Serif" font-size="10.00">dunedaq::conffwk::map&lt; T &gt;</text>
</a>
</g>
</g>
<!-- Node11&#45;&gt;Node6 -->
<g id="edge14_Node000006_Node000011" class="edge">
<title>Node11&#45;&gt;Node6</title>
<g id="a_edge14_Node000006_Node000011"><a xlink:title=" ">
<path fill="none" stroke="#9a32cd" stroke-dasharray="5,2" d="M518.67,-225.08C505.58,-212.66 488.27,-196.25 477.75,-186.27"/>
<polygon fill="#9a32cd" stroke="#9a32cd" points="516.16,-227.52 525.82,-231.86 520.98,-222.44 516.16,-227.52"/>
</a>
</g>
<text text-anchor="middle" x="532.62" y="-205.75" font-family="Helvetica,sans-Serif" font-size="10.00" fill="grey"> p_data_info</text>
</g>
<!-- Node12 -->
<g id="Node000012" class="node">
<title>Node12</title>
<g id="a_Node000012"><a xlink:title=" ">
<polygon fill="white" stroke="#666666" points="612.75,-341.5 512,-341.5 512,-311 612.75,-311 612.75,-341.5"/>
<text text-anchor="start" x="520" y="-328" font-family="Helvetica,sans-Serif" font-size="10.00">std::unordered_map</text>
<text text-anchor="middle" x="562.38" y="-316.75" font-family="Helvetica,sans-Serif" font-size="10.00">&lt; std::string, T &gt;</text>
</a>
</g>
</g>
<!-- Node12&#45;&gt;Node11 -->
<g id="edge15_Node000011_Node000012" class="edge">
<title>Node12&#45;&gt;Node11</title>
<g id="a_edge15_Node000011_Node000012"><a xlink:title=" ">
<path fill="none" stroke="#63b8ff" d="M554.26,-299.84C549.12,-283.77 542.8,-263.99 539.22,-252.77"/>
<polygon fill="#63b8ff" stroke="#63b8ff" points="550.89,-300.8 557.27,-309.26 557.56,-298.67 550.89,-300.8"/>
</a>
</g>
</g>
<!-- Node13 -->
<g id="Node000013" class="node">
<title>Node13</title>
<g id="a_Node000013"><a xlink:href="classdunedaq_1_1oks_1_1OksString.html" target="_top" xlink:title="Class OKS string.">
<polygon fill="white" stroke="#666666" points="789.88,-186 668.88,-186 668.88,-166.75 789.88,-166.75 789.88,-186"/>
<text text-anchor="middle" x="729.38" y="-172.5" font-family="Helvetica,sans-Serif" font-size="10.00">dunedaq::oks::OksString</text>
</a>
</g>
</g>
<!-- Node13&#45;&gt;Node5 -->
<g id="edge17_Node000005_Node000013" class="edge">
<title>Node13&#45;&gt;Node5</title>
<g id="a_edge17_Node000005_Node000013"><a xlink:title=" ">
<path fill="none" stroke="#9a32cd" stroke-dasharray="5,2" d="M729.38,-155.04C729.38,-137.53 729.38,-112.7 729.38,-97.17"/>
<polygon fill="#9a32cd" stroke="#9a32cd" points="725.88,-154.98 729.38,-164.98 732.88,-154.98 725.88,-154.98"/>
</a>
</g>
<text text-anchor="middle" x="749.25" y="-139.25" font-family="Helvetica,sans-Serif" font-size="10.00" fill="grey"> STRING</text>
<text text-anchor="middle" x="749.25" y="-128" font-family="Helvetica,sans-Serif" font-size="10.00" fill="grey">class_id</text>
<text text-anchor="middle" x="749.25" y="-116.75" font-family="Helvetica,sans-Serif" font-size="10.00" fill="grey">object_id</text>
</g>
<!-- Node14 -->
<g id="Node000014" class="node">
<title>Node14</title>
<g id="a_Node000014"><a xlink:title=" ">
<polygon fill="white" stroke="#666666" points="758.38,-252.5 700.38,-252.5 700.38,-233.25 758.38,-233.25 758.38,-252.5"/>
<text text-anchor="middle" x="729.38" y="-239" font-family="Helvetica,sans-Serif" font-size="10.00">std::string</text>
</a>
</g>
</g>
<!-- Node14&#45;&gt;Node13 -->
<g id="edge18_Node000013_Node000014" class="edge">
<title>Node14&#45;&gt;Node13</title>
<g id="a_edge18_Node000013_Node000014"><a xlink:title=" ">
<path fill="none" stroke="#63b8ff" d="M729.38,-221.4C729.38,-209.57 729.38,-195.29 729.38,-186.27"/>
<polygon fill="#63b8ff" stroke="#63b8ff" points="725.88,-221.39 729.38,-231.39 732.88,-221.39 725.88,-221.39"/>
</a>
</g>
</g>
<!-- Node15 -->
<g id="Node000015" class="node">
<title>Node15</title>
<g id="a_Node000015"><a xlink:href="classdunedaq_1_1oks_1_1QueryPathExpression.html" target="_top" xlink:title=" ">
<polygon fill="white" stroke="#666666" points="456.62,-453 286.12,-453 286.12,-433.75 456.62,-433.75 456.62,-453"/>
<text text-anchor="middle" x="371.38" y="-439.5" font-family="Helvetica,sans-Serif" font-size="10.00">dunedaq::oks::QueryPathExpression</text>
</a>
</g>
</g>
<!-- Node15&#45;&gt;Node1 -->
<g id="edge21_Node000001_Node000015" class="edge">
<title>Node15&#45;&gt;Node1</title>
<g id="a_edge21_Node000001_Node000015"><a xlink:title=" ">
<path fill="none" stroke="#9a32cd" stroke-dasharray="5,2" d="M292.92,-430.77C277.76,-426.93 265.05,-421.99 260.12,-415.75 244.64,-396.12 245.11,-379.49 260.12,-359.5 267.55,-349.61 293.53,-341.78 318.51,-336.31"/>
<polygon fill="#9a32cd" stroke="#9a32cd" points="291.73,-434.09 302.26,-432.92 293.3,-427.27 291.73,-434.09"/>
</a>
</g>
<text text-anchor="middle" x="275.5" y="-383.75" font-family="Helvetica,sans-Serif" font-size="10.00" fill="grey"> p_start</text>
</g>
<!-- Node15&#45;&gt;Node15 -->
<g id="edge22_Node000015_Node000015" class="edge">
<title>Node15&#45;&gt;Node15</title>
<g id="a_edge22_Node000015_Node000015"><a xlink:title=" ">
<path fill="none" stroke="#9a32cd" stroke-dasharray="5,2" d="M468.2,-447.14C472.26,-446.17 474.62,-444.91 474.62,-443.38 474.62,-440.71 467.56,-438.9 456.83,-437.95"/>
<polygon fill="#9a32cd" stroke="#9a32cd" points="467.72,-443.67 458.33,-448.58 468.73,-450.6 467.72,-443.67"/>
</a>
</g>
<text text-anchor="middle" x="490" y="-439.5" font-family="Helvetica,sans-Serif" font-size="10.00" fill="grey"> p_next</text>
</g>
</g>
</svg>
