<?xml version="1.0" encoding="UTF-8" standalone="no"?>
<!DOCTYPE svg PUBLIC "-//W3C//DTD SVG 1.1//EN"
 "http://www.w3.org/Graphics/SVG/1.1/DTD/svg11.dtd">
<!-- Generated by graphviz version 9.0.0 (20230911.1827)
 -->
<!-- Title: dunedaq::confmodel::DetDataReceiver Pages: 1 -->
<svg width="981pt" height="137pt"
 viewBox="0.00 0.00 981.00 136.50" xmlns="http://www.w3.org/2000/svg" xmlns:xlink="http://www.w3.org/1999/xlink">
<g id="graph0" class="graph" transform="scale(1 1) rotate(0) translate(4 132.5)">
<title>dunedaq::confmodel::DetDataReceiver</title>
<!-- Node1 -->
<g id="Node000001" class="node">
<title>Node1</title>
<g id="a_Node000001"><a xlink:title=" ">
<polygon fill="#999999" stroke="#666666" points="691.25,-79.5 589,-79.5 589,-49 691.25,-49 691.25,-79.5"/>
<text text-anchor="start" x="597" y="-66" font-family="Helvetica,sans-Serif" font-size="10.00">dunedaq::confmodel</text>
<text text-anchor="middle" x="640.12" y="-54.75" font-family="Helvetica,sans-Serif" font-size="10.00">::DetDataReceiver</text>
</a>
</g>
</g>
<!-- Node6 -->
<g id="Node000006" class="node">
<title>Node6</title>
<g id="a_Node000006"><a xlink:href="classdunedaq_1_1appmodel_1_1FakeDataReceiver.html" target="_top" xlink:title=" ">
<polygon fill="white" stroke="#666666" points="832.12,-128.5 728.38,-128.5 728.38,-98 832.12,-98 832.12,-128.5"/>
<text text-anchor="start" x="736.38" y="-115" font-family="Helvetica,sans-Serif" font-size="10.00">dunedaq::appmodel::</text>
<text text-anchor="middle" x="780.25" y="-103.75" font-family="Helvetica,sans-Serif" font-size="10.00">FakeDataReceiver</text>
</a>
</g>
</g>
<!-- Node1&#45;&gt;Node6 -->
<g id="edge9_Node000001_Node000006" class="edge">
<title>Node1&#45;&gt;Node6</title>
<g id="a_edge9_Node000001_Node000006"><a xlink:title=" ">
<path fill="none" stroke="#63b8ff" d="M701.89,-79.1C718.96,-84.98 736.73,-91.66 750.92,-97.63"/>
<polygon fill="#63b8ff" stroke="#63b8ff" points="703.41,-75.92 692.82,-76.04 701.17,-82.55 703.41,-75.92"/>
</a>
</g>
</g>
<!-- Node1&#45;&gt;Node6 -->
<g id="edge10_Node000001_Node000006" class="edge">
<title>Node1&#45;&gt;Node6</title>
<g id="a_edge10_Node000001_Node000006"><a xlink:title=" ">
<path fill="none" stroke="#63b8ff" d="M680.12,-84.23C695,-90.15 712.2,-96.38 728.05,-101.63"/>
<polygon fill="#63b8ff" stroke="#63b8ff" points="681.73,-81.11 671.15,-80.57 679.08,-87.59 681.73,-81.11"/>
</a>
</g>
</g>
<!-- Node7 -->
<g id="Node000007" class="node">
<title>Node7</title>
<g id="a_Node000007"><a xlink:href="classdunedaq_1_1appmodel_1_1FelixInterface.html" target="_top" xlink:title=" ">
<polygon fill="white" stroke="#666666" points="832.12,-79.5 728.38,-79.5 728.38,-49 832.12,-49 832.12,-79.5"/>
<text text-anchor="start" x="736.38" y="-66" font-family="Helvetica,sans-Serif" font-size="10.00">dunedaq::appmodel::</text>
<text text-anchor="middle" x="780.25" y="-54.75" font-family="Helvetica,sans-Serif" font-size="10.00">FelixInterface</text>
</a>
</g>
</g>
<!-- Node1&#45;&gt;Node7 -->
<g id="edge11_Node000001_Node000007" class="edge">
<title>Node1&#45;&gt;Node7</title>
<g id="a_edge11_Node000001_Node000007"><a xlink:title=" ">
<path fill="none" stroke="#63b8ff" d="M702.86,-57.53C711.37,-57.45 720.04,-57.51 728.34,-57.71"/>
<polygon fill="#63b8ff" stroke="#63b8ff" points="702.83,-54.03 692.9,-57.7 702.95,-61.03 702.83,-54.03"/>
</a>
</g>
</g>
<!-- Node1&#45;&gt;Node7 -->
<g id="edge12_Node000001_Node000007" class="edge">
<title>Node1&#45;&gt;Node7</title>
<g id="a_edge12_Node000001_Node000007"><a xlink:title=" ">
<path fill="none" stroke="#63b8ff" d="M702.86,-70.97C711.37,-71.05 720.04,-70.99 728.34,-70.79"/>
<polygon fill="#63b8ff" stroke="#63b8ff" points="702.95,-67.47 692.9,-70.8 702.83,-74.47 702.95,-67.47"/>
</a>
</g>
</g>
<!-- Node8 -->
<g id="Node000008" class="node">
<title>Node8</title>
<g id="a_Node000008"><a xlink:href="classdunedaq_1_1appmodel_1_1NWDetDataReceiver.html" target="_top" xlink:title=" ">
<polygon fill="white" stroke="#666666" points="833.25,-30.5 727.25,-30.5 727.25,0 833.25,0 833.25,-30.5"/>
<text text-anchor="start" x="735.25" y="-17" font-family="Helvetica,sans-Serif" font-size="10.00">dunedaq::appmodel::</text>
<text text-anchor="middle" x="780.25" y="-5.75" font-family="Helvetica,sans-Serif" font-size="10.00">NWDetDataReceiver</text>
</a>
</g>
</g>
<!-- Node1&#45;&gt;Node8 -->
<g id="edge13_Node000001_Node000008" class="edge">
<title>Node1&#45;&gt;Node8</title>
<g id="a_edge13_Node000001_Node000008"><a xlink:title=" ">
<path fill="none" stroke="#63b8ff" d="M680.34,-44.18C694.83,-38.43 711.48,-32.38 726.94,-27.24"/>
<polygon fill="#63b8ff" stroke="#63b8ff" points="679.08,-40.92 671.15,-47.93 681.73,-47.4 679.08,-40.92"/>
</a>
</g>
</g>
<!-- Node1&#45;&gt;Node8 -->
<g id="edge16_Node000001_Node000008" class="edge">
<title>Node1&#45;&gt;Node8</title>
<g id="a_edge16_Node000001_Node000008"><a xlink:title=" ">
<path fill="none" stroke="#63b8ff" d="M701.89,-49.4C718.96,-43.52 736.73,-36.84 750.92,-30.87"/>
<polygon fill="#63b8ff" stroke="#63b8ff" points="701.17,-45.95 692.82,-52.46 703.41,-52.58 701.17,-45.95"/>
</a>
</g>
</g>
<!-- Node2 -->
<g id="Node000002" class="node">
<title>Node2</title>
<g id="a_Node000002"><a xlink:href="classdunedaq_1_1confmodel_1_1Resource.html" target="_top" xlink:title=" ">
<polygon fill="white" stroke="#666666" points="553,-79.5 450.75,-79.5 450.75,-49 553,-49 553,-79.5"/>
<text text-anchor="start" x="458.75" y="-66" font-family="Helvetica,sans-Serif" font-size="10.00">dunedaq::confmodel</text>
<text text-anchor="middle" x="501.88" y="-54.75" font-family="Helvetica,sans-Serif" font-size="10.00">::Resource</text>
</a>
</g>
</g>
<!-- Node2&#45;&gt;Node1 -->
<g id="edge1_Node000001_Node000002" class="edge">
<title>Node2&#45;&gt;Node1</title>
<g id="a_edge1_Node000001_Node000002"><a xlink:title=" ">
<path fill="none" stroke="#63b8ff" d="M564.47,-57.53C572.52,-57.46 580.69,-57.52 588.53,-57.7"/>
<polygon fill="#63b8ff" stroke="#63b8ff" points="564.68,-54.02 554.74,-57.68 564.79,-61.02 564.68,-54.02"/>
</a>
</g>
</g>
<!-- Node2&#45;&gt;Node1 -->
<g id="edge8_Node000001_Node000002" class="edge">
<title>Node2&#45;&gt;Node1</title>
<g id="a_edge8_Node000001_Node000002"><a xlink:title=" ">
<path fill="none" stroke="#63b8ff" d="M564.47,-70.97C572.52,-71.04 580.69,-70.98 588.53,-70.8"/>
<polygon fill="#63b8ff" stroke="#63b8ff" points="564.79,-67.48 554.74,-70.82 564.68,-74.48 564.79,-67.48"/>
</a>
</g>
</g>
<!-- Node3 -->
<g id="Node000003" class="node">
<title>Node3</title>
<g id="a_Node000003"><a xlink:href="classdunedaq_1_1confmodel_1_1ResourceBase.html" target="_top" xlink:title=" ">
<polygon fill="white" stroke="#666666" points="414.75,-79.5 312.5,-79.5 312.5,-49 414.75,-49 414.75,-79.5"/>
<text text-anchor="start" x="320.5" y="-66" font-family="Helvetica,sans-Serif" font-size="10.00">dunedaq::confmodel</text>
<text text-anchor="middle" x="363.62" y="-54.75" font-family="Helvetica,sans-Serif" font-size="10.00">::ResourceBase</text>
</a>
</g>
</g>
<!-- Node3&#45;&gt;Node2 -->
<g id="edge2_Node000002_Node000003" class="edge">
<title>Node3&#45;&gt;Node2</title>
<g id="a_edge2_Node000002_Node000003"><a xlink:title=" ">
<path fill="none" stroke="#63b8ff" d="M426.22,-57.53C434.27,-57.46 442.44,-57.52 450.28,-57.7"/>
<polygon fill="#63b8ff" stroke="#63b8ff" points="426.43,-54.02 416.49,-57.68 426.54,-61.02 426.43,-54.02"/>
</a>
</g>
</g>
<!-- Node3&#45;&gt;Node2 -->
<g id="edge7_Node000002_Node000003" class="edge">
<title>Node3&#45;&gt;Node2</title>
<g id="a_edge7_Node000002_Node000003"><a xlink:title=" ">
<path fill="none" stroke="#63b8ff" d="M426.22,-70.97C434.27,-71.04 442.44,-70.98 450.28,-70.8"/>
<polygon fill="#63b8ff" stroke="#63b8ff" points="426.54,-67.48 416.49,-70.82 426.43,-74.48 426.54,-67.48"/>
</a>
</g>
</g>
<!-- Node4 -->
<g id="Node000004" class="node">
<title>Node4</title>
<g id="a_Node000004"><a xlink:href="classdunedaq_1_1confmodel_1_1Component.html" target="_top" xlink:title=" ">
<polygon fill="white" stroke="#666666" points="276.5,-79.5 174.25,-79.5 174.25,-49 276.5,-49 276.5,-79.5"/>
<text text-anchor="start" x="182.25" y="-66" font-family="Helvetica,sans-Serif" font-size="10.00">dunedaq::confmodel</text>
<text text-anchor="middle" x="225.38" y="-54.75" font-family="Helvetica,sans-Serif" font-size="10.00">::Component</text>
</a>
</g>
</g>
<!-- Node4&#45;&gt;Node3 -->
<g id="edge3_Node000003_Node000004" class="edge">
<title>Node4&#45;&gt;Node3</title>
<g id="a_edge3_Node000003_Node000004"><a xlink:title=" ">
<path fill="none" stroke="#63b8ff" d="M287.97,-57.53C296.02,-57.46 304.19,-57.52 312.03,-57.7"/>
<polygon fill="#63b8ff" stroke="#63b8ff" points="288.18,-54.02 278.24,-57.68 288.29,-61.02 288.18,-54.02"/>
</a>
</g>
</g>
<!-- Node4&#45;&gt;Node3 -->
<g id="edge6_Node000003_Node000004" class="edge">
<title>Node4&#45;&gt;Node3</title>
<g id="a_edge6_Node000003_Node000004"><a xlink:title=" ">
<path fill="none" stroke="#63b8ff" d="M287.97,-70.97C296.02,-71.04 304.19,-70.98 312.03,-70.8"/>
<polygon fill="#63b8ff" stroke="#63b8ff" points="288.29,-67.48 278.24,-70.82 288.18,-74.48 288.29,-67.48"/>
</a>
</g>
</g>
<!-- Node5 -->
<g id="Node000005" class="node">
<title>Node5</title>
<g id="a_Node000005"><a xlink:href="classdunedaq_1_1conffwk_1_1DalObject.html" target="_top" xlink:title="The base class for any generated DAL object.">
<polygon fill="white" stroke="#666666" points="138.25,-73.88 0,-73.88 0,-54.62 138.25,-54.62 138.25,-73.88"/>
<text text-anchor="middle" x="69.12" y="-60.38" font-family="Helvetica,sans-Serif" font-size="10.00">dunedaq::conffwk::DalObject</text>
</a>
</g>
</g>
<!-- Node5&#45;&gt;Node4 -->
<g id="edge4_Node000004_Node000005" class="edge">
<title>Node5&#45;&gt;Node4</title>
<g id="a_edge4_Node000004_Node000005"><a xlink:title=" ">
<path fill="none" stroke="#63b8ff" d="M150.17,-57.5C158.3,-57.53 166.39,-57.65 174.08,-57.88"/>
<polygon fill="#63b8ff" stroke="#63b8ff" points="150.18,-54 140.19,-57.53 150.2,-61 150.18,-54"/>
</a>
</g>
</g>
<!-- Node5&#45;&gt;Node4 -->
<g id="edge5_Node000004_Node000005" class="edge">
<title>Node5&#45;&gt;Node4</title>
<g id="a_edge5_Node000004_Node000005"><a xlink:title=" ">
<path fill="none" stroke="#63b8ff" d="M150.17,-71C158.3,-70.97 166.39,-70.85 174.08,-70.62"/>
<polygon fill="#63b8ff" stroke="#63b8ff" points="150.2,-67.5 140.19,-70.97 150.18,-74.5 150.2,-67.5"/>
</a>
</g>
</g>
<!-- Node9 -->
<g id="Node000009" class="node">
<title>Node9</title>
<g id="a_Node000009"><a xlink:href="classdunedaq_1_1appmodel_1_1DPDKReceiver.html" target="_top" xlink:title=" ">
<polygon fill="white" stroke="#666666" points="973,-30.5 869.25,-30.5 869.25,0 973,0 973,-30.5"/>
<text text-anchor="start" x="877.25" y="-17" font-family="Helvetica,sans-Serif" font-size="10.00">dunedaq::appmodel::</text>
<text text-anchor="middle" x="921.12" y="-5.75" font-family="Helvetica,sans-Serif" font-size="10.00">DPDKReceiver</text>
</a>
</g>
</g>
<!-- Node8&#45;&gt;Node9 -->
<g id="edge14_Node000008_Node000009" class="edge">
<title>Node8&#45;&gt;Node9</title>
<g id="a_edge14_Node000008_Node000009"><a xlink:title=" ">
<path fill="none" stroke="#63b8ff" d="M844.77,-8.52C852.92,-8.46 861.19,-8.53 869.11,-8.72"/>
<polygon fill="#63b8ff" stroke="#63b8ff" points="844.82,-5.02 834.87,-8.67 844.92,-12.02 844.82,-5.02"/>
</a>
</g>
</g>
<!-- Node8&#45;&gt;Node9 -->
<g id="edge15_Node000008_Node000009" class="edge">
<title>Node8&#45;&gt;Node9</title>
<g id="a_edge15_Node000008_Node000009"><a xlink:title=" ">
<path fill="none" stroke="#63b8ff" d="M844.77,-21.98C852.92,-22.04 861.19,-21.97 869.11,-21.78"/>
<polygon fill="#63b8ff" stroke="#63b8ff" points="844.92,-18.48 834.87,-21.83 844.82,-25.48 844.92,-18.48"/>
</a>
</g>
</g>
</g>
</svg>
