<?xml version="1.0" encoding="UTF-8" standalone="no"?>
<!DOCTYPE svg PUBLIC "-//W3C//DTD SVG 1.1//EN"
 "http://www.w3.org/Graphics/SVG/1.1/DTD/svg11.dtd">
<!-- Generated by graphviz version 9.0.0 (20230911.1827)
 -->
<!-- Title: dunedaq::appmodel::DFApplication Pages: 1 -->
<svg width="2429pt" height="395pt"
 viewBox="0.00 0.00 2429.25 394.50" xmlns="http://www.w3.org/2000/svg" xmlns:xlink="http://www.w3.org/1999/xlink">
<g id="graph0" class="graph" transform="scale(1 1) rotate(0) translate(4 390.5)">
<title>dunedaq::appmodel::DFApplication</title>
<!-- Node1 -->
<g id="Node000001" class="node">
<title>Node1</title>
<g id="a_Node000001"><a xlink:title=" ">
<polygon fill="#999999" stroke="#666666" points="2421.25,-278.5 2317.5,-278.5 2317.5,-248 2421.25,-248 2421.25,-278.5"/>
<text text-anchor="start" x="2325.5" y="-265" font-family="Helvetica,sans-Serif" font-size="10.00">dunedaq::appmodel::</text>
<text text-anchor="middle" x="2369.38" y="-253.75" font-family="Helvetica,sans-Serif" font-size="10.00">DFApplication</text>
</a>
</g>
</g>
<!-- Node2 -->
<g id="Node000002" class="node">
<title>Node2</title>
<g id="a_Node000002"><a xlink:href="classdunedaq_1_1confmodel_1_1Resource.html" target="_top" xlink:title=" ">
<polygon fill="white" stroke="#666666" points="2155,-367.5 2052.75,-367.5 2052.75,-337 2155,-337 2155,-367.5"/>
<text text-anchor="start" x="2060.75" y="-354" font-family="Helvetica,sans-Serif" font-size="10.00">dunedaq::confmodel</text>
<text text-anchor="middle" x="2103.88" y="-342.75" font-family="Helvetica,sans-Serif" font-size="10.00">::Resource</text>
</a>
</g>
</g>
<!-- Node2&#45;&gt;Node1 -->
<g id="edge1_Node000001_Node000002" class="edge">
<title>Node2&#45;&gt;Node1</title>
<g id="a_edge1_Node000001_Node000002"><a xlink:title=" ">
<path fill="none" stroke="#63b8ff" d="M2148.34,-332.41C2194.78,-314.71 2268.34,-289.76 2317.46,-274.98"/>
<polygon fill="#63b8ff" stroke="#63b8ff" points="2147.19,-329.1 2139.13,-335.97 2149.72,-335.63 2147.19,-329.1"/>
</a>
</g>
</g>
<!-- Node2&#45;&gt;Node1 -->
<g id="edge41_Node000001_Node000002" class="edge">
<title>Node2&#45;&gt;Node1</title>
<g id="a_edge41_Node000001_Node000002"><a xlink:title=" ">
<path fill="none" stroke="#63b8ff" d="M2166.3,-337.31C2219.13,-321.03 2293.31,-295.59 2335.54,-278.99"/>
<polygon fill="#63b8ff" stroke="#63b8ff" points="2165.36,-333.94 2156.82,-340.2 2167.4,-340.64 2165.36,-333.94"/>
</a>
</g>
</g>
<!-- Node3 -->
<g id="Node000003" class="node">
<title>Node3</title>
<g id="a_Node000003"><a xlink:href="classdunedaq_1_1confmodel_1_1ResourceBase.html" target="_top" xlink:title=" ">
<polygon fill="white" stroke="#666666" points="1838.75,-386.5 1736.5,-386.5 1736.5,-356 1838.75,-356 1838.75,-386.5"/>
<text text-anchor="start" x="1744.5" y="-373" font-family="Helvetica,sans-Serif" font-size="10.00">dunedaq::confmodel</text>
<text text-anchor="middle" x="1787.62" y="-361.75" font-family="Helvetica,sans-Serif" font-size="10.00">::ResourceBase</text>
</a>
</g>
</g>
<!-- Node3&#45;&gt;Node2 -->
<g id="edge2_Node000002_Node000003" class="edge">
<title>Node3&#45;&gt;Node2</title>
<g id="a_edge2_Node000002_Node000003"><a xlink:title=" ">
<path fill="none" stroke="#63b8ff" d="M1850.51,-362.01C1909.52,-356.66 1997.3,-351.47 2052.25,-350.19"/>
<polygon fill="#63b8ff" stroke="#63b8ff" points="1850.25,-358.52 1840.62,-362.94 1850.91,-365.49 1850.25,-358.52"/>
</a>
</g>
</g>
<!-- Node3&#45;&gt;Node2 -->
<g id="edge23_Node000002_Node000003" class="edge">
<title>Node3&#45;&gt;Node2</title>
<g id="a_edge23_Node000002_Node000003"><a xlink:title=" ">
<path fill="none" stroke="#63b8ff" d="M1850.51,-373.01C1909.52,-371.23 1997.3,-365.79 2052.25,-360.43"/>
<polygon fill="#63b8ff" stroke="#63b8ff" points="1850.53,-369.5 1840.63,-373.27 1850.72,-376.5 1850.53,-369.5"/>
</a>
</g>
</g>
<!-- Node4 -->
<g id="Node000004" class="node">
<title>Node4</title>
<g id="a_Node000004"><a xlink:href="classdunedaq_1_1confmodel_1_1Component.html" target="_top" xlink:title=" ">
<polygon fill="white" stroke="#666666" points="1649.5,-386.5 1547.25,-386.5 1547.25,-356 1649.5,-356 1649.5,-386.5"/>
<text text-anchor="start" x="1555.25" y="-373" font-family="Helvetica,sans-Serif" font-size="10.00">dunedaq::confmodel</text>
<text text-anchor="middle" x="1598.38" y="-361.75" font-family="Helvetica,sans-Serif" font-size="10.00">::Component</text>
</a>
</g>
</g>
<!-- Node4&#45;&gt;Node3 -->
<g id="edge3_Node000003_Node000004" class="edge">
<title>Node4&#45;&gt;Node3</title>
<g id="a_edge3_Node000003_Node000004"><a xlink:title=" ">
<path fill="none" stroke="#63b8ff" d="M1660.89,-364.87C1685.33,-364.29 1713.1,-364.39 1736.31,-365.19"/>
<polygon fill="#63b8ff" stroke="#63b8ff" points="1660.96,-361.36 1651.07,-365.15 1661.16,-368.36 1660.96,-361.36"/>
</a>
</g>
</g>
<!-- Node4&#45;&gt;Node3 -->
<g id="edge22_Node000003_Node000004" class="edge">
<title>Node4&#45;&gt;Node3</title>
<g id="a_edge22_Node000003_Node000004"><a xlink:title=" ">
<path fill="none" stroke="#63b8ff" d="M1660.89,-377.63C1685.33,-378.21 1713.1,-378.11 1736.31,-377.31"/>
<polygon fill="#63b8ff" stroke="#63b8ff" points="1661.16,-374.14 1651.07,-377.35 1660.96,-381.14 1661.16,-374.14"/>
</a>
</g>
</g>
<!-- Node5 -->
<g id="Node000005" class="node">
<title>Node5</title>
<g id="a_Node000005"><a xlink:href="classdunedaq_1_1conffwk_1_1DalObject.html" target="_top" xlink:title="The base class for any generated DAL object.">
<polygon fill="white" stroke="#666666" points="1509.5,-196.88 1371.25,-196.88 1371.25,-177.62 1509.5,-177.62 1509.5,-196.88"/>
<text text-anchor="middle" x="1440.38" y="-183.38" font-family="Helvetica,sans-Serif" font-size="10.00">dunedaq::conffwk::DalObject</text>
</a>
</g>
</g>
<!-- Node5&#45;&gt;Node4 -->
<g id="edge4_Node000004_Node000005" class="edge">
<title>Node5&#45;&gt;Node4</title>
<g id="a_edge4_Node000004_Node000005"><a xlink:title=" ">
<path fill="none" stroke="#63b8ff" d="M1449.96,-207.73C1462.17,-238.94 1487.58,-297.63 1527.5,-333.25 1538.77,-343.31 1554.02,-350.18 1567.39,-355.52"/>
<polygon fill="#63b8ff" stroke="#63b8ff" points="1453.32,-206.72 1446.47,-198.63 1446.79,-209.22 1453.32,-206.72"/>
</a>
</g>
</g>
<!-- Node5&#45;&gt;Node4 -->
<g id="edge21_Node000004_Node000005" class="edge">
<title>Node5&#45;&gt;Node4</title>
<g id="a_edge21_Node000004_Node000005"><a xlink:title=" ">
<path fill="none" stroke="#63b8ff" d="M1446.22,-208.15C1456.42,-242.9 1482.91,-311.47 1527.5,-351.25 1533.18,-356.32 1539.88,-360.58 1546.84,-364.04"/>
<polygon fill="#63b8ff" stroke="#63b8ff" points="1449.69,-207.56 1443.69,-198.83 1442.94,-209.4 1449.69,-207.56"/>
</a>
</g>
</g>
<!-- Node21 -->
<g id="Node000021" class="node">
<title>Node21</title>
<g id="a_Node000021"><a xlink:href="classdunedaq_1_1confmodel_1_1Application.html" target="_top" xlink:title=" ">
<polygon fill="white" stroke="#666666" points="2034.75,-278.5 1932.5,-278.5 1932.5,-248 2034.75,-248 2034.75,-278.5"/>
<text text-anchor="start" x="1940.5" y="-265" font-family="Helvetica,sans-Serif" font-size="10.00">dunedaq::confmodel</text>
<text text-anchor="middle" x="1983.62" y="-253.75" font-family="Helvetica,sans-Serif" font-size="10.00">::Application</text>
</a>
</g>
</g>
<!-- Node5&#45;&gt;Node21 -->
<g id="edge26_Node000021_Node000005" class="edge">
<title>Node5&#45;&gt;Node21</title>
<g id="a_edge26_Node000021_Node000005"><a xlink:title=" ">
<path fill="none" stroke="#63b8ff" d="M1465.76,-204.65C1485.65,-221.52 1515.46,-245.76 1546.5,-258.25 1677.34,-310.89 1848.64,-284.82 1932.28,-270.17"/>
<polygon fill="#63b8ff" stroke="#63b8ff" points="1468.12,-202.07 1458.24,-198.25 1463.58,-207.4 1468.12,-202.07"/>
</a>
</g>
</g>
<!-- Node5&#45;&gt;Node21 -->
<g id="edge27_Node000021_Node000005" class="edge">
<title>Node5&#45;&gt;Node21</title>
<g id="a_edge27_Node000021_Node000005"><a xlink:title=" ">
<path fill="none" stroke="#63b8ff" d="M1453.69,-206.19C1471.99,-227.73 1508.31,-260.88 1546.5,-276.25 1681.9,-330.72 1860.65,-300.9 1940.71,-279"/>
<polygon fill="#63b8ff" stroke="#63b8ff" points="1456.49,-204.09 1447.55,-198.4 1451,-208.42 1456.49,-204.09"/>
</a>
</g>
</g>
<!-- Node22 -->
<g id="Node000022" class="node">
<title>Node22</title>
<g id="a_Node000022"><a xlink:href="classdunedaq_1_1confmodel_1_1VirtualHost.html" target="_top" xlink:title=" ">
<polygon fill="white" stroke="#666666" points="1838.75,-278.5 1736.5,-278.5 1736.5,-248 1838.75,-248 1838.75,-278.5"/>
<text text-anchor="start" x="1744.5" y="-265" font-family="Helvetica,sans-Serif" font-size="10.00">dunedaq::confmodel</text>
<text text-anchor="middle" x="1787.62" y="-253.75" font-family="Helvetica,sans-Serif" font-size="10.00">::VirtualHost</text>
</a>
</g>
</g>
<!-- Node5&#45;&gt;Node22 -->
<g id="edge29_Node000022_Node000005" class="edge">
<title>Node5&#45;&gt;Node22</title>
<g id="a_edge29_Node000022_Node000005"><a xlink:title=" ">
<path fill="none" stroke="#63b8ff" d="M1483.77,-202.01C1502.49,-210.47 1525.08,-220.27 1546.5,-226.25 1610.37,-244.08 1686.87,-250.57 1736.08,-255.04"/>
<polygon fill="#63b8ff" stroke="#63b8ff" points="1485.45,-198.92 1474.9,-197.97 1482.55,-205.3 1485.45,-198.92"/>
</a>
</g>
</g>
<!-- Node5&#45;&gt;Node22 -->
<g id="edge30_Node000022_Node000005" class="edge">
<title>Node5&#45;&gt;Node22</title>
<g id="a_edge30_Node000022_Node000005"><a xlink:title=" ">
<path fill="none" stroke="#63b8ff" d="M1459.3,-204.09C1479.72,-217.76 1514.41,-235.29 1546.5,-244.25 1610.37,-262.08 1686.87,-268.57 1736.08,-268.8"/>
<polygon fill="#63b8ff" stroke="#63b8ff" points="1461.39,-201.28 1451.24,-198.25 1457.29,-206.95 1461.39,-201.28"/>
</a>
</g>
</g>
<!-- Node23 -->
<g id="Node000023" class="node">
<title>Node23</title>
<g id="a_Node000023"><a xlink:href="classdunedaq_1_1confmodel_1_1PhysicalHost.html" target="_top" xlink:title=" ">
<polygon fill="white" stroke="#666666" points="1649.5,-226.5 1547.25,-226.5 1547.25,-196 1649.5,-196 1649.5,-226.5"/>
<text text-anchor="start" x="1555.25" y="-213" font-family="Helvetica,sans-Serif" font-size="10.00">dunedaq::confmodel</text>
<text text-anchor="middle" x="1598.38" y="-201.75" font-family="Helvetica,sans-Serif" font-size="10.00">::PhysicalHost</text>
</a>
</g>
</g>
<!-- Node5&#45;&gt;Node23 -->
<g id="edge32_Node000023_Node000005" class="edge">
<title>Node5&#45;&gt;Node23</title>
<g id="a_edge32_Node000023_Node000005"><a xlink:title=" ">
<path fill="none" stroke="#63b8ff" d="M1520.93,-192.74C1529.74,-194.11 1538.52,-195.59 1546.83,-197.11"/>
<polygon fill="#63b8ff" stroke="#63b8ff" points="1521.7,-189.32 1511.3,-191.3 1520.67,-196.24 1521.7,-189.32"/>
</a>
</g>
</g>
<!-- Node5&#45;&gt;Node23 -->
<g id="edge33_Node000023_Node000005" class="edge">
<title>Node5&#45;&gt;Node23</title>
<g id="a_edge33_Node000023_Node000005"><a xlink:title=" ">
<path fill="none" stroke="#63b8ff" d="M1482.53,-199.61C1502.24,-203.48 1526.02,-207.25 1546.82,-209.84"/>
<polygon fill="#63b8ff" stroke="#63b8ff" points="1483.44,-196.22 1472.94,-197.64 1482.03,-203.08 1483.44,-196.22"/>
</a>
</g>
</g>
<!-- Node24 -->
<g id="Node000024" class="node">
<title>Node24</title>
<g id="a_Node000024"><a xlink:href="classdunedaq_1_1confmodel_1_1OpMonConf.html" target="_top" xlink:title=" ">
<polygon fill="white" stroke="#666666" points="1649.5,-177.5 1547.25,-177.5 1547.25,-147 1649.5,-147 1649.5,-177.5"/>
<text text-anchor="start" x="1555.25" y="-164" font-family="Helvetica,sans-Serif" font-size="10.00">dunedaq::confmodel</text>
<text text-anchor="middle" x="1598.38" y="-152.75" font-family="Helvetica,sans-Serif" font-size="10.00">::OpMonConf</text>
</a>
</g>
</g>
<!-- Node5&#45;&gt;Node24 -->
<g id="edge35_Node000024_Node000005" class="edge">
<title>Node5&#45;&gt;Node24</title>
<g id="a_edge35_Node000024_Node000005"><a xlink:title=" ">
<path fill="none" stroke="#63b8ff" d="M1481.88,-174.76C1501.76,-170.71 1525.92,-166.72 1546.99,-163.97"/>
<polygon fill="#63b8ff" stroke="#63b8ff" points="1481.25,-171.31 1472.2,-176.82 1482.71,-178.16 1481.25,-171.31"/>
</a>
</g>
</g>
<!-- Node5&#45;&gt;Node24 -->
<g id="edge36_Node000024_Node000005" class="edge">
<title>Node5&#45;&gt;Node24</title>
<g id="a_edge36_Node000024_Node000005"><a xlink:title=" ">
<path fill="none" stroke="#63b8ff" d="M1520.93,-181.25C1529.74,-179.82 1538.52,-178.29 1546.83,-176.71"/>
<polygon fill="#63b8ff" stroke="#63b8ff" points="1520.63,-177.75 1511.29,-182.76 1521.71,-184.67 1520.63,-177.75"/>
</a>
</g>
</g>
<!-- Node25 -->
<g id="Node000025" class="node">
<title>Node25</title>
<g id="a_Node000025"><a xlink:href="classdunedaq_1_1appmodel_1_1SourceIDConf.html" target="_top" xlink:title=" ">
<polygon fill="white" stroke="#666666" points="1650.25,-128.5 1546.5,-128.5 1546.5,-98 1650.25,-98 1650.25,-128.5"/>
<text text-anchor="start" x="1554.5" y="-115" font-family="Helvetica,sans-Serif" font-size="10.00">dunedaq::appmodel::</text>
<text text-anchor="middle" x="1598.38" y="-103.75" font-family="Helvetica,sans-Serif" font-size="10.00">SourceIDConf</text>
</a>
</g>
</g>
<!-- Node5&#45;&gt;Node25 -->
<g id="edge39_Node000025_Node000005" class="edge">
<title>Node5&#45;&gt;Node25</title>
<g id="a_edge39_Node000025_Node000005"><a xlink:title=" ">
<path fill="none" stroke="#63b8ff" d="M1463.88,-171.66C1486.6,-159.01 1522.36,-141.61 1551.15,-128.95"/>
<polygon fill="#63b8ff" stroke="#63b8ff" points="1462.36,-168.5 1455.45,-176.53 1465.86,-174.56 1462.36,-168.5"/>
</a>
</g>
</g>
<!-- Node5&#45;&gt;Node25 -->
<g id="edge40_Node000025_Node000005" class="edge">
<title>Node5&#45;&gt;Node25</title>
<g id="a_edge40_Node000025_Node000005"><a xlink:title=" ">
<path fill="none" stroke="#63b8ff" d="M1484.83,-172.76C1514.08,-160.02 1551.45,-141.89 1574.91,-128.82"/>
<polygon fill="#63b8ff" stroke="#63b8ff" points="1483.67,-169.45 1475.85,-176.6 1486.42,-175.89 1483.67,-169.45"/>
</a>
</g>
</g>
<!-- Node26 -->
<g id="Node000026" class="node">
<title>Node26</title>
<g id="a_Node000026"><a xlink:href="classdunedaq_1_1appmodel_1_1TRBConf.html" target="_top" xlink:title=" ">
<polygon fill="white" stroke="#666666" points="1650.25,-79.5 1546.5,-79.5 1546.5,-49 1650.25,-49 1650.25,-79.5"/>
<text text-anchor="start" x="1554.5" y="-66" font-family="Helvetica,sans-Serif" font-size="10.00">dunedaq::appmodel::</text>
<text text-anchor="middle" x="1598.38" y="-54.75" font-family="Helvetica,sans-Serif" font-size="10.00">TRBConf</text>
</a>
</g>
</g>
<!-- Node5&#45;&gt;Node26 -->
<g id="edge44_Node000026_Node000005" class="edge">
<title>Node5&#45;&gt;Node26</title>
<g id="a_edge44_Node000026_Node000005"><a xlink:title=" ">
<path fill="none" stroke="#63b8ff" d="M1453.28,-168.11C1471.75,-144.68 1509.11,-106.02 1546.5,-80.25 1546.66,-80.14 1546.82,-80.03 1546.99,-79.92"/>
<polygon fill="#63b8ff" stroke="#63b8ff" points="1450.63,-165.81 1447.47,-175.93 1456.25,-169.99 1450.63,-165.81"/>
</a>
</g>
</g>
<!-- Node5&#45;&gt;Node26 -->
<g id="edge45_Node000026_Node000005" class="edge">
<title>Node5&#45;&gt;Node26</title>
<g id="a_edge45_Node000026_Node000005"><a xlink:title=" ">
<path fill="none" stroke="#63b8ff" d="M1464.04,-169.48C1484.24,-150.12 1515.36,-119.71 1546.5,-98.25 1556.55,-91.32 1568.8,-85.24 1578.76,-79.79"/>
<polygon fill="#63b8ff" stroke="#63b8ff" points="1461.76,-166.82 1456.92,-176.24 1466.58,-171.89 1461.76,-166.82"/>
</a>
</g>
</g>
<!-- Node27 -->
<g id="Node000027" class="node">
<title>Node27</title>
<g id="a_Node000027"><a xlink:href="classdunedaq_1_1appmodel_1_1DFHWConf.html" target="_top" xlink:title=" ">
<polygon fill="white" stroke="#666666" points="1650.25,-30.5 1546.5,-30.5 1546.5,0 1650.25,0 1650.25,-30.5"/>
<text text-anchor="start" x="1554.5" y="-17" font-family="Helvetica,sans-Serif" font-size="10.00">dunedaq::appmodel::</text>
<text text-anchor="middle" x="1598.38" y="-5.75" font-family="Helvetica,sans-Serif" font-size="10.00">DFHWConf</text>
</a>
</g>
</g>
<!-- Node5&#45;&gt;Node27 -->
<g id="edge47_Node000027_Node000005" class="edge">
<title>Node5&#45;&gt;Node27</title>
<g id="a_edge47_Node000027_Node000005"><a xlink:title=" ">
<path fill="none" stroke="#63b8ff" d="M1448.9,-167.01C1463.94,-134.22 1500.26,-70.46 1546.5,-31.25 1546.65,-31.12 1546.8,-31 1546.95,-30.87"/>
<polygon fill="#63b8ff" stroke="#63b8ff" points="1445.84,-165.26 1445.09,-175.83 1452.27,-168.04 1445.84,-165.26"/>
</a>
</g>
</g>
<!-- Node5&#45;&gt;Node27 -->
<g id="edge48_Node000027_Node000005" class="edge">
<title>Node5&#45;&gt;Node27</title>
<g id="a_edge48_Node000027_Node000005"><a xlink:title=" ">
<path fill="none" stroke="#63b8ff" d="M1454.64,-167.64C1472.08,-138.44 1505.37,-84.13 1546.5,-49.25 1555.28,-41.8 1566.66,-35.94 1576.43,-30.91"/>
<polygon fill="#63b8ff" stroke="#63b8ff" points="1451.84,-165.5 1449.73,-175.88 1457.86,-169.09 1451.84,-165.5"/>
</a>
</g>
</g>
<!-- Node6 -->
<g id="Node000006" class="node">
<title>Node6</title>
<g id="a_Node000006"><a xlink:href="classdunedaq_1_1conffwk_1_1Configuration.html" target="_top" xlink:title=" ">
<polygon fill="white" stroke="#666666" points="644.5,-197.88 492.75,-197.88 492.75,-178.62 644.5,-178.62 644.5,-197.88"/>
<text text-anchor="middle" x="568.62" y="-184.38" font-family="Helvetica,sans-Serif" font-size="10.00">dunedaq::conffwk::Configuration</text>
</a>
</g>
</g>
<!-- Node6&#45;&gt;Node5 -->
<g id="edge5_Node000005_Node000006" class="edge">
<title>Node6&#45;&gt;Node5</title>
<g id="a_edge5_Node000005_Node000006"><a xlink:title=" ">
<path fill="none" stroke="#9a32cd" stroke-dasharray="5,2" d="M656.08,-180.02C708.87,-175.68 777.77,-171.25 839,-171.25 839,-171.25 839,-171.25 1249.5,-171.25 1289.86,-171.25 1334.87,-174.88 1370.94,-178.69"/>
<polygon fill="#9a32cd" stroke="#9a32cd" points="655.91,-176.52 646.24,-180.84 656.49,-183.49 655.91,-176.52"/>
</a>
</g>
<text text-anchor="middle" x="1056.25" y="-173" font-family="Helvetica,sans-Serif" font-size="10.00" fill="grey"> p_db</text>
</g>
<!-- Node15 -->
<g id="Node000015" class="node">
<title>Node15</title>
<g id="a_Node000015"><a xlink:href="classdunedaq_1_1conffwk_1_1ConfigurationImpl.html" target="_top" xlink:title="Provides pure virtual interface used by the Configuration class.">
<polygon fill="white" stroke="#666666" points="925.25,-244.88 754.75,-244.88 754.75,-225.62 925.25,-225.62 925.25,-244.88"/>
<text text-anchor="middle" x="840" y="-231.38" font-family="Helvetica,sans-Serif" font-size="10.00">dunedaq::conffwk::ConfigurationImpl</text>
</a>
</g>
</g>
<!-- Node6&#45;&gt;Node15 -->
<g id="edge17_Node000015_Node000006" class="edge">
<title>Node6&#45;&gt;Node15</title>
<g id="a_edge17_Node000015_Node000006"><a xlink:title=" ">
<path fill="none" stroke="#9a32cd" stroke-dasharray="5,2" d="M610.1,-201.67C627.25,-206.91 647.56,-212.54 666.25,-216.25 694.81,-221.91 726.38,-226.01 754.64,-228.91"/>
<polygon fill="#9a32cd" stroke="#9a32cd" points="611.36,-198.39 600.77,-198.75 609.27,-205.08 611.36,-198.39"/>
</a>
</g>
<text text-anchor="middle" x="701.5" y="-228" font-family="Helvetica,sans-Serif" font-size="10.00" fill="grey"> m_conf</text>
</g>
<!-- Node7 -->
<g id="Node000007" class="node">
<title>Node7</title>
<g id="a_Node000007"><a xlink:href="classdunedaq_1_1conffwk_1_1map.html" target="_top" xlink:title=" ">
<polygon fill="white" stroke="#666666" points="355.88,-252.5 206.38,-252.5 206.38,-222 355.88,-222 355.88,-252.5"/>
<text text-anchor="start" x="214.38" y="-239" font-family="Helvetica,sans-Serif" font-size="10.00">dunedaq::conffwk::map</text>
<text text-anchor="middle" x="281.12" y="-227.75" font-family="Helvetica,sans-Serif" font-size="10.00">&lt; dunedaq::conffwk::class_t * &gt;</text>
</a>
</g>
</g>
<!-- Node7&#45;&gt;Node6 -->
<g id="edge6_Node000006_Node000007" class="edge">
<title>Node7&#45;&gt;Node6</title>
<g id="a_edge6_Node000006_Node000007"><a xlink:title=" ">
<path fill="none" stroke="#9a32cd" stroke-dasharray="5,2" d="M367.37,-229.46C399.95,-225.81 437.35,-220.79 471,-214.25 492.49,-210.07 516.23,-203.71 534.8,-198.32"/>
<polygon fill="#9a32cd" stroke="#9a32cd" points="367.12,-225.97 357.56,-230.53 367.88,-232.93 367.12,-225.97"/>
</a>
</g>
<text text-anchor="start" x="383.25" y="-262.75" font-family="Helvetica,sans-Serif" font-size="10.00" fill="grey"> p_all_classes_desc</text>
<text text-anchor="middle" x="427.12" y="-251.5" font-family="Helvetica,sans-Serif" font-size="10.00" fill="grey">_cache</text>
<text text-anchor="start" x="383.25" y="-240.25" font-family="Helvetica,sans-Serif" font-size="10.00" fill="grey">p_direct_classes</text>
<text text-anchor="middle" x="427.12" y="-229" font-family="Helvetica,sans-Serif" font-size="10.00" fill="grey">_desc_cache</text>
</g>
<!-- Node8 -->
<g id="Node000008" class="node">
<title>Node8</title>
<g id="a_Node000008"><a xlink:title=" ">
<polygon fill="white" stroke="#666666" points="134.12,-280.12 25.88,-280.12 25.88,-238.38 134.12,-238.38 134.12,-280.12"/>
<text text-anchor="start" x="33.88" y="-266.62" font-family="Helvetica,sans-Serif" font-size="10.00">std::unordered_map</text>
<text text-anchor="start" x="33.88" y="-255.38" font-family="Helvetica,sans-Serif" font-size="10.00">&lt; std::string, dunedaq</text>
<text text-anchor="middle" x="80" y="-244.12" font-family="Helvetica,sans-Serif" font-size="10.00">::conffwk::class_t * &gt;</text>
</a>
</g>
</g>
<!-- Node8&#45;&gt;Node7 -->
<g id="edge7_Node000007_Node000008" class="edge">
<title>Node8&#45;&gt;Node7</title>
<g id="a_edge7_Node000007_Node000008"><a xlink:title=" ">
<path fill="none" stroke="#63b8ff" d="M146.01,-252.07C165.25,-249.94 186.45,-247.6 206.21,-245.42"/>
<polygon fill="#63b8ff" stroke="#63b8ff" points="145.68,-248.58 136.13,-253.16 146.45,-255.54 145.68,-248.58"/>
</a>
</g>
</g>
<!-- Node9 -->
<g id="Node000009" class="node">
<title>Node9</title>
<g id="a_Node000009"><a xlink:href="classdunedaq_1_1conffwk_1_1fmap.html" target="_top" xlink:title=" ">
<polygon fill="white" stroke="#666666" points="339.75,-203.5 222.5,-203.5 222.5,-173 339.75,-173 339.75,-203.5"/>
<text text-anchor="start" x="230.5" y="-190" font-family="Helvetica,sans-Serif" font-size="10.00">dunedaq::conffwk::fmap</text>
<text text-anchor="middle" x="281.12" y="-178.75" font-family="Helvetica,sans-Serif" font-size="10.00">&lt; conffwk::fset &gt;</text>
</a>
</g>
</g>
<!-- Node9&#45;&gt;Node6 -->
<g id="edge8_Node000006_Node000009" class="edge">
<title>Node9&#45;&gt;Node6</title>
<g id="a_edge8_Node000006_Node000009"><a xlink:title=" ">
<path fill="none" stroke="#9a32cd" stroke-dasharray="5,2" d="M351.65,-188.25C394.28,-188.25 448.86,-188.25 492.49,-188.25"/>
<polygon fill="#9a32cd" stroke="#9a32cd" points="351.76,-184.75 341.76,-188.25 351.76,-191.75 351.76,-184.75"/>
</a>
</g>
<text text-anchor="middle" x="427.12" y="-201.25" font-family="Helvetica,sans-Serif" font-size="10.00" fill="grey"> p_subclasses</text>
<text text-anchor="middle" x="427.12" y="-190" font-family="Helvetica,sans-Serif" font-size="10.00" fill="grey">p_superclasses</text>
</g>
<!-- Node10 -->
<g id="Node000010" class="node">
<title>Node10</title>
<g id="a_Node000010"><a xlink:title=" ">
<polygon fill="white" stroke="#666666" points="136.75,-220.75 23.25,-220.75 23.25,-167.75 136.75,-167.75 136.75,-220.75"/>
<text text-anchor="start" x="31.25" y="-207.25" font-family="Helvetica,sans-Serif" font-size="10.00">std::unordered_map</text>
<text text-anchor="start" x="31.25" y="-196" font-family="Helvetica,sans-Serif" font-size="10.00">&lt; const std::string</text>
<text text-anchor="start" x="31.25" y="-184.75" font-family="Helvetica,sans-Serif" font-size="10.00"> *, conffwk::fset , string</text>
<text text-anchor="middle" x="80" y="-173.5" font-family="Helvetica,sans-Serif" font-size="10.00">_ptr_hash &gt;</text>
</a>
</g>
</g>
<!-- Node10&#45;&gt;Node9 -->
<g id="edge9_Node000009_Node000010" class="edge">
<title>Node10&#45;&gt;Node9</title>
<g id="a_edge9_Node000009_Node000010"><a xlink:title=" ">
<path fill="none" stroke="#63b8ff" d="M148.49,-192.22C172.4,-191.5 199.07,-190.69 222.12,-190"/>
<polygon fill="#63b8ff" stroke="#63b8ff" points="148.4,-188.72 138.51,-192.52 148.61,-195.71 148.4,-188.72"/>
</a>
</g>
</g>
<!-- Node11 -->
<g id="Node000011" class="node">
<title>Node11</title>
<g id="a_Node000011"><a xlink:href="classdunedaq_1_1conffwk_1_1map.html" target="_top" xlink:title=" ">
<polygon fill="white" stroke="#666666" points="342,-152.38 220.25,-152.38 220.25,-88.12 342,-88.12 342,-152.38"/>
<text text-anchor="start" x="228.25" y="-138.88" font-family="Helvetica,sans-Serif" font-size="10.00">dunedaq::conffwk::map</text>
<text text-anchor="start" x="228.25" y="-127.62" font-family="Helvetica,sans-Serif" font-size="10.00">&lt; std::list&lt; dunedaq</text>
<text text-anchor="start" x="228.25" y="-116.38" font-family="Helvetica,sans-Serif" font-size="10.00">::conffwk::Configuration</text>
<text text-anchor="start" x="228.25" y="-105.12" font-family="Helvetica,sans-Serif" font-size="10.00">::AttributeConverterBase</text>
<text text-anchor="middle" x="281.12" y="-93.88" font-family="Helvetica,sans-Serif" font-size="10.00"> * &gt; * &gt;</text>
</a>
</g>
</g>
<!-- Node11&#45;&gt;Node6 -->
<g id="edge10_Node000006_Node000011" class="edge">
<title>Node11&#45;&gt;Node6</title>
<g id="a_edge10_Node000006_Node000011"><a xlink:title=" ">
<path fill="none" stroke="#9a32cd" stroke-dasharray="5,2" d="M353.25,-137.19C407.46,-150.1 480.26,-167.44 525.55,-178.23"/>
<polygon fill="#9a32cd" stroke="#9a32cd" points="354.33,-133.85 343.8,-134.94 352.71,-140.66 354.33,-133.85"/>
</a>
</g>
<text text-anchor="middle" x="427.12" y="-166" font-family="Helvetica,sans-Serif" font-size="10.00" fill="grey"> m_convert_map</text>
</g>
<!-- Node12 -->
<g id="Node000012" class="node">
<title>Node12</title>
<g id="a_Node000012"><a xlink:title=" ">
<polygon fill="white" stroke="#666666" points="160,-149.38 0,-149.38 0,-85.12 160,-85.12 160,-149.38"/>
<text text-anchor="start" x="8" y="-135.88" font-family="Helvetica,sans-Serif" font-size="10.00">std::unordered_map</text>
<text text-anchor="start" x="8" y="-124.62" font-family="Helvetica,sans-Serif" font-size="10.00">&lt; std::string, std::</text>
<text text-anchor="start" x="8" y="-113.38" font-family="Helvetica,sans-Serif" font-size="10.00">list&lt; dunedaq::conffwk</text>
<text text-anchor="start" x="8" y="-102.12" font-family="Helvetica,sans-Serif" font-size="10.00">::Configuration::AttributeConverter</text>
<text text-anchor="middle" x="80" y="-90.88" font-family="Helvetica,sans-Serif" font-size="10.00">Base * &gt; * &gt;</text>
</a>
</g>
</g>
<!-- Node12&#45;&gt;Node11 -->
<g id="edge11_Node000011_Node000012" class="edge">
<title>Node12&#45;&gt;Node11</title>
<g id="a_edge11_Node000011_Node000012"><a xlink:title=" ">
<path fill="none" stroke="#63b8ff" d="M171.53,-118.61C187.91,-118.86 204.61,-119.11 219.85,-119.34"/>
<polygon fill="#63b8ff" stroke="#63b8ff" points="171.84,-115.12 161.78,-118.47 171.73,-122.12 171.84,-115.12"/>
</a>
</g>
</g>
<!-- Node13 -->
<g id="Node000013" class="node">
<title>Node13</title>
<g id="a_Node000013"><a xlink:href="classdunedaq_1_1conffwk_1_1fmap.html" target="_top" xlink:title=" ">
<polygon fill="white" stroke="#666666" points="365.25,-62.5 197,-62.5 197,-32 365.25,-32 365.25,-62.5"/>
<text text-anchor="start" x="205" y="-49" font-family="Helvetica,sans-Serif" font-size="10.00">dunedaq::conffwk::fmap</text>
<text text-anchor="middle" x="281.12" y="-37.75" font-family="Helvetica,sans-Serif" font-size="10.00">&lt; dunedaq::conffwk::CacheBase * &gt;</text>
</a>
</g>
</g>
<!-- Node13&#45;&gt;Node6 -->
<g id="edge12_Node000006_Node000013" class="edge">
<title>Node13&#45;&gt;Node6</title>
<g id="a_edge12_Node000006_Node000013"><a xlink:title=" ">
<path fill="none" stroke="#9a32cd" stroke-dasharray="5,2" d="M335.34,-67.01C345.34,-70.93 355.66,-75.11 365.25,-79.25 413.11,-99.91 425.12,-105.24 471,-130 500.3,-145.82 533.3,-166.31 552.16,-178.3"/>
<polygon fill="#9a32cd" stroke="#9a32cd" points="336.68,-63.77 326.09,-63.43 334.15,-70.3 336.68,-63.77"/>
</a>
</g>
<text text-anchor="middle" x="427.12" y="-131" font-family="Helvetica,sans-Serif" font-size="10.00" fill="grey"> m_cache_map</text>
</g>
<!-- Node14 -->
<g id="Node000014" class="node">
<title>Node14</title>
<g id="a_Node000014"><a xlink:title=" ">
<polygon fill="white" stroke="#666666" points="133,-67.38 27,-67.38 27,-3.12 133,-3.12 133,-67.38"/>
<text text-anchor="start" x="35" y="-53.88" font-family="Helvetica,sans-Serif" font-size="10.00">std::unordered_map</text>
<text text-anchor="start" x="35" y="-42.62" font-family="Helvetica,sans-Serif" font-size="10.00">&lt; const std::string</text>
<text text-anchor="start" x="35" y="-31.38" font-family="Helvetica,sans-Serif" font-size="10.00"> *, dunedaq::conffwk</text>
<text text-anchor="start" x="35" y="-20.12" font-family="Helvetica,sans-Serif" font-size="10.00">::CacheBase *, string</text>
<text text-anchor="middle" x="80" y="-8.88" font-family="Helvetica,sans-Serif" font-size="10.00">_ptr_hash &gt;</text>
</a>
</g>
</g>
<!-- Node14&#45;&gt;Node13 -->
<g id="edge13_Node000013_Node000014" class="edge">
<title>Node14&#45;&gt;Node13</title>
<g id="a_edge13_Node000013_Node000014"><a xlink:title=" ">
<path fill="none" stroke="#63b8ff" d="M144.51,-39.08C161.06,-40.07 179.16,-41.17 196.58,-42.22"/>
<polygon fill="#63b8ff" stroke="#63b8ff" points="145.02,-35.6 134.83,-38.49 144.6,-42.59 145.02,-35.6"/>
</a>
</g>
</g>
<!-- Node15&#45;&gt;Node6 -->
<g id="edge14_Node000006_Node000015" class="edge">
<title>Node15&#45;&gt;Node6</title>
<g id="a_edge14_Node000006_Node000015"><a xlink:title=" ">
<path fill="none" stroke="#9a32cd" stroke-dasharray="5,2" d="M799.44,-221.66C780.65,-215.69 757.76,-209.12 736.75,-205 706.99,-199.16 673.83,-195.3 644.94,-192.78"/>
<polygon fill="#9a32cd" stroke="#9a32cd" points="798.24,-224.95 808.83,-224.71 800.4,-218.29 798.24,-224.95"/>
</a>
</g>
<text text-anchor="middle" x="701.5" y="-206" font-family="Helvetica,sans-Serif" font-size="10.00" fill="grey"> m_impl</text>
</g>
<!-- Node19 -->
<g id="Node000019" class="node">
<title>Node19</title>
<g id="a_Node000019"><a xlink:href="classdunedaq_1_1conffwk_1_1ConfigObjectImpl.html" target="_top" xlink:title="Implements database objects.">
<polygon fill="white" stroke="#666666" points="1117.5,-242.5 995,-242.5 995,-212 1117.5,-212 1117.5,-242.5"/>
<text text-anchor="start" x="1003" y="-229" font-family="Helvetica,sans-Serif" font-size="10.00">dunedaq::conffwk::Config</text>
<text text-anchor="middle" x="1056.25" y="-217.75" font-family="Helvetica,sans-Serif" font-size="10.00">ObjectImpl</text>
</a>
</g>
</g>
<!-- Node15&#45;&gt;Node19 -->
<g id="edge20_Node000019_Node000015" class="edge">
<title>Node15&#45;&gt;Node19</title>
<g id="a_edge20_Node000019_Node000015"><a xlink:title=" ">
<path fill="none" stroke="#9a32cd" stroke-dasharray="5,2" d="M937.12,-231.66C956.67,-230.93 976.73,-230.18 994.63,-229.51"/>
<polygon fill="#9a32cd" stroke="#9a32cd" points="937.05,-228.16 927.19,-232.03 937.31,-235.16 937.05,-228.16"/>
</a>
</g>
<text text-anchor="middle" x="960.12" y="-233" font-family="Helvetica,sans-Serif" font-size="10.00" fill="grey"> m_impl</text>
</g>
<!-- Node16 -->
<g id="Node000016" class="node">
<title>Node16</title>
<g id="a_Node000016"><a xlink:href="classdunedaq_1_1conffwk_1_1pmap.html" target="_top" xlink:title=" ">
<polygon fill="white" stroke="#666666" points="648.25,-320.75 489,-320.75 489,-267.75 648.25,-267.75 648.25,-320.75"/>
<text text-anchor="start" x="497" y="-307.25" font-family="Helvetica,sans-Serif" font-size="10.00">dunedaq::conffwk::pmap</text>
<text text-anchor="start" x="497" y="-296" font-family="Helvetica,sans-Serif" font-size="10.00">&lt; dunedaq::conffwk::map</text>
<text text-anchor="start" x="497" y="-284.75" font-family="Helvetica,sans-Serif" font-size="10.00">&lt; dunedaq::conffwk::ConfigObject</text>
<text text-anchor="middle" x="568.62" y="-273.5" font-family="Helvetica,sans-Serif" font-size="10.00">Impl * &gt; * &gt;</text>
</a>
</g>
</g>
<!-- Node16&#45;&gt;Node15 -->
<g id="edge15_Node000015_Node000016" class="edge">
<title>Node16&#45;&gt;Node15</title>
<g id="a_edge15_Node000015_Node000016"><a xlink:title=" ">
<path fill="none" stroke="#9a32cd" stroke-dasharray="5,2" d="M659.8,-274.5C704.43,-264.72 756.41,-253.34 792.85,-245.36"/>
<polygon fill="#9a32cd" stroke="#9a32cd" points="659.12,-271.06 650.1,-276.62 660.62,-277.9 659.12,-271.06"/>
</a>
</g>
<text text-anchor="middle" x="701.5" y="-273" font-family="Helvetica,sans-Serif" font-size="10.00" fill="grey"> m_impl_objects</text>
</g>
<!-- Node17 -->
<g id="Node000017" class="node">
<title>Node17</title>
<g id="a_Node000017"><a xlink:title=" ">
<polygon fill="white" stroke="#666666" points="348.75,-334.38 213.5,-334.38 213.5,-270.12 348.75,-270.12 348.75,-334.38"/>
<text text-anchor="start" x="221.5" y="-320.88" font-family="Helvetica,sans-Serif" font-size="10.00">std::map&lt; const std</text>
<text text-anchor="start" x="221.5" y="-309.62" font-family="Helvetica,sans-Serif" font-size="10.00">::string *, dunedaq</text>
<text text-anchor="start" x="221.5" y="-298.38" font-family="Helvetica,sans-Serif" font-size="10.00">::conffwk::map&lt; dunedaq</text>
<text text-anchor="start" x="221.5" y="-287.12" font-family="Helvetica,sans-Serif" font-size="10.00">::conffwk::ConfigObjectImpl</text>
<text text-anchor="middle" x="281.12" y="-275.88" font-family="Helvetica,sans-Serif" font-size="10.00"> * &gt; * , string_ptr_compare &gt;</text>
</a>
</g>
</g>
<!-- Node17&#45;&gt;Node16 -->
<g id="edge16_Node000016_Node000017" class="edge">
<title>Node17&#45;&gt;Node16</title>
<g id="a_edge16_Node000016_Node000017"><a xlink:title=" ">
<path fill="none" stroke="#63b8ff" d="M360.35,-300.06C400.25,-298.94 448.68,-297.58 488.69,-296.46"/>
<polygon fill="#63b8ff" stroke="#63b8ff" points="360.47,-296.55 350.58,-300.33 360.67,-303.55 360.47,-296.55"/>
</a>
</g>
</g>
<!-- Node18 -->
<g id="Node000018" class="node">
<title>Node18</title>
<g id="a_Node000018"><a xlink:href="classdunedaq_1_1conffwk_1_1ConfigObject.html" target="_top" xlink:title="Represents database objects.">
<polygon fill="white" stroke="#666666" points="1309.75,-230.5 1187.25,-230.5 1187.25,-200 1309.75,-200 1309.75,-230.5"/>
<text text-anchor="start" x="1195.25" y="-217" font-family="Helvetica,sans-Serif" font-size="10.00">dunedaq::conffwk::Config</text>
<text text-anchor="middle" x="1248.5" y="-205.75" font-family="Helvetica,sans-Serif" font-size="10.00">Object</text>
</a>
</g>
</g>
<!-- Node18&#45;&gt;Node5 -->
<g id="edge18_Node000005_Node000018" class="edge">
<title>Node18&#45;&gt;Node5</title>
<g id="a_edge18_Node000005_Node000018"><a xlink:title=" ">
<path fill="none" stroke="#9a32cd" stroke-dasharray="5,2" d="M1321.17,-204.68C1337.43,-202.28 1354.65,-199.74 1370.77,-197.37"/>
<polygon fill="#9a32cd" stroke="#9a32cd" points="1320.98,-201.17 1311.6,-206.09 1322,-208.1 1320.98,-201.17"/>
</a>
</g>
<text text-anchor="middle" x="1340.5" y="-204" font-family="Helvetica,sans-Serif" font-size="10.00" fill="grey"> p_obj</text>
</g>
<!-- Node19&#45;&gt;Node18 -->
<g id="edge19_Node000018_Node000019" class="edge">
<title>Node19&#45;&gt;Node18</title>
<g id="a_edge19_Node000018_Node000019"><a xlink:title=" ">
<path fill="none" stroke="#9a32cd" stroke-dasharray="5,2" d="M1129.31,-222.7C1148.34,-221.5 1168.68,-220.22 1187.03,-219.06"/>
<polygon fill="#9a32cd" stroke="#9a32cd" points="1129.24,-219.2 1119.48,-223.32 1129.68,-226.19 1129.24,-219.2"/>
</a>
</g>
<text text-anchor="middle" x="1152.38" y="-223" font-family="Helvetica,sans-Serif" font-size="10.00" fill="grey"> m_impl</text>
</g>
<!-- Node20 -->
<g id="Node000020" class="node">
<title>Node20</title>
<g id="a_Node000020"><a xlink:href="classdunedaq_1_1appmodel_1_1SmartDaqApplication.html" target="_top" xlink:title=" ">
<polygon fill="white" stroke="#666666" points="2280.5,-278.5 2173,-278.5 2173,-248 2280.5,-248 2280.5,-278.5"/>
<text text-anchor="start" x="2181" y="-265" font-family="Helvetica,sans-Serif" font-size="10.00">dunedaq::appmodel::</text>
<text text-anchor="middle" x="2226.75" y="-253.75" font-family="Helvetica,sans-Serif" font-size="10.00">SmartDaqApplication</text>
</a>
</g>
</g>
<!-- Node20&#45;&gt;Node1 -->
<g id="edge24_Node000001_Node000020" class="edge">
<title>Node20&#45;&gt;Node1</title>
<g id="a_edge24_Node000001_Node000020"><a xlink:title=" ">
<path fill="none" stroke="#63b8ff" d="M2292.3,-256.52C2300.74,-256.46 2309.29,-256.53 2317.46,-256.73"/>
<polygon fill="#63b8ff" stroke="#63b8ff" points="2292.38,-253.02 2282.43,-256.66 2292.48,-260.02 2292.38,-253.02"/>
</a>
</g>
</g>
<!-- Node20&#45;&gt;Node1 -->
<g id="edge42_Node000001_Node000020" class="edge">
<title>Node20&#45;&gt;Node1</title>
<g id="a_edge42_Node000001_Node000020"><a xlink:title=" ">
<path fill="none" stroke="#63b8ff" d="M2292.3,-269.98C2300.74,-270.04 2309.29,-269.97 2317.46,-269.77"/>
<polygon fill="#63b8ff" stroke="#63b8ff" points="2292.48,-266.48 2282.43,-269.84 2292.38,-273.48 2292.48,-266.48"/>
</a>
</g>
</g>
<!-- Node21&#45;&gt;Node20 -->
<g id="edge25_Node000020_Node000021" class="edge">
<title>Node21&#45;&gt;Node20</title>
<g id="a_edge25_Node000020_Node000021"><a xlink:title=" ">
<path fill="none" stroke="#63b8ff" d="M2046.66,-257.26C2085.71,-256.16 2135.57,-256.25 2172.76,-257.55"/>
<polygon fill="#63b8ff" stroke="#63b8ff" points="2046.57,-253.76 2036.69,-257.59 2046.79,-260.76 2046.57,-253.76"/>
</a>
</g>
</g>
<!-- Node21&#45;&gt;Node20 -->
<g id="edge37_Node000020_Node000021" class="edge">
<title>Node21&#45;&gt;Node20</title>
<g id="a_edge37_Node000020_Node000021"><a xlink:title=" ">
<path fill="none" stroke="#63b8ff" d="M2046.66,-269.24C2085.71,-270.34 2135.57,-270.25 2172.76,-268.95"/>
<polygon fill="#63b8ff" stroke="#63b8ff" points="2046.79,-265.74 2036.69,-268.91 2046.57,-272.74 2046.79,-265.74"/>
</a>
</g>
</g>
<!-- Node22&#45;&gt;Node21 -->
<g id="edge28_Node000021_Node000022" class="edge">
<title>Node22&#45;&gt;Node21</title>
<g id="a_edge28_Node000021_Node000022"><a xlink:title=" ">
<path fill="none" stroke="#9a32cd" stroke-dasharray="5,2" d="M1850.48,-263.25C1876.81,-263.25 1907.13,-263.25 1932.08,-263.25"/>
<polygon fill="#9a32cd" stroke="#9a32cd" points="1850.6,-259.75 1840.6,-263.25 1850.6,-266.75 1850.6,-259.75"/>
</a>
</g>
<text text-anchor="middle" x="1885.62" y="-265" font-family="Helvetica,sans-Serif" font-size="10.00" fill="grey"> m_runs_on</text>
</g>
<!-- Node23&#45;&gt;Node22 -->
<g id="edge31_Node000022_Node000023" class="edge">
<title>Node23&#45;&gt;Node22</title>
<g id="a_edge31_Node000022_Node000023"><a xlink:title=" ">
<path fill="none" stroke="#9a32cd" stroke-dasharray="5,2" d="M1661.13,-216.66C1679.84,-219.3 1700.26,-223.22 1718.5,-229 1732.89,-233.56 1747.97,-240.85 1760.28,-247.53"/>
<polygon fill="#9a32cd" stroke="#9a32cd" points="1661.6,-213.19 1651.23,-215.37 1660.69,-220.13 1661.6,-213.19"/>
</a>
</g>
<text text-anchor="middle" x="1693.38" y="-230" font-family="Helvetica,sans-Serif" font-size="10.00" fill="grey"> m_runs_on</text>
</g>
<!-- Node24&#45;&gt;Node21 -->
<g id="edge34_Node000021_Node000024" class="edge">
<title>Node24&#45;&gt;Node21</title>
<g id="a_edge34_Node000021_Node000024"><a xlink:title=" ">
<path fill="none" stroke="#9a32cd" stroke-dasharray="5,2" d="M1660.59,-178.38C1735.8,-198.2 1862.02,-231.47 1932.02,-249.91"/>
<polygon fill="#9a32cd" stroke="#9a32cd" points="1661.9,-175.11 1651.34,-175.94 1660.11,-181.88 1661.9,-175.11"/>
</a>
</g>
<text text-anchor="middle" x="1787.62" y="-226" font-family="Helvetica,sans-Serif" font-size="10.00" fill="grey"> m_opmon_conf</text>
</g>
<!-- Node25&#45;&gt;Node20 -->
<g id="edge38_Node000020_Node000025" class="edge">
<title>Node25&#45;&gt;Node20</title>
<g id="a_edge38_Node000020_Node000025"><a xlink:title=" ">
<path fill="none" stroke="#9a32cd" stroke-dasharray="5,2" d="M1661.73,-128.18C1784.99,-157.7 2057.81,-223.03 2172.9,-250.59"/>
<polygon fill="#9a32cd" stroke="#9a32cd" points="1662.65,-124.8 1652.11,-125.88 1661.02,-131.61 1662.65,-124.8"/>
</a>
</g>
<text text-anchor="middle" x="1885.62" y="-190" font-family="Helvetica,sans-Serif" font-size="10.00" fill="grey"> m_source_id</text>
</g>
<!-- Node26&#45;&gt;Node1 -->
<g id="edge43_Node000001_Node000026" class="edge">
<title>Node26&#45;&gt;Node1</title>
<g id="a_edge43_Node000001_Node000026"><a xlink:title=" ">
<path fill="none" stroke="#9a32cd" stroke-dasharray="5,2" d="M1661.34,-76.22C1697.69,-82.23 1744.6,-88.25 1786.62,-88.25 1786.62,-88.25 1786.62,-88.25 2227.75,-88.25 2309.21,-88.25 2351.39,-204.89 2364.13,-247.72"/>
<polygon fill="#9a32cd" stroke="#9a32cd" points="1662.35,-72.84 1651.9,-74.61 1661.17,-79.74 1662.35,-72.84"/>
</a>
</g>
<text text-anchor="middle" x="1983.62" y="-90" font-family="Helvetica,sans-Serif" font-size="10.00" fill="grey"> m_trb</text>
</g>
<!-- Node27&#45;&gt;Node1 -->
<g id="edge46_Node000001_Node000027" class="edge">
<title>Node27&#45;&gt;Node1</title>
<g id="a_edge46_Node000001_Node000027"><a xlink:title=" ">
<path fill="none" stroke="#9a32cd" stroke-dasharray="5,2" d="M1662.06,-16.25C1698.43,-16.75 1745.12,-17.25 1786.62,-17.25 1786.62,-17.25 1786.62,-17.25 2227.75,-17.25 2334.5,-17.25 2361.32,-194.01 2367.01,-247.86"/>
<polygon fill="#9a32cd" stroke="#9a32cd" points="1662.2,-12.76 1652.15,-16.11 1662.1,-19.75 1662.2,-12.76"/>
</a>
</g>
<text text-anchor="middle" x="1983.62" y="-19" font-family="Helvetica,sans-Serif" font-size="10.00" fill="grey"> m_uses</text>
</g>
</g>
</svg>
