<?xml version="1.0" encoding="UTF-8" standalone="no"?>
<!DOCTYPE svg PUBLIC "-//W3C//DTD SVG 1.1//EN"
 "http://www.w3.org/Graphics/SVG/1.1/DTD/svg11.dtd">
<!-- Generated by graphviz version 9.0.0 (20230911.1827)
 -->
<!-- Title: triggeralgs::TCMakerMichelElectronAlgorithm Pages: 1 -->
<svg width="401pt" height="88pt"
 viewBox="0.00 0.00 400.75 87.50" xmlns="http://www.w3.org/2000/svg" xmlns:xlink="http://www.w3.org/1999/xlink">
<g id="graph0" class="graph" transform="scale(1 1) rotate(0) translate(4 83.5)">
<title>triggeralgs::TCMakerMichelElectronAlgorithm</title>
<!-- Node1 -->
<g id="Node000001" class="node">
<title>Node1</title>
<g id="a_Node000001"><a xlink:title=" ">
<polygon fill="#999999" stroke="#666666" points="392.75,-54.5 259,-54.5 259,-24 392.75,-24 392.75,-54.5"/>
<text text-anchor="start" x="267" y="-41" font-family="Helvetica,sans-Serif" font-size="10.00">triggeralgs::TCMakerMichel</text>
<text text-anchor="middle" x="325.88" y="-29.75" font-family="Helvetica,sans-Serif" font-size="10.00">ElectronAlgorithm</text>
</a>
</g>
</g>
<!-- Node2 -->
<g id="Node000002" class="node">
<title>Node2</title>
<g id="a_Node000002"><a xlink:href="classtriggeralgs_1_1TriggerCandidateMaker.html" target="_top" xlink:title=" ">
<polygon fill="white" stroke="#666666" points="139,-79.5 0,-79.5 0,-49 139,-49 139,-79.5"/>
<text text-anchor="start" x="8" y="-66" font-family="Helvetica,sans-Serif" font-size="10.00">triggeralgs::TriggerCandidate</text>
<text text-anchor="middle" x="69.5" y="-54.75" font-family="Helvetica,sans-Serif" font-size="10.00">Maker</text>
</a>
</g>
</g>
<!-- Node2&#45;&gt;Node1 -->
<g id="edge1_Node000001_Node000002" class="edge">
<title>Node2&#45;&gt;Node1</title>
<g id="a_edge1_Node000001_Node000002"><a xlink:title=" ">
<path fill="none" stroke="#63b8ff" d="M150.43,-56.39C185.22,-52.97 225.52,-49.01 258.62,-45.76"/>
<polygon fill="#63b8ff" stroke="#63b8ff" points="150.45,-52.88 140.84,-57.34 151.14,-59.84 150.45,-52.88"/>
</a>
</g>
</g>
<!-- Node3 -->
<g id="Node000003" class="node">
<title>Node3</title>
<g id="a_Node000003"><a xlink:href="classtriggeralgs_1_1TCMakerMichelElectronAlgorithm_1_1Window.html" target="_top" xlink:title=" ">
<polygon fill="white" stroke="#666666" points="136.38,-30.5 2.62,-30.5 2.62,0 136.38,0 136.38,-30.5"/>
<text text-anchor="start" x="10.62" y="-17" font-family="Helvetica,sans-Serif" font-size="10.00">triggeralgs::TCMakerMichel</text>
<text text-anchor="middle" x="69.5" y="-5.75" font-family="Helvetica,sans-Serif" font-size="10.00">ElectronAlgorithm::Window</text>
</a>
</g>
</g>
<!-- Node3&#45;&gt;Node1 -->
<g id="edge2_Node000001_Node000003" class="edge">
<title>Node3&#45;&gt;Node1</title>
<g id="a_edge2_Node000001_Node000003"><a xlink:title=" ">
<path fill="none" stroke="#9a32cd" stroke-dasharray="5,2" d="M147.92,-22.55C183.27,-25.89 224.71,-29.8 258.59,-33"/>
<polygon fill="#9a32cd" stroke="#9a32cd" points="148.46,-19.09 138.18,-21.64 147.8,-26.06 148.46,-19.09"/>
</a>
</g>
<text text-anchor="middle" x="199" y="-33" font-family="Helvetica,sans-Serif" font-size="10.00" fill="grey"> m_current_window</text>
</g>
</g>
</svg>
