<?xml version="1.0" encoding="UTF-8" standalone="no"?>
<!DOCTYPE svg PUBLIC "-//W3C//DTD SVG 1.1//EN"
 "http://www.w3.org/Graphics/SVG/1.1/DTD/svg11.dtd">
<!-- Generated by graphviz version 9.0.0 (20230911.1827)
 -->
<!-- Title: dunedaq::timing::MasterMuxDesign Pages: 1 -->
<svg width="964pt" height="120pt"
 viewBox="0.00 0.00 964.25 119.50" xmlns="http://www.w3.org/2000/svg" xmlns:xlink="http://www.w3.org/1999/xlink">
<g id="graph0" class="graph" transform="scale(1 1) rotate(0) translate(4 115.5)">
<title>dunedaq::timing::MasterMuxDesign</title>
<!-- Node1 -->
<g id="Node000001" class="node">
<title>Node1</title>
<g id="a_Node000001"><a xlink:title="Class for PDI timing master design on mux board.">
<polygon fill="#999999" stroke="#666666" points="956.25,-89.5 820.25,-89.5 820.25,-59 956.25,-59 956.25,-89.5"/>
<text text-anchor="start" x="828.25" y="-76" font-family="Helvetica,sans-Serif" font-size="10.00">dunedaq::timing::MasterMux</text>
<text text-anchor="middle" x="888.25" y="-64.75" font-family="Helvetica,sans-Serif" font-size="10.00">Design</text>
</a>
</g>
</g>
<!-- Node2 -->
<g id="Node000002" class="node">
<title>Node2</title>
<g id="a_Node000002"><a xlink:href="classdunedaq_1_1timing_1_1SFPMuxDesignInterface.html" target="_top" xlink:title="Class for timing fanout designs.">
<polygon fill="white" stroke="#666666" points="784.25,-111.5 628.75,-111.5 628.75,-81 784.25,-81 784.25,-111.5"/>
<text text-anchor="start" x="636.75" y="-98" font-family="Helvetica,sans-Serif" font-size="10.00">dunedaq::timing::SFPMuxDesign</text>
<text text-anchor="middle" x="706.5" y="-86.75" font-family="Helvetica,sans-Serif" font-size="10.00">Interface</text>
</a>
</g>
</g>
<!-- Node2&#45;&gt;Node1 -->
<g id="edge1_Node000001_Node000002" class="edge">
<title>Node2&#45;&gt;Node1</title>
<g id="a_edge1_Node000001_Node000002"><a xlink:title=" ">
<path fill="none" stroke="#63b8ff" d="M795.93,-85.43C804.04,-84.43 812.16,-83.44 820.03,-82.48"/>
<polygon fill="#63b8ff" stroke="#63b8ff" points="795.52,-81.95 786.01,-86.64 796.37,-88.9 795.52,-81.95"/>
</a>
</g>
</g>
<!-- Node3 -->
<g id="Node000003" class="node">
<title>Node3</title>
<g id="a_Node000003"><a xlink:href="classdunedaq_1_1timing_1_1TopDesignInterface.html" target="_top" xlink:title="Base class for timing top design nodes.">
<polygon fill="white" stroke="#666666" points="408.75,-73.5 274.25,-73.5 274.25,-43 408.75,-43 408.75,-73.5"/>
<text text-anchor="start" x="282.25" y="-60" font-family="Helvetica,sans-Serif" font-size="10.00">dunedaq::timing::TopDesign</text>
<text text-anchor="middle" x="341.5" y="-48.75" font-family="Helvetica,sans-Serif" font-size="10.00">Interface</text>
</a>
</g>
</g>
<!-- Node3&#45;&gt;Node2 -->
<g id="edge2_Node000002_Node000003" class="edge">
<title>Node3&#45;&gt;Node2</title>
<g id="a_edge2_Node000002_Node000003"><a xlink:title=" ">
<path fill="none" stroke="#63b8ff" d="M420.32,-73.64C428.55,-74.99 436.81,-76.23 444.75,-77.25 506.2,-85.17 576.25,-90.05 628.26,-92.87"/>
<polygon fill="#63b8ff" stroke="#63b8ff" points="421.1,-70.22 410.65,-71.99 419.92,-77.12 421.1,-70.22"/>
</a>
</g>
</g>
<!-- Node7 -->
<g id="Node000007" class="node">
<title>Node7</title>
<g id="a_Node000007"><a xlink:href="classdunedaq_1_1timing_1_1TopDesign.html" target="_top" xlink:title="Base class for timing top design nodes with IO class.">
<polygon fill="white" stroke="#666666" points="586,-67.88 451.5,-67.88 451.5,-48.62 586,-48.62 586,-67.88"/>
<text text-anchor="middle" x="518.75" y="-54.38" font-family="Helvetica,sans-Serif" font-size="10.00">dunedaq::timing::TopDesign</text>
</a>
</g>
</g>
<!-- Node3&#45;&gt;Node7 -->
<g id="edge7_Node000007_Node000003" class="edge">
<title>Node3&#45;&gt;Node7</title>
<g id="a_edge7_Node000007_Node000003"><a xlink:title=" ">
<path fill="none" stroke="#63b8ff" d="M420.26,-58.25C430.56,-58.25 441.03,-58.25 451.11,-58.25"/>
<polygon fill="#63b8ff" stroke="#63b8ff" points="420.27,-54.75 410.27,-58.25 420.27,-61.75 420.27,-54.75"/>
</a>
</g>
</g>
<!-- Node8 -->
<g id="Node000008" class="node">
<title>Node8</title>
<g id="a_Node000008"><a xlink:href="classdunedaq_1_1timing_1_1MasterDesignInterface.html" target="_top" xlink:title="Base class for timing master designs.">
<polygon fill="white" stroke="#666666" points="592.75,-30.5 444.75,-30.5 444.75,0 592.75,0 592.75,-30.5"/>
<text text-anchor="start" x="452.75" y="-17" font-family="Helvetica,sans-Serif" font-size="10.00">dunedaq::timing::MasterDesign</text>
<text text-anchor="middle" x="518.75" y="-5.75" font-family="Helvetica,sans-Serif" font-size="10.00">Interface</text>
</a>
</g>
</g>
<!-- Node3&#45;&gt;Node8 -->
<g id="edge9_Node000008_Node000003" class="edge">
<title>Node3&#45;&gt;Node8</title>
<g id="a_edge9_Node000008_Node000003"><a xlink:title=" ">
<path fill="none" stroke="#63b8ff" d="M417.29,-39.9C429.42,-36.92 441.89,-33.86 453.74,-30.96"/>
<polygon fill="#63b8ff" stroke="#63b8ff" points="416.61,-36.46 407.73,-42.24 418.28,-43.26 416.61,-36.46"/>
</a>
</g>
</g>
<!-- Node4 -->
<g id="Node000004" class="node">
<title>Node4</title>
<g id="a_Node000004"><a xlink:href="classdunedaq_1_1timing_1_1TimingNode.html" target="_top" xlink:title="Base class for timing nodes.">
<polygon fill="white" stroke="#666666" points="238.25,-67.88 97.75,-67.88 97.75,-48.62 238.25,-48.62 238.25,-67.88"/>
<text text-anchor="middle" x="168" y="-54.38" font-family="Helvetica,sans-Serif" font-size="10.00">dunedaq::timing::TimingNode</text>
</a>
</g>
</g>
<!-- Node4&#45;&gt;Node3 -->
<g id="edge3_Node000003_Node000004" class="edge">
<title>Node4&#45;&gt;Node3</title>
<g id="a_edge3_Node000003_Node000004"><a xlink:title=" ">
<path fill="none" stroke="#63b8ff" d="M249.62,-58.25C257.7,-58.25 265.85,-58.25 273.76,-58.25"/>
<polygon fill="#63b8ff" stroke="#63b8ff" points="249.77,-54.75 239.77,-58.25 249.77,-61.75 249.77,-54.75"/>
</a>
</g>
</g>
<!-- Node5 -->
<g id="Node000005" class="node">
<title>Node5</title>
<g id="a_Node000005"><a xlink:title=" ">
<polygon fill="white" stroke="#666666" points="61.75,-67.88 0,-67.88 0,-48.62 61.75,-48.62 61.75,-67.88"/>
<text text-anchor="middle" x="30.88" y="-54.38" font-family="Helvetica,sans-Serif" font-size="10.00">uhal::Node</text>
</a>
</g>
</g>
<!-- Node5&#45;&gt;Node4 -->
<g id="edge4_Node000004_Node000005" class="edge">
<title>Node5&#45;&gt;Node4</title>
<g id="a_edge4_Node000004_Node000005"><a xlink:title=" ">
<path fill="none" stroke="#63b8ff" d="M73.58,-58.25C81.14,-58.25 89.2,-58.25 97.3,-58.25"/>
<polygon fill="#63b8ff" stroke="#63b8ff" points="73.71,-54.75 63.71,-58.25 73.71,-61.75 73.71,-54.75"/>
</a>
</g>
</g>
<!-- Node6 -->
<g id="Node000006" class="node">
<title>Node6</title>
<g id="a_Node000006"><a xlink:href="classdunedaq_1_1timing_1_1MasterDesign.html" target="_top" xlink:title="Base class for timing master designs.">
<polygon fill="white" stroke="#666666" points="780.5,-62.88 632.5,-62.88 632.5,-43.62 780.5,-43.62 780.5,-62.88"/>
<text text-anchor="middle" x="706.5" y="-49.38" font-family="Helvetica,sans-Serif" font-size="10.00">dunedaq::timing::MasterDesign</text>
</a>
</g>
</g>
<!-- Node6&#45;&gt;Node1 -->
<g id="edge5_Node000001_Node000006" class="edge">
<title>Node6&#45;&gt;Node1</title>
<g id="a_edge5_Node000001_Node000006"><a xlink:title=" ">
<path fill="none" stroke="#63b8ff" d="M792.16,-63.14C801.46,-64.23 810.84,-65.32 819.9,-66.38"/>
<polygon fill="#63b8ff" stroke="#63b8ff" points="792.71,-59.68 782.37,-62 791.9,-66.63 792.71,-59.68"/>
</a>
</g>
</g>
<!-- Node7&#45;&gt;Node6 -->
<g id="edge6_Node000006_Node000007" class="edge">
<title>Node7&#45;&gt;Node6</title>
<g id="a_edge6_Node000006_Node000007"><a xlink:title=" ">
<path fill="none" stroke="#63b8ff" d="M597.61,-56.15C609.06,-55.85 620.83,-55.53 632.19,-55.22"/>
<polygon fill="#63b8ff" stroke="#63b8ff" points="597.7,-52.65 587.8,-56.42 597.89,-59.65 597.7,-52.65"/>
</a>
</g>
</g>
<!-- Node8&#45;&gt;Node6 -->
<g id="edge8_Node000006_Node000008" class="edge">
<title>Node8&#45;&gt;Node6</title>
<g id="a_edge8_Node000006_Node000008"><a xlink:title=" ">
<path fill="none" stroke="#63b8ff" d="M604.39,-32.57C622.06,-36.18 640.14,-39.88 656.03,-43.13"/>
<polygon fill="#63b8ff" stroke="#63b8ff" points="605.14,-29.15 594.65,-30.57 603.74,-36.01 605.14,-29.15"/>
</a>
</g>
</g>
</g>
</svg>
