<?xml version="1.0" encoding="UTF-8" standalone="no"?>
<!DOCTYPE svg PUBLIC "-//W3C//DTD SVG 1.1//EN"
 "http://www.w3.org/Graphics/SVG/1.1/DTD/svg11.dtd">
<!-- Generated by graphviz version 9.0.0 (20230911.1827)
 -->
<!-- Title: dunedaq::fdreadoutlibs::opmon::DummyConsumerInfo Pages: 1 -->
<svg width="302pt" height="128pt"
 viewBox="0.00 0.00 302.25 127.50" xmlns="http://www.w3.org/2000/svg" xmlns:xlink="http://www.w3.org/1999/xlink">
<g id="graph0" class="graph" transform="scale(1 1) rotate(0) translate(4 123.5)">
<title>dunedaq::fdreadoutlibs::opmon::DummyConsumerInfo</title>
<!-- Node1 -->
<g id="Node000001" class="node">
<title>Node1</title>
<g id="a_Node000001"><a xlink:title=" ">
<polygon fill="#999999" stroke="#666666" points="216.25,-30.5 68.25,-30.5 68.25,0 216.25,0 216.25,-30.5"/>
<text text-anchor="start" x="76.25" y="-17" font-family="Helvetica,sans-Serif" font-size="10.00">dunedaq::fdreadoutlibs</text>
<text text-anchor="middle" x="142.25" y="-5.75" font-family="Helvetica,sans-Serif" font-size="10.00">::opmon::DummyConsumerInfo</text>
</a>
</g>
</g>
<!-- Node2 -->
<g id="Node000002" class="node">
<title>Node2</title>
<g id="a_Node000002"><a xlink:title=" ">
<polygon fill="white" stroke="#666666" points="128.5,-108.25 0,-108.25 0,-89 128.5,-89 128.5,-108.25"/>
<text text-anchor="middle" x="64.25" y="-94.75" font-family="Helvetica,sans-Serif" font-size="10.00">google::protobuf::Message</text>
</a>
</g>
</g>
<!-- Node2&#45;&gt;Node1 -->
<g id="edge1_Node000001_Node000002" class="edge">
<title>Node2&#45;&gt;Node1</title>
<g id="a_edge1_Node000001_Node000002"><a xlink:title=" ">
<path fill="none" stroke="#63b8ff" d="M80.8,-80.35C94.92,-65.62 115,-44.68 128.31,-30.79"/>
<polygon fill="#63b8ff" stroke="#63b8ff" points="78.34,-77.87 73.94,-87.51 83.39,-82.72 78.34,-77.87"/>
</a>
</g>
</g>
<!-- Node3 -->
<g id="Node000003" class="node">
<title>Node3</title>
<g id="a_Node000003"><a xlink:href="structdunedaq_1_1fdreadoutlibs_1_1opmon_1_1DummyConsumerInfo_1_1Impl__.html" target="_top" xlink:title=" ">
<polygon fill="white" stroke="#666666" points="294.25,-119.5 146.25,-119.5 146.25,-77.75 294.25,-77.75 294.25,-119.5"/>
<text text-anchor="start" x="154.25" y="-106" font-family="Helvetica,sans-Serif" font-size="10.00">dunedaq::fdreadoutlibs</text>
<text text-anchor="start" x="154.25" y="-94.75" font-family="Helvetica,sans-Serif" font-size="10.00">::opmon::DummyConsumerInfo</text>
<text text-anchor="middle" x="220.25" y="-83.5" font-family="Helvetica,sans-Serif" font-size="10.00">::Impl_</text>
</a>
</g>
</g>
<!-- Node3&#45;&gt;Node1 -->
<g id="edge2_Node000001_Node000003" class="edge">
<title>Node3&#45;&gt;Node1</title>
<g id="a_edge2_Node000001_Node000003"><a xlink:title=" ">
<path fill="none" stroke="#9a32cd" stroke-dasharray="5,2" d="M193.1,-69.3C180.64,-56.31 166.41,-41.45 156.17,-30.77"/>
<polygon fill="#9a32cd" stroke="#9a32cd" points="190.48,-71.62 199.92,-76.42 195.53,-66.78 190.48,-71.62"/>
</a>
</g>
<text text-anchor="middle" x="199.62" y="-50.25" font-family="Helvetica,sans-Serif" font-size="10.00" fill="grey"> _impl_</text>
</g>
</g>
</svg>
