<?xml version="1.0" encoding="UTF-8" standalone="no"?>
<!DOCTYPE svg PUBLIC "-//W3C//DTD SVG 1.1//EN"
 "http://www.w3.org/Graphics/SVG/1.1/DTD/svg11.dtd">
<!-- Generated by graphviz version 9.0.0 (20230911.1827)
 -->
<!-- Title: dunedaq::datahandlinglibs::DefaultSkipListRequestHandler&lt; T &gt; Pages: 1 -->
<svg width="752pt" height="61pt"
 viewBox="0.00 0.00 752.25 61.00" xmlns="http://www.w3.org/2000/svg" xmlns:xlink="http://www.w3.org/1999/xlink">
<g id="graph0" class="graph" transform="scale(1 1) rotate(0) translate(4 57)">
<title>dunedaq::datahandlinglibs::DefaultSkipListRequestHandler&lt; T &gt;</title>
<!-- Node1 -->
<g id="Node000001" class="node">
<title>Node1</title>
<g id="a_Node000001"><a xlink:title=" ">
<polygon fill="#999999" stroke="#666666" points="744.25,-41.75 564.75,-41.75 564.75,-11.25 744.25,-11.25 744.25,-41.75"/>
<text text-anchor="start" x="572.75" y="-28.25" font-family="Helvetica,sans-Serif" font-size="10.00">dunedaq::datahandlinglibs</text>
<text text-anchor="middle" x="654.5" y="-17" font-family="Helvetica,sans-Serif" font-size="10.00">::DefaultSkipListRequestHandler&lt; T &gt;</text>
</a>
</g>
</g>
<!-- Node2 -->
<g id="Node000002" class="node">
<title>Node2</title>
<g id="a_Node000002"><a xlink:href="classdunedaq_1_1datahandlinglibs_1_1DefaultRequestHandlerModel.html" target="_top" xlink:title=" ">
<polygon fill="white" stroke="#666666" points="528.75,-53 348.5,-53 348.5,0 528.75,0 528.75,-53"/>
<text text-anchor="start" x="356.5" y="-39.5" font-family="Helvetica,sans-Serif" font-size="10.00">dunedaq::datahandlinglibs</text>
<text text-anchor="start" x="356.5" y="-28.25" font-family="Helvetica,sans-Serif" font-size="10.00">::DefaultRequestHandlerModel</text>
<text text-anchor="start" x="356.5" y="-17" font-family="Helvetica,sans-Serif" font-size="10.00">&lt; T, datahandlinglibs::SkipListLatency</text>
<text text-anchor="middle" x="438.62" y="-5.75" font-family="Helvetica,sans-Serif" font-size="10.00">BufferModel&lt; T &gt; &gt;</text>
</a>
</g>
</g>
<!-- Node2&#45;&gt;Node1 -->
<g id="edge1_Node000001_Node000002" class="edge">
<title>Node2&#45;&gt;Node1</title>
<g id="a_edge1_Node000001_Node000002"><a xlink:title=" ">
<path fill="none" stroke="#63b8ff" d="M540.38,-26.5C548.4,-26.5 556.46,-26.5 564.39,-26.5"/>
<polygon fill="#63b8ff" stroke="#63b8ff" points="540.6,-23 530.6,-26.5 540.6,-30 540.6,-23"/>
</a>
</g>
</g>
<!-- Node3 -->
<g id="Node000003" class="node">
<title>Node3</title>
<g id="a_Node000003"><a xlink:href="classdunedaq_1_1datahandlinglibs_1_1RequestHandlerConcept.html" target="_top" xlink:title=" ">
<polygon fill="white" stroke="#666666" points="312.5,-47.38 136.75,-47.38 136.75,-5.62 312.5,-5.62 312.5,-47.38"/>
<text text-anchor="start" x="144.75" y="-33.88" font-family="Helvetica,sans-Serif" font-size="10.00">dunedaq::datahandlinglibs</text>
<text text-anchor="start" x="144.75" y="-22.62" font-family="Helvetica,sans-Serif" font-size="10.00">::RequestHandlerConcept</text>
<text text-anchor="middle" x="224.62" y="-11.38" font-family="Helvetica,sans-Serif" font-size="10.00">&lt; ReadoutType, LatencyBufferType &gt;</text>
</a>
</g>
</g>
<!-- Node3&#45;&gt;Node2 -->
<g id="edge2_Node000002_Node000003" class="edge">
<title>Node3&#45;&gt;Node2</title>
<g id="a_edge2_Node000002_Node000003"><a xlink:title=" ">
<path fill="none" stroke="#63b8ff" d="M324.04,-26.5C332.06,-26.5 340.13,-26.5 348.07,-26.5"/>
<polygon fill="#63b8ff" stroke="#63b8ff" points="324.28,-23 314.28,-26.5 324.28,-30 324.28,-23"/>
</a>
</g>
</g>
<!-- Node4 -->
<g id="Node000004" class="node">
<title>Node4</title>
<g id="a_Node000004"><a xlink:href="classdunedaq_1_1opmonlib_1_1MonitorableObject.html" target="_top" xlink:title=" ">
<polygon fill="white" stroke="#666666" points="100.75,-41.75 0,-41.75 0,-11.25 100.75,-11.25 100.75,-41.75"/>
<text text-anchor="start" x="8" y="-28.25" font-family="Helvetica,sans-Serif" font-size="10.00">dunedaq::opmonlib::</text>
<text text-anchor="middle" x="50.38" y="-17" font-family="Helvetica,sans-Serif" font-size="10.00">MonitorableObject</text>
</a>
</g>
</g>
<!-- Node4&#45;&gt;Node3 -->
<g id="edge3_Node000003_Node000004" class="edge">
<title>Node4&#45;&gt;Node3</title>
<g id="a_edge3_Node000003_Node000004"><a xlink:title=" ">
<path fill="none" stroke="#63b8ff" d="M112.61,-26.5C120.29,-26.5 128.27,-26.5 136.26,-26.5"/>
<polygon fill="#63b8ff" stroke="#63b8ff" points="112.71,-23 102.71,-26.5 112.71,-30 112.71,-23"/>
</a>
</g>
</g>
</g>
</svg>
