<?xml version="1.0" encoding="UTF-8" standalone="no"?>
<!DOCTYPE svg PUBLIC "-//W3C//DTD SVG 1.1//EN"
 "http://www.w3.org/Graphics/SVG/1.1/DTD/svg11.dtd">
<!-- Generated by graphviz version 9.0.0 (20230911.1827)
 -->
<!-- Title: rawdatautils.unpack.dataclasses.TriggerRecordData Pages: 1 -->
<svg width="238pt" height="116pt"
 viewBox="0.00 0.00 238.38 116.25" xmlns="http://www.w3.org/2000/svg" xmlns:xlink="http://www.w3.org/1999/xlink">
<g id="graph0" class="graph" transform="scale(1 1) rotate(0) translate(4 112.25)">
<title>rawdatautils.unpack.dataclasses.TriggerRecordData</title>
<!-- Node1 -->
<g id="Node000001" class="node">
<title>Node1</title>
<g id="a_Node000001"><a xlink:title=" ">
<polygon fill="#999999" stroke="#666666" points="221.25,-30.5 62,-30.5 62,0 221.25,0 221.25,-30.5"/>
<text text-anchor="start" x="70" y="-17" font-family="Helvetica,sans-Serif" font-size="10.00">rawdatautils.unpack.dataclasses.</text>
<text text-anchor="middle" x="141.62" y="-5.75" font-family="Helvetica,sans-Serif" font-size="10.00">TriggerRecordData</text>
</a>
</g>
</g>
<!-- Node2 -->
<g id="Node000002" class="node">
<title>Node2</title>
<g id="a_Node000002"><a xlink:href="classrawdatautils_1_1unpack_1_1dataclasses_1_1RecordDataBase.html" target="_top" xlink:title=" ">
<polygon fill="white" stroke="#666666" points="159.25,-108.25 0,-108.25 0,-77.75 159.25,-77.75 159.25,-108.25"/>
<text text-anchor="start" x="8" y="-94.75" font-family="Helvetica,sans-Serif" font-size="10.00">rawdatautils.unpack.dataclasses.</text>
<text text-anchor="middle" x="79.62" y="-83.5" font-family="Helvetica,sans-Serif" font-size="10.00">RecordDataBase</text>
</a>
</g>
</g>
<!-- Node2&#45;&gt;Node1 -->
<g id="edge1_Node000001_Node000002" class="edge">
<title>Node2&#45;&gt;Node1</title>
<g id="a_edge1_Node000001_Node000002"><a xlink:title=" ">
<path fill="none" stroke="#63b8ff" d="M98.83,-68.54C108.92,-56.21 120.97,-41.49 129.71,-30.81"/>
<polygon fill="#63b8ff" stroke="#63b8ff" points="96.16,-66.27 92.54,-76.22 101.58,-70.7 96.16,-66.27"/>
</a>
</g>
</g>
<!-- Node3 -->
<g id="Node000003" class="node">
<title>Node3</title>
<g id="a_Node000003"><a xlink:title=" ">
<polygon fill="white" stroke="#666666" points="230.38,-102.62 176.88,-102.62 176.88,-83.38 230.38,-83.38 230.38,-102.62"/>
<text text-anchor="middle" x="203.62" y="-89.12" font-family="Helvetica,sans-Serif" font-size="10.00">datetime</text>
</a>
</g>
</g>
<!-- Node3&#45;&gt;Node1 -->
<g id="edge2_Node000001_Node000003" class="edge">
<title>Node3&#45;&gt;Node1</title>
<g id="a_edge2_Node000001_Node000003"><a xlink:title=" ">
<path fill="none" stroke="#9a32cd" stroke-dasharray="5,2" d="M189.2,-74.37C178.4,-61.19 163.81,-43.36 153.65,-30.94"/>
<polygon fill="#9a32cd" stroke="#9a32cd" points="186.27,-76.32 195.31,-81.84 191.69,-71.89 186.27,-76.32"/>
</a>
</g>
<text text-anchor="middle" x="202.25" y="-50.25" font-family="Helvetica,sans-Serif" font-size="10.00" fill="grey"> trigger_time</text>
</g>
</g>
</svg>
