<?xml version="1.0" encoding="UTF-8" standalone="no"?>
<!DOCTYPE svg PUBLIC "-//W3C//DTD SVG 1.1//EN"
 "http://www.w3.org/Graphics/SVG/1.1/DTD/svg11.dtd">
<!-- Generated by graphviz version 9.0.0 (20230911.1827)
 -->
<!-- Title: dunedaq::timing::IONode Pages: 1 -->
<svg width="786pt" height="212pt"
 viewBox="0.00 0.00 786.25 212.25" xmlns="http://www.w3.org/2000/svg" xmlns:xlink="http://www.w3.org/1999/xlink">
<g id="graph0" class="graph" transform="scale(1 1) rotate(0) translate(4 208.25)">
<title>dunedaq::timing::IONode</title>
<!-- Node1 -->
<g id="Node000001" class="node">
<title>Node1</title>
<g id="a_Node000001"><a xlink:title="Base class for timing IO nodes.">
<polygon fill="#999999" stroke="#666666" points="396,-111.25 274.25,-111.25 274.25,-92 396,-92 396,-111.25"/>
<text text-anchor="middle" x="335.12" y="-97.75" font-family="Helvetica,sans-Serif" font-size="10.00">dunedaq::timing::IONode</text>
</a>
</g>
</g>
<!-- Node4 -->
<g id="Node000004" class="node">
<title>Node4</title>
<g id="a_Node000004"><a xlink:href="classdunedaq_1_1timing_1_1FMCIONode.html" target="_top" xlink:title="Class for the timing FMC board.">
<polygon fill="white" stroke="#666666" points="583,-204.25 440.25,-204.25 440.25,-185 583,-185 583,-204.25"/>
<text text-anchor="middle" x="511.62" y="-190.75" font-family="Helvetica,sans-Serif" font-size="10.00">dunedaq::timing::FMCIONode</text>
</a>
</g>
</g>
<!-- Node1&#45;&gt;Node4 -->
<g id="edge3_Node000001_Node000004" class="edge">
<title>Node1&#45;&gt;Node4</title>
<g id="a_edge3_Node000001_Node000004"><a xlink:title=" ">
<path fill="none" stroke="#63b8ff" d="M353.63,-119.27C371.71,-136.47 401.5,-162.1 432,-176.62 438.57,-179.76 445.72,-182.36 452.94,-184.52"/>
<polygon fill="#63b8ff" stroke="#63b8ff" points="356.44,-117.12 346.83,-112.65 351.55,-122.13 356.44,-117.12"/>
</a>
</g>
</g>
<!-- Node5 -->
<g id="Node000005" class="node">
<title>Node5</title>
<g id="a_Node000005"><a xlink:href="classdunedaq_1_1timing_1_1GIBIONode.html" target="_top" xlink:title="Class for the timing FMC board.">
<polygon fill="white" stroke="#666666" points="581.12,-167.25 442.12,-167.25 442.12,-148 581.12,-148 581.12,-167.25"/>
<text text-anchor="middle" x="511.62" y="-153.75" font-family="Helvetica,sans-Serif" font-size="10.00">dunedaq::timing::GIBIONode</text>
</a>
</g>
</g>
<!-- Node1&#45;&gt;Node5 -->
<g id="edge4_Node000001_Node000005" class="edge">
<title>Node1&#45;&gt;Node5</title>
<g id="a_edge4_Node000001_Node000005"><a xlink:title=" ">
<path fill="none" stroke="#63b8ff" d="M369.04,-116.11C387.34,-123.8 410.66,-133 432,-139.62 441.36,-142.53 451.48,-145.2 461.25,-147.53"/>
<polygon fill="#63b8ff" stroke="#63b8ff" points="370.6,-112.97 360.03,-112.27 367.85,-119.41 370.6,-112.97"/>
</a>
</g>
</g>
<!-- Node6 -->
<g id="Node000006" class="node">
<title>Node6</title>
<g id="a_Node000006"><a xlink:href="classdunedaq_1_1timing_1_1MIBV2IONode.html" target="_top" xlink:title="Class for the timing FMC board.">
<polygon fill="white" stroke="#666666" points="587.5,-130.25 435.75,-130.25 435.75,-111 587.5,-111 587.5,-130.25"/>
<text text-anchor="middle" x="511.62" y="-116.75" font-family="Helvetica,sans-Serif" font-size="10.00">dunedaq::timing::MIBV2IONode</text>
</a>
</g>
</g>
<!-- Node1&#45;&gt;Node6 -->
<g id="edge5_Node000001_Node000006" class="edge">
<title>Node1&#45;&gt;Node6</title>
<g id="a_edge5_Node000001_Node000006"><a xlink:title=" ">
<path fill="none" stroke="#63b8ff" d="M407.61,-109.41C416.76,-110.4 426.15,-111.43 435.36,-112.43"/>
<polygon fill="#63b8ff" stroke="#63b8ff" points="408,-105.93 397.68,-108.33 407.25,-112.89 408,-105.93"/>
</a>
</g>
</g>
<!-- Node7 -->
<g id="Node000007" class="node">
<title>Node7</title>
<g id="a_Node000007"><a xlink:href="classdunedaq_1_1timing_1_1SFPMuxIONode.html" target="_top" xlink:title="Base class for boards which have a physical SFP mux.">
<polygon fill="white" stroke="#666666" points="591.25,-93.25 432,-93.25 432,-74 591.25,-74 591.25,-93.25"/>
<text text-anchor="middle" x="511.62" y="-79.75" font-family="Helvetica,sans-Serif" font-size="10.00">dunedaq::timing::SFPMuxIONode</text>
</a>
</g>
</g>
<!-- Node1&#45;&gt;Node7 -->
<g id="edge6_Node000001_Node000007" class="edge">
<title>Node1&#45;&gt;Node7</title>
<g id="a_edge6_Node000001_Node000007"><a xlink:title=" ">
<path fill="none" stroke="#63b8ff" d="M407.63,-94.25C415.55,-93.43 423.65,-92.6 431.66,-91.77"/>
<polygon fill="#63b8ff" stroke="#63b8ff" points="407.27,-90.77 397.68,-95.28 407.99,-97.73 407.27,-90.77"/>
</a>
</g>
</g>
<!-- Node11 -->
<g id="Node000011" class="node">
<title>Node11</title>
<g id="a_Node000011"><a xlink:href="classdunedaq_1_1timing_1_1SIMIONode.html" target="_top" xlink:title="Class for the timing simulation IO.">
<polygon fill="white" stroke="#666666" points="581.5,-56.25 441.75,-56.25 441.75,-37 581.5,-37 581.5,-56.25"/>
<text text-anchor="middle" x="511.62" y="-42.75" font-family="Helvetica,sans-Serif" font-size="10.00">dunedaq::timing::SIMIONode</text>
</a>
</g>
</g>
<!-- Node1&#45;&gt;Node11 -->
<g id="edge10_Node000001_Node000011" class="edge">
<title>Node1&#45;&gt;Node11</title>
<g id="a_edge10_Node000001_Node000011"><a xlink:title=" ">
<path fill="none" stroke="#63b8ff" d="M370.07,-87.16C388.22,-79.77 411.09,-71.02 432,-64.62 441.51,-61.72 451.79,-59.04 461.68,-56.69"/>
<polygon fill="#63b8ff" stroke="#63b8ff" points="368.74,-83.92 360.83,-90.97 371.41,-90.39 368.74,-83.92"/>
</a>
</g>
</g>
<!-- Node12 -->
<g id="Node000012" class="node">
<title>Node12</title>
<g id="a_Node000012"><a xlink:href="classdunedaq_1_1timing_1_1TLUIONode.html" target="_top" xlink:title="Class for the TLU board.">
<polygon fill="white" stroke="#666666" points="582.25,-19.25 441,-19.25 441,0 582.25,0 582.25,-19.25"/>
<text text-anchor="middle" x="511.62" y="-5.75" font-family="Helvetica,sans-Serif" font-size="10.00">dunedaq::timing::TLUIONode</text>
</a>
</g>
</g>
<!-- Node1&#45;&gt;Node12 -->
<g id="edge11_Node000001_Node000012" class="edge">
<title>Node1&#45;&gt;Node12</title>
<g id="a_edge11_Node000001_Node000012"><a xlink:title=" ">
<path fill="none" stroke="#63b8ff" d="M353.97,-83.95C372.11,-66.98 401.77,-41.9 432,-27.62 438.71,-24.46 446.01,-21.83 453.37,-19.65"/>
<polygon fill="#63b8ff" stroke="#63b8ff" points="351.94,-81.05 347.14,-90.49 356.78,-86.11 351.94,-81.05"/>
</a>
</g>
</g>
<!-- Node2 -->
<g id="Node000002" class="node">
<title>Node2</title>
<g id="a_Node000002"><a xlink:href="classdunedaq_1_1timing_1_1TimingNode.html" target="_top" xlink:title="Base class for timing nodes.">
<polygon fill="white" stroke="#666666" points="238.25,-111.25 97.75,-111.25 97.75,-92 238.25,-92 238.25,-111.25"/>
<text text-anchor="middle" x="168" y="-97.75" font-family="Helvetica,sans-Serif" font-size="10.00">dunedaq::timing::TimingNode</text>
</a>
</g>
</g>
<!-- Node2&#45;&gt;Node1 -->
<g id="edge1_Node000001_Node000002" class="edge">
<title>Node2&#45;&gt;Node1</title>
<g id="a_edge1_Node000001_Node000002"><a xlink:title=" ">
<path fill="none" stroke="#63b8ff" d="M249.89,-101.62C257.95,-101.62 266.03,-101.62 273.82,-101.62"/>
<polygon fill="#63b8ff" stroke="#63b8ff" points="250.06,-98.13 240.06,-101.63 250.06,-105.13 250.06,-98.13"/>
</a>
</g>
</g>
<!-- Node3 -->
<g id="Node000003" class="node">
<title>Node3</title>
<g id="a_Node000003"><a xlink:title=" ">
<polygon fill="white" stroke="#666666" points="61.75,-111.25 0,-111.25 0,-92 61.75,-92 61.75,-111.25"/>
<text text-anchor="middle" x="30.88" y="-97.75" font-family="Helvetica,sans-Serif" font-size="10.00">uhal::Node</text>
</a>
</g>
</g>
<!-- Node3&#45;&gt;Node2 -->
<g id="edge2_Node000002_Node000003" class="edge">
<title>Node3&#45;&gt;Node2</title>
<g id="a_edge2_Node000002_Node000003"><a xlink:title=" ">
<path fill="none" stroke="#63b8ff" d="M73.58,-101.62C81.14,-101.62 89.2,-101.62 97.3,-101.62"/>
<polygon fill="#63b8ff" stroke="#63b8ff" points="73.71,-98.13 63.71,-101.63 73.71,-105.13 73.71,-98.13"/>
</a>
</g>
</g>
<!-- Node8 -->
<g id="Node000008" class="node">
<title>Node8</title>
<g id="a_Node000008"><a xlink:href="classdunedaq_1_1timing_1_1FIBIONode.html" target="_top" xlink:title="Class for the FIB board.">
<polygon fill="white" stroke="#666666" points="771.5,-130.25 634,-130.25 634,-111 771.5,-111 771.5,-130.25"/>
<text text-anchor="middle" x="702.75" y="-116.75" font-family="Helvetica,sans-Serif" font-size="10.00">dunedaq::timing::FIBIONode</text>
</a>
</g>
</g>
<!-- Node7&#45;&gt;Node8 -->
<g id="edge7_Node000007_Node000008" class="edge">
<title>Node7&#45;&gt;Node8</title>
<g id="a_edge7_Node000007_Node000008"><a xlink:title=" ">
<path fill="none" stroke="#63b8ff" d="M575.54,-95.93C599.76,-100.67 627.1,-106.02 650.13,-110.53"/>
<polygon fill="#63b8ff" stroke="#63b8ff" points="576.28,-92.51 565.79,-94.03 574.93,-99.38 576.28,-92.51"/>
</a>
</g>
</g>
<!-- Node9 -->
<g id="Node000009" class="node">
<title>Node9</title>
<g id="a_Node000009"><a xlink:href="classdunedaq_1_1timing_1_1MIBIONode.html" target="_top" xlink:title="Class for the timing FMC board.">
<polygon fill="white" stroke="#666666" points="772.62,-93.25 632.88,-93.25 632.88,-74 772.62,-74 772.62,-93.25"/>
<text text-anchor="middle" x="702.75" y="-79.75" font-family="Helvetica,sans-Serif" font-size="10.00">dunedaq::timing::MIBIONode</text>
</a>
</g>
</g>
<!-- Node7&#45;&gt;Node9 -->
<g id="edge8_Node000007_Node000009" class="edge">
<title>Node7&#45;&gt;Node9</title>
<g id="a_edge8_Node000007_Node000009"><a xlink:title=" ">
<path fill="none" stroke="#63b8ff" d="M602.94,-83.62C612.9,-83.62 622.93,-83.62 632.58,-83.62"/>
<polygon fill="#63b8ff" stroke="#63b8ff" points="603.25,-80.13 593.25,-83.63 603.25,-87.13 603.25,-80.13"/>
</a>
</g>
</g>
<!-- Node10 -->
<g id="Node000010" class="node">
<title>Node10</title>
<g id="a_Node000010"><a xlink:href="classdunedaq_1_1timing_1_1PC059IONode.html" target="_top" xlink:title="Class for the PC059 board.">
<polygon fill="white" stroke="#666666" points="778.25,-56.25 627.25,-56.25 627.25,-37 778.25,-37 778.25,-56.25"/>
<text text-anchor="middle" x="702.75" y="-42.75" font-family="Helvetica,sans-Serif" font-size="10.00">dunedaq::timing::PC059IONode</text>
</a>
</g>
</g>
<!-- Node7&#45;&gt;Node10 -->
<g id="edge9_Node000007_Node000010" class="edge">
<title>Node7&#45;&gt;Node10</title>
<g id="a_edge9_Node000007_Node000010"><a xlink:title=" ">
<path fill="none" stroke="#63b8ff" d="M575.54,-71.32C599.76,-66.58 627.1,-61.23 650.13,-56.72"/>
<polygon fill="#63b8ff" stroke="#63b8ff" points="574.93,-67.87 565.79,-73.22 576.28,-74.74 574.93,-67.87"/>
</a>
</g>
</g>
</g>
</svg>
