<?xml version="1.0" encoding="UTF-8" standalone="no"?>
<!DOCTYPE svg PUBLIC "-//W3C//DTD SVG 1.1//EN"
 "http://www.w3.org/Graphics/SVG/1.1/DTD/svg11.dtd">
<!-- Generated by graphviz version 9.0.0 (20230911.1827)
 -->
<!-- Title: dbe::actions::object::create Pages: 1 -->
<svg width="229pt" height="173pt"
 viewBox="0.00 0.00 228.75 172.50" xmlns="http://www.w3.org/2000/svg" xmlns:xlink="http://www.w3.org/1999/xlink">
<g id="graph0" class="graph" transform="scale(1 1) rotate(0) translate(4 168.5)">
<title>dbe::actions::object::create</title>
<!-- Node1 -->
<g id="Node000001" class="node">
<title>Node1</title>
<g id="a_Node000001"><a xlink:title=" ">
<polygon fill="#999999" stroke="#666666" points="184.25,-30.5 85.75,-30.5 85.75,0 184.25,0 184.25,-30.5"/>
<text text-anchor="start" x="93.75" y="-17" font-family="Helvetica,sans-Serif" font-size="10.00">dbe::actions::object</text>
<text text-anchor="middle" x="135" y="-5.75" font-family="Helvetica,sans-Serif" font-size="10.00">::create</text>
</a>
</g>
</g>
<!-- Node2 -->
<g id="Node000002" class="node">
<title>Node2</title>
<g id="a_Node000002"><a xlink:href="classdbe_1_1actions_1_1state.html" target="_top" xlink:title=" ">
<polygon fill="white" stroke="#666666" points="94,-102.62 0,-102.62 0,-83.38 94,-83.38 94,-102.62"/>
<text text-anchor="middle" x="47" y="-89.12" font-family="Helvetica,sans-Serif" font-size="10.00">dbe::actions::state</text>
</a>
</g>
</g>
<!-- Node2&#45;&gt;Node1 -->
<g id="edge1_Node000001_Node000002" class="edge">
<title>Node2&#45;&gt;Node1</title>
<g id="a_edge1_Node000001_Node000002"><a xlink:title=" ">
<path fill="none" stroke="#63b8ff" d="M66.15,-75.51C81.58,-62.23 103.09,-43.72 117.93,-30.94"/>
<polygon fill="#63b8ff" stroke="#63b8ff" points="63.88,-72.85 58.59,-82.03 68.45,-78.15 63.88,-72.85"/>
</a>
</g>
</g>
<!-- Node3 -->
<g id="Node000003" class="node">
<title>Node3</title>
<g id="a_Node000003"><a xlink:title=" ">
<polygon fill="white" stroke="#666666" points="92.5,-164.5 1.5,-164.5 1.5,-145.25 92.5,-145.25 92.5,-164.5"/>
<text text-anchor="middle" x="47" y="-151" font-family="Helvetica,sans-Serif" font-size="10.00">QUndoCommand</text>
</a>
</g>
</g>
<!-- Node3&#45;&gt;Node2 -->
<g id="edge2_Node000002_Node000003" class="edge">
<title>Node3&#45;&gt;Node2</title>
<g id="a_edge2_Node000002_Node000003"><a xlink:title=" ">
<path fill="none" stroke="#63b8ff" d="M47,-133.3C47,-122.88 47,-110.78 47,-102.79"/>
<polygon fill="#63b8ff" stroke="#63b8ff" points="43.5,-133.27 47,-143.27 50.5,-133.27 43.5,-133.27"/>
</a>
</g>
</g>
<!-- Node4 -->
<g id="Node000004" class="node">
<title>Node4</title>
<g id="a_Node000004"><a xlink:href="structdbe_1_1config__object__image.html" target="_top" xlink:title=" ">
<polygon fill="white" stroke="#666666" points="218,-108.25 112,-108.25 112,-77.75 218,-77.75 218,-108.25"/>
<text text-anchor="start" x="120" y="-94.75" font-family="Helvetica,sans-Serif" font-size="10.00">dbe::config_object</text>
<text text-anchor="middle" x="165" y="-83.5" font-family="Helvetica,sans-Serif" font-size="10.00">_image&lt; std::string &gt;</text>
</a>
</g>
</g>
<!-- Node4&#45;&gt;Node1 -->
<g id="edge3_Node000001_Node000004" class="edge">
<title>Node4&#45;&gt;Node1</title>
<g id="a_edge3_Node000001_Node000004"><a xlink:title=" ">
<path fill="none" stroke="#9a32cd" stroke-dasharray="5,2" d="M154.98,-66.71C150.26,-54.78 144.79,-40.96 140.77,-30.81"/>
<polygon fill="#9a32cd" stroke="#9a32cd" points="151.72,-67.98 158.66,-75.99 158.23,-65.4 151.72,-67.98"/>
</a>
</g>
<text text-anchor="middle" x="185.88" y="-50.25" font-family="Helvetica,sans-Serif" font-size="10.00" fill="grey"> this_object_key</text>
</g>
</g>
</svg>
