<?xml version="1.0" encoding="UTF-8" standalone="no"?>
<!DOCTYPE svg PUBLIC "-//W3C//DTD SVG 1.1//EN"
 "http://www.w3.org/Graphics/SVG/1.1/DTD/svg11.dtd">
<!-- Generated by graphviz version 9.0.0 (20230911.1827)
 -->
<!-- Title: tpglibs::NaiveThresholdProcessor Pages: 1 -->
<svg width="170pt" height="149pt"
 viewBox="0.00 0.00 169.50 149.00" xmlns="http://www.w3.org/2000/svg" xmlns:xlink="http://www.w3.org/1999/xlink">
<g id="graph0" class="graph" transform="scale(1 1) rotate(0) translate(4 145)">
<title>tpglibs::NaiveThresholdProcessor</title>
<!-- Node1 -->
<g id="Node000001" class="node">
<title>Node1</title>
<g id="a_Node000001"><a xlink:title="Naive signal processor: Passes signals above a threshold.">
<polygon fill="#999999" stroke="#666666" points="161.5,-19.25 0,-19.25 0,0 161.5,0 161.5,-19.25"/>
<text text-anchor="middle" x="80.75" y="-5.75" font-family="Helvetica,sans-Serif" font-size="10.00">tpglibs::NaiveThresholdProcessor</text>
</a>
</g>
</g>
<!-- Node2 -->
<g id="Node000002" class="node">
<title>Node2</title>
<g id="a_Node000002"><a xlink:href="classtpglibs_1_1NaiveProcessor.html" target="_top" xlink:title="Naive typed abstract signal processor.">
<polygon fill="white" stroke="#666666" points="140.12,-74.5 21.38,-74.5 21.38,-55.25 140.12,-55.25 140.12,-74.5"/>
<text text-anchor="middle" x="80.75" y="-61" font-family="Helvetica,sans-Serif" font-size="10.00">tpglibs::NaiveProcessor</text>
</a>
</g>
</g>
<!-- Node2&#45;&gt;Node1 -->
<g id="edge1_Node000001_Node000002" class="edge">
<title>Node2&#45;&gt;Node1</title>
<g id="a_edge1_Node000001_Node000002"><a xlink:title=" ">
<path fill="none" stroke="#63b8ff" d="M80.75,-43.63C80.75,-35.34 80.75,-26.17 80.75,-19.61"/>
<polygon fill="#63b8ff" stroke="#63b8ff" points="77.25,-43.57 80.75,-53.57 84.25,-43.57 77.25,-43.57"/>
</a>
</g>
</g>
<!-- Node3 -->
<g id="Node000003" class="node">
<title>Node3</title>
<g id="a_Node000003"><a xlink:href="classtpglibs_1_1AbstractProcessor.html" target="_top" xlink:title=" ">
<polygon fill="white" stroke="#666666" points="147.25,-141 14.25,-141 14.25,-110.5 147.25,-110.5 147.25,-141"/>
<text text-anchor="start" x="22.25" y="-127.5" font-family="Helvetica,sans-Serif" font-size="10.00">tpglibs::AbstractProcessor</text>
<text text-anchor="middle" x="80.75" y="-116.25" font-family="Helvetica,sans-Serif" font-size="10.00">&lt; std::array&lt; int16_t, 16 &gt; &gt;</text>
</a>
</g>
</g>
<!-- Node3&#45;&gt;Node2 -->
<g id="edge2_Node000002_Node000003" class="edge">
<title>Node3&#45;&gt;Node2</title>
<g id="a_edge2_Node000002_Node000003"><a xlink:title=" ">
<path fill="none" stroke="#63b8ff" d="M80.75,-98.73C80.75,-90.23 80.75,-81.34 80.75,-74.95"/>
<polygon fill="#63b8ff" stroke="#63b8ff" points="77.25,-98.68 80.75,-108.68 84.25,-98.68 77.25,-98.68"/>
</a>
</g>
</g>
</g>
</svg>
