<?xml version="1.0" encoding="UTF-8" standalone="no"?>
<!DOCTYPE svg PUBLIC "-//W3C//DTD SVG 1.1//EN"
 "http://www.w3.org/Graphics/SVG/1.1/DTD/svg11.dtd">
<!-- Generated by graphviz version 9.0.0 (20230911.1827)
 -->
<!-- Title: dbe::models::subtree_proxy Pages: 1 -->
<svg width="732pt" height="199pt"
 viewBox="0.00 0.00 731.75 199.25" xmlns="http://www.w3.org/2000/svg" xmlns:xlink="http://www.w3.org/1999/xlink">
<g id="graph0" class="graph" transform="scale(1 1) rotate(0) translate(4 195.25)">
<title>dbe::models::subtree_proxy</title>
<!-- Node1 -->
<g id="Node000001" class="node">
<title>Node1</title>
<g id="a_Node000001"><a xlink:title=" ">
<polygon fill="#999999" stroke="#666666" points="723.75,-116.88 619.25,-116.88 619.25,-86.38 723.75,-86.38 723.75,-116.88"/>
<text text-anchor="start" x="627.25" y="-103.38" font-family="Helvetica,sans-Serif" font-size="10.00">dbe::models::subtree</text>
<text text-anchor="middle" x="671.5" y="-92.12" font-family="Helvetica,sans-Serif" font-size="10.00">_proxy</text>
</a>
</g>
</g>
<!-- Node2 -->
<g id="Node000002" class="node">
<title>Node2</title>
<g id="a_Node000002"><a xlink:title=" ">
<polygon fill="white" stroke="#666666" points="481.62,-191.25 368.12,-191.25 368.12,-172 481.62,-172 481.62,-191.25"/>
<text text-anchor="middle" x="424.88" y="-177.75" font-family="Helvetica,sans-Serif" font-size="10.00">QSortFilterProxyModel</text>
</a>
</g>
</g>
<!-- Node2&#45;&gt;Node1 -->
<g id="edge1_Node000001_Node000002" class="edge">
<title>Node2&#45;&gt;Node1</title>
<g id="a_edge1_Node000001_Node000002"><a xlink:title=" ">
<path fill="none" stroke="#63b8ff" d="M488.22,-169.1C522.19,-161.41 564.64,-150.4 601.25,-136.62 615.37,-131.31 630.39,-123.95 642.82,-117.35"/>
<polygon fill="#63b8ff" stroke="#63b8ff" points="487.53,-165.67 478.52,-171.25 489.04,-172.5 487.53,-165.67"/>
</a>
</g>
</g>
<!-- Node3 -->
<g id="Node000003" class="node">
<title>Node3</title>
<g id="a_Node000003"><a xlink:href="classdbe_1_1TreeModelInterface.html" target="_top" xlink:title=" ">
<polygon fill="white" stroke="#666666" points="485,-154.25 364.75,-154.25 364.75,-135 485,-135 485,-154.25"/>
<text text-anchor="middle" x="424.88" y="-140.75" font-family="Helvetica,sans-Serif" font-size="10.00">dbe::TreeModelInterface</text>
</a>
</g>
</g>
<!-- Node3&#45;&gt;Node1 -->
<g id="edge2_Node000001_Node000003" class="edge">
<title>Node3&#45;&gt;Node1</title>
<g id="a_edge2_Node000001_Node000003"><a xlink:title=" ">
<path fill="none" stroke="#63b8ff" d="M496.29,-133.57C528.35,-128.38 566.77,-121.96 601.25,-115.62 607.04,-114.56 613.09,-113.4 619.11,-112.23"/>
<polygon fill="#63b8ff" stroke="#63b8ff" points="496.04,-130.06 486.72,-135.11 497.15,-136.97 496.04,-130.06"/>
</a>
</g>
</g>
<!-- Node4 -->
<g id="Node000004" class="node">
<title>Node4</title>
<g id="a_Node000004"><a xlink:href="classdbe_1_1model__common__impl.html" target="_top" xlink:title=" ">
<polygon fill="white" stroke="#666666" points="489.12,-116.88 360.62,-116.88 360.62,-86.38 489.12,-86.38 489.12,-116.88"/>
<text text-anchor="start" x="368.62" y="-103.38" font-family="Helvetica,sans-Serif" font-size="10.00">dbe::model_common_impl</text>
<text text-anchor="middle" x="424.88" y="-92.12" font-family="Helvetica,sans-Serif" font-size="10.00">&lt; subtree_proxy &gt;</text>
</a>
</g>
</g>
<!-- Node4&#45;&gt;Node1 -->
<g id="edge3_Node000001_Node000004" class="edge">
<title>Node4&#45;&gt;Node1</title>
<g id="a_edge3_Node000001_Node000004"><a xlink:title=" ">
<path fill="none" stroke="#63b8ff" d="M500.64,-101.62C539,-101.62 584.76,-101.62 619.11,-101.62"/>
<polygon fill="#63b8ff" stroke="#63b8ff" points="501.02,-98.13 491.02,-101.63 501.02,-105.13 501.02,-98.13"/>
</a>
</g>
</g>
<!-- Node5 -->
<g id="Node000005" class="node">
<title>Node5</title>
<g id="a_Node000005"><a xlink:href="classdbe_1_1model__common__interface.html" target="_top" xlink:title=" ">
<polygon fill="white" stroke="#666666" points="316.5,-111.25 168.5,-111.25 168.5,-92 316.5,-92 316.5,-111.25"/>
<text text-anchor="middle" x="242.5" y="-97.75" font-family="Helvetica,sans-Serif" font-size="10.00">dbe::model_common_interface</text>
</a>
</g>
</g>
<!-- Node5&#45;&gt;Node4 -->
<g id="edge4_Node000004_Node000005" class="edge">
<title>Node5&#45;&gt;Node4</title>
<g id="a_edge4_Node000004_Node000005"><a xlink:title=" ">
<path fill="none" stroke="#63b8ff" d="M328.12,-101.62C338.99,-101.62 349.96,-101.62 360.41,-101.62"/>
<polygon fill="#63b8ff" stroke="#63b8ff" points="328.38,-98.13 318.38,-101.63 328.38,-105.13 328.38,-98.13"/>
</a>
</g>
</g>
<!-- Node6 -->
<g id="Node000006" class="node">
<title>Node6</title>
<g id="a_Node000006"><a xlink:href="classdbe_1_1model__initiate__actions__interface.html" target="_top" xlink:title=" ">
<polygon fill="white" stroke="#666666" points="113.88,-165.88 17.62,-165.88 17.62,-135.38 113.88,-135.38 113.88,-165.88"/>
<text text-anchor="start" x="25.62" y="-152.38" font-family="Helvetica,sans-Serif" font-size="10.00">dbe::model_initiate</text>
<text text-anchor="middle" x="65.75" y="-141.12" font-family="Helvetica,sans-Serif" font-size="10.00">_actions_interface</text>
</a>
</g>
</g>
<!-- Node6&#45;&gt;Node5 -->
<g id="edge5_Node000005_Node000006" class="edge">
<title>Node6&#45;&gt;Node5</title>
<g id="a_edge5_Node000005_Node000006"><a xlink:title=" ">
<path fill="none" stroke="#63b8ff" d="M124.8,-134.35C151.48,-126.87 182.28,-118.23 205.54,-111.71"/>
<polygon fill="#63b8ff" stroke="#63b8ff" points="124.18,-130.89 115.5,-136.96 126.07,-137.63 124.18,-130.89"/>
</a>
</g>
</g>
<!-- Node7 -->
<g id="Node000007" class="node">
<title>Node7</title>
<g id="a_Node000007"><a xlink:href="structdbe_1_1model__common__data__access__interface.html" target="_top" xlink:title=" ">
<polygon fill="white" stroke="#666666" points="130.38,-116.88 1.12,-116.88 1.12,-86.38 130.38,-86.38 130.38,-116.88"/>
<text text-anchor="start" x="9.12" y="-103.38" font-family="Helvetica,sans-Serif" font-size="10.00">dbe::model_common_data</text>
<text text-anchor="middle" x="65.75" y="-92.12" font-family="Helvetica,sans-Serif" font-size="10.00">_access_interface</text>
</a>
</g>
</g>
<!-- Node7&#45;&gt;Node5 -->
<g id="edge6_Node000005_Node000007" class="edge">
<title>Node7&#45;&gt;Node5</title>
<g id="a_edge6_Node000005_Node000007"><a xlink:title=" ">
<path fill="none" stroke="#63b8ff" d="M142.11,-101.62C150.78,-101.62 159.62,-101.62 168.27,-101.62"/>
<polygon fill="#63b8ff" stroke="#63b8ff" points="142.34,-98.13 132.34,-101.63 142.34,-105.13 142.34,-98.13"/>
</a>
</g>
</g>
<!-- Node8 -->
<g id="Node000008" class="node">
<title>Node8</title>
<g id="a_Node000008"><a xlink:href="classdbe_1_1model__common__slots.html" target="_top" xlink:title=" ">
<polygon fill="white" stroke="#666666" points="131.5,-68.25 0,-68.25 0,-49 131.5,-49 131.5,-68.25"/>
<text text-anchor="middle" x="65.75" y="-54.75" font-family="Helvetica,sans-Serif" font-size="10.00">dbe::model_common_slots</text>
</a>
</g>
</g>
<!-- Node8&#45;&gt;Node5 -->
<g id="edge7_Node000005_Node000008" class="edge">
<title>Node8&#45;&gt;Node5</title>
<g id="a_edge7_Node000005_Node000008"><a xlink:title=" ">
<path fill="none" stroke="#8b1a1a" d="M118.58,-71.38C144.74,-77.82 176.02,-85.51 200.48,-91.53"/>
<polygon fill="#8b1a1a" stroke="#8b1a1a" points="119.74,-68.06 109.19,-69.07 118.06,-74.86 119.74,-68.06"/>
</a>
</g>
</g>
<!-- Node9 -->
<g id="Node000009" class="node">
<title>Node9</title>
<g id="a_Node000009"><a xlink:href="classdbe_1_1model__common__async__operations.html" target="_top" xlink:title=" ">
<polygon fill="white" stroke="#666666" points="496.25,-67.88 353.5,-67.88 353.5,-37.38 496.25,-37.38 496.25,-67.88"/>
<text text-anchor="start" x="361.5" y="-54.38" font-family="Helvetica,sans-Serif" font-size="10.00">dbe::model_common_async</text>
<text text-anchor="middle" x="424.88" y="-43.12" font-family="Helvetica,sans-Serif" font-size="10.00">_operations&lt; subtree_proxy &gt;</text>
</a>
</g>
</g>
<!-- Node9&#45;&gt;Node1 -->
<g id="edge8_Node000001_Node000009" class="edge">
<title>Node9&#45;&gt;Node1</title>
<g id="a_edge8_Node000001_Node000009"><a xlink:title=" ">
<path fill="none" stroke="#63b8ff" d="M507.83,-69.04C544.55,-76.4 586.73,-84.85 618.94,-91.3"/>
<polygon fill="#63b8ff" stroke="#63b8ff" points="508.61,-65.63 498.11,-67.1 507.23,-72.49 508.61,-65.63"/>
</a>
</g>
</g>
<!-- Node10 -->
<g id="Node000010" class="node">
<title>Node10</title>
<g id="a_Node000010"><a xlink:href="structdbe_1_1Window.html" target="_top" xlink:title=" ">
<polygon fill="white" stroke="#666666" points="460.25,-19.25 389.5,-19.25 389.5,0 460.25,0 460.25,-19.25"/>
<text text-anchor="middle" x="424.88" y="-5.75" font-family="Helvetica,sans-Serif" font-size="10.00">dbe::Window</text>
</a>
</g>
</g>
<!-- Node10&#45;&gt;Node1 -->
<g id="edge9_Node000001_Node000010" class="edge">
<title>Node10&#45;&gt;Node1</title>
<g id="a_edge9_Node000001_Node000010"><a xlink:title=" ">
<path fill="none" stroke="#9a32cd" stroke-dasharray="5,2" d="M471.84,-17.26C508.07,-24.29 559.29,-36.53 601.25,-55.38 619.19,-63.43 637.61,-75.98 650.94,-85.97"/>
<polygon fill="#9a32cd" stroke="#9a32cd" points="472.6,-13.84 462.12,-15.43 471.31,-20.72 472.6,-13.84"/>
</a>
</g>
<text text-anchor="middle" x="557.75" y="-56.38" font-family="Helvetica,sans-Serif" font-size="10.00" fill="grey"> this_window_config</text>
</g>
</g>
</svg>
