<?xml version="1.0" encoding="UTF-8" standalone="no"?>
<!DOCTYPE svg PUBLIC "-//W3C//DTD SVG 1.1//EN"
 "http://www.w3.org/Graphics/SVG/1.1/DTD/svg11.dtd">
<!-- Generated by graphviz version 9.0.0 (20230911.1827)
 -->
<!-- Title: dunedaq::timing::CDRMuxDesignInterface Pages: 1 -->
<svg width="793pt" height="113pt"
 viewBox="0.00 0.00 793.00 112.88" xmlns="http://www.w3.org/2000/svg" xmlns:xlink="http://www.w3.org/1999/xlink">
<g id="graph0" class="graph" transform="scale(1 1) rotate(0) translate(4 108.88)">
<title>dunedaq::timing::CDRMuxDesignInterface</title>
<!-- Node1 -->
<g id="Node000001" class="node">
<title>Node1</title>
<g id="a_Node000001"><a xlink:title="Base class for timing endpoint design nodes.">
<polygon fill="#999999" stroke="#666666" points="601,-73.5 444.75,-73.5 444.75,-43 601,-43 601,-73.5"/>
<text text-anchor="start" x="452.75" y="-60" font-family="Helvetica,sans-Serif" font-size="10.00">dunedaq::timing::CDRMuxDesign</text>
<text text-anchor="middle" x="522.88" y="-48.75" font-family="Helvetica,sans-Serif" font-size="10.00">Interface</text>
</a>
</g>
</g>
<!-- Node5 -->
<g id="Node000005" class="node">
<title>Node5</title>
<g id="a_Node000005"><a xlink:href="classdunedaq_1_1timing_1_1FanoutDesign.html" target="_top" xlink:title="Class for timing fanout designs.">
<polygon fill="white" stroke="#666666" points="785,-104.88 637,-104.88 637,-85.62 785,-85.62 785,-104.88"/>
<text text-anchor="middle" x="711" y="-91.38" font-family="Helvetica,sans-Serif" font-size="10.00">dunedaq::timing::FanoutDesign</text>
</a>
</g>
</g>
<!-- Node1&#45;&gt;Node5 -->
<g id="edge4_Node000001_Node000005" class="edge">
<title>Node1&#45;&gt;Node5</title>
<g id="a_edge4_Node000001_Node000005"><a xlink:title=" ">
<path fill="none" stroke="#63b8ff" d="M612.48,-75.86C628.46,-79.04 644.62,-82.25 659.07,-85.13"/>
<polygon fill="#63b8ff" stroke="#63b8ff" points="613.44,-72.49 602.95,-73.97 612.07,-79.35 613.44,-72.49"/>
</a>
</g>
</g>
<!-- Node6 -->
<g id="Node000006" class="node">
<title>Node6</title>
<g id="a_Node000006"><a xlink:href="classdunedaq_1_1timing_1_1GaiaDesign.html" target="_top" xlink:title="Class for timing fanout designs.">
<polygon fill="white" stroke="#666666" points="780.12,-67.88 641.88,-67.88 641.88,-48.62 780.12,-48.62 780.12,-67.88"/>
<text text-anchor="middle" x="711" y="-54.38" font-family="Helvetica,sans-Serif" font-size="10.00">dunedaq::timing::GaiaDesign</text>
</a>
</g>
</g>
<!-- Node1&#45;&gt;Node6 -->
<g id="edge5_Node000001_Node000006" class="edge">
<title>Node1&#45;&gt;Node6</title>
<g id="a_edge5_Node000001_Node000006"><a xlink:title=" ">
<path fill="none" stroke="#63b8ff" d="M612.73,-58.25C622.38,-58.25 632.08,-58.25 641.44,-58.25"/>
<polygon fill="#63b8ff" stroke="#63b8ff" points="612.97,-54.75 602.97,-58.25 612.97,-61.75 612.97,-54.75"/>
</a>
</g>
</g>
<!-- Node7 -->
<g id="Node000007" class="node">
<title>Node7</title>
<g id="a_Node000007"><a xlink:href="classdunedaq_1_1timing_1_1KerberosDesign.html" target="_top" xlink:title="Class for timing fanout designs.">
<polygon fill="white" stroke="#666666" points="774.5,-30.5 647.5,-30.5 647.5,0 774.5,0 774.5,-30.5"/>
<text text-anchor="start" x="655.5" y="-17" font-family="Helvetica,sans-Serif" font-size="10.00">dunedaq::timing::Kerberos</text>
<text text-anchor="middle" x="711" y="-5.75" font-family="Helvetica,sans-Serif" font-size="10.00">Design</text>
</a>
</g>
</g>
<!-- Node1&#45;&gt;Node7 -->
<g id="edge6_Node000001_Node000007" class="edge">
<title>Node1&#45;&gt;Node7</title>
<g id="a_edge6_Node000001_Node000007"><a xlink:title=" ">
<path fill="none" stroke="#63b8ff" d="M603.01,-39.97C617.76,-36.56 632.97,-33.05 647.14,-29.77"/>
<polygon fill="#63b8ff" stroke="#63b8ff" points="602.29,-36.54 593.34,-42.2 603.87,-43.36 602.29,-36.54"/>
</a>
</g>
</g>
<!-- Node2 -->
<g id="Node000002" class="node">
<title>Node2</title>
<g id="a_Node000002"><a xlink:href="classdunedaq_1_1timing_1_1TopDesignInterface.html" target="_top" xlink:title="Base class for timing top design nodes.">
<polygon fill="white" stroke="#666666" points="408.75,-73.5 274.25,-73.5 274.25,-43 408.75,-43 408.75,-73.5"/>
<text text-anchor="start" x="282.25" y="-60" font-family="Helvetica,sans-Serif" font-size="10.00">dunedaq::timing::TopDesign</text>
<text text-anchor="middle" x="341.5" y="-48.75" font-family="Helvetica,sans-Serif" font-size="10.00">Interface</text>
</a>
</g>
</g>
<!-- Node2&#45;&gt;Node1 -->
<g id="edge1_Node000001_Node000002" class="edge">
<title>Node2&#45;&gt;Node1</title>
<g id="a_edge1_Node000001_Node000002"><a xlink:title=" ">
<path fill="none" stroke="#63b8ff" d="M420.29,-58.25C428.34,-58.25 436.51,-58.25 444.55,-58.25"/>
<polygon fill="#63b8ff" stroke="#63b8ff" points="420.55,-54.75 410.55,-58.25 420.55,-61.75 420.55,-54.75"/>
</a>
</g>
</g>
<!-- Node3 -->
<g id="Node000003" class="node">
<title>Node3</title>
<g id="a_Node000003"><a xlink:href="classdunedaq_1_1timing_1_1TimingNode.html" target="_top" xlink:title="Base class for timing nodes.">
<polygon fill="white" stroke="#666666" points="238.25,-67.88 97.75,-67.88 97.75,-48.62 238.25,-48.62 238.25,-67.88"/>
<text text-anchor="middle" x="168" y="-54.38" font-family="Helvetica,sans-Serif" font-size="10.00">dunedaq::timing::TimingNode</text>
</a>
</g>
</g>
<!-- Node3&#45;&gt;Node2 -->
<g id="edge2_Node000002_Node000003" class="edge">
<title>Node3&#45;&gt;Node2</title>
<g id="a_edge2_Node000002_Node000003"><a xlink:title=" ">
<path fill="none" stroke="#63b8ff" d="M249.62,-58.25C257.7,-58.25 265.85,-58.25 273.76,-58.25"/>
<polygon fill="#63b8ff" stroke="#63b8ff" points="249.77,-54.75 239.77,-58.25 249.77,-61.75 249.77,-54.75"/>
</a>
</g>
</g>
<!-- Node4 -->
<g id="Node000004" class="node">
<title>Node4</title>
<g id="a_Node000004"><a xlink:title=" ">
<polygon fill="white" stroke="#666666" points="61.75,-67.88 0,-67.88 0,-48.62 61.75,-48.62 61.75,-67.88"/>
<text text-anchor="middle" x="30.88" y="-54.38" font-family="Helvetica,sans-Serif" font-size="10.00">uhal::Node</text>
</a>
</g>
</g>
<!-- Node4&#45;&gt;Node3 -->
<g id="edge3_Node000003_Node000004" class="edge">
<title>Node4&#45;&gt;Node3</title>
<g id="a_edge3_Node000003_Node000004"><a xlink:title=" ">
<path fill="none" stroke="#63b8ff" d="M73.58,-58.25C81.14,-58.25 89.2,-58.25 97.3,-58.25"/>
<polygon fill="#63b8ff" stroke="#63b8ff" points="73.71,-54.75 63.71,-58.25 73.71,-61.75 73.71,-54.75"/>
</a>
</g>
</g>
</g>
</svg>
