<?xml version="1.0" encoding="UTF-8" standalone="no"?>
<!DOCTYPE svg PUBLIC "-//W3C//DTD SVG 1.1//EN"
 "http://www.w3.org/Graphics/SVG/1.1/DTD/svg11.dtd">
<!-- Generated by graphviz version 9.0.0 (20230911.1827)
 -->
<!-- Title: dunedaq::conffwk::CacheBase Pages: 1 -->
<svg width="1821pt" height="336pt"
 viewBox="0.00 0.00 1820.75 336.25" xmlns="http://www.w3.org/2000/svg" xmlns:xlink="http://www.w3.org/1999/xlink">
<g id="graph0" class="graph" transform="scale(1 1) rotate(0) translate(4 332.25)">
<title>dunedaq::conffwk::CacheBase</title>
<!-- Node1 -->
<g id="Node000001" class="node">
<title>Node1</title>
<g id="a_Node000001"><a xlink:title="Defines base class for cache of template objects.">
<polygon fill="#999999" stroke="#666666" points="1541.75,-221.75 1396,-221.75 1396,-202.5 1541.75,-202.5 1541.75,-221.75"/>
<text text-anchor="middle" x="1468.88" y="-208.25" font-family="Helvetica,sans-Serif" font-size="10.00">dunedaq::conffwk::CacheBase</text>
</a>
</g>
</g>
<!-- Node2 -->
<g id="Node000002" class="node">
<title>Node2</title>
<g id="a_Node000002"><a xlink:href="structdunedaq_1_1conffwk_1_1DalFactoryFunctions.html" target="_top" xlink:title=" ">
<polygon fill="white" stroke="#666666" points="1812.75,-188.38 1670.75,-188.38 1670.75,-157.88 1812.75,-157.88 1812.75,-188.38"/>
<text text-anchor="start" x="1678.75" y="-174.88" font-family="Helvetica,sans-Serif" font-size="10.00">dunedaq::conffwk::DalFactory</text>
<text text-anchor="middle" x="1741.75" y="-163.62" font-family="Helvetica,sans-Serif" font-size="10.00">Functions</text>
</a>
</g>
</g>
<!-- Node1&#45;&gt;Node2 -->
<g id="edge15_Node000002_Node000001" class="edge">
<title>Node1&#45;&gt;Node2</title>
<g id="a_edge15_Node000002_Node000001"><a xlink:title=" ">
<path fill="none" stroke="#9a32cd" stroke-dasharray="5,2" d="M1553.4,-212.18C1584.77,-210.99 1620.61,-208.19 1652.75,-202.12 1668.72,-199.11 1685.78,-193.96 1700.59,-188.83"/>
<polygon fill="#9a32cd" stroke="#9a32cd" points="1553.45,-208.68 1543.57,-212.5 1553.67,-215.67 1553.45,-208.68"/>
</a>
</g>
<text text-anchor="middle" x="1606.25" y="-225.12" font-family="Helvetica,sans-Serif" font-size="10.00" fill="grey"> m_rename_object_fn</text>
<text text-anchor="middle" x="1606.25" y="-213.88" font-family="Helvetica,sans-Serif" font-size="10.00" fill="grey">m_unread_object_fn</text>
</g>
<!-- Node2&#45;&gt;Node1 -->
<g id="edge1_Node000001_Node000002" class="edge">
<title>Node2&#45;&gt;Node1</title>
<g id="a_edge1_Node000001_Node000002"><a xlink:title=" ">
<path fill="none" stroke="#9a32cd" stroke-dasharray="5,2" d="M1659.13,-178.78C1627.92,-181.56 1592.07,-185.5 1559.75,-190.88 1542.35,-193.77 1523.31,-198.1 1507.25,-202.1"/>
<polygon fill="#9a32cd" stroke="#9a32cd" points="1659.24,-182.29 1668.9,-177.94 1658.64,-175.31 1659.24,-182.29"/>
</a>
</g>
<text text-anchor="middle" x="1606.25" y="-192.88" font-family="Helvetica,sans-Serif" font-size="10.00" fill="grey"> m_functions</text>
</g>
<!-- Node3 -->
<g id="Node000003" class="node">
<title>Node3</title>
<g id="a_Node000003"><a xlink:href="classdunedaq_1_1conffwk_1_1Configuration.html" target="_top" xlink:title=" ">
<polygon fill="white" stroke="#666666" points="644.5,-172.75 492.75,-172.75 492.75,-153.5 644.5,-153.5 644.5,-172.75"/>
<text text-anchor="middle" x="568.62" y="-159.25" font-family="Helvetica,sans-Serif" font-size="10.00">dunedaq::conffwk::Configuration</text>
</a>
</g>
</g>
<!-- Node3&#45;&gt;Node2 -->
<g id="edge2_Node000002_Node000003" class="edge">
<title>Node3&#45;&gt;Node2</title>
<g id="a_edge2_Node000002_Node000003"><a xlink:title=" ">
<path fill="none" stroke="#9a32cd" stroke-dasharray="5,2" d="M616.27,-150.22C669.66,-136.62 759.94,-117.12 839,-117.12 839,-117.12 839,-117.12 1469.88,-117.12 1549.83,-117.12 1640.36,-140.81 1693.89,-157.38"/>
<polygon fill="#9a32cd" stroke="#9a32cd" points="615.72,-146.75 606.92,-152.65 617.48,-153.53 615.72,-146.75"/>
</a>
</g>
<text text-anchor="middle" x="1164.75" y="-118.88" font-family="Helvetica,sans-Serif" font-size="10.00" fill="grey"> m_update_fn</text>
</g>
<!-- Node12 -->
<g id="Node000012" class="node">
<title>Node12</title>
<g id="a_Node000012"><a xlink:href="classdunedaq_1_1conffwk_1_1ConfigurationImpl.html" target="_top" xlink:title="Provides pure virtual interface used by the Configuration class.">
<polygon fill="white" stroke="#666666" points="925.25,-236.75 754.75,-236.75 754.75,-217.5 925.25,-217.5 925.25,-236.75"/>
<text text-anchor="middle" x="840" y="-223.25" font-family="Helvetica,sans-Serif" font-size="10.00">dunedaq::conffwk::ConfigurationImpl</text>
</a>
</g>
</g>
<!-- Node3&#45;&gt;Node12 -->
<g id="edge14_Node000012_Node000003" class="edge">
<title>Node3&#45;&gt;Node12</title>
<g id="a_edge14_Node000012_Node000003"><a xlink:title=" ">
<path fill="none" stroke="#9a32cd" stroke-dasharray="5,2" d="M596.72,-178.67C615.6,-188.76 641.7,-201.26 666.25,-208.12 694.44,-216.01 726.06,-220.64 754.48,-223.36"/>
<polygon fill="#9a32cd" stroke="#9a32cd" points="598.55,-175.68 588.1,-173.94 595.19,-181.82 598.55,-175.68"/>
</a>
</g>
<text text-anchor="middle" x="701.5" y="-223.88" font-family="Helvetica,sans-Serif" font-size="10.00" fill="grey"> m_conf</text>
</g>
<!-- Node15 -->
<g id="Node000015" class="node">
<title>Node15</title>
<g id="a_Node000015"><a xlink:href="classdunedaq_1_1conffwk_1_1DalObject.html" target="_top" xlink:title="The base class for any generated DAL object.">
<polygon fill="white" stroke="#666666" points="1538,-172.75 1399.75,-172.75 1399.75,-153.5 1538,-153.5 1538,-172.75"/>
<text text-anchor="middle" x="1468.88" y="-159.25" font-family="Helvetica,sans-Serif" font-size="10.00">dunedaq::conffwk::DalObject</text>
</a>
</g>
</g>
<!-- Node3&#45;&gt;Node15 -->
<g id="edge17_Node000015_Node000003" class="edge">
<title>Node3&#45;&gt;Node15</title>
<g id="a_edge17_Node000015_Node000003"><a xlink:title=" ">
<path fill="none" stroke="#9a32cd" stroke-dasharray="5,2" d="M656.17,-163.12C708.99,-163.12 777.89,-163.12 839,-163.12 839,-163.12 839,-163.12 1274.25,-163.12 1315.77,-163.12 1362.29,-163.12 1399.32,-163.12"/>
<polygon fill="#9a32cd" stroke="#9a32cd" points="656.32,-159.63 646.32,-163.13 656.32,-166.63 656.32,-159.63"/>
</a>
</g>
<text text-anchor="middle" x="1056.25" y="-164.88" font-family="Helvetica,sans-Serif" font-size="10.00" fill="grey"> p_db</text>
</g>
<!-- Node4 -->
<g id="Node000004" class="node">
<title>Node4</title>
<g id="a_Node000004"><a xlink:href="classdunedaq_1_1conffwk_1_1map.html" target="_top" xlink:title=" ">
<polygon fill="white" stroke="#666666" points="355.88,-181.38 206.38,-181.38 206.38,-150.88 355.88,-150.88 355.88,-181.38"/>
<text text-anchor="start" x="214.38" y="-167.88" font-family="Helvetica,sans-Serif" font-size="10.00">dunedaq::conffwk::map</text>
<text text-anchor="middle" x="281.12" y="-156.62" font-family="Helvetica,sans-Serif" font-size="10.00">&lt; dunedaq::conffwk::class_t * &gt;</text>
</a>
</g>
</g>
<!-- Node4&#45;&gt;Node3 -->
<g id="edge3_Node000003_Node000004" class="edge">
<title>Node4&#45;&gt;Node3</title>
<g id="a_edge3_Node000003_Node000004"><a xlink:title=" ">
<path fill="none" stroke="#9a32cd" stroke-dasharray="5,2" d="M367.26,-164.35C372.67,-164.27 378.04,-164.19 383.25,-164.12 419.1,-163.67 458.87,-163.43 492.27,-163.29"/>
<polygon fill="#9a32cd" stroke="#9a32cd" points="367.58,-160.85 357.64,-164.51 367.7,-167.85 367.58,-160.85"/>
</a>
</g>
<text text-anchor="start" x="383.25" y="-199.62" font-family="Helvetica,sans-Serif" font-size="10.00" fill="grey"> p_all_classes_desc</text>
<text text-anchor="middle" x="427.12" y="-188.38" font-family="Helvetica,sans-Serif" font-size="10.00" fill="grey">_cache</text>
<text text-anchor="start" x="383.25" y="-177.12" font-family="Helvetica,sans-Serif" font-size="10.00" fill="grey">p_direct_classes</text>
<text text-anchor="middle" x="427.12" y="-165.88" font-family="Helvetica,sans-Serif" font-size="10.00" fill="grey">_desc_cache</text>
</g>
<!-- Node5 -->
<g id="Node000005" class="node">
<title>Node5</title>
<g id="a_Node000005"><a xlink:title=" ">
<polygon fill="white" stroke="#666666" points="134.12,-195 25.88,-195 25.88,-153.25 134.12,-153.25 134.12,-195"/>
<text text-anchor="start" x="33.88" y="-181.5" font-family="Helvetica,sans-Serif" font-size="10.00">std::unordered_map</text>
<text text-anchor="start" x="33.88" y="-170.25" font-family="Helvetica,sans-Serif" font-size="10.00">&lt; std::string, dunedaq</text>
<text text-anchor="middle" x="80" y="-159" font-family="Helvetica,sans-Serif" font-size="10.00">::conffwk::class_t * &gt;</text>
</a>
</g>
</g>
<!-- Node5&#45;&gt;Node4 -->
<g id="edge4_Node000004_Node000005" class="edge">
<title>Node5&#45;&gt;Node4</title>
<g id="a_edge4_Node000004_Node000005"><a xlink:title=" ">
<path fill="none" stroke="#63b8ff" d="M146.01,-171.51C165.25,-170.74 186.45,-169.89 206.21,-169.09"/>
<polygon fill="#63b8ff" stroke="#63b8ff" points="145.99,-168.01 136.14,-171.91 146.27,-175.01 145.99,-168.01"/>
</a>
</g>
</g>
<!-- Node6 -->
<g id="Node000006" class="node">
<title>Node6</title>
<g id="a_Node000006"><a xlink:href="classdunedaq_1_1conffwk_1_1fmap.html" target="_top" xlink:title=" ">
<polygon fill="white" stroke="#666666" points="339.75,-128.38 222.5,-128.38 222.5,-97.88 339.75,-97.88 339.75,-128.38"/>
<text text-anchor="start" x="230.5" y="-114.88" font-family="Helvetica,sans-Serif" font-size="10.00">dunedaq::conffwk::fmap</text>
<text text-anchor="middle" x="281.12" y="-103.62" font-family="Helvetica,sans-Serif" font-size="10.00">&lt; conffwk::fset &gt;</text>
</a>
</g>
</g>
<!-- Node6&#45;&gt;Node3 -->
<g id="edge5_Node000003_Node000006" class="edge">
<title>Node6&#45;&gt;Node3</title>
<g id="a_edge5_Node000003_Node000006"><a xlink:title=" ">
<path fill="none" stroke="#9a32cd" stroke-dasharray="5,2" d="M351.22,-119.92C387.13,-124 431.62,-129.91 471,-137.62 492.11,-141.76 515.44,-147.87 533.89,-153.08"/>
<polygon fill="#9a32cd" stroke="#9a32cd" points="351.71,-116.46 341.39,-118.83 350.94,-123.41 351.71,-116.46"/>
</a>
</g>
<text text-anchor="middle" x="427.12" y="-151.12" font-family="Helvetica,sans-Serif" font-size="10.00" fill="grey"> p_subclasses</text>
<text text-anchor="middle" x="427.12" y="-139.88" font-family="Helvetica,sans-Serif" font-size="10.00" fill="grey">p_superclasses</text>
</g>
<!-- Node7 -->
<g id="Node000007" class="node">
<title>Node7</title>
<g id="a_Node000007"><a xlink:title=" ">
<polygon fill="white" stroke="#666666" points="136.75,-135.62 23.25,-135.62 23.25,-82.62 136.75,-82.62 136.75,-135.62"/>
<text text-anchor="start" x="31.25" y="-122.12" font-family="Helvetica,sans-Serif" font-size="10.00">std::unordered_map</text>
<text text-anchor="start" x="31.25" y="-110.88" font-family="Helvetica,sans-Serif" font-size="10.00">&lt; const std::string</text>
<text text-anchor="start" x="31.25" y="-99.62" font-family="Helvetica,sans-Serif" font-size="10.00"> *, conffwk::fset , string</text>
<text text-anchor="middle" x="80" y="-88.38" font-family="Helvetica,sans-Serif" font-size="10.00">_ptr_hash &gt;</text>
</a>
</g>
</g>
<!-- Node7&#45;&gt;Node6 -->
<g id="edge6_Node000006_Node000007" class="edge">
<title>Node7&#45;&gt;Node6</title>
<g id="a_edge6_Node000006_Node000007"><a xlink:title=" ">
<path fill="none" stroke="#63b8ff" d="M148.49,-110.48C172.4,-110.96 199.07,-111.5 222.12,-111.96"/>
<polygon fill="#63b8ff" stroke="#63b8ff" points="148.58,-106.98 138.51,-110.28 148.44,-113.98 148.58,-106.98"/>
</a>
</g>
</g>
<!-- Node8 -->
<g id="Node000008" class="node">
<title>Node8</title>
<g id="a_Node000008"><a xlink:href="classdunedaq_1_1conffwk_1_1map.html" target="_top" xlink:title=" ">
<polygon fill="white" stroke="#666666" points="342,-70.25 220.25,-70.25 220.25,-6 342,-6 342,-70.25"/>
<text text-anchor="start" x="228.25" y="-56.75" font-family="Helvetica,sans-Serif" font-size="10.00">dunedaq::conffwk::map</text>
<text text-anchor="start" x="228.25" y="-45.5" font-family="Helvetica,sans-Serif" font-size="10.00">&lt; std::list&lt; dunedaq</text>
<text text-anchor="start" x="228.25" y="-34.25" font-family="Helvetica,sans-Serif" font-size="10.00">::conffwk::Configuration</text>
<text text-anchor="start" x="228.25" y="-23" font-family="Helvetica,sans-Serif" font-size="10.00">::AttributeConverterBase</text>
<text text-anchor="middle" x="281.12" y="-11.75" font-family="Helvetica,sans-Serif" font-size="10.00"> * &gt; * &gt;</text>
</a>
</g>
</g>
<!-- Node8&#45;&gt;Node3 -->
<g id="edge7_Node000003_Node000008" class="edge">
<title>Node8&#45;&gt;Node3</title>
<g id="a_edge7_Node000003_Node000008"><a xlink:title=" ">
<path fill="none" stroke="#9a32cd" stroke-dasharray="5,2" d="M353.07,-61.79C388.95,-74.49 432.87,-91.16 471,-108.88 500.31,-122.5 532.76,-141.6 551.61,-153.13"/>
<polygon fill="#9a32cd" stroke="#9a32cd" points="354.23,-58.49 343.64,-58.49 351.91,-65.1 354.23,-58.49"/>
</a>
</g>
<text text-anchor="middle" x="427.12" y="-110.88" font-family="Helvetica,sans-Serif" font-size="10.00" fill="grey"> m_convert_map</text>
</g>
<!-- Node9 -->
<g id="Node000009" class="node">
<title>Node9</title>
<g id="a_Node000009"><a xlink:title=" ">
<polygon fill="white" stroke="#666666" points="160,-64.25 0,-64.25 0,0 160,0 160,-64.25"/>
<text text-anchor="start" x="8" y="-50.75" font-family="Helvetica,sans-Serif" font-size="10.00">std::unordered_map</text>
<text text-anchor="start" x="8" y="-39.5" font-family="Helvetica,sans-Serif" font-size="10.00">&lt; std::string, std::</text>
<text text-anchor="start" x="8" y="-28.25" font-family="Helvetica,sans-Serif" font-size="10.00">list&lt; dunedaq::conffwk</text>
<text text-anchor="start" x="8" y="-17" font-family="Helvetica,sans-Serif" font-size="10.00">::Configuration::AttributeConverter</text>
<text text-anchor="middle" x="80" y="-5.75" font-family="Helvetica,sans-Serif" font-size="10.00">Base * &gt; * &gt;</text>
</a>
</g>
</g>
<!-- Node9&#45;&gt;Node8 -->
<g id="edge8_Node000008_Node000009" class="edge">
<title>Node9&#45;&gt;Node8</title>
<g id="a_edge8_Node000008_Node000009"><a xlink:title=" ">
<path fill="none" stroke="#63b8ff" d="M171.53,-34.85C187.91,-35.35 204.61,-35.85 219.85,-36.31"/>
<polygon fill="#63b8ff" stroke="#63b8ff" points="171.89,-31.36 161.78,-34.56 171.67,-38.36 171.89,-31.36"/>
</a>
</g>
</g>
<!-- Node10 -->
<g id="Node000010" class="node">
<title>Node10</title>
<g id="a_Node000010"><a xlink:href="classdunedaq_1_1conffwk_1_1fmap.html" target="_top" xlink:title=" ">
<polygon fill="white" stroke="#666666" points="365.25,-246.38 197,-246.38 197,-215.88 365.25,-215.88 365.25,-246.38"/>
<text text-anchor="start" x="205" y="-232.88" font-family="Helvetica,sans-Serif" font-size="10.00">dunedaq::conffwk::fmap</text>
<text text-anchor="middle" x="281.12" y="-221.62" font-family="Helvetica,sans-Serif" font-size="10.00">&lt; dunedaq::conffwk::CacheBase * &gt;</text>
</a>
</g>
</g>
<!-- Node10&#45;&gt;Node3 -->
<g id="edge9_Node000003_Node000010" class="edge">
<title>Node10&#45;&gt;Node3</title>
<g id="a_edge9_Node000003_Node000010"><a xlink:title=" ">
<path fill="none" stroke="#9a32cd" stroke-dasharray="5,2" d="M376.66,-226.24C407.19,-223.04 440.91,-217.78 471,-209.12 500.46,-200.65 532.08,-183.99 550.84,-173.22"/>
<polygon fill="#9a32cd" stroke="#9a32cd" points="376.68,-222.72 367.07,-227.18 377.36,-229.69 376.68,-222.72"/>
</a>
</g>
<text text-anchor="middle" x="427.12" y="-227.88" font-family="Helvetica,sans-Serif" font-size="10.00" fill="grey"> m_cache_map</text>
</g>
<!-- Node11 -->
<g id="Node000011" class="node">
<title>Node11</title>
<g id="a_Node000011"><a xlink:title=" ">
<polygon fill="white" stroke="#666666" points="133,-277.25 27,-277.25 27,-213 133,-213 133,-277.25"/>
<text text-anchor="start" x="35" y="-263.75" font-family="Helvetica,sans-Serif" font-size="10.00">std::unordered_map</text>
<text text-anchor="start" x="35" y="-252.5" font-family="Helvetica,sans-Serif" font-size="10.00">&lt; const std::string</text>
<text text-anchor="start" x="35" y="-241.25" font-family="Helvetica,sans-Serif" font-size="10.00"> *, dunedaq::conffwk</text>
<text text-anchor="start" x="35" y="-230" font-family="Helvetica,sans-Serif" font-size="10.00">::CacheBase *, string</text>
<text text-anchor="middle" x="80" y="-218.75" font-family="Helvetica,sans-Serif" font-size="10.00">_ptr_hash &gt;</text>
</a>
</g>
</g>
<!-- Node11&#45;&gt;Node10 -->
<g id="edge10_Node000010_Node000011" class="edge">
<title>Node11&#45;&gt;Node10</title>
<g id="a_edge10_Node000010_Node000011"><a xlink:title=" ">
<path fill="none" stroke="#63b8ff" d="M144.51,-240.66C161.06,-239.5 179.16,-238.22 196.58,-237"/>
<polygon fill="#63b8ff" stroke="#63b8ff" points="144.56,-237.15 134.83,-241.34 145.05,-244.13 144.56,-237.15"/>
</a>
</g>
</g>
<!-- Node12&#45;&gt;Node3 -->
<g id="edge11_Node000003_Node000012" class="edge">
<title>Node12&#45;&gt;Node3</title>
<g id="a_edge11_Node000003_Node000012"><a xlink:title=" ">
<path fill="none" stroke="#9a32cd" stroke-dasharray="5,2" d="M796.93,-213.77C778.55,-208.17 756.69,-201.83 736.75,-196.88 700.12,-187.78 658.52,-179.37 625.99,-173.22"/>
<polygon fill="#9a32cd" stroke="#9a32cd" points="795.84,-217.09 806.42,-216.69 797.9,-210.4 795.84,-217.09"/>
</a>
</g>
<text text-anchor="middle" x="701.5" y="-198.88" font-family="Helvetica,sans-Serif" font-size="10.00" fill="grey"> m_impl</text>
</g>
<!-- Node17 -->
<g id="Node000017" class="node">
<title>Node17</title>
<g id="a_Node000017"><a xlink:href="classdunedaq_1_1conffwk_1_1ConfigObjectImpl.html" target="_top" xlink:title="Implements database objects.">
<polygon fill="white" stroke="#666666" points="1117.5,-234.38 995,-234.38 995,-203.88 1117.5,-203.88 1117.5,-234.38"/>
<text text-anchor="start" x="1003" y="-220.88" font-family="Helvetica,sans-Serif" font-size="10.00">dunedaq::conffwk::Config</text>
<text text-anchor="middle" x="1056.25" y="-209.62" font-family="Helvetica,sans-Serif" font-size="10.00">ObjectImpl</text>
</a>
</g>
</g>
<!-- Node12&#45;&gt;Node17 -->
<g id="edge20_Node000017_Node000012" class="edge">
<title>Node12&#45;&gt;Node17</title>
<g id="a_edge20_Node000017_Node000012"><a xlink:title=" ">
<path fill="none" stroke="#9a32cd" stroke-dasharray="5,2" d="M937.12,-223.54C956.67,-222.81 976.73,-222.06 994.63,-221.39"/>
<polygon fill="#9a32cd" stroke="#9a32cd" points="937.05,-220.04 927.19,-223.91 937.31,-227.03 937.05,-220.04"/>
</a>
</g>
<text text-anchor="middle" x="960.12" y="-224.88" font-family="Helvetica,sans-Serif" font-size="10.00" fill="grey"> m_impl</text>
</g>
<!-- Node13 -->
<g id="Node000013" class="node">
<title>Node13</title>
<g id="a_Node000013"><a xlink:href="classdunedaq_1_1conffwk_1_1pmap.html" target="_top" xlink:title=" ">
<polygon fill="white" stroke="#666666" points="648.25,-306.62 489,-306.62 489,-253.62 648.25,-253.62 648.25,-306.62"/>
<text text-anchor="start" x="497" y="-293.12" font-family="Helvetica,sans-Serif" font-size="10.00">dunedaq::conffwk::pmap</text>
<text text-anchor="start" x="497" y="-281.88" font-family="Helvetica,sans-Serif" font-size="10.00">&lt; dunedaq::conffwk::map</text>
<text text-anchor="start" x="497" y="-270.62" font-family="Helvetica,sans-Serif" font-size="10.00">&lt; dunedaq::conffwk::ConfigObject</text>
<text text-anchor="middle" x="568.62" y="-259.38" font-family="Helvetica,sans-Serif" font-size="10.00">Impl * &gt; * &gt;</text>
</a>
</g>
</g>
<!-- Node13&#45;&gt;Node12 -->
<g id="edge12_Node000012_Node000013" class="edge">
<title>Node13&#45;&gt;Node12</title>
<g id="a_edge12_Node000012_Node000013"><a xlink:title=" ">
<path fill="none" stroke="#9a32cd" stroke-dasharray="5,2" d="M659.86,-262.37C702.39,-254 751.59,-244.32 787.65,-237.23"/>
<polygon fill="#9a32cd" stroke="#9a32cd" points="659.25,-258.92 650.11,-264.29 660.6,-265.79 659.25,-258.92"/>
</a>
</g>
<text text-anchor="middle" x="701.5" y="-260.88" font-family="Helvetica,sans-Serif" font-size="10.00" fill="grey"> m_impl_objects</text>
</g>
<!-- Node14 -->
<g id="Node000014" class="node">
<title>Node14</title>
<g id="a_Node000014"><a xlink:title=" ">
<polygon fill="white" stroke="#666666" points="348.75,-328.25 213.5,-328.25 213.5,-264 348.75,-264 348.75,-328.25"/>
<text text-anchor="start" x="221.5" y="-314.75" font-family="Helvetica,sans-Serif" font-size="10.00">std::map&lt; const std</text>
<text text-anchor="start" x="221.5" y="-303.5" font-family="Helvetica,sans-Serif" font-size="10.00">::string *, dunedaq</text>
<text text-anchor="start" x="221.5" y="-292.25" font-family="Helvetica,sans-Serif" font-size="10.00">::conffwk::map&lt; dunedaq</text>
<text text-anchor="start" x="221.5" y="-281" font-family="Helvetica,sans-Serif" font-size="10.00">::conffwk::ConfigObjectImpl</text>
<text text-anchor="middle" x="281.12" y="-269.75" font-family="Helvetica,sans-Serif" font-size="10.00"> * &gt; * , string_ptr_compare &gt;</text>
</a>
</g>
</g>
<!-- Node14&#45;&gt;Node13 -->
<g id="edge13_Node000013_Node000014" class="edge">
<title>Node14&#45;&gt;Node13</title>
<g id="a_edge13_Node000013_Node000014"><a xlink:title=" ">
<path fill="none" stroke="#63b8ff" d="M360.35,-291.74C400.25,-289.5 448.68,-286.79 488.69,-284.55"/>
<polygon fill="#63b8ff" stroke="#63b8ff" points="360.36,-288.23 350.57,-292.29 360.75,-295.22 360.36,-288.23"/>
</a>
</g>
</g>
<!-- Node15&#45;&gt;Node2 -->
<g id="edge16_Node000002_Node000015" class="edge">
<title>Node15&#45;&gt;Node2</title>
<g id="a_edge16_Node000002_Node000015"><a xlink:title=" ">
<path fill="none" stroke="#9a32cd" stroke-dasharray="5,2" d="M1549.31,-156.08C1581.47,-154.36 1618.93,-153.78 1652.75,-156.88 1658.47,-157.4 1664.38,-158.11 1670.3,-158.95"/>
<polygon fill="#9a32cd" stroke="#9a32cd" points="1549.45,-152.57 1539.67,-156.65 1549.86,-159.56 1549.45,-152.57"/>
</a>
</g>
<text text-anchor="middle" x="1606.25" y="-158.88" font-family="Helvetica,sans-Serif" font-size="10.00" fill="grey"> m_creator_fn</text>
</g>
<!-- Node16 -->
<g id="Node000016" class="node">
<title>Node16</title>
<g id="a_Node000016"><a xlink:href="classdunedaq_1_1conffwk_1_1ConfigObject.html" target="_top" xlink:title="Represents database objects.">
<polygon fill="white" stroke="#666666" points="1334.5,-222.38 1212,-222.38 1212,-191.88 1334.5,-191.88 1334.5,-222.38"/>
<text text-anchor="start" x="1220" y="-208.88" font-family="Helvetica,sans-Serif" font-size="10.00">dunedaq::conffwk::Config</text>
<text text-anchor="middle" x="1273.25" y="-197.62" font-family="Helvetica,sans-Serif" font-size="10.00">Object</text>
</a>
</g>
</g>
<!-- Node16&#45;&gt;Node15 -->
<g id="edge18_Node000015_Node000016" class="edge">
<title>Node16&#45;&gt;Node15</title>
<g id="a_edge18_Node000015_Node000016"><a xlink:title=" ">
<path fill="none" stroke="#9a32cd" stroke-dasharray="5,2" d="M1345.92,-190.84C1371.86,-184.94 1400.39,-178.46 1423.33,-173.25"/>
<polygon fill="#9a32cd" stroke="#9a32cd" points="1345.43,-187.36 1336.46,-192.99 1346.99,-194.19 1345.43,-187.36"/>
</a>
</g>
<text text-anchor="middle" x="1365.25" y="-190.88" font-family="Helvetica,sans-Serif" font-size="10.00" fill="grey"> p_obj</text>
</g>
<!-- Node17&#45;&gt;Node16 -->
<g id="edge19_Node000016_Node000017" class="edge">
<title>Node17&#45;&gt;Node16</title>
<g id="a_edge19_Node000016_Node000017"><a xlink:title=" ">
<path fill="none" stroke="#9a32cd" stroke-dasharray="5,2" d="M1129.24,-215.11C1155.98,-213.61 1186.03,-211.94 1211.65,-210.51"/>
<polygon fill="#9a32cd" stroke="#9a32cd" points="1129.3,-211.6 1119.51,-215.65 1129.69,-218.59 1129.3,-211.6"/>
</a>
</g>
<text text-anchor="middle" x="1164.75" y="-216.88" font-family="Helvetica,sans-Serif" font-size="10.00" fill="grey"> m_impl</text>
</g>
</g>
</svg>
