<?xml version="1.0" encoding="UTF-8" standalone="no"?>
<!DOCTYPE svg PUBLIC "-//W3C//DTD SVG 1.1//EN"
 "http://www.w3.org/Graphics/SVG/1.1/DTD/svg11.dtd">
<!-- Generated by graphviz version 9.0.0 (20230911.1827)
 -->
<!-- Title: file_io.SaveWithMessageScreen Pages: 1 -->
<svg width="164pt" height="83pt"
 viewBox="0.00 0.00 163.50 82.50" xmlns="http://www.w3.org/2000/svg" xmlns:xlink="http://www.w3.org/1999/xlink">
<g id="graph0" class="graph" transform="scale(1 1) rotate(0) translate(4 78.5)">
<title>file_io.SaveWithMessageScreen</title>
<!-- Node1 -->
<g id="Node000001" class="node">
<title>Node1</title>
<g id="a_Node000001"><a xlink:title=" ">
<polygon fill="#999999" stroke="#666666" points="155.5,-19.25 0,-19.25 0,0 155.5,0 155.5,-19.25"/>
<text text-anchor="middle" x="77.75" y="-5.75" font-family="Helvetica,sans-Serif" font-size="10.00">file_io.SaveWithMessageScreen</text>
</a>
</g>
</g>
<!-- Node2 -->
<g id="Node000002" class="node">
<title>Node2</title>
<g id="a_Node000002"><a xlink:title=" ">
<polygon fill="white" stroke="#666666" points="78.25,-74.5 5.25,-74.5 5.25,-55.25 78.25,-55.25 78.25,-74.5"/>
<text text-anchor="middle" x="41.75" y="-61" font-family="Helvetica,sans-Serif" font-size="10.00">ModalScreen</text>
</a>
</g>
</g>
<!-- Node2&#45;&gt;Node1 -->
<g id="edge1_Node000001_Node000002" class="edge">
<title>Node2&#45;&gt;Node1</title>
<g id="a_edge1_Node000001_Node000002"><a xlink:title=" ">
<path fill="none" stroke="#63b8ff" d="M54.07,-45.65C60.01,-36.86 66.87,-26.71 71.68,-19.61"/>
<polygon fill="#63b8ff" stroke="#63b8ff" points="51.24,-43.58 48.54,-53.83 57.04,-47.5 51.24,-43.58"/>
</a>
</g>
</g>
<!-- Node3 -->
<g id="Node000003" class="node">
<title>Node3</title>
<g id="a_Node000003"><a xlink:title=" ">
<polygon fill="white" stroke="#666666" points="130.75,-74.5 96.75,-74.5 96.75,-55.25 130.75,-55.25 130.75,-74.5"/>
<text text-anchor="middle" x="113.75" y="-61" font-family="Helvetica,sans-Serif" font-size="10.00">bool</text>
</a>
</g>
</g>
<!-- Node3&#45;&gt;Node1 -->
<g id="edge2_Node000001_Node000003" class="edge">
<title>Node3&#45;&gt;Node1</title>
<g id="a_edge2_Node000001_Node000003"><a xlink:title=" ">
<path fill="none" stroke="#63b8ff" d="M101.43,-45.65C95.49,-36.86 88.63,-26.71 83.82,-19.61"/>
<polygon fill="#63b8ff" stroke="#63b8ff" points="98.46,-47.5 106.96,-53.83 104.26,-43.58 98.46,-47.5"/>
</a>
</g>
</g>
</g>
</svg>
