<?xml version="1.0" encoding="UTF-8" standalone="no"?>
<!DOCTYPE svg PUBLIC "-//W3C//DTD SVG 1.1//EN"
 "http://www.w3.org/Graphics/SVG/1.1/DTD/svg11.dtd">
<!-- Generated by graphviz version 9.0.0 (20230911.1827)
 -->
<!-- Title: dunedaq::conffwk::ConfigurationImpl Pages: 1 -->
<svg width="893pt" height="362pt"
 viewBox="0.00 0.00 892.75 362.00" xmlns="http://www.w3.org/2000/svg" xmlns:xlink="http://www.w3.org/1999/xlink">
<g id="graph0" class="graph" transform="scale(1 1) rotate(0) translate(4 358)">
<title>dunedaq::conffwk::ConfigurationImpl</title>
<!-- Node1 -->
<g id="Node000001" class="node">
<title>Node1</title>
<g id="a_Node000001"><a xlink:title="Provides pure virtual interface used by the Configuration class.">
<polygon fill="#999999" stroke="#666666" points="609.25,-92.75 438.75,-92.75 438.75,-73.5 609.25,-73.5 609.25,-92.75"/>
<text text-anchor="middle" x="524" y="-79.25" font-family="Helvetica,sans-Serif" font-size="10.00">dunedaq::conffwk::ConfigurationImpl</text>
</a>
</g>
</g>
<!-- Node4 -->
<g id="Node000004" class="node">
<title>Node4</title>
<g id="a_Node000004"><a xlink:href="classdunedaq_1_1conffwk_1_1Configuration.html" target="_top" xlink:title=" ">
<polygon fill="white" stroke="#666666" points="884.75,-182.75 733,-182.75 733,-163.5 884.75,-163.5 884.75,-182.75"/>
<text text-anchor="middle" x="808.88" y="-169.25" font-family="Helvetica,sans-Serif" font-size="10.00">dunedaq::conffwk::Configuration</text>
</a>
</g>
</g>
<!-- Node1&#45;&gt;Node4 -->
<g id="edge12_Node000004_Node000001" class="edge">
<title>Node1&#45;&gt;Node4</title>
<g id="a_edge12_Node000004_Node000001"><a xlink:title=" ">
<path fill="none" stroke="#9a32cd" stroke-dasharray="5,2" d="M581.62,-95.75C590.86,-97.86 600.32,-100.03 609.25,-102.12 656.35,-113.17 669.5,-111.46 715,-127.88 742.16,-137.67 771.9,-153.04 790.22,-163.1"/>
<polygon fill="#9a32cd" stroke="#9a32cd" points="582.51,-92.37 571.98,-93.57 580.96,-99.19 582.51,-92.37"/>
</a>
</g>
<text text-anchor="middle" x="671.12" y="-128.88" font-family="Helvetica,sans-Serif" font-size="10.00" fill="grey"> m_impl</text>
</g>
<!-- Node2 -->
<g id="Node000002" class="node">
<title>Node2</title>
<g id="a_Node000002"><a xlink:href="classdunedaq_1_1conffwk_1_1pmap.html" target="_top" xlink:title=" ">
<polygon fill="white" stroke="#666666" points="331.88,-58.62 172.62,-58.62 172.62,-5.62 331.88,-5.62 331.88,-58.62"/>
<text text-anchor="start" x="180.62" y="-45.12" font-family="Helvetica,sans-Serif" font-size="10.00">dunedaq::conffwk::pmap</text>
<text text-anchor="start" x="180.62" y="-33.88" font-family="Helvetica,sans-Serif" font-size="10.00">&lt; dunedaq::conffwk::map</text>
<text text-anchor="start" x="180.62" y="-22.62" font-family="Helvetica,sans-Serif" font-size="10.00">&lt; dunedaq::conffwk::ConfigObject</text>
<text text-anchor="middle" x="252.25" y="-11.38" font-family="Helvetica,sans-Serif" font-size="10.00">Impl * &gt; * &gt;</text>
</a>
</g>
</g>
<!-- Node2&#45;&gt;Node1 -->
<g id="edge1_Node000001_Node000002" class="edge">
<title>Node2&#45;&gt;Node1</title>
<g id="a_edge1_Node000001_Node000002"><a xlink:title=" ">
<path fill="none" stroke="#9a32cd" stroke-dasharray="5,2" d="M343.41,-49.17C385.24,-57.08 433.55,-66.21 469.52,-73.01"/>
<polygon fill="#9a32cd" stroke="#9a32cd" points="344.32,-45.78 333.85,-47.36 343.02,-52.66 344.32,-45.78"/>
</a>
</g>
<text text-anchor="middle" x="385.5" y="-64.88" font-family="Helvetica,sans-Serif" font-size="10.00" fill="grey"> m_impl_objects</text>
</g>
<!-- Node3 -->
<g id="Node000003" class="node">
<title>Node3</title>
<g id="a_Node000003"><a xlink:title=" ">
<polygon fill="white" stroke="#666666" points="135.25,-64.25 0,-64.25 0,0 135.25,0 135.25,-64.25"/>
<text text-anchor="start" x="8" y="-50.75" font-family="Helvetica,sans-Serif" font-size="10.00">std::map&lt; const std</text>
<text text-anchor="start" x="8" y="-39.5" font-family="Helvetica,sans-Serif" font-size="10.00">::string *, dunedaq</text>
<text text-anchor="start" x="8" y="-28.25" font-family="Helvetica,sans-Serif" font-size="10.00">::conffwk::map&lt; dunedaq</text>
<text text-anchor="start" x="8" y="-17" font-family="Helvetica,sans-Serif" font-size="10.00">::conffwk::ConfigObjectImpl</text>
<text text-anchor="middle" x="67.62" y="-5.75" font-family="Helvetica,sans-Serif" font-size="10.00"> * &gt; * , string_ptr_compare &gt;</text>
</a>
</g>
</g>
<!-- Node3&#45;&gt;Node2 -->
<g id="edge2_Node000002_Node000003" class="edge">
<title>Node3&#45;&gt;Node2</title>
<g id="a_edge2_Node000002_Node000003"><a xlink:title=" ">
<path fill="none" stroke="#63b8ff" d="M146.9,-32.12C155.29,-32.12 163.82,-32.12 172.22,-32.12"/>
<polygon fill="#63b8ff" stroke="#63b8ff" points="147.1,-28.63 137.1,-32.13 147.1,-35.63 147.1,-28.63"/>
</a>
</g>
</g>
<!-- Node4&#45;&gt;Node1 -->
<g id="edge3_Node000001_Node000004" class="edge">
<title>Node4&#45;&gt;Node1</title>
<g id="a_edge3_Node000001_Node000004"><a xlink:title=" ">
<path fill="none" stroke="#9a32cd" stroke-dasharray="5,2" d="M793.96,-153.92C777.69,-133.23 748.66,-101.47 715,-87.88 679.2,-73.42 636.44,-71.18 600.56,-73.02"/>
<polygon fill="#9a32cd" stroke="#9a32cd" points="791.14,-155.99 799.97,-161.85 796.72,-151.76 791.14,-155.99"/>
</a>
</g>
<text text-anchor="middle" x="671.12" y="-88.88" font-family="Helvetica,sans-Serif" font-size="10.00" fill="grey"> m_conf</text>
</g>
<!-- Node5 -->
<g id="Node000005" class="node">
<title>Node5</title>
<g id="a_Node000005"><a xlink:href="classdunedaq_1_1conffwk_1_1map.html" target="_top" xlink:title=" ">
<polygon fill="white" stroke="#666666" points="598.75,-338.38 449.25,-338.38 449.25,-307.88 598.75,-307.88 598.75,-338.38"/>
<text text-anchor="start" x="457.25" y="-324.88" font-family="Helvetica,sans-Serif" font-size="10.00">dunedaq::conffwk::map</text>
<text text-anchor="middle" x="524" y="-313.62" font-family="Helvetica,sans-Serif" font-size="10.00">&lt; dunedaq::conffwk::class_t * &gt;</text>
</a>
</g>
</g>
<!-- Node5&#45;&gt;Node4 -->
<g id="edge4_Node000004_Node000005" class="edge">
<title>Node5&#45;&gt;Node4</title>
<g id="a_edge4_Node000004_Node000005"><a xlink:title=" ">
<path fill="none" stroke="#9a32cd" stroke-dasharray="5,2" d="M597.7,-304.21C634.35,-292.94 678.62,-276.61 715,-255.12 749.82,-234.56 783.59,-199.98 799.07,-183.06"/>
<polygon fill="#9a32cd" stroke="#9a32cd" points="597.11,-300.74 588.53,-306.96 599.12,-307.44 597.11,-300.74"/>
</a>
</g>
<text text-anchor="start" x="627.25" y="-328.62" font-family="Helvetica,sans-Serif" font-size="10.00" fill="grey"> p_all_classes_desc</text>
<text text-anchor="middle" x="671.12" y="-317.38" font-family="Helvetica,sans-Serif" font-size="10.00" fill="grey">_cache</text>
<text text-anchor="start" x="627.25" y="-306.12" font-family="Helvetica,sans-Serif" font-size="10.00" fill="grey">p_direct_classes</text>
<text text-anchor="middle" x="671.12" y="-294.88" font-family="Helvetica,sans-Serif" font-size="10.00" fill="grey">_desc_cache</text>
</g>
<!-- Node6 -->
<g id="Node000006" class="node">
<title>Node6</title>
<g id="a_Node000006"><a xlink:title=" ">
<polygon fill="white" stroke="#666666" points="306.38,-354 198.12,-354 198.12,-312.25 306.38,-312.25 306.38,-354"/>
<text text-anchor="start" x="206.12" y="-340.5" font-family="Helvetica,sans-Serif" font-size="10.00">std::unordered_map</text>
<text text-anchor="start" x="206.12" y="-329.25" font-family="Helvetica,sans-Serif" font-size="10.00">&lt; std::string, dunedaq</text>
<text text-anchor="middle" x="252.25" y="-318" font-family="Helvetica,sans-Serif" font-size="10.00">::conffwk::class_t * &gt;</text>
</a>
</g>
</g>
<!-- Node6&#45;&gt;Node5 -->
<g id="edge5_Node000005_Node000006" class="edge">
<title>Node6&#45;&gt;Node5</title>
<g id="a_edge5_Node000005_Node000006"><a xlink:title=" ">
<path fill="none" stroke="#63b8ff" d="M318.18,-330.72C357.54,-329.26 407.88,-327.39 448.8,-325.88"/>
<polygon fill="#63b8ff" stroke="#63b8ff" points="318.24,-327.21 308.38,-331.08 318.5,-334.21 318.24,-327.21"/>
</a>
</g>
</g>
<!-- Node7 -->
<g id="Node000007" class="node">
<title>Node7</title>
<g id="a_Node000007"><a xlink:href="classdunedaq_1_1conffwk_1_1fmap.html" target="_top" xlink:title=" ">
<polygon fill="white" stroke="#666666" points="582.62,-277.38 465.38,-277.38 465.38,-246.88 582.62,-246.88 582.62,-277.38"/>
<text text-anchor="start" x="473.38" y="-263.88" font-family="Helvetica,sans-Serif" font-size="10.00">dunedaq::conffwk::fmap</text>
<text text-anchor="middle" x="524" y="-252.62" font-family="Helvetica,sans-Serif" font-size="10.00">&lt; conffwk::fset &gt;</text>
</a>
</g>
</g>
<!-- Node7&#45;&gt;Node4 -->
<g id="edge6_Node000004_Node000007" class="edge">
<title>Node7&#45;&gt;Node4</title>
<g id="a_edge6_Node000004_Node000007"><a xlink:title=" ">
<path fill="none" stroke="#9a32cd" stroke-dasharray="5,2" d="M585.84,-242.98C644.2,-224.62 730.03,-197.62 776.01,-183.15"/>
<polygon fill="#9a32cd" stroke="#9a32cd" points="584.85,-239.62 576.36,-245.96 586.95,-246.3 584.85,-239.62"/>
</a>
</g>
<text text-anchor="middle" x="671.12" y="-241.12" font-family="Helvetica,sans-Serif" font-size="10.00" fill="grey"> p_subclasses</text>
<text text-anchor="middle" x="671.12" y="-229.88" font-family="Helvetica,sans-Serif" font-size="10.00" fill="grey">p_superclasses</text>
</g>
<!-- Node8 -->
<g id="Node000008" class="node">
<title>Node8</title>
<g id="a_Node000008"><a xlink:title=" ">
<polygon fill="white" stroke="#666666" points="309,-294.62 195.5,-294.62 195.5,-241.62 309,-241.62 309,-294.62"/>
<text text-anchor="start" x="203.5" y="-281.12" font-family="Helvetica,sans-Serif" font-size="10.00">std::unordered_map</text>
<text text-anchor="start" x="203.5" y="-269.88" font-family="Helvetica,sans-Serif" font-size="10.00">&lt; const std::string</text>
<text text-anchor="start" x="203.5" y="-258.62" font-family="Helvetica,sans-Serif" font-size="10.00"> *, conffwk::fset , string</text>
<text text-anchor="middle" x="252.25" y="-247.38" font-family="Helvetica,sans-Serif" font-size="10.00">_ptr_hash &gt;</text>
</a>
</g>
</g>
<!-- Node8&#45;&gt;Node7 -->
<g id="edge7_Node000007_Node000008" class="edge">
<title>Node8&#45;&gt;Node7</title>
<g id="a_edge7_Node000007_Node000008"><a xlink:title=" ">
<path fill="none" stroke="#63b8ff" d="M320.75,-266.62C365.15,-265.64 422.65,-264.36 464.99,-263.42"/>
<polygon fill="#63b8ff" stroke="#63b8ff" points="320.9,-263.12 310.98,-266.84 321.06,-270.12 320.9,-263.12"/>
</a>
</g>
</g>
<!-- Node9 -->
<g id="Node000009" class="node">
<title>Node9</title>
<g id="a_Node000009"><a xlink:href="classdunedaq_1_1conffwk_1_1map.html" target="_top" xlink:title=" ">
<polygon fill="white" stroke="#666666" points="584.88,-223.25 463.12,-223.25 463.12,-159 584.88,-159 584.88,-223.25"/>
<text text-anchor="start" x="471.12" y="-209.75" font-family="Helvetica,sans-Serif" font-size="10.00">dunedaq::conffwk::map</text>
<text text-anchor="start" x="471.12" y="-198.5" font-family="Helvetica,sans-Serif" font-size="10.00">&lt; std::list&lt; dunedaq</text>
<text text-anchor="start" x="471.12" y="-187.25" font-family="Helvetica,sans-Serif" font-size="10.00">::conffwk::Configuration</text>
<text text-anchor="start" x="471.12" y="-176" font-family="Helvetica,sans-Serif" font-size="10.00">::AttributeConverterBase</text>
<text text-anchor="middle" x="524" y="-164.75" font-family="Helvetica,sans-Serif" font-size="10.00"> * &gt; * &gt;</text>
</a>
</g>
</g>
<!-- Node9&#45;&gt;Node4 -->
<g id="edge8_Node000004_Node000009" class="edge">
<title>Node9&#45;&gt;Node4</title>
<g id="a_edge8_Node000004_Node000009"><a xlink:title=" ">
<path fill="none" stroke="#9a32cd" stroke-dasharray="5,2" d="M596.76,-186.56C638.34,-183.91 690.62,-180.59 732.75,-177.91"/>
<polygon fill="#9a32cd" stroke="#9a32cd" points="596.6,-183.06 586.85,-187.19 597.05,-190.05 596.6,-183.06"/>
</a>
</g>
<text text-anchor="middle" x="671.12" y="-185.88" font-family="Helvetica,sans-Serif" font-size="10.00" fill="grey"> m_convert_map</text>
</g>
<!-- Node10 -->
<g id="Node000010" class="node">
<title>Node10</title>
<g id="a_Node000010"><a xlink:title=" ">
<polygon fill="white" stroke="#666666" points="332.25,-223.25 172.25,-223.25 172.25,-159 332.25,-159 332.25,-223.25"/>
<text text-anchor="start" x="180.25" y="-209.75" font-family="Helvetica,sans-Serif" font-size="10.00">std::unordered_map</text>
<text text-anchor="start" x="180.25" y="-198.5" font-family="Helvetica,sans-Serif" font-size="10.00">&lt; std::string, std::</text>
<text text-anchor="start" x="180.25" y="-187.25" font-family="Helvetica,sans-Serif" font-size="10.00">list&lt; dunedaq::conffwk</text>
<text text-anchor="start" x="180.25" y="-176" font-family="Helvetica,sans-Serif" font-size="10.00">::Configuration::AttributeConverter</text>
<text text-anchor="middle" x="252.25" y="-164.75" font-family="Helvetica,sans-Serif" font-size="10.00">Base * &gt; * &gt;</text>
</a>
</g>
</g>
<!-- Node10&#45;&gt;Node9 -->
<g id="edge9_Node000009_Node000010" class="edge">
<title>Node10&#45;&gt;Node9</title>
<g id="a_edge9_Node000009_Node000010"><a xlink:title=" ">
<path fill="none" stroke="#63b8ff" d="M344.14,-191.12C383.3,-191.12 428,-191.12 462.92,-191.12"/>
<polygon fill="#63b8ff" stroke="#63b8ff" points="344.24,-187.63 334.24,-191.13 344.24,-194.63 344.24,-187.63"/>
</a>
</g>
</g>
<!-- Node11 -->
<g id="Node000011" class="node">
<title>Node11</title>
<g id="a_Node000011"><a xlink:href="classdunedaq_1_1conffwk_1_1fmap.html" target="_top" xlink:title=" ">
<polygon fill="white" stroke="#666666" points="608.12,-141.38 439.88,-141.38 439.88,-110.88 608.12,-110.88 608.12,-141.38"/>
<text text-anchor="start" x="447.88" y="-127.88" font-family="Helvetica,sans-Serif" font-size="10.00">dunedaq::conffwk::fmap</text>
<text text-anchor="middle" x="524" y="-116.62" font-family="Helvetica,sans-Serif" font-size="10.00">&lt; dunedaq::conffwk::CacheBase * &gt;</text>
</a>
</g>
</g>
<!-- Node11&#45;&gt;Node4 -->
<g id="edge10_Node000004_Node000011" class="edge">
<title>Node11&#45;&gt;Node4</title>
<g id="a_edge10_Node000004_Node000011"><a xlink:title=" ">
<path fill="none" stroke="#9a32cd" stroke-dasharray="5,2" d="M619.47,-141.82C661.57,-148.82 709.93,-156.85 747.12,-163.03"/>
<polygon fill="#9a32cd" stroke="#9a32cd" points="620.27,-138.41 609.83,-140.22 619.13,-145.31 620.27,-138.41"/>
</a>
</g>
<text text-anchor="middle" x="671.12" y="-157.88" font-family="Helvetica,sans-Serif" font-size="10.00" fill="grey"> m_cache_map</text>
</g>
<!-- Node12 -->
<g id="Node000012" class="node">
<title>Node12</title>
<g id="a_Node000012"><a xlink:title=" ">
<polygon fill="white" stroke="#666666" points="305.25,-141.25 199.25,-141.25 199.25,-77 305.25,-77 305.25,-141.25"/>
<text text-anchor="start" x="207.25" y="-127.75" font-family="Helvetica,sans-Serif" font-size="10.00">std::unordered_map</text>
<text text-anchor="start" x="207.25" y="-116.5" font-family="Helvetica,sans-Serif" font-size="10.00">&lt; const std::string</text>
<text text-anchor="start" x="207.25" y="-105.25" font-family="Helvetica,sans-Serif" font-size="10.00"> *, dunedaq::conffwk</text>
<text text-anchor="start" x="207.25" y="-94" font-family="Helvetica,sans-Serif" font-size="10.00">::CacheBase *, string</text>
<text text-anchor="middle" x="252.25" y="-82.75" font-family="Helvetica,sans-Serif" font-size="10.00">_ptr_hash &gt;</text>
</a>
</g>
</g>
<!-- Node12&#45;&gt;Node11 -->
<g id="edge11_Node000011_Node000012" class="edge">
<title>Node12&#45;&gt;Node11</title>
<g id="a_edge11_Node000011_Node000012"><a xlink:title=" ">
<path fill="none" stroke="#63b8ff" d="M316.62,-113.12C353.29,-115.43 399.87,-118.37 439.5,-120.86"/>
<polygon fill="#63b8ff" stroke="#63b8ff" points="317.29,-109.65 307.09,-112.52 316.85,-116.64 317.29,-109.65"/>
</a>
</g>
</g>
</g>
</svg>
