<?xml version="1.0" encoding="UTF-8" standalone="no"?>
<!DOCTYPE svg PUBLIC "-//W3C//DTD SVG 1.1//EN"
 "http://www.w3.org/Graphics/SVG/1.1/DTD/svg11.dtd">
<!-- Generated by graphviz version 9.0.0 (20230911.1827)
 -->
<!-- Title: dunedaq::appmodel::TriggerApplication Pages: 1 -->
<svg width="236pt" height="426pt"
 viewBox="0.00 0.00 235.88 426.25" xmlns="http://www.w3.org/2000/svg" xmlns:xlink="http://www.w3.org/1999/xlink">
<g id="graph0" class="graph" transform="scale(1 1) rotate(0) translate(4 422.25)">
<title>dunedaq::appmodel::TriggerApplication</title>
<!-- Node1 -->
<g id="Node000001" class="node">
<title>Node1</title>
<g id="a_Node000001"><a xlink:title=" ">
<polygon fill="#999999" stroke="#666666" points="164,-97 60.25,-97 60.25,-66.5 164,-66.5 164,-97"/>
<text text-anchor="start" x="68.25" y="-83.5" font-family="Helvetica,sans-Serif" font-size="10.00">dunedaq::appmodel::</text>
<text text-anchor="middle" x="112.12" y="-72.25" font-family="Helvetica,sans-Serif" font-size="10.00">TriggerApplication</text>
</a>
</g>
</g>
<!-- Node9 -->
<g id="Node000009" class="node">
<title>Node9</title>
<g id="a_Node000009"><a xlink:href="classdunedaq_1_1appmodel_1_1MLTApplication.html" target="_top" xlink:title=" ">
<polygon fill="white" stroke="#666666" points="164,-30.5 60.25,-30.5 60.25,0 164,0 164,-30.5"/>
<text text-anchor="start" x="68.25" y="-17" font-family="Helvetica,sans-Serif" font-size="10.00">dunedaq::appmodel::</text>
<text text-anchor="middle" x="112.12" y="-5.75" font-family="Helvetica,sans-Serif" font-size="10.00">MLTApplication</text>
</a>
</g>
</g>
<!-- Node1&#45;&gt;Node9 -->
<g id="edge17_Node000001_Node000009" class="edge">
<title>Node1&#45;&gt;Node9</title>
<g id="a_edge17_Node000001_Node000009"><a xlink:title=" ">
<path fill="none" stroke="#63b8ff" d="M105.49,-54.81C105.19,-46.64 105.48,-37.91 106.37,-30.83"/>
<polygon fill="#63b8ff" stroke="#63b8ff" points="101.99,-54.9 106.25,-64.6 108.97,-54.37 101.99,-54.9"/>
</a>
</g>
</g>
<!-- Node1&#45;&gt;Node9 -->
<g id="edge18_Node000001_Node000009" class="edge">
<title>Node1&#45;&gt;Node9</title>
<g id="a_edge18_Node000001_Node000009"><a xlink:title=" ">
<path fill="none" stroke="#63b8ff" d="M118.76,-54.81C119.06,-46.64 118.77,-37.91 117.88,-30.83"/>
<polygon fill="#63b8ff" stroke="#63b8ff" points="115.28,-54.37 118,-64.6 122.26,-54.9 115.28,-54.37"/>
</a>
</g>
</g>
<!-- Node2 -->
<g id="Node000002" class="node">
<title>Node2</title>
<g id="a_Node000002"><a xlink:href="classdunedaq_1_1confmodel_1_1ResourceSetAND.html" target="_top" xlink:title=" ">
<polygon fill="white" stroke="#666666" points="119.25,-163.5 17,-163.5 17,-133 119.25,-133 119.25,-163.5"/>
<text text-anchor="start" x="25" y="-150" font-family="Helvetica,sans-Serif" font-size="10.00">dunedaq::confmodel</text>
<text text-anchor="middle" x="68.12" y="-138.75" font-family="Helvetica,sans-Serif" font-size="10.00">::ResourceSetAND</text>
</a>
</g>
</g>
<!-- Node2&#45;&gt;Node1 -->
<g id="edge1_Node000001_Node000002" class="edge">
<title>Node2&#45;&gt;Node1</title>
<g id="a_edge1_Node000001_Node000002"><a xlink:title=" ">
<path fill="none" stroke="#63b8ff" d="M78.1,-123.01C83.58,-114.37 90.3,-104.91 96.43,-97.33"/>
<polygon fill="#63b8ff" stroke="#63b8ff" points="75.26,-120.94 73.13,-131.32 81.27,-124.53 75.26,-120.94"/>
</a>
</g>
</g>
<!-- Node2&#45;&gt;Node1 -->
<g id="edge15_Node000001_Node000002" class="edge">
<title>Node2&#45;&gt;Node1</title>
<g id="a_edge15_Node000001_Node000002"><a xlink:title=" ">
<path fill="none" stroke="#63b8ff" d="M90.81,-123.57C97.26,-114.78 103.63,-105.07 107.93,-97.33"/>
<polygon fill="#63b8ff" stroke="#63b8ff" points="88.1,-121.35 84.79,-131.41 93.66,-125.61 88.1,-121.35"/>
</a>
</g>
</g>
<!-- Node3 -->
<g id="Node000003" class="node">
<title>Node3</title>
<g id="a_Node000003"><a xlink:href="classdunedaq_1_1confmodel_1_1ResourceSet.html" target="_top" xlink:title=" ">
<polygon fill="white" stroke="#666666" points="102.25,-230 0,-230 0,-199.5 102.25,-199.5 102.25,-230"/>
<text text-anchor="start" x="8" y="-216.5" font-family="Helvetica,sans-Serif" font-size="10.00">dunedaq::confmodel</text>
<text text-anchor="middle" x="51.12" y="-205.25" font-family="Helvetica,sans-Serif" font-size="10.00">::ResourceSet</text>
</a>
</g>
</g>
<!-- Node3&#45;&gt;Node2 -->
<g id="edge2_Node000002_Node000003" class="edge">
<title>Node3&#45;&gt;Node2</title>
<g id="a_edge2_Node000002_Node000003"><a xlink:title=" ">
<path fill="none" stroke="#63b8ff" d="M51.33,-187.81C53.18,-179.64 55.77,-170.91 58.53,-163.83"/>
<polygon fill="#63b8ff" stroke="#63b8ff" points="47.89,-187.15 49.5,-197.63 54.77,-188.44 47.89,-187.15"/>
</a>
</g>
</g>
<!-- Node3&#45;&gt;Node2 -->
<g id="edge9_Node000002_Node000003" class="edge">
<title>Node3&#45;&gt;Node2</title>
<g id="a_edge9_Node000002_Node000003"><a xlink:title=" ">
<path fill="none" stroke="#63b8ff" d="M64.42,-188.38C66.96,-180.05 69.04,-171.08 70.04,-163.83"/>
<polygon fill="#63b8ff" stroke="#63b8ff" points="61.17,-187.09 61.23,-197.68 67.79,-189.36 61.17,-187.09"/>
</a>
</g>
</g>
<!-- Node4 -->
<g id="Node000004" class="node">
<title>Node4</title>
<g id="a_Node000004"><a xlink:href="classdunedaq_1_1confmodel_1_1ResourceBase.html" target="_top" xlink:title=" ">
<polygon fill="white" stroke="#666666" points="103.25,-296.5 1,-296.5 1,-266 103.25,-266 103.25,-296.5"/>
<text text-anchor="start" x="9" y="-283" font-family="Helvetica,sans-Serif" font-size="10.00">dunedaq::confmodel</text>
<text text-anchor="middle" x="52.12" y="-271.75" font-family="Helvetica,sans-Serif" font-size="10.00">::ResourceBase</text>
</a>
</g>
</g>
<!-- Node4&#45;&gt;Node3 -->
<g id="edge3_Node000003_Node000004" class="edge">
<title>Node4&#45;&gt;Node3</title>
<g id="a_edge3_Node000003_Node000004"><a xlink:title=" ">
<path fill="none" stroke="#63b8ff" d="M45.09,-254.31C44.66,-246.14 44.82,-237.41 45.6,-230.33"/>
<polygon fill="#63b8ff" stroke="#63b8ff" points="41.59,-254.47 46,-264.11 48.56,-253.83 41.59,-254.47"/>
</a>
</g>
</g>
<!-- Node4&#45;&gt;Node3 -->
<g id="edge8_Node000003_Node000004" class="edge">
<title>Node4&#45;&gt;Node3</title>
<g id="a_edge8_Node000003_Node000004"><a xlink:title=" ">
<path fill="none" stroke="#63b8ff" d="M58.36,-254.31C58.53,-246.14 58.11,-237.41 57.1,-230.33"/>
<polygon fill="#63b8ff" stroke="#63b8ff" points="54.87,-253.91 57.75,-264.1 61.86,-254.34 54.87,-253.91"/>
</a>
</g>
</g>
<!-- Node5 -->
<g id="Node000005" class="node">
<title>Node5</title>
<g id="a_Node000005"><a xlink:href="classdunedaq_1_1confmodel_1_1Component.html" target="_top" xlink:title=" ">
<polygon fill="white" stroke="#666666" points="104.25,-363 2,-363 2,-332.5 104.25,-332.5 104.25,-363"/>
<text text-anchor="start" x="10" y="-349.5" font-family="Helvetica,sans-Serif" font-size="10.00">dunedaq::confmodel</text>
<text text-anchor="middle" x="53.12" y="-338.25" font-family="Helvetica,sans-Serif" font-size="10.00">::Component</text>
</a>
</g>
</g>
<!-- Node5&#45;&gt;Node4 -->
<g id="edge4_Node000004_Node000005" class="edge">
<title>Node5&#45;&gt;Node4</title>
<g id="a_edge4_Node000004_Node000005"><a xlink:title=" ">
<path fill="none" stroke="#63b8ff" d="M46.09,-320.81C45.66,-312.64 45.82,-303.91 46.6,-296.83"/>
<polygon fill="#63b8ff" stroke="#63b8ff" points="42.59,-320.97 47,-330.61 49.56,-320.33 42.59,-320.97"/>
</a>
</g>
</g>
<!-- Node5&#45;&gt;Node4 -->
<g id="edge7_Node000004_Node000005" class="edge">
<title>Node5&#45;&gt;Node4</title>
<g id="a_edge7_Node000004_Node000005"><a xlink:title=" ">
<path fill="none" stroke="#63b8ff" d="M59.36,-320.81C59.53,-312.64 59.11,-303.91 58.1,-296.83"/>
<polygon fill="#63b8ff" stroke="#63b8ff" points="55.87,-320.41 58.75,-330.6 62.86,-320.84 55.87,-320.41"/>
</a>
</g>
</g>
<!-- Node6 -->
<g id="Node000006" class="node">
<title>Node6</title>
<g id="a_Node000006"><a xlink:href="classdunedaq_1_1conffwk_1_1DalObject.html" target="_top" xlink:title="The base class for any generated DAL object.">
<polygon fill="white" stroke="#666666" points="182.25,-418.25 44,-418.25 44,-399 182.25,-399 182.25,-418.25"/>
<text text-anchor="middle" x="113.12" y="-404.75" font-family="Helvetica,sans-Serif" font-size="10.00">dunedaq::conffwk::DalObject</text>
</a>
</g>
</g>
<!-- Node6&#45;&gt;Node5 -->
<g id="edge5_Node000005_Node000006" class="edge">
<title>Node6&#45;&gt;Node5</title>
<g id="a_edge5_Node000005_Node000006"><a xlink:title=" ">
<path fill="none" stroke="#63b8ff" d="M90.36,-391.29C80.5,-382.51 69.63,-371.77 62.02,-363.28"/>
<polygon fill="#63b8ff" stroke="#63b8ff" points="87.98,-393.86 97.85,-397.7 92.53,-388.54 87.98,-393.86"/>
</a>
</g>
</g>
<!-- Node6&#45;&gt;Node5 -->
<g id="edge6_Node000005_Node000006" class="edge">
<title>Node6&#45;&gt;Node5</title>
<g id="a_edge6_Node000005_Node000006"><a xlink:title=" ">
<path fill="none" stroke="#63b8ff" d="M101.59,-390.2C93.65,-381.63 83.15,-371.42 73.85,-363.28"/>
<polygon fill="#63b8ff" stroke="#63b8ff" points="98.8,-392.33 108.02,-397.54 104.07,-387.72 98.8,-392.33"/>
</a>
</g>
</g>
<!-- Node8 -->
<g id="Node000008" class="node">
<title>Node8</title>
<g id="a_Node000008"><a xlink:href="classdunedaq_1_1confmodel_1_1Application.html" target="_top" xlink:title=" ">
<polygon fill="white" stroke="#666666" points="224.25,-363 122,-363 122,-332.5 224.25,-332.5 224.25,-363"/>
<text text-anchor="start" x="130" y="-349.5" font-family="Helvetica,sans-Serif" font-size="10.00">dunedaq::confmodel</text>
<text text-anchor="middle" x="173.12" y="-338.25" font-family="Helvetica,sans-Serif" font-size="10.00">::Application</text>
</a>
</g>
</g>
<!-- Node6&#45;&gt;Node8 -->
<g id="edge12_Node000008_Node000006" class="edge">
<title>Node6&#45;&gt;Node8</title>
<g id="a_edge12_Node000008_Node000006"><a xlink:title=" ">
<path fill="none" stroke="#63b8ff" d="M124.66,-390.2C132.6,-381.63 143.1,-371.42 152.4,-363.28"/>
<polygon fill="#63b8ff" stroke="#63b8ff" points="122.18,-387.72 118.23,-397.54 127.45,-392.33 122.18,-387.72"/>
</a>
</g>
</g>
<!-- Node6&#45;&gt;Node8 -->
<g id="edge13_Node000008_Node000006" class="edge">
<title>Node6&#45;&gt;Node8</title>
<g id="a_edge13_Node000008_Node000006"><a xlink:title=" ">
<path fill="none" stroke="#63b8ff" d="M135.89,-391.29C145.75,-382.51 156.62,-371.77 164.23,-363.28"/>
<polygon fill="#63b8ff" stroke="#63b8ff" points="133.72,-388.54 128.4,-397.7 138.27,-393.86 133.72,-388.54"/>
</a>
</g>
</g>
<!-- Node7 -->
<g id="Node000007" class="node">
<title>Node7</title>
<g id="a_Node000007"><a xlink:href="classdunedaq_1_1appmodel_1_1SmartDaqApplication.html" target="_top" xlink:title=" ">
<polygon fill="white" stroke="#666666" points="227.88,-230 120.38,-230 120.38,-199.5 227.88,-199.5 227.88,-230"/>
<text text-anchor="start" x="128.38" y="-216.5" font-family="Helvetica,sans-Serif" font-size="10.00">dunedaq::appmodel::</text>
<text text-anchor="middle" x="174.12" y="-205.25" font-family="Helvetica,sans-Serif" font-size="10.00">SmartDaqApplication</text>
</a>
</g>
</g>
<!-- Node7&#45;&gt;Node1 -->
<g id="edge10_Node000001_Node000007" class="edge">
<title>Node7&#45;&gt;Node1</title>
<g id="a_edge10_Node000001_Node000007"><a xlink:title=" ">
<path fill="none" stroke="#63b8ff" d="M157.2,-189.38C142.32,-162.34 122.41,-119.6 114.59,-97.33"/>
<polygon fill="#63b8ff" stroke="#63b8ff" points="154.07,-190.96 162.07,-197.92 160.15,-187.5 154.07,-190.96"/>
</a>
</g>
</g>
<!-- Node7&#45;&gt;Node1 -->
<g id="edge16_Node000001_Node000007" class="edge">
<title>Node7&#45;&gt;Node1</title>
<g id="a_edge16_Node000001_Node000007"><a xlink:title=" ">
<path fill="none" stroke="#63b8ff" d="M167.69,-188.66C156.91,-161.59 136.61,-119.41 123.47,-97.33"/>
<polygon fill="#63b8ff" stroke="#63b8ff" points="164.35,-189.69 171.15,-197.81 170.89,-187.22 164.35,-189.69"/>
</a>
</g>
</g>
<!-- Node8&#45;&gt;Node7 -->
<g id="edge11_Node000007_Node000008" class="edge">
<title>Node8&#45;&gt;Node7</title>
<g id="a_edge11_Node000007_Node000008"><a xlink:title=" ">
<path fill="none" stroke="#63b8ff" d="M167.82,-320.93C166.06,-293.84 166.73,-252.21 169.57,-230.33"/>
<polygon fill="#63b8ff" stroke="#63b8ff" points="164.32,-321.06 168.67,-330.72 171.29,-320.46 164.32,-321.06"/>
</a>
</g>
</g>
<!-- Node8&#45;&gt;Node7 -->
<g id="edge14_Node000007_Node000008" class="edge">
<title>Node8&#45;&gt;Node7</title>
<g id="a_edge14_Node000007_Node000008"><a xlink:title=" ">
<path fill="none" stroke="#63b8ff" d="M178.82,-320.93C181,-293.84 180.96,-252.21 178.45,-230.33"/>
<polygon fill="#63b8ff" stroke="#63b8ff" points="175.36,-320.42 177.82,-330.72 182.32,-321.13 175.36,-320.42"/>
</a>
</g>
</g>
</g>
</svg>
