<?xml version="1.0" encoding="UTF-8" standalone="no"?>
<!DOCTYPE svg PUBLIC "-//W3C//DTD SVG 1.1//EN"
 "http://www.w3.org/Graphics/SVG/1.1/DTD/svg11.dtd">
<!-- Generated by graphviz version 9.0.0 (20230911.1827)
 -->
<!-- Title: dunedaq::appmodel::TCMakerChannelDistanceAlgorithm Pages: 1 -->
<svg width="179pt" height="227pt"
 viewBox="0.00 0.00 178.50 226.75" xmlns="http://www.w3.org/2000/svg" xmlns:xlink="http://www.w3.org/1999/xlink">
<g id="graph0" class="graph" transform="scale(1 1) rotate(0) translate(4 222.75)">
<title>dunedaq::appmodel::TCMakerChannelDistanceAlgorithm</title>
<!-- Node1 -->
<g id="Node000001" class="node">
<title>Node1</title>
<g id="a_Node000001"><a xlink:title=" ">
<polygon fill="#999999" stroke="#666666" points="170.5,-30.5 0,-30.5 0,0 170.5,0 170.5,-30.5"/>
<text text-anchor="start" x="8" y="-17" font-family="Helvetica,sans-Serif" font-size="10.00">dunedaq::appmodel::</text>
<text text-anchor="middle" x="85.25" y="-5.75" font-family="Helvetica,sans-Serif" font-size="10.00">TCMakerChannelDistanceAlgorithm</text>
</a>
</g>
</g>
<!-- Node2 -->
<g id="Node000002" class="node">
<title>Node2</title>
<g id="a_Node000002"><a xlink:href="classdunedaq_1_1appmodel_1_1TCAlgorithm.html" target="_top" xlink:title=" ">
<polygon fill="white" stroke="#666666" points="137.12,-97 33.38,-97 33.38,-66.5 137.12,-66.5 137.12,-97"/>
<text text-anchor="start" x="41.38" y="-83.5" font-family="Helvetica,sans-Serif" font-size="10.00">dunedaq::appmodel::</text>
<text text-anchor="middle" x="85.25" y="-72.25" font-family="Helvetica,sans-Serif" font-size="10.00">TCAlgorithm</text>
</a>
</g>
</g>
<!-- Node2&#45;&gt;Node1 -->
<g id="edge1_Node000001_Node000002" class="edge">
<title>Node2&#45;&gt;Node1</title>
<g id="a_edge1_Node000001_Node000002"><a xlink:title=" ">
<path fill="none" stroke="#63b8ff" d="M78.62,-54.81C78.31,-46.64 78.61,-37.91 79.5,-30.83"/>
<polygon fill="#63b8ff" stroke="#63b8ff" points="75.11,-54.9 79.37,-64.6 82.09,-54.37 75.11,-54.9"/>
</a>
</g>
</g>
<!-- Node2&#45;&gt;Node1 -->
<g id="edge6_Node000001_Node000002" class="edge">
<title>Node2&#45;&gt;Node1</title>
<g id="a_edge6_Node000001_Node000002"><a xlink:title=" ">
<path fill="none" stroke="#63b8ff" d="M91.88,-54.81C92.19,-46.64 91.89,-37.91 91,-30.83"/>
<polygon fill="#63b8ff" stroke="#63b8ff" points="88.41,-54.37 91.13,-64.6 95.39,-54.9 88.41,-54.37"/>
</a>
</g>
</g>
<!-- Node3 -->
<g id="Node000003" class="node">
<title>Node3</title>
<g id="a_Node000003"><a xlink:href="classdunedaq_1_1confmodel_1_1Jsonable.html" target="_top" xlink:title=" ">
<polygon fill="white" stroke="#666666" points="136.38,-163.5 34.12,-163.5 34.12,-133 136.38,-133 136.38,-163.5"/>
<text text-anchor="start" x="42.12" y="-150" font-family="Helvetica,sans-Serif" font-size="10.00">dunedaq::confmodel</text>
<text text-anchor="middle" x="85.25" y="-138.75" font-family="Helvetica,sans-Serif" font-size="10.00">::Jsonable</text>
</a>
</g>
</g>
<!-- Node3&#45;&gt;Node2 -->
<g id="edge2_Node000002_Node000003" class="edge">
<title>Node3&#45;&gt;Node2</title>
<g id="a_edge2_Node000002_Node000003"><a xlink:title=" ">
<path fill="none" stroke="#63b8ff" d="M78.62,-121.31C78.31,-113.14 78.61,-104.41 79.5,-97.33"/>
<polygon fill="#63b8ff" stroke="#63b8ff" points="75.11,-121.4 79.37,-131.1 82.09,-120.87 75.11,-121.4"/>
</a>
</g>
</g>
<!-- Node3&#45;&gt;Node2 -->
<g id="edge5_Node000002_Node000003" class="edge">
<title>Node3&#45;&gt;Node2</title>
<g id="a_edge5_Node000002_Node000003"><a xlink:title=" ">
<path fill="none" stroke="#63b8ff" d="M91.88,-121.31C92.19,-113.14 91.89,-104.41 91,-97.33"/>
<polygon fill="#63b8ff" stroke="#63b8ff" points="88.41,-120.87 91.13,-131.1 95.39,-121.4 88.41,-120.87"/>
</a>
</g>
</g>
<!-- Node4 -->
<g id="Node000004" class="node">
<title>Node4</title>
<g id="a_Node000004"><a xlink:href="classdunedaq_1_1conffwk_1_1DalObject.html" target="_top" xlink:title="The base class for any generated DAL object.">
<polygon fill="white" stroke="#666666" points="154.38,-218.75 16.12,-218.75 16.12,-199.5 154.38,-199.5 154.38,-218.75"/>
<text text-anchor="middle" x="85.25" y="-205.25" font-family="Helvetica,sans-Serif" font-size="10.00">dunedaq::conffwk::DalObject</text>
</a>
</g>
</g>
<!-- Node4&#45;&gt;Node3 -->
<g id="edge3_Node000003_Node000004" class="edge">
<title>Node4&#45;&gt;Node3</title>
<g id="a_edge3_Node000003_Node000004"><a xlink:title=" ">
<path fill="none" stroke="#63b8ff" d="M78.8,-187.92C78.27,-179.99 78.44,-171.06 79.34,-163.78"/>
<polygon fill="#63b8ff" stroke="#63b8ff" points="75.31,-188.2 80.05,-197.68 82.26,-187.32 75.31,-188.2"/>
</a>
</g>
</g>
<!-- Node4&#45;&gt;Node3 -->
<g id="edge4_Node000003_Node000004" class="edge">
<title>Node4&#45;&gt;Node3</title>
<g id="a_edge4_Node000003_Node000004"><a xlink:title=" ">
<path fill="none" stroke="#63b8ff" d="M91.7,-187.92C92.23,-179.99 92.06,-171.06 91.16,-163.78"/>
<polygon fill="#63b8ff" stroke="#63b8ff" points="88.24,-187.32 90.45,-197.68 95.19,-188.2 88.24,-187.32"/>
</a>
</g>
</g>
</g>
</svg>
