<?xml version="1.0" encoding="UTF-8" standalone="no"?>
<!DOCTYPE svg PUBLIC "-//W3C//DTD SVG 1.1//EN"
 "http://www.w3.org/Graphics/SVG/1.1/DTD/svg11.dtd">
<!-- Generated by graphviz version 9.0.0 (20230911.1827)
 -->
<!-- Title: dunedaq::dpdklibs::SourceConcept Pages: 1 -->
<svg width="152pt" height="183pt"
 viewBox="0.00 0.00 151.50 182.75" xmlns="http://www.w3.org/2000/svg" xmlns:xlink="http://www.w3.org/1999/xlink">
<g id="graph0" class="graph" transform="scale(1 1) rotate(0) translate(4 178.75)">
<title>dunedaq::dpdklibs::SourceConcept</title>
<!-- Node1 -->
<g id="Node000001" class="node">
<title>Node1</title>
<g id="a_Node000001"><a xlink:title=" ">
<polygon fill="#999999" stroke="#666666" points="120.62,-108.25 22.88,-108.25 22.88,-77.75 120.62,-77.75 120.62,-108.25"/>
<text text-anchor="start" x="30.88" y="-94.75" font-family="Helvetica,sans-Serif" font-size="10.00">dunedaq::dpdklibs::</text>
<text text-anchor="middle" x="71.75" y="-83.5" font-family="Helvetica,sans-Serif" font-size="10.00">SourceConcept</text>
</a>
</g>
</g>
<!-- Node3 -->
<g id="Node000003" class="node">
<title>Node3</title>
<g id="a_Node000003"><a xlink:href="classdunedaq_1_1dpdklibs_1_1SourceModel.html" target="_top" xlink:title=" ">
<polygon fill="white" stroke="#666666" points="143.5,-41.75 0,-41.75 0,0 143.5,0 143.5,-41.75"/>
<text text-anchor="start" x="8" y="-28.25" font-family="Helvetica,sans-Serif" font-size="10.00">dunedaq::dpdklibs::</text>
<text text-anchor="start" x="8" y="-17" font-family="Helvetica,sans-Serif" font-size="10.00">SourceModel&lt; TargetPayload</text>
<text text-anchor="middle" x="71.75" y="-5.75" font-family="Helvetica,sans-Serif" font-size="10.00">Type &gt;</text>
</a>
</g>
</g>
<!-- Node1&#45;&gt;Node3 -->
<g id="edge2_Node000001_Node000003" class="edge">
<title>Node1&#45;&gt;Node3</title>
<g id="a_edge2_Node000001_Node000003"><a xlink:title=" ">
<path fill="none" stroke="#63b8ff" d="M71.75,-66.22C71.75,-58.31 71.75,-49.73 71.75,-42.24"/>
<polygon fill="#63b8ff" stroke="#63b8ff" points="68.25,-65.96 71.75,-75.96 75.25,-65.96 68.25,-65.96"/>
</a>
</g>
</g>
<!-- Node2 -->
<g id="Node000002" class="node">
<title>Node2</title>
<g id="a_Node000002"><a xlink:href="classdunedaq_1_1opmonlib_1_1MonitorableObject.html" target="_top" xlink:title=" ">
<polygon fill="white" stroke="#666666" points="122.12,-174.75 21.38,-174.75 21.38,-144.25 122.12,-144.25 122.12,-174.75"/>
<text text-anchor="start" x="29.38" y="-161.25" font-family="Helvetica,sans-Serif" font-size="10.00">dunedaq::opmonlib::</text>
<text text-anchor="middle" x="71.75" y="-150" font-family="Helvetica,sans-Serif" font-size="10.00">MonitorableObject</text>
</a>
</g>
</g>
<!-- Node2&#45;&gt;Node1 -->
<g id="edge1_Node000001_Node000002" class="edge">
<title>Node2&#45;&gt;Node1</title>
<g id="a_edge1_Node000001_Node000002"><a xlink:title=" ">
<path fill="none" stroke="#63b8ff" d="M71.75,-132.56C71.75,-124.39 71.75,-115.66 71.75,-108.58"/>
<polygon fill="#63b8ff" stroke="#63b8ff" points="68.25,-132.35 71.75,-142.35 75.25,-132.35 68.25,-132.35"/>
</a>
</g>
</g>
</g>
</svg>
