<?xml version="1.0" encoding="UTF-8" standalone="no"?>
<!DOCTYPE svg PUBLIC "-//W3C//DTD SVG 1.1//EN"
 "http://www.w3.org/Graphics/SVG/1.1/DTD/svg11.dtd">
<!-- Generated by graphviz version 9.0.0 (20230911.1827)
 -->
<!-- Title: dunedaq::timing::OuroborosMuxDesign Pages: 1 -->
<svg width="1133pt" height="143pt"
 viewBox="0.00 0.00 1133.25 143.39" xmlns="http://www.w3.org/2000/svg" xmlns:xlink="http://www.w3.org/1999/xlink">
<g id="graph0" class="graph" transform="scale(1 1) rotate(0) translate(4 139.39)">
<title>dunedaq::timing::OuroborosMuxDesign</title>
<!-- Node1 -->
<g id="Node000001" class="node">
<title>Node1</title>
<g id="a_Node000001"><a xlink:title="Class for PDI ouroboros timing master design.">
<polygon fill="#999999" stroke="#666666" points="1125.25,-55.39 992.25,-55.39 992.25,-24.89 1125.25,-24.89 1125.25,-55.39"/>
<text text-anchor="start" x="1000.25" y="-41.89" font-family="Helvetica,sans-Serif" font-size="10.00">dunedaq::timing::Ouroboros</text>
<text text-anchor="middle" x="1058.75" y="-30.64" font-family="Helvetica,sans-Serif" font-size="10.00">MuxDesign</text>
</a>
</g>
</g>
<!-- Node2 -->
<g id="Node000002" class="node">
<title>Node2</title>
<g id="a_Node000002"><a xlink:href="classdunedaq_1_1timing_1_1MasterMuxDesign.html" target="_top" xlink:title="Class for PDI timing master design on mux board.">
<polygon fill="white" stroke="#666666" points="956.25,-88.39 820.25,-88.39 820.25,-57.89 956.25,-57.89 956.25,-88.39"/>
<text text-anchor="start" x="828.25" y="-74.89" font-family="Helvetica,sans-Serif" font-size="10.00">dunedaq::timing::MasterMux</text>
<text text-anchor="middle" x="888.25" y="-63.64" font-family="Helvetica,sans-Serif" font-size="10.00">Design</text>
</a>
</g>
</g>
<!-- Node2&#45;&gt;Node1 -->
<g id="edge1_Node000001_Node000002" class="edge">
<title>Node2&#45;&gt;Node1</title>
<g id="a_edge1_Node000001_Node000002"><a xlink:title=" ">
<path fill="none" stroke="#63b8ff" d="M967.45,-57.83C975.66,-56.22 983.95,-54.6 992,-53.02"/>
<polygon fill="#63b8ff" stroke="#63b8ff" points="966.96,-54.36 957.82,-59.72 968.3,-61.23 966.96,-54.36"/>
</a>
</g>
</g>
<!-- Node3 -->
<g id="Node000003" class="node">
<title>Node3</title>
<g id="a_Node000003"><a xlink:href="classdunedaq_1_1timing_1_1SFPMuxDesignInterface.html" target="_top" xlink:title="Class for timing fanout designs.">
<polygon fill="white" stroke="#666666" points="784.25,-135.39 628.75,-135.39 628.75,-104.89 784.25,-104.89 784.25,-135.39"/>
<text text-anchor="start" x="636.75" y="-121.89" font-family="Helvetica,sans-Serif" font-size="10.00">dunedaq::timing::SFPMuxDesign</text>
<text text-anchor="middle" x="706.5" y="-110.64" font-family="Helvetica,sans-Serif" font-size="10.00">Interface</text>
</a>
</g>
</g>
<!-- Node3&#45;&gt;Node2 -->
<g id="edge2_Node000002_Node000003" class="edge">
<title>Node3&#45;&gt;Node2</title>
<g id="a_edge2_Node000002_Node000003"><a xlink:title=" ">
<path fill="none" stroke="#63b8ff" d="M778.59,-101.56C794.68,-97.35 811.62,-92.92 827.2,-88.85"/>
<polygon fill="#63b8ff" stroke="#63b8ff" points="777.86,-98.13 769.07,-104.05 779.63,-104.9 777.86,-98.13"/>
</a>
</g>
</g>
<!-- Node4 -->
<g id="Node000004" class="node">
<title>Node4</title>
<g id="a_Node000004"><a xlink:href="classdunedaq_1_1timing_1_1TopDesignInterface.html" target="_top" xlink:title="Base class for timing top design nodes.">
<polygon fill="white" stroke="#666666" points="408.75,-79.39 274.25,-79.39 274.25,-48.89 408.75,-48.89 408.75,-79.39"/>
<text text-anchor="start" x="282.25" y="-65.89" font-family="Helvetica,sans-Serif" font-size="10.00">dunedaq::timing::TopDesign</text>
<text text-anchor="middle" x="341.5" y="-54.64" font-family="Helvetica,sans-Serif" font-size="10.00">Interface</text>
</a>
</g>
</g>
<!-- Node4&#45;&gt;Node3 -->
<g id="edge3_Node000003_Node000004" class="edge">
<title>Node4&#45;&gt;Node3</title>
<g id="a_edge3_Node000003_Node000004"><a xlink:title=" ">
<path fill="none" stroke="#63b8ff" d="M384.39,-84.51C402.52,-92.38 424.25,-100.57 444.75,-105.14 505.49,-118.69 576.05,-122.02 628.44,-122.2"/>
<polygon fill="#63b8ff" stroke="#63b8ff" points="385.83,-81.32 375.27,-80.43 382.97,-87.71 385.83,-81.32"/>
</a>
</g>
</g>
<!-- Node8 -->
<g id="Node000008" class="node">
<title>Node8</title>
<g id="a_Node000008"><a xlink:href="classdunedaq_1_1timing_1_1TopDesign.html" target="_top" xlink:title="Base class for timing top design nodes with IO class.">
<polygon fill="white" stroke="#666666" points="586,-95.77 451.5,-95.77 451.5,-76.52 586,-76.52 586,-95.77"/>
<text text-anchor="middle" x="518.75" y="-82.27" font-family="Helvetica,sans-Serif" font-size="10.00">dunedaq::timing::TopDesign</text>
</a>
</g>
</g>
<!-- Node4&#45;&gt;Node8 -->
<g id="edge8_Node000008_Node000004" class="edge">
<title>Node4&#45;&gt;Node8</title>
<g id="a_edge8_Node000008_Node000004"><a xlink:title=" ">
<path fill="none" stroke="#63b8ff" d="M419.93,-73.87C430.33,-75.17 440.92,-76.5 451.11,-77.78"/>
<polygon fill="#63b8ff" stroke="#63b8ff" points="420.61,-70.42 410.26,-72.65 419.74,-77.37 420.61,-70.42"/>
</a>
</g>
</g>
<!-- Node9 -->
<g id="Node000009" class="node">
<title>Node9</title>
<g id="a_Node000009"><a xlink:href="classdunedaq_1_1timing_1_1MasterDesignInterface.html" target="_top" xlink:title="Base class for timing master designs.">
<polygon fill="white" stroke="#666666" points="592.75,-58.39 444.75,-58.39 444.75,-27.89 592.75,-27.89 592.75,-58.39"/>
<text text-anchor="start" x="452.75" y="-44.89" font-family="Helvetica,sans-Serif" font-size="10.00">dunedaq::timing::MasterDesign</text>
<text text-anchor="middle" x="518.75" y="-33.64" font-family="Helvetica,sans-Serif" font-size="10.00">Interface</text>
</a>
</g>
</g>
<!-- Node4&#45;&gt;Node9 -->
<g id="edge10_Node000009_Node000004" class="edge">
<title>Node4&#45;&gt;Node9</title>
<g id="a_edge10_Node000009_Node000004"><a xlink:title=" ">
<path fill="none" stroke="#63b8ff" d="M420.07,-54.85C428.14,-53.88 436.34,-52.9 444.36,-51.94"/>
<polygon fill="#63b8ff" stroke="#63b8ff" points="419.77,-51.36 410.26,-56.03 420.6,-58.31 419.77,-51.36"/>
</a>
</g>
</g>
<!-- Node10 -->
<g id="Node000010" class="node">
<title>Node10</title>
<g id="a_Node000010"><a xlink:href="classdunedaq_1_1timing_1_1EndpointDesignInterface.html" target="_top" xlink:title="Base class for timing endpoint design nodes.">
<polygon fill="white" stroke="#666666" points="951,-31.39 825.5,-31.39 825.5,-0.89 951,-0.89 951,-31.39"/>
<text text-anchor="start" x="833.5" y="-17.89" font-family="Helvetica,sans-Serif" font-size="10.00">dunedaq::timing::Endpoint</text>
<text text-anchor="middle" x="888.25" y="-6.64" font-family="Helvetica,sans-Serif" font-size="10.00">DesignInterface</text>
</a>
</g>
</g>
<!-- Node4&#45;&gt;Node10 -->
<g id="edge12_Node000010_Node000004" class="edge">
<title>Node4&#45;&gt;Node10</title>
<g id="a_edge12_Node000010_Node000004"><a xlink:title=" ">
<path fill="none" stroke="#63b8ff" d="M379.89,-43.28C398.73,-33.94 422.29,-23.95 444.75,-19.14 577.91,9.33 738.81,-0.19 825.19,-8.74"/>
<polygon fill="#63b8ff" stroke="#63b8ff" points="378.32,-40.16 371.02,-47.83 381.52,-46.39 378.32,-40.16"/>
</a>
</g>
</g>
<!-- Node5 -->
<g id="Node000005" class="node">
<title>Node5</title>
<g id="a_Node000005"><a xlink:href="classdunedaq_1_1timing_1_1TimingNode.html" target="_top" xlink:title="Base class for timing nodes.">
<polygon fill="white" stroke="#666666" points="238.25,-73.77 97.75,-73.77 97.75,-54.52 238.25,-54.52 238.25,-73.77"/>
<text text-anchor="middle" x="168" y="-60.27" font-family="Helvetica,sans-Serif" font-size="10.00">dunedaq::timing::TimingNode</text>
</a>
</g>
</g>
<!-- Node5&#45;&gt;Node4 -->
<g id="edge4_Node000004_Node000005" class="edge">
<title>Node5&#45;&gt;Node4</title>
<g id="a_edge4_Node000004_Node000005"><a xlink:title=" ">
<path fill="none" stroke="#63b8ff" d="M249.62,-64.14C257.7,-64.14 265.85,-64.14 273.76,-64.14"/>
<polygon fill="#63b8ff" stroke="#63b8ff" points="249.77,-60.65 239.77,-64.14 249.77,-67.65 249.77,-60.65"/>
</a>
</g>
</g>
<!-- Node6 -->
<g id="Node000006" class="node">
<title>Node6</title>
<g id="a_Node000006"><a xlink:title=" ">
<polygon fill="white" stroke="#666666" points="61.75,-73.77 0,-73.77 0,-54.52 61.75,-54.52 61.75,-73.77"/>
<text text-anchor="middle" x="30.88" y="-60.27" font-family="Helvetica,sans-Serif" font-size="10.00">uhal::Node</text>
</a>
</g>
</g>
<!-- Node6&#45;&gt;Node5 -->
<g id="edge5_Node000005_Node000006" class="edge">
<title>Node6&#45;&gt;Node5</title>
<g id="a_edge5_Node000005_Node000006"><a xlink:title=" ">
<path fill="none" stroke="#63b8ff" d="M73.58,-64.14C81.14,-64.14 89.2,-64.14 97.3,-64.14"/>
<polygon fill="#63b8ff" stroke="#63b8ff" points="73.71,-60.65 63.71,-64.14 73.71,-67.65 73.71,-60.65"/>
</a>
</g>
</g>
<!-- Node7 -->
<g id="Node000007" class="node">
<title>Node7</title>
<g id="a_Node000007"><a xlink:href="classdunedaq_1_1timing_1_1MasterDesign.html" target="_top" xlink:title="Base class for timing master designs.">
<polygon fill="white" stroke="#666666" points="780.5,-82.77 632.5,-82.77 632.5,-63.52 780.5,-63.52 780.5,-82.77"/>
<text text-anchor="middle" x="706.5" y="-69.27" font-family="Helvetica,sans-Serif" font-size="10.00">dunedaq::timing::MasterDesign</text>
</a>
</g>
</g>
<!-- Node7&#45;&gt;Node2 -->
<g id="edge6_Node000002_Node000007" class="edge">
<title>Node7&#45;&gt;Node2</title>
<g id="a_edge6_Node000002_Node000007"><a xlink:title=" ">
<path fill="none" stroke="#63b8ff" d="M792.16,-73.14C801.46,-73.14 810.84,-73.14 819.9,-73.14"/>
<polygon fill="#63b8ff" stroke="#63b8ff" points="792.38,-69.65 782.38,-73.14 792.38,-76.65 792.38,-69.65"/>
</a>
</g>
</g>
<!-- Node8&#45;&gt;Node7 -->
<g id="edge7_Node000007_Node000008" class="edge">
<title>Node8&#45;&gt;Node7</title>
<g id="a_edge7_Node000007_Node000008"><a xlink:title=" ">
<path fill="none" stroke="#63b8ff" d="M597.61,-80.7C609.06,-79.89 620.83,-79.07 632.19,-78.28"/>
<polygon fill="#63b8ff" stroke="#63b8ff" points="597.53,-77.19 587.8,-81.38 598.02,-84.18 597.53,-77.19"/>
</a>
</g>
</g>
<!-- Node9&#45;&gt;Node7 -->
<g id="edge9_Node000007_Node000009" class="edge">
<title>Node9&#45;&gt;Node7</title>
<g id="a_edge9_Node000007_Node000009"><a xlink:title=" ">
<path fill="none" stroke="#63b8ff" d="M604.43,-56.82C617.35,-58.91 630.48,-61.03 642.82,-63.02"/>
<polygon fill="#63b8ff" stroke="#63b8ff" points="605.09,-53.38 594.66,-55.24 603.97,-60.29 605.09,-53.38"/>
</a>
</g>
</g>
<!-- Node10&#45;&gt;Node1 -->
<g id="edge11_Node000001_Node000010" class="edge">
<title>Node10&#45;&gt;Node1</title>
<g id="a_edge11_Node000001_Node000010"><a xlink:title=" ">
<path fill="none" stroke="#63b8ff" d="M962.13,-26.53C972.06,-27.94 982.21,-29.39 992,-30.78"/>
<polygon fill="#63b8ff" stroke="#63b8ff" points="962.93,-23.1 952.53,-25.16 961.94,-30.03 962.93,-23.1"/>
</a>
</g>
</g>
</g>
</svg>
