<?xml version="1.0" encoding="UTF-8" standalone="no"?>
<!DOCTYPE svg PUBLIC "-//W3C//DTD SVG 1.1//EN"
 "http://www.w3.org/Graphics/SVG/1.1/DTD/svg11.dtd">
<!-- Generated by graphviz version 9.0.0 (20230911.1827)
 -->
<!-- Title: dunedaq::dpdklibs::opmon::EthXStatsInfo Pages: 1 -->
<svg width="266pt" height="128pt"
 viewBox="0.00 0.00 265.50 127.50" xmlns="http://www.w3.org/2000/svg" xmlns:xlink="http://www.w3.org/1999/xlink">
<g id="graph0" class="graph" transform="scale(1 1) rotate(0) translate(4 123.5)">
<title>dunedaq::dpdklibs::opmon::EthXStatsInfo</title>
<!-- Node1 -->
<g id="Node000001" class="node">
<title>Node1</title>
<g id="a_Node000001"><a xlink:title=" ">
<polygon fill="#999999" stroke="#666666" points="188.5,-30.5 78,-30.5 78,0 188.5,0 188.5,-30.5"/>
<text text-anchor="start" x="86" y="-17" font-family="Helvetica,sans-Serif" font-size="10.00">dunedaq::dpdklibs::</text>
<text text-anchor="middle" x="133.25" y="-5.75" font-family="Helvetica,sans-Serif" font-size="10.00">opmon::EthXStatsInfo</text>
</a>
</g>
</g>
<!-- Node2 -->
<g id="Node000002" class="node">
<title>Node2</title>
<g id="a_Node000002"><a xlink:title=" ">
<polygon fill="white" stroke="#666666" points="128.5,-108.25 0,-108.25 0,-89 128.5,-89 128.5,-108.25"/>
<text text-anchor="middle" x="64.25" y="-94.75" font-family="Helvetica,sans-Serif" font-size="10.00">google::protobuf::Message</text>
</a>
</g>
</g>
<!-- Node2&#45;&gt;Node1 -->
<g id="edge1_Node000001_Node000002" class="edge">
<title>Node2&#45;&gt;Node1</title>
<g id="a_edge1_Node000001_Node000002"><a xlink:title=" ">
<path fill="none" stroke="#63b8ff" d="M79.25,-79.94C91.72,-65.23 109.25,-44.55 120.92,-30.79"/>
<polygon fill="#63b8ff" stroke="#63b8ff" points="76.67,-77.56 72.88,-87.45 82.01,-82.09 76.67,-77.56"/>
</a>
</g>
</g>
<!-- Node3 -->
<g id="Node000003" class="node">
<title>Node3</title>
<g id="a_Node000003"><a xlink:href="structdunedaq_1_1dpdklibs_1_1opmon_1_1EthXStatsInfo_1_1Impl__.html" target="_top" xlink:title=" ">
<polygon fill="white" stroke="#666666" points="257.5,-119.5 147,-119.5 147,-77.75 257.5,-77.75 257.5,-119.5"/>
<text text-anchor="start" x="155" y="-106" font-family="Helvetica,sans-Serif" font-size="10.00">dunedaq::dpdklibs::</text>
<text text-anchor="start" x="155" y="-94.75" font-family="Helvetica,sans-Serif" font-size="10.00">opmon::EthXStatsInfo</text>
<text text-anchor="middle" x="202.25" y="-83.5" font-family="Helvetica,sans-Serif" font-size="10.00">::Impl_</text>
</a>
</g>
</g>
<!-- Node3&#45;&gt;Node1 -->
<g id="edge2_Node000001_Node000003" class="edge">
<title>Node3&#45;&gt;Node1</title>
<g id="a_edge2_Node000001_Node000003"><a xlink:title=" ">
<path fill="none" stroke="#9a32cd" stroke-dasharray="5,2" d="M177.92,-68.93C166.97,-56.02 154.53,-41.35 145.56,-30.77"/>
<polygon fill="#9a32cd" stroke="#9a32cd" points="175.08,-70.99 184.21,-76.36 180.42,-66.46 175.08,-70.99"/>
</a>
</g>
<text text-anchor="middle" x="184.62" y="-50.25" font-family="Helvetica,sans-Serif" font-size="10.00" fill="grey"> _impl_</text>
</g>
</g>
</svg>
