<?xml version="1.0" encoding="UTF-8" standalone="no"?>
<!DOCTYPE svg PUBLIC "-//W3C//DTD SVG 1.1//EN"
 "http://www.w3.org/Graphics/SVG/1.1/DTD/svg11.dtd">
<!-- Generated by graphviz version 9.0.0 (20230911.1827)
 -->
<!-- Title: dunedaq::opmonlib::opmon::MonitoringTreeInfo Pages: 1 -->
<svg width="286pt" height="128pt"
 viewBox="0.00 0.00 285.62 127.50" xmlns="http://www.w3.org/2000/svg" xmlns:xlink="http://www.w3.org/1999/xlink">
<g id="graph0" class="graph" transform="scale(1 1) rotate(0) translate(4 123.5)">
<title>dunedaq::opmonlib::opmon::MonitoringTreeInfo</title>
<!-- Node1 -->
<g id="Node000001" class="node">
<title>Node1</title>
<g id="a_Node000001"><a xlink:title=" ">
<polygon fill="#999999" stroke="#666666" points="203.62,-30.5 72.88,-30.5 72.88,0 203.62,0 203.62,-30.5"/>
<text text-anchor="start" x="80.88" y="-17" font-family="Helvetica,sans-Serif" font-size="10.00">dunedaq::opmonlib::</text>
<text text-anchor="middle" x="138.25" y="-5.75" font-family="Helvetica,sans-Serif" font-size="10.00">opmon::MonitoringTreeInfo</text>
</a>
</g>
</g>
<!-- Node2 -->
<g id="Node000002" class="node">
<title>Node2</title>
<g id="a_Node000002"><a xlink:title=" ">
<polygon fill="white" stroke="#666666" points="128.5,-108.25 0,-108.25 0,-89 128.5,-89 128.5,-108.25"/>
<text text-anchor="middle" x="64.25" y="-94.75" font-family="Helvetica,sans-Serif" font-size="10.00">google::protobuf::Message</text>
</a>
</g>
</g>
<!-- Node2&#45;&gt;Node1 -->
<g id="edge1_Node000001_Node000002" class="edge">
<title>Node2&#45;&gt;Node1</title>
<g id="a_edge1_Node000001_Node000002"><a xlink:title=" ">
<path fill="none" stroke="#63b8ff" d="M79.96,-80.35C93.35,-65.62 112.39,-44.68 125.02,-30.79"/>
<polygon fill="#63b8ff" stroke="#63b8ff" points="77.61,-77.73 73.47,-87.49 82.79,-82.44 77.61,-77.73"/>
</a>
</g>
</g>
<!-- Node3 -->
<g id="Node000003" class="node">
<title>Node3</title>
<g id="a_Node000003"><a xlink:href="structdunedaq_1_1opmonlib_1_1opmon_1_1MonitoringTreeInfo_1_1Impl__.html" target="_top" xlink:title=" ">
<polygon fill="white" stroke="#666666" points="277.62,-119.5 146.88,-119.5 146.88,-77.75 277.62,-77.75 277.62,-119.5"/>
<text text-anchor="start" x="154.88" y="-106" font-family="Helvetica,sans-Serif" font-size="10.00">dunedaq::opmonlib::</text>
<text text-anchor="start" x="154.88" y="-94.75" font-family="Helvetica,sans-Serif" font-size="10.00">opmon::MonitoringTreeInfo</text>
<text text-anchor="middle" x="212.25" y="-83.5" font-family="Helvetica,sans-Serif" font-size="10.00">::Impl_</text>
</a>
</g>
</g>
<!-- Node3&#45;&gt;Node1 -->
<g id="edge2_Node000001_Node000003" class="edge">
<title>Node3&#45;&gt;Node1</title>
<g id="a_edge2_Node000001_Node000003"><a xlink:title=" ">
<path fill="none" stroke="#9a32cd" stroke-dasharray="5,2" d="M186.49,-69.3C174.68,-56.31 161.17,-41.45 151.46,-30.77"/>
<polygon fill="#9a32cd" stroke="#9a32cd" points="183.62,-71.35 192.94,-76.39 188.8,-66.64 183.62,-71.35"/>
</a>
</g>
<text text-anchor="middle" x="193.62" y="-50.25" font-family="Helvetica,sans-Serif" font-size="10.00" fill="grey"> _impl_</text>
</g>
</g>
</svg>
