<?xml version="1.0" encoding="UTF-8" standalone="no"?>
<!DOCTYPE svg PUBLIC "-//W3C//DTD SVG 1.1//EN"
 "http://www.w3.org/Graphics/SVG/1.1/DTD/svg11.dtd">
<!-- Generated by graphviz version 9.0.0 (20230911.1827)
 -->
<!-- Title: OksSystem::File Pages: 1 -->
<svg width="411pt" height="83pt"
 viewBox="0.00 0.00 411.38 82.50" xmlns="http://www.w3.org/2000/svg" xmlns:xlink="http://www.w3.org/1999/xlink">
<g id="graph0" class="graph" transform="scale(1 1) rotate(0) translate(4 78.5)">
<title>OksSystem::File</title>
<!-- Node1 -->
<g id="Node000001" class="node">
<title>Node1</title>
<g id="a_Node000001"><a xlink:title="Wrapper for file operations.">
<polygon fill="#999999" stroke="#666666" points="252,-74.5 164.75,-74.5 164.75,-55.25 252,-55.25 252,-74.5"/>
<text text-anchor="middle" x="208.38" y="-61" font-family="Helvetica,sans-Serif" font-size="10.00">OksSystem::File</text>
</a>
</g>
</g>
<!-- Node2 -->
<g id="Node000002" class="node">
<title>Node2</title>
<g id="a_Node000002"><a xlink:href="classOksSystem_1_1Executable.html" target="_top" xlink:title="Wrapper for executable file manipulation.">
<polygon fill="white" stroke="#666666" points="118.75,-19.25 0,-19.25 0,0 118.75,0 118.75,-19.25"/>
<text text-anchor="middle" x="59.38" y="-5.75" font-family="Helvetica,sans-Serif" font-size="10.00">OksSystem::Executable</text>
</a>
</g>
</g>
<!-- Node1&#45;&gt;Node2 -->
<g id="edge1_Node000001_Node000002" class="edge">
<title>Node1&#45;&gt;Node2</title>
<g id="a_edge1_Node000001_Node000002"><a xlink:title=" ">
<path fill="none" stroke="#63b8ff" d="M172.5,-51.05C145.41,-41.37 108.9,-28.32 84.77,-19.7"/>
<polygon fill="#63b8ff" stroke="#63b8ff" points="171.08,-54.26 181.67,-54.33 173.44,-47.67 171.08,-54.26"/>
</a>
</g>
</g>
<!-- Node3 -->
<g id="Node000003" class="node">
<title>Node3</title>
<g id="a_Node000003"><a xlink:href="classOksSystem_1_1FIFOConnection.html" target="_top" xlink:title=" ">
<polygon fill="white" stroke="#666666" points="279.75,-19.25 137,-19.25 137,0 279.75,0 279.75,-19.25"/>
<text text-anchor="middle" x="208.38" y="-5.75" font-family="Helvetica,sans-Serif" font-size="10.00">OksSystem::FIFOConnection</text>
</a>
</g>
</g>
<!-- Node1&#45;&gt;Node3 -->
<g id="edge2_Node000001_Node000003" class="edge">
<title>Node1&#45;&gt;Node3</title>
<g id="a_edge2_Node000001_Node000003"><a xlink:title=" ">
<path fill="none" stroke="#63b8ff" d="M208.38,-43.63C208.38,-35.34 208.38,-26.17 208.38,-19.61"/>
<polygon fill="#63b8ff" stroke="#63b8ff" points="204.88,-43.57 208.38,-53.57 211.88,-43.57 204.88,-43.57"/>
</a>
</g>
</g>
<!-- Node4 -->
<g id="Node000004" class="node">
<title>Node4</title>
<g id="a_Node000004"><a xlink:href="classOksSystem_1_1MapFile.html" target="_top" xlink:title="Wrapper for memory map operations.">
<polygon fill="white" stroke="#666666" points="403.38,-19.25 297.38,-19.25 297.38,0 403.38,0 403.38,-19.25"/>
<text text-anchor="middle" x="350.38" y="-5.75" font-family="Helvetica,sans-Serif" font-size="10.00">OksSystem::MapFile</text>
</a>
</g>
</g>
<!-- Node1&#45;&gt;Node4 -->
<g id="edge3_Node000001_Node000004" class="edge">
<title>Node1&#45;&gt;Node4</title>
<g id="a_edge3_Node000001_Node000004"><a xlink:title=" ">
<path fill="none" stroke="#63b8ff" d="M242.91,-50.92C268.7,-41.25 303.28,-28.29 326.17,-19.7"/>
<polygon fill="#63b8ff" stroke="#63b8ff" points="242.01,-47.52 233.88,-54.31 244.47,-54.08 242.01,-47.52"/>
</a>
</g>
</g>
</g>
</svg>
