<?xml version="1.0" encoding="UTF-8" standalone="no"?>
<!DOCTYPE svg PUBLIC "-//W3C//DTD SVG 1.1//EN"
 "http://www.w3.org/Graphics/SVG/1.1/DTD/svg11.dtd">
<!-- Generated by graphviz version 9.0.0 (20230911.1827)
 -->
<!-- Title: wib::Status Pages: 1 -->
<svg width="248pt" height="94pt"
 viewBox="0.00 0.00 247.50 93.75" xmlns="http://www.w3.org/2000/svg" xmlns:xlink="http://www.w3.org/1999/xlink">
<g id="graph0" class="graph" transform="scale(1 1) rotate(0) translate(4 89.75)">
<title>wib::Status</title>
<!-- Node1 -->
<g id="Node000001" class="node">
<title>Node1</title>
<g id="a_Node000001"><a xlink:title=" ">
<polygon fill="#999999" stroke="#666666" points="160.25,-19.25 96.25,-19.25 96.25,0 160.25,0 160.25,-19.25"/>
<text text-anchor="middle" x="128.25" y="-5.75" font-family="Helvetica,sans-Serif" font-size="10.00">wib::Status</text>
</a>
</g>
</g>
<!-- Node2 -->
<g id="Node000002" class="node">
<title>Node2</title>
<g id="a_Node000002"><a xlink:title=" ">
<polygon fill="white" stroke="#666666" points="128.5,-85.75 0,-85.75 0,-66.5 128.5,-66.5 128.5,-85.75"/>
<text text-anchor="middle" x="64.25" y="-72.25" font-family="Helvetica,sans-Serif" font-size="10.00">google::protobuf::Message</text>
</a>
</g>
</g>
<!-- Node2&#45;&gt;Node1 -->
<g id="edge1_Node000001_Node000002" class="edge">
<title>Node2&#45;&gt;Node1</title>
<g id="a_edge1_Node000001_Node000002"><a xlink:title=" ">
<path fill="none" stroke="#63b8ff" d="M80.92,-58.33C93.23,-45.91 109.52,-29.5 119.43,-19.52"/>
<polygon fill="#63b8ff" stroke="#63b8ff" points="78.77,-55.52 74.21,-65.08 83.74,-60.45 78.77,-55.52"/>
</a>
</g>
</g>
<!-- Node3 -->
<g id="Node000003" class="node">
<title>Node3</title>
<g id="a_Node000003"><a xlink:href="structwib_1_1Status_1_1Impl__.html" target="_top" xlink:title=" ">
<polygon fill="white" stroke="#666666" points="239.5,-85.75 147,-85.75 147,-66.5 239.5,-66.5 239.5,-85.75"/>
<text text-anchor="middle" x="193.25" y="-72.25" font-family="Helvetica,sans-Serif" font-size="10.00">wib::Status::Impl_</text>
</a>
</g>
</g>
<!-- Node3&#45;&gt;Node1 -->
<g id="edge2_Node000001_Node000003" class="edge">
<title>Node3&#45;&gt;Node1</title>
<g id="a_edge2_Node000001_Node000003"><a xlink:title=" ">
<path fill="none" stroke="#9a32cd" stroke-dasharray="5,2" d="M176.32,-58.33C163.81,-45.91 147.27,-29.5 137.21,-19.52"/>
<polygon fill="#9a32cd" stroke="#9a32cd" points="173.57,-60.53 183.14,-65.09 178.5,-55.56 173.57,-60.53"/>
</a>
</g>
<text text-anchor="middle" x="179.62" y="-39" font-family="Helvetica,sans-Serif" font-size="10.00" fill="grey"> _impl_</text>
</g>
</g>
</svg>
