<?xml version="1.0" encoding="UTF-8" standalone="no"?>
<!DOCTYPE svg PUBLIC "-//W3C//DTD SVG 1.1//EN"
 "http://www.w3.org/Graphics/SVG/1.1/DTD/svg11.dtd">
<!-- Generated by graphviz version 9.0.0 (20230911.1827)
 -->
<!-- Title: dbse::CustomMethodImplementationModel Pages: 1 -->
<svg width="806pt" height="595pt"
 viewBox="0.00 0.00 805.88 595.00" xmlns="http://www.w3.org/2000/svg" xmlns:xlink="http://www.w3.org/1999/xlink">
<g id="graph0" class="graph" transform="scale(1 1) rotate(0) translate(4 591)">
<title>dbse::CustomMethodImplementationModel</title>
<!-- Node1 -->
<g id="Node000001" class="node">
<title>Node1</title>
<g id="a_Node000001"><a xlink:title=" ">
<polygon fill="#999999" stroke="#666666" points="251,-286.25 76.75,-286.25 76.75,-255.75 251,-255.75 251,-286.25"/>
<text text-anchor="start" x="84.75" y="-272.75" font-family="Helvetica,sans-Serif" font-size="10.00">dbse::CustomMethodImplementation</text>
<text text-anchor="middle" x="163.88" y="-261.5" font-family="Helvetica,sans-Serif" font-size="10.00">Model</text>
</a>
</g>
</g>
<!-- Node2 -->
<g id="Node000002" class="node">
<title>Node2</title>
<g id="a_Node000002"><a xlink:href="classdbse_1_1CustomModelInterface.html" target="_top" xlink:title=" ">
<polygon fill="white" stroke="#666666" points="139.75,-358.38 0,-358.38 0,-339.12 139.75,-339.12 139.75,-358.38"/>
<text text-anchor="middle" x="69.88" y="-344.88" font-family="Helvetica,sans-Serif" font-size="10.00">dbse::CustomModelInterface</text>
</a>
</g>
</g>
<!-- Node2&#45;&gt;Node1 -->
<g id="edge1_Node000001_Node000002" class="edge">
<title>Node2&#45;&gt;Node1</title>
<g id="a_edge1_Node000001_Node000002"><a xlink:title=" ">
<path fill="none" stroke="#63b8ff" d="M89.87,-331.64C106.38,-318.33 129.64,-299.59 145.65,-286.69"/>
<polygon fill="#63b8ff" stroke="#63b8ff" points="87.8,-328.81 82.21,-337.81 92.19,-334.26 87.8,-328.81"/>
</a>
</g>
</g>
<!-- Node3 -->
<g id="Node000003" class="node">
<title>Node3</title>
<g id="a_Node000003"><a xlink:title=" ">
<polygon fill="white" stroke="#666666" points="125.12,-453 14.62,-453 14.62,-433.75 125.12,-433.75 125.12,-453"/>
<text text-anchor="middle" x="69.88" y="-439.5" font-family="Helvetica,sans-Serif" font-size="10.00">QAbstractTableModel</text>
</a>
</g>
</g>
<!-- Node3&#45;&gt;Node2 -->
<g id="edge2_Node000002_Node000003" class="edge">
<title>Node3&#45;&gt;Node2</title>
<g id="a_edge2_Node000002_Node000003"><a xlink:title=" ">
<path fill="none" stroke="#63b8ff" d="M69.88,-422.12C69.88,-402.39 69.88,-373.3 69.88,-358.74"/>
<polygon fill="#63b8ff" stroke="#63b8ff" points="66.38,-421.98 69.88,-431.98 73.38,-421.98 66.38,-421.98"/>
</a>
</g>
</g>
<!-- Node4 -->
<g id="Node000004" class="node">
<title>Node4</title>
<g id="a_Node000004"><a xlink:href="classdunedaq_1_1oks_1_1OksMethod.html" target="_top" xlink:title="OKS method class.">
<polygon fill="white" stroke="#666666" points="285.75,-358.38 158,-358.38 158,-339.12 285.75,-339.12 285.75,-358.38"/>
<text text-anchor="middle" x="221.88" y="-344.88" font-family="Helvetica,sans-Serif" font-size="10.00">dunedaq::oks::OksMethod</text>
</a>
</g>
</g>
<!-- Node4&#45;&gt;Node1 -->
<g id="edge3_Node000001_Node000004" class="edge">
<title>Node4&#45;&gt;Node1</title>
<g id="a_edge3_Node000001_Node000004"><a xlink:title=" ">
<path fill="none" stroke="#9a32cd" stroke-dasharray="5,2" d="M208.08,-329.74C198.02,-316.59 184.54,-298.99 175.12,-286.69"/>
<polygon fill="#9a32cd" stroke="#9a32cd" points="205.22,-331.75 214.07,-337.56 210.77,-327.49 205.22,-331.75"/>
</a>
</g>
<text text-anchor="middle" x="232.12" y="-306" font-family="Helvetica,sans-Serif" font-size="10.00" fill="grey"> SchemaMethod</text>
</g>
<!-- Node5 -->
<g id="Node000005" class="node">
<title>Node5</title>
<g id="a_Node000005"><a xlink:href="classdunedaq_1_1oks_1_1OksClass.html" target="_top" xlink:title="The OKS class.">
<polygon fill="white" stroke="#666666" points="533,-453 412.75,-453 412.75,-433.75 533,-433.75 533,-453"/>
<text text-anchor="middle" x="472.88" y="-439.5" font-family="Helvetica,sans-Serif" font-size="10.00">dunedaq::oks::OksClass</text>
</a>
</g>
</g>
<!-- Node5&#45;&gt;Node4 -->
<g id="edge4_Node000004_Node000005" class="edge">
<title>Node5&#45;&gt;Node4</title>
<g id="a_edge4_Node000004_Node000005"><a xlink:title=" ">
<path fill="none" stroke="#9a32cd" stroke-dasharray="5,2" d="M400.99,-439.67C349.76,-436.55 286.16,-429.89 263.88,-415.75 242.54,-402.22 230.04,-373.51 224.79,-358.82"/>
<polygon fill="#9a32cd" stroke="#9a32cd" points="400.69,-443.16 410.87,-440.23 401.09,-436.17 400.69,-443.16"/>
</a>
</g>
<text text-anchor="middle" x="281.88" y="-395" font-family="Helvetica,sans-Serif" font-size="10.00" fill="grey"> p_class</text>
</g>
<!-- Node13 -->
<g id="Node000013" class="node">
<title>Node13</title>
<g id="a_Node000013"><a xlink:href="uniondunedaq_1_1oks_1_1OksData_1_1Data.html" target="_top" xlink:title=" ">
<polygon fill="white" stroke="#666666" points="687.75,-364 572,-364 572,-333.5 687.75,-333.5 687.75,-364"/>
<text text-anchor="start" x="580" y="-350.5" font-family="Helvetica,sans-Serif" font-size="10.00">dunedaq::oks::OksData</text>
<text text-anchor="middle" x="629.88" y="-339.25" font-family="Helvetica,sans-Serif" font-size="10.00">::Data</text>
</a>
</g>
</g>
<!-- Node5&#45;&gt;Node13 -->
<g id="edge15_Node000013_Node000005" class="edge">
<title>Node5&#45;&gt;Node13</title>
<g id="a_edge15_Node000013_Node000005"><a xlink:title=" ">
<path fill="none" stroke="#9a32cd" stroke-dasharray="5,2" d="M498.12,-427.48C527.51,-410.14 575.74,-381.69 604.98,-364.44"/>
<polygon fill="#9a32cd" stroke="#9a32cd" points="496.35,-424.46 489.52,-432.56 499.91,-430.49 496.35,-424.46"/>
</a>
</g>
<text text-anchor="middle" x="591.88" y="-400.62" font-family="Helvetica,sans-Serif" font-size="10.00" fill="grey"> CLASS</text>
<text text-anchor="middle" x="591.88" y="-389.38" font-family="Helvetica,sans-Serif" font-size="10.00" fill="grey">class_id</text>
</g>
<!-- Node6 -->
<g id="Node000006" class="node">
<title>Node6</title>
<g id="a_Node000006"><a xlink:href="classdunedaq_1_1oks_1_1OksFile.html" target="_top" xlink:title="Provides interface to the OKS XML schema and data files.">
<polygon fill="white" stroke="#666666" points="576.5,-19.25 465.25,-19.25 465.25,0 576.5,0 576.5,-19.25"/>
<text text-anchor="middle" x="520.88" y="-5.75" font-family="Helvetica,sans-Serif" font-size="10.00">dunedaq::oks::OksFile</text>
</a>
</g>
</g>
<!-- Node6&#45;&gt;Node5 -->
<g id="edge5_Node000005_Node000006" class="edge">
<title>Node6&#45;&gt;Node5</title>
<g id="a_edge5_Node000005_Node000006"><a xlink:title=" ">
<path fill="none" stroke="#9a32cd" stroke-dasharray="5,2" d="M454.35,-21.88C393.82,-34.07 313.88,-55.93 313.88,-86.38 313.88,-349.75 313.88,-349.75 313.88,-349.75 313.88,-398.79 371.04,-422.32 416.82,-433.3"/>
<polygon fill="#9a32cd" stroke="#9a32cd" points="454.78,-25.37 463.92,-20.01 453.43,-18.5 454.78,-25.37"/>
</a>
</g>
<text text-anchor="middle" x="326.25" y="-228.25" font-family="Helvetica,sans-Serif" font-size="10.00" fill="grey"> p_file</text>
</g>
<!-- Node6&#45;&gt;Node6 -->
<g id="edge6_Node000006_Node000006" class="edge">
<title>Node6&#45;&gt;Node6</title>
<g id="a_edge6_Node000006_Node000006"><a xlink:title=" ">
<path fill="none" stroke="#9a32cd" stroke-dasharray="5,2" d="M587.96,-14.69C592.05,-13.48 594.5,-11.8 594.5,-9.62 594.5,-5.87 587.16,-3.56 576.74,-2.71"/>
<polygon fill="#9a32cd" stroke="#9a32cd" points="587.53,-11.21 578.23,-16.29 588.67,-18.12 587.53,-11.21"/>
</a>
</g>
<text text-anchor="middle" x="626.38" y="-5.75" font-family="Helvetica,sans-Serif" font-size="10.00" fill="grey"> p_included_by</text>
</g>
<!-- Node7 -->
<g id="Node000007" class="node">
<title>Node7</title>
<g id="a_Node000007"><a xlink:href="classdunedaq_1_1oks_1_1OksKernel.html" target="_top" xlink:title="Provides interface to the OKS kernel.">
<polygon fill="white" stroke="#666666" points="582.5,-97 459.25,-97 459.25,-77.75 582.5,-77.75 582.5,-97"/>
<text text-anchor="middle" x="520.88" y="-83.5" font-family="Helvetica,sans-Serif" font-size="10.00">dunedaq::oks::OksKernel</text>
</a>
</g>
</g>
<!-- Node6&#45;&gt;Node7 -->
<g id="edge8_Node000007_Node000006" class="edge">
<title>Node6&#45;&gt;Node7</title>
<g id="a_edge8_Node000007_Node000006"><a xlink:title=" ">
<path fill="none" stroke="#9a32cd" stroke-dasharray="5,2" d="M528.29,-30.22C528.94,-32.56 529.49,-34.94 529.88,-37.25 531.5,-47.12 531.5,-49.88 529.88,-59.75 528.86,-65.91 526.61,-72.57 524.61,-77.68"/>
<polygon fill="#9a32cd" stroke="#9a32cd" points="531.61,-29.11 525.1,-20.75 524.98,-31.34 531.61,-29.11"/>
</a>
</g>
<text text-anchor="middle" x="570.12" y="-50.25" font-family="Helvetica,sans-Serif" font-size="10.00" fill="grey"> p_active_data</text>
<text text-anchor="middle" x="570.12" y="-39" font-family="Helvetica,sans-Serif" font-size="10.00" fill="grey">p_active_schema</text>
</g>
<!-- Node10 -->
<g id="Node000010" class="node">
<title>Node10</title>
<g id="a_Node000010"><a xlink:href="classdunedaq_1_1oks_1_1OksObject.html" target="_top" xlink:title="OksObject describes instance of OksClass.">
<polygon fill="white" stroke="#666666" points="789.88,-208.5 665.88,-208.5 665.88,-189.25 789.88,-189.25 789.88,-208.5"/>
<text text-anchor="middle" x="727.88" y="-195" font-family="Helvetica,sans-Serif" font-size="10.00">dunedaq::oks::OksObject</text>
</a>
</g>
</g>
<!-- Node6&#45;&gt;Node10 -->
<g id="edge20_Node000010_Node000006" class="edge">
<title>Node6&#45;&gt;Node10</title>
<g id="a_edge20_Node000010_Node000006"><a xlink:title=" ">
<path fill="none" stroke="#9a32cd" stroke-dasharray="5,2" d="M572.91,-22.86C618.96,-36.73 683.43,-64.32 713.88,-115 728.15,-138.76 728.95,-172.9 728.41,-188.93"/>
<polygon fill="#9a32cd" stroke="#9a32cd" points="573.96,-19.52 563.38,-20.12 572.03,-26.24 573.96,-19.52"/>
</a>
</g>
<text text-anchor="middle" x="707" y="-83.5" font-family="Helvetica,sans-Serif" font-size="10.00" fill="grey"> file</text>
</g>
<!-- Node7&#45;&gt;Node5 -->
<g id="edge21_Node000005_Node000007" class="edge">
<title>Node7&#45;&gt;Node5</title>
<g id="a_edge21_Node000005_Node000007"><a xlink:title=" ">
<path fill="none" stroke="#9a32cd" stroke-dasharray="5,2" d="M513.01,-107.95C505.04,-129.59 493.88,-165.64 493.88,-197.88 493.88,-349.75 493.88,-349.75 493.88,-349.75 493.88,-381.08 482.31,-416.93 476.34,-433.33"/>
<polygon fill="#9a32cd" stroke="#9a32cd" points="516.25,-109.28 516.58,-98.69 509.72,-106.76 516.25,-109.28"/>
</a>
</g>
<text text-anchor="middle" x="513.38" y="-267.12" font-family="Helvetica,sans-Serif" font-size="10.00" fill="grey"> p_kernel</text>
</g>
<!-- Node7&#45;&gt;Node6 -->
<g id="edge7_Node000006_Node000007" class="edge">
<title>Node7&#45;&gt;Node6</title>
<g id="a_edge7_Node000006_Node000007"><a xlink:title=" ">
<path fill="none" stroke="#9a32cd" stroke-dasharray="5,2" d="M497.73,-69.8C494.96,-66.79 492.52,-63.42 490.88,-59.75 486.77,-50.63 486.77,-46.37 490.88,-37.25 494.07,-30.14 500.21,-24.15 506.11,-19.67"/>
<polygon fill="#9a32cd" stroke="#9a32cd" points="495.21,-72.24 504.99,-76.32 499.89,-67.03 495.21,-72.24"/>
</a>
</g>
<text text-anchor="middle" x="510.38" y="-44.62" font-family="Helvetica,sans-Serif" font-size="10.00" fill="grey"> p_kernel</text>
</g>
<!-- Node8 -->
<g id="Node000008" class="node">
<title>Node8</title>
<g id="a_Node000008"><a xlink:href="classdunedaq_1_1oks_1_1OksProfiler.html" target="_top" xlink:title=" ">
<polygon fill="white" stroke="#666666" points="647.62,-208.5 522.12,-208.5 522.12,-189.25 647.62,-189.25 647.62,-208.5"/>
<text text-anchor="middle" x="584.88" y="-195" font-family="Helvetica,sans-Serif" font-size="10.00">dunedaq::oks::OksProfiler</text>
</a>
</g>
</g>
<!-- Node8&#45;&gt;Node7 -->
<g id="edge9_Node000007_Node000008" class="edge">
<title>Node8&#45;&gt;Node7</title>
<g id="a_edge9_Node000007_Node000008"><a xlink:title=" ">
<path fill="none" stroke="#9a32cd" stroke-dasharray="5,2" d="M560.4,-182.07C556.6,-178.83 552.99,-175.19 550.12,-171.25 533.09,-147.79 525.23,-113.5 522.31,-97.38"/>
<polygon fill="#9a32cd" stroke="#9a32cd" points="558.07,-184.7 568.15,-187.94 562.3,-179.12 558.07,-184.7"/>
</a>
</g>
<text text-anchor="middle" x="565.25" y="-139.25" font-family="Helvetica,sans-Serif" font-size="10.00" fill="grey"> profiler</text>
</g>
<!-- Node9 -->
<g id="Node000009" class="node">
<title>Node9</title>
<g id="a_Node000009"><a xlink:href="structdunedaq_1_1oks_1_1LoadErrors.html" target="_top" xlink:title=" ">
<polygon fill="white" stroke="#666666" points="466.25,-208.5 341.5,-208.5 341.5,-189.25 466.25,-189.25 466.25,-208.5"/>
<text text-anchor="middle" x="403.88" y="-195" font-family="Helvetica,sans-Serif" font-size="10.00">dunedaq::oks::LoadErrors</text>
</a>
</g>
</g>
<!-- Node9&#45;&gt;Node7 -->
<g id="edge10_Node000007_Node000009" class="edge">
<title>Node9&#45;&gt;Node7</title>
<g id="a_edge10_Node000007_Node000009"><a xlink:title=" ">
<path fill="none" stroke="#9a32cd" stroke-dasharray="5,2" d="M401.93,-177.47C401.33,-158.84 403.59,-131.72 419.12,-115 429.56,-103.76 444.11,-97.03 458.94,-93.06"/>
<polygon fill="#9a32cd" stroke="#9a32cd" points="398.42,-177.53 402.57,-187.27 405.41,-177.07 398.42,-177.53"/>
</a>
</g>
<text text-anchor="middle" x="450.25" y="-139.25" font-family="Helvetica,sans-Serif" font-size="10.00" fill="grey"> p_load_errors</text>
</g>
<!-- Node10&#45;&gt;Node7 -->
<g id="edge11_Node000007_Node000010" class="edge">
<title>Node10&#45;&gt;Node7</title>
<g id="a_edge11_Node000007_Node000010"><a xlink:title=" ">
<path fill="none" stroke="#9a32cd" stroke-dasharray="5,2" d="M654.3,-188.02C632.38,-183.83 611.97,-178.26 603.62,-171.25 582.98,-153.9 599.62,-134.38 580.88,-115 573.35,-107.22 563.14,-101.55 553.29,-97.49"/>
<polygon fill="#9a32cd" stroke="#9a32cd" points="653.54,-191.44 664,-189.76 654.78,-184.55 653.54,-191.44"/>
</a>
</g>
<text text-anchor="start" x="602.88" y="-161.75" font-family="Helvetica,sans-Serif" font-size="10.00" fill="grey"> p_change_object_notify</text>
<text text-anchor="middle" x="658" y="-150.5" font-family="Helvetica,sans-Serif" font-size="10.00" fill="grey">_fn</text>
<text text-anchor="start" x="602.88" y="-139.25" font-family="Helvetica,sans-Serif" font-size="10.00" fill="grey">p_create_object_notify</text>
<text text-anchor="middle" x="658" y="-128" font-family="Helvetica,sans-Serif" font-size="10.00" fill="grey">_fn</text>
<text text-anchor="middle" x="658" y="-116.75" font-family="Helvetica,sans-Serif" font-size="10.00" fill="grey">p_delete_object_notify_fn</text>
</g>
<!-- Node10&#45;&gt;Node13 -->
<g id="edge16_Node000013_Node000010" class="edge">
<title>Node10&#45;&gt;Node13</title>
<g id="a_edge16_Node000013_Node000010"><a xlink:title=" ">
<path fill="none" stroke="#9a32cd" stroke-dasharray="5,2" d="M662.36,-212.25C638.03,-220.36 612.85,-233.74 598.38,-255.75 582.23,-280.29 602.59,-313.97 617.28,-333.03"/>
<polygon fill="#9a32cd" stroke="#9a32cd" points="663.08,-215.69 671.62,-209.42 661.03,-208.99 663.08,-215.69"/>
</a>
</g>
<text text-anchor="middle" x="618.12" y="-267.12" font-family="Helvetica,sans-Serif" font-size="10.00" fill="grey"> OBJECT</text>
</g>
<!-- Node11 -->
<g id="Node000011" class="node">
<title>Node11</title>
<g id="a_Node000011"><a xlink:title=" ">
<polygon fill="white" stroke="#666666" points="789.25,-453 748.5,-453 748.5,-433.75 789.25,-433.75 789.25,-453"/>
<text text-anchor="middle" x="768.88" y="-439.5" font-family="Helvetica,sans-Serif" font-size="10.00">struct</text>
</a>
</g>
</g>
<!-- Node11&#45;&gt;Node10 -->
<g id="edge12_Node000010_Node000011" class="edge">
<title>Node11&#45;&gt;Node10</title>
<g id="a_edge12_Node000010_Node000011"><a xlink:title=" ">
<path fill="none" stroke="#9a32cd" stroke-dasharray="5,2" d="M773.76,-422.48C781.38,-387.56 793.22,-313.46 772.88,-255.75 766.08,-236.49 749.52,-218.97 738.5,-208.87"/>
<polygon fill="#9a32cd" stroke="#9a32cd" points="770.4,-421.47 771.56,-432 777.22,-423.05 770.4,-421.47"/>
</a>
</g>
<text text-anchor="middle" x="790.38" y="-306" font-family="Helvetica,sans-Serif" font-size="10.00" fill="grey"> uid</text>
</g>
<!-- Node11&#45;&gt;Node13 -->
<g id="edge19_Node000013_Node000011" class="edge">
<title>Node11&#45;&gt;Node13</title>
<g id="a_edge19_Node000013_Node000011"><a xlink:title=" ">
<path fill="none" stroke="#9a32cd" stroke-dasharray="5,2" d="M745.84,-427.02C719.76,-409.65 677.58,-381.54 651.92,-364.44"/>
<polygon fill="#9a32cd" stroke="#9a32cd" points="743.77,-429.85 754.03,-432.49 747.65,-424.03 743.77,-429.85"/>
</a>
</g>
<text text-anchor="middle" x="738.12" y="-400.62" font-family="Helvetica,sans-Serif" font-size="10.00" fill="grey"> UID</text>
<text text-anchor="middle" x="738.12" y="-389.38" font-family="Helvetica,sans-Serif" font-size="10.00" fill="grey">UID2</text>
</g>
<!-- Node12 -->
<g id="Node000012" class="node">
<title>Node12</title>
<g id="a_Node000012"><a xlink:href="structdunedaq_1_1oks_1_1OksData.html" target="_top" xlink:title="the structure to pass common parameters to various read() methods of OksData and OksObject class">
<polygon fill="white" stroke="#666666" points="763.75,-280.62 648,-280.62 648,-261.38 763.75,-261.38 763.75,-280.62"/>
<text text-anchor="middle" x="705.88" y="-267.12" font-family="Helvetica,sans-Serif" font-size="10.00">dunedaq::oks::OksData</text>
</a>
</g>
</g>
<!-- Node12&#45;&gt;Node10 -->
<g id="edge13_Node000010_Node000012" class="edge">
<title>Node12&#45;&gt;Node10</title>
<g id="a_edge13_Node000010_Node000012"><a xlink:title=" ">
<path fill="none" stroke="#9a32cd" stroke-dasharray="5,2" d="M712.01,-250.45C716.28,-236.85 721.77,-219.35 725.04,-208.91"/>
<polygon fill="#9a32cd" stroke="#9a32cd" points="708.77,-249.09 709.11,-259.67 715.45,-251.18 708.77,-249.09"/>
</a>
</g>
<text text-anchor="middle" x="729.38" y="-228.25" font-family="Helvetica,sans-Serif" font-size="10.00" fill="grey"> data</text>
</g>
<!-- Node13&#45;&gt;Node12 -->
<g id="edge14_Node000012_Node000013" class="edge">
<title>Node13&#45;&gt;Node12</title>
<g id="a_edge14_Node000012_Node000013"><a xlink:title=" ">
<path fill="none" stroke="#9a32cd" stroke-dasharray="5,2" d="M652.35,-325.34C667.29,-310.46 686.09,-291.72 696.97,-280.87"/>
<polygon fill="#9a32cd" stroke="#9a32cd" points="650.21,-322.54 645.6,-332.08 655.15,-327.5 650.21,-322.54"/>
</a>
</g>
<text text-anchor="middle" x="682.38" y="-306" font-family="Helvetica,sans-Serif" font-size="10.00" fill="grey"> data</text>
</g>
<!-- Node14 -->
<g id="Node000014" class="node">
<title>Node14</title>
<g id="a_Node000014"><a xlink:href="classdunedaq_1_1oks_1_1OksString.html" target="_top" xlink:title="Class OKS string.">
<polygon fill="white" stroke="#666666" points="690.38,-453 569.38,-453 569.38,-433.75 690.38,-433.75 690.38,-453"/>
<text text-anchor="middle" x="629.88" y="-439.5" font-family="Helvetica,sans-Serif" font-size="10.00">dunedaq::oks::OksString</text>
</a>
</g>
</g>
<!-- Node14&#45;&gt;Node13 -->
<g id="edge17_Node000013_Node000014" class="edge">
<title>Node14&#45;&gt;Node13</title>
<g id="a_edge17_Node000013_Node000014"><a xlink:title=" ">
<path fill="none" stroke="#9a32cd" stroke-dasharray="5,2" d="M629.88,-422.04C629.88,-404.53 629.88,-379.7 629.88,-364.17"/>
<polygon fill="#9a32cd" stroke="#9a32cd" points="626.38,-421.98 629.88,-431.98 633.38,-421.98 626.38,-421.98"/>
</a>
</g>
<text text-anchor="middle" x="649.75" y="-406.25" font-family="Helvetica,sans-Serif" font-size="10.00" fill="grey"> STRING</text>
<text text-anchor="middle" x="649.75" y="-395" font-family="Helvetica,sans-Serif" font-size="10.00" fill="grey">class_id</text>
<text text-anchor="middle" x="649.75" y="-383.75" font-family="Helvetica,sans-Serif" font-size="10.00" fill="grey">object_id</text>
</g>
<!-- Node15 -->
<g id="Node000015" class="node">
<title>Node15</title>
<g id="a_Node000015"><a xlink:title=" ">
<polygon fill="white" stroke="#666666" points="658.88,-519.5 600.88,-519.5 600.88,-500.25 658.88,-500.25 658.88,-519.5"/>
<text text-anchor="middle" x="629.88" y="-506" font-family="Helvetica,sans-Serif" font-size="10.00">std::string</text>
</a>
</g>
</g>
<!-- Node15&#45;&gt;Node14 -->
<g id="edge18_Node000014_Node000015" class="edge">
<title>Node15&#45;&gt;Node14</title>
<g id="a_edge18_Node000014_Node000015"><a xlink:title=" ">
<path fill="none" stroke="#63b8ff" d="M629.88,-488.4C629.88,-476.57 629.88,-462.29 629.88,-453.27"/>
<polygon fill="#63b8ff" stroke="#63b8ff" points="626.38,-488.39 629.88,-498.39 633.38,-488.39 626.38,-488.39"/>
</a>
</g>
</g>
<!-- Node16 -->
<g id="Node000016" class="node">
<title>Node16</title>
<g id="a_Node000016"><a xlink:href="classdunedaq_1_1conffwk_1_1map.html" target="_top" xlink:title=" ">
<polygon fill="white" stroke="#666666" points="541.25,-519.5 404.5,-519.5 404.5,-500.25 541.25,-500.25 541.25,-519.5"/>
<text text-anchor="middle" x="472.88" y="-506" font-family="Helvetica,sans-Serif" font-size="10.00">dunedaq::conffwk::map&lt; T &gt;</text>
</a>
</g>
</g>
<!-- Node16&#45;&gt;Node5 -->
<g id="edge22_Node000005_Node000016" class="edge">
<title>Node16&#45;&gt;Node5</title>
<g id="a_edge22_Node000005_Node000016"><a xlink:title=" ">
<path fill="none" stroke="#9a32cd" stroke-dasharray="5,2" d="M472.88,-488.4C472.88,-476.57 472.88,-462.29 472.88,-453.27"/>
<polygon fill="#9a32cd" stroke="#9a32cd" points="469.38,-488.39 472.88,-498.39 476.38,-488.39 469.38,-488.39"/>
</a>
</g>
<text text-anchor="middle" x="499.12" y="-472.75" font-family="Helvetica,sans-Serif" font-size="10.00" fill="grey"> p_data_info</text>
</g>
<!-- Node17 -->
<g id="Node000017" class="node">
<title>Node17</title>
<g id="a_Node000017"><a xlink:title=" ">
<polygon fill="white" stroke="#666666" points="523.25,-587 422.5,-587 422.5,-556.5 523.25,-556.5 523.25,-587"/>
<text text-anchor="start" x="430.5" y="-573.5" font-family="Helvetica,sans-Serif" font-size="10.00">std::unordered_map</text>
<text text-anchor="middle" x="472.88" y="-562.25" font-family="Helvetica,sans-Serif" font-size="10.00">&lt; std::string, T &gt;</text>
</a>
</g>
</g>
<!-- Node17&#45;&gt;Node16 -->
<g id="edge23_Node000016_Node000017" class="edge">
<title>Node17&#45;&gt;Node16</title>
<g id="a_edge23_Node000016_Node000017"><a xlink:title=" ">
<path fill="none" stroke="#63b8ff" d="M472.88,-545.02C472.88,-536.04 472.88,-526.54 472.88,-519.85"/>
<polygon fill="#63b8ff" stroke="#63b8ff" points="469.38,-544.74 472.88,-554.74 476.38,-544.74 469.38,-544.74"/>
</a>
</g>
</g>
</g>
</svg>
