<?xml version="1.0" encoding="UTF-8" standalone="no"?>
<!DOCTYPE svg PUBLIC "-//W3C//DTD SVG 1.1//EN"
 "http://www.w3.org/Graphics/SVG/1.1/DTD/svg11.dtd">
<!-- Generated by graphviz version 9.0.0 (20230911.1827)
 -->
<!-- Title: conffwk.Configuration._ConfigurationProxy Pages: 1 -->
<svg width="267pt" height="149pt"
 viewBox="0.00 0.00 266.50 149.00" xmlns="http://www.w3.org/2000/svg" xmlns:xlink="http://www.w3.org/1999/xlink">
<g id="graph0" class="graph" transform="scale(1 1) rotate(0) translate(4 145)">
<title>conffwk.Configuration._ConfigurationProxy</title>
<!-- Node1 -->
<g id="Node000001" class="node">
<title>Node1</title>
<g id="a_Node000001"><a xlink:title=" ">
<polygon fill="#999999" stroke="#666666" points="146.38,-85.75 35.88,-85.75 35.88,-55.25 146.38,-55.25 146.38,-85.75"/>
<text text-anchor="start" x="43.88" y="-72.25" font-family="Helvetica,sans-Serif" font-size="10.00">conffwk.Configuration.</text>
<text text-anchor="middle" x="91.12" y="-61" font-family="Helvetica,sans-Serif" font-size="10.00">_ConfigurationProxy</text>
</a>
</g>
</g>
<!-- Node5 -->
<g id="Node000005" class="node">
<title>Node5</title>
<g id="a_Node000005"><a xlink:href="classconffwk_1_1Configuration_1_1Configuration.html" target="_top" xlink:title=" ">
<polygon fill="white" stroke="#666666" points="174.5,-19.25 7.75,-19.25 7.75,0 174.5,0 174.5,-19.25"/>
<text text-anchor="middle" x="91.12" y="-5.75" font-family="Helvetica,sans-Serif" font-size="10.00">conffwk.Configuration.Configuration</text>
</a>
</g>
</g>
<!-- Node1&#45;&gt;Node5 -->
<g id="edge4_Node000001_Node000005" class="edge">
<title>Node1&#45;&gt;Node5</title>
<g id="a_edge4_Node000001_Node000005"><a xlink:title=" ">
<path fill="none" stroke="#63b8ff" d="M91.12,-43.48C91.12,-34.98 91.12,-26.09 91.12,-19.7"/>
<polygon fill="#63b8ff" stroke="#63b8ff" points="87.63,-43.43 91.13,-53.43 94.63,-43.43 87.63,-43.43"/>
</a>
</g>
</g>
<!-- Node2 -->
<g id="Node000002" class="node">
<title>Node2</title>
<g id="a_Node000002"><a xlink:title=" ">
<polygon fill="white" stroke="#666666" points="42.25,-141 0,-141 0,-121.75 42.25,-121.75 42.25,-141"/>
<text text-anchor="middle" x="21.12" y="-127.5" font-family="Helvetica,sans-Serif" font-size="10.00">object</text>
</a>
</g>
</g>
<!-- Node2&#45;&gt;Node1 -->
<g id="edge1_Node000001_Node000002" class="edge">
<title>Node2&#45;&gt;Node1</title>
<g id="a_edge1_Node000001_Node000002"><a xlink:title=" ">
<path fill="none" stroke="#63b8ff" d="M40.55,-114.04C50.99,-105.26 63.75,-94.52 73.85,-86.03"/>
<polygon fill="#63b8ff" stroke="#63b8ff" points="38.31,-111.34 32.91,-120.46 42.82,-116.7 38.31,-111.34"/>
</a>
</g>
</g>
<!-- Node3 -->
<g id="Node000003" class="node">
<title>Node3</title>
<g id="a_Node000003"><a xlink:title=" ">
<polygon fill="white" stroke="#666666" points="121.62,-141 60.62,-141 60.62,-121.75 121.62,-121.75 121.62,-141"/>
<text text-anchor="middle" x="91.12" y="-127.5" font-family="Helvetica,sans-Serif" font-size="10.00">metaclass</text>
</a>
</g>
</g>
<!-- Node3&#45;&gt;Node1 -->
<g id="edge2_Node000001_Node000003" class="edge">
<title>Node3&#45;&gt;Node1</title>
<g id="a_edge2_Node000001_Node000003"><a xlink:title=" ">
<path fill="none" stroke="#63b8ff" d="M91.12,-110.17C91.12,-102.24 91.12,-93.31 91.12,-86.03"/>
<polygon fill="#63b8ff" stroke="#63b8ff" points="87.63,-109.92 91.13,-119.92 94.63,-109.92 87.63,-109.92"/>
</a>
</g>
</g>
<!-- Node4 -->
<g id="Node000004" class="node">
<title>Node4</title>
<g id="a_Node000004"><a xlink:title=" ">
<polygon fill="white" stroke="#666666" points="258.5,-141 139.75,-141 139.75,-121.75 258.5,-121.75 258.5,-141"/>
<text text-anchor="middle" x="199.12" y="-127.5" font-family="Helvetica,sans-Serif" font-size="10.00">_DelegateMetaFunction</text>
</a>
</g>
</g>
<!-- Node4&#45;&gt;Node1 -->
<g id="edge3_Node000001_Node000004" class="edge">
<title>Node4&#45;&gt;Node1</title>
<g id="a_edge3_Node000001_Node000004"><a xlink:title=" ">
<path fill="none" stroke="#63b8ff" d="M173.03,-116.15C156.29,-107.02 134.63,-95.21 117.78,-86.03"/>
<polygon fill="#63b8ff" stroke="#63b8ff" points="170.94,-119 181.39,-120.71 174.29,-112.85 170.94,-119"/>
</a>
</g>
</g>
</g>
</svg>
