<?xml version="1.0" encoding="UTF-8" standalone="no"?>
<!DOCTYPE svg PUBLIC "-//W3C//DTD SVG 1.1//EN"
 "http://www.w3.org/Graphics/SVG/1.1/DTD/svg11.dtd">
<!-- Generated by graphviz version 9.0.0 (20230911.1827)
 -->
<!-- Title: dbse::CustomRelationshipModel Pages: 1 -->
<svg width="148pt" height="149pt"
 viewBox="0.00 0.00 147.75 149.00" xmlns="http://www.w3.org/2000/svg" xmlns:xlink="http://www.w3.org/1999/xlink">
<g id="graph0" class="graph" transform="scale(1 1) rotate(0) translate(4 145)">
<title>dbse::CustomRelationshipModel</title>
<!-- Node1 -->
<g id="Node000001" class="node">
<title>Node1</title>
<g id="a_Node000001"><a xlink:title=" ">
<polygon fill="#999999" stroke="#666666" points="134.12,-30.5 5.62,-30.5 5.62,0 134.12,0 134.12,-30.5"/>
<text text-anchor="start" x="13.62" y="-17" font-family="Helvetica,sans-Serif" font-size="10.00">dbse::CustomRelationship</text>
<text text-anchor="middle" x="69.88" y="-5.75" font-family="Helvetica,sans-Serif" font-size="10.00">Model</text>
</a>
</g>
</g>
<!-- Node2 -->
<g id="Node000002" class="node">
<title>Node2</title>
<g id="a_Node000002"><a xlink:href="classdbse_1_1CustomModelInterface.html" target="_top" xlink:title=" ">
<polygon fill="white" stroke="#666666" points="139.75,-85.75 0,-85.75 0,-66.5 139.75,-66.5 139.75,-85.75"/>
<text text-anchor="middle" x="69.88" y="-72.25" font-family="Helvetica,sans-Serif" font-size="10.00">dbse::CustomModelInterface</text>
</a>
</g>
</g>
<!-- Node2&#45;&gt;Node1 -->
<g id="edge1_Node000001_Node000002" class="edge">
<title>Node2&#45;&gt;Node1</title>
<g id="a_edge1_Node000001_Node000002"><a xlink:title=" ">
<path fill="none" stroke="#63b8ff" d="M69.88,-54.92C69.88,-46.99 69.88,-38.06 69.88,-30.78"/>
<polygon fill="#63b8ff" stroke="#63b8ff" points="66.38,-54.67 69.88,-64.67 73.38,-54.67 66.38,-54.67"/>
</a>
</g>
</g>
<!-- Node3 -->
<g id="Node000003" class="node">
<title>Node3</title>
<g id="a_Node000003"><a xlink:title=" ">
<polygon fill="white" stroke="#666666" points="125.12,-141 14.62,-141 14.62,-121.75 125.12,-121.75 125.12,-141"/>
<text text-anchor="middle" x="69.88" y="-127.5" font-family="Helvetica,sans-Serif" font-size="10.00">QAbstractTableModel</text>
</a>
</g>
</g>
<!-- Node3&#45;&gt;Node2 -->
<g id="edge2_Node000002_Node000003" class="edge">
<title>Node3&#45;&gt;Node2</title>
<g id="a_edge2_Node000002_Node000003"><a xlink:title=" ">
<path fill="none" stroke="#63b8ff" d="M69.88,-110.13C69.88,-101.84 69.88,-92.67 69.88,-86.11"/>
<polygon fill="#63b8ff" stroke="#63b8ff" points="66.38,-110.07 69.88,-120.07 73.38,-110.07 66.38,-110.07"/>
</a>
</g>
</g>
</g>
</svg>
