<?xml version="1.0" encoding="UTF-8" standalone="no"?>
<!DOCTYPE svg PUBLIC "-//W3C//DTD SVG 1.1//EN"
 "http://www.w3.org/Graphics/SVG/1.1/DTD/svg11.dtd">
<!-- Generated by graphviz version 9.0.0 (20230911.1827)
 -->
<!-- Title: dunedaq::fdreadoutlibs::DAPHNEListRequestHandler Pages: 1 -->
<svg width="758pt" height="72pt"
 viewBox="0.00 0.00 758.25 72.25" xmlns="http://www.w3.org/2000/svg" xmlns:xlink="http://www.w3.org/1999/xlink">
<g id="graph0" class="graph" transform="scale(1 1) rotate(0) translate(4 68.25)">
<title>dunedaq::fdreadoutlibs::DAPHNEListRequestHandler</title>
<!-- Node1 -->
<g id="Node000001" class="node">
<title>Node1</title>
<g id="a_Node000001"><a xlink:title=" ">
<polygon fill="#999999" stroke="#666666" points="750.25,-47.38 602.25,-47.38 602.25,-16.88 750.25,-16.88 750.25,-47.38"/>
<text text-anchor="start" x="610.25" y="-33.88" font-family="Helvetica,sans-Serif" font-size="10.00">dunedaq::fdreadoutlibs</text>
<text text-anchor="middle" x="676.25" y="-22.62" font-family="Helvetica,sans-Serif" font-size="10.00">::DAPHNEListRequestHandler</text>
</a>
</g>
</g>
<!-- Node2 -->
<g id="Node000002" class="node">
<title>Node2</title>
<g id="a_Node000002"><a xlink:href="classdunedaq_1_1datahandlinglibs_1_1DefaultRequestHandlerModel.html" target="_top" xlink:title=" ">
<polygon fill="white" stroke="#666666" points="566.25,-64.25 348.5,-64.25 348.5,0 566.25,0 566.25,-64.25"/>
<text text-anchor="start" x="356.5" y="-50.75" font-family="Helvetica,sans-Serif" font-size="10.00">dunedaq::datahandlinglibs</text>
<text text-anchor="start" x="356.5" y="-39.5" font-family="Helvetica,sans-Serif" font-size="10.00">::DefaultRequestHandlerModel</text>
<text text-anchor="start" x="356.5" y="-28.25" font-family="Helvetica,sans-Serif" font-size="10.00">&lt; types::DAPHNESuperChunkTypeAdapter,</text>
<text text-anchor="start" x="356.5" y="-17" font-family="Helvetica,sans-Serif" font-size="10.00"> datahandlinglibs::SkipListLatencyBufferModel</text>
<text text-anchor="middle" x="457.38" y="-5.75" font-family="Helvetica,sans-Serif" font-size="10.00">&lt; types::DAPHNESuperChunkTypeAdapter &gt; &gt;</text>
</a>
</g>
</g>
<!-- Node2&#45;&gt;Node1 -->
<g id="edge1_Node000001_Node000002" class="edge">
<title>Node2&#45;&gt;Node1</title>
<g id="a_edge1_Node000001_Node000002"><a xlink:title=" ">
<path fill="none" stroke="#63b8ff" d="M578,-32.12C586.11,-32.12 594.14,-32.12 601.89,-32.12"/>
<polygon fill="#63b8ff" stroke="#63b8ff" points="578.01,-28.63 568.01,-32.13 578.01,-35.63 578.01,-28.63"/>
</a>
</g>
</g>
<!-- Node3 -->
<g id="Node000003" class="node">
<title>Node3</title>
<g id="a_Node000003"><a xlink:href="classdunedaq_1_1datahandlinglibs_1_1RequestHandlerConcept.html" target="_top" xlink:title=" ">
<polygon fill="white" stroke="#666666" points="312.5,-53 136.75,-53 136.75,-11.25 312.5,-11.25 312.5,-53"/>
<text text-anchor="start" x="144.75" y="-39.5" font-family="Helvetica,sans-Serif" font-size="10.00">dunedaq::datahandlinglibs</text>
<text text-anchor="start" x="144.75" y="-28.25" font-family="Helvetica,sans-Serif" font-size="10.00">::RequestHandlerConcept</text>
<text text-anchor="middle" x="224.62" y="-17" font-family="Helvetica,sans-Serif" font-size="10.00">&lt; ReadoutType, LatencyBufferType &gt;</text>
</a>
</g>
</g>
<!-- Node3&#45;&gt;Node2 -->
<g id="edge2_Node000002_Node000003" class="edge">
<title>Node3&#45;&gt;Node2</title>
<g id="a_edge2_Node000002_Node000003"><a xlink:title=" ">
<path fill="none" stroke="#63b8ff" d="M324.28,-32.12C332.14,-32.12 340.1,-32.12 348.02,-32.12"/>
<polygon fill="#63b8ff" stroke="#63b8ff" points="324.38,-28.63 314.38,-32.13 324.38,-35.63 324.38,-28.63"/>
</a>
</g>
</g>
<!-- Node4 -->
<g id="Node000004" class="node">
<title>Node4</title>
<g id="a_Node000004"><a xlink:href="classdunedaq_1_1opmonlib_1_1MonitorableObject.html" target="_top" xlink:title=" ">
<polygon fill="white" stroke="#666666" points="100.75,-47.38 0,-47.38 0,-16.88 100.75,-16.88 100.75,-47.38"/>
<text text-anchor="start" x="8" y="-33.88" font-family="Helvetica,sans-Serif" font-size="10.00">dunedaq::opmonlib::</text>
<text text-anchor="middle" x="50.38" y="-22.62" font-family="Helvetica,sans-Serif" font-size="10.00">MonitorableObject</text>
</a>
</g>
</g>
<!-- Node4&#45;&gt;Node3 -->
<g id="edge3_Node000003_Node000004" class="edge">
<title>Node4&#45;&gt;Node3</title>
<g id="a_edge3_Node000003_Node000004"><a xlink:title=" ">
<path fill="none" stroke="#63b8ff" d="M112.61,-32.12C120.29,-32.12 128.27,-32.12 136.26,-32.12"/>
<polygon fill="#63b8ff" stroke="#63b8ff" points="112.71,-28.63 102.71,-32.13 112.71,-35.63 112.71,-28.63"/>
</a>
</g>
</g>
</g>
</svg>
