<?xml version="1.0" encoding="UTF-8" standalone="no"?>
<!DOCTYPE svg PUBLIC "-//W3C//DTD SVG 1.1//EN"
 "http://www.w3.org/Graphics/SVG/1.1/DTD/svg11.dtd">
<!-- Generated by graphviz version 9.0.0 (20230911.1827)
 -->
<!-- Title: dbe::models::tree Pages: 1 -->
<svg width="620pt" height="162pt"
 viewBox="0.00 0.00 620.25 161.88" xmlns="http://www.w3.org/2000/svg" xmlns:xlink="http://www.w3.org/1999/xlink">
<g id="graph0" class="graph" transform="scale(1 1) rotate(0) translate(4 157.88)">
<title>dbe::models::tree</title>
<!-- Node1 -->
<g id="Node000001" class="node">
<title>Node1</title>
<g id="a_Node000001"><a xlink:title=" ">
<polygon fill="#999999" stroke="#666666" points="612.25,-94.88 523.5,-94.88 523.5,-75.62 612.25,-75.62 612.25,-94.88"/>
<text text-anchor="middle" x="567.88" y="-81.38" font-family="Helvetica,sans-Serif" font-size="10.00">dbe::models::tree</text>
</a>
</g>
</g>
<!-- Node2 -->
<g id="Node000002" class="node">
<title>Node2</title>
<g id="a_Node000002"><a xlink:title=" ">
<polygon fill="white" stroke="#666666" points="472.5,-153.88 366.5,-153.88 366.5,-134.62 472.5,-134.62 472.5,-153.88"/>
<text text-anchor="middle" x="419.5" y="-140.38" font-family="Helvetica,sans-Serif" font-size="10.00">QAbstractItemModel</text>
</a>
</g>
</g>
<!-- Node2&#45;&gt;Node1 -->
<g id="edge1_Node000001_Node000002" class="edge">
<title>Node2&#45;&gt;Node1</title>
<g id="a_edge1_Node000001_Node000002"><a xlink:title=" ">
<path fill="none" stroke="#63b8ff" d="M474.14,-130.95C478.7,-129.48 483.2,-127.91 487.5,-126.25 509.92,-117.56 534.29,-104.37 550.03,-95.3"/>
<polygon fill="#63b8ff" stroke="#63b8ff" points="473.48,-127.49 464.92,-133.73 475.51,-134.19 473.48,-127.49"/>
</a>
</g>
</g>
<!-- Node3 -->
<g id="Node000003" class="node">
<title>Node3</title>
<g id="a_Node000003"><a xlink:href="classdbe_1_1TreeModelInterface.html" target="_top" xlink:title=" ">
<polygon fill="white" stroke="#666666" points="479.62,-116.88 359.38,-116.88 359.38,-97.62 479.62,-97.62 479.62,-116.88"/>
<text text-anchor="middle" x="419.5" y="-103.38" font-family="Helvetica,sans-Serif" font-size="10.00">dbe::TreeModelInterface</text>
</a>
</g>
</g>
<!-- Node3&#45;&gt;Node1 -->
<g id="edge2_Node000001_Node000003" class="edge">
<title>Node3&#45;&gt;Node1</title>
<g id="a_edge2_Node000001_Node000003"><a xlink:title=" ">
<path fill="none" stroke="#63b8ff" d="M491.28,-96.61C502.14,-94.98 513.07,-93.34 523.11,-91.83"/>
<polygon fill="#63b8ff" stroke="#63b8ff" points="490.9,-93.13 481.53,-98.08 491.94,-100.05 490.9,-93.13"/>
</a>
</g>
</g>
<!-- Node4 -->
<g id="Node000004" class="node">
<title>Node4</title>
<g id="a_Node000004"><a xlink:href="classdbe_1_1model__common__impl.html" target="_top" xlink:title=" ">
<polygon fill="white" stroke="#666666" points="483.75,-79.5 355.25,-79.5 355.25,-49 483.75,-49 483.75,-79.5"/>
<text text-anchor="start" x="363.25" y="-66" font-family="Helvetica,sans-Serif" font-size="10.00">dbe::model_common_impl</text>
<text text-anchor="middle" x="419.5" y="-54.75" font-family="Helvetica,sans-Serif" font-size="10.00">&lt; tree &gt;</text>
</a>
</g>
</g>
<!-- Node4&#45;&gt;Node1 -->
<g id="edge3_Node000001_Node000004" class="edge">
<title>Node4&#45;&gt;Node1</title>
<g id="a_edge3_Node000001_Node000004"><a xlink:title=" ">
<path fill="none" stroke="#63b8ff" d="M495.13,-74.96C504.76,-76.34 514.35,-77.71 523.25,-78.99"/>
<polygon fill="#63b8ff" stroke="#63b8ff" points="495.74,-71.51 485.35,-73.55 494.75,-78.44 495.74,-71.51"/>
</a>
</g>
</g>
<!-- Node5 -->
<g id="Node000005" class="node">
<title>Node5</title>
<g id="a_Node000005"><a xlink:href="classdbe_1_1model__common__interface.html" target="_top" xlink:title=" ">
<polygon fill="white" stroke="#666666" points="315.5,-73.88 167.5,-73.88 167.5,-54.62 315.5,-54.62 315.5,-73.88"/>
<text text-anchor="middle" x="241.5" y="-60.38" font-family="Helvetica,sans-Serif" font-size="10.00">dbe::model_common_interface</text>
</a>
</g>
</g>
<!-- Node5&#45;&gt;Node4 -->
<g id="edge4_Node000004_Node000005" class="edge">
<title>Node5&#45;&gt;Node4</title>
<g id="a_edge4_Node000004_Node000005"><a xlink:title=" ">
<path fill="none" stroke="#63b8ff" d="M327.15,-64.25C336.45,-64.25 345.79,-64.25 354.77,-64.25"/>
<polygon fill="#63b8ff" stroke="#63b8ff" points="327.38,-60.75 317.38,-64.25 327.38,-67.75 327.38,-60.75"/>
</a>
</g>
</g>
<!-- Node6 -->
<g id="Node000006" class="node">
<title>Node6</title>
<g id="a_Node000006"><a xlink:href="classdbe_1_1model__initiate__actions__interface.html" target="_top" xlink:title=" ">
<polygon fill="white" stroke="#666666" points="113.88,-128.5 17.62,-128.5 17.62,-98 113.88,-98 113.88,-128.5"/>
<text text-anchor="start" x="25.62" y="-115" font-family="Helvetica,sans-Serif" font-size="10.00">dbe::model_initiate</text>
<text text-anchor="middle" x="65.75" y="-103.75" font-family="Helvetica,sans-Serif" font-size="10.00">_actions_interface</text>
</a>
</g>
</g>
<!-- Node6&#45;&gt;Node5 -->
<g id="edge5_Node000005_Node000006" class="edge">
<title>Node6&#45;&gt;Node5</title>
<g id="a_edge5_Node000005_Node000006"><a xlink:title=" ">
<path fill="none" stroke="#63b8ff" d="M125.23,-96.76C151.55,-89.34 181.76,-80.81 204.66,-74.36"/>
<polygon fill="#63b8ff" stroke="#63b8ff" points="124.36,-93.37 115.68,-99.45 126.26,-100.1 124.36,-93.37"/>
</a>
</g>
</g>
<!-- Node7 -->
<g id="Node000007" class="node">
<title>Node7</title>
<g id="a_Node000007"><a xlink:href="structdbe_1_1model__common__data__access__interface.html" target="_top" xlink:title=" ">
<polygon fill="white" stroke="#666666" points="130.38,-79.5 1.12,-79.5 1.12,-49 130.38,-49 130.38,-79.5"/>
<text text-anchor="start" x="9.12" y="-66" font-family="Helvetica,sans-Serif" font-size="10.00">dbe::model_common_data</text>
<text text-anchor="middle" x="65.75" y="-54.75" font-family="Helvetica,sans-Serif" font-size="10.00">_access_interface</text>
</a>
</g>
</g>
<!-- Node7&#45;&gt;Node5 -->
<g id="edge6_Node000005_Node000007" class="edge">
<title>Node7&#45;&gt;Node5</title>
<g id="a_edge6_Node000005_Node000007"><a xlink:title=" ">
<path fill="none" stroke="#63b8ff" d="M141.78,-64.25C150.18,-64.25 158.72,-64.25 167.09,-64.25"/>
<polygon fill="#63b8ff" stroke="#63b8ff" points="141.98,-60.75 131.98,-64.25 141.97,-67.75 141.98,-60.75"/>
</a>
</g>
</g>
<!-- Node8 -->
<g id="Node000008" class="node">
<title>Node8</title>
<g id="a_Node000008"><a xlink:href="classdbe_1_1model__common__slots.html" target="_top" xlink:title=" ">
<polygon fill="white" stroke="#666666" points="131.5,-30.88 0,-30.88 0,-11.62 131.5,-11.62 131.5,-30.88"/>
<text text-anchor="middle" x="65.75" y="-17.38" font-family="Helvetica,sans-Serif" font-size="10.00">dbe::model_common_slots</text>
</a>
</g>
</g>
<!-- Node8&#45;&gt;Node5 -->
<g id="edge7_Node000005_Node000008" class="edge">
<title>Node8&#45;&gt;Node5</title>
<g id="a_edge7_Node000005_Node000008"><a xlink:title=" ">
<path fill="none" stroke="#8b1a1a" d="M118.64,-34.09C144.57,-40.51 175.51,-48.17 199.72,-54.16"/>
<polygon fill="#8b1a1a" stroke="#8b1a1a" points="119.5,-30.7 108.96,-31.7 117.82,-37.5 119.5,-30.7"/>
</a>
</g>
</g>
<!-- Node9 -->
<g id="Node000009" class="node">
<title>Node9</title>
<g id="a_Node000009"><a xlink:href="classdbe_1_1model__common__async__operations.html" target="_top" xlink:title=" ">
<polygon fill="white" stroke="#666666" points="487.5,-30.5 351.5,-30.5 351.5,0 487.5,0 487.5,-30.5"/>
<text text-anchor="start" x="359.5" y="-17" font-family="Helvetica,sans-Serif" font-size="10.00">dbe::model_common_async</text>
<text text-anchor="middle" x="419.5" y="-5.75" font-family="Helvetica,sans-Serif" font-size="10.00">_operations&lt; tree &gt;</text>
</a>
</g>
</g>
<!-- Node9&#45;&gt;Node1 -->
<g id="edge8_Node000001_Node000009" class="edge">
<title>Node9&#45;&gt;Node1</title>
<g id="a_edge8_Node000001_Node000009"><a xlink:title=" ">
<path fill="none" stroke="#63b8ff" d="M476.02,-35.18C479.93,-36.82 483.79,-38.52 487.5,-40.25 510.18,-50.83 535.1,-65.49 550.86,-75.17"/>
<polygon fill="#63b8ff" stroke="#63b8ff" points="477.58,-32.03 467,-31.52 474.95,-38.52 477.58,-32.03"/>
</a>
</g>
</g>
</g>
</svg>
