<?xml version="1.0" encoding="UTF-8" standalone="no"?>
<!DOCTYPE svg PUBLIC "-//W3C//DTD SVG 1.1//EN"
 "http://www.w3.org/Graphics/SVG/1.1/DTD/svg11.dtd">
<!-- Generated by graphviz version 9.0.0 (20230911.1827)
 -->
<!-- Title: dbe::actions::state Pages: 1 -->
<svg width="575pt" height="371pt"
 viewBox="0.00 0.00 574.50 370.88" xmlns="http://www.w3.org/2000/svg" xmlns:xlink="http://www.w3.org/1999/xlink">
<g id="graph0" class="graph" transform="scale(1 1) rotate(0) translate(4 366.88)">
<title>dbe::actions::state</title>
<!-- Node1 -->
<g id="Node000001" class="node">
<title>Node1</title>
<g id="a_Node000001"><a xlink:title=" ">
<polygon fill="#999999" stroke="#666666" points="221,-281.88 127,-281.88 127,-262.62 221,-262.62 221,-281.88"/>
<text text-anchor="middle" x="174" y="-268.38" font-family="Helvetica,sans-Serif" font-size="10.00">dbe::actions::state</text>
</a>
</g>
</g>
<!-- Node3 -->
<g id="Node000003" class="node">
<title>Node3</title>
<g id="a_Node000003"><a xlink:href="classdbe_1_1actions_1_1file_1_1add.html" target="_top" xlink:title=" ">
<polygon fill="white" stroke="#666666" points="363.75,-349.88 259.25,-349.88 259.25,-330.62 363.75,-330.62 363.75,-349.88"/>
<text text-anchor="middle" x="311.5" y="-336.38" font-family="Helvetica,sans-Serif" font-size="10.00">dbe::actions::file::add</text>
</a>
</g>
</g>
<!-- Node1&#45;&gt;Node3 -->
<g id="edge2_Node000001_Node000003" class="edge">
<title>Node1&#45;&gt;Node3</title>
<g id="a_edge2_Node000001_Node000003"><a xlink:title=" ">
<path fill="none" stroke="#63b8ff" d="M199.23,-288.46C215.2,-298.7 236.81,-311.75 257,-321.25 263.96,-324.52 271.64,-327.57 278.96,-330.22"/>
<polygon fill="#63b8ff" stroke="#63b8ff" points="201.18,-285.55 190.89,-283.03 197.36,-291.42 201.18,-285.55"/>
</a>
</g>
</g>
<!-- Node4 -->
<g id="Node000004" class="node">
<title>Node4</title>
<g id="a_Node000004"><a xlink:href="classdbe_1_1actions_1_1file_1_1remove.html" target="_top" xlink:title=" ">
<polygon fill="white" stroke="#666666" points="353.62,-312.5 269.38,-312.5 269.38,-282 353.62,-282 353.62,-312.5"/>
<text text-anchor="start" x="277.38" y="-299" font-family="Helvetica,sans-Serif" font-size="10.00">dbe::actions::file</text>
<text text-anchor="middle" x="311.5" y="-287.75" font-family="Helvetica,sans-Serif" font-size="10.00">::remove</text>
</a>
</g>
</g>
<!-- Node1&#45;&gt;Node4 -->
<g id="edge3_Node000001_Node000004" class="edge">
<title>Node1&#45;&gt;Node4</title>
<g id="a_edge3_Node000001_Node000004"><a xlink:title=" ">
<path fill="none" stroke="#63b8ff" d="M232.37,-282.83C244.67,-285.1 257.44,-287.46 269,-289.59"/>
<polygon fill="#63b8ff" stroke="#63b8ff" points="233.21,-279.43 222.74,-281.06 231.94,-286.31 233.21,-279.43"/>
</a>
</g>
</g>
<!-- Node5 -->
<g id="Node000005" class="node">
<title>Node5</title>
<g id="a_Node000005"><a xlink:href="classdbe_1_1actions_1_1object_1_1create.html" target="_top" xlink:title=" ">
<polygon fill="white" stroke="#666666" points="360.75,-263.5 262.25,-263.5 262.25,-233 360.75,-233 360.75,-263.5"/>
<text text-anchor="start" x="270.25" y="-250" font-family="Helvetica,sans-Serif" font-size="10.00">dbe::actions::object</text>
<text text-anchor="middle" x="311.5" y="-238.75" font-family="Helvetica,sans-Serif" font-size="10.00">::create</text>
</a>
</g>
</g>
<!-- Node1&#45;&gt;Node5 -->
<g id="edge4_Node000001_Node000005" class="edge">
<title>Node1&#45;&gt;Node5</title>
<g id="a_edge4_Node000001_Node000005"><a xlink:title=" ">
<path fill="none" stroke="#63b8ff" d="M232.29,-262.1C242.23,-260.34 252.48,-258.53 262.15,-256.81"/>
<polygon fill="#63b8ff" stroke="#63b8ff" points="231.98,-258.6 222.74,-263.79 233.2,-265.5 231.98,-258.6"/>
</a>
</g>
</g>
<!-- Node6 -->
<g id="Node000006" class="node">
<title>Node6</title>
<g id="a_Node000006"><a xlink:href="classdbe_1_1actions_1_1onobject.html" target="_top" xlink:title=" ">
<polygon fill="white" stroke="#666666" points="366,-214.88 257,-214.88 257,-195.62 366,-195.62 366,-214.88"/>
<text text-anchor="middle" x="311.5" y="-201.38" font-family="Helvetica,sans-Serif" font-size="10.00">dbe::actions::onobject</text>
</a>
</g>
</g>
<!-- Node1&#45;&gt;Node6 -->
<g id="edge5_Node000001_Node000006" class="edge">
<title>Node1&#45;&gt;Node6</title>
<g id="a_edge5_Node000001_Node000006"><a xlink:title=" ">
<path fill="none" stroke="#63b8ff" d="M199.86,-256.04C215.79,-246.08 237.12,-233.5 257,-224.25 263.97,-221.01 271.66,-217.98 278.98,-215.33"/>
<polygon fill="#63b8ff" stroke="#63b8ff" points="198.09,-253.02 191.53,-261.34 201.84,-258.93 198.09,-253.02"/>
</a>
</g>
</g>
<!-- Node2 -->
<g id="Node000002" class="node">
<title>Node2</title>
<g id="a_Node000002"><a xlink:title=" ">
<polygon fill="white" stroke="#666666" points="91,-281.88 0,-281.88 0,-262.62 91,-262.62 91,-281.88"/>
<text text-anchor="middle" x="45.5" y="-268.38" font-family="Helvetica,sans-Serif" font-size="10.00">QUndoCommand</text>
</a>
</g>
</g>
<!-- Node2&#45;&gt;Node1 -->
<g id="edge1_Node000001_Node000002" class="edge">
<title>Node2&#45;&gt;Node1</title>
<g id="a_edge1_Node000001_Node000002"><a xlink:title=" ">
<path fill="none" stroke="#63b8ff" d="M102.73,-272.25C110.81,-272.25 119.05,-272.25 126.91,-272.25"/>
<polygon fill="#63b8ff" stroke="#63b8ff" points="102.97,-268.75 92.97,-272.25 102.97,-275.75 102.97,-268.75"/>
</a>
</g>
</g>
<!-- Node7 -->
<g id="Node000007" class="node">
<title>Node7</title>
<g id="a_Node000007"><a xlink:href="classdbe_1_1actions_1_1ChangeAttribute.html" target="_top" xlink:title=" ">
<polygon fill="white" stroke="#666666" points="566.5,-362.88 402,-362.88 402,-343.62 566.5,-343.62 566.5,-362.88"/>
<text text-anchor="middle" x="484.25" y="-349.38" font-family="Helvetica,sans-Serif" font-size="10.00">dbe::actions::ChangeAttribute&lt; T &gt;</text>
</a>
</g>
</g>
<!-- Node6&#45;&gt;Node7 -->
<g id="edge6_Node000006_Node000007" class="edge">
<title>Node6&#45;&gt;Node7</title>
<g id="a_edge6_Node000006_Node000007"><a xlink:title=" ">
<path fill="none" stroke="#63b8ff" d="M363.24,-221.67C364.2,-222.49 365.12,-223.35 366,-224.25 402.16,-261.43 363.62,-300.37 402,-335.25 405.42,-338.36 409.26,-340.97 413.35,-343.16"/>
<polygon fill="#63b8ff" stroke="#63b8ff" points="365.26,-218.81 354.99,-216.19 361.39,-224.64 365.26,-218.81"/>
</a>
</g>
</g>
<!-- Node8 -->
<g id="Node000008" class="node">
<title>Node8</title>
<g id="a_Node000008"><a xlink:href="classdbe_1_1actions_1_1ChangeClass.html" target="_top" xlink:title=" ">
<polygon fill="white" stroke="#666666" points="560.5,-325.88 408,-325.88 408,-306.62 560.5,-306.62 560.5,-325.88"/>
<text text-anchor="middle" x="484.25" y="-312.38" font-family="Helvetica,sans-Serif" font-size="10.00">dbe::actions::ChangeClass&lt; T &gt;</text>
</a>
</g>
</g>
<!-- Node6&#45;&gt;Node8 -->
<g id="edge7_Node000006_Node000008" class="edge">
<title>Node6&#45;&gt;Node8</title>
<g id="a_edge7_Node000006_Node000008"><a xlink:title=" ">
<path fill="none" stroke="#63b8ff" d="M362.01,-221.06C363.4,-222.06 364.74,-223.12 366,-224.25 393.26,-248.63 373.29,-275.59 402,-298.25 405.97,-301.38 410.37,-303.99 415.02,-306.17"/>
<polygon fill="#63b8ff" stroke="#63b8ff" points="363.89,-218.1 353.49,-216.08 360.36,-224.14 363.89,-218.1"/>
</a>
</g>
</g>
<!-- Node9 -->
<g id="Node000009" class="node">
<title>Node9</title>
<g id="a_Node000009"><a xlink:href="classdbe_1_1actions_1_1ChangeDate.html" target="_top" xlink:title=" ">
<polygon fill="white" stroke="#666666" points="558.25,-288.88 410.25,-288.88 410.25,-269.62 558.25,-269.62 558.25,-288.88"/>
<text text-anchor="middle" x="484.25" y="-275.38" font-family="Helvetica,sans-Serif" font-size="10.00">dbe::actions::ChangeDate&lt; T &gt;</text>
</a>
</g>
</g>
<!-- Node6&#45;&gt;Node9 -->
<g id="edge8_Node000006_Node000009" class="edge">
<title>Node6&#45;&gt;Node9</title>
<g id="a_edge8_Node000006_Node000009"><a xlink:title=" ">
<path fill="none" stroke="#63b8ff" d="M358.45,-219.95C361.07,-221.28 363.6,-222.71 366,-224.25 385.31,-236.63 381.96,-250.08 402,-261.25 407.68,-264.42 413.87,-267.02 420.22,-269.17"/>
<polygon fill="#63b8ff" stroke="#63b8ff" points="360.05,-216.83 349.5,-215.93 357.19,-223.22 360.05,-216.83"/>
</a>
</g>
</g>
<!-- Node10 -->
<g id="Node000010" class="node">
<title>Node10</title>
<g id="a_Node000010"><a xlink:href="classdbe_1_1actions_1_1ChangeEnum.html" target="_top" xlink:title=" ">
<polygon fill="white" stroke="#666666" points="560.5,-251.88 408,-251.88 408,-232.62 560.5,-232.62 560.5,-251.88"/>
<text text-anchor="middle" x="484.25" y="-238.38" font-family="Helvetica,sans-Serif" font-size="10.00">dbe::actions::ChangeEnum&lt; T &gt;</text>
</a>
</g>
</g>
<!-- Node6&#45;&gt;Node10 -->
<g id="edge9_Node000006_Node000010" class="edge">
<title>Node6&#45;&gt;Node10</title>
<g id="a_edge9_Node000006_Node000010"><a xlink:title=" ">
<path fill="none" stroke="#63b8ff" d="M370.2,-217.75C391.84,-222.44 416.14,-227.71 436.65,-232.15"/>
<polygon fill="#63b8ff" stroke="#63b8ff" points="371.15,-214.38 360.64,-215.68 369.67,-221.22 371.15,-214.38"/>
</a>
</g>
</g>
<!-- Node11 -->
<g id="Node000011" class="node">
<title>Node11</title>
<g id="a_Node000011"><a xlink:href="classdbe_1_1actions_1_1ChangeTime.html" target="_top" xlink:title=" ">
<polygon fill="white" stroke="#666666" points="559,-214.88 409.5,-214.88 409.5,-195.62 559,-195.62 559,-214.88"/>
<text text-anchor="middle" x="484.25" y="-201.38" font-family="Helvetica,sans-Serif" font-size="10.00">dbe::actions::ChangeTime&lt; T &gt;</text>
</a>
</g>
</g>
<!-- Node6&#45;&gt;Node11 -->
<g id="edge10_Node000006_Node000011" class="edge">
<title>Node6&#45;&gt;Node11</title>
<g id="a_edge10_Node000006_Node000011"><a xlink:title=" ">
<path fill="none" stroke="#63b8ff" d="M377.54,-205.25C387.9,-205.25 398.69,-205.25 409.24,-205.25"/>
<polygon fill="#63b8ff" stroke="#63b8ff" points="377.57,-201.75 367.57,-205.25 377.57,-208.75 377.57,-201.75"/>
</a>
</g>
</g>
<!-- Node12 -->
<g id="Node000012" class="node">
<title>Node12</title>
<g id="a_Node000012"><a xlink:href="classdbe_1_1actions_1_1object_1_1changerefs.html" target="_top" xlink:title=" ">
<polygon fill="white" stroke="#666666" points="533.5,-177.5 435,-177.5 435,-147 533.5,-147 533.5,-177.5"/>
<text text-anchor="start" x="443" y="-164" font-family="Helvetica,sans-Serif" font-size="10.00">dbe::actions::object</text>
<text text-anchor="middle" x="484.25" y="-152.75" font-family="Helvetica,sans-Serif" font-size="10.00">::changerefs</text>
</a>
</g>
</g>
<!-- Node6&#45;&gt;Node12 -->
<g id="edge11_Node000006_Node000012" class="edge">
<title>Node6&#45;&gt;Node12</title>
<g id="a_edge11_Node000006_Node000012"><a xlink:title=" ">
<path fill="none" stroke="#63b8ff" d="M363.58,-192.39C386.09,-186.72 412.42,-180.09 434.64,-174.49"/>
<polygon fill="#63b8ff" stroke="#63b8ff" points="362.84,-188.96 354,-194.8 364.55,-195.75 362.84,-188.96"/>
</a>
</g>
</g>
<!-- Node13 -->
<g id="Node000013" class="node">
<title>Node13</title>
<g id="a_Node000013"><a xlink:href="classdbe_1_1actions_1_1object_1_1move.html" target="_top" xlink:title=" ">
<polygon fill="white" stroke="#666666" points="533.5,-128.5 435,-128.5 435,-98 533.5,-98 533.5,-128.5"/>
<text text-anchor="start" x="443" y="-115" font-family="Helvetica,sans-Serif" font-size="10.00">dbe::actions::object</text>
<text text-anchor="middle" x="484.25" y="-103.75" font-family="Helvetica,sans-Serif" font-size="10.00">::move</text>
</a>
</g>
</g>
<!-- Node6&#45;&gt;Node13 -->
<g id="edge12_Node000006_Node000013" class="edge">
<title>Node6&#45;&gt;Node13</title>
<g id="a_edge12_Node000006_Node000013"><a xlink:title=" ">
<path fill="none" stroke="#63b8ff" d="M331.83,-187.65C349.13,-172.7 375.73,-151.61 402,-138.25 412.26,-133.03 423.81,-128.67 434.91,-125.13"/>
<polygon fill="#63b8ff" stroke="#63b8ff" points="329.56,-184.99 324.38,-194.23 334.19,-190.23 329.56,-184.99"/>
</a>
</g>
</g>
<!-- Node14 -->
<g id="Node000014" class="node">
<title>Node14</title>
<g id="a_Node000014"><a xlink:href="classdbe_1_1actions_1_1object_1_1remove.html" target="_top" xlink:title=" ">
<polygon fill="white" stroke="#666666" points="533.5,-79.5 435,-79.5 435,-49 533.5,-49 533.5,-79.5"/>
<text text-anchor="start" x="443" y="-66" font-family="Helvetica,sans-Serif" font-size="10.00">dbe::actions::object</text>
<text text-anchor="middle" x="484.25" y="-54.75" font-family="Helvetica,sans-Serif" font-size="10.00">::remove</text>
</a>
</g>
</g>
<!-- Node6&#45;&gt;Node14 -->
<g id="edge13_Node000006_Node000014" class="edge">
<title>Node6&#45;&gt;Node14</title>
<g id="a_edge13_Node000006_Node000014"><a xlink:title=" ">
<path fill="none" stroke="#63b8ff" d="M322.72,-185.38C337.02,-159.5 365.41,-114.61 402,-89.25 411.7,-82.52 423.28,-77.56 434.6,-73.91"/>
<polygon fill="#63b8ff" stroke="#63b8ff" points="319.82,-183.38 318.19,-193.85 325.99,-186.69 319.82,-183.38"/>
</a>
</g>
</g>
<!-- Node15 -->
<g id="Node000015" class="node">
<title>Node15</title>
<g id="a_Node000015"><a xlink:href="classdbe_1_1actions_1_1object_1_1rename.html" target="_top" xlink:title=" ">
<polygon fill="white" stroke="#666666" points="533.5,-30.5 435,-30.5 435,0 533.5,0 533.5,-30.5"/>
<text text-anchor="start" x="443" y="-17" font-family="Helvetica,sans-Serif" font-size="10.00">dbe::actions::object</text>
<text text-anchor="middle" x="484.25" y="-5.75" font-family="Helvetica,sans-Serif" font-size="10.00">::rename</text>
</a>
</g>
</g>
<!-- Node6&#45;&gt;Node15 -->
<g id="edge14_Node000006_Node000015" class="edge">
<title>Node6&#45;&gt;Node15</title>
<g id="a_edge14_Node000006_Node000015"><a xlink:title=" ">
<path fill="none" stroke="#63b8ff" d="M318.08,-184.64C328.59,-149.74 354.64,-79.04 402,-40.25 411.36,-32.58 423.06,-27.26 434.65,-23.57"/>
<polygon fill="#63b8ff" stroke="#63b8ff" points="314.81,-183.35 315.42,-193.93 321.54,-185.28 314.81,-183.35"/>
</a>
</g>
</g>
</g>
</svg>
