<?xml version="1.0" encoding="UTF-8" standalone="no"?>
<!DOCTYPE svg PUBLIC "-//W3C//DTD SVG 1.1//EN"
 "http://www.w3.org/Graphics/SVG/1.1/DTD/svg11.dtd">
<!-- Generated by graphviz version 9.0.0 (20230911.1827)
 -->
<!-- Title: dunedaq::timing::DACSlave Pages: 1 -->
<svg width="280pt" height="206pt"
 viewBox="0.00 0.00 280.38 206.25" xmlns="http://www.w3.org/2000/svg" xmlns:xlink="http://www.w3.org/1999/xlink">
<g id="graph0" class="graph" transform="scale(1 1) rotate(0) translate(4 202.25)">
<title>dunedaq::timing::DACSlave</title>
<!-- Node1 -->
<g id="Node000001" class="node">
<title>Node1</title>
<g id="a_Node000001"><a xlink:title="Class for dac node.">
<polygon fill="#999999" stroke="#666666" points="159.75,-19.25 26.75,-19.25 26.75,0 159.75,0 159.75,-19.25"/>
<text text-anchor="middle" x="93.25" y="-5.75" font-family="Helvetica,sans-Serif" font-size="10.00">dunedaq::timing::DACSlave</text>
</a>
</g>
</g>
<!-- Node2 -->
<g id="Node000002" class="node">
<title>Node2</title>
<g id="a_Node000002"><a xlink:href="classdunedaq_1_1timing_1_1I2CSlave.html" target="_top" xlink:title=" ">
<polygon fill="white" stroke="#666666" points="157.12,-75.5 29.38,-75.5 29.38,-56.25 157.12,-56.25 157.12,-75.5"/>
<text text-anchor="middle" x="93.25" y="-62" font-family="Helvetica,sans-Serif" font-size="10.00">dunedaq::timing::I2CSlave</text>
</a>
</g>
</g>
<!-- Node2&#45;&gt;Node1 -->
<g id="edge1_Node000001_Node000002" class="edge">
<title>Node2&#45;&gt;Node1</title>
<g id="a_edge1_Node000001_Node000002"><a xlink:title=" ">
<path fill="none" stroke="#63b8ff" d="M93.25,-44.69C93.25,-35.98 93.25,-26.24 93.25,-19.42"/>
<polygon fill="#63b8ff" stroke="#63b8ff" points="89.75,-44.4 93.25,-54.4 96.75,-44.4 89.75,-44.4"/>
</a>
</g>
</g>
<!-- Node3 -->
<g id="Node000003" class="node">
<title>Node3</title>
<g id="a_Node000003"><a xlink:title=" ">
<polygon fill="white" stroke="#666666" points="98.5,-142 0,-142 0,-122.75 98.5,-122.75 98.5,-142"/>
<text text-anchor="middle" x="49.25" y="-128.5" font-family="Helvetica,sans-Serif" font-size="10.00">boost::noncopyable</text>
</a>
</g>
</g>
<!-- Node3&#45;&gt;Node2 -->
<g id="edge2_Node000002_Node000003" class="edge">
<title>Node3&#45;&gt;Node2</title>
<g id="a_edge2_Node000002_Node000003"><a xlink:title=" ">
<path fill="none" stroke="#8b1a1a" d="M61.7,-113.13C70.03,-100.91 80.64,-85.36 87.18,-75.77"/>
<polygon fill="#8b1a1a" stroke="#8b1a1a" points="58.97,-110.92 56.22,-121.16 64.75,-114.87 58.97,-110.92"/>
</a>
</g>
</g>
<!-- Node4 -->
<g id="Node000004" class="node">
<title>Node4</title>
<g id="a_Node000004"><a xlink:href="classdunedaq_1_1timing_1_1I2CMasterNode.html" target="_top" xlink:title=" ">
<polygon fill="white" stroke="#666666" points="272.38,-142 116.12,-142 116.12,-122.75 272.38,-122.75 272.38,-142"/>
<text text-anchor="middle" x="194.25" y="-128.5" font-family="Helvetica,sans-Serif" font-size="10.00">dunedaq::timing::I2CMasterNode</text>
</a>
</g>
</g>
<!-- Node4&#45;&gt;Node2 -->
<g id="edge3_Node000002_Node000004" class="edge">
<title>Node4&#45;&gt;Node2</title>
<g id="a_edge3_Node000002_Node000004"><a xlink:title=" ">
<path fill="none" stroke="#9a32cd" stroke-dasharray="5,2" d="M170.77,-116.38C151.19,-103.87 123.93,-86.47 107.5,-75.98"/>
<polygon fill="#9a32cd" stroke="#9a32cd" points="168.62,-119.16 178.93,-121.59 172.39,-113.26 168.62,-119.16"/>
</a>
</g>
<text text-anchor="middle" x="181.12" y="-95.25" font-family="Helvetica,sans-Serif" font-size="10.00" fill="grey"> m_i2c_master</text>
</g>
<!-- Node5 -->
<g id="Node000005" class="node">
<title>Node5</title>
<g id="a_Node000005"><a xlink:title=" ">
<polygon fill="white" stroke="#666666" points="225.12,-198.25 163.38,-198.25 163.38,-179 225.12,-179 225.12,-198.25"/>
<text text-anchor="middle" x="194.25" y="-184.75" font-family="Helvetica,sans-Serif" font-size="10.00">uhal::Node</text>
</a>
</g>
</g>
<!-- Node5&#45;&gt;Node4 -->
<g id="edge4_Node000004_Node000005" class="edge">
<title>Node5&#45;&gt;Node4</title>
<g id="a_edge4_Node000004_Node000005"><a xlink:title=" ">
<path fill="none" stroke="#63b8ff" d="M194.25,-167.44C194.25,-158.73 194.25,-148.99 194.25,-142.17"/>
<polygon fill="#63b8ff" stroke="#63b8ff" points="190.75,-167.15 194.25,-177.15 197.75,-167.15 190.75,-167.15"/>
</a>
</g>
</g>
</g>
</svg>
