<?xml version="1.0" encoding="UTF-8" standalone="no"?>
<!DOCTYPE svg PUBLIC "-//W3C//DTD SVG 1.1//EN"
 "http://www.w3.org/Graphics/SVG/1.1/DTD/svg11.dtd">
<!-- Generated by graphviz version 9.0.0 (20230911.1827)
 -->
<!-- Title: dunedaq::timing::HSIDesignInterface Pages: 1 -->
<svg width="298pt" height="349pt"
 viewBox="0.00 0.00 298.38 348.50" xmlns="http://www.w3.org/2000/svg" xmlns:xlink="http://www.w3.org/1999/xlink">
<g id="graph0" class="graph" transform="scale(1 1) rotate(0) translate(4 344.5)">
<title>dunedaq::timing::HSIDesignInterface</title>
<!-- Node1 -->
<g id="Node000001" class="node">
<title>Node1</title>
<g id="a_Node000001"><a xlink:title="Base class for timing hsi design nodes.">
<polygon fill="#999999" stroke="#666666" points="219,-97 83.75,-97 83.75,-66.5 219,-66.5 219,-97"/>
<text text-anchor="start" x="91.75" y="-83.5" font-family="Helvetica,sans-Serif" font-size="10.00">dunedaq::timing::HSIDesign</text>
<text text-anchor="middle" x="151.38" y="-72.25" font-family="Helvetica,sans-Serif" font-size="10.00">Interface</text>
</a>
</g>
</g>
<!-- Node6 -->
<g id="Node000006" class="node">
<title>Node6</title>
<g id="a_Node000006"><a xlink:href="classdunedaq_1_1timing_1_1BoreasDesign.html" target="_top" xlink:title="Class for timing master with integrated HSI designs.">
<polygon fill="white" stroke="#666666" points="148.75,-24.88 0,-24.88 0,-5.63 148.75,-5.63 148.75,-24.88"/>
<text text-anchor="middle" x="74.38" y="-11.38" font-family="Helvetica,sans-Serif" font-size="10.00">dunedaq::timing::BoreasDesign</text>
</a>
</g>
</g>
<!-- Node1&#45;&gt;Node6 -->
<g id="edge5_Node000001_Node000006" class="edge">
<title>Node1&#45;&gt;Node6</title>
<g id="a_edge5_Node000001_Node000006"><a xlink:title=" ">
<path fill="none" stroke="#63b8ff" d="M125.25,-58.87C111.44,-47.3 95.25,-33.74 84.91,-25.07"/>
<polygon fill="#63b8ff" stroke="#63b8ff" points="122.83,-61.4 132.74,-65.14 127.32,-56.04 122.83,-61.4"/>
</a>
</g>
</g>
<!-- Node7 -->
<g id="Node000007" class="node">
<title>Node7</title>
<g id="a_Node000007"><a xlink:href="classdunedaq_1_1timing_1_1ChronosDesign.html" target="_top" xlink:title="Class for timing master with integrated HSI designs.">
<polygon fill="white" stroke="#666666" points="290.38,-30.5 166.38,-30.5 166.38,0 290.38,0 290.38,-30.5"/>
<text text-anchor="start" x="174.38" y="-17" font-family="Helvetica,sans-Serif" font-size="10.00">dunedaq::timing::Chronos</text>
<text text-anchor="middle" x="228.38" y="-5.75" font-family="Helvetica,sans-Serif" font-size="10.00">Design</text>
</a>
</g>
</g>
<!-- Node1&#45;&gt;Node7 -->
<g id="edge6_Node000001_Node000007" class="edge">
<title>Node1&#45;&gt;Node7</title>
<g id="a_edge6_Node000001_Node000007"><a xlink:title=" ">
<path fill="none" stroke="#63b8ff" d="M177.65,-58.74C188.65,-49.53 201.14,-39.06 210.97,-30.83"/>
<polygon fill="#63b8ff" stroke="#63b8ff" points="175.43,-56.04 170.01,-65.14 179.92,-61.4 175.43,-56.04"/>
</a>
</g>
</g>
<!-- Node2 -->
<g id="Node000002" class="node">
<title>Node2</title>
<g id="a_Node000002"><a xlink:href="classdunedaq_1_1timing_1_1EndpointDesignInterface.html" target="_top" xlink:title="Base class for timing endpoint design nodes.">
<polygon fill="white" stroke="#666666" points="214.12,-163.5 88.62,-163.5 88.62,-133 214.12,-133 214.12,-163.5"/>
<text text-anchor="start" x="96.62" y="-150" font-family="Helvetica,sans-Serif" font-size="10.00">dunedaq::timing::Endpoint</text>
<text text-anchor="middle" x="151.38" y="-138.75" font-family="Helvetica,sans-Serif" font-size="10.00">DesignInterface</text>
</a>
</g>
</g>
<!-- Node2&#45;&gt;Node1 -->
<g id="edge1_Node000001_Node000002" class="edge">
<title>Node2&#45;&gt;Node1</title>
<g id="a_edge1_Node000001_Node000002"><a xlink:title=" ">
<path fill="none" stroke="#63b8ff" d="M151.38,-121.31C151.38,-113.14 151.38,-104.41 151.38,-97.33"/>
<polygon fill="#63b8ff" stroke="#63b8ff" points="147.88,-121.1 151.38,-131.1 154.88,-121.1 147.88,-121.1"/>
</a>
</g>
</g>
<!-- Node3 -->
<g id="Node000003" class="node">
<title>Node3</title>
<g id="a_Node000003"><a xlink:href="classdunedaq_1_1timing_1_1TopDesignInterface.html" target="_top" xlink:title="Base class for timing top design nodes.">
<polygon fill="white" stroke="#666666" points="218.62,-230 84.12,-230 84.12,-199.5 218.62,-199.5 218.62,-230"/>
<text text-anchor="start" x="92.12" y="-216.5" font-family="Helvetica,sans-Serif" font-size="10.00">dunedaq::timing::TopDesign</text>
<text text-anchor="middle" x="151.38" y="-205.25" font-family="Helvetica,sans-Serif" font-size="10.00">Interface</text>
</a>
</g>
</g>
<!-- Node3&#45;&gt;Node2 -->
<g id="edge2_Node000002_Node000003" class="edge">
<title>Node3&#45;&gt;Node2</title>
<g id="a_edge2_Node000002_Node000003"><a xlink:title=" ">
<path fill="none" stroke="#63b8ff" d="M151.38,-187.81C151.38,-179.64 151.38,-170.91 151.38,-163.83"/>
<polygon fill="#63b8ff" stroke="#63b8ff" points="147.88,-187.6 151.38,-197.6 154.88,-187.6 147.88,-187.6"/>
</a>
</g>
</g>
<!-- Node4 -->
<g id="Node000004" class="node">
<title>Node4</title>
<g id="a_Node000004"><a xlink:href="classdunedaq_1_1timing_1_1TimingNode.html" target="_top" xlink:title="Base class for timing nodes.">
<polygon fill="white" stroke="#666666" points="221.62,-285.25 81.12,-285.25 81.12,-266 221.62,-266 221.62,-285.25"/>
<text text-anchor="middle" x="151.38" y="-271.75" font-family="Helvetica,sans-Serif" font-size="10.00">dunedaq::timing::TimingNode</text>
</a>
</g>
</g>
<!-- Node4&#45;&gt;Node3 -->
<g id="edge3_Node000003_Node000004" class="edge">
<title>Node4&#45;&gt;Node3</title>
<g id="a_edge3_Node000003_Node000004"><a xlink:title=" ">
<path fill="none" stroke="#63b8ff" d="M151.38,-254.42C151.38,-246.49 151.38,-237.56 151.38,-230.28"/>
<polygon fill="#63b8ff" stroke="#63b8ff" points="147.88,-254.17 151.38,-264.17 154.88,-254.17 147.88,-254.17"/>
</a>
</g>
</g>
<!-- Node5 -->
<g id="Node000005" class="node">
<title>Node5</title>
<g id="a_Node000005"><a xlink:title=" ">
<polygon fill="white" stroke="#666666" points="182.25,-340.5 120.5,-340.5 120.5,-321.25 182.25,-321.25 182.25,-340.5"/>
<text text-anchor="middle" x="151.38" y="-327" font-family="Helvetica,sans-Serif" font-size="10.00">uhal::Node</text>
</a>
</g>
</g>
<!-- Node5&#45;&gt;Node4 -->
<g id="edge4_Node000004_Node000005" class="edge">
<title>Node5&#45;&gt;Node4</title>
<g id="a_edge4_Node000004_Node000005"><a xlink:title=" ">
<path fill="none" stroke="#63b8ff" d="M151.38,-309.63C151.38,-301.34 151.38,-292.17 151.38,-285.61"/>
<polygon fill="#63b8ff" stroke="#63b8ff" points="147.88,-309.57 151.38,-319.57 154.88,-309.57 147.88,-309.57"/>
</a>
</g>
</g>
</g>
</svg>
