<?xml version="1.0" encoding="UTF-8" standalone="no"?>
<!DOCTYPE svg PUBLIC "-//W3C//DTD SVG 1.1//EN"
 "http://www.w3.org/Graphics/SVG/1.1/DTD/svg11.dtd">
<!-- Generated by graphviz version 9.0.0 (20230911.1827)
 -->
<!-- Title: dunedaq::appmodel::DTSHSIApplication Pages: 1 -->
<svg width="2484pt" height="604pt"
 viewBox="0.00 0.00 2484.00 603.50" xmlns="http://www.w3.org/2000/svg" xmlns:xlink="http://www.w3.org/1999/xlink">
<g id="graph0" class="graph" transform="scale(1 1) rotate(0) translate(4 599.5)">
<title>dunedaq::appmodel::DTSHSIApplication</title>
<!-- Node1 -->
<g id="Node000001" class="node">
<title>Node1</title>
<g id="a_Node000001"><a xlink:title=" ">
<polygon fill="#999999" stroke="#666666" points="2476,-487.5 2372.25,-487.5 2372.25,-457 2476,-457 2476,-487.5"/>
<text text-anchor="start" x="2380.25" y="-474" font-family="Helvetica,sans-Serif" font-size="10.00">dunedaq::appmodel::</text>
<text text-anchor="middle" x="2424.12" y="-462.75" font-family="Helvetica,sans-Serif" font-size="10.00">DTSHSIApplication</text>
</a>
</g>
</g>
<!-- Node2 -->
<g id="Node000002" class="node">
<title>Node2</title>
<g id="a_Node000002"><a xlink:href="classdunedaq_1_1confmodel_1_1Resource.html" target="_top" xlink:title=" ">
<polygon fill="white" stroke="#666666" points="2209.75,-574.5 2107.5,-574.5 2107.5,-544 2209.75,-544 2209.75,-574.5"/>
<text text-anchor="start" x="2115.5" y="-561" font-family="Helvetica,sans-Serif" font-size="10.00">dunedaq::confmodel</text>
<text text-anchor="middle" x="2158.62" y="-549.75" font-family="Helvetica,sans-Serif" font-size="10.00">::Resource</text>
</a>
</g>
</g>
<!-- Node2&#45;&gt;Node1 -->
<g id="edge1_Node000001_Node000002" class="edge">
<title>Node2&#45;&gt;Node1</title>
<g id="a_edge1_Node000001_Node000002"><a xlink:title=" ">
<path fill="none" stroke="#63b8ff" d="M2199.37,-539.38C2238.72,-524.34 2300.67,-504.01 2354.25,-486.25 2359.99,-484.35 2366.01,-482.35 2371.98,-480.42"/>
<polygon fill="#63b8ff" stroke="#63b8ff" points="2198.1,-536.12 2190.07,-543.02 2200.65,-542.64 2198.1,-536.12"/>
</a>
</g>
</g>
<!-- Node2&#45;&gt;Node1 -->
<g id="edge41_Node000001_Node000002" class="edge">
<title>Node2&#45;&gt;Node1</title>
<g id="a_edge41_Node000001_Node000002"><a xlink:title=" ">
<path fill="none" stroke="#63b8ff" d="M2221.03,-546.9C2259.35,-535.57 2309.69,-519.02 2354.25,-504.25 2369.45,-499.21 2386.52,-493.51 2399.86,-487.95"/>
<polygon fill="#63b8ff" stroke="#63b8ff" points="2220.13,-543.52 2211.51,-549.68 2222.09,-550.24 2220.13,-543.52"/>
</a>
</g>
</g>
<!-- Node3 -->
<g id="Node000003" class="node">
<title>Node3</title>
<g id="a_Node000003"><a xlink:href="classdunedaq_1_1confmodel_1_1ResourceBase.html" target="_top" xlink:title=" ">
<polygon fill="white" stroke="#666666" points="1864.25,-595.5 1762,-595.5 1762,-565 1864.25,-565 1864.25,-595.5"/>
<text text-anchor="start" x="1770" y="-582" font-family="Helvetica,sans-Serif" font-size="10.00">dunedaq::confmodel</text>
<text text-anchor="middle" x="1813.12" y="-570.75" font-family="Helvetica,sans-Serif" font-size="10.00">::ResourceBase</text>
</a>
</g>
</g>
<!-- Node3&#45;&gt;Node2 -->
<g id="edge2_Node000002_Node000003" class="edge">
<title>Node3&#45;&gt;Node2</title>
<g id="a_edge2_Node000002_Node000003"><a xlink:title=" ">
<path fill="none" stroke="#63b8ff" d="M1875.52,-571.18C1941.65,-565.11 2045.63,-558.88 2107.17,-557.39"/>
<polygon fill="#63b8ff" stroke="#63b8ff" points="1875.57,-567.66 1865.95,-572.09 1876.23,-574.63 1875.57,-567.66"/>
</a>
</g>
</g>
<!-- Node3&#45;&gt;Node2 -->
<g id="edge23_Node000002_Node000003" class="edge">
<title>Node3&#45;&gt;Node2</title>
<g id="a_edge23_Node000002_Node000003"><a xlink:title=" ">
<path fill="none" stroke="#63b8ff" d="M1875.93,-581.8C1942.08,-579.77 2045.76,-573.31 2107.17,-567.28"/>
<polygon fill="#63b8ff" stroke="#63b8ff" points="1875.85,-578.3 1865.95,-582.07 1876.05,-585.3 1875.85,-578.3"/>
</a>
</g>
</g>
<!-- Node4 -->
<g id="Node000004" class="node">
<title>Node4</title>
<g id="a_Node000004"><a xlink:href="classdunedaq_1_1confmodel_1_1Component.html" target="_top" xlink:title=" ">
<polygon fill="white" stroke="#666666" points="1649.5,-595.5 1547.25,-595.5 1547.25,-565 1649.5,-565 1649.5,-595.5"/>
<text text-anchor="start" x="1555.25" y="-582" font-family="Helvetica,sans-Serif" font-size="10.00">dunedaq::confmodel</text>
<text text-anchor="middle" x="1598.38" y="-570.75" font-family="Helvetica,sans-Serif" font-size="10.00">::Component</text>
</a>
</g>
</g>
<!-- Node4&#45;&gt;Node3 -->
<g id="edge3_Node000003_Node000004" class="edge">
<title>Node4&#45;&gt;Node3</title>
<g id="a_edge3_Node000003_Node000004"><a xlink:title=" ">
<path fill="none" stroke="#63b8ff" d="M1661.23,-574.06C1693.15,-573.21 1731.6,-573.33 1761.7,-574.41"/>
<polygon fill="#63b8ff" stroke="#63b8ff" points="1661.19,-570.55 1651.31,-574.36 1661.41,-577.55 1661.19,-570.55"/>
</a>
</g>
</g>
<!-- Node4&#45;&gt;Node3 -->
<g id="edge22_Node000003_Node000004" class="edge">
<title>Node4&#45;&gt;Node3</title>
<g id="a_edge22_Node000003_Node000004"><a xlink:title=" ">
<path fill="none" stroke="#63b8ff" d="M1661.23,-586.44C1693.15,-587.29 1731.6,-587.17 1761.7,-586.09"/>
<polygon fill="#63b8ff" stroke="#63b8ff" points="1661.41,-582.95 1651.31,-586.14 1661.19,-589.95 1661.41,-582.95"/>
</a>
</g>
</g>
<!-- Node5 -->
<g id="Node000005" class="node">
<title>Node5</title>
<g id="a_Node000005"><a xlink:href="classdunedaq_1_1conffwk_1_1DalObject.html" target="_top" xlink:title="The base class for any generated DAL object.">
<polygon fill="white" stroke="#666666" points="1509.5,-305.88 1371.25,-305.88 1371.25,-286.62 1509.5,-286.62 1509.5,-305.88"/>
<text text-anchor="middle" x="1440.38" y="-292.38" font-family="Helvetica,sans-Serif" font-size="10.00">dunedaq::conffwk::DalObject</text>
</a>
</g>
</g>
<!-- Node5&#45;&gt;Node4 -->
<g id="edge4_Node000004_Node000005" class="edge">
<title>Node5&#45;&gt;Node4</title>
<g id="a_edge4_Node000004_Node000005"><a xlink:title=" ">
<path fill="none" stroke="#63b8ff" d="M1443.24,-317.63C1448.18,-364.51 1465.82,-476.25 1527.5,-542.25 1537.27,-552.71 1551.39,-559.52 1564.38,-564.59"/>
<polygon fill="#63b8ff" stroke="#63b8ff" points="1446.73,-317.35 1442.3,-307.72 1439.76,-318.01 1446.73,-317.35"/>
</a>
</g>
</g>
<!-- Node5&#45;&gt;Node4 -->
<g id="edge21_Node000004_Node000005" class="edge">
<title>Node5&#45;&gt;Node4</title>
<g id="a_edge21_Node000004_Node000005"><a xlink:title=" ">
<path fill="none" stroke="#63b8ff" d="M1442.4,-317.52C1445.98,-367.04 1461.61,-489.74 1527.5,-560.25 1532.97,-566.1 1539.8,-570.81 1547.03,-574.47"/>
<polygon fill="#63b8ff" stroke="#63b8ff" points="1445.91,-317.61 1441.81,-307.84 1438.92,-318.04 1445.91,-317.61"/>
</a>
</g>
</g>
<!-- Node21 -->
<g id="Node000021" class="node">
<title>Node21</title>
<g id="a_Node000021"><a xlink:href="classdunedaq_1_1confmodel_1_1Application.html" target="_top" xlink:title=" ">
<polygon fill="white" stroke="#666666" points="2088.75,-487.5 1986.5,-487.5 1986.5,-457 2088.75,-457 2088.75,-487.5"/>
<text text-anchor="start" x="1994.5" y="-474" font-family="Helvetica,sans-Serif" font-size="10.00">dunedaq::confmodel</text>
<text text-anchor="middle" x="2037.62" y="-462.75" font-family="Helvetica,sans-Serif" font-size="10.00">::Application</text>
</a>
</g>
</g>
<!-- Node5&#45;&gt;Node21 -->
<g id="edge26_Node000021_Node000005" class="edge">
<title>Node5&#45;&gt;Node21</title>
<g id="a_edge26_Node000021_Node000005"><a xlink:title=" ">
<path fill="none" stroke="#63b8ff" d="M1447.86,-317.11C1459.65,-355.65 1488.89,-436.46 1546.5,-474.25 1683.32,-563.99 1891.06,-512.74 1986.04,-485.46"/>
<polygon fill="#63b8ff" stroke="#63b8ff" points="1451.25,-316.24 1445.06,-307.65 1444.54,-318.23 1451.25,-316.24"/>
</a>
</g>
</g>
<!-- Node5&#45;&gt;Node21 -->
<g id="edge27_Node000021_Node000005" class="edge">
<title>Node5&#45;&gt;Node21</title>
<g id="a_edge27_Node000021_Node000005"><a xlink:title=" ">
<path fill="none" stroke="#63b8ff" d="M1445.09,-317.01C1454.62,-358.76 1483.71,-451.07 1546.5,-492.25 1694.18,-589.11 1924.46,-521.72 2006.42,-487.92"/>
<polygon fill="#63b8ff" stroke="#63b8ff" points="1448.57,-316.55 1443.1,-307.48 1441.72,-317.99 1448.57,-316.55"/>
</a>
</g>
</g>
<!-- Node22 -->
<g id="Node000022" class="node">
<title>Node22</title>
<g id="a_Node000022"><a xlink:href="classdunedaq_1_1confmodel_1_1VirtualHost.html" target="_top" xlink:title=" ">
<polygon fill="white" stroke="#666666" points="1864.25,-487.5 1762,-487.5 1762,-457 1864.25,-457 1864.25,-487.5"/>
<text text-anchor="start" x="1770" y="-474" font-family="Helvetica,sans-Serif" font-size="10.00">dunedaq::confmodel</text>
<text text-anchor="middle" x="1813.12" y="-462.75" font-family="Helvetica,sans-Serif" font-size="10.00">::VirtualHost</text>
</a>
</g>
</g>
<!-- Node5&#45;&gt;Node22 -->
<g id="edge29_Node000022_Node000005" class="edge">
<title>Node5&#45;&gt;Node22</title>
<g id="a_edge29_Node000022_Node000005"><a xlink:title=" ">
<path fill="none" stroke="#63b8ff" d="M1451.87,-316.59C1467.08,-348.17 1498.76,-407.34 1546.5,-435.25 1613.05,-474.16 1705.19,-474.34 1761.61,-472.15"/>
<polygon fill="#63b8ff" stroke="#63b8ff" points="1455.1,-315.23 1447.66,-307.69 1448.77,-318.22 1455.1,-315.23"/>
</a>
</g>
</g>
<!-- Node5&#45;&gt;Node22 -->
<g id="edge30_Node000022_Node000005" class="edge">
<title>Node5&#45;&gt;Node22</title>
<g id="a_edge30_Node000022_Node000005"><a xlink:title=" ">
<path fill="none" stroke="#63b8ff" d="M1447.23,-316.73C1459.93,-351.98 1493.21,-422.09 1546.5,-453.25 1613.05,-492.16 1705.19,-492.34 1761.61,-485.22"/>
<polygon fill="#63b8ff" stroke="#63b8ff" points="1450.69,-316.02 1444.2,-307.65 1444.05,-318.24 1450.69,-316.02"/>
</a>
</g>
</g>
<!-- Node23 -->
<g id="Node000023" class="node">
<title>Node23</title>
<g id="a_Node000023"><a xlink:href="classdunedaq_1_1confmodel_1_1PhysicalHost.html" target="_top" xlink:title=" ">
<polygon fill="white" stroke="#666666" points="1649.5,-435.5 1547.25,-435.5 1547.25,-405 1649.5,-405 1649.5,-435.5"/>
<text text-anchor="start" x="1555.25" y="-422" font-family="Helvetica,sans-Serif" font-size="10.00">dunedaq::confmodel</text>
<text text-anchor="middle" x="1598.38" y="-410.75" font-family="Helvetica,sans-Serif" font-size="10.00">::PhysicalHost</text>
</a>
</g>
</g>
<!-- Node5&#45;&gt;Node23 -->
<g id="edge32_Node000023_Node000005" class="edge">
<title>Node5&#45;&gt;Node23</title>
<g id="a_edge32_Node000023_Node000005"><a xlink:title=" ">
<path fill="none" stroke="#63b8ff" d="M1463.65,-313.96C1483.81,-333.53 1515.09,-364.48 1546.5,-386.25 1556.53,-393.2 1568.78,-399.28 1578.75,-404.73"/>
<polygon fill="#63b8ff" stroke="#63b8ff" points="1466.18,-311.54 1456.55,-307.13 1461.33,-316.59 1466.18,-311.54"/>
</a>
</g>
</g>
<!-- Node5&#45;&gt;Node23 -->
<g id="edge33_Node000023_Node000005" class="edge">
<title>Node5&#45;&gt;Node23</title>
<g id="a_edge33_Node000023_Node000005"><a xlink:title=" ">
<path fill="none" stroke="#63b8ff" d="M1452.98,-315.19C1471.33,-338.81 1508.82,-378.13 1546.5,-404.25 1546.66,-404.36 1546.82,-404.47 1546.99,-404.59"/>
<polygon fill="#63b8ff" stroke="#63b8ff" points="1455.97,-313.35 1447.24,-307.34 1450.32,-317.48 1455.97,-313.35"/>
</a>
</g>
</g>
<!-- Node24 -->
<g id="Node000024" class="node">
<title>Node24</title>
<g id="a_Node000024"><a xlink:href="classdunedaq_1_1confmodel_1_1OpMonConf.html" target="_top" xlink:title=" ">
<polygon fill="white" stroke="#666666" points="1649.5,-386.5 1547.25,-386.5 1547.25,-356 1649.5,-356 1649.5,-386.5"/>
<text text-anchor="start" x="1555.25" y="-373" font-family="Helvetica,sans-Serif" font-size="10.00">dunedaq::confmodel</text>
<text text-anchor="middle" x="1598.38" y="-361.75" font-family="Helvetica,sans-Serif" font-size="10.00">::OpMonConf</text>
</a>
</g>
</g>
<!-- Node5&#45;&gt;Node24 -->
<g id="edge35_Node000024_Node000005" class="edge">
<title>Node5&#45;&gt;Node24</title>
<g id="a_edge35_Node000024_Node000005"><a xlink:title=" ">
<path fill="none" stroke="#63b8ff" d="M1484.51,-310.88C1513.95,-323.88 1551.75,-342.46 1575.26,-355.74"/>
<polygon fill="#63b8ff" stroke="#63b8ff" points="1486.03,-307.72 1475.47,-306.96 1483.25,-314.15 1486.03,-307.72"/>
</a>
</g>
</g>
<!-- Node5&#45;&gt;Node24 -->
<g id="edge36_Node000024_Node000005" class="edge">
<title>Node5&#45;&gt;Node24</title>
<g id="a_edge36_Node000024_Node000005"><a xlink:title=" ">
<path fill="none" stroke="#63b8ff" d="M1463.95,-312.02C1486.86,-324.93 1522.97,-342.71 1551.84,-355.56"/>
<polygon fill="#63b8ff" stroke="#63b8ff" points="1465.85,-309.08 1455.45,-307.06 1462.32,-315.12 1465.85,-309.08"/>
</a>
</g>
</g>
<!-- Node25 -->
<g id="Node000025" class="node">
<title>Node25</title>
<g id="a_Node000025"><a xlink:href="classdunedaq_1_1appmodel_1_1SourceIDConf.html" target="_top" xlink:title=" ">
<polygon fill="white" stroke="#666666" points="1650.25,-337.5 1546.5,-337.5 1546.5,-307 1650.25,-307 1650.25,-337.5"/>
<text text-anchor="start" x="1554.5" y="-324" font-family="Helvetica,sans-Serif" font-size="10.00">dunedaq::appmodel::</text>
<text text-anchor="middle" x="1598.38" y="-312.75" font-family="Helvetica,sans-Serif" font-size="10.00">SourceIDConf</text>
</a>
</g>
</g>
<!-- Node5&#45;&gt;Node25 -->
<g id="edge39_Node000025_Node000005" class="edge">
<title>Node5&#45;&gt;Node25</title>
<g id="a_edge39_Node000025_Node000005"><a xlink:title=" ">
<path fill="none" stroke="#63b8ff" d="M1521.08,-302.79C1529.67,-304.23 1538.24,-305.78 1546.36,-307.37"/>
<polygon fill="#63b8ff" stroke="#63b8ff" points="1521.73,-299.34 1511.29,-301.19 1520.6,-306.25 1521.73,-299.34"/>
</a>
</g>
</g>
<!-- Node5&#45;&gt;Node25 -->
<g id="edge40_Node000025_Node000005" class="edge">
<title>Node5&#45;&gt;Node25</title>
<g id="a_edge40_Node000025_Node000005"><a xlink:title=" ">
<path fill="none" stroke="#63b8ff" d="M1480.76,-308.77C1500.64,-312.97 1525,-317.18 1546.31,-320.12"/>
<polygon fill="#63b8ff" stroke="#63b8ff" points="1481.62,-305.37 1471.1,-306.63 1480.11,-312.21 1481.62,-305.37"/>
</a>
</g>
</g>
<!-- Node26 -->
<g id="Node000026" class="node">
<title>Node26</title>
<g id="a_Node000026"><a xlink:href="classdunedaq_1_1appmodel_1_1DataHandlerConf.html" target="_top" xlink:title=" ">
<polygon fill="white" stroke="#666666" points="2089.5,-257.5 1985.75,-257.5 1985.75,-227 2089.5,-227 2089.5,-257.5"/>
<text text-anchor="start" x="1993.75" y="-244" font-family="Helvetica,sans-Serif" font-size="10.00">dunedaq::appmodel::</text>
<text text-anchor="middle" x="2037.62" y="-232.75" font-family="Helvetica,sans-Serif" font-size="10.00">DataHandlerConf</text>
</a>
</g>
</g>
<!-- Node5&#45;&gt;Node26 -->
<g id="edge44_Node000026_Node000005" class="edge">
<title>Node5&#45;&gt;Node26</title>
<g id="a_edge44_Node000026_Node000005"><a xlink:title=" ">
<path fill="none" stroke="#63b8ff" d="M1515.93,-284.83C1638.62,-270.7 1879.98,-249.03 1985.37,-242.9"/>
<polygon fill="#63b8ff" stroke="#63b8ff" points="1515.82,-281.32 1506.3,-285.96 1516.64,-288.27 1515.82,-281.32"/>
</a>
</g>
</g>
<!-- Node5&#45;&gt;Node26 -->
<g id="edge45_Node000026_Node000005" class="edge">
<title>Node5&#45;&gt;Node26</title>
<g id="a_edge45_Node000026_Node000005"><a xlink:title=" ">
<path fill="none" stroke="#63b8ff" d="M1521.26,-293.78C1645.58,-285.37 1881.85,-263.68 1985.6,-250.87"/>
<polygon fill="#63b8ff" stroke="#63b8ff" points="1521.21,-290.28 1511.46,-294.43 1521.67,-297.26 1521.21,-290.28"/>
</a>
</g>
</g>
<!-- Node27 -->
<g id="Node000027" class="node">
<title>Node27</title>
<g id="a_Node000027"><a xlink:href="classdunedaq_1_1appmodel_1_1RequestHandler.html" target="_top" xlink:title=" ">
<polygon fill="white" stroke="#666666" points="1865,-229.5 1761.25,-229.5 1761.25,-199 1865,-199 1865,-229.5"/>
<text text-anchor="start" x="1769.25" y="-216" font-family="Helvetica,sans-Serif" font-size="10.00">dunedaq::appmodel::</text>
<text text-anchor="middle" x="1813.12" y="-204.75" font-family="Helvetica,sans-Serif" font-size="10.00">RequestHandler</text>
</a>
</g>
</g>
<!-- Node5&#45;&gt;Node27 -->
<g id="edge47_Node000027_Node000005" class="edge">
<title>Node5&#45;&gt;Node27</title>
<g id="a_edge47_Node000027_Node000005"><a xlink:title=" ">
<path fill="none" stroke="#63b8ff" d="M1456.41,-278.54C1472.94,-264.63 1500.71,-247.02 1527.5,-238.25 1606.22,-212.48 1702.94,-206.27 1760.95,-207.56"/>
<polygon fill="#63b8ff" stroke="#63b8ff" points="1454.18,-275.84 1449.18,-285.18 1458.91,-280.99 1454.18,-275.84"/>
</a>
</g>
</g>
<!-- Node5&#45;&gt;Node27 -->
<g id="edge48_Node000027_Node000005" class="edge">
<title>Node5&#45;&gt;Node27</title>
<g id="a_edge48_Node000027_Node000005"><a xlink:title=" ">
<path fill="none" stroke="#63b8ff" d="M1476.04,-280.57C1491.19,-271.96 1509.57,-262.12 1527.5,-256.25 1606.22,-230.48 1702.94,-224.27 1760.95,-220.61"/>
<polygon fill="#63b8ff" stroke="#63b8ff" points="1474.35,-277.51 1467.43,-285.53 1477.84,-283.58 1474.35,-277.51"/>
</a>
</g>
</g>
<!-- Node28 -->
<g id="Node000028" class="node">
<title>Node28</title>
<g id="a_Node000028"><a xlink:href="classdunedaq_1_1appmodel_1_1DataRecorderConf.html" target="_top" xlink:title=" ">
<polygon fill="white" stroke="#666666" points="1650.25,-177.5 1546.5,-177.5 1546.5,-147 1650.25,-147 1650.25,-177.5"/>
<text text-anchor="start" x="1554.5" y="-164" font-family="Helvetica,sans-Serif" font-size="10.00">dunedaq::appmodel::</text>
<text text-anchor="middle" x="1598.38" y="-152.75" font-family="Helvetica,sans-Serif" font-size="10.00">DataRecorderConf</text>
</a>
</g>
</g>
<!-- Node5&#45;&gt;Node28 -->
<g id="edge50_Node000028_Node000005" class="edge">
<title>Node5&#45;&gt;Node28</title>
<g id="a_edge50_Node000028_Node000005"><a xlink:title=" ">
<path fill="none" stroke="#63b8ff" d="M1450.03,-276.23C1463.92,-251.02 1493.16,-208.94 1527.5,-183.25 1533.21,-178.98 1539.62,-175.18 1546.18,-171.92"/>
<polygon fill="#63b8ff" stroke="#63b8ff" points="1447.05,-274.37 1445.59,-284.86 1453.28,-277.57 1447.05,-274.37"/>
</a>
</g>
</g>
<!-- Node5&#45;&gt;Node28 -->
<g id="edge51_Node000028_Node000005" class="edge">
<title>Node5&#45;&gt;Node28</title>
<g id="a_edge51_Node000028_Node000005"><a xlink:title=" ">
<path fill="none" stroke="#63b8ff" d="M1457.57,-277.43C1473.12,-256.35 1498.49,-222.95 1527.5,-201.25 1540.71,-191.36 1557.68,-183.98 1571.59,-177.96"/>
<polygon fill="#63b8ff" stroke="#63b8ff" points="1454.95,-275.08 1451.84,-285.21 1460.59,-279.24 1454.95,-275.08"/>
</a>
</g>
</g>
<!-- Node29 -->
<g id="Node000029" class="node">
<title>Node29</title>
<g id="a_Node000029"><a xlink:href="classdunedaq_1_1appmodel_1_1LatencyBuffer.html" target="_top" xlink:title=" ">
<polygon fill="white" stroke="#666666" points="1650.25,-128.5 1546.5,-128.5 1546.5,-98 1650.25,-98 1650.25,-128.5"/>
<text text-anchor="start" x="1554.5" y="-115" font-family="Helvetica,sans-Serif" font-size="10.00">dunedaq::appmodel::</text>
<text text-anchor="middle" x="1598.38" y="-103.75" font-family="Helvetica,sans-Serif" font-size="10.00">LatencyBuffer</text>
</a>
</g>
</g>
<!-- Node5&#45;&gt;Node29 -->
<g id="edge53_Node000029_Node000005" class="edge">
<title>Node5&#45;&gt;Node29</title>
<g id="a_edge53_Node000029_Node000005"><a xlink:title=" ">
<path fill="none" stroke="#63b8ff" d="M1448.22,-275.79C1462.51,-241.09 1498.22,-171.62 1546.5,-129.25 1546.65,-129.12 1546.8,-128.99 1546.95,-128.86"/>
<polygon fill="#63b8ff" stroke="#63b8ff" points="1445.11,-274.13 1444.76,-284.72 1451.63,-276.66 1445.11,-274.13"/>
</a>
</g>
</g>
<!-- Node5&#45;&gt;Node29 -->
<g id="edge54_Node000029_Node000005" class="edge">
<title>Node5&#45;&gt;Node29</title>
<g id="a_edge54_Node000029_Node000005"><a xlink:title=" ">
<path fill="none" stroke="#63b8ff" d="M1453.4,-276.12C1470.12,-244.85 1503.27,-185.18 1546.5,-147.25 1555.08,-139.72 1566.33,-133.88 1576.07,-128.91"/>
<polygon fill="#63b8ff" stroke="#63b8ff" points="1450.32,-274.45 1448.7,-284.92 1456.5,-277.75 1450.32,-274.45"/>
</a>
</g>
</g>
<!-- Node30 -->
<g id="Node000030" class="node">
<title>Node30</title>
<g id="a_Node000030"><a xlink:href="classdunedaq_1_1appmodel_1_1DataProcessor.html" target="_top" xlink:title=" ">
<polygon fill="white" stroke="#666666" points="1650.25,-79.5 1546.5,-79.5 1546.5,-49 1650.25,-49 1650.25,-79.5"/>
<text text-anchor="start" x="1554.5" y="-66" font-family="Helvetica,sans-Serif" font-size="10.00">dunedaq::appmodel::</text>
<text text-anchor="middle" x="1598.38" y="-54.75" font-family="Helvetica,sans-Serif" font-size="10.00">DataProcessor</text>
</a>
</g>
</g>
<!-- Node5&#45;&gt;Node30 -->
<g id="edge56_Node000030_Node000005" class="edge">
<title>Node5&#45;&gt;Node30</title>
<g id="a_edge56_Node000030_Node000005"><a xlink:title=" ">
<path fill="none" stroke="#63b8ff" d="M1445.76,-275.32C1456.72,-232.9 1488.66,-137.33 1546.5,-80.25 1546.64,-80.11 1546.78,-79.97 1546.92,-79.84"/>
<polygon fill="#63b8ff" stroke="#63b8ff" points="1442.37,-274.45 1443.43,-284.99 1449.18,-276.09 1442.37,-274.45"/>
</a>
</g>
</g>
<!-- Node5&#45;&gt;Node30 -->
<g id="edge57_Node000030_Node000005" class="edge">
<title>Node5&#45;&gt;Node30</title>
<g id="a_edge57_Node000030_Node000005"><a xlink:title=" ">
<path fill="none" stroke="#63b8ff" d="M1448.82,-275.25C1462.03,-235.75 1493.32,-150.74 1546.5,-98.25 1554.35,-90.51 1565.06,-84.75 1574.64,-79.98"/>
<polygon fill="#63b8ff" stroke="#63b8ff" points="1445.5,-274.14 1445.7,-284.73 1452.15,-276.32 1445.5,-274.14"/>
</a>
</g>
</g>
<!-- Node31 -->
<g id="Node000031" class="node">
<title>Node31</title>
<g id="a_Node000031"><a xlink:href="classdunedaq_1_1appmodel_1_1HSIReadoutConf.html" target="_top" xlink:title=" ">
<polygon fill="white" stroke="#666666" points="1650.25,-30.5 1546.5,-30.5 1546.5,0 1650.25,0 1650.25,-30.5"/>
<text text-anchor="start" x="1554.5" y="-17" font-family="Helvetica,sans-Serif" font-size="10.00">dunedaq::appmodel::</text>
<text text-anchor="middle" x="1598.38" y="-5.75" font-family="Helvetica,sans-Serif" font-size="10.00">HSIReadoutConf</text>
</a>
</g>
</g>
<!-- Node5&#45;&gt;Node31 -->
<g id="edge59_Node000031_Node000005" class="edge">
<title>Node5&#45;&gt;Node31</title>
<g id="a_edge59_Node000031_Node000005"><a xlink:title=" ">
<path fill="none" stroke="#63b8ff" d="M1444.04,-275.11C1451.89,-225.87 1478.73,-103.73 1546.5,-31.25 1546.63,-31.11 1546.77,-30.96 1546.91,-30.82"/>
<polygon fill="#63b8ff" stroke="#63b8ff" points="1440.62,-274.32 1442.63,-284.73 1447.55,-275.34 1440.62,-274.32"/>
</a>
</g>
</g>
<!-- Node5&#45;&gt;Node31 -->
<g id="edge60_Node000031_Node000005" class="edge">
<title>Node5&#45;&gt;Node31</title>
<g id="a_edge60_Node000031_Node000005"><a xlink:title=" ">
<path fill="none" stroke="#63b8ff" d="M1445.79,-275.02C1455.5,-228.41 1483.08,-117.08 1546.5,-49.25 1553.89,-41.34 1564.33,-35.62 1573.82,-30.94"/>
<polygon fill="#63b8ff" stroke="#63b8ff" points="1442.4,-274.15 1443.86,-284.64 1449.26,-275.53 1442.4,-274.15"/>
</a>
</g>
</g>
<!-- Node6 -->
<g id="Node000006" class="node">
<title>Node6</title>
<g id="a_Node000006"><a xlink:href="classdunedaq_1_1conffwk_1_1Configuration.html" target="_top" xlink:title=" ">
<polygon fill="white" stroke="#666666" points="644.5,-305.88 492.75,-305.88 492.75,-286.62 644.5,-286.62 644.5,-305.88"/>
<text text-anchor="middle" x="568.62" y="-292.38" font-family="Helvetica,sans-Serif" font-size="10.00">dunedaq::conffwk::Configuration</text>
</a>
</g>
</g>
<!-- Node6&#45;&gt;Node5 -->
<g id="edge5_Node000005_Node000006" class="edge">
<title>Node6&#45;&gt;Node5</title>
<g id="a_edge5_Node000005_Node000006"><a xlink:title=" ">
<path fill="none" stroke="#9a32cd" stroke-dasharray="5,2" d="M656.09,-288.5C708.88,-284.42 777.79,-280.25 839,-280.25 839,-280.25 839,-280.25 1249.5,-280.25 1289.86,-280.25 1334.87,-283.88 1370.94,-287.69"/>
<polygon fill="#9a32cd" stroke="#9a32cd" points="655.94,-285 646.25,-289.28 656.49,-291.98 655.94,-285"/>
</a>
</g>
<text text-anchor="middle" x="1056.25" y="-282" font-family="Helvetica,sans-Serif" font-size="10.00" fill="grey"> p_db</text>
</g>
<!-- Node15 -->
<g id="Node000015" class="node">
<title>Node15</title>
<g id="a_Node000015"><a xlink:href="classdunedaq_1_1conffwk_1_1ConfigurationImpl.html" target="_top" xlink:title="Provides pure virtual interface used by the Configuration class.">
<polygon fill="white" stroke="#666666" points="925.25,-353.88 754.75,-353.88 754.75,-334.62 925.25,-334.62 925.25,-353.88"/>
<text text-anchor="middle" x="840" y="-340.38" font-family="Helvetica,sans-Serif" font-size="10.00">dunedaq::conffwk::ConfigurationImpl</text>
</a>
</g>
</g>
<!-- Node6&#45;&gt;Node15 -->
<g id="edge17_Node000015_Node000006" class="edge">
<title>Node6&#45;&gt;Node15</title>
<g id="a_edge17_Node000015_Node000006"><a xlink:title=" ">
<path fill="none" stroke="#9a32cd" stroke-dasharray="5,2" d="M608.91,-309.81C626.29,-315.35 647.1,-321.36 666.25,-325.25 694.78,-331.05 726.35,-335.18 754.61,-338.07"/>
<polygon fill="#9a32cd" stroke="#9a32cd" points="610.06,-306.5 599.47,-306.73 607.89,-313.16 610.06,-306.5"/>
</a>
</g>
<text text-anchor="middle" x="701.5" y="-337" font-family="Helvetica,sans-Serif" font-size="10.00" fill="grey"> m_conf</text>
</g>
<!-- Node7 -->
<g id="Node000007" class="node">
<title>Node7</title>
<g id="a_Node000007"><a xlink:href="classdunedaq_1_1conffwk_1_1map.html" target="_top" xlink:title=" ">
<polygon fill="white" stroke="#666666" points="355.88,-360.5 206.38,-360.5 206.38,-330 355.88,-330 355.88,-360.5"/>
<text text-anchor="start" x="214.38" y="-347" font-family="Helvetica,sans-Serif" font-size="10.00">dunedaq::conffwk::map</text>
<text text-anchor="middle" x="281.12" y="-335.75" font-family="Helvetica,sans-Serif" font-size="10.00">&lt; dunedaq::conffwk::class_t * &gt;</text>
</a>
</g>
</g>
<!-- Node7&#45;&gt;Node6 -->
<g id="edge6_Node000006_Node000007" class="edge">
<title>Node7&#45;&gt;Node6</title>
<g id="a_edge6_Node000006_Node000007"><a xlink:title=" ">
<path fill="none" stroke="#9a32cd" stroke-dasharray="5,2" d="M367.37,-337.46C399.95,-333.81 437.35,-328.79 471,-322.25 492.49,-318.07 516.23,-311.71 534.8,-306.32"/>
<polygon fill="#9a32cd" stroke="#9a32cd" points="367.12,-333.97 357.56,-338.53 367.88,-340.93 367.12,-333.97"/>
</a>
</g>
<text text-anchor="start" x="383.25" y="-370.75" font-family="Helvetica,sans-Serif" font-size="10.00" fill="grey"> p_all_classes_desc</text>
<text text-anchor="middle" x="427.12" y="-359.5" font-family="Helvetica,sans-Serif" font-size="10.00" fill="grey">_cache</text>
<text text-anchor="start" x="383.25" y="-348.25" font-family="Helvetica,sans-Serif" font-size="10.00" fill="grey">p_direct_classes</text>
<text text-anchor="middle" x="427.12" y="-337" font-family="Helvetica,sans-Serif" font-size="10.00" fill="grey">_desc_cache</text>
</g>
<!-- Node8 -->
<g id="Node000008" class="node">
<title>Node8</title>
<g id="a_Node000008"><a xlink:title=" ">
<polygon fill="white" stroke="#666666" points="134.12,-388.12 25.88,-388.12 25.88,-346.38 134.12,-346.38 134.12,-388.12"/>
<text text-anchor="start" x="33.88" y="-374.62" font-family="Helvetica,sans-Serif" font-size="10.00">std::unordered_map</text>
<text text-anchor="start" x="33.88" y="-363.38" font-family="Helvetica,sans-Serif" font-size="10.00">&lt; std::string, dunedaq</text>
<text text-anchor="middle" x="80" y="-352.12" font-family="Helvetica,sans-Serif" font-size="10.00">::conffwk::class_t * &gt;</text>
</a>
</g>
</g>
<!-- Node8&#45;&gt;Node7 -->
<g id="edge7_Node000007_Node000008" class="edge">
<title>Node8&#45;&gt;Node7</title>
<g id="a_edge7_Node000007_Node000008"><a xlink:title=" ">
<path fill="none" stroke="#63b8ff" d="M146.01,-360.07C165.25,-357.94 186.45,-355.6 206.21,-353.42"/>
<polygon fill="#63b8ff" stroke="#63b8ff" points="145.68,-356.58 136.13,-361.16 146.45,-363.54 145.68,-356.58"/>
</a>
</g>
</g>
<!-- Node9 -->
<g id="Node000009" class="node">
<title>Node9</title>
<g id="a_Node000009"><a xlink:href="classdunedaq_1_1conffwk_1_1fmap.html" target="_top" xlink:title=" ">
<polygon fill="white" stroke="#666666" points="339.75,-311.5 222.5,-311.5 222.5,-281 339.75,-281 339.75,-311.5"/>
<text text-anchor="start" x="230.5" y="-298" font-family="Helvetica,sans-Serif" font-size="10.00">dunedaq::conffwk::fmap</text>
<text text-anchor="middle" x="281.12" y="-286.75" font-family="Helvetica,sans-Serif" font-size="10.00">&lt; conffwk::fset &gt;</text>
</a>
</g>
</g>
<!-- Node9&#45;&gt;Node6 -->
<g id="edge8_Node000006_Node000009" class="edge">
<title>Node9&#45;&gt;Node6</title>
<g id="a_edge8_Node000006_Node000009"><a xlink:title=" ">
<path fill="none" stroke="#9a32cd" stroke-dasharray="5,2" d="M351.65,-296.25C394.28,-296.25 448.86,-296.25 492.49,-296.25"/>
<polygon fill="#9a32cd" stroke="#9a32cd" points="351.76,-292.75 341.76,-296.25 351.76,-299.75 351.76,-292.75"/>
</a>
</g>
<text text-anchor="middle" x="427.12" y="-309.25" font-family="Helvetica,sans-Serif" font-size="10.00" fill="grey"> p_subclasses</text>
<text text-anchor="middle" x="427.12" y="-298" font-family="Helvetica,sans-Serif" font-size="10.00" fill="grey">p_superclasses</text>
</g>
<!-- Node10 -->
<g id="Node000010" class="node">
<title>Node10</title>
<g id="a_Node000010"><a xlink:title=" ">
<polygon fill="white" stroke="#666666" points="136.75,-328.75 23.25,-328.75 23.25,-275.75 136.75,-275.75 136.75,-328.75"/>
<text text-anchor="start" x="31.25" y="-315.25" font-family="Helvetica,sans-Serif" font-size="10.00">std::unordered_map</text>
<text text-anchor="start" x="31.25" y="-304" font-family="Helvetica,sans-Serif" font-size="10.00">&lt; const std::string</text>
<text text-anchor="start" x="31.25" y="-292.75" font-family="Helvetica,sans-Serif" font-size="10.00"> *, conffwk::fset , string</text>
<text text-anchor="middle" x="80" y="-281.5" font-family="Helvetica,sans-Serif" font-size="10.00">_ptr_hash &gt;</text>
</a>
</g>
</g>
<!-- Node10&#45;&gt;Node9 -->
<g id="edge9_Node000009_Node000010" class="edge">
<title>Node10&#45;&gt;Node9</title>
<g id="a_edge9_Node000009_Node000010"><a xlink:title=" ">
<path fill="none" stroke="#63b8ff" d="M148.49,-300.22C172.4,-299.5 199.07,-298.69 222.12,-298"/>
<polygon fill="#63b8ff" stroke="#63b8ff" points="148.4,-296.72 138.51,-300.52 148.61,-303.71 148.4,-296.72"/>
</a>
</g>
</g>
<!-- Node11 -->
<g id="Node000011" class="node">
<title>Node11</title>
<g id="a_Node000011"><a xlink:href="classdunedaq_1_1conffwk_1_1map.html" target="_top" xlink:title=" ">
<polygon fill="white" stroke="#666666" points="342,-260.38 220.25,-260.38 220.25,-196.12 342,-196.12 342,-260.38"/>
<text text-anchor="start" x="228.25" y="-246.88" font-family="Helvetica,sans-Serif" font-size="10.00">dunedaq::conffwk::map</text>
<text text-anchor="start" x="228.25" y="-235.62" font-family="Helvetica,sans-Serif" font-size="10.00">&lt; std::list&lt; dunedaq</text>
<text text-anchor="start" x="228.25" y="-224.38" font-family="Helvetica,sans-Serif" font-size="10.00">::conffwk::Configuration</text>
<text text-anchor="start" x="228.25" y="-213.12" font-family="Helvetica,sans-Serif" font-size="10.00">::AttributeConverterBase</text>
<text text-anchor="middle" x="281.12" y="-201.88" font-family="Helvetica,sans-Serif" font-size="10.00"> * &gt; * &gt;</text>
</a>
</g>
</g>
<!-- Node11&#45;&gt;Node6 -->
<g id="edge10_Node000006_Node000011" class="edge">
<title>Node11&#45;&gt;Node6</title>
<g id="a_edge10_Node000006_Node000011"><a xlink:title=" ">
<path fill="none" stroke="#9a32cd" stroke-dasharray="5,2" d="M353.25,-245.19C407.46,-258.1 480.26,-275.44 525.55,-286.23"/>
<polygon fill="#9a32cd" stroke="#9a32cd" points="354.33,-241.85 343.8,-242.94 352.71,-248.66 354.33,-241.85"/>
</a>
</g>
<text text-anchor="middle" x="427.12" y="-274" font-family="Helvetica,sans-Serif" font-size="10.00" fill="grey"> m_convert_map</text>
</g>
<!-- Node12 -->
<g id="Node000012" class="node">
<title>Node12</title>
<g id="a_Node000012"><a xlink:title=" ">
<polygon fill="white" stroke="#666666" points="160,-257.38 0,-257.38 0,-193.12 160,-193.12 160,-257.38"/>
<text text-anchor="start" x="8" y="-243.88" font-family="Helvetica,sans-Serif" font-size="10.00">std::unordered_map</text>
<text text-anchor="start" x="8" y="-232.62" font-family="Helvetica,sans-Serif" font-size="10.00">&lt; std::string, std::</text>
<text text-anchor="start" x="8" y="-221.38" font-family="Helvetica,sans-Serif" font-size="10.00">list&lt; dunedaq::conffwk</text>
<text text-anchor="start" x="8" y="-210.12" font-family="Helvetica,sans-Serif" font-size="10.00">::Configuration::AttributeConverter</text>
<text text-anchor="middle" x="80" y="-198.88" font-family="Helvetica,sans-Serif" font-size="10.00">Base * &gt; * &gt;</text>
</a>
</g>
</g>
<!-- Node12&#45;&gt;Node11 -->
<g id="edge11_Node000011_Node000012" class="edge">
<title>Node12&#45;&gt;Node11</title>
<g id="a_edge11_Node000011_Node000012"><a xlink:title=" ">
<path fill="none" stroke="#63b8ff" d="M171.53,-226.61C187.91,-226.86 204.61,-227.11 219.85,-227.34"/>
<polygon fill="#63b8ff" stroke="#63b8ff" points="171.84,-223.12 161.78,-226.47 171.73,-230.12 171.84,-223.12"/>
</a>
</g>
</g>
<!-- Node13 -->
<g id="Node000013" class="node">
<title>Node13</title>
<g id="a_Node000013"><a xlink:href="classdunedaq_1_1conffwk_1_1fmap.html" target="_top" xlink:title=" ">
<polygon fill="white" stroke="#666666" points="365.25,-170.5 197,-170.5 197,-140 365.25,-140 365.25,-170.5"/>
<text text-anchor="start" x="205" y="-157" font-family="Helvetica,sans-Serif" font-size="10.00">dunedaq::conffwk::fmap</text>
<text text-anchor="middle" x="281.12" y="-145.75" font-family="Helvetica,sans-Serif" font-size="10.00">&lt; dunedaq::conffwk::CacheBase * &gt;</text>
</a>
</g>
</g>
<!-- Node13&#45;&gt;Node6 -->
<g id="edge12_Node000006_Node000013" class="edge">
<title>Node13&#45;&gt;Node6</title>
<g id="a_edge12_Node000006_Node000013"><a xlink:title=" ">
<path fill="none" stroke="#9a32cd" stroke-dasharray="5,2" d="M335.34,-175.01C345.34,-178.93 355.66,-183.11 365.25,-187.25 413.11,-207.91 425.12,-213.24 471,-238 500.3,-253.82 533.3,-274.31 552.16,-286.3"/>
<polygon fill="#9a32cd" stroke="#9a32cd" points="336.68,-171.77 326.09,-171.43 334.15,-178.3 336.68,-171.77"/>
</a>
</g>
<text text-anchor="middle" x="427.12" y="-239" font-family="Helvetica,sans-Serif" font-size="10.00" fill="grey"> m_cache_map</text>
</g>
<!-- Node14 -->
<g id="Node000014" class="node">
<title>Node14</title>
<g id="a_Node000014"><a xlink:title=" ">
<polygon fill="white" stroke="#666666" points="133,-175.38 27,-175.38 27,-111.12 133,-111.12 133,-175.38"/>
<text text-anchor="start" x="35" y="-161.88" font-family="Helvetica,sans-Serif" font-size="10.00">std::unordered_map</text>
<text text-anchor="start" x="35" y="-150.62" font-family="Helvetica,sans-Serif" font-size="10.00">&lt; const std::string</text>
<text text-anchor="start" x="35" y="-139.38" font-family="Helvetica,sans-Serif" font-size="10.00"> *, dunedaq::conffwk</text>
<text text-anchor="start" x="35" y="-128.12" font-family="Helvetica,sans-Serif" font-size="10.00">::CacheBase *, string</text>
<text text-anchor="middle" x="80" y="-116.88" font-family="Helvetica,sans-Serif" font-size="10.00">_ptr_hash &gt;</text>
</a>
</g>
</g>
<!-- Node14&#45;&gt;Node13 -->
<g id="edge13_Node000013_Node000014" class="edge">
<title>Node14&#45;&gt;Node13</title>
<g id="a_edge13_Node000013_Node000014"><a xlink:title=" ">
<path fill="none" stroke="#63b8ff" d="M144.51,-147.08C161.06,-148.07 179.16,-149.17 196.58,-150.22"/>
<polygon fill="#63b8ff" stroke="#63b8ff" points="145.02,-143.6 134.83,-146.49 144.6,-150.59 145.02,-143.6"/>
</a>
</g>
</g>
<!-- Node15&#45;&gt;Node6 -->
<g id="edge14_Node000006_Node000015" class="edge">
<title>Node15&#45;&gt;Node6</title>
<g id="a_edge14_Node000006_Node000015"><a xlink:title=" ">
<path fill="none" stroke="#9a32cd" stroke-dasharray="5,2" d="M799.43,-330.72C780.64,-324.76 757.75,-318.18 736.75,-314 706.99,-308.07 673.83,-304.03 644.94,-301.32"/>
<polygon fill="#9a32cd" stroke="#9a32cd" points="798.23,-334.01 808.82,-333.76 800.39,-327.35 798.23,-334.01"/>
</a>
</g>
<text text-anchor="middle" x="701.5" y="-315" font-family="Helvetica,sans-Serif" font-size="10.00" fill="grey"> m_impl</text>
</g>
<!-- Node19 -->
<g id="Node000019" class="node">
<title>Node19</title>
<g id="a_Node000019"><a xlink:href="classdunedaq_1_1conffwk_1_1ConfigObjectImpl.html" target="_top" xlink:title="Implements database objects.">
<polygon fill="white" stroke="#666666" points="1117.5,-351.5 995,-351.5 995,-321 1117.5,-321 1117.5,-351.5"/>
<text text-anchor="start" x="1003" y="-338" font-family="Helvetica,sans-Serif" font-size="10.00">dunedaq::conffwk::Config</text>
<text text-anchor="middle" x="1056.25" y="-326.75" font-family="Helvetica,sans-Serif" font-size="10.00">ObjectImpl</text>
</a>
</g>
</g>
<!-- Node15&#45;&gt;Node19 -->
<g id="edge20_Node000019_Node000015" class="edge">
<title>Node15&#45;&gt;Node19</title>
<g id="a_edge20_Node000019_Node000015"><a xlink:title=" ">
<path fill="none" stroke="#9a32cd" stroke-dasharray="5,2" d="M937.12,-340.66C956.67,-339.93 976.73,-339.18 994.63,-338.51"/>
<polygon fill="#9a32cd" stroke="#9a32cd" points="937.05,-337.16 927.19,-341.03 937.31,-344.16 937.05,-337.16"/>
</a>
</g>
<text text-anchor="middle" x="960.12" y="-342" font-family="Helvetica,sans-Serif" font-size="10.00" fill="grey"> m_impl</text>
</g>
<!-- Node16 -->
<g id="Node000016" class="node">
<title>Node16</title>
<g id="a_Node000016"><a xlink:href="classdunedaq_1_1conffwk_1_1pmap.html" target="_top" xlink:title=" ">
<polygon fill="white" stroke="#666666" points="648.25,-428.75 489,-428.75 489,-375.75 648.25,-375.75 648.25,-428.75"/>
<text text-anchor="start" x="497" y="-415.25" font-family="Helvetica,sans-Serif" font-size="10.00">dunedaq::conffwk::pmap</text>
<text text-anchor="start" x="497" y="-404" font-family="Helvetica,sans-Serif" font-size="10.00">&lt; dunedaq::conffwk::map</text>
<text text-anchor="start" x="497" y="-392.75" font-family="Helvetica,sans-Serif" font-size="10.00">&lt; dunedaq::conffwk::ConfigObject</text>
<text text-anchor="middle" x="568.62" y="-381.5" font-family="Helvetica,sans-Serif" font-size="10.00">Impl * &gt; * &gt;</text>
</a>
</g>
</g>
<!-- Node16&#45;&gt;Node15 -->
<g id="edge15_Node000015_Node000016" class="edge">
<title>Node16&#45;&gt;Node15</title>
<g id="a_edge15_Node000015_Node000016"><a xlink:title=" ">
<path fill="none" stroke="#9a32cd" stroke-dasharray="5,2" d="M659.73,-382.85C704.05,-373.31 755.64,-362.2 792.07,-354.36"/>
<polygon fill="#9a32cd" stroke="#9a32cd" points="659.15,-379.39 650.11,-384.92 660.62,-386.24 659.15,-379.39"/>
</a>
</g>
<text text-anchor="middle" x="701.5" y="-381" font-family="Helvetica,sans-Serif" font-size="10.00" fill="grey"> m_impl_objects</text>
</g>
<!-- Node17 -->
<g id="Node000017" class="node">
<title>Node17</title>
<g id="a_Node000017"><a xlink:title=" ">
<polygon fill="white" stroke="#666666" points="348.75,-442.38 213.5,-442.38 213.5,-378.12 348.75,-378.12 348.75,-442.38"/>
<text text-anchor="start" x="221.5" y="-428.88" font-family="Helvetica,sans-Serif" font-size="10.00">std::map&lt; const std</text>
<text text-anchor="start" x="221.5" y="-417.62" font-family="Helvetica,sans-Serif" font-size="10.00">::string *, dunedaq</text>
<text text-anchor="start" x="221.5" y="-406.38" font-family="Helvetica,sans-Serif" font-size="10.00">::conffwk::map&lt; dunedaq</text>
<text text-anchor="start" x="221.5" y="-395.12" font-family="Helvetica,sans-Serif" font-size="10.00">::conffwk::ConfigObjectImpl</text>
<text text-anchor="middle" x="281.12" y="-383.88" font-family="Helvetica,sans-Serif" font-size="10.00"> * &gt; * , string_ptr_compare &gt;</text>
</a>
</g>
</g>
<!-- Node17&#45;&gt;Node16 -->
<g id="edge16_Node000016_Node000017" class="edge">
<title>Node17&#45;&gt;Node16</title>
<g id="a_edge16_Node000016_Node000017"><a xlink:title=" ">
<path fill="none" stroke="#63b8ff" d="M360.35,-408.06C400.25,-406.94 448.68,-405.58 488.69,-404.46"/>
<polygon fill="#63b8ff" stroke="#63b8ff" points="360.47,-404.55 350.58,-408.33 360.67,-411.55 360.47,-404.55"/>
</a>
</g>
</g>
<!-- Node18 -->
<g id="Node000018" class="node">
<title>Node18</title>
<g id="a_Node000018"><a xlink:href="classdunedaq_1_1conffwk_1_1ConfigObject.html" target="_top" xlink:title="Represents database objects.">
<polygon fill="white" stroke="#666666" points="1309.75,-339.5 1187.25,-339.5 1187.25,-309 1309.75,-309 1309.75,-339.5"/>
<text text-anchor="start" x="1195.25" y="-326" font-family="Helvetica,sans-Serif" font-size="10.00">dunedaq::conffwk::Config</text>
<text text-anchor="middle" x="1248.5" y="-314.75" font-family="Helvetica,sans-Serif" font-size="10.00">Object</text>
</a>
</g>
</g>
<!-- Node18&#45;&gt;Node5 -->
<g id="edge18_Node000005_Node000018" class="edge">
<title>Node18&#45;&gt;Node5</title>
<g id="a_edge18_Node000005_Node000018"><a xlink:title=" ">
<path fill="none" stroke="#9a32cd" stroke-dasharray="5,2" d="M1321.17,-313.68C1337.43,-311.28 1354.65,-308.74 1370.77,-306.37"/>
<polygon fill="#9a32cd" stroke="#9a32cd" points="1320.98,-310.17 1311.6,-315.09 1322,-317.1 1320.98,-310.17"/>
</a>
</g>
<text text-anchor="middle" x="1340.5" y="-313" font-family="Helvetica,sans-Serif" font-size="10.00" fill="grey"> p_obj</text>
</g>
<!-- Node19&#45;&gt;Node18 -->
<g id="edge19_Node000018_Node000019" class="edge">
<title>Node19&#45;&gt;Node18</title>
<g id="a_edge19_Node000018_Node000019"><a xlink:title=" ">
<path fill="none" stroke="#9a32cd" stroke-dasharray="5,2" d="M1129.31,-331.7C1148.34,-330.5 1168.68,-329.22 1187.03,-328.06"/>
<polygon fill="#9a32cd" stroke="#9a32cd" points="1129.24,-328.2 1119.48,-332.32 1129.68,-335.19 1129.24,-328.2"/>
</a>
</g>
<text text-anchor="middle" x="1152.38" y="-332" font-family="Helvetica,sans-Serif" font-size="10.00" fill="grey"> m_impl</text>
</g>
<!-- Node20 -->
<g id="Node000020" class="node">
<title>Node20</title>
<g id="a_Node000020"><a xlink:href="classdunedaq_1_1appmodel_1_1SmartDaqApplication.html" target="_top" xlink:title=" ">
<polygon fill="white" stroke="#666666" points="2335.25,-487.5 2227.75,-487.5 2227.75,-457 2335.25,-457 2335.25,-487.5"/>
<text text-anchor="start" x="2235.75" y="-474" font-family="Helvetica,sans-Serif" font-size="10.00">dunedaq::appmodel::</text>
<text text-anchor="middle" x="2281.5" y="-462.75" font-family="Helvetica,sans-Serif" font-size="10.00">SmartDaqApplication</text>
</a>
</g>
</g>
<!-- Node20&#45;&gt;Node1 -->
<g id="edge24_Node000001_Node000020" class="edge">
<title>Node20&#45;&gt;Node1</title>
<g id="a_edge24_Node000001_Node000020"><a xlink:title=" ">
<path fill="none" stroke="#63b8ff" d="M2347.05,-465.52C2355.49,-465.46 2364.04,-465.53 2372.21,-465.73"/>
<polygon fill="#63b8ff" stroke="#63b8ff" points="2347.13,-462.02 2337.18,-465.66 2347.23,-469.02 2347.13,-462.02"/>
</a>
</g>
</g>
<!-- Node20&#45;&gt;Node1 -->
<g id="edge42_Node000001_Node000020" class="edge">
<title>Node20&#45;&gt;Node1</title>
<g id="a_edge42_Node000001_Node000020"><a xlink:title=" ">
<path fill="none" stroke="#63b8ff" d="M2347.05,-478.98C2355.49,-479.04 2364.04,-478.97 2372.21,-478.77"/>
<polygon fill="#63b8ff" stroke="#63b8ff" points="2347.23,-475.48 2337.18,-478.84 2347.13,-482.48 2347.23,-475.48"/>
</a>
</g>
</g>
<!-- Node21&#45;&gt;Node20 -->
<g id="edge25_Node000020_Node000021" class="edge">
<title>Node21&#45;&gt;Node20</title>
<g id="a_edge25_Node000020_Node000021"><a xlink:title=" ">
<path fill="none" stroke="#63b8ff" d="M2100.34,-466.28C2139.69,-465.15 2190.14,-465.25 2227.64,-466.56"/>
<polygon fill="#63b8ff" stroke="#63b8ff" points="2100.43,-462.77 2090.55,-466.6 2100.66,-469.77 2100.43,-462.77"/>
</a>
</g>
</g>
<!-- Node21&#45;&gt;Node20 -->
<g id="edge37_Node000020_Node000021" class="edge">
<title>Node21&#45;&gt;Node20</title>
<g id="a_edge37_Node000020_Node000021"><a xlink:title=" ">
<path fill="none" stroke="#63b8ff" d="M2100.34,-478.22C2139.69,-479.35 2190.14,-479.25 2227.64,-477.94"/>
<polygon fill="#63b8ff" stroke="#63b8ff" points="2100.66,-474.73 2090.55,-477.9 2100.43,-481.73 2100.66,-474.73"/>
</a>
</g>
</g>
<!-- Node22&#45;&gt;Node21 -->
<g id="edge28_Node000021_Node000022" class="edge">
<title>Node22&#45;&gt;Node21</title>
<g id="a_edge28_Node000021_Node000022"><a xlink:title=" ">
<path fill="none" stroke="#9a32cd" stroke-dasharray="5,2" d="M1876.07,-472.25C1910.84,-472.25 1953.66,-472.25 1986.34,-472.25"/>
<polygon fill="#9a32cd" stroke="#9a32cd" points="1876.13,-468.75 1866.13,-472.25 1876.13,-475.75 1876.13,-468.75"/>
</a>
</g>
<text text-anchor="middle" x="1925.38" y="-474" font-family="Helvetica,sans-Serif" font-size="10.00" fill="grey"> m_runs_on</text>
</g>
<!-- Node23&#45;&gt;Node22 -->
<g id="edge31_Node000022_Node000023" class="edge">
<title>Node23&#45;&gt;Node22</title>
<g id="a_edge31_Node000022_Node000023"><a xlink:title=" ">
<path fill="none" stroke="#9a32cd" stroke-dasharray="5,2" d="M1661,-423.25C1686.82,-425.68 1716.9,-430.08 1743.25,-438 1757.96,-442.42 1773.35,-449.78 1785.84,-456.55"/>
<polygon fill="#9a32cd" stroke="#9a32cd" points="1661.61,-419.79 1651.35,-422.42 1661.01,-426.76 1661.61,-419.79"/>
</a>
</g>
<text text-anchor="middle" x="1705.75" y="-439" font-family="Helvetica,sans-Serif" font-size="10.00" fill="grey"> m_runs_on</text>
</g>
<!-- Node24&#45;&gt;Node21 -->
<g id="edge34_Node000021_Node000024" class="edge">
<title>Node24&#45;&gt;Node21</title>
<g id="a_edge34_Node000021_Node000024"><a xlink:title=" ">
<path fill="none" stroke="#9a32cd" stroke-dasharray="5,2" d="M1661,-385.48C1748.1,-405.6 1905.58,-441.98 1986.16,-460.59"/>
<polygon fill="#9a32cd" stroke="#9a32cd" points="1661.97,-382.12 1651.43,-383.28 1660.39,-388.94 1661.97,-382.12"/>
</a>
</g>
<text text-anchor="middle" x="1813.12" y="-433" font-family="Helvetica,sans-Serif" font-size="10.00" fill="grey"> m_opmon_conf</text>
</g>
<!-- Node25&#45;&gt;Node20 -->
<g id="edge38_Node000020_Node000025" class="edge">
<title>Node25&#45;&gt;Node20</title>
<g id="a_edge38_Node000020_Node000025"><a xlink:title=" ">
<path fill="none" stroke="#9a32cd" stroke-dasharray="5,2" d="M1661.72,-335.98C1794.48,-365.22 2103.09,-433.18 2227.3,-460.53"/>
<polygon fill="#9a32cd" stroke="#9a32cd" points="1662.57,-332.58 1652.05,-333.85 1661.06,-339.42 1662.57,-332.58"/>
</a>
</g>
<text text-anchor="middle" x="1925.38" y="-404" font-family="Helvetica,sans-Serif" font-size="10.00" fill="grey"> m_source_id</text>
</g>
<!-- Node26&#45;&gt;Node1 -->
<g id="edge43_Node000001_Node000026" class="edge">
<title>Node26&#45;&gt;Node1</title>
<g id="a_edge43_Node000001_Node000026"><a xlink:title=" ">
<path fill="none" stroke="#9a32cd" stroke-dasharray="5,2" d="M2094.71,-261.95C2128.92,-274.9 2172.98,-293.3 2209.75,-314.25 2287.45,-358.51 2369.92,-426.43 2405.31,-456.73"/>
<polygon fill="#9a32cd" stroke="#9a32cd" points="2095.98,-258.69 2085.39,-258.47 2093.53,-265.25 2095.98,-258.69"/>
</a>
</g>
<text text-anchor="middle" x="2281.5" y="-401" font-family="Helvetica,sans-Serif" font-size="10.00" fill="grey"> m_link_handler</text>
</g>
<!-- Node27&#45;&gt;Node26 -->
<g id="edge46_Node000026_Node000027" class="edge">
<title>Node27&#45;&gt;Node26</title>
<g id="a_edge46_Node000026_Node000027"><a xlink:title=" ">
<path fill="none" stroke="#9a32cd" stroke-dasharray="5,2" d="M1876.78,-222.14C1911.15,-226.46 1953.21,-231.75 1985.56,-235.82"/>
<polygon fill="#9a32cd" stroke="#9a32cd" points="1877.31,-218.67 1866.95,-220.9 1876.44,-225.62 1877.31,-218.67"/>
</a>
</g>
<text text-anchor="middle" x="1925.38" y="-234" font-family="Helvetica,sans-Serif" font-size="10.00" fill="grey"> m_request_handler</text>
</g>
<!-- Node28&#45;&gt;Node27 -->
<g id="edge49_Node000027_Node000028" class="edge">
<title>Node28&#45;&gt;Node27</title>
<g id="a_edge49_Node000027_Node000028"><a xlink:title=" ">
<path fill="none" stroke="#9a32cd" stroke-dasharray="5,2" d="M1661.96,-165.34C1687.57,-167.79 1717.23,-172.18 1743.25,-180 1757.96,-184.42 1773.35,-191.78 1785.84,-198.55"/>
<polygon fill="#9a32cd" stroke="#9a32cd" points="1662.28,-161.86 1652.02,-164.48 1661.68,-168.83 1662.28,-161.86"/>
</a>
</g>
<text text-anchor="middle" x="1705.75" y="-181" font-family="Helvetica,sans-Serif" font-size="10.00" fill="grey"> m_data_recorder</text>
</g>
<!-- Node29&#45;&gt;Node26 -->
<g id="edge52_Node000026_Node000029" class="edge">
<title>Node29&#45;&gt;Node26</title>
<g id="a_edge52_Node000026_Node000029"><a xlink:title=" ">
<path fill="none" stroke="#9a32cd" stroke-dasharray="5,2" d="M1661.4,-126.56C1715.58,-138.67 1796.1,-157.85 1865,-179 1911.29,-193.21 1963.34,-212.94 1997.85,-226.56"/>
<polygon fill="#9a32cd" stroke="#9a32cd" points="1662.26,-123.17 1651.74,-124.42 1660.74,-130 1662.26,-123.17"/>
</a>
</g>
<text text-anchor="middle" x="1813.12" y="-180" font-family="Helvetica,sans-Serif" font-size="10.00" fill="grey"> m_latency_buffer</text>
</g>
<!-- Node30&#45;&gt;Node26 -->
<g id="edge55_Node000026_Node000030" class="edge">
<title>Node30&#45;&gt;Node26</title>
<g id="a_edge55_Node000026_Node000030"><a xlink:title=" ">
<path fill="none" stroke="#9a32cd" stroke-dasharray="5,2" d="M1661.55,-73.53C1738.41,-87.22 1870.89,-118.2 1967.75,-180.25 1988.48,-193.53 2009.03,-213.08 2022.21,-226.67"/>
<polygon fill="#9a32cd" stroke="#9a32cd" points="1662.57,-70.16 1652.12,-71.89 1661.37,-77.05 1662.57,-70.16"/>
</a>
</g>
<text text-anchor="middle" x="1813.12" y="-131" font-family="Helvetica,sans-Serif" font-size="10.00" fill="grey"> m_data_processor</text>
</g>
<!-- Node31&#45;&gt;Node1 -->
<g id="edge58_Node000001_Node000031" class="edge">
<title>Node31&#45;&gt;Node1</title>
<g id="a_edge58_Node000001_Node000031"><a xlink:title=" ">
<path fill="none" stroke="#9a32cd" stroke-dasharray="5,2" d="M1661.8,-16.59C1704.19,-17.39 1761.54,-18.25 1812.12,-18.25 1812.12,-18.25 1812.12,-18.25 2282.5,-18.25 2376.36,-18.25 2414.46,-376.79 2421.77,-456.62"/>
<polygon fill="#9a32cd" stroke="#9a32cd" points="1662.11,-13.1 1652.04,-16.4 1661.97,-20.1 1662.11,-13.1"/>
</a>
</g>
<text text-anchor="middle" x="2037.62" y="-20" font-family="Helvetica,sans-Serif" font-size="10.00" fill="grey"> m_generator</text>
</g>
</g>
</svg>
