<?xml version="1.0" encoding="UTF-8" standalone="no"?>
<!DOCTYPE svg PUBLIC "-//W3C//DTD SVG 1.1//EN"
 "http://www.w3.org/Graphics/SVG/1.1/DTD/svg11.dtd">
<!-- Generated by graphviz version 9.0.0 (20230911.1827)
 -->
<!-- Title: dunedaq::oks::OksMethod Pages: 1 -->
<svg width="753pt" height="584pt"
 viewBox="0.00 0.00 753.25 583.75" xmlns="http://www.w3.org/2000/svg" xmlns:xlink="http://www.w3.org/1999/xlink">
<g id="graph0" class="graph" transform="scale(1 1) rotate(0) translate(4 579.75)">
<title>dunedaq::oks::OksMethod</title>
<!-- Node1 -->
<g id="Node000001" class="node">
<title>Node1</title>
<g id="a_Node000001"><a xlink:title="OKS method class.">
<polygon fill="#999999" stroke="#666666" points="127.75,-347.12 0,-347.12 0,-327.88 127.75,-327.88 127.75,-347.12"/>
<text text-anchor="middle" x="63.88" y="-333.62" font-family="Helvetica,sans-Serif" font-size="10.00">dunedaq::oks::OksMethod</text>
</a>
</g>
</g>
<!-- Node2 -->
<g id="Node000002" class="node">
<title>Node2</title>
<g id="a_Node000002"><a xlink:href="classdunedaq_1_1oks_1_1OksClass.html" target="_top" xlink:title="The OKS class.">
<polygon fill="white" stroke="#666666" points="532,-441.75 411.75,-441.75 411.75,-422.5 532,-422.5 532,-441.75"/>
<text text-anchor="middle" x="471.88" y="-428.25" font-family="Helvetica,sans-Serif" font-size="10.00">dunedaq::oks::OksClass</text>
</a>
</g>
</g>
<!-- Node2&#45;&gt;Node1 -->
<g id="edge1_Node000001_Node000002" class="edge">
<title>Node2&#45;&gt;Node1</title>
<g id="a_edge1_Node000001_Node000002"><a xlink:title=" ">
<path fill="none" stroke="#9a32cd" stroke-dasharray="5,2" d="M400.16,-429.35C300.75,-426.36 130.44,-419.17 105.88,-404.5 83.95,-391.41 71.58,-361.95 66.55,-347.23"/>
<polygon fill="#9a32cd" stroke="#9a32cd" points="400.01,-432.84 410.11,-429.64 400.22,-425.85 400.01,-432.84"/>
</a>
</g>
<text text-anchor="middle" x="123.88" y="-383.75" font-family="Helvetica,sans-Serif" font-size="10.00" fill="grey"> p_class</text>
</g>
<!-- Node10 -->
<g id="Node000010" class="node">
<title>Node10</title>
<g id="a_Node000010"><a xlink:href="uniondunedaq_1_1oks_1_1OksData_1_1Data.html" target="_top" xlink:title=" ">
<polygon fill="white" stroke="#666666" points="678.75,-352.75 563,-352.75 563,-322.25 678.75,-322.25 678.75,-352.75"/>
<text text-anchor="start" x="571" y="-339.25" font-family="Helvetica,sans-Serif" font-size="10.00">dunedaq::oks::OksData</text>
<text text-anchor="middle" x="620.88" y="-328" font-family="Helvetica,sans-Serif" font-size="10.00">::Data</text>
</a>
</g>
</g>
<!-- Node2&#45;&gt;Node10 -->
<g id="edge12_Node000010_Node000002" class="edge">
<title>Node2&#45;&gt;Node10</title>
<g id="a_edge12_Node000010_Node000002"><a xlink:title=" ">
<path fill="none" stroke="#9a32cd" stroke-dasharray="5,2" d="M496.2,-416C524.12,-398.64 569.62,-370.36 597.24,-353.19"/>
<polygon fill="#9a32cd" stroke="#9a32cd" points="494.36,-413.02 487.72,-421.28 498.06,-418.97 494.36,-413.02"/>
</a>
</g>
<text text-anchor="middle" x="585.88" y="-389.38" font-family="Helvetica,sans-Serif" font-size="10.00" fill="grey"> CLASS</text>
<text text-anchor="middle" x="585.88" y="-378.12" font-family="Helvetica,sans-Serif" font-size="10.00" fill="grey">class_id</text>
</g>
<!-- Node3 -->
<g id="Node000003" class="node">
<title>Node3</title>
<g id="a_Node000003"><a xlink:href="classdunedaq_1_1oks_1_1OksFile.html" target="_top" xlink:title="Provides interface to the OKS XML schema and data files.">
<polygon fill="white" stroke="#666666" points="490.5,-19.25 379.25,-19.25 379.25,0 490.5,0 490.5,-19.25"/>
<text text-anchor="middle" x="434.88" y="-5.75" font-family="Helvetica,sans-Serif" font-size="10.00">dunedaq::oks::OksFile</text>
</a>
</g>
</g>
<!-- Node3&#45;&gt;Node2 -->
<g id="edge2_Node000002_Node000003" class="edge">
<title>Node3&#45;&gt;Node2</title>
<g id="a_edge2_Node000002_Node000003"><a xlink:title=" ">
<path fill="none" stroke="#9a32cd" stroke-dasharray="5,2" d="M367.43,-15.51C284.86,-23.39 155.88,-42.69 155.88,-86.38 155.88,-338.5 155.88,-338.5 155.88,-338.5 155.88,-391.17 319.56,-416 411.32,-425.79"/>
<polygon fill="#9a32cd" stroke="#9a32cd" points="367.6,-19.01 377.24,-14.61 366.97,-12.04 367.6,-19.01"/>
</a>
</g>
<text text-anchor="middle" x="168.25" y="-228.25" font-family="Helvetica,sans-Serif" font-size="10.00" fill="grey"> p_file</text>
</g>
<!-- Node3&#45;&gt;Node3 -->
<g id="edge3_Node000003_Node000003" class="edge">
<title>Node3&#45;&gt;Node3</title>
<g id="a_edge3_Node000003_Node000003"><a xlink:title=" ">
<path fill="none" stroke="#9a32cd" stroke-dasharray="5,2" d="M501.96,-14.69C506.05,-13.48 508.5,-11.8 508.5,-9.62 508.5,-5.87 501.16,-3.56 490.74,-2.71"/>
<polygon fill="#9a32cd" stroke="#9a32cd" points="501.53,-11.21 492.23,-16.29 502.67,-18.12 501.53,-11.21"/>
</a>
</g>
<text text-anchor="middle" x="540.38" y="-5.75" font-family="Helvetica,sans-Serif" font-size="10.00" fill="grey"> p_included_by</text>
</g>
<!-- Node4 -->
<g id="Node000004" class="node">
<title>Node4</title>
<g id="a_Node000004"><a xlink:href="classdunedaq_1_1oks_1_1OksKernel.html" target="_top" xlink:title="Provides interface to the OKS kernel.">
<polygon fill="white" stroke="#666666" points="496.5,-97 373.25,-97 373.25,-77.75 496.5,-77.75 496.5,-97"/>
<text text-anchor="middle" x="434.88" y="-83.5" font-family="Helvetica,sans-Serif" font-size="10.00">dunedaq::oks::OksKernel</text>
</a>
</g>
</g>
<!-- Node3&#45;&gt;Node4 -->
<g id="edge5_Node000004_Node000003" class="edge">
<title>Node3&#45;&gt;Node4</title>
<g id="a_edge5_Node000004_Node000003"><a xlink:title=" ">
<path fill="none" stroke="#9a32cd" stroke-dasharray="5,2" d="M442.29,-30.22C442.94,-32.56 443.49,-34.94 443.88,-37.25 445.5,-47.12 445.5,-49.88 443.88,-59.75 442.86,-65.91 440.61,-72.57 438.61,-77.68"/>
<polygon fill="#9a32cd" stroke="#9a32cd" points="445.61,-29.11 439.1,-20.75 438.98,-31.34 445.61,-29.11"/>
</a>
</g>
<text text-anchor="middle" x="484.12" y="-50.25" font-family="Helvetica,sans-Serif" font-size="10.00" fill="grey"> p_active_data</text>
<text text-anchor="middle" x="484.12" y="-39" font-family="Helvetica,sans-Serif" font-size="10.00" fill="grey">p_active_schema</text>
</g>
<!-- Node7 -->
<g id="Node000007" class="node">
<title>Node7</title>
<g id="a_Node000007"><a xlink:href="classdunedaq_1_1oks_1_1OksObject.html" target="_top" xlink:title="OksObject describes instance of OksClass.">
<polygon fill="white" stroke="#666666" points="699.88,-208.5 575.88,-208.5 575.88,-189.25 699.88,-189.25 699.88,-208.5"/>
<text text-anchor="middle" x="637.88" y="-195" font-family="Helvetica,sans-Serif" font-size="10.00">dunedaq::oks::OksObject</text>
</a>
</g>
</g>
<!-- Node3&#45;&gt;Node7 -->
<g id="edge17_Node000007_Node000003" class="edge">
<title>Node3&#45;&gt;Node7</title>
<g id="a_edge17_Node000007_Node000003"><a xlink:title=" ">
<path fill="none" stroke="#9a32cd" stroke-dasharray="5,2" d="M489.09,-22.76C501.53,-26.56 514.46,-31.34 525.88,-37.25 575.25,-62.81 595.59,-67.13 623.88,-115 637.98,-138.87 638.86,-172.96 638.38,-188.95"/>
<polygon fill="#9a32cd" stroke="#9a32cd" points="490.35,-19.49 479.78,-20.1 488.43,-26.22 490.35,-19.49"/>
</a>
</g>
<text text-anchor="middle" x="619" y="-83.5" font-family="Helvetica,sans-Serif" font-size="10.00" fill="grey"> file</text>
</g>
<!-- Node4&#45;&gt;Node2 -->
<g id="edge18_Node000002_Node000004" class="edge">
<title>Node4&#45;&gt;Node2</title>
<g id="a_edge18_Node000002_Node000004"><a xlink:title=" ">
<path fill="none" stroke="#9a32cd" stroke-dasharray="5,2" d="M457.8,-104.69C460.91,-107.8 463.76,-111.26 465.88,-115 484.25,-147.52 479.88,-160.52 479.88,-197.88 479.88,-338.5 479.88,-338.5 479.88,-338.5 479.88,-369.33 475.42,-405.72 473.16,-422.21"/>
<polygon fill="#9a32cd" stroke="#9a32cd" points="460.26,-102.19 450.39,-98.35 455.7,-107.51 460.26,-102.19"/>
</a>
</g>
<text text-anchor="middle" x="499.38" y="-261.5" font-family="Helvetica,sans-Serif" font-size="10.00" fill="grey"> p_kernel</text>
</g>
<!-- Node4&#45;&gt;Node3 -->
<g id="edge4_Node000003_Node000004" class="edge">
<title>Node4&#45;&gt;Node3</title>
<g id="a_edge4_Node000003_Node000004"><a xlink:title=" ">
<path fill="none" stroke="#9a32cd" stroke-dasharray="5,2" d="M411.73,-69.8C408.96,-66.79 406.52,-63.42 404.88,-59.75 400.77,-50.63 400.77,-46.37 404.88,-37.25 408.07,-30.14 414.21,-24.15 420.11,-19.67"/>
<polygon fill="#9a32cd" stroke="#9a32cd" points="409.21,-72.24 418.99,-76.32 413.89,-67.03 409.21,-72.24"/>
</a>
</g>
<text text-anchor="middle" x="424.38" y="-44.62" font-family="Helvetica,sans-Serif" font-size="10.00" fill="grey"> p_kernel</text>
</g>
<!-- Node5 -->
<g id="Node000005" class="node">
<title>Node5</title>
<g id="a_Node000005"><a xlink:href="classdunedaq_1_1oks_1_1OksProfiler.html" target="_top" xlink:title=" ">
<polygon fill="white" stroke="#666666" points="309.62,-208.5 184.12,-208.5 184.12,-189.25 309.62,-189.25 309.62,-208.5"/>
<text text-anchor="middle" x="246.88" y="-195" font-family="Helvetica,sans-Serif" font-size="10.00">dunedaq::oks::OksProfiler</text>
</a>
</g>
</g>
<!-- Node5&#45;&gt;Node4 -->
<g id="edge6_Node000004_Node000005" class="edge">
<title>Node5&#45;&gt;Node4</title>
<g id="a_edge6_Node000004_Node000005"><a xlink:title=" ">
<path fill="none" stroke="#9a32cd" stroke-dasharray="5,2" d="M264.76,-181.38C285.42,-163.04 321.1,-133.57 356.12,-115 369.9,-107.7 386.06,-101.82 400.15,-97.46"/>
<polygon fill="#9a32cd" stroke="#9a32cd" points="262.58,-178.63 257.5,-187.93 267.27,-183.83 262.58,-178.63"/>
</a>
</g>
<text text-anchor="middle" x="372.25" y="-139.25" font-family="Helvetica,sans-Serif" font-size="10.00" fill="grey"> profiler</text>
</g>
<!-- Node6 -->
<g id="Node000006" class="node">
<title>Node6</title>
<g id="a_Node000006"><a xlink:href="structdunedaq_1_1oks_1_1LoadErrors.html" target="_top" xlink:title=" ">
<polygon fill="white" stroke="#666666" points="452.25,-208.5 327.5,-208.5 327.5,-189.25 452.25,-189.25 452.25,-208.5"/>
<text text-anchor="middle" x="389.88" y="-195" font-family="Helvetica,sans-Serif" font-size="10.00">dunedaq::oks::LoadErrors</text>
</a>
</g>
</g>
<!-- Node6&#45;&gt;Node4 -->
<g id="edge7_Node000004_Node000006" class="edge">
<title>Node6&#45;&gt;Node4</title>
<g id="a_edge7_Node000004_Node000006"><a xlink:title=" ">
<path fill="none" stroke="#9a32cd" stroke-dasharray="5,2" d="M390,-177.33C390.94,-159.75 394.29,-134.31 405.12,-115 409.06,-107.99 415.54,-101.86 421.44,-97.26"/>
<polygon fill="#9a32cd" stroke="#9a32cd" points="386.51,-177.16 389.72,-187.26 393.51,-177.36 386.51,-177.16"/>
</a>
</g>
<text text-anchor="middle" x="436.25" y="-139.25" font-family="Helvetica,sans-Serif" font-size="10.00" fill="grey"> p_load_errors</text>
</g>
<!-- Node7&#45;&gt;Node4 -->
<g id="edge8_Node000004_Node000007" class="edge">
<title>Node7&#45;&gt;Node4</title>
<g id="a_edge8_Node000004_Node000007"><a xlink:title=" ">
<path fill="none" stroke="#9a32cd" stroke-dasharray="5,2" d="M564.3,-188.02C542.38,-183.83 521.97,-178.26 513.62,-171.25 492.98,-153.9 509.37,-134.63 490.88,-115 483.57,-107.24 473.54,-101.5 463.98,-97.38"/>
<polygon fill="#9a32cd" stroke="#9a32cd" points="563.54,-191.44 574,-189.76 564.78,-184.55 563.54,-191.44"/>
</a>
</g>
<text text-anchor="start" x="513.88" y="-161.75" font-family="Helvetica,sans-Serif" font-size="10.00" fill="grey"> p_change_object_notify</text>
<text text-anchor="middle" x="569" y="-150.5" font-family="Helvetica,sans-Serif" font-size="10.00" fill="grey">_fn</text>
<text text-anchor="start" x="513.88" y="-139.25" font-family="Helvetica,sans-Serif" font-size="10.00" fill="grey">p_create_object_notify</text>
<text text-anchor="middle" x="569" y="-128" font-family="Helvetica,sans-Serif" font-size="10.00" fill="grey">_fn</text>
<text text-anchor="middle" x="569" y="-116.75" font-family="Helvetica,sans-Serif" font-size="10.00" fill="grey">p_delete_object_notify_fn</text>
</g>
<!-- Node7&#45;&gt;Node10 -->
<g id="edge13_Node000010_Node000007" class="edge">
<title>Node7&#45;&gt;Node10</title>
<g id="a_edge13_Node000010_Node000007"><a xlink:title=" ">
<path fill="none" stroke="#9a32cd" stroke-dasharray="5,2" d="M650.21,-218.33C658.8,-233.51 667.75,-255.6 661.88,-275 656.45,-292.93 643.87,-310.41 634.07,-322.13"/>
<polygon fill="#9a32cd" stroke="#9a32cd" points="653.26,-216.6 645.03,-209.93 647.3,-220.28 653.26,-216.6"/>
</a>
</g>
<text text-anchor="middle" x="683.12" y="-261.5" font-family="Helvetica,sans-Serif" font-size="10.00" fill="grey"> OBJECT</text>
</g>
<!-- Node8 -->
<g id="Node000008" class="node">
<title>Node8</title>
<g id="a_Node000008"><a xlink:title=" ">
<polygon fill="white" stroke="#666666" points="745.25,-441.75 704.5,-441.75 704.5,-422.5 745.25,-422.5 745.25,-441.75"/>
<text text-anchor="middle" x="724.88" y="-428.25" font-family="Helvetica,sans-Serif" font-size="10.00">struct</text>
</a>
</g>
</g>
<!-- Node8&#45;&gt;Node7 -->
<g id="edge9_Node000007_Node000008" class="edge">
<title>Node8&#45;&gt;Node7</title>
<g id="a_edge9_Node000007_Node000008"><a xlink:title=" ">
<path fill="none" stroke="#9a32cd" stroke-dasharray="5,2" d="M728.07,-411.07C732.5,-376.67 736.97,-305.35 707.88,-255.75 695.45,-234.56 671.69,-218.24 655.33,-208.85"/>
<polygon fill="#9a32cd" stroke="#9a32cd" points="724.63,-410.43 726.66,-420.82 731.56,-411.43 724.63,-410.43"/>
</a>
</g>
<text text-anchor="middle" x="732.38" y="-294.75" font-family="Helvetica,sans-Serif" font-size="10.00" fill="grey"> uid</text>
</g>
<!-- Node8&#45;&gt;Node10 -->
<g id="edge16_Node000010_Node000008" class="edge">
<title>Node8&#45;&gt;Node10</title>
<g id="a_edge16_Node000010_Node000008"><a xlink:title=" ">
<path fill="none" stroke="#9a32cd" stroke-dasharray="5,2" d="M709.15,-413.91C697.41,-401.43 680.74,-384.4 664.88,-370.75 657.7,-364.57 649.41,-358.3 641.98,-352.95"/>
<polygon fill="#9a32cd" stroke="#9a32cd" points="706.34,-416.03 715.71,-420.98 711.47,-411.27 706.34,-416.03"/>
</a>
</g>
<text text-anchor="middle" x="711.12" y="-389.38" font-family="Helvetica,sans-Serif" font-size="10.00" fill="grey"> UID</text>
<text text-anchor="middle" x="711.12" y="-378.12" font-family="Helvetica,sans-Serif" font-size="10.00" fill="grey">UID2</text>
</g>
<!-- Node9 -->
<g id="Node000009" class="node">
<title>Node9</title>
<g id="a_Node000009"><a xlink:href="structdunedaq_1_1oks_1_1OksData.html" target="_top" xlink:title="the structure to pass common parameters to various read() methods of OksData and OksObject class">
<polygon fill="white" stroke="#666666" points="652.75,-275 537,-275 537,-255.75 652.75,-255.75 652.75,-275"/>
<text text-anchor="middle" x="594.88" y="-261.5" font-family="Helvetica,sans-Serif" font-size="10.00">dunedaq::oks::OksData</text>
</a>
</g>
</g>
<!-- Node9&#45;&gt;Node7 -->
<g id="edge10_Node000007_Node000009" class="edge">
<title>Node9&#45;&gt;Node7</title>
<g id="a_edge10_Node000007_Node000009"><a xlink:title=" ">
<path fill="none" stroke="#9a32cd" stroke-dasharray="5,2" d="M607.04,-246.13C615.18,-233.91 625.55,-218.36 631.95,-208.77"/>
<polygon fill="#9a32cd" stroke="#9a32cd" points="604.33,-243.89 601.69,-254.15 610.15,-247.77 604.33,-243.89"/>
</a>
</g>
<text text-anchor="middle" x="629.38" y="-228.25" font-family="Helvetica,sans-Serif" font-size="10.00" fill="grey"> data</text>
</g>
<!-- Node10&#45;&gt;Node9 -->
<g id="edge11_Node000009_Node000010" class="edge">
<title>Node10&#45;&gt;Node9</title>
<g id="a_edge11_Node000009_Node000010"><a xlink:title=" ">
<path fill="none" stroke="#9a32cd" stroke-dasharray="5,2" d="M611.61,-311.5C606.9,-298.82 601.49,-284.21 598.12,-275.13"/>
<polygon fill="#9a32cd" stroke="#9a32cd" points="608.2,-312.39 614.96,-320.55 614.77,-309.96 608.2,-312.39"/>
</a>
</g>
<text text-anchor="middle" x="618.38" y="-294.75" font-family="Helvetica,sans-Serif" font-size="10.00" fill="grey"> data</text>
</g>
<!-- Node11 -->
<g id="Node000011" class="node">
<title>Node11</title>
<g id="a_Node000011"><a xlink:href="classdunedaq_1_1oks_1_1OksString.html" target="_top" xlink:title="Class OKS string.">
<polygon fill="white" stroke="#666666" points="681.38,-441.75 560.38,-441.75 560.38,-422.5 681.38,-422.5 681.38,-441.75"/>
<text text-anchor="middle" x="620.88" y="-428.25" font-family="Helvetica,sans-Serif" font-size="10.00">dunedaq::oks::OksString</text>
</a>
</g>
</g>
<!-- Node11&#45;&gt;Node10 -->
<g id="edge14_Node000010_Node000011" class="edge">
<title>Node11&#45;&gt;Node10</title>
<g id="a_edge14_Node000010_Node000011"><a xlink:title=" ">
<path fill="none" stroke="#9a32cd" stroke-dasharray="5,2" d="M620.88,-410.79C620.88,-393.28 620.88,-368.45 620.88,-352.92"/>
<polygon fill="#9a32cd" stroke="#9a32cd" points="617.38,-410.73 620.88,-420.73 624.38,-410.73 617.38,-410.73"/>
</a>
</g>
<text text-anchor="middle" x="640.75" y="-395" font-family="Helvetica,sans-Serif" font-size="10.00" fill="grey"> STRING</text>
<text text-anchor="middle" x="640.75" y="-383.75" font-family="Helvetica,sans-Serif" font-size="10.00" fill="grey">class_id</text>
<text text-anchor="middle" x="640.75" y="-372.5" font-family="Helvetica,sans-Serif" font-size="10.00" fill="grey">object_id</text>
</g>
<!-- Node12 -->
<g id="Node000012" class="node">
<title>Node12</title>
<g id="a_Node000012"><a xlink:title=" ">
<polygon fill="white" stroke="#666666" points="649.88,-508.25 591.88,-508.25 591.88,-489 649.88,-489 649.88,-508.25"/>
<text text-anchor="middle" x="620.88" y="-494.75" font-family="Helvetica,sans-Serif" font-size="10.00">std::string</text>
</a>
</g>
</g>
<!-- Node12&#45;&gt;Node11 -->
<g id="edge15_Node000011_Node000012" class="edge">
<title>Node12&#45;&gt;Node11</title>
<g id="a_edge15_Node000011_Node000012"><a xlink:title=" ">
<path fill="none" stroke="#63b8ff" d="M620.88,-477.15C620.88,-465.32 620.88,-451.04 620.88,-442.02"/>
<polygon fill="#63b8ff" stroke="#63b8ff" points="617.38,-477.14 620.88,-487.14 624.38,-477.14 617.38,-477.14"/>
</a>
</g>
</g>
<!-- Node13 -->
<g id="Node000013" class="node">
<title>Node13</title>
<g id="a_Node000013"><a xlink:href="classdunedaq_1_1conffwk_1_1map.html" target="_top" xlink:title=" ">
<polygon fill="white" stroke="#666666" points="540.25,-508.25 403.5,-508.25 403.5,-489 540.25,-489 540.25,-508.25"/>
<text text-anchor="middle" x="471.88" y="-494.75" font-family="Helvetica,sans-Serif" font-size="10.00">dunedaq::conffwk::map&lt; T &gt;</text>
</a>
</g>
</g>
<!-- Node13&#45;&gt;Node2 -->
<g id="edge19_Node000002_Node000013" class="edge">
<title>Node13&#45;&gt;Node2</title>
<g id="a_edge19_Node000002_Node000013"><a xlink:title=" ">
<path fill="none" stroke="#9a32cd" stroke-dasharray="5,2" d="M471.88,-477.15C471.88,-465.32 471.88,-451.04 471.88,-442.02"/>
<polygon fill="#9a32cd" stroke="#9a32cd" points="468.38,-477.14 471.88,-487.14 475.38,-477.14 468.38,-477.14"/>
</a>
</g>
<text text-anchor="middle" x="498.12" y="-461.5" font-family="Helvetica,sans-Serif" font-size="10.00" fill="grey"> p_data_info</text>
</g>
<!-- Node14 -->
<g id="Node000014" class="node">
<title>Node14</title>
<g id="a_Node000014"><a xlink:title=" ">
<polygon fill="white" stroke="#666666" points="522.25,-575.75 421.5,-575.75 421.5,-545.25 522.25,-545.25 522.25,-575.75"/>
<text text-anchor="start" x="429.5" y="-562.25" font-family="Helvetica,sans-Serif" font-size="10.00">std::unordered_map</text>
<text text-anchor="middle" x="471.88" y="-551" font-family="Helvetica,sans-Serif" font-size="10.00">&lt; std::string, T &gt;</text>
</a>
</g>
</g>
<!-- Node14&#45;&gt;Node13 -->
<g id="edge20_Node000013_Node000014" class="edge">
<title>Node14&#45;&gt;Node13</title>
<g id="a_edge20_Node000013_Node000014"><a xlink:title=" ">
<path fill="none" stroke="#63b8ff" d="M471.88,-533.77C471.88,-524.79 471.88,-515.29 471.88,-508.6"/>
<polygon fill="#63b8ff" stroke="#63b8ff" points="468.38,-533.49 471.88,-543.49 475.38,-533.49 468.38,-533.49"/>
</a>
</g>
</g>
</g>
</svg>
