<?xml version="1.0" encoding="UTF-8" standalone="no"?>
<!DOCTYPE svg PUBLIC "-//W3C//DTD SVG 1.1//EN"
 "http://www.w3.org/Graphics/SVG/1.1/DTD/svg11.dtd">
<!-- Generated by graphviz version 9.0.0 (20230911.1827)
 -->
<!-- Title: dbe::models::tableselection Pages: 1 -->
<svg width="671pt" height="137pt"
 viewBox="0.00 0.00 670.50 136.50" xmlns="http://www.w3.org/2000/svg" xmlns:xlink="http://www.w3.org/1999/xlink">
<g id="graph0" class="graph" transform="scale(1 1) rotate(0) translate(4 132.5)">
<title>dbe::models::tableselection</title>
<!-- Node1 -->
<g id="Node000001" class="node">
<title>Node1</title>
<g id="a_Node000001"><a xlink:title=" ">
<polygon fill="#999999" stroke="#666666" points="662.5,-73.88 530.25,-73.88 530.25,-54.62 662.5,-54.62 662.5,-73.88"/>
<text text-anchor="middle" x="596.38" y="-60.38" font-family="Helvetica,sans-Serif" font-size="10.00">dbe::models::tableselection</text>
</a>
</g>
</g>
<!-- Node2 -->
<g id="Node000002" class="node">
<title>Node2</title>
<g id="a_Node000002"><a xlink:title=" ">
<polygon fill="white" stroke="#666666" points="479.62,-116.88 366.12,-116.88 366.12,-97.62 479.62,-97.62 479.62,-116.88"/>
<text text-anchor="middle" x="422.88" y="-103.38" font-family="Helvetica,sans-Serif" font-size="10.00">QSortFilterProxyModel</text>
</a>
</g>
</g>
<!-- Node2&#45;&gt;Node1 -->
<g id="edge1_Node000001_Node000002" class="edge">
<title>Node2&#45;&gt;Node1</title>
<g id="a_edge1_Node000001_Node000002"><a xlink:title=" ">
<path fill="none" stroke="#63b8ff" d="M475.09,-94.41C500.69,-87.99 531.22,-80.33 555.12,-74.34"/>
<polygon fill="#63b8ff" stroke="#63b8ff" points="474.4,-90.97 465.55,-96.8 476.1,-97.76 474.4,-90.97"/>
</a>
</g>
</g>
<!-- Node3 -->
<g id="Node000003" class="node">
<title>Node3</title>
<g id="a_Node000003"><a xlink:href="classdbe_1_1model__common__impl.html" target="_top" xlink:title=" ">
<polygon fill="white" stroke="#666666" points="487.12,-79.5 358.62,-79.5 358.62,-49 487.12,-49 487.12,-79.5"/>
<text text-anchor="start" x="366.62" y="-66" font-family="Helvetica,sans-Serif" font-size="10.00">dbe::model_common_impl</text>
<text text-anchor="middle" x="422.88" y="-54.75" font-family="Helvetica,sans-Serif" font-size="10.00">&lt; tableselection &gt;</text>
</a>
</g>
</g>
<!-- Node3&#45;&gt;Node1 -->
<g id="edge2_Node000001_Node000003" class="edge">
<title>Node3&#45;&gt;Node1</title>
<g id="a_edge2_Node000001_Node000003"><a xlink:title=" ">
<path fill="none" stroke="#63b8ff" d="M498.5,-64.25C508.98,-64.25 519.68,-64.25 529.97,-64.25"/>
<polygon fill="#63b8ff" stroke="#63b8ff" points="498.76,-60.75 488.76,-64.25 498.76,-67.75 498.76,-60.75"/>
</a>
</g>
</g>
<!-- Node4 -->
<g id="Node000004" class="node">
<title>Node4</title>
<g id="a_Node000004"><a xlink:href="classdbe_1_1model__common__interface.html" target="_top" xlink:title=" ">
<polygon fill="white" stroke="#666666" points="315.5,-73.88 167.5,-73.88 167.5,-54.62 315.5,-54.62 315.5,-73.88"/>
<text text-anchor="middle" x="241.5" y="-60.38" font-family="Helvetica,sans-Serif" font-size="10.00">dbe::model_common_interface</text>
</a>
</g>
</g>
<!-- Node4&#45;&gt;Node3 -->
<g id="edge3_Node000003_Node000004" class="edge">
<title>Node4&#45;&gt;Node3</title>
<g id="a_edge3_Node000003_Node000004"><a xlink:title=" ">
<path fill="none" stroke="#63b8ff" d="M327.24,-64.25C337.69,-64.25 348.22,-64.25 358.27,-64.25"/>
<polygon fill="#63b8ff" stroke="#63b8ff" points="327.49,-60.75 317.49,-64.25 327.49,-67.75 327.49,-60.75"/>
</a>
</g>
</g>
<!-- Node5 -->
<g id="Node000005" class="node">
<title>Node5</title>
<g id="a_Node000005"><a xlink:href="classdbe_1_1model__initiate__actions__interface.html" target="_top" xlink:title=" ">
<polygon fill="white" stroke="#666666" points="113.88,-128.5 17.62,-128.5 17.62,-98 113.88,-98 113.88,-128.5"/>
<text text-anchor="start" x="25.62" y="-115" font-family="Helvetica,sans-Serif" font-size="10.00">dbe::model_initiate</text>
<text text-anchor="middle" x="65.75" y="-103.75" font-family="Helvetica,sans-Serif" font-size="10.00">_actions_interface</text>
</a>
</g>
</g>
<!-- Node5&#45;&gt;Node4 -->
<g id="edge4_Node000004_Node000005" class="edge">
<title>Node5&#45;&gt;Node4</title>
<g id="a_edge4_Node000004_Node000005"><a xlink:title=" ">
<path fill="none" stroke="#63b8ff" d="M125.23,-96.76C151.55,-89.34 181.76,-80.81 204.66,-74.36"/>
<polygon fill="#63b8ff" stroke="#63b8ff" points="124.36,-93.37 115.68,-99.45 126.26,-100.1 124.36,-93.37"/>
</a>
</g>
</g>
<!-- Node6 -->
<g id="Node000006" class="node">
<title>Node6</title>
<g id="a_Node000006"><a xlink:href="structdbe_1_1model__common__data__access__interface.html" target="_top" xlink:title=" ">
<polygon fill="white" stroke="#666666" points="130.38,-79.5 1.12,-79.5 1.12,-49 130.38,-49 130.38,-79.5"/>
<text text-anchor="start" x="9.12" y="-66" font-family="Helvetica,sans-Serif" font-size="10.00">dbe::model_common_data</text>
<text text-anchor="middle" x="65.75" y="-54.75" font-family="Helvetica,sans-Serif" font-size="10.00">_access_interface</text>
</a>
</g>
</g>
<!-- Node6&#45;&gt;Node4 -->
<g id="edge5_Node000004_Node000006" class="edge">
<title>Node6&#45;&gt;Node4</title>
<g id="a_edge5_Node000004_Node000006"><a xlink:title=" ">
<path fill="none" stroke="#63b8ff" d="M141.78,-64.25C150.18,-64.25 158.72,-64.25 167.09,-64.25"/>
<polygon fill="#63b8ff" stroke="#63b8ff" points="141.98,-60.75 131.98,-64.25 141.97,-67.75 141.98,-60.75"/>
</a>
</g>
</g>
<!-- Node7 -->
<g id="Node000007" class="node">
<title>Node7</title>
<g id="a_Node000007"><a xlink:href="classdbe_1_1model__common__slots.html" target="_top" xlink:title=" ">
<polygon fill="white" stroke="#666666" points="131.5,-30.88 0,-30.88 0,-11.62 131.5,-11.62 131.5,-30.88"/>
<text text-anchor="middle" x="65.75" y="-17.38" font-family="Helvetica,sans-Serif" font-size="10.00">dbe::model_common_slots</text>
</a>
</g>
</g>
<!-- Node7&#45;&gt;Node4 -->
<g id="edge6_Node000004_Node000007" class="edge">
<title>Node7&#45;&gt;Node4</title>
<g id="a_edge6_Node000004_Node000007"><a xlink:title=" ">
<path fill="none" stroke="#8b1a1a" d="M118.64,-34.09C144.57,-40.51 175.51,-48.17 199.72,-54.16"/>
<polygon fill="#8b1a1a" stroke="#8b1a1a" points="119.5,-30.7 108.96,-31.7 117.82,-37.5 119.5,-30.7"/>
</a>
</g>
</g>
<!-- Node8 -->
<g id="Node000008" class="node">
<title>Node8</title>
<g id="a_Node000008"><a xlink:href="classdbe_1_1model__common__async__operations.html" target="_top" xlink:title=" ">
<polygon fill="white" stroke="#666666" points="494.25,-30.5 351.5,-30.5 351.5,0 494.25,0 494.25,-30.5"/>
<text text-anchor="start" x="359.5" y="-17" font-family="Helvetica,sans-Serif" font-size="10.00">dbe::model_common_async</text>
<text text-anchor="middle" x="422.88" y="-5.75" font-family="Helvetica,sans-Serif" font-size="10.00">_operations&lt; tableselection &gt;</text>
</a>
</g>
</g>
<!-- Node8&#45;&gt;Node1 -->
<g id="edge7_Node000001_Node000008" class="edge">
<title>Node8&#45;&gt;Node1</title>
<g id="a_edge7_Node000001_Node000008"><a xlink:title=" ">
<path fill="none" stroke="#63b8ff" d="M489.45,-33.99C513.45,-40.84 539.68,-48.34 560.04,-54.15"/>
<polygon fill="#63b8ff" stroke="#63b8ff" points="490.64,-30.69 480.07,-31.3 488.72,-37.42 490.64,-30.69"/>
</a>
</g>
</g>
</g>
</svg>
