<?xml version="1.0" encoding="UTF-8" standalone="no"?>
<!DOCTYPE svg PUBLIC "-//W3C//DTD SVG 1.1//EN"
 "http://www.w3.org/Graphics/SVG/1.1/DTD/svg11.dtd">
<!-- Generated by graphviz version 9.0.0 (20230911.1827)
 -->
<!-- Title: dunedaq::datahandlinglibs::DataSubscriberModel&lt; OriginalPayloadType, TargetPayloadType &gt; Pages: 1 -->
<svg width="182pt" height="194pt"
 viewBox="0.00 0.00 182.25 194.00" xmlns="http://www.w3.org/2000/svg" xmlns:xlink="http://www.w3.org/1999/xlink">
<g id="graph0" class="graph" transform="scale(1 1) rotate(0) translate(4 190)">
<title>dunedaq::datahandlinglibs::DataSubscriberModel&lt; OriginalPayloadType, TargetPayloadType &gt;</title>
<!-- Node1 -->
<g id="Node000001" class="node">
<title>Node1</title>
<g id="a_Node000001"><a xlink:title=" ">
<polygon fill="#999999" stroke="#666666" points="174.25,-53 0,-53 0,0 174.25,0 174.25,-53"/>
<text text-anchor="start" x="8" y="-39.5" font-family="Helvetica,sans-Serif" font-size="10.00">dunedaq::datahandlinglibs</text>
<text text-anchor="start" x="8" y="-28.25" font-family="Helvetica,sans-Serif" font-size="10.00">::DataSubscriberModel&lt;</text>
<text text-anchor="start" x="8" y="-17" font-family="Helvetica,sans-Serif" font-size="10.00"> OriginalPayloadType, TargetPayload</text>
<text text-anchor="middle" x="87.12" y="-5.75" font-family="Helvetica,sans-Serif" font-size="10.00">Type &gt;</text>
</a>
</g>
</g>
<!-- Node2 -->
<g id="Node000002" class="node">
<title>Node2</title>
<g id="a_Node000002"><a xlink:href="classdunedaq_1_1datahandlinglibs_1_1SourceConcept.html" target="_top" xlink:title=" ">
<polygon fill="white" stroke="#666666" points="150.62,-119.5 23.62,-119.5 23.62,-89 150.62,-89 150.62,-119.5"/>
<text text-anchor="start" x="31.62" y="-106" font-family="Helvetica,sans-Serif" font-size="10.00">dunedaq::datahandlinglibs</text>
<text text-anchor="middle" x="87.12" y="-94.75" font-family="Helvetica,sans-Serif" font-size="10.00">::SourceConcept</text>
</a>
</g>
</g>
<!-- Node2&#45;&gt;Node1 -->
<g id="edge1_Node000001_Node000002" class="edge">
<title>Node2&#45;&gt;Node1</title>
<g id="a_edge1_Node000001_Node000002"><a xlink:title=" ">
<path fill="none" stroke="#63b8ff" d="M87.12,-77.33C87.12,-69.6 87.12,-61.13 87.12,-53.41"/>
<polygon fill="#63b8ff" stroke="#63b8ff" points="83.63,-77.13 87.13,-87.13 90.63,-77.13 83.63,-77.13"/>
</a>
</g>
</g>
<!-- Node3 -->
<g id="Node000003" class="node">
<title>Node3</title>
<g id="a_Node000003"><a xlink:href="classdunedaq_1_1opmonlib_1_1MonitorableObject.html" target="_top" xlink:title=" ">
<polygon fill="white" stroke="#666666" points="137.5,-186 36.75,-186 36.75,-155.5 137.5,-155.5 137.5,-186"/>
<text text-anchor="start" x="44.75" y="-172.5" font-family="Helvetica,sans-Serif" font-size="10.00">dunedaq::opmonlib::</text>
<text text-anchor="middle" x="87.12" y="-161.25" font-family="Helvetica,sans-Serif" font-size="10.00">MonitorableObject</text>
</a>
</g>
</g>
<!-- Node3&#45;&gt;Node2 -->
<g id="edge2_Node000002_Node000003" class="edge">
<title>Node3&#45;&gt;Node2</title>
<g id="a_edge2_Node000002_Node000003"><a xlink:title=" ">
<path fill="none" stroke="#63b8ff" d="M87.12,-143.81C87.12,-135.64 87.12,-126.91 87.12,-119.83"/>
<polygon fill="#63b8ff" stroke="#63b8ff" points="83.63,-143.6 87.13,-153.6 90.63,-143.6 83.63,-143.6"/>
</a>
</g>
</g>
</g>
</svg>
