<?xml version="1.0" encoding="UTF-8" standalone="no"?>
<!DOCTYPE svg PUBLIC "-//W3C//DTD SVG 1.1//EN"
 "http://www.w3.org/Graphics/SVG/1.1/DTD/svg11.dtd">
<!-- Generated by graphviz version 9.0.0 (20230911.1827)
 -->
<!-- Title: dunedaq::oks::OksRelationshipExpression Pages: 1 -->
<svg width="929pt" height="595pt"
 viewBox="0.00 0.00 929.25 595.00" xmlns="http://www.w3.org/2000/svg" xmlns:xlink="http://www.w3.org/1999/xlink">
<g id="graph0" class="graph" transform="scale(1 1) rotate(0) translate(4 591)">
<title>dunedaq::oks::OksRelationshipExpression</title>
<!-- Node1 -->
<g id="Node000001" class="node">
<title>Node1</title>
<g id="a_Node000001"><a xlink:title="OKS query relationship expression class.">
<polygon fill="#999999" stroke="#666666" points="292.75,-286.25 144,-286.25 144,-255.75 292.75,-255.75 292.75,-286.25"/>
<text text-anchor="start" x="152" y="-272.75" font-family="Helvetica,sans-Serif" font-size="10.00">dunedaq::oks::OksRelationship</text>
<text text-anchor="middle" x="218.38" y="-261.5" font-family="Helvetica,sans-Serif" font-size="10.00">Expression</text>
</a>
</g>
</g>
<!-- Node2 -->
<g id="Node000002" class="node">
<title>Node2</title>
<g id="a_Node000002"><a xlink:href="classdunedaq_1_1oks_1_1OksQueryExpression.html" target="_top" xlink:title="OKS query expression class.">
<polygon fill="white" stroke="#666666" points="335.5,-358.38 167.25,-358.38 167.25,-339.12 335.5,-339.12 335.5,-358.38"/>
<text text-anchor="middle" x="251.38" y="-344.88" font-family="Helvetica,sans-Serif" font-size="10.00">dunedaq::oks::OksQueryExpression</text>
</a>
</g>
</g>
<!-- Node2&#45;&gt;Node1 -->
<g id="edge1_Node000001_Node000002" class="edge">
<title>Node2&#45;&gt;Node1</title>
<g id="a_edge1_Node000001_Node000002"><a xlink:title=" ">
<path fill="none" stroke="#63b8ff" d="M239.35,-328.93C236.86,-324.61 234.38,-319.97 232.38,-315.5 228.15,-306.09 224.61,-295.02 222.14,-286.4"/>
<polygon fill="#63b8ff" stroke="#63b8ff" points="236.34,-330.72 244.54,-337.43 242.32,-327.07 236.34,-330.72"/>
</a>
</g>
</g>
<!-- Node2&#45;&gt;Node1 -->
<g id="edge23_Node000001_Node000002" class="edge">
<title>Node2&#45;&gt;Node1</title>
<g id="a_edge23_Node000001_Node000002"><a xlink:title=" ">
<path fill="none" stroke="#9a32cd" stroke-dasharray="5,2" d="M243.02,-328.57C237.35,-315.56 229.98,-298.63 224.77,-286.69"/>
<polygon fill="#9a32cd" stroke="#9a32cd" points="239.65,-329.61 246.86,-337.38 246.07,-326.81 239.65,-329.61"/>
</a>
</g>
<text text-anchor="middle" x="267" y="-306" font-family="Helvetica,sans-Serif" font-size="10.00" fill="grey"> p_expression</text>
</g>
<!-- Node3 -->
<g id="Node000003" class="node">
<title>Node3</title>
<g id="a_Node000003"><a xlink:href="classdunedaq_1_1oks_1_1OksRelationship.html" target="_top" xlink:title=" ">
<polygon fill="white" stroke="#666666" points="148.75,-358.38 0,-358.38 0,-339.12 148.75,-339.12 148.75,-358.38"/>
<text text-anchor="middle" x="74.38" y="-344.88" font-family="Helvetica,sans-Serif" font-size="10.00">dunedaq::oks::OksRelationship</text>
</a>
</g>
</g>
<!-- Node3&#45;&gt;Node1 -->
<g id="edge2_Node000001_Node000003" class="edge">
<title>Node3&#45;&gt;Node1</title>
<g id="a_edge2_Node000001_Node000003"><a xlink:title=" ">
<path fill="none" stroke="#9a32cd" stroke-dasharray="5,2" d="M101.53,-333.47C126.95,-320.09 164.78,-300.2 190.45,-286.69"/>
<polygon fill="#9a32cd" stroke="#9a32cd" points="100.02,-330.31 92.8,-338.06 103.28,-336.5 100.02,-330.31"/>
</a>
</g>
<text text-anchor="middle" x="181.25" y="-306" font-family="Helvetica,sans-Serif" font-size="10.00" fill="grey"> relationship</text>
</g>
<!-- Node4 -->
<g id="Node000004" class="node">
<title>Node4</title>
<g id="a_Node000004"><a xlink:href="classdunedaq_1_1oks_1_1OksClass.html" target="_top" xlink:title="The OKS class.">
<polygon fill="white" stroke="#666666" points="446.5,-453 326.25,-453 326.25,-433.75 446.5,-433.75 446.5,-453"/>
<text text-anchor="middle" x="386.38" y="-439.5" font-family="Helvetica,sans-Serif" font-size="10.00">dunedaq::oks::OksClass</text>
</a>
</g>
</g>
<!-- Node4&#45;&gt;Node3 -->
<g id="edge3_Node000003_Node000004" class="edge">
<title>Node4&#45;&gt;Node3</title>
<g id="a_edge3_Node000003_Node000004"><a xlink:title=" ">
<path fill="none" stroke="#9a32cd" stroke-dasharray="5,2" d="M343.07,-430.28C327.12,-425.78 308.91,-420.59 292.38,-415.75 224.64,-395.9 145.37,-371.65 103.59,-358.78"/>
<polygon fill="#9a32cd" stroke="#9a32cd" points="341.68,-433.53 352.25,-432.87 343.57,-426.79 341.68,-433.53"/>
</a>
</g>
<text text-anchor="middle" x="320.88" y="-400.62" font-family="Helvetica,sans-Serif" font-size="10.00" fill="grey"> p_class</text>
<text text-anchor="middle" x="320.88" y="-389.38" font-family="Helvetica,sans-Serif" font-size="10.00" fill="grey">p_class_type</text>
</g>
<!-- Node12 -->
<g id="Node000012" class="node">
<title>Node12</title>
<g id="a_Node000012"><a xlink:href="uniondunedaq_1_1oks_1_1OksData_1_1Data.html" target="_top" xlink:title=" ">
<polygon fill="white" stroke="#666666" points="828.25,-364 712.5,-364 712.5,-333.5 828.25,-333.5 828.25,-364"/>
<text text-anchor="start" x="720.5" y="-350.5" font-family="Helvetica,sans-Serif" font-size="10.00">dunedaq::oks::OksData</text>
<text text-anchor="middle" x="770.38" y="-339.25" font-family="Helvetica,sans-Serif" font-size="10.00">::Data</text>
</a>
</g>
</g>
<!-- Node4&#45;&gt;Node12 -->
<g id="edge14_Node000012_Node000004" class="edge">
<title>Node4&#45;&gt;Node12</title>
<g id="a_edge14_Node000012_Node000004"><a xlink:title=" ">
<path fill="none" stroke="#9a32cd" stroke-dasharray="5,2" d="M434.68,-430.72C505.27,-413.7 636.4,-382.07 712.19,-363.78"/>
<polygon fill="#9a32cd" stroke="#9a32cd" points="434.27,-427.22 425.37,-432.97 435.91,-434.03 434.27,-427.22"/>
</a>
</g>
<text text-anchor="middle" x="652.38" y="-400.62" font-family="Helvetica,sans-Serif" font-size="10.00" fill="grey"> CLASS</text>
<text text-anchor="middle" x="652.38" y="-389.38" font-family="Helvetica,sans-Serif" font-size="10.00" fill="grey">class_id</text>
</g>
<!-- Node5 -->
<g id="Node000005" class="node">
<title>Node5</title>
<g id="a_Node000005"><a xlink:href="classdunedaq_1_1oks_1_1OksFile.html" target="_top" xlink:title="Provides interface to the OKS XML schema and data files.">
<polygon fill="white" stroke="#666666" points="594,-19.25 482.75,-19.25 482.75,0 594,0 594,-19.25"/>
<text text-anchor="middle" x="538.38" y="-5.75" font-family="Helvetica,sans-Serif" font-size="10.00">dunedaq::oks::OksFile</text>
</a>
</g>
</g>
<!-- Node5&#45;&gt;Node4 -->
<g id="edge4_Node000004_Node000005" class="edge">
<title>Node5&#45;&gt;Node4</title>
<g id="a_edge4_Node000004_Node000005"><a xlink:title=" ">
<path fill="none" stroke="#9a32cd" stroke-dasharray="5,2" d="M471.19,-13.54C421.84,-19.72 363.38,-37.39 363.38,-86.38 363.38,-349.75 363.38,-349.75 363.38,-349.75 363.38,-381.23 376.04,-417 382.58,-433.36"/>
<polygon fill="#9a32cd" stroke="#9a32cd" points="471.46,-17.03 481.02,-12.46 470.7,-10.07 471.46,-17.03"/>
</a>
</g>
<text text-anchor="middle" x="375.75" y="-228.25" font-family="Helvetica,sans-Serif" font-size="10.00" fill="grey"> p_file</text>
</g>
<!-- Node5&#45;&gt;Node5 -->
<g id="edge5_Node000005_Node000005" class="edge">
<title>Node5&#45;&gt;Node5</title>
<g id="a_edge5_Node000005_Node000005"><a xlink:title=" ">
<path fill="none" stroke="#9a32cd" stroke-dasharray="5,2" d="M605.46,-14.69C609.55,-13.48 612,-11.8 612,-9.62 612,-5.87 604.66,-3.56 594.24,-2.71"/>
<polygon fill="#9a32cd" stroke="#9a32cd" points="605.03,-11.21 595.73,-16.29 606.17,-18.12 605.03,-11.21"/>
</a>
</g>
<text text-anchor="middle" x="643.88" y="-5.75" font-family="Helvetica,sans-Serif" font-size="10.00" fill="grey"> p_included_by</text>
</g>
<!-- Node6 -->
<g id="Node000006" class="node">
<title>Node6</title>
<g id="a_Node000006"><a xlink:href="classdunedaq_1_1oks_1_1OksKernel.html" target="_top" xlink:title="Provides interface to the OKS kernel.">
<polygon fill="white" stroke="#666666" points="600,-97 476.75,-97 476.75,-77.75 600,-77.75 600,-97"/>
<text text-anchor="middle" x="538.38" y="-83.5" font-family="Helvetica,sans-Serif" font-size="10.00">dunedaq::oks::OksKernel</text>
</a>
</g>
</g>
<!-- Node5&#45;&gt;Node6 -->
<g id="edge7_Node000006_Node000005" class="edge">
<title>Node5&#45;&gt;Node6</title>
<g id="a_edge7_Node000006_Node000005"><a xlink:title=" ">
<path fill="none" stroke="#9a32cd" stroke-dasharray="5,2" d="M545.79,-30.22C546.44,-32.56 546.99,-34.94 547.38,-37.25 549,-47.12 549,-49.88 547.38,-59.75 546.36,-65.91 544.11,-72.57 542.11,-77.68"/>
<polygon fill="#9a32cd" stroke="#9a32cd" points="549.11,-29.11 542.6,-20.75 542.48,-31.34 549.11,-29.11"/>
</a>
</g>
<text text-anchor="middle" x="586.62" y="-50.25" font-family="Helvetica,sans-Serif" font-size="10.00" fill="grey"> p_active_data</text>
<text text-anchor="middle" x="586.62" y="-39" font-family="Helvetica,sans-Serif" font-size="10.00" fill="grey">p_active_schema</text>
</g>
<!-- Node9 -->
<g id="Node000009" class="node">
<title>Node9</title>
<g id="a_Node000009"><a xlink:href="classdunedaq_1_1oks_1_1OksObject.html" target="_top" xlink:title="OksObject describes instance of OksClass.">
<polygon fill="white" stroke="#666666" points="847.38,-208.5 723.38,-208.5 723.38,-189.25 847.38,-189.25 847.38,-208.5"/>
<text text-anchor="middle" x="785.38" y="-195" font-family="Helvetica,sans-Serif" font-size="10.00">dunedaq::oks::OksObject</text>
</a>
</g>
</g>
<!-- Node5&#45;&gt;Node9 -->
<g id="edge19_Node000009_Node000005" class="edge">
<title>Node5&#45;&gt;Node9</title>
<g id="a_edge19_Node000009_Node000005"><a xlink:title=" ">
<path fill="none" stroke="#9a32cd" stroke-dasharray="5,2" d="M605.39,-21.65C659.53,-34.34 732.84,-60.86 771.38,-115 787.54,-137.71 787.38,-172.66 786.25,-188.95"/>
<polygon fill="#9a32cd" stroke="#9a32cd" points="606.49,-18.31 595.97,-19.55 604.97,-25.14 606.49,-18.31"/>
</a>
</g>
<text text-anchor="middle" x="760.5" y="-83.5" font-family="Helvetica,sans-Serif" font-size="10.00" fill="grey"> file</text>
</g>
<!-- Node6&#45;&gt;Node4 -->
<g id="edge20_Node000004_Node000006" class="edge">
<title>Node6&#45;&gt;Node4</title>
<g id="a_edge20_Node000004_Node000006"><a xlink:title=" ">
<path fill="none" stroke="#9a32cd" stroke-dasharray="5,2" d="M501.05,-101.68C462.96,-117.93 409.38,-149.41 409.38,-197.88 409.38,-349.75 409.38,-349.75 409.38,-349.75 409.38,-381.23 396.71,-417 390.17,-433.36"/>
<polygon fill="#9a32cd" stroke="#9a32cd" points="501.99,-105.08 509.93,-98.06 499.35,-98.59 501.99,-105.08"/>
</a>
</g>
<text text-anchor="middle" x="428.88" y="-267.12" font-family="Helvetica,sans-Serif" font-size="10.00" fill="grey"> p_kernel</text>
</g>
<!-- Node6&#45;&gt;Node5 -->
<g id="edge6_Node000005_Node000006" class="edge">
<title>Node6&#45;&gt;Node5</title>
<g id="a_edge6_Node000005_Node000006"><a xlink:title=" ">
<path fill="none" stroke="#9a32cd" stroke-dasharray="5,2" d="M515.23,-69.8C512.46,-66.79 510.02,-63.42 508.38,-59.75 504.27,-50.63 504.27,-46.37 508.38,-37.25 511.57,-30.14 517.71,-24.15 523.61,-19.67"/>
<polygon fill="#9a32cd" stroke="#9a32cd" points="512.71,-72.24 522.49,-76.32 517.39,-67.03 512.71,-72.24"/>
</a>
</g>
<text text-anchor="middle" x="527.88" y="-44.62" font-family="Helvetica,sans-Serif" font-size="10.00" fill="grey"> p_kernel</text>
</g>
<!-- Node7 -->
<g id="Node000007" class="node">
<title>Node7</title>
<g id="a_Node000007"><a xlink:href="classdunedaq_1_1oks_1_1OksProfiler.html" target="_top" xlink:title=" ">
<polygon fill="white" stroke="#666666" points="563.12,-208.5 437.62,-208.5 437.62,-189.25 563.12,-189.25 563.12,-208.5"/>
<text text-anchor="middle" x="500.38" y="-195" font-family="Helvetica,sans-Serif" font-size="10.00">dunedaq::oks::OksProfiler</text>
</a>
</g>
</g>
<!-- Node7&#45;&gt;Node6 -->
<g id="edge8_Node000006_Node000007" class="edge">
<title>Node7&#45;&gt;Node6</title>
<g id="a_edge8_Node000006_Node000007"><a xlink:title=" ">
<path fill="none" stroke="#9a32cd" stroke-dasharray="5,2" d="M504.55,-178.12C508.48,-161.05 515.04,-135.91 523.62,-115 526.11,-108.94 529.65,-102.5 532.64,-97.48"/>
<polygon fill="#9a32cd" stroke="#9a32cd" points="501.23,-176.94 502.49,-187.46 508.06,-178.45 501.23,-176.94"/>
</a>
</g>
<text text-anchor="middle" x="538.75" y="-139.25" font-family="Helvetica,sans-Serif" font-size="10.00" fill="grey"> profiler</text>
</g>
<!-- Node8 -->
<g id="Node000008" class="node">
<title>Node8</title>
<g id="a_Node000008"><a xlink:href="structdunedaq_1_1oks_1_1LoadErrors.html" target="_top" xlink:title=" ">
<polygon fill="white" stroke="#666666" points="705.75,-208.5 581,-208.5 581,-189.25 705.75,-189.25 705.75,-208.5"/>
<text text-anchor="middle" x="643.38" y="-195" font-family="Helvetica,sans-Serif" font-size="10.00">dunedaq::oks::LoadErrors</text>
</a>
</g>
</g>
<!-- Node8&#45;&gt;Node6 -->
<g id="edge9_Node000006_Node000008" class="edge">
<title>Node8&#45;&gt;Node6</title>
<g id="a_edge9_Node000006_Node000008"><a xlink:title=" ">
<path fill="none" stroke="#9a32cd" stroke-dasharray="5,2" d="M596.37,-184.3C589.51,-180.84 582.97,-176.56 577.62,-171.25 558.43,-152.19 566.54,-139.16 554.38,-115 551.27,-108.83 547.27,-102.18 544.05,-97.06"/>
<polygon fill="#9a32cd" stroke="#9a32cd" points="594.61,-187.35 605.17,-188.18 597.43,-180.94 594.61,-187.35"/>
</a>
</g>
<text text-anchor="middle" x="607.75" y="-139.25" font-family="Helvetica,sans-Serif" font-size="10.00" fill="grey"> p_load_errors</text>
</g>
<!-- Node9&#45;&gt;Node6 -->
<g id="edge10_Node000006_Node000009" class="edge">
<title>Node9&#45;&gt;Node6</title>
<g id="a_edge10_Node000006_Node000009"><a xlink:title=" ">
<path fill="none" stroke="#9a32cd" stroke-dasharray="5,2" d="M711.8,-188.02C689.88,-183.83 669.47,-178.26 661.12,-171.25 640.48,-153.9 658.59,-132.85 638.38,-115 627.74,-105.61 614.14,-99.47 600.43,-95.49"/>
<polygon fill="#9a32cd" stroke="#9a32cd" points="711.04,-191.44 721.5,-189.76 712.28,-184.55 711.04,-191.44"/>
</a>
</g>
<text text-anchor="start" x="660.38" y="-161.75" font-family="Helvetica,sans-Serif" font-size="10.00" fill="grey"> p_change_object_notify</text>
<text text-anchor="middle" x="715.5" y="-150.5" font-family="Helvetica,sans-Serif" font-size="10.00" fill="grey">_fn</text>
<text text-anchor="start" x="660.38" y="-139.25" font-family="Helvetica,sans-Serif" font-size="10.00" fill="grey">p_create_object_notify</text>
<text text-anchor="middle" x="715.5" y="-128" font-family="Helvetica,sans-Serif" font-size="10.00" fill="grey">_fn</text>
<text text-anchor="middle" x="715.5" y="-116.75" font-family="Helvetica,sans-Serif" font-size="10.00" fill="grey">p_delete_object_notify_fn</text>
</g>
<!-- Node9&#45;&gt;Node12 -->
<g id="edge15_Node000012_Node000009" class="edge">
<title>Node9&#45;&gt;Node12</title>
<g id="a_edge15_Node000012_Node000009"><a xlink:title=" ">
<path fill="none" stroke="#9a32cd" stroke-dasharray="5,2" d="M772.65,-218.42C766.25,-228.88 759.16,-242.47 755.88,-255.75 749.19,-282.75 758.03,-315 764.56,-333.25"/>
<polygon fill="#9a32cd" stroke="#9a32cd" points="775.56,-220.37 778.06,-210.07 769.68,-216.56 775.56,-220.37"/>
</a>
</g>
<text text-anchor="middle" x="775.62" y="-267.12" font-family="Helvetica,sans-Serif" font-size="10.00" fill="grey"> OBJECT</text>
</g>
<!-- Node10 -->
<g id="Node000010" class="node">
<title>Node10</title>
<g id="a_Node000010"><a xlink:title=" ">
<polygon fill="white" stroke="#666666" points="717.75,-453 677,-453 677,-433.75 717.75,-433.75 717.75,-453"/>
<text text-anchor="middle" x="697.38" y="-439.5" font-family="Helvetica,sans-Serif" font-size="10.00">struct</text>
</a>
</g>
</g>
<!-- Node10&#45;&gt;Node9 -->
<g id="edge11_Node000009_Node000010" class="edge">
<title>Node10&#45;&gt;Node9</title>
<g id="a_edge11_Node000009_Node000010"><a xlink:title=" ">
<path fill="none" stroke="#9a32cd" stroke-dasharray="5,2" d="M693.21,-422.37C692.87,-420.14 692.58,-417.9 692.38,-415.75 690.98,-400.81 690.71,-396.91 692.38,-382 700.71,-307.56 712.7,-286.63 757.38,-226.5 762.18,-220.04 768.63,-213.78 774.13,-208.96"/>
<polygon fill="#9a32cd" stroke="#9a32cd" points="689.74,-422.88 695.02,-432.07 696.62,-421.6 689.74,-422.88"/>
</a>
</g>
<text text-anchor="middle" x="715.88" y="-306" font-family="Helvetica,sans-Serif" font-size="10.00" fill="grey"> uid</text>
</g>
<!-- Node10&#45;&gt;Node12 -->
<g id="edge18_Node000012_Node000010" class="edge">
<title>Node10&#45;&gt;Node12</title>
<g id="a_edge18_Node000012_Node000010"><a xlink:title=" ">
<path fill="none" stroke="#9a32cd" stroke-dasharray="5,2" d="M728.42,-430.97C735.76,-427.07 743,-422.05 748.38,-415.75 760.91,-401.04 766.37,-378.94 768.7,-364.43"/>
<polygon fill="#9a32cd" stroke="#9a32cd" points="727.12,-427.71 719.54,-435.11 730.08,-434.05 727.12,-427.71"/>
</a>
</g>
<text text-anchor="middle" x="775.62" y="-400.62" font-family="Helvetica,sans-Serif" font-size="10.00" fill="grey"> UID</text>
<text text-anchor="middle" x="775.62" y="-389.38" font-family="Helvetica,sans-Serif" font-size="10.00" fill="grey">UID2</text>
</g>
<!-- Node11 -->
<g id="Node000011" class="node">
<title>Node11</title>
<g id="a_Node000011"><a xlink:href="structdunedaq_1_1oks_1_1OksData.html" target="_top" xlink:title="the structure to pass common parameters to various read() methods of OksData and OksObject class">
<polygon fill="white" stroke="#666666" points="921.25,-280.62 805.5,-280.62 805.5,-261.38 921.25,-261.38 921.25,-280.62"/>
<text text-anchor="middle" x="863.38" y="-267.12" font-family="Helvetica,sans-Serif" font-size="10.00">dunedaq::oks::OksData</text>
</a>
</g>
</g>
<!-- Node11&#45;&gt;Node9 -->
<g id="edge12_Node000009_Node000011" class="edge">
<title>Node11&#45;&gt;Node9</title>
<g id="a_edge12_Node000009_Node000011"><a xlink:title=" ">
<path fill="none" stroke="#9a32cd" stroke-dasharray="5,2" d="M845.2,-253.66C829.7,-239.72 807.97,-220.19 795.42,-208.91"/>
<polygon fill="#9a32cd" stroke="#9a32cd" points="842.59,-256.02 852.37,-260.11 847.27,-250.82 842.59,-256.02"/>
</a>
</g>
<text text-anchor="middle" x="836.88" y="-228.25" font-family="Helvetica,sans-Serif" font-size="10.00" fill="grey"> data</text>
</g>
<!-- Node12&#45;&gt;Node11 -->
<g id="edge13_Node000011_Node000012" class="edge">
<title>Node12&#45;&gt;Node11</title>
<g id="a_edge13_Node000011_Node000012"><a xlink:title=" ">
<path fill="none" stroke="#9a32cd" stroke-dasharray="5,2" d="M797.07,-326C815.36,-311.11 838.66,-292.13 852.21,-281.09"/>
<polygon fill="#9a32cd" stroke="#9a32cd" points="795.02,-323.16 789.48,-332.19 799.44,-328.59 795.02,-323.16"/>
</a>
</g>
<text text-anchor="middle" x="832.88" y="-306" font-family="Helvetica,sans-Serif" font-size="10.00" fill="grey"> data</text>
</g>
<!-- Node13 -->
<g id="Node000013" class="node">
<title>Node13</title>
<g id="a_Node000013"><a xlink:href="classdunedaq_1_1oks_1_1OksString.html" target="_top" xlink:title="Class OKS string.">
<polygon fill="white" stroke="#666666" points="876.88,-453 755.88,-453 755.88,-433.75 876.88,-433.75 876.88,-453"/>
<text text-anchor="middle" x="816.38" y="-439.5" font-family="Helvetica,sans-Serif" font-size="10.00">dunedaq::oks::OksString</text>
</a>
</g>
</g>
<!-- Node13&#45;&gt;Node12 -->
<g id="edge16_Node000012_Node000013" class="edge">
<title>Node13&#45;&gt;Node12</title>
<g id="a_edge16_Node000012_Node000013"><a xlink:title=" ">
<path fill="none" stroke="#9a32cd" stroke-dasharray="5,2" d="M810.81,-422.72C807,-410.61 801.37,-394.96 794.38,-382 791.06,-375.86 786.68,-369.59 782.56,-364.24"/>
<polygon fill="#9a32cd" stroke="#9a32cd" points="807.36,-423.4 813.57,-431.98 814.07,-421.4 807.36,-423.4"/>
</a>
</g>
<text text-anchor="middle" x="828.25" y="-406.25" font-family="Helvetica,sans-Serif" font-size="10.00" fill="grey"> STRING</text>
<text text-anchor="middle" x="828.25" y="-395" font-family="Helvetica,sans-Serif" font-size="10.00" fill="grey">class_id</text>
<text text-anchor="middle" x="828.25" y="-383.75" font-family="Helvetica,sans-Serif" font-size="10.00" fill="grey">object_id</text>
</g>
<!-- Node14 -->
<g id="Node000014" class="node">
<title>Node14</title>
<g id="a_Node000014"><a xlink:title=" ">
<polygon fill="white" stroke="#666666" points="845.38,-519.5 787.38,-519.5 787.38,-500.25 845.38,-500.25 845.38,-519.5"/>
<text text-anchor="middle" x="816.38" y="-506" font-family="Helvetica,sans-Serif" font-size="10.00">std::string</text>
</a>
</g>
</g>
<!-- Node14&#45;&gt;Node13 -->
<g id="edge17_Node000013_Node000014" class="edge">
<title>Node14&#45;&gt;Node13</title>
<g id="a_edge17_Node000013_Node000014"><a xlink:title=" ">
<path fill="none" stroke="#63b8ff" d="M816.38,-488.4C816.38,-476.57 816.38,-462.29 816.38,-453.27"/>
<polygon fill="#63b8ff" stroke="#63b8ff" points="812.88,-488.39 816.38,-498.39 819.88,-488.39 812.88,-488.39"/>
</a>
</g>
</g>
<!-- Node15 -->
<g id="Node000015" class="node">
<title>Node15</title>
<g id="a_Node000015"><a xlink:href="classdunedaq_1_1conffwk_1_1map.html" target="_top" xlink:title=" ">
<polygon fill="white" stroke="#666666" points="454.75,-519.5 318,-519.5 318,-500.25 454.75,-500.25 454.75,-519.5"/>
<text text-anchor="middle" x="386.38" y="-506" font-family="Helvetica,sans-Serif" font-size="10.00">dunedaq::conffwk::map&lt; T &gt;</text>
</a>
</g>
</g>
<!-- Node15&#45;&gt;Node4 -->
<g id="edge21_Node000004_Node000015" class="edge">
<title>Node15&#45;&gt;Node4</title>
<g id="a_edge21_Node000004_Node000015"><a xlink:title=" ">
<path fill="none" stroke="#9a32cd" stroke-dasharray="5,2" d="M386.38,-488.4C386.38,-476.57 386.38,-462.29 386.38,-453.27"/>
<polygon fill="#9a32cd" stroke="#9a32cd" points="382.88,-488.39 386.38,-498.39 389.88,-488.39 382.88,-488.39"/>
</a>
</g>
<text text-anchor="middle" x="412.62" y="-472.75" font-family="Helvetica,sans-Serif" font-size="10.00" fill="grey"> p_data_info</text>
</g>
<!-- Node16 -->
<g id="Node000016" class="node">
<title>Node16</title>
<g id="a_Node000016"><a xlink:title=" ">
<polygon fill="white" stroke="#666666" points="436.75,-587 336,-587 336,-556.5 436.75,-556.5 436.75,-587"/>
<text text-anchor="start" x="344" y="-573.5" font-family="Helvetica,sans-Serif" font-size="10.00">std::unordered_map</text>
<text text-anchor="middle" x="386.38" y="-562.25" font-family="Helvetica,sans-Serif" font-size="10.00">&lt; std::string, T &gt;</text>
</a>
</g>
</g>
<!-- Node16&#45;&gt;Node15 -->
<g id="edge22_Node000015_Node000016" class="edge">
<title>Node16&#45;&gt;Node15</title>
<g id="a_edge22_Node000015_Node000016"><a xlink:title=" ">
<path fill="none" stroke="#63b8ff" d="M386.38,-545.02C386.38,-536.04 386.38,-526.54 386.38,-519.85"/>
<polygon fill="#63b8ff" stroke="#63b8ff" points="382.88,-544.74 386.38,-554.74 389.88,-544.74 382.88,-544.74"/>
</a>
</g>
</g>
</g>
</svg>
