<?xml version="1.0" encoding="UTF-8" standalone="no"?>
<!DOCTYPE svg PUBLIC "-//W3C//DTD SVG 1.1//EN"
 "http://www.w3.org/Graphics/SVG/1.1/DTD/svg11.dtd">
<!-- Generated by graphviz version 9.0.0 (20230911.1827)
 -->
<!-- Title: dunedaq::appmodel::ProcessingStep Pages: 1 -->
<svg width="858pt" height="137pt"
 viewBox="0.00 0.00 857.50 136.50" xmlns="http://www.w3.org/2000/svg" xmlns:xlink="http://www.w3.org/1999/xlink">
<g id="graph0" class="graph" transform="scale(1 1) rotate(0) translate(4 132.5)">
<title>dunedaq::appmodel::ProcessingStep</title>
<!-- Node1 -->
<g id="Node000001" class="node">
<title>Node1</title>
<g id="a_Node000001"><a xlink:title=" ">
<polygon fill="#999999" stroke="#666666" points="416.25,-79.5 312.5,-79.5 312.5,-49 416.25,-49 416.25,-79.5"/>
<text text-anchor="start" x="320.5" y="-66" font-family="Helvetica,sans-Serif" font-size="10.00">dunedaq::appmodel::</text>
<text text-anchor="middle" x="364.38" y="-54.75" font-family="Helvetica,sans-Serif" font-size="10.00">ProcessingStep</text>
</a>
</g>
</g>
<!-- Node4 -->
<g id="Node000004" class="node">
<title>Node4</title>
<g id="a_Node000004"><a xlink:href="classdunedaq_1_1appmodel_1_1AVXFrugalPedestalSubtractProcessor.html" target="_top" xlink:title=" ">
<polygon fill="white" stroke="#666666" points="634.75,-128.5 452.25,-128.5 452.25,-98 634.75,-98 634.75,-128.5"/>
<text text-anchor="start" x="460.25" y="-115" font-family="Helvetica,sans-Serif" font-size="10.00">dunedaq::appmodel::</text>
<text text-anchor="middle" x="543.5" y="-103.75" font-family="Helvetica,sans-Serif" font-size="10.00">AVXFrugalPedestalSubtractProcessor</text>
</a>
</g>
</g>
<!-- Node1&#45;&gt;Node4 -->
<g id="edge5_Node000001_Node000004" class="edge">
<title>Node1&#45;&gt;Node4</title>
<g id="a_edge5_Node000001_Node000004"><a xlink:title=" ">
<path fill="none" stroke="#63b8ff" d="M427.6,-74.99C453.81,-81.68 483.41,-90.17 506,-97.57"/>
<polygon fill="#63b8ff" stroke="#63b8ff" points="428.63,-71.64 418.08,-72.6 426.93,-78.43 428.63,-71.64"/>
</a>
</g>
</g>
<!-- Node1&#45;&gt;Node4 -->
<g id="edge8_Node000001_Node000004" class="edge">
<title>Node1&#45;&gt;Node4</title>
<g id="a_edge8_Node000001_Node000004"><a xlink:title=" ">
<path fill="none" stroke="#63b8ff" d="M413.03,-83.5C427.92,-88.15 444.78,-93.04 461.3,-97.51"/>
<polygon fill="#63b8ff" stroke="#63b8ff" points="414.11,-80.17 403.52,-80.46 411.98,-86.84 414.11,-80.17"/>
</a>
</g>
</g>
<!-- Node6 -->
<g id="Node000006" class="node">
<title>Node6</title>
<g id="a_Node000006"><a xlink:href="classdunedaq_1_1appmodel_1_1AVXRunSumProcessor.html" target="_top" xlink:title=" ">
<polygon fill="white" stroke="#666666" points="602.5,-79.5 484.5,-79.5 484.5,-49 602.5,-49 602.5,-79.5"/>
<text text-anchor="start" x="492.5" y="-66" font-family="Helvetica,sans-Serif" font-size="10.00">dunedaq::appmodel::</text>
<text text-anchor="middle" x="543.5" y="-54.75" font-family="Helvetica,sans-Serif" font-size="10.00">AVXRunSumProcessor</text>
</a>
</g>
</g>
<!-- Node1&#45;&gt;Node6 -->
<g id="edge9_Node000001_Node000006" class="edge">
<title>Node1&#45;&gt;Node6</title>
<g id="a_edge9_Node000001_Node000006"><a xlink:title=" ">
<path fill="none" stroke="#63b8ff" d="M428.05,-57.76C446.33,-57.38 466.22,-57.41 484.22,-57.86"/>
<polygon fill="#63b8ff" stroke="#63b8ff" points="428.02,-54.26 418.12,-58.02 428.21,-61.26 428.02,-54.26"/>
</a>
</g>
</g>
<!-- Node1&#45;&gt;Node6 -->
<g id="edge12_Node000001_Node000006" class="edge">
<title>Node1&#45;&gt;Node6</title>
<g id="a_edge12_Node000001_Node000006"><a xlink:title=" ">
<path fill="none" stroke="#63b8ff" d="M428.05,-70.74C446.33,-71.12 466.22,-71.09 484.22,-70.64"/>
<polygon fill="#63b8ff" stroke="#63b8ff" points="428.21,-67.24 418.12,-70.48 428.02,-74.24 428.21,-67.24"/>
</a>
</g>
</g>
<!-- Node8 -->
<g id="Node000008" class="node">
<title>Node8</title>
<g id="a_Node000008"><a xlink:href="classdunedaq_1_1appmodel_1_1AVXThresholdProcessor.html" target="_top" xlink:title=" ">
<polygon fill="white" stroke="#666666" points="605.12,-30.5 481.88,-30.5 481.88,0 605.12,0 605.12,-30.5"/>
<text text-anchor="start" x="489.88" y="-17" font-family="Helvetica,sans-Serif" font-size="10.00">dunedaq::appmodel::</text>
<text text-anchor="middle" x="543.5" y="-5.75" font-family="Helvetica,sans-Serif" font-size="10.00">AVXThresholdProcessor</text>
</a>
</g>
</g>
<!-- Node1&#45;&gt;Node8 -->
<g id="edge13_Node000001_Node000008" class="edge">
<title>Node1&#45;&gt;Node8</title>
<g id="a_edge13_Node000001_Node000008"><a xlink:title=" ">
<path fill="none" stroke="#63b8ff" d="M413,-45.01C434.05,-38.43 459.04,-31.38 481.44,-25.69"/>
<polygon fill="#63b8ff" stroke="#63b8ff" points="411.98,-41.66 403.52,-48.04 414.11,-48.33 411.98,-41.66"/>
</a>
</g>
</g>
<!-- Node1&#45;&gt;Node8 -->
<g id="edge14_Node000001_Node000008" class="edge">
<title>Node1&#45;&gt;Node8</title>
<g id="a_edge14_Node000001_Node000008"><a xlink:title=" ">
<path fill="none" stroke="#63b8ff" d="M427.6,-53.51C453.81,-46.82 483.41,-38.33 506,-30.93"/>
<polygon fill="#63b8ff" stroke="#63b8ff" points="426.93,-50.07 418.08,-55.9 428.63,-56.86 426.93,-50.07"/>
</a>
</g>
</g>
<!-- Node2 -->
<g id="Node000002" class="node">
<title>Node2</title>
<g id="a_Node000002"><a xlink:href="classdunedaq_1_1confmodel_1_1Jsonable.html" target="_top" xlink:title=" ">
<polygon fill="white" stroke="#666666" points="276.5,-79.5 174.25,-79.5 174.25,-49 276.5,-49 276.5,-79.5"/>
<text text-anchor="start" x="182.25" y="-66" font-family="Helvetica,sans-Serif" font-size="10.00">dunedaq::confmodel</text>
<text text-anchor="middle" x="225.38" y="-54.75" font-family="Helvetica,sans-Serif" font-size="10.00">::Jsonable</text>
</a>
</g>
</g>
<!-- Node2&#45;&gt;Node1 -->
<g id="edge1_Node000001_Node000002" class="edge">
<title>Node2&#45;&gt;Node1</title>
<g id="a_edge1_Node000001_Node000002"><a xlink:title=" ">
<path fill="none" stroke="#63b8ff" d="M288.44,-57.53C296.33,-57.46 304.34,-57.52 312.04,-57.69"/>
<polygon fill="#63b8ff" stroke="#63b8ff" points="288.46,-54.03 278.51,-57.68 288.57,-61.02 288.46,-54.03"/>
</a>
</g>
</g>
<!-- Node2&#45;&gt;Node1 -->
<g id="edge4_Node000001_Node000002" class="edge">
<title>Node2&#45;&gt;Node1</title>
<g id="a_edge4_Node000001_Node000002"><a xlink:title=" ">
<path fill="none" stroke="#63b8ff" d="M288.44,-70.97C296.33,-71.04 304.34,-70.98 312.04,-70.81"/>
<polygon fill="#63b8ff" stroke="#63b8ff" points="288.57,-67.48 278.51,-70.82 288.46,-74.47 288.57,-67.48"/>
</a>
</g>
</g>
<!-- Node3 -->
<g id="Node000003" class="node">
<title>Node3</title>
<g id="a_Node000003"><a xlink:href="classdunedaq_1_1conffwk_1_1DalObject.html" target="_top" xlink:title="The base class for any generated DAL object.">
<polygon fill="white" stroke="#666666" points="138.25,-73.88 0,-73.88 0,-54.62 138.25,-54.62 138.25,-73.88"/>
<text text-anchor="middle" x="69.12" y="-60.38" font-family="Helvetica,sans-Serif" font-size="10.00">dunedaq::conffwk::DalObject</text>
</a>
</g>
</g>
<!-- Node3&#45;&gt;Node2 -->
<g id="edge2_Node000002_Node000003" class="edge">
<title>Node3&#45;&gt;Node2</title>
<g id="a_edge2_Node000002_Node000003"><a xlink:title=" ">
<path fill="none" stroke="#63b8ff" d="M150.17,-57.5C158.3,-57.53 166.39,-57.65 174.08,-57.88"/>
<polygon fill="#63b8ff" stroke="#63b8ff" points="150.18,-54 140.19,-57.53 150.2,-61 150.18,-54"/>
</a>
</g>
</g>
<!-- Node3&#45;&gt;Node2 -->
<g id="edge3_Node000002_Node000003" class="edge">
<title>Node3&#45;&gt;Node2</title>
<g id="a_edge3_Node000002_Node000003"><a xlink:title=" ">
<path fill="none" stroke="#63b8ff" d="M150.17,-71C158.3,-70.97 166.39,-70.85 174.08,-70.62"/>
<polygon fill="#63b8ff" stroke="#63b8ff" points="150.2,-67.5 140.19,-70.97 150.18,-74.5 150.2,-67.5"/>
</a>
</g>
</g>
<!-- Node5 -->
<g id="Node000005" class="node">
<title>Node5</title>
<g id="a_Node000005"><a xlink:href="classdunedaq_1_1appmodel_1_1AVXFixedPedestalSubtractProcessor.html" target="_top" xlink:title=" ">
<polygon fill="white" stroke="#666666" points="849.5,-128.5 670.75,-128.5 670.75,-98 849.5,-98 849.5,-128.5"/>
<text text-anchor="start" x="678.75" y="-115" font-family="Helvetica,sans-Serif" font-size="10.00">dunedaq::appmodel::</text>
<text text-anchor="middle" x="760.12" y="-103.75" font-family="Helvetica,sans-Serif" font-size="10.00">AVXFixedPedestalSubtractProcessor</text>
</a>
</g>
</g>
<!-- Node4&#45;&gt;Node5 -->
<g id="edge6_Node000004_Node000005" class="edge">
<title>Node4&#45;&gt;Node5</title>
<g id="a_edge6_Node000004_Node000005"><a xlink:title=" ">
<path fill="none" stroke="#63b8ff" d="M646.49,-106.51C654.5,-106.49 662.54,-106.51 670.45,-106.59"/>
<polygon fill="#63b8ff" stroke="#63b8ff" points="646.7,-103.01 636.72,-106.56 646.74,-110.01 646.7,-103.01"/>
</a>
</g>
</g>
<!-- Node4&#45;&gt;Node5 -->
<g id="edge7_Node000004_Node000005" class="edge">
<title>Node4&#45;&gt;Node5</title>
<g id="a_edge7_Node000004_Node000005"><a xlink:title=" ">
<path fill="none" stroke="#63b8ff" d="M646.49,-119.99C654.5,-120.01 662.54,-119.99 670.45,-119.91"/>
<polygon fill="#63b8ff" stroke="#63b8ff" points="646.74,-116.49 636.72,-119.94 646.7,-123.49 646.74,-116.49"/>
</a>
</g>
</g>
<!-- Node7 -->
<g id="Node000007" class="node">
<title>Node7</title>
<g id="a_Node000007"><a xlink:href="classdunedaq_1_1appmodel_1_1AVXAbsRunSumProcessor.html" target="_top" xlink:title=" ">
<polygon fill="white" stroke="#666666" points="827.75,-79.5 692.5,-79.5 692.5,-49 827.75,-49 827.75,-79.5"/>
<text text-anchor="start" x="700.5" y="-66" font-family="Helvetica,sans-Serif" font-size="10.00">dunedaq::appmodel::</text>
<text text-anchor="middle" x="760.12" y="-54.75" font-family="Helvetica,sans-Serif" font-size="10.00">AVXAbsRunSumProcessor</text>
</a>
</g>
</g>
<!-- Node6&#45;&gt;Node7 -->
<g id="edge10_Node000006_Node000007" class="edge">
<title>Node6&#45;&gt;Node7</title>
<g id="a_edge10_Node000006_Node000007"><a xlink:title=" ">
<path fill="none" stroke="#63b8ff" d="M614.11,-57.88C639.12,-57.35 667.25,-57.37 692.04,-57.94"/>
<polygon fill="#63b8ff" stroke="#63b8ff" points="614.29,-54.38 604.38,-58.13 614.46,-61.38 614.29,-54.38"/>
</a>
</g>
</g>
<!-- Node6&#45;&gt;Node7 -->
<g id="edge11_Node000006_Node000007" class="edge">
<title>Node6&#45;&gt;Node7</title>
<g id="a_edge11_Node000006_Node000007"><a xlink:title=" ">
<path fill="none" stroke="#63b8ff" d="M614.11,-70.62C639.12,-71.15 667.25,-71.13 692.04,-70.56"/>
<polygon fill="#63b8ff" stroke="#63b8ff" points="614.46,-67.12 604.38,-70.37 614.29,-74.12 614.46,-67.12"/>
</a>
</g>
</g>
</g>
</svg>
