<?xml version="1.0" encoding="UTF-8" standalone="no"?>
<!DOCTYPE svg PUBLIC "-//W3C//DTD SVG 1.1//EN"
 "http://www.w3.org/Graphics/SVG/1.1/DTD/svg11.dtd">
<!-- Generated by graphviz version 9.0.0 (20230911.1827)
 -->
<!-- Title: conffwk.Configuration._ConfigurationProxy Pages: 1 -->
<svg width="267pt" height="94pt"
 viewBox="0.00 0.00 266.50 93.75" xmlns="http://www.w3.org/2000/svg" xmlns:xlink="http://www.w3.org/1999/xlink">
<g id="graph0" class="graph" transform="scale(1 1) rotate(0) translate(4 89.75)">
<title>conffwk.Configuration._ConfigurationProxy</title>
<!-- Node1 -->
<g id="Node000001" class="node">
<title>Node1</title>
<g id="a_Node000001"><a xlink:title=" ">
<polygon fill="#999999" stroke="#666666" points="146.38,-30.5 35.88,-30.5 35.88,0 146.38,0 146.38,-30.5"/>
<text text-anchor="start" x="43.88" y="-17" font-family="Helvetica,sans-Serif" font-size="10.00">conffwk.Configuration.</text>
<text text-anchor="middle" x="91.12" y="-5.75" font-family="Helvetica,sans-Serif" font-size="10.00">_ConfigurationProxy</text>
</a>
</g>
</g>
<!-- Node2 -->
<g id="Node000002" class="node">
<title>Node2</title>
<g id="a_Node000002"><a xlink:title=" ">
<polygon fill="white" stroke="#666666" points="42.25,-85.75 0,-85.75 0,-66.5 42.25,-66.5 42.25,-85.75"/>
<text text-anchor="middle" x="21.12" y="-72.25" font-family="Helvetica,sans-Serif" font-size="10.00">object</text>
</a>
</g>
</g>
<!-- Node2&#45;&gt;Node1 -->
<g id="edge1_Node000001_Node000002" class="edge">
<title>Node2&#45;&gt;Node1</title>
<g id="a_edge1_Node000001_Node000002"><a xlink:title=" ">
<path fill="none" stroke="#63b8ff" d="M40.55,-58.79C50.99,-50.01 63.75,-39.27 73.85,-30.78"/>
<polygon fill="#63b8ff" stroke="#63b8ff" points="38.31,-56.09 32.91,-65.21 42.82,-61.45 38.31,-56.09"/>
</a>
</g>
</g>
<!-- Node3 -->
<g id="Node000003" class="node">
<title>Node3</title>
<g id="a_Node000003"><a xlink:title=" ">
<polygon fill="white" stroke="#666666" points="121.62,-85.75 60.62,-85.75 60.62,-66.5 121.62,-66.5 121.62,-85.75"/>
<text text-anchor="middle" x="91.12" y="-72.25" font-family="Helvetica,sans-Serif" font-size="10.00">metaclass</text>
</a>
</g>
</g>
<!-- Node3&#45;&gt;Node1 -->
<g id="edge2_Node000001_Node000003" class="edge">
<title>Node3&#45;&gt;Node1</title>
<g id="a_edge2_Node000001_Node000003"><a xlink:title=" ">
<path fill="none" stroke="#63b8ff" d="M91.12,-54.92C91.12,-46.99 91.12,-38.06 91.12,-30.78"/>
<polygon fill="#63b8ff" stroke="#63b8ff" points="87.63,-54.67 91.13,-64.67 94.63,-54.67 87.63,-54.67"/>
</a>
</g>
</g>
<!-- Node4 -->
<g id="Node000004" class="node">
<title>Node4</title>
<g id="a_Node000004"><a xlink:title=" ">
<polygon fill="white" stroke="#666666" points="258.5,-85.75 139.75,-85.75 139.75,-66.5 258.5,-66.5 258.5,-85.75"/>
<text text-anchor="middle" x="199.12" y="-72.25" font-family="Helvetica,sans-Serif" font-size="10.00">_DelegateMetaFunction</text>
</a>
</g>
</g>
<!-- Node4&#45;&gt;Node1 -->
<g id="edge3_Node000001_Node000004" class="edge">
<title>Node4&#45;&gt;Node1</title>
<g id="a_edge3_Node000001_Node000004"><a xlink:title=" ">
<path fill="none" stroke="#63b8ff" d="M173.03,-60.9C156.29,-51.77 134.63,-39.96 117.78,-30.78"/>
<polygon fill="#63b8ff" stroke="#63b8ff" points="170.94,-63.75 181.39,-65.46 174.29,-57.6 170.94,-63.75"/>
</a>
</g>
</g>
</g>
</svg>
