<?xml version="1.0" encoding="UTF-8" standalone="no"?>
<!DOCTYPE svg PUBLIC "-//W3C//DTD SVG 1.1//EN"
 "http://www.w3.org/Graphics/SVG/1.1/DTD/svg11.dtd">
<!-- Generated by graphviz version 9.0.0 (20230911.1827)
 -->
<!-- Title: dunedaq::opmon::OpMonValue Pages: 1 -->
<svg width="302pt" height="183pt"
 viewBox="0.00 0.00 301.88 182.75" xmlns="http://www.w3.org/2000/svg" xmlns:xlink="http://www.w3.org/1999/xlink">
<g id="graph0" class="graph" transform="scale(1 1) rotate(0) translate(4 178.75)">
<title>dunedaq::opmon::OpMonValue</title>
<!-- Node1 -->
<g id="Node000001" class="node">
<title>Node1</title>
<g id="a_Node000001"><a xlink:title=" ">
<polygon fill="#999999" stroke="#666666" points="153.88,-19.25 6.62,-19.25 6.62,0 153.88,0 153.88,-19.25"/>
<text text-anchor="middle" x="80.25" y="-5.75" font-family="Helvetica,sans-Serif" font-size="10.00">dunedaq::opmon::OpMonValue</text>
</a>
</g>
</g>
<!-- Node2 -->
<g id="Node000002" class="node">
<title>Node2</title>
<g id="a_Node000002"><a xlink:title=" ">
<polygon fill="white" stroke="#666666" points="128.5,-91.38 0,-91.38 0,-72.12 128.5,-72.12 128.5,-91.38"/>
<text text-anchor="middle" x="64.25" y="-77.88" font-family="Helvetica,sans-Serif" font-size="10.00">google::protobuf::Message</text>
</a>
</g>
</g>
<!-- Node2&#45;&gt;Node1 -->
<g id="edge1_Node000001_Node000002" class="edge">
<title>Node2&#45;&gt;Node1</title>
<g id="a_edge1_Node000001_Node000002"><a xlink:title=" ">
<path fill="none" stroke="#63b8ff" d="M68.81,-60.78C71.89,-47.24 75.83,-29.99 78.19,-19.66"/>
<polygon fill="#63b8ff" stroke="#63b8ff" points="65.43,-59.86 66.61,-70.39 72.25,-61.42 65.43,-59.86"/>
</a>
</g>
</g>
<!-- Node3 -->
<g id="Node000003" class="node">
<title>Node3</title>
<g id="a_Node000003"><a xlink:href="structdunedaq_1_1opmon_1_1OpMonValue_1_1Impl__.html" target="_top" xlink:title=" ">
<polygon fill="white" stroke="#666666" points="293.88,-97 146.62,-97 146.62,-66.5 293.88,-66.5 293.88,-97"/>
<text text-anchor="start" x="154.62" y="-83.5" font-family="Helvetica,sans-Serif" font-size="10.00">dunedaq::opmon::OpMonValue</text>
<text text-anchor="middle" x="220.25" y="-72.25" font-family="Helvetica,sans-Serif" font-size="10.00">::Impl_</text>
</a>
</g>
</g>
<!-- Node3&#45;&gt;Node1 -->
<g id="edge2_Node000001_Node000003" class="edge">
<title>Node3&#45;&gt;Node1</title>
<g id="a_edge2_Node000001_Node000003"><a xlink:title=" ">
<path fill="none" stroke="#9a32cd" stroke-dasharray="5,2" d="M180.96,-61.07C153.92,-47.52 119.25,-30.16 98.45,-19.74"/>
<polygon fill="#9a32cd" stroke="#9a32cd" points="179.04,-64.02 189.55,-65.37 182.17,-57.76 179.04,-64.02"/>
</a>
</g>
<text text-anchor="middle" x="169.62" y="-39" font-family="Helvetica,sans-Serif" font-size="10.00" fill="grey"> _impl_</text>
</g>
<!-- Node4 -->
<g id="Node000004" class="node">
<title>Node4</title>
<g id="a_Node000004"><a xlink:href="uniondunedaq_1_1opmon_1_1OpMonValue_1_1Impl___1_1KindUnion.html" target="_top" xlink:title=" ">
<polygon fill="white" stroke="#666666" points="293.88,-174.75 146.62,-174.75 146.62,-144.25 293.88,-144.25 293.88,-174.75"/>
<text text-anchor="start" x="154.62" y="-161.25" font-family="Helvetica,sans-Serif" font-size="10.00">dunedaq::opmon::OpMonValue</text>
<text text-anchor="middle" x="220.25" y="-150" font-family="Helvetica,sans-Serif" font-size="10.00">::Impl_::KindUnion</text>
</a>
</g>
</g>
<!-- Node4&#45;&gt;Node3 -->
<g id="edge3_Node000003_Node000004" class="edge">
<title>Node4&#45;&gt;Node3</title>
<g id="a_edge3_Node000003_Node000004"><a xlink:title=" ">
<path fill="none" stroke="#9a32cd" stroke-dasharray="5,2" d="M220.25,-132.47C220.25,-120.71 220.25,-107.26 220.25,-97.31"/>
<polygon fill="#9a32cd" stroke="#9a32cd" points="216.75,-132.38 220.25,-142.38 223.75,-132.38 216.75,-132.38"/>
</a>
</g>
<text text-anchor="middle" x="233" y="-116.75" font-family="Helvetica,sans-Serif" font-size="10.00" fill="grey"> kind_</text>
</g>
</g>
</svg>
