<?xml version="1.0" encoding="UTF-8" standalone="no"?>
<!DOCTYPE svg PUBLIC "-//W3C//DTD SVG 1.1//EN"
 "http://www.w3.org/Graphics/SVG/1.1/DTD/svg11.dtd">
<!-- Generated by graphviz version 9.0.0 (20230911.1827)
 -->
<!-- Title: dunedaq::appmodel::TCMakerADCSimpleWindowAlgorithm Pages: 1 -->
<svg width="190pt" height="227pt"
 viewBox="0.00 0.00 189.75 226.75" xmlns="http://www.w3.org/2000/svg" xmlns:xlink="http://www.w3.org/1999/xlink">
<g id="graph0" class="graph" transform="scale(1 1) rotate(0) translate(4 222.75)">
<title>dunedaq::appmodel::TCMakerADCSimpleWindowAlgorithm</title>
<!-- Node1 -->
<g id="Node000001" class="node">
<title>Node1</title>
<g id="a_Node000001"><a xlink:title=" ">
<polygon fill="#999999" stroke="#666666" points="181.75,-30.5 0,-30.5 0,0 181.75,0 181.75,-30.5"/>
<text text-anchor="start" x="8" y="-17" font-family="Helvetica,sans-Serif" font-size="10.00">dunedaq::appmodel::</text>
<text text-anchor="middle" x="90.88" y="-5.75" font-family="Helvetica,sans-Serif" font-size="10.00">TCMakerADCSimpleWindowAlgorithm</text>
</a>
</g>
</g>
<!-- Node2 -->
<g id="Node000002" class="node">
<title>Node2</title>
<g id="a_Node000002"><a xlink:href="classdunedaq_1_1appmodel_1_1TCAlgorithm.html" target="_top" xlink:title=" ">
<polygon fill="white" stroke="#666666" points="142.75,-97 39,-97 39,-66.5 142.75,-66.5 142.75,-97"/>
<text text-anchor="start" x="47" y="-83.5" font-family="Helvetica,sans-Serif" font-size="10.00">dunedaq::appmodel::</text>
<text text-anchor="middle" x="90.88" y="-72.25" font-family="Helvetica,sans-Serif" font-size="10.00">TCAlgorithm</text>
</a>
</g>
</g>
<!-- Node2&#45;&gt;Node1 -->
<g id="edge1_Node000001_Node000002" class="edge">
<title>Node2&#45;&gt;Node1</title>
<g id="a_edge1_Node000001_Node000002"><a xlink:title=" ">
<path fill="none" stroke="#63b8ff" d="M84.24,-54.81C83.94,-46.64 84.23,-37.91 85.12,-30.83"/>
<polygon fill="#63b8ff" stroke="#63b8ff" points="80.74,-54.9 85,-64.6 87.72,-54.37 80.74,-54.9"/>
</a>
</g>
</g>
<!-- Node2&#45;&gt;Node1 -->
<g id="edge6_Node000001_Node000002" class="edge">
<title>Node2&#45;&gt;Node1</title>
<g id="a_edge6_Node000001_Node000002"><a xlink:title=" ">
<path fill="none" stroke="#63b8ff" d="M97.51,-54.81C97.81,-46.64 97.52,-37.91 96.63,-30.83"/>
<polygon fill="#63b8ff" stroke="#63b8ff" points="94.03,-54.37 96.75,-64.6 101.01,-54.9 94.03,-54.37"/>
</a>
</g>
</g>
<!-- Node3 -->
<g id="Node000003" class="node">
<title>Node3</title>
<g id="a_Node000003"><a xlink:href="classdunedaq_1_1confmodel_1_1Jsonable.html" target="_top" xlink:title=" ">
<polygon fill="white" stroke="#666666" points="142,-163.5 39.75,-163.5 39.75,-133 142,-133 142,-163.5"/>
<text text-anchor="start" x="47.75" y="-150" font-family="Helvetica,sans-Serif" font-size="10.00">dunedaq::confmodel</text>
<text text-anchor="middle" x="90.88" y="-138.75" font-family="Helvetica,sans-Serif" font-size="10.00">::Jsonable</text>
</a>
</g>
</g>
<!-- Node3&#45;&gt;Node2 -->
<g id="edge2_Node000002_Node000003" class="edge">
<title>Node3&#45;&gt;Node2</title>
<g id="a_edge2_Node000002_Node000003"><a xlink:title=" ">
<path fill="none" stroke="#63b8ff" d="M84.24,-121.31C83.94,-113.14 84.23,-104.41 85.12,-97.33"/>
<polygon fill="#63b8ff" stroke="#63b8ff" points="80.74,-121.4 85,-131.1 87.72,-120.87 80.74,-121.4"/>
</a>
</g>
</g>
<!-- Node3&#45;&gt;Node2 -->
<g id="edge5_Node000002_Node000003" class="edge">
<title>Node3&#45;&gt;Node2</title>
<g id="a_edge5_Node000002_Node000003"><a xlink:title=" ">
<path fill="none" stroke="#63b8ff" d="M97.51,-121.31C97.81,-113.14 97.52,-104.41 96.63,-97.33"/>
<polygon fill="#63b8ff" stroke="#63b8ff" points="94.03,-120.87 96.75,-131.1 101.01,-121.4 94.03,-120.87"/>
</a>
</g>
</g>
<!-- Node4 -->
<g id="Node000004" class="node">
<title>Node4</title>
<g id="a_Node000004"><a xlink:href="classdunedaq_1_1conffwk_1_1DalObject.html" target="_top" xlink:title="The base class for any generated DAL object.">
<polygon fill="white" stroke="#666666" points="160,-218.75 21.75,-218.75 21.75,-199.5 160,-199.5 160,-218.75"/>
<text text-anchor="middle" x="90.88" y="-205.25" font-family="Helvetica,sans-Serif" font-size="10.00">dunedaq::conffwk::DalObject</text>
</a>
</g>
</g>
<!-- Node4&#45;&gt;Node3 -->
<g id="edge3_Node000003_Node000004" class="edge">
<title>Node4&#45;&gt;Node3</title>
<g id="a_edge3_Node000003_Node000004"><a xlink:title=" ">
<path fill="none" stroke="#63b8ff" d="M84.43,-187.92C83.89,-179.99 84.07,-171.06 84.96,-163.78"/>
<polygon fill="#63b8ff" stroke="#63b8ff" points="80.94,-188.2 85.67,-197.68 87.88,-187.32 80.94,-188.2"/>
</a>
</g>
</g>
<!-- Node4&#45;&gt;Node3 -->
<g id="edge4_Node000003_Node000004" class="edge">
<title>Node4&#45;&gt;Node3</title>
<g id="a_edge4_Node000003_Node000004"><a xlink:title=" ">
<path fill="none" stroke="#63b8ff" d="M97.32,-187.92C97.86,-179.99 97.68,-171.06 96.79,-163.78"/>
<polygon fill="#63b8ff" stroke="#63b8ff" points="93.87,-187.32 96.08,-197.68 100.81,-188.2 93.87,-187.32"/>
</a>
</g>
</g>
</g>
</svg>
