<?xml version="1.0" encoding="UTF-8" standalone="no"?>
<!DOCTYPE svg PUBLIC "-//W3C//DTD SVG 1.1//EN"
 "http://www.w3.org/Graphics/SVG/1.1/DTD/svg11.dtd">
<!-- Generated by graphviz version 9.0.0 (20230911.1827)
 -->
<!-- Title: dunedaq::trigger::TPRequestHandler Pages: 1 -->
<svg width="1430pt" height="226pt"
 viewBox="0.00 0.00 1429.50 225.88" xmlns="http://www.w3.org/2000/svg" xmlns:xlink="http://www.w3.org/1999/xlink">
<g id="graph0" class="graph" transform="scale(1 1) rotate(0) translate(4 221.88)">
<title>dunedaq::trigger::TPRequestHandler</title>
<!-- Node1 -->
<g id="Node000001" class="node">
<title>Node1</title>
<g id="a_Node000001"><a xlink:title=" ">
<polygon fill="#999999" stroke="#666666" points="1421.5,-113.5 1284,-113.5 1284,-83 1421.5,-83 1421.5,-113.5"/>
<text text-anchor="start" x="1292" y="-100" font-family="Helvetica,sans-Serif" font-size="10.00">dunedaq::trigger::TPRequest</text>
<text text-anchor="middle" x="1352.75" y="-88.75" font-family="Helvetica,sans-Serif" font-size="10.00">Handler</text>
</a>
</g>
</g>
<!-- Node2 -->
<g id="Node000002" class="node">
<title>Node2</title>
<g id="a_Node000002"><a xlink:href="classdunedaq_1_1datahandlinglibs_1_1DefaultSkipListRequestHandler.html" target="_top" xlink:title=" ">
<polygon fill="white" stroke="#666666" points="1247,-119.12 1090,-119.12 1090,-77.38 1247,-77.38 1247,-119.12"/>
<text text-anchor="start" x="1098" y="-105.62" font-family="Helvetica,sans-Serif" font-size="10.00">dunedaq::datahandlinglibs</text>
<text text-anchor="start" x="1098" y="-94.38" font-family="Helvetica,sans-Serif" font-size="10.00">::DefaultSkipListRequestHandler</text>
<text text-anchor="middle" x="1168.5" y="-83.12" font-family="Helvetica,sans-Serif" font-size="10.00">&lt; TriggerPrimitiveTypeAdapter &gt;</text>
</a>
</g>
</g>
<!-- Node2&#45;&gt;Node1 -->
<g id="edge1_Node000001_Node000002" class="edge">
<title>Node2&#45;&gt;Node1</title>
<g id="a_edge1_Node000001_Node000002"><a xlink:title=" ">
<path fill="none" stroke="#63b8ff" d="M1258.72,-98.25C1267.12,-98.25 1275.53,-98.25 1283.68,-98.25"/>
<polygon fill="#63b8ff" stroke="#63b8ff" points="1258.83,-94.75 1248.83,-98.25 1258.83,-101.75 1258.83,-94.75"/>
</a>
</g>
</g>
<!-- Node3 -->
<g id="Node000003" class="node">
<title>Node3</title>
<g id="a_Node000003"><a xlink:href="classdunedaq_1_1datahandlinglibs_1_1DefaultRequestHandlerModel.html" target="_top" xlink:title=" ">
<polygon fill="white" stroke="#666666" points="1053,-119.12 877.25,-119.12 877.25,-77.38 1053,-77.38 1053,-119.12"/>
<text text-anchor="start" x="885.25" y="-105.62" font-family="Helvetica,sans-Serif" font-size="10.00">dunedaq::datahandlinglibs</text>
<text text-anchor="start" x="885.25" y="-94.38" font-family="Helvetica,sans-Serif" font-size="10.00">::DefaultRequestHandlerModel</text>
<text text-anchor="middle" x="965.12" y="-83.12" font-family="Helvetica,sans-Serif" font-size="10.00">&lt; ReadoutType, LatencyBufferType &gt;</text>
</a>
</g>
</g>
<!-- Node3&#45;&gt;Node2 -->
<g id="edge2_Node000002_Node000003" class="edge">
<title>Node3&#45;&gt;Node2</title>
<g id="a_edge2_Node000002_Node000003"><a xlink:title=" ">
<path fill="none" stroke="#63b8ff" d="M1064.7,-98.25C1073.09,-98.25 1081.51,-98.25 1089.71,-98.25"/>
<polygon fill="#63b8ff" stroke="#63b8ff" points="1064.79,-94.75 1054.79,-98.25 1064.79,-101.75 1064.79,-94.75"/>
</a>
</g>
</g>
<!-- Node4 -->
<g id="Node000004" class="node">
<title>Node4</title>
<g id="a_Node000004"><a xlink:href="classdunedaq_1_1datahandlinglibs_1_1RequestHandlerConcept.html" target="_top" xlink:title=" ">
<polygon fill="white" stroke="#666666" points="733.25,-207.12 557.5,-207.12 557.5,-165.38 733.25,-165.38 733.25,-207.12"/>
<text text-anchor="start" x="565.5" y="-193.62" font-family="Helvetica,sans-Serif" font-size="10.00">dunedaq::datahandlinglibs</text>
<text text-anchor="start" x="565.5" y="-182.38" font-family="Helvetica,sans-Serif" font-size="10.00">::RequestHandlerConcept</text>
<text text-anchor="middle" x="645.38" y="-171.12" font-family="Helvetica,sans-Serif" font-size="10.00">&lt; ReadoutType, LatencyBufferType &gt;</text>
</a>
</g>
</g>
<!-- Node4&#45;&gt;Node3 -->
<g id="edge3_Node000003_Node000004" class="edge">
<title>Node4&#45;&gt;Node3</title>
<g id="a_edge3_Node000003_Node000004"><a xlink:title=" ">
<path fill="none" stroke="#63b8ff" d="M744.62,-166.43C780.91,-158.38 822.21,-148.35 859.25,-137.25 876.28,-132.15 894.53,-125.71 910.96,-119.54"/>
<polygon fill="#63b8ff" stroke="#63b8ff" points="744.02,-162.98 735.01,-168.54 745.52,-169.82 744.02,-162.98"/>
</a>
</g>
</g>
<!-- Node5 -->
<g id="Node000005" class="node">
<title>Node5</title>
<g id="a_Node000005"><a xlink:href="classdunedaq_1_1opmonlib_1_1MonitorableObject.html" target="_top" xlink:title=" ">
<polygon fill="white" stroke="#666666" points="520.5,-201.5 419.75,-201.5 419.75,-171 520.5,-171 520.5,-201.5"/>
<text text-anchor="start" x="427.75" y="-188" font-family="Helvetica,sans-Serif" font-size="10.00">dunedaq::opmonlib::</text>
<text text-anchor="middle" x="470.12" y="-176.75" font-family="Helvetica,sans-Serif" font-size="10.00">MonitorableObject</text>
</a>
</g>
</g>
<!-- Node5&#45;&gt;Node4 -->
<g id="edge4_Node000004_Node000005" class="edge">
<title>Node5&#45;&gt;Node4</title>
<g id="a_edge4_Node000004_Node000005"><a xlink:title=" ">
<path fill="none" stroke="#63b8ff" d="M532.01,-186.25C540.15,-186.25 548.61,-186.25 557.09,-186.25"/>
<polygon fill="#63b8ff" stroke="#63b8ff" points="532.29,-182.75 522.29,-186.25 532.29,-189.75 532.29,-182.75"/>
</a>
</g>
</g>
<!-- Node6 -->
<g id="Node000006" class="node">
<title>Node6</title>
<g id="a_Node000006"><a xlink:href="classdunedaq_1_1opmon_1_1OpMonId.html" target="_top" xlink:title=" ">
<polygon fill="white" stroke="#666666" points="328.25,-195.88 197.5,-195.88 197.5,-176.62 328.25,-176.62 328.25,-195.88"/>
<text text-anchor="middle" x="262.88" y="-182.38" font-family="Helvetica,sans-Serif" font-size="10.00">dunedaq::opmon::OpMonId</text>
</a>
</g>
</g>
<!-- Node6&#45;&gt;Node5 -->
<g id="edge5_Node000005_Node000006" class="edge">
<title>Node6&#45;&gt;Node5</title>
<g id="a_edge5_Node000005_Node000006"><a xlink:title=" ">
<path fill="none" stroke="#9a32cd" stroke-dasharray="5,2" d="M339.76,-186.25C366.36,-186.25 395.53,-186.25 419.44,-186.25"/>
<polygon fill="#9a32cd" stroke="#9a32cd" points="340.05,-182.75 330.05,-186.25 340.05,-189.75 340.05,-182.75"/>
</a>
</g>
<text text-anchor="middle" x="374" y="-188" font-family="Helvetica,sans-Serif" font-size="10.00" fill="grey"> m_parent_id</text>
</g>
<!-- Node7 -->
<g id="Node000007" class="node">
<title>Node7</title>
<g id="a_Node000007"><a xlink:title=" ">
<polygon fill="white" stroke="#666666" points="129.62,-217.88 1.12,-217.88 1.12,-198.62 129.62,-198.62 129.62,-217.88"/>
<text text-anchor="middle" x="65.38" y="-204.38" font-family="Helvetica,sans-Serif" font-size="10.00">google::protobuf::Message</text>
</a>
</g>
</g>
<!-- Node7&#45;&gt;Node6 -->
<g id="edge6_Node000006_Node000007" class="edge">
<title>Node7&#45;&gt;Node6</title>
<g id="a_edge6_Node000006_Node000007"><a xlink:title=" ">
<path fill="none" stroke="#63b8ff" d="M141.4,-199.81C159.81,-197.74 179.35,-195.54 197.21,-193.53"/>
<polygon fill="#63b8ff" stroke="#63b8ff" points="141.17,-196.31 131.62,-200.91 141.95,-203.27 141.17,-196.31"/>
</a>
</g>
</g>
<!-- Node8 -->
<g id="Node000008" class="node">
<title>Node8</title>
<g id="a_Node000008"><a xlink:href="structdunedaq_1_1opmon_1_1OpMonId_1_1Impl__.html" target="_top" xlink:title=" ">
<polygon fill="white" stroke="#666666" points="130.75,-180.5 0,-180.5 0,-150 130.75,-150 130.75,-180.5"/>
<text text-anchor="start" x="8" y="-167" font-family="Helvetica,sans-Serif" font-size="10.00">dunedaq::opmon::OpMonId</text>
<text text-anchor="middle" x="65.38" y="-155.75" font-family="Helvetica,sans-Serif" font-size="10.00">::Impl_</text>
</a>
</g>
</g>
<!-- Node8&#45;&gt;Node6 -->
<g id="edge7_Node000006_Node000008" class="edge">
<title>Node8&#45;&gt;Node6</title>
<g id="a_edge7_Node000006_Node000008"><a xlink:title=" ">
<path fill="none" stroke="#9a32cd" stroke-dasharray="5,2" d="M142.59,-173.44C160.65,-175.38 179.74,-177.43 197.22,-179.31"/>
<polygon fill="#9a32cd" stroke="#9a32cd" points="143.02,-169.96 132.71,-172.38 142.28,-176.92 143.02,-169.96"/>
</a>
</g>
<text text-anchor="middle" x="164.12" y="-179" font-family="Helvetica,sans-Serif" font-size="10.00" fill="grey"> _impl_</text>
</g>
<!-- Node9 -->
<g id="Node000009" class="node">
<title>Node9</title>
<g id="a_Node000009"><a xlink:href="classdunedaq_1_1datahandlinglibs_1_1BufferedFileWriter.html" target="_top" xlink:title=" ">
<polygon fill="white" stroke="#666666" points="724.25,-147.5 566.5,-147.5 566.5,-117 724.25,-117 724.25,-147.5"/>
<text text-anchor="start" x="574.5" y="-134" font-family="Helvetica,sans-Serif" font-size="10.00">dunedaq::datahandlinglibs</text>
<text text-anchor="middle" x="645.38" y="-122.75" font-family="Helvetica,sans-Serif" font-size="10.00">::BufferedFileWriter&lt; Alignment &gt;</text>
</a>
</g>
</g>
<!-- Node9&#45;&gt;Node3 -->
<g id="edge8_Node000003_Node000009" class="edge">
<title>Node9&#45;&gt;Node3</title>
<g id="a_edge8_Node000003_Node000009"><a xlink:title=" ">
<path fill="none" stroke="#9a32cd" stroke-dasharray="5,2" d="M735.81,-123.23C773.87,-119.33 818.74,-114.66 859.25,-110.25 864.99,-109.63 870.9,-108.97 876.86,-108.31"/>
<polygon fill="#9a32cd" stroke="#9a32cd" points="735.85,-119.7 726.26,-124.2 736.56,-126.67 735.85,-119.7"/>
</a>
</g>
<text text-anchor="middle" x="805.25" y="-124" font-family="Helvetica,sans-Serif" font-size="10.00" fill="grey"> m_buffered_writer</text>
</g>
<!-- Node10 -->
<g id="Node000010" class="node">
<title>Node10</title>
<g id="a_Node000010"><a xlink:href="classdunedaq_1_1datahandlinglibs_1_1ReusableThread.html" target="_top" xlink:title=" ">
<polygon fill="white" stroke="#666666" points="708.88,-79.5 581.88,-79.5 581.88,-49 708.88,-49 708.88,-79.5"/>
<text text-anchor="start" x="589.88" y="-66" font-family="Helvetica,sans-Serif" font-size="10.00">dunedaq::datahandlinglibs</text>
<text text-anchor="middle" x="645.38" y="-54.75" font-family="Helvetica,sans-Serif" font-size="10.00">::ReusableThread</text>
</a>
</g>
</g>
<!-- Node10&#45;&gt;Node3 -->
<g id="edge9_Node000003_Node000010" class="edge">
<title>Node10&#45;&gt;Node3</title>
<g id="a_edge9_Node000003_Node000010"><a xlink:title=" ">
<path fill="none" stroke="#9a32cd" stroke-dasharray="5,2" d="M720.56,-56.59C761.7,-53.99 813.63,-53.44 859.25,-61.25 877.8,-64.43 897.44,-70.55 914.64,-76.92"/>
<polygon fill="#9a32cd" stroke="#9a32cd" points="720.5,-53.08 710.76,-57.26 720.98,-60.06 720.5,-53.08"/>
</a>
</g>
<text text-anchor="middle" x="805.25" y="-96.75" font-family="Helvetica,sans-Serif" font-size="10.00" fill="grey"> m_cleanup_thread</text>
<text text-anchor="start" x="751.25" y="-85.5" font-family="Helvetica,sans-Serif" font-size="10.00" fill="grey">m_periodic_transmission</text>
<text text-anchor="middle" x="805.25" y="-74.25" font-family="Helvetica,sans-Serif" font-size="10.00" fill="grey">_thread</text>
<text text-anchor="middle" x="805.25" y="-63" font-family="Helvetica,sans-Serif" font-size="10.00" fill="grey">m_recording_thread</text>
</g>
<!-- Node11 -->
<g id="Node000011" class="node">
<title>Node11</title>
<g id="a_Node000011"><a xlink:href="structdunedaq_1_1daqdataformats_1_1SourceID.html" target="_top" xlink:title="SourceID is a generalized representation of the source of a piece of data in the DAQ....">
<polygon fill="white" stroke="#666666" points="707.75,-30.5 583,-30.5 583,0 707.75,0 707.75,-30.5"/>
<text text-anchor="start" x="591" y="-17" font-family="Helvetica,sans-Serif" font-size="10.00">dunedaq::daqdataformats</text>
<text text-anchor="middle" x="645.38" y="-5.75" font-family="Helvetica,sans-Serif" font-size="10.00">::SourceID</text>
</a>
</g>
</g>
<!-- Node11&#45;&gt;Node3 -->
<g id="edge10_Node000003_Node000011" class="edge">
<title>Node11&#45;&gt;Node3</title>
<g id="a_edge10_Node000003_Node000011"><a xlink:title=" ">
<path fill="none" stroke="#9a32cd" stroke-dasharray="5,2" d="M719.29,-16.71C761.1,-19.27 814.09,-25.47 859.25,-40 885.82,-48.55 913.31,-64.11 933.47,-77"/>
<polygon fill="#9a32cd" stroke="#9a32cd" points="719.5,-13.22 709.32,-16.17 719.12,-20.21 719.5,-13.22"/>
</a>
</g>
<text text-anchor="middle" x="805.25" y="-42" font-family="Helvetica,sans-Serif" font-size="10.00" fill="grey"> m_sourceid</text>
</g>
</g>
</svg>
