<?xml version="1.0" encoding="UTF-8" standalone="no"?>
<!DOCTYPE svg PUBLIC "-//W3C//DTD SVG 1.1//EN"
 "http://www.w3.org/Graphics/SVG/1.1/DTD/svg11.dtd">
<!-- Generated by graphviz version 9.0.0 (20230911.1827)
 -->
<!-- Title: dunedaq::timing::EndpointDesign Pages: 1 -->
<svg width="286pt" height="282pt"
 viewBox="0.00 0.00 286.00 282.00" xmlns="http://www.w3.org/2000/svg" xmlns:xlink="http://www.w3.org/1999/xlink">
<g id="graph0" class="graph" transform="scale(1 1) rotate(0) translate(4 278)">
<title>dunedaq::timing::EndpointDesign</title>
<!-- Node1 -->
<g id="Node000001" class="node">
<title>Node1</title>
<g id="a_Node000001"><a xlink:title="Base class for timing endpoint design nodes.">
<polygon fill="#999999" stroke="#666666" points="204,-30.5 78.5,-30.5 78.5,0 204,0 204,-30.5"/>
<text text-anchor="start" x="86.5" y="-17" font-family="Helvetica,sans-Serif" font-size="10.00">dunedaq::timing::Endpoint</text>
<text text-anchor="middle" x="141.25" y="-5.75" font-family="Helvetica,sans-Serif" font-size="10.00">Design</text>
</a>
</g>
</g>
<!-- Node2 -->
<g id="Node000002" class="node">
<title>Node2</title>
<g id="a_Node000002"><a xlink:href="classdunedaq_1_1timing_1_1TopDesign.html" target="_top" xlink:title="Base class for timing top design nodes with IO class.">
<polygon fill="white" stroke="#666666" points="134.5,-91.38 0,-91.38 0,-72.12 134.5,-72.12 134.5,-91.38"/>
<text text-anchor="middle" x="67.25" y="-77.88" font-family="Helvetica,sans-Serif" font-size="10.00">dunedaq::timing::TopDesign</text>
</a>
</g>
</g>
<!-- Node2&#45;&gt;Node1 -->
<g id="edge1_Node000001_Node000002" class="edge">
<title>Node2&#45;&gt;Node1</title>
<g id="a_edge1_Node000001_Node000002"><a xlink:title=" ">
<path fill="none" stroke="#63b8ff" d="M86.2,-64.24C98.03,-53.92 113.12,-40.77 124.51,-30.84"/>
<polygon fill="#63b8ff" stroke="#63b8ff" points="83.92,-61.58 78.68,-70.79 88.52,-66.85 83.92,-61.58"/>
</a>
</g>
</g>
<!-- Node3 -->
<g id="Node000003" class="node">
<title>Node3</title>
<g id="a_Node000003"><a xlink:href="classdunedaq_1_1timing_1_1TopDesignInterface.html" target="_top" xlink:title="Base class for timing top design nodes.">
<polygon fill="white" stroke="#666666" points="208.5,-163.5 74,-163.5 74,-133 208.5,-133 208.5,-163.5"/>
<text text-anchor="start" x="82" y="-150" font-family="Helvetica,sans-Serif" font-size="10.00">dunedaq::timing::TopDesign</text>
<text text-anchor="middle" x="141.25" y="-138.75" font-family="Helvetica,sans-Serif" font-size="10.00">Interface</text>
</a>
</g>
</g>
<!-- Node3&#45;&gt;Node2 -->
<g id="edge2_Node000002_Node000003" class="edge">
<title>Node3&#45;&gt;Node2</title>
<g id="a_edge2_Node000002_Node000003"><a xlink:title=" ">
<path fill="none" stroke="#63b8ff" d="M116.15,-125.37C102.87,-113.8 87.31,-100.24 77.37,-91.57"/>
<polygon fill="#63b8ff" stroke="#63b8ff" points="113.48,-127.69 123.32,-131.62 118.08,-122.41 113.48,-127.69"/>
</a>
</g>
</g>
<!-- Node6 -->
<g id="Node000006" class="node">
<title>Node6</title>
<g id="a_Node000006"><a xlink:href="classdunedaq_1_1timing_1_1EndpointDesignInterface.html" target="_top" xlink:title="Base class for timing endpoint design nodes.">
<polygon fill="white" stroke="#666666" points="278,-97 152.5,-97 152.5,-66.5 278,-66.5 278,-97"/>
<text text-anchor="start" x="160.5" y="-83.5" font-family="Helvetica,sans-Serif" font-size="10.00">dunedaq::timing::Endpoint</text>
<text text-anchor="middle" x="215.25" y="-72.25" font-family="Helvetica,sans-Serif" font-size="10.00">DesignInterface</text>
</a>
</g>
</g>
<!-- Node3&#45;&gt;Node6 -->
<g id="edge6_Node000006_Node000003" class="edge">
<title>Node3&#45;&gt;Node6</title>
<g id="a_edge6_Node000006_Node000003"><a xlink:title=" ">
<path fill="none" stroke="#63b8ff" d="M166.5,-125.24C177.07,-116.03 189.08,-105.56 198.52,-97.33"/>
<polygon fill="#63b8ff" stroke="#63b8ff" points="164.42,-122.41 159.18,-131.62 169.02,-127.69 164.42,-122.41"/>
</a>
</g>
</g>
<!-- Node4 -->
<g id="Node000004" class="node">
<title>Node4</title>
<g id="a_Node000004"><a xlink:href="classdunedaq_1_1timing_1_1TimingNode.html" target="_top" xlink:title="Base class for timing nodes.">
<polygon fill="white" stroke="#666666" points="211.5,-218.75 71,-218.75 71,-199.5 211.5,-199.5 211.5,-218.75"/>
<text text-anchor="middle" x="141.25" y="-205.25" font-family="Helvetica,sans-Serif" font-size="10.00">dunedaq::timing::TimingNode</text>
</a>
</g>
</g>
<!-- Node4&#45;&gt;Node3 -->
<g id="edge3_Node000003_Node000004" class="edge">
<title>Node4&#45;&gt;Node3</title>
<g id="a_edge3_Node000003_Node000004"><a xlink:title=" ">
<path fill="none" stroke="#63b8ff" d="M141.25,-187.92C141.25,-179.99 141.25,-171.06 141.25,-163.78"/>
<polygon fill="#63b8ff" stroke="#63b8ff" points="137.75,-187.67 141.25,-197.67 144.75,-187.67 137.75,-187.67"/>
</a>
</g>
</g>
<!-- Node5 -->
<g id="Node000005" class="node">
<title>Node5</title>
<g id="a_Node000005"><a xlink:title=" ">
<polygon fill="white" stroke="#666666" points="172.12,-274 110.38,-274 110.38,-254.75 172.12,-254.75 172.12,-274"/>
<text text-anchor="middle" x="141.25" y="-260.5" font-family="Helvetica,sans-Serif" font-size="10.00">uhal::Node</text>
</a>
</g>
</g>
<!-- Node5&#45;&gt;Node4 -->
<g id="edge4_Node000004_Node000005" class="edge">
<title>Node5&#45;&gt;Node4</title>
<g id="a_edge4_Node000004_Node000005"><a xlink:title=" ">
<path fill="none" stroke="#63b8ff" d="M141.25,-243.13C141.25,-234.84 141.25,-225.67 141.25,-219.11"/>
<polygon fill="#63b8ff" stroke="#63b8ff" points="137.75,-243.07 141.25,-253.07 144.75,-243.07 137.75,-243.07"/>
</a>
</g>
</g>
<!-- Node6&#45;&gt;Node1 -->
<g id="edge5_Node000001_Node000006" class="edge">
<title>Node6&#45;&gt;Node1</title>
<g id="a_edge5_Node000001_Node000006"><a xlink:title=" ">
<path fill="none" stroke="#63b8ff" d="M190,-58.74C179.43,-49.53 167.42,-39.06 157.98,-30.83"/>
<polygon fill="#63b8ff" stroke="#63b8ff" points="187.48,-61.19 197.32,-65.12 192.08,-55.91 187.48,-61.19"/>
</a>
</g>
</g>
</g>
</svg>
