<?xml version="1.0" encoding="UTF-8" standalone="no"?>
<!DOCTYPE svg PUBLIC "-//W3C//DTD SVG 1.1//EN"
 "http://www.w3.org/Graphics/SVG/1.1/DTD/svg11.dtd">
<!-- Generated by graphviz version 9.0.0 (20230911.1827)
 -->
<!-- Title: dunedaq::listrev::dal::ListRevModule Pages: 1 -->
<svg width="593pt" height="137pt"
 viewBox="0.00 0.00 593.25 136.50" xmlns="http://www.w3.org/2000/svg" xmlns:xlink="http://www.w3.org/1999/xlink">
<g id="graph0" class="graph" transform="scale(1 1) rotate(0) translate(4 132.5)">
<title>dunedaq::listrev::dal::ListRevModule</title>
<!-- Node1 -->
<g id="Node000001" class="node">
<title>Node1</title>
<g id="a_Node000001"><a xlink:title=" ">
<polygon fill="#999999" stroke="#666666" points="413.25,-79.5 312.5,-79.5 312.5,-49 413.25,-49 413.25,-79.5"/>
<text text-anchor="start" x="320.5" y="-66" font-family="Helvetica,sans-Serif" font-size="10.00">dunedaq::listrev::dal</text>
<text text-anchor="middle" x="362.88" y="-54.75" font-family="Helvetica,sans-Serif" font-size="10.00">::ListRevModule</text>
</a>
</g>
</g>
<!-- Node4 -->
<g id="Node000004" class="node">
<title>Node4</title>
<g id="a_Node000004"><a xlink:href="classdunedaq_1_1listrev_1_1dal_1_1ListReverser.html" target="_top" xlink:title=" ">
<polygon fill="white" stroke="#666666" points="567.62,-128.5 466.88,-128.5 466.88,-98 567.62,-98 567.62,-128.5"/>
<text text-anchor="start" x="474.88" y="-115" font-family="Helvetica,sans-Serif" font-size="10.00">dunedaq::listrev::dal</text>
<text text-anchor="middle" x="517.25" y="-103.75" font-family="Helvetica,sans-Serif" font-size="10.00">::ListReverser</text>
</a>
</g>
</g>
<!-- Node1&#45;&gt;Node4 -->
<g id="edge5_Node000001_Node000004" class="edge">
<title>Node1&#45;&gt;Node4</title>
<g id="a_edge5_Node000001_Node000004"><a xlink:title=" ">
<path fill="none" stroke="#63b8ff" d="M424.3,-77.06C444.98,-83.37 467.28,-90.88 484.74,-97.53"/>
<polygon fill="#63b8ff" stroke="#63b8ff" points="425.38,-73.73 414.8,-74.23 423.38,-80.44 425.38,-73.73"/>
</a>
</g>
</g>
<!-- Node1&#45;&gt;Node4 -->
<g id="edge6_Node000001_Node000004" class="edge">
<title>Node1&#45;&gt;Node4</title>
<g id="a_edge6_Node000001_Node000004"><a xlink:title=" ">
<path fill="none" stroke="#63b8ff" d="M406.02,-83.91C424.73,-90.68 446.89,-97.9 466.42,-103.6"/>
<polygon fill="#63b8ff" stroke="#63b8ff" points="407.46,-80.72 396.87,-80.52 405.03,-87.28 407.46,-80.72"/>
</a>
</g>
</g>
<!-- Node5 -->
<g id="Node000005" class="node">
<title>Node5</title>
<g id="a_Node000005"><a xlink:href="classdunedaq_1_1listrev_1_1dal_1_1RandomDataListGenerator.html" target="_top" xlink:title=" ">
<polygon fill="white" stroke="#666666" points="585.25,-79.5 449.25,-79.5 449.25,-49 585.25,-49 585.25,-79.5"/>
<text text-anchor="start" x="457.25" y="-66" font-family="Helvetica,sans-Serif" font-size="10.00">dunedaq::listrev::dal</text>
<text text-anchor="middle" x="517.25" y="-54.75" font-family="Helvetica,sans-Serif" font-size="10.00">::RandomDataListGenerator</text>
</a>
</g>
</g>
<!-- Node1&#45;&gt;Node5 -->
<g id="edge7_Node000001_Node000005" class="edge">
<title>Node1&#45;&gt;Node5</title>
<g id="a_edge7_Node000001_Node000005"><a xlink:title=" ">
<path fill="none" stroke="#63b8ff" d="M424.8,-57.62C432.77,-57.49 440.96,-57.47 449.02,-57.54"/>
<polygon fill="#63b8ff" stroke="#63b8ff" points="424.78,-54.12 414.86,-57.85 424.94,-61.12 424.78,-54.12"/>
</a>
</g>
</g>
<!-- Node1&#45;&gt;Node5 -->
<g id="edge8_Node000001_Node000005" class="edge">
<title>Node1&#45;&gt;Node5</title>
<g id="a_edge8_Node000001_Node000005"><a xlink:title=" ">
<path fill="none" stroke="#63b8ff" d="M424.8,-70.88C432.77,-71.01 440.96,-71.03 449.02,-70.96"/>
<polygon fill="#63b8ff" stroke="#63b8ff" points="424.94,-67.38 414.86,-70.65 424.78,-74.38 424.94,-67.38"/>
</a>
</g>
</g>
<!-- Node6 -->
<g id="Node000006" class="node">
<title>Node6</title>
<g id="a_Node000006"><a xlink:href="classdunedaq_1_1listrev_1_1dal_1_1ReversedListValidator.html" target="_top" xlink:title=" ">
<polygon fill="white" stroke="#666666" points="575.5,-30.5 459,-30.5 459,0 575.5,0 575.5,-30.5"/>
<text text-anchor="start" x="467" y="-17" font-family="Helvetica,sans-Serif" font-size="10.00">dunedaq::listrev::dal</text>
<text text-anchor="middle" x="517.25" y="-5.75" font-family="Helvetica,sans-Serif" font-size="10.00">::ReversedListValidator</text>
</a>
</g>
</g>
<!-- Node1&#45;&gt;Node6 -->
<g id="edge9_Node000001_Node000006" class="edge">
<title>Node1&#45;&gt;Node6</title>
<g id="a_edge9_Node000001_Node000006"><a xlink:title=" ">
<path fill="none" stroke="#63b8ff" d="M406.2,-44.52C422.4,-38.67 441.15,-32.48 458.54,-27.24"/>
<polygon fill="#63b8ff" stroke="#63b8ff" points="405.03,-41.22 396.87,-47.98 407.46,-47.79 405.03,-41.22"/>
</a>
</g>
</g>
<!-- Node1&#45;&gt;Node6 -->
<g id="edge10_Node000001_Node000006" class="edge">
<title>Node1&#45;&gt;Node6</title>
<g id="a_edge10_Node000001_Node000006"><a xlink:title=" ">
<path fill="none" stroke="#63b8ff" d="M424.3,-51.44C444.98,-45.13 467.28,-37.62 484.74,-30.97"/>
<polygon fill="#63b8ff" stroke="#63b8ff" points="423.38,-48.06 414.8,-54.27 425.38,-54.77 423.38,-48.06"/>
</a>
</g>
</g>
<!-- Node2 -->
<g id="Node000002" class="node">
<title>Node2</title>
<g id="a_Node000002"><a xlink:href="classdunedaq_1_1confmodel_1_1DaqModule.html" target="_top" xlink:title=" ">
<polygon fill="white" stroke="#666666" points="276.5,-79.5 174.25,-79.5 174.25,-49 276.5,-49 276.5,-79.5"/>
<text text-anchor="start" x="182.25" y="-66" font-family="Helvetica,sans-Serif" font-size="10.00">dunedaq::confmodel</text>
<text text-anchor="middle" x="225.38" y="-54.75" font-family="Helvetica,sans-Serif" font-size="10.00">::DaqModule</text>
</a>
</g>
</g>
<!-- Node2&#45;&gt;Node1 -->
<g id="edge1_Node000001_Node000002" class="edge">
<title>Node2&#45;&gt;Node1</title>
<g id="a_edge1_Node000001_Node000002"><a xlink:title=" ">
<path fill="none" stroke="#63b8ff" d="M288.14,-57.52C296.23,-57.46 304.43,-57.53 312.28,-57.72"/>
<polygon fill="#63b8ff" stroke="#63b8ff" points="288.29,-54.02 278.34,-57.68 288.4,-61.02 288.29,-54.02"/>
</a>
</g>
</g>
<!-- Node2&#45;&gt;Node1 -->
<g id="edge4_Node000001_Node000002" class="edge">
<title>Node2&#45;&gt;Node1</title>
<g id="a_edge4_Node000001_Node000002"><a xlink:title=" ">
<path fill="none" stroke="#63b8ff" d="M288.14,-70.98C296.23,-71.04 304.43,-70.97 312.28,-70.78"/>
<polygon fill="#63b8ff" stroke="#63b8ff" points="288.4,-67.48 278.34,-70.82 288.29,-74.48 288.4,-67.48"/>
</a>
</g>
</g>
<!-- Node3 -->
<g id="Node000003" class="node">
<title>Node3</title>
<g id="a_Node000003"><a xlink:href="classdunedaq_1_1conffwk_1_1DalObject.html" target="_top" xlink:title="The base class for any generated DAL object.">
<polygon fill="white" stroke="#666666" points="138.25,-73.88 0,-73.88 0,-54.62 138.25,-54.62 138.25,-73.88"/>
<text text-anchor="middle" x="69.12" y="-60.38" font-family="Helvetica,sans-Serif" font-size="10.00">dunedaq::conffwk::DalObject</text>
</a>
</g>
</g>
<!-- Node3&#45;&gt;Node2 -->
<g id="edge2_Node000002_Node000003" class="edge">
<title>Node3&#45;&gt;Node2</title>
<g id="a_edge2_Node000002_Node000003"><a xlink:title=" ">
<path fill="none" stroke="#63b8ff" d="M150.17,-57.5C158.3,-57.53 166.39,-57.65 174.08,-57.88"/>
<polygon fill="#63b8ff" stroke="#63b8ff" points="150.18,-54 140.19,-57.53 150.2,-61 150.18,-54"/>
</a>
</g>
</g>
<!-- Node3&#45;&gt;Node2 -->
<g id="edge3_Node000002_Node000003" class="edge">
<title>Node3&#45;&gt;Node2</title>
<g id="a_edge3_Node000002_Node000003"><a xlink:title=" ">
<path fill="none" stroke="#63b8ff" d="M150.17,-71C158.3,-70.97 166.39,-70.85 174.08,-70.62"/>
<polygon fill="#63b8ff" stroke="#63b8ff" points="150.2,-67.5 140.19,-70.97 150.18,-74.5 150.2,-67.5"/>
</a>
</g>
</g>
</g>
</svg>
