<?xml version="1.0" encoding="UTF-8" standalone="no"?>
<!DOCTYPE svg PUBLIC "-//W3C//DTD SVG 1.1//EN"
 "http://www.w3.org/Graphics/SVG/1.1/DTD/svg11.dtd">
<!-- Generated by graphviz version 9.0.0 (20230911.1827)
 -->
<!-- Title: dunedaq::trigger::opmon::ModuleLevelTriggerRequestLatency Pages: 1 -->
<svg width="428pt" height="88pt"
 viewBox="0.00 0.00 427.75 87.50" xmlns="http://www.w3.org/2000/svg" xmlns:xlink="http://www.w3.org/1999/xlink">
<g id="graph0" class="graph" transform="scale(1 1) rotate(0) translate(4 83.5)">
<title>dunedaq::trigger::opmon::ModuleLevelTriggerRequestLatency</title>
<!-- Node1 -->
<g id="Node000001" class="node">
<title>Node1</title>
<g id="a_Node000001"><a xlink:title=" ">
<polygon fill="#999999" stroke="#666666" points="419.75,-60.12 243.25,-60.12 243.25,-29.62 419.75,-29.62 419.75,-60.12"/>
<text text-anchor="start" x="251.25" y="-46.62" font-family="Helvetica,sans-Serif" font-size="10.00">dunedaq::trigger::opmon</text>
<text text-anchor="middle" x="331.5" y="-35.38" font-family="Helvetica,sans-Serif" font-size="10.00">::ModuleLevelTriggerRequestLatency</text>
</a>
</g>
</g>
<!-- Node2 -->
<g id="Node000002" class="node">
<title>Node2</title>
<g id="a_Node000002"><a xlink:title=" ">
<polygon fill="white" stroke="#666666" points="152.5,-79.5 24,-79.5 24,-60.25 152.5,-60.25 152.5,-79.5"/>
<text text-anchor="middle" x="88.25" y="-66" font-family="Helvetica,sans-Serif" font-size="10.00">google::protobuf::Message</text>
</a>
</g>
</g>
<!-- Node2&#45;&gt;Node1 -->
<g id="edge1_Node000001_Node000002" class="edge">
<title>Node2&#45;&gt;Node1</title>
<g id="a_edge1_Node000001_Node000002"><a xlink:title=" ">
<path fill="none" stroke="#63b8ff" d="M164.16,-62.11C189.07,-59.53 217.02,-56.63 242.81,-53.96"/>
<polygon fill="#63b8ff" stroke="#63b8ff" points="164.04,-58.61 154.46,-63.12 164.76,-65.57 164.04,-58.61"/>
</a>
</g>
</g>
<!-- Node3 -->
<g id="Node000003" class="node">
<title>Node3</title>
<g id="a_Node000003"><a xlink:href="structdunedaq_1_1trigger_1_1opmon_1_1ModuleLevelTriggerRequestLatency_1_1Impl__.html" target="_top" xlink:title=" ">
<polygon fill="white" stroke="#666666" points="176.5,-41.75 0,-41.75 0,0 176.5,0 176.5,-41.75"/>
<text text-anchor="start" x="8" y="-28.25" font-family="Helvetica,sans-Serif" font-size="10.00">dunedaq::trigger::opmon</text>
<text text-anchor="start" x="8" y="-17" font-family="Helvetica,sans-Serif" font-size="10.00">::ModuleLevelTriggerRequestLatency</text>
<text text-anchor="middle" x="88.25" y="-5.75" font-family="Helvetica,sans-Serif" font-size="10.00">::Impl_</text>
</a>
</g>
</g>
<!-- Node3&#45;&gt;Node1 -->
<g id="edge2_Node000001_Node000003" class="edge">
<title>Node3&#45;&gt;Node1</title>
<g id="a_edge2_Node000001_Node000003"><a xlink:title=" ">
<path fill="none" stroke="#9a32cd" stroke-dasharray="5,2" d="M187.93,-30.69C206.16,-32.51 225.08,-34.39 242.96,-36.17"/>
<polygon fill="#9a32cd" stroke="#9a32cd" points="188.49,-27.23 178.19,-29.72 187.8,-34.2 188.49,-27.23"/>
</a>
</g>
<text text-anchor="middle" x="209.88" y="-36.62" font-family="Helvetica,sans-Serif" font-size="10.00" fill="grey"> _impl_</text>
</g>
</g>
</svg>
