<?xml version="1.0" encoding="UTF-8" standalone="no"?>
<!DOCTYPE svg PUBLIC "-//W3C//DTD SVG 1.1//EN"
 "http://www.w3.org/Graphics/SVG/1.1/DTD/svg11.dtd">
<!-- Generated by graphviz version 9.0.0 (20230911.1827)
 -->
<!-- Title: dunedaq::appmodel::HermesModule Pages: 1 -->
<svg width="232pt" height="160pt"
 viewBox="0.00 0.00 232.00 160.25" xmlns="http://www.w3.org/2000/svg" xmlns:xlink="http://www.w3.org/1999/xlink">
<g id="graph0" class="graph" transform="scale(1 1) rotate(0) translate(4 156.25)">
<title>dunedaq::appmodel::HermesModule</title>
<!-- Node1 -->
<g id="Node000001" class="node">
<title>Node1</title>
<g id="a_Node000001"><a xlink:title=" ">
<polygon fill="#999999" stroke="#666666" points="163,-30.5 59.25,-30.5 59.25,0 163,0 163,-30.5"/>
<text text-anchor="start" x="67.25" y="-17" font-family="Helvetica,sans-Serif" font-size="10.00">dunedaq::appmodel::</text>
<text text-anchor="middle" x="111.12" y="-5.75" font-family="Helvetica,sans-Serif" font-size="10.00">HermesModule</text>
</a>
</g>
</g>
<!-- Node2 -->
<g id="Node000002" class="node">
<title>Node2</title>
<g id="a_Node000002"><a xlink:href="classdunedaq_1_1confmodel_1_1DaqModule.html" target="_top" xlink:title=" ">
<polygon fill="white" stroke="#666666" points="102.25,-97 0,-97 0,-66.5 102.25,-66.5 102.25,-97"/>
<text text-anchor="start" x="8" y="-83.5" font-family="Helvetica,sans-Serif" font-size="10.00">dunedaq::confmodel</text>
<text text-anchor="middle" x="51.12" y="-72.25" font-family="Helvetica,sans-Serif" font-size="10.00">::DaqModule</text>
</a>
</g>
</g>
<!-- Node2&#45;&gt;Node1 -->
<g id="edge1_Node000001_Node000002" class="edge">
<title>Node2&#45;&gt;Node1</title>
<g id="a_edge1_Node000001_Node000002"><a xlink:title=" ">
<path fill="none" stroke="#63b8ff" d="M66.37,-57.35C74.15,-48.48 83.55,-38.65 91.81,-30.83"/>
<polygon fill="#63b8ff" stroke="#63b8ff" points="63.73,-55.06 59.96,-64.96 69.08,-59.57 63.73,-55.06"/>
</a>
</g>
</g>
<!-- Node2&#45;&gt;Node1 -->
<g id="edge7_Node000001_Node000002" class="edge">
<title>Node2&#45;&gt;Node1</title>
<g id="a_edge7_Node000001_Node000002"><a xlink:title=" ">
<path fill="none" stroke="#63b8ff" d="M78.59,-58.19C87.57,-49.11 96.82,-38.9 103.32,-30.83"/>
<polygon fill="#63b8ff" stroke="#63b8ff" points="76.27,-55.55 71.58,-65.05 81.17,-60.55 76.27,-55.55"/>
</a>
</g>
</g>
<!-- Node3 -->
<g id="Node000003" class="node">
<title>Node3</title>
<g id="a_Node000003"><a xlink:href="classdunedaq_1_1conffwk_1_1DalObject.html" target="_top" xlink:title="The base class for any generated DAL object.">
<polygon fill="white" stroke="#666666" points="180.25,-152.25 42,-152.25 42,-133 180.25,-133 180.25,-152.25"/>
<text text-anchor="middle" x="111.12" y="-138.75" font-family="Helvetica,sans-Serif" font-size="10.00">dunedaq::conffwk::DalObject</text>
</a>
</g>
</g>
<!-- Node3&#45;&gt;Node2 -->
<g id="edge2_Node000002_Node000003" class="edge">
<title>Node3&#45;&gt;Node2</title>
<g id="a_edge2_Node000002_Node000003"><a xlink:title=" ">
<path fill="none" stroke="#63b8ff" d="M88.36,-125.29C78.5,-116.51 67.63,-105.77 60.02,-97.28"/>
<polygon fill="#63b8ff" stroke="#63b8ff" points="85.98,-127.86 95.85,-131.7 90.53,-122.54 85.98,-127.86"/>
</a>
</g>
</g>
<!-- Node3&#45;&gt;Node2 -->
<g id="edge3_Node000002_Node000003" class="edge">
<title>Node3&#45;&gt;Node2</title>
<g id="a_edge3_Node000002_Node000003"><a xlink:title=" ">
<path fill="none" stroke="#63b8ff" d="M99.59,-124.2C91.65,-115.63 81.15,-105.42 71.85,-97.28"/>
<polygon fill="#63b8ff" stroke="#63b8ff" points="96.8,-126.33 106.02,-131.54 102.07,-121.72 96.8,-126.33"/>
</a>
</g>
</g>
<!-- Node4 -->
<g id="Node000004" class="node">
<title>Node4</title>
<g id="a_Node000004"><a xlink:href="classdunedaq_1_1appmodel_1_1IpbusDevice.html" target="_top" xlink:title=" ">
<polygon fill="white" stroke="#666666" points="224,-97 120.25,-97 120.25,-66.5 224,-66.5 224,-97"/>
<text text-anchor="start" x="128.25" y="-83.5" font-family="Helvetica,sans-Serif" font-size="10.00">dunedaq::appmodel::</text>
<text text-anchor="middle" x="172.12" y="-72.25" font-family="Helvetica,sans-Serif" font-size="10.00">IpbusDevice</text>
</a>
</g>
</g>
<!-- Node3&#45;&gt;Node4 -->
<g id="edge5_Node000004_Node000003" class="edge">
<title>Node3&#45;&gt;Node4</title>
<g id="a_edge5_Node000004_Node000003"><a xlink:title=" ">
<path fill="none" stroke="#63b8ff" d="M122.95,-124.2C131.04,-115.63 141.72,-105.42 151.16,-97.28"/>
<polygon fill="#63b8ff" stroke="#63b8ff" points="120.44,-121.76 116.39,-131.55 125.66,-126.43 120.44,-121.76"/>
</a>
</g>
</g>
<!-- Node3&#45;&gt;Node4 -->
<g id="edge6_Node000004_Node000003" class="edge">
<title>Node3&#45;&gt;Node4</title>
<g id="a_edge6_Node000004_Node000003"><a xlink:title=" ">
<path fill="none" stroke="#63b8ff" d="M134.17,-125.29C144.17,-116.51 155.23,-105.77 162.98,-97.28"/>
<polygon fill="#63b8ff" stroke="#63b8ff" points="131.94,-122.59 126.56,-131.71 136.46,-127.94 131.94,-122.59"/>
</a>
</g>
</g>
<!-- Node4&#45;&gt;Node1 -->
<g id="edge4_Node000001_Node000004" class="edge">
<title>Node4&#45;&gt;Node1</title>
<g id="a_edge4_Node000001_Node000004"><a xlink:title=" ">
<path fill="none" stroke="#63b8ff" d="M144.31,-58.19C135.19,-49.11 125.78,-38.9 119.16,-30.83"/>
<polygon fill="#63b8ff" stroke="#63b8ff" points="141.81,-60.63 151.43,-65.06 146.67,-55.6 141.81,-60.63"/>
</a>
</g>
</g>
<!-- Node4&#45;&gt;Node1 -->
<g id="edge8_Node000001_Node000004" class="edge">
<title>Node4&#45;&gt;Node1</title>
<g id="a_edge8_Node000001_Node000004"><a xlink:title=" ">
<path fill="none" stroke="#63b8ff" d="M156.76,-57.63C148.8,-48.69 139.14,-38.74 130.67,-30.83"/>
<polygon fill="#63b8ff" stroke="#63b8ff" points="153.89,-59.66 163.06,-64.97 159.2,-55.1 153.89,-59.66"/>
</a>
</g>
</g>
</g>
</svg>
