<?xml version="1.0" encoding="UTF-8" standalone="no"?>
<!DOCTYPE svg PUBLIC "-//W3C//DTD SVG 1.1//EN"
 "http://www.w3.org/Graphics/SVG/1.1/DTD/svg11.dtd">
<!-- Generated by graphviz version 9.0.0 (20230911.1827)
 -->
<!-- Title: dunedaq::datahandlinglibs::DefaultRequestHandlerModel&lt; ReadoutType, LatencyBufferType &gt; Pages: 1 -->
<svg width="944pt" height="170pt"
 viewBox="0.00 0.00 943.75 169.75" xmlns="http://www.w3.org/2000/svg" xmlns:xlink="http://www.w3.org/1999/xlink">
<g id="graph0" class="graph" transform="scale(1 1) rotate(0) translate(4 165.75)">
<title>dunedaq::datahandlinglibs::DefaultRequestHandlerModel&lt; ReadoutType, LatencyBufferType &gt;</title>
<!-- Node1 -->
<g id="Node000001" class="node">
<title>Node1</title>
<g id="a_Node000001"><a xlink:title=" ">
<polygon fill="#999999" stroke="#666666" points="524.25,-101.75 348.5,-101.75 348.5,-60 524.25,-60 524.25,-101.75"/>
<text text-anchor="start" x="356.5" y="-88.25" font-family="Helvetica,sans-Serif" font-size="10.00">dunedaq::datahandlinglibs</text>
<text text-anchor="start" x="356.5" y="-77" font-family="Helvetica,sans-Serif" font-size="10.00">::DefaultRequestHandlerModel</text>
<text text-anchor="middle" x="436.38" y="-65.75" font-family="Helvetica,sans-Serif" font-size="10.00">&lt; ReadoutType, LatencyBufferType &gt;</text>
</a>
</g>
</g>
<!-- Node4 -->
<g id="Node000004" class="node">
<title>Node4</title>
<g id="a_Node000004"><a xlink:href="classdunedaq_1_1datahandlinglibs_1_1DefaultSkipListRequestHandler.html" target="_top" xlink:title=" ">
<polygon fill="white" stroke="#666666" points="739.75,-161.75 582.75,-161.75 582.75,-120 739.75,-120 739.75,-161.75"/>
<text text-anchor="start" x="590.75" y="-148.25" font-family="Helvetica,sans-Serif" font-size="10.00">dunedaq::datahandlinglibs</text>
<text text-anchor="start" x="590.75" y="-137" font-family="Helvetica,sans-Serif" font-size="10.00">::DefaultSkipListRequestHandler</text>
<text text-anchor="middle" x="661.25" y="-125.75" font-family="Helvetica,sans-Serif" font-size="10.00">&lt; TriggerPrimitiveTypeAdapter &gt;</text>
</a>
</g>
</g>
<!-- Node1&#45;&gt;Node4 -->
<g id="edge3_Node000001_Node000004" class="edge">
<title>Node1&#45;&gt;Node4</title>
<g id="a_edge3_Node000001_Node000004"><a xlink:title=" ">
<path fill="none" stroke="#63b8ff" d="M527.49,-105.14C545.69,-110.04 564.69,-115.15 582.42,-119.92"/>
<polygon fill="#63b8ff" stroke="#63b8ff" points="528.61,-101.81 518.04,-102.59 526.79,-108.57 528.61,-101.81"/>
</a>
</g>
</g>
<!-- Node6 -->
<g id="Node000006" class="node">
<title>Node6</title>
<g id="a_Node000006"><a xlink:href="classdunedaq_1_1datahandlinglibs_1_1EmptyFragmentRequestHandlerModel.html" target="_top" xlink:title=" ">
<polygon fill="white" stroke="#666666" points="753.62,-101.75 568.88,-101.75 568.88,-60 753.62,-60 753.62,-101.75"/>
<text text-anchor="start" x="576.88" y="-88.25" font-family="Helvetica,sans-Serif" font-size="10.00">dunedaq::datahandlinglibs</text>
<text text-anchor="start" x="576.88" y="-77" font-family="Helvetica,sans-Serif" font-size="10.00">::EmptyFragmentRequestHandlerModel</text>
<text text-anchor="middle" x="661.25" y="-65.75" font-family="Helvetica,sans-Serif" font-size="10.00">&lt; ReadoutType, LatencyBufferType &gt;</text>
</a>
</g>
</g>
<!-- Node1&#45;&gt;Node6 -->
<g id="edge5_Node000001_Node000006" class="edge">
<title>Node1&#45;&gt;Node6</title>
<g id="a_edge5_Node000001_Node000006"><a xlink:title=" ">
<path fill="none" stroke="#63b8ff" d="M535.74,-80.88C546.6,-80.88 557.63,-80.88 568.4,-80.88"/>
<polygon fill="#63b8ff" stroke="#63b8ff" points="536.02,-77.38 526.02,-80.88 536.02,-84.38 536.02,-77.38"/>
</a>
</g>
</g>
<!-- Node7 -->
<g id="Node000007" class="node">
<title>Node7</title>
<g id="a_Node000007"><a xlink:href="classdunedaq_1_1datahandlinglibs_1_1ZeroCopyRecordingRequestHandlerModel.html" target="_top" xlink:title=" ">
<polygon fill="white" stroke="#666666" points="762.25,-41.75 560.25,-41.75 560.25,0 762.25,0 762.25,-41.75"/>
<text text-anchor="start" x="568.25" y="-28.25" font-family="Helvetica,sans-Serif" font-size="10.00">dunedaq::datahandlinglibs</text>
<text text-anchor="start" x="568.25" y="-17" font-family="Helvetica,sans-Serif" font-size="10.00">::ZeroCopyRecordingRequestHandler</text>
<text text-anchor="middle" x="661.25" y="-5.75" font-family="Helvetica,sans-Serif" font-size="10.00">Model&lt; ReadoutType, LatencyBufferType &gt;</text>
</a>
</g>
</g>
<!-- Node1&#45;&gt;Node7 -->
<g id="edge6_Node000001_Node000007" class="edge">
<title>Node1&#45;&gt;Node7</title>
<g id="a_edge6_Node000001_Node000007"><a xlink:title=" ">
<path fill="none" stroke="#63b8ff" d="M527.48,-56.62C545.18,-51.85 563.62,-46.89 580.92,-42.23"/>
<polygon fill="#63b8ff" stroke="#63b8ff" points="526.79,-53.18 518.04,-59.16 528.61,-59.94 526.79,-53.18"/>
</a>
</g>
</g>
<!-- Node2 -->
<g id="Node000002" class="node">
<title>Node2</title>
<g id="a_Node000002"><a xlink:href="classdunedaq_1_1datahandlinglibs_1_1RequestHandlerConcept.html" target="_top" xlink:title=" ">
<polygon fill="white" stroke="#666666" points="312.5,-101.75 136.75,-101.75 136.75,-60 312.5,-60 312.5,-101.75"/>
<text text-anchor="start" x="144.75" y="-88.25" font-family="Helvetica,sans-Serif" font-size="10.00">dunedaq::datahandlinglibs</text>
<text text-anchor="start" x="144.75" y="-77" font-family="Helvetica,sans-Serif" font-size="10.00">::RequestHandlerConcept</text>
<text text-anchor="middle" x="224.62" y="-65.75" font-family="Helvetica,sans-Serif" font-size="10.00">&lt; ReadoutType, LatencyBufferType &gt;</text>
</a>
</g>
</g>
<!-- Node2&#45;&gt;Node1 -->
<g id="edge1_Node000001_Node000002" class="edge">
<title>Node2&#45;&gt;Node1</title>
<g id="a_edge1_Node000001_Node000002"><a xlink:title=" ">
<path fill="none" stroke="#63b8ff" d="M324.08,-80.88C332.12,-80.88 340.22,-80.88 348.18,-80.88"/>
<polygon fill="#63b8ff" stroke="#63b8ff" points="324.27,-77.38 314.27,-80.88 324.27,-84.38 324.27,-77.38"/>
</a>
</g>
</g>
<!-- Node3 -->
<g id="Node000003" class="node">
<title>Node3</title>
<g id="a_Node000003"><a xlink:href="classdunedaq_1_1opmonlib_1_1MonitorableObject.html" target="_top" xlink:title=" ">
<polygon fill="white" stroke="#666666" points="100.75,-96.12 0,-96.12 0,-65.62 100.75,-65.62 100.75,-96.12"/>
<text text-anchor="start" x="8" y="-82.62" font-family="Helvetica,sans-Serif" font-size="10.00">dunedaq::opmonlib::</text>
<text text-anchor="middle" x="50.38" y="-71.38" font-family="Helvetica,sans-Serif" font-size="10.00">MonitorableObject</text>
</a>
</g>
</g>
<!-- Node3&#45;&gt;Node2 -->
<g id="edge2_Node000002_Node000003" class="edge">
<title>Node3&#45;&gt;Node2</title>
<g id="a_edge2_Node000002_Node000003"><a xlink:title=" ">
<path fill="none" stroke="#63b8ff" d="M112.61,-80.88C120.29,-80.88 128.27,-80.88 136.26,-80.88"/>
<polygon fill="#63b8ff" stroke="#63b8ff" points="112.71,-77.38 102.71,-80.88 112.71,-84.38 112.71,-77.38"/>
</a>
</g>
</g>
<!-- Node5 -->
<g id="Node000005" class="node">
<title>Node5</title>
<g id="a_Node000005"><a xlink:href="classdunedaq_1_1trigger_1_1TPRequestHandler.html" target="_top" xlink:title=" ">
<polygon fill="white" stroke="#666666" points="935.75,-156.12 798.25,-156.12 798.25,-125.62 935.75,-125.62 935.75,-156.12"/>
<text text-anchor="start" x="806.25" y="-142.62" font-family="Helvetica,sans-Serif" font-size="10.00">dunedaq::trigger::TPRequest</text>
<text text-anchor="middle" x="867" y="-131.38" font-family="Helvetica,sans-Serif" font-size="10.00">Handler</text>
</a>
</g>
</g>
<!-- Node4&#45;&gt;Node5 -->
<g id="edge4_Node000004_Node000005" class="edge">
<title>Node4&#45;&gt;Node5</title>
<g id="a_edge4_Node000004_Node000005"><a xlink:title=" ">
<path fill="none" stroke="#63b8ff" d="M751.39,-140.88C766.95,-140.88 782.91,-140.88 797.8,-140.88"/>
<polygon fill="#63b8ff" stroke="#63b8ff" points="751.66,-137.38 741.66,-140.88 751.66,-144.38 751.66,-137.38"/>
</a>
</g>
</g>
</g>
</svg>
