<?xml version="1.0" encoding="UTF-8" standalone="no"?>
<!DOCTYPE svg PUBLIC "-//W3C//DTD SVG 1.1//EN"
 "http://www.w3.org/Graphics/SVG/1.1/DTD/svg11.dtd">
<!-- Generated by graphviz version 9.0.0 (20230911.1827)
 -->
<!-- Title: dunedaq::dfmodules::opmon::DFOInfo Pages: 1 -->
<svg width="274pt" height="116pt"
 viewBox="0.00 0.00 274.00 116.25" xmlns="http://www.w3.org/2000/svg" xmlns:xlink="http://www.w3.org/1999/xlink">
<g id="graph0" class="graph" transform="scale(1 1) rotate(0) translate(4 112.25)">
<title>dunedaq::dfmodules::opmon::DFOInfo</title>
<!-- Node1 -->
<g id="Node000001" class="node">
<title>Node1</title>
<g id="a_Node000001"><a xlink:title=" ">
<polygon fill="#999999" stroke="#666666" points="186.38,-30.5 84.12,-30.5 84.12,0 186.38,0 186.38,-30.5"/>
<text text-anchor="start" x="92.12" y="-17" font-family="Helvetica,sans-Serif" font-size="10.00">dunedaq::dfmodules</text>
<text text-anchor="middle" x="135.25" y="-5.75" font-family="Helvetica,sans-Serif" font-size="10.00">::opmon::DFOInfo</text>
</a>
</g>
</g>
<!-- Node2 -->
<g id="Node000002" class="node">
<title>Node2</title>
<g id="a_Node000002"><a xlink:title=" ">
<polygon fill="white" stroke="#666666" points="128.5,-102.62 0,-102.62 0,-83.38 128.5,-83.38 128.5,-102.62"/>
<text text-anchor="middle" x="64.25" y="-89.12" font-family="Helvetica,sans-Serif" font-size="10.00">google::protobuf::Message</text>
</a>
</g>
</g>
<!-- Node2&#45;&gt;Node1 -->
<g id="edge1_Node000001_Node000002" class="edge">
<title>Node2&#45;&gt;Node1</title>
<g id="a_edge1_Node000001_Node000002"><a xlink:title=" ">
<path fill="none" stroke="#63b8ff" d="M80.41,-74.76C92.81,-61.53 109.73,-43.48 121.48,-30.94"/>
<polygon fill="#63b8ff" stroke="#63b8ff" points="77.99,-72.22 73.71,-81.91 83.1,-77.01 77.99,-72.22"/>
</a>
</g>
</g>
<!-- Node3 -->
<g id="Node000003" class="node">
<title>Node3</title>
<g id="a_Node000003"><a xlink:href="structdunedaq_1_1dfmodules_1_1opmon_1_1DFOInfo_1_1Impl__.html" target="_top" xlink:title=" ">
<polygon fill="white" stroke="#666666" points="266,-108.25 146.5,-108.25 146.5,-77.75 266,-77.75 266,-108.25"/>
<text text-anchor="start" x="154.5" y="-94.75" font-family="Helvetica,sans-Serif" font-size="10.00">dunedaq::dfmodules</text>
<text text-anchor="middle" x="206.25" y="-83.5" font-family="Helvetica,sans-Serif" font-size="10.00">::opmon::DFOInfo::Impl_</text>
</a>
</g>
</g>
<!-- Node3&#45;&gt;Node1 -->
<g id="edge2_Node000001_Node000003" class="edge">
<title>Node3&#45;&gt;Node1</title>
<g id="a_edge2_Node000001_Node000003"><a xlink:title=" ">
<path fill="none" stroke="#9a32cd" stroke-dasharray="5,2" d="M184.94,-69.26C173.25,-56.79 159.1,-41.7 148.9,-30.81"/>
<polygon fill="#9a32cd" stroke="#9a32cd" points="182.13,-71.39 191.53,-76.29 187.24,-66.6 182.13,-71.39"/>
</a>
</g>
<text text-anchor="middle" x="189.62" y="-50.25" font-family="Helvetica,sans-Serif" font-size="10.00" fill="grey"> _impl_</text>
</g>
</g>
</svg>
