<?xml version="1.0" encoding="UTF-8" standalone="no"?>
<!DOCTYPE svg PUBLIC "-//W3C//DTD SVG 1.1//EN"
 "http://www.w3.org/Graphics/SVG/1.1/DTD/svg11.dtd">
<!-- Generated by graphviz version 9.0.0 (20230911.1827)
 -->
<!-- Title: dunedaq::trigger::TAProcessor Pages: 1 -->
<svg width="1217pt" height="154pt"
 viewBox="0.00 0.00 1217.25 154.25" xmlns="http://www.w3.org/2000/svg" xmlns:xlink="http://www.w3.org/1999/xlink">
<g id="graph0" class="graph" transform="scale(1 1) rotate(0) translate(4 150.25)">
<title>dunedaq::trigger::TAProcessor</title>
<!-- Node1 -->
<g id="Node000001" class="node">
<title>Node1</title>
<g id="a_Node000001"><a xlink:title=" ">
<polygon fill="#999999" stroke="#666666" points="1209.25,-65.25 1063.5,-65.25 1063.5,-46 1209.25,-46 1209.25,-65.25"/>
<text text-anchor="middle" x="1136.38" y="-51.75" font-family="Helvetica,sans-Serif" font-size="10.00">dunedaq::trigger::TAProcessor</text>
</a>
</g>
</g>
<!-- Node2 -->
<g id="Node000002" class="node">
<title>Node2</title>
<g id="a_Node000002"><a xlink:href="classdunedaq_1_1datahandlinglibs_1_1TaskRawDataProcessorModel.html" target="_top" xlink:title=" ">
<polygon fill="white" stroke="#666666" points="939,-126.5 786.5,-126.5 786.5,-84.75 939,-84.75 939,-126.5"/>
<text text-anchor="start" x="794.5" y="-113" font-family="Helvetica,sans-Serif" font-size="10.00">dunedaq::datahandlinglibs</text>
<text text-anchor="start" x="794.5" y="-101.75" font-family="Helvetica,sans-Serif" font-size="10.00">::TaskRawDataProcessorModel</text>
<text text-anchor="middle" x="862.75" y="-90.5" font-family="Helvetica,sans-Serif" font-size="10.00">&lt; TAWrapper &gt;</text>
</a>
</g>
</g>
<!-- Node2&#45;&gt;Node1 -->
<g id="edge1_Node000001_Node000002" class="edge">
<title>Node2&#45;&gt;Node1</title>
<g id="a_edge1_Node000001_Node000002"><a xlink:title=" ">
<path fill="none" stroke="#63b8ff" d="M950.67,-89.63C993.37,-81.76 1043.52,-72.53 1080.78,-65.67"/>
<polygon fill="#63b8ff" stroke="#63b8ff" points="950.1,-86.17 940.9,-91.42 951.37,-93.05 950.1,-86.17"/>
</a>
</g>
</g>
<!-- Node3 -->
<g id="Node000003" class="node">
<title>Node3</title>
<g id="a_Node000003"><a xlink:href="classdunedaq_1_1datahandlinglibs_1_1RawDataProcessorConcept.html" target="_top" xlink:title=" ">
<polygon fill="white" stroke="#666666" points="698,-135.5 557.5,-135.5 557.5,-93.75 698,-93.75 698,-135.5"/>
<text text-anchor="start" x="565.5" y="-122" font-family="Helvetica,sans-Serif" font-size="10.00">dunedaq::datahandlinglibs</text>
<text text-anchor="start" x="565.5" y="-110.75" font-family="Helvetica,sans-Serif" font-size="10.00">::RawDataProcessorConcept</text>
<text text-anchor="middle" x="627.75" y="-99.5" font-family="Helvetica,sans-Serif" font-size="10.00">&lt; ReadoutType &gt;</text>
</a>
</g>
</g>
<!-- Node3&#45;&gt;Node2 -->
<g id="edge2_Node000002_Node000003" class="edge">
<title>Node3&#45;&gt;Node2</title>
<g id="a_edge2_Node000002_Node000003"><a xlink:title=" ">
<path fill="none" stroke="#63b8ff" d="M709.55,-111.5C734.36,-110.55 761.56,-109.5 786.01,-108.55"/>
<polygon fill="#63b8ff" stroke="#63b8ff" points="709.71,-108 699.85,-111.88 709.98,-114.99 709.71,-108"/>
</a>
</g>
</g>
<!-- Node4 -->
<g id="Node000004" class="node">
<title>Node4</title>
<g id="a_Node000004"><a xlink:href="classdunedaq_1_1opmonlib_1_1MonitorableObject.html" target="_top" xlink:title=" ">
<polygon fill="white" stroke="#666666" points="520.5,-129.88 419.75,-129.88 419.75,-99.38 520.5,-99.38 520.5,-129.88"/>
<text text-anchor="start" x="427.75" y="-116.38" font-family="Helvetica,sans-Serif" font-size="10.00">dunedaq::opmonlib::</text>
<text text-anchor="middle" x="470.12" y="-105.12" font-family="Helvetica,sans-Serif" font-size="10.00">MonitorableObject</text>
</a>
</g>
</g>
<!-- Node4&#45;&gt;Node3 -->
<g id="edge3_Node000003_Node000004" class="edge">
<title>Node4&#45;&gt;Node3</title>
<g id="a_edge3_Node000003_Node000004"><a xlink:title=" ">
<path fill="none" stroke="#63b8ff" d="M532.16,-114.62C540.35,-114.62 548.8,-114.62 557.13,-114.62"/>
<polygon fill="#63b8ff" stroke="#63b8ff" points="532.31,-111.13 522.31,-114.63 532.31,-118.13 532.31,-111.13"/>
</a>
</g>
</g>
<!-- Node5 -->
<g id="Node000005" class="node">
<title>Node5</title>
<g id="a_Node000005"><a xlink:href="classdunedaq_1_1opmon_1_1OpMonId.html" target="_top" xlink:title=" ">
<polygon fill="white" stroke="#666666" points="328.25,-124.25 197.5,-124.25 197.5,-105 328.25,-105 328.25,-124.25"/>
<text text-anchor="middle" x="262.88" y="-110.75" font-family="Helvetica,sans-Serif" font-size="10.00">dunedaq::opmon::OpMonId</text>
</a>
</g>
</g>
<!-- Node5&#45;&gt;Node4 -->
<g id="edge4_Node000004_Node000005" class="edge">
<title>Node5&#45;&gt;Node4</title>
<g id="a_edge4_Node000004_Node000005"><a xlink:title=" ">
<path fill="none" stroke="#9a32cd" stroke-dasharray="5,2" d="M339.76,-114.62C366.36,-114.62 395.53,-114.62 419.44,-114.62"/>
<polygon fill="#9a32cd" stroke="#9a32cd" points="340.05,-111.13 330.05,-114.63 340.05,-118.13 340.05,-111.13"/>
</a>
</g>
<text text-anchor="middle" x="374" y="-116.38" font-family="Helvetica,sans-Serif" font-size="10.00" fill="grey"> m_parent_id</text>
</g>
<!-- Node6 -->
<g id="Node000006" class="node">
<title>Node6</title>
<g id="a_Node000006"><a xlink:title=" ">
<polygon fill="white" stroke="#666666" points="129.62,-146.25 1.12,-146.25 1.12,-127 129.62,-127 129.62,-146.25"/>
<text text-anchor="middle" x="65.38" y="-132.75" font-family="Helvetica,sans-Serif" font-size="10.00">google::protobuf::Message</text>
</a>
</g>
</g>
<!-- Node6&#45;&gt;Node5 -->
<g id="edge5_Node000005_Node000006" class="edge">
<title>Node6&#45;&gt;Node5</title>
<g id="a_edge5_Node000005_Node000006"><a xlink:title=" ">
<path fill="none" stroke="#63b8ff" d="M141.4,-128.18C159.81,-126.11 179.35,-123.91 197.21,-121.9"/>
<polygon fill="#63b8ff" stroke="#63b8ff" points="141.17,-124.69 131.62,-129.28 141.95,-131.64 141.17,-124.69"/>
</a>
</g>
</g>
<!-- Node7 -->
<g id="Node000007" class="node">
<title>Node7</title>
<g id="a_Node000007"><a xlink:href="structdunedaq_1_1opmon_1_1OpMonId_1_1Impl__.html" target="_top" xlink:title=" ">
<polygon fill="white" stroke="#666666" points="130.75,-108.88 0,-108.88 0,-78.38 130.75,-78.38 130.75,-108.88"/>
<text text-anchor="start" x="8" y="-95.38" font-family="Helvetica,sans-Serif" font-size="10.00">dunedaq::opmon::OpMonId</text>
<text text-anchor="middle" x="65.38" y="-84.12" font-family="Helvetica,sans-Serif" font-size="10.00">::Impl_</text>
</a>
</g>
</g>
<!-- Node7&#45;&gt;Node5 -->
<g id="edge6_Node000005_Node000007" class="edge">
<title>Node7&#45;&gt;Node5</title>
<g id="a_edge6_Node000005_Node000007"><a xlink:title=" ">
<path fill="none" stroke="#9a32cd" stroke-dasharray="5,2" d="M142.59,-101.81C160.65,-103.75 179.74,-105.8 197.22,-107.68"/>
<polygon fill="#9a32cd" stroke="#9a32cd" points="143.02,-98.34 132.71,-100.75 142.28,-105.3 143.02,-98.34"/>
</a>
</g>
<text text-anchor="middle" x="164.12" y="-106.38" font-family="Helvetica,sans-Serif" font-size="10.00" fill="grey"> _impl_</text>
</g>
<!-- Node8 -->
<g id="Node000008" class="node">
<title>Node8</title>
<g id="a_Node000008"><a xlink:href="structdunedaq_1_1daqdataformats_1_1SourceID.html" target="_top" xlink:title="SourceID is a generalized representation of the source of a piece of data in the DAQ....">
<polygon fill="white" stroke="#666666" points="690.12,-73.88 565.38,-73.88 565.38,-43.38 690.12,-43.38 690.12,-73.88"/>
<text text-anchor="start" x="573.38" y="-60.38" font-family="Helvetica,sans-Serif" font-size="10.00">dunedaq::daqdataformats</text>
<text text-anchor="middle" x="627.75" y="-49.12" font-family="Helvetica,sans-Serif" font-size="10.00">::SourceID</text>
</a>
</g>
</g>
<!-- Node8&#45;&gt;Node1 -->
<g id="edge8_Node000001_Node000008" class="edge">
<title>Node8&#45;&gt;Node1</title>
<g id="a_edge8_Node000001_Node000008"><a xlink:title=" ">
<path fill="none" stroke="#9a32cd" stroke-dasharray="5,2" d="M702.02,-58.19C798.56,-57.62 967.31,-56.62 1063.26,-56.05"/>
<polygon fill="#9a32cd" stroke="#9a32cd" points="702.11,-54.69 692.13,-58.25 702.15,-61.69 702.11,-54.69"/>
</a>
</g>
<text text-anchor="middle" x="862.75" y="-59.38" font-family="Helvetica,sans-Serif" font-size="10.00" fill="grey"> m_sourceid</text>
</g>
<!-- Node8&#45;&gt;Node2 -->
<g id="edge7_Node000002_Node000008" class="edge">
<title>Node8&#45;&gt;Node2</title>
<g id="a_edge7_Node000002_Node000008"><a xlink:title=" ">
<path fill="none" stroke="#9a32cd" stroke-dasharray="5,2" d="M701.86,-73.37C728.75,-78.8 759.23,-84.95 786.32,-90.41"/>
<polygon fill="#9a32cd" stroke="#9a32cd" points="702.56,-69.94 692.06,-71.4 701.17,-76.8 702.56,-69.94"/>
</a>
</g>
<text text-anchor="middle" x="742.25" y="-87.38" font-family="Helvetica,sans-Serif" font-size="10.00" fill="grey"> m_sourceid</text>
</g>
<!-- Node9 -->
<g id="Node000009" class="node">
<title>Node9</title>
<g id="a_Node000009"><a xlink:href="classdunedaq_1_1trigger_1_1Latency.html" target="_top" xlink:title=" ">
<polygon fill="white" stroke="#666666" points="924.38,-19.25 801.12,-19.25 801.12,0 924.38,0 924.38,-19.25"/>
<text text-anchor="middle" x="862.75" y="-5.75" font-family="Helvetica,sans-Serif" font-size="10.00">dunedaq::trigger::Latency</text>
</a>
</g>
</g>
<!-- Node9&#45;&gt;Node1 -->
<g id="edge9_Node000001_Node000009" class="edge">
<title>Node9&#45;&gt;Node1</title>
<g id="a_edge9_Node000001_Node000009"><a xlink:title=" ">
<path fill="none" stroke="#9a32cd" stroke-dasharray="5,2" d="M935.81,-15.17C969.34,-18.44 1009.66,-23.34 1045.5,-30.38 1065.38,-34.28 1087.27,-40.39 1104.48,-45.62"/>
<polygon fill="#9a32cd" stroke="#9a32cd" points="936.5,-11.72 926.21,-14.27 935.84,-18.69 936.5,-11.72"/>
</a>
</g>
<text text-anchor="middle" x="1001.25" y="-32.38" font-family="Helvetica,sans-Serif" font-size="10.00" fill="grey"> m_latency_instance</text>
</g>
</g>
</svg>
