<?xml version="1.0" encoding="UTF-8" standalone="no"?>
<!DOCTYPE svg PUBLIC "-//W3C//DTD SVG 1.1//EN"
 "http://www.w3.org/Graphics/SVG/1.1/DTD/svg11.dtd">
<!-- Generated by graphviz version 9.0.0 (20230911.1827)
 -->
<!-- Title: dunedaq::trigger::opmon::TriggerLatency Pages: 1 -->
<svg width="272pt" height="116pt"
 viewBox="0.00 0.00 272.25 116.25" xmlns="http://www.w3.org/2000/svg" xmlns:xlink="http://www.w3.org/1999/xlink">
<g id="graph0" class="graph" transform="scale(1 1) rotate(0) translate(4 112.25)">
<title>dunedaq::trigger::opmon::TriggerLatency</title>
<!-- Node1 -->
<g id="Node000001" class="node">
<title>Node1</title>
<g id="a_Node000001"><a xlink:title=" ">
<polygon fill="#999999" stroke="#666666" points="193.25,-30.5 75.25,-30.5 75.25,0 193.25,0 193.25,-30.5"/>
<text text-anchor="start" x="83.25" y="-17" font-family="Helvetica,sans-Serif" font-size="10.00">dunedaq::trigger::opmon</text>
<text text-anchor="middle" x="134.25" y="-5.75" font-family="Helvetica,sans-Serif" font-size="10.00">::TriggerLatency</text>
</a>
</g>
</g>
<!-- Node2 -->
<g id="Node000002" class="node">
<title>Node2</title>
<g id="a_Node000002"><a xlink:title=" ">
<polygon fill="white" stroke="#666666" points="128.5,-102.62 0,-102.62 0,-83.38 128.5,-83.38 128.5,-102.62"/>
<text text-anchor="middle" x="64.25" y="-89.12" font-family="Helvetica,sans-Serif" font-size="10.00">google::protobuf::Message</text>
</a>
</g>
</g>
<!-- Node2&#45;&gt;Node1 -->
<g id="edge1_Node000001_Node000002" class="edge">
<title>Node2&#45;&gt;Node1</title>
<g id="a_edge1_Node000001_Node000002"><a xlink:title=" ">
<path fill="none" stroke="#63b8ff" d="M80.18,-74.76C92.4,-61.53 109.09,-43.48 120.68,-30.94"/>
<polygon fill="#63b8ff" stroke="#63b8ff" points="77.8,-72.18 73.58,-81.9 82.94,-76.93 77.8,-72.18"/>
</a>
</g>
</g>
<!-- Node3 -->
<g id="Node000003" class="node">
<title>Node3</title>
<g id="a_Node000003"><a xlink:href="structdunedaq_1_1trigger_1_1opmon_1_1TriggerLatency_1_1Impl__.html" target="_top" xlink:title=" ">
<polygon fill="white" stroke="#666666" points="264.25,-108.25 146.25,-108.25 146.25,-77.75 264.25,-77.75 264.25,-108.25"/>
<text text-anchor="start" x="154.25" y="-94.75" font-family="Helvetica,sans-Serif" font-size="10.00">dunedaq::trigger::opmon</text>
<text text-anchor="middle" x="205.25" y="-83.5" font-family="Helvetica,sans-Serif" font-size="10.00">::TriggerLatency::Impl_</text>
</a>
</g>
</g>
<!-- Node3&#45;&gt;Node1 -->
<g id="edge2_Node000001_Node000003" class="edge">
<title>Node3&#45;&gt;Node1</title>
<g id="a_edge2_Node000001_Node000003"><a xlink:title=" ">
<path fill="none" stroke="#9a32cd" stroke-dasharray="5,2" d="M183.94,-69.26C172.25,-56.79 158.1,-41.7 147.9,-30.81"/>
<polygon fill="#9a32cd" stroke="#9a32cd" points="181.13,-71.39 190.53,-76.29 186.24,-66.6 181.13,-71.39"/>
</a>
</g>
<text text-anchor="middle" x="188.62" y="-50.25" font-family="Helvetica,sans-Serif" font-size="10.00" fill="grey"> _impl_</text>
</g>
</g>
</svg>
