<?xml version="1.0" encoding="UTF-8" standalone="no"?>
<!DOCTYPE svg PUBLIC "-//W3C//DTD SVG 1.1//EN"
 "http://www.w3.org/Graphics/SVG/1.1/DTD/svg11.dtd">
<!-- Generated by graphviz version 9.0.0 (20230911.1827)
 -->
<!-- Title: dunedaq::trigger::opmon::TriggerPrimitiveMakerInfo Pages: 1 -->
<svg width="339pt" height="88pt"
 viewBox="0.00 0.00 339.25 87.50" xmlns="http://www.w3.org/2000/svg" xmlns:xlink="http://www.w3.org/1999/xlink">
<g id="graph0" class="graph" transform="scale(1 1) rotate(0) translate(4 83.5)">
<title>dunedaq::trigger::opmon::TriggerPrimitiveMakerInfo</title>
<!-- Node1 -->
<g id="Node000001" class="node">
<title>Node1</title>
<g id="a_Node000001"><a xlink:title=" ">
<polygon fill="#999999" stroke="#666666" points="331.25,-60.12 199,-60.12 199,-29.62 331.25,-29.62 331.25,-60.12"/>
<text text-anchor="start" x="207" y="-46.62" font-family="Helvetica,sans-Serif" font-size="10.00">dunedaq::trigger::opmon</text>
<text text-anchor="middle" x="265.12" y="-35.38" font-family="Helvetica,sans-Serif" font-size="10.00">::TriggerPrimitiveMakerInfo</text>
</a>
</g>
</g>
<!-- Node2 -->
<g id="Node000002" class="node">
<title>Node2</title>
<g id="a_Node000002"><a xlink:title=" ">
<polygon fill="white" stroke="#666666" points="130.38,-79.5 1.88,-79.5 1.88,-60.25 130.38,-60.25 130.38,-79.5"/>
<text text-anchor="middle" x="66.12" y="-66" font-family="Helvetica,sans-Serif" font-size="10.00">google::protobuf::Message</text>
</a>
</g>
</g>
<!-- Node2&#45;&gt;Node1 -->
<g id="edge1_Node000001_Node000002" class="edge">
<title>Node2&#45;&gt;Node1</title>
<g id="a_edge1_Node000001_Node000002"><a xlink:title=" ">
<path fill="none" stroke="#63b8ff" d="M142.2,-60.35C160.78,-57.99 180.54,-55.48 198.63,-53.19"/>
<polygon fill="#63b8ff" stroke="#63b8ff" points="141.79,-56.87 132.31,-61.6 142.68,-63.82 141.79,-56.87"/>
</a>
</g>
</g>
<!-- Node3 -->
<g id="Node000003" class="node">
<title>Node3</title>
<g id="a_Node000003"><a xlink:href="structdunedaq_1_1trigger_1_1opmon_1_1TriggerPrimitiveMakerInfo_1_1Impl__.html" target="_top" xlink:title=" ">
<polygon fill="white" stroke="#666666" points="132.25,-41.75 0,-41.75 0,0 132.25,0 132.25,-41.75"/>
<text text-anchor="start" x="8" y="-28.25" font-family="Helvetica,sans-Serif" font-size="10.00">dunedaq::trigger::opmon</text>
<text text-anchor="start" x="8" y="-17" font-family="Helvetica,sans-Serif" font-size="10.00">::TriggerPrimitiveMakerInfo</text>
<text text-anchor="middle" x="66.12" y="-5.75" font-family="Helvetica,sans-Serif" font-size="10.00">::Impl_</text>
</a>
</g>
</g>
<!-- Node3&#45;&gt;Node1 -->
<g id="edge2_Node000001_Node000003" class="edge">
<title>Node3&#45;&gt;Node1</title>
<g id="a_edge2_Node000001_Node000003"><a xlink:title=" ">
<path fill="none" stroke="#9a32cd" stroke-dasharray="5,2" d="M144.13,-30.26C162.21,-32.46 181.3,-34.78 198.81,-36.92"/>
<polygon fill="#9a32cd" stroke="#9a32cd" points="144.58,-26.78 134.23,-29.05 143.73,-33.73 144.58,-26.78"/>
</a>
</g>
<text text-anchor="middle" x="165.62" y="-36.62" font-family="Helvetica,sans-Serif" font-size="10.00" fill="grey"> _impl_</text>
</g>
</g>
</svg>
