<?xml version="1.0" encoding="UTF-8" standalone="no"?>
<!DOCTYPE svg PUBLIC "-//W3C//DTD SVG 1.1//EN"
 "http://www.w3.org/Graphics/SVG/1.1/DTD/svg11.dtd">
<!-- Generated by graphviz version 9.0.0 (20230911.1827)
 -->
<!-- Title: dunedaq::confmodel::DetectorToDaqConnection Pages: 1 -->
<svg width="146pt" height="360pt"
 viewBox="0.00 0.00 146.25 359.75" xmlns="http://www.w3.org/2000/svg" xmlns:xlink="http://www.w3.org/1999/xlink">
<g id="graph0" class="graph" transform="scale(1 1) rotate(0) translate(4 355.75)">
<title>dunedaq::confmodel::DetectorToDaqConnection</title>
<!-- Node1 -->
<g id="Node000001" class="node">
<title>Node1</title>
<g id="a_Node000001"><a xlink:title=" ">
<polygon fill="#999999" stroke="#666666" points="136.38,-30.5 1.88,-30.5 1.88,0 136.38,0 136.38,-30.5"/>
<text text-anchor="start" x="9.88" y="-17" font-family="Helvetica,sans-Serif" font-size="10.00">dunedaq::confmodel</text>
<text text-anchor="middle" x="69.12" y="-5.75" font-family="Helvetica,sans-Serif" font-size="10.00">::DetectorToDaqConnection</text>
</a>
</g>
</g>
<!-- Node2 -->
<g id="Node000002" class="node">
<title>Node2</title>
<g id="a_Node000002"><a xlink:href="classdunedaq_1_1confmodel_1_1ResourceSetOR.html" target="_top" xlink:title=" ">
<polygon fill="white" stroke="#666666" points="120.25,-97 18,-97 18,-66.5 120.25,-66.5 120.25,-97"/>
<text text-anchor="start" x="26" y="-83.5" font-family="Helvetica,sans-Serif" font-size="10.00">dunedaq::confmodel</text>
<text text-anchor="middle" x="69.12" y="-72.25" font-family="Helvetica,sans-Serif" font-size="10.00">::ResourceSetOR</text>
</a>
</g>
</g>
<!-- Node2&#45;&gt;Node1 -->
<g id="edge1_Node000001_Node000002" class="edge">
<title>Node2&#45;&gt;Node1</title>
<g id="a_edge1_Node000001_Node000002"><a xlink:title=" ">
<path fill="none" stroke="#63b8ff" d="M62.49,-54.81C62.19,-46.64 62.48,-37.91 63.37,-30.83"/>
<polygon fill="#63b8ff" stroke="#63b8ff" points="58.99,-54.9 63.25,-64.6 65.97,-54.37 58.99,-54.9"/>
</a>
</g>
</g>
<!-- Node2&#45;&gt;Node1 -->
<g id="edge10_Node000001_Node000002" class="edge">
<title>Node2&#45;&gt;Node1</title>
<g id="a_edge10_Node000001_Node000002"><a xlink:title=" ">
<path fill="none" stroke="#63b8ff" d="M75.76,-54.81C76.06,-46.64 75.77,-37.91 74.88,-30.83"/>
<polygon fill="#63b8ff" stroke="#63b8ff" points="72.28,-54.37 75,-64.6 79.26,-54.9 72.28,-54.37"/>
</a>
</g>
</g>
<!-- Node3 -->
<g id="Node000003" class="node">
<title>Node3</title>
<g id="a_Node000003"><a xlink:href="classdunedaq_1_1confmodel_1_1ResourceSet.html" target="_top" xlink:title=" ">
<polygon fill="white" stroke="#666666" points="120.25,-163.5 18,-163.5 18,-133 120.25,-133 120.25,-163.5"/>
<text text-anchor="start" x="26" y="-150" font-family="Helvetica,sans-Serif" font-size="10.00">dunedaq::confmodel</text>
<text text-anchor="middle" x="69.12" y="-138.75" font-family="Helvetica,sans-Serif" font-size="10.00">::ResourceSet</text>
</a>
</g>
</g>
<!-- Node3&#45;&gt;Node2 -->
<g id="edge2_Node000002_Node000003" class="edge">
<title>Node3&#45;&gt;Node2</title>
<g id="a_edge2_Node000002_Node000003"><a xlink:title=" ">
<path fill="none" stroke="#63b8ff" d="M62.49,-121.31C62.19,-113.14 62.48,-104.41 63.37,-97.33"/>
<polygon fill="#63b8ff" stroke="#63b8ff" points="58.99,-121.4 63.25,-131.1 65.97,-120.87 58.99,-121.4"/>
</a>
</g>
</g>
<!-- Node3&#45;&gt;Node2 -->
<g id="edge9_Node000002_Node000003" class="edge">
<title>Node3&#45;&gt;Node2</title>
<g id="a_edge9_Node000002_Node000003"><a xlink:title=" ">
<path fill="none" stroke="#63b8ff" d="M75.76,-121.31C76.06,-113.14 75.77,-104.41 74.88,-97.33"/>
<polygon fill="#63b8ff" stroke="#63b8ff" points="72.28,-120.87 75,-131.1 79.26,-121.4 72.28,-120.87"/>
</a>
</g>
</g>
<!-- Node4 -->
<g id="Node000004" class="node">
<title>Node4</title>
<g id="a_Node000004"><a xlink:href="classdunedaq_1_1confmodel_1_1ResourceBase.html" target="_top" xlink:title=" ">
<polygon fill="white" stroke="#666666" points="120.25,-230 18,-230 18,-199.5 120.25,-199.5 120.25,-230"/>
<text text-anchor="start" x="26" y="-216.5" font-family="Helvetica,sans-Serif" font-size="10.00">dunedaq::confmodel</text>
<text text-anchor="middle" x="69.12" y="-205.25" font-family="Helvetica,sans-Serif" font-size="10.00">::ResourceBase</text>
</a>
</g>
</g>
<!-- Node4&#45;&gt;Node3 -->
<g id="edge3_Node000003_Node000004" class="edge">
<title>Node4&#45;&gt;Node3</title>
<g id="a_edge3_Node000003_Node000004"><a xlink:title=" ">
<path fill="none" stroke="#63b8ff" d="M62.49,-187.81C62.19,-179.64 62.48,-170.91 63.37,-163.83"/>
<polygon fill="#63b8ff" stroke="#63b8ff" points="58.99,-187.9 63.25,-197.6 65.97,-187.37 58.99,-187.9"/>
</a>
</g>
</g>
<!-- Node4&#45;&gt;Node3 -->
<g id="edge8_Node000003_Node000004" class="edge">
<title>Node4&#45;&gt;Node3</title>
<g id="a_edge8_Node000003_Node000004"><a xlink:title=" ">
<path fill="none" stroke="#63b8ff" d="M75.76,-187.81C76.06,-179.64 75.77,-170.91 74.88,-163.83"/>
<polygon fill="#63b8ff" stroke="#63b8ff" points="72.28,-187.37 75,-197.6 79.26,-187.9 72.28,-187.37"/>
</a>
</g>
</g>
<!-- Node5 -->
<g id="Node000005" class="node">
<title>Node5</title>
<g id="a_Node000005"><a xlink:href="classdunedaq_1_1confmodel_1_1Component.html" target="_top" xlink:title=" ">
<polygon fill="white" stroke="#666666" points="120.25,-296.5 18,-296.5 18,-266 120.25,-266 120.25,-296.5"/>
<text text-anchor="start" x="26" y="-283" font-family="Helvetica,sans-Serif" font-size="10.00">dunedaq::confmodel</text>
<text text-anchor="middle" x="69.12" y="-271.75" font-family="Helvetica,sans-Serif" font-size="10.00">::Component</text>
</a>
</g>
</g>
<!-- Node5&#45;&gt;Node4 -->
<g id="edge4_Node000004_Node000005" class="edge">
<title>Node5&#45;&gt;Node4</title>
<g id="a_edge4_Node000004_Node000005"><a xlink:title=" ">
<path fill="none" stroke="#63b8ff" d="M62.49,-254.31C62.19,-246.14 62.48,-237.41 63.37,-230.33"/>
<polygon fill="#63b8ff" stroke="#63b8ff" points="58.99,-254.4 63.25,-264.1 65.97,-253.87 58.99,-254.4"/>
</a>
</g>
</g>
<!-- Node5&#45;&gt;Node4 -->
<g id="edge7_Node000004_Node000005" class="edge">
<title>Node5&#45;&gt;Node4</title>
<g id="a_edge7_Node000004_Node000005"><a xlink:title=" ">
<path fill="none" stroke="#63b8ff" d="M75.76,-254.31C76.06,-246.14 75.77,-237.41 74.88,-230.33"/>
<polygon fill="#63b8ff" stroke="#63b8ff" points="72.28,-253.87 75,-264.1 79.26,-254.4 72.28,-253.87"/>
</a>
</g>
</g>
<!-- Node6 -->
<g id="Node000006" class="node">
<title>Node6</title>
<g id="a_Node000006"><a xlink:href="classdunedaq_1_1conffwk_1_1DalObject.html" target="_top" xlink:title="The base class for any generated DAL object.">
<polygon fill="white" stroke="#666666" points="138.25,-351.75 0,-351.75 0,-332.5 138.25,-332.5 138.25,-351.75"/>
<text text-anchor="middle" x="69.12" y="-338.25" font-family="Helvetica,sans-Serif" font-size="10.00">dunedaq::conffwk::DalObject</text>
</a>
</g>
</g>
<!-- Node6&#45;&gt;Node5 -->
<g id="edge5_Node000005_Node000006" class="edge">
<title>Node6&#45;&gt;Node5</title>
<g id="a_edge5_Node000005_Node000006"><a xlink:title=" ">
<path fill="none" stroke="#63b8ff" d="M62.68,-320.92C62.14,-312.99 62.32,-304.06 63.21,-296.78"/>
<polygon fill="#63b8ff" stroke="#63b8ff" points="59.19,-321.2 63.92,-330.68 66.13,-320.32 59.19,-321.2"/>
</a>
</g>
</g>
<!-- Node6&#45;&gt;Node5 -->
<g id="edge6_Node000005_Node000006" class="edge">
<title>Node6&#45;&gt;Node5</title>
<g id="a_edge6_Node000005_Node000006"><a xlink:title=" ">
<path fill="none" stroke="#63b8ff" d="M75.57,-320.92C76.11,-312.99 75.93,-304.06 75.04,-296.78"/>
<polygon fill="#63b8ff" stroke="#63b8ff" points="72.12,-320.32 74.33,-330.68 79.06,-321.2 72.12,-320.32"/>
</a>
</g>
</g>
</g>
</svg>
