<?xml version="1.0" encoding="UTF-8" standalone="no"?>
<!DOCTYPE svg PUBLIC "-//W3C//DTD SVG 1.1//EN"
 "http://www.w3.org/Graphics/SVG/1.1/DTD/svg11.dtd">
<!-- Generated by graphviz version 9.0.0 (20230911.1827)
 -->
<!-- Title: dbse::SchemaMethodImplementationEditor Pages: 1 -->
<svg width="1800pt" height="380pt"
 viewBox="0.00 0.00 1799.75 379.62" xmlns="http://www.w3.org/2000/svg" xmlns:xlink="http://www.w3.org/1999/xlink">
<g id="graph0" class="graph" transform="scale(1 1) rotate(0) translate(4 375.62)">
<title>dbse::SchemaMethodImplementationEditor</title>
<!-- Node1 -->
<g id="Node000001" class="node">
<title>Node1</title>
<g id="a_Node000001"><a xlink:title=" ">
<polygon fill="#999999" stroke="#666666" points="1298.5,-138.25 1122,-138.25 1122,-107.75 1298.5,-107.75 1298.5,-138.25"/>
<text text-anchor="start" x="1130" y="-124.75" font-family="Helvetica,sans-Serif" font-size="10.00">dbse::SchemaMethodImplementation</text>
<text text-anchor="middle" x="1210.25" y="-113.5" font-family="Helvetica,sans-Serif" font-size="10.00">Editor</text>
</a>
</g>
</g>
<!-- Node2 -->
<g id="Node000002" class="node">
<title>Node2</title>
<g id="a_Node000002"><a xlink:title=" ">
<polygon fill="white" stroke="#666666" points="910.5,-132.62 857,-132.62 857,-113.38 910.5,-113.38 910.5,-132.62"/>
<text text-anchor="middle" x="883.75" y="-119.12" font-family="Helvetica,sans-Serif" font-size="10.00">QWidget</text>
</a>
</g>
</g>
<!-- Node2&#45;&gt;Node1 -->
<g id="edge1_Node000001_Node000002" class="edge">
<title>Node2&#45;&gt;Node1</title>
<g id="a_edge1_Node000001_Node000002"><a xlink:title=" ">
<path fill="none" stroke="#63b8ff" d="M922.23,-123C970.64,-123 1056.44,-123 1121.66,-123"/>
<polygon fill="#63b8ff" stroke="#63b8ff" points="922.27,-119.5 912.27,-123 922.27,-126.5 922.27,-119.5"/>
</a>
</g>
</g>
<!-- Node3 -->
<g id="Node000003" class="node">
<title>Node3</title>
<g id="a_Node000003"><a xlink:href="classdunedaq_1_1oks_1_1OksClass.html" target="_top" xlink:title="The OKS class.">
<polygon fill="white" stroke="#666666" points="483.62,-170.62 363.38,-170.62 363.38,-151.38 483.62,-151.38 483.62,-170.62"/>
<text text-anchor="middle" x="423.5" y="-157.12" font-family="Helvetica,sans-Serif" font-size="10.00">dunedaq::oks::OksClass</text>
</a>
</g>
</g>
<!-- Node3&#45;&gt;Node1 -->
<g id="edge2_Node000001_Node000003" class="edge">
<title>Node3&#45;&gt;Node1</title>
<g id="a_edge2_Node000001_Node000003"><a xlink:title=" ">
<path fill="none" stroke="#9a32cd" stroke-dasharray="5,2" d="M495.27,-158.73C600.98,-155.31 806.41,-148.53 981,-142 1035.67,-139.96 1049.49,-141.72 1104,-137 1109.78,-136.5 1115.74,-135.91 1121.73,-135.26"/>
<polygon fill="#9a32cd" stroke="#9a32cd" points="495.2,-155.23 485.32,-159.05 495.42,-162.23 495.2,-155.23"/>
</a>
</g>
<text text-anchor="middle" x="737" y="-153.75" font-family="Helvetica,sans-Serif" font-size="10.00" fill="grey"> SchemaClass</text>
</g>
<!-- Node11 -->
<g id="Node000011" class="node">
<title>Node11</title>
<g id="a_Node000011"><a xlink:href="uniondunedaq_1_1oks_1_1OksData_1_1Data.html" target="_top" xlink:title=" ">
<polygon fill="white" stroke="#666666" points="681.5,-306.25 565.75,-306.25 565.75,-275.75 681.5,-275.75 681.5,-306.25"/>
<text text-anchor="start" x="573.75" y="-292.75" font-family="Helvetica,sans-Serif" font-size="10.00">dunedaq::oks::OksData</text>
<text text-anchor="middle" x="623.62" y="-281.5" font-family="Helvetica,sans-Serif" font-size="10.00">::Data</text>
</a>
</g>
</g>
<!-- Node3&#45;&gt;Node11 -->
<g id="edge13_Node000011_Node000003" class="edge">
<title>Node3&#45;&gt;Node11</title>
<g id="a_edge13_Node000011_Node000003"><a xlink:title=" ">
<path fill="none" stroke="#9a32cd" stroke-dasharray="5,2" d="M446.13,-177.72C461.47,-189.38 482.68,-205.09 502,-218 533.34,-238.95 570.63,-261.11 595.36,-275.44"/>
<polygon fill="#9a32cd" stroke="#9a32cd" points="448.68,-175.26 438.61,-171.97 444.43,-180.82 448.68,-175.26"/>
</a>
</g>
<text text-anchor="middle" x="521.88" y="-256" font-family="Helvetica,sans-Serif" font-size="10.00" fill="grey"> CLASS</text>
<text text-anchor="middle" x="521.88" y="-244.75" font-family="Helvetica,sans-Serif" font-size="10.00" fill="grey">class_id</text>
</g>
<!-- Node16 -->
<g id="Node000016" class="node">
<title>Node16</title>
<g id="a_Node000016"><a xlink:href="classdunedaq_1_1oks_1_1OksMethod.html" target="_top" xlink:title="OKS method class.">
<polygon fill="white" stroke="#666666" points="687.5,-93.62 559.75,-93.62 559.75,-74.38 687.5,-74.38 687.5,-93.62"/>
<text text-anchor="middle" x="623.62" y="-80.12" font-family="Helvetica,sans-Serif" font-size="10.00">dunedaq::oks::OksMethod</text>
</a>
</g>
</g>
<!-- Node3&#45;&gt;Node16 -->
<g id="edge23_Node000016_Node000003" class="edge">
<title>Node3&#45;&gt;Node16</title>
<g id="a_edge23_Node000016_Node000003"><a xlink:title=" ">
<path fill="none" stroke="#9a32cd" stroke-dasharray="5,2" d="M461.12,-146.77C500.49,-131.47 562.08,-107.53 596.72,-94.07"/>
<polygon fill="#9a32cd" stroke="#9a32cd" points="459.87,-143.5 451.81,-150.39 462.4,-150.03 459.87,-143.5"/>
</a>
</g>
<text text-anchor="middle" x="521.88" y="-131.75" font-family="Helvetica,sans-Serif" font-size="10.00" fill="grey"> p_class</text>
</g>
<!-- Node4 -->
<g id="Node000004" class="node">
<title>Node4</title>
<g id="a_Node000004"><a xlink:href="classdunedaq_1_1oks_1_1OksFile.html" target="_top" xlink:title="Provides interface to the OKS XML schema and data files.">
<polygon fill="white" stroke="#666666" points="1791.75,-232.62 1680.5,-232.62 1680.5,-213.38 1791.75,-213.38 1791.75,-232.62"/>
<text text-anchor="middle" x="1736.12" y="-219.12" font-family="Helvetica,sans-Serif" font-size="10.00">dunedaq::oks::OksFile</text>
</a>
</g>
</g>
<!-- Node4&#45;&gt;Node3 -->
<g id="edge3_Node000003_Node000004" class="edge">
<title>Node4&#45;&gt;Node3</title>
<g id="a_edge3_Node000003_Node000004"><a xlink:title=" ">
<path fill="none" stroke="#9a32cd" stroke-dasharray="5,2" d="M1726.49,-202.94C1701.39,-148.15 1622.84,0 1507.38,0 622.62,0 622.62,0 622.62,0 526.45,0 450.96,-115.68 430.2,-150.93"/>
<polygon fill="#9a32cd" stroke="#9a32cd" points="1723.14,-204.04 1730.41,-211.75 1729.54,-201.19 1723.14,-204.04"/>
</a>
</g>
<text text-anchor="middle" x="1051.5" y="-1.75" font-family="Helvetica,sans-Serif" font-size="10.00" fill="grey"> p_file</text>
</g>
<!-- Node4&#45;&gt;Node4 -->
<g id="edge4_Node000004_Node000004" class="edge">
<title>Node4&#45;&gt;Node4</title>
<g id="a_edge4_Node000004_Node000004"><a xlink:title=" ">
<path fill="none" stroke="#9a32cd" stroke-dasharray="5,2" d="M1716.27,-244.03C1718.75,-247.9 1725.37,-250.62 1736.12,-250.62 1755.79,-250.62 1761.63,-241.52 1753.64,-232.91"/>
<polygon fill="#9a32cd" stroke="#9a32cd" points="1719.66,-244.9 1718.3,-234.39 1712.81,-243.46 1719.66,-244.9"/>
</a>
</g>
<text text-anchor="middle" x="1736.12" y="-252.38" font-family="Helvetica,sans-Serif" font-size="10.00" fill="grey"> p_included_by</text>
</g>
<!-- Node5 -->
<g id="Node000005" class="node">
<title>Node5</title>
<g id="a_Node000005"><a xlink:href="classdunedaq_1_1oks_1_1OksKernel.html" target="_top" xlink:title="Provides interface to the OKS kernel.">
<polygon fill="white" stroke="#666666" points="1568,-232.62 1444.75,-232.62 1444.75,-213.38 1568,-213.38 1568,-232.62"/>
<text text-anchor="middle" x="1506.38" y="-219.12" font-family="Helvetica,sans-Serif" font-size="10.00">dunedaq::oks::OksKernel</text>
</a>
</g>
</g>
<!-- Node4&#45;&gt;Node5 -->
<g id="edge6_Node000005_Node000004" class="edge">
<title>Node4&#45;&gt;Node5</title>
<g id="a_edge6_Node000005_Node000004"><a xlink:title=" ">
<path fill="none" stroke="#9a32cd" stroke-dasharray="5,2" d="M1668.77,-223C1637.07,-223 1599.39,-223 1568.41,-223"/>
<polygon fill="#9a32cd" stroke="#9a32cd" points="1668.64,-226.5 1678.64,-223 1668.64,-219.5 1668.64,-226.5"/>
</a>
</g>
<text text-anchor="middle" x="1624.25" y="-236" font-family="Helvetica,sans-Serif" font-size="10.00" fill="grey"> p_active_data</text>
<text text-anchor="middle" x="1624.25" y="-224.75" font-family="Helvetica,sans-Serif" font-size="10.00" fill="grey">p_active_schema</text>
</g>
<!-- Node8 -->
<g id="Node000008" class="node">
<title>Node8</title>
<g id="a_Node000008"><a xlink:href="classdunedaq_1_1oks_1_1OksObject.html" target="_top" xlink:title="OksObject describes instance of OksClass.">
<polygon fill="white" stroke="#666666" points="1272.25,-346.62 1148.25,-346.62 1148.25,-327.38 1272.25,-327.38 1272.25,-346.62"/>
<text text-anchor="middle" x="1210.25" y="-333.12" font-family="Helvetica,sans-Serif" font-size="10.00">dunedaq::oks::OksObject</text>
</a>
</g>
</g>
<!-- Node4&#45;&gt;Node8 -->
<g id="edge18_Node000008_Node000004" class="edge">
<title>Node4&#45;&gt;Node8</title>
<g id="a_edge18_Node000008_Node000004"><a xlink:title=" ">
<path fill="none" stroke="#9a32cd" stroke-dasharray="5,2" d="M1698.13,-236.96C1686.73,-241.2 1674.11,-245.85 1662.5,-250 1558.18,-287.31 1535.76,-311.23 1426.75,-331 1375.38,-340.32 1316,-341.26 1272.6,-340.19"/>
<polygon fill="#9a32cd" stroke="#9a32cd" points="1699.06,-240.34 1707.21,-233.56 1696.61,-233.79 1699.06,-240.34"/>
</a>
</g>
<text text-anchor="middle" x="1506.38" y="-327.75" font-family="Helvetica,sans-Serif" font-size="10.00" fill="grey"> file</text>
</g>
<!-- Node5&#45;&gt;Node3 -->
<g id="edge19_Node000003_Node000005" class="edge">
<title>Node5&#45;&gt;Node3</title>
<g id="a_edge19_Node000003_Node000005"><a xlink:title=" ">
<path fill="none" stroke="#9a32cd" stroke-dasharray="5,2" d="M1433.15,-216.88C1373.65,-212.36 1287.04,-207 1211.25,-207 622.62,-207 622.62,-207 622.62,-207 559.59,-207 488.14,-184.64 450.65,-171.09"/>
<polygon fill="#9a32cd" stroke="#9a32cd" points="1432.56,-220.34 1442.8,-217.62 1433.1,-213.36 1432.56,-220.34"/>
</a>
</g>
<text text-anchor="middle" x="883.75" y="-208.75" font-family="Helvetica,sans-Serif" font-size="10.00" fill="grey"> p_kernel</text>
</g>
<!-- Node5&#45;&gt;Node4 -->
<g id="edge5_Node000004_Node000005" class="edge">
<title>Node5&#45;&gt;Node4</title>
<g id="a_edge5_Node000004_Node000005"><a xlink:title=" ">
<path fill="none" stroke="#9a32cd" stroke-dasharray="5,2" d="M1559.64,-210.65C1568.39,-209.03 1577.42,-207.63 1586,-206.75 1619.82,-203.29 1628.71,-203.02 1662.5,-206.75 1673.93,-208.01 1686.19,-210.36 1697.32,-212.89"/>
<polygon fill="#9a32cd" stroke="#9a32cd" points="1558.96,-207.22 1549.83,-212.59 1560.32,-214.09 1558.96,-207.22"/>
</a>
</g>
<text text-anchor="middle" x="1624.25" y="-207.75" font-family="Helvetica,sans-Serif" font-size="10.00" fill="grey"> p_kernel</text>
</g>
<!-- Node6 -->
<g id="Node000006" class="node">
<title>Node6</title>
<g id="a_Node000006"><a xlink:href="classdunedaq_1_1oks_1_1OksProfiler.html" target="_top" xlink:title=" ">
<polygon fill="white" stroke="#666666" points="1273,-89.62 1147.5,-89.62 1147.5,-70.38 1273,-70.38 1273,-89.62"/>
<text text-anchor="middle" x="1210.25" y="-76.12" font-family="Helvetica,sans-Serif" font-size="10.00">dunedaq::oks::OksProfiler</text>
</a>
</g>
</g>
<!-- Node6&#45;&gt;Node5 -->
<g id="edge7_Node000005_Node000006" class="edge">
<title>Node6&#45;&gt;Node5</title>
<g id="a_edge7_Node000005_Node000006"><a xlink:title=" ">
<path fill="none" stroke="#9a32cd" stroke-dasharray="5,2" d="M1281.04,-93.05C1287.02,-94.81 1292.92,-96.79 1298.5,-99 1377.14,-130.15 1460.48,-189.35 1492.14,-212.93"/>
<polygon fill="#9a32cd" stroke="#9a32cd" points="1282.26,-89.75 1271.69,-90.5 1280.42,-96.5 1282.26,-89.75"/>
</a>
</g>
<text text-anchor="middle" x="1371.62" y="-168.75" font-family="Helvetica,sans-Serif" font-size="10.00" fill="grey"> profiler</text>
</g>
<!-- Node7 -->
<g id="Node000007" class="node">
<title>Node7</title>
<g id="a_Node000007"><a xlink:href="structdunedaq_1_1oks_1_1LoadErrors.html" target="_top" xlink:title=" ">
<polygon fill="white" stroke="#666666" points="1272.62,-254.62 1147.88,-254.62 1147.88,-235.38 1272.62,-235.38 1272.62,-254.62"/>
<text text-anchor="middle" x="1210.25" y="-241.12" font-family="Helvetica,sans-Serif" font-size="10.00">dunedaq::oks::LoadErrors</text>
</a>
</g>
</g>
<!-- Node7&#45;&gt;Node5 -->
<g id="edge8_Node000005_Node000007" class="edge">
<title>Node7&#45;&gt;Node5</title>
<g id="a_edge8_Node000005_Node000007"><a xlink:title=" ">
<path fill="none" stroke="#9a32cd" stroke-dasharray="5,2" d="M1284.13,-239.55C1333.4,-235.86 1397.72,-231.05 1444.3,-227.57"/>
<polygon fill="#9a32cd" stroke="#9a32cd" points="1284.13,-236.04 1274.42,-240.28 1284.65,-243.02 1284.13,-236.04"/>
</a>
</g>
<text text-anchor="middle" x="1371.62" y="-237.75" font-family="Helvetica,sans-Serif" font-size="10.00" fill="grey"> p_load_errors</text>
</g>
<!-- Node8&#45;&gt;Node5 -->
<g id="edge9_Node000005_Node000008" class="edge">
<title>Node8&#45;&gt;Node5</title>
<g id="a_edge9_Node000005_Node000008"><a xlink:title=" ">
<path fill="none" stroke="#9a32cd" stroke-dasharray="5,2" d="M1233.98,-320.62C1254.58,-306.51 1286.26,-286.59 1316.5,-274.75 1363.17,-256.48 1378.54,-264.71 1426.75,-251 1444.73,-245.89 1464.55,-238.82 1479.8,-233.06"/>
<polygon fill="#9a32cd" stroke="#9a32cd" points="1232.25,-317.56 1226.05,-326.15 1236.25,-323.3 1232.25,-317.56"/>
</a>
</g>
<text text-anchor="start" x="1316.5" y="-320.75" font-family="Helvetica,sans-Serif" font-size="10.00" fill="grey"> p_change_object_notify</text>
<text text-anchor="middle" x="1371.62" y="-309.5" font-family="Helvetica,sans-Serif" font-size="10.00" fill="grey">_fn</text>
<text text-anchor="start" x="1316.5" y="-298.25" font-family="Helvetica,sans-Serif" font-size="10.00" fill="grey">p_create_object_notify</text>
<text text-anchor="middle" x="1371.62" y="-287" font-family="Helvetica,sans-Serif" font-size="10.00" fill="grey">_fn</text>
<text text-anchor="middle" x="1371.62" y="-275.75" font-family="Helvetica,sans-Serif" font-size="10.00" fill="grey">p_delete_object_notify_fn</text>
</g>
<!-- Node8&#45;&gt;Node11 -->
<g id="edge14_Node000011_Node000008" class="edge">
<title>Node8&#45;&gt;Node11</title>
<g id="a_edge14_Node000011_Node000008"><a xlink:title=" ">
<path fill="none" stroke="#9a32cd" stroke-dasharray="5,2" d="M1136.5,-335.3C1038.34,-332.38 858.17,-324.78 705.5,-306 697.85,-305.06 689.82,-303.85 681.93,-302.52"/>
<polygon fill="#9a32cd" stroke="#9a32cd" points="1136.16,-338.8 1146.26,-335.59 1136.36,-331.8 1136.16,-338.8"/>
</a>
</g>
<text text-anchor="middle" x="883.75" y="-329.75" font-family="Helvetica,sans-Serif" font-size="10.00" fill="grey"> OBJECT</text>
</g>
<!-- Node9 -->
<g id="Node000009" class="node">
<title>Node9</title>
<g id="a_Node000009"><a xlink:title=" ">
<polygon fill="white" stroke="#666666" points="443.88,-371.62 403.12,-371.62 403.12,-352.38 443.88,-352.38 443.88,-371.62"/>
<text text-anchor="middle" x="423.5" y="-358.12" font-family="Helvetica,sans-Serif" font-size="10.00">struct</text>
</a>
</g>
</g>
<!-- Node9&#45;&gt;Node8 -->
<g id="edge10_Node000008_Node000009" class="edge">
<title>Node9&#45;&gt;Node8</title>
<g id="a_edge10_Node000008_Node000009"><a xlink:title=" ">
<path fill="none" stroke="#9a32cd" stroke-dasharray="5,2" d="M455.4,-361.89C479.05,-361.77 512.46,-361.52 541.75,-361 791.69,-356.6 854.41,-359.99 1104,-346 1118.19,-345.2 1133.44,-344.07 1147.8,-342.86"/>
<polygon fill="#9a32cd" stroke="#9a32cd" points="455.5,-358.39 445.52,-361.93 455.53,-365.39 455.5,-358.39"/>
</a>
</g>
<text text-anchor="middle" x="737" y="-359.75" font-family="Helvetica,sans-Serif" font-size="10.00" fill="grey"> uid</text>
</g>
<!-- Node9&#45;&gt;Node11 -->
<g id="edge17_Node000011_Node000009" class="edge">
<title>Node9&#45;&gt;Node11</title>
<g id="a_edge17_Node000011_Node000009"><a xlink:title=" ">
<path fill="none" stroke="#9a32cd" stroke-dasharray="5,2" d="M454.81,-351.58C478.51,-343.38 512.28,-331.62 541.75,-321 554.43,-316.43 568.19,-311.37 580.7,-306.72"/>
<polygon fill="#9a32cd" stroke="#9a32cd" points="453.78,-348.23 445.47,-354.8 456.07,-354.85 453.78,-348.23"/>
</a>
</g>
<text text-anchor="middle" x="521.88" y="-347" font-family="Helvetica,sans-Serif" font-size="10.00" fill="grey"> UID</text>
<text text-anchor="middle" x="521.88" y="-335.75" font-family="Helvetica,sans-Serif" font-size="10.00" fill="grey">UID2</text>
</g>
<!-- Node10 -->
<g id="Node000010" class="node">
<title>Node10</title>
<g id="a_Node000010"><a xlink:href="structdunedaq_1_1oks_1_1OksData.html" target="_top" xlink:title="the structure to pass common parameters to various read() methods of OksData and OksObject class">
<polygon fill="white" stroke="#666666" points="941.62,-300.62 825.88,-300.62 825.88,-281.38 941.62,-281.38 941.62,-300.62"/>
<text text-anchor="middle" x="883.75" y="-287.12" font-family="Helvetica,sans-Serif" font-size="10.00">dunedaq::oks::OksData</text>
</a>
</g>
</g>
<!-- Node10&#45;&gt;Node8 -->
<g id="edge11_Node000008_Node000010" class="edge">
<title>Node10&#45;&gt;Node8</title>
<g id="a_edge11_Node000008_Node000010"><a xlink:title=" ">
<path fill="none" stroke="#9a32cd" stroke-dasharray="5,2" d="M953.11,-294.98C996.53,-298.12 1053.8,-303.4 1104,-311.75 1127.17,-315.61 1152.81,-321.72 1172.98,-326.96"/>
<polygon fill="#9a32cd" stroke="#9a32cd" points="953.55,-291.5 943.33,-294.29 953.06,-298.48 953.55,-291.5"/>
</a>
</g>
<text text-anchor="middle" x="1051.5" y="-312.75" font-family="Helvetica,sans-Serif" font-size="10.00" fill="grey"> data</text>
</g>
<!-- Node11&#45;&gt;Node10 -->
<g id="edge12_Node000010_Node000011" class="edge">
<title>Node11&#45;&gt;Node10</title>
<g id="a_edge12_Node000010_Node000011"><a xlink:title=" ">
<path fill="none" stroke="#9a32cd" stroke-dasharray="5,2" d="M693.26,-291C734.58,-291 786.56,-291 825.62,-291"/>
<polygon fill="#9a32cd" stroke="#9a32cd" points="693.42,-287.5 683.42,-291 693.42,-294.5 693.42,-287.5"/>
</a>
</g>
<text text-anchor="middle" x="737" y="-292.75" font-family="Helvetica,sans-Serif" font-size="10.00" fill="grey"> data</text>
</g>
<!-- Node12 -->
<g id="Node000012" class="node">
<title>Node12</title>
<g id="a_Node000012"><a xlink:href="classdunedaq_1_1oks_1_1OksString.html" target="_top" xlink:title="Class OKS string.">
<polygon fill="white" stroke="#666666" points="484,-295.62 363,-295.62 363,-276.38 484,-276.38 484,-295.62"/>
<text text-anchor="middle" x="423.5" y="-282.12" font-family="Helvetica,sans-Serif" font-size="10.00">dunedaq::oks::OksString</text>
</a>
</g>
</g>
<!-- Node12&#45;&gt;Node11 -->
<g id="edge15_Node000011_Node000012" class="edge">
<title>Node12&#45;&gt;Node11</title>
<g id="a_edge15_Node000011_Node000012"><a xlink:title=" ">
<path fill="none" stroke="#9a32cd" stroke-dasharray="5,2" d="M495.87,-286.35C511.02,-286.54 526.91,-286.83 541.75,-287.25 549.48,-287.47 557.62,-287.77 565.64,-288.1"/>
<polygon fill="#9a32cd" stroke="#9a32cd" points="496.01,-282.86 485.97,-286.24 495.93,-289.86 496.01,-282.86"/>
</a>
</g>
<text text-anchor="middle" x="521.88" y="-311.25" font-family="Helvetica,sans-Serif" font-size="10.00" fill="grey"> STRING</text>
<text text-anchor="middle" x="521.88" y="-300" font-family="Helvetica,sans-Serif" font-size="10.00" fill="grey">class_id</text>
<text text-anchor="middle" x="521.88" y="-288.75" font-family="Helvetica,sans-Serif" font-size="10.00" fill="grey">object_id</text>
</g>
<!-- Node13 -->
<g id="Node000013" class="node">
<title>Node13</title>
<g id="a_Node000013"><a xlink:title=" ">
<polygon fill="white" stroke="#666666" points="235.12,-295.62 177.12,-295.62 177.12,-276.38 235.12,-276.38 235.12,-295.62"/>
<text text-anchor="middle" x="206.12" y="-282.12" font-family="Helvetica,sans-Serif" font-size="10.00">std::string</text>
</a>
</g>
</g>
<!-- Node13&#45;&gt;Node12 -->
<g id="edge16_Node000012_Node000013" class="edge">
<title>Node13&#45;&gt;Node12</title>
<g id="a_edge16_Node000012_Node000013"><a xlink:title=" ">
<path fill="none" stroke="#63b8ff" d="M246.56,-286C279,-286 325.52,-286 362.57,-286"/>
<polygon fill="#63b8ff" stroke="#63b8ff" points="246.8,-282.5 236.8,-286 246.8,-289.5 246.8,-282.5"/>
</a>
</g>
</g>
<!-- Node14 -->
<g id="Node000014" class="node">
<title>Node14</title>
<g id="a_Node000014"><a xlink:href="classdunedaq_1_1conffwk_1_1map.html" target="_top" xlink:title=" ">
<polygon fill="white" stroke="#666666" points="274.5,-170.62 137.75,-170.62 137.75,-151.38 274.5,-151.38 274.5,-170.62"/>
<text text-anchor="middle" x="206.12" y="-157.12" font-family="Helvetica,sans-Serif" font-size="10.00">dunedaq::conffwk::map&lt; T &gt;</text>
</a>
</g>
</g>
<!-- Node14&#45;&gt;Node3 -->
<g id="edge20_Node000003_Node000014" class="edge">
<title>Node14&#45;&gt;Node3</title>
<g id="a_edge20_Node000003_Node000014"><a xlink:title=" ">
<path fill="none" stroke="#9a32cd" stroke-dasharray="5,2" d="M286.43,-161C311.75,-161 339.33,-161 362.99,-161"/>
<polygon fill="#9a32cd" stroke="#9a32cd" points="286.49,-157.5 276.49,-161 286.49,-164.5 286.49,-157.5"/>
</a>
</g>
<text text-anchor="middle" x="318.75" y="-162.75" font-family="Helvetica,sans-Serif" font-size="10.00" fill="grey"> p_data_info</text>
</g>
<!-- Node15 -->
<g id="Node000015" class="node">
<title>Node15</title>
<g id="a_Node000015"><a xlink:title=" ">
<polygon fill="white" stroke="#666666" points="100.75,-176.25 0,-176.25 0,-145.75 100.75,-145.75 100.75,-176.25"/>
<text text-anchor="start" x="8" y="-162.75" font-family="Helvetica,sans-Serif" font-size="10.00">std::unordered_map</text>
<text text-anchor="middle" x="50.38" y="-151.5" font-family="Helvetica,sans-Serif" font-size="10.00">&lt; std::string, T &gt;</text>
</a>
</g>
</g>
<!-- Node15&#45;&gt;Node14 -->
<g id="edge21_Node000014_Node000015" class="edge">
<title>Node15&#45;&gt;Node14</title>
<g id="a_edge21_Node000014_Node000015"><a xlink:title=" ">
<path fill="none" stroke="#63b8ff" d="M112.34,-161C120.61,-161 129.14,-161 137.51,-161"/>
<polygon fill="#63b8ff" stroke="#63b8ff" points="112.38,-157.5 102.38,-161 112.38,-164.5 112.38,-157.5"/>
</a>
</g>
</g>
<!-- Node16&#45;&gt;Node1 -->
<g id="edge22_Node000001_Node000016" class="edge">
<title>Node16&#45;&gt;Node1</title>
<g id="a_edge22_Node000001_Node000016"><a xlink:title=" ">
<path fill="none" stroke="#9a32cd" stroke-dasharray="5,2" d="M699.05,-83.51C771.23,-83.58 883.78,-85.14 981,-92.75 1027.63,-96.4 1079.31,-103.03 1121.69,-109.16"/>
<polygon fill="#9a32cd" stroke="#9a32cd" points="699.33,-80.01 689.33,-83.51 699.33,-87.01 699.33,-80.01"/>
</a>
</g>
<text text-anchor="middle" x="883.75" y="-94.75" font-family="Helvetica,sans-Serif" font-size="10.00" fill="grey"> SchemaMethod</text>
</g>
<!-- Node17 -->
<g id="Node000017" class="node">
<title>Node17</title>
<g id="a_Node000017"><a xlink:href="classdunedaq_1_1oks_1_1OksMethodImplementation.html" target="_top" xlink:title="OKS method implementation class.">
<polygon fill="white" stroke="#666666" points="981,-47.62 786.5,-47.62 786.5,-28.38 981,-28.38 981,-47.62"/>
<text text-anchor="middle" x="883.75" y="-34.12" font-family="Helvetica,sans-Serif" font-size="10.00">dunedaq::oks::OksMethodImplementation</text>
</a>
</g>
</g>
<!-- Node16&#45;&gt;Node17 -->
<g id="edge25_Node000017_Node000016" class="edge">
<title>Node16&#45;&gt;Node17</title>
<g id="a_edge25_Node000017_Node000016"><a xlink:title=" ">
<path fill="none" stroke="#9a32cd" stroke-dasharray="5,2" d="M663.05,-70.4C676.35,-66.12 691.45,-61.74 705.5,-58.75 731.41,-53.24 759.79,-49.09 786.09,-46.02"/>
<polygon fill="#9a32cd" stroke="#9a32cd" points="662.19,-67 653.79,-73.46 664.39,-73.64 662.19,-67"/>
</a>
</g>
<text text-anchor="middle" x="737" y="-60.75" font-family="Helvetica,sans-Serif" font-size="10.00" fill="grey"> p_method</text>
</g>
<!-- Node17&#45;&gt;Node1 -->
<g id="edge24_Node000001_Node000017" class="edge">
<title>Node17&#45;&gt;Node1</title>
<g id="a_edge24_Node000001_Node000017"><a xlink:title=" ">
<path fill="none" stroke="#9a32cd" stroke-dasharray="5,2" d="M961.03,-27.15C1006.53,-24.78 1063.19,-29.47 1104,-58.75 1119.92,-70.17 1107.13,-86.24 1122,-99 1125.7,-102.17 1129.78,-104.93 1134.09,-107.32"/>
<polygon fill="#9a32cd" stroke="#9a32cd" points="960.98,-23.64 951.23,-27.79 961.44,-30.63 960.98,-23.64"/>
</a>
</g>
<text text-anchor="middle" x="1051.5" y="-60.75" font-family="Helvetica,sans-Serif" font-size="10.00" fill="grey"> SchemaImplementation</text>
</g>
</g>
</svg>
