<?xml version="1.0" encoding="UTF-8" standalone="no"?>
<!DOCTYPE svg PUBLIC "-//W3C//DTD SVG 1.1//EN"
 "http://www.w3.org/Graphics/SVG/1.1/DTD/svg11.dtd">
<!-- Generated by graphviz version 9.0.0 (20230911.1827)
 -->
<!-- Title: dunedaq::timinglibs::dal::TimingMasterControllerPDII Pages: 1 -->
<svg width="169pt" height="293pt"
 viewBox="0.00 0.00 168.75 293.25" xmlns="http://www.w3.org/2000/svg" xmlns:xlink="http://www.w3.org/1999/xlink">
<g id="graph0" class="graph" transform="scale(1 1) rotate(0) translate(4 289.25)">
<title>dunedaq::timinglibs::dal::TimingMasterControllerPDII</title>
<!-- Node1 -->
<g id="Node000001" class="node">
<title>Node1</title>
<g id="a_Node000001"><a xlink:title=" ">
<polygon fill="#999999" stroke="#666666" points="159.25,-30.5 1.5,-30.5 1.5,0 159.25,0 159.25,-30.5"/>
<text text-anchor="start" x="9.5" y="-17" font-family="Helvetica,sans-Serif" font-size="10.00">dunedaq::timinglibs</text>
<text text-anchor="middle" x="80.38" y="-5.75" font-family="Helvetica,sans-Serif" font-size="10.00">::dal::TimingMasterControllerPDII</text>
</a>
</g>
</g>
<!-- Node2 -->
<g id="Node000002" class="node">
<title>Node2</title>
<g id="a_Node000002"><a xlink:href="classdunedaq_1_1timinglibs_1_1dal_1_1TimingMasterControllerBase.html" target="_top" xlink:title=" ">
<polygon fill="white" stroke="#666666" points="160.75,-97 0,-97 0,-66.5 160.75,-66.5 160.75,-97"/>
<text text-anchor="start" x="8" y="-83.5" font-family="Helvetica,sans-Serif" font-size="10.00">dunedaq::timinglibs</text>
<text text-anchor="middle" x="80.38" y="-72.25" font-family="Helvetica,sans-Serif" font-size="10.00">::dal::TimingMasterControllerBase</text>
</a>
</g>
</g>
<!-- Node2&#45;&gt;Node1 -->
<g id="edge1_Node000001_Node000002" class="edge">
<title>Node2&#45;&gt;Node1</title>
<g id="a_edge1_Node000001_Node000002"><a xlink:title=" ">
<path fill="none" stroke="#63b8ff" d="M73.74,-54.81C73.44,-46.64 73.73,-37.91 74.62,-30.83"/>
<polygon fill="#63b8ff" stroke="#63b8ff" points="70.24,-54.9 74.5,-64.6 77.22,-54.37 70.24,-54.9"/>
</a>
</g>
</g>
<!-- Node2&#45;&gt;Node1 -->
<g id="edge8_Node000001_Node000002" class="edge">
<title>Node2&#45;&gt;Node1</title>
<g id="a_edge8_Node000001_Node000002"><a xlink:title=" ">
<path fill="none" stroke="#63b8ff" d="M87.01,-54.81C87.31,-46.64 87.02,-37.91 86.13,-30.83"/>
<polygon fill="#63b8ff" stroke="#63b8ff" points="83.53,-54.37 86.25,-64.6 90.51,-54.9 83.53,-54.37"/>
</a>
</g>
</g>
<!-- Node3 -->
<g id="Node000003" class="node">
<title>Node3</title>
<g id="a_Node000003"><a xlink:href="classdunedaq_1_1timinglibs_1_1dal_1_1TimingController.html" target="_top" xlink:title=" ">
<polygon fill="white" stroke="#666666" points="134.5,-163.5 26.25,-163.5 26.25,-133 134.5,-133 134.5,-163.5"/>
<text text-anchor="start" x="34.25" y="-150" font-family="Helvetica,sans-Serif" font-size="10.00">dunedaq::timinglibs</text>
<text text-anchor="middle" x="80.38" y="-138.75" font-family="Helvetica,sans-Serif" font-size="10.00">::dal::TimingController</text>
</a>
</g>
</g>
<!-- Node3&#45;&gt;Node2 -->
<g id="edge2_Node000002_Node000003" class="edge">
<title>Node3&#45;&gt;Node2</title>
<g id="a_edge2_Node000002_Node000003"><a xlink:title=" ">
<path fill="none" stroke="#63b8ff" d="M73.74,-121.31C73.44,-113.14 73.73,-104.41 74.62,-97.33"/>
<polygon fill="#63b8ff" stroke="#63b8ff" points="70.24,-121.4 74.5,-131.1 77.22,-120.87 70.24,-121.4"/>
</a>
</g>
</g>
<!-- Node3&#45;&gt;Node2 -->
<g id="edge7_Node000002_Node000003" class="edge">
<title>Node3&#45;&gt;Node2</title>
<g id="a_edge7_Node000002_Node000003"><a xlink:title=" ">
<path fill="none" stroke="#63b8ff" d="M87.01,-121.31C87.31,-113.14 87.02,-104.41 86.13,-97.33"/>
<polygon fill="#63b8ff" stroke="#63b8ff" points="83.53,-120.87 86.25,-131.1 90.51,-121.4 83.53,-120.87"/>
</a>
</g>
</g>
<!-- Node4 -->
<g id="Node000004" class="node">
<title>Node4</title>
<g id="a_Node000004"><a xlink:href="classdunedaq_1_1confmodel_1_1DaqModule.html" target="_top" xlink:title=" ">
<polygon fill="white" stroke="#666666" points="131.5,-230 29.25,-230 29.25,-199.5 131.5,-199.5 131.5,-230"/>
<text text-anchor="start" x="37.25" y="-216.5" font-family="Helvetica,sans-Serif" font-size="10.00">dunedaq::confmodel</text>
<text text-anchor="middle" x="80.38" y="-205.25" font-family="Helvetica,sans-Serif" font-size="10.00">::DaqModule</text>
</a>
</g>
</g>
<!-- Node4&#45;&gt;Node3 -->
<g id="edge3_Node000003_Node000004" class="edge">
<title>Node4&#45;&gt;Node3</title>
<g id="a_edge3_Node000003_Node000004"><a xlink:title=" ">
<path fill="none" stroke="#63b8ff" d="M73.74,-187.81C73.44,-179.64 73.73,-170.91 74.62,-163.83"/>
<polygon fill="#63b8ff" stroke="#63b8ff" points="70.24,-187.9 74.5,-197.6 77.22,-187.37 70.24,-187.9"/>
</a>
</g>
</g>
<!-- Node4&#45;&gt;Node3 -->
<g id="edge6_Node000003_Node000004" class="edge">
<title>Node4&#45;&gt;Node3</title>
<g id="a_edge6_Node000003_Node000004"><a xlink:title=" ">
<path fill="none" stroke="#63b8ff" d="M87.01,-187.81C87.31,-179.64 87.02,-170.91 86.13,-163.83"/>
<polygon fill="#63b8ff" stroke="#63b8ff" points="83.53,-187.37 86.25,-197.6 90.51,-187.9 83.53,-187.37"/>
</a>
</g>
</g>
<!-- Node5 -->
<g id="Node000005" class="node">
<title>Node5</title>
<g id="a_Node000005"><a xlink:href="classdunedaq_1_1conffwk_1_1DalObject.html" target="_top" xlink:title="The base class for any generated DAL object.">
<polygon fill="white" stroke="#666666" points="149.5,-285.25 11.25,-285.25 11.25,-266 149.5,-266 149.5,-285.25"/>
<text text-anchor="middle" x="80.38" y="-271.75" font-family="Helvetica,sans-Serif" font-size="10.00">dunedaq::conffwk::DalObject</text>
</a>
</g>
</g>
<!-- Node5&#45;&gt;Node4 -->
<g id="edge4_Node000004_Node000005" class="edge">
<title>Node5&#45;&gt;Node4</title>
<g id="a_edge4_Node000004_Node000005"><a xlink:title=" ">
<path fill="none" stroke="#63b8ff" d="M73.93,-254.42C73.39,-246.49 73.57,-237.56 74.46,-230.28"/>
<polygon fill="#63b8ff" stroke="#63b8ff" points="70.44,-254.7 75.17,-264.18 77.38,-253.82 70.44,-254.7"/>
</a>
</g>
</g>
<!-- Node5&#45;&gt;Node4 -->
<g id="edge5_Node000004_Node000005" class="edge">
<title>Node5&#45;&gt;Node4</title>
<g id="a_edge5_Node000004_Node000005"><a xlink:title=" ">
<path fill="none" stroke="#63b8ff" d="M86.82,-254.42C87.36,-246.49 87.18,-237.56 86.29,-230.28"/>
<polygon fill="#63b8ff" stroke="#63b8ff" points="83.37,-253.82 85.58,-264.18 90.31,-254.7 83.37,-253.82"/>
</a>
</g>
</g>
</g>
</svg>
