<?xml version="1.0" encoding="UTF-8" standalone="no"?>
<!DOCTYPE svg PUBLIC "-//W3C//DTD SVG 1.1//EN"
 "http://www.w3.org/Graphics/SVG/1.1/DTD/svg11.dtd">
<!-- Generated by graphviz version 9.0.0 (20230911.1827)
 -->
<!-- Title: dunedaq::appmodel::ReadoutApplication Pages: 1 -->
<svg width="236pt" height="360pt"
 viewBox="0.00 0.00 235.88 359.75" xmlns="http://www.w3.org/2000/svg" xmlns:xlink="http://www.w3.org/1999/xlink">
<g id="graph0" class="graph" transform="scale(1 1) rotate(0) translate(4 355.75)">
<title>dunedaq::appmodel::ReadoutApplication</title>
<!-- Node1 -->
<g id="Node000001" class="node">
<title>Node1</title>
<g id="a_Node000001"><a xlink:title=" ">
<polygon fill="#999999" stroke="#666666" points="164,-30.5 60.25,-30.5 60.25,0 164,0 164,-30.5"/>
<text text-anchor="start" x="68.25" y="-17" font-family="Helvetica,sans-Serif" font-size="10.00">dunedaq::appmodel::</text>
<text text-anchor="middle" x="112.12" y="-5.75" font-family="Helvetica,sans-Serif" font-size="10.00">ReadoutApplication</text>
</a>
</g>
</g>
<!-- Node2 -->
<g id="Node000002" class="node">
<title>Node2</title>
<g id="a_Node000002"><a xlink:href="classdunedaq_1_1confmodel_1_1ResourceSetAND.html" target="_top" xlink:title=" ">
<polygon fill="white" stroke="#666666" points="119.25,-97 17,-97 17,-66.5 119.25,-66.5 119.25,-97"/>
<text text-anchor="start" x="25" y="-83.5" font-family="Helvetica,sans-Serif" font-size="10.00">dunedaq::confmodel</text>
<text text-anchor="middle" x="68.12" y="-72.25" font-family="Helvetica,sans-Serif" font-size="10.00">::ResourceSetAND</text>
</a>
</g>
</g>
<!-- Node2&#45;&gt;Node1 -->
<g id="edge1_Node000001_Node000002" class="edge">
<title>Node2&#45;&gt;Node1</title>
<g id="a_edge1_Node000001_Node000002"><a xlink:title=" ">
<path fill="none" stroke="#63b8ff" d="M78.1,-56.51C83.58,-47.87 90.3,-38.41 96.43,-30.83"/>
<polygon fill="#63b8ff" stroke="#63b8ff" points="75.26,-54.44 73.13,-64.82 81.27,-58.03 75.26,-54.44"/>
</a>
</g>
</g>
<!-- Node2&#45;&gt;Node1 -->
<g id="edge15_Node000001_Node000002" class="edge">
<title>Node2&#45;&gt;Node1</title>
<g id="a_edge15_Node000001_Node000002"><a xlink:title=" ">
<path fill="none" stroke="#63b8ff" d="M90.81,-57.07C97.26,-48.28 103.63,-38.57 107.93,-30.83"/>
<polygon fill="#63b8ff" stroke="#63b8ff" points="88.1,-54.85 84.79,-64.91 93.66,-59.11 88.1,-54.85"/>
</a>
</g>
</g>
<!-- Node3 -->
<g id="Node000003" class="node">
<title>Node3</title>
<g id="a_Node000003"><a xlink:href="classdunedaq_1_1confmodel_1_1ResourceSet.html" target="_top" xlink:title=" ">
<polygon fill="white" stroke="#666666" points="102.25,-163.5 0,-163.5 0,-133 102.25,-133 102.25,-163.5"/>
<text text-anchor="start" x="8" y="-150" font-family="Helvetica,sans-Serif" font-size="10.00">dunedaq::confmodel</text>
<text text-anchor="middle" x="51.12" y="-138.75" font-family="Helvetica,sans-Serif" font-size="10.00">::ResourceSet</text>
</a>
</g>
</g>
<!-- Node3&#45;&gt;Node2 -->
<g id="edge2_Node000002_Node000003" class="edge">
<title>Node3&#45;&gt;Node2</title>
<g id="a_edge2_Node000002_Node000003"><a xlink:title=" ">
<path fill="none" stroke="#63b8ff" d="M51.33,-121.31C53.18,-113.14 55.77,-104.41 58.53,-97.33"/>
<polygon fill="#63b8ff" stroke="#63b8ff" points="47.89,-120.65 49.5,-131.13 54.77,-121.94 47.89,-120.65"/>
</a>
</g>
</g>
<!-- Node3&#45;&gt;Node2 -->
<g id="edge9_Node000002_Node000003" class="edge">
<title>Node3&#45;&gt;Node2</title>
<g id="a_edge9_Node000002_Node000003"><a xlink:title=" ">
<path fill="none" stroke="#63b8ff" d="M64.42,-121.88C66.96,-113.55 69.04,-104.58 70.04,-97.33"/>
<polygon fill="#63b8ff" stroke="#63b8ff" points="61.17,-120.59 61.23,-131.18 67.79,-122.86 61.17,-120.59"/>
</a>
</g>
</g>
<!-- Node4 -->
<g id="Node000004" class="node">
<title>Node4</title>
<g id="a_Node000004"><a xlink:href="classdunedaq_1_1confmodel_1_1ResourceBase.html" target="_top" xlink:title=" ">
<polygon fill="white" stroke="#666666" points="103.25,-230 1,-230 1,-199.5 103.25,-199.5 103.25,-230"/>
<text text-anchor="start" x="9" y="-216.5" font-family="Helvetica,sans-Serif" font-size="10.00">dunedaq::confmodel</text>
<text text-anchor="middle" x="52.12" y="-205.25" font-family="Helvetica,sans-Serif" font-size="10.00">::ResourceBase</text>
</a>
</g>
</g>
<!-- Node4&#45;&gt;Node3 -->
<g id="edge3_Node000003_Node000004" class="edge">
<title>Node4&#45;&gt;Node3</title>
<g id="a_edge3_Node000003_Node000004"><a xlink:title=" ">
<path fill="none" stroke="#63b8ff" d="M45.09,-187.81C44.66,-179.64 44.82,-170.91 45.6,-163.83"/>
<polygon fill="#63b8ff" stroke="#63b8ff" points="41.59,-187.97 46,-197.61 48.56,-187.33 41.59,-187.97"/>
</a>
</g>
</g>
<!-- Node4&#45;&gt;Node3 -->
<g id="edge8_Node000003_Node000004" class="edge">
<title>Node4&#45;&gt;Node3</title>
<g id="a_edge8_Node000003_Node000004"><a xlink:title=" ">
<path fill="none" stroke="#63b8ff" d="M58.36,-187.81C58.53,-179.64 58.11,-170.91 57.1,-163.83"/>
<polygon fill="#63b8ff" stroke="#63b8ff" points="54.87,-187.41 57.75,-197.6 61.86,-187.84 54.87,-187.41"/>
</a>
</g>
</g>
<!-- Node5 -->
<g id="Node000005" class="node">
<title>Node5</title>
<g id="a_Node000005"><a xlink:href="classdunedaq_1_1confmodel_1_1Component.html" target="_top" xlink:title=" ">
<polygon fill="white" stroke="#666666" points="104.25,-296.5 2,-296.5 2,-266 104.25,-266 104.25,-296.5"/>
<text text-anchor="start" x="10" y="-283" font-family="Helvetica,sans-Serif" font-size="10.00">dunedaq::confmodel</text>
<text text-anchor="middle" x="53.12" y="-271.75" font-family="Helvetica,sans-Serif" font-size="10.00">::Component</text>
</a>
</g>
</g>
<!-- Node5&#45;&gt;Node4 -->
<g id="edge4_Node000004_Node000005" class="edge">
<title>Node5&#45;&gt;Node4</title>
<g id="a_edge4_Node000004_Node000005"><a xlink:title=" ">
<path fill="none" stroke="#63b8ff" d="M46.09,-254.31C45.66,-246.14 45.82,-237.41 46.6,-230.33"/>
<polygon fill="#63b8ff" stroke="#63b8ff" points="42.59,-254.47 47,-264.11 49.56,-253.83 42.59,-254.47"/>
</a>
</g>
</g>
<!-- Node5&#45;&gt;Node4 -->
<g id="edge7_Node000004_Node000005" class="edge">
<title>Node5&#45;&gt;Node4</title>
<g id="a_edge7_Node000004_Node000005"><a xlink:title=" ">
<path fill="none" stroke="#63b8ff" d="M59.36,-254.31C59.53,-246.14 59.11,-237.41 58.1,-230.33"/>
<polygon fill="#63b8ff" stroke="#63b8ff" points="55.87,-253.91 58.75,-264.1 62.86,-254.34 55.87,-253.91"/>
</a>
</g>
</g>
<!-- Node6 -->
<g id="Node000006" class="node">
<title>Node6</title>
<g id="a_Node000006"><a xlink:href="classdunedaq_1_1conffwk_1_1DalObject.html" target="_top" xlink:title="The base class for any generated DAL object.">
<polygon fill="white" stroke="#666666" points="182.25,-351.75 44,-351.75 44,-332.5 182.25,-332.5 182.25,-351.75"/>
<text text-anchor="middle" x="113.12" y="-338.25" font-family="Helvetica,sans-Serif" font-size="10.00">dunedaq::conffwk::DalObject</text>
</a>
</g>
</g>
<!-- Node6&#45;&gt;Node5 -->
<g id="edge5_Node000005_Node000006" class="edge">
<title>Node6&#45;&gt;Node5</title>
<g id="a_edge5_Node000005_Node000006"><a xlink:title=" ">
<path fill="none" stroke="#63b8ff" d="M90.36,-324.79C80.5,-316.01 69.63,-305.27 62.02,-296.78"/>
<polygon fill="#63b8ff" stroke="#63b8ff" points="87.98,-327.36 97.85,-331.2 92.53,-322.04 87.98,-327.36"/>
</a>
</g>
</g>
<!-- Node6&#45;&gt;Node5 -->
<g id="edge6_Node000005_Node000006" class="edge">
<title>Node6&#45;&gt;Node5</title>
<g id="a_edge6_Node000005_Node000006"><a xlink:title=" ">
<path fill="none" stroke="#63b8ff" d="M101.59,-323.7C93.65,-315.13 83.15,-304.92 73.85,-296.78"/>
<polygon fill="#63b8ff" stroke="#63b8ff" points="98.8,-325.83 108.02,-331.04 104.07,-321.22 98.8,-325.83"/>
</a>
</g>
</g>
<!-- Node8 -->
<g id="Node000008" class="node">
<title>Node8</title>
<g id="a_Node000008"><a xlink:href="classdunedaq_1_1confmodel_1_1Application.html" target="_top" xlink:title=" ">
<polygon fill="white" stroke="#666666" points="224.25,-296.5 122,-296.5 122,-266 224.25,-266 224.25,-296.5"/>
<text text-anchor="start" x="130" y="-283" font-family="Helvetica,sans-Serif" font-size="10.00">dunedaq::confmodel</text>
<text text-anchor="middle" x="173.12" y="-271.75" font-family="Helvetica,sans-Serif" font-size="10.00">::Application</text>
</a>
</g>
</g>
<!-- Node6&#45;&gt;Node8 -->
<g id="edge12_Node000008_Node000006" class="edge">
<title>Node6&#45;&gt;Node8</title>
<g id="a_edge12_Node000008_Node000006"><a xlink:title=" ">
<path fill="none" stroke="#63b8ff" d="M124.66,-323.7C132.6,-315.13 143.1,-304.92 152.4,-296.78"/>
<polygon fill="#63b8ff" stroke="#63b8ff" points="122.18,-321.22 118.23,-331.04 127.45,-325.83 122.18,-321.22"/>
</a>
</g>
</g>
<!-- Node6&#45;&gt;Node8 -->
<g id="edge13_Node000008_Node000006" class="edge">
<title>Node6&#45;&gt;Node8</title>
<g id="a_edge13_Node000008_Node000006"><a xlink:title=" ">
<path fill="none" stroke="#63b8ff" d="M135.89,-324.79C145.75,-316.01 156.62,-305.27 164.23,-296.78"/>
<polygon fill="#63b8ff" stroke="#63b8ff" points="133.72,-322.04 128.4,-331.2 138.27,-327.36 133.72,-322.04"/>
</a>
</g>
</g>
<!-- Node7 -->
<g id="Node000007" class="node">
<title>Node7</title>
<g id="a_Node000007"><a xlink:href="classdunedaq_1_1appmodel_1_1SmartDaqApplication.html" target="_top" xlink:title=" ">
<polygon fill="white" stroke="#666666" points="227.88,-163.5 120.38,-163.5 120.38,-133 227.88,-133 227.88,-163.5"/>
<text text-anchor="start" x="128.38" y="-150" font-family="Helvetica,sans-Serif" font-size="10.00">dunedaq::appmodel::</text>
<text text-anchor="middle" x="174.12" y="-138.75" font-family="Helvetica,sans-Serif" font-size="10.00">SmartDaqApplication</text>
</a>
</g>
</g>
<!-- Node7&#45;&gt;Node1 -->
<g id="edge10_Node000001_Node000007" class="edge">
<title>Node7&#45;&gt;Node1</title>
<g id="a_edge10_Node000001_Node000007"><a xlink:title=" ">
<path fill="none" stroke="#63b8ff" d="M157.2,-122.88C142.32,-95.84 122.41,-53.1 114.59,-30.83"/>
<polygon fill="#63b8ff" stroke="#63b8ff" points="154.07,-124.46 162.07,-131.42 160.15,-121 154.07,-124.46"/>
</a>
</g>
</g>
<!-- Node7&#45;&gt;Node1 -->
<g id="edge16_Node000001_Node000007" class="edge">
<title>Node7&#45;&gt;Node1</title>
<g id="a_edge16_Node000001_Node000007"><a xlink:title=" ">
<path fill="none" stroke="#63b8ff" d="M167.69,-122.16C156.91,-95.09 136.61,-52.91 123.47,-30.83"/>
<polygon fill="#63b8ff" stroke="#63b8ff" points="164.35,-123.19 171.15,-131.31 170.89,-120.72 164.35,-123.19"/>
</a>
</g>
</g>
<!-- Node8&#45;&gt;Node7 -->
<g id="edge11_Node000007_Node000008" class="edge">
<title>Node8&#45;&gt;Node7</title>
<g id="a_edge11_Node000007_Node000008"><a xlink:title=" ">
<path fill="none" stroke="#63b8ff" d="M167.82,-254.43C166.06,-227.34 166.73,-185.71 169.57,-163.83"/>
<polygon fill="#63b8ff" stroke="#63b8ff" points="164.32,-254.56 168.67,-264.22 171.29,-253.96 164.32,-254.56"/>
</a>
</g>
</g>
<!-- Node8&#45;&gt;Node7 -->
<g id="edge14_Node000007_Node000008" class="edge">
<title>Node8&#45;&gt;Node7</title>
<g id="a_edge14_Node000007_Node000008"><a xlink:title=" ">
<path fill="none" stroke="#63b8ff" d="M178.82,-254.43C181,-227.34 180.96,-185.71 178.45,-163.83"/>
<polygon fill="#63b8ff" stroke="#63b8ff" points="175.36,-253.92 177.82,-264.22 182.32,-254.63 175.36,-253.92"/>
</a>
</g>
</g>
</g>
</svg>
