<?xml version="1.0" encoding="UTF-8" standalone="no"?>
<!DOCTYPE svg PUBLIC "-//W3C//DTD SVG 1.1//EN"
 "http://www.w3.org/Graphics/SVG/1.1/DTD/svg11.dtd">
<!-- Generated by graphviz version 9.0.0 (20230911.1827)
 -->
<!-- Title: dunedaq::oks::OksNotExpression Pages: 1 -->
<svg width="176pt" height="94pt"
 viewBox="0.00 0.00 176.25 93.75" xmlns="http://www.w3.org/2000/svg" xmlns:xlink="http://www.w3.org/1999/xlink">
<g id="graph0" class="graph" transform="scale(1 1) rotate(0) translate(4 89.75)">
<title>dunedaq::oks::OksNotExpression</title>
<!-- Node1 -->
<g id="Node000001" class="node">
<title>Node1</title>
<g id="a_Node000001"><a xlink:title="OKS query logical NOT expression class.">
<polygon fill="#999999" stroke="#666666" points="163.38,-19.25 4.88,-19.25 4.88,0 163.38,0 163.38,-19.25"/>
<text text-anchor="middle" x="84.12" y="-5.75" font-family="Helvetica,sans-Serif" font-size="10.00">dunedaq::oks::OksNotExpression</text>
</a>
</g>
</g>
<!-- Node2 -->
<g id="Node000002" class="node">
<title>Node2</title>
<g id="a_Node000002"><a xlink:href="classdunedaq_1_1oks_1_1OksQueryExpression.html" target="_top" xlink:title="OKS query expression class.">
<polygon fill="white" stroke="#666666" points="168.25,-85.75 0,-85.75 0,-66.5 168.25,-66.5 168.25,-85.75"/>
<text text-anchor="middle" x="84.12" y="-72.25" font-family="Helvetica,sans-Serif" font-size="10.00">dunedaq::oks::OksQueryExpression</text>
</a>
</g>
</g>
<!-- Node2&#45;&gt;Node1 -->
<g id="edge1_Node000001_Node000002" class="edge">
<title>Node2&#45;&gt;Node1</title>
<g id="a_edge1_Node000001_Node000002"><a xlink:title=" ">
<path fill="none" stroke="#63b8ff" d="M82.38,-54.83C82.07,-49.14 81.91,-42.96 82.12,-37.25 82.35,-31.32 82.85,-24.66 83.29,-19.49"/>
<polygon fill="#63b8ff" stroke="#63b8ff" points="78.87,-54.87 83.08,-64.59 85.85,-54.36 78.87,-54.87"/>
</a>
</g>
</g>
<!-- Node2&#45;&gt;Node1 -->
<g id="edge2_Node000001_Node000002" class="edge">
<title>Node2&#45;&gt;Node1</title>
<g id="a_edge2_Node000001_Node000002"><a xlink:title=" ">
<path fill="none" stroke="#9a32cd" stroke-dasharray="5,2" d="M84.12,-54.65C84.12,-42.82 84.12,-28.54 84.12,-19.52"/>
<polygon fill="#9a32cd" stroke="#9a32cd" points="80.63,-54.64 84.13,-64.64 87.63,-54.64 80.63,-54.64"/>
</a>
</g>
<text text-anchor="middle" x="113.75" y="-39" font-family="Helvetica,sans-Serif" font-size="10.00" fill="grey"> p_expression</text>
</g>
</g>
</svg>
