<?xml version="1.0" encoding="UTF-8" standalone="no"?>
<!DOCTYPE svg PUBLIC "-//W3C//DTD SVG 1.1//EN"
 "http://www.w3.org/Graphics/SVG/1.1/DTD/svg11.dtd">
<!-- Generated by graphviz version 9.0.0 (20230911.1827)
 -->
<!-- Title: dunedaq::appmodel::WIECApplication Pages: 1 -->
<svg width="236pt" height="360pt"
 viewBox="0.00 0.00 235.88 359.75" xmlns="http://www.w3.org/2000/svg" xmlns:xlink="http://www.w3.org/1999/xlink">
<g id="graph0" class="graph" transform="scale(1 1) rotate(0) translate(4 355.75)">
<title>dunedaq::appmodel::WIECApplication</title>
<!-- Node1 -->
<g id="Node000001" class="node">
<title>Node1</title>
<g id="a_Node000001"><a xlink:title=" ">
<polygon fill="#999999" stroke="#666666" points="166.62,-30.5 62.88,-30.5 62.88,0 166.62,0 166.62,-30.5"/>
<text text-anchor="start" x="70.88" y="-17" font-family="Helvetica,sans-Serif" font-size="10.00">dunedaq::appmodel::</text>
<text text-anchor="middle" x="114.75" y="-5.75" font-family="Helvetica,sans-Serif" font-size="10.00">WIECApplication</text>
</a>
</g>
</g>
<!-- Node2 -->
<g id="Node000002" class="node">
<title>Node2</title>
<g id="a_Node000002"><a xlink:href="classdunedaq_1_1appmodel_1_1SmartDaqApplication.html" target="_top" xlink:title=" ">
<polygon fill="white" stroke="#666666" points="107.5,-163.5 0,-163.5 0,-133 107.5,-133 107.5,-163.5"/>
<text text-anchor="start" x="8" y="-150" font-family="Helvetica,sans-Serif" font-size="10.00">dunedaq::appmodel::</text>
<text text-anchor="middle" x="53.75" y="-138.75" font-family="Helvetica,sans-Serif" font-size="10.00">SmartDaqApplication</text>
</a>
</g>
</g>
<!-- Node2&#45;&gt;Node1 -->
<g id="edge1_Node000001_Node000002" class="edge">
<title>Node2&#45;&gt;Node1</title>
<g id="a_edge1_Node000001_Node000002"><a xlink:title=" ">
<path fill="none" stroke="#63b8ff" d="M59.99,-122.16C70.57,-95.09 90.54,-52.91 103.52,-30.83"/>
<polygon fill="#63b8ff" stroke="#63b8ff" points="56.79,-120.72 56.6,-131.31 63.36,-123.15 56.79,-120.72"/>
</a>
</g>
</g>
<!-- Node2&#45;&gt;Node1 -->
<g id="edge15_Node000001_Node000002" class="edge">
<title>Node2&#45;&gt;Node1</title>
<g id="a_edge15_Node000001_Node000002"><a xlink:title=" ">
<path fill="none" stroke="#63b8ff" d="M70.49,-122.88C85.17,-95.84 104.75,-53.1 112.4,-30.83"/>
<polygon fill="#63b8ff" stroke="#63b8ff" points="67.54,-120.98 65.69,-131.41 73.64,-124.41 67.54,-120.98"/>
</a>
</g>
</g>
<!-- Node3 -->
<g id="Node000003" class="node">
<title>Node3</title>
<g id="a_Node000003"><a xlink:href="classdunedaq_1_1confmodel_1_1Application.html" target="_top" xlink:title=" ">
<polygon fill="white" stroke="#666666" points="106.88,-296.5 4.62,-296.5 4.62,-266 106.88,-266 106.88,-296.5"/>
<text text-anchor="start" x="12.62" y="-283" font-family="Helvetica,sans-Serif" font-size="10.00">dunedaq::confmodel</text>
<text text-anchor="middle" x="55.75" y="-271.75" font-family="Helvetica,sans-Serif" font-size="10.00">::Application</text>
</a>
</g>
</g>
<!-- Node3&#45;&gt;Node2 -->
<g id="edge2_Node000002_Node000003" class="edge">
<title>Node3&#45;&gt;Node2</title>
<g id="a_edge2_Node000002_Node000003"><a xlink:title=" ">
<path fill="none" stroke="#63b8ff" d="M49.86,-254.43C47.48,-227.34 47.19,-185.71 49.53,-163.83"/>
<polygon fill="#63b8ff" stroke="#63b8ff" points="46.36,-254.67 50.93,-264.23 53.32,-253.9 46.36,-254.67"/>
</a>
</g>
</g>
<!-- Node3&#45;&gt;Node2 -->
<g id="edge5_Node000002_Node000003" class="edge">
<title>Node3&#45;&gt;Node2</title>
<g id="a_edge5_Node000002_Node000003"><a xlink:title=" ">
<path fill="none" stroke="#63b8ff" d="M60.86,-254.43C62.41,-227.34 61.42,-185.71 58.41,-163.83"/>
<polygon fill="#63b8ff" stroke="#63b8ff" points="57.38,-253.98 60.08,-264.22 64.36,-254.53 57.38,-253.98"/>
</a>
</g>
</g>
<!-- Node4 -->
<g id="Node000004" class="node">
<title>Node4</title>
<g id="a_Node000004"><a xlink:href="classdunedaq_1_1conffwk_1_1DalObject.html" target="_top" xlink:title="The base class for any generated DAL object.">
<polygon fill="white" stroke="#666666" points="184.88,-351.75 46.62,-351.75 46.62,-332.5 184.88,-332.5 184.88,-351.75"/>
<text text-anchor="middle" x="115.75" y="-338.25" font-family="Helvetica,sans-Serif" font-size="10.00">dunedaq::conffwk::DalObject</text>
</a>
</g>
</g>
<!-- Node4&#45;&gt;Node3 -->
<g id="edge3_Node000003_Node000004" class="edge">
<title>Node4&#45;&gt;Node3</title>
<g id="a_edge3_Node000003_Node000004"><a xlink:title=" ">
<path fill="none" stroke="#63b8ff" d="M92.98,-324.79C83.13,-316.01 72.25,-305.27 64.65,-296.78"/>
<polygon fill="#63b8ff" stroke="#63b8ff" points="90.6,-327.36 100.48,-331.2 95.15,-322.04 90.6,-327.36"/>
</a>
</g>
</g>
<!-- Node4&#45;&gt;Node3 -->
<g id="edge4_Node000003_Node000004" class="edge">
<title>Node4&#45;&gt;Node3</title>
<g id="a_edge4_Node000003_Node000004"><a xlink:title=" ">
<path fill="none" stroke="#63b8ff" d="M104.22,-323.7C96.28,-315.13 85.77,-304.92 76.47,-296.78"/>
<polygon fill="#63b8ff" stroke="#63b8ff" points="101.43,-325.83 110.65,-331.04 106.69,-321.22 101.43,-325.83"/>
</a>
</g>
</g>
<!-- Node8 -->
<g id="Node000008" class="node">
<title>Node8</title>
<g id="a_Node000008"><a xlink:href="classdunedaq_1_1confmodel_1_1Component.html" target="_top" xlink:title=" ">
<polygon fill="white" stroke="#666666" points="226.88,-296.5 124.62,-296.5 124.62,-266 226.88,-266 226.88,-296.5"/>
<text text-anchor="start" x="132.62" y="-283" font-family="Helvetica,sans-Serif" font-size="10.00">dunedaq::confmodel</text>
<text text-anchor="middle" x="175.75" y="-271.75" font-family="Helvetica,sans-Serif" font-size="10.00">::Component</text>
</a>
</g>
</g>
<!-- Node4&#45;&gt;Node8 -->
<g id="edge10_Node000008_Node000004" class="edge">
<title>Node4&#45;&gt;Node8</title>
<g id="a_edge10_Node000008_Node000004"><a xlink:title=" ">
<path fill="none" stroke="#63b8ff" d="M127.28,-323.7C135.22,-315.13 145.73,-304.92 155.03,-296.78"/>
<polygon fill="#63b8ff" stroke="#63b8ff" points="124.81,-321.22 120.85,-331.04 130.07,-325.83 124.81,-321.22"/>
</a>
</g>
</g>
<!-- Node4&#45;&gt;Node8 -->
<g id="edge11_Node000008_Node000004" class="edge">
<title>Node4&#45;&gt;Node8</title>
<g id="a_edge11_Node000008_Node000004"><a xlink:title=" ">
<path fill="none" stroke="#63b8ff" d="M138.52,-324.79C148.37,-316.01 159.25,-305.27 166.85,-296.78"/>
<polygon fill="#63b8ff" stroke="#63b8ff" points="136.35,-322.04 131.02,-331.2 140.9,-327.36 136.35,-322.04"/>
</a>
</g>
</g>
<!-- Node5 -->
<g id="Node000005" class="node">
<title>Node5</title>
<g id="a_Node000005"><a xlink:href="classdunedaq_1_1confmodel_1_1ResourceSetAND.html" target="_top" xlink:title=" ">
<polygon fill="white" stroke="#666666" points="218.88,-97 116.62,-97 116.62,-66.5 218.88,-66.5 218.88,-97"/>
<text text-anchor="start" x="124.62" y="-83.5" font-family="Helvetica,sans-Serif" font-size="10.00">dunedaq::confmodel</text>
<text text-anchor="middle" x="167.75" y="-72.25" font-family="Helvetica,sans-Serif" font-size="10.00">::ResourceSetAND</text>
</a>
</g>
</g>
<!-- Node5&#45;&gt;Node1 -->
<g id="edge6_Node000001_Node000005" class="edge">
<title>Node5&#45;&gt;Node1</title>
<g id="a_edge6_Node000001_Node000005"><a xlink:title=" ">
<path fill="none" stroke="#63b8ff" d="M142.25,-57.63C134.41,-48.69 126.48,-38.74 120.98,-30.83"/>
<polygon fill="#63b8ff" stroke="#63b8ff" points="139.63,-59.95 148.94,-64.99 144.81,-55.24 139.63,-59.95"/>
</a>
</g>
</g>
<!-- Node5&#45;&gt;Node1 -->
<g id="edge16_Node000001_Node000005" class="edge">
<title>Node5&#45;&gt;Node1</title>
<g id="a_edge16_Node000001_Node000005"><a xlink:title=" ">
<path fill="none" stroke="#63b8ff" d="M154.83,-57.07C148.06,-48.28 139.82,-38.57 132.48,-30.83"/>
<polygon fill="#63b8ff" stroke="#63b8ff" points="151.84,-58.92 160.59,-64.9 157.48,-54.77 151.84,-58.92"/>
</a>
</g>
</g>
<!-- Node6 -->
<g id="Node000006" class="node">
<title>Node6</title>
<g id="a_Node000006"><a xlink:href="classdunedaq_1_1confmodel_1_1ResourceSet.html" target="_top" xlink:title=" ">
<polygon fill="white" stroke="#666666" points="227.88,-163.5 125.62,-163.5 125.62,-133 227.88,-133 227.88,-163.5"/>
<text text-anchor="start" x="133.62" y="-150" font-family="Helvetica,sans-Serif" font-size="10.00">dunedaq::confmodel</text>
<text text-anchor="middle" x="176.75" y="-138.75" font-family="Helvetica,sans-Serif" font-size="10.00">::ResourceSet</text>
</a>
</g>
</g>
<!-- Node6&#45;&gt;Node5 -->
<g id="edge7_Node000005_Node000006" class="edge">
<title>Node6&#45;&gt;Node5</title>
<g id="a_edge7_Node000005_Node000006"><a xlink:title=" ">
<path fill="none" stroke="#63b8ff" d="M166.55,-121.59C165.07,-113.34 164.13,-104.49 164.03,-97.33"/>
<polygon fill="#63b8ff" stroke="#63b8ff" points="163.08,-122.11 168.62,-131.14 169.92,-120.62 163.08,-122.11"/>
</a>
</g>
</g>
<!-- Node6&#45;&gt;Node5 -->
<g id="edge14_Node000005_Node000006" class="edge">
<title>Node6&#45;&gt;Node5</title>
<g id="a_edge14_Node000005_Node000006"><a xlink:title=" ">
<path fill="none" stroke="#63b8ff" d="M179.76,-121.31C178.93,-113.14 177.42,-104.41 175.54,-97.33"/>
<polygon fill="#63b8ff" stroke="#63b8ff" points="176.26,-121.34 180.37,-131.1 183.25,-120.9 176.26,-121.34"/>
</a>
</g>
</g>
<!-- Node7 -->
<g id="Node000007" class="node">
<title>Node7</title>
<g id="a_Node000007"><a xlink:href="classdunedaq_1_1confmodel_1_1ResourceBase.html" target="_top" xlink:title=" ">
<polygon fill="white" stroke="#666666" points="226.88,-230 124.62,-230 124.62,-199.5 226.88,-199.5 226.88,-230"/>
<text text-anchor="start" x="132.62" y="-216.5" font-family="Helvetica,sans-Serif" font-size="10.00">dunedaq::confmodel</text>
<text text-anchor="middle" x="175.75" y="-205.25" font-family="Helvetica,sans-Serif" font-size="10.00">::ResourceBase</text>
</a>
</g>
</g>
<!-- Node7&#45;&gt;Node6 -->
<g id="edge8_Node000006_Node000007" class="edge">
<title>Node7&#45;&gt;Node6</title>
<g id="a_edge8_Node000006_Node000007"><a xlink:title=" ">
<path fill="none" stroke="#63b8ff" d="M169.52,-187.81C169.34,-179.64 169.77,-170.91 170.77,-163.83"/>
<polygon fill="#63b8ff" stroke="#63b8ff" points="166.01,-187.84 170.12,-197.6 173,-187.41 166.01,-187.84"/>
</a>
</g>
</g>
<!-- Node7&#45;&gt;Node6 -->
<g id="edge13_Node000006_Node000007" class="edge">
<title>Node7&#45;&gt;Node6</title>
<g id="a_edge13_Node000006_Node000007"><a xlink:title=" ">
<path fill="none" stroke="#63b8ff" d="M182.79,-187.81C183.22,-179.64 183.06,-170.91 182.28,-163.83"/>
<polygon fill="#63b8ff" stroke="#63b8ff" points="179.32,-187.33 181.88,-197.61 186.29,-187.97 179.32,-187.33"/>
</a>
</g>
</g>
<!-- Node8&#45;&gt;Node7 -->
<g id="edge9_Node000007_Node000008" class="edge">
<title>Node8&#45;&gt;Node7</title>
<g id="a_edge9_Node000007_Node000008"><a xlink:title=" ">
<path fill="none" stroke="#63b8ff" d="M169.12,-254.31C168.81,-246.14 169.11,-237.41 170,-230.33"/>
<polygon fill="#63b8ff" stroke="#63b8ff" points="165.61,-254.4 169.87,-264.1 172.59,-253.87 165.61,-254.4"/>
</a>
</g>
</g>
<!-- Node8&#45;&gt;Node7 -->
<g id="edge12_Node000007_Node000008" class="edge">
<title>Node8&#45;&gt;Node7</title>
<g id="a_edge12_Node000007_Node000008"><a xlink:title=" ">
<path fill="none" stroke="#63b8ff" d="M182.38,-254.31C182.69,-246.14 182.39,-237.41 181.5,-230.33"/>
<polygon fill="#63b8ff" stroke="#63b8ff" points="178.91,-253.87 181.63,-264.1 185.89,-254.4 178.91,-253.87"/>
</a>
</g>
</g>
</g>
</svg>
