<?xml version="1.0" encoding="UTF-8" standalone="no"?>
<!DOCTYPE svg PUBLIC "-//W3C//DTD SVG 1.1//EN"
 "http://www.w3.org/Graphics/SVG/1.1/DTD/svg11.dtd">
<!-- Generated by graphviz version 9.0.0 (20230911.1827)
 -->
<!-- Title: wib::GetSensors_Sensors Pages: 1 -->
<svg width="284pt" height="105pt"
 viewBox="0.00 0.00 283.50 105.00" xmlns="http://www.w3.org/2000/svg" xmlns:xlink="http://www.w3.org/1999/xlink">
<g id="graph0" class="graph" transform="scale(1 1) rotate(0) translate(4 101)">
<title>wib::GetSensors_Sensors</title>
<!-- Node1 -->
<g id="Node000001" class="node">
<title>Node1</title>
<g id="a_Node000001"><a xlink:title=" ">
<polygon fill="#999999" stroke="#666666" points="201.5,-19.25 73,-19.25 73,0 201.5,0 201.5,-19.25"/>
<text text-anchor="middle" x="137.25" y="-5.75" font-family="Helvetica,sans-Serif" font-size="10.00">wib::GetSensors_Sensors</text>
</a>
</g>
</g>
<!-- Node2 -->
<g id="Node000002" class="node">
<title>Node2</title>
<g id="a_Node000002"><a xlink:title=" ">
<polygon fill="white" stroke="#666666" points="128.5,-91.38 0,-91.38 0,-72.12 128.5,-72.12 128.5,-91.38"/>
<text text-anchor="middle" x="64.25" y="-77.88" font-family="Helvetica,sans-Serif" font-size="10.00">google::protobuf::Message</text>
</a>
</g>
</g>
<!-- Node2&#45;&gt;Node1 -->
<g id="edge1_Node000001_Node000002" class="edge">
<title>Node2&#45;&gt;Node1</title>
<g id="a_edge1_Node000001_Node000002"><a xlink:title=" ">
<path fill="none" stroke="#63b8ff" d="M81.67,-64.02C96.15,-50.11 116.21,-30.84 127.85,-19.66"/>
<polygon fill="#63b8ff" stroke="#63b8ff" points="79.37,-61.37 74.59,-70.82 84.22,-66.42 79.37,-61.37"/>
</a>
</g>
</g>
<!-- Node3 -->
<g id="Node000003" class="node">
<title>Node3</title>
<g id="a_Node000003"><a xlink:href="structwib_1_1GetSensors__Sensors_1_1Impl__.html" target="_top" xlink:title=" ">
<polygon fill="white" stroke="#666666" points="275.5,-97 147,-97 147,-66.5 275.5,-66.5 275.5,-97"/>
<text text-anchor="start" x="155" y="-83.5" font-family="Helvetica,sans-Serif" font-size="10.00">wib::GetSensors_Sensors</text>
<text text-anchor="middle" x="211.25" y="-72.25" font-family="Helvetica,sans-Serif" font-size="10.00">::Impl_</text>
</a>
</g>
</g>
<!-- Node3&#45;&gt;Node1 -->
<g id="edge2_Node000001_Node000003" class="edge">
<title>Node3&#45;&gt;Node1</title>
<g id="a_edge2_Node000001_Node000003"><a xlink:title=" ">
<path fill="none" stroke="#9a32cd" stroke-dasharray="5,2" d="M187.68,-58.41C173.69,-45.16 156.75,-29.1 146.49,-19.38"/>
<polygon fill="#9a32cd" stroke="#9a32cd" points="185.15,-60.84 194.82,-65.18 189.97,-55.76 185.15,-60.84"/>
</a>
</g>
<text text-anchor="middle" x="192.62" y="-39" font-family="Helvetica,sans-Serif" font-size="10.00" fill="grey"> _impl_</text>
</g>
</g>
</svg>
