<?xml version="1.0" encoding="UTF-8" standalone="no"?>
<!DOCTYPE svg PUBLIC "-//W3C//DTD SVG 1.1//EN"
 "http://www.w3.org/Graphics/SVG/1.1/DTD/svg11.dtd">
<!-- Generated by graphviz version 9.0.0 (20230911.1827)
 -->
<!-- Title: dunedaq::confmodel::Resource Pages: 1 -->
<svg width="1013pt" height="333pt"
 viewBox="0.00 0.00 1012.50 332.50" xmlns="http://www.w3.org/2000/svg" xmlns:xlink="http://www.w3.org/1999/xlink">
<g id="graph0" class="graph" transform="scale(1 1) rotate(0) translate(4 328.5)">
<title>dunedaq::confmodel::Resource</title>
<!-- Node1 -->
<g id="Node000001" class="node">
<title>Node1</title>
<g id="a_Node000001"><a xlink:title=" ">
<polygon fill="#999999" stroke="#666666" points="553,-177.5 450.75,-177.5 450.75,-147 553,-147 553,-177.5"/>
<text text-anchor="start" x="458.75" y="-164" font-family="Helvetica,sans-Serif" font-size="10.00">dunedaq::confmodel</text>
<text text-anchor="middle" x="501.88" y="-152.75" font-family="Helvetica,sans-Serif" font-size="10.00">::Resource</text>
</a>
</g>
</g>
<!-- Node5 -->
<g id="Node000005" class="node">
<title>Node5</title>
<g id="a_Node000005"><a xlink:href="classdunedaq_1_1appmodel_1_1DFApplication.html" target="_top" xlink:title=" ">
<polygon fill="white" stroke="#666666" points="707.75,-324.5 604,-324.5 604,-294 707.75,-294 707.75,-324.5"/>
<text text-anchor="start" x="612" y="-311" font-family="Helvetica,sans-Serif" font-size="10.00">dunedaq::appmodel::</text>
<text text-anchor="middle" x="655.88" y="-299.75" font-family="Helvetica,sans-Serif" font-size="10.00">DFApplication</text>
</a>
</g>
</g>
<!-- Node1&#45;&gt;Node5 -->
<g id="edge7_Node000001_Node000005" class="edge">
<title>Node1&#45;&gt;Node5</title>
<g id="a_edge7_Node000001_Node000005"><a xlink:title=" ">
<path fill="none" stroke="#63b8ff" d="M518.79,-187.64C533.6,-213.04 558.02,-251.24 589,-275.25 599.34,-283.27 612.55,-288.95 624.42,-293.51"/>
<polygon fill="#63b8ff" stroke="#63b8ff" points="521.99,-186.19 513.98,-179.25 515.92,-189.67 521.99,-186.19"/>
</a>
</g>
</g>
<!-- Node1&#45;&gt;Node5 -->
<g id="edge8_Node000001_Node000005" class="edge">
<title>Node1&#45;&gt;Node5</title>
<g id="a_edge8_Node000001_Node000005"><a xlink:title=" ">
<path fill="none" stroke="#63b8ff" d="M512.18,-188.2C525.61,-217.87 552.84,-265.22 589,-293.25 593.45,-296.7 598.42,-299.71 603.59,-302.29"/>
<polygon fill="#63b8ff" stroke="#63b8ff" points="515.47,-186.98 508.31,-179.16 509.03,-189.73 515.47,-186.98"/>
</a>
</g>
</g>
<!-- Node6 -->
<g id="Node000006" class="node">
<title>Node6</title>
<g id="a_Node000006"><a xlink:href="classdunedaq_1_1appmodel_1_1DTSHSIApplication.html" target="_top" xlink:title=" ">
<polygon fill="white" stroke="#666666" points="707.75,-275.5 604,-275.5 604,-245 707.75,-245 707.75,-275.5"/>
<text text-anchor="start" x="612" y="-262" font-family="Helvetica,sans-Serif" font-size="10.00">dunedaq::appmodel::</text>
<text text-anchor="middle" x="655.88" y="-250.75" font-family="Helvetica,sans-Serif" font-size="10.00">DTSHSIApplication</text>
</a>
</g>
</g>
<!-- Node1&#45;&gt;Node6 -->
<g id="edge9_Node000001_Node000006" class="edge">
<title>Node1&#45;&gt;Node6</title>
<g id="a_edge9_Node000001_Node000006"><a xlink:title=" ">
<path fill="none" stroke="#63b8ff" d="M534.33,-185.27C549.83,-198.57 569.38,-214.68 589,-226.25 601.43,-233.58 616.4,-239.47 628.92,-244.56"/>
<polygon fill="#63b8ff" stroke="#63b8ff" points="536.7,-182.7 526.84,-178.81 532.12,-188 536.7,-182.7"/>
</a>
</g>
</g>
<!-- Node1&#45;&gt;Node6 -->
<g id="edge10_Node000001_Node000006" class="edge">
<title>Node1&#45;&gt;Node6</title>
<g id="a_edge10_Node000001_Node000006"><a xlink:title=" ">
<path fill="none" stroke="#63b8ff" d="M519.58,-186.38C536.02,-204.62 562.45,-228.59 589,-244.25 593.64,-246.98 598.62,-249.52 603.71,-251.79"/>
<polygon fill="#63b8ff" stroke="#63b8ff" points="522.5,-184.41 513.34,-179.09 517.18,-188.96 522.5,-184.41"/>
</a>
</g>
</g>
<!-- Node7 -->
<g id="Node000007" class="node">
<title>Node7</title>
<g id="a_Node000007"><a xlink:href="classdunedaq_1_1appmodel_1_1FakeHSIApplication.html" target="_top" xlink:title=" ">
<polygon fill="white" stroke="#666666" points="707.75,-226.5 604,-226.5 604,-196 707.75,-196 707.75,-226.5"/>
<text text-anchor="start" x="612" y="-213" font-family="Helvetica,sans-Serif" font-size="10.00">dunedaq::appmodel::</text>
<text text-anchor="middle" x="655.88" y="-201.75" font-family="Helvetica,sans-Serif" font-size="10.00">FakeHSIApplication</text>
</a>
</g>
</g>
<!-- Node1&#45;&gt;Node7 -->
<g id="edge11_Node000001_Node000007" class="edge">
<title>Node1&#45;&gt;Node7</title>
<g id="a_edge11_Node000001_Node000007"><a xlink:title=" ">
<path fill="none" stroke="#63b8ff" d="M564.28,-175.41C584.62,-181.65 606.4,-189.02 623.51,-195.56"/>
<polygon fill="#63b8ff" stroke="#63b8ff" points="565.52,-172.13 554.94,-172.6 563.51,-178.83 565.52,-172.13"/>
</a>
</g>
</g>
<!-- Node1&#45;&gt;Node7 -->
<g id="edge12_Node000001_Node000007" class="edge">
<title>Node1&#45;&gt;Node7</title>
<g id="a_edge12_Node000001_Node000007"><a xlink:title=" ">
<path fill="none" stroke="#63b8ff" d="M544.94,-181.92C563.13,-188.52 584.57,-195.53 603.68,-201.16"/>
<polygon fill="#63b8ff" stroke="#63b8ff" points="546.38,-178.72 535.79,-178.52 543.94,-185.29 546.38,-178.72"/>
</a>
</g>
</g>
<!-- Node8 -->
<g id="Node000008" class="node">
<title>Node8</title>
<g id="a_Node000008"><a xlink:href="classdunedaq_1_1appmodel_1_1HSIEventToTCApplication.html" target="_top" xlink:title=" ">
<polygon fill="white" stroke="#666666" points="720.88,-177.5 590.88,-177.5 590.88,-147 720.88,-147 720.88,-177.5"/>
<text text-anchor="start" x="598.88" y="-164" font-family="Helvetica,sans-Serif" font-size="10.00">dunedaq::appmodel::</text>
<text text-anchor="middle" x="655.88" y="-152.75" font-family="Helvetica,sans-Serif" font-size="10.00">HSIEventToTCApplication</text>
</a>
</g>
</g>
<!-- Node1&#45;&gt;Node8 -->
<g id="edge13_Node000001_Node000008" class="edge">
<title>Node1&#45;&gt;Node8</title>
<g id="a_edge13_Node000001_Node000008"><a xlink:title=" ">
<path fill="none" stroke="#63b8ff" d="M564.81,-155.6C573.25,-155.48 581.94,-155.47 590.42,-155.57"/>
<polygon fill="#63b8ff" stroke="#63b8ff" points="564.92,-152.1 555,-155.81 565.07,-159.1 564.92,-152.1"/>
</a>
</g>
</g>
<!-- Node1&#45;&gt;Node8 -->
<g id="edge14_Node000001_Node000008" class="edge">
<title>Node1&#45;&gt;Node8</title>
<g id="a_edge14_Node000001_Node000008"><a xlink:title=" ">
<path fill="none" stroke="#63b8ff" d="M564.81,-168.9C573.25,-169.02 581.94,-169.03 590.42,-168.93"/>
<polygon fill="#63b8ff" stroke="#63b8ff" points="565.07,-165.4 555,-168.69 564.92,-172.4 565.07,-165.4"/>
</a>
</g>
</g>
<!-- Node9 -->
<g id="Node000009" class="node">
<title>Node9</title>
<g id="a_Node000009"><a xlink:href="classdunedaq_1_1appmodel_1_1TPStreamWriterApplication.html" target="_top" xlink:title=" ">
<polygon fill="white" stroke="#666666" points="722.75,-128.5 589,-128.5 589,-98 722.75,-98 722.75,-128.5"/>
<text text-anchor="start" x="597" y="-115" font-family="Helvetica,sans-Serif" font-size="10.00">dunedaq::appmodel::</text>
<text text-anchor="middle" x="655.88" y="-103.75" font-family="Helvetica,sans-Serif" font-size="10.00">TPStreamWriterApplication</text>
</a>
</g>
</g>
<!-- Node1&#45;&gt;Node9 -->
<g id="edge15_Node000001_Node000009" class="edge">
<title>Node1&#45;&gt;Node9</title>
<g id="a_edge15_Node000001_Node000009"><a xlink:title=" ">
<path fill="none" stroke="#63b8ff" d="M544.81,-142.62C558.37,-137.7 573.76,-132.55 588.64,-127.9"/>
<polygon fill="#63b8ff" stroke="#63b8ff" points="543.94,-139.21 535.79,-145.98 546.38,-145.77 543.94,-139.21"/>
</a>
</g>
</g>
<!-- Node1&#45;&gt;Node9 -->
<g id="edge16_Node000001_Node000009" class="edge">
<title>Node1&#45;&gt;Node9</title>
<g id="a_edge16_Node000001_Node000009"><a xlink:title=" ">
<path fill="none" stroke="#63b8ff" d="M564.28,-149.09C584.62,-142.85 606.4,-135.48 623.51,-128.94"/>
<polygon fill="#63b8ff" stroke="#63b8ff" points="563.51,-145.67 554.94,-151.9 565.52,-152.37 563.51,-145.67"/>
</a>
</g>
</g>
<!-- Node10 -->
<g id="Node000010" class="node">
<title>Node10</title>
<g id="a_Node000010"><a xlink:href="classdunedaq_1_1confmodel_1_1DetDataReceiver.html" target="_top" xlink:title=" ">
<polygon fill="white" stroke="#666666" points="707,-79.5 604.75,-79.5 604.75,-49 707,-49 707,-79.5"/>
<text text-anchor="start" x="612.75" y="-66" font-family="Helvetica,sans-Serif" font-size="10.00">dunedaq::confmodel</text>
<text text-anchor="middle" x="655.88" y="-54.75" font-family="Helvetica,sans-Serif" font-size="10.00">::DetDataReceiver</text>
</a>
</g>
</g>
<!-- Node1&#45;&gt;Node10 -->
<g id="edge17_Node000001_Node000010" class="edge">
<title>Node1&#45;&gt;Node10</title>
<g id="a_edge17_Node000001_Node000010"><a xlink:title=" ">
<path fill="none" stroke="#63b8ff" d="M519.58,-138.12C536.02,-119.88 562.45,-95.91 589,-80.25 593.85,-77.39 599.08,-74.75 604.4,-72.4"/>
<polygon fill="#63b8ff" stroke="#63b8ff" points="517.18,-135.54 513.34,-145.41 522.5,-140.09 517.18,-135.54"/>
</a>
</g>
</g>
<!-- Node1&#45;&gt;Node10 -->
<g id="edge26_Node000001_Node000010" class="edge">
<title>Node1&#45;&gt;Node10</title>
<g id="a_edge26_Node000001_Node000010"><a xlink:title=" ">
<path fill="none" stroke="#63b8ff" d="M534.33,-139.23C549.83,-125.93 569.38,-109.82 589,-98.25 601.43,-90.92 616.4,-85.03 628.92,-79.94"/>
<polygon fill="#63b8ff" stroke="#63b8ff" points="532.12,-136.5 526.84,-145.69 536.7,-141.8 532.12,-136.5"/>
</a>
</g>
</g>
<!-- Node15 -->
<g id="Node000015" class="node">
<title>Node15</title>
<g id="a_Node000015"><a xlink:href="classdunedaq_1_1confmodel_1_1DetectorStream.html" target="_top" xlink:title=" ">
<polygon fill="white" stroke="#666666" points="707,-30.5 604.75,-30.5 604.75,0 707,0 707,-30.5"/>
<text text-anchor="start" x="612.75" y="-17" font-family="Helvetica,sans-Serif" font-size="10.00">dunedaq::confmodel</text>
<text text-anchor="middle" x="655.88" y="-5.75" font-family="Helvetica,sans-Serif" font-size="10.00">::DetectorStream</text>
</a>
</g>
</g>
<!-- Node1&#45;&gt;Node15 -->
<g id="edge27_Node000001_Node000015" class="edge">
<title>Node1&#45;&gt;Node15</title>
<g id="a_edge27_Node000001_Node000015"><a xlink:title=" ">
<path fill="none" stroke="#63b8ff" d="M512.18,-136.3C525.61,-106.63 552.84,-59.28 589,-31.25 593.64,-27.65 598.86,-24.53 604.27,-21.88"/>
<polygon fill="#63b8ff" stroke="#63b8ff" points="509.03,-134.77 508.31,-145.34 515.47,-137.52 509.03,-134.77"/>
</a>
</g>
</g>
<!-- Node1&#45;&gt;Node15 -->
<g id="edge28_Node000001_Node000015" class="edge">
<title>Node1&#45;&gt;Node15</title>
<g id="a_edge28_Node000001_Node000015"><a xlink:title=" ">
<path fill="none" stroke="#63b8ff" d="M518.79,-136.86C533.6,-111.46 558.02,-73.26 589,-49.25 599.34,-41.23 612.55,-35.55 624.42,-30.99"/>
<polygon fill="#63b8ff" stroke="#63b8ff" points="515.92,-134.83 513.98,-145.25 521.99,-138.31 515.92,-134.83"/>
</a>
</g>
</g>
<!-- Node2 -->
<g id="Node000002" class="node">
<title>Node2</title>
<g id="a_Node000002"><a xlink:href="classdunedaq_1_1confmodel_1_1ResourceBase.html" target="_top" xlink:title=" ">
<polygon fill="white" stroke="#666666" points="414.75,-177.5 312.5,-177.5 312.5,-147 414.75,-147 414.75,-177.5"/>
<text text-anchor="start" x="320.5" y="-164" font-family="Helvetica,sans-Serif" font-size="10.00">dunedaq::confmodel</text>
<text text-anchor="middle" x="363.62" y="-152.75" font-family="Helvetica,sans-Serif" font-size="10.00">::ResourceBase</text>
</a>
</g>
</g>
<!-- Node2&#45;&gt;Node1 -->
<g id="edge1_Node000001_Node000002" class="edge">
<title>Node2&#45;&gt;Node1</title>
<g id="a_edge1_Node000001_Node000002"><a xlink:title=" ">
<path fill="none" stroke="#63b8ff" d="M426.22,-155.53C434.27,-155.46 442.44,-155.52 450.28,-155.7"/>
<polygon fill="#63b8ff" stroke="#63b8ff" points="426.43,-152.02 416.49,-155.68 426.54,-159.02 426.43,-152.02"/>
</a>
</g>
</g>
<!-- Node2&#45;&gt;Node1 -->
<g id="edge6_Node000001_Node000002" class="edge">
<title>Node2&#45;&gt;Node1</title>
<g id="a_edge6_Node000001_Node000002"><a xlink:title=" ">
<path fill="none" stroke="#63b8ff" d="M426.22,-168.97C434.27,-169.04 442.44,-168.98 450.28,-168.8"/>
<polygon fill="#63b8ff" stroke="#63b8ff" points="426.54,-165.48 416.49,-168.82 426.43,-172.48 426.54,-165.48"/>
</a>
</g>
</g>
<!-- Node3 -->
<g id="Node000003" class="node">
<title>Node3</title>
<g id="a_Node000003"><a xlink:href="classdunedaq_1_1confmodel_1_1Component.html" target="_top" xlink:title=" ">
<polygon fill="white" stroke="#666666" points="276.5,-177.5 174.25,-177.5 174.25,-147 276.5,-147 276.5,-177.5"/>
<text text-anchor="start" x="182.25" y="-164" font-family="Helvetica,sans-Serif" font-size="10.00">dunedaq::confmodel</text>
<text text-anchor="middle" x="225.38" y="-152.75" font-family="Helvetica,sans-Serif" font-size="10.00">::Component</text>
</a>
</g>
</g>
<!-- Node3&#45;&gt;Node2 -->
<g id="edge2_Node000002_Node000003" class="edge">
<title>Node3&#45;&gt;Node2</title>
<g id="a_edge2_Node000002_Node000003"><a xlink:title=" ">
<path fill="none" stroke="#63b8ff" d="M287.97,-155.53C296.02,-155.46 304.19,-155.52 312.03,-155.7"/>
<polygon fill="#63b8ff" stroke="#63b8ff" points="288.18,-152.02 278.24,-155.68 288.29,-159.02 288.18,-152.02"/>
</a>
</g>
</g>
<!-- Node3&#45;&gt;Node2 -->
<g id="edge5_Node000002_Node000003" class="edge">
<title>Node3&#45;&gt;Node2</title>
<g id="a_edge5_Node000002_Node000003"><a xlink:title=" ">
<path fill="none" stroke="#63b8ff" d="M287.97,-168.97C296.02,-169.04 304.19,-168.98 312.03,-168.8"/>
<polygon fill="#63b8ff" stroke="#63b8ff" points="288.29,-165.48 278.24,-168.82 288.18,-172.48 288.29,-165.48"/>
</a>
</g>
</g>
<!-- Node4 -->
<g id="Node000004" class="node">
<title>Node4</title>
<g id="a_Node000004"><a xlink:href="classdunedaq_1_1conffwk_1_1DalObject.html" target="_top" xlink:title="The base class for any generated DAL object.">
<polygon fill="white" stroke="#666666" points="138.25,-171.88 0,-171.88 0,-152.62 138.25,-152.62 138.25,-171.88"/>
<text text-anchor="middle" x="69.12" y="-158.38" font-family="Helvetica,sans-Serif" font-size="10.00">dunedaq::conffwk::DalObject</text>
</a>
</g>
</g>
<!-- Node4&#45;&gt;Node3 -->
<g id="edge3_Node000003_Node000004" class="edge">
<title>Node4&#45;&gt;Node3</title>
<g id="a_edge3_Node000003_Node000004"><a xlink:title=" ">
<path fill="none" stroke="#63b8ff" d="M150.17,-155.5C158.3,-155.53 166.39,-155.65 174.08,-155.88"/>
<polygon fill="#63b8ff" stroke="#63b8ff" points="150.18,-152 140.19,-155.53 150.2,-159 150.18,-152"/>
</a>
</g>
</g>
<!-- Node4&#45;&gt;Node3 -->
<g id="edge4_Node000003_Node000004" class="edge">
<title>Node4&#45;&gt;Node3</title>
<g id="a_edge4_Node000003_Node000004"><a xlink:title=" ">
<path fill="none" stroke="#63b8ff" d="M150.17,-169C158.3,-168.97 166.39,-168.85 174.08,-168.62"/>
<polygon fill="#63b8ff" stroke="#63b8ff" points="150.2,-165.5 140.19,-168.97 150.18,-172.5 150.2,-165.5"/>
</a>
</g>
</g>
<!-- Node11 -->
<g id="Node000011" class="node">
<title>Node11</title>
<g id="a_Node000011"><a xlink:href="classdunedaq_1_1appmodel_1_1FakeDataReceiver.html" target="_top" xlink:title=" ">
<polygon fill="white" stroke="#666666" points="863.62,-128.5 759.88,-128.5 759.88,-98 863.62,-98 863.62,-128.5"/>
<text text-anchor="start" x="767.88" y="-115" font-family="Helvetica,sans-Serif" font-size="10.00">dunedaq::appmodel::</text>
<text text-anchor="middle" x="811.75" y="-103.75" font-family="Helvetica,sans-Serif" font-size="10.00">FakeDataReceiver</text>
</a>
</g>
</g>
<!-- Node10&#45;&gt;Node11 -->
<g id="edge18_Node000010_Node000011" class="edge">
<title>Node10&#45;&gt;Node11</title>
<g id="a_edge18_Node000010_Node000011"><a xlink:title=" ">
<path fill="none" stroke="#63b8ff" d="M718.02,-77.1C738.93,-83.42 761.48,-90.94 779.11,-97.59"/>
<polygon fill="#63b8ff" stroke="#63b8ff" points="719.29,-73.83 708.71,-74.34 717.31,-80.54 719.29,-73.83"/>
</a>
</g>
</g>
<!-- Node10&#45;&gt;Node11 -->
<g id="edge19_Node000010_Node000011" class="edge">
<title>Node10&#45;&gt;Node11</title>
<g id="a_edge19_Node000010_Node000011"><a xlink:title=" ">
<path fill="none" stroke="#63b8ff" d="M699.55,-83.96C718.14,-90.61 740.07,-97.69 759.53,-103.34"/>
<polygon fill="#63b8ff" stroke="#63b8ff" points="700.77,-80.68 690.18,-80.52 698.36,-87.25 700.77,-80.68"/>
</a>
</g>
</g>
<!-- Node12 -->
<g id="Node000012" class="node">
<title>Node12</title>
<g id="a_Node000012"><a xlink:href="classdunedaq_1_1appmodel_1_1FelixInterface.html" target="_top" xlink:title=" ">
<polygon fill="white" stroke="#666666" points="863.62,-79.5 759.88,-79.5 759.88,-49 863.62,-49 863.62,-79.5"/>
<text text-anchor="start" x="767.88" y="-66" font-family="Helvetica,sans-Serif" font-size="10.00">dunedaq::appmodel::</text>
<text text-anchor="middle" x="811.75" y="-54.75" font-family="Helvetica,sans-Serif" font-size="10.00">FelixInterface</text>
</a>
</g>
</g>
<!-- Node10&#45;&gt;Node12 -->
<g id="edge20_Node000010_Node000012" class="edge">
<title>Node10&#45;&gt;Node12</title>
<g id="a_edge20_Node000010_Node000012"><a xlink:title=" ">
<path fill="none" stroke="#63b8ff" d="M718.48,-57.62C732.07,-57.4 746.33,-57.48 759.46,-57.85"/>
<polygon fill="#63b8ff" stroke="#63b8ff" points="718.69,-54.11 708.77,-57.84 718.85,-61.11 718.69,-54.11"/>
</a>
</g>
</g>
<!-- Node10&#45;&gt;Node12 -->
<g id="edge21_Node000010_Node000012" class="edge">
<title>Node10&#45;&gt;Node12</title>
<g id="a_edge21_Node000010_Node000012"><a xlink:title=" ">
<path fill="none" stroke="#63b8ff" d="M718.48,-70.88C732.07,-71.1 746.33,-71.02 759.46,-70.65"/>
<polygon fill="#63b8ff" stroke="#63b8ff" points="718.85,-67.39 708.77,-70.66 718.69,-74.39 718.85,-67.39"/>
</a>
</g>
</g>
<!-- Node13 -->
<g id="Node000013" class="node">
<title>Node13</title>
<g id="a_Node000013"><a xlink:href="classdunedaq_1_1appmodel_1_1NWDetDataReceiver.html" target="_top" xlink:title=" ">
<polygon fill="white" stroke="#666666" points="864.75,-30.5 758.75,-30.5 758.75,0 864.75,0 864.75,-30.5"/>
<text text-anchor="start" x="766.75" y="-17" font-family="Helvetica,sans-Serif" font-size="10.00">dunedaq::appmodel::</text>
<text text-anchor="middle" x="811.75" y="-5.75" font-family="Helvetica,sans-Serif" font-size="10.00">NWDetDataReceiver</text>
</a>
</g>
</g>
<!-- Node10&#45;&gt;Node13 -->
<g id="edge22_Node000010_Node000013" class="edge">
<title>Node10&#45;&gt;Node13</title>
<g id="a_edge22_Node000010_Node000013"><a xlink:title=" ">
<path fill="none" stroke="#63b8ff" d="M699.36,-44.61C717.6,-38.08 739.09,-31.12 758.31,-25.51"/>
<polygon fill="#63b8ff" stroke="#63b8ff" points="698.36,-41.25 690.18,-47.98 700.77,-47.82 698.36,-41.25"/>
</a>
</g>
</g>
<!-- Node10&#45;&gt;Node13 -->
<g id="edge25_Node000010_Node000013" class="edge">
<title>Node10&#45;&gt;Node13</title>
<g id="a_edge25_Node000010_Node000013"><a xlink:title=" ">
<path fill="none" stroke="#63b8ff" d="M718.02,-51.4C738.93,-45.08 761.48,-37.56 779.11,-30.91"/>
<polygon fill="#63b8ff" stroke="#63b8ff" points="717.31,-47.96 708.71,-54.16 719.29,-54.67 717.31,-47.96"/>
</a>
</g>
</g>
<!-- Node14 -->
<g id="Node000014" class="node">
<title>Node14</title>
<g id="a_Node000014"><a xlink:href="classdunedaq_1_1appmodel_1_1DPDKReceiver.html" target="_top" xlink:title=" ">
<polygon fill="white" stroke="#666666" points="1004.5,-30.5 900.75,-30.5 900.75,0 1004.5,0 1004.5,-30.5"/>
<text text-anchor="start" x="908.75" y="-17" font-family="Helvetica,sans-Serif" font-size="10.00">dunedaq::appmodel::</text>
<text text-anchor="middle" x="952.62" y="-5.75" font-family="Helvetica,sans-Serif" font-size="10.00">DPDKReceiver</text>
</a>
</g>
</g>
<!-- Node13&#45;&gt;Node14 -->
<g id="edge23_Node000013_Node000014" class="edge">
<title>Node13&#45;&gt;Node14</title>
<g id="a_edge23_Node000013_Node000014"><a xlink:title=" ">
<path fill="none" stroke="#63b8ff" d="M876.27,-8.52C884.42,-8.46 892.69,-8.53 900.61,-8.72"/>
<polygon fill="#63b8ff" stroke="#63b8ff" points="876.32,-5.02 866.37,-8.67 876.42,-12.02 876.32,-5.02"/>
</a>
</g>
</g>
<!-- Node13&#45;&gt;Node14 -->
<g id="edge24_Node000013_Node000014" class="edge">
<title>Node13&#45;&gt;Node14</title>
<g id="a_edge24_Node000013_Node000014"><a xlink:title=" ">
<path fill="none" stroke="#63b8ff" d="M876.27,-21.98C884.42,-22.04 892.69,-21.97 900.61,-21.78"/>
<polygon fill="#63b8ff" stroke="#63b8ff" points="876.42,-18.48 866.37,-21.83 876.32,-25.48 876.42,-18.48"/>
</a>
</g>
</g>
</g>
</svg>
