<?xml version="1.0" encoding="UTF-8" standalone="no"?>
<!DOCTYPE svg PUBLIC "-//W3C//DTD SVG 1.1//EN"
 "http://www.w3.org/Graphics/SVG/1.1/DTD/svg11.dtd">
<!-- Generated by graphviz version 9.0.0 (20230911.1827)
 -->
<!-- Title: dunedaq::confmodel::ResourceBase Pages: 1 -->
<svg width="1182pt" height="578pt"
 viewBox="0.00 0.00 1182.25 577.50" xmlns="http://www.w3.org/2000/svg" xmlns:xlink="http://www.w3.org/1999/xlink">
<g id="graph0" class="graph" transform="scale(1 1) rotate(0) translate(4 573.5)">
<title>dunedaq::confmodel::ResourceBase</title>
<!-- Node1 -->
<g id="Node000001" class="node">
<title>Node1</title>
<g id="a_Node000001"><a xlink:title=" ">
<polygon fill="#999999" stroke="#666666" points="414.75,-348.5 312.5,-348.5 312.5,-318 414.75,-318 414.75,-348.5"/>
<text text-anchor="start" x="320.5" y="-335" font-family="Helvetica,sans-Serif" font-size="10.00">dunedaq::confmodel</text>
<text text-anchor="middle" x="363.62" y="-323.75" font-family="Helvetica,sans-Serif" font-size="10.00">::ResourceBase</text>
</a>
</g>
</g>
<!-- Node4 -->
<g id="Node000004" class="node">
<title>Node4</title>
<g id="a_Node000004"><a xlink:href="classdunedaq_1_1appmodel_1_1FakeDataProdConf.html" target="_top" xlink:title=" ">
<polygon fill="white" stroke="#666666" points="554.5,-422.5 450.75,-422.5 450.75,-392 554.5,-392 554.5,-422.5"/>
<text text-anchor="start" x="458.75" y="-409" font-family="Helvetica,sans-Serif" font-size="10.00">dunedaq::appmodel::</text>
<text text-anchor="middle" x="502.62" y="-397.75" font-family="Helvetica,sans-Serif" font-size="10.00">FakeDataProdConf</text>
</a>
</g>
</g>
<!-- Node1&#45;&gt;Node4 -->
<g id="edge5_Node000001_Node000004" class="edge">
<title>Node1&#45;&gt;Node4</title>
<g id="a_edge5_Node000001_Node000004"><a xlink:title=" ">
<path fill="none" stroke="#63b8ff" d="M415.79,-354.26C427.23,-360.5 439.34,-367.21 450.75,-373.25 462.06,-379.24 475,-385.59 485,-391.57"/>
<polygon fill="#63b8ff" stroke="#63b8ff" points="417.75,-351.34 407.29,-349.65 414.41,-357.49 417.75,-351.34"/>
</a>
</g>
</g>
<!-- Node1&#45;&gt;Node4 -->
<g id="edge6_Node000001_Node000004" class="edge">
<title>Node1&#45;&gt;Node4</title>
<g id="a_edge6_Node000001_Node000004"><a xlink:title=" ">
<path fill="none" stroke="#63b8ff" d="M389.31,-355.41C406.41,-366.78 429.78,-380.15 450.75,-391.25 450.92,-391.34 451.1,-391.43 451.27,-391.53"/>
<polygon fill="#63b8ff" stroke="#63b8ff" points="391.48,-352.66 381.27,-349.84 387.49,-358.41 391.48,-352.66"/>
</a>
</g>
</g>
<!-- Node5 -->
<g id="Node000005" class="node">
<title>Node5</title>
<g id="a_Node000005"><a xlink:href="classdunedaq_1_1confmodel_1_1Resource.html" target="_top" xlink:title=" ">
<polygon fill="white" stroke="#666666" points="553.75,-373.5 451.5,-373.5 451.5,-343 553.75,-343 553.75,-373.5"/>
<text text-anchor="start" x="459.5" y="-360" font-family="Helvetica,sans-Serif" font-size="10.00">dunedaq::confmodel</text>
<text text-anchor="middle" x="502.62" y="-348.75" font-family="Helvetica,sans-Serif" font-size="10.00">::Resource</text>
</a>
</g>
</g>
<!-- Node1&#45;&gt;Node5 -->
<g id="edge7_Node000001_Node000005" class="edge">
<title>Node1&#45;&gt;Node5</title>
<g id="a_edge7_Node000001_Node000005"><a xlink:title=" ">
<path fill="none" stroke="#63b8ff" d="M426.43,-337.81C434.72,-339.25 443.14,-340.85 451.21,-342.51"/>
<polygon fill="#63b8ff" stroke="#63b8ff" points="427.18,-334.38 416.74,-336.2 426.03,-341.29 427.18,-334.38"/>
</a>
</g>
</g>
<!-- Node1&#45;&gt;Node5 -->
<g id="edge30_Node000001_Node000005" class="edge">
<title>Node1&#45;&gt;Node5</title>
<g id="a_edge30_Node000001_Node000005"><a xlink:title=" ">
<path fill="none" stroke="#63b8ff" d="M425.93,-351.15C434.44,-352.79 443.11,-354.31 451.4,-355.62"/>
<polygon fill="#63b8ff" stroke="#63b8ff" points="426.84,-347.77 416.35,-349.24 425.47,-354.63 426.84,-347.77"/>
</a>
</g>
</g>
<!-- Node17 -->
<g id="Node000017" class="node">
<title>Node17</title>
<g id="a_Node000017"><a xlink:href="classdunedaq_1_1confmodel_1_1ResourceSet.html" target="_top" xlink:title=" ">
<polygon fill="white" stroke="#666666" points="553.75,-250.5 451.5,-250.5 451.5,-220 553.75,-220 553.75,-250.5"/>
<text text-anchor="start" x="459.5" y="-237" font-family="Helvetica,sans-Serif" font-size="10.00">dunedaq::confmodel</text>
<text text-anchor="middle" x="502.62" y="-225.75" font-family="Helvetica,sans-Serif" font-size="10.00">::ResourceSet</text>
</a>
</g>
</g>
<!-- Node1&#45;&gt;Node17 -->
<g id="edge31_Node000001_Node000017" class="edge">
<title>Node1&#45;&gt;Node17</title>
<g id="a_edge31_Node000001_Node000017"><a xlink:title=" ">
<path fill="none" stroke="#63b8ff" d="M389.18,-310.37C412.29,-292.06 446.95,-267.14 471.68,-250.98"/>
<polygon fill="#63b8ff" stroke="#63b8ff" points="387.09,-307.55 381.52,-316.56 391.49,-312.99 387.09,-307.55"/>
</a>
</g>
</g>
<!-- Node1&#45;&gt;Node17 -->
<g id="edge58_Node000001_Node000017" class="edge">
<title>Node1&#45;&gt;Node17</title>
<g id="a_edge58_Node000001_Node000017"><a xlink:title=" ">
<path fill="none" stroke="#63b8ff" d="M403.66,-311.49C431.01,-293.09 466.09,-267.43 485.99,-250.91"/>
<polygon fill="#63b8ff" stroke="#63b8ff" points="402.01,-308.38 395.61,-316.83 405.88,-314.22 402.01,-308.38"/>
</a>
</g>
</g>
<!-- Node31 -->
<g id="Node000031" class="node">
<title>Node31</title>
<g id="a_Node000031"><a xlink:href="classdunedaq_1_1confmodel_1_1Segment.html" target="_top" xlink:title=" ">
<polygon fill="white" stroke="#666666" points="553.75,-201.5 451.5,-201.5 451.5,-171 553.75,-171 553.75,-201.5"/>
<text text-anchor="start" x="459.5" y="-188" font-family="Helvetica,sans-Serif" font-size="10.00">dunedaq::confmodel</text>
<text text-anchor="middle" x="502.62" y="-176.75" font-family="Helvetica,sans-Serif" font-size="10.00">::Segment</text>
</a>
</g>
</g>
<!-- Node1&#45;&gt;Node31 -->
<g id="edge59_Node000001_Node000031" class="edge">
<title>Node1&#45;&gt;Node31</title>
<g id="a_edge59_Node000001_Node000031"><a xlink:title=" ">
<path fill="none" stroke="#63b8ff" d="M374.53,-307.34C388.48,-278.2 416.12,-231.8 450.75,-202.25 450.9,-202.12 451.05,-201.99 451.2,-201.87"/>
<polygon fill="#63b8ff" stroke="#63b8ff" points="371.45,-305.67 370.5,-316.22 377.82,-308.56 371.45,-305.67"/>
</a>
</g>
</g>
<!-- Node1&#45;&gt;Node31 -->
<g id="edge60_Node000001_Node000031" class="edge">
<title>Node1&#45;&gt;Node31</title>
<g id="a_edge60_Node000001_Node000031"><a xlink:title=" ">
<path fill="none" stroke="#63b8ff" d="M381.59,-307.81C396.81,-282.85 421.24,-245.43 450.75,-220.25 459.51,-212.78 470.89,-206.91 480.66,-201.89"/>
<polygon fill="#63b8ff" stroke="#63b8ff" points="378.6,-306 376.43,-316.37 384.59,-309.61 378.6,-306"/>
</a>
</g>
</g>
<!-- Node2 -->
<g id="Node000002" class="node">
<title>Node2</title>
<g id="a_Node000002"><a xlink:href="classdunedaq_1_1confmodel_1_1Component.html" target="_top" xlink:title=" ">
<polygon fill="white" stroke="#666666" points="276.5,-348.5 174.25,-348.5 174.25,-318 276.5,-318 276.5,-348.5"/>
<text text-anchor="start" x="182.25" y="-335" font-family="Helvetica,sans-Serif" font-size="10.00">dunedaq::confmodel</text>
<text text-anchor="middle" x="225.38" y="-323.75" font-family="Helvetica,sans-Serif" font-size="10.00">::Component</text>
</a>
</g>
</g>
<!-- Node2&#45;&gt;Node1 -->
<g id="edge1_Node000001_Node000002" class="edge">
<title>Node2&#45;&gt;Node1</title>
<g id="a_edge1_Node000001_Node000002"><a xlink:title=" ">
<path fill="none" stroke="#63b8ff" d="M287.97,-326.53C296.02,-326.46 304.19,-326.52 312.03,-326.7"/>
<polygon fill="#63b8ff" stroke="#63b8ff" points="288.18,-323.02 278.24,-326.68 288.29,-330.02 288.18,-323.02"/>
</a>
</g>
</g>
<!-- Node2&#45;&gt;Node1 -->
<g id="edge4_Node000001_Node000002" class="edge">
<title>Node2&#45;&gt;Node1</title>
<g id="a_edge4_Node000001_Node000002"><a xlink:title=" ">
<path fill="none" stroke="#63b8ff" d="M287.97,-339.97C296.02,-340.04 304.19,-339.98 312.03,-339.8"/>
<polygon fill="#63b8ff" stroke="#63b8ff" points="288.29,-336.48 278.24,-339.82 288.18,-343.48 288.29,-336.48"/>
</a>
</g>
</g>
<!-- Node3 -->
<g id="Node000003" class="node">
<title>Node3</title>
<g id="a_Node000003"><a xlink:href="classdunedaq_1_1conffwk_1_1DalObject.html" target="_top" xlink:title="The base class for any generated DAL object.">
<polygon fill="white" stroke="#666666" points="138.25,-342.88 0,-342.88 0,-323.62 138.25,-323.62 138.25,-342.88"/>
<text text-anchor="middle" x="69.12" y="-329.38" font-family="Helvetica,sans-Serif" font-size="10.00">dunedaq::conffwk::DalObject</text>
</a>
</g>
</g>
<!-- Node3&#45;&gt;Node2 -->
<g id="edge2_Node000002_Node000003" class="edge">
<title>Node3&#45;&gt;Node2</title>
<g id="a_edge2_Node000002_Node000003"><a xlink:title=" ">
<path fill="none" stroke="#63b8ff" d="M150.17,-326.5C158.3,-326.53 166.39,-326.65 174.08,-326.88"/>
<polygon fill="#63b8ff" stroke="#63b8ff" points="150.18,-323 140.19,-326.53 150.2,-330 150.18,-323"/>
</a>
</g>
</g>
<!-- Node3&#45;&gt;Node2 -->
<g id="edge3_Node000002_Node000003" class="edge">
<title>Node3&#45;&gt;Node2</title>
<g id="a_edge3_Node000002_Node000003"><a xlink:title=" ">
<path fill="none" stroke="#63b8ff" d="M150.17,-340C158.3,-339.97 166.39,-339.85 174.08,-339.62"/>
<polygon fill="#63b8ff" stroke="#63b8ff" points="150.2,-336.5 140.19,-339.97 150.18,-343.5 150.2,-336.5"/>
</a>
</g>
</g>
<!-- Node6 -->
<g id="Node000006" class="node">
<title>Node6</title>
<g id="a_Node000006"><a xlink:href="classdunedaq_1_1appmodel_1_1DFApplication.html" target="_top" xlink:title=" ">
<polygon fill="white" stroke="#666666" points="709.25,-569.5 605.5,-569.5 605.5,-539 709.25,-539 709.25,-569.5"/>
<text text-anchor="start" x="613.5" y="-556" font-family="Helvetica,sans-Serif" font-size="10.00">dunedaq::appmodel::</text>
<text text-anchor="middle" x="657.38" y="-544.75" font-family="Helvetica,sans-Serif" font-size="10.00">DFApplication</text>
</a>
</g>
</g>
<!-- Node5&#45;&gt;Node6 -->
<g id="edge8_Node000005_Node000006" class="edge">
<title>Node5&#45;&gt;Node6</title>
<g id="a_edge8_Node000005_Node000006"><a xlink:title=" ">
<path fill="none" stroke="#63b8ff" d="M560.64,-382.94C590.85,-431.47 548.78,-473.15 590.5,-520.25 598.04,-528.77 608.8,-534.39 619.44,-538.54"/>
<polygon fill="#63b8ff" stroke="#63b8ff" points="563.66,-381.14 555,-375.03 557.96,-385.2 563.66,-381.14"/>
</a>
</g>
</g>
<!-- Node5&#45;&gt;Node6 -->
<g id="edge9_Node000005_Node000006" class="edge">
<title>Node5&#45;&gt;Node6</title>
<g id="a_edge9_Node000005_Node000006"><a xlink:title=" ">
<path fill="none" stroke="#63b8ff" d="M538.87,-379.31C544.76,-382.84 550.31,-387.04 554.5,-392.25 596.41,-444.31 546.19,-488.22 590.5,-538.25 594.64,-542.92 599.74,-546.72 605.26,-549.74"/>
<polygon fill="#63b8ff" stroke="#63b8ff" points="540.62,-376.27 530.15,-374.65 537.32,-382.45 540.62,-376.27"/>
</a>
</g>
</g>
<!-- Node7 -->
<g id="Node000007" class="node">
<title>Node7</title>
<g id="a_Node000007"><a xlink:href="classdunedaq_1_1appmodel_1_1DTSHSIApplication.html" target="_top" xlink:title=" ">
<polygon fill="white" stroke="#666666" points="709.25,-520.5 605.5,-520.5 605.5,-490 709.25,-490 709.25,-520.5"/>
<text text-anchor="start" x="613.5" y="-507" font-family="Helvetica,sans-Serif" font-size="10.00">dunedaq::appmodel::</text>
<text text-anchor="middle" x="657.38" y="-495.75" font-family="Helvetica,sans-Serif" font-size="10.00">DTSHSIApplication</text>
</a>
</g>
</g>
<!-- Node5&#45;&gt;Node7 -->
<g id="edge10_Node000005_Node000007" class="edge">
<title>Node5&#45;&gt;Node7</title>
<g id="a_edge10_Node000005_Node000007"><a xlink:title=" ">
<path fill="none" stroke="#63b8ff" d="M560.93,-382.63C581.09,-413.59 560.89,-441.42 590.5,-471.25 598.86,-479.67 610.34,-485.3 621.38,-489.53"/>
<polygon fill="#63b8ff" stroke="#63b8ff" points="563.92,-380.77 555.03,-375.01 558.38,-385.06 563.92,-380.77"/>
</a>
</g>
</g>
<!-- Node5&#45;&gt;Node7 -->
<g id="edge11_Node000005_Node000007" class="edge">
<title>Node5&#45;&gt;Node7</title>
<g id="a_edge11_Node000005_Node000007"><a xlink:title=" ">
<path fill="none" stroke="#63b8ff" d="M537.45,-379.15C543.73,-382.77 549.78,-387.03 554.5,-392.25 585.33,-426.37 558.1,-456.62 590.5,-489.25 594.72,-493.5 599.74,-497.05 605.1,-499.93"/>
<polygon fill="#63b8ff" stroke="#63b8ff" points="539.39,-376.22 528.91,-374.65 536.13,-382.41 539.39,-376.22"/>
</a>
</g>
</g>
<!-- Node8 -->
<g id="Node000008" class="node">
<title>Node8</title>
<g id="a_Node000008"><a xlink:href="classdunedaq_1_1appmodel_1_1FakeHSIApplication.html" target="_top" xlink:title=" ">
<polygon fill="white" stroke="#666666" points="709.25,-471.5 605.5,-471.5 605.5,-441 709.25,-441 709.25,-471.5"/>
<text text-anchor="start" x="613.5" y="-458" font-family="Helvetica,sans-Serif" font-size="10.00">dunedaq::appmodel::</text>
<text text-anchor="middle" x="657.38" y="-446.75" font-family="Helvetica,sans-Serif" font-size="10.00">FakeHSIApplication</text>
</a>
</g>
</g>
<!-- Node5&#45;&gt;Node8 -->
<g id="edge12_Node000005_Node000008" class="edge">
<title>Node5&#45;&gt;Node8</title>
<g id="a_edge12_Node000005_Node000008"><a xlink:title=" ">
<path fill="none" stroke="#63b8ff" d="M562.12,-381.86C573.87,-395.96 572.52,-408.72 590.5,-422.25 601.15,-430.27 614.68,-435.99 626.7,-440.61"/>
<polygon fill="#63b8ff" stroke="#63b8ff" points="564.69,-379.48 555.12,-374.94 559.77,-384.46 564.69,-379.48"/>
</a>
</g>
</g>
<!-- Node5&#45;&gt;Node8 -->
<g id="edge13_Node000005_Node000008" class="edge">
<title>Node5&#45;&gt;Node8</title>
<g id="a_edge13_Node000005_Node000008"><a xlink:title=" ">
<path fill="none" stroke="#63b8ff" d="M534.3,-379.16C541.33,-382.98 548.49,-387.27 554.5,-392.25 575.03,-409.27 569.19,-424.22 590.5,-440.25 595,-443.63 600,-446.61 605.19,-449.16"/>
<polygon fill="#63b8ff" stroke="#63b8ff" points="536.06,-376.13 525.58,-374.58 532.8,-382.33 536.06,-376.13"/>
</a>
</g>
</g>
<!-- Node9 -->
<g id="Node000009" class="node">
<title>Node9</title>
<g id="a_Node000009"><a xlink:href="classdunedaq_1_1appmodel_1_1HSIEventToTCApplication.html" target="_top" xlink:title=" ">
<polygon fill="white" stroke="#666666" points="722.38,-422.5 592.38,-422.5 592.38,-392 722.38,-392 722.38,-422.5"/>
<text text-anchor="start" x="600.38" y="-409" font-family="Helvetica,sans-Serif" font-size="10.00">dunedaq::appmodel::</text>
<text text-anchor="middle" x="657.38" y="-397.75" font-family="Helvetica,sans-Serif" font-size="10.00">HSIEventToTCApplication</text>
</a>
</g>
</g>
<!-- Node5&#45;&gt;Node9 -->
<g id="edge14_Node000005_Node000009" class="edge">
<title>Node5&#45;&gt;Node9</title>
<g id="a_edge14_Node000005_Node000009"><a xlink:title=" ">
<path fill="none" stroke="#63b8ff" d="M565.01,-371.31C585.65,-377.6 607.81,-385.07 625.14,-391.66"/>
<polygon fill="#63b8ff" stroke="#63b8ff" points="566.1,-367.98 555.51,-368.47 564.09,-374.69 566.1,-367.98"/>
</a>
</g>
</g>
<!-- Node5&#45;&gt;Node9 -->
<g id="edge15_Node000005_Node000009" class="edge">
<title>Node5&#45;&gt;Node9</title>
<g id="a_edge15_Node000005_Node000009"><a xlink:title=" ">
<path fill="none" stroke="#63b8ff" d="M545.77,-377.88C560.06,-383.04 576.38,-388.46 592,-393.28"/>
<polygon fill="#63b8ff" stroke="#63b8ff" points="547.29,-374.71 536.69,-374.52 544.86,-381.27 547.29,-374.71"/>
</a>
</g>
</g>
<!-- Node10 -->
<g id="Node000010" class="node">
<title>Node10</title>
<g id="a_Node000010"><a xlink:href="classdunedaq_1_1appmodel_1_1TPStreamWriterApplication.html" target="_top" xlink:title=" ">
<polygon fill="white" stroke="#666666" points="724.25,-373.5 590.5,-373.5 590.5,-343 724.25,-343 724.25,-373.5"/>
<text text-anchor="start" x="598.5" y="-360" font-family="Helvetica,sans-Serif" font-size="10.00">dunedaq::appmodel::</text>
<text text-anchor="middle" x="657.38" y="-348.75" font-family="Helvetica,sans-Serif" font-size="10.00">TPStreamWriterApplication</text>
</a>
</g>
</g>
<!-- Node5&#45;&gt;Node10 -->
<g id="edge16_Node000005_Node000010" class="edge">
<title>Node5&#45;&gt;Node10</title>
<g id="a_edge16_Node000005_Node000010"><a xlink:title=" ">
<path fill="none" stroke="#63b8ff" d="M565.41,-351.61C573.57,-351.49 581.96,-351.47 590.19,-351.55"/>
<polygon fill="#63b8ff" stroke="#63b8ff" points="565.5,-348.11 555.58,-351.83 565.65,-355.11 565.5,-348.11"/>
</a>
</g>
</g>
<!-- Node5&#45;&gt;Node10 -->
<g id="edge17_Node000005_Node000010" class="edge">
<title>Node5&#45;&gt;Node10</title>
<g id="a_edge17_Node000005_Node000010"><a xlink:title=" ">
<path fill="none" stroke="#63b8ff" d="M565.41,-364.89C573.57,-365.01 581.96,-365.03 590.19,-364.95"/>
<polygon fill="#63b8ff" stroke="#63b8ff" points="565.65,-361.39 555.58,-364.67 565.5,-368.39 565.65,-361.39"/>
</a>
</g>
</g>
<!-- Node11 -->
<g id="Node000011" class="node">
<title>Node11</title>
<g id="a_Node000011"><a xlink:href="classdunedaq_1_1confmodel_1_1DetDataReceiver.html" target="_top" xlink:title=" ">
<polygon fill="white" stroke="#666666" points="708.5,-324.5 606.25,-324.5 606.25,-294 708.5,-294 708.5,-324.5"/>
<text text-anchor="start" x="614.25" y="-311" font-family="Helvetica,sans-Serif" font-size="10.00">dunedaq::confmodel</text>
<text text-anchor="middle" x="657.38" y="-299.75" font-family="Helvetica,sans-Serif" font-size="10.00">::DetDataReceiver</text>
</a>
</g>
</g>
<!-- Node5&#45;&gt;Node11 -->
<g id="edge18_Node000005_Node000011" class="edge">
<title>Node5&#45;&gt;Node11</title>
<g id="a_edge18_Node000005_Node000011"><a xlink:title=" ">
<path fill="none" stroke="#63b8ff" d="M546.04,-338.53C564.57,-331.84 586.45,-324.73 605.82,-319.07"/>
<polygon fill="#63b8ff" stroke="#63b8ff" points="544.86,-335.23 536.69,-341.98 547.29,-341.8 544.86,-335.23"/>
</a>
</g>
</g>
<!-- Node5&#45;&gt;Node11 -->
<g id="edge27_Node000005_Node000011" class="edge">
<title>Node5&#45;&gt;Node11</title>
<g id="a_edge27_Node000005_Node000011"><a xlink:title=" ">
<path fill="none" stroke="#63b8ff" d="M565.01,-345.19C585.65,-338.9 607.81,-331.43 625.14,-324.84"/>
<polygon fill="#63b8ff" stroke="#63b8ff" points="564.09,-341.81 555.51,-348.03 566.1,-348.52 564.09,-341.81"/>
</a>
</g>
</g>
<!-- Node16 -->
<g id="Node000016" class="node">
<title>Node16</title>
<g id="a_Node000016"><a xlink:href="classdunedaq_1_1confmodel_1_1DetectorStream.html" target="_top" xlink:title=" ">
<polygon fill="white" stroke="#666666" points="708.5,-275.5 606.25,-275.5 606.25,-245 708.5,-245 708.5,-275.5"/>
<text text-anchor="start" x="614.25" y="-262" font-family="Helvetica,sans-Serif" font-size="10.00">dunedaq::confmodel</text>
<text text-anchor="middle" x="657.38" y="-250.75" font-family="Helvetica,sans-Serif" font-size="10.00">::DetectorStream</text>
</a>
</g>
</g>
<!-- Node5&#45;&gt;Node16 -->
<g id="edge28_Node000005_Node000016" class="edge">
<title>Node5&#45;&gt;Node16</title>
<g id="a_edge28_Node000005_Node000016"><a xlink:title=" ">
<path fill="none" stroke="#63b8ff" d="M520.5,-334.13C537.1,-315.9 563.78,-291.93 590.5,-276.25 595.35,-273.4 600.59,-270.77 605.91,-268.42"/>
<polygon fill="#63b8ff" stroke="#63b8ff" points="518.09,-331.57 514.19,-341.42 523.39,-336.15 518.09,-331.57"/>
</a>
</g>
</g>
<!-- Node5&#45;&gt;Node16 -->
<g id="edge29_Node000005_Node000016" class="edge">
<title>Node5&#45;&gt;Node16</title>
<g id="a_edge29_Node000005_Node000016"><a xlink:title=" ">
<path fill="none" stroke="#63b8ff" d="M535.39,-335.24C551.04,-321.94 570.76,-305.84 590.5,-294.25 602.95,-286.94 617.92,-281.06 630.44,-275.96"/>
<polygon fill="#63b8ff" stroke="#63b8ff" points="533.16,-332.55 527.83,-341.71 537.7,-337.87 533.16,-332.55"/>
</a>
</g>
</g>
<!-- Node12 -->
<g id="Node000012" class="node">
<title>Node12</title>
<g id="a_Node000012"><a xlink:href="classdunedaq_1_1appmodel_1_1FakeDataReceiver.html" target="_top" xlink:title=" ">
<polygon fill="white" stroke="#666666" points="879.38,-422.5 775.62,-422.5 775.62,-392 879.38,-392 879.38,-422.5"/>
<text text-anchor="start" x="783.62" y="-409" font-family="Helvetica,sans-Serif" font-size="10.00">dunedaq::appmodel::</text>
<text text-anchor="middle" x="827.5" y="-397.75" font-family="Helvetica,sans-Serif" font-size="10.00">FakeDataReceiver</text>
</a>
</g>
</g>
<!-- Node11&#45;&gt;Node12 -->
<g id="edge19_Node000011_Node000012" class="edge">
<title>Node11&#45;&gt;Node12</title>
<g id="a_edge19_Node000011_Node000012"><a xlink:title=" ">
<path fill="none" stroke="#63b8ff" d="M718.76,-321.47C720.65,-322.67 722.49,-323.93 724.25,-325.25 745.56,-341.28 738.93,-357.24 760.25,-373.25 770.87,-381.22 784.32,-386.92 796.32,-391.51"/>
<polygon fill="#63b8ff" stroke="#63b8ff" points="720.65,-318.51 710.2,-316.74 717.26,-324.64 720.65,-318.51"/>
</a>
</g>
</g>
<!-- Node11&#45;&gt;Node12 -->
<g id="edge20_Node000011_Node000012" class="edge">
<title>Node11&#45;&gt;Node12</title>
<g id="a_edge20_Node000011_Node000012"><a xlink:title=" ">
<path fill="none" stroke="#63b8ff" d="M698.45,-329.08C707.45,-332.91 716.59,-337.49 724.25,-343.25 745.56,-359.28 738.93,-375.24 760.25,-391.25 764.87,-394.72 770.03,-397.76 775.37,-400.35"/>
<polygon fill="#63b8ff" stroke="#63b8ff" points="700.04,-325.94 689.46,-325.45 697.43,-332.44 700.04,-325.94"/>
</a>
</g>
</g>
<!-- Node13 -->
<g id="Node000013" class="node">
<title>Node13</title>
<g id="a_Node000013"><a xlink:href="classdunedaq_1_1appmodel_1_1FelixInterface.html" target="_top" xlink:title=" ">
<polygon fill="white" stroke="#666666" points="879.38,-373.5 775.62,-373.5 775.62,-343 879.38,-343 879.38,-373.5"/>
<text text-anchor="start" x="783.62" y="-360" font-family="Helvetica,sans-Serif" font-size="10.00">dunedaq::appmodel::</text>
<text text-anchor="middle" x="827.5" y="-348.75" font-family="Helvetica,sans-Serif" font-size="10.00">FelixInterface</text>
</a>
</g>
</g>
<!-- Node11&#45;&gt;Node13 -->
<g id="edge21_Node000011_Node000013" class="edge">
<title>Node11&#45;&gt;Node13</title>
<g id="a_edge21_Node000011_Node000013"><a xlink:title=" ">
<path fill="none" stroke="#63b8ff" d="M719.75,-320.61C744.03,-327.2 771.04,-335.38 791.82,-342.56"/>
<polygon fill="#63b8ff" stroke="#63b8ff" points="720.84,-317.28 710.28,-318.1 719.05,-324.05 720.84,-317.28"/>
</a>
</g>
</g>
<!-- Node11&#45;&gt;Node13 -->
<g id="edge22_Node000011_Node000013" class="edge">
<title>Node11&#45;&gt;Node13</title>
<g id="a_edge22_Node000011_Node000013"><a xlink:title=" ">
<path fill="none" stroke="#63b8ff" d="M703.98,-328.62C726.07,-335.89 752.67,-343.7 775.43,-349.63"/>
<polygon fill="#63b8ff" stroke="#63b8ff" points="705.24,-325.35 694.65,-325.48 703.01,-331.99 705.24,-325.35"/>
</a>
</g>
</g>
<!-- Node14 -->
<g id="Node000014" class="node">
<title>Node14</title>
<g id="a_Node000014"><a xlink:href="classdunedaq_1_1appmodel_1_1NWDetDataReceiver.html" target="_top" xlink:title=" ">
<polygon fill="white" stroke="#666666" points="880.5,-324.5 774.5,-324.5 774.5,-294 880.5,-294 880.5,-324.5"/>
<text text-anchor="start" x="782.5" y="-311" font-family="Helvetica,sans-Serif" font-size="10.00">dunedaq::appmodel::</text>
<text text-anchor="middle" x="827.5" y="-299.75" font-family="Helvetica,sans-Serif" font-size="10.00">NWDetDataReceiver</text>
</a>
</g>
</g>
<!-- Node11&#45;&gt;Node14 -->
<g id="edge23_Node000011_Node000014" class="edge">
<title>Node11&#45;&gt;Node14</title>
<g id="a_edge23_Node000011_Node000014"><a xlink:title=" ">
<path fill="none" stroke="#63b8ff" d="M720.2,-302.71C737.89,-302.37 756.99,-302.44 774.05,-302.94"/>
<polygon fill="#63b8ff" stroke="#63b8ff" points="720.24,-299.21 710.33,-302.97 720.42,-306.21 720.24,-299.21"/>
</a>
</g>
</g>
<!-- Node11&#45;&gt;Node14 -->
<g id="edge26_Node000011_Node000014" class="edge">
<title>Node11&#45;&gt;Node14</title>
<g id="a_edge26_Node000011_Node000014"><a xlink:title=" ">
<path fill="none" stroke="#63b8ff" d="M720.2,-315.79C737.89,-316.13 756.99,-316.06 774.05,-315.56"/>
<polygon fill="#63b8ff" stroke="#63b8ff" points="720.42,-312.29 710.33,-315.53 720.24,-319.29 720.42,-312.29"/>
</a>
</g>
</g>
<!-- Node15 -->
<g id="Node000015" class="node">
<title>Node15</title>
<g id="a_Node000015"><a xlink:href="classdunedaq_1_1appmodel_1_1DPDKReceiver.html" target="_top" xlink:title=" ">
<polygon fill="white" stroke="#666666" points="1034.5,-324.5 930.75,-324.5 930.75,-294 1034.5,-294 1034.5,-324.5"/>
<text text-anchor="start" x="938.75" y="-311" font-family="Helvetica,sans-Serif" font-size="10.00">dunedaq::appmodel::</text>
<text text-anchor="middle" x="982.62" y="-299.75" font-family="Helvetica,sans-Serif" font-size="10.00">DPDKReceiver</text>
</a>
</g>
</g>
<!-- Node14&#45;&gt;Node15 -->
<g id="edge24_Node000014_Node000015" class="edge">
<title>Node14&#45;&gt;Node15</title>
<g id="a_edge24_Node000014_Node000015"><a xlink:title=" ">
<path fill="none" stroke="#63b8ff" d="M892.26,-302.58C904.96,-302.42 918.15,-302.5 930.37,-302.84"/>
<polygon fill="#63b8ff" stroke="#63b8ff" points="892.21,-299.08 882.28,-302.78 892.35,-306.08 892.21,-299.08"/>
</a>
</g>
</g>
<!-- Node14&#45;&gt;Node15 -->
<g id="edge25_Node000014_Node000015" class="edge">
<title>Node14&#45;&gt;Node15</title>
<g id="a_edge25_Node000014_Node000015"><a xlink:title=" ">
<path fill="none" stroke="#63b8ff" d="M892.26,-315.92C904.96,-316.08 918.15,-316 930.37,-315.66"/>
<polygon fill="#63b8ff" stroke="#63b8ff" points="892.35,-312.42 882.28,-315.72 892.21,-319.42 892.35,-312.42"/>
</a>
</g>
</g>
<!-- Node18 -->
<g id="Node000018" class="node">
<title>Node18</title>
<g id="a_Node000018"><a xlink:href="classdunedaq_1_1confmodel_1_1ResourceSetAND.html" target="_top" xlink:title=" ">
<polygon fill="white" stroke="#666666" points="708.5,-201.5 606.25,-201.5 606.25,-171 708.5,-171 708.5,-201.5"/>
<text text-anchor="start" x="614.25" y="-188" font-family="Helvetica,sans-Serif" font-size="10.00">dunedaq::confmodel</text>
<text text-anchor="middle" x="657.38" y="-176.75" font-family="Helvetica,sans-Serif" font-size="10.00">::ResourceSetAND</text>
</a>
</g>
</g>
<!-- Node17&#45;&gt;Node18 -->
<g id="edge32_Node000017_Node000018" class="edge">
<title>Node17&#45;&gt;Node18</title>
<g id="a_edge32_Node000017_Node000018"><a xlink:title=" ">
<path fill="none" stroke="#63b8ff" d="M546.04,-215.53C564.57,-208.84 586.45,-201.73 605.82,-196.07"/>
<polygon fill="#63b8ff" stroke="#63b8ff" points="544.86,-212.23 536.69,-218.98 547.29,-218.8 544.86,-212.23"/>
</a>
</g>
</g>
<!-- Node17&#45;&gt;Node18 -->
<g id="edge53_Node000017_Node000018" class="edge">
<title>Node17&#45;&gt;Node18</title>
<g id="a_edge53_Node000017_Node000018"><a xlink:title=" ">
<path fill="none" stroke="#63b8ff" d="M565.01,-222.19C585.65,-215.9 607.81,-208.43 625.14,-201.84"/>
<polygon fill="#63b8ff" stroke="#63b8ff" points="564.09,-218.81 555.51,-225.03 566.1,-225.52 564.09,-218.81"/>
</a>
</g>
</g>
<!-- Node29 -->
<g id="Node000029" class="node">
<title>Node29</title>
<g id="a_Node000029"><a xlink:href="classdunedaq_1_1confmodel_1_1ResourceSetOR.html" target="_top" xlink:title=" ">
<polygon fill="white" stroke="#666666" points="708.5,-103.5 606.25,-103.5 606.25,-73 708.5,-73 708.5,-103.5"/>
<text text-anchor="start" x="614.25" y="-90" font-family="Helvetica,sans-Serif" font-size="10.00">dunedaq::confmodel</text>
<text text-anchor="middle" x="657.38" y="-78.75" font-family="Helvetica,sans-Serif" font-size="10.00">::ResourceSetOR</text>
</a>
</g>
</g>
<!-- Node17&#45;&gt;Node29 -->
<g id="edge54_Node000017_Node000029" class="edge">
<title>Node17&#45;&gt;Node29</title>
<g id="a_edge54_Node000017_Node000029"><a xlink:title=" ">
<path fill="none" stroke="#63b8ff" d="M534.3,-214.34C541.33,-210.52 548.49,-206.23 554.5,-201.25 575.03,-184.23 573.62,-173.89 590.5,-153.25 604.65,-135.94 621.42,-117.13 634.5,-103.98"/>
<polygon fill="#63b8ff" stroke="#63b8ff" points="532.8,-211.17 525.58,-218.92 536.06,-217.37 532.8,-211.17"/>
</a>
</g>
</g>
<!-- Node17&#45;&gt;Node29 -->
<g id="edge57_Node000017_Node000029" class="edge">
<title>Node17&#45;&gt;Node29</title>
<g id="a_edge57_Node000017_Node000029"><a xlink:title=" ">
<path fill="none" stroke="#63b8ff" d="M562.4,-211.92C575.04,-198.75 576.26,-188.67 590.5,-171.25 609.99,-147.42 634.43,-120.73 647.37,-103.76"/>
<polygon fill="#63b8ff" stroke="#63b8ff" points="560.14,-209.25 555.16,-218.6 564.88,-214.39 560.14,-209.25"/>
</a>
</g>
</g>
<!-- Node19 -->
<g id="Node000019" class="node">
<title>Node19</title>
<g id="a_Node000019"><a xlink:href="classdunedaq_1_1appmodel_1_1FakeDataApplication.html" target="_top" xlink:title=" ">
<polygon fill="white" stroke="#666666" points="880.5,-275.5 774.5,-275.5 774.5,-245 880.5,-245 880.5,-275.5"/>
<text text-anchor="start" x="782.5" y="-262" font-family="Helvetica,sans-Serif" font-size="10.00">dunedaq::appmodel::</text>
<text text-anchor="middle" x="827.5" y="-250.75" font-family="Helvetica,sans-Serif" font-size="10.00">FakeDataApplication</text>
</a>
</g>
</g>
<!-- Node18&#45;&gt;Node19 -->
<g id="edge33_Node000018_Node000019" class="edge">
<title>Node18&#45;&gt;Node19</title>
<g id="a_edge33_Node000018_Node000019"><a xlink:title=" ">
<path fill="none" stroke="#63b8ff" d="M716.55,-206.58C730.74,-213.1 745.95,-220.13 760.25,-226.25 774.72,-232.44 791.28,-238.69 804.22,-244.52"/>
<polygon fill="#63b8ff" stroke="#63b8ff" points="718.36,-203.55 707.81,-202.57 715.44,-209.92 718.36,-203.55"/>
</a>
</g>
</g>
<!-- Node18&#45;&gt;Node19 -->
<g id="edge34_Node000018_Node000019" class="edge">
<title>Node18&#45;&gt;Node19</title>
<g id="a_edge34_Node000018_Node000019"><a xlink:title=" ">
<path fill="none" stroke="#63b8ff" d="M686.02,-207.84C706.35,-219.53 734.75,-233.33 760.25,-244.25 764.77,-246.19 769.5,-248.13 774.25,-249.99"/>
<polygon fill="#63b8ff" stroke="#63b8ff" points="687.87,-204.87 677.49,-202.73 684.27,-210.87 687.87,-204.87"/>
</a>
</g>
</g>
<!-- Node20 -->
<g id="Node000020" class="node">
<title>Node20</title>
<g id="a_Node000020"><a xlink:href="classdunedaq_1_1appmodel_1_1ReadoutApplication.html" target="_top" xlink:title=" ">
<polygon fill="white" stroke="#666666" points="879.38,-226.5 775.62,-226.5 775.62,-196 879.38,-196 879.38,-226.5"/>
<text text-anchor="start" x="783.62" y="-213" font-family="Helvetica,sans-Serif" font-size="10.00">dunedaq::appmodel::</text>
<text text-anchor="middle" x="827.5" y="-201.75" font-family="Helvetica,sans-Serif" font-size="10.00">ReadoutApplication</text>
</a>
</g>
</g>
<!-- Node18&#45;&gt;Node20 -->
<g id="edge35_Node000018_Node000020" class="edge">
<title>Node18&#45;&gt;Node20</title>
<g id="a_edge35_Node000018_Node000020"><a xlink:title=" ">
<path fill="none" stroke="#63b8ff" d="M720.16,-188.9C738.26,-191.24 757.85,-194.24 775.22,-197.35"/>
<polygon fill="#63b8ff" stroke="#63b8ff" points="720.67,-185.44 710.32,-187.69 719.82,-192.39 720.67,-185.44"/>
</a>
</g>
</g>
<!-- Node18&#45;&gt;Node20 -->
<g id="edge36_Node000018_Node000020" class="edge">
<title>Node18&#45;&gt;Node20</title>
<g id="a_edge36_Node000018_Node000020"><a xlink:title=" ">
<path fill="none" stroke="#63b8ff" d="M719.9,-201.93C738.08,-204.99 757.77,-207.84 775.22,-209.9"/>
<polygon fill="#63b8ff" stroke="#63b8ff" points="720.76,-198.53 710.31,-200.26 719.56,-205.42 720.76,-198.53"/>
</a>
</g>
</g>
<!-- Node21 -->
<g id="Node000021" class="node">
<title>Node21</title>
<g id="a_Node000021"><a xlink:href="classdunedaq_1_1appmodel_1_1TriggerApplication.html" target="_top" xlink:title=" ">
<polygon fill="white" stroke="#666666" points="879.38,-177.5 775.62,-177.5 775.62,-147 879.38,-147 879.38,-177.5"/>
<text text-anchor="start" x="783.62" y="-164" font-family="Helvetica,sans-Serif" font-size="10.00">dunedaq::appmodel::</text>
<text text-anchor="middle" x="827.5" y="-152.75" font-family="Helvetica,sans-Serif" font-size="10.00">TriggerApplication</text>
</a>
</g>
</g>
<!-- Node18&#45;&gt;Node21 -->
<g id="edge37_Node000018_Node000021" class="edge">
<title>Node18&#45;&gt;Node21</title>
<g id="a_edge37_Node000018_Node000021"><a xlink:title=" ">
<path fill="none" stroke="#63b8ff" d="M720.16,-170.9C738.26,-167.95 757.85,-165.25 775.22,-163.3"/>
<polygon fill="#63b8ff" stroke="#63b8ff" points="719.59,-167.44 710.31,-172.55 720.75,-174.34 719.59,-167.44"/>
</a>
</g>
</g>
<!-- Node18&#45;&gt;Node21 -->
<g id="edge40_Node000018_Node000021" class="edge">
<title>Node18&#45;&gt;Node21</title>
<g id="a_edge40_Node000018_Node000021"><a xlink:title=" ">
<path fill="none" stroke="#63b8ff" d="M720.16,-183.96C738.26,-181.74 757.85,-178.85 775.22,-175.84"/>
<polygon fill="#63b8ff" stroke="#63b8ff" points="719.85,-180.48 710.32,-185.12 720.66,-187.43 719.85,-180.48"/>
</a>
</g>
</g>
<!-- Node23 -->
<g id="Node000023" class="node">
<title>Node23</title>
<g id="a_Node000023"><a xlink:href="classdunedaq_1_1appmodel_1_1WIECApplication.html" target="_top" xlink:title=" ">
<polygon fill="white" stroke="#666666" points="879.38,-128.5 775.62,-128.5 775.62,-98 879.38,-98 879.38,-128.5"/>
<text text-anchor="start" x="783.62" y="-115" font-family="Helvetica,sans-Serif" font-size="10.00">dunedaq::appmodel::</text>
<text text-anchor="middle" x="827.5" y="-103.75" font-family="Helvetica,sans-Serif" font-size="10.00">WIECApplication</text>
</a>
</g>
</g>
<!-- Node18&#45;&gt;Node23 -->
<g id="edge41_Node000018_Node000023" class="edge">
<title>Node18&#45;&gt;Node23</title>
<g id="a_edge41_Node000018_Node000023"><a xlink:title=" ">
<path fill="none" stroke="#63b8ff" d="M686.42,-164.79C706.74,-153.38 734.95,-139.96 760.25,-129.25 765.12,-127.19 770.22,-125.11 775.34,-123.13"/>
<polygon fill="#63b8ff" stroke="#63b8ff" points="684.75,-161.71 677.89,-169.78 688.29,-167.75 684.75,-161.71"/>
</a>
</g>
</g>
<!-- Node18&#45;&gt;Node23 -->
<g id="edge42_Node000018_Node000023" class="edge">
<title>Node18&#45;&gt;Node23</title>
<g id="a_edge42_Node000018_Node000023"><a xlink:title=" ">
<path fill="none" stroke="#63b8ff" d="M718.08,-165.91C731.84,-159.72 746.48,-153.08 760.25,-147.25 774.85,-141.07 791.56,-134.77 804.55,-128.89"/>
<polygon fill="#63b8ff" stroke="#63b8ff" points="716.83,-162.63 709.14,-169.92 719.7,-169.02 716.83,-162.63"/>
</a>
</g>
</g>
<!-- Node24 -->
<g id="Node000024" class="node">
<title>Node24</title>
<g id="a_Node000024"><a xlink:href="classdunedaq_1_1confmodel_1_1DetDataSender.html" target="_top" xlink:title=" ">
<polygon fill="white" stroke="#666666" points="878.62,-79.5 776.38,-79.5 776.38,-49 878.62,-49 878.62,-79.5"/>
<text text-anchor="start" x="784.38" y="-66" font-family="Helvetica,sans-Serif" font-size="10.00">dunedaq::confmodel</text>
<text text-anchor="middle" x="827.5" y="-54.75" font-family="Helvetica,sans-Serif" font-size="10.00">::DetDataSender</text>
</a>
</g>
</g>
<!-- Node18&#45;&gt;Node24 -->
<g id="edge43_Node000018_Node000024" class="edge">
<title>Node18&#45;&gt;Node24</title>
<g id="a_edge43_Node000018_Node000024"><a xlink:title=" ">
<path fill="none" stroke="#63b8ff" d="M673.65,-161.34C692.2,-137.34 725.35,-102.17 760.25,-80.25 765.14,-77.18 770.47,-74.39 775.91,-71.94"/>
<polygon fill="#63b8ff" stroke="#63b8ff" points="670.86,-159.22 667.75,-169.35 676.5,-163.38 670.86,-159.22"/>
</a>
</g>
</g>
<!-- Node18&#45;&gt;Node24 -->
<g id="edge52_Node000018_Node000024" class="edge">
<title>Node18&#45;&gt;Node24</title>
<g id="a_edge52_Node000018_Node000024"><a xlink:title=" ">
<path fill="none" stroke="#63b8ff" d="M684.96,-162.65C704.14,-143.16 731.61,-116.24 760.25,-98.25 772.22,-90.73 786.81,-84.92 799.24,-79.99"/>
<polygon fill="#63b8ff" stroke="#63b8ff" points="682.56,-160.09 678.07,-169.68 687.56,-164.99 682.56,-160.09"/>
</a>
</g>
</g>
<!-- Node22 -->
<g id="Node000022" class="node">
<title>Node22</title>
<g id="a_Node000022"><a xlink:href="classdunedaq_1_1appmodel_1_1MLTApplication.html" target="_top" xlink:title=" ">
<polygon fill="white" stroke="#666666" points="1034.5,-177.5 930.75,-177.5 930.75,-147 1034.5,-147 1034.5,-177.5"/>
<text text-anchor="start" x="938.75" y="-164" font-family="Helvetica,sans-Serif" font-size="10.00">dunedaq::appmodel::</text>
<text text-anchor="middle" x="982.62" y="-152.75" font-family="Helvetica,sans-Serif" font-size="10.00">MLTApplication</text>
</a>
</g>
</g>
<!-- Node21&#45;&gt;Node22 -->
<g id="edge38_Node000021_Node000022" class="edge">
<title>Node21&#45;&gt;Node22</title>
<g id="a_edge38_Node000021_Node000022"><a xlink:title=" ">
<path fill="none" stroke="#63b8ff" d="M890.84,-155.6C903.96,-155.41 917.67,-155.49 930.34,-155.84"/>
<polygon fill="#63b8ff" stroke="#63b8ff" points="890.92,-152.1 881,-155.81 891.07,-159.1 890.92,-152.1"/>
</a>
</g>
</g>
<!-- Node21&#45;&gt;Node22 -->
<g id="edge39_Node000021_Node000022" class="edge">
<title>Node21&#45;&gt;Node22</title>
<g id="a_edge39_Node000021_Node000022"><a xlink:title=" ">
<path fill="none" stroke="#63b8ff" d="M890.84,-168.9C903.96,-169.09 917.67,-169.01 930.34,-168.66"/>
<polygon fill="#63b8ff" stroke="#63b8ff" points="891.07,-165.4 881,-168.69 890.92,-172.4 891.07,-165.4"/>
</a>
</g>
</g>
<!-- Node25 -->
<g id="Node000025" class="node">
<title>Node25</title>
<g id="a_Node000025"><a xlink:href="classdunedaq_1_1appmodel_1_1FakeDataSender.html" target="_top" xlink:title=" ">
<polygon fill="white" stroke="#666666" points="1034.5,-128.5 930.75,-128.5 930.75,-98 1034.5,-98 1034.5,-128.5"/>
<text text-anchor="start" x="938.75" y="-115" font-family="Helvetica,sans-Serif" font-size="10.00">dunedaq::appmodel::</text>
<text text-anchor="middle" x="982.62" y="-103.75" font-family="Helvetica,sans-Serif" font-size="10.00">FakeDataSender</text>
</a>
</g>
</g>
<!-- Node24&#45;&gt;Node25 -->
<g id="edge44_Node000024_Node000025" class="edge">
<title>Node24&#45;&gt;Node25</title>
<g id="a_edge44_Node000024_Node000025"><a xlink:title=" ">
<path fill="none" stroke="#63b8ff" d="M890.03,-77.31C910.73,-83.6 932.94,-91.07 950.31,-97.66"/>
<polygon fill="#63b8ff" stroke="#63b8ff" points="891.1,-73.97 880.51,-74.47 889.1,-80.68 891.1,-73.97"/>
</a>
</g>
</g>
<!-- Node24&#45;&gt;Node25 -->
<g id="edge45_Node000024_Node000025" class="edge">
<title>Node24&#45;&gt;Node25</title>
<g id="a_edge45_Node000024_Node000025"><a xlink:title=" ">
<path fill="none" stroke="#63b8ff" d="M870.92,-83.94C889.33,-90.56 911.05,-97.61 930.35,-103.25"/>
<polygon fill="#63b8ff" stroke="#63b8ff" points="872.24,-80.7 861.65,-80.52 869.82,-87.26 872.24,-80.7"/>
</a>
</g>
</g>
<!-- Node26 -->
<g id="Node000026" class="node">
<title>Node26</title>
<g id="a_Node000026"><a xlink:href="classdunedaq_1_1appmodel_1_1FelixDataSender.html" target="_top" xlink:title=" ">
<polygon fill="white" stroke="#666666" points="1034.5,-79.5 930.75,-79.5 930.75,-49 1034.5,-49 1034.5,-79.5"/>
<text text-anchor="start" x="938.75" y="-66" font-family="Helvetica,sans-Serif" font-size="10.00">dunedaq::appmodel::</text>
<text text-anchor="middle" x="982.62" y="-54.75" font-family="Helvetica,sans-Serif" font-size="10.00">FelixDataSender</text>
</a>
</g>
</g>
<!-- Node24&#45;&gt;Node26 -->
<g id="edge46_Node000024_Node000026" class="edge">
<title>Node24&#45;&gt;Node26</title>
<g id="a_edge46_Node000024_Node000026"><a xlink:title=" ">
<path fill="none" stroke="#63b8ff" d="M890.49,-57.61C903.72,-57.41 917.55,-57.48 930.33,-57.84"/>
<polygon fill="#63b8ff" stroke="#63b8ff" points="890.5,-54.11 880.58,-57.83 890.65,-61.11 890.5,-54.11"/>
</a>
</g>
</g>
<!-- Node24&#45;&gt;Node26 -->
<g id="edge47_Node000024_Node000026" class="edge">
<title>Node24&#45;&gt;Node26</title>
<g id="a_edge47_Node000024_Node000026"><a xlink:title=" ">
<path fill="none" stroke="#63b8ff" d="M890.49,-70.89C903.72,-71.09 917.55,-71.02 930.33,-70.66"/>
<polygon fill="#63b8ff" stroke="#63b8ff" points="890.65,-67.39 880.58,-70.67 890.5,-74.39 890.65,-67.39"/>
</a>
</g>
</g>
<!-- Node27 -->
<g id="Node000027" class="node">
<title>Node27</title>
<g id="a_Node000027"><a xlink:href="classdunedaq_1_1appmodel_1_1NWDetDataSender.html" target="_top" xlink:title=" ">
<polygon fill="white" stroke="#666666" points="1034.5,-30.5 930.75,-30.5 930.75,0 1034.5,0 1034.5,-30.5"/>
<text text-anchor="start" x="938.75" y="-17" font-family="Helvetica,sans-Serif" font-size="10.00">dunedaq::appmodel::</text>
<text text-anchor="middle" x="982.62" y="-5.75" font-family="Helvetica,sans-Serif" font-size="10.00">NWDetDataSender</text>
</a>
</g>
</g>
<!-- Node24&#45;&gt;Node27 -->
<g id="edge48_Node000024_Node000027" class="edge">
<title>Node24&#45;&gt;Node27</title>
<g id="a_edge48_Node000024_Node000027"><a xlink:title=" ">
<path fill="none" stroke="#63b8ff" d="M870.92,-44.56C889.33,-37.94 911.05,-30.89 930.35,-25.25"/>
<polygon fill="#63b8ff" stroke="#63b8ff" points="869.82,-41.24 861.65,-47.98 872.24,-47.8 869.82,-41.24"/>
</a>
</g>
</g>
<!-- Node24&#45;&gt;Node27 -->
<g id="edge51_Node000024_Node000027" class="edge">
<title>Node24&#45;&gt;Node27</title>
<g id="a_edge51_Node000024_Node000027"><a xlink:title=" ">
<path fill="none" stroke="#63b8ff" d="M890.03,-51.19C910.73,-44.9 932.94,-37.43 950.31,-30.84"/>
<polygon fill="#63b8ff" stroke="#63b8ff" points="889.1,-47.82 880.51,-54.03 891.1,-54.53 889.1,-47.82"/>
</a>
</g>
</g>
<!-- Node28 -->
<g id="Node000028" class="node">
<title>Node28</title>
<g id="a_Node000028"><a xlink:href="classdunedaq_1_1appmodel_1_1HermesDataSender.html" target="_top" xlink:title=" ">
<polygon fill="white" stroke="#666666" points="1174.25,-30.5 1070.5,-30.5 1070.5,0 1174.25,0 1174.25,-30.5"/>
<text text-anchor="start" x="1078.5" y="-17" font-family="Helvetica,sans-Serif" font-size="10.00">dunedaq::appmodel::</text>
<text text-anchor="middle" x="1122.38" y="-5.75" font-family="Helvetica,sans-Serif" font-size="10.00">HermesDataSender</text>
</a>
</g>
</g>
<!-- Node27&#45;&gt;Node28 -->
<g id="edge49_Node000027_Node000028" class="edge">
<title>Node27&#45;&gt;Node28</title>
<g id="a_edge49_Node000027_Node000028"><a xlink:title=" ">
<path fill="none" stroke="#63b8ff" d="M1046.39,-8.52C1054.3,-8.46 1062.33,-8.52 1070.04,-8.7"/>
<polygon fill="#63b8ff" stroke="#63b8ff" points="1046.38,-5.02 1036.43,-8.68 1046.48,-12.02 1046.38,-5.02"/>
</a>
</g>
</g>
<!-- Node27&#45;&gt;Node28 -->
<g id="edge50_Node000027_Node000028" class="edge">
<title>Node27&#45;&gt;Node28</title>
<g id="a_edge50_Node000027_Node000028"><a xlink:title=" ">
<path fill="none" stroke="#63b8ff" d="M1046.39,-21.98C1054.3,-22.04 1062.33,-21.98 1070.04,-21.8"/>
<polygon fill="#63b8ff" stroke="#63b8ff" points="1046.48,-18.48 1036.43,-21.82 1046.38,-25.48 1046.48,-18.48"/>
</a>
</g>
</g>
<!-- Node30 -->
<g id="Node000030" class="node">
<title>Node30</title>
<g id="a_Node000030"><a xlink:href="classdunedaq_1_1confmodel_1_1DetectorToDaqConnection.html" target="_top" xlink:title=" ">
<polygon fill="white" stroke="#666666" points="894.75,-30.5 760.25,-30.5 760.25,0 894.75,0 894.75,-30.5"/>
<text text-anchor="start" x="768.25" y="-17" font-family="Helvetica,sans-Serif" font-size="10.00">dunedaq::confmodel</text>
<text text-anchor="middle" x="827.5" y="-5.75" font-family="Helvetica,sans-Serif" font-size="10.00">::DetectorToDaqConnection</text>
</a>
</g>
</g>
<!-- Node29&#45;&gt;Node30 -->
<g id="edge55_Node000029_Node000030" class="edge">
<title>Node29&#45;&gt;Node30</title>
<g id="a_edge55_Node000029_Node000030"><a xlink:title=" ">
<path fill="none" stroke="#63b8ff" d="M686.42,-66.79C706.74,-55.38 734.95,-41.96 760.25,-31.25 760.48,-31.15 760.7,-31.06 760.93,-30.96"/>
<polygon fill="#63b8ff" stroke="#63b8ff" points="684.75,-63.71 677.89,-71.78 688.29,-69.75 684.75,-63.71"/>
</a>
</g>
</g>
<!-- Node29&#45;&gt;Node30 -->
<g id="edge56_Node000029_Node000030" class="edge">
<title>Node29&#45;&gt;Node30</title>
<g id="a_edge56_Node000029_Node000030"><a xlink:title=" ">
<path fill="none" stroke="#63b8ff" d="M718.08,-67.91C731.84,-61.72 746.48,-55.08 760.25,-49.25 774.85,-43.07 791.56,-36.77 804.55,-30.89"/>
<polygon fill="#63b8ff" stroke="#63b8ff" points="716.83,-64.63 709.14,-71.92 719.7,-71.02 716.83,-64.63"/>
</a>
</g>
</g>
</g>
</svg>
