<?xml version="1.0" encoding="UTF-8" standalone="no"?>
<!DOCTYPE svg PUBLIC "-//W3C//DTD SVG 1.1//EN"
 "http://www.w3.org/Graphics/SVG/1.1/DTD/svg11.dtd">
<!-- Generated by graphviz version 9.0.0 (20230911.1827)
 -->
<!-- Title: dunedaq::timing::I2CMasterNode Pages: 1 -->
<svg width="304pt" height="138pt"
 viewBox="0.00 0.00 303.62 137.75" xmlns="http://www.w3.org/2000/svg" xmlns:xlink="http://www.w3.org/1999/xlink">
<g id="graph0" class="graph" transform="scale(1 1) rotate(0) translate(4 133.75)">
<title>dunedaq::timing::I2CMasterNode</title>
<!-- Node1 -->
<g id="Node000001" class="node">
<title>Node1</title>
<g id="a_Node000001"><a xlink:title=" ">
<polygon fill="#999999" stroke="#666666" points="221.88,-74.5 65.62,-74.5 65.62,-55.25 221.88,-55.25 221.88,-74.5"/>
<text text-anchor="middle" x="143.75" y="-61" font-family="Helvetica,sans-Serif" font-size="10.00">dunedaq::timing::I2CMasterNode</text>
</a>
</g>
</g>
<!-- Node3 -->
<g id="Node000003" class="node">
<title>Node3</title>
<g id="a_Node000003"><a xlink:href="classdunedaq_1_1timing_1_1DACNode.html" target="_top" xlink:title="uhal::Node implementing single I2C Master Slave connection to control SFP expander chips.">
<polygon fill="white" stroke="#666666" points="131.5,-19.25 0,-19.25 0,0 131.5,0 131.5,-19.25"/>
<text text-anchor="middle" x="65.75" y="-5.75" font-family="Helvetica,sans-Serif" font-size="10.00">dunedaq::timing::DACNode</text>
</a>
</g>
</g>
<!-- Node1&#45;&gt;Node3 -->
<g id="edge2_Node000001_Node000003" class="edge">
<title>Node1&#45;&gt;Node3</title>
<g id="a_edge2_Node000001_Node000003"><a xlink:title=" ">
<path fill="none" stroke="#63b8ff" d="M121.28,-48.53C107.6,-39.2 90.61,-27.6 79.05,-19.7"/>
<polygon fill="#63b8ff" stroke="#63b8ff" points="119.04,-51.24 129.27,-53.99 122.98,-45.46 119.04,-51.24"/>
</a>
</g>
</g>
<!-- Node4 -->
<g id="Node000004" class="node">
<title>Node4</title>
<g id="a_Node000004"><a xlink:href="classdunedaq_1_1timing_1_1I2CSFPNode.html" target="_top" xlink:title=" ">
<polygon fill="white" stroke="#666666" points="295.62,-19.25 149.88,-19.25 149.88,0 295.62,0 295.62,-19.25"/>
<text text-anchor="middle" x="222.75" y="-5.75" font-family="Helvetica,sans-Serif" font-size="10.00">dunedaq::timing::I2CSFPNode</text>
</a>
</g>
</g>
<!-- Node1&#45;&gt;Node4 -->
<g id="edge3_Node000001_Node000004" class="edge">
<title>Node1&#45;&gt;Node4</title>
<g id="a_edge3_Node000001_Node000004"><a xlink:title=" ">
<path fill="none" stroke="#63b8ff" d="M166.51,-48.53C180.36,-39.2 197.57,-27.6 209.28,-19.7"/>
<polygon fill="#63b8ff" stroke="#63b8ff" points="164.74,-45.5 158.41,-54 168.65,-51.31 164.74,-45.5"/>
</a>
</g>
</g>
<!-- Node2 -->
<g id="Node000002" class="node">
<title>Node2</title>
<g id="a_Node000002"><a xlink:title=" ">
<polygon fill="white" stroke="#666666" points="174.62,-129.75 112.88,-129.75 112.88,-110.5 174.62,-110.5 174.62,-129.75"/>
<text text-anchor="middle" x="143.75" y="-116.25" font-family="Helvetica,sans-Serif" font-size="10.00">uhal::Node</text>
</a>
</g>
</g>
<!-- Node2&#45;&gt;Node1 -->
<g id="edge1_Node000001_Node000002" class="edge">
<title>Node2&#45;&gt;Node1</title>
<g id="a_edge1_Node000001_Node000002"><a xlink:title=" ">
<path fill="none" stroke="#63b8ff" d="M143.75,-98.88C143.75,-90.59 143.75,-81.42 143.75,-74.86"/>
<polygon fill="#63b8ff" stroke="#63b8ff" points="140.25,-98.82 143.75,-108.82 147.25,-98.82 140.25,-98.82"/>
</a>
</g>
</g>
</g>
</svg>
