<?xml version="1.0" encoding="UTF-8" standalone="no"?>
<!DOCTYPE svg PUBLIC "-//W3C//DTD SVG 1.1//EN"
 "http://www.w3.org/Graphics/SVG/1.1/DTD/svg11.dtd">
<!-- Generated by graphviz version 9.0.0 (20230911.1827)
 -->
<!-- Title: dbe::actions::file::remove Pages: 1 -->
<svg width="102pt" height="149pt"
 viewBox="0.00 0.00 102.00 149.00" xmlns="http://www.w3.org/2000/svg" xmlns:xlink="http://www.w3.org/1999/xlink">
<g id="graph0" class="graph" transform="scale(1 1) rotate(0) translate(4 145)">
<title>dbe::actions::file::remove</title>
<!-- Node1 -->
<g id="Node000001" class="node">
<title>Node1</title>
<g id="a_Node000001"><a xlink:title=" ">
<polygon fill="#999999" stroke="#666666" points="89.12,-30.5 4.88,-30.5 4.88,0 89.12,0 89.12,-30.5"/>
<text text-anchor="start" x="12.88" y="-17" font-family="Helvetica,sans-Serif" font-size="10.00">dbe::actions::file</text>
<text text-anchor="middle" x="47" y="-5.75" font-family="Helvetica,sans-Serif" font-size="10.00">::remove</text>
</a>
</g>
</g>
<!-- Node2 -->
<g id="Node000002" class="node">
<title>Node2</title>
<g id="a_Node000002"><a xlink:href="classdbe_1_1actions_1_1state.html" target="_top" xlink:title=" ">
<polygon fill="white" stroke="#666666" points="94,-85.75 0,-85.75 0,-66.5 94,-66.5 94,-85.75"/>
<text text-anchor="middle" x="47" y="-72.25" font-family="Helvetica,sans-Serif" font-size="10.00">dbe::actions::state</text>
</a>
</g>
</g>
<!-- Node2&#45;&gt;Node1 -->
<g id="edge1_Node000001_Node000002" class="edge">
<title>Node2&#45;&gt;Node1</title>
<g id="a_edge1_Node000001_Node000002"><a xlink:title=" ">
<path fill="none" stroke="#63b8ff" d="M47,-54.92C47,-46.99 47,-38.06 47,-30.78"/>
<polygon fill="#63b8ff" stroke="#63b8ff" points="43.5,-54.67 47,-64.67 50.5,-54.67 43.5,-54.67"/>
</a>
</g>
</g>
<!-- Node3 -->
<g id="Node000003" class="node">
<title>Node3</title>
<g id="a_Node000003"><a xlink:title=" ">
<polygon fill="white" stroke="#666666" points="92.5,-141 1.5,-141 1.5,-121.75 92.5,-121.75 92.5,-141"/>
<text text-anchor="middle" x="47" y="-127.5" font-family="Helvetica,sans-Serif" font-size="10.00">QUndoCommand</text>
</a>
</g>
</g>
<!-- Node3&#45;&gt;Node2 -->
<g id="edge2_Node000002_Node000003" class="edge">
<title>Node3&#45;&gt;Node2</title>
<g id="a_edge2_Node000002_Node000003"><a xlink:title=" ">
<path fill="none" stroke="#63b8ff" d="M47,-110.13C47,-101.84 47,-92.67 47,-86.11"/>
<polygon fill="#63b8ff" stroke="#63b8ff" points="43.5,-110.07 47,-120.07 50.5,-110.07 43.5,-110.07"/>
</a>
</g>
</g>
</g>
</svg>
