<?xml version="1.0" encoding="UTF-8" standalone="no"?>
<!DOCTYPE svg PUBLIC "-//W3C//DTD SVG 1.1//EN"
 "http://www.w3.org/Graphics/SVG/1.1/DTD/svg11.dtd">
<!-- Generated by graphviz version 9.0.0 (20230911.1827)
 -->
<!-- Title: dunedaq::timing::IRIGTimestampNode Pages: 1 -->
<svg width="188pt" height="138pt"
 viewBox="0.00 0.00 188.25 137.75" xmlns="http://www.w3.org/2000/svg" xmlns:xlink="http://www.w3.org/1999/xlink">
<g id="graph0" class="graph" transform="scale(1 1) rotate(0) translate(4 133.75)">
<title>dunedaq::timing::IRIGTimestampNode</title>
<!-- Node1 -->
<g id="Node000001" class="node">
<title>Node1</title>
<g id="a_Node000001"><a xlink:title="Class for timestamp generator node.">
<polygon fill="#999999" stroke="#666666" points="180.25,-19.25 0,-19.25 0,0 180.25,0 180.25,-19.25"/>
<text text-anchor="middle" x="90.12" y="-5.75" font-family="Helvetica,sans-Serif" font-size="10.00">dunedaq::timing::IRIGTimestampNode</text>
</a>
</g>
</g>
<!-- Node2 -->
<g id="Node000002" class="node">
<title>Node2</title>
<g id="a_Node000002"><a xlink:href="classdunedaq_1_1timing_1_1TimingNode.html" target="_top" xlink:title="Base class for timing nodes.">
<polygon fill="white" stroke="#666666" points="160.38,-74.5 19.88,-74.5 19.88,-55.25 160.38,-55.25 160.38,-74.5"/>
<text text-anchor="middle" x="90.12" y="-61" font-family="Helvetica,sans-Serif" font-size="10.00">dunedaq::timing::TimingNode</text>
</a>
</g>
</g>
<!-- Node2&#45;&gt;Node1 -->
<g id="edge1_Node000001_Node000002" class="edge">
<title>Node2&#45;&gt;Node1</title>
<g id="a_edge1_Node000001_Node000002"><a xlink:title=" ">
<path fill="none" stroke="#63b8ff" d="M90.12,-43.63C90.12,-35.34 90.12,-26.17 90.12,-19.61"/>
<polygon fill="#63b8ff" stroke="#63b8ff" points="86.63,-43.57 90.13,-53.57 93.63,-43.57 86.63,-43.57"/>
</a>
</g>
</g>
<!-- Node3 -->
<g id="Node000003" class="node">
<title>Node3</title>
<g id="a_Node000003"><a xlink:title=" ">
<polygon fill="white" stroke="#666666" points="121,-129.75 59.25,-129.75 59.25,-110.5 121,-110.5 121,-129.75"/>
<text text-anchor="middle" x="90.12" y="-116.25" font-family="Helvetica,sans-Serif" font-size="10.00">uhal::Node</text>
</a>
</g>
</g>
<!-- Node3&#45;&gt;Node2 -->
<g id="edge2_Node000002_Node000003" class="edge">
<title>Node3&#45;&gt;Node2</title>
<g id="a_edge2_Node000002_Node000003"><a xlink:title=" ">
<path fill="none" stroke="#63b8ff" d="M90.12,-98.88C90.12,-90.59 90.12,-81.42 90.12,-74.86"/>
<polygon fill="#63b8ff" stroke="#63b8ff" points="86.63,-98.82 90.13,-108.82 93.63,-98.82 86.63,-98.82"/>
</a>
</g>
</g>
</g>
</svg>
