<?xml version="1.0" encoding="UTF-8" standalone="no"?>
<!DOCTYPE svg PUBLIC "-//W3C//DTD SVG 1.1//EN"
 "http://www.w3.org/Graphics/SVG/1.1/DTD/svg11.dtd">
<!-- Generated by graphviz version 9.0.0 (20230911.1827)
 -->
<!-- Title: dunedaq::hsilibs::dal::HSIController Pages: 1 -->
<svg width="810pt" height="91pt"
 viewBox="0.00 0.00 810.25 90.50" xmlns="http://www.w3.org/2000/svg" xmlns:xlink="http://www.w3.org/1999/xlink">
<g id="graph0" class="graph" transform="scale(1 1) rotate(0) translate(4 86.5)">
<title>dunedaq::hsilibs::dal::HSIController</title>
<!-- Node1 -->
<g id="Node000001" class="node">
<title>Node1</title>
<g id="a_Node000001"><a xlink:title=" ">
<polygon fill="#999999" stroke="#666666" points="802.25,-56.5 700,-56.5 700,-26 802.25,-26 802.25,-56.5"/>
<text text-anchor="start" x="708" y="-43" font-family="Helvetica,sans-Serif" font-size="10.00">dunedaq::hsilibs::dal</text>
<text text-anchor="middle" x="751.12" y="-31.75" font-family="Helvetica,sans-Serif" font-size="10.00">::HSIController</text>
</a>
</g>
</g>
<!-- Node2 -->
<g id="Node000002" class="node">
<title>Node2</title>
<g id="a_Node000002"><a xlink:href="classdunedaq_1_1timinglibs_1_1dal_1_1TimingEndpointControllerBase.html" target="_top" xlink:title=" ">
<polygon fill="white" stroke="#666666" points="664,-82.5 495.75,-82.5 495.75,-52 664,-52 664,-82.5"/>
<text text-anchor="start" x="503.75" y="-69" font-family="Helvetica,sans-Serif" font-size="10.00">dunedaq::timinglibs</text>
<text text-anchor="middle" x="579.88" y="-57.75" font-family="Helvetica,sans-Serif" font-size="10.00">::dal::TimingEndpointControllerBase</text>
</a>
</g>
</g>
<!-- Node2&#45;&gt;Node1 -->
<g id="edge1_Node000001_Node000002" class="edge">
<title>Node2&#45;&gt;Node1</title>
<g id="a_edge1_Node000001_Node000002"><a xlink:title=" ">
<path fill="none" stroke="#63b8ff" d="M651.98,-49.65C668.01,-47.01 684.7,-44.59 699.68,-42.76"/>
<polygon fill="#63b8ff" stroke="#63b8ff" points="651.79,-46.14 642.51,-51.26 652.96,-53.04 651.79,-46.14"/>
</a>
</g>
</g>
<!-- Node2&#45;&gt;Node1 -->
<g id="edge11_Node000001_Node000002" class="edge">
<title>Node2&#45;&gt;Node1</title>
<g id="a_edge11_Node000001_Node000002"><a xlink:title=" ">
<path fill="none" stroke="#63b8ff" d="M675.15,-59.48C683.59,-58.11 691.9,-56.68 699.74,-55.22"/>
<polygon fill="#63b8ff" stroke="#63b8ff" points="674.84,-55.98 665.51,-60.99 675.93,-62.9 674.84,-55.98"/>
</a>
</g>
</g>
<!-- Node3 -->
<g id="Node000003" class="node">
<title>Node3</title>
<g id="a_Node000003"><a xlink:href="classdunedaq_1_1timinglibs_1_1dal_1_1TimingController.html" target="_top" xlink:title=" ">
<polygon fill="white" stroke="#666666" points="440.25,-82.5 332,-82.5 332,-52 440.25,-52 440.25,-82.5"/>
<text text-anchor="start" x="340" y="-69" font-family="Helvetica,sans-Serif" font-size="10.00">dunedaq::timinglibs</text>
<text text-anchor="middle" x="386.12" y="-57.75" font-family="Helvetica,sans-Serif" font-size="10.00">::dal::TimingController</text>
</a>
</g>
</g>
<!-- Node3&#45;&gt;Node2 -->
<g id="edge2_Node000002_Node000003" class="edge">
<title>Node3&#45;&gt;Node2</title>
<g id="a_edge2_Node000002_Node000003"><a xlink:title=" ">
<path fill="none" stroke="#63b8ff" d="M452.03,-60.82C466.02,-60.52 481,-60.43 495.59,-60.55"/>
<polygon fill="#63b8ff" stroke="#63b8ff" points="451.96,-57.32 442.05,-61.09 452.14,-64.32 451.96,-57.32"/>
</a>
</g>
</g>
<!-- Node3&#45;&gt;Node2 -->
<g id="edge7_Node000002_Node000003" class="edge">
<title>Node3&#45;&gt;Node2</title>
<g id="a_edge7_Node000002_Node000003"><a xlink:title=" ">
<path fill="none" stroke="#63b8ff" d="M452.03,-73.68C466.02,-73.98 481,-74.07 495.59,-73.95"/>
<polygon fill="#63b8ff" stroke="#63b8ff" points="452.14,-70.18 442.05,-73.41 451.96,-77.18 452.14,-70.18"/>
</a>
</g>
</g>
<!-- Node4 -->
<g id="Node000004" class="node">
<title>Node4</title>
<g id="a_Node000004"><a xlink:href="classdunedaq_1_1confmodel_1_1DaqModule.html" target="_top" xlink:title=" ">
<polygon fill="white" stroke="#666666" points="276.5,-82.5 174.25,-82.5 174.25,-52 276.5,-52 276.5,-82.5"/>
<text text-anchor="start" x="182.25" y="-69" font-family="Helvetica,sans-Serif" font-size="10.00">dunedaq::confmodel</text>
<text text-anchor="middle" x="225.38" y="-57.75" font-family="Helvetica,sans-Serif" font-size="10.00">::DaqModule</text>
</a>
</g>
</g>
<!-- Node4&#45;&gt;Node3 -->
<g id="edge3_Node000003_Node000004" class="edge">
<title>Node4&#45;&gt;Node3</title>
<g id="a_edge3_Node000003_Node000004"><a xlink:title=" ">
<path fill="none" stroke="#63b8ff" d="M287.95,-60.65C302.37,-60.4 317.62,-60.46 331.66,-60.83"/>
<polygon fill="#63b8ff" stroke="#63b8ff" points="288.03,-57.15 278.12,-60.89 288.2,-64.15 288.03,-57.15"/>
</a>
</g>
</g>
<!-- Node4&#45;&gt;Node3 -->
<g id="edge6_Node000003_Node000004" class="edge">
<title>Node4&#45;&gt;Node3</title>
<g id="a_edge6_Node000003_Node000004"><a xlink:title=" ">
<path fill="none" stroke="#63b8ff" d="M287.95,-73.85C302.37,-74.1 317.62,-74.04 331.66,-73.67"/>
<polygon fill="#63b8ff" stroke="#63b8ff" points="288.2,-70.35 278.12,-73.61 288.03,-77.35 288.2,-70.35"/>
</a>
</g>
</g>
<!-- Node5 -->
<g id="Node000005" class="node">
<title>Node5</title>
<g id="a_Node000005"><a xlink:href="classdunedaq_1_1conffwk_1_1DalObject.html" target="_top" xlink:title="The base class for any generated DAL object.">
<polygon fill="white" stroke="#666666" points="138.25,-50.88 0,-50.88 0,-31.62 138.25,-31.62 138.25,-50.88"/>
<text text-anchor="middle" x="69.12" y="-37.38" font-family="Helvetica,sans-Serif" font-size="10.00">dunedaq::conffwk::DalObject</text>
</a>
</g>
</g>
<!-- Node5&#45;&gt;Node4 -->
<g id="edge4_Node000004_Node000005" class="edge">
<title>Node5&#45;&gt;Node4</title>
<g id="a_edge4_Node000004_Node000005"><a xlink:title=" ">
<path fill="none" stroke="#63b8ff" d="M149.89,-47.95C158.12,-49.36 166.31,-50.86 174.08,-52.4"/>
<polygon fill="#63b8ff" stroke="#63b8ff" points="150.61,-44.52 140.17,-46.34 149.47,-51.43 150.61,-44.52"/>
</a>
</g>
</g>
<!-- Node5&#45;&gt;Node4 -->
<g id="edge5_Node000004_Node000005" class="edge">
<title>Node5&#45;&gt;Node4</title>
<g id="a_edge5_Node000004_Node000005"><a xlink:title=" ">
<path fill="none" stroke="#63b8ff" d="M109.07,-53.77C128.73,-57.97 152.81,-62.18 173.88,-65.12"/>
<polygon fill="#63b8ff" stroke="#63b8ff" points="110.06,-50.4 99.54,-51.63 108.53,-57.23 110.06,-50.4"/>
</a>
</g>
</g>
<!-- Node6 -->
<g id="Node000006" class="node">
<title>Node6</title>
<g id="a_Node000006"><a xlink:href="classdunedaq_1_1timinglibs_1_1dal_1_1TimingHardwareInterface.html" target="_top" xlink:title=" ">
<polygon fill="white" stroke="#666666" points="459.75,-30.5 312.5,-30.5 312.5,0 459.75,0 459.75,-30.5"/>
<text text-anchor="start" x="320.5" y="-17" font-family="Helvetica,sans-Serif" font-size="10.00">dunedaq::timinglibs</text>
<text text-anchor="middle" x="386.12" y="-5.75" font-family="Helvetica,sans-Serif" font-size="10.00">::dal::TimingHardwareInterface</text>
</a>
</g>
</g>
<!-- Node5&#45;&gt;Node6 -->
<g id="edge9_Node000006_Node000005" class="edge">
<title>Node5&#45;&gt;Node6</title>
<g id="a_edge9_Node000006_Node000005"><a xlink:title=" ">
<path fill="none" stroke="#63b8ff" d="M138.82,-29.89C190.01,-24.29 259.8,-18.49 312.02,-15.48"/>
<polygon fill="#63b8ff" stroke="#63b8ff" points="138.59,-26.4 129.04,-30.99 139.37,-33.35 138.59,-26.4"/>
</a>
</g>
</g>
<!-- Node5&#45;&gt;Node6 -->
<g id="edge10_Node000006_Node000005" class="edge">
<title>Node5&#45;&gt;Node6</title>
<g id="a_edge10_Node000006_Node000005"><a xlink:title=" ">
<path fill="none" stroke="#63b8ff" d="M149.88,-40.63C199.81,-37.61 263.67,-32.29 312.25,-27.06"/>
<polygon fill="#63b8ff" stroke="#63b8ff" points="149.77,-37.13 139.99,-41.2 150.17,-44.11 149.77,-37.13"/>
</a>
</g>
</g>
<!-- Node6&#45;&gt;Node1 -->
<g id="edge8_Node000001_Node000006" class="edge">
<title>Node6&#45;&gt;Node1</title>
<g id="a_edge8_Node000001_Node000006"><a xlink:title=" ">
<path fill="none" stroke="#63b8ff" d="M471.24,-15.48C541.94,-19.01 640.64,-26.4 699.68,-32.79"/>
<polygon fill="#63b8ff" stroke="#63b8ff" points="471.82,-12 461.66,-15.02 471.48,-18.99 471.82,-12"/>
</a>
</g>
</g>
<!-- Node6&#45;&gt;Node1 -->
<g id="edge12_Node000001_Node000006" class="edge">
<title>Node6&#45;&gt;Node1</title>
<g id="a_edge12_Node000001_Node000006"><a xlink:title=" ">
<path fill="none" stroke="#63b8ff" d="M471.24,-27.07C541.94,-33.67 640.64,-40.42 699.68,-42.48"/>
<polygon fill="#63b8ff" stroke="#63b8ff" points="471.94,-23.62 461.65,-26.16 471.28,-30.59 471.94,-23.62"/>
</a>
</g>
</g>
</g>
</svg>
