<?xml version="1.0" encoding="UTF-8" standalone="no"?>
<!DOCTYPE svg PUBLIC "-//W3C//DTD SVG 1.1//EN"
 "http://www.w3.org/Graphics/SVG/1.1/DTD/svg11.dtd">
<!-- Generated by graphviz version 9.0.0 (20230911.1827)
 -->
<!-- Title: dunedaq::ipm::Subscriber Pages: 1 -->
<svg width="286pt" height="295pt"
 viewBox="0.00 0.00 285.62 295.25" xmlns="http://www.w3.org/2000/svg" xmlns:xlink="http://www.w3.org/1999/xlink">
<g id="graph0" class="graph" transform="scale(1 1) rotate(0) translate(4 291.25)">
<title>dunedaq::ipm::Subscriber</title>
<!-- Node1 -->
<g id="Node000001" class="node">
<title>Node1</title>
<g id="a_Node000001"><a xlink:title=" ">
<polygon fill="#999999" stroke="#666666" points="200.25,-19.25 76.25,-19.25 76.25,0 200.25,0 200.25,-19.25"/>
<text text-anchor="middle" x="138.25" y="-5.75" font-family="Helvetica,sans-Serif" font-size="10.00">dunedaq::ipm::Subscriber</text>
</a>
</g>
</g>
<!-- Node2 -->
<g id="Node000002" class="node">
<title>Node2</title>
<g id="a_Node000002"><a xlink:href="classdunedaq_1_1ipm_1_1Receiver.html" target="_top" xlink:title=" ">
<polygon fill="white" stroke="#666666" points="196.12,-75.5 80.38,-75.5 80.38,-56.25 196.12,-56.25 196.12,-75.5"/>
<text text-anchor="middle" x="138.25" y="-62" font-family="Helvetica,sans-Serif" font-size="10.00">dunedaq::ipm::Receiver</text>
</a>
</g>
</g>
<!-- Node2&#45;&gt;Node1 -->
<g id="edge1_Node000001_Node000002" class="edge">
<title>Node2&#45;&gt;Node1</title>
<g id="a_edge1_Node000001_Node000002"><a xlink:title=" ">
<path fill="none" stroke="#63b8ff" d="M138.25,-44.69C138.25,-35.98 138.25,-26.24 138.25,-19.42"/>
<polygon fill="#63b8ff" stroke="#63b8ff" points="134.75,-44.4 138.25,-54.4 141.75,-44.4 134.75,-44.4"/>
</a>
</g>
</g>
<!-- Node3 -->
<g id="Node000003" class="node">
<title>Node3</title>
<g id="a_Node000003"><a xlink:href="classdunedaq_1_1opmonlib_1_1MonitorableObject.html" target="_top" xlink:title=" ">
<polygon fill="white" stroke="#666666" points="188.62,-143 87.88,-143 87.88,-112.5 188.62,-112.5 188.62,-143"/>
<text text-anchor="start" x="95.88" y="-129.5" font-family="Helvetica,sans-Serif" font-size="10.00">dunedaq::opmonlib::</text>
<text text-anchor="middle" x="138.25" y="-118.25" font-family="Helvetica,sans-Serif" font-size="10.00">MonitorableObject</text>
</a>
</g>
</g>
<!-- Node3&#45;&gt;Node2 -->
<g id="edge2_Node000002_Node000003" class="edge">
<title>Node3&#45;&gt;Node2</title>
<g id="a_edge2_Node000002_Node000003"><a xlink:title=" ">
<path fill="none" stroke="#63b8ff" d="M138.25,-101.02C138.25,-92.04 138.25,-82.54 138.25,-75.85"/>
<polygon fill="#63b8ff" stroke="#63b8ff" points="134.75,-100.74 138.25,-110.74 141.75,-100.74 134.75,-100.74"/>
</a>
</g>
</g>
<!-- Node4 -->
<g id="Node000004" class="node">
<title>Node4</title>
<g id="a_Node000004"><a xlink:href="classdunedaq_1_1opmon_1_1OpMonId.html" target="_top" xlink:title=" ">
<polygon fill="white" stroke="#666666" points="203.62,-209.5 72.88,-209.5 72.88,-190.25 203.62,-190.25 203.62,-209.5"/>
<text text-anchor="middle" x="138.25" y="-196" font-family="Helvetica,sans-Serif" font-size="10.00">dunedaq::opmon::OpMonId</text>
</a>
</g>
</g>
<!-- Node4&#45;&gt;Node3 -->
<g id="edge3_Node000003_Node000004" class="edge">
<title>Node4&#45;&gt;Node3</title>
<g id="a_edge3_Node000003_Node000004"><a xlink:title=" ">
<path fill="none" stroke="#9a32cd" stroke-dasharray="5,2" d="M138.25,-178.67C138.25,-167.41 138.25,-153.64 138.25,-143.42"/>
<polygon fill="#9a32cd" stroke="#9a32cd" points="134.75,-178.48 138.25,-188.48 141.75,-178.48 134.75,-178.48"/>
</a>
</g>
<text text-anchor="middle" x="166" y="-162.75" font-family="Helvetica,sans-Serif" font-size="10.00" fill="grey"> m_parent_id</text>
</g>
<!-- Node5 -->
<g id="Node000005" class="node">
<title>Node5</title>
<g id="a_Node000005"><a xlink:title=" ">
<polygon fill="white" stroke="#666666" points="128.5,-281.62 0,-281.62 0,-262.38 128.5,-262.38 128.5,-281.62"/>
<text text-anchor="middle" x="64.25" y="-268.12" font-family="Helvetica,sans-Serif" font-size="10.00">google::protobuf::Message</text>
</a>
</g>
</g>
<!-- Node5&#45;&gt;Node4 -->
<g id="edge4_Node000004_Node000005" class="edge">
<title>Node5&#45;&gt;Node4</title>
<g id="a_edge4_Node000004_Node000005"><a xlink:title=" ">
<path fill="none" stroke="#63b8ff" d="M81.91,-254.27C96.59,-240.36 116.92,-221.09 128.72,-209.91"/>
<polygon fill="#63b8ff" stroke="#63b8ff" points="79.57,-251.66 74.72,-261.08 84.39,-256.74 79.57,-251.66"/>
</a>
</g>
</g>
<!-- Node6 -->
<g id="Node000006" class="node">
<title>Node6</title>
<g id="a_Node000006"><a xlink:href="structdunedaq_1_1opmon_1_1OpMonId_1_1Impl__.html" target="_top" xlink:title=" ">
<polygon fill="white" stroke="#666666" points="277.62,-287.25 146.88,-287.25 146.88,-256.75 277.62,-256.75 277.62,-287.25"/>
<text text-anchor="start" x="154.88" y="-273.75" font-family="Helvetica,sans-Serif" font-size="10.00">dunedaq::opmon::OpMonId</text>
<text text-anchor="middle" x="212.25" y="-262.5" font-family="Helvetica,sans-Serif" font-size="10.00">::Impl_</text>
</a>
</g>
</g>
<!-- Node6&#45;&gt;Node4 -->
<g id="edge5_Node000004_Node000006" class="edge">
<title>Node6&#45;&gt;Node4</title>
<g id="a_edge5_Node000004_Node000006"><a xlink:title=" ">
<path fill="none" stroke="#9a32cd" stroke-dasharray="5,2" d="M188.68,-248.66C174.69,-235.41 157.75,-219.35 147.49,-209.63"/>
<polygon fill="#9a32cd" stroke="#9a32cd" points="186.15,-251.09 195.82,-255.43 190.97,-246.01 186.15,-251.09"/>
</a>
</g>
<text text-anchor="middle" x="193.62" y="-229.25" font-family="Helvetica,sans-Serif" font-size="10.00" fill="grey"> _impl_</text>
</g>
</g>
</svg>
