<?xml version="1.0" encoding="UTF-8" standalone="no"?>
<!DOCTYPE svg PUBLIC "-//W3C//DTD SVG 1.1//EN"
 "http://www.w3.org/Graphics/SVG/1.1/DTD/svg11.dtd">
<!-- Generated by graphviz version 9.0.0 (20230911.1827)
 -->
<!-- Title: ers::Context Pages: 1 -->
<svg width="218pt" height="83pt"
 viewBox="0.00 0.00 217.88 82.50" xmlns="http://www.w3.org/2000/svg" xmlns:xlink="http://www.w3.org/1999/xlink">
<g id="graph0" class="graph" transform="scale(1 1) rotate(0) translate(4 78.5)">
<title>ers::Context</title>
<!-- Node1 -->
<g id="Node000001" class="node">
<title>Node1</title>
<g id="a_Node000001"><a xlink:title="An abstract interface to access an Issue context.">
<polygon fill="#999999" stroke="#666666" points="136,-74.5 69,-74.5 69,-55.25 136,-55.25 136,-74.5"/>
<text text-anchor="middle" x="102.5" y="-61" font-family="Helvetica,sans-Serif" font-size="10.00">ers::Context</text>
</a>
</g>
</g>
<!-- Node2 -->
<g id="Node000002" class="node">
<title>Node2</title>
<g id="a_Node000002"><a xlink:href="classers_1_1LocalContext.html" target="_top" xlink:title=" ">
<polygon fill="white" stroke="#666666" points="91,-19.25 0,-19.25 0,0 91,0 91,-19.25"/>
<text text-anchor="middle" x="45.5" y="-5.75" font-family="Helvetica,sans-Serif" font-size="10.00">ers::LocalContext</text>
</a>
</g>
</g>
<!-- Node1&#45;&gt;Node2 -->
<g id="edge1_Node000001_Node000002" class="edge">
<title>Node1&#45;&gt;Node2</title>
<g id="a_edge1_Node000001_Node000002"><a xlink:title=" ">
<path fill="none" stroke="#63b8ff" d="M84.55,-47.11C74.77,-37.97 63.06,-27.03 55.03,-19.52"/>
<polygon fill="#63b8ff" stroke="#63b8ff" points="82.03,-49.54 91.72,-53.81 86.81,-44.42 82.03,-49.54"/>
</a>
</g>
</g>
<!-- Node3 -->
<g id="Node000003" class="node">
<title>Node3</title>
<g id="a_Node000003"><a xlink:href="classers_1_1RemoteContext.html" target="_top" xlink:title=" ">
<polygon fill="white" stroke="#666666" points="209.88,-19.25 109.12,-19.25 109.12,0 209.88,0 209.88,-19.25"/>
<text text-anchor="middle" x="159.5" y="-5.75" font-family="Helvetica,sans-Serif" font-size="10.00">ers::RemoteContext</text>
</a>
</g>
</g>
<!-- Node1&#45;&gt;Node3 -->
<g id="edge2_Node000001_Node000003" class="edge">
<title>Node1&#45;&gt;Node3</title>
<g id="a_edge2_Node000001_Node000003"><a xlink:title=" ">
<path fill="none" stroke="#63b8ff" d="M120.45,-47.11C130.23,-37.97 141.94,-27.03 149.97,-19.52"/>
<polygon fill="#63b8ff" stroke="#63b8ff" points="118.19,-44.42 113.28,-53.81 122.97,-49.54 118.19,-44.42"/>
</a>
</g>
</g>
</g>
</svg>
