<?xml version="1.0" encoding="UTF-8" standalone="no"?>
<!DOCTYPE svg PUBLIC "-//W3C//DTD SVG 1.1//EN"
 "http://www.w3.org/Graphics/SVG/1.1/DTD/svg11.dtd">
<!-- Generated by graphviz version 9.0.0 (20230911.1827)
 -->
<!-- Title: dunedaq::conffwk::python::ConfigurationPointer Pages: 1 -->
<svg width="936pt" height="351pt"
 viewBox="0.00 0.00 936.25 351.25" xmlns="http://www.w3.org/2000/svg" xmlns:xlink="http://www.w3.org/1999/xlink">
<g id="graph0" class="graph" transform="scale(1 1) rotate(0) translate(4 347.25)">
<title>dunedaq::conffwk::python::ConfigurationPointer</title>
<!-- Node1 -->
<g id="Node000001" class="node">
<title>Node1</title>
<g id="a_Node000001"><a xlink:title=" ">
<polygon fill="#999999" stroke="#666666" points="905,-232.38 781,-232.38 781,-201.88 905,-201.88 905,-232.38"/>
<text text-anchor="start" x="789" y="-218.88" font-family="Helvetica,sans-Serif" font-size="10.00">dunedaq::conffwk::python</text>
<text text-anchor="middle" x="843" y="-207.62" font-family="Helvetica,sans-Serif" font-size="10.00">::ConfigurationPointer</text>
</a>
</g>
</g>
<!-- Node2 -->
<g id="Node000002" class="node">
<title>Node2</title>
<g id="a_Node000002"><a xlink:href="classboost_1_1shared__ptr.html" target="_top" xlink:title=" ">
<polygon fill="white" stroke="#666666" points="651.25,-249.38 489,-249.38 489,-218.88 651.25,-218.88 651.25,-249.38"/>
<text text-anchor="start" x="497" y="-235.88" font-family="Helvetica,sans-Serif" font-size="10.00">boost::shared_ptr&lt;</text>
<text text-anchor="middle" x="570.12" y="-224.62" font-family="Helvetica,sans-Serif" font-size="10.00"> dunedaq::conffwk::Configuration &gt;</text>
</a>
</g>
</g>
<!-- Node2&#45;&gt;Node1 -->
<g id="edge1_Node000001_Node000002" class="edge">
<title>Node2&#45;&gt;Node1</title>
<g id="a_edge1_Node000001_Node000002"><a xlink:title=" ">
<path fill="none" stroke="#9a32cd" stroke-dasharray="5,2" d="M662.99,-228.36C701.8,-225.92 745.96,-223.15 780.7,-220.97"/>
<polygon fill="#9a32cd" stroke="#9a32cd" points="662.93,-224.86 653.17,-228.98 663.37,-231.84 662.93,-224.86"/>
</a>
</g>
<text text-anchor="middle" x="704.5" y="-229.88" font-family="Helvetica,sans-Serif" font-size="10.00" fill="grey"> m_shared</text>
</g>
<!-- Node3 -->
<g id="Node000003" class="node">
<title>Node3</title>
<g id="a_Node000003"><a xlink:href="classdunedaq_1_1conffwk_1_1Configuration.html" target="_top" xlink:title=" ">
<polygon fill="white" stroke="#666666" points="646,-188.75 494.25,-188.75 494.25,-169.5 646,-169.5 646,-188.75"/>
<text text-anchor="middle" x="570.12" y="-175.25" font-family="Helvetica,sans-Serif" font-size="10.00">dunedaq::conffwk::Configuration</text>
</a>
</g>
</g>
<!-- Node3&#45;&gt;Node1 -->
<g id="edge2_Node000001_Node000003" class="edge">
<title>Node3&#45;&gt;Node1</title>
<g id="a_edge2_Node000001_Node000003"><a xlink:title=" ">
<path fill="none" stroke="#9a32cd" stroke-dasharray="5,2" d="M654.3,-190.79C695.13,-196.52 743.43,-203.3 780.82,-208.54"/>
<polygon fill="#9a32cd" stroke="#9a32cd" points="654.89,-187.34 644.5,-189.42 653.92,-194.27 654.89,-187.34"/>
</a>
</g>
<text text-anchor="middle" x="704.5" y="-204.88" font-family="Helvetica,sans-Serif" font-size="10.00" fill="grey"> m_pointer</text>
</g>
<!-- Node12 -->
<g id="Node000012" class="node">
<title>Node12</title>
<g id="a_Node000012"><a xlink:href="classdunedaq_1_1conffwk_1_1ConfigurationImpl.html" target="_top" xlink:title="Provides pure virtual interface used by the Configuration class.">
<polygon fill="white" stroke="#666666" points="928.25,-141.75 757.75,-141.75 757.75,-122.5 928.25,-122.5 928.25,-141.75"/>
<text text-anchor="middle" x="843" y="-128.25" font-family="Helvetica,sans-Serif" font-size="10.00">dunedaq::conffwk::ConfigurationImpl</text>
</a>
</g>
</g>
<!-- Node3&#45;&gt;Node12 -->
<g id="edge14_Node000012_Node000003" class="edge">
<title>Node3&#45;&gt;Node12</title>
<g id="a_edge14_Node000012_Node000003"><a xlink:title=" ">
<path fill="none" stroke="#9a32cd" stroke-dasharray="5,2" d="M640.54,-167.08C684.97,-159.37 741.97,-149.48 783.99,-142.19"/>
<polygon fill="#9a32cd" stroke="#9a32cd" points="639.98,-163.63 630.73,-168.78 641.18,-170.52 639.98,-163.63"/>
</a>
</g>
<text text-anchor="middle" x="704.5" y="-163.88" font-family="Helvetica,sans-Serif" font-size="10.00" fill="grey"> m_conf</text>
</g>
<!-- Node4 -->
<g id="Node000004" class="node">
<title>Node4</title>
<g id="a_Node000004"><a xlink:href="classdunedaq_1_1conffwk_1_1map.html" target="_top" xlink:title=" ">
<polygon fill="white" stroke="#666666" points="355.88,-247.38 206.38,-247.38 206.38,-216.88 355.88,-216.88 355.88,-247.38"/>
<text text-anchor="start" x="214.38" y="-233.88" font-family="Helvetica,sans-Serif" font-size="10.00">dunedaq::conffwk::map</text>
<text text-anchor="middle" x="281.12" y="-222.62" font-family="Helvetica,sans-Serif" font-size="10.00">&lt; dunedaq::conffwk::class_t * &gt;</text>
</a>
</g>
</g>
<!-- Node4&#45;&gt;Node3 -->
<g id="edge3_Node000003_Node000004" class="edge">
<title>Node4&#45;&gt;Node3</title>
<g id="a_edge3_Node000003_Node000004"><a xlink:title=" ">
<path fill="none" stroke="#9a32cd" stroke-dasharray="5,2" d="M367.33,-222.1C399.91,-217.7 437.32,-211.97 471,-205.12 492.59,-200.74 516.49,-194.44 535.3,-189.14"/>
<polygon fill="#9a32cd" stroke="#9a32cd" points="366.97,-218.62 357.52,-223.4 367.89,-225.55 366.97,-218.62"/>
</a>
</g>
<text text-anchor="start" x="383.25" y="-255.62" font-family="Helvetica,sans-Serif" font-size="10.00" fill="grey"> p_all_classes_desc</text>
<text text-anchor="middle" x="427.12" y="-244.38" font-family="Helvetica,sans-Serif" font-size="10.00" fill="grey">_cache</text>
<text text-anchor="start" x="383.25" y="-233.12" font-family="Helvetica,sans-Serif" font-size="10.00" fill="grey">p_direct_classes</text>
<text text-anchor="middle" x="427.12" y="-221.88" font-family="Helvetica,sans-Serif" font-size="10.00" fill="grey">_desc_cache</text>
</g>
<!-- Node5 -->
<g id="Node000005" class="node">
<title>Node5</title>
<g id="a_Node000005"><a xlink:title=" ">
<polygon fill="white" stroke="#666666" points="134.12,-261 25.88,-261 25.88,-219.25 134.12,-219.25 134.12,-261"/>
<text text-anchor="start" x="33.88" y="-247.5" font-family="Helvetica,sans-Serif" font-size="10.00">std::unordered_map</text>
<text text-anchor="start" x="33.88" y="-236.25" font-family="Helvetica,sans-Serif" font-size="10.00">&lt; std::string, dunedaq</text>
<text text-anchor="middle" x="80" y="-225" font-family="Helvetica,sans-Serif" font-size="10.00">::conffwk::class_t * &gt;</text>
</a>
</g>
</g>
<!-- Node5&#45;&gt;Node4 -->
<g id="edge4_Node000004_Node000005" class="edge">
<title>Node5&#45;&gt;Node4</title>
<g id="a_edge4_Node000004_Node000005"><a xlink:title=" ">
<path fill="none" stroke="#63b8ff" d="M146.01,-237.51C165.25,-236.74 186.45,-235.89 206.21,-235.09"/>
<polygon fill="#63b8ff" stroke="#63b8ff" points="145.99,-234.01 136.14,-237.91 146.27,-241.01 145.99,-234.01"/>
</a>
</g>
</g>
<!-- Node6 -->
<g id="Node000006" class="node">
<title>Node6</title>
<g id="a_Node000006"><a xlink:href="classdunedaq_1_1conffwk_1_1fmap.html" target="_top" xlink:title=" ">
<polygon fill="white" stroke="#666666" points="339.75,-194.38 222.5,-194.38 222.5,-163.88 339.75,-163.88 339.75,-194.38"/>
<text text-anchor="start" x="230.5" y="-180.88" font-family="Helvetica,sans-Serif" font-size="10.00">dunedaq::conffwk::fmap</text>
<text text-anchor="middle" x="281.12" y="-169.62" font-family="Helvetica,sans-Serif" font-size="10.00">&lt; conffwk::fset &gt;</text>
</a>
</g>
</g>
<!-- Node6&#45;&gt;Node3 -->
<g id="edge5_Node000003_Node000006" class="edge">
<title>Node6&#45;&gt;Node3</title>
<g id="a_edge5_Node000003_Node000006"><a xlink:title=" ">
<path fill="none" stroke="#9a32cd" stroke-dasharray="5,2" d="M351.71,-179.12C394.73,-179.12 449.93,-179.12 493.95,-179.12"/>
<polygon fill="#9a32cd" stroke="#9a32cd" points="351.72,-175.63 341.72,-179.13 351.72,-182.63 351.72,-175.63"/>
</a>
</g>
<text text-anchor="middle" x="427.12" y="-192.12" font-family="Helvetica,sans-Serif" font-size="10.00" fill="grey"> p_subclasses</text>
<text text-anchor="middle" x="427.12" y="-180.88" font-family="Helvetica,sans-Serif" font-size="10.00" fill="grey">p_superclasses</text>
</g>
<!-- Node7 -->
<g id="Node000007" class="node">
<title>Node7</title>
<g id="a_Node000007"><a xlink:title=" ">
<polygon fill="white" stroke="#666666" points="136.75,-201.62 23.25,-201.62 23.25,-148.62 136.75,-148.62 136.75,-201.62"/>
<text text-anchor="start" x="31.25" y="-188.12" font-family="Helvetica,sans-Serif" font-size="10.00">std::unordered_map</text>
<text text-anchor="start" x="31.25" y="-176.88" font-family="Helvetica,sans-Serif" font-size="10.00">&lt; const std::string</text>
<text text-anchor="start" x="31.25" y="-165.62" font-family="Helvetica,sans-Serif" font-size="10.00"> *, conffwk::fset , string</text>
<text text-anchor="middle" x="80" y="-154.38" font-family="Helvetica,sans-Serif" font-size="10.00">_ptr_hash &gt;</text>
</a>
</g>
</g>
<!-- Node7&#45;&gt;Node6 -->
<g id="edge6_Node000006_Node000007" class="edge">
<title>Node7&#45;&gt;Node6</title>
<g id="a_edge6_Node000006_Node000007"><a xlink:title=" ">
<path fill="none" stroke="#63b8ff" d="M148.49,-176.48C172.4,-176.96 199.07,-177.5 222.12,-177.96"/>
<polygon fill="#63b8ff" stroke="#63b8ff" points="148.58,-172.98 138.51,-176.28 148.44,-179.98 148.58,-172.98"/>
</a>
</g>
</g>
<!-- Node8 -->
<g id="Node000008" class="node">
<title>Node8</title>
<g id="a_Node000008"><a xlink:href="classdunedaq_1_1conffwk_1_1map.html" target="_top" xlink:title=" ">
<polygon fill="white" stroke="#666666" points="342,-146.25 220.25,-146.25 220.25,-82 342,-82 342,-146.25"/>
<text text-anchor="start" x="228.25" y="-132.75" font-family="Helvetica,sans-Serif" font-size="10.00">dunedaq::conffwk::map</text>
<text text-anchor="start" x="228.25" y="-121.5" font-family="Helvetica,sans-Serif" font-size="10.00">&lt; std::list&lt; dunedaq</text>
<text text-anchor="start" x="228.25" y="-110.25" font-family="Helvetica,sans-Serif" font-size="10.00">::conffwk::Configuration</text>
<text text-anchor="start" x="228.25" y="-99" font-family="Helvetica,sans-Serif" font-size="10.00">::AttributeConverterBase</text>
<text text-anchor="middle" x="281.12" y="-87.75" font-family="Helvetica,sans-Serif" font-size="10.00"> * &gt; * &gt;</text>
</a>
</g>
</g>
<!-- Node8&#45;&gt;Node3 -->
<g id="edge7_Node000003_Node000008" class="edge">
<title>Node8&#45;&gt;Node3</title>
<g id="a_edge7_Node000003_Node000008"><a xlink:title=" ">
<path fill="none" stroke="#9a32cd" stroke-dasharray="5,2" d="M353.44,-130.28C407.04,-142.42 478.81,-158.67 524.52,-169.02"/>
<polygon fill="#9a32cd" stroke="#9a32cd" points="354.29,-126.88 343.77,-128.09 352.75,-133.71 354.29,-126.88"/>
</a>
</g>
<text text-anchor="middle" x="427.12" y="-158.88" font-family="Helvetica,sans-Serif" font-size="10.00" fill="grey"> m_convert_map</text>
</g>
<!-- Node9 -->
<g id="Node000009" class="node">
<title>Node9</title>
<g id="a_Node000009"><a xlink:title=" ">
<polygon fill="white" stroke="#666666" points="160,-130.25 0,-130.25 0,-66 160,-66 160,-130.25"/>
<text text-anchor="start" x="8" y="-116.75" font-family="Helvetica,sans-Serif" font-size="10.00">std::unordered_map</text>
<text text-anchor="start" x="8" y="-105.5" font-family="Helvetica,sans-Serif" font-size="10.00">&lt; std::string, std::</text>
<text text-anchor="start" x="8" y="-94.25" font-family="Helvetica,sans-Serif" font-size="10.00">list&lt; dunedaq::conffwk</text>
<text text-anchor="start" x="8" y="-83" font-family="Helvetica,sans-Serif" font-size="10.00">::Configuration::AttributeConverter</text>
<text text-anchor="middle" x="80" y="-71.75" font-family="Helvetica,sans-Serif" font-size="10.00">Base * &gt; * &gt;</text>
</a>
</g>
</g>
<!-- Node9&#45;&gt;Node8 -->
<g id="edge8_Node000008_Node000009" class="edge">
<title>Node9&#45;&gt;Node8</title>
<g id="a_edge8_Node000008_Node000009"><a xlink:title=" ">
<path fill="none" stroke="#63b8ff" d="M171.53,-105.4C187.91,-106.72 204.61,-108.06 219.85,-109.28"/>
<polygon fill="#63b8ff" stroke="#63b8ff" points="172.03,-101.93 161.78,-104.62 171.47,-108.91 172.03,-101.93"/>
</a>
</g>
</g>
<!-- Node10 -->
<g id="Node000010" class="node">
<title>Node10</title>
<g id="a_Node000010"><a xlink:href="classdunedaq_1_1conffwk_1_1fmap.html" target="_top" xlink:title=" ">
<polygon fill="white" stroke="#666666" points="365.25,-322.38 197,-322.38 197,-291.88 365.25,-291.88 365.25,-322.38"/>
<text text-anchor="start" x="205" y="-308.88" font-family="Helvetica,sans-Serif" font-size="10.00">dunedaq::conffwk::fmap</text>
<text text-anchor="middle" x="281.12" y="-297.62" font-family="Helvetica,sans-Serif" font-size="10.00">&lt; dunedaq::conffwk::CacheBase * &gt;</text>
</a>
</g>
</g>
<!-- Node10&#45;&gt;Node3 -->
<g id="edge9_Node000003_Node000010" class="edge">
<title>Node10&#45;&gt;Node3</title>
<g id="a_edge9_Node000003_Node000010"><a xlink:title=" ">
<path fill="none" stroke="#9a32cd" stroke-dasharray="5,2" d="M376.66,-307.41C410.01,-302.91 445.51,-292.24 471,-269.12 491.31,-250.71 470.34,-230.21 489,-210.12 497.94,-200.51 510.2,-193.84 522.44,-189.23"/>
<polygon fill="#9a32cd" stroke="#9a32cd" points="376.48,-303.91 366.95,-308.54 377.29,-310.86 376.48,-303.91"/>
</a>
</g>
<text text-anchor="middle" x="427.12" y="-307.88" font-family="Helvetica,sans-Serif" font-size="10.00" fill="grey"> m_cache_map</text>
</g>
<!-- Node11 -->
<g id="Node000011" class="node">
<title>Node11</title>
<g id="a_Node000011"><a xlink:title=" ">
<polygon fill="white" stroke="#666666" points="133,-343.25 27,-343.25 27,-279 133,-279 133,-343.25"/>
<text text-anchor="start" x="35" y="-329.75" font-family="Helvetica,sans-Serif" font-size="10.00">std::unordered_map</text>
<text text-anchor="start" x="35" y="-318.5" font-family="Helvetica,sans-Serif" font-size="10.00">&lt; const std::string</text>
<text text-anchor="start" x="35" y="-307.25" font-family="Helvetica,sans-Serif" font-size="10.00"> *, dunedaq::conffwk</text>
<text text-anchor="start" x="35" y="-296" font-family="Helvetica,sans-Serif" font-size="10.00">::CacheBase *, string</text>
<text text-anchor="middle" x="80" y="-284.75" font-family="Helvetica,sans-Serif" font-size="10.00">_ptr_hash &gt;</text>
</a>
</g>
</g>
<!-- Node11&#45;&gt;Node10 -->
<g id="edge10_Node000010_Node000011" class="edge">
<title>Node11&#45;&gt;Node10</title>
<g id="a_edge10_Node000010_Node000011"><a xlink:title=" ">
<path fill="none" stroke="#63b8ff" d="M144.51,-309.85C161.06,-309.52 179.16,-309.15 196.58,-308.8"/>
<polygon fill="#63b8ff" stroke="#63b8ff" points="144.76,-306.34 134.83,-310.04 144.9,-313.34 144.76,-306.34"/>
</a>
</g>
</g>
<!-- Node12&#45;&gt;Node3 -->
<g id="edge11_Node000003_Node000012" class="edge">
<title>Node12&#45;&gt;Node3</title>
<g id="a_edge11_Node000003_Node000012"><a xlink:title=" ">
<path fill="none" stroke="#9a32cd" stroke-dasharray="5,2" d="M745.83,-125.16C720.66,-125.34 693.73,-127.34 669.25,-132.88 638.21,-139.9 605.39,-157.8 586.66,-169.16"/>
<polygon fill="#9a32cd" stroke="#9a32cd" points="745.73,-128.66 755.75,-125.2 745.76,-121.66 745.73,-128.66"/>
</a>
</g>
<text text-anchor="middle" x="704.5" y="-134.88" font-family="Helvetica,sans-Serif" font-size="10.00" fill="grey"> m_impl</text>
</g>
<!-- Node13 -->
<g id="Node000013" class="node">
<title>Node13</title>
<g id="a_Node000013"><a xlink:href="classdunedaq_1_1conffwk_1_1pmap.html" target="_top" xlink:title=" ">
<polygon fill="white" stroke="#666666" points="649.75,-84.62 490.5,-84.62 490.5,-31.62 649.75,-31.62 649.75,-84.62"/>
<text text-anchor="start" x="498.5" y="-71.12" font-family="Helvetica,sans-Serif" font-size="10.00">dunedaq::conffwk::pmap</text>
<text text-anchor="start" x="498.5" y="-59.88" font-family="Helvetica,sans-Serif" font-size="10.00">&lt; dunedaq::conffwk::map</text>
<text text-anchor="start" x="498.5" y="-48.62" font-family="Helvetica,sans-Serif" font-size="10.00">&lt; dunedaq::conffwk::ConfigObject</text>
<text text-anchor="middle" x="570.12" y="-37.38" font-family="Helvetica,sans-Serif" font-size="10.00">Impl * &gt; * &gt;</text>
</a>
</g>
</g>
<!-- Node13&#45;&gt;Node12 -->
<g id="edge12_Node000012_Node000013" class="edge">
<title>Node13&#45;&gt;Node12</title>
<g id="a_edge12_Node000012_Node000013"><a xlink:title=" ">
<path fill="none" stroke="#9a32cd" stroke-dasharray="5,2" d="M661.15,-82.72C710.15,-96.11 768.12,-111.94 804.97,-122.01"/>
<polygon fill="#9a32cd" stroke="#9a32cd" points="662.23,-79.39 651.66,-80.13 660.39,-86.14 662.23,-79.39"/>
</a>
</g>
<text text-anchor="middle" x="704.5" y="-105.88" font-family="Helvetica,sans-Serif" font-size="10.00" fill="grey"> m_impl_objects</text>
</g>
<!-- Node14 -->
<g id="Node000014" class="node">
<title>Node14</title>
<g id="a_Node000014"><a xlink:title=" ">
<polygon fill="white" stroke="#666666" points="348.75,-64.25 213.5,-64.25 213.5,0 348.75,0 348.75,-64.25"/>
<text text-anchor="start" x="221.5" y="-50.75" font-family="Helvetica,sans-Serif" font-size="10.00">std::map&lt; const std</text>
<text text-anchor="start" x="221.5" y="-39.5" font-family="Helvetica,sans-Serif" font-size="10.00">::string *, dunedaq</text>
<text text-anchor="start" x="221.5" y="-28.25" font-family="Helvetica,sans-Serif" font-size="10.00">::conffwk::map&lt; dunedaq</text>
<text text-anchor="start" x="221.5" y="-17" font-family="Helvetica,sans-Serif" font-size="10.00">::conffwk::ConfigObjectImpl</text>
<text text-anchor="middle" x="281.12" y="-5.75" font-family="Helvetica,sans-Serif" font-size="10.00"> * &gt; * , string_ptr_compare &gt;</text>
</a>
</g>
</g>
<!-- Node14&#45;&gt;Node13 -->
<g id="edge13_Node000013_Node000014" class="edge">
<title>Node14&#45;&gt;Node13</title>
<g id="a_edge13_Node000013_Node000014"><a xlink:title=" ">
<path fill="none" stroke="#63b8ff" d="M360.44,-39.22C400.73,-42.87 449.72,-47.31 490.11,-50.97"/>
<polygon fill="#63b8ff" stroke="#63b8ff" points="360.83,-35.74 350.56,-38.32 360.2,-42.71 360.83,-35.74"/>
</a>
</g>
</g>
</g>
</svg>
