<?xml version="1.0" encoding="UTF-8" standalone="no"?>
<!DOCTYPE svg PUBLIC "-//W3C//DTD SVG 1.1//EN"
 "http://www.w3.org/Graphics/SVG/1.1/DTD/svg11.dtd">
<!-- Generated by graphviz version 9.0.0 (20230911.1827)
 -->
<!-- Title: dunedaq::appmodel::DPDKReaderModule Pages: 1 -->
<svg width="2290pt" height="339pt"
 viewBox="0.00 0.00 2289.50 339.25" xmlns="http://www.w3.org/2000/svg" xmlns:xlink="http://www.w3.org/1999/xlink">
<g id="graph0" class="graph" transform="scale(1 1) rotate(0) translate(4 335.25)">
<title>dunedaq::appmodel::DPDKReaderModule</title>
<!-- Node1 -->
<g id="Node000001" class="node">
<title>Node1</title>
<g id="a_Node000001"><a xlink:title=" ">
<polygon fill="#999999" stroke="#666666" points="2281.5,-255.38 2176.25,-255.38 2176.25,-224.88 2281.5,-224.88 2281.5,-255.38"/>
<text text-anchor="start" x="2184.25" y="-241.88" font-family="Helvetica,sans-Serif" font-size="10.00">dunedaq::appmodel::</text>
<text text-anchor="middle" x="2228.88" y="-230.62" font-family="Helvetica,sans-Serif" font-size="10.00">DPDKReaderModule</text>
</a>
</g>
</g>
<!-- Node2 -->
<g id="Node000002" class="node">
<title>Node2</title>
<g id="a_Node000002"><a xlink:href="classdunedaq_1_1appmodel_1_1DataReaderModule.html" target="_top" xlink:title=" ">
<polygon fill="white" stroke="#666666" points="2139.25,-255.38 2035.5,-255.38 2035.5,-224.88 2139.25,-224.88 2139.25,-255.38"/>
<text text-anchor="start" x="2043.5" y="-241.88" font-family="Helvetica,sans-Serif" font-size="10.00">dunedaq::appmodel::</text>
<text text-anchor="middle" x="2087.38" y="-230.62" font-family="Helvetica,sans-Serif" font-size="10.00">DataReaderModule</text>
</a>
</g>
</g>
<!-- Node2&#45;&gt;Node1 -->
<g id="edge1_Node000001_Node000002" class="edge">
<title>Node2&#45;&gt;Node1</title>
<g id="a_edge1_Node000001_Node000002"><a xlink:title=" ">
<path fill="none" stroke="#63b8ff" d="M2150.79,-233.41C2159.14,-233.33 2167.64,-233.39 2175.79,-233.57"/>
<polygon fill="#63b8ff" stroke="#63b8ff" points="2150.98,-229.9 2141.04,-233.57 2151.1,-236.9 2150.98,-229.9"/>
</a>
</g>
</g>
<!-- Node2&#45;&gt;Node1 -->
<g id="edge28_Node000001_Node000002" class="edge">
<title>Node2&#45;&gt;Node1</title>
<g id="a_edge28_Node000001_Node000002"><a xlink:title=" ">
<path fill="none" stroke="#63b8ff" d="M2150.79,-246.84C2159.14,-246.92 2167.64,-246.86 2175.79,-246.68"/>
<polygon fill="#63b8ff" stroke="#63b8ff" points="2151.1,-243.35 2141.04,-246.68 2150.98,-250.35 2151.1,-243.35"/>
</a>
</g>
</g>
<!-- Node3 -->
<g id="Node000003" class="node">
<title>Node3</title>
<g id="a_Node000003"><a xlink:href="classdunedaq_1_1confmodel_1_1DaqModule.html" target="_top" xlink:title=" ">
<polygon fill="white" stroke="#666666" points="1807.25,-255.38 1705,-255.38 1705,-224.88 1807.25,-224.88 1807.25,-255.38"/>
<text text-anchor="start" x="1713" y="-241.88" font-family="Helvetica,sans-Serif" font-size="10.00">dunedaq::confmodel</text>
<text text-anchor="middle" x="1756.12" y="-230.62" font-family="Helvetica,sans-Serif" font-size="10.00">::DaqModule</text>
</a>
</g>
</g>
<!-- Node3&#45;&gt;Node2 -->
<g id="edge2_Node000002_Node000003" class="edge">
<title>Node3&#45;&gt;Node2</title>
<g id="a_edge2_Node000002_Node000003"><a xlink:title=" ">
<path fill="none" stroke="#63b8ff" d="M1818.75,-234.72C1881.23,-232.82 1976.78,-232.93 2035.2,-235.07"/>
<polygon fill="#63b8ff" stroke="#63b8ff" points="1818.88,-231.22 1809,-235.05 1819.11,-238.21 1818.88,-231.22"/>
</a>
</g>
</g>
<!-- Node3&#45;&gt;Node2 -->
<g id="edge21_Node000002_Node000003" class="edge">
<title>Node3&#45;&gt;Node2</title>
<g id="a_edge21_Node000002_Node000003"><a xlink:title=" ">
<path fill="none" stroke="#63b8ff" d="M1818.75,-245.53C1881.23,-247.43 1976.78,-247.32 2035.2,-245.18"/>
<polygon fill="#63b8ff" stroke="#63b8ff" points="1819.11,-242.04 1809,-245.2 1818.88,-249.03 1819.11,-242.04"/>
</a>
</g>
</g>
<!-- Node4 -->
<g id="Node000004" class="node">
<title>Node4</title>
<g id="a_Node000004"><a xlink:href="classdunedaq_1_1conffwk_1_1DalObject.html" target="_top" xlink:title="The base class for any generated DAL object.">
<polygon fill="white" stroke="#666666" points="1509.5,-193.75 1371.25,-193.75 1371.25,-174.5 1509.5,-174.5 1509.5,-193.75"/>
<text text-anchor="middle" x="1440.38" y="-180.25" font-family="Helvetica,sans-Serif" font-size="10.00">dunedaq::conffwk::DalObject</text>
</a>
</g>
</g>
<!-- Node4&#45;&gt;Node3 -->
<g id="edge3_Node000003_Node000004" class="edge">
<title>Node4&#45;&gt;Node3</title>
<g id="a_edge3_Node000003_Node000004"><a xlink:title=" ">
<path fill="none" stroke="#63b8ff" d="M1520.95,-196.73C1523.15,-197.22 1525.34,-197.68 1527.5,-198.12 1587.93,-210.53 1658.33,-219.98 1704.65,-227.5"/>
<polygon fill="#63b8ff" stroke="#63b8ff" points="1521.84,-193.35 1511.31,-194.55 1520.29,-200.17 1521.84,-193.35"/>
</a>
</g>
</g>
<!-- Node4&#45;&gt;Node3 -->
<g id="edge20_Node000003_Node000004" class="edge">
<title>Node4&#45;&gt;Node3</title>
<g id="a_edge20_Node000003_Node000004"><a xlink:title=" ">
<path fill="none" stroke="#63b8ff" d="M1464.33,-198.48C1481.58,-205.04 1505.86,-211.68 1527.5,-216.12 1587.93,-228.53 1658.33,-237.98 1704.65,-241.55"/>
<polygon fill="#63b8ff" stroke="#63b8ff" points="1466.08,-195.42 1455.5,-194.78 1463.37,-201.87 1466.08,-195.42"/>
</a>
</g>
</g>
<!-- Node19 -->
<g id="Node000019" class="node">
<title>Node19</title>
<g id="a_Node000019"><a xlink:href="classdunedaq_1_1appmodel_1_1DataReaderConf.html" target="_top" xlink:title=" ">
<polygon fill="white" stroke="#666666" points="1929,-199.38 1825.25,-199.38 1825.25,-168.88 1929,-168.88 1929,-199.38"/>
<text text-anchor="start" x="1833.25" y="-185.88" font-family="Helvetica,sans-Serif" font-size="10.00">dunedaq::appmodel::</text>
<text text-anchor="middle" x="1877.12" y="-174.62" font-family="Helvetica,sans-Serif" font-size="10.00">DataReaderConf</text>
</a>
</g>
</g>
<!-- Node4&#45;&gt;Node19 -->
<g id="edge23_Node000019_Node000004" class="edge">
<title>Node4&#45;&gt;Node19</title>
<g id="a_edge23_Node000019_Node000004"><a xlink:title=" ">
<path fill="none" stroke="#63b8ff" d="M1521.11,-178.76C1609.6,-176.67 1749.78,-176.94 1824.78,-179.58"/>
<polygon fill="#63b8ff" stroke="#63b8ff" points="1521.2,-175.26 1511.3,-179.01 1521.38,-182.26 1521.2,-175.26"/>
</a>
</g>
</g>
<!-- Node4&#45;&gt;Node19 -->
<g id="edge24_Node000019_Node000004" class="edge">
<title>Node4&#45;&gt;Node19</title>
<g id="a_edge24_Node000019_Node000004"><a xlink:title=" ">
<path fill="none" stroke="#63b8ff" d="M1521.11,-189.49C1609.6,-191.58 1749.78,-191.31 1824.78,-188.67"/>
<polygon fill="#63b8ff" stroke="#63b8ff" points="1521.38,-185.99 1511.3,-189.24 1521.2,-192.99 1521.38,-185.99"/>
</a>
</g>
</g>
<!-- Node20 -->
<g id="Node000020" class="node">
<title>Node20</title>
<g id="a_Node000020"><a xlink:href="classdunedaq_1_1appmodel_1_1StreamEmulationParameters.html" target="_top" xlink:title=" ">
<polygon fill="white" stroke="#666666" points="1687,-147.38 1546.5,-147.38 1546.5,-116.88 1687,-116.88 1687,-147.38"/>
<text text-anchor="start" x="1554.5" y="-133.88" font-family="Helvetica,sans-Serif" font-size="10.00">dunedaq::appmodel::</text>
<text text-anchor="middle" x="1616.75" y="-122.62" font-family="Helvetica,sans-Serif" font-size="10.00">StreamEmulationParameters</text>
</a>
</g>
</g>
<!-- Node4&#45;&gt;Node20 -->
<g id="edge26_Node000020_Node000004" class="edge">
<title>Node4&#45;&gt;Node20</title>
<g id="a_edge26_Node000020_Node000004"><a xlink:title=" ">
<path fill="none" stroke="#63b8ff" d="M1470.98,-170.08C1491.64,-162.6 1520.11,-153.64 1546.34,-146.2"/>
<polygon fill="#63b8ff" stroke="#63b8ff" points="1469.92,-166.74 1461.79,-173.53 1472.38,-173.29 1469.92,-166.74"/>
</a>
</g>
</g>
<!-- Node4&#45;&gt;Node20 -->
<g id="edge27_Node000020_Node000004" class="edge">
<title>Node4&#45;&gt;Node20</title>
<g id="a_edge27_Node000020_Node000004"><a xlink:title=" ">
<path fill="none" stroke="#63b8ff" d="M1507.54,-170.97C1532.72,-163.89 1560.4,-155.28 1581.46,-147.85"/>
<polygon fill="#63b8ff" stroke="#63b8ff" points="1506.72,-167.56 1498.01,-173.6 1508.58,-174.31 1506.72,-167.56"/>
</a>
</g>
</g>
<!-- Node5 -->
<g id="Node000005" class="node">
<title>Node5</title>
<g id="a_Node000005"><a xlink:href="classdunedaq_1_1conffwk_1_1Configuration.html" target="_top" xlink:title=" ">
<polygon fill="white" stroke="#666666" points="644.5,-194.75 492.75,-194.75 492.75,-175.5 644.5,-175.5 644.5,-194.75"/>
<text text-anchor="middle" x="568.62" y="-181.25" font-family="Helvetica,sans-Serif" font-size="10.00">dunedaq::conffwk::Configuration</text>
</a>
</g>
</g>
<!-- Node5&#45;&gt;Node4 -->
<g id="edge4_Node000004_Node000005" class="edge">
<title>Node5&#45;&gt;Node4</title>
<g id="a_edge4_Node000004_Node000005"><a xlink:title=" ">
<path fill="none" stroke="#9a32cd" stroke-dasharray="5,2" d="M656.08,-176.89C708.87,-172.55 777.77,-168.12 839,-168.12 839,-168.12 839,-168.12 1249.5,-168.12 1289.86,-168.12 1334.87,-171.76 1370.94,-175.56"/>
<polygon fill="#9a32cd" stroke="#9a32cd" points="655.91,-173.39 646.24,-177.72 656.49,-180.37 655.91,-173.39"/>
</a>
</g>
<text text-anchor="middle" x="1056.25" y="-169.88" font-family="Helvetica,sans-Serif" font-size="10.00" fill="grey"> p_db</text>
</g>
<!-- Node14 -->
<g id="Node000014" class="node">
<title>Node14</title>
<g id="a_Node000014"><a xlink:href="classdunedaq_1_1conffwk_1_1ConfigurationImpl.html" target="_top" xlink:title="Provides pure virtual interface used by the Configuration class.">
<polygon fill="white" stroke="#666666" points="925.25,-241.75 754.75,-241.75 754.75,-222.5 925.25,-222.5 925.25,-241.75"/>
<text text-anchor="middle" x="840" y="-228.25" font-family="Helvetica,sans-Serif" font-size="10.00">dunedaq::conffwk::ConfigurationImpl</text>
</a>
</g>
</g>
<!-- Node5&#45;&gt;Node14 -->
<g id="edge16_Node000014_Node000005" class="edge">
<title>Node5&#45;&gt;Node14</title>
<g id="a_edge16_Node000014_Node000005"><a xlink:title=" ">
<path fill="none" stroke="#9a32cd" stroke-dasharray="5,2" d="M610.1,-198.54C627.25,-203.78 647.56,-209.42 666.25,-213.12 694.81,-218.79 726.38,-222.88 754.64,-225.79"/>
<polygon fill="#9a32cd" stroke="#9a32cd" points="611.36,-195.27 600.77,-195.63 609.27,-201.95 611.36,-195.27"/>
</a>
</g>
<text text-anchor="middle" x="701.5" y="-224.88" font-family="Helvetica,sans-Serif" font-size="10.00" fill="grey"> m_conf</text>
</g>
<!-- Node6 -->
<g id="Node000006" class="node">
<title>Node6</title>
<g id="a_Node000006"><a xlink:href="classdunedaq_1_1conffwk_1_1map.html" target="_top" xlink:title=" ">
<polygon fill="white" stroke="#666666" points="355.88,-249.38 206.38,-249.38 206.38,-218.88 355.88,-218.88 355.88,-249.38"/>
<text text-anchor="start" x="214.38" y="-235.88" font-family="Helvetica,sans-Serif" font-size="10.00">dunedaq::conffwk::map</text>
<text text-anchor="middle" x="281.12" y="-224.62" font-family="Helvetica,sans-Serif" font-size="10.00">&lt; dunedaq::conffwk::class_t * &gt;</text>
</a>
</g>
</g>
<!-- Node6&#45;&gt;Node5 -->
<g id="edge5_Node000005_Node000006" class="edge">
<title>Node6&#45;&gt;Node5</title>
<g id="a_edge5_Node000005_Node000006"><a xlink:title=" ">
<path fill="none" stroke="#9a32cd" stroke-dasharray="5,2" d="M367.37,-226.34C399.95,-222.68 437.35,-217.67 471,-211.12 492.49,-206.95 516.23,-200.58 534.8,-195.2"/>
<polygon fill="#9a32cd" stroke="#9a32cd" points="367.12,-222.84 357.56,-227.41 367.88,-229.8 367.12,-222.84"/>
</a>
</g>
<text text-anchor="start" x="383.25" y="-259.62" font-family="Helvetica,sans-Serif" font-size="10.00" fill="grey"> p_all_classes_desc</text>
<text text-anchor="middle" x="427.12" y="-248.38" font-family="Helvetica,sans-Serif" font-size="10.00" fill="grey">_cache</text>
<text text-anchor="start" x="383.25" y="-237.12" font-family="Helvetica,sans-Serif" font-size="10.00" fill="grey">p_direct_classes</text>
<text text-anchor="middle" x="427.12" y="-225.88" font-family="Helvetica,sans-Serif" font-size="10.00" fill="grey">_desc_cache</text>
</g>
<!-- Node7 -->
<g id="Node000007" class="node">
<title>Node7</title>
<g id="a_Node000007"><a xlink:title=" ">
<polygon fill="white" stroke="#666666" points="134.12,-277 25.88,-277 25.88,-235.25 134.12,-235.25 134.12,-277"/>
<text text-anchor="start" x="33.88" y="-263.5" font-family="Helvetica,sans-Serif" font-size="10.00">std::unordered_map</text>
<text text-anchor="start" x="33.88" y="-252.25" font-family="Helvetica,sans-Serif" font-size="10.00">&lt; std::string, dunedaq</text>
<text text-anchor="middle" x="80" y="-241" font-family="Helvetica,sans-Serif" font-size="10.00">::conffwk::class_t * &gt;</text>
</a>
</g>
</g>
<!-- Node7&#45;&gt;Node6 -->
<g id="edge6_Node000006_Node000007" class="edge">
<title>Node7&#45;&gt;Node6</title>
<g id="a_edge6_Node000006_Node000007"><a xlink:title=" ">
<path fill="none" stroke="#63b8ff" d="M146.01,-248.94C165.25,-246.82 186.45,-244.47 206.21,-242.29"/>
<polygon fill="#63b8ff" stroke="#63b8ff" points="145.68,-245.46 136.13,-250.03 146.45,-252.41 145.68,-245.46"/>
</a>
</g>
</g>
<!-- Node8 -->
<g id="Node000008" class="node">
<title>Node8</title>
<g id="a_Node000008"><a xlink:href="classdunedaq_1_1conffwk_1_1fmap.html" target="_top" xlink:title=" ">
<polygon fill="white" stroke="#666666" points="339.75,-200.38 222.5,-200.38 222.5,-169.88 339.75,-169.88 339.75,-200.38"/>
<text text-anchor="start" x="230.5" y="-186.88" font-family="Helvetica,sans-Serif" font-size="10.00">dunedaq::conffwk::fmap</text>
<text text-anchor="middle" x="281.12" y="-175.62" font-family="Helvetica,sans-Serif" font-size="10.00">&lt; conffwk::fset &gt;</text>
</a>
</g>
</g>
<!-- Node8&#45;&gt;Node5 -->
<g id="edge7_Node000005_Node000008" class="edge">
<title>Node8&#45;&gt;Node5</title>
<g id="a_edge7_Node000005_Node000008"><a xlink:title=" ">
<path fill="none" stroke="#9a32cd" stroke-dasharray="5,2" d="M351.65,-185.12C394.28,-185.12 448.86,-185.12 492.49,-185.12"/>
<polygon fill="#9a32cd" stroke="#9a32cd" points="351.76,-181.63 341.76,-185.13 351.76,-188.63 351.76,-181.63"/>
</a>
</g>
<text text-anchor="middle" x="427.12" y="-198.12" font-family="Helvetica,sans-Serif" font-size="10.00" fill="grey"> p_subclasses</text>
<text text-anchor="middle" x="427.12" y="-186.88" font-family="Helvetica,sans-Serif" font-size="10.00" fill="grey">p_superclasses</text>
</g>
<!-- Node9 -->
<g id="Node000009" class="node">
<title>Node9</title>
<g id="a_Node000009"><a xlink:title=" ">
<polygon fill="white" stroke="#666666" points="136.75,-217.62 23.25,-217.62 23.25,-164.62 136.75,-164.62 136.75,-217.62"/>
<text text-anchor="start" x="31.25" y="-204.12" font-family="Helvetica,sans-Serif" font-size="10.00">std::unordered_map</text>
<text text-anchor="start" x="31.25" y="-192.88" font-family="Helvetica,sans-Serif" font-size="10.00">&lt; const std::string</text>
<text text-anchor="start" x="31.25" y="-181.62" font-family="Helvetica,sans-Serif" font-size="10.00"> *, conffwk::fset , string</text>
<text text-anchor="middle" x="80" y="-170.38" font-family="Helvetica,sans-Serif" font-size="10.00">_ptr_hash &gt;</text>
</a>
</g>
</g>
<!-- Node9&#45;&gt;Node8 -->
<g id="edge8_Node000008_Node000009" class="edge">
<title>Node9&#45;&gt;Node8</title>
<g id="a_edge8_Node000008_Node000009"><a xlink:title=" ">
<path fill="none" stroke="#63b8ff" d="M148.49,-189.09C172.4,-188.37 199.07,-187.57 222.12,-186.87"/>
<polygon fill="#63b8ff" stroke="#63b8ff" points="148.4,-185.59 138.51,-189.39 148.61,-192.59 148.4,-185.59"/>
</a>
</g>
</g>
<!-- Node10 -->
<g id="Node000010" class="node">
<title>Node10</title>
<g id="a_Node000010"><a xlink:href="classdunedaq_1_1conffwk_1_1map.html" target="_top" xlink:title=" ">
<polygon fill="white" stroke="#666666" points="342,-149.25 220.25,-149.25 220.25,-85 342,-85 342,-149.25"/>
<text text-anchor="start" x="228.25" y="-135.75" font-family="Helvetica,sans-Serif" font-size="10.00">dunedaq::conffwk::map</text>
<text text-anchor="start" x="228.25" y="-124.5" font-family="Helvetica,sans-Serif" font-size="10.00">&lt; std::list&lt; dunedaq</text>
<text text-anchor="start" x="228.25" y="-113.25" font-family="Helvetica,sans-Serif" font-size="10.00">::conffwk::Configuration</text>
<text text-anchor="start" x="228.25" y="-102" font-family="Helvetica,sans-Serif" font-size="10.00">::AttributeConverterBase</text>
<text text-anchor="middle" x="281.12" y="-90.75" font-family="Helvetica,sans-Serif" font-size="10.00"> * &gt; * &gt;</text>
</a>
</g>
</g>
<!-- Node10&#45;&gt;Node5 -->
<g id="edge9_Node000005_Node000010" class="edge">
<title>Node10&#45;&gt;Node5</title>
<g id="a_edge9_Node000005_Node000010"><a xlink:title=" ">
<path fill="none" stroke="#9a32cd" stroke-dasharray="5,2" d="M353.25,-134.06C407.46,-146.98 480.26,-164.32 525.55,-175.1"/>
<polygon fill="#9a32cd" stroke="#9a32cd" points="354.33,-130.73 343.8,-131.81 352.71,-137.54 354.33,-130.73"/>
</a>
</g>
<text text-anchor="middle" x="427.12" y="-162.88" font-family="Helvetica,sans-Serif" font-size="10.00" fill="grey"> m_convert_map</text>
</g>
<!-- Node11 -->
<g id="Node000011" class="node">
<title>Node11</title>
<g id="a_Node000011"><a xlink:title=" ">
<polygon fill="white" stroke="#666666" points="160,-146.25 0,-146.25 0,-82 160,-82 160,-146.25"/>
<text text-anchor="start" x="8" y="-132.75" font-family="Helvetica,sans-Serif" font-size="10.00">std::unordered_map</text>
<text text-anchor="start" x="8" y="-121.5" font-family="Helvetica,sans-Serif" font-size="10.00">&lt; std::string, std::</text>
<text text-anchor="start" x="8" y="-110.25" font-family="Helvetica,sans-Serif" font-size="10.00">list&lt; dunedaq::conffwk</text>
<text text-anchor="start" x="8" y="-99" font-family="Helvetica,sans-Serif" font-size="10.00">::Configuration::AttributeConverter</text>
<text text-anchor="middle" x="80" y="-87.75" font-family="Helvetica,sans-Serif" font-size="10.00">Base * &gt; * &gt;</text>
</a>
</g>
</g>
<!-- Node11&#45;&gt;Node10 -->
<g id="edge10_Node000010_Node000011" class="edge">
<title>Node11&#45;&gt;Node10</title>
<g id="a_edge10_Node000010_Node000011"><a xlink:title=" ">
<path fill="none" stroke="#63b8ff" d="M171.53,-115.49C187.91,-115.74 204.61,-115.99 219.85,-116.22"/>
<polygon fill="#63b8ff" stroke="#63b8ff" points="171.84,-111.99 161.78,-115.34 171.73,-118.99 171.84,-111.99"/>
</a>
</g>
</g>
<!-- Node12 -->
<g id="Node000012" class="node">
<title>Node12</title>
<g id="a_Node000012"><a xlink:href="classdunedaq_1_1conffwk_1_1fmap.html" target="_top" xlink:title=" ">
<polygon fill="white" stroke="#666666" points="365.25,-59.38 197,-59.38 197,-28.88 365.25,-28.88 365.25,-59.38"/>
<text text-anchor="start" x="205" y="-45.88" font-family="Helvetica,sans-Serif" font-size="10.00">dunedaq::conffwk::fmap</text>
<text text-anchor="middle" x="281.12" y="-34.62" font-family="Helvetica,sans-Serif" font-size="10.00">&lt; dunedaq::conffwk::CacheBase * &gt;</text>
</a>
</g>
</g>
<!-- Node12&#45;&gt;Node5 -->
<g id="edge11_Node000005_Node000012" class="edge">
<title>Node12&#45;&gt;Node5</title>
<g id="a_edge11_Node000005_Node000012"><a xlink:title=" ">
<path fill="none" stroke="#9a32cd" stroke-dasharray="5,2" d="M335.34,-63.89C345.34,-67.8 355.66,-71.98 365.25,-76.12 413.11,-96.78 425.12,-102.11 471,-126.88 500.3,-142.69 533.3,-163.19 552.16,-175.18"/>
<polygon fill="#9a32cd" stroke="#9a32cd" points="336.68,-60.65 326.09,-60.3 334.15,-67.18 336.68,-60.65"/>
</a>
</g>
<text text-anchor="middle" x="427.12" y="-127.88" font-family="Helvetica,sans-Serif" font-size="10.00" fill="grey"> m_cache_map</text>
</g>
<!-- Node13 -->
<g id="Node000013" class="node">
<title>Node13</title>
<g id="a_Node000013"><a xlink:title=" ">
<polygon fill="white" stroke="#666666" points="133,-64.25 27,-64.25 27,0 133,0 133,-64.25"/>
<text text-anchor="start" x="35" y="-50.75" font-family="Helvetica,sans-Serif" font-size="10.00">std::unordered_map</text>
<text text-anchor="start" x="35" y="-39.5" font-family="Helvetica,sans-Serif" font-size="10.00">&lt; const std::string</text>
<text text-anchor="start" x="35" y="-28.25" font-family="Helvetica,sans-Serif" font-size="10.00"> *, dunedaq::conffwk</text>
<text text-anchor="start" x="35" y="-17" font-family="Helvetica,sans-Serif" font-size="10.00">::CacheBase *, string</text>
<text text-anchor="middle" x="80" y="-5.75" font-family="Helvetica,sans-Serif" font-size="10.00">_ptr_hash &gt;</text>
</a>
</g>
</g>
<!-- Node13&#45;&gt;Node12 -->
<g id="edge12_Node000012_Node000013" class="edge">
<title>Node13&#45;&gt;Node12</title>
<g id="a_edge12_Node000012_Node000013"><a xlink:title=" ">
<path fill="none" stroke="#63b8ff" d="M144.51,-35.95C161.06,-36.95 179.16,-38.04 196.58,-39.09"/>
<polygon fill="#63b8ff" stroke="#63b8ff" points="145.02,-32.48 134.83,-35.37 144.6,-39.46 145.02,-32.48"/>
</a>
</g>
</g>
<!-- Node14&#45;&gt;Node5 -->
<g id="edge13_Node000005_Node000014" class="edge">
<title>Node14&#45;&gt;Node5</title>
<g id="a_edge13_Node000005_Node000014"><a xlink:title=" ">
<path fill="none" stroke="#9a32cd" stroke-dasharray="5,2" d="M799.44,-218.54C780.65,-212.57 757.76,-206 736.75,-201.88 706.99,-196.04 673.83,-192.18 644.94,-189.65"/>
<polygon fill="#9a32cd" stroke="#9a32cd" points="798.24,-221.82 808.83,-221.58 800.4,-215.17 798.24,-221.82"/>
</a>
</g>
<text text-anchor="middle" x="701.5" y="-202.88" font-family="Helvetica,sans-Serif" font-size="10.00" fill="grey"> m_impl</text>
</g>
<!-- Node18 -->
<g id="Node000018" class="node">
<title>Node18</title>
<g id="a_Node000018"><a xlink:href="classdunedaq_1_1conffwk_1_1ConfigObjectImpl.html" target="_top" xlink:title="Implements database objects.">
<polygon fill="white" stroke="#666666" points="1117.5,-239.38 995,-239.38 995,-208.88 1117.5,-208.88 1117.5,-239.38"/>
<text text-anchor="start" x="1003" y="-225.88" font-family="Helvetica,sans-Serif" font-size="10.00">dunedaq::conffwk::Config</text>
<text text-anchor="middle" x="1056.25" y="-214.62" font-family="Helvetica,sans-Serif" font-size="10.00">ObjectImpl</text>
</a>
</g>
</g>
<!-- Node14&#45;&gt;Node18 -->
<g id="edge19_Node000018_Node000014" class="edge">
<title>Node14&#45;&gt;Node18</title>
<g id="a_edge19_Node000018_Node000014"><a xlink:title=" ">
<path fill="none" stroke="#9a32cd" stroke-dasharray="5,2" d="M937.12,-228.54C956.67,-227.81 976.73,-227.06 994.63,-226.39"/>
<polygon fill="#9a32cd" stroke="#9a32cd" points="937.05,-225.04 927.19,-228.91 937.31,-232.03 937.05,-225.04"/>
</a>
</g>
<text text-anchor="middle" x="960.12" y="-229.88" font-family="Helvetica,sans-Serif" font-size="10.00" fill="grey"> m_impl</text>
</g>
<!-- Node15 -->
<g id="Node000015" class="node">
<title>Node15</title>
<g id="a_Node000015"><a xlink:href="classdunedaq_1_1conffwk_1_1pmap.html" target="_top" xlink:title=" ">
<polygon fill="white" stroke="#666666" points="648.25,-317.62 489,-317.62 489,-264.62 648.25,-264.62 648.25,-317.62"/>
<text text-anchor="start" x="497" y="-304.12" font-family="Helvetica,sans-Serif" font-size="10.00">dunedaq::conffwk::pmap</text>
<text text-anchor="start" x="497" y="-292.88" font-family="Helvetica,sans-Serif" font-size="10.00">&lt; dunedaq::conffwk::map</text>
<text text-anchor="start" x="497" y="-281.62" font-family="Helvetica,sans-Serif" font-size="10.00">&lt; dunedaq::conffwk::ConfigObject</text>
<text text-anchor="middle" x="568.62" y="-270.38" font-family="Helvetica,sans-Serif" font-size="10.00">Impl * &gt; * &gt;</text>
</a>
</g>
</g>
<!-- Node15&#45;&gt;Node14 -->
<g id="edge14_Node000014_Node000015" class="edge">
<title>Node15&#45;&gt;Node14</title>
<g id="a_edge14_Node000014_Node000015"><a xlink:title=" ">
<path fill="none" stroke="#9a32cd" stroke-dasharray="5,2" d="M659.8,-271.37C704.43,-261.6 756.41,-250.21 792.85,-242.23"/>
<polygon fill="#9a32cd" stroke="#9a32cd" points="659.12,-267.94 650.1,-273.5 660.62,-274.78 659.12,-267.94"/>
</a>
</g>
<text text-anchor="middle" x="701.5" y="-269.88" font-family="Helvetica,sans-Serif" font-size="10.00" fill="grey"> m_impl_objects</text>
</g>
<!-- Node16 -->
<g id="Node000016" class="node">
<title>Node16</title>
<g id="a_Node000016"><a xlink:title=" ">
<polygon fill="white" stroke="#666666" points="348.75,-331.25 213.5,-331.25 213.5,-267 348.75,-267 348.75,-331.25"/>
<text text-anchor="start" x="221.5" y="-317.75" font-family="Helvetica,sans-Serif" font-size="10.00">std::map&lt; const std</text>
<text text-anchor="start" x="221.5" y="-306.5" font-family="Helvetica,sans-Serif" font-size="10.00">::string *, dunedaq</text>
<text text-anchor="start" x="221.5" y="-295.25" font-family="Helvetica,sans-Serif" font-size="10.00">::conffwk::map&lt; dunedaq</text>
<text text-anchor="start" x="221.5" y="-284" font-family="Helvetica,sans-Serif" font-size="10.00">::conffwk::ConfigObjectImpl</text>
<text text-anchor="middle" x="281.12" y="-272.75" font-family="Helvetica,sans-Serif" font-size="10.00"> * &gt; * , string_ptr_compare &gt;</text>
</a>
</g>
</g>
<!-- Node16&#45;&gt;Node15 -->
<g id="edge15_Node000015_Node000016" class="edge">
<title>Node16&#45;&gt;Node15</title>
<g id="a_edge15_Node000015_Node000016"><a xlink:title=" ">
<path fill="none" stroke="#63b8ff" d="M360.35,-296.93C400.25,-295.81 448.68,-294.46 488.69,-293.34"/>
<polygon fill="#63b8ff" stroke="#63b8ff" points="360.47,-293.43 350.58,-297.21 360.67,-300.43 360.47,-293.43"/>
</a>
</g>
</g>
<!-- Node17 -->
<g id="Node000017" class="node">
<title>Node17</title>
<g id="a_Node000017"><a xlink:href="classdunedaq_1_1conffwk_1_1ConfigObject.html" target="_top" xlink:title="Represents database objects.">
<polygon fill="white" stroke="#666666" points="1309.75,-227.38 1187.25,-227.38 1187.25,-196.88 1309.75,-196.88 1309.75,-227.38"/>
<text text-anchor="start" x="1195.25" y="-213.88" font-family="Helvetica,sans-Serif" font-size="10.00">dunedaq::conffwk::Config</text>
<text text-anchor="middle" x="1248.5" y="-202.62" font-family="Helvetica,sans-Serif" font-size="10.00">Object</text>
</a>
</g>
</g>
<!-- Node17&#45;&gt;Node4 -->
<g id="edge17_Node000004_Node000017" class="edge">
<title>Node17&#45;&gt;Node4</title>
<g id="a_edge17_Node000004_Node000017"><a xlink:title=" ">
<path fill="none" stroke="#9a32cd" stroke-dasharray="5,2" d="M1321.17,-201.56C1337.43,-199.16 1354.65,-196.62 1370.77,-194.24"/>
<polygon fill="#9a32cd" stroke="#9a32cd" points="1320.98,-198.05 1311.6,-202.97 1322,-204.97 1320.98,-198.05"/>
</a>
</g>
<text text-anchor="middle" x="1340.5" y="-200.88" font-family="Helvetica,sans-Serif" font-size="10.00" fill="grey"> p_obj</text>
</g>
<!-- Node18&#45;&gt;Node17 -->
<g id="edge18_Node000017_Node000018" class="edge">
<title>Node18&#45;&gt;Node17</title>
<g id="a_edge18_Node000017_Node000018"><a xlink:title=" ">
<path fill="none" stroke="#9a32cd" stroke-dasharray="5,2" d="M1129.31,-219.58C1148.34,-218.38 1168.68,-217.1 1187.03,-215.94"/>
<polygon fill="#9a32cd" stroke="#9a32cd" points="1129.24,-216.08 1119.48,-220.2 1129.68,-223.06 1129.24,-216.08"/>
</a>
</g>
<text text-anchor="middle" x="1152.38" y="-219.88" font-family="Helvetica,sans-Serif" font-size="10.00" fill="grey"> m_impl</text>
</g>
<!-- Node19&#45;&gt;Node2 -->
<g id="edge22_Node000002_Node000019" class="edge">
<title>Node19&#45;&gt;Node2</title>
<g id="a_edge22_Node000002_Node000019"><a xlink:title=" ">
<path fill="none" stroke="#9a32cd" stroke-dasharray="5,2" d="M1940.6,-189.73C1964.98,-192.99 1992.92,-198.05 2017.5,-205.88 2032.01,-210.49 2047.25,-217.79 2059.7,-224.46"/>
<polygon fill="#9a32cd" stroke="#9a32cd" points="1941.17,-186.27 1930.81,-188.5 1940.3,-193.22 1941.17,-186.27"/>
</a>
</g>
<text text-anchor="middle" x="1982.25" y="-206.88" font-family="Helvetica,sans-Serif" font-size="10.00" fill="grey"> m_configuration</text>
</g>
<!-- Node20&#45;&gt;Node19 -->
<g id="edge25_Node000019_Node000020" class="edge">
<title>Node20&#45;&gt;Node19</title>
<g id="a_edge25_Node000019_Node000020"><a xlink:title=" ">
<path fill="none" stroke="#9a32cd" stroke-dasharray="5,2" d="M1698.61,-133.17C1732.67,-135.28 1772.42,-139.96 1807.25,-149.88 1822.15,-154.12 1837.69,-161.55 1850.23,-168.41"/>
<polygon fill="#9a32cd" stroke="#9a32cd" points="1698.98,-129.68 1688.8,-132.63 1698.59,-136.67 1698.98,-129.68"/>
</a>
</g>
<text text-anchor="middle" x="1756.12" y="-150.88" font-family="Helvetica,sans-Serif" font-size="10.00" fill="grey"> m_emulation_conf</text>
</g>
</g>
</svg>
