<?xml version="1.0" encoding="UTF-8" standalone="no"?>
<!DOCTYPE svg PUBLIC "-//W3C//DTD SVG 1.1//EN"
 "http://www.w3.org/Graphics/SVG/1.1/DTD/svg11.dtd">
<!-- Generated by graphviz version 9.0.0 (20230911.1827)
 -->
<!-- Title: dbse::SchemaGraphicsScene Pages: 1 -->
<svg width="885pt" height="606pt"
 viewBox="0.00 0.00 885.38 606.25" xmlns="http://www.w3.org/2000/svg" xmlns:xlink="http://www.w3.org/1999/xlink">
<g id="graph0" class="graph" transform="scale(1 1) rotate(0) translate(4 602.25)">
<title>dbse::SchemaGraphicsScene</title>
<!-- Node1 -->
<g id="Node000001" class="node">
<title>Node1</title>
<g id="a_Node000001"><a xlink:title=" ">
<polygon fill="#999999" stroke="#666666" points="296.5,-208.5 152.25,-208.5 152.25,-189.25 296.5,-189.25 296.5,-208.5"/>
<text text-anchor="middle" x="224.38" y="-195" font-family="Helvetica,sans-Serif" font-size="10.00">dbse::SchemaGraphicsScene</text>
</a>
</g>
</g>
<!-- Node2 -->
<g id="Node000002" class="node">
<title>Node2</title>
<g id="a_Node000002"><a xlink:title=" ">
<polygon fill="white" stroke="#666666" points="269.5,-280.62 179.25,-280.62 179.25,-261.38 269.5,-261.38 269.5,-280.62"/>
<text text-anchor="middle" x="224.38" y="-267.12" font-family="Helvetica,sans-Serif" font-size="10.00">QGraphicsScene</text>
</a>
</g>
</g>
<!-- Node2&#45;&gt;Node1 -->
<g id="edge1_Node000001_Node000002" class="edge">
<title>Node2&#45;&gt;Node1</title>
<g id="a_edge1_Node000001_Node000002"><a xlink:title=" ">
<path fill="none" stroke="#63b8ff" d="M224.38,-249.62C224.38,-236.14 224.38,-219.14 224.38,-208.91"/>
<polygon fill="#63b8ff" stroke="#63b8ff" points="220.88,-249.61 224.38,-259.61 227.88,-249.61 220.88,-249.61"/>
</a>
</g>
</g>
<!-- Node3 -->
<g id="Node000003" class="node">
<title>Node3</title>
<g id="a_Node000003"><a xlink:href="classdbse_1_1SchemaGraphicObject.html" target="_top" xlink:title=" ">
<polygon fill="white" stroke="#666666" points="368.25,-369.62 228.5,-369.62 228.5,-350.38 368.25,-350.38 368.25,-369.62"/>
<text text-anchor="middle" x="298.38" y="-356.12" font-family="Helvetica,sans-Serif" font-size="10.00">dbse::SchemaGraphicObject</text>
</a>
</g>
</g>
<!-- Node3&#45;&gt;Node1 -->
<g id="edge2_Node000001_Node000003" class="edge">
<title>Node3&#45;&gt;Node1</title>
<g id="a_edge2_Node000001_Node000003"><a xlink:title=" ">
<path fill="none" stroke="#9a32cd" stroke-dasharray="5,2" d="M297.82,-338.51C296.47,-316.82 292.12,-282.16 278.38,-255.75 268.16,-236.12 248.87,-218.71 236.33,-208.73"/>
<polygon fill="#9a32cd" stroke="#9a32cd" points="294.31,-338.53 298.25,-348.36 301.31,-338.22 294.31,-338.53"/>
</a>
</g>
<text text-anchor="middle" x="321.5" y="-267.12" font-family="Helvetica,sans-Serif" font-size="10.00" fill="grey"> CurrentObject</text>
</g>
<!-- Node18 -->
<g id="Node000018" class="node">
<title>Node18</title>
<g id="a_Node000018"><a xlink:href="classdbse_1_1SchemaGraphicSegmentedArrow.html" target="_top" xlink:title=" ">
<polygon fill="white" stroke="#666666" points="160.75,-286.25 0,-286.25 0,-255.75 160.75,-255.75 160.75,-286.25"/>
<text text-anchor="start" x="8" y="-272.75" font-family="Helvetica,sans-Serif" font-size="10.00">dbse::SchemaGraphicSegmented</text>
<text text-anchor="middle" x="80.38" y="-261.5" font-family="Helvetica,sans-Serif" font-size="10.00">Arrow</text>
</a>
</g>
</g>
<!-- Node3&#45;&gt;Node18 -->
<g id="edge26_Node000018_Node000003" class="edge">
<title>Node3&#45;&gt;Node18</title>
<g id="a_edge26_Node000018_Node000003"><a xlink:title=" ">
<path fill="none" stroke="#9a32cd" stroke-dasharray="5,2" d="M265.39,-345.84C225.55,-329.94 158.72,-303.27 117.22,-286.71"/>
<polygon fill="#9a32cd" stroke="#9a32cd" points="263.88,-349 274.46,-349.46 266.47,-342.5 263.88,-349"/>
</a>
</g>
<text text-anchor="middle" x="243.88" y="-317.25" font-family="Helvetica,sans-Serif" font-size="10.00" fill="grey"> m_end_item</text>
<text text-anchor="middle" x="243.88" y="-306" font-family="Helvetica,sans-Serif" font-size="10.00" fill="grey">m_start_item</text>
</g>
<!-- Node4 -->
<g id="Node000004" class="node">
<title>Node4</title>
<g id="a_Node000004"><a xlink:title=" ">
<polygon fill="white" stroke="#666666" points="338.88,-464.25 247.88,-464.25 247.88,-445 338.88,-445 338.88,-464.25"/>
<text text-anchor="middle" x="293.38" y="-450.75" font-family="Helvetica,sans-Serif" font-size="10.00">QGraphicsObject</text>
</a>
</g>
</g>
<!-- Node4&#45;&gt;Node3 -->
<g id="edge3_Node000003_Node000004" class="edge">
<title>Node4&#45;&gt;Node3</title>
<g id="a_edge3_Node000003_Node000004"><a xlink:title=" ">
<path fill="none" stroke="#63b8ff" d="M294.47,-433.37C295.53,-413.64 297.1,-384.55 297.89,-369.99"/>
<polygon fill="#63b8ff" stroke="#63b8ff" points="290.98,-433.06 293.94,-443.23 297.97,-433.44 290.98,-433.06"/>
</a>
</g>
</g>
<!-- Node5 -->
<g id="Node000005" class="node">
<title>Node5</title>
<g id="a_Node000005"><a xlink:href="classdunedaq_1_1oks_1_1OksClass.html" target="_top" xlink:title="The OKS class.">
<polygon fill="white" stroke="#666666" points="635.5,-464.25 515.25,-464.25 515.25,-445 635.5,-445 635.5,-464.25"/>
<text text-anchor="middle" x="575.38" y="-450.75" font-family="Helvetica,sans-Serif" font-size="10.00">dunedaq::oks::OksClass</text>
</a>
</g>
</g>
<!-- Node5&#45;&gt;Node3 -->
<g id="edge4_Node000003_Node000005" class="edge">
<title>Node5&#45;&gt;Node3</title>
<g id="a_edge4_Node000003_Node000005"><a xlink:title=" ">
<path fill="none" stroke="#9a32cd" stroke-dasharray="5,2" d="M503.36,-453.73C440.28,-452.44 354.55,-446.89 327.38,-427 308.59,-413.25 301.79,-384.64 299.48,-370.02"/>
<polygon fill="#9a32cd" stroke="#9a32cd" points="503.29,-457.23 513.35,-453.9 503.41,-450.23 503.29,-457.23"/>
</a>
</g>
<text text-anchor="middle" x="357.38" y="-406.25" font-family="Helvetica,sans-Serif" font-size="10.00" fill="grey"> m_class_info</text>
</g>
<!-- Node13 -->
<g id="Node000013" class="node">
<title>Node13</title>
<g id="a_Node000013"><a xlink:href="uniondunedaq_1_1oks_1_1OksData_1_1Data.html" target="_top" xlink:title=" ">
<polygon fill="white" stroke="#666666" points="773.25,-375.25 657.5,-375.25 657.5,-344.75 773.25,-344.75 773.25,-375.25"/>
<text text-anchor="start" x="665.5" y="-361.75" font-family="Helvetica,sans-Serif" font-size="10.00">dunedaq::oks::OksData</text>
<text text-anchor="middle" x="715.38" y="-350.5" font-family="Helvetica,sans-Serif" font-size="10.00">::Data</text>
</a>
</g>
</g>
<!-- Node5&#45;&gt;Node13 -->
<g id="edge15_Node000013_Node000005" class="edge">
<title>Node5&#45;&gt;Node13</title>
<g id="a_edge15_Node000013_Node000005"><a xlink:title=" ">
<path fill="none" stroke="#9a32cd" stroke-dasharray="5,2" d="M598.58,-438.27C624.84,-420.9 667.33,-392.79 693.17,-375.69"/>
<polygon fill="#9a32cd" stroke="#9a32cd" points="596.72,-435.3 590.32,-443.74 600.59,-441.14 596.72,-435.3"/>
</a>
</g>
<text text-anchor="middle" x="683.38" y="-411.88" font-family="Helvetica,sans-Serif" font-size="10.00" fill="grey"> CLASS</text>
<text text-anchor="middle" x="683.38" y="-400.62" font-family="Helvetica,sans-Serif" font-size="10.00" fill="grey">class_id</text>
</g>
<!-- Node6 -->
<g id="Node000006" class="node">
<title>Node6</title>
<g id="a_Node000006"><a xlink:href="classdunedaq_1_1oks_1_1OksFile.html" target="_top" xlink:title="Provides interface to the OKS XML schema and data files.">
<polygon fill="white" stroke="#666666" points="664,-19.25 552.75,-19.25 552.75,0 664,0 664,-19.25"/>
<text text-anchor="middle" x="608.38" y="-5.75" font-family="Helvetica,sans-Serif" font-size="10.00">dunedaq::oks::OksFile</text>
</a>
</g>
</g>
<!-- Node6&#45;&gt;Node5 -->
<g id="edge5_Node000005_Node000006" class="edge">
<title>Node6&#45;&gt;Node5</title>
<g id="a_edge5_Node000005_Node000006"><a xlink:title=" ">
<path fill="none" stroke="#9a32cd" stroke-dasharray="5,2" d="M541.85,-21.88C481.32,-34.07 401.38,-55.93 401.38,-86.38 401.38,-361 401.38,-361 401.38,-361 401.38,-413.87 464.75,-436.66 515.01,-446.42"/>
<polygon fill="#9a32cd" stroke="#9a32cd" points="542.28,-25.37 551.42,-20.01 540.93,-18.5 542.28,-25.37"/>
</a>
</g>
<text text-anchor="middle" x="413.75" y="-228.25" font-family="Helvetica,sans-Serif" font-size="10.00" fill="grey"> p_file</text>
</g>
<!-- Node6&#45;&gt;Node6 -->
<g id="edge6_Node000006_Node000006" class="edge">
<title>Node6&#45;&gt;Node6</title>
<g id="a_edge6_Node000006_Node000006"><a xlink:title=" ">
<path fill="none" stroke="#9a32cd" stroke-dasharray="5,2" d="M675.46,-14.69C679.55,-13.48 682,-11.8 682,-9.62 682,-5.87 674.66,-3.56 664.24,-2.71"/>
<polygon fill="#9a32cd" stroke="#9a32cd" points="675.03,-11.21 665.73,-16.29 676.17,-18.12 675.03,-11.21"/>
</a>
</g>
<text text-anchor="middle" x="713.88" y="-5.75" font-family="Helvetica,sans-Serif" font-size="10.00" fill="grey"> p_included_by</text>
</g>
<!-- Node7 -->
<g id="Node000007" class="node">
<title>Node7</title>
<g id="a_Node000007"><a xlink:href="classdunedaq_1_1oks_1_1OksKernel.html" target="_top" xlink:title="Provides interface to the OKS kernel.">
<polygon fill="white" stroke="#666666" points="670,-97 546.75,-97 546.75,-77.75 670,-77.75 670,-97"/>
<text text-anchor="middle" x="608.38" y="-83.5" font-family="Helvetica,sans-Serif" font-size="10.00">dunedaq::oks::OksKernel</text>
</a>
</g>
</g>
<!-- Node6&#45;&gt;Node7 -->
<g id="edge8_Node000007_Node000006" class="edge">
<title>Node6&#45;&gt;Node7</title>
<g id="a_edge8_Node000007_Node000006"><a xlink:title=" ">
<path fill="none" stroke="#9a32cd" stroke-dasharray="5,2" d="M615.79,-30.22C616.44,-32.56 616.99,-34.94 617.38,-37.25 619,-47.12 619,-49.88 617.38,-59.75 616.36,-65.91 614.11,-72.57 612.11,-77.68"/>
<polygon fill="#9a32cd" stroke="#9a32cd" points="619.11,-29.11 612.6,-20.75 612.48,-31.34 619.11,-29.11"/>
</a>
</g>
<text text-anchor="middle" x="657.62" y="-50.25" font-family="Helvetica,sans-Serif" font-size="10.00" fill="grey"> p_active_data</text>
<text text-anchor="middle" x="657.62" y="-39" font-family="Helvetica,sans-Serif" font-size="10.00" fill="grey">p_active_schema</text>
</g>
<!-- Node10 -->
<g id="Node000010" class="node">
<title>Node10</title>
<g id="a_Node000010"><a xlink:href="classdunedaq_1_1oks_1_1OksObject.html" target="_top" xlink:title="OksObject describes instance of OksClass.">
<polygon fill="white" stroke="#666666" points="877.38,-208.5 753.38,-208.5 753.38,-189.25 877.38,-189.25 877.38,-208.5"/>
<text text-anchor="middle" x="815.38" y="-195" font-family="Helvetica,sans-Serif" font-size="10.00">dunedaq::oks::OksObject</text>
</a>
</g>
</g>
<!-- Node6&#45;&gt;Node10 -->
<g id="edge20_Node000010_Node000006" class="edge">
<title>Node6&#45;&gt;Node10</title>
<g id="a_edge20_Node000010_Node000006"><a xlink:title=" ">
<path fill="none" stroke="#9a32cd" stroke-dasharray="5,2" d="M660.41,-22.86C706.46,-36.73 770.93,-64.32 801.38,-115 815.65,-138.76 816.45,-172.9 815.91,-188.93"/>
<polygon fill="#9a32cd" stroke="#9a32cd" points="661.46,-19.52 650.88,-20.12 659.53,-26.24 661.46,-19.52"/>
</a>
</g>
<text text-anchor="middle" x="794.5" y="-83.5" font-family="Helvetica,sans-Serif" font-size="10.00" fill="grey"> file</text>
</g>
<!-- Node7&#45;&gt;Node5 -->
<g id="edge21_Node000005_Node000007" class="edge">
<title>Node7&#45;&gt;Node5</title>
<g id="a_edge21_Node000005_Node000007"><a xlink:title=" ">
<path fill="none" stroke="#9a32cd" stroke-dasharray="5,2" d="M600.51,-107.95C592.54,-129.59 581.38,-165.64 581.38,-197.88 581.38,-361 581.38,-361 581.38,-361 581.38,-391.78 578.04,-428.19 576.34,-444.7"/>
<polygon fill="#9a32cd" stroke="#9a32cd" points="603.75,-109.28 604.08,-98.69 597.22,-106.76 603.75,-109.28"/>
</a>
</g>
<text text-anchor="middle" x="600.88" y="-267.12" font-family="Helvetica,sans-Serif" font-size="10.00" fill="grey"> p_kernel</text>
</g>
<!-- Node7&#45;&gt;Node6 -->
<g id="edge7_Node000006_Node000007" class="edge">
<title>Node7&#45;&gt;Node6</title>
<g id="a_edge7_Node000006_Node000007"><a xlink:title=" ">
<path fill="none" stroke="#9a32cd" stroke-dasharray="5,2" d="M585.23,-69.8C582.46,-66.79 580.02,-63.42 578.38,-59.75 574.27,-50.63 574.27,-46.37 578.38,-37.25 581.57,-30.14 587.71,-24.15 593.61,-19.67"/>
<polygon fill="#9a32cd" stroke="#9a32cd" points="582.71,-72.24 592.49,-76.32 587.39,-67.03 582.71,-72.24"/>
</a>
</g>
<text text-anchor="middle" x="597.88" y="-44.62" font-family="Helvetica,sans-Serif" font-size="10.00" fill="grey"> p_kernel</text>
</g>
<!-- Node8 -->
<g id="Node000008" class="node">
<title>Node8</title>
<g id="a_Node000008"><a xlink:href="classdunedaq_1_1oks_1_1OksProfiler.html" target="_top" xlink:title=" ">
<polygon fill="white" stroke="#666666" points="735.12,-208.5 609.62,-208.5 609.62,-189.25 735.12,-189.25 735.12,-208.5"/>
<text text-anchor="middle" x="672.38" y="-195" font-family="Helvetica,sans-Serif" font-size="10.00">dunedaq::oks::OksProfiler</text>
</a>
</g>
</g>
<!-- Node8&#45;&gt;Node7 -->
<g id="edge9_Node000007_Node000008" class="edge">
<title>Node8&#45;&gt;Node7</title>
<g id="a_edge9_Node000007_Node000008"><a xlink:title=" ">
<path fill="none" stroke="#9a32cd" stroke-dasharray="5,2" d="M647.9,-182.07C644.1,-178.83 640.49,-175.19 637.62,-171.25 620.59,-147.79 612.73,-113.5 609.81,-97.38"/>
<polygon fill="#9a32cd" stroke="#9a32cd" points="645.57,-184.7 655.65,-187.94 649.8,-179.12 645.57,-184.7"/>
</a>
</g>
<text text-anchor="middle" x="653.75" y="-139.25" font-family="Helvetica,sans-Serif" font-size="10.00" fill="grey"> profiler</text>
</g>
<!-- Node9 -->
<g id="Node000009" class="node">
<title>Node9</title>
<g id="a_Node000009"><a xlink:href="structdunedaq_1_1oks_1_1LoadErrors.html" target="_top" xlink:title=" ">
<polygon fill="white" stroke="#666666" points="553.75,-208.5 429,-208.5 429,-189.25 553.75,-189.25 553.75,-208.5"/>
<text text-anchor="middle" x="491.38" y="-195" font-family="Helvetica,sans-Serif" font-size="10.00">dunedaq::oks::LoadErrors</text>
</a>
</g>
</g>
<!-- Node9&#45;&gt;Node7 -->
<g id="edge10_Node000007_Node000009" class="edge">
<title>Node9&#45;&gt;Node7</title>
<g id="a_edge10_Node000007_Node000009"><a xlink:title=" ">
<path fill="none" stroke="#9a32cd" stroke-dasharray="5,2" d="M489.43,-177.47C488.83,-158.84 491.09,-131.72 506.62,-115 517.06,-103.76 531.61,-97.03 546.44,-93.06"/>
<polygon fill="#9a32cd" stroke="#9a32cd" points="485.92,-177.53 490.07,-187.27 492.91,-177.07 485.92,-177.53"/>
</a>
</g>
<text text-anchor="middle" x="537.75" y="-139.25" font-family="Helvetica,sans-Serif" font-size="10.00" fill="grey"> p_load_errors</text>
</g>
<!-- Node10&#45;&gt;Node7 -->
<g id="edge11_Node000007_Node000010" class="edge">
<title>Node10&#45;&gt;Node7</title>
<g id="a_edge11_Node000007_Node000010"><a xlink:title=" ">
<path fill="none" stroke="#9a32cd" stroke-dasharray="5,2" d="M741.8,-188.02C719.88,-183.83 699.47,-178.26 691.12,-171.25 670.48,-153.9 687.12,-134.38 668.38,-115 660.85,-107.22 650.64,-101.55 640.79,-97.49"/>
<polygon fill="#9a32cd" stroke="#9a32cd" points="741.04,-191.44 751.5,-189.76 742.28,-184.55 741.04,-191.44"/>
</a>
</g>
<text text-anchor="start" x="690.38" y="-161.75" font-family="Helvetica,sans-Serif" font-size="10.00" fill="grey"> p_change_object_notify</text>
<text text-anchor="middle" x="745.5" y="-150.5" font-family="Helvetica,sans-Serif" font-size="10.00" fill="grey">_fn</text>
<text text-anchor="start" x="690.38" y="-139.25" font-family="Helvetica,sans-Serif" font-size="10.00" fill="grey">p_create_object_notify</text>
<text text-anchor="middle" x="745.5" y="-128" font-family="Helvetica,sans-Serif" font-size="10.00" fill="grey">_fn</text>
<text text-anchor="middle" x="745.5" y="-116.75" font-family="Helvetica,sans-Serif" font-size="10.00" fill="grey">p_delete_object_notify_fn</text>
</g>
<!-- Node10&#45;&gt;Node13 -->
<g id="edge16_Node000013_Node000010" class="edge">
<title>Node10&#45;&gt;Node13</title>
<g id="a_edge16_Node000013_Node000010"><a xlink:title=" ">
<path fill="none" stroke="#9a32cd" stroke-dasharray="5,2" d="M808,-219.44C800.82,-237.44 789.03,-264.55 775.38,-286.25 761.77,-307.87 742.47,-330.15 729.46,-344.27"/>
<polygon fill="#9a32cd" stroke="#9a32cd" points="811.21,-220.84 811.56,-210.25 804.68,-218.31 811.21,-220.84"/>
</a>
</g>
<text text-anchor="middle" x="811.62" y="-267.12" font-family="Helvetica,sans-Serif" font-size="10.00" fill="grey"> OBJECT</text>
</g>
<!-- Node11 -->
<g id="Node000011" class="node">
<title>Node11</title>
<g id="a_Node000011"><a xlink:title=" ">
<polygon fill="white" stroke="#666666" points="872.75,-464.25 832,-464.25 832,-445 872.75,-445 872.75,-464.25"/>
<text text-anchor="middle" x="852.38" y="-450.75" font-family="Helvetica,sans-Serif" font-size="10.00">struct</text>
</a>
</g>
</g>
<!-- Node11&#45;&gt;Node10 -->
<g id="edge12_Node000010_Node000011" class="edge">
<title>Node11&#45;&gt;Node10</title>
<g id="a_edge12_Node000010_Node000011"><a xlink:title=" ">
<path fill="none" stroke="#9a32cd" stroke-dasharray="5,2" d="M852.58,-433.52C852.55,-397.45 850.65,-319.55 836.38,-255.75 832.53,-238.56 824.53,-219.56 819.59,-208.73"/>
<polygon fill="#9a32cd" stroke="#9a32cd" points="849.08,-433.29 852.54,-443.3 856.08,-433.32 849.08,-433.29"/>
</a>
</g>
<text text-anchor="middle" x="853.88" y="-311.62" font-family="Helvetica,sans-Serif" font-size="10.00" fill="grey"> uid</text>
</g>
<!-- Node11&#45;&gt;Node13 -->
<g id="edge19_Node000013_Node000011" class="edge">
<title>Node11&#45;&gt;Node13</title>
<g id="a_edge19_Node000013_Node000011"><a xlink:title=" ">
<path fill="none" stroke="#9a32cd" stroke-dasharray="5,2" d="M829.67,-438.27C803.97,-420.9 762.39,-392.79 737.1,-375.69"/>
<polygon fill="#9a32cd" stroke="#9a32cd" points="827.49,-441.03 837.74,-443.73 831.41,-435.23 827.49,-441.03"/>
</a>
</g>
<text text-anchor="middle" x="822.62" y="-411.88" font-family="Helvetica,sans-Serif" font-size="10.00" fill="grey"> UID</text>
<text text-anchor="middle" x="822.62" y="-400.62" font-family="Helvetica,sans-Serif" font-size="10.00" fill="grey">UID2</text>
</g>
<!-- Node12 -->
<g id="Node000012" class="node">
<title>Node12</title>
<g id="a_Node000012"><a xlink:href="structdunedaq_1_1oks_1_1OksData.html" target="_top" xlink:title="the structure to pass common parameters to various read() methods of OksData and OksObject class">
<polygon fill="white" stroke="#666666" points="766.25,-280.62 650.5,-280.62 650.5,-261.38 766.25,-261.38 766.25,-280.62"/>
<text text-anchor="middle" x="708.38" y="-267.12" font-family="Helvetica,sans-Serif" font-size="10.00">dunedaq::oks::OksData</text>
</a>
</g>
</g>
<!-- Node12&#45;&gt;Node10 -->
<g id="edge13_Node000010_Node000012" class="edge">
<title>Node12&#45;&gt;Node10</title>
<g id="a_edge13_Node000010_Node000012"><a xlink:title=" ">
<path fill="none" stroke="#9a32cd" stroke-dasharray="5,2" d="M728.73,-253.98C739.9,-245.46 754.12,-235.01 767.38,-226.5 777.16,-220.22 788.52,-213.88 797.73,-208.96"/>
<polygon fill="#9a32cd" stroke="#9a32cd" points="726.78,-251.07 721.01,-259.95 731.06,-256.6 726.78,-251.07"/>
</a>
</g>
<text text-anchor="middle" x="777.88" y="-228.25" font-family="Helvetica,sans-Serif" font-size="10.00" fill="grey"> data</text>
</g>
<!-- Node13&#45;&gt;Node12 -->
<g id="edge14_Node000012_Node000013" class="edge">
<title>Node13&#45;&gt;Node12</title>
<g id="a_edge14_Node000012_Node000013"><a xlink:title=" ">
<path fill="none" stroke="#9a32cd" stroke-dasharray="5,2" d="M713.31,-333.29C711.88,-315.54 710.07,-293.01 709.08,-280.81"/>
<polygon fill="#9a32cd" stroke="#9a32cd" points="709.81,-333.44 714.1,-343.13 716.78,-332.88 709.81,-333.44"/>
</a>
</g>
<text text-anchor="middle" x="722.88" y="-311.62" font-family="Helvetica,sans-Serif" font-size="10.00" fill="grey"> data</text>
</g>
<!-- Node14 -->
<g id="Node000014" class="node">
<title>Node14</title>
<g id="a_Node000014"><a xlink:href="classdunedaq_1_1oks_1_1OksString.html" target="_top" xlink:title="Class OKS string.">
<polygon fill="white" stroke="#666666" points="775.88,-464.25 654.88,-464.25 654.88,-445 775.88,-445 775.88,-464.25"/>
<text text-anchor="middle" x="715.38" y="-450.75" font-family="Helvetica,sans-Serif" font-size="10.00">dunedaq::oks::OksString</text>
</a>
</g>
</g>
<!-- Node14&#45;&gt;Node13 -->
<g id="edge17_Node000013_Node000014" class="edge">
<title>Node14&#45;&gt;Node13</title>
<g id="a_edge17_Node000013_Node000014"><a xlink:title=" ">
<path fill="none" stroke="#9a32cd" stroke-dasharray="5,2" d="M715.38,-433.29C715.38,-415.78 715.38,-390.95 715.38,-375.42"/>
<polygon fill="#9a32cd" stroke="#9a32cd" points="711.88,-433.23 715.38,-443.23 718.88,-433.23 711.88,-433.23"/>
</a>
</g>
<text text-anchor="middle" x="735.25" y="-417.5" font-family="Helvetica,sans-Serif" font-size="10.00" fill="grey"> STRING</text>
<text text-anchor="middle" x="735.25" y="-406.25" font-family="Helvetica,sans-Serif" font-size="10.00" fill="grey">class_id</text>
<text text-anchor="middle" x="735.25" y="-395" font-family="Helvetica,sans-Serif" font-size="10.00" fill="grey">object_id</text>
</g>
<!-- Node15 -->
<g id="Node000015" class="node">
<title>Node15</title>
<g id="a_Node000015"><a xlink:title=" ">
<polygon fill="white" stroke="#666666" points="744.38,-530.75 686.38,-530.75 686.38,-511.5 744.38,-511.5 744.38,-530.75"/>
<text text-anchor="middle" x="715.38" y="-517.25" font-family="Helvetica,sans-Serif" font-size="10.00">std::string</text>
</a>
</g>
</g>
<!-- Node15&#45;&gt;Node14 -->
<g id="edge18_Node000014_Node000015" class="edge">
<title>Node15&#45;&gt;Node14</title>
<g id="a_edge18_Node000014_Node000015"><a xlink:title=" ">
<path fill="none" stroke="#63b8ff" d="M715.38,-499.65C715.38,-487.82 715.38,-473.54 715.38,-464.52"/>
<polygon fill="#63b8ff" stroke="#63b8ff" points="711.88,-499.64 715.38,-509.64 718.88,-499.64 711.88,-499.64"/>
</a>
</g>
</g>
<!-- Node16 -->
<g id="Node000016" class="node">
<title>Node16</title>
<g id="a_Node000016"><a xlink:href="classdunedaq_1_1conffwk_1_1map.html" target="_top" xlink:title=" ">
<polygon fill="white" stroke="#666666" points="643.75,-530.75 507,-530.75 507,-511.5 643.75,-511.5 643.75,-530.75"/>
<text text-anchor="middle" x="575.38" y="-517.25" font-family="Helvetica,sans-Serif" font-size="10.00">dunedaq::conffwk::map&lt; T &gt;</text>
</a>
</g>
</g>
<!-- Node16&#45;&gt;Node5 -->
<g id="edge22_Node000005_Node000016" class="edge">
<title>Node16&#45;&gt;Node5</title>
<g id="a_edge22_Node000005_Node000016"><a xlink:title=" ">
<path fill="none" stroke="#9a32cd" stroke-dasharray="5,2" d="M575.38,-499.65C575.38,-487.82 575.38,-473.54 575.38,-464.52"/>
<polygon fill="#9a32cd" stroke="#9a32cd" points="571.88,-499.64 575.38,-509.64 578.88,-499.64 571.88,-499.64"/>
</a>
</g>
<text text-anchor="middle" x="601.62" y="-484" font-family="Helvetica,sans-Serif" font-size="10.00" fill="grey"> p_data_info</text>
</g>
<!-- Node17 -->
<g id="Node000017" class="node">
<title>Node17</title>
<g id="a_Node000017"><a xlink:title=" ">
<polygon fill="white" stroke="#666666" points="625.75,-598.25 525,-598.25 525,-567.75 625.75,-567.75 625.75,-598.25"/>
<text text-anchor="start" x="533" y="-584.75" font-family="Helvetica,sans-Serif" font-size="10.00">std::unordered_map</text>
<text text-anchor="middle" x="575.38" y="-573.5" font-family="Helvetica,sans-Serif" font-size="10.00">&lt; std::string, T &gt;</text>
</a>
</g>
</g>
<!-- Node17&#45;&gt;Node16 -->
<g id="edge23_Node000016_Node000017" class="edge">
<title>Node17&#45;&gt;Node16</title>
<g id="a_edge23_Node000016_Node000017"><a xlink:title=" ">
<path fill="none" stroke="#63b8ff" d="M575.38,-556.27C575.38,-547.29 575.38,-537.79 575.38,-531.1"/>
<polygon fill="#63b8ff" stroke="#63b8ff" points="571.88,-555.99 575.38,-565.99 578.88,-555.99 571.88,-555.99"/>
</a>
</g>
</g>
<!-- Node18&#45;&gt;Node1 -->
<g id="edge24_Node000001_Node000018" class="edge">
<title>Node18&#45;&gt;Node1</title>
<g id="a_edge24_Node000001_Node000018"><a xlink:title=" ">
<path fill="none" stroke="#9a32cd" stroke-dasharray="5,2" d="M108.62,-248.72C119.69,-241.03 132.75,-232.72 145.38,-226.5 159.79,-219.4 176.56,-213.46 190.92,-209"/>
<polygon fill="#9a32cd" stroke="#9a32cd" points="106.81,-245.72 100.7,-254.37 110.87,-251.41 106.81,-245.72"/>
</a>
</g>
<text text-anchor="middle" x="182.88" y="-228.25" font-family="Helvetica,sans-Serif" font-size="10.00" fill="grey"> m_current_arrow</text>
</g>
<!-- Node19 -->
<g id="Node000019" class="node">
<title>Node19</title>
<g id="a_Node000019"><a xlink:title=" ">
<polygon fill="white" stroke="#666666" points="131.5,-369.62 29.25,-369.62 29.25,-350.38 131.5,-350.38 131.5,-369.62"/>
<text text-anchor="middle" x="80.38" y="-356.12" font-family="Helvetica,sans-Serif" font-size="10.00">QGraphicsPathItem</text>
</a>
</g>
</g>
<!-- Node19&#45;&gt;Node18 -->
<g id="edge25_Node000018_Node000019" class="edge">
<title>Node19&#45;&gt;Node18</title>
<g id="a_edge25_Node000018_Node000019"><a xlink:title=" ">
<path fill="none" stroke="#63b8ff" d="M80.38,-338.72C80.38,-322.74 80.38,-300.83 80.38,-286.55"/>
<polygon fill="#63b8ff" stroke="#63b8ff" points="76.88,-338.5 80.38,-348.5 83.88,-338.5 76.88,-338.5"/>
</a>
</g>
</g>
</g>
</svg>
