<?xml version="1.0" encoding="UTF-8" standalone="no"?>
<!DOCTYPE svg PUBLIC "-//W3C//DTD SVG 1.1//EN"
 "http://www.w3.org/Graphics/SVG/1.1/DTD/svg11.dtd">
<!-- Generated by graphviz version 9.0.0 (20230911.1827)
 -->
<!-- Title: ers::Issue Pages: 1 -->
<svg width="313pt" height="149pt"
 viewBox="0.00 0.00 313.00 149.00" xmlns="http://www.w3.org/2000/svg" xmlns:xlink="http://www.w3.org/1999/xlink">
<g id="graph0" class="graph" transform="scale(1 1) rotate(0) translate(4 145)">
<title>ers::Issue</title>
<!-- Node1 -->
<g id="Node000001" class="node">
<title>Node1</title>
<g id="a_Node000001"><a xlink:title="Base class for any user define issue.">
<polygon fill="#999999" stroke="#666666" points="211.5,-85.75 153.5,-85.75 153.5,-66.5 211.5,-66.5 211.5,-85.75"/>
<text text-anchor="middle" x="182.5" y="-72.25" font-family="Helvetica,sans-Serif" font-size="10.00">ers::Issue</text>
</a>
</g>
</g>
<!-- Node3 -->
<g id="Node000003" class="node">
<title>Node3</title>
<g id="a_Node000003"><a xlink:href="classdunedaq_1_1logging_1_1Logging_1_1InternalMessage.html" target="_top" xlink:title=" ">
<polygon fill="white" stroke="#666666" points="127,-30.5 0,-30.5 0,0 127,0 127,-30.5"/>
<text text-anchor="start" x="8" y="-17" font-family="Helvetica,sans-Serif" font-size="10.00">dunedaq::logging::Logging</text>
<text text-anchor="middle" x="63.5" y="-5.75" font-family="Helvetica,sans-Serif" font-size="10.00">::InternalMessage</text>
</a>
</g>
</g>
<!-- Node1&#45;&gt;Node3 -->
<g id="edge2_Node000001_Node000003" class="edge">
<title>Node1&#45;&gt;Node3</title>
<g id="a_edge2_Node000001_Node000003"><a xlink:title=" ">
<path fill="none" stroke="#63b8ff" d="M154.06,-61.06C135.69,-51.97 111.82,-40.16 93.2,-30.94"/>
<polygon fill="#63b8ff" stroke="#63b8ff" points="152.3,-64.09 162.81,-65.38 155.4,-57.81 152.3,-64.09"/>
</a>
</g>
</g>
<!-- Node4 -->
<g id="Node000004" class="node">
<title>Node4</title>
<g id="a_Node000004"><a xlink:href="classers_1_1AnyIssue.html" target="_top" xlink:title=" ">
<polygon fill="white" stroke="#666666" points="219.75,-24.88 145.25,-24.88 145.25,-5.63 219.75,-5.63 219.75,-24.88"/>
<text text-anchor="middle" x="182.5" y="-11.38" font-family="Helvetica,sans-Serif" font-size="10.00">ers::AnyIssue</text>
</a>
</g>
</g>
<!-- Node1&#45;&gt;Node4 -->
<g id="edge3_Node000001_Node000004" class="edge">
<title>Node1&#45;&gt;Node4</title>
<g id="a_edge3_Node000001_Node000004"><a xlink:title=" ">
<path fill="none" stroke="#63b8ff" d="M182.5,-54.7C182.5,-44.67 182.5,-33.08 182.5,-25.28"/>
<polygon fill="#63b8ff" stroke="#63b8ff" points="179,-54.67 182.5,-64.67 186,-54.67 179,-54.67"/>
</a>
</g>
</g>
<!-- Node5 -->
<g id="Node000005" class="node">
<title>Node5</title>
<g id="a_Node000005"><a xlink:href="classers_1_1PyIssue.html" target="_top" xlink:title=" ">
<polygon fill="white" stroke="#666666" points="305,-24.88 238,-24.88 238,-5.63 305,-5.63 305,-24.88"/>
<text text-anchor="middle" x="271.5" y="-11.38" font-family="Helvetica,sans-Serif" font-size="10.00">ers.PyIssue</text>
</a>
</g>
</g>
<!-- Node1&#45;&gt;Node5 -->
<g id="edge4_Node000001_Node000005" class="edge">
<title>Node1&#45;&gt;Node5</title>
<g id="a_edge4_Node000001_Node000005"><a xlink:title=" ">
<path fill="none" stroke="#63b8ff" d="M205.55,-59.88C222.14,-48.9 243.95,-34.47 257.86,-25.28"/>
<polygon fill="#63b8ff" stroke="#63b8ff" points="203.69,-56.91 197.28,-65.35 207.55,-62.75 203.69,-56.91"/>
</a>
</g>
</g>
<!-- Node2 -->
<g id="Node000002" class="node">
<title>Node2</title>
<g id="a_Node000002"><a xlink:title=" ">
<polygon fill="white" stroke="#666666" points="220.12,-141 144.88,-141 144.88,-121.75 220.12,-121.75 220.12,-141"/>
<text text-anchor="middle" x="182.5" y="-127.5" font-family="Helvetica,sans-Serif" font-size="10.00">std::exception</text>
</a>
</g>
</g>
<!-- Node2&#45;&gt;Node1 -->
<g id="edge1_Node000001_Node000002" class="edge">
<title>Node2&#45;&gt;Node1</title>
<g id="a_edge1_Node000001_Node000002"><a xlink:title=" ">
<path fill="none" stroke="#63b8ff" d="M182.5,-110.13C182.5,-101.84 182.5,-92.67 182.5,-86.11"/>
<polygon fill="#63b8ff" stroke="#63b8ff" points="179,-110.07 182.5,-120.07 186,-110.07 179,-110.07"/>
</a>
</g>
</g>
</g>
</svg>
