<?xml version="1.0" encoding="UTF-8" standalone="no"?>
<!DOCTYPE svg PUBLIC "-//W3C//DTD SVG 1.1//EN"
 "http://www.w3.org/Graphics/SVG/1.1/DTD/svg11.dtd">
<!-- Generated by graphviz version 9.0.0 (20230911.1827)
 -->
<!-- Title: dunedaq::timing::I2CSlave Pages: 1 -->
<svg width="635pt" height="101pt"
 viewBox="0.00 0.00 635.25 101.25" xmlns="http://www.w3.org/2000/svg" xmlns:xlink="http://www.w3.org/1999/xlink">
<g id="graph0" class="graph" transform="scale(1 1) rotate(0) translate(4 97.25)">
<title>dunedaq::timing::I2CSlave</title>
<!-- Node1 -->
<g id="Node000001" class="node">
<title>Node1</title>
<g id="a_Node000001"><a xlink:title=" ">
<polygon fill="#999999" stroke="#666666" points="262.25,-56.25 134.5,-56.25 134.5,-37 262.25,-37 262.25,-56.25"/>
<text text-anchor="middle" x="198.38" y="-42.75" font-family="Helvetica,sans-Serif" font-size="10.00">dunedaq::timing::I2CSlave</text>
</a>
</g>
</g>
<!-- Node3 -->
<g id="Node000003" class="node">
<title>Node3</title>
<g id="a_Node000003"><a xlink:href="classdunedaq_1_1timing_1_1DACSlave.html" target="_top" xlink:title="Class for dac node.">
<polygon fill="white" stroke="#666666" points="438.38,-93.25 305.38,-93.25 305.38,-74 438.38,-74 438.38,-93.25"/>
<text text-anchor="middle" x="371.88" y="-79.75" font-family="Helvetica,sans-Serif" font-size="10.00">dunedaq::timing::DACSlave</text>
</a>
</g>
</g>
<!-- Node1&#45;&gt;Node3 -->
<g id="edge2_Node000001_Node000003" class="edge">
<title>Node1&#45;&gt;Node3</title>
<g id="a_edge2_Node000001_Node000003"><a xlink:title=" ">
<path fill="none" stroke="#63b8ff" d="M257.33,-59.13C279.06,-63.82 303.47,-69.08 324.07,-73.53"/>
<polygon fill="#63b8ff" stroke="#63b8ff" points="258.23,-55.74 247.72,-57.05 256.75,-62.58 258.23,-55.74"/>
</a>
</g>
</g>
<!-- Node5 -->
<g id="Node000005" class="node">
<title>Node5</title>
<g id="a_Node000005"><a xlink:href="classdunedaq_1_1timing_1_1I2CSFPSlave.html" target="_top" xlink:title="I2C slave class to control SFP transceivers.">
<polygon fill="white" stroke="#666666" points="445.5,-56.25 298.25,-56.25 298.25,-37 445.5,-37 445.5,-56.25"/>
<text text-anchor="middle" x="371.88" y="-42.75" font-family="Helvetica,sans-Serif" font-size="10.00">dunedaq::timing::I2CSFPSlave</text>
</a>
</g>
</g>
<!-- Node1&#45;&gt;Node5 -->
<g id="edge4_Node000001_Node000005" class="edge">
<title>Node1&#45;&gt;Node5</title>
<g id="a_edge4_Node000001_Node000005"><a xlink:title=" ">
<path fill="none" stroke="#63b8ff" d="M274.17,-46.62C282.05,-46.62 290.06,-46.62 297.92,-46.62"/>
<polygon fill="#63b8ff" stroke="#63b8ff" points="274.26,-43.13 264.26,-46.63 274.26,-50.13 274.26,-43.13"/>
</a>
</g>
</g>
<!-- Node7 -->
<g id="Node000007" class="node">
<title>Node7</title>
<g id="a_Node000007"><a xlink:href="classdunedaq_1_1timing_1_1SIChipSlave.html" target="_top" xlink:title="Utility class to interface to SI chips.">
<polygon fill="white" stroke="#666666" points="442.88,-19.25 300.88,-19.25 300.88,0 442.88,0 442.88,-19.25"/>
<text text-anchor="middle" x="371.88" y="-5.75" font-family="Helvetica,sans-Serif" font-size="10.00">dunedaq::timing::SIChipSlave</text>
</a>
</g>
</g>
<!-- Node1&#45;&gt;Node7 -->
<g id="edge6_Node000001_Node000007" class="edge">
<title>Node1&#45;&gt;Node7</title>
<g id="a_edge6_Node000001_Node000007"><a xlink:title=" ">
<path fill="none" stroke="#63b8ff" d="M257.33,-34.12C279.06,-29.43 303.47,-24.17 324.07,-19.72"/>
<polygon fill="#63b8ff" stroke="#63b8ff" points="256.75,-30.67 247.72,-36.2 258.23,-37.51 256.75,-30.67"/>
</a>
</g>
</g>
<!-- Node2 -->
<g id="Node000002" class="node">
<title>Node2</title>
<g id="a_Node000002"><a xlink:title=" ">
<polygon fill="white" stroke="#666666" points="98.5,-56.25 0,-56.25 0,-37 98.5,-37 98.5,-56.25"/>
<text text-anchor="middle" x="49.25" y="-42.75" font-family="Helvetica,sans-Serif" font-size="10.00">boost::noncopyable</text>
</a>
</g>
</g>
<!-- Node2&#45;&gt;Node1 -->
<g id="edge1_Node000001_Node000002" class="edge">
<title>Node2&#45;&gt;Node1</title>
<g id="a_edge1_Node000001_Node000002"><a xlink:title=" ">
<path fill="none" stroke="#8b1a1a" d="M110.2,-46.62C118.09,-46.62 126.2,-46.62 134.15,-46.62"/>
<polygon fill="#8b1a1a" stroke="#8b1a1a" points="110.35,-43.13 100.35,-46.63 110.35,-50.13 110.35,-43.13"/>
</a>
</g>
</g>
<!-- Node4 -->
<g id="Node000004" class="node">
<title>Node4</title>
<g id="a_Node000004"><a xlink:href="classdunedaq_1_1timing_1_1DACNode.html" target="_top" xlink:title="uhal::Node implementing single I2C Master Slave connection to control SFP expander chips.">
<polygon fill="white" stroke="#666666" points="620.12,-93.25 488.62,-93.25 488.62,-74 620.12,-74 620.12,-93.25"/>
<text text-anchor="middle" x="554.38" y="-79.75" font-family="Helvetica,sans-Serif" font-size="10.00">dunedaq::timing::DACNode</text>
</a>
</g>
</g>
<!-- Node3&#45;&gt;Node4 -->
<g id="edge3_Node000003_Node000004" class="edge">
<title>Node3&#45;&gt;Node4</title>
<g id="a_edge3_Node000003_Node000004"><a xlink:title=" ">
<path fill="none" stroke="#63b8ff" d="M450.29,-83.62C462.93,-83.62 475.92,-83.62 488.23,-83.62"/>
<polygon fill="#63b8ff" stroke="#63b8ff" points="450.32,-80.13 440.32,-83.63 450.32,-87.13 450.32,-80.13"/>
</a>
</g>
</g>
<!-- Node6 -->
<g id="Node000006" class="node">
<title>Node6</title>
<g id="a_Node000006"><a xlink:href="classdunedaq_1_1timing_1_1I2CSFPNode.html" target="_top" xlink:title=" ">
<polygon fill="white" stroke="#666666" points="627.25,-56.25 481.5,-56.25 481.5,-37 627.25,-37 627.25,-56.25"/>
<text text-anchor="middle" x="554.38" y="-42.75" font-family="Helvetica,sans-Serif" font-size="10.00">dunedaq::timing::I2CSFPNode</text>
</a>
</g>
</g>
<!-- Node5&#45;&gt;Node6 -->
<g id="edge5_Node000005_Node000006" class="edge">
<title>Node5&#45;&gt;Node6</title>
<g id="a_edge5_Node000005_Node000006"><a xlink:title=" ">
<path fill="none" stroke="#63b8ff" d="M457.06,-46.62C465.09,-46.62 473.18,-46.62 481.09,-46.62"/>
<polygon fill="#63b8ff" stroke="#63b8ff" points="457.28,-43.13 447.28,-46.63 457.28,-50.13 457.28,-43.13"/>
</a>
</g>
</g>
</g>
</svg>
