<?xml version="1.0" encoding="UTF-8" standalone="no"?>
<!DOCTYPE svg PUBLIC "-//W3C//DTD SVG 1.1//EN"
 "http://www.w3.org/Graphics/SVG/1.1/DTD/svg11.dtd">
<!-- Generated by graphviz version 9.0.0 (20230911.1827)
 -->
<!-- Title: /github/workspace/dev_area/build/cmdlib/codegen/include/cmdlib/cmd/Nljs.hpp Pages: 1 -->
<svg width="1991pt" height="294pt"
 viewBox="0.00 0.00 1990.50 294.25" xmlns="http://www.w3.org/2000/svg" xmlns:xlink="http://www.w3.org/1999/xlink">
<g id="graph0" class="graph" transform="scale(1 1) rotate(0) translate(4 290.25)">
<title>/github/workspace/dev_area/build/cmdlib/codegen/include/cmdlib/cmd/Nljs.hpp</title>
<!-- Node1 -->
<g id="Node000001" class="node">
<title>Node1</title>
<g id="a_Node000001"><a xlink:title=" ">
<polygon fill="#999999" stroke="#666666" points="1176.38,-286.25 1035.12,-286.25 1035.12,-244.5 1176.38,-244.5 1176.38,-286.25"/>
<text text-anchor="start" x="1043.12" y="-272.75" font-family="Helvetica,sans-Serif" font-size="10.00">/github/workspace/dev</text>
<text text-anchor="start" x="1043.12" y="-261.5" font-family="Helvetica,sans-Serif" font-size="10.00">_area/build/cmdlib/codegen</text>
<text text-anchor="middle" x="1105.75" y="-250.25" font-family="Helvetica,sans-Serif" font-size="10.00">/include/cmdlib/cmd/Nljs.hpp</text>
</a>
</g>
</g>
<!-- Node2 -->
<g id="Node000002" class="node">
<title>Node2</title>
<g id="a_Node000002"><a xlink:href="appfwk_2codegen_2include_2appfwk_2cmd_2Nljs_8hpp.html" target="_top" xlink:title=" ">
<polygon fill="white" stroke="#666666" points="450.88,-208.5 306.62,-208.5 306.62,-166.75 450.88,-166.75 450.88,-208.5"/>
<text text-anchor="start" x="314.62" y="-195" font-family="Helvetica,sans-Serif" font-size="10.00">/github/workspace/dev</text>
<text text-anchor="start" x="314.62" y="-183.75" font-family="Helvetica,sans-Serif" font-size="10.00">_area/build/appfwk/codegen</text>
<text text-anchor="middle" x="378.75" y="-172.5" font-family="Helvetica,sans-Serif" font-size="10.00">/include/appfwk/cmd/Nljs.hpp</text>
</a>
</g>
</g>
<!-- Node1&#45;&gt;Node2 -->
<g id="edge1_Node000001_Node000002" class="edge">
<title>Node1&#45;&gt;Node2</title>
<g id="a_edge1_Node000001_Node000002"><a xlink:title=" ">
<path fill="none" stroke="#63b8ff" d="M1023.41,-255.8C880.11,-240.86 587.18,-210.34 451.15,-196.17"/>
<polygon fill="#63b8ff" stroke="#63b8ff" points="1022.9,-259.26 1033.21,-256.82 1023.63,-252.3 1022.9,-259.26"/>
</a>
</g>
</g>
<!-- Node4 -->
<g id="Node000004" class="node">
<title>Node4</title>
<g id="a_Node000004"><a xlink:href="DAQModuleManager_8cpp.html" target="_top" xlink:title=" ">
<polygon fill="white" stroke="#666666" points="143.5,-125.12 0,-125.12 0,-83.38 143.5,-83.38 143.5,-125.12"/>
<text text-anchor="start" x="8" y="-111.62" font-family="Helvetica,sans-Serif" font-size="10.00">/github/workspace/dev</text>
<text text-anchor="start" x="8" y="-100.38" font-family="Helvetica,sans-Serif" font-size="10.00">_area/sourcecode/appfwk</text>
<text text-anchor="middle" x="71.75" y="-89.12" font-family="Helvetica,sans-Serif" font-size="10.00">/src/DAQModuleManager.cpp</text>
</a>
</g>
</g>
<!-- Node1&#45;&gt;Node4 -->
<g id="edge13_Node000001_Node000004" class="edge">
<title>Node1&#45;&gt;Node4</title>
<g id="a_edge13_Node000001_Node000004"><a xlink:title=" ">
<path fill="none" stroke="#63b8ff" d="M1023.6,-262.42C846.4,-257.61 433.36,-242.95 297.75,-208.5 226.05,-190.28 148.99,-150.14 105.93,-125.62"/>
<polygon fill="#63b8ff" stroke="#63b8ff" points="1023.32,-265.92 1033.41,-262.69 1023.51,-258.92 1023.32,-265.92"/>
</a>
</g>
</g>
<!-- Node8 -->
<g id="Node000008" class="node">
<title>Node8</title>
<g id="a_Node000008"><a xlink:href="rcif_2codegen_2include_2rcif_2cmd_2Nljs_8hpp.html" target="_top" xlink:title=" ">
<polygon fill="white" stroke="#666666" points="1168.88,-208.5 1042.62,-208.5 1042.62,-166.75 1168.88,-166.75 1168.88,-208.5"/>
<text text-anchor="start" x="1050.62" y="-195" font-family="Helvetica,sans-Serif" font-size="10.00">/github/workspace/dev</text>
<text text-anchor="start" x="1050.62" y="-183.75" font-family="Helvetica,sans-Serif" font-size="10.00">_area/build/rcif/codegen</text>
<text text-anchor="middle" x="1105.75" y="-172.5" font-family="Helvetica,sans-Serif" font-size="10.00">/include/rcif/cmd/Nljs.hpp</text>
</a>
</g>
</g>
<!-- Node1&#45;&gt;Node8 -->
<g id="edge7_Node000001_Node000008" class="edge">
<title>Node1&#45;&gt;Node8</title>
<g id="a_edge7_Node000001_Node000008"><a xlink:title=" ">
<path fill="none" stroke="#63b8ff" d="M1105.75,-232.75C1105.75,-224.71 1105.75,-216.29 1105.75,-208.98"/>
<polygon fill="#63b8ff" stroke="#63b8ff" points="1102.25,-232.56 1105.75,-242.56 1109.25,-232.56 1102.25,-232.56"/>
</a>
</g>
</g>
<!-- Node13 -->
<g id="Node000013" class="node">
<title>Node13</title>
<g id="a_Node000013"><a xlink:href="CommandFacility_8hpp.html" target="_top" xlink:title=" ">
<polygon fill="white" stroke="#666666" points="1711.38,-208.5 1534.12,-208.5 1534.12,-166.75 1711.38,-166.75 1711.38,-208.5"/>
<text text-anchor="start" x="1542.12" y="-195" font-family="Helvetica,sans-Serif" font-size="10.00">/github/workspace/dev</text>
<text text-anchor="start" x="1542.12" y="-183.75" font-family="Helvetica,sans-Serif" font-size="10.00">_area/sourcecode/cmdlib</text>
<text text-anchor="middle" x="1622.75" y="-172.5" font-family="Helvetica,sans-Serif" font-size="10.00">/include/cmdlib/CommandFacility.hpp</text>
</a>
</g>
</g>
<!-- Node1&#45;&gt;Node13 -->
<g id="edge14_Node000001_Node000013" class="edge">
<title>Node1&#45;&gt;Node13</title>
<g id="a_edge14_Node000001_Node000013"><a xlink:title=" ">
<path fill="none" stroke="#63b8ff" d="M1188.03,-252.32C1282.46,-238.48 1436.75,-215.88 1533.87,-201.65"/>
<polygon fill="#63b8ff" stroke="#63b8ff" points="1187.71,-248.83 1178.32,-253.74 1188.72,-255.76 1187.71,-248.83"/>
</a>
</g>
</g>
<!-- Node16 -->
<g id="Node000016" class="node">
<title>Node16</title>
<g id="a_Node000016"><a xlink:href="RestEndpoint_8hpp.html" target="_top" xlink:title=" ">
<polygon fill="white" stroke="#666666" points="1948.12,-208.5 1781.38,-208.5 1781.38,-166.75 1948.12,-166.75 1948.12,-208.5"/>
<text text-anchor="start" x="1789.38" y="-195" font-family="Helvetica,sans-Serif" font-size="10.00">/github/workspace/dev</text>
<text text-anchor="start" x="1789.38" y="-183.75" font-family="Helvetica,sans-Serif" font-size="10.00">_area/sourcecode/restcmd</text>
<text text-anchor="middle" x="1864.75" y="-172.5" font-family="Helvetica,sans-Serif" font-size="10.00">/include/restcmd/RestEndpoint.hpp</text>
</a>
</g>
</g>
<!-- Node1&#45;&gt;Node16 -->
<g id="edge18_Node000001_Node000016" class="edge">
<title>Node1&#45;&gt;Node16</title>
<g id="a_edge18_Node000001_Node000016"><a xlink:title=" ">
<path fill="none" stroke="#63b8ff" d="M1187.85,-258.14C1305.89,-248.89 1530.3,-230.28 1720.75,-208.5 1740.31,-206.26 1761.32,-203.54 1781.07,-200.84"/>
<polygon fill="#63b8ff" stroke="#63b8ff" points="1187.63,-254.64 1177.93,-258.91 1188.17,-261.62 1187.63,-254.64"/>
</a>
</g>
</g>
<!-- Node3 -->
<g id="Node000003" class="node">
<title>Node3</title>
<g id="a_Node000003"><a xlink:href="sourcecode_2appfwk_2src_2Application_8cpp.html" target="_top" xlink:title=" ">
<polygon fill="white" stroke="#666666" points="825.62,-41.75 697.88,-41.75 697.88,0 825.62,0 825.62,-41.75"/>
<text text-anchor="start" x="705.88" y="-28.25" font-family="Helvetica,sans-Serif" font-size="10.00">/github/workspace/dev</text>
<text text-anchor="start" x="705.88" y="-17" font-family="Helvetica,sans-Serif" font-size="10.00">_area/sourcecode/appfwk</text>
<text text-anchor="middle" x="761.75" y="-5.75" font-family="Helvetica,sans-Serif" font-size="10.00">/src/Application.cpp</text>
</a>
</g>
</g>
<!-- Node2&#45;&gt;Node3 -->
<g id="edge2_Node000002_Node000003" class="edge">
<title>Node2&#45;&gt;Node3</title>
<g id="a_edge2_Node000002_Node000003"><a xlink:title=" ">
<path fill="none" stroke="#63b8ff" d="M295.14,-171.92C251.22,-162.32 203.84,-148.3 190.75,-130.75 176.66,-111.87 174.93,-95.2 190.75,-77.75 224.29,-40.77 555.55,-27.44 697.6,-23.4"/>
<polygon fill="#63b8ff" stroke="#63b8ff" points="294.22,-175.31 304.73,-173.96 295.67,-168.46 294.22,-175.31"/>
</a>
</g>
</g>
<!-- Node2&#45;&gt;Node4 -->
<g id="edge3_Node000002_Node000004" class="edge">
<title>Node2&#45;&gt;Node4</title>
<g id="a_edge3_Node000002_Node000004"><a xlink:title=" ">
<path fill="none" stroke="#63b8ff" d="M295,-166.3C253.59,-156.04 202.93,-143.15 157.75,-130.75 151.74,-129.1 145.51,-127.34 139.28,-125.55"/>
<polygon fill="#63b8ff" stroke="#63b8ff" points="294.13,-169.69 304.67,-168.69 295.81,-162.9 294.13,-169.69"/>
</a>
</g>
</g>
<!-- Node5 -->
<g id="Node000005" class="node">
<title>Node5</title>
<g id="a_Node000005"><a xlink:href="sourcecode_2timinglibs_2src_2TimingController_8cpp.html" target="_top" xlink:title=" ">
<polygon fill="white" stroke="#666666" points="337.5,-125.12 200,-125.12 200,-83.38 337.5,-83.38 337.5,-125.12"/>
<text text-anchor="start" x="208" y="-111.62" font-family="Helvetica,sans-Serif" font-size="10.00">/github/workspace/dev</text>
<text text-anchor="start" x="208" y="-100.38" font-family="Helvetica,sans-Serif" font-size="10.00">_area/sourcecode/timinglibs</text>
<text text-anchor="middle" x="268.75" y="-89.12" font-family="Helvetica,sans-Serif" font-size="10.00">/src/TimingController.cpp</text>
</a>
</g>
</g>
<!-- Node2&#45;&gt;Node5 -->
<g id="edge4_Node000002_Node000005" class="edge">
<title>Node2&#45;&gt;Node5</title>
<g id="a_edge4_Node000002_Node000005"><a xlink:title=" ">
<path fill="none" stroke="#63b8ff" d="M342.25,-159.62C327.25,-148.53 310.17,-135.89 296.25,-125.6"/>
<polygon fill="#63b8ff" stroke="#63b8ff" points="339.94,-162.27 350.06,-165.4 344.1,-156.64 339.94,-162.27"/>
</a>
</g>
</g>
<!-- Node6 -->
<g id="Node000006" class="node">
<title>Node6</title>
<g id="a_Node000006"><a xlink:href="sourcecode_2timinglibs_2src_2TimingEndpointControllerBase_8cpp.html" target="_top" xlink:title=" ">
<polygon fill="white" stroke="#666666" points="539.75,-125.12 355.75,-125.12 355.75,-83.38 539.75,-83.38 539.75,-125.12"/>
<text text-anchor="start" x="363.75" y="-111.62" font-family="Helvetica,sans-Serif" font-size="10.00">/github/workspace/dev</text>
<text text-anchor="start" x="363.75" y="-100.38" font-family="Helvetica,sans-Serif" font-size="10.00">_area/sourcecode/timinglibs</text>
<text text-anchor="middle" x="447.75" y="-89.12" font-family="Helvetica,sans-Serif" font-size="10.00">/src/TimingEndpointControllerBase.cpp</text>
</a>
</g>
</g>
<!-- Node2&#45;&gt;Node6 -->
<g id="edge5_Node000002_Node000006" class="edge">
<title>Node2&#45;&gt;Node6</title>
<g id="a_edge5_Node000002_Node000006"><a xlink:title=" ">
<path fill="none" stroke="#63b8ff" d="M403.14,-157.86C412.23,-147.14 422.35,-135.2 430.65,-125.42"/>
<polygon fill="#63b8ff" stroke="#63b8ff" points="400.58,-155.46 396.79,-165.36 405.92,-159.99 400.58,-155.46"/>
</a>
</g>
</g>
<!-- Node7 -->
<g id="Node000007" class="node">
<title>Node7</title>
<g id="a_Node000007"><a xlink:href="sourcecode_2timinglibs_2src_2TimingMasterControllerBase_8cpp.html" target="_top" xlink:title=" ">
<polygon fill="white" stroke="#666666" points="734,-125.12 557.5,-125.12 557.5,-83.38 734,-83.38 734,-125.12"/>
<text text-anchor="start" x="565.5" y="-111.62" font-family="Helvetica,sans-Serif" font-size="10.00">/github/workspace/dev</text>
<text text-anchor="start" x="565.5" y="-100.38" font-family="Helvetica,sans-Serif" font-size="10.00">_area/sourcecode/timinglibs</text>
<text text-anchor="middle" x="645.75" y="-89.12" font-family="Helvetica,sans-Serif" font-size="10.00">/src/TimingMasterControllerBase.cpp</text>
</a>
</g>
</g>
<!-- Node2&#45;&gt;Node7 -->
<g id="edge6_Node000002_Node000007" class="edge">
<title>Node2&#45;&gt;Node7</title>
<g id="a_edge6_Node000002_Node000007"><a xlink:title=" ">
<path fill="none" stroke="#63b8ff" d="M456.18,-163.03C495.07,-151.17 541.7,-136.96 578.99,-125.6"/>
<polygon fill="#63b8ff" stroke="#63b8ff" points="455.43,-159.6 446.88,-165.86 457.47,-166.29 455.43,-159.6"/>
</a>
</g>
</g>
<!-- Node8&#45;&gt;Node3 -->
<g id="edge8_Node000008_Node000003" class="edge">
<title>Node8&#45;&gt;Node3</title>
<g id="a_edge8_Node000008_Node000003"><a xlink:title=" ">
<path fill="none" stroke="#63b8ff" d="M1030.86,-183.51C946.01,-178.36 815.05,-164.96 780.75,-130.75 757.52,-107.58 756.85,-66.78 758.96,-42.25"/>
<polygon fill="#63b8ff" stroke="#63b8ff" points="1030.55,-187 1040.74,-184.08 1030.96,-180.01 1030.55,-187"/>
</a>
</g>
</g>
<!-- Node9 -->
<g id="Node000009" class="node">
<title>Node9</title>
<g id="a_Node000009"><a xlink:href="FakeCardReaderBase_8hpp.html" target="_top" xlink:title=" ">
<polygon fill="white" stroke="#666666" points="987.88,-130.75 789.62,-130.75 789.62,-77.75 987.88,-77.75 987.88,-130.75"/>
<text text-anchor="start" x="797.62" y="-117.25" font-family="Helvetica,sans-Serif" font-size="10.00">/github/workspace/dev</text>
<text text-anchor="start" x="797.62" y="-106" font-family="Helvetica,sans-Serif" font-size="10.00">_area/sourcecode/datahandlinglibs</text>
<text text-anchor="start" x="797.62" y="-94.75" font-family="Helvetica,sans-Serif" font-size="10.00">/include/datahandlinglibs/FakeCardReader</text>
<text text-anchor="middle" x="888.75" y="-83.5" font-family="Helvetica,sans-Serif" font-size="10.00">Base.hpp</text>
</a>
</g>
</g>
<!-- Node8&#45;&gt;Node9 -->
<g id="edge9_Node000008_Node000009" class="edge">
<title>Node8&#45;&gt;Node9</title>
<g id="a_edge9_Node000008_Node000009"><a xlink:title=" ">
<path fill="none" stroke="#63b8ff" d="M1040.97,-162.33C1014.76,-152.5 984.47,-141.14 957.84,-131.16"/>
<polygon fill="#63b8ff" stroke="#63b8ff" points="1039.54,-165.53 1050.13,-165.77 1042,-158.98 1039.54,-165.53"/>
</a>
</g>
</g>
<!-- Node10 -->
<g id="Node000010" class="node">
<title>Node10</title>
<g id="a_Node000010"><a xlink:href="RawDataHandlerBase_8hpp.html" target="_top" xlink:title=" ">
<polygon fill="white" stroke="#666666" points="1205.25,-130.75 1006.25,-130.75 1006.25,-77.75 1205.25,-77.75 1205.25,-130.75"/>
<text text-anchor="start" x="1014.25" y="-117.25" font-family="Helvetica,sans-Serif" font-size="10.00">/github/workspace/dev</text>
<text text-anchor="start" x="1014.25" y="-106" font-family="Helvetica,sans-Serif" font-size="10.00">_area/sourcecode/datahandlinglibs</text>
<text text-anchor="start" x="1014.25" y="-94.75" font-family="Helvetica,sans-Serif" font-size="10.00">/include/datahandlinglibs/RawDataHandler</text>
<text text-anchor="middle" x="1105.75" y="-83.5" font-family="Helvetica,sans-Serif" font-size="10.00">Base.hpp</text>
</a>
</g>
</g>
<!-- Node8&#45;&gt;Node10 -->
<g id="edge10_Node000008_Node000010" class="edge">
<title>Node8&#45;&gt;Node10</title>
<g id="a_edge10_Node000008_Node000010"><a xlink:title=" ">
<path fill="none" stroke="#63b8ff" d="M1105.75,-155.27C1105.75,-147.24 1105.75,-138.69 1105.75,-130.98"/>
<polygon fill="#63b8ff" stroke="#63b8ff" points="1102.25,-155 1105.75,-165 1109.25,-155 1102.25,-155"/>
</a>
</g>
</g>
<!-- Node11 -->
<g id="Node000011" class="node">
<title>Node11</title>
<g id="a_Node000011"><a xlink:href="sourcecode_2timinglibs_2src_2TimingHardwareInterface_8cpp.html" target="_top" xlink:title=" ">
<polygon fill="white" stroke="#666666" points="1386.25,-125.12 1223.25,-125.12 1223.25,-83.38 1386.25,-83.38 1386.25,-125.12"/>
<text text-anchor="start" x="1231.25" y="-111.62" font-family="Helvetica,sans-Serif" font-size="10.00">/github/workspace/dev</text>
<text text-anchor="start" x="1231.25" y="-100.38" font-family="Helvetica,sans-Serif" font-size="10.00">_area/sourcecode/timinglibs</text>
<text text-anchor="middle" x="1304.75" y="-89.12" font-family="Helvetica,sans-Serif" font-size="10.00">/src/TimingHardwareInterface.cpp</text>
</a>
</g>
</g>
<!-- Node8&#45;&gt;Node11 -->
<g id="edge11_Node000008_Node000011" class="edge">
<title>Node8&#45;&gt;Node11</title>
<g id="a_edge11_Node000008_Node000011"><a xlink:title=" ">
<path fill="none" stroke="#63b8ff" d="M1166.08,-161.96C1194.52,-150.33 1228.03,-136.62 1254.99,-125.6"/>
<polygon fill="#63b8ff" stroke="#63b8ff" points="1164.78,-158.7 1156.85,-165.73 1167.43,-165.18 1164.78,-158.7"/>
</a>
</g>
</g>
<!-- Node12 -->
<g id="Node000012" class="node">
<title>Node12</title>
<g id="a_Node000012"><a xlink:href="TPRequestHandler_8cpp.html" target="_top" xlink:title=" ">
<polygon fill="white" stroke="#666666" points="1540.75,-125.12 1404.75,-125.12 1404.75,-83.38 1540.75,-83.38 1540.75,-125.12"/>
<text text-anchor="start" x="1412.75" y="-111.62" font-family="Helvetica,sans-Serif" font-size="10.00">/github/workspace/dev</text>
<text text-anchor="start" x="1412.75" y="-100.38" font-family="Helvetica,sans-Serif" font-size="10.00">_area/sourcecode/trigger</text>
<text text-anchor="middle" x="1472.75" y="-89.12" font-family="Helvetica,sans-Serif" font-size="10.00">/src/TPRequestHandler.cpp</text>
</a>
</g>
</g>
<!-- Node8&#45;&gt;Node12 -->
<g id="edge12_Node000008_Node000012" class="edge">
<title>Node8&#45;&gt;Node12</title>
<g id="a_edge12_Node000008_Node000012"><a xlink:title=" ">
<path fill="none" stroke="#63b8ff" d="M1180.42,-174.97C1239.35,-165.12 1323.39,-149.62 1395.75,-130.75 1401.75,-129.19 1407.95,-127.41 1414.13,-125.53"/>
<polygon fill="#63b8ff" stroke="#63b8ff" points="1180.14,-171.47 1170.85,-176.56 1181.29,-178.38 1180.14,-171.47"/>
</a>
</g>
</g>
<!-- Node14 -->
<g id="Node000014" class="node">
<title>Node14</title>
<g id="a_Node000014"><a xlink:href="sourcecode_2appfwk_2src_2Application_8hpp.html" target="_top" xlink:title=" ">
<polygon fill="white" stroke="#666666" points="1686.62,-125.12 1558.88,-125.12 1558.88,-83.38 1686.62,-83.38 1686.62,-125.12"/>
<text text-anchor="start" x="1566.88" y="-111.62" font-family="Helvetica,sans-Serif" font-size="10.00">/github/workspace/dev</text>
<text text-anchor="start" x="1566.88" y="-100.38" font-family="Helvetica,sans-Serif" font-size="10.00">_area/sourcecode/appfwk</text>
<text text-anchor="middle" x="1622.75" y="-89.12" font-family="Helvetica,sans-Serif" font-size="10.00">/src/Application.hpp</text>
</a>
</g>
</g>
<!-- Node13&#45;&gt;Node14 -->
<g id="edge15_Node000013_Node000014" class="edge">
<title>Node13&#45;&gt;Node14</title>
<g id="a_edge15_Node000013_Node000014"><a xlink:title=" ">
<path fill="none" stroke="#63b8ff" d="M1622.75,-155.27C1622.75,-145.24 1622.75,-134.42 1622.75,-125.42"/>
<polygon fill="#63b8ff" stroke="#63b8ff" points="1619.25,-155 1622.75,-165 1626.25,-155 1619.25,-155"/>
</a>
</g>
</g>
<!-- Node15 -->
<g id="Node000015" class="node">
<title>Node15</title>
<g id="a_Node000015"><a xlink:href="CommandFacility_8cpp.html" target="_top" xlink:title=" ">
<polygon fill="white" stroke="#666666" points="1833,-125.12 1704.5,-125.12 1704.5,-83.38 1833,-83.38 1833,-125.12"/>
<text text-anchor="start" x="1712.5" y="-111.62" font-family="Helvetica,sans-Serif" font-size="10.00">/github/workspace/dev</text>
<text text-anchor="start" x="1712.5" y="-100.38" font-family="Helvetica,sans-Serif" font-size="10.00">_area/sourcecode/cmdlib</text>
<text text-anchor="middle" x="1768.75" y="-89.12" font-family="Helvetica,sans-Serif" font-size="10.00">/src/CommandFacility.cpp</text>
</a>
</g>
</g>
<!-- Node13&#45;&gt;Node15 -->
<g id="edge17_Node000013_Node000015" class="edge">
<title>Node13&#45;&gt;Node15</title>
<g id="a_edge17_Node000013_Node000015"><a xlink:title=" ">
<path fill="none" stroke="#63b8ff" d="M1669.23,-160.72C1689.6,-149.36 1713.16,-136.23 1732.24,-125.6"/>
<polygon fill="#63b8ff" stroke="#63b8ff" points="1667.57,-157.64 1660.54,-165.56 1670.98,-163.75 1667.57,-157.64"/>
</a>
</g>
</g>
<!-- Node14&#45;&gt;Node3 -->
<g id="edge16_Node000014_Node000003" class="edge">
<title>Node14&#45;&gt;Node3</title>
<g id="a_edge16_Node000014_Node000003"><a xlink:title=" ">
<path fill="none" stroke="#63b8ff" d="M1558.79,-79.85C1555.75,-79.07 1552.73,-78.36 1549.75,-77.75 1411.9,-49.31 988.56,-30.56 826.12,-24.24"/>
<polygon fill="#63b8ff" stroke="#63b8ff" points="1557.76,-83.19 1568.33,-82.51 1559.64,-76.45 1557.76,-83.19"/>
</a>
</g>
</g>
<!-- Node17 -->
<g id="Node000017" class="node">
<title>Node17</title>
<g id="a_Node000017"><a xlink:href="RestEndpoint_8cpp.html" target="_top" xlink:title=" ">
<polygon fill="white" stroke="#666666" points="1982.5,-125.12 1851,-125.12 1851,-83.38 1982.5,-83.38 1982.5,-125.12"/>
<text text-anchor="start" x="1859" y="-111.62" font-family="Helvetica,sans-Serif" font-size="10.00">/github/workspace/dev</text>
<text text-anchor="start" x="1859" y="-100.38" font-family="Helvetica,sans-Serif" font-size="10.00">_area/sourcecode/restcmd</text>
<text text-anchor="middle" x="1916.75" y="-89.12" font-family="Helvetica,sans-Serif" font-size="10.00">/src/RestEndpoint.cpp</text>
</a>
</g>
</g>
<!-- Node16&#45;&gt;Node17 -->
<g id="edge19_Node000016_Node000017" class="edge">
<title>Node16&#45;&gt;Node17</title>
<g id="a_edge19_Node000016_Node000017"><a xlink:title=" ">
<path fill="none" stroke="#63b8ff" d="M1883.75,-156.89C1890.44,-146.42 1897.8,-134.91 1903.86,-125.42"/>
<polygon fill="#63b8ff" stroke="#63b8ff" points="1880.85,-154.92 1878.42,-165.23 1886.75,-158.69 1880.85,-154.92"/>
</a>
</g>
</g>
</g>
</svg>
