<?xml version="1.0" encoding="UTF-8" standalone="no"?>
<!DOCTYPE svg PUBLIC "-//W3C//DTD SVG 1.1//EN"
 "http://www.w3.org/Graphics/SVG/1.1/DTD/svg11.dtd">
<!-- Generated by graphviz version 9.0.0 (20230911.1827)
 -->
<!-- Title: /github/workspace/dev_area/sourcecode/dbe/include/dbe/Command.hpp Pages: 1 -->
<svg width="2007pt" height="294pt"
 viewBox="0.00 0.00 2006.88 294.25" xmlns="http://www.w3.org/2000/svg" xmlns:xlink="http://www.w3.org/1999/xlink">
<g id="graph0" class="graph" transform="scale(1 1) rotate(0) translate(4 290.25)">
<title>/github/workspace/dev_area/sourcecode/dbe/include/dbe/Command.hpp</title>
<!-- Node1 -->
<g id="Node000001" class="node">
<title>Node1</title>
<g id="a_Node000001"><a xlink:title=" ">
<polygon fill="#999999" stroke="#666666" points="1658.62,-286.25 1524.88,-286.25 1524.88,-244.5 1658.62,-244.5 1658.62,-286.25"/>
<text text-anchor="start" x="1532.88" y="-272.75" font-family="Helvetica,sans-Serif" font-size="10.00">/github/workspace/dev</text>
<text text-anchor="start" x="1532.88" y="-261.5" font-family="Helvetica,sans-Serif" font-size="10.00">_area/sourcecode/dbe</text>
<text text-anchor="middle" x="1591.75" y="-250.25" font-family="Helvetica,sans-Serif" font-size="10.00">/include/dbe/Command.hpp</text>
</a>
</g>
</g>
<!-- Node2 -->
<g id="Node000002" class="node">
<title>Node2</title>
<g id="a_Node000002"><a xlink:href="change__attribute_8hpp.html" target="_top" xlink:title=" ">
<polygon fill="white" stroke="#666666" points="1325.5,-208.5 1164,-208.5 1164,-166.75 1325.5,-166.75 1325.5,-208.5"/>
<text text-anchor="start" x="1172" y="-195" font-family="Helvetica,sans-Serif" font-size="10.00">/github/workspace/dev</text>
<text text-anchor="start" x="1172" y="-183.75" font-family="Helvetica,sans-Serif" font-size="10.00">_area/sourcecode/dbe</text>
<text text-anchor="middle" x="1244.75" y="-172.5" font-family="Helvetica,sans-Serif" font-size="10.00">/include/dbe/change_attribute.hpp</text>
</a>
</g>
</g>
<!-- Node1&#45;&gt;Node2 -->
<g id="edge1_Node000001_Node000002" class="edge">
<title>Node1&#45;&gt;Node2</title>
<g id="a_edge1_Node000001_Node000002"><a xlink:title=" ">
<path fill="none" stroke="#63b8ff" d="M1513.51,-247.3C1457.58,-235.09 1382.5,-218.7 1325.91,-206.34"/>
<polygon fill="#63b8ff" stroke="#63b8ff" points="1512.44,-250.64 1522.95,-249.36 1513.93,-243.8 1512.44,-250.64"/>
</a>
</g>
</g>
<!-- Node5 -->
<g id="Node000005" class="node">
<title>Node5</title>
<g id="a_Node000005"><a xlink:href="MainWindow_8cpp.html" target="_top" xlink:title=" ">
<polygon fill="white" stroke="#666666" points="143.5,-47.38 0,-47.38 0,-5.62 143.5,-5.62 143.5,-47.38"/>
<text text-anchor="start" x="8" y="-33.88" font-family="Helvetica,sans-Serif" font-size="10.00">/github/workspace/dev</text>
<text text-anchor="start" x="8" y="-22.62" font-family="Helvetica,sans-Serif" font-size="10.00">_area/sourcecode/dbe</text>
<text text-anchor="middle" x="71.75" y="-11.38" font-family="Helvetica,sans-Serif" font-size="10.00">/src/internal/MainWindow.cpp</text>
</a>
</g>
</g>
<!-- Node1&#45;&gt;Node5 -->
<g id="edge26_Node000001_Node000005" class="edge">
<title>Node1&#45;&gt;Node5</title>
<g id="a_edge26_Node000001_Node000005"><a xlink:title=" ">
<path fill="none" stroke="#63b8ff" d="M1513.51,-255.01C1426,-244.39 1280.08,-226.23 1154.75,-208.5 708.53,-145.36 591.6,-155.51 152.75,-53 146.29,-51.49 139.6,-49.72 132.96,-47.84"/>
<polygon fill="#63b8ff" stroke="#63b8ff" points="1512.82,-258.45 1523.17,-256.18 1513.66,-251.5 1512.82,-258.45"/>
</a>
</g>
</g>
<!-- Node7 -->
<g id="Node000007" class="node">
<title>Node7</title>
<g id="a_Node000007"><a xlink:href="config__api__commands_8cpp.html" target="_top" xlink:title=" ">
<polygon fill="white" stroke="#666666" points="1674.88,-53 1560.62,-53 1560.62,0 1674.88,0 1674.88,-53"/>
<text text-anchor="start" x="1568.62" y="-39.5" font-family="Helvetica,sans-Serif" font-size="10.00">/github/workspace/dev</text>
<text text-anchor="start" x="1568.62" y="-28.25" font-family="Helvetica,sans-Serif" font-size="10.00">_area/sourcecode/dbe</text>
<text text-anchor="start" x="1568.62" y="-17" font-family="Helvetica,sans-Serif" font-size="10.00">/src/internal/config_api</text>
<text text-anchor="middle" x="1617.75" y="-5.75" font-family="Helvetica,sans-Serif" font-size="10.00">_commands.cpp</text>
</a>
</g>
</g>
<!-- Node1&#45;&gt;Node7 -->
<g id="edge27_Node000001_Node000007" class="edge">
<title>Node1&#45;&gt;Node7</title>
<g id="a_edge27_Node000001_Node000007"><a xlink:title=" ">
<path fill="none" stroke="#63b8ff" d="M1670.16,-254.15C1724.43,-245.27 1789.84,-230.37 1806.75,-208.5 1819.93,-191.45 1810.87,-104.2 1798.75,-89 1769.17,-51.89 1716.16,-37.05 1675.13,-31.18"/>
<polygon fill="#63b8ff" stroke="#63b8ff" points="1669.94,-250.64 1660.61,-255.66 1671.04,-257.55 1669.94,-250.64"/>
</a>
</g>
</g>
<!-- Node15 -->
<g id="Node000015" class="node">
<title>Node15</title>
<g id="a_Node000015"><a xlink:href="change__class_8hpp.html" target="_top" xlink:title=" ">
<polygon fill="white" stroke="#666666" points="1609.5,-130.75 1460,-130.75 1460,-89 1609.5,-89 1609.5,-130.75"/>
<text text-anchor="start" x="1468" y="-117.25" font-family="Helvetica,sans-Serif" font-size="10.00">/github/workspace/dev</text>
<text text-anchor="start" x="1468" y="-106" font-family="Helvetica,sans-Serif" font-size="10.00">_area/sourcecode/dbe</text>
<text text-anchor="middle" x="1534.75" y="-94.75" font-family="Helvetica,sans-Serif" font-size="10.00">/include/dbe/change_class.hpp</text>
</a>
</g>
</g>
<!-- Node1&#45;&gt;Node15 -->
<g id="edge16_Node000001_Node000015" class="edge">
<title>Node1&#45;&gt;Node15</title>
<g id="a_edge16_Node000001_Node000015"><a xlink:title=" ">
<path fill="none" stroke="#63b8ff" d="M1580.4,-233.82C1569.06,-203.26 1551.93,-157.15 1542.2,-130.95"/>
<polygon fill="#63b8ff" stroke="#63b8ff" points="1577.01,-234.73 1583.77,-242.89 1583.57,-232.3 1577.01,-234.73"/>
</a>
</g>
</g>
<!-- Node16 -->
<g id="Node000016" class="node">
<title>Node16</title>
<g id="a_Node000016"><a xlink:href="change__date_8hpp.html" target="_top" xlink:title=" ">
<polygon fill="white" stroke="#666666" points="1772.25,-130.75 1627.25,-130.75 1627.25,-89 1772.25,-89 1772.25,-130.75"/>
<text text-anchor="start" x="1635.25" y="-117.25" font-family="Helvetica,sans-Serif" font-size="10.00">/github/workspace/dev</text>
<text text-anchor="start" x="1635.25" y="-106" font-family="Helvetica,sans-Serif" font-size="10.00">_area/sourcecode/dbe</text>
<text text-anchor="middle" x="1699.75" y="-94.75" font-family="Helvetica,sans-Serif" font-size="10.00">/include/dbe/change_date.hpp</text>
</a>
</g>
</g>
<!-- Node1&#45;&gt;Node16 -->
<g id="edge18_Node000001_Node000016" class="edge">
<title>Node1&#45;&gt;Node16</title>
<g id="a_edge18_Node000001_Node000016"><a xlink:title=" ">
<path fill="none" stroke="#63b8ff" d="M1605.1,-233.89C1614.52,-213.91 1628.21,-187.71 1643.75,-166.75 1653.24,-153.95 1665.63,-141.28 1676.34,-131.25"/>
<polygon fill="#63b8ff" stroke="#63b8ff" points="1601.95,-232.36 1600.94,-242.91 1608.31,-235.29 1601.95,-232.36"/>
</a>
</g>
</g>
<!-- Node17 -->
<g id="Node000017" class="node">
<title>Node17</title>
<g id="a_Node000017"><a xlink:href="change__enum_8hpp.html" target="_top" xlink:title=" ">
<polygon fill="white" stroke="#666666" points="1441.88,-130.75 1291.62,-130.75 1291.62,-89 1441.88,-89 1441.88,-130.75"/>
<text text-anchor="start" x="1299.62" y="-117.25" font-family="Helvetica,sans-Serif" font-size="10.00">/github/workspace/dev</text>
<text text-anchor="start" x="1299.62" y="-106" font-family="Helvetica,sans-Serif" font-size="10.00">_area/sourcecode/dbe</text>
<text text-anchor="middle" x="1366.75" y="-94.75" font-family="Helvetica,sans-Serif" font-size="10.00">/include/dbe/change_enum.hpp</text>
</a>
</g>
</g>
<!-- Node1&#45;&gt;Node17 -->
<g id="edge20_Node000001_Node000017" class="edge">
<title>Node1&#45;&gt;Node17</title>
<g id="a_edge20_Node000001_Node000017"><a xlink:title=" ">
<path fill="none" stroke="#63b8ff" d="M1553.03,-237.96C1508.62,-207.66 1436.78,-158.65 1396.53,-131.19"/>
<polygon fill="#63b8ff" stroke="#63b8ff" points="1550.85,-240.71 1561.08,-243.45 1554.8,-234.93 1550.85,-240.71"/>
</a>
</g>
</g>
<!-- Node18 -->
<g id="Node000018" class="node">
<title>Node18</title>
<g id="a_Node000018"><a xlink:href="change__time_8hpp.html" target="_top" xlink:title=" ">
<polygon fill="white" stroke="#666666" points="1797.25,-208.5 1652.25,-208.5 1652.25,-166.75 1797.25,-166.75 1797.25,-208.5"/>
<text text-anchor="start" x="1660.25" y="-195" font-family="Helvetica,sans-Serif" font-size="10.00">/github/workspace/dev</text>
<text text-anchor="start" x="1660.25" y="-183.75" font-family="Helvetica,sans-Serif" font-size="10.00">_area/sourcecode/dbe</text>
<text text-anchor="middle" x="1724.75" y="-172.5" font-family="Helvetica,sans-Serif" font-size="10.00">/include/dbe/change_time.hpp</text>
</a>
</g>
</g>
<!-- Node1&#45;&gt;Node18 -->
<g id="edge23_Node000001_Node000018" class="edge">
<title>Node1&#45;&gt;Node18</title>
<g id="a_edge23_Node000001_Node000018"><a xlink:title=" ">
<path fill="none" stroke="#63b8ff" d="M1637.1,-238.55C1654.05,-228.89 1673.05,-218.07 1689.01,-208.98"/>
<polygon fill="#63b8ff" stroke="#63b8ff" points="1635.66,-235.34 1628.71,-243.33 1639.13,-241.42 1635.66,-235.34"/>
</a>
</g>
</g>
<!-- Node19 -->
<g id="Node000019" class="node">
<title>Node19</title>
<g id="a_Node000019"><a xlink:href="Command_8cpp.html" target="_top" xlink:title=" ">
<polygon fill="white" stroke="#666666" points="1998.88,-208.5 1866.62,-208.5 1866.62,-166.75 1998.88,-166.75 1998.88,-208.5"/>
<text text-anchor="start" x="1874.62" y="-195" font-family="Helvetica,sans-Serif" font-size="10.00">/github/workspace/dev</text>
<text text-anchor="start" x="1874.62" y="-183.75" font-family="Helvetica,sans-Serif" font-size="10.00">_area/sourcecode/dbe</text>
<text text-anchor="middle" x="1932.75" y="-172.5" font-family="Helvetica,sans-Serif" font-size="10.00">/src/internal/Command.cpp</text>
</a>
</g>
</g>
<!-- Node1&#45;&gt;Node19 -->
<g id="edge25_Node000001_Node000019" class="edge">
<title>Node1&#45;&gt;Node19</title>
<g id="a_edge25_Node000001_Node000019"><a xlink:title=" ">
<path fill="none" stroke="#63b8ff" d="M1670.07,-248.3C1721.98,-237.48 1791.55,-222.65 1852.75,-208.5 1857.21,-207.47 1861.81,-206.38 1866.44,-205.28"/>
<polygon fill="#63b8ff" stroke="#63b8ff" points="1669.5,-244.85 1660.42,-250.31 1670.92,-251.7 1669.5,-244.85"/>
</a>
</g>
</g>
<!-- Node3 -->
<g id="Node000003" class="node">
<title>Node3</title>
<g id="a_Node000003"><a xlink:href="config__api_8hpp.html" target="_top" xlink:title=" ">
<polygon fill="white" stroke="#666666" points="927.25,-130.75 794.25,-130.75 794.25,-89 927.25,-89 927.25,-130.75"/>
<text text-anchor="start" x="802.25" y="-117.25" font-family="Helvetica,sans-Serif" font-size="10.00">/github/workspace/dev</text>
<text text-anchor="start" x="802.25" y="-106" font-family="Helvetica,sans-Serif" font-size="10.00">_area/sourcecode/dbe</text>
<text text-anchor="middle" x="860.75" y="-94.75" font-family="Helvetica,sans-Serif" font-size="10.00">/include/dbe/config_api.hpp</text>
</a>
</g>
</g>
<!-- Node2&#45;&gt;Node3 -->
<g id="edge2_Node000002_Node000003" class="edge">
<title>Node2&#45;&gt;Node3</title>
<g id="a_edge2_Node000002_Node000003"><a xlink:title=" ">
<path fill="none" stroke="#63b8ff" d="M1152.86,-168.5C1083.49,-154.81 989.89,-136.35 927.54,-124.05"/>
<polygon fill="#63b8ff" stroke="#63b8ff" points="1151.81,-171.86 1162.3,-170.36 1153.16,-164.99 1151.81,-171.86"/>
</a>
</g>
</g>
<!-- Node6 -->
<g id="Node000006" class="node">
<title>Node6</title>
<g id="a_Node000006"><a xlink:href="confaccessor_8cpp.html" target="_top" xlink:title=" ">
<polygon fill="white" stroke="#666666" points="1543,-47.38 1396.5,-47.38 1396.5,-5.62 1543,-5.62 1543,-47.38"/>
<text text-anchor="start" x="1404.5" y="-33.88" font-family="Helvetica,sans-Serif" font-size="10.00">/github/workspace/dev</text>
<text text-anchor="start" x="1404.5" y="-22.62" font-family="Helvetica,sans-Serif" font-size="10.00">_area/sourcecode/dbe</text>
<text text-anchor="middle" x="1469.75" y="-11.38" font-family="Helvetica,sans-Serif" font-size="10.00">/src/internal/confaccessor.cpp</text>
</a>
</g>
</g>
<!-- Node2&#45;&gt;Node6 -->
<g id="edge14_Node000002_Node000006" class="edge">
<title>Node2&#45;&gt;Node6</title>
<g id="a_edge14_Node000002_Node000006"><a xlink:title=" ">
<path fill="none" stroke="#63b8ff" d="M1237.57,-155.36C1234.66,-134.33 1234.9,-107.24 1249.75,-89 1289.77,-39.85 1326.8,-70.42 1387.75,-53 1393.48,-51.36 1399.43,-49.61 1405.38,-47.83"/>
<polygon fill="#63b8ff" stroke="#63b8ff" points="1234.1,-155.86 1239.24,-165.13 1241,-154.68 1234.1,-155.86"/>
</a>
</g>
</g>
<!-- Node2&#45;&gt;Node7 -->
<g id="edge15_Node000002_Node000007" class="edge">
<title>Node2&#45;&gt;Node7</title>
<g id="a_edge15_Node000002_Node000007"><a xlink:title=" ">
<path fill="none" stroke="#63b8ff" d="M1248.53,-155.47C1252.92,-133.42 1262.39,-105.01 1282.75,-89 1330.16,-51.72 1493.33,-67.97 1551.75,-53 1554.61,-52.27 1557.51,-51.45 1560.42,-50.57"/>
<polygon fill="#63b8ff" stroke="#63b8ff" points="1245.11,-154.7 1246.87,-165.15 1252.01,-155.88 1245.11,-154.7"/>
</a>
</g>
</g>
<!-- Node4 -->
<g id="Node000004" class="node">
<title>Node4</title>
<g id="a_Node000004"><a xlink:href="gtool_8cpp.html" target="_top" xlink:title=" ">
<polygon fill="white" stroke="#666666" points="455.12,-47.38 330.38,-47.38 330.38,-5.62 455.12,-5.62 455.12,-47.38"/>
<text text-anchor="start" x="338.38" y="-33.88" font-family="Helvetica,sans-Serif" font-size="10.00">/github/workspace/dev</text>
<text text-anchor="start" x="338.38" y="-22.62" font-family="Helvetica,sans-Serif" font-size="10.00">_area/sourcecode/dbe</text>
<text text-anchor="middle" x="392.75" y="-11.38" font-family="Helvetica,sans-Serif" font-size="10.00">/apps/graphtool/gtool.cpp</text>
</a>
</g>
</g>
<!-- Node3&#45;&gt;Node4 -->
<g id="edge3_Node000003_Node000004" class="edge">
<title>Node3&#45;&gt;Node4</title>
<g id="a_edge3_Node000003_Node000004"><a xlink:title=" ">
<path fill="none" stroke="#63b8ff" d="M782.73,-102.52C702.23,-94.88 573.44,-79.63 464.75,-53 458.7,-51.52 452.44,-49.72 446.26,-47.77"/>
<polygon fill="#63b8ff" stroke="#63b8ff" points="781.98,-105.96 792.26,-103.4 782.63,-98.99 781.98,-105.96"/>
</a>
</g>
</g>
<!-- Node3&#45;&gt;Node5 -->
<g id="edge4_Node000003_Node000005" class="edge">
<title>Node3&#45;&gt;Node5</title>
<g id="a_edge4_Node000003_Node000005"><a xlink:title=" ">
<path fill="none" stroke="#63b8ff" d="M782.85,-104.96C624.85,-96.64 271.61,-76.09 152.75,-53 145.66,-51.62 138.31,-49.84 131.07,-47.85"/>
<polygon fill="#63b8ff" stroke="#63b8ff" points="782.2,-108.43 792.37,-105.45 782.57,-101.44 782.2,-108.43"/>
</a>
</g>
</g>
<!-- Node3&#45;&gt;Node6 -->
<g id="edge5_Node000003_Node000006" class="edge">
<title>Node3&#45;&gt;Node6</title>
<g id="a_edge5_Node000003_Node000006"><a xlink:title=" ">
<path fill="none" stroke="#63b8ff" d="M938.81,-105.38C1042.34,-99.66 1230.33,-85.49 1387.75,-53 1394.76,-51.55 1402.02,-49.75 1409.2,-47.78"/>
<polygon fill="#63b8ff" stroke="#63b8ff" points="938.84,-101.87 929.04,-105.91 939.22,-108.86 938.84,-101.87"/>
</a>
</g>
</g>
<!-- Node3&#45;&gt;Node7 -->
<g id="edge6_Node000003_Node000007" class="edge">
<title>Node3&#45;&gt;Node7</title>
<g id="a_edge6_Node000003_Node000007"><a xlink:title=" ">
<path fill="none" stroke="#63b8ff" d="M938.82,-105.39C1094.18,-98 1437,-79.23 1551.75,-53 1554.62,-52.34 1557.54,-51.59 1560.46,-50.75"/>
<polygon fill="#63b8ff" stroke="#63b8ff" points="938.85,-101.89 929.03,-105.85 939.18,-108.88 938.85,-101.89"/>
</a>
</g>
</g>
<!-- Node8 -->
<g id="Node000008" class="node">
<title>Node8</title>
<g id="a_Node000008"><a xlink:href="config__api__get_8cpp.html" target="_top" xlink:title=" ">
<polygon fill="white" stroke="#666666" points="587.88,-53 473.62,-53 473.62,0 587.88,0 587.88,-53"/>
<text text-anchor="start" x="481.62" y="-39.5" font-family="Helvetica,sans-Serif" font-size="10.00">/github/workspace/dev</text>
<text text-anchor="start" x="481.62" y="-28.25" font-family="Helvetica,sans-Serif" font-size="10.00">_area/sourcecode/dbe</text>
<text text-anchor="start" x="481.62" y="-17" font-family="Helvetica,sans-Serif" font-size="10.00">/src/internal/config_api</text>
<text text-anchor="middle" x="530.75" y="-5.75" font-family="Helvetica,sans-Serif" font-size="10.00">_get.cpp</text>
</a>
</g>
</g>
<!-- Node3&#45;&gt;Node8 -->
<g id="edge7_Node000003_Node000008" class="edge">
<title>Node3&#45;&gt;Node8</title>
<g id="a_edge7_Node000003_Node000008"><a xlink:title=" ">
<path fill="none" stroke="#63b8ff" d="M782.81,-95.77C729.81,-86.04 658.38,-71.3 596.75,-53 593.92,-52.16 591.05,-51.25 588.16,-50.3"/>
<polygon fill="#63b8ff" stroke="#63b8ff" points="781.88,-99.16 792.34,-97.5 783.13,-92.27 781.88,-99.16"/>
</a>
</g>
</g>
<!-- Node9 -->
<g id="Node000009" class="node">
<title>Node9</title>
<g id="a_Node000009"><a xlink:href="config__api__info_8cpp.html" target="_top" xlink:title=" ">
<polygon fill="white" stroke="#666666" points="719.88,-53 605.62,-53 605.62,0 719.88,0 719.88,-53"/>
<text text-anchor="start" x="613.62" y="-39.5" font-family="Helvetica,sans-Serif" font-size="10.00">/github/workspace/dev</text>
<text text-anchor="start" x="613.62" y="-28.25" font-family="Helvetica,sans-Serif" font-size="10.00">_area/sourcecode/dbe</text>
<text text-anchor="start" x="613.62" y="-17" font-family="Helvetica,sans-Serif" font-size="10.00">/src/internal/config_api</text>
<text text-anchor="middle" x="662.75" y="-5.75" font-family="Helvetica,sans-Serif" font-size="10.00">_info.cpp</text>
</a>
</g>
</g>
<!-- Node3&#45;&gt;Node9 -->
<g id="edge8_Node000003_Node000009" class="edge">
<title>Node3&#45;&gt;Node9</title>
<g id="a_edge8_Node000003_Node000009"><a xlink:title=" ">
<path fill="none" stroke="#63b8ff" d="M800.99,-84.31C775.41,-73.8 745.67,-61.58 720.34,-51.17"/>
<polygon fill="#63b8ff" stroke="#63b8ff" points="799.32,-87.41 809.9,-87.98 801.98,-80.94 799.32,-87.41"/>
</a>
</g>
</g>
<!-- Node10 -->
<g id="Node000010" class="node">
<title>Node10</title>
<g id="a_Node000010"><a xlink:href="config__api__set_8cpp.html" target="_top" xlink:title=" ">
<polygon fill="white" stroke="#666666" points="851.88,-53 737.62,-53 737.62,0 851.88,0 851.88,-53"/>
<text text-anchor="start" x="745.62" y="-39.5" font-family="Helvetica,sans-Serif" font-size="10.00">/github/workspace/dev</text>
<text text-anchor="start" x="745.62" y="-28.25" font-family="Helvetica,sans-Serif" font-size="10.00">_area/sourcecode/dbe</text>
<text text-anchor="start" x="745.62" y="-17" font-family="Helvetica,sans-Serif" font-size="10.00">/src/internal/config_api</text>
<text text-anchor="middle" x="794.75" y="-5.75" font-family="Helvetica,sans-Serif" font-size="10.00">_set.cpp</text>
</a>
</g>
</g>
<!-- Node3&#45;&gt;Node10 -->
<g id="edge9_Node000003_Node000010" class="edge">
<title>Node3&#45;&gt;Node10</title>
<g id="a_edge9_Node000003_Node000010"><a xlink:title=" ">
<path fill="none" stroke="#63b8ff" d="M837.35,-80.02C830.26,-71.28 822.53,-61.75 815.62,-53.23"/>
<polygon fill="#63b8ff" stroke="#63b8ff" points="834.46,-82.02 843.48,-87.58 839.9,-77.61 834.46,-82.02"/>
</a>
</g>
</g>
<!-- Node11 -->
<g id="Node000011" class="node">
<title>Node11</title>
<g id="a_Node000011"><a xlink:href="tree_8cpp.html" target="_top" xlink:title=" ">
<polygon fill="white" stroke="#666666" points="983.88,-47.38 869.62,-47.38 869.62,-5.62 983.88,-5.62 983.88,-47.38"/>
<text text-anchor="start" x="877.62" y="-33.88" font-family="Helvetica,sans-Serif" font-size="10.00">/github/workspace/dev</text>
<text text-anchor="start" x="877.62" y="-22.62" font-family="Helvetica,sans-Serif" font-size="10.00">_area/sourcecode/dbe</text>
<text text-anchor="middle" x="926.75" y="-11.38" font-family="Helvetica,sans-Serif" font-size="10.00">/src/structure/tree.cpp</text>
</a>
</g>
</g>
<!-- Node3&#45;&gt;Node11 -->
<g id="edge10_Node000003_Node000011" class="edge">
<title>Node3&#45;&gt;Node11</title>
<g id="a_edge10_Node000003_Node000011"><a xlink:title=" ">
<path fill="none" stroke="#63b8ff" d="M884.08,-80.11C892.78,-69.39 902.46,-57.45 910.39,-47.67"/>
<polygon fill="#63b8ff" stroke="#63b8ff" points="881.6,-77.61 878.02,-87.58 887.04,-82.02 881.6,-77.61"/>
</a>
</g>
</g>
<!-- Node12 -->
<g id="Node000012" class="node">
<title>Node12</title>
<g id="a_Node000012"><a xlink:href="BatchChangeWidget_8cpp.html" target="_top" xlink:title=" ">
<polygon fill="white" stroke="#666666" points="1181.12,-47.38 1002.38,-47.38 1002.38,-5.62 1181.12,-5.62 1181.12,-47.38"/>
<text text-anchor="start" x="1010.38" y="-33.88" font-family="Helvetica,sans-Serif" font-size="10.00">/github/workspace/dev</text>
<text text-anchor="start" x="1010.38" y="-22.62" font-family="Helvetica,sans-Serif" font-size="10.00">_area/sourcecode/dbe</text>
<text text-anchor="middle" x="1091.75" y="-11.38" font-family="Helvetica,sans-Serif" font-size="10.00">/src/widgets/BatchChangeWidget.cpp</text>
</a>
</g>
</g>
<!-- Node3&#45;&gt;Node12 -->
<g id="edge11_Node000003_Node000012" class="edge">
<title>Node3&#45;&gt;Node12</title>
<g id="a_edge11_Node000003_Node000012"><a xlink:title=" ">
<path fill="none" stroke="#63b8ff" d="M929.04,-84.82C962.42,-73.06 1002.14,-59.07 1033.99,-47.85"/>
<polygon fill="#63b8ff" stroke="#63b8ff" points="928.14,-81.42 919.87,-88.05 930.47,-88.03 928.14,-81.42"/>
</a>
</g>
</g>
<!-- Node13 -->
<g id="Node000013" class="node">
<title>Node13</title>
<g id="a_Node000013"><a xlink:href="BuildingBlockEditors_8cpp.html" target="_top" xlink:title=" ">
<polygon fill="white" stroke="#666666" points="1378.5,-47.38 1199,-47.38 1199,-5.62 1378.5,-5.62 1378.5,-47.38"/>
<text text-anchor="start" x="1207" y="-33.88" font-family="Helvetica,sans-Serif" font-size="10.00">/github/workspace/dev</text>
<text text-anchor="start" x="1207" y="-22.62" font-family="Helvetica,sans-Serif" font-size="10.00">_area/sourcecode/dbe</text>
<text text-anchor="middle" x="1288.75" y="-11.38" font-family="Helvetica,sans-Serif" font-size="10.00">/src/widgets/BuildingBlockEditors.cpp</text>
</a>
</g>
</g>
<!-- Node3&#45;&gt;Node13 -->
<g id="edge12_Node000003_Node000013" class="edge">
<title>Node3&#45;&gt;Node13</title>
<g id="a_edge12_Node000003_Node000013"><a xlink:title=" ">
<path fill="none" stroke="#63b8ff" d="M938.82,-97.5C1005.7,-87.31 1104.45,-71.2 1189.75,-53 1197.13,-51.43 1204.78,-49.67 1212.42,-47.84"/>
<polygon fill="#63b8ff" stroke="#63b8ff" points="938.4,-94.03 929.04,-98.99 939.45,-100.95 938.4,-94.03"/>
</a>
</g>
</g>
<!-- Node14 -->
<g id="Node000014" class="node">
<title>Node14</title>
<g id="a_Node000014"><a xlink:href="ObjectCreator_8cpp.html" target="_top" xlink:title=" ">
<polygon fill="white" stroke="#666666" points="311.88,-47.38 161.62,-47.38 161.62,-5.62 311.88,-5.62 311.88,-47.38"/>
<text text-anchor="start" x="169.62" y="-33.88" font-family="Helvetica,sans-Serif" font-size="10.00">/github/workspace/dev</text>
<text text-anchor="start" x="169.62" y="-22.62" font-family="Helvetica,sans-Serif" font-size="10.00">_area/sourcecode/dbe</text>
<text text-anchor="middle" x="236.75" y="-11.38" font-family="Helvetica,sans-Serif" font-size="10.00">/src/widgets/ObjectCreator.cpp</text>
</a>
</g>
</g>
<!-- Node3&#45;&gt;Node14 -->
<g id="edge13_Node000003_Node000014" class="edge">
<title>Node3&#45;&gt;Node14</title>
<g id="a_edge13_Node000003_Node000014"><a xlink:title=" ">
<path fill="none" stroke="#63b8ff" d="M782.27,-105.37C676.72,-99.61 483.58,-85.36 321.75,-53 314.5,-51.55 306.98,-49.75 299.54,-47.77"/>
<polygon fill="#63b8ff" stroke="#63b8ff" points="782.08,-108.87 792.25,-105.9 782.45,-101.88 782.08,-108.87"/>
</a>
</g>
</g>
<!-- Node15&#45;&gt;Node7 -->
<g id="edge17_Node000015_Node000007" class="edge">
<title>Node15&#45;&gt;Node7</title>
<g id="a_edge17_Node000015_Node000007"><a xlink:title=" ">
<path fill="none" stroke="#63b8ff" d="M1563.34,-80.84C1572.48,-71.89 1582.54,-62.02 1591.51,-53.23"/>
<polygon fill="#63b8ff" stroke="#63b8ff" points="1561.04,-78.2 1556.35,-87.7 1565.94,-83.2 1561.04,-78.2"/>
</a>
</g>
</g>
<!-- Node16&#45;&gt;Node7 -->
<g id="edge19_Node000016_Node000007" class="edge">
<title>Node16&#45;&gt;Node7</title>
<g id="a_edge19_Node000016_Node000007"><a xlink:title=" ">
<path fill="none" stroke="#63b8ff" d="M1671.5,-80.84C1662.48,-71.89 1652.53,-62.02 1643.68,-53.23"/>
<polygon fill="#63b8ff" stroke="#63b8ff" points="1668.84,-83.13 1678.41,-87.69 1673.77,-78.17 1668.84,-83.13"/>
</a>
</g>
</g>
<!-- Node17&#45;&gt;Node6 -->
<g id="edge21_Node000017_Node000006" class="edge">
<title>Node17&#45;&gt;Node6</title>
<g id="a_edge21_Node000017_Node000006"><a xlink:title=" ">
<path fill="none" stroke="#63b8ff" d="M1401.32,-81.56C1415.27,-70.54 1431.09,-58.05 1444,-47.85"/>
<polygon fill="#63b8ff" stroke="#63b8ff" points="1399.34,-78.67 1393.66,-87.61 1403.68,-84.16 1399.34,-78.67"/>
</a>
</g>
</g>
<!-- Node17&#45;&gt;Node7 -->
<g id="edge22_Node000017_Node000007" class="edge">
<title>Node17&#45;&gt;Node7</title>
<g id="a_edge22_Node000017_Node000007"><a xlink:title=" ">
<path fill="none" stroke="#63b8ff" d="M1449.03,-85.47C1481.24,-75.93 1518.4,-64.46 1551.75,-53 1554.54,-52.04 1557.38,-51.04 1560.25,-50.01"/>
<polygon fill="#63b8ff" stroke="#63b8ff" points="1448.37,-82.02 1439.76,-88.2 1450.34,-88.73 1448.37,-82.02"/>
</a>
</g>
</g>
<!-- Node18&#45;&gt;Node7 -->
<g id="edge24_Node000018_Node000007" class="edge">
<title>Node18&#45;&gt;Node7</title>
<g id="a_edge24_Node000018_Node000007"><a xlink:title=" ">
<path fill="none" stroke="#63b8ff" d="M1762.18,-158.47C1770.12,-150.47 1777.41,-141.09 1781.75,-130.75 1788.94,-113.64 1792.32,-104.25 1781.75,-89 1757.93,-54.63 1712.39,-39.44 1675.33,-32.74"/>
<polygon fill="#63b8ff" stroke="#63b8ff" points="1759.81,-155.89 1754.87,-165.26 1764.58,-161.01 1759.81,-155.89"/>
</a>
</g>
</g>
</g>
</svg>
