<?xml version="1.0" encoding="UTF-8" standalone="no"?>
<!DOCTYPE svg PUBLIC "-//W3C//DTD SVG 1.1//EN"
 "http://www.w3.org/Graphics/SVG/1.1/DTD/svg11.dtd">
<!-- Generated by graphviz version 9.0.0 (20230911.1827)
 -->
<!-- Title: /github/workspace/dev_area/sourcecode/dfmessages/include/dfmessages/ComponentRequest_serialization.hpp Pages: 1 -->
<svg width="2329pt" height="493pt"
 viewBox="0.00 0.00 2328.67 492.75" xmlns="http://www.w3.org/2000/svg" xmlns:xlink="http://www.w3.org/1999/xlink">
<g id="graph0" class="graph" transform="scale(1 1) rotate(0) translate(4 488.75)">
<title>/github/workspace/dev_area/sourcecode/dfmessages/include/dfmessages/ComponentRequest_serialization.hpp</title>
<!-- Node1 -->
<g id="Node000001" class="node">
<title>Node1</title>
<g id="a_Node000001"><a xlink:title=" ">
<polygon fill="#999999" stroke="#666666" points="429.25,-484.75 234.75,-484.75 234.75,-431.75 429.25,-431.75 429.25,-484.75"/>
<text text-anchor="start" x="242.75" y="-471.25" font-family="Helvetica,sans-Serif" font-size="10.00">/github/workspace/dev</text>
<text text-anchor="start" x="242.75" y="-460" font-family="Helvetica,sans-Serif" font-size="10.00">_area/sourcecode/dfmessages</text>
<text text-anchor="start" x="242.75" y="-448.75" font-family="Helvetica,sans-Serif" font-size="10.00">/include/dfmessages/ComponentRequest</text>
<text text-anchor="middle" x="332" y="-437.5" font-family="Helvetica,sans-Serif" font-size="10.00">_serialization.hpp</text>
</a>
</g>
</g>
<!-- Node2 -->
<g id="Node000002" class="node">
<title>Node2</title>
<g id="a_Node000002"><a xlink:href="ComponentRequest_8hpp.html" target="_top" xlink:title=" ">
<polygon fill="white" stroke="#666666" points="299,-329.25 163,-329.25 163,-298.75 299,-298.75 299,-329.25"/>
<text text-anchor="start" x="171" y="-315.75" font-family="Helvetica,sans-Serif" font-size="10.00">daqdataformats/Component</text>
<text text-anchor="middle" x="231" y="-304.5" font-family="Helvetica,sans-Serif" font-size="10.00">Request.hpp</text>
</a>
</g>
</g>
<!-- Node1&#45;&gt;Node2 -->
<g id="edge1_Node000001_Node000002" class="edge">
<title>Node1&#45;&gt;Node2</title>
<g id="a_edge1_Node000001_Node000002"><a xlink:title=" ">
<path fill="none" stroke="#63b8ff" d="M313.71,-431.49C295.04,-405.2 266.29,-364.71 248.08,-339.05"/>
<polygon fill="#63b8ff" stroke="#63b8ff" points="250.95,-337.05 242.3,-330.92 245.24,-341.1 250.95,-337.05"/>
</a>
</g>
</g>
<!-- Node17 -->
<g id="Node000017" class="node">
<title>Node17</title>
<g id="a_Node000017"><a xlink:href="SourceID__serialization_8hpp.html" target="_top" xlink:title=" ">
<polygon fill="white" stroke="#666666" points="457.38,-395.75 344.62,-395.75 344.62,-365.25 457.38,-365.25 457.38,-395.75"/>
<text text-anchor="start" x="352.62" y="-382.25" font-family="Helvetica,sans-Serif" font-size="10.00">dfmessages/SourceID</text>
<text text-anchor="middle" x="401" y="-371" font-family="Helvetica,sans-Serif" font-size="10.00">_serialization.hpp</text>
</a>
</g>
</g>
<!-- Node1&#45;&gt;Node17 -->
<g id="edge21_Node000001_Node000017" class="edge">
<title>Node1&#45;&gt;Node17</title>
<g id="a_edge21_Node000001_Node000017"><a xlink:title=" ">
<path fill="none" stroke="#63b8ff" d="M355.36,-431.6C363.37,-422.81 372.27,-413.04 380.08,-404.47"/>
<polygon fill="#63b8ff" stroke="#63b8ff" points="382.56,-406.94 386.71,-397.19 377.39,-402.23 382.56,-406.94"/>
</a>
</g>
</g>
<!-- Node3 -->
<g id="Node000003" class="node">
<title>Node3</title>
<g id="a_Node000003"><a xlink:href="SourceID_8hpp.html" target="_top" xlink:title=" ">
<polygon fill="white" stroke="#666666" points="473.5,-262.75 328.5,-262.75 328.5,-243.5 473.5,-243.5 473.5,-262.75"/>
<text text-anchor="middle" x="401" y="-249.25" font-family="Helvetica,sans-Serif" font-size="10.00">daqdataformats/SourceID.hpp</text>
</a>
</g>
</g>
<!-- Node2&#45;&gt;Node3 -->
<g id="edge2_Node000002_Node000003" class="edge">
<title>Node2&#45;&gt;Node3</title>
<g id="a_edge2_Node000002_Node000003"><a xlink:title=" ">
<path fill="none" stroke="#63b8ff" d="M273.46,-298.3C301.25,-288.67 337.23,-276.21 363.88,-266.98"/>
<polygon fill="#63b8ff" stroke="#63b8ff" points="364.94,-270.32 373.25,-263.74 362.65,-263.7 364.94,-270.32"/>
</a>
</g>
</g>
<!-- Node5 -->
<g id="Node000005" class="node">
<title>Node5</title>
<g id="a_Node000005"><a xlink:title=" ">
<polygon fill="#e0e0e0" stroke="#999999" points="304.12,-201.88 255.88,-201.88 255.88,-182.62 304.12,-182.62 304.12,-201.88"/>
<text text-anchor="middle" x="280" y="-188.38" font-family="Helvetica,sans-Serif" font-size="10.00">cstddef</text>
</a>
</g>
</g>
<!-- Node2&#45;&gt;Node5 -->
<g id="edge17_Node000002_Node000005" class="edge">
<title>Node2&#45;&gt;Node5</title>
<g id="a_edge17_Node000002_Node000005"><a xlink:title=" ">
<path fill="none" stroke="#63b8ff" d="M237.01,-298.32C245.8,-276.84 262.17,-236.81 271.98,-212.84"/>
<polygon fill="#63b8ff" stroke="#63b8ff" points="275.2,-214.22 275.75,-203.64 268.72,-211.57 275.2,-214.22"/>
</a>
</g>
</g>
<!-- Node10 -->
<g id="Node000010" class="node">
<title>Node10</title>
<g id="a_Node000010"><a xlink:title=" ">
<polygon fill="#e0e0e0" stroke="#999999" points="237.62,-201.88 186.38,-201.88 186.38,-182.62 237.62,-182.62 237.62,-201.88"/>
<text text-anchor="middle" x="212" y="-188.38" font-family="Helvetica,sans-Serif" font-size="10.00">ostream</text>
</a>
</g>
</g>
<!-- Node2&#45;&gt;Node10 -->
<g id="edge19_Node000002_Node000010" class="edge">
<title>Node2&#45;&gt;Node10</title>
<g id="a_edge19_Node000002_Node000010"><a xlink:title=" ">
<path fill="none" stroke="#63b8ff" d="M228.67,-298.32C225.29,-277.03 219.03,-237.54 215.21,-213.51"/>
<polygon fill="#63b8ff" stroke="#63b8ff" points="218.69,-213.06 213.66,-203.73 211.77,-214.16 218.69,-213.06"/>
</a>
</g>
</g>
<!-- Node12 -->
<g id="Node000012" class="node">
<title>Node12</title>
<g id="a_Node000012"><a xlink:title=" ">
<polygon fill="#e0e0e0" stroke="#999999" points="1026,-74.5 986,-74.5 986,-55.25 1026,-55.25 1026,-74.5"/>
<text text-anchor="middle" x="1006" y="-61" font-family="Helvetica,sans-Serif" font-size="10.00">string</text>
</a>
</g>
</g>
<!-- Node2&#45;&gt;Node12 -->
<g id="edge20_Node000002_Node000012" class="edge">
<title>Node2&#45;&gt;Node12</title>
<g id="a_edge20_Node000002_Node000012"><a xlink:title=" ">
<path fill="none" stroke="#63b8ff" d="M162.51,-309.49C127.87,-303.99 88.15,-291.29 64,-262.75 39.3,-233.56 31.58,-205.57 57,-177 119.53,-106.72 816.37,-73.74 974.3,-67.14"/>
<polygon fill="#63b8ff" stroke="#63b8ff" points="974.17,-70.64 984.01,-66.74 973.88,-63.65 974.17,-70.64"/>
</a>
</g>
</g>
<!-- Node15 -->
<g id="Node000015" class="node">
<title>Node15</title>
<g id="a_Node000015"><a xlink:href="daqdataformats_2include_2daqdataformats_2Types_8hpp.html" target="_top" xlink:title=" ">
<polygon fill="white" stroke="#666666" points="203.38,-262.75 72.62,-262.75 72.62,-243.5 203.38,-243.5 203.38,-262.75"/>
<text text-anchor="middle" x="138" y="-249.25" font-family="Helvetica,sans-Serif" font-size="10.00">daqdataformats/Types.hpp</text>
</a>
</g>
</g>
<!-- Node2&#45;&gt;Node15 -->
<g id="edge14_Node000002_Node000015" class="edge">
<title>Node2&#45;&gt;Node15</title>
<g id="a_edge14_Node000002_Node000015"><a xlink:title=" ">
<path fill="none" stroke="#63b8ff" d="M208.01,-298.45C193.99,-289.57 176.09,-278.24 161.9,-269.26"/>
<polygon fill="#63b8ff" stroke="#63b8ff" points="163.94,-266.4 153.62,-264.01 160.19,-272.32 163.94,-266.4"/>
</a>
</g>
</g>
<!-- Node16 -->
<g id="Node000016" class="node">
<title>Node16</title>
<g id="a_Node000016"><a xlink:title=" ">
<polygon fill="#e0e0e0" stroke="#999999" points="1333.75,-19.25 1280.25,-19.25 1280.25,0 1333.75,0 1333.75,-19.25"/>
<text text-anchor="middle" x="1307" y="-5.75" font-family="Helvetica,sans-Serif" font-size="10.00">iostream</text>
</a>
</g>
</g>
<!-- Node2&#45;&gt;Node16 -->
<g id="edge18_Node000002_Node000016" class="edge">
<title>Node2&#45;&gt;Node16</title>
<g id="a_edge18_Node000002_Node000016"><a xlink:title=" ">
<path fill="none" stroke="#63b8ff" d="M162.63,-306.37C94.51,-295.56 0,-267.22 0,-193.25 0,-193.25 0,-193.25 0,-124.75 0,-59.33 1052.99,-19.4 1268.68,-11.91"/>
<polygon fill="#63b8ff" stroke="#63b8ff" points="1268.62,-15.42 1278.49,-11.57 1268.37,-8.42 1268.62,-15.42"/>
</a>
</g>
</g>
<!-- Node4 -->
<g id="Node000004" class="node">
<title>Node4</title>
<g id="a_Node000004"><a xlink:title=" ">
<polygon fill="#e0e0e0" stroke="#999999" points="543.12,-201.88 494.88,-201.88 494.88,-182.62 543.12,-182.62 543.12,-201.88"/>
<text text-anchor="middle" x="519" y="-188.38" font-family="Helvetica,sans-Serif" font-size="10.00">cassert</text>
</a>
</g>
</g>
<!-- Node3&#45;&gt;Node4 -->
<g id="edge3_Node000003_Node000004" class="edge">
<title>Node3&#45;&gt;Node4</title>
<g id="a_edge3_Node000003_Node000004"><a xlink:title=" ">
<path fill="none" stroke="#63b8ff" d="M419.18,-243.05C438.29,-233.52 468.61,-218.39 490.82,-207.31"/>
<polygon fill="#63b8ff" stroke="#63b8ff" points="492.25,-210.51 499.64,-202.91 489.13,-204.24 492.25,-210.51"/>
</a>
</g>
</g>
<!-- Node3&#45;&gt;Node5 -->
<g id="edge4_Node000003_Node000005" class="edge">
<title>Node3&#45;&gt;Node5</title>
<g id="a_edge4_Node000003_Node000005"><a xlink:title=" ">
<path fill="none" stroke="#63b8ff" d="M382.36,-243.05C362.67,-233.48 331.39,-218.25 308.58,-207.16"/>
<polygon fill="#63b8ff" stroke="#63b8ff" points="310.35,-204.12 299.82,-202.9 307.29,-210.42 310.35,-204.12"/>
</a>
</g>
</g>
<!-- Node6 -->
<g id="Node000006" class="node">
<title>Node6</title>
<g id="a_Node000006"><a xlink:title=" ">
<polygon fill="#e0e0e0" stroke="#999999" points="168.62,-201.88 123.38,-201.88 123.38,-182.62 168.62,-182.62 168.62,-201.88"/>
<text text-anchor="middle" x="146" y="-188.38" font-family="Helvetica,sans-Serif" font-size="10.00">cstdint</text>
</a>
</g>
</g>
<!-- Node3&#45;&gt;Node6 -->
<g id="edge5_Node000003_Node000006" class="edge">
<title>Node3&#45;&gt;Node6</title>
<g id="a_edge5_Node000003_Node000006"><a xlink:title=" ">
<path fill="none" stroke="#63b8ff" d="M334.29,-243.03C289.19,-235.87 228.67,-224.27 177,-207.5 176.04,-207.19 175.07,-206.85 174.09,-206.5"/>
<polygon fill="#63b8ff" stroke="#63b8ff" points="175.73,-203.39 165.15,-202.84 173.08,-209.87 175.73,-203.39"/>
</a>
</g>
</g>
<!-- Node7 -->
<g id="Node000007" class="node">
<title>Node7</title>
<g id="a_Node000007"><a xlink:title=" ">
<polygon fill="#e0e0e0" stroke="#999999" points="610.88,-201.88 561.12,-201.88 561.12,-182.62 610.88,-182.62 610.88,-201.88"/>
<text text-anchor="middle" x="586" y="-188.38" font-family="Helvetica,sans-Serif" font-size="10.00">iomanip</text>
</a>
</g>
</g>
<!-- Node3&#45;&gt;Node7 -->
<g id="edge6_Node000003_Node000007" class="edge">
<title>Node3&#45;&gt;Node7</title>
<g id="a_edge6_Node000003_Node000007"><a xlink:title=" ">
<path fill="none" stroke="#63b8ff" d="M435.53,-243.08C466.36,-234.73 512.6,-221.53 552,-207.5 552.95,-207.16 553.91,-206.81 554.88,-206.45"/>
<polygon fill="#63b8ff" stroke="#63b8ff" points="555.85,-209.83 563.88,-202.91 553.29,-203.32 555.85,-209.83"/>
</a>
</g>
</g>
<!-- Node8 -->
<g id="Node000008" class="node">
<title>Node8</title>
<g id="a_Node000008"><a xlink:title=" ">
<polygon fill="#e0e0e0" stroke="#999999" points="677.12,-201.88 628.88,-201.88 628.88,-182.62 677.12,-182.62 677.12,-201.88"/>
<text text-anchor="middle" x="653" y="-188.38" font-family="Helvetica,sans-Serif" font-size="10.00">istream</text>
</a>
</g>
</g>
<!-- Node3&#45;&gt;Node8 -->
<g id="edge7_Node000003_Node000008" class="edge">
<title>Node3&#45;&gt;Node8</title>
<g id="a_edge7_Node000003_Node000008"><a xlink:title=" ">
<path fill="none" stroke="#63b8ff" d="M462.75,-243.05C507.1,-235.68 567.99,-223.84 620,-207.5 620.99,-207.19 621.99,-206.86 623,-206.51"/>
<polygon fill="#63b8ff" stroke="#63b8ff" points="624.23,-209.79 632.3,-202.92 621.71,-203.26 624.23,-209.79"/>
</a>
</g>
</g>
<!-- Node9 -->
<g id="Node000009" class="node">
<title>Node9</title>
<g id="a_Node000009"><a xlink:title=" ">
<polygon fill="#e0e0e0" stroke="#999999" points="105.62,-201.88 66.38,-201.88 66.38,-182.62 105.62,-182.62 105.62,-201.88"/>
<text text-anchor="middle" x="86" y="-188.38" font-family="Helvetica,sans-Serif" font-size="10.00">limits</text>
</a>
</g>
</g>
<!-- Node3&#45;&gt;Node9 -->
<g id="edge8_Node000003_Node000009" class="edge">
<title>Node3&#45;&gt;Node9</title>
<g id="a_edge8_Node000003_Node000009"><a xlink:title=" ">
<path fill="none" stroke="#63b8ff" d="M328.18,-247.19C269.27,-241.7 184.77,-230.37 114,-207.5 113.35,-207.29 112.7,-207.07 112.05,-206.83"/>
<polygon fill="#63b8ff" stroke="#63b8ff" points="113.57,-203.68 103.01,-202.9 110.78,-210.1 113.57,-203.68"/>
</a>
</g>
</g>
<!-- Node3&#45;&gt;Node10 -->
<g id="edge9_Node000003_Node000010" class="edge">
<title>Node3&#45;&gt;Node10</title>
<g id="a_edge9_Node000003_Node000010"><a xlink:title=" ">
<path fill="none" stroke="#63b8ff" d="M365.81,-243.05C334.38,-234.69 287.23,-221.48 247,-207.5 246.02,-207.16 245.04,-206.81 244.04,-206.45"/>
<polygon fill="#63b8ff" stroke="#63b8ff" points="245.34,-203.2 234.75,-202.89 242.84,-209.74 245.34,-203.2"/>
</a>
</g>
</g>
<!-- Node11 -->
<g id="Node000011" class="node">
<title>Node11</title>
<g id="a_Node000011"><a xlink:title=" ">
<polygon fill="#e0e0e0" stroke="#999999" points="784.62,-201.88 733.38,-201.88 733.38,-182.62 784.62,-182.62 784.62,-201.88"/>
<text text-anchor="middle" x="759" y="-188.38" font-family="Helvetica,sans-Serif" font-size="10.00">sstream</text>
</a>
</g>
</g>
<!-- Node3&#45;&gt;Node11 -->
<g id="edge10_Node000003_Node000011" class="edge">
<title>Node3&#45;&gt;Node11</title>
<g id="a_edge10_Node000003_Node000011"><a xlink:title=" ">
<path fill="none" stroke="#63b8ff" d="M473.78,-246.15C538.76,-239.81 636.17,-227.84 719,-207.5 721.01,-207.01 723.05,-206.45 725.11,-205.85"/>
<polygon fill="#63b8ff" stroke="#63b8ff" points="726.09,-209.21 734.54,-202.81 723.94,-202.55 726.09,-209.21"/>
</a>
</g>
</g>
<!-- Node3&#45;&gt;Node12 -->
<g id="edge11_Node000003_Node000012" class="edge">
<title>Node3&#45;&gt;Node12</title>
<g id="a_edge11_Node000003_Node000012"><a xlink:title=" ">
<path fill="none" stroke="#63b8ff" d="M473.84,-251.61C533.39,-248.69 618.47,-238.66 686,-207.5 701.02,-200.57 784.18,-117.86 799,-110.5 856.54,-81.93 931.98,-71.57 974.07,-67.87"/>
<polygon fill="#63b8ff" stroke="#63b8ff" points="974.31,-71.37 984,-67.08 973.76,-64.39 974.31,-71.37"/>
</a>
</g>
</g>
<!-- Node13 -->
<g id="Node000013" class="node">
<title>Node13</title>
<g id="a_Node000013"><a xlink:title=" ">
<polygon fill="#e0e0e0" stroke="#999999" points="359.5,-201.88 322.5,-201.88 322.5,-182.62 359.5,-182.62 359.5,-201.88"/>
<text text-anchor="middle" x="341" y="-188.38" font-family="Helvetica,sans-Serif" font-size="10.00">tuple</text>
</a>
</g>
</g>
<!-- Node3&#45;&gt;Node13 -->
<g id="edge12_Node000003_Node000013" class="edge">
<title>Node3&#45;&gt;Node13</title>
<g id="a_edge12_Node000003_Node000013"><a xlink:title=" ">
<path fill="none" stroke="#63b8ff" d="M391.89,-243.18C382.99,-234.45 369.22,-220.94 358.25,-210.18"/>
<polygon fill="#63b8ff" stroke="#63b8ff" points="360.87,-207.84 351.28,-203.34 355.97,-212.84 360.87,-207.84"/>
</a>
</g>
</g>
<!-- Node14 -->
<g id="Node000014" class="node">
<title>Node14</title>
<g id="a_Node000014"><a xlink:href="SourceID_8hxx.html" target="_top" xlink:title=" ">
<polygon fill="white" stroke="#666666" points="476.62,-201.88 377.38,-201.88 377.38,-182.62 476.62,-182.62 476.62,-201.88"/>
<text text-anchor="middle" x="427" y="-188.38" font-family="Helvetica,sans-Serif" font-size="10.00">detail/SourceID.hxx</text>
</a>
</g>
</g>
<!-- Node3&#45;&gt;Node14 -->
<g id="edge13_Node000003_Node000014" class="edge">
<title>Node3&#45;&gt;Node14</title>
<g id="a_edge13_Node000003_Node000014"><a xlink:title=" ">
<path fill="none" stroke="#63b8ff" d="M404.95,-243.18C408.5,-235.14 413.84,-223.05 418.37,-212.78"/>
<polygon fill="#63b8ff" stroke="#63b8ff" points="421.56,-214.22 422.4,-203.66 415.16,-211.39 421.56,-214.22"/>
</a>
</g>
</g>
<!-- Node15&#45;&gt;Node6 -->
<g id="edge15_Node000015_Node000006" class="edge">
<title>Node15&#45;&gt;Node6</title>
<g id="a_edge15_Node000015_Node000006"><a xlink:title=" ">
<path fill="none" stroke="#63b8ff" d="M139.22,-243.18C140.28,-235.32 141.88,-223.57 143.26,-213.45"/>
<polygon fill="#63b8ff" stroke="#63b8ff" points="146.69,-214.16 144.57,-203.78 139.76,-213.21 146.69,-214.16"/>
</a>
</g>
</g>
<!-- Node15&#45;&gt;Node9 -->
<g id="edge16_Node000015_Node000009" class="edge">
<title>Node15&#45;&gt;Node9</title>
<g id="a_edge16_Node000015_Node000009"><a xlink:title=" ">
<path fill="none" stroke="#63b8ff" d="M130.1,-243.18C122.54,-234.62 110.93,-221.48 101.52,-210.82"/>
<polygon fill="#63b8ff" stroke="#63b8ff" points="104.22,-208.59 94.97,-203.41 98.97,-213.22 104.22,-208.59"/>
</a>
</g>
</g>
<!-- Node17&#45;&gt;Node3 -->
<g id="edge22_Node000017_Node000003" class="edge">
<title>Node17&#45;&gt;Node3</title>
<g id="a_edge22_Node000017_Node000003"><a xlink:title=" ">
<path fill="none" stroke="#63b8ff" d="M401,-365.12C401,-342.78 401,-299.67 401,-274.25"/>
<polygon fill="#63b8ff" stroke="#63b8ff" points="404.5,-274.58 401,-264.58 397.5,-274.58 404.5,-274.58"/>
</a>
</g>
</g>
<!-- Node18 -->
<g id="Node000018" class="node">
<title>Node18</title>
<g id="a_Node000018"><a xlink:href="Serialization_8hpp.html" target="_top" xlink:title=" ">
<polygon fill="white" stroke="#666666" points="1135.25,-323.62 994.75,-323.62 994.75,-304.38 1135.25,-304.38 1135.25,-323.62"/>
<text text-anchor="middle" x="1065" y="-310.12" font-family="Helvetica,sans-Serif" font-size="10.00">serialization/Serialization.hpp</text>
</a>
</g>
</g>
<!-- Node17&#45;&gt;Node18 -->
<g id="edge23_Node000017_Node000018" class="edge">
<title>Node17&#45;&gt;Node18</title>
<g id="a_edge23_Node000017_Node000018"><a xlink:title=" ">
<path fill="none" stroke="#63b8ff" d="M457.61,-374C575.28,-362.57 846.67,-336.21 983.29,-322.94"/>
<polygon fill="#63b8ff" stroke="#63b8ff" points="983.37,-326.45 992.98,-322 982.69,-319.48 983.37,-326.45"/>
</a>
</g>
</g>
<!-- Node18&#45;&gt;Node12 -->
<g id="edge64_Node000018_Node000012" class="edge">
<title>Node18&#45;&gt;Node12</title>
<g id="a_edge64_Node000018_Node000012"><a xlink:title=" ">
<path fill="none" stroke="#63b8ff" d="M1000.42,-303.88C950.58,-295.53 887.16,-281.6 869,-262.75 842.3,-235.04 839.74,-211.4 857,-177 881.59,-127.99 939.18,-95.08 975.13,-78.49"/>
<polygon fill="#63b8ff" stroke="#63b8ff" points="976.43,-81.74 984.15,-74.48 973.59,-75.35 976.43,-81.74"/>
</a>
</g>
</g>
<!-- Node19 -->
<g id="Node000019" class="node">
<title>Node19</title>
<g id="a_Node000019"><a xlink:href="Issue_8hpp.html" target="_top" xlink:title=" ">
<polygon fill="white" stroke="#666666" points="1232.25,-262.75 1157.75,-262.75 1157.75,-243.5 1232.25,-243.5 1232.25,-262.75"/>
<text text-anchor="middle" x="1195" y="-249.25" font-family="Helvetica,sans-Serif" font-size="10.00">ers/Issue.hpp</text>
</a>
</g>
</g>
<!-- Node18&#45;&gt;Node19 -->
<g id="edge24_Node000018_Node000019" class="edge">
<title>Node18&#45;&gt;Node19</title>
<g id="a_edge24_Node000018_Node000019"><a xlink:title=" ">
<path fill="none" stroke="#63b8ff" d="M1085.03,-303.93C1106.37,-294.26 1140.4,-278.85 1164.96,-267.73"/>
<polygon fill="#63b8ff" stroke="#63b8ff" points="1166.12,-271.05 1173.78,-263.73 1163.23,-264.67 1166.12,-271.05"/>
</a>
</g>
</g>
<!-- Node28 -->
<g id="Node000028" class="node">
<title>Node28</title>
<g id="a_Node000028"><a xlink:title=" ">
<polygon fill="#e0e0e0" stroke="#999999" points="1317.5,-74.5 1274.5,-74.5 1274.5,-55.25 1317.5,-55.25 1317.5,-74.5"/>
<text text-anchor="middle" x="1296" y="-61" font-family="Helvetica,sans-Serif" font-size="10.00">vector</text>
</a>
</g>
</g>
<!-- Node18&#45;&gt;Node28 -->
<g id="edge65_Node000018_Node000028" class="edge">
<title>Node18&#45;&gt;Node28</title>
<g id="a_edge65_Node000018_Node000028"><a xlink:title=" ">
<path fill="none" stroke="#63b8ff" d="M1135.39,-305.13C1252.32,-290.81 1479.9,-257.32 1542,-207.5 1567.44,-187.09 1565.94,-172.84 1573,-141 1596.77,-33.77 1447.31,-94 1328.92,-74.42"/>
<polygon fill="#63b8ff" stroke="#63b8ff" points="1329.89,-71.04 1319.42,-72.63 1328.6,-77.92 1329.89,-71.04"/>
</a>
</g>
</g>
<!-- Node42 -->
<g id="Node000042" class="node">
<title>Node42</title>
<g id="a_Node000042"><a xlink:title=" ">
<polygon fill="#e0e0e0" stroke="#999999" points="1737.62,-262.75 1620.38,-262.75 1620.38,-243.5 1737.62,-243.5 1737.62,-262.75"/>
<text text-anchor="middle" x="1679" y="-249.25" font-family="Helvetica,sans-Serif" font-size="10.00">boost/preprocessor.hpp</text>
</a>
</g>
</g>
<!-- Node18&#45;&gt;Node42 -->
<g id="edge60_Node000018_Node000042" class="edge">
<title>Node18&#45;&gt;Node42</title>
<g id="a_edge60_Node000018_Node000042"><a xlink:title=" ">
<path fill="none" stroke="#63b8ff" d="M1135.52,-307.02C1238.83,-298.12 1437.38,-280.54 1606,-262.75 1607,-262.64 1608.01,-262.54 1609.02,-262.43"/>
<polygon fill="#63b8ff" stroke="#63b8ff" points="1608.98,-265.95 1618.54,-261.38 1608.22,-259 1608.98,-265.95"/>
</a>
</g>
</g>
<!-- Node43 -->
<g id="Node000043" class="node">
<title>Node43</title>
<g id="a_Node000043"><a xlink:title=" ">
<polygon fill="#e0e0e0" stroke="#999999" points="951.88,-262.75 878.12,-262.75 878.12,-243.5 951.88,-243.5 951.88,-262.75"/>
<text text-anchor="middle" x="915" y="-249.25" font-family="Helvetica,sans-Serif" font-size="10.00">msgpack.hpp</text>
</a>
</g>
</g>
<!-- Node18&#45;&gt;Node43 -->
<g id="edge61_Node000018_Node000043" class="edge">
<title>Node18&#45;&gt;Node43</title>
<g id="a_edge61_Node000018_Node000043"><a xlink:title=" ">
<path fill="none" stroke="#63b8ff" d="M1041.89,-303.93C1016.93,-294.13 976.94,-278.44 948.53,-267.29"/>
<polygon fill="#63b8ff" stroke="#63b8ff" points="949.89,-264.06 939.3,-263.66 947.33,-270.57 949.89,-264.06"/>
</a>
</g>
</g>
<!-- Node44 -->
<g id="Node000044" class="node">
<title>Node44</title>
<g id="a_Node000044"><a xlink:title=" ">
<polygon fill="#e0e0e0" stroke="#999999" points="1066.5,-262.75 969.5,-262.75 969.5,-243.5 1066.5,-243.5 1066.5,-262.75"/>
<text text-anchor="middle" x="1018" y="-249.25" font-family="Helvetica,sans-Serif" font-size="10.00">nlohmann/json.hpp</text>
</a>
</g>
</g>
<!-- Node18&#45;&gt;Node44 -->
<g id="edge62_Node000018_Node000044" class="edge">
<title>Node18&#45;&gt;Node44</title>
<g id="a_edge62_Node000018_Node000044"><a xlink:title=" ">
<path fill="none" stroke="#63b8ff" d="M1057.86,-304.06C1051.1,-295.59 1040.75,-282.62 1032.29,-272.02"/>
<polygon fill="#63b8ff" stroke="#63b8ff" points="1035.12,-269.97 1026.15,-264.33 1029.65,-274.33 1035.12,-269.97"/>
</a>
</g>
</g>
<!-- Node45 -->
<g id="Node000045" class="node">
<title>Node45</title>
<g id="a_Node000045"><a xlink:title=" ">
<polygon fill="#e0e0e0" stroke="#999999" points="1139.88,-262.75 1084.12,-262.75 1084.12,-243.5 1139.88,-243.5 1139.88,-262.75"/>
<text text-anchor="middle" x="1112" y="-249.25" font-family="Helvetica,sans-Serif" font-size="10.00">algorithm</text>
</a>
</g>
</g>
<!-- Node18&#45;&gt;Node45 -->
<g id="edge63_Node000018_Node000045" class="edge">
<title>Node18&#45;&gt;Node45</title>
<g id="a_edge63_Node000018_Node000045"><a xlink:title=" ">
<path fill="none" stroke="#63b8ff" d="M1072.14,-304.06C1078.9,-295.59 1089.25,-282.62 1097.71,-272.02"/>
<polygon fill="#63b8ff" stroke="#63b8ff" points="1100.35,-274.33 1103.85,-264.33 1094.88,-269.97 1100.35,-274.33"/>
</a>
</g>
</g>
<!-- Node19&#45;&gt;Node11 -->
<g id="edge31_Node000019_Node000011" class="edge">
<title>Node19&#45;&gt;Node11</title>
<g id="a_edge31_Node000019_Node000011"><a xlink:title=" ">
<path fill="none" stroke="#63b8ff" d="M1157.38,-244.85C1154.55,-244.37 1151.73,-243.91 1149,-243.5 1010.98,-222.62 975.07,-228.05 837,-207.5 823.66,-205.51 809.1,-202.96 796.21,-200.56"/>
<polygon fill="#63b8ff" stroke="#63b8ff" points="796.89,-197.13 786.42,-198.71 795.59,-204.01 796.89,-197.13"/>
</a>
</g>
</g>
<!-- Node19&#45;&gt;Node12 -->
<g id="edge29_Node000019_Node000012" class="edge">
<title>Node19&#45;&gt;Node12</title>
<g id="a_edge29_Node000019_Node000012"><a xlink:title=" ">
<path fill="none" stroke="#63b8ff" d="M1170.97,-243.08C1151.14,-235.1 1122.68,-222.43 1100,-207.5 1090.7,-201.38 1030.79,-150.51 1025,-141 1014.74,-124.13 1010,-101.91 1007.82,-86.02"/>
<polygon fill="#63b8ff" stroke="#63b8ff" points="1011.33,-85.91 1006.74,-76.36 1004.37,-86.69 1011.33,-85.91"/>
</a>
</g>
</g>
<!-- Node19&#45;&gt;Node16 -->
<g id="edge30_Node000019_Node000016" class="edge">
<title>Node19&#45;&gt;Node16</title>
<g id="a_edge30_Node000019_Node000016"><a xlink:title=" ">
<path fill="none" stroke="#63b8ff" d="M1232.74,-251.46C1420.08,-247.75 2243.87,-226.62 2314,-141 2322.59,-130.51 2323.1,-120.55 2314,-110.5 2247.74,-37.35 1521.91,-15.67 1345.48,-11.46"/>
<polygon fill="#63b8ff" stroke="#63b8ff" points="1345.8,-7.96 1335.72,-11.23 1345.63,-14.96 1345.8,-7.96"/>
</a>
</g>
</g>
<!-- Node20 -->
<g id="Node000020" class="node">
<title>Node20</title>
<g id="a_Node000020"><a xlink:title=" ">
<polygon fill="#e0e0e0" stroke="#999999" points="924.62,-201.88 879.38,-201.88 879.38,-182.62 924.62,-182.62 924.62,-201.88"/>
<text text-anchor="middle" x="902" y="-188.38" font-family="Helvetica,sans-Serif" font-size="10.00">math.h</text>
</a>
</g>
</g>
<!-- Node19&#45;&gt;Node20 -->
<g id="edge25_Node000019_Node000020" class="edge">
<title>Node19&#45;&gt;Node20</title>
<g id="a_edge25_Node000019_Node000020"><a xlink:title=" ">
<path fill="none" stroke="#63b8ff" d="M1157.36,-245C1154.53,-244.49 1151.72,-243.98 1149,-243.5 1053.6,-226.57 1026.77,-235.43 934,-207.5 933.01,-207.2 932,-206.88 931,-206.54"/>
<polygon fill="#63b8ff" stroke="#63b8ff" points="932.31,-203.29 921.72,-202.91 929.76,-209.81 932.31,-203.29"/>
</a>
</g>
</g>
<!-- Node21 -->
<g id="Node000021" class="node">
<title>Node21</title>
<g id="a_Node000021"><a xlink:title=" ">
<polygon fill="#e0e0e0" stroke="#999999" points="987.25,-201.88 942.75,-201.88 942.75,-182.62 987.25,-182.62 987.25,-201.88"/>
<text text-anchor="middle" x="965" y="-188.38" font-family="Helvetica,sans-Serif" font-size="10.00">stdio.h</text>
</a>
</g>
</g>
<!-- Node19&#45;&gt;Node21 -->
<g id="edge26_Node000019_Node000021" class="edge">
<title>Node19&#45;&gt;Node21</title>
<g id="a_edge26_Node000019_Node000021"><a xlink:title=" ">
<path fill="none" stroke="#63b8ff" d="M1157.49,-244.7C1108.51,-234.82 1025.52,-217.47 996,-207.5 995.2,-207.23 994.39,-206.95 993.58,-206.65"/>
<polygon fill="#63b8ff" stroke="#63b8ff" points="995.08,-203.48 984.5,-202.92 992.42,-209.96 995.08,-203.48"/>
</a>
</g>
</g>
<!-- Node22 -->
<g id="Node000022" class="node">
<title>Node22</title>
<g id="a_Node000022"><a xlink:title=" ">
<polygon fill="#e0e0e0" stroke="#999999" points="1052.75,-201.88 1005.25,-201.88 1005.25,-182.62 1052.75,-182.62 1052.75,-201.88"/>
<text text-anchor="middle" x="1029" y="-188.38" font-family="Helvetica,sans-Serif" font-size="10.00">string.h</text>
</a>
</g>
</g>
<!-- Node19&#45;&gt;Node22 -->
<g id="edge27_Node000019_Node000022" class="edge">
<title>Node19&#45;&gt;Node22</title>
<g id="a_edge27_Node000019_Node000022"><a xlink:title=" ">
<path fill="none" stroke="#63b8ff" d="M1168.46,-243.07C1142.53,-234.18 1101.97,-220.15 1067,-207.5 1065.84,-207.08 1064.66,-206.65 1063.47,-206.22"/>
<polygon fill="#63b8ff" stroke="#63b8ff" points="1064.7,-202.94 1054.1,-202.75 1062.27,-209.5 1064.7,-202.94"/>
</a>
</g>
</g>
<!-- Node23 -->
<g id="Node000023" class="node">
<title>Node23</title>
<g id="a_Node000023"><a xlink:title=" ">
<polygon fill="#e0e0e0" stroke="#999999" points="1068.38,-135.38 1033.62,-135.38 1033.62,-116.12 1068.38,-116.12 1068.38,-135.38"/>
<text text-anchor="middle" x="1051" y="-121.88" font-family="Helvetica,sans-Serif" font-size="10.00">map</text>
</a>
</g>
</g>
<!-- Node19&#45;&gt;Node23 -->
<g id="edge28_Node000019_Node000023" class="edge">
<title>Node19&#45;&gt;Node23</title>
<g id="a_edge28_Node000019_Node000023"><a xlink:title=" ">
<path fill="none" stroke="#63b8ff" d="M1157.37,-244.89C1154.54,-244.4 1151.73,-243.93 1149,-243.5 1087.25,-233.74 911.28,-254.45 870,-207.5 824.63,-155.9 960.17,-135.67 1021.99,-129.26"/>
<polygon fill="#63b8ff" stroke="#63b8ff" points="1022.18,-132.76 1031.79,-128.31 1021.5,-125.79 1022.18,-132.76"/>
</a>
</g>
</g>
<!-- Node24 -->
<g id="Node000024" class="node">
<title>Node24</title>
<g id="a_Node000024"><a xlink:title=" ">
<polygon fill="#e0e0e0" stroke="#999999" points="1159.25,-201.88 1108.75,-201.88 1108.75,-182.62 1159.25,-182.62 1159.25,-201.88"/>
<text text-anchor="middle" x="1134" y="-188.38" font-family="Helvetica,sans-Serif" font-size="10.00">memory</text>
</a>
</g>
</g>
<!-- Node19&#45;&gt;Node24 -->
<g id="edge32_Node000019_Node000024" class="edge">
<title>Node19&#45;&gt;Node24</title>
<g id="a_edge32_Node000019_Node000024"><a xlink:title=" ">
<path fill="none" stroke="#63b8ff" d="M1185.74,-243.18C1176.69,-234.45 1162.69,-220.94 1151.54,-210.18"/>
<polygon fill="#63b8ff" stroke="#63b8ff" points="1154.07,-207.75 1144.44,-203.33 1149.21,-212.79 1154.07,-207.75"/>
</a>
</g>
</g>
<!-- Node25 -->
<g id="Node000025" class="node">
<title>Node25</title>
<g id="a_Node000025"><a xlink:title=" ">
<polygon fill="#e0e0e0" stroke="#999999" points="1169.62,-135.38 1124.38,-135.38 1124.38,-116.12 1169.62,-116.12 1169.62,-135.38"/>
<text text-anchor="middle" x="1147" y="-121.88" font-family="Helvetica,sans-Serif" font-size="10.00">chrono</text>
</a>
</g>
</g>
<!-- Node19&#45;&gt;Node25 -->
<g id="edge33_Node000019_Node000025" class="edge">
<title>Node19&#45;&gt;Node25</title>
<g id="a_edge33_Node000019_Node000025"><a xlink:title=" ">
<path fill="none" stroke="#63b8ff" d="M1232.43,-247.02C1285.36,-238.25 1372.26,-217.27 1340,-177 1294.16,-119.78 1248.61,-164.03 1179,-141 1178.04,-140.68 1177.07,-140.35 1176.09,-139.99"/>
<polygon fill="#63b8ff" stroke="#63b8ff" points="1177.69,-136.87 1167.11,-136.39 1175.09,-143.36 1177.69,-136.87"/>
</a>
</g>
</g>
<!-- Node26 -->
<g id="Node000026" class="node">
<title>Node26</title>
<g id="a_Node000026"><a xlink:title=" ">
<polygon fill="#e0e0e0" stroke="#999999" points="1331.4,-201.88 1302.6,-201.88 1302.6,-182.62 1331.4,-182.62 1331.4,-201.88"/>
<text text-anchor="middle" x="1317" y="-188.38" font-family="Helvetica,sans-Serif" font-size="10.00">list</text>
</a>
</g>
</g>
<!-- Node19&#45;&gt;Node26 -->
<g id="edge34_Node000019_Node000026" class="edge">
<title>Node19&#45;&gt;Node26</title>
<g id="a_edge34_Node000019_Node000026"><a xlink:title=" ">
<path fill="none" stroke="#63b8ff" d="M1216.73,-243.03C1234.85,-235.29 1261.46,-223.52 1292.27,-207.57"/>
<polygon fill="#63b8ff" stroke="#63b8ff" points="1293.85,-210.7 1301.08,-202.95 1290.6,-204.5 1293.85,-210.7"/>
</a>
</g>
</g>
<!-- Node27 -->
<g id="Node000027" class="node">
<title>Node27</title>
<g id="a_Node000027"><a xlink:href="IssueFactory_8hpp.html" target="_top" xlink:title=" ">
<polygon fill="white" stroke="#666666" points="1284.38,-201.88 1177.62,-201.88 1177.62,-182.62 1284.38,-182.62 1284.38,-201.88"/>
<text text-anchor="middle" x="1231" y="-188.38" font-family="Helvetica,sans-Serif" font-size="10.00">ers/IssueFactory.hpp</text>
</a>
</g>
</g>
<!-- Node19&#45;&gt;Node27 -->
<g id="edge35_Node000019_Node000027" class="edge">
<title>Node19&#45;&gt;Node27</title>
<g id="a_edge35_Node000019_Node000027"><a xlink:title=" ">
<path fill="none" stroke="#63b8ff" d="M1200.47,-243.18C1205.54,-234.88 1213.26,-222.27 1219.66,-211.8"/>
<polygon fill="#63b8ff" stroke="#63b8ff" points="1222.46,-213.92 1224.69,-203.57 1216.49,-210.27 1222.46,-213.92"/>
</a>
</g>
</g>
<!-- Node29 -->
<g id="Node000029" class="node">
<title>Node29</title>
<g id="a_Node000029"><a xlink:href="Severity_8hpp.html" target="_top" xlink:title=" ">
<polygon fill="white" stroke="#666666" points="1273.88,-135.38 1188.12,-135.38 1188.12,-116.12 1273.88,-116.12 1273.88,-135.38"/>
<text text-anchor="middle" x="1231" y="-121.88" font-family="Helvetica,sans-Serif" font-size="10.00">ers/Severity.hpp</text>
</a>
</g>
</g>
<!-- Node19&#45;&gt;Node29 -->
<g id="edge52_Node000019_Node000029" class="edge">
<title>Node19&#45;&gt;Node29</title>
<g id="a_edge52_Node000019_Node000029"><a xlink:title=" ">
<path fill="none" stroke="#63b8ff" d="M1232.44,-248.1C1279.41,-242.19 1355.9,-229.42 1373,-207.5 1401.36,-171.15 1336.44,-148.4 1285.27,-136.64"/>
<polygon fill="#63b8ff" stroke="#63b8ff" points="1286.27,-133.28 1275.75,-134.55 1284.77,-140.11 1286.27,-133.28"/>
</a>
</g>
</g>
<!-- Node30 -->
<g id="Node000030" class="node">
<title>Node30</title>
<g id="a_Node000030"><a xlink:href="LocalContext_8hpp.html" target="_top" xlink:title=" ">
<polygon fill="white" stroke="#666666" points="1532.75,-201.88 1425.25,-201.88 1425.25,-182.62 1532.75,-182.62 1532.75,-201.88"/>
<text text-anchor="middle" x="1479" y="-188.38" font-family="Helvetica,sans-Serif" font-size="10.00">ers/LocalContext.hpp</text>
</a>
</g>
</g>
<!-- Node19&#45;&gt;Node30 -->
<g id="edge44_Node000019_Node000030" class="edge">
<title>Node19&#45;&gt;Node30</title>
<g id="a_edge44_Node000019_Node000030"><a xlink:title=" ">
<path fill="none" stroke="#63b8ff" d="M1232.47,-244.42C1275.55,-235.55 1348.39,-220.53 1411,-207.5 1415.52,-206.56 1420.2,-205.58 1424.9,-204.6"/>
<polygon fill="#63b8ff" stroke="#63b8ff" points="1425.28,-208.1 1434.36,-202.62 1423.85,-201.25 1425.28,-208.1"/>
</a>
</g>
</g>
<!-- Node35 -->
<g id="Node000035" class="node">
<title>Node35</title>
<g id="a_Node000035"><a xlink:href="IssueDeclarationMacro_8hpp.html" target="_top" xlink:title=" ">
<polygon fill="white" stroke="#666666" points="1973.88,-207.5 1834.12,-207.5 1834.12,-177 1973.88,-177 1973.88,-207.5"/>
<text text-anchor="start" x="1842.12" y="-194" font-family="Helvetica,sans-Serif" font-size="10.00">ers/internal/IssueDeclaration</text>
<text text-anchor="middle" x="1904" y="-182.75" font-family="Helvetica,sans-Serif" font-size="10.00">Macro.hpp</text>
</a>
</g>
</g>
<!-- Node19&#45;&gt;Node35 -->
<g id="edge53_Node000019_Node000035" class="edge">
<title>Node19&#45;&gt;Node35</title>
<g id="a_edge53_Node000019_Node000035"><a xlink:title=" ">
<path fill="none" stroke="#63b8ff" d="M1232.62,-249C1343.22,-239.82 1669.16,-212.75 1822.5,-200.02"/>
<polygon fill="#63b8ff" stroke="#63b8ff" points="1822.5,-203.53 1832.18,-199.21 1821.92,-196.55 1822.5,-203.53"/>
</a>
</g>
</g>
<!-- Node27&#45;&gt;Node12 -->
<g id="edge37_Node000027_Node000012" class="edge">
<title>Node27&#45;&gt;Node12</title>
<g id="a_edge37_Node000027_Node000012"><a xlink:title=" ">
<path fill="none" stroke="#63b8ff" d="M1204.68,-182.16C1180.51,-173.28 1144.13,-158.56 1115,-141 1096.45,-129.82 1094.64,-123.06 1077,-110.5 1062.26,-100 1045.09,-89.18 1031.33,-80.82"/>
<polygon fill="#63b8ff" stroke="#63b8ff" points="1033.24,-77.88 1022.87,-75.73 1029.63,-83.88 1033.24,-77.88"/>
</a>
</g>
</g>
<!-- Node27&#45;&gt;Node23 -->
<g id="edge39_Node000027_Node000023" class="edge">
<title>Node27&#45;&gt;Node23</title>
<g id="a_edge39_Node000027_Node000023"><a xlink:title=" ">
<path fill="none" stroke="#63b8ff" d="M1200.98,-182.15C1170.65,-172.72 1122.59,-157.12 1082,-141 1081.04,-140.62 1080.06,-140.22 1079.08,-139.81"/>
<polygon fill="#63b8ff" stroke="#63b8ff" points="1080.52,-136.62 1069.95,-135.82 1077.71,-143.04 1080.52,-136.62"/>
</a>
</g>
</g>
<!-- Node27&#45;&gt;Node25 -->
<g id="edge36_Node000027_Node000025" class="edge">
<title>Node27&#45;&gt;Node25</title>
<g id="a_edge36_Node000027_Node000025"><a xlink:title=" ">
<path fill="none" stroke="#63b8ff" d="M1219.32,-182.28C1205.98,-172.04 1183.9,-155.09 1167.64,-142.6"/>
<polygon fill="#63b8ff" stroke="#63b8ff" points="1170.12,-140.09 1160.05,-136.77 1165.85,-145.64 1170.12,-140.09"/>
</a>
</g>
</g>
<!-- Node27&#45;&gt;Node28 -->
<g id="edge38_Node000027_Node000028" class="edge">
<title>Node27&#45;&gt;Node28</title>
<g id="a_edge38_Node000027_Node000028"><a xlink:title=" ">
<path fill="none" stroke="#63b8ff" d="M1244.41,-182.16C1256.53,-173.18 1273.84,-158.31 1283,-141 1292.09,-123.83 1295.03,-101.66 1295.88,-85.86"/>
<polygon fill="#63b8ff" stroke="#63b8ff" points="1299.37,-86.38 1296.16,-76.29 1292.37,-86.18 1299.37,-86.38"/>
</a>
</g>
</g>
<!-- Node27&#45;&gt;Node29 -->
<g id="edge40_Node000027_Node000029" class="edge">
<title>Node27&#45;&gt;Node29</title>
<g id="a_edge40_Node000027_Node000029"><a xlink:title=" ">
<path fill="none" stroke="#63b8ff" d="M1231,-182.28C1231,-173.23 1231,-158.95 1231,-147.13"/>
<polygon fill="#63b8ff" stroke="#63b8ff" points="1234.5,-147.16 1231,-137.16 1227.5,-147.16 1234.5,-147.16"/>
</a>
</g>
</g>
<!-- Node29&#45;&gt;Node12 -->
<g id="edge41_Node000029_Node000012" class="edge">
<title>Node29&#45;&gt;Node12</title>
<g id="a_edge41_Node000029_Node000012"><a xlink:title=" ">
<path fill="none" stroke="#63b8ff" d="M1198.01,-115.63C1191.7,-113.91 1185.15,-112.14 1179,-110.5 1129.45,-97.32 1071.75,-82.55 1037.09,-73.75"/>
<polygon fill="#63b8ff" stroke="#63b8ff" points="1038.29,-70.44 1027.73,-71.37 1036.57,-77.22 1038.29,-70.44"/>
</a>
</g>
</g>
<!-- Node29&#45;&gt;Node16 -->
<g id="edge43_Node000029_Node000016" class="edge">
<title>Node29&#45;&gt;Node16</title>
<g id="a_edge43_Node000029_Node000016"><a xlink:title=" ">
<path fill="none" stroke="#63b8ff" d="M1234.39,-115.73C1239.78,-102 1251.09,-75.36 1265,-55.25 1271.93,-45.23 1281.07,-35.24 1289.05,-27.26"/>
<polygon fill="#63b8ff" stroke="#63b8ff" points="1291.25,-30 1296.01,-20.54 1286.39,-24.97 1291.25,-30"/>
</a>
</g>
</g>
<!-- Node29&#45;&gt;Node28 -->
<g id="edge42_Node000029_Node000028" class="edge">
<title>Node29&#45;&gt;Node28</title>
<g id="a_edge42_Node000029_Node000028"><a xlink:title=" ">
<path fill="none" stroke="#63b8ff" d="M1240.87,-115.81C1250.61,-106.99 1265.72,-93.3 1277.66,-82.48"/>
<polygon fill="#63b8ff" stroke="#63b8ff" points="1279.85,-85.22 1284.91,-75.92 1275.15,-80.04 1279.85,-85.22"/>
</a>
</g>
</g>
<!-- Node31 -->
<g id="Node000031" class="node">
<title>Node31</title>
<g id="a_Node000031"><a xlink:title=" ">
<polygon fill="#e0e0e0" stroke="#999999" points="1564.38,-135.38 1499.62,-135.38 1499.62,-116.12 1564.38,-116.12 1564.38,-135.38"/>
<text text-anchor="middle" x="1532" y="-121.88" font-family="Helvetica,sans-Serif" font-size="10.00">sys/types.h</text>
</a>
</g>
</g>
<!-- Node30&#45;&gt;Node31 -->
<g id="edge45_Node000030_Node000031" class="edge">
<title>Node30&#45;&gt;Node31</title>
<g id="a_edge45_Node000030_Node000031"><a xlink:title=" ">
<path fill="none" stroke="#63b8ff" d="M1486.37,-182.28C1494.36,-172.56 1507.32,-156.79 1517.39,-144.53"/>
<polygon fill="#63b8ff" stroke="#63b8ff" points="1520.09,-146.76 1523.73,-136.81 1514.68,-142.32 1520.09,-146.76"/>
</a>
</g>
</g>
<!-- Node32 -->
<g id="Node000032" class="node">
<title>Node32</title>
<g id="a_Node000032"><a xlink:title=" ">
<polygon fill="#e0e0e0" stroke="#999999" points="1481.88,-135.38 1432.12,-135.38 1432.12,-116.12 1481.88,-116.12 1481.88,-135.38"/>
<text text-anchor="middle" x="1457" y="-121.88" font-family="Helvetica,sans-Serif" font-size="10.00">unistd.h</text>
</a>
</g>
</g>
<!-- Node30&#45;&gt;Node32 -->
<g id="edge46_Node000030_Node000032" class="edge">
<title>Node30&#45;&gt;Node32</title>
<g id="a_edge46_Node000030_Node000032"><a xlink:title=" ">
<path fill="none" stroke="#63b8ff" d="M1475.94,-182.28C1472.79,-173.04 1467.77,-158.33 1463.7,-146.38"/>
<polygon fill="#63b8ff" stroke="#63b8ff" points="1467.06,-145.41 1460.52,-137.07 1460.44,-147.67 1467.06,-145.41"/>
</a>
</g>
</g>
<!-- Node33 -->
<g id="Node000033" class="node">
<title>Node33</title>
<g id="a_Node000033"><a xlink:href="Context_8hpp.html" target="_top" xlink:title=" ">
<polygon fill="white" stroke="#666666" points="1413.75,-135.38 1330.25,-135.38 1330.25,-116.12 1413.75,-116.12 1413.75,-135.38"/>
<text text-anchor="middle" x="1372" y="-121.88" font-family="Helvetica,sans-Serif" font-size="10.00">ers/Context.hpp</text>
</a>
</g>
</g>
<!-- Node30&#45;&gt;Node33 -->
<g id="edge47_Node000030_Node000033" class="edge">
<title>Node30&#45;&gt;Node33</title>
<g id="a_edge47_Node000030_Node000033"><a xlink:title=" ">
<path fill="none" stroke="#63b8ff" d="M1464.12,-182.28C1446.73,-171.8 1417.69,-154.29 1396.85,-141.73"/>
<polygon fill="#63b8ff" stroke="#63b8ff" points="1398.76,-138.8 1388.39,-136.63 1395.15,-144.79 1398.76,-138.8"/>
</a>
</g>
</g>
<!-- Node33&#45;&gt;Node12 -->
<g id="edge48_Node000033_Node000012" class="edge">
<title>Node33&#45;&gt;Node12</title>
<g id="a_edge48_Node000033_Node000012"><a xlink:title=" ">
<path fill="none" stroke="#63b8ff" d="M1330.02,-118C1255.95,-106.08 1103.69,-81.59 1037.68,-70.97"/>
<polygon fill="#63b8ff" stroke="#63b8ff" points="1038.32,-67.53 1027.89,-69.4 1037.21,-74.44 1038.32,-67.53"/>
</a>
</g>
</g>
<!-- Node33&#45;&gt;Node28 -->
<g id="edge49_Node000033_Node000028" class="edge">
<title>Node33&#45;&gt;Node28</title>
<g id="a_edge49_Node000033_Node000028"><a xlink:title=" ">
<path fill="none" stroke="#63b8ff" d="M1360.46,-115.81C1348.85,-106.82 1330.71,-92.76 1316.62,-81.85"/>
<polygon fill="#63b8ff" stroke="#63b8ff" points="1318.9,-79.19 1308.85,-75.83 1314.61,-84.72 1318.9,-79.19"/>
</a>
</g>
</g>
<!-- Node34 -->
<g id="Node000034" class="node">
<title>Node34</title>
<g id="a_Node000034"><a xlink:href="ers_2include_2ers_2Configuration_8hpp.html" target="_top" xlink:title=" ">
<polygon fill="white" stroke="#666666" points="1442.38,-74.5 1335.62,-74.5 1335.62,-55.25 1442.38,-55.25 1442.38,-74.5"/>
<text text-anchor="middle" x="1389" y="-61" font-family="Helvetica,sans-Serif" font-size="10.00">ers/Configuration.hpp</text>
</a>
</g>
</g>
<!-- Node33&#45;&gt;Node34 -->
<g id="edge50_Node000033_Node000034" class="edge">
<title>Node33&#45;&gt;Node34</title>
<g id="a_edge50_Node000033_Node000034"><a xlink:title=" ">
<path fill="none" stroke="#63b8ff" d="M1374.58,-115.81C1376.88,-107.85 1380.32,-95.94 1383.26,-85.74"/>
<polygon fill="#63b8ff" stroke="#63b8ff" points="1386.56,-86.93 1385.97,-76.36 1379.84,-84.99 1386.56,-86.93"/>
</a>
</g>
</g>
<!-- Node34&#45;&gt;Node16 -->
<g id="edge51_Node000034_Node000016" class="edge">
<title>Node34&#45;&gt;Node16</title>
<g id="a_edge51_Node000034_Node000016"><a xlink:title=" ">
<path fill="none" stroke="#63b8ff" d="M1375.09,-54.84C1362.84,-46.89 1344.75,-35.14 1330.29,-25.75"/>
<polygon fill="#63b8ff" stroke="#63b8ff" points="1332.54,-23.04 1322.25,-20.53 1328.73,-28.91 1332.54,-23.04"/>
</a>
</g>
</g>
<!-- Node36 -->
<g id="Node000036" class="node">
<title>Node36</title>
<g id="a_Node000036"><a xlink:title=" ">
<polygon fill="#e0e0e0" stroke="#999999" points="2304.62,-141 2205.38,-141 2205.38,-110.5 2304.62,-110.5 2304.62,-141"/>
<text text-anchor="start" x="2213.38" y="-127.5" font-family="Helvetica,sans-Serif" font-size="10.00">boost/preprocessor</text>
<text text-anchor="middle" x="2255" y="-116.25" font-family="Helvetica,sans-Serif" font-size="10.00">/if.hpp</text>
</a>
</g>
</g>
<!-- Node35&#45;&gt;Node36 -->
<g id="edge54_Node000035_Node000036" class="edge">
<title>Node35&#45;&gt;Node36</title>
<g id="a_edge54_Node000035_Node000036"><a xlink:title=" ">
<path fill="none" stroke="#63b8ff" d="M1974.12,-180.66C2031.09,-171.73 2113.74,-158.03 2194.24,-141.5"/>
<polygon fill="#63b8ff" stroke="#63b8ff" points="2194.5,-145.02 2203.58,-139.56 2193.08,-138.17 2194.5,-145.02"/>
</a>
</g>
</g>
<!-- Node37 -->
<g id="Node000037" class="node">
<title>Node37</title>
<g id="a_Node000037"><a xlink:title=" ">
<polygon fill="#e0e0e0" stroke="#999999" points="1719.62,-141 1620.38,-141 1620.38,-110.5 1719.62,-110.5 1719.62,-141"/>
<text text-anchor="start" x="1628.38" y="-127.5" font-family="Helvetica,sans-Serif" font-size="10.00">boost/preprocessor</text>
<text text-anchor="middle" x="1670" y="-116.25" font-family="Helvetica,sans-Serif" font-size="10.00">/seq.hpp</text>
</a>
</g>
</g>
<!-- Node35&#45;&gt;Node37 -->
<g id="edge55_Node000035_Node000037" class="edge">
<title>Node35&#45;&gt;Node37</title>
<g id="a_edge55_Node000035_Node000037"><a xlink:title=" ">
<path fill="none" stroke="#63b8ff" d="M1850.61,-176.53C1814.88,-166.69 1767.79,-153.7 1730.65,-143.47"/>
<polygon fill="#63b8ff" stroke="#63b8ff" points="1731.99,-140.21 1721.42,-140.92 1730.13,-146.95 1731.99,-140.21"/>
</a>
</g>
</g>
<!-- Node38 -->
<g id="Node000038" class="node">
<title>Node38</title>
<g id="a_Node000038"><a xlink:title=" ">
<polygon fill="#e0e0e0" stroke="#999999" points="1836.62,-141 1737.38,-141 1737.38,-110.5 1836.62,-110.5 1836.62,-141"/>
<text text-anchor="start" x="1745.38" y="-127.5" font-family="Helvetica,sans-Serif" font-size="10.00">boost/preprocessor</text>
<text text-anchor="middle" x="1787" y="-116.25" font-family="Helvetica,sans-Serif" font-size="10.00">/tuple.hpp</text>
</a>
</g>
</g>
<!-- Node35&#45;&gt;Node38 -->
<g id="edge56_Node000035_Node000038" class="edge">
<title>Node35&#45;&gt;Node38</title>
<g id="a_edge56_Node000035_Node000038"><a xlink:title=" ">
<path fill="none" stroke="#63b8ff" d="M1877.45,-176.61C1861.44,-167.79 1840.83,-156.43 1823.33,-146.78"/>
<polygon fill="#63b8ff" stroke="#63b8ff" points="1825.22,-143.82 1814.77,-142.06 1821.84,-149.95 1825.22,-143.82"/>
</a>
</g>
</g>
<!-- Node39 -->
<g id="Node000039" class="node">
<title>Node39</title>
<g id="a_Node000039"><a xlink:title=" ">
<polygon fill="#e0e0e0" stroke="#999999" points="1953.62,-141 1854.38,-141 1854.38,-110.5 1953.62,-110.5 1953.62,-141"/>
<text text-anchor="start" x="1862.38" y="-127.5" font-family="Helvetica,sans-Serif" font-size="10.00">boost/preprocessor</text>
<text text-anchor="middle" x="1904" y="-116.25" font-family="Helvetica,sans-Serif" font-size="10.00">/logical.hpp</text>
</a>
</g>
</g>
<!-- Node35&#45;&gt;Node39 -->
<g id="edge57_Node000035_Node000039" class="edge">
<title>Node35&#45;&gt;Node39</title>
<g id="a_edge57_Node000035_Node000039"><a xlink:title=" ">
<path fill="none" stroke="#63b8ff" d="M1904,-176.61C1904,-169.52 1904,-160.79 1904,-152.63"/>
<polygon fill="#63b8ff" stroke="#63b8ff" points="1907.5,-152.84 1904,-142.84 1900.5,-152.84 1907.5,-152.84"/>
</a>
</g>
</g>
<!-- Node40 -->
<g id="Node000040" class="node">
<title>Node40</title>
<g id="a_Node000040"><a xlink:title=" ">
<polygon fill="#e0e0e0" stroke="#999999" points="2070.62,-141 1971.38,-141 1971.38,-110.5 2070.62,-110.5 2070.62,-141"/>
<text text-anchor="start" x="1979.38" y="-127.5" font-family="Helvetica,sans-Serif" font-size="10.00">boost/preprocessor</text>
<text text-anchor="middle" x="2021" y="-116.25" font-family="Helvetica,sans-Serif" font-size="10.00">/stringize.hpp</text>
</a>
</g>
</g>
<!-- Node35&#45;&gt;Node40 -->
<g id="edge58_Node000035_Node000040" class="edge">
<title>Node35&#45;&gt;Node40</title>
<g id="a_edge58_Node000035_Node000040"><a xlink:title=" ">
<path fill="none" stroke="#63b8ff" d="M1930.55,-176.61C1946.56,-167.79 1967.17,-156.43 1984.67,-146.78"/>
<polygon fill="#63b8ff" stroke="#63b8ff" points="1986.16,-149.95 1993.23,-142.06 1982.78,-143.82 1986.16,-149.95"/>
</a>
</g>
</g>
<!-- Node41 -->
<g id="Node000041" class="node">
<title>Node41</title>
<g id="a_Node000041"><a xlink:title=" ">
<polygon fill="#e0e0e0" stroke="#999999" points="2187.62,-141 2088.38,-141 2088.38,-110.5 2187.62,-110.5 2187.62,-141"/>
<text text-anchor="start" x="2096.38" y="-127.5" font-family="Helvetica,sans-Serif" font-size="10.00">boost/preprocessor</text>
<text text-anchor="middle" x="2138" y="-116.25" font-family="Helvetica,sans-Serif" font-size="10.00">/comparison.hpp</text>
</a>
</g>
</g>
<!-- Node35&#45;&gt;Node41 -->
<g id="edge59_Node000035_Node000041" class="edge">
<title>Node35&#45;&gt;Node41</title>
<g id="a_edge59_Node000035_Node000041"><a xlink:title=" ">
<path fill="none" stroke="#63b8ff" d="M1957.39,-176.53C1993.12,-166.69 2040.21,-153.7 2077.35,-143.47"/>
<polygon fill="#63b8ff" stroke="#63b8ff" points="2077.87,-146.95 2086.58,-140.92 2076.01,-140.21 2077.87,-146.95"/>
</a>
</g>
</g>
</g>
</svg>
