<?xml version="1.0" encoding="UTF-8" standalone="no"?>
<!DOCTYPE svg PUBLIC "-//W3C//DTD SVG 1.1//EN"
 "http://www.w3.org/Graphics/SVG/1.1/DTD/svg11.dtd">
<!-- Generated by graphviz version 9.0.0 (20230911.1827)
 -->
<!-- Title: /github/workspace/dev_area/sourcecode/appfwk/include/appfwk/ConfFacility.hpp Pages: 1 -->
<svg width="164pt" height="205pt"
 viewBox="0.00 0.00 164.25 205.25" xmlns="http://www.w3.org/2000/svg" xmlns:xlink="http://www.w3.org/1999/xlink">
<g id="graph0" class="graph" transform="scale(1 1) rotate(0) translate(4 201.25)">
<title>/github/workspace/dev_area/sourcecode/appfwk/include/appfwk/ConfFacility.hpp</title>
<!-- Node1 -->
<g id="Node000001" class="node">
<title>Node1</title>
<g id="a_Node000001"><a xlink:title=" ">
<polygon fill="#999999" stroke="#666666" points="156.25,-197.25 0,-197.25 0,-155.5 156.25,-155.5 156.25,-197.25"/>
<text text-anchor="start" x="8" y="-183.75" font-family="Helvetica,sans-Serif" font-size="10.00">/github/workspace/dev</text>
<text text-anchor="start" x="8" y="-172.5" font-family="Helvetica,sans-Serif" font-size="10.00">_area/sourcecode/appfwk</text>
<text text-anchor="middle" x="78.12" y="-161.25" font-family="Helvetica,sans-Serif" font-size="10.00">/include/appfwk/ConfFacility.hpp</text>
</a>
</g>
</g>
<!-- Node2 -->
<g id="Node000002" class="node">
<title>Node2</title>
<g id="a_Node000002"><a xlink:href="sourcecode_2appfwk_2src_2Application_8hpp.html" target="_top" xlink:title=" ">
<polygon fill="white" stroke="#666666" points="142,-119.5 14.25,-119.5 14.25,-77.75 142,-77.75 142,-119.5"/>
<text text-anchor="start" x="22.25" y="-106" font-family="Helvetica,sans-Serif" font-size="10.00">/github/workspace/dev</text>
<text text-anchor="start" x="22.25" y="-94.75" font-family="Helvetica,sans-Serif" font-size="10.00">_area/sourcecode/appfwk</text>
<text text-anchor="middle" x="78.12" y="-83.5" font-family="Helvetica,sans-Serif" font-size="10.00">/src/Application.hpp</text>
</a>
</g>
</g>
<!-- Node1&#45;&gt;Node2 -->
<g id="edge1_Node000001_Node000002" class="edge">
<title>Node1&#45;&gt;Node2</title>
<g id="a_edge1_Node000001_Node000002"><a xlink:title=" ">
<path fill="none" stroke="#63b8ff" d="M78.12,-143.75C78.12,-135.71 78.12,-127.29 78.12,-119.98"/>
<polygon fill="#63b8ff" stroke="#63b8ff" points="74.63,-143.56 78.13,-153.56 81.63,-143.56 74.63,-143.56"/>
</a>
</g>
</g>
<!-- Node3 -->
<g id="Node000003" class="node">
<title>Node3</title>
<g id="a_Node000003"><a xlink:href="sourcecode_2appfwk_2src_2Application_8cpp.html" target="_top" xlink:title=" ">
<polygon fill="white" stroke="#666666" points="142,-41.75 14.25,-41.75 14.25,0 142,0 142,-41.75"/>
<text text-anchor="start" x="22.25" y="-28.25" font-family="Helvetica,sans-Serif" font-size="10.00">/github/workspace/dev</text>
<text text-anchor="start" x="22.25" y="-17" font-family="Helvetica,sans-Serif" font-size="10.00">_area/sourcecode/appfwk</text>
<text text-anchor="middle" x="78.12" y="-5.75" font-family="Helvetica,sans-Serif" font-size="10.00">/src/Application.cpp</text>
</a>
</g>
</g>
<!-- Node2&#45;&gt;Node3 -->
<g id="edge2_Node000002_Node000003" class="edge">
<title>Node2&#45;&gt;Node3</title>
<g id="a_edge2_Node000002_Node000003"><a xlink:title=" ">
<path fill="none" stroke="#63b8ff" d="M78.12,-66C78.12,-57.96 78.12,-49.54 78.12,-42.23"/>
<polygon fill="#63b8ff" stroke="#63b8ff" points="74.63,-65.81 78.13,-75.81 81.63,-65.81 74.63,-65.81"/>
</a>
</g>
</g>
</g>
</svg>
