<?xml version="1.0" encoding="UTF-8" standalone="no"?>
<!DOCTYPE svg PUBLIC "-//W3C//DTD SVG 1.1//EN"
 "http://www.w3.org/Graphics/SVG/1.1/DTD/svg11.dtd">
<!-- Generated by graphviz version 9.0.0 (20230911.1827)
 -->
<!-- Title: /github/workspace/dev_area/sourcecode/dbe/include/dbe/config_ui_info.hpp Pages: 1 -->
<svg width="796pt" height="150pt"
 viewBox="0.00 0.00 795.50 150.00" xmlns="http://www.w3.org/2000/svg" xmlns:xlink="http://www.w3.org/1999/xlink">
<g id="graph0" class="graph" transform="scale(1 1) rotate(0) translate(4 146)">
<title>/github/workspace/dev_area/sourcecode/dbe/include/dbe/config_ui_info.hpp</title>
<!-- Node1 -->
<g id="Node000001" class="node">
<title>Node1</title>
<g id="a_Node000001"><a xlink:title=" ">
<polygon fill="#999999" stroke="#666666" points="471.88,-142 357.62,-142 357.62,-89 471.88,-89 471.88,-142"/>
<text text-anchor="start" x="365.62" y="-128.5" font-family="Helvetica,sans-Serif" font-size="10.00">/github/workspace/dev</text>
<text text-anchor="start" x="365.62" y="-117.25" font-family="Helvetica,sans-Serif" font-size="10.00">_area/sourcecode/dbe</text>
<text text-anchor="start" x="365.62" y="-106" font-family="Helvetica,sans-Serif" font-size="10.00">/include/dbe/config_ui</text>
<text text-anchor="middle" x="414.75" y="-94.75" font-family="Helvetica,sans-Serif" font-size="10.00">_info.hpp</text>
</a>
</g>
</g>
<!-- Node2 -->
<g id="Node000002" class="node">
<title>Node2</title>
<g id="a_Node000002"><a xlink:href="GraphView_8cpp.html" target="_top" xlink:title=" ">
<polygon fill="white" stroke="#666666" points="143.5,-47.38 0,-47.38 0,-5.62 143.5,-5.62 143.5,-47.38"/>
<text text-anchor="start" x="8" y="-33.88" font-family="Helvetica,sans-Serif" font-size="10.00">/github/workspace/dev</text>
<text text-anchor="start" x="8" y="-22.62" font-family="Helvetica,sans-Serif" font-size="10.00">_area/sourcecode/dbe</text>
<text text-anchor="middle" x="71.75" y="-11.38" font-family="Helvetica,sans-Serif" font-size="10.00">/src/graphical/GraphView.cpp</text>
</a>
</g>
</g>
<!-- Node1&#45;&gt;Node2 -->
<g id="edge1_Node000001_Node000002" class="edge">
<title>Node1&#45;&gt;Node2</title>
<g id="a_edge1_Node000001_Node000002"><a xlink:title=" ">
<path fill="none" stroke="#63b8ff" d="M346.22,-99.88C293.16,-88.2 217.95,-70.89 152.75,-53 146.92,-51.4 140.88,-49.66 134.85,-47.86"/>
<polygon fill="#63b8ff" stroke="#63b8ff" points="345.2,-103.24 355.72,-101.96 346.7,-96.4 345.2,-103.24"/>
</a>
</g>
</g>
<!-- Node3 -->
<g id="Node000003" class="node">
<title>Node3</title>
<g id="a_Node000003"><a xlink:href="GraphicalClass_8cpp.html" target="_top" xlink:title=" ">
<polygon fill="white" stroke="#666666" points="323.5,-47.38 162,-47.38 162,-5.62 323.5,-5.62 323.5,-47.38"/>
<text text-anchor="start" x="170" y="-33.88" font-family="Helvetica,sans-Serif" font-size="10.00">/github/workspace/dev</text>
<text text-anchor="start" x="170" y="-22.62" font-family="Helvetica,sans-Serif" font-size="10.00">_area/sourcecode/dbe</text>
<text text-anchor="middle" x="242.75" y="-11.38" font-family="Helvetica,sans-Serif" font-size="10.00">/src/graphical/GraphicalClass.cpp</text>
</a>
</g>
</g>
<!-- Node1&#45;&gt;Node3 -->
<g id="edge2_Node000001_Node000003" class="edge">
<title>Node1&#45;&gt;Node3</title>
<g id="a_edge2_Node000001_Node000003"><a xlink:title=" ">
<path fill="none" stroke="#63b8ff" d="M353.39,-83.46C329.91,-71.59 303.76,-58.36 282.78,-47.75"/>
<polygon fill="#63b8ff" stroke="#63b8ff" points="351.76,-86.56 362.26,-87.95 354.92,-80.31 351.76,-86.56"/>
</a>
</g>
</g>
<!-- Node4 -->
<g id="Node000004" class="node">
<title>Node4</title>
<g id="a_Node000004"><a xlink:href="confaccessor_8cpp.html" target="_top" xlink:title=" ">
<polygon fill="white" stroke="#666666" points="488,-47.38 341.5,-47.38 341.5,-5.62 488,-5.62 488,-47.38"/>
<text text-anchor="start" x="349.5" y="-33.88" font-family="Helvetica,sans-Serif" font-size="10.00">/github/workspace/dev</text>
<text text-anchor="start" x="349.5" y="-22.62" font-family="Helvetica,sans-Serif" font-size="10.00">_area/sourcecode/dbe</text>
<text text-anchor="middle" x="414.75" y="-11.38" font-family="Helvetica,sans-Serif" font-size="10.00">/src/internal/confaccessor.cpp</text>
</a>
</g>
</g>
<!-- Node1&#45;&gt;Node4 -->
<g id="edge3_Node000001_Node000004" class="edge">
<title>Node1&#45;&gt;Node4</title>
<g id="a_edge3_Node000001_Node000004"><a xlink:title=" ">
<path fill="none" stroke="#63b8ff" d="M414.75,-77.63C414.75,-67.38 414.75,-56.62 414.75,-47.71"/>
<polygon fill="#63b8ff" stroke="#63b8ff" points="411.25,-77.35 414.75,-87.35 418.25,-77.35 411.25,-77.35"/>
</a>
</g>
</g>
<!-- Node5 -->
<g id="Node000005" class="node">
<title>Node5</title>
<g id="a_Node000005"><a xlink:href="config__ui__info_8cpp.html" target="_top" xlink:title=" ">
<polygon fill="white" stroke="#666666" points="619.88,-53 505.62,-53 505.62,0 619.88,0 619.88,-53"/>
<text text-anchor="start" x="513.62" y="-39.5" font-family="Helvetica,sans-Serif" font-size="10.00">/github/workspace/dev</text>
<text text-anchor="start" x="513.62" y="-28.25" font-family="Helvetica,sans-Serif" font-size="10.00">_area/sourcecode/dbe</text>
<text text-anchor="start" x="513.62" y="-17" font-family="Helvetica,sans-Serif" font-size="10.00">/src/internal/config_ui</text>
<text text-anchor="middle" x="562.75" y="-5.75" font-family="Helvetica,sans-Serif" font-size="10.00">_info.cpp</text>
</a>
</g>
</g>
<!-- Node1&#45;&gt;Node5 -->
<g id="edge4_Node000001_Node000005" class="edge">
<title>Node1&#45;&gt;Node5</title>
<g id="a_edge4_Node000001_Node000005"><a xlink:title=" ">
<path fill="none" stroke="#63b8ff" d="M468.29,-83.03C484.83,-73.31 502.84,-62.72 518.66,-53.42"/>
<polygon fill="#63b8ff" stroke="#63b8ff" points="466.91,-79.78 460.06,-87.87 470.45,-85.82 466.91,-79.78"/>
</a>
</g>
</g>
<!-- Node6 -->
<g id="Node000006" class="node">
<title>Node6</title>
<g id="a_Node000006"><a xlink:href="subtreeproxy_8cpp.html" target="_top" xlink:title=" ">
<polygon fill="white" stroke="#666666" points="787.5,-47.38 638,-47.38 638,-5.62 787.5,-5.62 787.5,-47.38"/>
<text text-anchor="start" x="646" y="-33.88" font-family="Helvetica,sans-Serif" font-size="10.00">/github/workspace/dev</text>
<text text-anchor="start" x="646" y="-22.62" font-family="Helvetica,sans-Serif" font-size="10.00">_area/sourcecode/dbe</text>
<text text-anchor="middle" x="712.75" y="-11.38" font-family="Helvetica,sans-Serif" font-size="10.00">/src/structure/subtreeproxy.cpp</text>
</a>
</g>
</g>
<!-- Node1&#45;&gt;Node6 -->
<g id="edge5_Node000001_Node000006" class="edge">
<title>Node1&#45;&gt;Node6</title>
<g id="a_edge5_Node000001_Node000006"><a xlink:title=" ">
<path fill="none" stroke="#63b8ff" d="M482.99,-95.17C525.06,-83.18 580.09,-67.38 628.75,-53 634.45,-51.32 640.36,-49.55 646.29,-47.77"/>
<polygon fill="#63b8ff" stroke="#63b8ff" points="482.16,-91.77 473.5,-97.87 484.07,-98.5 482.16,-91.77"/>
</a>
</g>
</g>
</g>
</svg>
