<?xml version="1.0" encoding="UTF-8" standalone="no"?>
<!DOCTYPE svg PUBLIC "-//W3C//DTD SVG 1.1//EN"
 "http://www.w3.org/Graphics/SVG/1.1/DTD/svg11.dtd">
<!-- Generated by graphviz version 9.0.0 (20230911.1827)
 -->
<!-- Title: /github/workspace/dev_area/sourcecode/timing/include/timing/CRTDesignInterface.hpp Pages: 1 -->
<svg width="282pt" height="205pt"
 viewBox="0.00 0.00 282.12 205.25" xmlns="http://www.w3.org/2000/svg" xmlns:xlink="http://www.w3.org/1999/xlink">
<g id="graph0" class="graph" transform="scale(1 1) rotate(0) translate(4 201.25)">
<title>/github/workspace/dev_area/sourcecode/timing/include/timing/CRTDesignInterface.hpp</title>
<!-- Node1 -->
<g id="Node000001" class="node">
<title>Node1</title>
<g id="a_Node000001"><a xlink:title=" ">
<polygon fill="#999999" stroke="#666666" points="233.75,-197.25 46,-197.25 46,-155.5 233.75,-155.5 233.75,-197.25"/>
<text text-anchor="start" x="54" y="-183.75" font-family="Helvetica,sans-Serif" font-size="10.00">/github/workspace/dev</text>
<text text-anchor="start" x="54" y="-172.5" font-family="Helvetica,sans-Serif" font-size="10.00">_area/sourcecode/timing</text>
<text text-anchor="middle" x="139.88" y="-161.25" font-family="Helvetica,sans-Serif" font-size="10.00">/include/timing/CRTDesignInterface.hpp</text>
</a>
</g>
</g>
<!-- Node2 -->
<g id="Node000002" class="node">
<title>Node2</title>
<g id="a_Node000002"><a xlink:href="CRTDesign_8hpp.html" target="_top" xlink:title=" ">
<polygon fill="white" stroke="#666666" points="214.62,-119.5 65.12,-119.5 65.12,-77.75 214.62,-77.75 214.62,-119.5"/>
<text text-anchor="start" x="73.12" y="-106" font-family="Helvetica,sans-Serif" font-size="10.00">/github/workspace/dev</text>
<text text-anchor="start" x="73.12" y="-94.75" font-family="Helvetica,sans-Serif" font-size="10.00">_area/sourcecode/timing</text>
<text text-anchor="middle" x="139.88" y="-83.5" font-family="Helvetica,sans-Serif" font-size="10.00">/include/timing/CRTDesign.hpp</text>
</a>
</g>
</g>
<!-- Node1&#45;&gt;Node2 -->
<g id="edge1_Node000001_Node000002" class="edge">
<title>Node1&#45;&gt;Node2</title>
<g id="a_edge1_Node000001_Node000002"><a xlink:title=" ">
<path fill="none" stroke="#63b8ff" d="M139.88,-143.75C139.88,-135.71 139.88,-127.29 139.88,-119.98"/>
<polygon fill="#63b8ff" stroke="#63b8ff" points="136.38,-143.56 139.88,-153.56 143.38,-143.56 136.38,-143.56"/>
</a>
</g>
</g>
<!-- Node3 -->
<g id="Node000003" class="node">
<title>Node3</title>
<g id="a_Node000003"><a xlink:href="top__designs_8cpp.html" target="_top" xlink:title=" ">
<polygon fill="white" stroke="#666666" points="133.75,-41.75 0,-41.75 0,0 133.75,0 133.75,-41.75"/>
<text text-anchor="start" x="8" y="-28.25" font-family="Helvetica,sans-Serif" font-size="10.00">/github/workspace/dev</text>
<text text-anchor="start" x="8" y="-17" font-family="Helvetica,sans-Serif" font-size="10.00">_area/sourcecode/timing</text>
<text text-anchor="middle" x="66.88" y="-5.75" font-family="Helvetica,sans-Serif" font-size="10.00">/pybindsrc/top_designs.cpp</text>
</a>
</g>
</g>
<!-- Node2&#45;&gt;Node3 -->
<g id="edge2_Node000002_Node000003" class="edge">
<title>Node2&#45;&gt;Node3</title>
<g id="a_edge2_Node000002_Node000003"><a xlink:title=" ">
<path fill="none" stroke="#63b8ff" d="M112.35,-69.06C103.75,-60.14 94.44,-50.47 86.49,-42.23"/>
<polygon fill="#63b8ff" stroke="#63b8ff" points="109.8,-71.46 119.26,-76.24 114.84,-66.61 109.8,-71.46"/>
</a>
</g>
</g>
<!-- Node4 -->
<g id="Node000004" class="node">
<title>Node4</title>
<g id="a_Node000004"><a xlink:href="CRTDesign_8cpp.html" target="_top" xlink:title=" ">
<polygon fill="white" stroke="#666666" points="274.12,-41.75 151.62,-41.75 151.62,0 274.12,0 274.12,-41.75"/>
<text text-anchor="start" x="159.62" y="-28.25" font-family="Helvetica,sans-Serif" font-size="10.00">/github/workspace/dev</text>
<text text-anchor="start" x="159.62" y="-17" font-family="Helvetica,sans-Serif" font-size="10.00">_area/sourcecode/timing</text>
<text text-anchor="middle" x="212.88" y="-5.75" font-family="Helvetica,sans-Serif" font-size="10.00">/src/CRTDesign.cpp</text>
</a>
</g>
</g>
<!-- Node2&#45;&gt;Node4 -->
<g id="edge3_Node000002_Node000004" class="edge">
<title>Node2&#45;&gt;Node4</title>
<g id="a_edge3_Node000002_Node000004"><a xlink:title=" ">
<path fill="none" stroke="#63b8ff" d="M167.4,-69.06C176,-60.14 185.31,-50.47 193.26,-42.23"/>
<polygon fill="#63b8ff" stroke="#63b8ff" points="164.91,-66.61 160.49,-76.24 169.95,-71.46 164.91,-66.61"/>
</a>
</g>
</g>
</g>
</svg>
