<?xml version="1.0" encoding="UTF-8" standalone="no"?>
<!DOCTYPE svg PUBLIC "-//W3C//DTD SVG 1.1//EN"
 "http://www.w3.org/Graphics/SVG/1.1/DTD/svg11.dtd">
<!-- Generated by graphviz version 9.0.0 (20230911.1827)
 -->
<!-- Title: /github/workspace/dev_area/sourcecode/timing/include/timing/CRTNode.hpp Pages: 1 -->
<svg width="584pt" height="283pt"
 viewBox="0.00 0.00 584.12 283.00" xmlns="http://www.w3.org/2000/svg" xmlns:xlink="http://www.w3.org/1999/xlink">
<g id="graph0" class="graph" transform="scale(1 1) rotate(0) translate(4 279)">
<title>/github/workspace/dev_area/sourcecode/timing/include/timing/CRTNode.hpp</title>
<!-- Node1 -->
<g id="Node000001" class="node">
<title>Node1</title>
<g id="a_Node000001"><a xlink:title=" ">
<polygon fill="#999999" stroke="#666666" points="358.25,-275 215.5,-275 215.5,-233.25 358.25,-233.25 358.25,-275"/>
<text text-anchor="start" x="223.5" y="-261.5" font-family="Helvetica,sans-Serif" font-size="10.00">/github/workspace/dev</text>
<text text-anchor="start" x="223.5" y="-250.25" font-family="Helvetica,sans-Serif" font-size="10.00">_area/sourcecode/timing</text>
<text text-anchor="middle" x="286.88" y="-239" font-family="Helvetica,sans-Serif" font-size="10.00">/include/timing/CRTNode.hpp</text>
</a>
</g>
</g>
<!-- Node2 -->
<g id="Node000002" class="node">
<title>Node2</title>
<g id="a_Node000002"><a xlink:href="CRTDesign_8hpp.html" target="_top" xlink:title=" ">
<polygon fill="white" stroke="#666666" points="214.62,-119.5 65.12,-119.5 65.12,-77.75 214.62,-77.75 214.62,-119.5"/>
<text text-anchor="start" x="73.12" y="-106" font-family="Helvetica,sans-Serif" font-size="10.00">/github/workspace/dev</text>
<text text-anchor="start" x="73.12" y="-94.75" font-family="Helvetica,sans-Serif" font-size="10.00">_area/sourcecode/timing</text>
<text text-anchor="middle" x="139.88" y="-83.5" font-family="Helvetica,sans-Serif" font-size="10.00">/include/timing/CRTDesign.hpp</text>
</a>
</g>
</g>
<!-- Node1&#45;&gt;Node2 -->
<g id="edge1_Node000001_Node000002" class="edge">
<title>Node1&#45;&gt;Node2</title>
<g id="a_edge1_Node000001_Node000002"><a xlink:title=" ">
<path fill="none" stroke="#63b8ff" d="M204.01,-238.74C159.53,-229.14 111.16,-215.03 97.88,-197.25 79.98,-173.31 101.56,-140.57 119.81,-119.76"/>
<polygon fill="#63b8ff" stroke="#63b8ff" points="203.23,-242.15 213.73,-240.77 204.66,-235.3 203.23,-242.15"/>
</a>
</g>
</g>
<!-- Node5 -->
<g id="Node000005" class="node">
<title>Node5</title>
<g id="a_Node000005"><a xlink:href="CRTDesignInterface_8hpp.html" target="_top" xlink:title=" ">
<polygon fill="white" stroke="#666666" points="294.75,-197.25 107,-197.25 107,-155.5 294.75,-155.5 294.75,-197.25"/>
<text text-anchor="start" x="115" y="-183.75" font-family="Helvetica,sans-Serif" font-size="10.00">/github/workspace/dev</text>
<text text-anchor="start" x="115" y="-172.5" font-family="Helvetica,sans-Serif" font-size="10.00">_area/sourcecode/timing</text>
<text text-anchor="middle" x="200.88" y="-161.25" font-family="Helvetica,sans-Serif" font-size="10.00">/include/timing/CRTDesignInterface.hpp</text>
</a>
</g>
</g>
<!-- Node1&#45;&gt;Node5 -->
<g id="edge4_Node000001_Node000005" class="edge">
<title>Node1&#45;&gt;Node5</title>
<g id="a_edge4_Node000001_Node000005"><a xlink:title=" ">
<path fill="none" stroke="#63b8ff" d="M255.39,-225.39C244.99,-216.23 233.63,-206.23 223.99,-197.73"/>
<polygon fill="#63b8ff" stroke="#63b8ff" points="252.88,-227.84 262.69,-231.82 257.5,-222.59 252.88,-227.84"/>
</a>
</g>
</g>
<!-- Node6 -->
<g id="Node000006" class="node">
<title>Node6</title>
<g id="a_Node000006"><a xlink:href="endpoint_8cpp.html" target="_top" xlink:title=" ">
<polygon fill="white" stroke="#666666" points="435.12,-197.25 312.62,-197.25 312.62,-155.5 435.12,-155.5 435.12,-197.25"/>
<text text-anchor="start" x="320.62" y="-183.75" font-family="Helvetica,sans-Serif" font-size="10.00">/github/workspace/dev</text>
<text text-anchor="start" x="320.62" y="-172.5" font-family="Helvetica,sans-Serif" font-size="10.00">_area/sourcecode/timing</text>
<text text-anchor="middle" x="373.88" y="-161.25" font-family="Helvetica,sans-Serif" font-size="10.00">/pybindsrc/endpoint.cpp</text>
</a>
</g>
</g>
<!-- Node1&#45;&gt;Node6 -->
<g id="edge6_Node000001_Node000006" class="edge">
<title>Node1&#45;&gt;Node6</title>
<g id="a_edge6_Node000001_Node000006"><a xlink:title=" ">
<path fill="none" stroke="#63b8ff" d="M318.73,-225.39C329.24,-216.23 340.74,-206.23 350.5,-197.73"/>
<polygon fill="#63b8ff" stroke="#63b8ff" points="316.57,-222.63 311.33,-231.83 321.17,-227.9 316.57,-222.63"/>
</a>
</g>
</g>
<!-- Node7 -->
<g id="Node000007" class="node">
<title>Node7</title>
<g id="a_Node000007"><a xlink:href="CRTNode_8cpp.html" target="_top" xlink:title=" ">
<polygon fill="white" stroke="#666666" points="576.12,-197.25 453.62,-197.25 453.62,-155.5 576.12,-155.5 576.12,-197.25"/>
<text text-anchor="start" x="461.62" y="-183.75" font-family="Helvetica,sans-Serif" font-size="10.00">/github/workspace/dev</text>
<text text-anchor="start" x="461.62" y="-172.5" font-family="Helvetica,sans-Serif" font-size="10.00">_area/sourcecode/timing</text>
<text text-anchor="middle" x="514.88" y="-161.25" font-family="Helvetica,sans-Serif" font-size="10.00">/src/CRTNode.cpp</text>
</a>
</g>
</g>
<!-- Node1&#45;&gt;Node7 -->
<g id="edge7_Node000001_Node000007" class="edge">
<title>Node1&#45;&gt;Node7</title>
<g id="a_edge7_Node000001_Node000007"><a xlink:title=" ">
<path fill="none" stroke="#63b8ff" d="M358.56,-229.31C389.08,-219.17 424.32,-207.46 453.61,-197.73"/>
<polygon fill="#63b8ff" stroke="#63b8ff" points="357.8,-225.87 349.41,-232.35 360,-232.52 357.8,-225.87"/>
</a>
</g>
</g>
<!-- Node3 -->
<g id="Node000003" class="node">
<title>Node3</title>
<g id="a_Node000003"><a xlink:href="top__designs_8cpp.html" target="_top" xlink:title=" ">
<polygon fill="white" stroke="#666666" points="133.75,-41.75 0,-41.75 0,0 133.75,0 133.75,-41.75"/>
<text text-anchor="start" x="8" y="-28.25" font-family="Helvetica,sans-Serif" font-size="10.00">/github/workspace/dev</text>
<text text-anchor="start" x="8" y="-17" font-family="Helvetica,sans-Serif" font-size="10.00">_area/sourcecode/timing</text>
<text text-anchor="middle" x="66.88" y="-5.75" font-family="Helvetica,sans-Serif" font-size="10.00">/pybindsrc/top_designs.cpp</text>
</a>
</g>
</g>
<!-- Node2&#45;&gt;Node3 -->
<g id="edge2_Node000002_Node000003" class="edge">
<title>Node2&#45;&gt;Node3</title>
<g id="a_edge2_Node000002_Node000003"><a xlink:title=" ">
<path fill="none" stroke="#63b8ff" d="M112.35,-69.06C103.75,-60.14 94.44,-50.47 86.49,-42.23"/>
<polygon fill="#63b8ff" stroke="#63b8ff" points="109.8,-71.46 119.26,-76.24 114.84,-66.61 109.8,-71.46"/>
</a>
</g>
</g>
<!-- Node4 -->
<g id="Node000004" class="node">
<title>Node4</title>
<g id="a_Node000004"><a xlink:href="CRTDesign_8cpp.html" target="_top" xlink:title=" ">
<polygon fill="white" stroke="#666666" points="274.12,-41.75 151.62,-41.75 151.62,0 274.12,0 274.12,-41.75"/>
<text text-anchor="start" x="159.62" y="-28.25" font-family="Helvetica,sans-Serif" font-size="10.00">/github/workspace/dev</text>
<text text-anchor="start" x="159.62" y="-17" font-family="Helvetica,sans-Serif" font-size="10.00">_area/sourcecode/timing</text>
<text text-anchor="middle" x="212.88" y="-5.75" font-family="Helvetica,sans-Serif" font-size="10.00">/src/CRTDesign.cpp</text>
</a>
</g>
</g>
<!-- Node2&#45;&gt;Node4 -->
<g id="edge3_Node000002_Node000004" class="edge">
<title>Node2&#45;&gt;Node4</title>
<g id="a_edge3_Node000002_Node000004"><a xlink:title=" ">
<path fill="none" stroke="#63b8ff" d="M167.4,-69.06C176,-60.14 185.31,-50.47 193.26,-42.23"/>
<polygon fill="#63b8ff" stroke="#63b8ff" points="164.91,-66.61 160.49,-76.24 169.95,-71.46 164.91,-66.61"/>
</a>
</g>
</g>
<!-- Node5&#45;&gt;Node2 -->
<g id="edge5_Node000005_Node000002" class="edge">
<title>Node5&#45;&gt;Node2</title>
<g id="a_edge5_Node000005_Node000002"><a xlink:title=" ">
<path fill="none" stroke="#63b8ff" d="M177.43,-146.26C170.37,-137.49 162.77,-128.05 156.27,-119.98"/>
<polygon fill="#63b8ff" stroke="#63b8ff" points="174.58,-148.3 183.58,-153.9 180.03,-143.91 174.58,-148.3"/>
</a>
</g>
</g>
</g>
</svg>
