<?xml version="1.0" encoding="UTF-8" standalone="no"?>
<!DOCTYPE svg PUBLIC "-//W3C//DTD SVG 1.1//EN"
 "http://www.w3.org/Graphics/SVG/1.1/DTD/svg11.dtd">
<!-- Generated by graphviz version 9.0.0 (20230911.1827)
 -->
<!-- Title: /github/workspace/dev_area/sourcecode/dpdklibs/src/CyclicDataGenerator.cpp Pages: 1 -->
<svg width="170pt" height="160pt"
 viewBox="0.00 0.00 170.25 160.25" xmlns="http://www.w3.org/2000/svg" xmlns:xlink="http://www.w3.org/1999/xlink">
<g id="graph0" class="graph" transform="scale(1 1) rotate(0) translate(4 156.25)">
<title>/github/workspace/dev_area/sourcecode/dpdklibs/src/CyclicDataGenerator.cpp</title>
<!-- Node1 -->
<g id="Node000001" class="node">
<title>Node1</title>
<g id="a_Node000001"><a xlink:title=" ">
<polygon fill="#999999" stroke="#666666" points="152.5,-152.25 9.75,-152.25 9.75,-110.5 152.5,-110.5 152.5,-152.25"/>
<text text-anchor="start" x="17.75" y="-138.75" font-family="Helvetica,sans-Serif" font-size="10.00">/github/workspace/dev</text>
<text text-anchor="start" x="17.75" y="-127.5" font-family="Helvetica,sans-Serif" font-size="10.00">_area/sourcecode/dpdklibs</text>
<text text-anchor="middle" x="81.12" y="-116.25" font-family="Helvetica,sans-Serif" font-size="10.00">/src/CyclicDataGenerator.cpp</text>
</a>
</g>
</g>
<!-- Node2 -->
<g id="Node000002" class="node">
<title>Node2</title>
<g id="a_Node000002"><a xlink:href="CyclicDataGenerator_8hpp.html" target="_top" xlink:title=" ">
<polygon fill="white" stroke="#666666" points="162.25,-74.5 0,-74.5 0,-55.25 162.25,-55.25 162.25,-74.5"/>
<text text-anchor="middle" x="81.12" y="-61" font-family="Helvetica,sans-Serif" font-size="10.00">dpdklibs/CyclicDataGenerator.hpp</text>
</a>
</g>
</g>
<!-- Node1&#45;&gt;Node2 -->
<g id="edge1_Node000001_Node000002" class="edge">
<title>Node1&#45;&gt;Node2</title>
<g id="a_edge1_Node000001_Node000002"><a xlink:title=" ">
<path fill="none" stroke="#63b8ff" d="M81.12,-110.32C81.12,-102.65 81.12,-93.89 81.12,-86.2"/>
<polygon fill="#63b8ff" stroke="#63b8ff" points="84.63,-86.46 81.13,-76.46 77.63,-86.46 84.63,-86.46"/>
</a>
</g>
</g>
<!-- Node3 -->
<g id="Node000003" class="node">
<title>Node3</title>
<g id="a_Node000003"><a xlink:title=" ">
<polygon fill="#e0e0e0" stroke="#999999" points="72.88,-19.25 25.38,-19.25 25.38,0 72.88,0 72.88,-19.25"/>
<text text-anchor="middle" x="49.12" y="-5.75" font-family="Helvetica,sans-Serif" font-size="10.00">string.h</text>
</a>
</g>
</g>
<!-- Node2&#45;&gt;Node3 -->
<g id="edge2_Node000002_Node000003" class="edge">
<title>Node2&#45;&gt;Node3</title>
<g id="a_edge2_Node000002_Node000003"><a xlink:title=" ">
<path fill="none" stroke="#63b8ff" d="M75.84,-55.08C71.65,-48.11 65.65,-38.12 60.39,-29.37"/>
<polygon fill="#63b8ff" stroke="#63b8ff" points="63.45,-27.68 55.3,-20.91 57.45,-31.28 63.45,-27.68"/>
</a>
</g>
</g>
<!-- Node4 -->
<g id="Node000004" class="node">
<title>Node4</title>
<g id="a_Node000004"><a xlink:title=" ">
<polygon fill="#e0e0e0" stroke="#999999" points="137.5,-19.25 90.75,-19.25 90.75,0 137.5,0 137.5,-19.25"/>
<text text-anchor="middle" x="114.12" y="-5.75" font-family="Helvetica,sans-Serif" font-size="10.00">stdlib.h</text>
</a>
</g>
</g>
<!-- Node2&#45;&gt;Node4 -->
<g id="edge3_Node000002_Node000004" class="edge">
<title>Node2&#45;&gt;Node4</title>
<g id="a_edge3_Node000002_Node000004"><a xlink:title=" ">
<path fill="none" stroke="#63b8ff" d="M86.57,-55.08C90.9,-48.11 97.09,-38.12 102.51,-29.37"/>
<polygon fill="#63b8ff" stroke="#63b8ff" points="105.47,-31.24 107.76,-20.9 99.52,-27.55 105.47,-31.24"/>
</a>
</g>
</g>
</g>
</svg>
