<?xml version="1.0" encoding="UTF-8" standalone="no"?>
<!DOCTYPE svg PUBLIC "-//W3C//DTD SVG 1.1//EN"
 "http://www.w3.org/Graphics/SVG/1.1/DTD/svg11.dtd">
<!-- Generated by graphviz version 9.0.0 (20230911.1827)
 -->
<!-- Title: /github/workspace/dev_area/sourcecode/rawdatautils/pybindsrc/DAPHNEUnpacker.cpp Pages: 1 -->
<svg width="1202pt" height="282pt"
 viewBox="0.00 0.00 1201.59 282.00" xmlns="http://www.w3.org/2000/svg" xmlns:xlink="http://www.w3.org/1999/xlink">
<g id="graph0" class="graph" transform="scale(1 1) rotate(0) translate(4 278)">
<title>/github/workspace/dev_area/sourcecode/rawdatautils/pybindsrc/DAPHNEUnpacker.cpp</title>
<!-- Node1 -->
<g id="Node000001" class="node">
<title>Node1</title>
<g id="a_Node000001"><a xlink:title=" ">
<polygon fill="#999999" stroke="#666666" points="445.34,-274 280.84,-274 280.84,-232.25 445.34,-232.25 445.34,-274"/>
<text text-anchor="start" x="288.84" y="-260.5" font-family="Helvetica,sans-Serif" font-size="10.00">/github/workspace/dev</text>
<text text-anchor="start" x="288.84" y="-249.25" font-family="Helvetica,sans-Serif" font-size="10.00">_area/sourcecode/rawdatautils</text>
<text text-anchor="middle" x="363.09" y="-238" font-family="Helvetica,sans-Serif" font-size="10.00">/pybindsrc/DAPHNEUnpacker.cpp</text>
</a>
</g>
</g>
<!-- Node2 -->
<g id="Node000002" class="node">
<title>Node2</title>
<g id="a_Node000002"><a xlink:href="DAPHNEFrame_8hpp.html" target="_top" xlink:title=" ">
<polygon fill="white" stroke="#666666" points="255.84,-135.38 76.34,-135.38 76.34,-116.12 255.84,-116.12 255.84,-135.38"/>
<text text-anchor="middle" x="166.09" y="-121.88" font-family="Helvetica,sans-Serif" font-size="10.00">fddetdataformats/DAPHNEFrame.hpp</text>
</a>
</g>
</g>
<!-- Node1&#45;&gt;Node2 -->
<g id="edge1_Node000001_Node000002" class="edge">
<title>Node1&#45;&gt;Node2</title>
<g id="a_edge1_Node000001_Node000002"><a xlink:title=" ">
<path fill="none" stroke="#63b8ff" d="M331.44,-231.98C291.85,-206.78 224.96,-164.21 189.61,-141.72"/>
<polygon fill="#63b8ff" stroke="#63b8ff" points="191.72,-138.91 181.4,-136.49 187.96,-144.81 191.72,-138.91"/>
</a>
</g>
</g>
<!-- Node4 -->
<g id="Node000004" class="node">
<title>Node4</title>
<g id="a_Node000004"><a xlink:title=" ">
<polygon fill="#e0e0e0" stroke="#999999" points="296.72,-19.25 251.47,-19.25 251.47,0 296.72,0 296.72,-19.25"/>
<text text-anchor="middle" x="274.09" y="-5.75" font-family="Helvetica,sans-Serif" font-size="10.00">cstdint</text>
</a>
</g>
</g>
<!-- Node1&#45;&gt;Node4 -->
<g id="edge54_Node000001_Node000004" class="edge">
<title>Node1&#45;&gt;Node4</title>
<g id="a_edge54_Node000001_Node000004"><a xlink:title=" ">
<path fill="none" stroke="#63b8ff" d="M280.53,-246.09C204.13,-236.18 92.37,-210.02 24.09,-141 2.3,-118.96 7.82,-105.13 3.09,-74.5 1.79,-66.04 -2.44,-61.77 3.09,-55.25 33.09,-19.92 173.8,-12.51 239.78,-11"/>
<polygon fill="#63b8ff" stroke="#63b8ff" points="239.75,-14.5 249.68,-10.8 239.61,-7.5 239.75,-14.5"/>
</a>
</g>
</g>
<!-- Node11 -->
<g id="Node000011" class="node">
<title>Node11</title>
<g id="a_Node000011"><a xlink:href="DAPHNEStreamFrame_8hpp.html" target="_top" xlink:title=" ">
<polygon fill="white" stroke="#666666" points="445.72,-141 280.47,-141 280.47,-110.5 445.72,-110.5 445.72,-141"/>
<text text-anchor="start" x="288.47" y="-127.5" font-family="Helvetica,sans-Serif" font-size="10.00">fddetdataformats/DAPHNEStream</text>
<text text-anchor="middle" x="363.09" y="-116.25" font-family="Helvetica,sans-Serif" font-size="10.00">Frame.hpp</text>
</a>
</g>
</g>
<!-- Node1&#45;&gt;Node11 -->
<g id="edge11_Node000001_Node000011" class="edge">
<title>Node1&#45;&gt;Node11</title>
<g id="a_edge11_Node000001_Node000011"><a xlink:title=" ">
<path fill="none" stroke="#63b8ff" d="M363.09,-231.98C363.09,-210.41 363.09,-176.1 363.09,-152.56"/>
<polygon fill="#63b8ff" stroke="#63b8ff" points="366.59,-152.87 363.09,-142.87 359.59,-152.87 366.59,-152.87"/>
</a>
</g>
</g>
<!-- Node12 -->
<g id="Node000012" class="node">
<title>Node12</title>
<g id="a_Node000012"><a xlink:href="Fragment_8hpp.html" target="_top" xlink:title=" ">
<polygon fill="white" stroke="#666666" points="736.97,-196.25 591.22,-196.25 591.22,-177 736.97,-177 736.97,-196.25"/>
<text text-anchor="middle" x="664.09" y="-182.75" font-family="Helvetica,sans-Serif" font-size="10.00">daqdataformats/Fragment.hpp</text>
</a>
</g>
</g>
<!-- Node1&#45;&gt;Node12 -->
<g id="edge19_Node000001_Node000012" class="edge">
<title>Node1&#45;&gt;Node12</title>
<g id="a_edge19_Node000001_Node000012"><a xlink:title=" ">
<path fill="none" stroke="#63b8ff" d="M445.74,-234.41C498.37,-223.14 564.99,-208.86 610.72,-199.06"/>
<polygon fill="#63b8ff" stroke="#63b8ff" points="611.36,-202.51 620.4,-196.99 609.89,-195.66 611.36,-202.51"/>
</a>
</g>
</g>
<!-- Node31 -->
<g id="Node000031" class="node">
<title>Node31</title>
<g id="a_Node000031"><a xlink:title=" ">
<polygon fill="#e0e0e0" stroke="#999999" points="848.72,-196.25 755.47,-196.25 755.47,-177 848.72,-177 848.72,-196.25"/>
<text text-anchor="middle" x="802.09" y="-182.75" font-family="Helvetica,sans-Serif" font-size="10.00">pybind11/numpy.h</text>
</a>
</g>
</g>
<!-- Node1&#45;&gt;Node31 -->
<g id="edge55_Node000001_Node000031" class="edge">
<title>Node1&#45;&gt;Node31</title>
<g id="a_edge55_Node000001_Node000031"><a xlink:title=" ">
<path fill="none" stroke="#63b8ff" d="M445.68,-240.27C520.69,-229.46 634.71,-212.91 743.82,-196.58"/>
<polygon fill="#63b8ff" stroke="#63b8ff" points="744.18,-200.07 753.55,-195.12 743.14,-193.14 744.18,-200.07"/>
</a>
</g>
</g>
<!-- Node3 -->
<g id="Node000003" class="node">
<title>Node3</title>
<g id="a_Node000003"><a xlink:href="DAQHeader_8hpp.html" target="_top" xlink:title=" ">
<polygon fill="white" stroke="#666666" points="351.47,-74.5 196.72,-74.5 196.72,-55.25 351.47,-55.25 351.47,-74.5"/>
<text text-anchor="middle" x="274.09" y="-61" font-family="Helvetica,sans-Serif" font-size="10.00">detdataformats/DAQHeader.hpp</text>
</a>
</g>
</g>
<!-- Node2&#45;&gt;Node3 -->
<g id="edge2_Node000002_Node000003" class="edge">
<title>Node2&#45;&gt;Node3</title>
<g id="a_edge2_Node000002_Node000003"><a xlink:title=" ">
<path fill="none" stroke="#63b8ff" d="M182.5,-115.81C199.78,-106.38 227.27,-91.4 247.63,-80.3"/>
<polygon fill="#63b8ff" stroke="#63b8ff" points="249.1,-83.48 256.21,-75.63 245.75,-77.34 249.1,-83.48"/>
</a>
</g>
</g>
<!-- Node2&#45;&gt;Node4 -->
<g id="edge10_Node000002_Node000004" class="edge">
<title>Node2&#45;&gt;Node4</title>
<g id="a_edge10_Node000002_Node000004"><a xlink:title=" ">
<path fill="none" stroke="#63b8ff" d="M99.75,-115.66C49.68,-106.04 -6.09,-87.65 21.09,-55.25 48.63,-22.43 177.33,-13.74 239.84,-11.44"/>
<polygon fill="#63b8ff" stroke="#63b8ff" points="239.66,-14.95 249.54,-11.12 239.43,-7.95 239.66,-14.95"/>
</a>
</g>
</g>
<!-- Node6 -->
<g id="Node000006" class="node">
<title>Node6</title>
<g id="a_Node000006"><a xlink:title=" ">
<polygon fill="#e0e0e0" stroke="#999999" points="178.97,-74.5 123.22,-74.5 123.22,-55.25 178.97,-55.25 178.97,-74.5"/>
<text text-anchor="middle" x="151.09" y="-61" font-family="Helvetica,sans-Serif" font-size="10.00">algorithm</text>
</a>
</g>
</g>
<!-- Node2&#45;&gt;Node6 -->
<g id="edge5_Node000002_Node000006" class="edge">
<title>Node2&#45;&gt;Node6</title>
<g id="a_edge5_Node000002_Node000006"><a xlink:title=" ">
<path fill="none" stroke="#63b8ff" d="M163.82,-115.81C161.79,-107.85 158.75,-95.94 156.16,-85.74"/>
<polygon fill="#63b8ff" stroke="#63b8ff" points="159.63,-85.19 153.77,-76.37 152.84,-86.92 159.63,-85.19"/>
</a>
</g>
</g>
<!-- Node7 -->
<g id="Node000007" class="node">
<title>Node7</title>
<g id="a_Node000007"><a xlink:title=" ">
<polygon fill="#e0e0e0" stroke="#999999" points="427.22,-19.25 378.97,-19.25 378.97,0 427.22,0 427.22,-19.25"/>
<text text-anchor="middle" x="403.09" y="-5.75" font-family="Helvetica,sans-Serif" font-size="10.00">cassert</text>
</a>
</g>
</g>
<!-- Node2&#45;&gt;Node7 -->
<g id="edge6_Node000002_Node000007" class="edge">
<title>Node2&#45;&gt;Node7</title>
<g id="a_edge6_Node000002_Node000007"><a xlink:title=" ">
<path fill="none" stroke="#63b8ff" d="M125.37,-115.69C83.87,-104.65 28.92,-83.85 54.09,-55.25 64.39,-43.55 280.21,-22.13 367.21,-13.94"/>
<polygon fill="#63b8ff" stroke="#63b8ff" points="367.46,-17.43 377.09,-13.01 366.81,-10.46 367.46,-17.43"/>
</a>
</g>
</g>
<!-- Node8 -->
<g id="Node000008" class="node">
<title>Node8</title>
<g id="a_Node000008"><a xlink:title=" ">
<polygon fill="#e0e0e0" stroke="#999999" points="105.22,-74.5 62.97,-74.5 62.97,-55.25 105.22,-55.25 105.22,-74.5"/>
<text text-anchor="middle" x="84.09" y="-61" font-family="Helvetica,sans-Serif" font-size="10.00">cstdio</text>
</a>
</g>
</g>
<!-- Node2&#45;&gt;Node8 -->
<g id="edge7_Node000002_Node000008" class="edge">
<title>Node2&#45;&gt;Node8</title>
<g id="a_edge7_Node000002_Node000008"><a xlink:title=" ">
<path fill="none" stroke="#63b8ff" d="M153.64,-115.81C141,-106.73 121.16,-92.49 105.91,-81.54"/>
<polygon fill="#63b8ff" stroke="#63b8ff" points="108.06,-78.77 97.89,-75.78 103.98,-84.46 108.06,-78.77"/>
</a>
</g>
</g>
<!-- Node9 -->
<g id="Node000009" class="node">
<title>Node9</title>
<g id="a_Node000009"><a xlink:title=" ">
<polygon fill="#e0e0e0" stroke="#999999" points="565.34,-74.5 520.84,-74.5 520.84,-55.25 565.34,-55.25 565.34,-74.5"/>
<text text-anchor="middle" x="543.09" y="-61" font-family="Helvetica,sans-Serif" font-size="10.00">cstdlib</text>
</a>
</g>
</g>
<!-- Node2&#45;&gt;Node9 -->
<g id="edge8_Node000002_Node000009" class="edge">
<title>Node2&#45;&gt;Node9</title>
<g id="a_edge8_Node000002_Node000009"><a xlink:title=" ">
<path fill="none" stroke="#63b8ff" d="M232.02,-115.64C317.12,-103.81 459.44,-83.79 509.41,-74.69"/>
<polygon fill="#63b8ff" stroke="#63b8ff" points="509.86,-78.16 519,-72.81 508.52,-71.29 509.86,-78.16"/>
</a>
</g>
</g>
<!-- Node10 -->
<g id="Node000010" class="node">
<title>Node10</title>
<g id="a_Node000010"><a xlink:title=" ">
<polygon fill="#e0e0e0" stroke="#999999" points="503.09,-74.5 445.09,-74.5 445.09,-55.25 503.09,-55.25 503.09,-74.5"/>
<text text-anchor="middle" x="474.09" y="-61" font-family="Helvetica,sans-Serif" font-size="10.00">stdexcept</text>
</a>
</g>
</g>
<!-- Node2&#45;&gt;Node10 -->
<g id="edge9_Node000002_Node000010" class="edge">
<title>Node2&#45;&gt;Node10</title>
<g id="a_edge9_Node000002_Node000010"><a xlink:title=" ">
<path fill="none" stroke="#63b8ff" d="M213.54,-115.68C273.85,-104.15 376.91,-84.45 433.66,-73.6"/>
<polygon fill="#63b8ff" stroke="#63b8ff" points="434.05,-77.09 443.21,-71.78 432.73,-70.22 434.05,-77.09"/>
</a>
</g>
</g>
<!-- Node3&#45;&gt;Node4 -->
<g id="edge3_Node000003_Node000004" class="edge">
<title>Node3&#45;&gt;Node4</title>
<g id="a_edge3_Node000003_Node000004"><a xlink:title=" ">
<path fill="none" stroke="#63b8ff" d="M274.09,-55.08C274.09,-48.57 274.09,-39.42 274.09,-31.12"/>
<polygon fill="#63b8ff" stroke="#63b8ff" points="277.59,-31.12 274.09,-21.12 270.59,-31.12 277.59,-31.12"/>
</a>
</g>
</g>
<!-- Node5 -->
<g id="Node000005" class="node">
<title>Node5</title>
<g id="a_Node000005"><a xlink:title=" ">
<polygon fill="#e0e0e0" stroke="#999999" points="496.72,-19.25 445.47,-19.25 445.47,0 496.72,0 496.72,-19.25"/>
<text text-anchor="middle" x="471.09" y="-5.75" font-family="Helvetica,sans-Serif" font-size="10.00">ostream</text>
</a>
</g>
</g>
<!-- Node3&#45;&gt;Node5 -->
<g id="edge4_Node000003_Node000005" class="edge">
<title>Node3&#45;&gt;Node5</title>
<g id="a_edge4_Node000003_Node000005"><a xlink:title=" ">
<path fill="none" stroke="#63b8ff" d="M307.51,-54.84C342.73,-45.32 398.04,-30.37 434.43,-20.53"/>
<polygon fill="#63b8ff" stroke="#63b8ff" points="434.88,-24.04 443.62,-18.05 433.05,-17.28 434.88,-24.04"/>
</a>
</g>
</g>
<!-- Node11&#45;&gt;Node3 -->
<g id="edge12_Node000011_Node000003" class="edge">
<title>Node11&#45;&gt;Node3</title>
<g id="a_edge12_Node000011_Node000003"><a xlink:title=" ">
<path fill="none" stroke="#63b8ff" d="M341.09,-110.2C327.8,-101.4 310.88,-90.21 297.37,-81.27"/>
<polygon fill="#63b8ff" stroke="#63b8ff" points="299.35,-78.38 289.08,-75.79 295.49,-84.22 299.35,-78.38"/>
</a>
</g>
</g>
<!-- Node11&#45;&gt;Node4 -->
<g id="edge18_Node000011_Node000004" class="edge">
<title>Node11&#45;&gt;Node4</title>
<g id="a_edge18_Node000011_Node000004"><a xlink:title=" ">
<path fill="none" stroke="#63b8ff" d="M366.43,-110.19C369.02,-95.2 370.61,-71.75 360.09,-55.25 348.43,-36.96 326.69,-25.77 307.99,-19.17"/>
<polygon fill="#63b8ff" stroke="#63b8ff" points="309.18,-15.88 298.59,-16.18 307.05,-22.55 309.18,-15.88"/>
</a>
</g>
</g>
<!-- Node11&#45;&gt;Node6 -->
<g id="edge13_Node000011_Node000006" class="edge">
<title>Node11&#45;&gt;Node6</title>
<g id="a_edge13_Node000011_Node000006"><a xlink:title=" ">
<path fill="none" stroke="#63b8ff" d="M310.14,-110.05C272.9,-99.7 223.89,-86.09 190.16,-76.73"/>
<polygon fill="#63b8ff" stroke="#63b8ff" points="191.38,-73.43 180.81,-74.13 189.51,-80.18 191.38,-73.43"/>
</a>
</g>
</g>
<!-- Node11&#45;&gt;Node7 -->
<g id="edge14_Node000011_Node000007" class="edge">
<title>Node11&#45;&gt;Node7</title>
<g id="a_edge14_Node000011_Node000007"><a xlink:title=" ">
<path fill="none" stroke="#63b8ff" d="M373.89,-110.11C380.46,-100.47 388.47,-87.3 393.09,-74.5 398.19,-60.41 400.69,-43.64 401.91,-30.82"/>
<polygon fill="#63b8ff" stroke="#63b8ff" points="405.39,-31.31 402.65,-21.08 398.41,-30.78 405.39,-31.31"/>
</a>
</g>
</g>
<!-- Node11&#45;&gt;Node8 -->
<g id="edge15_Node000011_Node000008" class="edge">
<title>Node11&#45;&gt;Node8</title>
<g id="a_edge15_Node000011_Node000008"><a xlink:title=" ">
<path fill="none" stroke="#63b8ff" d="M281.71,-110.05C235.65,-101.32 176.79,-89.51 116.54,-74.95"/>
<polygon fill="#63b8ff" stroke="#63b8ff" points="117.68,-71.63 107.14,-72.66 116.02,-78.43 117.68,-71.63"/>
</a>
</g>
</g>
<!-- Node11&#45;&gt;Node9 -->
<g id="edge16_Node000011_Node000009" class="edge">
<title>Node11&#45;&gt;Node9</title>
<g id="a_edge16_Node000011_Node000009"><a xlink:title=" ">
<path fill="none" stroke="#63b8ff" d="M408.05,-110.05C439.67,-99.7 481.29,-86.09 509.93,-76.72"/>
<polygon fill="#63b8ff" stroke="#63b8ff" points="510.73,-80.14 519.15,-73.71 508.56,-73.49 510.73,-80.14"/>
</a>
</g>
</g>
<!-- Node11&#45;&gt;Node10 -->
<g id="edge17_Node000011_Node000010" class="edge">
<title>Node11&#45;&gt;Node10</title>
<g id="a_edge17_Node000011_Node000010"><a xlink:title=" ">
<path fill="none" stroke="#63b8ff" d="M390.82,-110.05C408.05,-100.91 430.09,-89.22 447.17,-80.16"/>
<polygon fill="#63b8ff" stroke="#63b8ff" points="448.54,-83.39 455.73,-75.61 445.26,-77.21 448.54,-83.39"/>
</a>
</g>
</g>
<!-- Node12&#45;&gt;Node4 -->
<g id="edge46_Node000012_Node000004" class="edge">
<title>Node12&#45;&gt;Node4</title>
<g id="a_edge46_Node000012_Node000004"><a xlink:title=" ">
<path fill="none" stroke="#63b8ff" d="M590.86,-183.29C441.68,-178.08 112.77,-164.11 67.09,-141 32.36,-123.43 23.6,-111.01 10.09,-74.5 7.13,-66.48 4.57,-61.78 10.09,-55.25 39.19,-20.83 175.7,-12.95 240.19,-11.15"/>
<polygon fill="#63b8ff" stroke="#63b8ff" points="239.93,-14.66 249.84,-10.92 239.76,-7.66 239.93,-14.66"/>
</a>
</g>
</g>
<!-- Node12&#45;&gt;Node9 -->
<g id="edge47_Node000012_Node000009" class="edge">
<title>Node12&#45;&gt;Node9</title>
<g id="a_edge47_Node000012_Node000009"><a xlink:title=" ">
<path fill="none" stroke="#63b8ff" d="M666.31,-176.73C669.53,-161.53 673.67,-130.28 659.09,-110.5 653.91,-103.47 608.88,-87.48 576.49,-76.68"/>
<polygon fill="#63b8ff" stroke="#63b8ff" points="577.67,-73.38 567.08,-73.57 575.47,-80.03 577.67,-73.38"/>
</a>
</g>
</g>
<!-- Node12&#45;&gt;Node10 -->
<g id="edge51_Node000012_Node000010" class="edge">
<title>Node12&#45;&gt;Node10</title>
<g id="a_edge51_Node000012_Node000010"><a xlink:title=" ">
<path fill="none" stroke="#63b8ff" d="M662.01,-176.51C657.92,-160.7 647.33,-128.17 626.09,-110.5 617.36,-103.23 556.5,-86.73 514.49,-75.96"/>
<polygon fill="#63b8ff" stroke="#63b8ff" points="515.49,-72.61 504.94,-73.53 513.76,-79.39 515.49,-72.61"/>
</a>
</g>
</g>
<!-- Node13 -->
<g id="Node000013" class="node">
<title>Node13</title>
<g id="a_Node000013"><a xlink:href="FragmentHeader_8hpp.html" target="_top" xlink:title=" ">
<polygon fill="white" stroke="#666666" points="1004.72,-135.38 827.47,-135.38 827.47,-116.12 1004.72,-116.12 1004.72,-135.38"/>
<text text-anchor="middle" x="916.09" y="-121.88" font-family="Helvetica,sans-Serif" font-size="10.00">daqdataformats/FragmentHeader.hpp</text>
</a>
</g>
</g>
<!-- Node12&#45;&gt;Node13 -->
<g id="edge20_Node000012_Node000013" class="edge">
<title>Node12&#45;&gt;Node13</title>
<g id="a_edge20_Node000012_Node000013"><a xlink:title=" ">
<path fill="none" stroke="#63b8ff" d="M702.92,-176.55C746.76,-166.31 818.22,-149.62 866.17,-138.41"/>
<polygon fill="#63b8ff" stroke="#63b8ff" points="866.81,-141.86 875.75,-136.17 865.22,-135.04 866.81,-141.86"/>
</a>
</g>
</g>
<!-- Node14 -->
<g id="Node000014" class="node">
<title>Node14</title>
<g id="a_Node000014"><a xlink:href="SourceID_8hpp.html" target="_top" xlink:title=" ">
<polygon fill="white" stroke="#666666" points="877.59,-74.5 732.59,-74.5 732.59,-55.25 877.59,-55.25 877.59,-74.5"/>
<text text-anchor="middle" x="805.09" y="-61" font-family="Helvetica,sans-Serif" font-size="10.00">daqdataformats/SourceID.hpp</text>
</a>
</g>
</g>
<!-- Node12&#45;&gt;Node14 -->
<g id="edge43_Node000012_Node000014" class="edge">
<title>Node12&#45;&gt;Node14</title>
<g id="a_edge43_Node000012_Node000014"><a xlink:title=" ">
<path fill="none" stroke="#63b8ff" d="M674.69,-176.62C698.37,-156.51 755.86,-107.69 785.97,-82.11"/>
<polygon fill="#63b8ff" stroke="#63b8ff" points="787.86,-85.1 793.22,-75.96 783.33,-79.77 787.86,-85.1"/>
</a>
</g>
</g>
<!-- Node23 -->
<g id="Node000023" class="node">
<title>Node23</title>
<g id="a_Node000023"><a xlink:href="daqdataformats_2include_2daqdataformats_2Types_8hpp.html" target="_top" xlink:title=" ">
<polygon fill="white" stroke="#666666" points="714.47,-74.5 583.72,-74.5 583.72,-55.25 714.47,-55.25 714.47,-74.5"/>
<text text-anchor="middle" x="649.09" y="-61" font-family="Helvetica,sans-Serif" font-size="10.00">daqdataformats/Types.hpp</text>
</a>
</g>
</g>
<!-- Node12&#45;&gt;Node23 -->
<g id="edge44_Node000012_Node000023" class="edge">
<title>Node12&#45;&gt;Node23</title>
<g id="a_edge44_Node000012_Node000023"><a xlink:title=" ">
<path fill="none" stroke="#63b8ff" d="M673.42,-176.73C681.45,-168.38 692.45,-155.09 697.09,-141 701.34,-128.13 702.51,-122.93 697.09,-110.5 692.05,-98.92 682.35,-88.99 672.99,-81.46"/>
<polygon fill="#63b8ff" stroke="#63b8ff" points="675.26,-78.79 665.14,-75.66 671.1,-84.42 675.26,-78.79"/>
</a>
</g>
</g>
<!-- Node24 -->
<g id="Node000024" class="node">
<title>Node24</title>
<g id="a_Node000024"><a xlink:title=" ">
<polygon fill="#e0e0e0" stroke="#999999" points="1064.09,-74.5 1024.09,-74.5 1024.09,-55.25 1064.09,-55.25 1064.09,-74.5"/>
<text text-anchor="middle" x="1044.09" y="-61" font-family="Helvetica,sans-Serif" font-size="10.00">bitset</text>
</a>
</g>
</g>
<!-- Node12&#45;&gt;Node24 -->
<g id="edge45_Node000012_Node000024" class="edge">
<title>Node12&#45;&gt;Node24</title>
<g id="a_edge45_Node000012_Node000024"><a xlink:title=" ">
<path fill="none" stroke="#63b8ff" d="M737.3,-177.23C838.3,-165.51 1008.65,-145.21 1014.09,-141 1031.16,-127.79 1038.55,-103.36 1041.73,-85.95"/>
<polygon fill="#63b8ff" stroke="#63b8ff" points="1045.16,-86.67 1043.16,-76.27 1038.23,-85.65 1045.16,-86.67"/>
</a>
</g>
</g>
<!-- Node26 -->
<g id="Node000026" class="node">
<title>Node26</title>
<g id="a_Node000026"><a xlink:title=" ">
<polygon fill="#e0e0e0" stroke="#999999" points="1132.34,-74.5 1081.84,-74.5 1081.84,-55.25 1132.34,-55.25 1132.34,-74.5"/>
<text text-anchor="middle" x="1107.09" y="-61" font-family="Helvetica,sans-Serif" font-size="10.00">numeric</text>
</a>
</g>
</g>
<!-- Node12&#45;&gt;Node26 -->
<g id="edge50_Node000012_Node000026" class="edge">
<title>Node12&#45;&gt;Node26</title>
<g id="a_edge50_Node000012_Node000026"><a xlink:title=" ">
<path fill="none" stroke="#63b8ff" d="M737.24,-177.54C844.21,-165.63 1031.46,-144.4 1038.09,-141 1063.14,-128.17 1083.68,-102.32 1095.66,-84.56"/>
<polygon fill="#63b8ff" stroke="#63b8ff" points="1098.54,-86.54 1101.01,-76.24 1092.66,-82.75 1098.54,-86.54"/>
</a>
</g>
</g>
<!-- Node27 -->
<g id="Node000027" class="node">
<title>Node27</title>
<g id="a_Node000027"><a xlink:title=" ">
<polygon fill="#e0e0e0" stroke="#999999" points="1193.59,-74.5 1150.59,-74.5 1150.59,-55.25 1193.59,-55.25 1193.59,-74.5"/>
<text text-anchor="middle" x="1172.09" y="-61" font-family="Helvetica,sans-Serif" font-size="10.00">vector</text>
</a>
</g>
</g>
<!-- Node12&#45;&gt;Node27 -->
<g id="edge53_Node000012_Node000027" class="edge">
<title>Node12&#45;&gt;Node27</title>
<g id="a_edge53_Node000012_Node000027"><a xlink:title=" ">
<path fill="none" stroke="#63b8ff" d="M737.23,-177.83C853.1,-165.44 1066.25,-142.5 1070.09,-141 1103.72,-127.87 1136.16,-100.7 1155.11,-82.88"/>
<polygon fill="#63b8ff" stroke="#63b8ff" points="1157.43,-85.51 1162.19,-76.04 1152.56,-80.48 1157.43,-85.51"/>
</a>
</g>
</g>
<!-- Node28 -->
<g id="Node000028" class="node">
<title>Node28</title>
<g id="a_Node000028"><a xlink:title=" ">
<polygon fill="#e0e0e0" stroke="#999999" points="508.72,-135.38 463.47,-135.38 463.47,-116.12 508.72,-116.12 508.72,-135.38"/>
<text text-anchor="middle" x="486.09" y="-121.88" font-family="Helvetica,sans-Serif" font-size="10.00">cstring</text>
</a>
</g>
</g>
<!-- Node12&#45;&gt;Node28 -->
<g id="edge48_Node000012_Node000028" class="edge">
<title>Node12&#45;&gt;Node28</title>
<g id="a_edge48_Node000012_Node000028"><a xlink:title=" ">
<path fill="none" stroke="#63b8ff" d="M630.36,-176.58C600.52,-168.28 555.95,-155.16 518.09,-141 517.3,-140.7 516.5,-140.4 515.7,-140.09"/>
<polygon fill="#63b8ff" stroke="#63b8ff" points="517.2,-136.92 506.62,-136.31 514.51,-143.38 517.2,-136.92"/>
</a>
</g>
</g>
<!-- Node29 -->
<g id="Node000029" class="node">
<title>Node29</title>
<g id="a_Node000029"><a xlink:title=" ">
<polygon fill="#e0e0e0" stroke="#999999" points="561.09,-135.38 527.09,-135.38 527.09,-116.12 561.09,-116.12 561.09,-135.38"/>
<text text-anchor="middle" x="544.09" y="-121.88" font-family="Helvetica,sans-Serif" font-size="10.00">new</text>
</a>
</g>
</g>
<!-- Node12&#45;&gt;Node29 -->
<g id="edge49_Node000012_Node000029" class="edge">
<title>Node12&#45;&gt;Node29</title>
<g id="a_edge49_Node000012_Node000029"><a xlink:title=" ">
<path fill="none" stroke="#63b8ff" d="M644.13,-176.55C626.85,-168.62 601.04,-156.56 570.37,-140.97"/>
<polygon fill="#63b8ff" stroke="#63b8ff" points="572.09,-137.92 561.59,-136.48 568.9,-144.15 572.09,-137.92"/>
</a>
</g>
</g>
<!-- Node30 -->
<g id="Node000030" class="node">
<title>Node30</title>
<g id="a_Node000030"><a xlink:title=" ">
<polygon fill="#e0e0e0" stroke="#999999" points="617.34,-135.38 578.84,-135.38 578.84,-116.12 617.34,-116.12 617.34,-135.38"/>
<text text-anchor="middle" x="598.09" y="-121.88" font-family="Helvetica,sans-Serif" font-size="10.00">utility</text>
</a>
</g>
</g>
<!-- Node12&#45;&gt;Node30 -->
<g id="edge52_Node000012_Node000030" class="edge">
<title>Node12&#45;&gt;Node30</title>
<g id="a_edge52_Node000012_Node000030"><a xlink:title=" ">
<path fill="none" stroke="#63b8ff" d="M654.07,-176.68C644.18,-167.87 628.84,-154.18 616.71,-143.36"/>
<polygon fill="#63b8ff" stroke="#63b8ff" points="619.13,-140.83 609.34,-136.78 614.47,-146.05 619.13,-140.83"/>
</a>
</g>
</g>
<!-- Node13&#45;&gt;Node9 -->
<g id="edge38_Node000013_Node000009" class="edge">
<title>Node13&#45;&gt;Node9</title>
<g id="a_edge38_Node000013_Node000009"><a xlink:title=" ">
<path fill="none" stroke="#63b8ff" d="M836.05,-115.64C769.29,-107.43 671.5,-93.98 576.95,-74.65"/>
<polygon fill="#63b8ff" stroke="#63b8ff" points="577.73,-71.24 567.22,-72.64 576.31,-78.09 577.73,-71.24"/>
</a>
</g>
</g>
<!-- Node13&#45;&gt;Node14 -->
<g id="edge21_Node000013_Node000014" class="edge">
<title>Node13&#45;&gt;Node14</title>
<g id="a_edge21_Node000013_Node000014"><a xlink:title=" ">
<path fill="none" stroke="#63b8ff" d="M899.24,-115.81C881.39,-106.34 852.96,-91.26 832,-80.15"/>
<polygon fill="#63b8ff" stroke="#63b8ff" points="833.92,-77.2 823.45,-75.61 830.64,-83.39 833.92,-77.2"/>
</a>
</g>
</g>
<!-- Node15 -->
<g id="Node000015" class="node">
<title>Node15</title>
<g id="a_Node000015"><a xlink:title=" ">
<polygon fill="#e0e0e0" stroke="#999999" points="995.22,-19.25 946.97,-19.25 946.97,0 995.22,0 995.22,-19.25"/>
<text text-anchor="middle" x="971.09" y="-5.75" font-family="Helvetica,sans-Serif" font-size="10.00">cstddef</text>
</a>
</g>
</g>
<!-- Node13&#45;&gt;Node15 -->
<g id="edge37_Node000013_Node000015" class="edge">
<title>Node13&#45;&gt;Node15</title>
<g id="a_edge37_Node000013_Node000015"><a xlink:title=" ">
<path fill="none" stroke="#63b8ff" d="M920.41,-115.79C929.33,-97.29 949.95,-54.51 961.96,-29.58"/>
<polygon fill="#63b8ff" stroke="#63b8ff" points="964.95,-31.43 966.14,-20.9 958.65,-28.39 964.95,-31.43"/>
</a>
</g>
</g>
<!-- Node20 -->
<g id="Node000020" class="node">
<title>Node20</title>
<g id="a_Node000020"><a xlink:title=" ">
<polygon fill="#e0e0e0" stroke="#999999" points="1053.09,-19.25 1013.09,-19.25 1013.09,0 1053.09,0 1053.09,-19.25"/>
<text text-anchor="middle" x="1033.09" y="-5.75" font-family="Helvetica,sans-Serif" font-size="10.00">string</text>
</a>
</g>
</g>
<!-- Node13&#45;&gt;Node20 -->
<g id="edge41_Node000013_Node000020" class="edge">
<title>Node13&#45;&gt;Node20</title>
<g id="a_edge41_Node000013_Node000020"><a xlink:title=" ">
<path fill="none" stroke="#63b8ff" d="M925.27,-115.79C944.84,-96.71 990.9,-51.78 1016.02,-27.28"/>
<polygon fill="#63b8ff" stroke="#63b8ff" points="1018.16,-30.08 1022.87,-20.6 1013.27,-25.07 1018.16,-30.08"/>
</a>
</g>
</g>
<!-- Node13&#45;&gt;Node23 -->
<g id="edge33_Node000013_Node000023" class="edge">
<title>Node13&#45;&gt;Node23</title>
<g id="a_edge33_Node000013_Node000023"><a xlink:title=" ">
<path fill="none" stroke="#63b8ff" d="M874.96,-115.68C828.31,-105.39 752.16,-88.6 701.34,-77.4"/>
<polygon fill="#63b8ff" stroke="#63b8ff" points="702.27,-74.02 691.75,-75.28 700.76,-80.85 702.27,-74.02"/>
</a>
</g>
</g>
<!-- Node13&#45;&gt;Node24 -->
<g id="edge36_Node000013_Node000024" class="edge">
<title>Node13&#45;&gt;Node24</title>
<g id="a_edge36_Node000013_Node000024"><a xlink:title=" ">
<path fill="none" stroke="#63b8ff" d="M935.81,-115.68C956.73,-106.06 990.03,-90.74 1014.19,-79.63"/>
<polygon fill="#63b8ff" stroke="#63b8ff" points="1015.56,-82.85 1023.19,-75.49 1012.64,-76.49 1015.56,-82.85"/>
</a>
</g>
</g>
<!-- Node25 -->
<g id="Node000025" class="node">
<title>Node25</title>
<g id="a_Node000025"><a xlink:title=" ">
<polygon fill="#e0e0e0" stroke="#999999" points="930.47,-74.5 895.72,-74.5 895.72,-55.25 930.47,-55.25 930.47,-74.5"/>
<text text-anchor="middle" x="913.09" y="-61" font-family="Helvetica,sans-Serif" font-size="10.00">map</text>
</a>
</g>
</g>
<!-- Node13&#45;&gt;Node25 -->
<g id="edge39_Node000013_Node000025" class="edge">
<title>Node13&#45;&gt;Node25</title>
<g id="a_edge39_Node000013_Node000025"><a xlink:title=" ">
<path fill="none" stroke="#63b8ff" d="M915.64,-115.81C915.24,-107.94 914.64,-96.2 914.12,-86.07"/>
<polygon fill="#63b8ff" stroke="#63b8ff" points="917.64,-86.22 913.63,-76.41 910.64,-86.58 917.64,-86.22"/>
</a>
</g>
</g>
<!-- Node13&#45;&gt;Node26 -->
<g id="edge40_Node000013_Node000026" class="edge">
<title>Node13&#45;&gt;Node26</title>
<g id="a_edge40_Node000013_Node000026"><a xlink:title=" ">
<path fill="none" stroke="#63b8ff" d="M945.52,-115.68C979.28,-105.27 1034.65,-88.21 1070.99,-77"/>
<polygon fill="#63b8ff" stroke="#63b8ff" points="1071.64,-80.47 1080.16,-74.18 1069.58,-73.78 1071.64,-80.47"/>
</a>
</g>
</g>
<!-- Node13&#45;&gt;Node27 -->
<g id="edge42_Node000013_Node000027" class="edge">
<title>Node13&#45;&gt;Node27</title>
<g id="a_edge42_Node000013_Node000027"><a xlink:title=" ">
<path fill="none" stroke="#63b8ff" d="M959.81,-115.69C1002.95,-106.59 1071.04,-91.81 1139.18,-74.88"/>
<polygon fill="#63b8ff" stroke="#63b8ff" points="1139.8,-78.33 1148.65,-72.51 1138.1,-71.54 1139.8,-78.33"/>
</a>
</g>
</g>
<!-- Node14&#45;&gt;Node4 -->
<g id="edge24_Node000014_Node000004" class="edge">
<title>Node14&#45;&gt;Node4</title>
<g id="a_edge24_Node000014_Node000004"><a xlink:title=" ">
<path fill="none" stroke="#63b8ff" d="M732.22,-56.19C729.14,-55.87 726.08,-55.56 723.09,-55.25 568.12,-39.4 382.98,-21.25 308.05,-13.93"/>
<polygon fill="#63b8ff" stroke="#63b8ff" points="308.79,-10.49 298.5,-13 308.11,-17.46 308.79,-10.49"/>
</a>
</g>
</g>
<!-- Node14&#45;&gt;Node5 -->
<g id="edge28_Node000014_Node000005" class="edge">
<title>Node14&#45;&gt;Node5</title>
<g id="a_edge28_Node000014_Node000005"><a xlink:title=" ">
<path fill="none" stroke="#63b8ff" d="M732.3,-55.13C674,-47.66 589.93,-35.81 508.26,-19.73"/>
<polygon fill="#63b8ff" stroke="#63b8ff" points="509,-16.31 498.51,-17.78 507.63,-23.17 509,-16.31"/>
</a>
</g>
</g>
<!-- Node14&#45;&gt;Node7 -->
<g id="edge22_Node000014_Node000007" class="edge">
<title>Node14&#45;&gt;Node7</title>
<g id="a_edge22_Node000014_Node000007"><a xlink:title=" ">
<path fill="none" stroke="#63b8ff" d="M732.31,-55.61C641.04,-45.17 490.99,-27.73 438.82,-19.37"/>
<polygon fill="#63b8ff" stroke="#63b8ff" points="439.46,-15.93 429.01,-17.66 438.26,-22.82 439.46,-15.93"/>
</a>
</g>
</g>
<!-- Node14&#45;&gt;Node15 -->
<g id="edge23_Node000014_Node000015" class="edge">
<title>Node14&#45;&gt;Node15</title>
<g id="a_edge23_Node000014_Node000015"><a xlink:title=" ">
<path fill="none" stroke="#63b8ff" d="M833.25,-54.84C861.59,-45.75 905.37,-31.71 935.97,-21.89"/>
<polygon fill="#63b8ff" stroke="#63b8ff" points="936.69,-25.34 945.15,-18.95 934.56,-18.67 936.69,-25.34"/>
</a>
</g>
</g>
<!-- Node16 -->
<g id="Node000016" class="node">
<title>Node16</title>
<g id="a_Node000016"><a xlink:title=" ">
<polygon fill="#e0e0e0" stroke="#999999" points="862.97,-19.25 813.22,-19.25 813.22,0 862.97,0 862.97,-19.25"/>
<text text-anchor="middle" x="838.09" y="-5.75" font-family="Helvetica,sans-Serif" font-size="10.00">iomanip</text>
</a>
</g>
</g>
<!-- Node14&#45;&gt;Node16 -->
<g id="edge25_Node000014_Node000016" class="edge">
<title>Node14&#45;&gt;Node16</title>
<g id="a_edge25_Node000014_Node000016"><a xlink:title=" ">
<path fill="none" stroke="#63b8ff" d="M810.54,-55.08C814.86,-48.11 821.06,-38.12 826.48,-29.37"/>
<polygon fill="#63b8ff" stroke="#63b8ff" points="829.44,-31.24 831.73,-20.9 823.49,-27.55 829.44,-31.24"/>
</a>
</g>
</g>
<!-- Node17 -->
<g id="Node000017" class="node">
<title>Node17</title>
<g id="a_Node000017"><a xlink:title=" ">
<polygon fill="#e0e0e0" stroke="#999999" points="929.22,-19.25 880.97,-19.25 880.97,0 929.22,0 929.22,-19.25"/>
<text text-anchor="middle" x="905.09" y="-5.75" font-family="Helvetica,sans-Serif" font-size="10.00">istream</text>
</a>
</g>
</g>
<!-- Node14&#45;&gt;Node17 -->
<g id="edge26_Node000014_Node000017" class="edge">
<title>Node14&#45;&gt;Node17</title>
<g id="a_edge26_Node000014_Node000017"><a xlink:title=" ">
<path fill="none" stroke="#63b8ff" d="M822.06,-54.84C837.36,-46.69 860.13,-34.57 877.96,-25.08"/>
<polygon fill="#63b8ff" stroke="#63b8ff" points="879.53,-28.2 886.71,-20.41 876.24,-22.02 879.53,-28.2"/>
</a>
</g>
</g>
<!-- Node18 -->
<g id="Node000018" class="node">
<title>Node18</title>
<g id="a_Node000018"><a xlink:title=" ">
<polygon fill="#e0e0e0" stroke="#999999" points="553.72,-19.25 514.47,-19.25 514.47,0 553.72,0 553.72,-19.25"/>
<text text-anchor="middle" x="534.09" y="-5.75" font-family="Helvetica,sans-Serif" font-size="10.00">limits</text>
</a>
</g>
</g>
<!-- Node14&#45;&gt;Node18 -->
<g id="edge27_Node000014_Node000018" class="edge">
<title>Node14&#45;&gt;Node18</title>
<g id="a_edge27_Node000014_Node000018"><a xlink:title=" ">
<path fill="none" stroke="#63b8ff" d="M744.51,-54.77C697.7,-47.28 631.12,-35.64 565.2,-19.81"/>
<polygon fill="#63b8ff" stroke="#63b8ff" points="566.22,-16.46 555.67,-17.49 564.56,-23.26 566.22,-16.46"/>
</a>
</g>
</g>
<!-- Node19 -->
<g id="Node000019" class="node">
<title>Node19</title>
<g id="a_Node000019"><a xlink:title=" ">
<polygon fill="#e0e0e0" stroke="#999999" points="622.72,-19.25 571.47,-19.25 571.47,0 622.72,0 622.72,-19.25"/>
<text text-anchor="middle" x="597.09" y="-5.75" font-family="Helvetica,sans-Serif" font-size="10.00">sstream</text>
</a>
</g>
</g>
<!-- Node14&#45;&gt;Node19 -->
<g id="edge29_Node000014_Node000019" class="edge">
<title>Node14&#45;&gt;Node19</title>
<g id="a_edge29_Node000014_Node000019"><a xlink:title=" ">
<path fill="none" stroke="#63b8ff" d="M769.81,-54.84C731.94,-45.15 672.06,-29.82 633.69,-19.99"/>
<polygon fill="#63b8ff" stroke="#63b8ff" points="635.02,-16.72 624.47,-17.63 633.28,-23.5 635.02,-16.72"/>
</a>
</g>
</g>
<!-- Node14&#45;&gt;Node20 -->
<g id="edge30_Node000014_Node000020" class="edge">
<title>Node14&#45;&gt;Node20</title>
<g id="a_edge30_Node000014_Node000020"><a xlink:title=" ">
<path fill="none" stroke="#63b8ff" d="M849.56,-54.81C887.66,-46.85 944.22,-34.54 1002.05,-19.65"/>
<polygon fill="#63b8ff" stroke="#63b8ff" points="1002.6,-23.12 1011.4,-17.22 1000.84,-16.35 1002.6,-23.12"/>
</a>
</g>
</g>
<!-- Node21 -->
<g id="Node000021" class="node">
<title>Node21</title>
<g id="a_Node000021"><a xlink:title=" ">
<polygon fill="#e0e0e0" stroke="#999999" points="677.59,-19.25 640.59,-19.25 640.59,0 677.59,0 677.59,-19.25"/>
<text text-anchor="middle" x="659.09" y="-5.75" font-family="Helvetica,sans-Serif" font-size="10.00">tuple</text>
</a>
</g>
</g>
<!-- Node14&#45;&gt;Node21 -->
<g id="edge31_Node000014_Node000021" class="edge">
<title>Node14&#45;&gt;Node21</title>
<g id="a_edge31_Node000014_Node000021"><a xlink:title=" ">
<path fill="none" stroke="#63b8ff" d="M780.33,-54.84C754.98,-45.6 715.6,-31.24 688.65,-21.4"/>
<polygon fill="#63b8ff" stroke="#63b8ff" points="689.95,-18.15 679.36,-18.01 687.55,-24.73 689.95,-18.15"/>
</a>
</g>
</g>
<!-- Node22 -->
<g id="Node000022" class="node">
<title>Node22</title>
<g id="a_Node000022"><a xlink:href="SourceID_8hxx.html" target="_top" xlink:title=" ">
<polygon fill="white" stroke="#666666" points="794.72,-19.25 695.47,-19.25 695.47,0 794.72,0 794.72,-19.25"/>
<text text-anchor="middle" x="745.09" y="-5.75" font-family="Helvetica,sans-Serif" font-size="10.00">detail/SourceID.hxx</text>
</a>
</g>
</g>
<!-- Node14&#45;&gt;Node22 -->
<g id="edge32_Node000014_Node000022" class="edge">
<title>Node14&#45;&gt;Node22</title>
<g id="a_edge32_Node000014_Node000022"><a xlink:title=" ">
<path fill="none" stroke="#63b8ff" d="M794.92,-54.84C786.33,-47.22 773.83,-36.12 763.49,-26.95"/>
<polygon fill="#63b8ff" stroke="#63b8ff" points="766.06,-24.55 756.25,-20.53 761.41,-29.79 766.06,-24.55"/>
</a>
</g>
</g>
<!-- Node23&#45;&gt;Node4 -->
<g id="edge34_Node000023_Node000004" class="edge">
<title>Node23&#45;&gt;Node4</title>
<g id="a_edge34_Node000023_Node000004"><a xlink:title=" ">
<path fill="none" stroke="#63b8ff" d="M585.06,-54.78C504.87,-43.4 370.47,-24.31 307.96,-15.43"/>
<polygon fill="#63b8ff" stroke="#63b8ff" points="308.7,-12 298.31,-14.06 307.72,-18.93 308.7,-12"/>
</a>
</g>
</g>
<!-- Node23&#45;&gt;Node18 -->
<g id="edge35_Node000023_Node000018" class="edge">
<title>Node23&#45;&gt;Node18</title>
<g id="a_edge35_Node000023_Node000018"><a xlink:title=" ">
<path fill="none" stroke="#63b8ff" d="M629.59,-54.84C611.58,-46.5 584.57,-34 563.87,-24.41"/>
<polygon fill="#63b8ff" stroke="#63b8ff" points="565.62,-21.36 555.07,-20.34 562.68,-27.72 565.62,-21.36"/>
</a>
</g>
</g>
</g>
</svg>
