<?xml version="1.0" encoding="UTF-8" standalone="no"?>
<!DOCTYPE svg PUBLIC "-//W3C//DTD SVG 1.1//EN"
 "http://www.w3.org/Graphics/SVG/1.1/DTD/svg11.dtd">
<!-- Generated by graphviz version 9.0.0 (20230911.1827)
 -->
<!-- Title: /github/workspace/dev_area/sourcecode/fdreadoutlibs/include/fdreadoutlibs/DAPHNEStreamSuperChunkTypeAdapter.hpp Pages: 1 -->
<svg width="1298pt" height="238pt"
 viewBox="0.00 0.00 1298.12 238.00" xmlns="http://www.w3.org/2000/svg" xmlns:xlink="http://www.w3.org/1999/xlink">
<g id="graph0" class="graph" transform="scale(1 1) rotate(0) translate(4 234)">
<title>/github/workspace/dev_area/sourcecode/fdreadoutlibs/include/fdreadoutlibs/DAPHNEStreamSuperChunkTypeAdapter.hpp</title>
<!-- Node1 -->
<g id="Node000001" class="node">
<title>Node1</title>
<g id="a_Node000001"><a xlink:title=" ">
<polygon fill="#999999" stroke="#666666" points="659.12,-230 475.12,-230 475.12,-177 659.12,-177 659.12,-230"/>
<text text-anchor="start" x="483.12" y="-216.5" font-family="Helvetica,sans-Serif" font-size="10.00">/github/workspace/dev</text>
<text text-anchor="start" x="483.12" y="-205.25" font-family="Helvetica,sans-Serif" font-size="10.00">_area/sourcecode/fdreadoutlibs</text>
<text text-anchor="start" x="483.12" y="-194" font-family="Helvetica,sans-Serif" font-size="10.00">/include/fdreadoutlibs/DAPHNEStream</text>
<text text-anchor="middle" x="567.12" y="-182.75" font-family="Helvetica,sans-Serif" font-size="10.00">SuperChunkTypeAdapter.hpp</text>
</a>
</g>
</g>
<!-- Node2 -->
<g id="Node000002" class="node">
<title>Node2</title>
<g id="a_Node000002"><a xlink:href="FragmentHeader_8hpp.html" target="_top" xlink:title=" ">
<polygon fill="white" stroke="#666666" points="655.75,-135.38 478.5,-135.38 478.5,-116.12 655.75,-116.12 655.75,-135.38"/>
<text text-anchor="middle" x="567.12" y="-121.88" font-family="Helvetica,sans-Serif" font-size="10.00">daqdataformats/FragmentHeader.hpp</text>
</a>
</g>
</g>
<!-- Node1&#45;&gt;Node2 -->
<g id="edge1_Node000001_Node000002" class="edge">
<title>Node1&#45;&gt;Node2</title>
<g id="a_edge1_Node000001_Node000002"><a xlink:title=" ">
<path fill="none" stroke="#63b8ff" d="M567.12,-176.85C567.12,-167.17 567.12,-156.29 567.12,-147.15"/>
<polygon fill="#63b8ff" stroke="#63b8ff" points="570.63,-147.2 567.13,-137.2 563.63,-147.2 570.63,-147.2"/>
</a>
</g>
</g>
<!-- Node3 -->
<g id="Node000003" class="node">
<title>Node3</title>
<g id="a_Node000003"><a xlink:href="SourceID_8hpp.html" target="_top" xlink:title=" ">
<polygon fill="white" stroke="#666666" points="342.62,-74.5 197.62,-74.5 197.62,-55.25 342.62,-55.25 342.62,-74.5"/>
<text text-anchor="middle" x="270.12" y="-61" font-family="Helvetica,sans-Serif" font-size="10.00">daqdataformats/SourceID.hpp</text>
</a>
</g>
</g>
<!-- Node1&#45;&gt;Node3 -->
<g id="edge24_Node000001_Node000003" class="edge">
<title>Node1&#45;&gt;Node3</title>
<g id="a_edge24_Node000001_Node000003"><a xlink:title=" ">
<path fill="none" stroke="#63b8ff" d="M510.91,-176.64C448.22,-147.8 349.16,-102.23 299.94,-79.59"/>
<polygon fill="#63b8ff" stroke="#63b8ff" points="301.58,-76.49 291.04,-75.49 298.66,-82.85 301.58,-76.49"/>
</a>
</g>
</g>
<!-- Node21 -->
<g id="Node000021" class="node">
<title>Node21</title>
<g id="a_Node000021"><a xlink:href="DAPHNEStreamFrame_8hpp.html" target="_top" xlink:title=" ">
<polygon fill="white" stroke="#666666" points="1032.75,-141 867.5,-141 867.5,-110.5 1032.75,-110.5 1032.75,-141"/>
<text text-anchor="start" x="875.5" y="-127.5" font-family="Helvetica,sans-Serif" font-size="10.00">fddetdataformats/DAPHNEStream</text>
<text text-anchor="middle" x="950.12" y="-116.25" font-family="Helvetica,sans-Serif" font-size="10.00">Frame.hpp</text>
</a>
</g>
</g>
<!-- Node1&#45;&gt;Node21 -->
<g id="edge25_Node000001_Node000021" class="edge">
<title>Node1&#45;&gt;Node21</title>
<g id="a_edge25_Node000001_Node000021"><a xlink:title=" ">
<path fill="none" stroke="#63b8ff" d="M659.35,-184.26C721.76,-171.92 803.61,-155.73 864.57,-143.67"/>
<polygon fill="#63b8ff" stroke="#63b8ff" points="865.08,-147.14 874.21,-141.76 863.72,-140.27 865.08,-147.14"/>
</a>
</g>
</g>
<!-- Node2&#45;&gt;Node3 -->
<g id="edge2_Node000002_Node000003" class="edge">
<title>Node2&#45;&gt;Node3</title>
<g id="a_edge2_Node000002_Node000003"><a xlink:title=" ">
<path fill="none" stroke="#63b8ff" d="M521.37,-115.68C469.16,-105.33 383.7,-88.39 327.18,-77.19"/>
<polygon fill="#63b8ff" stroke="#63b8ff" points="327.91,-73.76 317.42,-75.25 326.55,-80.63 327.91,-73.76"/>
</a>
</g>
</g>
<!-- Node5 -->
<g id="Node000005" class="node">
<title>Node5</title>
<g id="a_Node000005"><a xlink:title=" ">
<polygon fill="#e0e0e0" stroke="#999999" points="48.25,-19.25 0,-19.25 0,0 48.25,0 48.25,-19.25"/>
<text text-anchor="middle" x="24.12" y="-5.75" font-family="Helvetica,sans-Serif" font-size="10.00">cstddef</text>
</a>
</g>
</g>
<!-- Node2&#45;&gt;Node5 -->
<g id="edge18_Node000002_Node000005" class="edge">
<title>Node2&#45;&gt;Node5</title>
<g id="a_edge18_Node000002_Node000005"><a xlink:title=" ">
<path fill="none" stroke="#63b8ff" d="M478.29,-119.01C400.75,-112.58 285.68,-99.58 188.12,-74.5 139.2,-61.92 85.08,-38.95 52.87,-24.26"/>
<polygon fill="#63b8ff" stroke="#63b8ff" points="54.74,-21.27 44.2,-20.25 51.81,-27.62 54.74,-21.27"/>
</a>
</g>
</g>
<!-- Node12 -->
<g id="Node000012" class="node">
<title>Node12</title>
<g id="a_Node000012"><a xlink:title=" ">
<polygon fill="#e0e0e0" stroke="#999999" points="539.12,-19.25 499.12,-19.25 499.12,0 539.12,0 539.12,-19.25"/>
<text text-anchor="middle" x="519.12" y="-5.75" font-family="Helvetica,sans-Serif" font-size="10.00">string</text>
</a>
</g>
</g>
<!-- Node2&#45;&gt;Node12 -->
<g id="edge22_Node000002_Node000012" class="edge">
<title>Node2&#45;&gt;Node12</title>
<g id="a_edge22_Node000002_Node000012"><a xlink:title=" ">
<path fill="none" stroke="#63b8ff" d="M561.11,-115.82C554.72,-106.03 544.65,-89.67 538.12,-74.5 531.96,-60.16 527.01,-43.2 523.72,-30.36"/>
<polygon fill="#63b8ff" stroke="#63b8ff" points="527.21,-29.89 521.43,-21 520.4,-31.55 527.21,-29.89"/>
</a>
</g>
</g>
<!-- Node15 -->
<g id="Node000015" class="node">
<title>Node15</title>
<g id="a_Node000015"><a xlink:href="daqdataformats_2include_2daqdataformats_2Types_8hpp.html" target="_top" xlink:title=" ">
<polygon fill="white" stroke="#666666" points="491.5,-74.5 360.75,-74.5 360.75,-55.25 491.5,-55.25 491.5,-74.5"/>
<text text-anchor="middle" x="426.12" y="-61" font-family="Helvetica,sans-Serif" font-size="10.00">daqdataformats/Types.hpp</text>
</a>
</g>
</g>
<!-- Node2&#45;&gt;Node15 -->
<g id="edge14_Node000002_Node000015" class="edge">
<title>Node2&#45;&gt;Node15</title>
<g id="a_edge14_Node000002_Node000015"><a xlink:title=" ">
<path fill="none" stroke="#63b8ff" d="M545.4,-115.68C522.05,-105.93 484.68,-90.33 458,-79.18"/>
<polygon fill="#63b8ff" stroke="#63b8ff" points="459.61,-76.07 449.04,-75.44 456.92,-82.53 459.61,-76.07"/>
</a>
</g>
</g>
<!-- Node16 -->
<g id="Node000016" class="node">
<title>Node16</title>
<g id="a_Node000016"><a xlink:title=" ">
<polygon fill="#e0e0e0" stroke="#999999" points="587.12,-74.5 547.12,-74.5 547.12,-55.25 587.12,-55.25 587.12,-74.5"/>
<text text-anchor="middle" x="567.12" y="-61" font-family="Helvetica,sans-Serif" font-size="10.00">bitset</text>
</a>
</g>
</g>
<!-- Node2&#45;&gt;Node16 -->
<g id="edge17_Node000002_Node000016" class="edge">
<title>Node2&#45;&gt;Node16</title>
<g id="a_edge17_Node000002_Node000016"><a xlink:title=" ">
<path fill="none" stroke="#63b8ff" d="M567.12,-115.81C567.12,-108.03 567.12,-96.45 567.12,-86.41"/>
<polygon fill="#63b8ff" stroke="#63b8ff" points="570.63,-86.41 567.13,-76.41 563.63,-86.41 570.63,-86.41"/>
</a>
</g>
</g>
<!-- Node17 -->
<g id="Node000017" class="node">
<title>Node17</title>
<g id="a_Node000017"><a xlink:title=" ">
<polygon fill="#e0e0e0" stroke="#999999" points="832.38,-74.5 787.88,-74.5 787.88,-55.25 832.38,-55.25 832.38,-74.5"/>
<text text-anchor="middle" x="810.12" y="-61" font-family="Helvetica,sans-Serif" font-size="10.00">cstdlib</text>
</a>
</g>
</g>
<!-- Node2&#45;&gt;Node17 -->
<g id="edge19_Node000002_Node000017" class="edge">
<title>Node2&#45;&gt;Node17</title>
<g id="a_edge19_Node000002_Node000017"><a xlink:title=" ">
<path fill="none" stroke="#63b8ff" d="M607.49,-115.67C647.89,-106.48 712.09,-91.57 776.32,-75.15"/>
<polygon fill="#63b8ff" stroke="#63b8ff" points="777.19,-78.54 786,-72.67 775.44,-71.76 777.19,-78.54"/>
</a>
</g>
</g>
<!-- Node18 -->
<g id="Node000018" class="node">
<title>Node18</title>
<g id="a_Node000018"><a xlink:title=" ">
<polygon fill="#e0e0e0" stroke="#999999" points="639.5,-74.5 604.75,-74.5 604.75,-55.25 639.5,-55.25 639.5,-74.5"/>
<text text-anchor="middle" x="622.12" y="-61" font-family="Helvetica,sans-Serif" font-size="10.00">map</text>
</a>
</g>
</g>
<!-- Node2&#45;&gt;Node18 -->
<g id="edge20_Node000002_Node000018" class="edge">
<title>Node2&#45;&gt;Node18</title>
<g id="a_edge20_Node000002_Node000018"><a xlink:title=" ">
<path fill="none" stroke="#63b8ff" d="M575.48,-115.81C583.55,-107.16 596,-93.84 606.01,-83.12"/>
<polygon fill="#63b8ff" stroke="#63b8ff" points="608.39,-85.7 612.66,-76.01 603.28,-80.93 608.39,-85.7"/>
</a>
</g>
</g>
<!-- Node19 -->
<g id="Node000019" class="node">
<title>Node19</title>
<g id="a_Node000019"><a xlink:title=" ">
<polygon fill="#e0e0e0" stroke="#999999" points="708.38,-74.5 657.88,-74.5 657.88,-55.25 708.38,-55.25 708.38,-74.5"/>
<text text-anchor="middle" x="683.12" y="-61" font-family="Helvetica,sans-Serif" font-size="10.00">numeric</text>
</a>
</g>
</g>
<!-- Node2&#45;&gt;Node19 -->
<g id="edge21_Node000002_Node000019" class="edge">
<title>Node2&#45;&gt;Node19</title>
<g id="a_edge21_Node000002_Node000019"><a xlink:title=" ">
<path fill="none" stroke="#63b8ff" d="M585,-115.68C603.78,-106.14 633.59,-91.02 655.43,-79.93"/>
<polygon fill="#63b8ff" stroke="#63b8ff" points="656.74,-83.19 664.07,-75.54 653.57,-76.95 656.74,-83.19"/>
</a>
</g>
</g>
<!-- Node20 -->
<g id="Node000020" class="node">
<title>Node20</title>
<g id="a_Node000020"><a xlink:title=" ">
<polygon fill="#e0e0e0" stroke="#999999" points="769.62,-74.5 726.62,-74.5 726.62,-55.25 769.62,-55.25 769.62,-74.5"/>
<text text-anchor="middle" x="748.12" y="-61" font-family="Helvetica,sans-Serif" font-size="10.00">vector</text>
</a>
</g>
</g>
<!-- Node2&#45;&gt;Node20 -->
<g id="edge23_Node000002_Node000020" class="edge">
<title>Node2&#45;&gt;Node20</title>
<g id="a_edge23_Node000002_Node000020"><a xlink:title=" ">
<path fill="none" stroke="#63b8ff" d="M595.01,-115.68C627.44,-105.13 680.91,-87.74 715.31,-76.55"/>
<polygon fill="#63b8ff" stroke="#63b8ff" points="716.32,-79.9 724.75,-73.48 714.16,-73.24 716.32,-79.9"/>
</a>
</g>
</g>
<!-- Node4 -->
<g id="Node000004" class="node">
<title>Node4</title>
<g id="a_Node000004"><a xlink:title=" ">
<polygon fill="#e0e0e0" stroke="#999999" points="731.25,-19.25 683,-19.25 683,0 731.25,0 731.25,-19.25"/>
<text text-anchor="middle" x="707.12" y="-5.75" font-family="Helvetica,sans-Serif" font-size="10.00">cassert</text>
</a>
</g>
</g>
<!-- Node3&#45;&gt;Node4 -->
<g id="edge3_Node000003_Node000004" class="edge">
<title>Node3&#45;&gt;Node4</title>
<g id="a_edge3_Node000003_Node000004"><a xlink:title=" ">
<path fill="none" stroke="#63b8ff" d="M342.78,-55.02C437.73,-43.45 600.3,-23.64 671.72,-14.94"/>
<polygon fill="#63b8ff" stroke="#63b8ff" points="671.76,-18.46 681.27,-13.78 670.92,-11.51 671.76,-18.46"/>
</a>
</g>
</g>
<!-- Node3&#45;&gt;Node5 -->
<g id="edge4_Node000003_Node000005" class="edge">
<title>Node3&#45;&gt;Node5</title>
<g id="a_edge4_Node000003_Node000005"><a xlink:title=" ">
<path fill="none" stroke="#63b8ff" d="M223.44,-54.78C182.64,-46.68 121.54,-34.18 59.74,-19.78"/>
<polygon fill="#63b8ff" stroke="#63b8ff" points="60.61,-16.39 50.07,-17.51 59.01,-23.2 60.61,-16.39"/>
</a>
</g>
</g>
<!-- Node6 -->
<g id="Node000006" class="node">
<title>Node6</title>
<g id="a_Node000006"><a xlink:title=" ">
<polygon fill="#e0e0e0" stroke="#999999" points="857.75,-19.25 812.5,-19.25 812.5,0 857.75,0 857.75,-19.25"/>
<text text-anchor="middle" x="835.12" y="-5.75" font-family="Helvetica,sans-Serif" font-size="10.00">cstdint</text>
</a>
</g>
</g>
<!-- Node3&#45;&gt;Node6 -->
<g id="edge5_Node000003_Node000006" class="edge">
<title>Node3&#45;&gt;Node6</title>
<g id="a_edge5_Node000003_Node000006"><a xlink:title=" ">
<path fill="none" stroke="#63b8ff" d="M343,-56.16C346.08,-55.85 349.13,-55.55 352.12,-55.25 439.62,-46.61 705.75,-22.37 800.87,-13.73"/>
<polygon fill="#63b8ff" stroke="#63b8ff" points="800.96,-17.24 810.6,-12.85 800.33,-10.27 800.96,-17.24"/>
</a>
</g>
</g>
<!-- Node7 -->
<g id="Node000007" class="node">
<title>Node7</title>
<g id="a_Node000007"><a xlink:title=" ">
<polygon fill="#e0e0e0" stroke="#999999" points="116,-19.25 66.25,-19.25 66.25,0 116,0 116,-19.25"/>
<text text-anchor="middle" x="91.12" y="-5.75" font-family="Helvetica,sans-Serif" font-size="10.00">iomanip</text>
</a>
</g>
</g>
<!-- Node3&#45;&gt;Node7 -->
<g id="edge6_Node000003_Node000007" class="edge">
<title>Node3&#45;&gt;Node7</title>
<g id="a_edge6_Node000003_Node000007"><a xlink:title=" ">
<path fill="none" stroke="#63b8ff" d="M239.76,-54.84C208.71,-45.6 160.47,-31.25 127.42,-21.42"/>
<polygon fill="#63b8ff" stroke="#63b8ff" points="128.45,-18.08 117.87,-18.58 126.46,-24.79 128.45,-18.08"/>
</a>
</g>
</g>
<!-- Node8 -->
<g id="Node000008" class="node">
<title>Node8</title>
<g id="a_Node000008"><a xlink:title=" ">
<polygon fill="#e0e0e0" stroke="#999999" points="182.25,-19.25 134,-19.25 134,0 182.25,0 182.25,-19.25"/>
<text text-anchor="middle" x="158.12" y="-5.75" font-family="Helvetica,sans-Serif" font-size="10.00">istream</text>
</a>
</g>
</g>
<!-- Node3&#45;&gt;Node8 -->
<g id="edge7_Node000003_Node000008" class="edge">
<title>Node3&#45;&gt;Node8</title>
<g id="a_edge7_Node000003_Node000008"><a xlink:title=" ">
<path fill="none" stroke="#63b8ff" d="M251.13,-54.84C233.67,-46.54 207.53,-34.11 187.4,-24.54"/>
<polygon fill="#63b8ff" stroke="#63b8ff" points="189.12,-21.49 178.58,-20.35 186.11,-27.81 189.12,-21.49"/>
</a>
</g>
</g>
<!-- Node9 -->
<g id="Node000009" class="node">
<title>Node9</title>
<g id="a_Node000009"><a xlink:title=" ">
<polygon fill="#e0e0e0" stroke="#999999" points="480.75,-19.25 441.5,-19.25 441.5,0 480.75,0 480.75,-19.25"/>
<text text-anchor="middle" x="461.12" y="-5.75" font-family="Helvetica,sans-Serif" font-size="10.00">limits</text>
</a>
</g>
</g>
<!-- Node3&#45;&gt;Node9 -->
<g id="edge8_Node000003_Node000009" class="edge">
<title>Node3&#45;&gt;Node9</title>
<g id="a_edge8_Node000003_Node000009"><a xlink:title=" ">
<path fill="none" stroke="#63b8ff" d="M304.56,-54.79C335.28,-46.6 381.77,-34.04 430.24,-20.03"/>
<polygon fill="#63b8ff" stroke="#63b8ff" points="431.18,-23.4 439.81,-17.25 429.23,-16.68 431.18,-23.4"/>
</a>
</g>
</g>
<!-- Node10 -->
<g id="Node000010" class="node">
<title>Node10</title>
<g id="a_Node000010"><a xlink:title=" ">
<polygon fill="#e0e0e0" stroke="#999999" points="977.75,-19.25 926.5,-19.25 926.5,0 977.75,0 977.75,-19.25"/>
<text text-anchor="middle" x="952.12" y="-5.75" font-family="Helvetica,sans-Serif" font-size="10.00">ostream</text>
</a>
</g>
</g>
<!-- Node3&#45;&gt;Node10 -->
<g id="edge9_Node000003_Node000010" class="edge">
<title>Node3&#45;&gt;Node10</title>
<g id="a_edge9_Node000003_Node000010"><a xlink:title=" ">
<path fill="none" stroke="#63b8ff" d="M342.99,-56.08C346.08,-55.79 349.13,-55.51 352.12,-55.25 580.7,-35.25 638.51,-38.83 867.12,-19.25 882.75,-17.91 899.97,-16.21 914.8,-14.67"/>
<polygon fill="#63b8ff" stroke="#63b8ff" points="915.02,-18.16 924.6,-13.64 914.29,-11.2 915.02,-18.16"/>
</a>
</g>
</g>
<!-- Node11 -->
<g id="Node000011" class="node">
<title>Node11</title>
<g id="a_Node000011"><a xlink:title=" ">
<polygon fill="#e0e0e0" stroke="#999999" points="251.75,-19.25 200.5,-19.25 200.5,0 251.75,0 251.75,-19.25"/>
<text text-anchor="middle" x="226.12" y="-5.75" font-family="Helvetica,sans-Serif" font-size="10.00">sstream</text>
</a>
</g>
</g>
<!-- Node3&#45;&gt;Node11 -->
<g id="edge10_Node000003_Node000011" class="edge">
<title>Node3&#45;&gt;Node11</title>
<g id="a_edge10_Node000003_Node000011"><a xlink:title=" ">
<path fill="none" stroke="#63b8ff" d="M262.86,-55.08C256.84,-47.8 248.11,-37.23 240.67,-28.23"/>
<polygon fill="#63b8ff" stroke="#63b8ff" points="243.58,-26.26 234.51,-20.78 238.18,-30.71 243.58,-26.26"/>
</a>
</g>
</g>
<!-- Node3&#45;&gt;Node12 -->
<g id="edge11_Node000003_Node000012" class="edge">
<title>Node3&#45;&gt;Node12</title>
<g id="a_edge11_Node000003_Node000012"><a xlink:title=" ">
<path fill="none" stroke="#63b8ff" d="M321.54,-54.79C363.86,-47 425.63,-34.96 488.07,-19.59"/>
<polygon fill="#63b8ff" stroke="#63b8ff" points="488.58,-23.07 497.44,-17.25 486.89,-16.28 488.58,-23.07"/>
</a>
</g>
</g>
<!-- Node13 -->
<g id="Node000013" class="node">
<title>Node13</title>
<g id="a_Node000013"><a xlink:title=" ">
<polygon fill="#e0e0e0" stroke="#999999" points="306.62,-19.25 269.62,-19.25 269.62,0 306.62,0 306.62,-19.25"/>
<text text-anchor="middle" x="288.12" y="-5.75" font-family="Helvetica,sans-Serif" font-size="10.00">tuple</text>
</a>
</g>
</g>
<!-- Node3&#45;&gt;Node13 -->
<g id="edge12_Node000003_Node000013" class="edge">
<title>Node3&#45;&gt;Node13</title>
<g id="a_edge12_Node000003_Node000013"><a xlink:title=" ">
<path fill="none" stroke="#63b8ff" d="M273.1,-55.08C275.38,-48.34 278.61,-38.77 281.49,-30.24"/>
<polygon fill="#63b8ff" stroke="#63b8ff" points="284.72,-31.64 284.6,-21.04 278.09,-29.4 284.72,-31.64"/>
</a>
</g>
</g>
<!-- Node14 -->
<g id="Node000014" class="node">
<title>Node14</title>
<g id="a_Node000014"><a xlink:href="SourceID_8hxx.html" target="_top" xlink:title=" ">
<polygon fill="white" stroke="#666666" points="423.75,-19.25 324.5,-19.25 324.5,0 423.75,0 423.75,-19.25"/>
<text text-anchor="middle" x="374.12" y="-5.75" font-family="Helvetica,sans-Serif" font-size="10.00">detail/SourceID.hxx</text>
</a>
</g>
</g>
<!-- Node3&#45;&gt;Node14 -->
<g id="edge13_Node000003_Node000014" class="edge">
<title>Node3&#45;&gt;Node14</title>
<g id="a_edge13_Node000003_Node000014"><a xlink:title=" ">
<path fill="none" stroke="#63b8ff" d="M287.77,-54.84C303.75,-46.66 327.58,-34.46 346.16,-24.94"/>
<polygon fill="#63b8ff" stroke="#63b8ff" points="347.74,-28.07 355.05,-20.39 344.55,-21.83 347.74,-28.07"/>
</a>
</g>
</g>
<!-- Node15&#45;&gt;Node6 -->
<g id="edge15_Node000015_Node000006" class="edge">
<title>Node15&#45;&gt;Node6</title>
<g id="a_edge15_Node000015_Node000006"><a xlink:title=" ">
<path fill="none" stroke="#63b8ff" d="M491.84,-55.32C579.82,-43.87 732.68,-23.96 800.74,-15.1"/>
<polygon fill="#63b8ff" stroke="#63b8ff" points="801.08,-18.59 810.54,-13.83 800.18,-11.65 801.08,-18.59"/>
</a>
</g>
</g>
<!-- Node15&#45;&gt;Node9 -->
<g id="edge16_Node000015_Node000009" class="edge">
<title>Node15&#45;&gt;Node9</title>
<g id="a_edge16_Node000015_Node000009"><a xlink:title=" ">
<path fill="none" stroke="#63b8ff" d="M431.9,-55.08C436.54,-48.03 443.2,-37.9 448.99,-29.08"/>
<polygon fill="#63b8ff" stroke="#63b8ff" points="451.82,-31.15 454.39,-20.87 445.97,-27.31 451.82,-31.15"/>
</a>
</g>
</g>
<!-- Node21&#45;&gt;Node4 -->
<g id="edge30_Node000021_Node000004" class="edge">
<title>Node21&#45;&gt;Node4</title>
<g id="a_edge30_Node000021_Node000004"><a xlink:title=" ">
<path fill="none" stroke="#63b8ff" d="M930.5,-110.13C909.31,-94.86 874.15,-70.98 841.12,-55.25 808.97,-39.93 770.17,-27.63 742.61,-19.85"/>
<polygon fill="#63b8ff" stroke="#63b8ff" points="743.57,-16.49 733,-17.21 741.71,-23.24 743.57,-16.49"/>
</a>
</g>
</g>
<!-- Node21&#45;&gt;Node6 -->
<g id="edge34_Node000021_Node000006" class="edge">
<title>Node21&#45;&gt;Node6</title>
<g id="a_edge34_Node000021_Node000006"><a xlink:title=" ">
<path fill="none" stroke="#63b8ff" d="M935.56,-110.3C914.32,-89.22 874.94,-50.13 852.31,-27.68"/>
<polygon fill="#63b8ff" stroke="#63b8ff" points="854.91,-25.32 845.34,-20.76 849.97,-30.29 854.91,-25.32"/>
</a>
</g>
</g>
<!-- Node21&#45;&gt;Node17 -->
<g id="edge32_Node000021_Node000017" class="edge">
<title>Node21&#45;&gt;Node17</title>
<g id="a_edge32_Node000021_Node000017"><a xlink:title=" ">
<path fill="none" stroke="#63b8ff" d="M915.16,-110.05C892.71,-100.6 863.79,-88.44 841.98,-79.27"/>
<polygon fill="#63b8ff" stroke="#63b8ff" points="843.57,-76.14 832.99,-75.49 840.85,-82.59 843.57,-76.14"/>
</a>
</g>
</g>
<!-- Node22 -->
<g id="Node000022" class="node">
<title>Node22</title>
<g id="a_Node000022"><a xlink:href="DAQHeader_8hpp.html" target="_top" xlink:title=" ">
<polygon fill="white" stroke="#666666" points="1080.5,-74.5 925.75,-74.5 925.75,-55.25 1080.5,-55.25 1080.5,-74.5"/>
<text text-anchor="middle" x="1003.12" y="-61" font-family="Helvetica,sans-Serif" font-size="10.00">detdataformats/DAQHeader.hpp</text>
</a>
</g>
</g>
<!-- Node21&#45;&gt;Node22 -->
<g id="edge26_Node000021_Node000022" class="edge">
<title>Node21&#45;&gt;Node22</title>
<g id="a_edge26_Node000021_Node000022"><a xlink:title=" ">
<path fill="none" stroke="#63b8ff" d="M963.23,-110.2C970.52,-102.09 979.65,-91.95 987.34,-83.41"/>
<polygon fill="#63b8ff" stroke="#63b8ff" points="989.85,-85.85 993.94,-76.08 984.65,-81.17 989.85,-85.85"/>
</a>
</g>
</g>
<!-- Node23 -->
<g id="Node000023" class="node">
<title>Node23</title>
<g id="a_Node000023"><a xlink:title=" ">
<polygon fill="#e0e0e0" stroke="#999999" points="1154,-74.5 1098.25,-74.5 1098.25,-55.25 1154,-55.25 1154,-74.5"/>
<text text-anchor="middle" x="1126.12" y="-61" font-family="Helvetica,sans-Serif" font-size="10.00">algorithm</text>
</a>
</g>
</g>
<!-- Node21&#45;&gt;Node23 -->
<g id="edge29_Node000021_Node000023" class="edge">
<title>Node21&#45;&gt;Node23</title>
<g id="a_edge29_Node000021_Node000023"><a xlink:title=" ">
<path fill="none" stroke="#63b8ff" d="M994.08,-110.05C1022.99,-100.38 1060.43,-87.85 1088.06,-78.61"/>
<polygon fill="#63b8ff" stroke="#63b8ff" points="1089.07,-81.96 1097.44,-75.47 1086.85,-75.32 1089.07,-81.96"/>
</a>
</g>
</g>
<!-- Node24 -->
<g id="Node000024" class="node">
<title>Node24</title>
<g id="a_Node000024"><a xlink:title=" ">
<polygon fill="#e0e0e0" stroke="#999999" points="1214.25,-74.5 1172,-74.5 1172,-55.25 1214.25,-55.25 1214.25,-74.5"/>
<text text-anchor="middle" x="1193.12" y="-61" font-family="Helvetica,sans-Serif" font-size="10.00">cstdio</text>
</a>
</g>
</g>
<!-- Node21&#45;&gt;Node24 -->
<g id="edge31_Node000021_Node000024" class="edge">
<title>Node21&#45;&gt;Node24</title>
<g id="a_edge31_Node000021_Node000024"><a xlink:title=" ">
<path fill="none" stroke="#63b8ff" d="M1016.06,-110.06C1055.52,-101.07 1106.91,-89.01 1160.44,-75.12"/>
<polygon fill="#63b8ff" stroke="#63b8ff" points="1161.27,-78.52 1170.06,-72.6 1159.5,-71.74 1161.27,-78.52"/>
</a>
</g>
</g>
<!-- Node25 -->
<g id="Node000025" class="node">
<title>Node25</title>
<g id="a_Node000025"><a xlink:title=" ">
<polygon fill="#e0e0e0" stroke="#999999" points="1290.12,-74.5 1232.12,-74.5 1232.12,-55.25 1290.12,-55.25 1290.12,-74.5"/>
<text text-anchor="middle" x="1261.12" y="-61" font-family="Helvetica,sans-Serif" font-size="10.00">stdexcept</text>
</a>
</g>
</g>
<!-- Node21&#45;&gt;Node25 -->
<g id="edge33_Node000021_Node000025" class="edge">
<title>Node21&#45;&gt;Node25</title>
<g id="a_edge33_Node000021_Node000025"><a xlink:title=" ">
<path fill="none" stroke="#63b8ff" d="M1033.03,-110.4C1084.48,-101.29 1152.22,-88.9 1220.7,-74.94"/>
<polygon fill="#63b8ff" stroke="#63b8ff" points="1221.12,-78.42 1230.21,-72.99 1219.71,-71.57 1221.12,-78.42"/>
</a>
</g>
</g>
<!-- Node22&#45;&gt;Node6 -->
<g id="edge27_Node000022_Node000006" class="edge">
<title>Node22&#45;&gt;Node6</title>
<g id="a_edge27_Node000022_Node000006"><a xlink:title=" ">
<path fill="none" stroke="#63b8ff" d="M974.63,-54.84C945.36,-45.57 899.83,-31.13 868.8,-21.3"/>
<polygon fill="#63b8ff" stroke="#63b8ff" points="870.12,-18.04 859.53,-18.36 868,-24.72 870.12,-18.04"/>
</a>
</g>
</g>
<!-- Node22&#45;&gt;Node10 -->
<g id="edge28_Node000022_Node000010" class="edge">
<title>Node22&#45;&gt;Node10</title>
<g id="a_edge28_Node000022_Node000010"><a xlink:title=" ">
<path fill="none" stroke="#63b8ff" d="M994.7,-55.08C987.59,-47.65 977.18,-36.79 968.44,-27.66"/>
<polygon fill="#63b8ff" stroke="#63b8ff" points="971.22,-25.5 961.78,-20.7 966.17,-30.35 971.22,-25.5"/>
</a>
</g>
</g>
</g>
</svg>
