<?xml version="1.0" encoding="UTF-8" standalone="no"?>
<!DOCTYPE svg PUBLIC "-//W3C//DTD SVG 1.1//EN"
 "http://www.w3.org/Graphics/SVG/1.1/DTD/svg11.dtd">
<!-- Generated by graphviz version 9.0.0 (20230911.1827)
 -->
<!-- Title: /github/workspace/dev_area/sourcecode/detdataformats/include/detdataformats/DAQHeader.hpp Pages: 1 -->
<svg width="1286pt" height="395pt"
 viewBox="0.00 0.00 1285.75 394.50" xmlns="http://www.w3.org/2000/svg" xmlns:xlink="http://www.w3.org/1999/xlink">
<g id="graph0" class="graph" transform="scale(1 1) rotate(0) translate(4 390.5)">
<title>/github/workspace/dev_area/sourcecode/detdataformats/include/detdataformats/DAQHeader.hpp</title>
<!-- Node1 -->
<g id="Node000001" class="node">
<title>Node1</title>
<g id="a_Node000001"><a xlink:title=" ">
<polygon fill="#999999" stroke="#666666" points="538.12,-386.5 346.62,-386.5 346.62,-344.75 538.12,-344.75 538.12,-386.5"/>
<text text-anchor="start" x="354.62" y="-373" font-family="Helvetica,sans-Serif" font-size="10.00">/github/workspace/dev</text>
<text text-anchor="start" x="354.62" y="-361.75" font-family="Helvetica,sans-Serif" font-size="10.00">_area/sourcecode/detdataformats</text>
<text text-anchor="middle" x="442.38" y="-350.5" font-family="Helvetica,sans-Serif" font-size="10.00">/include/detdataformats/DAQHeader.hpp</text>
</a>
</g>
</g>
<!-- Node2 -->
<g id="Node000002" class="node">
<title>Node2</title>
<g id="a_Node000002"><a xlink:href="daqheader_8cpp.html" target="_top" xlink:title=" ">
<polygon fill="white" stroke="#666666" points="316.12,-303.12 154.62,-303.12 154.62,-261.38 316.12,-261.38 316.12,-303.12"/>
<text text-anchor="start" x="162.62" y="-289.62" font-family="Helvetica,sans-Serif" font-size="10.00">/github/workspace/dev</text>
<text text-anchor="start" x="162.62" y="-278.38" font-family="Helvetica,sans-Serif" font-size="10.00">_area/sourcecode/detdataformats</text>
<text text-anchor="middle" x="235.38" y="-267.12" font-family="Helvetica,sans-Serif" font-size="10.00">/pybindsrc/daqheader.cpp</text>
</a>
</g>
</g>
<!-- Node1&#45;&gt;Node2 -->
<g id="edge1_Node000001_Node000002" class="edge">
<title>Node1&#45;&gt;Node2</title>
<g id="a_edge1_Node000001_Node000002"><a xlink:title=" ">
<path fill="none" stroke="#63b8ff" d="M380.01,-340.11C350.35,-328.45 315.3,-314.67 287.13,-303.6"/>
<polygon fill="#63b8ff" stroke="#63b8ff" points="378.68,-343.35 389.27,-343.75 381.24,-336.83 378.68,-343.35"/>
</a>
</g>
</g>
<!-- Node3 -->
<g id="Node000003" class="node">
<title>Node3</title>
<g id="a_Node000003"><a xlink:href="DAPHNEFrame_8hpp.html" target="_top" xlink:title=" ">
<polygon fill="white" stroke="#666666" points="550.5,-303.12 334.25,-303.12 334.25,-261.38 550.5,-261.38 550.5,-303.12"/>
<text text-anchor="start" x="342.25" y="-289.62" font-family="Helvetica,sans-Serif" font-size="10.00">/github/workspace/dev</text>
<text text-anchor="start" x="342.25" y="-278.38" font-family="Helvetica,sans-Serif" font-size="10.00">_area/sourcecode/fddetdataformats</text>
<text text-anchor="middle" x="442.38" y="-267.12" font-family="Helvetica,sans-Serif" font-size="10.00">/include/fddetdataformats/DAPHNEFrame.hpp</text>
</a>
</g>
</g>
<!-- Node1&#45;&gt;Node3 -->
<g id="edge2_Node000001_Node000003" class="edge">
<title>Node1&#45;&gt;Node3</title>
<g id="a_edge2_Node000001_Node000003"><a xlink:title=" ">
<path fill="none" stroke="#63b8ff" d="M442.38,-333.27C442.38,-323.24 442.38,-312.42 442.38,-303.42"/>
<polygon fill="#63b8ff" stroke="#63b8ff" points="438.88,-333 442.38,-343 445.88,-333 438.88,-333"/>
</a>
</g>
</g>
<!-- Node14 -->
<g id="Node000014" class="node">
<title>Node14</title>
<g id="a_Node000014"><a xlink:href="DAPHNEStreamFrame_8hpp.html" target="_top" xlink:title=" ">
<polygon fill="white" stroke="#666666" points="1066.38,-308.75 864.38,-308.75 864.38,-255.75 1066.38,-255.75 1066.38,-308.75"/>
<text text-anchor="start" x="872.38" y="-295.25" font-family="Helvetica,sans-Serif" font-size="10.00">/github/workspace/dev</text>
<text text-anchor="start" x="872.38" y="-284" font-family="Helvetica,sans-Serif" font-size="10.00">_area/sourcecode/fddetdataformats</text>
<text text-anchor="start" x="872.38" y="-272.75" font-family="Helvetica,sans-Serif" font-size="10.00">/include/fddetdataformats/DAPHNEStream</text>
<text text-anchor="middle" x="965.38" y="-261.5" font-family="Helvetica,sans-Serif" font-size="10.00">Frame.hpp</text>
</a>
</g>
</g>
<!-- Node1&#45;&gt;Node14 -->
<g id="edge18_Node000001_Node000014" class="edge">
<title>Node1&#45;&gt;Node14</title>
<g id="a_edge18_Node000001_Node000014"><a xlink:title=" ">
<path fill="none" stroke="#63b8ff" d="M549.92,-347.89C642,-333.56 773.65,-313.08 863.93,-299.03"/>
<polygon fill="#63b8ff" stroke="#63b8ff" points="549.44,-344.42 540.1,-349.42 550.52,-351.34 549.44,-344.42"/>
</a>
</g>
</g>
<!-- Node4 -->
<g id="Node000004" class="node">
<title>Node4</title>
<g id="a_Node000004"><a xlink:href="daphne_8cpp.html" target="_top" xlink:title=" ">
<polygon fill="white" stroke="#666666" points="953.25,-214.12 783.5,-214.12 783.5,-172.38 953.25,-172.38 953.25,-214.12"/>
<text text-anchor="start" x="791.5" y="-200.62" font-family="Helvetica,sans-Serif" font-size="10.00">/github/workspace/dev</text>
<text text-anchor="start" x="791.5" y="-189.38" font-family="Helvetica,sans-Serif" font-size="10.00">_area/sourcecode/fddetdataformats</text>
<text text-anchor="middle" x="868.38" y="-178.12" font-family="Helvetica,sans-Serif" font-size="10.00">/pybindsrc/daphne.cpp</text>
</a>
</g>
</g>
<!-- Node3&#45;&gt;Node4 -->
<g id="edge3_Node000003_Node000004" class="edge">
<title>Node3&#45;&gt;Node4</title>
<g id="a_edge3_Node000003_Node000004"><a xlink:title=" ">
<path fill="none" stroke="#63b8ff" d="M562.1,-261.51C625.46,-250.45 704.42,-235.69 774.38,-219.75 781.3,-218.17 788.48,-216.43 795.65,-214.61"/>
<polygon fill="#63b8ff" stroke="#63b8ff" points="561.61,-258.04 552.35,-263.2 562.81,-264.94 561.61,-258.04"/>
</a>
</g>
</g>
<!-- Node5 -->
<g id="Node000005" class="node">
<title>Node5</title>
<g id="a_Node000005"><a xlink:href="DAPHNESuperChunkTypeAdapter_8hpp.html" target="_top" xlink:title=" ">
<polygon fill="white" stroke="#666666" points="545.25,-219.75 339.5,-219.75 339.5,-166.75 545.25,-166.75 545.25,-219.75"/>
<text text-anchor="start" x="347.5" y="-206.25" font-family="Helvetica,sans-Serif" font-size="10.00">/github/workspace/dev</text>
<text text-anchor="start" x="347.5" y="-195" font-family="Helvetica,sans-Serif" font-size="10.00">_area/sourcecode/fdreadoutlibs</text>
<text text-anchor="start" x="347.5" y="-183.75" font-family="Helvetica,sans-Serif" font-size="10.00">/include/fdreadoutlibs/DAPHNESuperChunk</text>
<text text-anchor="middle" x="442.38" y="-172.5" font-family="Helvetica,sans-Serif" font-size="10.00">TypeAdapter.hpp</text>
</a>
</g>
</g>
<!-- Node3&#45;&gt;Node5 -->
<g id="edge4_Node000003_Node000005" class="edge">
<title>Node3&#45;&gt;Node5</title>
<g id="a_edge4_Node000003_Node000005"><a xlink:title=" ">
<path fill="none" stroke="#63b8ff" d="M442.38,-249.72C442.38,-239.94 442.38,-229.28 442.38,-219.94"/>
<polygon fill="#63b8ff" stroke="#63b8ff" points="438.88,-249.56 442.38,-259.56 445.88,-249.56 438.88,-249.56"/>
</a>
</g>
</g>
<!-- Node6 -->
<g id="Node000006" class="node">
<title>Node6</title>
<g id="a_Node000006"><a xlink:href="DAPHNEFrameProcessor_8hpp.html" target="_top" xlink:title=" ">
<polygon fill="white" stroke="#666666" points="356.25,-130.75 204.5,-130.75 204.5,-77.75 356.25,-77.75 356.25,-130.75"/>
<text text-anchor="start" x="212.5" y="-117.25" font-family="Helvetica,sans-Serif" font-size="10.00">/github/workspace/dev</text>
<text text-anchor="start" x="212.5" y="-106" font-family="Helvetica,sans-Serif" font-size="10.00">_area/sourcecode/fdreadoutlibs</text>
<text text-anchor="start" x="212.5" y="-94.75" font-family="Helvetica,sans-Serif" font-size="10.00">/include/fdreadoutlibs/daphne</text>
<text text-anchor="middle" x="280.38" y="-83.5" font-family="Helvetica,sans-Serif" font-size="10.00">/DAPHNEFrameProcessor.hpp</text>
</a>
</g>
</g>
<!-- Node3&#45;&gt;Node6 -->
<g id="edge12_Node000003_Node000006" class="edge">
<title>Node3&#45;&gt;Node6</title>
<g id="a_edge12_Node000003_Node000006"><a xlink:title=" ">
<path fill="none" stroke="#63b8ff" d="M366.91,-256.07C348.68,-247.02 330.66,-235.11 317.38,-219.75 295.51,-194.47 286.52,-156.06 282.86,-130.81"/>
<polygon fill="#63b8ff" stroke="#63b8ff" points="365.41,-259.24 375.95,-260.31 368.38,-252.9 365.41,-259.24"/>
</a>
</g>
</g>
<!-- Node8 -->
<g id="Node000008" class="node">
<title>Node8</title>
<g id="a_Node000008"><a xlink:href="DAPHNEFrameProcessor_8cpp.html" target="_top" xlink:title=" ">
<polygon fill="white" stroke="#666666" points="277,-41.75 75.75,-41.75 75.75,0 277,0 277,-41.75"/>
<text text-anchor="start" x="83.75" y="-28.25" font-family="Helvetica,sans-Serif" font-size="10.00">/github/workspace/dev</text>
<text text-anchor="start" x="83.75" y="-17" font-family="Helvetica,sans-Serif" font-size="10.00">_area/sourcecode/fdreadoutlibs</text>
<text text-anchor="middle" x="176.38" y="-5.75" font-family="Helvetica,sans-Serif" font-size="10.00">/src/daphne/DAPHNEFrameProcessor.cpp</text>
</a>
</g>
</g>
<!-- Node3&#45;&gt;Node8 -->
<g id="edge14_Node000003_Node000008" class="edge">
<title>Node3&#45;&gt;Node8</title>
<g id="a_edge14_Node000003_Node000008"><a xlink:title=" ">
<path fill="none" stroke="#63b8ff" d="M361.97,-256.96C303.68,-234.55 229.36,-194.86 195.38,-130.75 180.37,-102.44 176.86,-64.73 176.23,-41.94"/>
<polygon fill="#63b8ff" stroke="#63b8ff" points="360.64,-260.2 371.23,-260.41 363.09,-253.64 360.64,-260.2"/>
</a>
</g>
</g>
<!-- Node9 -->
<g id="Node000009" class="node">
<title>Node9</title>
<g id="a_Node000009"><a xlink:href="DAPHNEListRequestHandler_8hpp.html" target="_top" xlink:title=" ">
<polygon fill="white" stroke="#666666" points="538.62,-130.75 374.12,-130.75 374.12,-77.75 538.62,-77.75 538.62,-130.75"/>
<text text-anchor="start" x="382.12" y="-117.25" font-family="Helvetica,sans-Serif" font-size="10.00">/github/workspace/dev</text>
<text text-anchor="start" x="382.12" y="-106" font-family="Helvetica,sans-Serif" font-size="10.00">_area/sourcecode/fdreadoutlibs</text>
<text text-anchor="start" x="382.12" y="-94.75" font-family="Helvetica,sans-Serif" font-size="10.00">/include/fdreadoutlibs/daphne</text>
<text text-anchor="middle" x="456.38" y="-83.5" font-family="Helvetica,sans-Serif" font-size="10.00">/DAPHNEListRequestHandler.hpp</text>
</a>
</g>
</g>
<!-- Node3&#45;&gt;Node9 -->
<g id="edge13_Node000003_Node000009" class="edge">
<title>Node3&#45;&gt;Node9</title>
<g id="a_edge13_Node000003_Node000009"><a xlink:title=" ">
<path fill="none" stroke="#63b8ff" d="M369.36,-255.78C353.86,-246.85 339.45,-235.09 330.38,-219.75 318.38,-199.48 317.9,-186.73 330.38,-166.75 340.63,-150.34 356.66,-138.19 373.9,-129.24"/>
<polygon fill="#63b8ff" stroke="#63b8ff" points="367.3,-258.65 377.77,-260.27 370.6,-252.47 367.3,-258.65"/>
</a>
</g>
</g>
<!-- Node10 -->
<g id="Node000010" class="node">
<title>Node10</title>
<g id="a_Node000010"><a xlink:href="DAPHNEListRequestHandler_8cpp.html" target="_top" xlink:title=" ">
<polygon fill="white" stroke="#666666" points="681.12,-41.75 465.62,-41.75 465.62,0 681.12,0 681.12,-41.75"/>
<text text-anchor="start" x="473.62" y="-28.25" font-family="Helvetica,sans-Serif" font-size="10.00">/github/workspace/dev</text>
<text text-anchor="start" x="473.62" y="-17" font-family="Helvetica,sans-Serif" font-size="10.00">_area/sourcecode/fdreadoutlibs</text>
<text text-anchor="middle" x="573.38" y="-5.75" font-family="Helvetica,sans-Serif" font-size="10.00">/src/daphne/DAPHNEListRequestHandler.cpp</text>
</a>
</g>
</g>
<!-- Node3&#45;&gt;Node10 -->
<g id="edge15_Node000003_Node000010" class="edge">
<title>Node3&#45;&gt;Node10</title>
<g id="a_edge15_Node000003_Node000010"><a xlink:title=" ">
<path fill="none" stroke="#63b8ff" d="M513.41,-255.69C529.29,-246.71 544.38,-234.94 554.38,-219.75 590.9,-164.26 583.24,-80.34 577.19,-42.12"/>
<polygon fill="#63b8ff" stroke="#63b8ff" points="512.02,-252.47 504.8,-260.22 515.27,-258.66 512.02,-252.47"/>
</a>
</g>
</g>
<!-- Node12 -->
<g id="Node000012" class="node">
<title>Node12</title>
<g id="a_Node000012"><a xlink:href="DAPHNEUnpacker_8cpp.html" target="_top" xlink:title=" ">
<polygon fill="white" stroke="#666666" points="765.62,-214.12 601.12,-214.12 601.12,-172.38 765.62,-172.38 765.62,-214.12"/>
<text text-anchor="start" x="609.12" y="-200.62" font-family="Helvetica,sans-Serif" font-size="10.00">/github/workspace/dev</text>
<text text-anchor="start" x="609.12" y="-189.38" font-family="Helvetica,sans-Serif" font-size="10.00">_area/sourcecode/rawdatautils</text>
<text text-anchor="middle" x="683.38" y="-178.12" font-family="Helvetica,sans-Serif" font-size="10.00">/pybindsrc/DAPHNEUnpacker.cpp</text>
</a>
</g>
</g>
<!-- Node3&#45;&gt;Node12 -->
<g id="edge16_Node000003_Node000012" class="edge">
<title>Node3&#45;&gt;Node12</title>
<g id="a_edge16_Node000003_Node000012"><a xlink:title=" ">
<path fill="none" stroke="#63b8ff" d="M509.28,-257.1C546.33,-243.72 591.88,-227.28 627.09,-214.57"/>
<polygon fill="#63b8ff" stroke="#63b8ff" points="508.22,-253.76 500,-260.45 510.59,-260.34 508.22,-253.76"/>
</a>
</g>
</g>
<!-- Node13 -->
<g id="Node000013" class="node">
<title>Node13</title>
<g id="a_Node000013"><a xlink:href="unpack_8cpp.html" target="_top" xlink:title=" ">
<polygon fill="white" stroke="#666666" points="148.75,-214.12 0,-214.12 0,-172.38 148.75,-172.38 148.75,-214.12"/>
<text text-anchor="start" x="8" y="-200.62" font-family="Helvetica,sans-Serif" font-size="10.00">/github/workspace/dev</text>
<text text-anchor="start" x="8" y="-189.38" font-family="Helvetica,sans-Serif" font-size="10.00">_area/sourcecode/rawdatautils</text>
<text text-anchor="middle" x="74.38" y="-178.12" font-family="Helvetica,sans-Serif" font-size="10.00">/pybindsrc/unpack.cpp</text>
</a>
</g>
</g>
<!-- Node3&#45;&gt;Node13 -->
<g id="edge17_Node000003_Node000013" class="edge">
<title>Node3&#45;&gt;Node13</title>
<g id="a_edge17_Node000003_Node000013"><a xlink:title=" ">
<path fill="none" stroke="#63b8ff" d="M338.17,-258.53C262.27,-241.95 171.24,-222.01 162.38,-219.75 156.05,-218.14 149.5,-216.4 142.95,-214.59"/>
<polygon fill="#63b8ff" stroke="#63b8ff" points="337.25,-261.91 347.77,-260.63 338.74,-255.07 337.25,-261.91"/>
</a>
</g>
</g>
<!-- Node5&#45;&gt;Node6 -->
<g id="edge5_Node000005_Node000006" class="edge">
<title>Node5&#45;&gt;Node6</title>
<g id="a_edge5_Node000005_Node000006"><a xlink:title=" ">
<path fill="none" stroke="#63b8ff" d="M384.28,-161.05C366.04,-151.25 346.11,-140.55 328.64,-131.17"/>
<polygon fill="#63b8ff" stroke="#63b8ff" points="382.41,-164.02 392.87,-165.67 385.72,-157.85 382.41,-164.02"/>
</a>
</g>
</g>
<!-- Node5&#45;&gt;Node9 -->
<g id="edge8_Node000005_Node000009" class="edge">
<title>Node5&#45;&gt;Node9</title>
<g id="a_edge8_Node000005_Node000009"><a xlink:title=" ">
<path fill="none" stroke="#63b8ff" d="M448.31,-155.36C449.63,-147.16 451,-138.64 452.23,-131"/>
<polygon fill="#63b8ff" stroke="#63b8ff" points="444.87,-154.69 446.74,-165.12 451.78,-155.81 444.87,-154.69"/>
</a>
</g>
</g>
<!-- Node11 -->
<g id="Node000011" class="node">
<title>Node11</title>
<g id="a_Node000011"><a xlink:href="CreateElink_8hpp.html" target="_top" xlink:title=" ">
<polygon fill="white" stroke="#666666" points="857.5,-125.12 737.25,-125.12 737.25,-83.38 857.5,-83.38 857.5,-125.12"/>
<text text-anchor="start" x="745.25" y="-111.62" font-family="Helvetica,sans-Serif" font-size="10.00">/github/workspace/dev</text>
<text text-anchor="start" x="745.25" y="-100.38" font-family="Helvetica,sans-Serif" font-size="10.00">_area/sourcecode/flxlibs</text>
<text text-anchor="middle" x="797.38" y="-89.12" font-family="Helvetica,sans-Serif" font-size="10.00">/src/CreateElink.hpp</text>
</a>
</g>
</g>
<!-- Node5&#45;&gt;Node11 -->
<g id="edge11_Node000005_Node000011" class="edge">
<title>Node5&#45;&gt;Node11</title>
<g id="a_edge11_Node000005_Node000011"><a xlink:title=" ">
<path fill="none" stroke="#63b8ff" d="M556.6,-164.26C616.6,-149.55 687.7,-132.13 737.01,-120.04"/>
<polygon fill="#63b8ff" stroke="#63b8ff" points="555.88,-160.83 547,-166.61 557.55,-167.63 555.88,-160.83"/>
</a>
</g>
</g>
<!-- Node7 -->
<g id="Node000007" class="node">
<title>Node7</title>
<g id="a_Node000007"><a xlink:href="FDReadoutlibs_8cpp.html" target="_top" xlink:title=" ">
<polygon fill="white" stroke="#666666" points="447.25,-41.75 295.5,-41.75 295.5,0 447.25,0 447.25,-41.75"/>
<text text-anchor="start" x="303.5" y="-28.25" font-family="Helvetica,sans-Serif" font-size="10.00">/github/workspace/dev</text>
<text text-anchor="start" x="303.5" y="-17" font-family="Helvetica,sans-Serif" font-size="10.00">_area/sourcecode/fdreadoutlibs</text>
<text text-anchor="middle" x="371.38" y="-5.75" font-family="Helvetica,sans-Serif" font-size="10.00">/src/FDReadoutlibs.cpp</text>
</a>
</g>
</g>
<!-- Node6&#45;&gt;Node7 -->
<g id="edge6_Node000006_Node000007" class="edge">
<title>Node6&#45;&gt;Node7</title>
<g id="a_edge6_Node000006_Node000007"><a xlink:title=" ">
<path fill="none" stroke="#63b8ff" d="M317.98,-69.62C328.39,-60.31 339.37,-50.49 348.65,-42.19"/>
<polygon fill="#63b8ff" stroke="#63b8ff" points="315.67,-66.99 310.55,-76.27 320.33,-72.21 315.67,-66.99"/>
</a>
</g>
</g>
<!-- Node6&#45;&gt;Node8 -->
<g id="edge7_Node000006_Node000008" class="edge">
<title>Node6&#45;&gt;Node8</title>
<g id="a_edge7_Node000006_Node000008"><a xlink:title=" ">
<path fill="none" stroke="#63b8ff" d="M238.47,-70.46C226.25,-60.9 213.27,-50.74 202.34,-42.19"/>
<polygon fill="#63b8ff" stroke="#63b8ff" points="235.96,-72.94 245.99,-76.35 240.27,-67.43 235.96,-72.94"/>
</a>
</g>
</g>
<!-- Node9&#45;&gt;Node7 -->
<g id="edge9_Node000009_Node000007" class="edge">
<title>Node9&#45;&gt;Node7</title>
<g id="a_edge9_Node000009_Node000007"><a xlink:title=" ">
<path fill="none" stroke="#63b8ff" d="M421.4,-69.77C411.57,-60.36 401.19,-50.41 392.44,-42.04"/>
<polygon fill="#63b8ff" stroke="#63b8ff" points="418.74,-72.07 428.39,-76.46 423.58,-67.01 418.74,-72.07"/>
</a>
</g>
</g>
<!-- Node9&#45;&gt;Node10 -->
<g id="edge10_Node000009_Node000010" class="edge">
<title>Node9&#45;&gt;Node10</title>
<g id="a_edge10_Node000009_Node000010"><a xlink:title=" ">
<path fill="none" stroke="#63b8ff" d="M503.12,-70.74C516.98,-61.1 531.75,-50.82 544.16,-42.19"/>
<polygon fill="#63b8ff" stroke="#63b8ff" points="501.17,-67.83 494.96,-76.41 505.17,-73.58 501.17,-67.83"/>
</a>
</g>
</g>
<!-- Node14&#45;&gt;Node4 -->
<g id="edge19_Node000014_Node000004" class="edge">
<title>Node14&#45;&gt;Node4</title>
<g id="a_edge19_Node000014_Node000004"><a xlink:title=" ">
<path fill="none" stroke="#63b8ff" d="M928.05,-247.77C915.48,-236.49 901.85,-224.27 890.79,-214.36"/>
<polygon fill="#63b8ff" stroke="#63b8ff" points="925.63,-250.3 935.41,-254.37 930.3,-245.09 925.63,-250.3"/>
</a>
</g>
</g>
<!-- Node14&#45;&gt;Node12 -->
<g id="edge26_Node000014_Node000012" class="edge">
<title>Node14&#45;&gt;Node12</title>
<g id="a_edge26_Node000014_Node000012"><a xlink:title=" ">
<path fill="none" stroke="#63b8ff" d="M870.36,-251.94C830.57,-239.66 785.31,-225.7 749.28,-214.58"/>
<polygon fill="#63b8ff" stroke="#63b8ff" points="869.11,-255.22 879.7,-254.82 871.18,-248.53 869.11,-255.22"/>
</a>
</g>
</g>
<!-- Node15 -->
<g id="Node000015" class="node">
<title>Node15</title>
<g id="a_Node000015"><a xlink:href="DAPHNEStreamSuperChunkTypeAdapter_8hpp.html" target="_top" xlink:title=" ">
<polygon fill="white" stroke="#666666" points="1155.38,-219.75 971.38,-219.75 971.38,-166.75 1155.38,-166.75 1155.38,-219.75"/>
<text text-anchor="start" x="979.38" y="-206.25" font-family="Helvetica,sans-Serif" font-size="10.00">/github/workspace/dev</text>
<text text-anchor="start" x="979.38" y="-195" font-family="Helvetica,sans-Serif" font-size="10.00">_area/sourcecode/fdreadoutlibs</text>
<text text-anchor="start" x="979.38" y="-183.75" font-family="Helvetica,sans-Serif" font-size="10.00">/include/fdreadoutlibs/DAPHNEStream</text>
<text text-anchor="middle" x="1063.38" y="-172.5" font-family="Helvetica,sans-Serif" font-size="10.00">SuperChunkTypeAdapter.hpp</text>
</a>
</g>
</g>
<!-- Node14&#45;&gt;Node15 -->
<g id="edge20_Node000014_Node000015" class="edge">
<title>Node14&#45;&gt;Node15</title>
<g id="a_edge20_Node000014_Node000015"><a xlink:title=" ">
<path fill="none" stroke="#63b8ff" d="M1002.99,-247.86C1013.33,-238.68 1024.39,-228.86 1034.18,-220.17"/>
<polygon fill="#63b8ff" stroke="#63b8ff" points="1000.8,-245.12 995.64,-254.38 1005.45,-250.36 1000.8,-245.12"/>
</a>
</g>
</g>
<!-- Node16 -->
<g id="Node000016" class="node">
<title>Node16</title>
<g id="a_Node000016"><a xlink:href="DAPHNEStreamFrameProcessor_8hpp.html" target="_top" xlink:title=" ">
<polygon fill="white" stroke="#666666" points="1193.25,-130.75 1011.5,-130.75 1011.5,-77.75 1193.25,-77.75 1193.25,-130.75"/>
<text text-anchor="start" x="1019.5" y="-117.25" font-family="Helvetica,sans-Serif" font-size="10.00">/github/workspace/dev</text>
<text text-anchor="start" x="1019.5" y="-106" font-family="Helvetica,sans-Serif" font-size="10.00">_area/sourcecode/fdreadoutlibs</text>
<text text-anchor="start" x="1019.5" y="-94.75" font-family="Helvetica,sans-Serif" font-size="10.00">/include/fdreadoutlibs/daphne</text>
<text text-anchor="middle" x="1102.38" y="-83.5" font-family="Helvetica,sans-Serif" font-size="10.00">/DAPHNEStreamFrameProcessor.hpp</text>
</a>
</g>
</g>
<!-- Node14&#45;&gt;Node16 -->
<g id="edge24_Node000014_Node000016" class="edge">
<title>Node14&#45;&gt;Node16</title>
<g id="a_edge24_Node000014_Node000016"><a xlink:title=" ">
<path fill="none" stroke="#63b8ff" d="M1077.63,-271.85C1110.87,-263.2 1143.84,-247.58 1164.38,-219.75 1178.36,-200.79 1173.43,-188.49 1164.38,-166.75 1158.72,-153.17 1148.45,-141.06 1137.87,-131.24"/>
<polygon fill="#63b8ff" stroke="#63b8ff" points="1077.23,-268.35 1068.31,-274.07 1078.85,-275.16 1077.23,-268.35"/>
</a>
</g>
</g>
<!-- Node17 -->
<g id="Node000017" class="node">
<title>Node17</title>
<g id="a_Node000017"><a xlink:href="DAPHNEStreamFrameProcessor_8cpp.html" target="_top" xlink:title=" ">
<polygon fill="white" stroke="#666666" points="1277.75,-41.75 1045,-41.75 1045,0 1277.75,0 1277.75,-41.75"/>
<text text-anchor="start" x="1053" y="-28.25" font-family="Helvetica,sans-Serif" font-size="10.00">/github/workspace/dev</text>
<text text-anchor="start" x="1053" y="-17" font-family="Helvetica,sans-Serif" font-size="10.00">_area/sourcecode/fdreadoutlibs</text>
<text text-anchor="middle" x="1161.38" y="-5.75" font-family="Helvetica,sans-Serif" font-size="10.00">/src/daphne/DAPHNEStreamFrameProcessor.cpp</text>
</a>
</g>
</g>
<!-- Node14&#45;&gt;Node17 -->
<g id="edge25_Node000014_Node000017" class="edge">
<title>Node14&#45;&gt;Node17</title>
<g id="a_edge25_Node000014_Node000017"><a xlink:title=" ">
<path fill="none" stroke="#63b8ff" d="M1077.93,-272.9C1116.17,-264.56 1156.08,-248.87 1183.38,-219.75 1226.92,-173.29 1222.19,-138.26 1202.38,-77.75 1198.07,-64.6 1189.36,-51.99 1181.07,-42.09"/>
<polygon fill="#63b8ff" stroke="#63b8ff" points="1077.27,-269.47 1068.16,-274.87 1078.65,-276.33 1077.27,-269.47"/>
</a>
</g>
</g>
<!-- Node15&#45;&gt;Node11 -->
<g id="edge23_Node000015_Node000011" class="edge">
<title>Node15&#45;&gt;Node11</title>
<g id="a_edge23_Node000015_Node000011"><a xlink:title=" ">
<path fill="none" stroke="#63b8ff" d="M973.34,-162.8C935.28,-150.36 891.97,-136.19 857.83,-125.02"/>
<polygon fill="#63b8ff" stroke="#63b8ff" points="971.9,-166.01 982.49,-165.79 974.07,-159.36 971.9,-166.01"/>
</a>
</g>
</g>
<!-- Node15&#45;&gt;Node16 -->
<g id="edge21_Node000015_Node000016" class="edge">
<title>Node15&#45;&gt;Node16</title>
<g id="a_edge21_Node000015_Node000016"><a xlink:title=" ">
<path fill="none" stroke="#63b8ff" d="M1079.53,-156.21C1083.32,-147.75 1087.29,-138.9 1090.83,-131"/>
<polygon fill="#63b8ff" stroke="#63b8ff" points="1076.38,-154.68 1075.48,-165.24 1082.77,-157.54 1076.38,-154.68"/>
</a>
</g>
</g>
<!-- Node16&#45;&gt;Node17 -->
<g id="edge22_Node000016_Node000017" class="edge">
<title>Node16&#45;&gt;Node17</title>
<g id="a_edge22_Node000016_Node000017"><a xlink:title=" ">
<path fill="none" stroke="#63b8ff" d="M1127.68,-68.35C1134.19,-59.37 1140.99,-50 1146.75,-42.04"/>
<polygon fill="#63b8ff" stroke="#63b8ff" points="1124.97,-66.13 1121.93,-76.28 1130.63,-70.24 1124.97,-66.13"/>
</a>
</g>
</g>
</g>
</svg>
