<?xml version="1.0" encoding="UTF-8" standalone="no"?>
<!DOCTYPE svg PUBLIC "-//W3C//DTD SVG 1.1//EN"
 "http://www.w3.org/Graphics/SVG/1.1/DTD/svg11.dtd">
<!-- Generated by graphviz version 9.0.0 (20230911.1827)
 -->
<!-- Title: /github/workspace/dev_area/sourcecode/detdataformats/include/detdataformats/DAQHeader.hpp Pages: 1 -->
<svg width="200pt" height="105pt"
 viewBox="0.00 0.00 199.50 105.00" xmlns="http://www.w3.org/2000/svg" xmlns:xlink="http://www.w3.org/1999/xlink">
<g id="graph0" class="graph" transform="scale(1 1) rotate(0) translate(4 101)">
<title>/github/workspace/dev_area/sourcecode/detdataformats/include/detdataformats/DAQHeader.hpp</title>
<!-- Node1 -->
<g id="Node000001" class="node">
<title>Node1</title>
<g id="a_Node000001"><a xlink:title=" ">
<polygon fill="#999999" stroke="#666666" points="191.5,-97 0,-97 0,-55.25 191.5,-55.25 191.5,-97"/>
<text text-anchor="start" x="8" y="-83.5" font-family="Helvetica,sans-Serif" font-size="10.00">/github/workspace/dev</text>
<text text-anchor="start" x="8" y="-72.25" font-family="Helvetica,sans-Serif" font-size="10.00">_area/sourcecode/detdataformats</text>
<text text-anchor="middle" x="95.75" y="-61" font-family="Helvetica,sans-Serif" font-size="10.00">/include/detdataformats/DAQHeader.hpp</text>
</a>
</g>
</g>
<!-- Node2 -->
<g id="Node000002" class="node">
<title>Node2</title>
<g id="a_Node000002"><a xlink:title=" ">
<polygon fill="#e0e0e0" stroke="#999999" points="85.38,-19.25 40.12,-19.25 40.12,0 85.38,0 85.38,-19.25"/>
<text text-anchor="middle" x="62.75" y="-5.75" font-family="Helvetica,sans-Serif" font-size="10.00">cstdint</text>
</a>
</g>
</g>
<!-- Node1&#45;&gt;Node2 -->
<g id="edge1_Node000001_Node000002" class="edge">
<title>Node1&#45;&gt;Node2</title>
<g id="a_edge1_Node000001_Node000002"><a xlink:title=" ">
<path fill="none" stroke="#63b8ff" d="M85.49,-55.07C81.37,-47.03 76.65,-37.8 72.58,-29.84"/>
<polygon fill="#63b8ff" stroke="#63b8ff" points="75.75,-28.35 68.08,-21.04 69.52,-31.54 75.75,-28.35"/>
</a>
</g>
</g>
<!-- Node3 -->
<g id="Node000003" class="node">
<title>Node3</title>
<g id="a_Node000003"><a xlink:title=" ">
<polygon fill="#e0e0e0" stroke="#999999" points="154.38,-19.25 103.12,-19.25 103.12,0 154.38,0 154.38,-19.25"/>
<text text-anchor="middle" x="128.75" y="-5.75" font-family="Helvetica,sans-Serif" font-size="10.00">ostream</text>
</a>
</g>
</g>
<!-- Node1&#45;&gt;Node3 -->
<g id="edge2_Node000001_Node000003" class="edge">
<title>Node1&#45;&gt;Node3</title>
<g id="a_edge2_Node000001_Node000003"><a xlink:title=" ">
<path fill="none" stroke="#63b8ff" d="M106.01,-55.07C110.13,-47.03 114.85,-37.8 118.92,-29.84"/>
<polygon fill="#63b8ff" stroke="#63b8ff" points="121.98,-31.54 123.42,-21.04 115.75,-28.35 121.98,-31.54"/>
</a>
</g>
</g>
</g>
</svg>
