<?xml version="1.0" encoding="UTF-8" standalone="no"?>
<!DOCTYPE svg PUBLIC "-//W3C//DTD SVG 1.1//EN"
 "http://www.w3.org/Graphics/SVG/1.1/DTD/svg11.dtd">
<!-- Generated by graphviz version 9.0.0 (20230911.1827)
 -->
<!-- Title: /github/workspace/dev_area/sourcecode/appfwk/src/DAQModuleManager.hpp Pages: 1 -->
<svg width="298pt" height="205pt"
 viewBox="0.00 0.00 297.62 205.25" xmlns="http://www.w3.org/2000/svg" xmlns:xlink="http://www.w3.org/1999/xlink">
<g id="graph0" class="graph" transform="scale(1 1) rotate(0) translate(4 201.25)">
<title>/github/workspace/dev_area/sourcecode/appfwk/src/DAQModuleManager.hpp</title>
<!-- Node1 -->
<g id="Node000001" class="node">
<title>Node1</title>
<g id="a_Node000001"><a xlink:title=" ">
<polygon fill="#999999" stroke="#666666" points="212.62,-197.25 69.12,-197.25 69.12,-155.5 212.62,-155.5 212.62,-197.25"/>
<text text-anchor="start" x="77.12" y="-183.75" font-family="Helvetica,sans-Serif" font-size="10.00">/github/workspace/dev</text>
<text text-anchor="start" x="77.12" y="-172.5" font-family="Helvetica,sans-Serif" font-size="10.00">_area/sourcecode/appfwk</text>
<text text-anchor="middle" x="140.88" y="-161.25" font-family="Helvetica,sans-Serif" font-size="10.00">/src/DAQModuleManager.hpp</text>
</a>
</g>
</g>
<!-- Node2 -->
<g id="Node000002" class="node">
<title>Node2</title>
<g id="a_Node000002"><a xlink:href="sourcecode_2appfwk_2src_2Application_8hpp.html" target="_top" xlink:title=" ">
<polygon fill="white" stroke="#666666" points="127.75,-119.5 0,-119.5 0,-77.75 127.75,-77.75 127.75,-119.5"/>
<text text-anchor="start" x="8" y="-106" font-family="Helvetica,sans-Serif" font-size="10.00">/github/workspace/dev</text>
<text text-anchor="start" x="8" y="-94.75" font-family="Helvetica,sans-Serif" font-size="10.00">_area/sourcecode/appfwk</text>
<text text-anchor="middle" x="63.88" y="-83.5" font-family="Helvetica,sans-Serif" font-size="10.00">/src/Application.hpp</text>
</a>
</g>
</g>
<!-- Node1&#45;&gt;Node2 -->
<g id="edge1_Node000001_Node000002" class="edge">
<title>Node1&#45;&gt;Node2</title>
<g id="a_edge1_Node000001_Node000002"><a xlink:title=" ">
<path fill="none" stroke="#63b8ff" d="M112.12,-147.09C102.97,-138.09 93.03,-128.31 84.57,-119.98"/>
<polygon fill="#63b8ff" stroke="#63b8ff" points="109.58,-149.5 119.16,-154.01 114.49,-144.51 109.58,-149.5"/>
</a>
</g>
</g>
<!-- Node4 -->
<g id="Node000004" class="node">
<title>Node4</title>
<g id="a_Node000004"><a xlink:href="DAQModuleManager_8cpp.html" target="_top" xlink:title=" ">
<polygon fill="white" stroke="#666666" points="289.62,-119.5 146.12,-119.5 146.12,-77.75 289.62,-77.75 289.62,-119.5"/>
<text text-anchor="start" x="154.12" y="-106" font-family="Helvetica,sans-Serif" font-size="10.00">/github/workspace/dev</text>
<text text-anchor="start" x="154.12" y="-94.75" font-family="Helvetica,sans-Serif" font-size="10.00">_area/sourcecode/appfwk</text>
<text text-anchor="middle" x="217.88" y="-83.5" font-family="Helvetica,sans-Serif" font-size="10.00">/src/DAQModuleManager.cpp</text>
</a>
</g>
</g>
<!-- Node1&#45;&gt;Node4 -->
<g id="edge3_Node000001_Node000004" class="edge">
<title>Node1&#45;&gt;Node4</title>
<g id="a_edge3_Node000001_Node000004"><a xlink:title=" ">
<path fill="none" stroke="#63b8ff" d="M169.63,-147.09C178.78,-138.09 188.72,-128.31 197.18,-119.98"/>
<polygon fill="#63b8ff" stroke="#63b8ff" points="167.26,-144.51 162.59,-154.01 172.17,-149.5 167.26,-144.51"/>
</a>
</g>
</g>
<!-- Node3 -->
<g id="Node000003" class="node">
<title>Node3</title>
<g id="a_Node000003"><a xlink:href="sourcecode_2appfwk_2src_2Application_8cpp.html" target="_top" xlink:title=" ">
<polygon fill="white" stroke="#666666" points="127.75,-41.75 0,-41.75 0,0 127.75,0 127.75,-41.75"/>
<text text-anchor="start" x="8" y="-28.25" font-family="Helvetica,sans-Serif" font-size="10.00">/github/workspace/dev</text>
<text text-anchor="start" x="8" y="-17" font-family="Helvetica,sans-Serif" font-size="10.00">_area/sourcecode/appfwk</text>
<text text-anchor="middle" x="63.88" y="-5.75" font-family="Helvetica,sans-Serif" font-size="10.00">/src/Application.cpp</text>
</a>
</g>
</g>
<!-- Node2&#45;&gt;Node3 -->
<g id="edge2_Node000002_Node000003" class="edge">
<title>Node2&#45;&gt;Node3</title>
<g id="a_edge2_Node000002_Node000003"><a xlink:title=" ">
<path fill="none" stroke="#63b8ff" d="M63.88,-66C63.88,-57.96 63.88,-49.54 63.88,-42.23"/>
<polygon fill="#63b8ff" stroke="#63b8ff" points="60.38,-65.81 63.88,-75.81 67.38,-65.81 60.38,-65.81"/>
</a>
</g>
</g>
</g>
</svg>
