<?xml version="1.0" encoding="UTF-8" standalone="no"?>
<!DOCTYPE svg PUBLIC "-//W3C//DTD SVG 1.1//EN"
 "http://www.w3.org/Graphics/SVG/1.1/DTD/svg11.dtd">
<!-- Generated by graphviz version 9.0.0 (20230911.1827)
 -->
<!-- Title: /github/workspace/dev_area/sourcecode/datahandlinglibs/include/datahandlinglibs/DataHandlingIssues.hpp Pages: 1 -->
<svg width="2119pt" height="360pt"
 viewBox="0.00 0.00 2119.38 359.75" xmlns="http://www.w3.org/2000/svg" xmlns:xlink="http://www.w3.org/1999/xlink">
<g id="graph0" class="graph" transform="scale(1 1) rotate(0) translate(4 355.75)">
<title>/github/workspace/dev_area/sourcecode/datahandlinglibs/include/datahandlinglibs/DataHandlingIssues.hpp</title>
<!-- Node1 -->
<g id="Node000001" class="node">
<title>Node1</title>
<g id="a_Node000001"><a xlink:title=" ">
<polygon fill="#999999" stroke="#666666" points="633.62,-351.75 449.62,-351.75 449.62,-298.75 633.62,-298.75 633.62,-351.75"/>
<text text-anchor="start" x="457.62" y="-338.25" font-family="Helvetica,sans-Serif" font-size="10.00">/github/workspace/dev</text>
<text text-anchor="start" x="457.62" y="-327" font-family="Helvetica,sans-Serif" font-size="10.00">_area/sourcecode/datahandlinglibs</text>
<text text-anchor="start" x="457.62" y="-315.75" font-family="Helvetica,sans-Serif" font-size="10.00">/include/datahandlinglibs/DataHandling</text>
<text text-anchor="middle" x="541.62" y="-304.5" font-family="Helvetica,sans-Serif" font-size="10.00">Issues.hpp</text>
</a>
</g>
</g>
<!-- Node2 -->
<g id="Node000002" class="node">
<title>Node2</title>
<g id="a_Node000002"><a xlink:href="SourceID_8hpp.html" target="_top" xlink:title=" ">
<polygon fill="white" stroke="#666666" points="449.12,-262.75 304.12,-262.75 304.12,-243.5 449.12,-243.5 449.12,-262.75"/>
<text text-anchor="middle" x="376.62" y="-249.25" font-family="Helvetica,sans-Serif" font-size="10.00">daqdataformats/SourceID.hpp</text>
</a>
</g>
</g>
<!-- Node1&#45;&gt;Node2 -->
<g id="edge1_Node000001_Node000002" class="edge">
<title>Node1&#45;&gt;Node2</title>
<g id="a_edge1_Node000001_Node000002"><a xlink:title=" ">
<path fill="none" stroke="#63b8ff" d="M480.65,-298.34C456.06,-287.89 428.73,-276.27 408.25,-267.57"/>
<polygon fill="#63b8ff" stroke="#63b8ff" points="409.9,-264.46 399.33,-263.77 407.16,-270.91 409.9,-264.46"/>
</a>
</g>
</g>
<!-- Node11 -->
<g id="Node000011" class="node">
<title>Node11</title>
<g id="a_Node000011"><a xlink:title=" ">
<polygon fill="#e0e0e0" stroke="#999999" points="1132.62,-74.5 1092.62,-74.5 1092.62,-55.25 1132.62,-55.25 1132.62,-74.5"/>
<text text-anchor="middle" x="1112.62" y="-61" font-family="Helvetica,sans-Serif" font-size="10.00">string</text>
</a>
</g>
</g>
<!-- Node1&#45;&gt;Node11 -->
<g id="edge52_Node000001_Node000011" class="edge">
<title>Node1&#45;&gt;Node11</title>
<g id="a_edge52_Node000001_Node000011"><a xlink:title=" ">
<path fill="none" stroke="#63b8ff" d="M564.78,-298.5C585.82,-274.98 617.61,-239.17 644.62,-207.5 680.89,-164.99 675.53,-137.18 724.62,-110.5 785.97,-77.16 999.69,-68.58 1080.94,-66.5"/>
<polygon fill="#63b8ff" stroke="#63b8ff" points="1080.94,-70 1090.86,-66.27 1080.78,-63.01 1080.94,-70"/>
</a>
</g>
</g>
<!-- Node14 -->
<g id="Node000014" class="node">
<title>Node14</title>
<g id="a_Node000014"><a xlink:href="daqdataformats_2include_2daqdataformats_2Types_8hpp.html" target="_top" xlink:title=" ">
<polygon fill="white" stroke="#666666" points="148,-262.75 17.25,-262.75 17.25,-243.5 148,-243.5 148,-262.75"/>
<text text-anchor="middle" x="82.62" y="-249.25" font-family="Helvetica,sans-Serif" font-size="10.00">daqdataformats/Types.hpp</text>
</a>
</g>
</g>
<!-- Node1&#45;&gt;Node14 -->
<g id="edge13_Node000001_Node000014" class="edge">
<title>Node1&#45;&gt;Node14</title>
<g id="a_edge13_Node000001_Node000014"><a xlink:title=" ">
<path fill="none" stroke="#63b8ff" d="M449.29,-310.14C362.09,-296.82 233.14,-277.12 153.69,-264.98"/>
<polygon fill="#63b8ff" stroke="#63b8ff" points="154.25,-261.53 143.83,-263.48 153.19,-268.45 154.25,-261.53"/>
</a>
</g>
</g>
<!-- Node15 -->
<g id="Node000015" class="node">
<title>Node15</title>
<g id="a_Node000015"><a xlink:href="Issue_8hpp.html" target="_top" xlink:title=" ">
<polygon fill="white" stroke="#666666" points="1547.88,-262.75 1473.38,-262.75 1473.38,-243.5 1547.88,-243.5 1547.88,-262.75"/>
<text text-anchor="middle" x="1510.62" y="-249.25" font-family="Helvetica,sans-Serif" font-size="10.00">ers/Issue.hpp</text>
</a>
</g>
</g>
<!-- Node1&#45;&gt;Node15 -->
<g id="edge16_Node000001_Node000015" class="edge">
<title>Node1&#45;&gt;Node15</title>
<g id="a_edge16_Node000001_Node000015"><a xlink:title=" ">
<path fill="none" stroke="#63b8ff" d="M634.1,-317.56C835.58,-302.98 1308.38,-268.76 1461.7,-257.67"/>
<polygon fill="#63b8ff" stroke="#63b8ff" points="1461.79,-261.17 1471.51,-256.96 1461.28,-254.19 1461.79,-261.17"/>
</a>
</g>
</g>
<!-- Node3 -->
<g id="Node000003" class="node">
<title>Node3</title>
<g id="a_Node000003"><a xlink:title=" ">
<polygon fill="#e0e0e0" stroke="#999999" points="304.75,-201.88 256.5,-201.88 256.5,-182.62 304.75,-182.62 304.75,-201.88"/>
<text text-anchor="middle" x="280.62" y="-188.38" font-family="Helvetica,sans-Serif" font-size="10.00">cassert</text>
</a>
</g>
</g>
<!-- Node2&#45;&gt;Node3 -->
<g id="edge2_Node000002_Node000003" class="edge">
<title>Node2&#45;&gt;Node3</title>
<g id="a_edge2_Node000002_Node000003"><a xlink:title=" ">
<path fill="none" stroke="#63b8ff" d="M362.04,-243.18C346.96,-233.93 323.14,-219.32 305.15,-208.29"/>
<polygon fill="#63b8ff" stroke="#63b8ff" points="306.99,-205.31 296.63,-203.07 303.33,-211.28 306.99,-205.31"/>
</a>
</g>
</g>
<!-- Node4 -->
<g id="Node000004" class="node">
<title>Node4</title>
<g id="a_Node000004"><a xlink:title=" ">
<polygon fill="#e0e0e0" stroke="#999999" points="370.75,-201.88 322.5,-201.88 322.5,-182.62 370.75,-182.62 370.75,-201.88"/>
<text text-anchor="middle" x="346.62" y="-188.38" font-family="Helvetica,sans-Serif" font-size="10.00">cstddef</text>
</a>
</g>
</g>
<!-- Node2&#45;&gt;Node4 -->
<g id="edge3_Node000002_Node000004" class="edge">
<title>Node2&#45;&gt;Node4</title>
<g id="a_edge3_Node000002_Node000004"><a xlink:title=" ">
<path fill="none" stroke="#63b8ff" d="M372.07,-243.18C367.93,-235.06 361.68,-222.79 356.41,-212.45"/>
<polygon fill="#63b8ff" stroke="#63b8ff" points="359.57,-210.95 351.91,-203.62 353.33,-214.12 359.57,-210.95"/>
</a>
</g>
</g>
<!-- Node5 -->
<g id="Node000005" class="node">
<title>Node5</title>
<g id="a_Node000005"><a xlink:title=" ">
<polygon fill="#e0e0e0" stroke="#999999" points="45.25,-201.88 0,-201.88 0,-182.62 45.25,-182.62 45.25,-201.88"/>
<text text-anchor="middle" x="22.62" y="-188.38" font-family="Helvetica,sans-Serif" font-size="10.00">cstdint</text>
</a>
</g>
</g>
<!-- Node2&#45;&gt;Node5 -->
<g id="edge4_Node000002_Node000005" class="edge">
<title>Node2&#45;&gt;Node5</title>
<g id="a_edge4_Node000002_Node000005"><a xlink:title=" ">
<path fill="none" stroke="#63b8ff" d="M303.83,-248.18C237.52,-243.16 137.44,-231.97 53.62,-207.5 52.63,-207.21 51.63,-206.89 50.62,-206.55"/>
<polygon fill="#63b8ff" stroke="#63b8ff" points="51.98,-203.33 41.39,-202.87 49.38,-209.83 51.98,-203.33"/>
</a>
</g>
</g>
<!-- Node6 -->
<g id="Node000006" class="node">
<title>Node6</title>
<g id="a_Node000006"><a xlink:title=" ">
<polygon fill="#e0e0e0" stroke="#999999" points="611.5,-201.88 561.75,-201.88 561.75,-182.62 611.5,-182.62 611.5,-201.88"/>
<text text-anchor="middle" x="586.62" y="-188.38" font-family="Helvetica,sans-Serif" font-size="10.00">iomanip</text>
</a>
</g>
</g>
<!-- Node2&#45;&gt;Node6 -->
<g id="edge5_Node000002_Node000006" class="edge">
<title>Node2&#45;&gt;Node6</title>
<g id="a_edge5_Node000002_Node000006"><a xlink:title=" ">
<path fill="none" stroke="#63b8ff" d="M419.82,-243.06C455.77,-235.06 508.08,-222.39 552.62,-207.5 553.61,-207.17 554.6,-206.83 555.6,-206.47"/>
<polygon fill="#63b8ff" stroke="#63b8ff" points="556.83,-209.75 564.9,-202.88 554.31,-203.22 556.83,-209.75"/>
</a>
</g>
</g>
<!-- Node7 -->
<g id="Node000007" class="node">
<title>Node7</title>
<g id="a_Node000007"><a xlink:title=" ">
<polygon fill="#e0e0e0" stroke="#999999" points="168.75,-201.88 120.5,-201.88 120.5,-182.62 168.75,-182.62 168.75,-201.88"/>
<text text-anchor="middle" x="144.62" y="-188.38" font-family="Helvetica,sans-Serif" font-size="10.00">istream</text>
</a>
</g>
</g>
<!-- Node2&#45;&gt;Node7 -->
<g id="edge6_Node000002_Node000007" class="edge">
<title>Node2&#45;&gt;Node7</title>
<g id="a_edge6_Node000002_Node000007"><a xlink:title=" ">
<path fill="none" stroke="#63b8ff" d="M323.53,-243.02C283.02,-235.4 226.12,-223.25 177.62,-207.5 176.64,-207.18 175.64,-206.84 174.64,-206.49"/>
<polygon fill="#63b8ff" stroke="#63b8ff" points="175.93,-203.24 165.35,-202.86 173.39,-209.76 175.93,-203.24"/>
</a>
</g>
</g>
<!-- Node8 -->
<g id="Node000008" class="node">
<title>Node8</title>
<g id="a_Node000008"><a xlink:title=" ">
<polygon fill="#e0e0e0" stroke="#999999" points="102.25,-201.88 63,-201.88 63,-182.62 102.25,-182.62 102.25,-201.88"/>
<text text-anchor="middle" x="82.62" y="-188.38" font-family="Helvetica,sans-Serif" font-size="10.00">limits</text>
</a>
</g>
</g>
<!-- Node2&#45;&gt;Node8 -->
<g id="edge7_Node000002_Node000008" class="edge">
<title>Node2&#45;&gt;Node8</title>
<g id="a_edge7_Node000002_Node000008"><a xlink:title=" ">
<path fill="none" stroke="#63b8ff" d="M303.86,-245.61C249.84,-239.41 174.9,-227.89 111.62,-207.5 110.82,-207.24 110.02,-206.97 109.21,-206.67"/>
<polygon fill="#63b8ff" stroke="#63b8ff" points="110.8,-203.55 100.23,-202.84 108.05,-209.99 110.8,-203.55"/>
</a>
</g>
</g>
<!-- Node9 -->
<g id="Node000009" class="node">
<title>Node9</title>
<g id="a_Node000009"><a xlink:title=" ">
<polygon fill="#e0e0e0" stroke="#999999" points="238.25,-201.88 187,-201.88 187,-182.62 238.25,-182.62 238.25,-201.88"/>
<text text-anchor="middle" x="212.62" y="-188.38" font-family="Helvetica,sans-Serif" font-size="10.00">ostream</text>
</a>
</g>
</g>
<!-- Node2&#45;&gt;Node9 -->
<g id="edge8_Node000002_Node000009" class="edge">
<title>Node2&#45;&gt;Node9</title>
<g id="a_edge8_Node000002_Node000009"><a xlink:title=" ">
<path fill="none" stroke="#63b8ff" d="M349.29,-243.14C323.08,-234.42 282.45,-220.6 247.62,-207.5 246.68,-207.15 245.73,-206.78 244.77,-206.42"/>
<polygon fill="#63b8ff" stroke="#63b8ff" points="246.39,-203.29 235.81,-202.88 243.83,-209.8 246.39,-203.29"/>
</a>
</g>
</g>
<!-- Node10 -->
<g id="Node000010" class="node">
<title>Node10</title>
<g id="a_Node000010"><a xlink:title=" ">
<polygon fill="#e0e0e0" stroke="#999999" points="757.25,-201.88 706,-201.88 706,-182.62 757.25,-182.62 757.25,-201.88"/>
<text text-anchor="middle" x="731.62" y="-188.38" font-family="Helvetica,sans-Serif" font-size="10.00">sstream</text>
</a>
</g>
</g>
<!-- Node2&#45;&gt;Node10 -->
<g id="edge9_Node000002_Node000010" class="edge">
<title>Node2&#45;&gt;Node10</title>
<g id="a_edge9_Node000002_Node000010"><a xlink:title=" ">
<path fill="none" stroke="#63b8ff" d="M435.32,-243.04C491.42,-234.26 578.37,-220.43 653.62,-207.5 666.92,-205.21 681.47,-202.59 694.36,-200.22"/>
<polygon fill="#63b8ff" stroke="#63b8ff" points="694.96,-203.67 704.16,-198.41 693.69,-196.79 694.96,-203.67"/>
</a>
</g>
</g>
<!-- Node2&#45;&gt;Node11 -->
<g id="edge10_Node000002_Node000011" class="edge">
<title>Node2&#45;&gt;Node11</title>
<g id="a_edge10_Node000002_Node000011"><a xlink:title=" ">
<path fill="none" stroke="#63b8ff" d="M449.56,-246.29C511.57,-240 594.58,-228.02 620.62,-207.5 657.67,-178.32 625.42,-138.14 663.62,-110.5 697.33,-86.12 984.23,-71.47 1080.94,-67.19"/>
<polygon fill="#63b8ff" stroke="#63b8ff" points="1080.92,-70.7 1090.76,-66.77 1080.62,-63.71 1080.92,-70.7"/>
</a>
</g>
</g>
<!-- Node12 -->
<g id="Node000012" class="node">
<title>Node12</title>
<g id="a_Node000012"><a xlink:title=" ">
<polygon fill="#e0e0e0" stroke="#999999" points="426.12,-201.88 389.12,-201.88 389.12,-182.62 426.12,-182.62 426.12,-201.88"/>
<text text-anchor="middle" x="407.62" y="-188.38" font-family="Helvetica,sans-Serif" font-size="10.00">tuple</text>
</a>
</g>
</g>
<!-- Node2&#45;&gt;Node12 -->
<g id="edge11_Node000002_Node000012" class="edge">
<title>Node2&#45;&gt;Node12</title>
<g id="a_edge11_Node000002_Node000012"><a xlink:title=" ">
<path fill="none" stroke="#63b8ff" d="M381.33,-243.18C385.61,-235.06 392.07,-222.79 397.51,-212.45"/>
<polygon fill="#63b8ff" stroke="#63b8ff" points="400.61,-214.09 402.17,-203.62 394.41,-210.83 400.61,-214.09"/>
</a>
</g>
</g>
<!-- Node13 -->
<g id="Node000013" class="node">
<title>Node13</title>
<g id="a_Node000013"><a xlink:href="SourceID_8hxx.html" target="_top" xlink:title=" ">
<polygon fill="white" stroke="#666666" points="543.25,-201.88 444,-201.88 444,-182.62 543.25,-182.62 543.25,-201.88"/>
<text text-anchor="middle" x="493.62" y="-188.38" font-family="Helvetica,sans-Serif" font-size="10.00">detail/SourceID.hxx</text>
</a>
</g>
</g>
<!-- Node2&#45;&gt;Node13 -->
<g id="edge12_Node000002_Node000013" class="edge">
<title>Node2&#45;&gt;Node13</title>
<g id="a_edge12_Node000002_Node000013"><a xlink:title=" ">
<path fill="none" stroke="#63b8ff" d="M394.65,-243.05C413.6,-233.52 443.66,-218.39 465.69,-207.31"/>
<polygon fill="#63b8ff" stroke="#63b8ff" points="467.06,-210.54 474.42,-202.91 463.91,-204.28 467.06,-210.54"/>
</a>
</g>
</g>
<!-- Node14&#45;&gt;Node5 -->
<g id="edge14_Node000014_Node000005" class="edge">
<title>Node14&#45;&gt;Node5</title>
<g id="a_edge14_Node000014_Node000005"><a xlink:title=" ">
<path fill="none" stroke="#63b8ff" d="M73.51,-243.18C64.61,-234.45 50.85,-220.94 39.88,-210.18"/>
<polygon fill="#63b8ff" stroke="#63b8ff" points="42.49,-207.84 32.9,-203.34 37.59,-212.84 42.49,-207.84"/>
</a>
</g>
</g>
<!-- Node14&#45;&gt;Node8 -->
<g id="edge15_Node000014_Node000008" class="edge">
<title>Node14&#45;&gt;Node8</title>
<g id="a_edge15_Node000014_Node000008"><a xlink:title=" ">
<path fill="none" stroke="#63b8ff" d="M82.62,-243.18C82.62,-235.4 82.62,-223.83 82.62,-213.78"/>
<polygon fill="#63b8ff" stroke="#63b8ff" points="86.13,-213.79 82.63,-203.79 79.13,-213.79 86.13,-213.79"/>
</a>
</g>
</g>
<!-- Node15&#45;&gt;Node10 -->
<g id="edge23_Node000015_Node000010" class="edge">
<title>Node15&#45;&gt;Node10</title>
<g id="a_edge23_Node000015_Node000010"><a xlink:title=" ">
<path fill="none" stroke="#63b8ff" d="M1473.01,-251.25C1342.24,-248 907.95,-235.32 771.62,-207.5 769.16,-207 766.64,-206.38 764.13,-205.67"/>
<polygon fill="#63b8ff" stroke="#63b8ff" points="765.35,-202.39 754.76,-202.69 763.22,-209.06 765.35,-202.39"/>
</a>
</g>
</g>
<!-- Node15&#45;&gt;Node11 -->
<g id="edge21_Node000015_Node000011" class="edge">
<title>Node15&#45;&gt;Node11</title>
<g id="a_edge21_Node000015_Node000011"><a xlink:title=" ">
<path fill="none" stroke="#63b8ff" d="M1472.98,-249.68C1324.08,-239.62 782.03,-199.2 734.62,-141 726.06,-130.49 725.62,-120.63 734.62,-110.5 757.51,-84.76 993.79,-71.35 1080.74,-67.26"/>
<polygon fill="#63b8ff" stroke="#63b8ff" points="1080.87,-70.75 1090.7,-66.8 1080.55,-63.76 1080.87,-70.75"/>
</a>
</g>
</g>
<!-- Node16 -->
<g id="Node000016" class="node">
<title>Node16</title>
<g id="a_Node000016"><a xlink:title=" ">
<polygon fill="#e0e0e0" stroke="#999999" points="1983.25,-201.88 1938,-201.88 1938,-182.62 1983.25,-182.62 1983.25,-201.88"/>
<text text-anchor="middle" x="1960.62" y="-188.38" font-family="Helvetica,sans-Serif" font-size="10.00">math.h</text>
</a>
</g>
</g>
<!-- Node15&#45;&gt;Node16 -->
<g id="edge17_Node000015_Node000016" class="edge">
<title>Node15&#45;&gt;Node16</title>
<g id="a_edge17_Node000015_Node000016"><a xlink:title=" ">
<path fill="none" stroke="#63b8ff" d="M1548.37,-252.17C1622.72,-251.36 1792.79,-245.15 1929.62,-207.5 1930.8,-207.18 1931.98,-206.82 1933.16,-206.42"/>
<polygon fill="#63b8ff" stroke="#63b8ff" points="1934.21,-209.77 1942.21,-202.82 1931.63,-203.27 1934.21,-209.77"/>
</a>
</g>
</g>
<!-- Node17 -->
<g id="Node000017" class="node">
<title>Node17</title>
<g id="a_Node000017"><a xlink:title=" ">
<polygon fill="#e0e0e0" stroke="#999999" points="2045.88,-201.88 2001.38,-201.88 2001.38,-182.62 2045.88,-182.62 2045.88,-201.88"/>
<text text-anchor="middle" x="2023.62" y="-188.38" font-family="Helvetica,sans-Serif" font-size="10.00">stdio.h</text>
</a>
</g>
</g>
<!-- Node15&#45;&gt;Node17 -->
<g id="edge18_Node000015_Node000017" class="edge">
<title>Node15&#45;&gt;Node17</title>
<g id="a_edge18_Node000015_Node000017"><a xlink:title=" ">
<path fill="none" stroke="#63b8ff" d="M1548.26,-252.91C1630.44,-253.71 1831.48,-250.64 1992.62,-207.5 1993.8,-207.19 1994.98,-206.83 1996.17,-206.44"/>
<polygon fill="#63b8ff" stroke="#63b8ff" points="1997.21,-209.79 2005.22,-202.87 1994.64,-203.28 1997.21,-209.79"/>
</a>
</g>
</g>
<!-- Node18 -->
<g id="Node000018" class="node">
<title>Node18</title>
<g id="a_Node000018"><a xlink:title=" ">
<polygon fill="#e0e0e0" stroke="#999999" points="2111.38,-201.88 2063.88,-201.88 2063.88,-182.62 2111.38,-182.62 2111.38,-201.88"/>
<text text-anchor="middle" x="2087.62" y="-188.38" font-family="Helvetica,sans-Serif" font-size="10.00">string.h</text>
</a>
</g>
</g>
<!-- Node15&#45;&gt;Node18 -->
<g id="edge19_Node000015_Node000018" class="edge">
<title>Node15&#45;&gt;Node18</title>
<g id="a_edge19_Node000015_Node000018"><a xlink:title=" ">
<path fill="none" stroke="#63b8ff" d="M1548.04,-250.64C1654.59,-246.16 1958.21,-231.58 2054.62,-207.5 2056.02,-207.15 2057.43,-206.75 2058.85,-206.31"/>
<polygon fill="#63b8ff" stroke="#63b8ff" points="2059.93,-209.64 2068.08,-202.86 2057.48,-203.08 2059.93,-209.64"/>
</a>
</g>
</g>
<!-- Node19 -->
<g id="Node000019" class="node">
<title>Node19</title>
<g id="a_Node000019"><a xlink:title=" ">
<polygon fill="#e0e0e0" stroke="#999999" points="1481,-135.38 1446.25,-135.38 1446.25,-116.12 1481,-116.12 1481,-135.38"/>
<text text-anchor="middle" x="1463.62" y="-121.88" font-family="Helvetica,sans-Serif" font-size="10.00">map</text>
</a>
</g>
</g>
<!-- Node15&#45;&gt;Node19 -->
<g id="edge20_Node000015_Node000019" class="edge">
<title>Node15&#45;&gt;Node19</title>
<g id="a_edge20_Node000015_Node000019"><a xlink:title=" ">
<path fill="none" stroke="#63b8ff" d="M1507.24,-243.11C1499.69,-222.96 1481.29,-173.88 1470.97,-146.34"/>
<polygon fill="#63b8ff" stroke="#63b8ff" points="1474.29,-145.24 1467.51,-137.1 1467.74,-147.69 1474.29,-145.24"/>
</a>
</g>
</g>
<!-- Node20 -->
<g id="Node000020" class="node">
<title>Node20</title>
<g id="a_Node000020"><a xlink:title=" ">
<polygon fill="#e0e0e0" stroke="#999999" points="1799.38,-19.25 1745.88,-19.25 1745.88,0 1799.38,0 1799.38,-19.25"/>
<text text-anchor="middle" x="1772.62" y="-5.75" font-family="Helvetica,sans-Serif" font-size="10.00">iostream</text>
</a>
</g>
</g>
<!-- Node15&#45;&gt;Node20 -->
<g id="edge22_Node000015_Node000020" class="edge">
<title>Node15&#45;&gt;Node20</title>
<g id="a_edge22_Node000015_Node000020"><a xlink:title=" ">
<path fill="none" stroke="#63b8ff" d="M1548.36,-252.66C1619.38,-251.33 1771.46,-236.83 1834.62,-141 1855.6,-109.18 1852,-89.17 1834.62,-55.25 1828.01,-42.34 1815.73,-32.32 1803.83,-25.07"/>
<polygon fill="#63b8ff" stroke="#63b8ff" points="1805.83,-22.17 1795.39,-20.37 1802.42,-28.29 1805.83,-22.17"/>
</a>
</g>
</g>
<!-- Node21 -->
<g id="Node000021" class="node">
<title>Node21</title>
<g id="a_Node000021"><a xlink:title=" ">
<polygon fill="#e0e0e0" stroke="#999999" points="1115.88,-201.88 1065.38,-201.88 1065.38,-182.62 1115.88,-182.62 1115.88,-201.88"/>
<text text-anchor="middle" x="1090.62" y="-188.38" font-family="Helvetica,sans-Serif" font-size="10.00">memory</text>
</a>
</g>
</g>
<!-- Node15&#45;&gt;Node21 -->
<g id="edge24_Node000015_Node000021" class="edge">
<title>Node15&#45;&gt;Node21</title>
<g id="a_edge24_Node000015_Node000021"><a xlink:title=" ">
<path fill="none" stroke="#63b8ff" d="M1472.99,-251.27C1403.2,-248.93 1249.44,-240.17 1124.62,-207.5 1123.23,-207.14 1121.82,-206.72 1120.41,-206.28"/>
<polygon fill="#63b8ff" stroke="#63b8ff" points="1121.73,-203.04 1111.14,-202.88 1119.32,-209.61 1121.73,-203.04"/>
</a>
</g>
</g>
<!-- Node22 -->
<g id="Node000022" class="node">
<title>Node22</title>
<g id="a_Node000022"><a xlink:title=" ">
<polygon fill="#e0e0e0" stroke="#999999" points="1724.25,-135.38 1679,-135.38 1679,-116.12 1724.25,-116.12 1724.25,-135.38"/>
<text text-anchor="middle" x="1701.62" y="-121.88" font-family="Helvetica,sans-Serif" font-size="10.00">chrono</text>
</a>
</g>
</g>
<!-- Node15&#45;&gt;Node22 -->
<g id="edge25_Node000015_Node000022" class="edge">
<title>Node15&#45;&gt;Node22</title>
<g id="a_edge25_Node000015_Node000022"><a xlink:title=" ">
<path fill="none" stroke="#63b8ff" d="M1548.13,-247.94C1579.18,-242.84 1623.01,-231.68 1653.62,-207.5 1673.78,-191.58 1687.31,-164.68 1694.73,-146.34"/>
<polygon fill="#63b8ff" stroke="#63b8ff" points="1697.94,-147.74 1698.2,-137.14 1691.39,-145.27 1697.94,-147.74"/>
</a>
</g>
</g>
<!-- Node23 -->
<g id="Node000023" class="node">
<title>Node23</title>
<g id="a_Node000023"><a xlink:title=" ">
<polygon fill="#e0e0e0" stroke="#999999" points="1445.03,-201.88 1416.22,-201.88 1416.22,-182.62 1445.03,-182.62 1445.03,-201.88"/>
<text text-anchor="middle" x="1430.62" y="-188.38" font-family="Helvetica,sans-Serif" font-size="10.00">list</text>
</a>
</g>
</g>
<!-- Node15&#45;&gt;Node23 -->
<g id="edge26_Node000015_Node000023" class="edge">
<title>Node15&#45;&gt;Node23</title>
<g id="a_edge26_Node000015_Node000023"><a xlink:title=" ">
<path fill="none" stroke="#63b8ff" d="M1498.47,-243.18C1486.14,-234.11 1466.79,-219.87 1451.91,-208.91"/>
<polygon fill="#63b8ff" stroke="#63b8ff" points="1454.24,-206.28 1444.11,-203.17 1450.09,-211.92 1454.24,-206.28"/>
</a>
</g>
</g>
<!-- Node24 -->
<g id="Node000024" class="node">
<title>Node24</title>
<g id="a_Node000024"><a xlink:href="IssueFactory_8hpp.html" target="_top" xlink:title=" ">
<polygon fill="white" stroke="#666666" points="1645,-201.88 1538.25,-201.88 1538.25,-182.62 1645,-182.62 1645,-201.88"/>
<text text-anchor="middle" x="1591.62" y="-188.38" font-family="Helvetica,sans-Serif" font-size="10.00">ers/IssueFactory.hpp</text>
</a>
</g>
</g>
<!-- Node15&#45;&gt;Node24 -->
<g id="edge27_Node000015_Node000024" class="edge">
<title>Node15&#45;&gt;Node24</title>
<g id="a_edge27_Node000015_Node000024"><a xlink:title=" ">
<path fill="none" stroke="#63b8ff" d="M1522.93,-243.18C1535.42,-234.11 1555.01,-219.87 1570.08,-208.91"/>
<polygon fill="#63b8ff" stroke="#63b8ff" points="1571.95,-211.88 1577.98,-203.17 1567.84,-206.21 1571.95,-211.88"/>
</a>
</g>
</g>
<!-- Node26 -->
<g id="Node000026" class="node">
<title>Node26</title>
<g id="a_Node000026"><a xlink:href="Severity_8hpp.html" target="_top" xlink:title=" ">
<polygon fill="white" stroke="#666666" points="1622.5,-135.38 1536.75,-135.38 1536.75,-116.12 1622.5,-116.12 1622.5,-135.38"/>
<text text-anchor="middle" x="1579.62" y="-121.88" font-family="Helvetica,sans-Serif" font-size="10.00">ers/Severity.hpp</text>
</a>
</g>
</g>
<!-- Node15&#45;&gt;Node26 -->
<g id="edge44_Node000015_Node000026" class="edge">
<title>Node15&#45;&gt;Node26</title>
<g id="a_edge44_Node000015_Node000026"><a xlink:title=" ">
<path fill="none" stroke="#63b8ff" d="M1511.34,-243.23C1512.85,-228.57 1517.29,-198.77 1529.62,-177 1536.96,-164.05 1548.53,-152.11 1558.69,-143.13"/>
<polygon fill="#63b8ff" stroke="#63b8ff" points="1560.9,-145.85 1566.31,-136.74 1556.4,-140.49 1560.9,-145.85"/>
</a>
</g>
</g>
<!-- Node27 -->
<g id="Node000027" class="node">
<title>Node27</title>
<g id="a_Node000027"><a xlink:href="LocalContext_8hpp.html" target="_top" xlink:title=" ">
<polygon fill="white" stroke="#666666" points="1920.38,-201.88 1812.88,-201.88 1812.88,-182.62 1920.38,-182.62 1920.38,-201.88"/>
<text text-anchor="middle" x="1866.62" y="-188.38" font-family="Helvetica,sans-Serif" font-size="10.00">ers/LocalContext.hpp</text>
</a>
</g>
</g>
<!-- Node15&#45;&gt;Node27 -->
<g id="edge36_Node000015_Node000027" class="edge">
<title>Node15&#45;&gt;Node27</title>
<g id="a_edge36_Node000015_Node000027"><a xlink:title=" ">
<path fill="none" stroke="#63b8ff" d="M1548.01,-246.98C1603.04,-239.25 1709.02,-223.82 1798.62,-207.5 1803.56,-206.6 1808.7,-205.62 1813.83,-204.6"/>
<polygon fill="#63b8ff" stroke="#63b8ff" points="1814.39,-208.06 1823.49,-202.64 1813,-201.2 1814.39,-208.06"/>
</a>
</g>
</g>
<!-- Node32 -->
<g id="Node000032" class="node">
<title>Node32</title>
<g id="a_Node000032"><a xlink:href="IssueDeclarationMacro_8hpp.html" target="_top" xlink:title=" ">
<polygon fill="white" stroke="#666666" points="1273.5,-207.5 1133.75,-207.5 1133.75,-177 1273.5,-177 1273.5,-207.5"/>
<text text-anchor="start" x="1141.75" y="-194" font-family="Helvetica,sans-Serif" font-size="10.00">ers/internal/IssueDeclaration</text>
<text text-anchor="middle" x="1203.62" y="-182.75" font-family="Helvetica,sans-Serif" font-size="10.00">Macro.hpp</text>
</a>
</g>
</g>
<!-- Node15&#45;&gt;Node32 -->
<g id="edge45_Node000015_Node000032" class="edge">
<title>Node15&#45;&gt;Node32</title>
<g id="a_edge45_Node000015_Node000032"><a xlink:title=" ">
<path fill="none" stroke="#63b8ff" d="M1472.98,-244.91C1426.4,-235.97 1345.81,-220.52 1284.88,-208.83"/>
<polygon fill="#63b8ff" stroke="#63b8ff" points="1285.71,-205.43 1275.23,-206.98 1284.39,-212.3 1285.71,-205.43"/>
</a>
</g>
</g>
<!-- Node24&#45;&gt;Node11 -->
<g id="edge29_Node000024_Node000011" class="edge">
<title>Node24&#45;&gt;Node11</title>
<g id="a_edge29_Node000024_Node000011"><a xlink:title=" ">
<path fill="none" stroke="#63b8ff" d="M1580.27,-182.39C1567.45,-172.38 1545.99,-155.58 1527.62,-141 1510.66,-127.54 1509.6,-118.88 1489.62,-110.5 1427.33,-84.38 1223.1,-71.48 1144.16,-67.37"/>
<polygon fill="#63b8ff" stroke="#63b8ff" points="1144.7,-63.9 1134.54,-66.89 1144.35,-70.89 1144.7,-63.9"/>
</a>
</g>
</g>
<!-- Node24&#45;&gt;Node19 -->
<g id="edge31_Node000024_Node000019" class="edge">
<title>Node24&#45;&gt;Node19</title>
<g id="a_edge31_Node000024_Node000019"><a xlink:title=" ">
<path fill="none" stroke="#63b8ff" d="M1573.56,-182.15C1552.19,-171.38 1516.37,-153.33 1491.46,-140.77"/>
<polygon fill="#63b8ff" stroke="#63b8ff" points="1493.05,-137.66 1482.54,-136.28 1489.9,-143.91 1493.05,-137.66"/>
</a>
</g>
</g>
<!-- Node24&#45;&gt;Node22 -->
<g id="edge28_Node000024_Node000022" class="edge">
<title>Node24&#45;&gt;Node22</title>
<g id="a_edge28_Node000024_Node000022"><a xlink:title=" ">
<path fill="none" stroke="#63b8ff" d="M1606.92,-182.28C1624.88,-171.75 1654.93,-154.13 1676.37,-141.56"/>
<polygon fill="#63b8ff" stroke="#63b8ff" points="1677.94,-144.69 1684.8,-136.62 1674.4,-138.65 1677.94,-144.69"/>
</a>
</g>
</g>
<!-- Node25 -->
<g id="Node000025" class="node">
<title>Node25</title>
<g id="a_Node000025"><a xlink:title=" ">
<polygon fill="#e0e0e0" stroke="#999999" points="1672.12,-74.5 1629.12,-74.5 1629.12,-55.25 1672.12,-55.25 1672.12,-74.5"/>
<text text-anchor="middle" x="1650.62" y="-61" font-family="Helvetica,sans-Serif" font-size="10.00">vector</text>
</a>
</g>
</g>
<!-- Node24&#45;&gt;Node25 -->
<g id="edge30_Node000024_Node000025" class="edge">
<title>Node24&#45;&gt;Node25</title>
<g id="a_edge30_Node000024_Node000025"><a xlink:title=" ">
<path fill="none" stroke="#63b8ff" d="M1600.6,-182.45C1609.72,-173.01 1623.61,-157.19 1631.62,-141 1640.39,-123.31 1645.35,-101.21 1647.99,-85.57"/>
<polygon fill="#63b8ff" stroke="#63b8ff" points="1651.38,-86.53 1649.41,-76.12 1644.46,-85.49 1651.38,-86.53"/>
</a>
</g>
</g>
<!-- Node24&#45;&gt;Node26 -->
<g id="edge32_Node000024_Node000026" class="edge">
<title>Node24&#45;&gt;Node26</title>
<g id="a_edge32_Node000024_Node000026"><a xlink:title=" ">
<path fill="none" stroke="#63b8ff" d="M1589.96,-182.28C1588.25,-173.14 1585.56,-158.64 1583.35,-146.75"/>
<polygon fill="#63b8ff" stroke="#63b8ff" points="1586.83,-146.32 1581.56,-137.13 1579.94,-147.6 1586.83,-146.32"/>
</a>
</g>
</g>
<!-- Node26&#45;&gt;Node11 -->
<g id="edge33_Node000026_Node000011" class="edge">
<title>Node26&#45;&gt;Node11</title>
<g id="a_edge33_Node000026_Node000011"><a xlink:title=" ">
<path fill="none" stroke="#63b8ff" d="M1546.64,-115.69C1538.81,-113.77 1530.46,-111.9 1522.62,-110.5 1382.66,-85.51 1213.14,-72.44 1144.13,-67.83"/>
<polygon fill="#63b8ff" stroke="#63b8ff" points="1144.53,-64.35 1134.33,-67.19 1144.08,-71.34 1144.53,-64.35"/>
</a>
</g>
</g>
<!-- Node26&#45;&gt;Node20 -->
<g id="edge35_Node000026_Node000020" class="edge">
<title>Node26&#45;&gt;Node20</title>
<g id="a_edge35_Node000026_Node000020"><a xlink:title=" ">
<path fill="none" stroke="#63b8ff" d="M1582.37,-116.07C1587.47,-101.33 1599.85,-71.43 1620.62,-55.25 1653.72,-29.48 1701.33,-18.57 1734.42,-13.97"/>
<polygon fill="#63b8ff" stroke="#63b8ff" points="1734.47,-17.49 1743.96,-12.78 1733.61,-10.54 1734.47,-17.49"/>
</a>
</g>
</g>
<!-- Node26&#45;&gt;Node25 -->
<g id="edge34_Node000026_Node000025" class="edge">
<title>Node26&#45;&gt;Node25</title>
<g id="a_edge34_Node000026_Node000025"><a xlink:title=" ">
<path fill="none" stroke="#63b8ff" d="M1590.41,-115.81C1601.15,-106.9 1617.88,-93.03 1630.98,-82.17"/>
<polygon fill="#63b8ff" stroke="#63b8ff" points="1633.11,-84.94 1638.58,-75.87 1628.64,-79.56 1633.11,-84.94"/>
</a>
</g>
</g>
<!-- Node28 -->
<g id="Node000028" class="node">
<title>Node28</title>
<g id="a_Node000028"><a xlink:title=" ">
<polygon fill="#e0e0e0" stroke="#999999" points="1946,-135.38 1881.25,-135.38 1881.25,-116.12 1946,-116.12 1946,-135.38"/>
<text text-anchor="middle" x="1913.62" y="-121.88" font-family="Helvetica,sans-Serif" font-size="10.00">sys/types.h</text>
</a>
</g>
</g>
<!-- Node27&#45;&gt;Node28 -->
<g id="edge37_Node000027_Node000028" class="edge">
<title>Node27&#45;&gt;Node28</title>
<g id="a_edge37_Node000027_Node000028"><a xlink:title=" ">
<path fill="none" stroke="#63b8ff" d="M1873.16,-182.28C1880.18,-172.65 1891.51,-157.1 1900.4,-144.9"/>
<polygon fill="#63b8ff" stroke="#63b8ff" points="1903.19,-147.01 1906.25,-136.87 1897.54,-142.89 1903.19,-147.01"/>
</a>
</g>
</g>
<!-- Node29 -->
<g id="Node000029" class="node">
<title>Node29</title>
<g id="a_Node000029"><a xlink:title=" ">
<polygon fill="#e0e0e0" stroke="#999999" points="2013.5,-135.38 1963.75,-135.38 1963.75,-116.12 2013.5,-116.12 2013.5,-135.38"/>
<text text-anchor="middle" x="1988.62" y="-121.88" font-family="Helvetica,sans-Serif" font-size="10.00">unistd.h</text>
</a>
</g>
</g>
<!-- Node27&#45;&gt;Node29 -->
<g id="edge38_Node000027_Node000029" class="edge">
<title>Node27&#45;&gt;Node29</title>
<g id="a_edge38_Node000027_Node000029"><a xlink:title=" ">
<path fill="none" stroke="#63b8ff" d="M1883.85,-182.15C1904.01,-171.49 1937.66,-153.69 1961.38,-141.16"/>
<polygon fill="#63b8ff" stroke="#63b8ff" points="1962.95,-144.28 1970.15,-136.52 1959.68,-138.1 1962.95,-144.28"/>
</a>
</g>
</g>
<!-- Node30 -->
<g id="Node000030" class="node">
<title>Node30</title>
<g id="a_Node000030"><a xlink:href="Context_8hpp.html" target="_top" xlink:title=" ">
<polygon fill="white" stroke="#666666" points="1825.38,-135.38 1741.88,-135.38 1741.88,-116.12 1825.38,-116.12 1825.38,-135.38"/>
<text text-anchor="middle" x="1783.62" y="-121.88" font-family="Helvetica,sans-Serif" font-size="10.00">ers/Context.hpp</text>
</a>
</g>
</g>
<!-- Node27&#45;&gt;Node30 -->
<g id="edge39_Node000027_Node000030" class="edge">
<title>Node27&#45;&gt;Node30</title>
<g id="a_edge39_Node000027_Node000030"><a xlink:title=" ">
<path fill="none" stroke="#63b8ff" d="M1855.08,-182.28C1841.9,-172.04 1820.09,-155.09 1804.02,-142.6"/>
<polygon fill="#63b8ff" stroke="#63b8ff" points="1806.57,-140.15 1796.53,-136.78 1802.28,-145.68 1806.57,-140.15"/>
</a>
</g>
</g>
<!-- Node30&#45;&gt;Node11 -->
<g id="edge40_Node000030_Node000011" class="edge">
<title>Node30&#45;&gt;Node11</title>
<g id="a_edge40_Node000030_Node000011"><a xlink:title=" ">
<path fill="none" stroke="#63b8ff" d="M1755.57,-115.66C1748.47,-113.66 1740.82,-111.77 1733.62,-110.5 1510.5,-71.12 1236.42,-66.31 1144.42,-65.86"/>
<polygon fill="#63b8ff" stroke="#63b8ff" points="1144.44,-62.36 1134.43,-65.83 1144.42,-69.36 1144.44,-62.36"/>
</a>
</g>
</g>
<!-- Node30&#45;&gt;Node25 -->
<g id="edge41_Node000030_Node000025" class="edge">
<title>Node30&#45;&gt;Node25</title>
<g id="a_edge41_Node000030_Node000025"><a xlink:title=" ">
<path fill="none" stroke="#63b8ff" d="M1763.14,-115.68C1741.3,-106.01 1706.49,-90.6 1681.36,-79.48"/>
<polygon fill="#63b8ff" stroke="#63b8ff" points="1682.86,-76.32 1672.3,-75.47 1680.03,-82.72 1682.86,-76.32"/>
</a>
</g>
</g>
<!-- Node31 -->
<g id="Node000031" class="node">
<title>Node31</title>
<g id="a_Node000031"><a xlink:href="ers_2include_2ers_2Configuration_8hpp.html" target="_top" xlink:title=" ">
<polygon fill="white" stroke="#666666" points="1826,-74.5 1719.25,-74.5 1719.25,-55.25 1826,-55.25 1826,-74.5"/>
<text text-anchor="middle" x="1772.62" y="-61" font-family="Helvetica,sans-Serif" font-size="10.00">ers/Configuration.hpp</text>
</a>
</g>
</g>
<!-- Node30&#45;&gt;Node31 -->
<g id="edge42_Node000030_Node000031" class="edge">
<title>Node30&#45;&gt;Node31</title>
<g id="a_edge42_Node000030_Node000031"><a xlink:title=" ">
<path fill="none" stroke="#63b8ff" d="M1781.95,-115.81C1780.48,-107.94 1778.29,-96.2 1776.4,-86.07"/>
<polygon fill="#63b8ff" stroke="#63b8ff" points="1779.87,-85.58 1774.59,-76.39 1772.99,-86.86 1779.87,-85.58"/>
</a>
</g>
</g>
<!-- Node31&#45;&gt;Node20 -->
<g id="edge43_Node000031_Node000020" class="edge">
<title>Node31&#45;&gt;Node20</title>
<g id="a_edge43_Node000031_Node000020"><a xlink:title=" ">
<path fill="none" stroke="#63b8ff" d="M1772.62,-55.08C1772.62,-48.57 1772.62,-39.42 1772.62,-31.12"/>
<polygon fill="#63b8ff" stroke="#63b8ff" points="1776.13,-31.12 1772.63,-21.12 1769.13,-31.12 1776.13,-31.12"/>
</a>
</g>
</g>
<!-- Node33 -->
<g id="Node000033" class="node">
<title>Node33</title>
<g id="a_Node000033"><a xlink:title=" ">
<polygon fill="#e0e0e0" stroke="#999999" points="1311.25,-141 1212,-141 1212,-110.5 1311.25,-110.5 1311.25,-141"/>
<text text-anchor="start" x="1220" y="-127.5" font-family="Helvetica,sans-Serif" font-size="10.00">boost/preprocessor</text>
<text text-anchor="middle" x="1261.62" y="-116.25" font-family="Helvetica,sans-Serif" font-size="10.00">/if.hpp</text>
</a>
</g>
</g>
<!-- Node32&#45;&gt;Node33 -->
<g id="edge46_Node000032_Node000033" class="edge">
<title>Node32&#45;&gt;Node33</title>
<g id="a_edge46_Node000032_Node000033"><a xlink:title=" ">
<path fill="none" stroke="#63b8ff" d="M1216.79,-176.61C1223.91,-168.7 1232.86,-158.74 1240.89,-149.8"/>
<polygon fill="#63b8ff" stroke="#63b8ff" points="1243.42,-152.23 1247.5,-142.45 1238.21,-147.55 1243.42,-152.23"/>
</a>
</g>
</g>
<!-- Node34 -->
<g id="Node000034" class="node">
<title>Node34</title>
<g id="a_Node000034"><a xlink:title=" ">
<polygon fill="#e0e0e0" stroke="#999999" points="1428.25,-141 1329,-141 1329,-110.5 1428.25,-110.5 1428.25,-141"/>
<text text-anchor="start" x="1337" y="-127.5" font-family="Helvetica,sans-Serif" font-size="10.00">boost/preprocessor</text>
<text text-anchor="middle" x="1378.62" y="-116.25" font-family="Helvetica,sans-Serif" font-size="10.00">/seq.hpp</text>
</a>
</g>
</g>
<!-- Node32&#45;&gt;Node34 -->
<g id="edge47_Node000032_Node000034" class="edge">
<title>Node32&#45;&gt;Node34</title>
<g id="a_edge47_Node000032_Node000034"><a xlink:title=" ">
<path fill="none" stroke="#63b8ff" d="M1243.34,-176.61C1268.42,-167.37 1301.06,-155.34 1328,-145.41"/>
<polygon fill="#63b8ff" stroke="#63b8ff" points="1329.18,-148.71 1337.35,-141.96 1326.76,-142.14 1329.18,-148.71"/>
</a>
</g>
</g>
<!-- Node35 -->
<g id="Node000035" class="node">
<title>Node35</title>
<g id="a_Node000035"><a xlink:title=" ">
<polygon fill="#e0e0e0" stroke="#999999" points="843.25,-141 744,-141 744,-110.5 843.25,-110.5 843.25,-141"/>
<text text-anchor="start" x="752" y="-127.5" font-family="Helvetica,sans-Serif" font-size="10.00">boost/preprocessor</text>
<text text-anchor="middle" x="793.62" y="-116.25" font-family="Helvetica,sans-Serif" font-size="10.00">/tuple.hpp</text>
</a>
</g>
</g>
<!-- Node32&#45;&gt;Node35 -->
<g id="edge48_Node000032_Node000035" class="edge">
<title>Node32&#45;&gt;Node35</title>
<g id="a_edge48_Node000032_Node000035"><a xlink:title=" ">
<path fill="none" stroke="#63b8ff" d="M1133.44,-178.41C1130.47,-177.92 1127.52,-177.45 1124.62,-177 1007.25,-158.69 973.84,-163.33 854.57,-141.44"/>
<polygon fill="#63b8ff" stroke="#63b8ff" points="855.5,-138.05 845.02,-139.66 854.21,-144.93 855.5,-138.05"/>
</a>
</g>
</g>
<!-- Node36 -->
<g id="Node000036" class="node">
<title>Node36</title>
<g id="a_Node000036"><a xlink:title=" ">
<polygon fill="#e0e0e0" stroke="#999999" points="960.25,-141 861,-141 861,-110.5 960.25,-110.5 960.25,-141"/>
<text text-anchor="start" x="869" y="-127.5" font-family="Helvetica,sans-Serif" font-size="10.00">boost/preprocessor</text>
<text text-anchor="middle" x="910.62" y="-116.25" font-family="Helvetica,sans-Serif" font-size="10.00">/logical.hpp</text>
</a>
</g>
</g>
<!-- Node32&#45;&gt;Node36 -->
<g id="edge49_Node000032_Node000036" class="edge">
<title>Node32&#45;&gt;Node36</title>
<g id="a_edge49_Node000032_Node000036"><a xlink:title=" ">
<path fill="none" stroke="#63b8ff" d="M1133.32,-176.8C1089.3,-167.61 1031.12,-155.23 971.7,-141.67"/>
<polygon fill="#63b8ff" stroke="#63b8ff" points="972.59,-138.29 962.06,-139.47 971.03,-145.11 972.59,-138.29"/>
</a>
</g>
</g>
<!-- Node37 -->
<g id="Node000037" class="node">
<title>Node37</title>
<g id="a_Node000037"><a xlink:title=" ">
<polygon fill="#e0e0e0" stroke="#999999" points="1077.25,-141 978,-141 978,-110.5 1077.25,-110.5 1077.25,-141"/>
<text text-anchor="start" x="986" y="-127.5" font-family="Helvetica,sans-Serif" font-size="10.00">boost/preprocessor</text>
<text text-anchor="middle" x="1027.62" y="-116.25" font-family="Helvetica,sans-Serif" font-size="10.00">/stringize.hpp</text>
</a>
</g>
</g>
<!-- Node32&#45;&gt;Node37 -->
<g id="edge50_Node000032_Node000037" class="edge">
<title>Node32&#45;&gt;Node37</title>
<g id="a_edge50_Node000032_Node000037"><a xlink:title=" ">
<path fill="none" stroke="#63b8ff" d="M1163.69,-176.61C1138.35,-167.33 1105.34,-155.23 1078.18,-145.28"/>
<polygon fill="#63b8ff" stroke="#63b8ff" points="1079.72,-142.12 1069.13,-141.96 1077.31,-148.69 1079.72,-142.12"/>
</a>
</g>
</g>
<!-- Node38 -->
<g id="Node000038" class="node">
<title>Node38</title>
<g id="a_Node000038"><a xlink:title=" ">
<polygon fill="#e0e0e0" stroke="#999999" points="1194.25,-141 1095,-141 1095,-110.5 1194.25,-110.5 1194.25,-141"/>
<text text-anchor="start" x="1103" y="-127.5" font-family="Helvetica,sans-Serif" font-size="10.00">boost/preprocessor</text>
<text text-anchor="middle" x="1144.62" y="-116.25" font-family="Helvetica,sans-Serif" font-size="10.00">/comparison.hpp</text>
</a>
</g>
</g>
<!-- Node32&#45;&gt;Node38 -->
<g id="edge51_Node000032_Node000038" class="edge">
<title>Node32&#45;&gt;Node38</title>
<g id="a_edge51_Node000032_Node000038"><a xlink:title=" ">
<path fill="none" stroke="#63b8ff" d="M1190.24,-176.61C1183,-168.7 1173.88,-158.74 1165.71,-149.8"/>
<polygon fill="#63b8ff" stroke="#63b8ff" points="1168.31,-147.46 1158.98,-142.44 1163.15,-152.19 1168.31,-147.46"/>
</a>
</g>
</g>
</g>
</svg>
