<?xml version="1.0" encoding="UTF-8" standalone="no"?>
<!DOCTYPE svg PUBLIC "-//W3C//DTD SVG 1.1//EN"
 "http://www.w3.org/Graphics/SVG/1.1/DTD/svg11.dtd">
<!-- Generated by graphviz version 9.0.0 (20230911.1827)
 -->
<!-- Title: /github/workspace/dev_area/sourcecode/datahandlinglibs/include/datahandlinglibs/DataMoveCallbackRegistry.hpp Pages: 1 -->
<svg width="550pt" height="228pt"
 viewBox="0.00 0.00 550.12 227.75" xmlns="http://www.w3.org/2000/svg" xmlns:xlink="http://www.w3.org/1999/xlink">
<g id="graph0" class="graph" transform="scale(1 1) rotate(0) translate(4 223.75)">
<title>/github/workspace/dev_area/sourcecode/datahandlinglibs/include/datahandlinglibs/DataMoveCallbackRegistry.hpp</title>
<!-- Node1 -->
<g id="Node000001" class="node">
<title>Node1</title>
<g id="a_Node000001"><a xlink:title=" ">
<polygon fill="#999999" stroke="#666666" points="353.62,-219.75 146.38,-219.75 146.38,-166.75 353.62,-166.75 353.62,-219.75"/>
<text text-anchor="start" x="154.38" y="-206.25" font-family="Helvetica,sans-Serif" font-size="10.00">/github/workspace/dev</text>
<text text-anchor="start" x="154.38" y="-195" font-family="Helvetica,sans-Serif" font-size="10.00">_area/sourcecode/datahandlinglibs</text>
<text text-anchor="start" x="154.38" y="-183.75" font-family="Helvetica,sans-Serif" font-size="10.00">/include/datahandlinglibs/DataMoveCallback</text>
<text text-anchor="middle" x="250" y="-172.5" font-family="Helvetica,sans-Serif" font-size="10.00">Registry.hpp</text>
</a>
</g>
</g>
<!-- Node2 -->
<g id="Node000002" class="node">
<title>Node2</title>
<g id="a_Node000002"><a xlink:href="DataHandlingModel_8hpp.html" target="_top" xlink:title=" ">
<polygon fill="white" stroke="#666666" points="166,-130.75 0,-130.75 0,-77.75 166,-77.75 166,-130.75"/>
<text text-anchor="start" x="8" y="-117.25" font-family="Helvetica,sans-Serif" font-size="10.00">/github/workspace/dev</text>
<text text-anchor="start" x="8" y="-106" font-family="Helvetica,sans-Serif" font-size="10.00">_area/sourcecode/datahandlinglibs</text>
<text text-anchor="start" x="8" y="-94.75" font-family="Helvetica,sans-Serif" font-size="10.00">/include/datahandlinglibs/models</text>
<text text-anchor="middle" x="83" y="-83.5" font-family="Helvetica,sans-Serif" font-size="10.00">/DataHandlingModel.hpp</text>
</a>
</g>
</g>
<!-- Node1&#45;&gt;Node2 -->
<g id="edge1_Node000001_Node000002" class="edge">
<title>Node1&#45;&gt;Node2</title>
<g id="a_edge1_Node000001_Node000002"><a xlink:title=" ">
<path fill="none" stroke="#63b8ff" d="M190.37,-161.18C171.5,-151.35 150.85,-140.6 132.75,-131.17"/>
<polygon fill="#63b8ff" stroke="#63b8ff" points="188.52,-164.17 199,-165.68 191.75,-157.96 188.52,-164.17"/>
</a>
</g>
</g>
<!-- Node3 -->
<g id="Node000003" class="node">
<title>Node3</title>
<g id="a_Node000003"><a xlink:href="Readoutlibs_8cpp.html" target="_top" xlink:title=" ">
<polygon fill="white" stroke="#666666" points="221,-41.75 55,-41.75 55,0 221,0 221,-41.75"/>
<text text-anchor="start" x="63" y="-28.25" font-family="Helvetica,sans-Serif" font-size="10.00">/github/workspace/dev</text>
<text text-anchor="start" x="63" y="-17" font-family="Helvetica,sans-Serif" font-size="10.00">_area/sourcecode/datahandlinglibs</text>
<text text-anchor="middle" x="138" y="-5.75" font-family="Helvetica,sans-Serif" font-size="10.00">/src/Readoutlibs.cpp</text>
</a>
</g>
</g>
<!-- Node1&#45;&gt;Node3 -->
<g id="edge4_Node000001_Node000003" class="edge">
<title>Node1&#45;&gt;Node3</title>
<g id="a_edge4_Node000001_Node000003"><a xlink:title=" ">
<path fill="none" stroke="#63b8ff" d="M226.83,-156.77C212.03,-134.14 192.42,-104.2 175,-77.75 167.19,-65.9 158.42,-52.65 151.38,-42.03"/>
<polygon fill="#63b8ff" stroke="#63b8ff" points="223.83,-158.58 232.23,-165.04 229.69,-154.75 223.83,-158.58"/>
</a>
</g>
</g>
<!-- Node4 -->
<g id="Node000004" class="node">
<title>Node4</title>
<g id="a_Node000004"><a xlink:href="DataMoveCallbackRegistry_8cpp.html" target="_top" xlink:title=" ">
<polygon fill="white" stroke="#666666" points="392.25,-125.12 221.75,-125.12 221.75,-83.38 392.25,-83.38 392.25,-125.12"/>
<text text-anchor="start" x="229.75" y="-111.62" font-family="Helvetica,sans-Serif" font-size="10.00">/github/workspace/dev</text>
<text text-anchor="start" x="229.75" y="-100.38" font-family="Helvetica,sans-Serif" font-size="10.00">_area/sourcecode/datahandlinglibs</text>
<text text-anchor="middle" x="307" y="-89.12" font-family="Helvetica,sans-Serif" font-size="10.00">/src/DataMoveCallbackRegistry.cpp</text>
</a>
</g>
</g>
<!-- Node1&#45;&gt;Node4 -->
<g id="edge3_Node000001_Node000004" class="edge">
<title>Node1&#45;&gt;Node4</title>
<g id="a_edge3_Node000001_Node000004"><a xlink:title=" ">
<path fill="none" stroke="#63b8ff" d="M273.08,-157.03C280.11,-146.29 287.61,-134.85 293.76,-125.46"/>
<polygon fill="#63b8ff" stroke="#63b8ff" points="270.18,-155.07 267.62,-165.35 276.03,-158.91 270.18,-155.07"/>
</a>
</g>
</g>
<!-- Node5 -->
<g id="Node000005" class="node">
<title>Node5</title>
<g id="a_Node000005"><a xlink:href="SourceModel_8hpp.html" target="_top" xlink:title=" ">
<polygon fill="white" stroke="#666666" points="542.12,-125.12 409.88,-125.12 409.88,-83.38 542.12,-83.38 542.12,-125.12"/>
<text text-anchor="start" x="417.88" y="-111.62" font-family="Helvetica,sans-Serif" font-size="10.00">/github/workspace/dev</text>
<text text-anchor="start" x="417.88" y="-100.38" font-family="Helvetica,sans-Serif" font-size="10.00">_area/sourcecode/dpdklibs</text>
<text text-anchor="middle" x="476" y="-89.12" font-family="Helvetica,sans-Serif" font-size="10.00">/src/SourceModel.hpp</text>
</a>
</g>
</g>
<!-- Node1&#45;&gt;Node5 -->
<g id="edge5_Node000001_Node000005" class="edge">
<title>Node1&#45;&gt;Node5</title>
<g id="a_edge5_Node000001_Node000005"><a xlink:title=" ">
<path fill="none" stroke="#63b8ff" d="M327.99,-162.23C359.42,-150.13 394.86,-136.48 423.18,-125.58"/>
<polygon fill="#63b8ff" stroke="#63b8ff" points="326.99,-158.86 318.91,-165.72 329.5,-165.39 326.99,-158.86"/>
</a>
</g>
</g>
<!-- Node2&#45;&gt;Node3 -->
<g id="edge2_Node000002_Node000003" class="edge">
<title>Node2&#45;&gt;Node3</title>
<g id="a_edge2_Node000002_Node000003"><a xlink:title=" ">
<path fill="none" stroke="#63b8ff" d="M106.78,-68.07C112.79,-59.17 119.05,-49.91 124.37,-42.04"/>
<polygon fill="#63b8ff" stroke="#63b8ff" points="103.95,-66 101.25,-76.25 109.75,-69.92 103.95,-66"/>
</a>
</g>
</g>
<!-- Node6 -->
<g id="Node000006" class="node">
<title>Node6</title>
<g id="a_Node000006"><a xlink:href="CreateSource_8hpp.html" target="_top" xlink:title=" ">
<polygon fill="white" stroke="#666666" points="542.12,-41.75 409.88,-41.75 409.88,0 542.12,0 542.12,-41.75"/>
<text text-anchor="start" x="417.88" y="-28.25" font-family="Helvetica,sans-Serif" font-size="10.00">/github/workspace/dev</text>
<text text-anchor="start" x="417.88" y="-17" font-family="Helvetica,sans-Serif" font-size="10.00">_area/sourcecode/dpdklibs</text>
<text text-anchor="middle" x="476" y="-5.75" font-family="Helvetica,sans-Serif" font-size="10.00">/src/CreateSource.hpp</text>
</a>
</g>
</g>
<!-- Node5&#45;&gt;Node6 -->
<g id="edge6_Node000005_Node000006" class="edge">
<title>Node5&#45;&gt;Node6</title>
<g id="a_edge6_Node000005_Node000006"><a xlink:title=" ">
<path fill="none" stroke="#63b8ff" d="M476,-71.89C476,-61.87 476,-51.05 476,-42.04"/>
<polygon fill="#63b8ff" stroke="#63b8ff" points="472.5,-71.62 476,-81.62 479.5,-71.62 472.5,-71.62"/>
</a>
</g>
</g>
</g>
</svg>
