<?xml version="1.0" encoding="UTF-8" standalone="no"?>
<!DOCTYPE svg PUBLIC "-//W3C//DTD SVG 1.1//EN"
 "http://www.w3.org/Graphics/SVG/1.1/DTD/svg11.dtd">
<!-- Generated by graphviz version 9.0.0 (20230911.1827)
 -->
<!-- Title: /github/workspace/dev_area/sourcecode/datahandlinglibs/include/datahandlinglibs/concepts/SourceConcept.hpp Pages: 1 -->
<svg width="724pt" height="228pt"
 viewBox="0.00 0.00 724.25 227.75" xmlns="http://www.w3.org/2000/svg" xmlns:xlink="http://www.w3.org/1999/xlink">
<g id="graph0" class="graph" transform="scale(1 1) rotate(0) translate(4 223.75)">
<title>/github/workspace/dev_area/sourcecode/datahandlinglibs/include/datahandlinglibs/concepts/SourceConcept.hpp</title>
<!-- Node1 -->
<g id="Node000001" class="node">
<title>Node1</title>
<g id="a_Node000001"><a xlink:title=" ">
<polygon fill="#999999" stroke="#666666" points="436,-219.75 270,-219.75 270,-166.75 436,-166.75 436,-219.75"/>
<text text-anchor="start" x="278" y="-206.25" font-family="Helvetica,sans-Serif" font-size="10.00">/github/workspace/dev</text>
<text text-anchor="start" x="278" y="-195" font-family="Helvetica,sans-Serif" font-size="10.00">_area/sourcecode/datahandlinglibs</text>
<text text-anchor="start" x="278" y="-183.75" font-family="Helvetica,sans-Serif" font-size="10.00">/include/datahandlinglibs/concepts</text>
<text text-anchor="middle" x="353" y="-172.5" font-family="Helvetica,sans-Serif" font-size="10.00">/SourceConcept.hpp</text>
</a>
</g>
</g>
<!-- Node2 -->
<g id="Node000002" class="node">
<title>Node2</title>
<g id="a_Node000002"><a xlink:href="DataSubscriberModel_8hpp.html" target="_top" xlink:title=" ">
<polygon fill="white" stroke="#666666" points="166,-130.75 0,-130.75 0,-77.75 166,-77.75 166,-130.75"/>
<text text-anchor="start" x="8" y="-117.25" font-family="Helvetica,sans-Serif" font-size="10.00">/github/workspace/dev</text>
<text text-anchor="start" x="8" y="-106" font-family="Helvetica,sans-Serif" font-size="10.00">_area/sourcecode/datahandlinglibs</text>
<text text-anchor="start" x="8" y="-94.75" font-family="Helvetica,sans-Serif" font-size="10.00">/include/datahandlinglibs/models</text>
<text text-anchor="middle" x="83" y="-83.5" font-family="Helvetica,sans-Serif" font-size="10.00">/DataSubscriberModel.hpp</text>
</a>
</g>
</g>
<!-- Node1&#45;&gt;Node2 -->
<g id="edge1_Node000001_Node000002" class="edge">
<title>Node1&#45;&gt;Node2</title>
<g id="a_edge1_Node000001_Node000002"><a xlink:title=" ">
<path fill="none" stroke="#63b8ff" d="M261.68,-162.83C229.76,-152.54 194.18,-141.07 163.23,-131.1"/>
<polygon fill="#63b8ff" stroke="#63b8ff" points="260.32,-166.07 270.92,-165.8 262.47,-159.4 260.32,-166.07"/>
</a>
</g>
</g>
<!-- Node4 -->
<g id="Node000004" class="node">
<title>Node4</title>
<g id="a_Node000004"><a xlink:href="HSISourceModel_8hpp.html" target="_top" xlink:title=" ">
<polygon fill="white" stroke="#666666" points="341.88,-125.12 184.12,-125.12 184.12,-83.38 341.88,-83.38 341.88,-125.12"/>
<text text-anchor="start" x="192.12" y="-111.62" font-family="Helvetica,sans-Serif" font-size="10.00">/github/workspace/dev</text>
<text text-anchor="start" x="192.12" y="-100.38" font-family="Helvetica,sans-Serif" font-size="10.00">_area/sourcecode/trigger</text>
<text text-anchor="middle" x="263" y="-89.12" font-family="Helvetica,sans-Serif" font-size="10.00">/src/trigger/HSISourceModel.hpp</text>
</a>
</g>
</g>
<!-- Node1&#45;&gt;Node4 -->
<g id="edge3_Node000001_Node000004" class="edge">
<title>Node1&#45;&gt;Node4</title>
<g id="a_edge3_Node000001_Node000004"><a xlink:title=" ">
<path fill="none" stroke="#63b8ff" d="M318.26,-158.67C306.67,-147.46 294.12,-135.33 283.91,-125.46"/>
<polygon fill="#63b8ff" stroke="#63b8ff" points="315.77,-161.13 325.4,-165.57 320.64,-156.1 315.77,-161.13"/>
</a>
</g>
</g>
<!-- Node5 -->
<g id="Node000005" class="node">
<title>Node5</title>
<g id="a_Node000005"><a xlink:href="TPSetSourceModel_8hpp.html" target="_top" xlink:title=" ">
<polygon fill="white" stroke="#666666" points="528.12,-125.12 359.88,-125.12 359.88,-83.38 528.12,-83.38 528.12,-125.12"/>
<text text-anchor="start" x="367.88" y="-111.62" font-family="Helvetica,sans-Serif" font-size="10.00">/github/workspace/dev</text>
<text text-anchor="start" x="367.88" y="-100.38" font-family="Helvetica,sans-Serif" font-size="10.00">_area/sourcecode/trigger</text>
<text text-anchor="middle" x="444" y="-89.12" font-family="Helvetica,sans-Serif" font-size="10.00">/src/trigger/TPSetSourceModel.hpp</text>
</a>
</g>
</g>
<!-- Node1&#45;&gt;Node5 -->
<g id="edge4_Node000001_Node000005" class="edge">
<title>Node1&#45;&gt;Node5</title>
<g id="a_edge4_Node000001_Node000005"><a xlink:title=" ">
<path fill="none" stroke="#63b8ff" d="M388.13,-158.67C399.85,-147.46 412.54,-135.33 422.86,-125.46"/>
<polygon fill="#63b8ff" stroke="#63b8ff" points="385.71,-156.13 380.9,-165.57 390.55,-161.19 385.71,-156.13"/>
</a>
</g>
</g>
<!-- Node6 -->
<g id="Node000006" class="node">
<title>Node6</title>
<g id="a_Node000006"><a xlink:href="TriggerSourceModel_8hpp.html" target="_top" xlink:title=" ">
<polygon fill="white" stroke="#666666" points="716.25,-125.12 545.75,-125.12 545.75,-83.38 716.25,-83.38 716.25,-125.12"/>
<text text-anchor="start" x="553.75" y="-111.62" font-family="Helvetica,sans-Serif" font-size="10.00">/github/workspace/dev</text>
<text text-anchor="start" x="553.75" y="-100.38" font-family="Helvetica,sans-Serif" font-size="10.00">_area/sourcecode/trigger</text>
<text text-anchor="middle" x="631" y="-89.12" font-family="Helvetica,sans-Serif" font-size="10.00">/src/trigger/TriggerSourceModel.hpp</text>
</a>
</g>
</g>
<!-- Node1&#45;&gt;Node6 -->
<g id="edge5_Node000001_Node000006" class="edge">
<title>Node1&#45;&gt;Node6</title>
<g id="a_edge5_Node000001_Node000006"><a xlink:title=" ">
<path fill="none" stroke="#63b8ff" d="M446.92,-162.86C486.08,-150.6 530.59,-136.67 566.03,-125.58"/>
<polygon fill="#63b8ff" stroke="#63b8ff" points="445.98,-159.49 437.48,-165.81 448.07,-166.17 445.98,-159.49"/>
</a>
</g>
</g>
<!-- Node3 -->
<g id="Node000003" class="node">
<title>Node3</title>
<g id="a_Node000003"><a xlink:href="Readoutlibs_8cpp.html" target="_top" xlink:title=" ">
<polygon fill="white" stroke="#666666" points="166,-41.75 0,-41.75 0,0 166,0 166,-41.75"/>
<text text-anchor="start" x="8" y="-28.25" font-family="Helvetica,sans-Serif" font-size="10.00">/github/workspace/dev</text>
<text text-anchor="start" x="8" y="-17" font-family="Helvetica,sans-Serif" font-size="10.00">_area/sourcecode/datahandlinglibs</text>
<text text-anchor="middle" x="83" y="-5.75" font-family="Helvetica,sans-Serif" font-size="10.00">/src/Readoutlibs.cpp</text>
</a>
</g>
</g>
<!-- Node2&#45;&gt;Node3 -->
<g id="edge2_Node000002_Node000003" class="edge">
<title>Node2&#45;&gt;Node3</title>
<g id="a_edge2_Node000002_Node000003"><a xlink:title=" ">
<path fill="none" stroke="#63b8ff" d="M83,-66.08C83,-57.8 83,-49.33 83,-42.04"/>
<polygon fill="#63b8ff" stroke="#63b8ff" points="79.5,-65.99 83,-75.99 86.5,-65.99 79.5,-65.99"/>
</a>
</g>
</g>
</g>
</svg>
