<?xml version="1.0" encoding="UTF-8" standalone="no"?>
<!DOCTYPE svg PUBLIC "-//W3C//DTD SVG 1.1//EN"
 "http://www.w3.org/Graphics/SVG/1.1/DTD/svg11.dtd">
<!-- Generated by graphviz version 9.0.0 (20230911.1827)
 -->
<!-- Title: /github/workspace/dev_area/sourcecode/datahandlinglibs/include/datahandlinglibs/utils/ReusableThread.hpp Pages: 1 -->
<svg width="484pt" height="116pt"
 viewBox="0.00 0.00 484.12 116.25" xmlns="http://www.w3.org/2000/svg" xmlns:xlink="http://www.w3.org/1999/xlink">
<g id="graph0" class="graph" transform="scale(1 1) rotate(0) translate(4 112.25)">
<title>/github/workspace/dev_area/sourcecode/datahandlinglibs/include/datahandlinglibs/utils/ReusableThread.hpp</title>
<!-- Node1 -->
<g id="Node000001" class="node">
<title>Node1</title>
<g id="a_Node000001"><a xlink:title=" ">
<polygon fill="#999999" stroke="#666666" points="350.62,-108.25 184.62,-108.25 184.62,-55.25 350.62,-55.25 350.62,-108.25"/>
<text text-anchor="start" x="192.62" y="-94.75" font-family="Helvetica,sans-Serif" font-size="10.00">/github/workspace/dev</text>
<text text-anchor="start" x="192.62" y="-83.5" font-family="Helvetica,sans-Serif" font-size="10.00">_area/sourcecode/datahandlinglibs</text>
<text text-anchor="start" x="192.62" y="-72.25" font-family="Helvetica,sans-Serif" font-size="10.00">/include/datahandlinglibs/utils</text>
<text text-anchor="middle" x="267.62" y="-61" font-family="Helvetica,sans-Serif" font-size="10.00">/ReusableThread.hpp</text>
</a>
</g>
</g>
<!-- Node2 -->
<g id="Node000002" class="node">
<title>Node2</title>
<g id="a_Node000002"><a xlink:title=" ">
<polygon fill="#e0e0e0" stroke="#999999" points="45.25,-19.25 0,-19.25 0,0 45.25,0 45.25,-19.25"/>
<text text-anchor="middle" x="22.62" y="-5.75" font-family="Helvetica,sans-Serif" font-size="10.00">atomic</text>
</a>
</g>
</g>
<!-- Node1&#45;&gt;Node2 -->
<g id="edge1_Node000001_Node000002" class="edge">
<title>Node1&#45;&gt;Node2</title>
<g id="a_edge1_Node000001_Node000002"><a xlink:title=" ">
<path fill="none" stroke="#63b8ff" d="M184.34,-56.91C140.53,-44.37 89.25,-29.69 56.38,-20.29"/>
<polygon fill="#63b8ff" stroke="#63b8ff" points="57.59,-16.99 47.01,-17.61 55.66,-23.72 57.59,-16.99"/>
</a>
</g>
</g>
<!-- Node3 -->
<g id="Node000003" class="node">
<title>Node3</title>
<g id="a_Node000003"><a xlink:title=" ">
<polygon fill="#e0e0e0" stroke="#999999" points="108.25,-19.25 63,-19.25 63,0 108.25,0 108.25,-19.25"/>
<text text-anchor="middle" x="85.62" y="-5.75" font-family="Helvetica,sans-Serif" font-size="10.00">chrono</text>
</a>
</g>
</g>
<!-- Node1&#45;&gt;Node3 -->
<g id="edge2_Node000001_Node000003" class="edge">
<title>Node1&#45;&gt;Node3</title>
<g id="a_edge2_Node000001_Node000003"><a xlink:title=" ">
<path fill="none" stroke="#63b8ff" d="M200.37,-54.84C172.7,-44.18 141.88,-32.3 119.15,-23.54"/>
<polygon fill="#63b8ff" stroke="#63b8ff" points="120.7,-20.39 110.11,-20.06 118.18,-26.92 120.7,-20.39"/>
</a>
</g>
</g>
<!-- Node4 -->
<g id="Node000004" class="node">
<title>Node4</title>
<g id="a_Node000004"><a xlink:title=" ">
<polygon fill="#e0e0e0" stroke="#999999" points="220.62,-19.25 126.62,-19.25 126.62,0 220.62,0 220.62,-19.25"/>
<text text-anchor="middle" x="173.62" y="-5.75" font-family="Helvetica,sans-Serif" font-size="10.00">condition_variable</text>
</a>
</g>
</g>
<!-- Node1&#45;&gt;Node4 -->
<g id="edge3_Node000001_Node000004" class="edge">
<title>Node1&#45;&gt;Node4</title>
<g id="a_edge3_Node000001_Node000004"><a xlink:title=" ">
<path fill="none" stroke="#63b8ff" d="M232.89,-54.84C220.11,-45.3 206.02,-34.8 194.79,-26.42"/>
<polygon fill="#63b8ff" stroke="#63b8ff" points="197.09,-23.76 186.98,-20.59 192.9,-29.37 197.09,-23.76"/>
</a>
</g>
</g>
<!-- Node5 -->
<g id="Node000005" class="node">
<title>Node5</title>
<g id="a_Node000005"><a xlink:title=" ">
<polygon fill="#e0e0e0" stroke="#999999" points="296.62,-19.25 238.62,-19.25 238.62,0 296.62,0 296.62,-19.25"/>
<text text-anchor="middle" x="267.62" y="-5.75" font-family="Helvetica,sans-Serif" font-size="10.00">functional</text>
</a>
</g>
</g>
<!-- Node1&#45;&gt;Node5 -->
<g id="edge4_Node000001_Node000005" class="edge">
<title>Node1&#45;&gt;Node5</title>
<g id="a_edge4_Node000001_Node000005"><a xlink:title=" ">
<path fill="none" stroke="#63b8ff" d="M267.62,-55.04C267.62,-47.12 267.62,-38.52 267.62,-31.02"/>
<polygon fill="#63b8ff" stroke="#63b8ff" points="271.13,-31.25 267.63,-21.25 264.13,-31.25 271.13,-31.25"/>
</a>
</g>
</g>
<!-- Node6 -->
<g id="Node000006" class="node">
<title>Node6</title>
<g id="a_Node000006"><a xlink:title=" ">
<polygon fill="#e0e0e0" stroke="#999999" points="356.75,-19.25 314.5,-19.25 314.5,0 356.75,0 356.75,-19.25"/>
<text text-anchor="middle" x="335.62" y="-5.75" font-family="Helvetica,sans-Serif" font-size="10.00">mutex</text>
</a>
</g>
</g>
<!-- Node1&#45;&gt;Node6 -->
<g id="edge5_Node000001_Node000006" class="edge">
<title>Node1&#45;&gt;Node6</title>
<g id="a_edge5_Node000001_Node000006"><a xlink:title=" ">
<path fill="none" stroke="#63b8ff" d="M292.56,-55.04C301.36,-45.97 311.03,-35.99 318.97,-27.8"/>
<polygon fill="#63b8ff" stroke="#63b8ff" points="321.29,-30.44 325.74,-20.82 316.26,-25.57 321.29,-30.44"/>
</a>
</g>
</g>
<!-- Node7 -->
<g id="Node000007" class="node">
<title>Node7</title>
<g id="a_Node000007"><a xlink:title=" ">
<polygon fill="#e0e0e0" stroke="#999999" points="414.62,-19.25 374.62,-19.25 374.62,0 414.62,0 414.62,-19.25"/>
<text text-anchor="middle" x="394.62" y="-5.75" font-family="Helvetica,sans-Serif" font-size="10.00">string</text>
</a>
</g>
</g>
<!-- Node1&#45;&gt;Node7 -->
<g id="edge6_Node000001_Node000007" class="edge">
<title>Node1&#45;&gt;Node7</title>
<g id="a_edge6_Node000001_Node000007"><a xlink:title=" ">
<path fill="none" stroke="#63b8ff" d="M314.55,-54.84C332.7,-44.82 352.78,-33.73 368.29,-25.17"/>
<polygon fill="#63b8ff" stroke="#63b8ff" points="369.84,-28.31 376.9,-20.41 366.45,-22.18 369.84,-28.31"/>
</a>
</g>
</g>
<!-- Node8 -->
<g id="Node000008" class="node">
<title>Node8</title>
<g id="a_Node000008"><a xlink:title=" ">
<polygon fill="#e0e0e0" stroke="#999999" points="476.12,-19.25 433.12,-19.25 433.12,0 476.12,0 476.12,-19.25"/>
<text text-anchor="middle" x="454.62" y="-5.75" font-family="Helvetica,sans-Serif" font-size="10.00">thread</text>
</a>
</g>
</g>
<!-- Node1&#45;&gt;Node8 -->
<g id="edge7_Node000001_Node000008" class="edge">
<title>Node1&#45;&gt;Node8</title>
<g id="a_edge7_Node000001_Node000008"><a xlink:title=" ">
<path fill="none" stroke="#63b8ff" d="M336.73,-54.84C365.87,-43.91 398.42,-31.7 421.92,-22.89"/>
<polygon fill="#63b8ff" stroke="#63b8ff" points="423.13,-26.17 431.26,-19.39 420.67,-19.62 423.13,-26.17"/>
</a>
</g>
</g>
</g>
</svg>
