<?xml version="1.0" encoding="UTF-8" standalone="no"?>
<!DOCTYPE svg PUBLIC "-//W3C//DTD SVG 1.1//EN"
 "http://www.w3.org/Graphics/SVG/1.1/DTD/svg11.dtd">
<!-- Generated by graphviz version 9.0.0 (20230911.1827)
 -->
<!-- Title: /github/workspace/dev_area/sourcecode/triggeralgs/include/triggeralgs/dbscan/dbscan.hpp Pages: 1 -->
<svg width="524pt" height="228pt"
 viewBox="0.00 0.00 523.50 227.75" xmlns="http://www.w3.org/2000/svg" xmlns:xlink="http://www.w3.org/1999/xlink">
<g id="graph0" class="graph" transform="scale(1 1) rotate(0) translate(4 223.75)">
<title>/github/workspace/dev_area/sourcecode/triggeralgs/include/triggeralgs/dbscan/dbscan.hpp</title>
<!-- Node1 -->
<g id="Node000001" class="node">
<title>Node1</title>
<g id="a_Node000001"><a xlink:title=" ">
<polygon fill="#999999" stroke="#666666" points="347.5,-219.75 206.25,-219.75 206.25,-166.75 347.5,-166.75 347.5,-219.75"/>
<text text-anchor="start" x="214.25" y="-206.25" font-family="Helvetica,sans-Serif" font-size="10.00">/github/workspace/dev</text>
<text text-anchor="start" x="214.25" y="-195" font-family="Helvetica,sans-Serif" font-size="10.00">_area/sourcecode/triggeralgs</text>
<text text-anchor="start" x="214.25" y="-183.75" font-family="Helvetica,sans-Serif" font-size="10.00">/include/triggeralgs/dbscan</text>
<text text-anchor="middle" x="276.88" y="-172.5" font-family="Helvetica,sans-Serif" font-size="10.00">/dbscan.hpp</text>
</a>
</g>
</g>
<!-- Node2 -->
<g id="Node000002" class="node">
<title>Node2</title>
<g id="a_Node000002"><a xlink:href="sourcecode_2triggeralgs_2include_2triggeralgs_2dbscan_2TAMakerDBSCANAlgorithm_8hpp.html" target="_top" xlink:title=" ">
<polygon fill="white" stroke="#666666" points="175.5,-130.75 16.25,-130.75 16.25,-77.75 175.5,-77.75 175.5,-130.75"/>
<text text-anchor="start" x="24.25" y="-117.25" font-family="Helvetica,sans-Serif" font-size="10.00">/github/workspace/dev</text>
<text text-anchor="start" x="24.25" y="-106" font-family="Helvetica,sans-Serif" font-size="10.00">_area/sourcecode/triggeralgs</text>
<text text-anchor="start" x="24.25" y="-94.75" font-family="Helvetica,sans-Serif" font-size="10.00">/include/triggeralgs/dbscan</text>
<text text-anchor="middle" x="95.88" y="-83.5" font-family="Helvetica,sans-Serif" font-size="10.00">/TAMakerDBSCANAlgorithm.hpp</text>
</a>
</g>
</g>
<!-- Node1&#45;&gt;Node2 -->
<g id="edge1_Node000001_Node000002" class="edge">
<title>Node1&#45;&gt;Node2</title>
<g id="a_edge1_Node000001_Node000002"><a xlink:title=" ">
<path fill="none" stroke="#63b8ff" d="M212.81,-161.46C192.21,-151.55 169.6,-140.69 149.8,-131.17"/>
<polygon fill="#63b8ff" stroke="#63b8ff" points="211.17,-164.55 221.69,-165.73 214.2,-158.24 211.17,-164.55"/>
</a>
</g>
</g>
<!-- Node4 -->
<g id="Node000004" class="node">
<title>Node4</title>
<g id="a_Node000004"><a xlink:href="sourcecode_2triggeralgs_2include_2triggeralgs_2dbscan_2TCMakerDBSCANAlgorithm_8hpp.html" target="_top" xlink:title=" ">
<polygon fill="white" stroke="#666666" points="356.5,-130.75 197.25,-130.75 197.25,-77.75 356.5,-77.75 356.5,-130.75"/>
<text text-anchor="start" x="205.25" y="-117.25" font-family="Helvetica,sans-Serif" font-size="10.00">/github/workspace/dev</text>
<text text-anchor="start" x="205.25" y="-106" font-family="Helvetica,sans-Serif" font-size="10.00">_area/sourcecode/triggeralgs</text>
<text text-anchor="start" x="205.25" y="-94.75" font-family="Helvetica,sans-Serif" font-size="10.00">/include/triggeralgs/dbscan</text>
<text text-anchor="middle" x="276.88" y="-83.5" font-family="Helvetica,sans-Serif" font-size="10.00">/TCMakerDBSCANAlgorithm.hpp</text>
</a>
</g>
</g>
<!-- Node1&#45;&gt;Node4 -->
<g id="edge3_Node000001_Node000004" class="edge">
<title>Node1&#45;&gt;Node4</title>
<g id="a_edge3_Node000001_Node000004"><a xlink:title=" ">
<path fill="none" stroke="#63b8ff" d="M276.88,-155.36C276.88,-147.16 276.88,-138.64 276.88,-131"/>
<polygon fill="#63b8ff" stroke="#63b8ff" points="273.38,-155.1 276.88,-165.1 280.38,-155.1 273.38,-155.1"/>
</a>
</g>
</g>
<!-- Node6 -->
<g id="Node000006" class="node">
<title>Node6</title>
<g id="a_Node000006"><a xlink:href="dbscan_8cpp.html" target="_top" xlink:title=" ">
<polygon fill="white" stroke="#666666" points="515.5,-125.12 374.25,-125.12 374.25,-83.38 515.5,-83.38 515.5,-125.12"/>
<text text-anchor="start" x="382.25" y="-111.62" font-family="Helvetica,sans-Serif" font-size="10.00">/github/workspace/dev</text>
<text text-anchor="start" x="382.25" y="-100.38" font-family="Helvetica,sans-Serif" font-size="10.00">_area/sourcecode/triggeralgs</text>
<text text-anchor="middle" x="444.88" y="-89.12" font-family="Helvetica,sans-Serif" font-size="10.00">/src/dbscan/dbscan.cpp</text>
</a>
</g>
</g>
<!-- Node1&#45;&gt;Node6 -->
<g id="edge5_Node000001_Node000006" class="edge">
<title>Node1&#45;&gt;Node6</title>
<g id="a_edge5_Node000001_Node000006"><a xlink:title=" ">
<path fill="none" stroke="#63b8ff" d="M336.81,-161.21C359.74,-149.34 385.29,-136.11 405.78,-125.5"/>
<polygon fill="#63b8ff" stroke="#63b8ff" points="335.44,-157.98 328.17,-165.69 338.66,-164.2 335.44,-157.98"/>
</a>
</g>
</g>
<!-- Node3 -->
<g id="Node000003" class="node">
<title>Node3</title>
<g id="a_Node000003"><a xlink:href="sourcecode_2triggeralgs_2src_2TAMakerDBSCANAlgorithm_8cpp.html" target="_top" xlink:title=" ">
<polygon fill="white" stroke="#666666" points="175.75,-41.75 0,-41.75 0,0 175.75,0 175.75,-41.75"/>
<text text-anchor="start" x="8" y="-28.25" font-family="Helvetica,sans-Serif" font-size="10.00">/github/workspace/dev</text>
<text text-anchor="start" x="8" y="-17" font-family="Helvetica,sans-Serif" font-size="10.00">_area/sourcecode/triggeralgs</text>
<text text-anchor="middle" x="87.88" y="-5.75" font-family="Helvetica,sans-Serif" font-size="10.00">/src/TAMakerDBSCANAlgorithm.cpp</text>
</a>
</g>
</g>
<!-- Node2&#45;&gt;Node3 -->
<g id="edge2_Node000002_Node000003" class="edge">
<title>Node2&#45;&gt;Node3</title>
<g id="a_edge2_Node000002_Node000003"><a xlink:title=" ">
<path fill="none" stroke="#63b8ff" d="M92.22,-66.08C91.41,-57.8 90.57,-49.33 89.86,-42.04"/>
<polygon fill="#63b8ff" stroke="#63b8ff" points="88.73,-66.39 93.2,-76 95.7,-65.7 88.73,-66.39"/>
</a>
</g>
</g>
<!-- Node5 -->
<g id="Node000005" class="node">
<title>Node5</title>
<g id="a_Node000005"><a xlink:href="sourcecode_2triggeralgs_2src_2TCMakerDBSCANAlgorithm_8cpp.html" target="_top" xlink:title=" ">
<polygon fill="white" stroke="#666666" points="369.75,-41.75 194,-41.75 194,0 369.75,0 369.75,-41.75"/>
<text text-anchor="start" x="202" y="-28.25" font-family="Helvetica,sans-Serif" font-size="10.00">/github/workspace/dev</text>
<text text-anchor="start" x="202" y="-17" font-family="Helvetica,sans-Serif" font-size="10.00">_area/sourcecode/triggeralgs</text>
<text text-anchor="middle" x="281.88" y="-5.75" font-family="Helvetica,sans-Serif" font-size="10.00">/src/TCMakerDBSCANAlgorithm.cpp</text>
</a>
</g>
</g>
<!-- Node4&#45;&gt;Node5 -->
<g id="edge4_Node000004_Node000005" class="edge">
<title>Node4&#45;&gt;Node5</title>
<g id="a_edge4_Node000004_Node000005"><a xlink:title=" ">
<path fill="none" stroke="#63b8ff" d="M279.16,-66.08C279.67,-57.8 280.19,-49.33 280.64,-42.04"/>
<polygon fill="#63b8ff" stroke="#63b8ff" points="275.67,-65.8 278.55,-75.99 282.66,-66.23 275.67,-65.8"/>
</a>
</g>
</g>
</g>
</svg>
