<?xml version="1.0" encoding="UTF-8" standalone="no"?>
<!DOCTYPE svg PUBLIC "-//W3C//DTD SVG 1.1//EN"
 "http://www.w3.org/Graphics/SVG/1.1/DTD/svg11.dtd">
<!-- Generated by graphviz version 9.0.0 (20230911.1827)
 -->
<!-- Title: /github/workspace/dev_area/sourcecode/sspmodules/src/anlBoard/DeviceManager.hpp Pages: 1 -->
<svg width="996pt" height="216pt"
 viewBox="0.00 0.00 996.38 215.50" xmlns="http://www.w3.org/2000/svg" xmlns:xlink="http://www.w3.org/1999/xlink">
<g id="graph0" class="graph" transform="scale(1 1) rotate(0) translate(4 211.5)">
<title>/github/workspace/dev_area/sourcecode/sspmodules/src/anlBoard/DeviceManager.hpp</title>
<!-- Node1 -->
<g id="Node000001" class="node">
<title>Node1</title>
<g id="a_Node000001"><a xlink:title=" ">
<polygon fill="#999999" stroke="#666666" points="748.25,-207.5 586,-207.5 586,-165.75 748.25,-165.75 748.25,-207.5"/>
<text text-anchor="start" x="594" y="-194" font-family="Helvetica,sans-Serif" font-size="10.00">/github/workspace/dev</text>
<text text-anchor="start" x="594" y="-182.75" font-family="Helvetica,sans-Serif" font-size="10.00">_area/sourcecode/sspmodules</text>
<text text-anchor="middle" x="667.12" y="-171.5" font-family="Helvetica,sans-Serif" font-size="10.00">/src/anlBoard/DeviceManager.hpp</text>
</a>
</g>
</g>
<!-- Node2 -->
<g id="Node000002" class="node">
<title>Node2</title>
<g id="a_Node000002"><a xlink:href="EthernetDevice_8hpp.html" target="_top" xlink:title=" ">
<polygon fill="white" stroke="#666666" points="453.12,-129.75 353.12,-129.75 353.12,-110.5 453.12,-110.5 453.12,-129.75"/>
<text text-anchor="middle" x="403.12" y="-116.25" font-family="Helvetica,sans-Serif" font-size="10.00">EthernetDevice.hpp</text>
</a>
</g>
</g>
<!-- Node1&#45;&gt;Node2 -->
<g id="edge1_Node000001_Node000002" class="edge">
<title>Node1&#45;&gt;Node2</title>
<g id="a_edge1_Node000001_Node000002"><a xlink:title=" ">
<path fill="none" stroke="#63b8ff" d="M585.76,-165.75C541.83,-155.01 489.07,-142.12 451.58,-132.96"/>
<polygon fill="#63b8ff" stroke="#63b8ff" points="452.47,-129.58 441.93,-130.61 450.81,-136.38 452.47,-129.58"/>
</a>
</g>
</g>
<!-- Node6 -->
<g id="Node000006" class="node">
<title>Node6</title>
<g id="a_Node000006"><a xlink:title=" ">
<polygon fill="#e0e0e0" stroke="#999999" points="42.25,-19.25 0,-19.25 0,0 42.25,0 42.25,-19.25"/>
<text text-anchor="middle" x="21.12" y="-5.75" font-family="Helvetica,sans-Serif" font-size="10.00">cstdio</text>
</a>
</g>
</g>
<!-- Node1&#45;&gt;Node6 -->
<g id="edge28_Node000001_Node000006" class="edge">
<title>Node1&#45;&gt;Node6</title>
<g id="a_edge28_Node000001_Node000006"><a xlink:title=" ">
<path fill="none" stroke="#63b8ff" d="M585.51,-181.57C462.9,-174.64 237.52,-158.41 162.12,-129.75 106.66,-108.67 57.66,-55.76 34.8,-28.1"/>
<polygon fill="#63b8ff" stroke="#63b8ff" points="37.78,-26.22 28.78,-20.63 32.33,-30.62 37.78,-26.22"/>
</a>
</g>
</g>
<!-- Node7 -->
<g id="Node000007" class="node">
<title>Node7</title>
<g id="a_Node000007"><a xlink:title=" ">
<polygon fill="#e0e0e0" stroke="#999999" points="119.75,-19.25 74.5,-19.25 74.5,0 119.75,0 119.75,-19.25"/>
<text text-anchor="middle" x="97.12" y="-5.75" font-family="Helvetica,sans-Serif" font-size="10.00">cstring</text>
</a>
</g>
</g>
<!-- Node1&#45;&gt;Node7 -->
<g id="edge29_Node000001_Node000007" class="edge">
<title>Node1&#45;&gt;Node7</title>
<g id="a_edge29_Node000001_Node000007"><a xlink:title=" ">
<path fill="none" stroke="#63b8ff" d="M585.78,-180.37C472.98,-172.29 275.37,-155.05 208.12,-129.75 167.34,-114.4 155.39,-107.67 127.12,-74.5 116.06,-61.52 108.16,-43.76 103.25,-30.27"/>
<polygon fill="#63b8ff" stroke="#63b8ff" points="106.7,-29.53 100.19,-21.17 100.06,-31.76 106.7,-29.53"/>
</a>
</g>
</g>
<!-- Node8 -->
<g id="Node000008" class="node">
<title>Node8</title>
<g id="a_Node000008"><a xlink:title=" ">
<polygon fill="#e0e0e0" stroke="#999999" points="360,-19.25 310.25,-19.25 310.25,0 360,0 360,-19.25"/>
<text text-anchor="middle" x="335.12" y="-5.75" font-family="Helvetica,sans-Serif" font-size="10.00">iomanip</text>
</a>
</g>
</g>
<!-- Node1&#45;&gt;Node8 -->
<g id="edge25_Node000001_Node000008" class="edge">
<title>Node1&#45;&gt;Node8</title>
<g id="a_edge25_Node000001_Node000008"><a xlink:title=" ">
<path fill="none" stroke="#63b8ff" d="M585.5,-180.53C454.09,-170.38 205.14,-142.46 154.12,-74.5 148.99,-67.66 148.85,-61.98 154.12,-55.25 171.74,-32.76 251.14,-20.07 298.73,-14.35"/>
<polygon fill="#63b8ff" stroke="#63b8ff" points="299.05,-17.84 308.58,-13.22 298.25,-10.89 299.05,-17.84"/>
</a>
</g>
</g>
<!-- Node9 -->
<g id="Node000009" class="node">
<title>Node9</title>
<g id="a_Node000009"><a xlink:title=" ">
<polygon fill="#e0e0e0" stroke="#999999" points="459.88,-19.25 406.38,-19.25 406.38,0 459.88,0 459.88,-19.25"/>
<text text-anchor="middle" x="433.12" y="-5.75" font-family="Helvetica,sans-Serif" font-size="10.00">iostream</text>
</a>
</g>
</g>
<!-- Node1&#45;&gt;Node9 -->
<g id="edge24_Node000001_Node000009" class="edge">
<title>Node1&#45;&gt;Node9</title>
<g id="a_edge24_Node000001_Node000009"><a xlink:title=" ">
<path fill="none" stroke="#63b8ff" d="M657.37,-165.32C642.62,-136.69 611.95,-84.67 571.12,-55.25 541.37,-33.81 500.8,-22.32 471.35,-16.4"/>
<polygon fill="#63b8ff" stroke="#63b8ff" points="472.22,-13 461.75,-14.6 470.94,-19.88 472.22,-13"/>
</a>
</g>
</g>
<!-- Node10 -->
<g id="Node000010" class="node">
<title>Node10</title>
<g id="a_Node000010"><a xlink:title=" ">
<polygon fill="#e0e0e0" stroke="#999999" points="873.88,-19.25 826.38,-19.25 826.38,0 873.88,0 873.88,-19.25"/>
<text text-anchor="middle" x="850.12" y="-5.75" font-family="Helvetica,sans-Serif" font-size="10.00">stdint.h</text>
</a>
</g>
</g>
<!-- Node1&#45;&gt;Node10 -->
<g id="edge27_Node000001_Node000010" class="edge">
<title>Node1&#45;&gt;Node10</title>
<g id="a_edge27_Node000001_Node000010"><a xlink:title=" ">
<path fill="none" stroke="#63b8ff" d="M688.12,-165.55C724.66,-130.61 799.27,-59.26 832.95,-27.05"/>
<polygon fill="#63b8ff" stroke="#63b8ff" points="835.04,-29.9 839.85,-20.45 830.2,-24.84 835.04,-29.9"/>
</a>
</g>
</g>
<!-- Node11 -->
<g id="Node000011" class="node">
<title>Node11</title>
<g id="a_Node000011"><a xlink:title=" ">
<polygon fill="#e0e0e0" stroke="#999999" points="801.12,-19.25 761.12,-19.25 761.12,0 801.12,0 801.12,-19.25"/>
<text text-anchor="middle" x="781.12" y="-5.75" font-family="Helvetica,sans-Serif" font-size="10.00">string</text>
</a>
</g>
</g>
<!-- Node1&#45;&gt;Node11 -->
<g id="edge26_Node000001_Node000011" class="edge">
<title>Node1&#45;&gt;Node11</title>
<g id="a_edge26_Node000001_Node000011"><a xlink:title=" ">
<path fill="none" stroke="#63b8ff" d="M680.2,-165.55C702.58,-131.2 747.87,-61.68 769.33,-28.73"/>
<polygon fill="#63b8ff" stroke="#63b8ff" points="772.05,-30.97 774.58,-20.68 766.19,-27.14 772.05,-30.97"/>
</a>
</g>
</g>
<!-- Node12 -->
<g id="Node000012" class="node">
<title>Node12</title>
<g id="a_Node000012"><a xlink:title=" ">
<polygon fill="#e0e0e0" stroke="#999999" points="654,-19.25 604.25,-19.25 604.25,0 654,0 654,-19.25"/>
<text text-anchor="middle" x="629.12" y="-5.75" font-family="Helvetica,sans-Serif" font-size="10.00">unistd.h</text>
</a>
</g>
</g>
<!-- Node1&#45;&gt;Node12 -->
<g id="edge30_Node000001_Node000012" class="edge">
<title>Node1&#45;&gt;Node12</title>
<g id="a_edge30_Node000001_Node000012"><a xlink:title=" ">
<path fill="none" stroke="#63b8ff" d="M662.77,-165.55C655.44,-131.8 640.73,-64.08 633.44,-30.47"/>
<polygon fill="#63b8ff" stroke="#63b8ff" points="636.9,-29.92 631.35,-20.89 630.06,-31.4 636.9,-29.92"/>
</a>
</g>
</g>
<!-- Node13 -->
<g id="Node000013" class="node">
<title>Node13</title>
<g id="a_Node000013"><a xlink:title=" ">
<polygon fill="#e0e0e0" stroke="#999999" points="726.62,-19.25 683.62,-19.25 683.62,0 726.62,0 726.62,-19.25"/>
<text text-anchor="middle" x="705.12" y="-5.75" font-family="Helvetica,sans-Serif" font-size="10.00">vector</text>
</a>
</g>
</g>
<!-- Node1&#45;&gt;Node13 -->
<g id="edge22_Node000001_Node000013" class="edge">
<title>Node1&#45;&gt;Node13</title>
<g id="a_edge22_Node000001_Node000013"><a xlink:title=" ">
<path fill="none" stroke="#63b8ff" d="M672.41,-165.51C675.13,-154.9 678.44,-141.65 681.12,-129.75 688.97,-95.04 696.89,-54.35 701.39,-30.63"/>
<polygon fill="#63b8ff" stroke="#63b8ff" points="704.77,-31.58 703.18,-21.11 697.89,-30.29 704.77,-31.58"/>
</a>
</g>
</g>
<!-- Node16 -->
<g id="Node000016" class="node">
<title>Node16</title>
<g id="a_Node000016"><a xlink:title=" ">
<polygon fill="#e0e0e0" stroke="#999999" points="919.5,-129.75 884.75,-129.75 884.75,-110.5 919.5,-110.5 919.5,-129.75"/>
<text text-anchor="middle" x="902.12" y="-116.25" font-family="Helvetica,sans-Serif" font-size="10.00">map</text>
</a>
</g>
</g>
<!-- Node1&#45;&gt;Node16 -->
<g id="edge23_Node000001_Node000016" class="edge">
<title>Node1&#45;&gt;Node16</title>
<g id="a_edge23_Node000001_Node000016"><a xlink:title=" ">
<path fill="none" stroke="#63b8ff" d="M741.75,-165.26C780.38,-154.7 828.29,-141.57 871.12,-129.75 871.93,-129.53 872.75,-129.3 873.58,-129.07"/>
<polygon fill="#63b8ff" stroke="#63b8ff" points="874.26,-132.51 882.97,-126.47 872.39,-125.77 874.26,-132.51"/>
</a>
</g>
</g>
<!-- Node17 -->
<g id="Node000017" class="node">
<title>Node17</title>
<g id="a_Node000017"><a xlink:title=" ">
<polygon fill="#e0e0e0" stroke="#999999" points="988.38,-129.75 937.88,-129.75 937.88,-110.5 988.38,-110.5 988.38,-129.75"/>
<text text-anchor="middle" x="963.12" y="-116.25" font-family="Helvetica,sans-Serif" font-size="10.00">memory</text>
</a>
</g>
</g>
<!-- Node1&#45;&gt;Node17 -->
<g id="edge31_Node000001_Node000017" class="edge">
<title>Node1&#45;&gt;Node17</title>
<g id="a_edge31_Node000001_Node000017"><a xlink:title=" ">
<path fill="none" stroke="#63b8ff" d="M748.68,-168.84C797.5,-158.63 861.06,-145.07 926.57,-130.05"/>
<polygon fill="#63b8ff" stroke="#63b8ff" points="927.1,-133.52 936.06,-127.87 925.53,-126.7 927.1,-133.52"/>
</a>
</g>
</g>
<!-- Node3 -->
<g id="Node000003" class="node">
<title>Node3</title>
<g id="a_Node000003"><a xlink:href="SSPTypes_8hpp.html" target="_top" xlink:title=" ">
<polygon fill="white" stroke="#666666" points="243.38,-74.5 162.88,-74.5 162.88,-55.25 243.38,-55.25 243.38,-74.5"/>
<text text-anchor="middle" x="203.12" y="-61" font-family="Helvetica,sans-Serif" font-size="10.00">SSPTypes.hpp</text>
</a>
</g>
</g>
<!-- Node2&#45;&gt;Node3 -->
<g id="edge2_Node000002_Node000003" class="edge">
<title>Node2&#45;&gt;Node3</title>
<g id="a_edge2_Node000002_Node000003"><a xlink:title=" ">
<path fill="none" stroke="#63b8ff" d="M369.2,-110.09C335.87,-101.22 284.81,-87.62 248.11,-77.85"/>
<polygon fill="#63b8ff" stroke="#63b8ff" points="249.25,-74.53 238.68,-75.34 247.44,-81.3 249.25,-74.53"/>
</a>
</g>
</g>
<!-- Node5 -->
<g id="Node000005" class="node">
<title>Node5</title>
<g id="a_Node000005"><a xlink:href="Device_8hpp.html" target="_top" xlink:title=" ">
<polygon fill="white" stroke="#666666" points="465.12,-74.5 401.12,-74.5 401.12,-55.25 465.12,-55.25 465.12,-74.5"/>
<text text-anchor="middle" x="433.12" y="-61" font-family="Helvetica,sans-Serif" font-size="10.00">Device.hpp</text>
</a>
</g>
</g>
<!-- Node2&#45;&gt;Node5 -->
<g id="edge4_Node000002_Node000005" class="edge">
<title>Node2&#45;&gt;Node5</title>
<g id="a_edge4_Node000002_Node000005"><a xlink:title=" ">
<path fill="none" stroke="#63b8ff" d="M408.08,-110.33C412.01,-103.36 417.64,-93.37 422.56,-84.62"/>
<polygon fill="#63b8ff" stroke="#63b8ff" points="425.46,-86.61 427.32,-76.18 419.36,-83.17 425.46,-86.61"/>
</a>
</g>
</g>
<!-- Node2&#45;&gt;Node6 -->
<g id="edge18_Node000002_Node000006" class="edge">
<title>Node2&#45;&gt;Node6</title>
<g id="a_edge18_Node000002_Node000006"><a xlink:title=" ">
<path fill="none" stroke="#63b8ff" d="M352.82,-116.74C296.37,-112.76 202.78,-102.23 127.12,-74.5 95.23,-62.81 62.29,-41.19 41.77,-26.37"/>
<polygon fill="#63b8ff" stroke="#63b8ff" points="44.1,-23.73 33.97,-20.61 39.94,-29.37 44.1,-23.73"/>
</a>
</g>
</g>
<!-- Node2&#45;&gt;Node7 -->
<g id="edge19_Node000002_Node000007" class="edge">
<title>Node2&#45;&gt;Node7</title>
<g id="a_edge19_Node000002_Node000007"><a xlink:title=" ">
<path fill="none" stroke="#63b8ff" d="M352.67,-119.55C299.96,-117.92 216.42,-109.33 154.12,-74.5 134.71,-63.64 118.51,-43.65 108.41,-28.91"/>
<polygon fill="#63b8ff" stroke="#63b8ff" points="111.38,-27.06 102.99,-20.58 105.51,-30.88 111.38,-27.06"/>
</a>
</g>
</g>
<!-- Node2&#45;&gt;Node8 -->
<g id="edge15_Node000002_Node000008" class="edge">
<title>Node2&#45;&gt;Node8</title>
<g id="a_edge15_Node000002_Node000008"><a xlink:title=" ">
<path fill="none" stroke="#63b8ff" d="M397.56,-110.25C386.5,-92.6 361.56,-52.8 346.76,-29.2"/>
<polygon fill="#63b8ff" stroke="#63b8ff" points="349.85,-27.52 341.57,-20.91 343.92,-31.24 349.85,-27.52"/>
</a>
</g>
</g>
<!-- Node2&#45;&gt;Node9 -->
<g id="edge14_Node000002_Node000009" class="edge">
<title>Node2&#45;&gt;Node9</title>
<g id="a_edge14_Node000002_Node000009"><a xlink:title=" ">
<path fill="none" stroke="#63b8ff" d="M398.66,-110.15C393.01,-97.5 384.85,-73.91 392.12,-55.25 396.29,-44.57 404.34,-34.89 412.21,-27.3"/>
<polygon fill="#63b8ff" stroke="#63b8ff" points="414.51,-29.94 419.67,-20.68 409.87,-24.7 414.51,-29.94"/>
</a>
</g>
</g>
<!-- Node2&#45;&gt;Node11 -->
<g id="edge16_Node000002_Node000011" class="edge">
<title>Node2&#45;&gt;Node11</title>
<g id="a_edge16_Node000002_Node000011"><a xlink:title=" ">
<path fill="none" stroke="#63b8ff" d="M453.45,-112.28C499.94,-105.24 570.6,-92.73 630.12,-74.5 674.24,-60.99 723.03,-38.98 752.89,-24.65"/>
<polygon fill="#63b8ff" stroke="#63b8ff" points="754.16,-27.93 761.62,-20.41 751.1,-21.63 754.16,-27.93"/>
</a>
</g>
</g>
<!-- Node2&#45;&gt;Node12 -->
<g id="edge20_Node000002_Node000012" class="edge">
<title>Node2&#45;&gt;Node12</title>
<g id="a_edge20_Node000002_Node000012"><a xlink:title=" ">
<path fill="none" stroke="#63b8ff" d="M453.49,-113.41C488.51,-107.67 535.16,-96.38 571.12,-74.5 590.07,-62.97 606.5,-43.41 616.99,-28.97"/>
<polygon fill="#63b8ff" stroke="#63b8ff" points="619.84,-31 622.67,-20.78 614.09,-27.01 619.84,-31"/>
</a>
</g>
</g>
<!-- Node2&#45;&gt;Node13 -->
<g id="edge21_Node000002_Node000013" class="edge">
<title>Node2&#45;&gt;Node13</title>
<g id="a_edge21_Node000002_Node000013"><a xlink:title=" ">
<path fill="none" stroke="#63b8ff" d="M453.44,-111.93C493.37,-105.18 550.11,-93.28 597.12,-74.5 628.94,-61.79 662.42,-40.59 683.52,-26.13"/>
<polygon fill="#63b8ff" stroke="#63b8ff" points="685.38,-29.1 691.58,-20.5 681.37,-23.36 685.38,-29.1"/>
</a>
</g>
</g>
<!-- Node14 -->
<g id="Node000014" class="node">
<title>Node14</title>
<g id="a_Node000014"><a xlink:title=" ">
<polygon fill="#e0e0e0" stroke="#999999" points="562.62,-74.5 483.62,-74.5 483.62,-55.25 562.62,-55.25 562.62,-74.5"/>
<text text-anchor="middle" x="523.12" y="-61" font-family="Helvetica,sans-Serif" font-size="10.00">boost/asio.hpp</text>
</a>
</g>
</g>
<!-- Node2&#45;&gt;Node14 -->
<g id="edge13_Node000002_Node000014" class="edge">
<title>Node2&#45;&gt;Node14</title>
<g id="a_edge13_Node000002_Node000014"><a xlink:title=" ">
<path fill="none" stroke="#63b8ff" d="M423.48,-110.09C442.36,-101.72 470.71,-89.13 492.35,-79.53"/>
<polygon fill="#63b8ff" stroke="#63b8ff" points="493.56,-82.82 501.29,-75.57 490.73,-76.42 493.56,-82.82"/>
</a>
</g>
</g>
<!-- Node15 -->
<g id="Node000015" class="node">
<title>Node15</title>
<g id="a_Node000015"><a xlink:title=" ">
<polygon fill="#e0e0e0" stroke="#999999" points="306.75,-74.5 261.5,-74.5 261.5,-55.25 306.75,-55.25 306.75,-74.5"/>
<text text-anchor="middle" x="284.12" y="-61" font-family="Helvetica,sans-Serif" font-size="10.00">cstdint</text>
</a>
</g>
</g>
<!-- Node2&#45;&gt;Node15 -->
<g id="edge17_Node000002_Node000015" class="edge">
<title>Node2&#45;&gt;Node15</title>
<g id="a_edge17_Node000002_Node000015"><a xlink:title=" ">
<path fill="none" stroke="#63b8ff" d="M382.94,-110.09C364.22,-101.72 336.1,-89.13 314.64,-79.53"/>
<polygon fill="#63b8ff" stroke="#63b8ff" points="316.35,-76.46 305.79,-75.57 313.49,-82.85 316.35,-76.46"/>
</a>
</g>
</g>
<!-- Node4 -->
<g id="Node000004" class="node">
<title>Node4</title>
<g id="a_Node000004"><a xlink:title=" ">
<polygon fill="#e0e0e0" stroke="#999999" points="225.38,-19.25 180.88,-19.25 180.88,0 225.38,0 225.38,-19.25"/>
<text text-anchor="middle" x="203.12" y="-5.75" font-family="Helvetica,sans-Serif" font-size="10.00">cstdlib</text>
</a>
</g>
</g>
<!-- Node3&#45;&gt;Node4 -->
<g id="edge3_Node000003_Node000004" class="edge">
<title>Node3&#45;&gt;Node4</title>
<g id="a_edge3_Node000003_Node000004"><a xlink:title=" ">
<path fill="none" stroke="#63b8ff" d="M203.12,-55.08C203.12,-48.57 203.12,-39.42 203.12,-31.12"/>
<polygon fill="#63b8ff" stroke="#63b8ff" points="206.63,-31.12 203.13,-21.12 199.63,-31.12 206.63,-31.12"/>
</a>
</g>
</g>
<!-- Node5&#45;&gt;Node6 -->
<g id="edge5_Node000005_Node000006" class="edge">
<title>Node5&#45;&gt;Node6</title>
<g id="a_edge5_Node000005_Node000006"><a xlink:title=" ">
<path fill="none" stroke="#63b8ff" d="M401.02,-60.78C336.95,-54.42 188.76,-38.84 65.12,-19.25 61.43,-18.67 57.58,-18 53.76,-17.3"/>
<polygon fill="#63b8ff" stroke="#63b8ff" points="54.52,-13.88 44.04,-15.44 53.2,-20.75 54.52,-13.88"/>
</a>
</g>
</g>
<!-- Node5&#45;&gt;Node7 -->
<g id="edge6_Node000005_Node000007" class="edge">
<title>Node5&#45;&gt;Node7</title>
<g id="a_edge6_Node000005_Node000007"><a xlink:title=" ">
<path fill="none" stroke="#63b8ff" d="M400.91,-58.77C337.36,-48.7 196.37,-26.35 131.28,-16.04"/>
<polygon fill="#63b8ff" stroke="#63b8ff" points="131.96,-12.6 121.54,-14.49 130.87,-19.52 131.96,-12.6"/>
</a>
</g>
</g>
<!-- Node5&#45;&gt;Node8 -->
<g id="edge7_Node000005_Node000008" class="edge">
<title>Node5&#45;&gt;Node8</title>
<g id="a_edge7_Node000005_Node000008"><a xlink:title=" ">
<path fill="none" stroke="#63b8ff" d="M416.5,-54.84C401.44,-46.66 378.98,-34.46 361.47,-24.94"/>
<polygon fill="#63b8ff" stroke="#63b8ff" points="363.62,-22.12 353.16,-20.43 360.28,-28.27 363.62,-22.12"/>
</a>
</g>
</g>
<!-- Node5&#45;&gt;Node9 -->
<g id="edge8_Node000005_Node000009" class="edge">
<title>Node5&#45;&gt;Node9</title>
<g id="a_edge8_Node000005_Node000009"><a xlink:title=" ">
<path fill="none" stroke="#63b8ff" d="M433.12,-55.08C433.12,-48.57 433.12,-39.42 433.12,-31.12"/>
<polygon fill="#63b8ff" stroke="#63b8ff" points="436.63,-31.12 433.13,-21.12 429.63,-31.12 436.63,-31.12"/>
</a>
</g>
</g>
<!-- Node5&#45;&gt;Node10 -->
<g id="edge9_Node000005_Node000010" class="edge">
<title>Node5&#45;&gt;Node10</title>
<g id="a_edge9_Node000005_Node000010"><a xlink:title=" ">
<path fill="none" stroke="#63b8ff" d="M465.3,-56.79C468.27,-56.23 471.25,-55.71 474.12,-55.25 622.46,-31.76 661.84,-43.11 810.12,-19.25 811.67,-19 813.24,-18.73 814.82,-18.45"/>
<polygon fill="#63b8ff" stroke="#63b8ff" points="815.47,-21.89 824.6,-16.53 814.12,-15.02 815.47,-21.89"/>
</a>
</g>
</g>
<!-- Node5&#45;&gt;Node11 -->
<g id="edge10_Node000005_Node000011" class="edge">
<title>Node5&#45;&gt;Node11</title>
<g id="a_edge10_Node000005_Node000011"><a xlink:title=" ">
<path fill="none" stroke="#63b8ff" d="M465.31,-56.88C468.29,-56.3 471.26,-55.75 474.12,-55.25 589.93,-35.14 620.14,-38.32 736.12,-19.25 740.59,-18.52 745.29,-17.68 749.9,-16.83"/>
<polygon fill="#63b8ff" stroke="#63b8ff" points="750.35,-20.31 759.52,-15 749.04,-13.43 750.35,-20.31"/>
</a>
</g>
</g>
<!-- Node5&#45;&gt;Node12 -->
<g id="edge11_Node000005_Node000012" class="edge">
<title>Node5&#45;&gt;Node12</title>
<g id="a_edge11_Node000005_Node000012"><a xlink:title=" ">
<path fill="none" stroke="#63b8ff" d="M465.49,-55.08C500.67,-45.52 556.73,-30.29 593.23,-20.38"/>
<polygon fill="#63b8ff" stroke="#63b8ff" points="593.69,-23.88 602.43,-17.88 591.86,-17.12 593.69,-23.88"/>
</a>
</g>
</g>
<!-- Node5&#45;&gt;Node13 -->
<g id="edge12_Node000005_Node000013" class="edge">
<title>Node5&#45;&gt;Node13</title>
<g id="a_edge12_Node000005_Node000013"><a xlink:title=" ">
<path fill="none" stroke="#63b8ff" d="M465.34,-57.04C468.31,-56.43 471.27,-55.82 474.12,-55.25 557.97,-38.45 579.24,-35.85 663.12,-19.25 666.1,-18.66 669.2,-18.04 672.3,-17.41"/>
<polygon fill="#63b8ff" stroke="#63b8ff" points="672.76,-20.89 681.86,-15.46 671.36,-14.03 672.76,-20.89"/>
</a>
</g>
</g>
</g>
</svg>
