<?xml version="1.0" encoding="UTF-8" standalone="no"?>
<!DOCTYPE svg PUBLIC "-//W3C//DTD SVG 1.1//EN"
 "http://www.w3.org/Graphics/SVG/1.1/DTD/svg11.dtd">
<!-- Generated by graphviz version 9.0.0 (20230911.1827)
 -->
<!-- Title: /github/workspace/dev_area/sourcecode/sspmodules/src/anlBoard/Device.hpp Pages: 1 -->
<svg width="507pt" height="105pt"
 viewBox="0.00 0.00 506.62 105.00" xmlns="http://www.w3.org/2000/svg" xmlns:xlink="http://www.w3.org/1999/xlink">
<g id="graph0" class="graph" transform="scale(1 1) rotate(0) translate(4 101)">
<title>/github/workspace/dev_area/sourcecode/sspmodules/src/anlBoard/Device.hpp</title>
<!-- Node1 -->
<g id="Node000001" class="node">
<title>Node1</title>
<g id="a_Node000001"><a xlink:title=" ">
<polygon fill="#999999" stroke="#666666" points="327.5,-97 178.75,-97 178.75,-55.25 327.5,-55.25 327.5,-97"/>
<text text-anchor="start" x="186.75" y="-83.5" font-family="Helvetica,sans-Serif" font-size="10.00">/github/workspace/dev</text>
<text text-anchor="start" x="186.75" y="-72.25" font-family="Helvetica,sans-Serif" font-size="10.00">_area/sourcecode/sspmodules</text>
<text text-anchor="middle" x="253.12" y="-61" font-family="Helvetica,sans-Serif" font-size="10.00">/src/anlBoard/Device.hpp</text>
</a>
</g>
</g>
<!-- Node2 -->
<g id="Node000002" class="node">
<title>Node2</title>
<g id="a_Node000002"><a xlink:title=" ">
<polygon fill="#e0e0e0" stroke="#999999" points="42.25,-19.25 0,-19.25 0,0 42.25,0 42.25,-19.25"/>
<text text-anchor="middle" x="21.12" y="-5.75" font-family="Helvetica,sans-Serif" font-size="10.00">cstdio</text>
</a>
</g>
</g>
<!-- Node1&#45;&gt;Node2 -->
<g id="edge1_Node000001_Node000002" class="edge">
<title>Node1&#45;&gt;Node2</title>
<g id="a_edge1_Node000001_Node000002"><a xlink:title=" ">
<path fill="none" stroke="#63b8ff" d="M179.2,-54.87C143.71,-45.1 100.31,-33.09 53.7,-19.96"/>
<polygon fill="#63b8ff" stroke="#63b8ff" points="54.78,-16.63 44.2,-17.28 52.88,-23.36 54.78,-16.63"/>
</a>
</g>
</g>
<!-- Node3 -->
<g id="Node000003" class="node">
<title>Node3</title>
<g id="a_Node000003"><a xlink:title=" ">
<polygon fill="#e0e0e0" stroke="#999999" points="105.75,-19.25 60.5,-19.25 60.5,0 105.75,0 105.75,-19.25"/>
<text text-anchor="middle" x="83.12" y="-5.75" font-family="Helvetica,sans-Serif" font-size="10.00">cstring</text>
</a>
</g>
</g>
<!-- Node1&#45;&gt;Node3 -->
<g id="edge2_Node000001_Node000003" class="edge">
<title>Node1&#45;&gt;Node3</title>
<g id="a_edge2_Node000001_Node000003"><a xlink:title=" ">
<path fill="none" stroke="#63b8ff" d="M199.8,-54.89C172.57,-44.56 140.27,-32.31 116.57,-23.31"/>
<polygon fill="#63b8ff" stroke="#63b8ff" points="118.01,-20.12 107.42,-19.84 115.53,-26.66 118.01,-20.12"/>
</a>
</g>
</g>
<!-- Node4 -->
<g id="Node000004" class="node">
<title>Node4</title>
<g id="a_Node000004"><a xlink:title=" ">
<polygon fill="#e0e0e0" stroke="#999999" points="174,-19.25 124.25,-19.25 124.25,0 174,0 174,-19.25"/>
<text text-anchor="middle" x="149.12" y="-5.75" font-family="Helvetica,sans-Serif" font-size="10.00">iomanip</text>
</a>
</g>
</g>
<!-- Node1&#45;&gt;Node4 -->
<g id="edge3_Node000001_Node000004" class="edge">
<title>Node1&#45;&gt;Node4</title>
<g id="a_edge3_Node000001_Node000004"><a xlink:title=" ">
<path fill="none" stroke="#63b8ff" d="M220.5,-54.89C205.16,-45.38 187.2,-34.24 173.13,-25.51"/>
<polygon fill="#63b8ff" stroke="#63b8ff" points="175.3,-22.74 164.95,-20.44 171.61,-28.69 175.3,-22.74"/>
</a>
</g>
</g>
<!-- Node5 -->
<g id="Node000005" class="node">
<title>Node5</title>
<g id="a_Node000005"><a xlink:title=" ">
<polygon fill="#e0e0e0" stroke="#999999" points="245.88,-19.25 192.38,-19.25 192.38,0 245.88,0 245.88,-19.25"/>
<text text-anchor="middle" x="219.12" y="-5.75" font-family="Helvetica,sans-Serif" font-size="10.00">iostream</text>
</a>
</g>
</g>
<!-- Node1&#45;&gt;Node5 -->
<g id="edge4_Node000001_Node000005" class="edge">
<title>Node1&#45;&gt;Node5</title>
<g id="a_edge4_Node000001_Node000005"><a xlink:title=" ">
<path fill="none" stroke="#63b8ff" d="M242.55,-55.07C238.31,-47.03 233.45,-37.8 229.25,-29.84"/>
<polygon fill="#63b8ff" stroke="#63b8ff" points="232.37,-28.25 224.61,-21.03 226.18,-31.51 232.37,-28.25"/>
</a>
</g>
</g>
<!-- Node6 -->
<g id="Node000006" class="node">
<title>Node6</title>
<g id="a_Node000006"><a xlink:title=" ">
<polygon fill="#e0e0e0" stroke="#999999" points="311.88,-19.25 264.38,-19.25 264.38,0 311.88,0 311.88,-19.25"/>
<text text-anchor="middle" x="288.12" y="-5.75" font-family="Helvetica,sans-Serif" font-size="10.00">stdint.h</text>
</a>
</g>
</g>
<!-- Node1&#45;&gt;Node6 -->
<g id="edge5_Node000001_Node000006" class="edge">
<title>Node1&#45;&gt;Node6</title>
<g id="a_edge5_Node000001_Node000006"><a xlink:title=" ">
<path fill="none" stroke="#63b8ff" d="M264.01,-55.07C268.42,-46.93 273.5,-37.58 277.85,-29.57"/>
<polygon fill="#63b8ff" stroke="#63b8ff" points="280.79,-31.48 282.48,-21.03 274.64,-28.15 280.79,-31.48"/>
</a>
</g>
</g>
<!-- Node7 -->
<g id="Node000007" class="node">
<title>Node7</title>
<g id="a_Node000007"><a xlink:title=" ">
<polygon fill="#e0e0e0" stroke="#999999" points="370.12,-19.25 330.12,-19.25 330.12,0 370.12,0 370.12,-19.25"/>
<text text-anchor="middle" x="350.12" y="-5.75" font-family="Helvetica,sans-Serif" font-size="10.00">string</text>
</a>
</g>
</g>
<!-- Node1&#45;&gt;Node7 -->
<g id="edge6_Node000001_Node000007" class="edge">
<title>Node1&#45;&gt;Node7</title>
<g id="a_edge6_Node000001_Node000007"><a xlink:title=" ">
<path fill="none" stroke="#63b8ff" d="M283.55,-54.89C297.72,-45.47 314.29,-34.46 327.35,-25.77"/>
<polygon fill="#63b8ff" stroke="#63b8ff" points="328.91,-28.93 335.3,-20.48 325.04,-23.11 328.91,-28.93"/>
</a>
</g>
</g>
<!-- Node8 -->
<g id="Node000008" class="node">
<title>Node8</title>
<g id="a_Node000008"><a xlink:title=" ">
<polygon fill="#e0e0e0" stroke="#999999" points="438,-19.25 388.25,-19.25 388.25,0 438,0 438,-19.25"/>
<text text-anchor="middle" x="413.12" y="-5.75" font-family="Helvetica,sans-Serif" font-size="10.00">unistd.h</text>
</a>
</g>
</g>
<!-- Node1&#45;&gt;Node8 -->
<g id="edge7_Node000001_Node000008" class="edge">
<title>Node1&#45;&gt;Node8</title>
<g id="a_edge7_Node000001_Node000008"><a xlink:title=" ">
<path fill="none" stroke="#63b8ff" d="M303.31,-54.89C328.4,-44.78 358.05,-32.83 380.22,-23.89"/>
<polygon fill="#63b8ff" stroke="#63b8ff" points="381.38,-27.2 389.35,-20.21 378.76,-20.7 381.38,-27.2"/>
</a>
</g>
</g>
<!-- Node9 -->
<g id="Node000009" class="node">
<title>Node9</title>
<g id="a_Node000009"><a xlink:title=" ">
<polygon fill="#e0e0e0" stroke="#999999" points="498.62,-19.25 455.62,-19.25 455.62,0 498.62,0 498.62,-19.25"/>
<text text-anchor="middle" x="477.12" y="-5.75" font-family="Helvetica,sans-Serif" font-size="10.00">vector</text>
</a>
</g>
</g>
<!-- Node1&#45;&gt;Node9 -->
<g id="edge8_Node000001_Node000009" class="edge">
<title>Node1&#45;&gt;Node9</title>
<g id="a_edge8_Node000001_Node000009"><a xlink:title=" ">
<path fill="none" stroke="#63b8ff" d="M323.69,-54.81C364.12,-43.16 412.94,-29.11 444.49,-20.02"/>
<polygon fill="#63b8ff" stroke="#63b8ff" points="445.18,-23.46 453.82,-17.33 443.25,-16.74 445.18,-23.46"/>
</a>
</g>
</g>
</g>
</svg>
