<?xml version="1.0" encoding="UTF-8" standalone="no"?>
<!DOCTYPE svg PUBLIC "-//W3C//DTD SVG 1.1//EN"
 "http://www.w3.org/Graphics/SVG/1.1/DTD/svg11.dtd">
<!-- Generated by graphviz version 9.0.0 (20230911.1827)
 -->
<!-- Title: /github/workspace/dev_area/build/dfmodules/codegen/include/dfmodules/opmon/DFOModule.pb.cc Pages: 1 -->
<svg width="1996pt" height="194pt"
 viewBox="0.00 0.00 1995.62 194.00" xmlns="http://www.w3.org/2000/svg" xmlns:xlink="http://www.w3.org/1999/xlink">
<g id="graph0" class="graph" transform="scale(1 1) rotate(0) translate(4 190)">
<title>/github/workspace/dev_area/build/dfmodules/codegen/include/dfmodules/opmon/DFOModule.pb.cc</title>
<!-- Node1 -->
<g id="Node000001" class="node">
<title>Node1</title>
<g id="a_Node000001"><a xlink:title=" ">
<polygon fill="#999999" stroke="#666666" points="1261.88,-186 1124.38,-186 1124.38,-133 1261.88,-133 1261.88,-186"/>
<text text-anchor="start" x="1132.38" y="-172.5" font-family="Helvetica,sans-Serif" font-size="10.00">/github/workspace/dev</text>
<text text-anchor="start" x="1132.38" y="-161.25" font-family="Helvetica,sans-Serif" font-size="10.00">_area/build/dfmodules</text>
<text text-anchor="start" x="1132.38" y="-150" font-family="Helvetica,sans-Serif" font-size="10.00">/codegen/include/dfmodules</text>
<text text-anchor="middle" x="1193.12" y="-138.75" font-family="Helvetica,sans-Serif" font-size="10.00">/opmon/DFOModule.pb.cc</text>
</a>
</g>
</g>
<!-- Node2 -->
<g id="Node000002" class="node">
<title>Node2</title>
<g id="a_Node000002"><a xlink:href="DFOModule_8pb_8h.html" target="_top" xlink:title=" ">
<polygon fill="white" stroke="#666666" points="1099.25,-91.38 931,-91.38 931,-72.12 1099.25,-72.12 1099.25,-91.38"/>
<text text-anchor="middle" x="1015.12" y="-77.88" font-family="Helvetica,sans-Serif" font-size="10.00">dfmodules/opmon/DFOModule.pb.h</text>
</a>
</g>
</g>
<!-- Node1&#45;&gt;Node2 -->
<g id="edge1_Node000001_Node000002" class="edge">
<title>Node1&#45;&gt;Node2</title>
<g id="a_edge1_Node000001_Node000002"><a xlink:title=" ">
<path fill="none" stroke="#63b8ff" d="M1132.37,-132.64C1103.67,-120.43 1070.61,-106.36 1046.93,-96.28"/>
<polygon fill="#63b8ff" stroke="#63b8ff" points="1048.4,-93.11 1037.83,-92.41 1045.66,-99.55 1048.4,-93.11"/>
</a>
</g>
</g>
<!-- Node6 -->
<g id="Node000006" class="node">
<title>Node6</title>
<g id="a_Node000006"><a xlink:title=" ">
<polygon fill="#e0e0e0" stroke="#999999" points="102.25,-30.5 0,-30.5 0,0 102.25,0 102.25,-30.5"/>
<text text-anchor="start" x="8" y="-17" font-family="Helvetica,sans-Serif" font-size="10.00">google/protobuf/port</text>
<text text-anchor="middle" x="51.12" y="-5.75" font-family="Helvetica,sans-Serif" font-size="10.00">_def.inc</text>
</a>
</g>
</g>
<!-- Node1&#45;&gt;Node6 -->
<g id="edge27_Node000001_Node000006" class="edge">
<title>Node1&#45;&gt;Node6</title>
<g id="a_edge27_Node000001_Node000006"><a xlink:title=" ">
<path fill="none" stroke="#63b8ff" d="M1123.96,-156.62C985.58,-152.1 665.11,-137.77 399.12,-97 297.87,-81.48 182.41,-52.37 113.23,-33.67"/>
<polygon fill="#63b8ff" stroke="#63b8ff" points="114.56,-30.41 103.99,-31.16 112.72,-37.16 114.56,-30.41"/>
</a>
</g>
</g>
<!-- Node7 -->
<g id="Node000007" class="node">
<title>Node7</title>
<g id="a_Node000007"><a xlink:title=" ">
<polygon fill="#e0e0e0" stroke="#999999" points="222.25,-30.5 120,-30.5 120,0 222.25,0 222.25,-30.5"/>
<text text-anchor="start" x="128" y="-17" font-family="Helvetica,sans-Serif" font-size="10.00">google/protobuf/port</text>
<text text-anchor="middle" x="171.12" y="-5.75" font-family="Helvetica,sans-Serif" font-size="10.00">_undef.inc</text>
</a>
</g>
</g>
<!-- Node1&#45;&gt;Node7 -->
<g id="edge28_Node000001_Node000007" class="edge">
<title>Node1&#45;&gt;Node7</title>
<g id="a_edge28_Node000001_Node000007"><a xlink:title=" ">
<path fill="none" stroke="#63b8ff" d="M1123.94,-153.34C1011.31,-144.53 781.45,-124.78 588.12,-97 431.96,-74.56 390.85,-64.4 233.51,-30.96"/>
<polygon fill="#63b8ff" stroke="#63b8ff" points="234.46,-27.59 223.96,-28.93 233.01,-34.43 234.46,-27.59"/>
</a>
</g>
</g>
<!-- Node8 -->
<g id="Node000008" class="node">
<title>Node8</title>
<g id="a_Node000008"><a xlink:title=" ">
<polygon fill="#e0e0e0" stroke="#999999" points="333.75,-30.5 240.5,-30.5 240.5,0 333.75,0 333.75,-30.5"/>
<text text-anchor="start" x="248.5" y="-17" font-family="Helvetica,sans-Serif" font-size="10.00">google/protobuf/io</text>
<text text-anchor="middle" x="287.12" y="-5.75" font-family="Helvetica,sans-Serif" font-size="10.00">/coded_stream.h</text>
</a>
</g>
</g>
<!-- Node1&#45;&gt;Node8 -->
<g id="edge19_Node000001_Node000008" class="edge">
<title>Node1&#45;&gt;Node8</title>
<g id="a_edge19_Node000001_Node000008"><a xlink:title=" ">
<path fill="none" stroke="#63b8ff" d="M1124.19,-147.89C1011.9,-130.63 782.52,-95.5 588.12,-66.5 482.36,-50.72 452.35,-52.27 345.13,-30.99"/>
<polygon fill="#63b8ff" stroke="#63b8ff" points="346.13,-27.63 335.64,-29.09 344.75,-34.49 346.13,-27.63"/>
</a>
</g>
</g>
<!-- Node14 -->
<g id="Node000014" class="node">
<title>Node14</title>
<g id="a_Node000014"><a xlink:title=" ">
<polygon fill="#e0e0e0" stroke="#999999" points="1842.38,-30.5 1713.88,-30.5 1713.88,0 1842.38,0 1842.38,-30.5"/>
<text text-anchor="start" x="1721.88" y="-17" font-family="Helvetica,sans-Serif" font-size="10.00">google/protobuf/generated</text>
<text text-anchor="middle" x="1778.12" y="-5.75" font-family="Helvetica,sans-Serif" font-size="10.00">_message_reflection.h</text>
</a>
</g>
</g>
<!-- Node1&#45;&gt;Node14 -->
<g id="edge23_Node000001_Node000014" class="edge">
<title>Node1&#45;&gt;Node14</title>
<g id="a_edge23_Node000001_Node000014"><a xlink:title=" ">
<path fill="none" stroke="#63b8ff" d="M1167.17,-132.91C1149.94,-112.87 1133.48,-85.33 1151.12,-66.5 1191.45,-23.47 1605.13,-37.06 1702.37,-30.35"/>
<polygon fill="#63b8ff" stroke="#63b8ff" points="1702.57,-33.85 1712.2,-29.43 1701.92,-26.88 1702.57,-33.85"/>
</a>
</g>
</g>
<!-- Node17 -->
<g id="Node000017" class="node">
<title>Node17</title>
<g id="a_Node000017"><a xlink:title=" ">
<polygon fill="#e0e0e0" stroke="#999999" points="1987.62,-30.5 1860.62,-30.5 1860.62,0 1987.62,0 1987.62,-30.5"/>
<text text-anchor="start" x="1868.62" y="-17" font-family="Helvetica,sans-Serif" font-size="10.00">google/protobuf/extension</text>
<text text-anchor="middle" x="1924.12" y="-5.75" font-family="Helvetica,sans-Serif" font-size="10.00">_set.h</text>
</a>
</g>
</g>
<!-- Node1&#45;&gt;Node17 -->
<g id="edge20_Node000001_Node000017" class="edge">
<title>Node1&#45;&gt;Node17</title>
<g id="a_edge20_Node000001_Node000017"><a xlink:title=" ">
<path fill="none" stroke="#63b8ff" d="M1181.1,-132.82C1173.43,-112.18 1167.68,-83.86 1184.12,-66.5 1233.23,-14.68 1736.87,-37.69 1849.07,-30.24"/>
<polygon fill="#63b8ff" stroke="#63b8ff" points="1849.36,-33.73 1859,-29.34 1848.73,-26.76 1849.36,-33.73"/>
</a>
</g>
</g>
<!-- Node19 -->
<g id="Node000019" class="node">
<title>Node19</title>
<g id="a_Node000019"><a xlink:title=" ">
<polygon fill="#e0e0e0" stroke="#999999" points="1249,-91.38 1193.25,-91.38 1193.25,-72.12 1249,-72.12 1249,-91.38"/>
<text text-anchor="middle" x="1221.12" y="-77.88" font-family="Helvetica,sans-Serif" font-size="10.00">algorithm</text>
</a>
</g>
</g>
<!-- Node1&#45;&gt;Node19 -->
<g id="edge18_Node000001_Node000019" class="edge">
<title>Node1&#45;&gt;Node19</title>
<g id="a_edge18_Node000001_Node000019"><a xlink:title=" ">
<path fill="none" stroke="#63b8ff" d="M1202.6,-132.85C1206.31,-122.84 1210.48,-111.54 1213.93,-102.21"/>
<polygon fill="#63b8ff" stroke="#63b8ff" points="1217.11,-103.7 1217.3,-93.11 1210.55,-101.28 1217.11,-103.7"/>
</a>
</g>
</g>
<!-- Node20 -->
<g id="Node000020" class="node">
<title>Node20</title>
<g id="a_Node000020"><a xlink:title=" ">
<polygon fill="#e0e0e0" stroke="#999999" points="1371,-97 1267.25,-97 1267.25,-66.5 1371,-66.5 1371,-97"/>
<text text-anchor="start" x="1275.25" y="-83.5" font-family="Helvetica,sans-Serif" font-size="10.00">google/protobuf/wire</text>
<text text-anchor="middle" x="1319.12" y="-72.25" font-family="Helvetica,sans-Serif" font-size="10.00">_format_lite.h</text>
</a>
</g>
</g>
<!-- Node1&#45;&gt;Node20 -->
<g id="edge21_Node000001_Node000020" class="edge">
<title>Node1&#45;&gt;Node20</title>
<g id="a_edge21_Node000001_Node000020"><a xlink:title=" ">
<path fill="none" stroke="#63b8ff" d="M1236.13,-132.64C1252.16,-123.01 1270.11,-112.22 1285.2,-103.14"/>
<polygon fill="#63b8ff" stroke="#63b8ff" points="1286.6,-106.39 1293.36,-98.24 1282.99,-100.39 1286.6,-106.39"/>
</a>
</g>
</g>
<!-- Node21 -->
<g id="Node000021" class="node">
<title>Node21</title>
<g id="a_Node000021"><a xlink:title=" ">
<polygon fill="#e0e0e0" stroke="#999999" points="1525.12,-91.38 1389.12,-91.38 1389.12,-72.12 1525.12,-72.12 1525.12,-91.38"/>
<text text-anchor="middle" x="1457.12" y="-77.88" font-family="Helvetica,sans-Serif" font-size="10.00">google/protobuf/descriptor.h</text>
</a>
</g>
</g>
<!-- Node1&#45;&gt;Node21 -->
<g id="edge22_Node000001_Node000021" class="edge">
<title>Node1&#45;&gt;Node21</title>
<g id="a_edge22_Node000001_Node000021"><a xlink:title=" ">
<path fill="none" stroke="#63b8ff" d="M1262.14,-138.7C1310.46,-124.83 1373.48,-106.75 1414.61,-94.95"/>
<polygon fill="#63b8ff" stroke="#63b8ff" points="1415.5,-98.34 1424.14,-92.21 1413.56,-91.61 1415.5,-98.34"/>
</a>
</g>
</g>
<!-- Node22 -->
<g id="Node000022" class="node">
<title>Node22</title>
<g id="a_Node000022"><a xlink:title=" ">
<polygon fill="#e0e0e0" stroke="#999999" points="1667.5,-97 1542.75,-97 1542.75,-66.5 1667.5,-66.5 1667.5,-97"/>
<text text-anchor="start" x="1550.75" y="-83.5" font-family="Helvetica,sans-Serif" font-size="10.00">google/protobuf/reflection</text>
<text text-anchor="middle" x="1605.12" y="-72.25" font-family="Helvetica,sans-Serif" font-size="10.00">_ops.h</text>
</a>
</g>
</g>
<!-- Node1&#45;&gt;Node22 -->
<g id="edge24_Node000001_Node000022" class="edge">
<title>Node1&#45;&gt;Node22</title>
<g id="a_edge24_Node000001_Node000022"><a xlink:title=" ">
<path fill="none" stroke="#63b8ff" d="M1262.1,-146.47C1328.55,-134.79 1432.19,-116.32 1531.29,-97.52"/>
<polygon fill="#63b8ff" stroke="#63b8ff" points="1531.76,-100.99 1540.93,-95.69 1530.45,-94.12 1531.76,-100.99"/>
</a>
</g>
</g>
<!-- Node23 -->
<g id="Node000023" class="node">
<title>Node23</title>
<g id="a_Node000023"><a xlink:title=" ">
<polygon fill="#e0e0e0" stroke="#999999" points="1789,-97 1685.25,-97 1685.25,-66.5 1789,-66.5 1789,-97"/>
<text text-anchor="start" x="1693.25" y="-83.5" font-family="Helvetica,sans-Serif" font-size="10.00">google/protobuf/wire</text>
<text text-anchor="middle" x="1737.12" y="-72.25" font-family="Helvetica,sans-Serif" font-size="10.00">_format.h</text>
</a>
</g>
</g>
<!-- Node1&#45;&gt;Node23 -->
<g id="edge25_Node000001_Node000023" class="edge">
<title>Node1&#45;&gt;Node23</title>
<g id="a_edge25_Node000001_Node000023"><a xlink:title=" ">
<path fill="none" stroke="#63b8ff" d="M1262.25,-151.96C1354.11,-142.76 1521.62,-124.25 1674.01,-97.27"/>
<polygon fill="#63b8ff" stroke="#63b8ff" points="1674.24,-100.78 1683.47,-95.58 1673.01,-93.89 1674.24,-100.78"/>
</a>
</g>
</g>
<!-- Node24 -->
<g id="Node000024" class="node">
<title>Node24</title>
<g id="a_Node000024"><a xlink:title=" ">
<polygon fill="#e0e0e0" stroke="#999999" points="1935.38,-97 1806.88,-97 1806.88,-66.5 1935.38,-66.5 1935.38,-97"/>
<text text-anchor="start" x="1814.88" y="-83.5" font-family="Helvetica,sans-Serif" font-size="10.00">google/protobuf/generated</text>
<text text-anchor="middle" x="1871.12" y="-72.25" font-family="Helvetica,sans-Serif" font-size="10.00">_message_tctable_impl.h</text>
</a>
</g>
</g>
<!-- Node1&#45;&gt;Node24 -->
<g id="edge26_Node000001_Node000024" class="edge">
<title>Node1&#45;&gt;Node24</title>
<g id="a_edge26_Node000001_Node000024"><a xlink:title=" ">
<path fill="none" stroke="#63b8ff" d="M1262.34,-153.54C1372.91,-145.15 1596.43,-126.33 1795.43,-97.32"/>
<polygon fill="#63b8ff" stroke="#63b8ff" points="1795.81,-100.8 1805.2,-95.88 1794.79,-93.87 1795.81,-100.8"/>
</a>
</g>
</g>
<!-- Node3 -->
<g id="Node000003" class="node">
<title>Node3</title>
<g id="a_Node000003"><a xlink:title=" ">
<polygon fill="#e0e0e0" stroke="#999999" points="1422.75,-24.88 1383.5,-24.88 1383.5,-5.63 1422.75,-5.63 1422.75,-24.88"/>
<text text-anchor="middle" x="1403.12" y="-11.38" font-family="Helvetica,sans-Serif" font-size="10.00">limits</text>
</a>
</g>
</g>
<!-- Node2&#45;&gt;Node3 -->
<g id="edge2_Node000002_Node000003" class="edge">
<title>Node2&#45;&gt;Node3</title>
<g id="a_edge2_Node000002_Node000003"><a xlink:title=" ">
<path fill="none" stroke="#63b8ff" d="M1077.33,-71.64C1089.21,-69.91 1101.55,-68.14 1113.12,-66.5 1229.07,-50.07 1262.15,-64.76 1374.12,-30.5 1374.93,-30.25 1375.74,-29.99 1376.55,-29.7"/>
<polygon fill="#63b8ff" stroke="#63b8ff" points="1377.68,-33.03 1385.54,-25.92 1374.97,-26.57 1377.68,-33.03"/>
</a>
</g>
</g>
<!-- Node4 -->
<g id="Node000004" class="node">
<title>Node4</title>
<g id="a_Node000004"><a xlink:title=" ">
<polygon fill="#e0e0e0" stroke="#999999" points="1481.12,-24.88 1441.12,-24.88 1441.12,-5.63 1481.12,-5.63 1481.12,-24.88"/>
<text text-anchor="middle" x="1461.12" y="-11.38" font-family="Helvetica,sans-Serif" font-size="10.00">string</text>
</a>
</g>
</g>
<!-- Node2&#45;&gt;Node4 -->
<g id="edge3_Node000002_Node000004" class="edge">
<title>Node2&#45;&gt;Node4</title>
<g id="a_edge3_Node000002_Node000004"><a xlink:title=" ">
<path fill="none" stroke="#63b8ff" d="M1075.72,-71.63C1088.09,-69.85 1101.02,-68.06 1113.12,-66.5 1254.63,-48.23 1295.18,-70.55 1432.12,-30.5 1433.09,-30.22 1434.06,-29.9 1435.04,-29.57"/>
<polygon fill="#63b8ff" stroke="#63b8ff" points="1436.01,-32.95 1443.87,-25.85 1433.29,-26.5 1436.01,-32.95"/>
</a>
</g>
</g>
<!-- Node5 -->
<g id="Node000005" class="node">
<title>Node5</title>
<g id="a_Node000005"><a xlink:title=" ">
<polygon fill="#e0e0e0" stroke="#999999" points="1560.62,-24.88 1499.62,-24.88 1499.62,-5.63 1560.62,-5.63 1560.62,-24.88"/>
<text text-anchor="middle" x="1530.12" y="-11.38" font-family="Helvetica,sans-Serif" font-size="10.00">type_traits</text>
</a>
</g>
</g>
<!-- Node2&#45;&gt;Node5 -->
<g id="edge4_Node000002_Node000005" class="edge">
<title>Node2&#45;&gt;Node5</title>
<g id="a_edge4_Node000002_Node000005"><a xlink:title=" ">
<path fill="none" stroke="#63b8ff" d="M1074.4,-71.65C1087.16,-69.83 1100.58,-68.01 1113.12,-66.5 1280.24,-46.38 1325.82,-67.02 1490.12,-30.5 1492.43,-29.99 1494.78,-29.38 1497.14,-28.71"/>
<polygon fill="#63b8ff" stroke="#63b8ff" points="1498.09,-32.08 1506.54,-25.69 1495.95,-25.41 1498.09,-32.08"/>
</a>
</g>
</g>
<!-- Node2&#45;&gt;Node6 -->
<g id="edge5_Node000002_Node000006" class="edge">
<title>Node2&#45;&gt;Node6</title>
<g id="a_edge5_Node000002_Node000006"><a xlink:title=" ">
<path fill="none" stroke="#63b8ff" d="M930.5,-81.04C771.85,-80.5 418.93,-74.13 114.01,-30.74"/>
<polygon fill="#63b8ff" stroke="#63b8ff" points="114.62,-27.3 104.22,-29.34 113.62,-34.23 114.62,-27.3"/>
</a>
</g>
</g>
<!-- Node2&#45;&gt;Node7 -->
<g id="edge6_Node000002_Node000007" class="edge">
<title>Node2&#45;&gt;Node7</title>
<g id="a_edge6_Node000002_Node000007"><a xlink:title=" ">
<path fill="none" stroke="#63b8ff" d="M930.56,-77.14C761.05,-69.62 383.79,-51.35 233.97,-30.71"/>
<polygon fill="#63b8ff" stroke="#63b8ff" points="234.62,-27.27 224.23,-29.31 233.62,-34.2 234.62,-27.27"/>
</a>
</g>
</g>
<!-- Node2&#45;&gt;Node8 -->
<g id="edge7_Node000002_Node000008" class="edge">
<title>Node2&#45;&gt;Node8</title>
<g id="a_edge7_Node000002_Node000008"><a xlink:title=" ">
<path fill="none" stroke="#63b8ff" d="M930.62,-74.54C766.18,-62.44 413.79,-36.45 345.33,-30.19"/>
<polygon fill="#63b8ff" stroke="#63b8ff" points="345.93,-26.74 335.62,-29.17 345.2,-33.7 345.93,-26.74"/>
</a>
</g>
</g>
<!-- Node9 -->
<g id="Node000009" class="node">
<title>Node9</title>
<g id="a_Node000009"><a xlink:title=" ">
<polygon fill="#e0e0e0" stroke="#999999" points="1695.75,-24.88 1578.5,-24.88 1578.5,-5.63 1695.75,-5.63 1695.75,-24.88"/>
<text text-anchor="middle" x="1637.12" y="-11.38" font-family="Helvetica,sans-Serif" font-size="10.00">google/protobuf/arena.h</text>
</a>
</g>
</g>
<!-- Node2&#45;&gt;Node9 -->
<g id="edge8_Node000002_Node000009" class="edge">
<title>Node2&#45;&gt;Node9</title>
<g id="a_edge8_Node000002_Node000009"><a xlink:title=" ">
<path fill="none" stroke="#63b8ff" d="M1073.34,-71.64C1086.41,-69.78 1100.23,-67.94 1113.12,-66.5 1315.6,-43.83 1368.5,-59.76 1570.12,-30.5 1575.79,-29.68 1581.69,-28.66 1587.55,-27.55"/>
<polygon fill="#63b8ff" stroke="#63b8ff" points="1588.06,-31.02 1597.18,-25.63 1586.69,-24.15 1588.06,-31.02"/>
</a>
</g>
</g>
<!-- Node10 -->
<g id="Node000010" class="node">
<title>Node10</title>
<g id="a_Node000010"><a xlink:title=" ">
<polygon fill="#e0e0e0" stroke="#999999" points="492.75,-24.88 351.5,-24.88 351.5,-5.63 492.75,-5.63 492.75,-24.88"/>
<text text-anchor="middle" x="422.12" y="-11.38" font-family="Helvetica,sans-Serif" font-size="10.00">google/protobuf/arenastring.h</text>
</a>
</g>
</g>
<!-- Node2&#45;&gt;Node10 -->
<g id="edge9_Node000002_Node000010" class="edge">
<title>Node2&#45;&gt;Node10</title>
<g id="a_edge9_Node000002_Node000010"><a xlink:title=" ">
<path fill="none" stroke="#63b8ff" d="M930.91,-74.54C829.08,-66.57 652.61,-51.24 502.12,-30.5 495.15,-29.54 487.86,-28.41 480.64,-27.22"/>
<polygon fill="#63b8ff" stroke="#63b8ff" points="481.34,-23.79 470.9,-25.56 480.17,-30.69 481.34,-23.79"/>
</a>
</g>
</g>
<!-- Node11 -->
<g id="Node000011" class="node">
<title>Node11</title>
<g id="a_Node000011"><a xlink:title=" ">
<polygon fill="#e0e0e0" stroke="#999999" points="639.38,-30.5 510.88,-30.5 510.88,0 639.38,0 639.38,-30.5"/>
<text text-anchor="start" x="518.88" y="-17" font-family="Helvetica,sans-Serif" font-size="10.00">google/protobuf/generated</text>
<text text-anchor="middle" x="575.12" y="-5.75" font-family="Helvetica,sans-Serif" font-size="10.00">_message_tctable_decl.h</text>
</a>
</g>
</g>
<!-- Node2&#45;&gt;Node11 -->
<g id="edge10_Node000002_Node000011" class="edge">
<title>Node2&#45;&gt;Node11</title>
<g id="a_edge10_Node000002_Node000011"><a xlink:title=" ">
<path fill="none" stroke="#63b8ff" d="M939.94,-71.63C868.36,-62.67 757.34,-48.07 650.94,-30.74"/>
<polygon fill="#63b8ff" stroke="#63b8ff" points="651.59,-27.3 641.16,-29.13 650.46,-34.21 651.59,-27.3"/>
</a>
</g>
</g>
<!-- Node12 -->
<g id="Node000012" class="node">
<title>Node12</title>
<g id="a_Node000012"><a xlink:title=" ">
<polygon fill="#e0e0e0" stroke="#999999" points="786.38,-30.5 657.88,-30.5 657.88,0 786.38,0 786.38,-30.5"/>
<text text-anchor="start" x="665.88" y="-17" font-family="Helvetica,sans-Serif" font-size="10.00">google/protobuf/generated</text>
<text text-anchor="middle" x="722.12" y="-5.75" font-family="Helvetica,sans-Serif" font-size="10.00">_message_util.h</text>
</a>
</g>
</g>
<!-- Node2&#45;&gt;Node12 -->
<g id="edge11_Node000002_Node000012" class="edge">
<title>Node2&#45;&gt;Node12</title>
<g id="a_edge11_Node000002_Node000012"><a xlink:title=" ">
<path fill="none" stroke="#63b8ff" d="M973.77,-71.65C928.14,-61.6 853.77,-45.23 797.68,-32.88"/>
<polygon fill="#63b8ff" stroke="#63b8ff" points="798.72,-29.53 788.2,-30.8 797.21,-36.36 798.72,-29.53"/>
</a>
</g>
</g>
<!-- Node13 -->
<g id="Node000013" class="node">
<title>Node13</title>
<g id="a_Node000013"><a xlink:title=" ">
<polygon fill="#e0e0e0" stroke="#999999" points="930.25,-30.5 804,-30.5 804,0 930.25,0 930.25,-30.5"/>
<text text-anchor="start" x="812" y="-17" font-family="Helvetica,sans-Serif" font-size="10.00">google/protobuf/metadata</text>
<text text-anchor="middle" x="867.12" y="-5.75" font-family="Helvetica,sans-Serif" font-size="10.00">_lite.h</text>
</a>
</g>
</g>
<!-- Node2&#45;&gt;Node13 -->
<g id="edge12_Node000002_Node000013" class="edge">
<title>Node2&#45;&gt;Node13</title>
<g id="a_edge12_Node000002_Node000013"><a xlink:title=" ">
<path fill="none" stroke="#63b8ff" d="M994.23,-71.65C972.78,-62.3 938.74,-47.46 911.28,-35.49"/>
<polygon fill="#63b8ff" stroke="#63b8ff" points="912.69,-32.29 902.13,-31.5 909.89,-38.71 912.69,-32.29"/>
</a>
</g>
</g>
<!-- Node2&#45;&gt;Node14 -->
<g id="edge13_Node000002_Node000014" class="edge">
<title>Node2&#45;&gt;Node14</title>
<g id="a_edge13_Node000002_Node000014"><a xlink:title=" ">
<path fill="none" stroke="#63b8ff" d="M1072.03,-71.65C1085.48,-69.73 1099.79,-67.87 1113.12,-66.5 1371.62,-39.89 1441.67,-63.15 1702.36,-30.73"/>
<polygon fill="#63b8ff" stroke="#63b8ff" points="1702.73,-34.22 1712.21,-29.49 1701.85,-27.27 1702.73,-34.22"/>
</a>
</g>
</g>
<!-- Node15 -->
<g id="Node000015" class="node">
<title>Node15</title>
<g id="a_Node000015"><a xlink:title=" ">
<polygon fill="#e0e0e0" stroke="#999999" points="1081.62,-24.88 948.62,-24.88 948.62,-5.63 1081.62,-5.63 1081.62,-24.88"/>
<text text-anchor="middle" x="1015.12" y="-11.38" font-family="Helvetica,sans-Serif" font-size="10.00">google/protobuf/message.h</text>
</a>
</g>
</g>
<!-- Node2&#45;&gt;Node15 -->
<g id="edge14_Node000002_Node000015" class="edge">
<title>Node2&#45;&gt;Node15</title>
<g id="a_edge14_Node000002_Node000015"><a xlink:title=" ">
<path fill="none" stroke="#63b8ff" d="M1015.12,-71.78C1015.12,-62.73 1015.12,-48.45 1015.12,-36.63"/>
<polygon fill="#63b8ff" stroke="#63b8ff" points="1018.63,-36.66 1015.13,-26.66 1011.63,-36.66 1018.63,-36.66"/>
</a>
</g>
</g>
<!-- Node16 -->
<g id="Node000016" class="node">
<title>Node16</title>
<g id="a_Node000016"><a xlink:title=" ">
<polygon fill="#e0e0e0" stroke="#999999" points="1222.75,-30.5 1099.5,-30.5 1099.5,0 1222.75,0 1222.75,-30.5"/>
<text text-anchor="start" x="1107.5" y="-17" font-family="Helvetica,sans-Serif" font-size="10.00">google/protobuf/repeated</text>
<text text-anchor="middle" x="1161.12" y="-5.75" font-family="Helvetica,sans-Serif" font-size="10.00">_field.h</text>
</a>
</g>
</g>
<!-- Node2&#45;&gt;Node16 -->
<g id="edge15_Node000002_Node000016" class="edge">
<title>Node2&#45;&gt;Node16</title>
<g id="a_edge15_Node000002_Node000016"><a xlink:title=" ">
<path fill="none" stroke="#63b8ff" d="M1035.73,-71.65C1056.9,-62.3 1090.48,-47.46 1117.57,-35.49"/>
<polygon fill="#63b8ff" stroke="#63b8ff" points="1118.85,-38.75 1126.58,-31.51 1116.02,-32.35 1118.85,-38.75"/>
</a>
</g>
</g>
<!-- Node2&#45;&gt;Node17 -->
<g id="edge16_Node000002_Node000017" class="edge">
<title>Node2&#45;&gt;Node17</title>
<g id="a_edge16_Node000002_Node000017"><a xlink:title=" ">
<path fill="none" stroke="#63b8ff" d="M1095.24,-71.64C1113.59,-69.75 1133.02,-67.91 1151.12,-66.5 1458.06,-42.54 1540.01,-67.83 1849.41,-30.57"/>
<polygon fill="#63b8ff" stroke="#63b8ff" points="1849.5,-34.08 1859.01,-29.4 1848.66,-27.14 1849.5,-34.08"/>
</a>
</g>
</g>
<!-- Node18 -->
<g id="Node000018" class="node">
<title>Node18</title>
<g id="a_Node000018"><a xlink:title=" ">
<polygon fill="#e0e0e0" stroke="#999999" points="1365.5,-30.5 1240.75,-30.5 1240.75,0 1365.5,0 1365.5,-30.5"/>
<text text-anchor="start" x="1248.75" y="-17" font-family="Helvetica,sans-Serif" font-size="10.00">google/protobuf/unknown</text>
<text text-anchor="middle" x="1303.12" y="-5.75" font-family="Helvetica,sans-Serif" font-size="10.00">_field_set.h</text>
</a>
</g>
</g>
<!-- Node2&#45;&gt;Node18 -->
<g id="edge17_Node000002_Node000018" class="edge">
<title>Node2&#45;&gt;Node18</title>
<g id="a_edge17_Node000002_Node000018"><a xlink:title=" ">
<path fill="none" stroke="#63b8ff" d="M1055.78,-71.65C1100.75,-61.57 1174.13,-45.14 1229.32,-32.78"/>
<polygon fill="#63b8ff" stroke="#63b8ff" points="1229.98,-36.22 1238.97,-30.62 1228.45,-29.39 1229.98,-36.22"/>
</a>
</g>
</g>
</g>
</svg>
