<?xml version="1.0" encoding="UTF-8" standalone="no"?>
<!DOCTYPE svg PUBLIC "-//W3C//DTD SVG 1.1//EN"
 "http://www.w3.org/Graphics/SVG/1.1/DTD/svg11.dtd">
<!-- Generated by graphviz version 9.0.0 (20230911.1827)
 -->
<!-- Title: /github/workspace/dev_area/sourcecode/iomanager Pages: 1 -->
<svg width="444pt" height="197pt"
 viewBox="0.00 0.00 444.12 197.00" xmlns="http://www.w3.org/2000/svg" xmlns:xlink="http://www.w3.org/1999/xlink">
<g id="graph0" class="graph" transform="scale(1 1) rotate(0) translate(4 193)">
<title>/github/workspace/dev_area/sourcecode/iomanager</title>
<g id="clust1" class="cluster">
<title>clusterdir_e594a494f7a60e5bf534551500b27d35</title>
<g id="a_clust1"><a xlink:href="dir_e594a494f7a60e5bf534551500b27d35.html" target="_top" xlink:title="sourcecode">
<polygon fill="#edf0f7" stroke="#7f7f7f" stroke-dasharray="5,2" points="8,-8 8,-181 389,-181 389,-8 8,-8"/>
<text text-anchor="middle" x="198.5" y="-167.5" font-family="Helvetica,sans-Serif" font-size="10.00">sourcecode</text>
</a>
</g>
</g>
<g id="clust2" class="cluster">
<title>clusterdir_ab1b54331b4bb0c44e7fcd5a7d20111e</title>
<g id="a_clust2"><a xlink:href="dir_ab1b54331b4bb0c44e7fcd5a7d20111e.html" target="_top">
<polygon fill="#edf0f7" stroke="#404040" stroke-width="2" points="201,-63.25 201,-153.75 381,-153.75 381,-63.25 201,-63.25"/>
</a>
</g>
</g>
<!-- dir_6d314bedead70032a242c6ced44852ea -->
<g id="node1" class="node">
<title>dir_6d314bedead70032a242c6ced44852ea</title>
<g id="a_node1"><a xlink:href="dir_6d314bedead70032a242c6ced44852ea.html" target="_top" xlink:title="serialization">
<polygon fill="#a2b4d6" stroke="red" points="267.5,-35.25 200.5,-35.25 200.5,-16 267.5,-16 267.5,-35.25"/>
<text text-anchor="middle" x="234" y="-21.75" font-family="Helvetica,sans-Serif" font-size="10.00">serialization</text>
</a>
</g>
</g>
<!-- dir_934fd243b40ff671fa1d708949b38ec2 -->
<g id="node2" class="node">
<title>dir_934fd243b40ff671fa1d708949b38ec2</title>
<g id="a_node2"><a xlink:href="dir_934fd243b40ff671fa1d708949b38ec2.html" target="_top" xlink:title="utilities">
<polygon fill="#a2b4d6" stroke="red" points="62.38,-35.25 15.62,-35.25 15.62,-16 62.38,-16 62.38,-35.25"/>
<text text-anchor="middle" x="39" y="-21.75" font-family="Helvetica,sans-Serif" font-size="10.00">utilities</text>
</a>
</g>
</g>
<!-- dir_9ef3f0487673901798c3e985c3af822e -->
<g id="node3" class="node">
<title>dir_9ef3f0487673901798c3e985c3af822e</title>
<g id="a_node3"><a xlink:href="dir_9ef3f0487673901798c3e985c3af822e.html" target="_top" xlink:title="ipm">
<polygon fill="#a2b4d6" stroke="red" points="316.88,-35.25 285.12,-35.25 285.12,-16 316.88,-16 316.88,-35.25"/>
<text text-anchor="middle" x="301" y="-21.75" font-family="Helvetica,sans-Serif" font-size="10.00">ipm</text>
</a>
</g>
</g>
<!-- dir_a64e56b30f5ca31a10654cea03375984 -->
<g id="node4" class="node">
<title>dir_a64e56b30f5ca31a10654cea03375984</title>
<g id="a_node4"><a xlink:href="dir_a64e56b30f5ca31a10654cea03375984.html" target="_top" xlink:title="ers">
<polygon fill="#a2b4d6" stroke="red" points="182.75,-35.25 153.25,-35.25 153.25,-16 182.75,-16 182.75,-35.25"/>
<text text-anchor="middle" x="168" y="-21.75" font-family="Helvetica,sans-Serif" font-size="10.00">ers</text>
</a>
</g>
</g>
<!-- dir_f74a706a7efda297e6d8fb2c03527fc2 -->
<g id="node5" class="node">
<title>dir_f74a706a7efda297e6d8fb2c03527fc2</title>
<g id="a_node5"><a xlink:href="dir_f74a706a7efda297e6d8fb2c03527fc2.html" target="_top" xlink:title="logging">
<polygon fill="#a2b4d6" stroke="red" points="381.38,-35.25 334.62,-35.25 334.62,-16 381.38,-16 381.38,-35.25"/>
<text text-anchor="middle" x="358" y="-21.75" font-family="Helvetica,sans-Serif" font-size="10.00">logging</text>
</a>
</g>
</g>
<!-- dir_f6ebe3d21dc6eefb077bc4c75cd16e31 -->
<g id="node6" class="node">
<title>dir_f6ebe3d21dc6eefb077bc4c75cd16e31</title>
<g id="a_node6"><a xlink:href="dir_f6ebe3d21dc6eefb077bc4c75cd16e31.html" target="_top" xlink:title="opmonlib">
<polygon fill="#a2b4d6" stroke="red" points="135.5,-35.25 80.5,-35.25 80.5,-16 135.5,-16 135.5,-35.25"/>
<text text-anchor="middle" x="108" y="-21.75" font-family="Helvetica,sans-Serif" font-size="10.00">opmonlib</text>
</a>
</g>
</g>
<!-- dir_ab1b54331b4bb0c44e7fcd5a7d20111e -->
<g id="node7" class="node">
<title>dir_ab1b54331b4bb0c44e7fcd5a7d20111e</title>
<text text-anchor="middle" x="342" y="-132.25" font-family="Helvetica,sans-Serif" font-size="10.00">iomanager</text>
</g>
<!-- dir_2782e6abdc1d2a51dafbad46da585262 -->
<g id="node8" class="node">
<title>dir_2782e6abdc1d2a51dafbad46da585262</title>
<g id="a_node8"><a xlink:href="dir_2782e6abdc1d2a51dafbad46da585262.html" target="_top" xlink:title="docs">
<polygon fill="#a2b4d6" stroke="#404040" points="293.5,-145.75 256.5,-145.75 256.5,-126.5 293.5,-126.5 293.5,-145.75"/>
<text text-anchor="middle" x="275" y="-132.25" font-family="Helvetica,sans-Serif" font-size="10.00">docs</text>
</a>
</g>
</g>
<!-- dir_9e95dcb1a0783679c7ec39a3f8fe72e0 -->
<g id="node9" class="node">
<title>dir_9e95dcb1a0783679c7ec39a3f8fe72e0</title>
<g id="a_node9"><a xlink:href="dir_9e95dcb1a0783679c7ec39a3f8fe72e0.html" target="_top" xlink:title="include">
<polygon fill="#a2b4d6" stroke="#404040" points="256.38,-90.5 209.62,-90.5 209.62,-71.25 256.38,-71.25 256.38,-90.5"/>
<text text-anchor="middle" x="233" y="-77" font-family="Helvetica,sans-Serif" font-size="10.00">include</text>
</a>
</g>
</g>
<!-- dir_9e95dcb1a0783679c7ec39a3f8fe72e0&#45;&gt;dir_6d314bedead70032a242c6ced44852ea -->
<g id="edge1" class="edge">
<title>dir_9e95dcb1a0783679c7ec39a3f8fe72e0&#45;&gt;dir_6d314bedead70032a242c6ced44852ea</title>
<g id="a_edge1"><a xlink:href="dir_000273_000427.html" target="_top">
<path fill="none" stroke="#63b8ff" d="M233.17,-71.08C233.29,-64.57 233.46,-55.42 233.62,-47.12"/>
<polygon fill="#63b8ff" stroke="#63b8ff" points="237.11,-47.19 233.8,-37.12 230.12,-47.05 237.11,-47.19"/>
</a>
</g>
<g id="a_edge1&#45;headlabel"><a xlink:href="dir_000273_000427.html" target="_top" xlink:title="5">
<text text-anchor="middle" x="239.91" y="-45.45" font-family="Helvetica,sans-Serif" font-size="10.00" fill="#63b8ff">5</text>
</a>
</g>
</g>
<!-- dir_9e95dcb1a0783679c7ec39a3f8fe72e0&#45;&gt;dir_934fd243b40ff671fa1d708949b38ec2 -->
<g id="edge2" class="edge">
<title>dir_9e95dcb1a0783679c7ec39a3f8fe72e0&#45;&gt;dir_934fd243b40ff671fa1d708949b38ec2</title>
<g id="a_edge2"><a xlink:href="dir_000273_000533.html" target="_top">
<path fill="none" stroke="#63b8ff" d="M220.3,-70.8C215.94,-68.03 210.91,-65.2 206,-63.25 152.28,-41.9 132.82,-48.55 73.8,-35.72"/>
<polygon fill="#63b8ff" stroke="#63b8ff" points="74.73,-32.34 64.2,-33.52 73.17,-39.17 74.73,-32.34"/>
</a>
</g>
<g id="a_edge2&#45;headlabel"><a xlink:href="dir_000273_000533.html" target="_top" xlink:title="4">
<text text-anchor="middle" x="77.39" y="-26.16" font-family="Helvetica,sans-Serif" font-size="10.00" fill="#63b8ff">4</text>
</a>
</g>
</g>
<!-- dir_9e95dcb1a0783679c7ec39a3f8fe72e0&#45;&gt;dir_9ef3f0487673901798c3e985c3af822e -->
<g id="edge3" class="edge">
<title>dir_9e95dcb1a0783679c7ec39a3f8fe72e0&#45;&gt;dir_9ef3f0487673901798c3e985c3af822e</title>
<g id="a_edge3"><a xlink:href="dir_000273_000305.html" target="_top">
<path fill="none" stroke="#63b8ff" d="M244.54,-70.84C254.46,-63.07 269.01,-51.67 280.86,-42.4"/>
<polygon fill="#63b8ff" stroke="#63b8ff" points="282.73,-45.38 288.44,-36.46 278.41,-39.87 282.73,-45.38"/>
</a>
</g>
<g id="a_edge3&#45;headlabel"><a xlink:href="dir_000273_000305.html" target="_top" xlink:title="7">
<text text-anchor="middle" x="282.84" y="-45.02" font-family="Helvetica,sans-Serif" font-size="10.00" fill="#63b8ff">7</text>
</a>
</g>
</g>
<!-- dir_9e95dcb1a0783679c7ec39a3f8fe72e0&#45;&gt;dir_a64e56b30f5ca31a10654cea03375984 -->
<g id="edge4" class="edge">
<title>dir_9e95dcb1a0783679c7ec39a3f8fe72e0&#45;&gt;dir_a64e56b30f5ca31a10654cea03375984</title>
<g id="a_edge4"><a xlink:href="dir_000273_000191.html" target="_top">
<path fill="none" stroke="#63b8ff" d="M221.97,-70.84C212.58,-63.15 198.85,-51.9 187.59,-42.68"/>
<polygon fill="#63b8ff" stroke="#63b8ff" points="189.99,-40.11 180.03,-36.48 185.55,-45.53 189.99,-40.11"/>
</a>
</g>
<g id="a_edge4&#45;headlabel"><a xlink:href="dir_000273_000191.html" target="_top" xlink:title="7">
<text text-anchor="middle" x="193.4" y="-35.36" font-family="Helvetica,sans-Serif" font-size="10.00" fill="#63b8ff">7</text>
</a>
</g>
</g>
<!-- dir_9e95dcb1a0783679c7ec39a3f8fe72e0&#45;&gt;dir_f74a706a7efda297e6d8fb2c03527fc2 -->
<g id="edge5" class="edge">
<title>dir_9e95dcb1a0783679c7ec39a3f8fe72e0&#45;&gt;dir_f74a706a7efda297e6d8fb2c03527fc2</title>
<g id="a_edge5"><a xlink:href="dir_000273_000316.html" target="_top">
<path fill="none" stroke="#63b8ff" d="M246.44,-70.89C250.68,-68.25 255.45,-65.47 260,-63.25 280.5,-53.23 304.48,-44.22 323.59,-37.65"/>
<polygon fill="#63b8ff" stroke="#63b8ff" points="324.7,-40.96 333.07,-34.46 322.47,-34.33 324.7,-40.96"/>
</a>
</g>
<g id="a_edge5&#45;headlabel"><a xlink:href="dir_000273_000316.html" target="_top" xlink:title="8">
<text text-anchor="middle" x="323.64" y="-40.44" font-family="Helvetica,sans-Serif" font-size="10.00" fill="#63b8ff">8</text>
</a>
</g>
</g>
<!-- dir_9e95dcb1a0783679c7ec39a3f8fe72e0&#45;&gt;dir_f6ebe3d21dc6eefb077bc4c75cd16e31 -->
<g id="edge6" class="edge">
<title>dir_9e95dcb1a0783679c7ec39a3f8fe72e0&#45;&gt;dir_f6ebe3d21dc6eefb077bc4c75cd16e31</title>
<g id="a_edge6"><a xlink:href="dir_000273_000350.html" target="_top">
<path fill="none" stroke="#63b8ff" d="M219.56,-70.89C215.32,-68.25 210.55,-65.47 206,-63.25 186.86,-53.89 164.68,-45.42 146.27,-38.98"/>
<polygon fill="#63b8ff" stroke="#63b8ff" points="147.66,-35.76 137.06,-35.84 145.39,-42.38 147.66,-35.76"/>
</a>
</g>
<g id="a_edge6&#45;headlabel"><a xlink:href="dir_000273_000350.html" target="_top" xlink:title="4">
<text text-anchor="middle" x="150.55" y="-29.87" font-family="Helvetica,sans-Serif" font-size="10.00" fill="#63b8ff">4</text>
</a>
</g>
</g>
<!-- dir_bbc7c2c1f127b379ce39be24c4bd3dbe -->
<g id="node11" class="node">
<title>dir_bbc7c2c1f127b379ce39be24c4bd3dbe</title>
<g id="a_node11"><a xlink:href="dir_bbc7c2c1f127b379ce39be24c4bd3dbe.html" target="_top" xlink:title="build">
<polygon fill="#edf0f7" stroke="red" stroke-dasharray="5,2" points="436.12,-35.25 399.88,-35.25 399.88,-16 436.12,-16 436.12,-35.25"/>
<text text-anchor="middle" x="418" y="-21.75" font-family="Helvetica,sans-Serif" font-size="10.00">build</text>
</a>
</g>
</g>
<!-- dir_9e95dcb1a0783679c7ec39a3f8fe72e0&#45;&gt;dir_bbc7c2c1f127b379ce39be24c4bd3dbe -->
<g id="edge7" class="edge">
<title>dir_9e95dcb1a0783679c7ec39a3f8fe72e0&#45;&gt;dir_bbc7c2c1f127b379ce39be24c4bd3dbe</title>
<g id="a_edge7"><a xlink:href="dir_000273_000034.html" target="_top">
<path fill="none" stroke="#63b8ff" d="M256.72,-73.74C285.99,-66.06 337.51,-52.22 388.59,-36.53"/>
<polygon fill="#63b8ff" stroke="#63b8ff" points="389.51,-39.91 398.03,-33.6 387.44,-33.22 389.51,-39.91"/>
</a>
</g>
<g id="a_edge7&#45;headlabel"><a xlink:href="dir_000273_000034.html" target="_top" xlink:title="10">
<text text-anchor="middle" x="388.37" y="-39.36" font-family="Helvetica,sans-Serif" font-size="10.00" fill="#63b8ff">10</text>
</a>
</g>
</g>
<!-- dir_4884c108beb6d805f2aa9fee2db8c930 -->
<g id="node10" class="node">
<title>dir_4884c108beb6d805f2aa9fee2db8c930</title>
<g id="a_node10"><a xlink:href="dir_4884c108beb6d805f2aa9fee2db8c930.html" target="_top" xlink:title="src">
<polygon fill="#a2b4d6" stroke="#404040" points="238.75,-145.75 209.25,-145.75 209.25,-126.5 238.75,-126.5 238.75,-145.75"/>
<text text-anchor="middle" x="224" y="-132.25" font-family="Helvetica,sans-Serif" font-size="10.00">src</text>
</a>
</g>
</g>
<!-- dir_4884c108beb6d805f2aa9fee2db8c930&#45;&gt;dir_934fd243b40ff671fa1d708949b38ec2 -->
<g id="edge8" class="edge">
<title>dir_4884c108beb6d805f2aa9fee2db8c930&#45;&gt;dir_934fd243b40ff671fa1d708949b38ec2</title>
<g id="a_edge8"><a xlink:href="dir_000458_000533.html" target="_top">
<path fill="none" stroke="#63b8ff" d="M208.86,-126.25C177.02,-107.57 102.84,-64.06 63.89,-41.22"/>
<polygon fill="#63b8ff" stroke="#63b8ff" points="66.05,-38.43 55.65,-36.39 62.51,-44.47 66.05,-38.43"/>
</a>
</g>
<g id="a_edge8&#45;headlabel"><a xlink:href="dir_000458_000533.html" target="_top" xlink:title="1">
<text text-anchor="middle" x="69.28" y="-33.16" font-family="Helvetica,sans-Serif" font-size="10.00" fill="#63b8ff">1</text>
</a>
</g>
</g>
<!-- dir_4884c108beb6d805f2aa9fee2db8c930&#45;&gt;dir_9ef3f0487673901798c3e985c3af822e -->
<g id="edge10" class="edge">
<title>dir_4884c108beb6d805f2aa9fee2db8c930&#45;&gt;dir_9ef3f0487673901798c3e985c3af822e</title>
<g id="a_edge10"><a xlink:href="dir_000458_000305.html" target="_top">
<path fill="none" stroke="#63b8ff" d="M233.47,-126.1C242.24,-117.45 255.36,-103.78 265,-90.5 275.3,-76.32 284.93,-58.92 291.64,-45.86"/>
<polygon fill="#63b8ff" stroke="#63b8ff" points="294.7,-47.56 296.04,-37.05 288.44,-44.43 294.7,-47.56"/>
</a>
</g>
<g id="a_edge10&#45;headlabel"><a xlink:href="dir_000458_000305.html" target="_top" xlink:title="1">
<text text-anchor="middle" x="296.31" y="-46.81" font-family="Helvetica,sans-Serif" font-size="10.00" fill="#63b8ff">1</text>
</a>
</g>
</g>
<!-- dir_4884c108beb6d805f2aa9fee2db8c930&#45;&gt;dir_f74a706a7efda297e6d8fb2c03527fc2 -->
<g id="edge12" class="edge">
<title>dir_4884c108beb6d805f2aa9fee2db8c930&#45;&gt;dir_f74a706a7efda297e6d8fb2c03527fc2</title>
<g id="a_edge12"><a xlink:href="dir_000458_000316.html" target="_top">
<path fill="none" stroke="#63b8ff" d="M234.97,-126.25C257.54,-107.97 309.49,-65.9 338.14,-42.71"/>
<polygon fill="#63b8ff" stroke="#63b8ff" points="340.14,-45.59 345.71,-36.58 335.73,-40.15 340.14,-45.59"/>
</a>
</g>
<g id="a_edge12&#45;headlabel"><a xlink:href="dir_000458_000316.html" target="_top" xlink:title="2">
<text text-anchor="middle" x="340.31" y="-45.23" font-family="Helvetica,sans-Serif" font-size="10.00" fill="#63b8ff">2</text>
</a>
</g>
</g>
<!-- dir_4884c108beb6d805f2aa9fee2db8c930&#45;&gt;dir_9e95dcb1a0783679c7ec39a3f8fe72e0 -->
<g id="edge9" class="edge">
<title>dir_4884c108beb6d805f2aa9fee2db8c930&#45;&gt;dir_9e95dcb1a0783679c7ec39a3f8fe72e0</title>
<g id="a_edge9"><a xlink:href="dir_000458_000273.html" target="_top">
<path fill="none" stroke="#63b8ff" d="M225.49,-126.33C226.6,-119.74 228.17,-110.46 229.59,-102.07"/>
<polygon fill="#63b8ff" stroke="#63b8ff" points="233.01,-102.8 231.23,-92.35 226.11,-101.63 233.01,-102.8"/>
</a>
</g>
<g id="a_edge9&#45;headlabel"><a xlink:href="dir_000458_000273.html" target="_top" xlink:title="6">
<text text-anchor="middle" x="235.47" y="-101.45" font-family="Helvetica,sans-Serif" font-size="10.00" fill="#63b8ff">6</text>
</a>
</g>
</g>
<!-- dir_4884c108beb6d805f2aa9fee2db8c930&#45;&gt;dir_bbc7c2c1f127b379ce39be24c4bd3dbe -->
<g id="edge11" class="edge">
<title>dir_4884c108beb6d805f2aa9fee2db8c930&#45;&gt;dir_bbc7c2c1f127b379ce39be24c4bd3dbe</title>
<g id="a_edge11"><a xlink:href="dir_000458_000034.html" target="_top">
<path fill="none" stroke="#63b8ff" d="M239.18,-129.49C242.09,-128.46 245.13,-127.42 248,-126.5 304.29,-108.5 328.31,-125.4 376,-90.5 391.55,-79.12 402.97,-60.1 409.95,-45.77"/>
<polygon fill="#63b8ff" stroke="#63b8ff" points="413.03,-47.45 413.96,-36.9 406.65,-44.57 413.03,-47.45"/>
</a>
</g>
<g id="a_edge11&#45;headlabel"><a xlink:href="dir_000458_000034.html" target="_top" xlink:title="2">
<text text-anchor="middle" x="414.76" y="-46.64" font-family="Helvetica,sans-Serif" font-size="10.00" fill="#63b8ff">2</text>
</a>
</g>
</g>
</g>
</svg>
