<?xml version="1.0" encoding="UTF-8" standalone="no"?>
<!DOCTYPE svg PUBLIC "-//W3C//DTD SVG 1.1//EN"
 "http://www.w3.org/Graphics/SVG/1.1/DTD/svg11.dtd">
<!-- Generated by graphviz version 9.0.0 (20230911.1827)
 -->
<!-- Title: /github/workspace/dev_area/sourcecode/dfmodules Pages: 1 -->
<svg width="899pt" height="142pt"
 viewBox="0.00 0.00 899.12 141.75" xmlns="http://www.w3.org/2000/svg" xmlns:xlink="http://www.w3.org/1999/xlink">
<g id="graph0" class="graph" transform="scale(1 1) rotate(0) translate(4 137.75)">
<title>/github/workspace/dev_area/sourcecode/dfmodules</title>
<g id="clust1" class="cluster">
<title>clusterdir_e594a494f7a60e5bf534551500b27d35</title>
<g id="a_clust1"><a xlink:href="dir_e594a494f7a60e5bf534551500b27d35.html" target="_top" xlink:title="sourcecode">
<polygon fill="#edf0f7" stroke="#7f7f7f" stroke-dasharray="5,2" points="8,-8 8,-125.75 845,-125.75 845,-8 8,-8"/>
<text text-anchor="middle" x="426.5" y="-112.25" font-family="Helvetica,sans-Serif" font-size="10.00">sourcecode</text>
</a>
</g>
</g>
<g id="clust2" class="cluster">
<title>clusterdir_f2adaee95bf6fd7cc163dae1aa716186</title>
<g id="a_clust2"><a xlink:href="dir_f2adaee95bf6fd7cc163dae1aa716186.html" target="_top">
<polygon fill="#edf0f7" stroke="#404040" stroke-width="2" points="207,-63.25 207,-98.5 514,-98.5 514,-63.25 207,-63.25"/>
</a>
</g>
</g>
<!-- dir_eaab8e706d9785a8277b333b3fa3c104 -->
<g id="node1" class="node">
<title>dir_eaab8e706d9785a8277b333b3fa3c104</title>
<g id="a_node1"><a xlink:href="dir_eaab8e706d9785a8277b333b3fa3c104.html" target="_top" xlink:title="appfwk">
<polygon fill="#a2b4d6" stroke="red" points="192.75,-35.25 145.25,-35.25 145.25,-16 192.75,-16 192.75,-35.25"/>
<text text-anchor="middle" x="169" y="-21.75" font-family="Helvetica,sans-Serif" font-size="10.00">appfwk</text>
</a>
</g>
</g>
<!-- dir_f6ebe3d21dc6eefb077bc4c75cd16e31 -->
<g id="node2" class="node">
<title>dir_f6ebe3d21dc6eefb077bc4c75cd16e31</title>
<g id="a_node2"><a xlink:href="dir_f6ebe3d21dc6eefb077bc4c75cd16e31.html" target="_top" xlink:title="opmonlib">
<polygon fill="#a2b4d6" stroke="red" points="265.5,-35.25 210.5,-35.25 210.5,-16 265.5,-16 265.5,-35.25"/>
<text text-anchor="middle" x="238" y="-21.75" font-family="Helvetica,sans-Serif" font-size="10.00">opmonlib</text>
</a>
</g>
</g>
<!-- dir_d6186462c2ecf8bc2243dcff615e0cdf -->
<g id="node3" class="node">
<title>dir_d6186462c2ecf8bc2243dcff615e0cdf</title>
<g id="a_node3"><a xlink:href="dir_d6186462c2ecf8bc2243dcff615e0cdf.html" target="_top" xlink:title="daqdataformats">
<polygon fill="#a2b4d6" stroke="red" points="366.75,-35.25 283.25,-35.25 283.25,-16 366.75,-16 366.75,-35.25"/>
<text text-anchor="middle" x="325" y="-21.75" font-family="Helvetica,sans-Serif" font-size="10.00">daqdataformats</text>
</a>
</g>
</g>
<!-- dir_f74a706a7efda297e6d8fb2c03527fc2 -->
<g id="node4" class="node">
<title>dir_f74a706a7efda297e6d8fb2c03527fc2</title>
<g id="a_node4"><a xlink:href="dir_f74a706a7efda297e6d8fb2c03527fc2.html" target="_top" xlink:title="logging">
<polygon fill="#a2b4d6" stroke="red" points="62.38,-35.25 15.62,-35.25 15.62,-16 62.38,-16 62.38,-35.25"/>
<text text-anchor="middle" x="39" y="-21.75" font-family="Helvetica,sans-Serif" font-size="10.00">logging</text>
</a>
</g>
</g>
<!-- dir_934fd243b40ff671fa1d708949b38ec2 -->
<g id="node5" class="node">
<title>dir_934fd243b40ff671fa1d708949b38ec2</title>
<g id="a_node5"><a xlink:href="dir_934fd243b40ff671fa1d708949b38ec2.html" target="_top" xlink:title="utilities">
<polygon fill="#a2b4d6" stroke="red" points="127.38,-35.25 80.62,-35.25 80.62,-16 127.38,-16 127.38,-35.25"/>
<text text-anchor="middle" x="104" y="-21.75" font-family="Helvetica,sans-Serif" font-size="10.00">utilities</text>
</a>
</g>
</g>
<!-- dir_d1e2a2554d257d865d12dd7826332eac -->
<g id="node6" class="node">
<title>dir_d1e2a2554d257d865d12dd7826332eac</title>
<g id="a_node6"><a xlink:href="dir_d1e2a2554d257d865d12dd7826332eac.html" target="_top" xlink:title="trgdataformats">
<polygon fill="#a2b4d6" stroke="red" points="463.5,-35.25 384.5,-35.25 384.5,-16 463.5,-16 463.5,-35.25"/>
<text text-anchor="middle" x="424" y="-21.75" font-family="Helvetica,sans-Serif" font-size="10.00">trgdataformats</text>
</a>
</g>
</g>
<!-- dir_a64e56b30f5ca31a10654cea03375984 -->
<g id="node7" class="node">
<title>dir_a64e56b30f5ca31a10654cea03375984</title>
<g id="a_node7"><a xlink:href="dir_a64e56b30f5ca31a10654cea03375984.html" target="_top" xlink:title="ers">
<polygon fill="#a2b4d6" stroke="red" points="510.75,-35.25 481.25,-35.25 481.25,-16 510.75,-16 510.75,-35.25"/>
<text text-anchor="middle" x="496" y="-21.75" font-family="Helvetica,sans-Serif" font-size="10.00">ers</text>
</a>
</g>
</g>
<!-- dir_5365a3767b7bcdec829ecb94aa09817f -->
<g id="node8" class="node">
<title>dir_5365a3767b7bcdec829ecb94aa09817f</title>
<g id="a_node8"><a xlink:href="dir_5365a3767b7bcdec829ecb94aa09817f.html" target="_top" xlink:title="trigger">
<polygon fill="#a2b4d6" stroke="red" points="571.5,-35.25 528.5,-35.25 528.5,-16 571.5,-16 571.5,-35.25"/>
<text text-anchor="middle" x="550" y="-21.75" font-family="Helvetica,sans-Serif" font-size="10.00">trigger</text>
</a>
</g>
</g>
<!-- dir_ab1b54331b4bb0c44e7fcd5a7d20111e -->
<g id="node9" class="node">
<title>dir_ab1b54331b4bb0c44e7fcd5a7d20111e</title>
<g id="a_node9"><a xlink:href="dir_ab1b54331b4bb0c44e7fcd5a7d20111e.html" target="_top" xlink:title="iomanager">
<polygon fill="#a2b4d6" stroke="red" points="650.5,-35.25 589.5,-35.25 589.5,-16 650.5,-16 650.5,-35.25"/>
<text text-anchor="middle" x="620" y="-21.75" font-family="Helvetica,sans-Serif" font-size="10.00">iomanager</text>
</a>
</g>
</g>
<!-- dir_c1d57bfadd68378fc3d59efca0edc545 -->
<g id="node10" class="node">
<title>dir_c1d57bfadd68378fc3d59efca0edc545</title>
<g id="a_node10"><a xlink:href="dir_c1d57bfadd68378fc3d59efca0edc545.html" target="_top" xlink:title="dfmessages">
<polygon fill="#a2b4d6" stroke="red" points="737.62,-35.25 668.38,-35.25 668.38,-16 737.62,-16 737.62,-35.25"/>
<text text-anchor="middle" x="703" y="-21.75" font-family="Helvetica,sans-Serif" font-size="10.00">dfmessages</text>
</a>
</g>
</g>
<!-- dir_49997343c4c8eab520bf1e45b9cad06f -->
<g id="node11" class="node">
<title>dir_49997343c4c8eab520bf1e45b9cad06f</title>
<g id="a_node11"><a xlink:href="dir_49997343c4c8eab520bf1e45b9cad06f.html" target="_top" xlink:title="detdataformats">
<polygon fill="#a2b4d6" stroke="red" points="836.62,-35.25 755.38,-35.25 755.38,-16 836.62,-16 836.62,-35.25"/>
<text text-anchor="middle" x="796" y="-21.75" font-family="Helvetica,sans-Serif" font-size="10.00">detdataformats</text>
</a>
</g>
</g>
<!-- dir_f2adaee95bf6fd7cc163dae1aa716186 -->
<g id="node12" class="node">
<title>dir_f2adaee95bf6fd7cc163dae1aa716186</title>
<text text-anchor="middle" x="475" y="-77" font-family="Helvetica,sans-Serif" font-size="10.00">dfmodules</text>
</g>
<!-- dir_500d1a4e8fc7d99063e9b85df4fdd140 -->
<g id="node13" class="node">
<title>dir_500d1a4e8fc7d99063e9b85df4fdd140</title>
<g id="a_node13"><a xlink:href="dir_500d1a4e8fc7d99063e9b85df4fdd140.html" target="_top" xlink:title="docs">
<polygon fill="#a2b4d6" stroke="#404040" points="426.5,-90.5 389.5,-90.5 389.5,-71.25 426.5,-71.25 426.5,-90.5"/>
<text text-anchor="middle" x="408" y="-77" font-family="Helvetica,sans-Serif" font-size="10.00">docs</text>
</a>
</g>
</g>
<!-- dir_017e5c9f40fa6b790bfa9c3045514b77 -->
<g id="node14" class="node">
<title>dir_017e5c9f40fa6b790bfa9c3045514b77</title>
<g id="a_node14"><a xlink:href="dir_017e5c9f40fa6b790bfa9c3045514b77.html" target="_top" xlink:title="include">
<polygon fill="#a2b4d6" stroke="#404040" points="261.38,-90.5 214.62,-90.5 214.62,-71.25 261.38,-71.25 261.38,-90.5"/>
<text text-anchor="middle" x="238" y="-77" font-family="Helvetica,sans-Serif" font-size="10.00">include</text>
</a>
</g>
</g>
<!-- dir_017e5c9f40fa6b790bfa9c3045514b77&#45;&gt;dir_eaab8e706d9785a8277b333b3fa3c104 -->
<g id="edge3" class="edge">
<title>dir_017e5c9f40fa6b790bfa9c3045514b77&#45;&gt;dir_eaab8e706d9785a8277b333b3fa3c104</title>
<g id="a_edge3"><a xlink:href="dir_000263_000008.html" target="_top">
<path fill="none" stroke="#63b8ff" d="M226.3,-70.84C216.22,-63.07 201.46,-51.67 189.44,-42.4"/>
<polygon fill="#63b8ff" stroke="#63b8ff" points="191.79,-39.79 181.73,-36.45 187.51,-45.33 191.79,-39.79"/>
</a>
</g>
<g id="a_edge3&#45;headlabel"><a xlink:href="dir_000263_000008.html" target="_top" xlink:title="1">
<text text-anchor="middle" x="195.17" y="-34.94" font-family="Helvetica,sans-Serif" font-size="10.00" fill="#63b8ff">1</text>
</a>
</g>
</g>
<!-- dir_017e5c9f40fa6b790bfa9c3045514b77&#45;&gt;dir_f6ebe3d21dc6eefb077bc4c75cd16e31 -->
<g id="edge4" class="edge">
<title>dir_017e5c9f40fa6b790bfa9c3045514b77&#45;&gt;dir_f6ebe3d21dc6eefb077bc4c75cd16e31</title>
<g id="a_edge4"><a xlink:href="dir_000263_000350.html" target="_top">
<path fill="none" stroke="#63b8ff" d="M238,-71.08C238,-64.57 238,-55.42 238,-47.12"/>
<polygon fill="#63b8ff" stroke="#63b8ff" points="241.5,-47.12 238,-37.12 234.5,-47.12 241.5,-47.12"/>
</a>
</g>
<g id="a_edge4&#45;headlabel"><a xlink:href="dir_000263_000350.html" target="_top" xlink:title="1">
<text text-anchor="middle" x="244.34" y="-45.33" font-family="Helvetica,sans-Serif" font-size="10.00" fill="#63b8ff">1</text>
</a>
</g>
</g>
<!-- dir_017e5c9f40fa6b790bfa9c3045514b77&#45;&gt;dir_d6186462c2ecf8bc2243dcff615e0cdf -->
<g id="edge2" class="edge">
<title>dir_017e5c9f40fa6b790bfa9c3045514b77&#45;&gt;dir_d6186462c2ecf8bc2243dcff615e0cdf</title>
<g id="a_edge2"><a xlink:href="dir_000263_000093.html" target="_top">
<path fill="none" stroke="#63b8ff" d="M252.76,-70.84C265.88,-62.81 285.32,-50.91 300.73,-41.48"/>
<polygon fill="#63b8ff" stroke="#63b8ff" points="302.18,-44.7 308.88,-36.49 298.52,-38.73 302.18,-44.7"/>
</a>
</g>
<g id="a_edge2&#45;headlabel"><a xlink:href="dir_000263_000093.html" target="_top" xlink:title="3">
<text text-anchor="middle" x="301.88" y="-44.33" font-family="Helvetica,sans-Serif" font-size="10.00" fill="#63b8ff">3</text>
</a>
</g>
</g>
<!-- dir_017e5c9f40fa6b790bfa9c3045514b77&#45;&gt;dir_f74a706a7efda297e6d8fb2c03527fc2 -->
<g id="edge5" class="edge">
<title>dir_017e5c9f40fa6b790bfa9c3045514b77&#45;&gt;dir_f74a706a7efda297e6d8fb2c03527fc2</title>
<g id="a_edge5"><a xlink:href="dir_000263_000316.html" target="_top">
<path fill="none" stroke="#63b8ff" d="M214.39,-73.56C179.46,-64.21 113.8,-46.64 73.48,-35.85"/>
<polygon fill="#63b8ff" stroke="#63b8ff" points="74.61,-32.53 64.04,-33.33 72.8,-39.29 74.61,-32.53"/>
</a>
</g>
<g id="a_edge5&#45;headlabel"><a xlink:href="dir_000263_000316.html" target="_top" xlink:title="1">
<text text-anchor="middle" x="77.35" y="-26.45" font-family="Helvetica,sans-Serif" font-size="10.00" fill="#63b8ff">1</text>
</a>
</g>
</g>
<!-- dir_017e5c9f40fa6b790bfa9c3045514b77&#45;&gt;dir_934fd243b40ff671fa1d708949b38ec2 -->
<g id="edge1" class="edge">
<title>dir_017e5c9f40fa6b790bfa9c3045514b77&#45;&gt;dir_934fd243b40ff671fa1d708949b38ec2</title>
<g id="a_edge1"><a xlink:href="dir_000263_000533.html" target="_top">
<path fill="none" stroke="#63b8ff" d="M215.27,-70.84C193.9,-62.35 161.66,-49.54 137.37,-39.89"/>
<polygon fill="#63b8ff" stroke="#63b8ff" points="138.84,-36.7 128.25,-36.26 136.25,-43.21 138.84,-36.7"/>
</a>
</g>
<g id="a_edge1&#45;headlabel"><a xlink:href="dir_000263_000533.html" target="_top" xlink:title="1">
<text text-anchor="middle" x="141.82" y="-30.96" font-family="Helvetica,sans-Serif" font-size="10.00" fill="#63b8ff">1</text>
</a>
</g>
</g>
<!-- dir_acd10cd7fd9186b3d52e51f11f624973 -->
<g id="node15" class="node">
<title>dir_acd10cd7fd9186b3d52e51f11f624973</title>
<g id="a_node15"><a xlink:href="dir_acd10cd7fd9186b3d52e51f11f624973.html" target="_top" xlink:title="python">
<polygon fill="#a2b4d6" stroke="#404040" points="324.25,-90.5 279.75,-90.5 279.75,-71.25 324.25,-71.25 324.25,-90.5"/>
<text text-anchor="middle" x="302" y="-77" font-family="Helvetica,sans-Serif" font-size="10.00">python</text>
</a>
</g>
</g>
<!-- dir_620ca40abe80b42fefc625116843f54b -->
<g id="node16" class="node">
<title>dir_620ca40abe80b42fefc625116843f54b</title>
<g id="a_node16"><a xlink:href="dir_620ca40abe80b42fefc625116843f54b.html" target="_top" xlink:title="src">
<polygon fill="#a2b4d6" stroke="#404040" points="371.75,-90.5 342.25,-90.5 342.25,-71.25 371.75,-71.25 371.75,-90.5"/>
<text text-anchor="middle" x="357" y="-77" font-family="Helvetica,sans-Serif" font-size="10.00">src</text>
</a>
</g>
</g>
<!-- dir_620ca40abe80b42fefc625116843f54b&#45;&gt;dir_eaab8e706d9785a8277b333b3fa3c104 -->
<g id="edge15" class="edge">
<title>dir_620ca40abe80b42fefc625116843f54b&#45;&gt;dir_eaab8e706d9785a8277b333b3fa3c104</title>
<g id="a_edge15"><a xlink:href="dir_000449_000008.html" target="_top">
<path fill="none" stroke="#63b8ff" d="M345.83,-70.77C341.96,-68 337.47,-65.18 333,-63.25 281.45,-40.96 262.13,-48.05 204.02,-35.54"/>
<polygon fill="#63b8ff" stroke="#63b8ff" points="205.12,-32.2 194.6,-33.4 203.57,-39.03 205.12,-32.2"/>
</a>
</g>
<g id="a_edge15&#45;headlabel"><a xlink:href="dir_000449_000008.html" target="_top" xlink:title="1">
<text text-anchor="middle" x="207.78" y="-26.02" font-family="Helvetica,sans-Serif" font-size="10.00" fill="#63b8ff">1</text>
</a>
</g>
</g>
<!-- dir_620ca40abe80b42fefc625116843f54b&#45;&gt;dir_f6ebe3d21dc6eefb077bc4c75cd16e31 -->
<g id="edge16" class="edge">
<title>dir_620ca40abe80b42fefc625116843f54b&#45;&gt;dir_f6ebe3d21dc6eefb077bc4c75cd16e31</title>
<g id="a_edge16"><a xlink:href="dir_000449_000350.html" target="_top">
<path fill="none" stroke="#63b8ff" d="M345.15,-70.83C341.38,-68.19 337.12,-65.43 333,-63.25 315.1,-53.77 294.2,-45.45 276.56,-39.13"/>
<polygon fill="#63b8ff" stroke="#63b8ff" points="277.81,-35.86 267.21,-35.88 275.51,-42.47 277.81,-35.86"/>
</a>
</g>
<g id="a_edge16&#45;headlabel"><a xlink:href="dir_000449_000350.html" target="_top" xlink:title="1">
<text text-anchor="middle" x="280.71" y="-29.99" font-family="Helvetica,sans-Serif" font-size="10.00" fill="#63b8ff">1</text>
</a>
</g>
</g>
<!-- dir_620ca40abe80b42fefc625116843f54b&#45;&gt;dir_d6186462c2ecf8bc2243dcff615e0cdf -->
<g id="edge14" class="edge">
<title>dir_620ca40abe80b42fefc625116843f54b&#45;&gt;dir_d6186462c2ecf8bc2243dcff615e0cdf</title>
<g id="a_edge14"><a xlink:href="dir_000449_000093.html" target="_top">
<path fill="none" stroke="#63b8ff" d="M351.72,-71.08C347.53,-64.11 341.52,-54.12 336.27,-45.37"/>
<polygon fill="#63b8ff" stroke="#63b8ff" points="339.33,-43.68 331.18,-36.91 333.33,-47.28 339.33,-43.68"/>
</a>
</g>
<g id="a_edge14&#45;headlabel"><a xlink:href="dir_000449_000093.html" target="_top" xlink:title="6">
<text text-anchor="middle" x="342.84" y="-40.12" font-family="Helvetica,sans-Serif" font-size="10.00" fill="#63b8ff">6</text>
</a>
</g>
</g>
<!-- dir_620ca40abe80b42fefc625116843f54b&#45;&gt;dir_f74a706a7efda297e6d8fb2c03527fc2 -->
<g id="edge17" class="edge">
<title>dir_620ca40abe80b42fefc625116843f54b&#45;&gt;dir_f74a706a7efda297e6d8fb2c03527fc2</title>
<g id="a_edge17"><a xlink:href="dir_000449_000316.html" target="_top">
<path fill="none" stroke="#63b8ff" d="M346.42,-70.85C342.45,-67.94 337.75,-65.02 333,-63.25 226.97,-23.78 189.06,-54.31 73.73,-35.21"/>
<polygon fill="#63b8ff" stroke="#63b8ff" points="74.64,-31.81 64.19,-33.53 73.43,-38.71 74.64,-31.81"/>
</a>
</g>
<g id="a_edge17&#45;headlabel"><a xlink:href="dir_000449_000316.html" target="_top" xlink:title="3">
<text text-anchor="middle" x="77.18" y="-25.5" font-family="Helvetica,sans-Serif" font-size="10.00" fill="#63b8ff">3</text>
</a>
</g>
</g>
<!-- dir_620ca40abe80b42fefc625116843f54b&#45;&gt;dir_934fd243b40ff671fa1d708949b38ec2 -->
<g id="edge8" class="edge">
<title>dir_620ca40abe80b42fefc625116843f54b&#45;&gt;dir_934fd243b40ff671fa1d708949b38ec2</title>
<g id="a_edge8"><a xlink:href="dir_000449_000533.html" target="_top">
<path fill="none" stroke="#63b8ff" d="M346.38,-70.94C342.41,-68.04 337.72,-65.1 333,-63.25 253.96,-32.27 224.96,-51.34 138.78,-35.52"/>
<polygon fill="#63b8ff" stroke="#63b8ff" points="139.66,-32.13 129.17,-33.65 138.32,-39 139.66,-32.13"/>
</a>
</g>
<g id="a_edge8&#45;headlabel"><a xlink:href="dir_000449_000533.html" target="_top" xlink:title="2">
<text text-anchor="middle" x="142.25" y="-25.87" font-family="Helvetica,sans-Serif" font-size="10.00" fill="#63b8ff">2</text>
</a>
</g>
</g>
<!-- dir_620ca40abe80b42fefc625116843f54b&#45;&gt;dir_d1e2a2554d257d865d12dd7826332eac -->
<g id="edge13" class="edge">
<title>dir_620ca40abe80b42fefc625116843f54b&#45;&gt;dir_d1e2a2554d257d865d12dd7826332eac</title>
<g id="a_edge13"><a xlink:href="dir_000449_000512.html" target="_top">
<path fill="none" stroke="#63b8ff" d="M368.37,-70.84C378.05,-63.15 392.2,-51.9 403.81,-42.68"/>
<polygon fill="#63b8ff" stroke="#63b8ff" points="405.97,-45.43 411.62,-36.47 401.61,-39.95 405.97,-45.43"/>
</a>
</g>
<g id="a_edge13&#45;headlabel"><a xlink:href="dir_000449_000512.html" target="_top" xlink:title="1">
<text text-anchor="middle" x="406.1" y="-45.07" font-family="Helvetica,sans-Serif" font-size="10.00" fill="#63b8ff">1</text>
</a>
</g>
</g>
<!-- dir_620ca40abe80b42fefc625116843f54b&#45;&gt;dir_a64e56b30f5ca31a10654cea03375984 -->
<g id="edge9" class="edge">
<title>dir_620ca40abe80b42fefc625116843f54b&#45;&gt;dir_a64e56b30f5ca31a10654cea03375984</title>
<g id="a_edge9"><a xlink:href="dir_000449_000191.html" target="_top">
<path fill="none" stroke="#63b8ff" d="M368.27,-70.99C372.15,-68.24 376.62,-65.37 381,-63.25 416.47,-46.09 430.33,-48.44 470.22,-35.94"/>
<polygon fill="#63b8ff" stroke="#63b8ff" points="471.11,-39.34 479.52,-32.89 468.92,-32.68 471.11,-39.34"/>
</a>
</g>
<g id="a_edge9&#45;headlabel"><a xlink:href="dir_000449_000191.html" target="_top" xlink:title="2">
<text text-anchor="middle" x="470.01" y="-38.81" font-family="Helvetica,sans-Serif" font-size="10.00" fill="#63b8ff">2</text>
</a>
</g>
</g>
<!-- dir_620ca40abe80b42fefc625116843f54b&#45;&gt;dir_5365a3767b7bcdec829ecb94aa09817f -->
<g id="edge7" class="edge">
<title>dir_620ca40abe80b42fefc625116843f54b&#45;&gt;dir_5365a3767b7bcdec829ecb94aa09817f</title>
<g id="a_edge7"><a xlink:href="dir_000449_000520.html" target="_top">
<path fill="none" stroke="#63b8ff" d="M367.68,-71.09C371.65,-68.21 376.34,-65.23 381,-63.25 435.82,-39.93 456.5,-49.03 517.16,-35.69"/>
<polygon fill="#63b8ff" stroke="#63b8ff" points="517.68,-39.17 526.63,-33.49 516.09,-32.35 517.68,-39.17"/>
</a>
</g>
<g id="a_edge7&#45;headlabel"><a xlink:href="dir_000449_000520.html" target="_top" xlink:title="1">
<text text-anchor="middle" x="516.3" y="-38.53" font-family="Helvetica,sans-Serif" font-size="10.00" fill="#63b8ff">1</text>
</a>
</g>
</g>
<!-- dir_620ca40abe80b42fefc625116843f54b&#45;&gt;dir_ab1b54331b4bb0c44e7fcd5a7d20111e -->
<g id="edge10" class="edge">
<title>dir_620ca40abe80b42fefc625116843f54b&#45;&gt;dir_ab1b54331b4bb0c44e7fcd5a7d20111e</title>
<g id="a_edge10"><a xlink:href="dir_000449_000300.html" target="_top">
<path fill="none" stroke="#63b8ff" d="M367.62,-70.93C371.58,-68.03 376.28,-65.09 381,-63.25 461.25,-31.9 490.33,-49.61 578.09,-35.56"/>
<polygon fill="#63b8ff" stroke="#63b8ff" points="578.63,-39.02 587.9,-33.89 577.45,-32.12 578.63,-39.02"/>
</a>
</g>
<g id="a_edge10&#45;headlabel"><a xlink:href="dir_000449_000300.html" target="_top" xlink:title="2">
<text text-anchor="middle" x="577.06" y="-38.3" font-family="Helvetica,sans-Serif" font-size="10.00" fill="#63b8ff">2</text>
</a>
</g>
</g>
<!-- dir_620ca40abe80b42fefc625116843f54b&#45;&gt;dir_c1d57bfadd68378fc3d59efca0edc545 -->
<g id="edge12" class="edge">
<title>dir_620ca40abe80b42fefc625116843f54b&#45;&gt;dir_c1d57bfadd68378fc3d59efca0edc545</title>
<g id="a_edge12"><a xlink:href="dir_000449_000132.html" target="_top">
<path fill="none" stroke="#63b8ff" d="M367.58,-70.83C371.54,-67.92 376.24,-65 381,-63.25 494.52,-21.44 534.42,-51.85 656.99,-35.5"/>
<polygon fill="#63b8ff" stroke="#63b8ff" points="657.41,-38.97 666.82,-34.1 656.43,-32.04 657.41,-38.97"/>
</a>
</g>
<g id="a_edge12&#45;headlabel"><a xlink:href="dir_000449_000132.html" target="_top" xlink:title="3">
<text text-anchor="middle" x="655.75" y="-38.2" font-family="Helvetica,sans-Serif" font-size="10.00" fill="#63b8ff">3</text>
</a>
</g>
</g>
<!-- dir_620ca40abe80b42fefc625116843f54b&#45;&gt;dir_49997343c4c8eab520bf1e45b9cad06f -->
<g id="edge6" class="edge">
<title>dir_620ca40abe80b42fefc625116843f54b&#45;&gt;dir_49997343c4c8eab520bf1e45b9cad06f</title>
<g id="a_edge6"><a xlink:href="dir_000449_000128.html" target="_top">
<path fill="none" stroke="#63b8ff" d="M367.55,-70.77C371.52,-67.85 376.22,-64.95 381,-63.25 531.29,-9.9 582.82,-53.58 743.86,-35.47"/>
<polygon fill="#63b8ff" stroke="#63b8ff" points="744.12,-38.97 753.64,-34.31 743.29,-32.02 744.12,-38.97"/>
</a>
</g>
<g id="a_edge6&#45;headlabel"><a xlink:href="dir_000449_000128.html" target="_top" xlink:title="1">
<text text-anchor="middle" x="742.39" y="-38.16" font-family="Helvetica,sans-Serif" font-size="10.00" fill="#63b8ff">1</text>
</a>
</g>
</g>
<!-- dir_bbc7c2c1f127b379ce39be24c4bd3dbe -->
<g id="node17" class="node">
<title>dir_bbc7c2c1f127b379ce39be24c4bd3dbe</title>
<g id="a_node17"><a xlink:href="dir_bbc7c2c1f127b379ce39be24c4bd3dbe.html" target="_top" xlink:title="build">
<polygon fill="#edf0f7" stroke="red" stroke-dasharray="5,2" points="891.12,-35.25 854.88,-35.25 854.88,-16 891.12,-16 891.12,-35.25"/>
<text text-anchor="middle" x="873" y="-21.75" font-family="Helvetica,sans-Serif" font-size="10.00">build</text>
</a>
</g>
</g>
<!-- dir_620ca40abe80b42fefc625116843f54b&#45;&gt;dir_bbc7c2c1f127b379ce39be24c4bd3dbe -->
<g id="edge11" class="edge">
<title>dir_620ca40abe80b42fefc625116843f54b&#45;&gt;dir_bbc7c2c1f127b379ce39be24c4bd3dbe</title>
<g id="a_edge11"><a xlink:href="dir_000449_000034.html" target="_top">
<path fill="none" stroke="#63b8ff" d="M367.07,-71.07C371.12,-68.04 376.02,-64.97 381,-63.25 476.2,-30.34 729.36,-54.47 843.31,-35.91"/>
<polygon fill="#63b8ff" stroke="#63b8ff" points="843.85,-39.37 853.06,-34.12 842.59,-32.49 843.85,-39.37"/>
</a>
</g>
<g id="a_edge11&#45;headlabel"><a xlink:href="dir_000449_000034.html" target="_top" xlink:title="2">
<text text-anchor="middle" x="842.32" y="-38.67" font-family="Helvetica,sans-Serif" font-size="10.00" fill="#63b8ff">2</text>
</a>
</g>
</g>
</g>
</svg>
