<?xml version="1.0" encoding="UTF-8" standalone="no"?>
<!DOCTYPE svg PUBLIC "-//W3C//DTD SVG 1.1//EN"
 "http://www.w3.org/Graphics/SVG/1.1/DTD/svg11.dtd">
<!-- Generated by graphviz version 9.0.0 (20230911.1827)
 -->
<!-- Title: /github/workspace/dev_area/sourcecode/dbe/src Pages: 1 -->
<svg width="648pt" height="142pt"
 viewBox="0.00 0.00 647.75 141.75" xmlns="http://www.w3.org/2000/svg" xmlns:xlink="http://www.w3.org/1999/xlink">
<g id="graph0" class="graph" transform="scale(1 1) rotate(0) translate(4 137.75)">
<title>/github/workspace/dev_area/sourcecode/dbe/src</title>
<g id="clust1" class="cluster">
<title>clusterdir_e9e5341e7253cc205127b1dd7c8e5ae3</title>
<g id="a_clust1"><a xlink:href="dir_e9e5341e7253cc205127b1dd7c8e5ae3.html" target="_top" xlink:title="dbe">
<polygon fill="#edf0f7" stroke="#7f7f7f" stroke-dasharray="5,2" points="8,-8 8,-125.75 470,-125.75 470,-8 8,-8"/>
<text text-anchor="middle" x="239" y="-112.25" font-family="Helvetica,sans-Serif" font-size="10.00">dbe</text>
</a>
</g>
</g>
<g id="clust2" class="cluster">
<title>clusterdir_734580dfaf2bd99c6703e82b4df59125</title>
<g id="a_clust2"><a xlink:href="dir_734580dfaf2bd99c6703e82b4df59125.html" target="_top">
<polygon fill="#edf0f7" stroke="#404040" stroke-width="2" points="16,-63.25 16,-98.5 462,-98.5 462,-63.25 16,-63.25"/>
</a>
</g>
</g>
<!-- dir_3dc747a5c1365db2af73716b2fb459bd -->
<g id="node1" class="node">
<title>dir_3dc747a5c1365db2af73716b2fb459bd</title>
<g id="a_node1"><a xlink:href="dir_3dc747a5c1365db2af73716b2fb459bd.html" target="_top" xlink:title="include">
<polygon fill="#a2b4d6" stroke="red" points="274.38,-35.25 227.62,-35.25 227.62,-16 274.38,-16 274.38,-35.25"/>
<text text-anchor="middle" x="251" y="-21.75" font-family="Helvetica,sans-Serif" font-size="10.00">include</text>
</a>
</g>
</g>
<!-- dir_734580dfaf2bd99c6703e82b4df59125 -->
<g id="node2" class="node">
<title>dir_734580dfaf2bd99c6703e82b4df59125</title>
<text text-anchor="middle" x="373" y="-77" font-family="Helvetica,sans-Serif" font-size="10.00">src</text>
</g>
<!-- dir_734580dfaf2bd99c6703e82b4df59125&#45;&gt;dir_3dc747a5c1365db2af73716b2fb459bd -->
<g id="edge1" class="edge">
<title>dir_734580dfaf2bd99c6703e82b4df59125&#45;&gt;dir_3dc747a5c1365db2af73716b2fb459bd</title>
<g id="a_edge1"><a xlink:href="dir_000446_000259.html" target="_top">
<path fill="none" stroke="#63b8ff" d="M362.13,-71.49C358.14,-68.65 353.49,-65.6 349,-63.25 328.68,-52.63 304.58,-43.58 285.35,-37.13"/>
<polygon fill="#63b8ff" stroke="#63b8ff" points="286.7,-33.89 276.11,-34.11 284.53,-40.54 286.7,-33.89"/>
</a>
</g>
<g id="a_edge1&#45;headlabel"><a xlink:href="dir_000446_000259.html" target="_top" xlink:title="243">
<text text-anchor="middle" x="289.56" y="-27.96" font-family="Helvetica,sans-Serif" font-size="10.00" fill="#63b8ff">243</text>
</a>
</g>
</g>
<!-- dir_9d6e15ccedcd1a70fc216bfe60bdd41c -->
<g id="node9" class="node">
<title>dir_9d6e15ccedcd1a70fc216bfe60bdd41c</title>
<g id="a_node9"><a xlink:href="dir_9d6e15ccedcd1a70fc216bfe60bdd41c.html" target="_top" xlink:title="conffwk">
<polygon fill="#edf0f7" stroke="red" stroke-dasharray="5,2" points="591.88,-35.25 542.12,-35.25 542.12,-16 591.88,-16 591.88,-35.25"/>
<text text-anchor="middle" x="567" y="-21.75" font-family="Helvetica,sans-Serif" font-size="10.00">conffwk</text>
</a>
</g>
</g>
<!-- dir_734580dfaf2bd99c6703e82b4df59125&#45;&gt;dir_9d6e15ccedcd1a70fc216bfe60bdd41c -->
<g id="edge2" class="edge">
<title>dir_734580dfaf2bd99c6703e82b4df59125&#45;&gt;dir_9d6e15ccedcd1a70fc216bfe60bdd41c</title>
<g id="a_edge2"><a xlink:href="dir_000446_000072.html" target="_top">
<path fill="none" stroke="#63b8ff" d="M383.21,-71.45C387.28,-68.46 392.15,-65.32 397,-63.25 450.63,-40.29 470.65,-48.06 530.9,-35.54"/>
<polygon fill="#63b8ff" stroke="#63b8ff" points="531.28,-39.04 540.3,-33.48 529.78,-32.21 531.28,-39.04"/>
</a>
</g>
<g id="a_edge2&#45;headlabel"><a xlink:href="dir_000446_000072.html" target="_top" xlink:title="15">
<text text-anchor="middle" x="529.86" y="-38.39" font-family="Helvetica,sans-Serif" font-size="10.00" fill="#63b8ff">15</text>
</a>
</g>
</g>
<!-- dir_a64e56b30f5ca31a10654cea03375984 -->
<g id="node10" class="node">
<title>dir_a64e56b30f5ca31a10654cea03375984</title>
<g id="a_node10"><a xlink:href="dir_a64e56b30f5ca31a10654cea03375984.html" target="_top" xlink:title="ers">
<polygon fill="#edf0f7" stroke="red" stroke-dasharray="5,2" points="639.75,-35.25 610.25,-35.25 610.25,-16 639.75,-16 639.75,-35.25"/>
<text text-anchor="middle" x="625" y="-21.75" font-family="Helvetica,sans-Serif" font-size="10.00">ers</text>
</a>
</g>
</g>
<!-- dir_734580dfaf2bd99c6703e82b4df59125&#45;&gt;dir_a64e56b30f5ca31a10654cea03375984 -->
<g id="edge3" class="edge">
<title>dir_734580dfaf2bd99c6703e82b4df59125&#45;&gt;dir_a64e56b30f5ca31a10654cea03375984</title>
<g id="a_edge3"><a xlink:href="dir_000446_000191.html" target="_top">
<path fill="none" stroke="#63b8ff" d="M383.14,-71.27C387.21,-68.26 392.09,-65.16 397,-63.25 478.96,-31.36 509.71,-55.05 598.76,-35.23"/>
<polygon fill="#63b8ff" stroke="#63b8ff" points="599.51,-38.64 608.44,-32.93 597.9,-31.83 599.51,-38.64"/>
</a>
</g>
<g id="a_edge3&#45;headlabel"><a xlink:href="dir_000446_000191.html" target="_top" xlink:title="4">
<text text-anchor="middle" x="598.14" y="-38.01" font-family="Helvetica,sans-Serif" font-size="10.00" fill="#63b8ff">4</text>
</a>
</g>
</g>
<!-- dir_f74a706a7efda297e6d8fb2c03527fc2 -->
<g id="node11" class="node">
<title>dir_f74a706a7efda297e6d8fb2c03527fc2</title>
<g id="a_node11"><a xlink:href="dir_f74a706a7efda297e6d8fb2c03527fc2.html" target="_top" xlink:title="logging">
<polygon fill="#edf0f7" stroke="red" stroke-dasharray="5,2" points="524.38,-35.25 477.62,-35.25 477.62,-16 524.38,-16 524.38,-35.25"/>
<text text-anchor="middle" x="501" y="-21.75" font-family="Helvetica,sans-Serif" font-size="10.00">logging</text>
</a>
</g>
</g>
<!-- dir_734580dfaf2bd99c6703e82b4df59125&#45;&gt;dir_f74a706a7efda297e6d8fb2c03527fc2 -->
<g id="edge4" class="edge">
<title>dir_734580dfaf2bd99c6703e82b4df59125&#45;&gt;dir_f74a706a7efda297e6d8fb2c03527fc2</title>
<g id="a_edge4"><a xlink:href="dir_000446_000316.html" target="_top">
<path fill="none" stroke="#63b8ff" d="M383.85,-71.45C387.84,-68.6 392.49,-65.56 397,-63.25 403.51,-59.93 439.27,-47.53 467.06,-38.07"/>
<polygon fill="#63b8ff" stroke="#63b8ff" points="467.84,-41.51 476.18,-34.98 465.59,-34.88 467.84,-41.51"/>
</a>
</g>
<g id="a_edge4&#45;headlabel"><a xlink:href="dir_000446_000316.html" target="_top" xlink:title="5">
<text text-anchor="middle" x="466.78" y="-40.99" font-family="Helvetica,sans-Serif" font-size="10.00" fill="#63b8ff">5</text>
</a>
</g>
</g>
<!-- dir_22dfbe9f1aa382e365abcf140a71b8ba -->
<g id="node3" class="node">
<title>dir_22dfbe9f1aa382e365abcf140a71b8ba</title>
<g id="a_node3"><a xlink:href="dir_22dfbe9f1aa382e365abcf140a71b8ba.html" target="_top" xlink:title="graphical">
<polygon fill="#a2b4d6" stroke="#404040" points="211.5,-90.5 156.5,-90.5 156.5,-71.25 211.5,-71.25 211.5,-90.5"/>
<text text-anchor="middle" x="184" y="-77" font-family="Helvetica,sans-Serif" font-size="10.00">graphical</text>
</a>
</g>
</g>
<!-- dir_22dfbe9f1aa382e365abcf140a71b8ba&#45;&gt;dir_3dc747a5c1365db2af73716b2fb459bd -->
<g id="edge5" class="edge">
<title>dir_22dfbe9f1aa382e365abcf140a71b8ba&#45;&gt;dir_3dc747a5c1365db2af73716b2fb459bd</title>
<g id="a_edge5"><a xlink:href="dir_000215_000259.html" target="_top">
<path fill="none" stroke="#63b8ff" d="M195.37,-70.84C205.05,-63.15 219.2,-51.9 230.81,-42.68"/>
<polygon fill="#63b8ff" stroke="#63b8ff" points="232.97,-45.43 238.62,-36.47 228.61,-39.95 232.97,-45.43"/>
</a>
</g>
<g id="a_edge5&#45;headlabel"><a xlink:href="dir_000215_000259.html" target="_top" xlink:title="12">
<text text-anchor="middle" x="233.1" y="-45.07" font-family="Helvetica,sans-Serif" font-size="10.00" fill="#63b8ff">12</text>
</a>
</g>
</g>
<!-- dir_b44d69eea909c800643d49cd201bd70c -->
<g id="node4" class="node">
<title>dir_b44d69eea909c800643d49cd201bd70c</title>
<g id="a_node4"><a xlink:href="dir_b44d69eea909c800643d49cd201bd70c.html" target="_top" xlink:title="internal">
<polygon fill="#a2b4d6" stroke="#404040" points="453.75,-90.5 406.25,-90.5 406.25,-71.25 453.75,-71.25 453.75,-90.5"/>
<text text-anchor="middle" x="430" y="-77" font-family="Helvetica,sans-Serif" font-size="10.00">internal</text>
</a>
</g>
</g>
<!-- dir_b44d69eea909c800643d49cd201bd70c&#45;&gt;dir_3dc747a5c1365db2af73716b2fb459bd -->
<g id="edge6" class="edge">
<title>dir_b44d69eea909c800643d49cd201bd70c&#45;&gt;dir_3dc747a5c1365db2af73716b2fb459bd</title>
<g id="a_edge6"><a xlink:href="dir_000295_000259.html" target="_top">
<path fill="none" stroke="#63b8ff" d="M413.87,-70.85C408.6,-68.15 402.65,-65.35 397,-63.25 360.03,-49.49 315.89,-39.22 285.89,-33.11"/>
<polygon fill="#63b8ff" stroke="#63b8ff" points="286.72,-29.71 276.23,-31.2 285.36,-36.58 286.72,-29.71"/>
</a>
</g>
<g id="a_edge6&#45;headlabel"><a xlink:href="dir_000295_000259.html" target="_top" xlink:title="103">
<text text-anchor="middle" x="289.32" y="-23.46" font-family="Helvetica,sans-Serif" font-size="10.00" fill="#63b8ff">103</text>
</a>
</g>
</g>
<!-- dir_b44d69eea909c800643d49cd201bd70c&#45;&gt;dir_9d6e15ccedcd1a70fc216bfe60bdd41c -->
<g id="edge7" class="edge">
<title>dir_b44d69eea909c800643d49cd201bd70c&#45;&gt;dir_9d6e15ccedcd1a70fc216bfe60bdd41c</title>
<g id="a_edge7"><a xlink:href="dir_000295_000072.html" target="_top">
<path fill="none" stroke="#63b8ff" d="M453.24,-70.84C475.19,-62.31 508.35,-49.42 533.21,-39.76"/>
<polygon fill="#63b8ff" stroke="#63b8ff" points="534.18,-43.14 542.24,-36.25 531.65,-36.61 534.18,-43.14"/>
</a>
</g>
<g id="a_edge7&#45;headlabel"><a xlink:href="dir_000295_000072.html" target="_top" xlink:title="11">
<text text-anchor="middle" x="533.27" y="-42.66" font-family="Helvetica,sans-Serif" font-size="10.00" fill="#63b8ff">11</text>
</a>
</g>
</g>
<!-- dir_b44d69eea909c800643d49cd201bd70c&#45;&gt;dir_a64e56b30f5ca31a10654cea03375984 -->
<g id="edge8" class="edge">
<title>dir_b44d69eea909c800643d49cd201bd70c&#45;&gt;dir_a64e56b30f5ca31a10654cea03375984</title>
<g id="a_edge8"><a xlink:href="dir_000295_000191.html" target="_top">
<path fill="none" stroke="#63b8ff" d="M453.98,-74.34C485.29,-66.95 541.97,-53.06 599.16,-35.61"/>
<polygon fill="#63b8ff" stroke="#63b8ff" points="599.87,-39.05 608.39,-32.75 597.8,-32.36 599.87,-39.05"/>
</a>
</g>
<g id="a_edge8&#45;headlabel"><a xlink:href="dir_000295_000191.html" target="_top" xlink:title="3">
<text text-anchor="middle" x="598.72" y="-38.5" font-family="Helvetica,sans-Serif" font-size="10.00" fill="#63b8ff">3</text>
</a>
</g>
</g>
<!-- dir_b44d69eea909c800643d49cd201bd70c&#45;&gt;dir_f74a706a7efda297e6d8fb2c03527fc2 -->
<g id="edge9" class="edge">
<title>dir_b44d69eea909c800643d49cd201bd70c&#45;&gt;dir_f74a706a7efda297e6d8fb2c03527fc2</title>
<g id="a_edge9"><a xlink:href="dir_000295_000316.html" target="_top">
<path fill="none" stroke="#63b8ff" d="M442.04,-70.84C452.41,-63.07 467.6,-51.67 479.97,-42.4"/>
<polygon fill="#63b8ff" stroke="#63b8ff" points="482.02,-45.23 487.92,-36.43 477.82,-39.63 482.02,-45.23"/>
</a>
</g>
<g id="a_edge9&#45;headlabel"><a xlink:href="dir_000295_000316.html" target="_top" xlink:title="3">
<text text-anchor="middle" x="482.06" y="-44.88" font-family="Helvetica,sans-Serif" font-size="10.00" fill="#63b8ff">3</text>
</a>
</g>
</g>
<!-- dir_ec35d38d2d50e21a0c950341dcd985bc -->
<g id="node5" class="node">
<title>dir_ec35d38d2d50e21a0c950341dcd985bc</title>
<g id="a_node5"><a xlink:href="dir_ec35d38d2d50e21a0c950341dcd985bc.html" target="_top" xlink:title="object">
<polygon fill="#a2b4d6" stroke="#404040" points="66.12,-90.5 23.88,-90.5 23.88,-71.25 66.12,-71.25 66.12,-90.5"/>
<text text-anchor="middle" x="45" y="-77" font-family="Helvetica,sans-Serif" font-size="10.00">object</text>
</a>
</g>
</g>
<!-- dir_ec35d38d2d50e21a0c950341dcd985bc&#45;&gt;dir_3dc747a5c1365db2af73716b2fb459bd -->
<g id="edge10" class="edge">
<title>dir_ec35d38d2d50e21a0c950341dcd985bc&#45;&gt;dir_3dc747a5c1365db2af73716b2fb459bd</title>
<g id="a_edge10"><a xlink:href="dir_000324_000259.html" target="_top">
<path fill="none" stroke="#63b8ff" d="M59.23,-70.84C64.08,-68.08 69.64,-65.24 75,-63.25 122.18,-45.73 179.76,-35.75 215.92,-30.76"/>
<polygon fill="#63b8ff" stroke="#63b8ff" points="216.36,-34.23 225.81,-29.45 215.44,-27.29 216.36,-34.23"/>
</a>
</g>
<g id="a_edge10&#45;headlabel"><a xlink:href="dir_000324_000259.html" target="_top" xlink:title="7">
<text text-anchor="middle" x="214.66" y="-33.44" font-family="Helvetica,sans-Serif" font-size="10.00" fill="#63b8ff">7</text>
</a>
</g>
</g>
<!-- dir_85b0b24e835800d22829cc5b8591b611 -->
<g id="node6" class="node">
<title>dir_85b0b24e835800d22829cc5b8591b611</title>
<g id="a_node6"><a xlink:href="dir_85b0b24e835800d22829cc5b8591b611.html" target="_top" xlink:title="qtutils">
<polygon fill="#a2b4d6" stroke="#404040" points="272.12,-90.5 229.88,-90.5 229.88,-71.25 272.12,-71.25 272.12,-90.5"/>
<text text-anchor="middle" x="251" y="-77" font-family="Helvetica,sans-Serif" font-size="10.00">qtutils</text>
</a>
</g>
</g>
<!-- dir_85b0b24e835800d22829cc5b8591b611&#45;&gt;dir_3dc747a5c1365db2af73716b2fb459bd -->
<g id="edge11" class="edge">
<title>dir_85b0b24e835800d22829cc5b8591b611&#45;&gt;dir_3dc747a5c1365db2af73716b2fb459bd</title>
<g id="a_edge11"><a xlink:href="dir_000400_000259.html" target="_top">
<path fill="none" stroke="#63b8ff" d="M251,-71.08C251,-64.57 251,-55.42 251,-47.12"/>
<polygon fill="#63b8ff" stroke="#63b8ff" points="254.5,-47.12 251,-37.12 247.5,-47.12 254.5,-47.12"/>
</a>
</g>
<g id="a_edge11&#45;headlabel"><a xlink:href="dir_000400_000259.html" target="_top" xlink:title="2">
<text text-anchor="middle" x="257.34" y="-45.33" font-family="Helvetica,sans-Serif" font-size="10.00" fill="#63b8ff">2</text>
</a>
</g>
</g>
<!-- dir_f8f0645462a8ef23cc05c5788a9a5a81 -->
<g id="node7" class="node">
<title>dir_f8f0645462a8ef23cc05c5788a9a5a81</title>
<g id="a_node7"><a xlink:href="dir_f8f0645462a8ef23cc05c5788a9a5a81.html" target="_top" xlink:title="structure">
<polygon fill="#a2b4d6" stroke="#404040" points="138.12,-90.5 83.88,-90.5 83.88,-71.25 138.12,-71.25 138.12,-90.5"/>
<text text-anchor="middle" x="111" y="-77" font-family="Helvetica,sans-Serif" font-size="10.00">structure</text>
</a>
</g>
</g>
<!-- dir_f8f0645462a8ef23cc05c5788a9a5a81&#45;&gt;dir_3dc747a5c1365db2af73716b2fb459bd -->
<g id="edge12" class="edge">
<title>dir_f8f0645462a8ef23cc05c5788a9a5a81&#45;&gt;dir_3dc747a5c1365db2af73716b2fb459bd</title>
<g id="a_edge12"><a xlink:href="dir_000481_000259.html" target="_top">
<path fill="none" stroke="#63b8ff" d="M129.54,-70.91C135.11,-68.33 141.26,-65.58 147,-63.25 169.9,-53.96 196.15,-44.72 216.55,-37.85"/>
<polygon fill="#63b8ff" stroke="#63b8ff" points="217.4,-41.25 225.78,-34.77 215.19,-34.61 217.4,-41.25"/>
</a>
</g>
<g id="a_edge12&#45;headlabel"><a xlink:href="dir_000481_000259.html" target="_top" xlink:title="66">
<text text-anchor="middle" x="216.33" y="-40.73" font-family="Helvetica,sans-Serif" font-size="10.00" fill="#63b8ff">66</text>
</a>
</g>
</g>
<!-- dir_47821eccc626ed5a0fd172398919da67 -->
<g id="node8" class="node">
<title>dir_47821eccc626ed5a0fd172398919da67</title>
<g id="a_node8"><a xlink:href="dir_47821eccc626ed5a0fd172398919da67.html" target="_top" xlink:title="widgets">
<polygon fill="#a2b4d6" stroke="#404040" points="339.88,-90.5 290.12,-90.5 290.12,-71.25 339.88,-71.25 339.88,-90.5"/>
<text text-anchor="middle" x="315" y="-77" font-family="Helvetica,sans-Serif" font-size="10.00">widgets</text>
</a>
</g>
</g>
<!-- dir_47821eccc626ed5a0fd172398919da67&#45;&gt;dir_3dc747a5c1365db2af73716b2fb459bd -->
<g id="edge13" class="edge">
<title>dir_47821eccc626ed5a0fd172398919da67&#45;&gt;dir_3dc747a5c1365db2af73716b2fb459bd</title>
<g id="a_edge13"><a xlink:href="dir_000553_000259.html" target="_top">
<path fill="none" stroke="#63b8ff" d="M304.14,-70.84C294.89,-63.15 281.38,-51.9 270.29,-42.68"/>
<polygon fill="#63b8ff" stroke="#63b8ff" points="272.79,-40.2 262.86,-36.49 268.31,-45.58 272.79,-40.2"/>
</a>
</g>
<g id="a_edge13&#45;headlabel"><a xlink:href="dir_000553_000259.html" target="_top" xlink:title="47">
<text text-anchor="middle" x="276.2" y="-35.47" font-family="Helvetica,sans-Serif" font-size="10.00" fill="#63b8ff">47</text>
</a>
</g>
</g>
<!-- dir_47821eccc626ed5a0fd172398919da67&#45;&gt;dir_9d6e15ccedcd1a70fc216bfe60bdd41c -->
<g id="edge14" class="edge">
<title>dir_47821eccc626ed5a0fd172398919da67&#45;&gt;dir_9d6e15ccedcd1a70fc216bfe60bdd41c</title>
<g id="a_edge14"><a xlink:href="dir_000553_000072.html" target="_top">
<path fill="none" stroke="#63b8ff" d="M330.84,-70.89C336.43,-68.06 342.85,-65.17 349,-63.25 424.56,-39.64 449.76,-50.61 530.58,-35.5"/>
<polygon fill="#63b8ff" stroke="#63b8ff" points="531.18,-38.95 540.33,-33.6 529.84,-32.08 531.18,-38.95"/>
</a>
</g>
<g id="a_edge14&#45;headlabel"><a xlink:href="dir_000553_000072.html" target="_top" xlink:title="3">
<text text-anchor="middle" x="529.69" y="-38.26" font-family="Helvetica,sans-Serif" font-size="10.00" fill="#63b8ff">3</text>
</a>
</g>
</g>
<!-- dir_47821eccc626ed5a0fd172398919da67&#45;&gt;dir_f74a706a7efda297e6d8fb2c03527fc2 -->
<g id="edge15" class="edge">
<title>dir_47821eccc626ed5a0fd172398919da67&#45;&gt;dir_f74a706a7efda297e6d8fb2c03527fc2</title>
<g id="a_edge15"><a xlink:href="dir_000553_000316.html" target="_top">
<path fill="none" stroke="#63b8ff" d="M331.61,-70.79C337.04,-68.08 343.17,-65.3 349,-63.25 399.15,-45.65 416.72,-49.49 466.13,-37.23"/>
<polygon fill="#63b8ff" stroke="#63b8ff" points="466.92,-40.65 475.72,-34.74 465.16,-33.87 466.92,-40.65"/>
</a>
</g>
<g id="a_edge15&#45;headlabel"><a xlink:href="dir_000553_000316.html" target="_top" xlink:title="1">
<text text-anchor="middle" x="465.62" y="-40.04" font-family="Helvetica,sans-Serif" font-size="10.00" fill="#63b8ff">1</text>
</a>
</g>
</g>
</g>
</svg>
