<?xml version="1.0" encoding="UTF-8" standalone="no"?>
<!DOCTYPE svg PUBLIC "-//W3C//DTD SVG 1.1//EN"
 "http://www.w3.org/Graphics/SVG/1.1/DTD/svg11.dtd">
<!-- Generated by graphviz version 9.0.0 (20230911.1827)
 -->
<!-- Title: /github/workspace/dev_area/sourcecode/sspmodules/src Pages: 1 -->
<svg width="155pt" height="181pt"
 viewBox="0.00 0.00 154.66 181.00" xmlns="http://www.w3.org/2000/svg" xmlns:xlink="http://www.w3.org/1999/xlink">
<g id="graph0" class="graph" transform="scale(1 1) rotate(0) translate(4 177)">
<title>/github/workspace/dev_area/sourcecode/sspmodules/src</title>
<g id="clust1" class="cluster">
<title>clusterdir_597b99012137b0957f62c3145adb0ab7</title>
<g id="a_clust1"><a xlink:href="dir_597b99012137b0957f62c3145adb0ab7.html" target="_top" xlink:title="sspmodules">
<polygon fill="#edf0f7" stroke="#7f7f7f" stroke-dasharray="5,2" points="52.66,-39.25 52.66,-165 138.66,-165 138.66,-39.25 52.66,-39.25"/>
<text text-anchor="middle" x="95.66" y="-151.5" font-family="Helvetica,sans-Serif" font-size="10.00">sspmodules</text>
</a>
</g>
</g>
<g id="clust2" class="cluster">
<title>clusterdir_c0dc9601ff2aa8d309681adcac579026</title>
<g id="a_clust2"><a xlink:href="dir_c0dc9601ff2aa8d309681adcac579026.html" target="_top">
<polygon fill="#edf0f7" stroke="#404040" stroke-width="2" points="60.66,-47.25 60.66,-137.75 130.66,-137.75 130.66,-47.25 60.66,-47.25"/>
</a>
</g>
</g>
<!-- dir_c0dc9601ff2aa8d309681adcac579026 -->
<g id="node1" class="node">
<title>dir_c0dc9601ff2aa8d309681adcac579026</title>
<text text-anchor="middle" x="89.66" y="-116.25" font-family="Helvetica,sans-Serif" font-size="10.00">src</text>
</g>
<!-- dir_e5782c508e8f760ba996eb887d5113f1 -->
<g id="node2" class="node">
<title>dir_e5782c508e8f760ba996eb887d5113f1</title>
<g id="a_node2"><a xlink:href="dir_e5782c508e8f760ba996eb887d5113f1.html" target="_top" xlink:title="anlBoard">
<polygon fill="#a2b4d6" stroke="#404040" points="122.79,-74.5 68.54,-74.5 68.54,-55.25 122.79,-55.25 122.79,-74.5"/>
<text text-anchor="middle" x="95.66" y="-61" font-family="Helvetica,sans-Serif" font-size="10.00">anlBoard</text>
</a>
</g>
</g>
<!-- dir_c0dc9601ff2aa8d309681adcac579026&#45;&gt;dir_e5782c508e8f760ba996eb887d5113f1 -->
<g id="edge3" class="edge">
<title>dir_c0dc9601ff2aa8d309681adcac579026&#45;&gt;dir_e5782c508e8f760ba996eb887d5113f1</title>
<g id="a_edge3"><a xlink:href="dir_000469_000003.html" target="_top">
<path fill="none" stroke="#63b8ff" d="M90.6,-110.8C91.35,-104.12 92.44,-94.46 93.42,-85.81"/>
<polygon fill="#63b8ff" stroke="#63b8ff" points="96.86,-86.5 94.5,-76.17 89.9,-85.72 96.86,-86.5"/>
</a>
</g>
<g id="a_edge3&#45;headlabel"><a xlink:href="dir_000469_000003.html" target="_top" xlink:title="1">
<text text-anchor="middle" x="99.45" y="-85.01" font-family="Helvetica,sans-Serif" font-size="10.00" fill="#63b8ff">1</text>
</a>
</g>
</g>
<!-- dir_a64e56b30f5ca31a10654cea03375984 -->
<g id="node3" class="node">
<title>dir_a64e56b30f5ca31a10654cea03375984</title>
<g id="a_node3"><a xlink:href="dir_a64e56b30f5ca31a10654cea03375984.html" target="_top" xlink:title="ers">
<polygon fill="#edf0f7" stroke="red" stroke-dasharray="5,2" points="44.41,-74.5 14.91,-74.5 14.91,-55.25 44.41,-55.25 44.41,-74.5"/>
<text text-anchor="middle" x="29.66" y="-61" font-family="Helvetica,sans-Serif" font-size="10.00">ers</text>
</a>
</g>
</g>
<!-- dir_c0dc9601ff2aa8d309681adcac579026&#45;&gt;dir_a64e56b30f5ca31a10654cea03375984 -->
<g id="edge1" class="edge">
<title>dir_c0dc9601ff2aa8d309681adcac579026&#45;&gt;dir_a64e56b30f5ca31a10654cea03375984</title>
<g id="a_edge1"><a xlink:href="dir_000469_000191.html" target="_top">
<path fill="none" stroke="#63b8ff" d="M80.02,-110.57C71.52,-103.02 58.87,-91.8 48.39,-82.49"/>
<polygon fill="#63b8ff" stroke="#63b8ff" points="50.81,-79.97 41.01,-75.95 46.17,-85.2 50.81,-79.97"/>
</a>
</g>
<g id="a_edge1&#45;headlabel"><a xlink:href="dir_000469_000191.html" target="_top" xlink:title="1">
<text text-anchor="middle" x="54.26" y="-75.35" font-family="Helvetica,sans-Serif" font-size="10.00" fill="#63b8ff">1</text>
</a>
</g>
</g>
<!-- dir_bbc7c2c1f127b379ce39be24c4bd3dbe -->
<g id="node4" class="node">
<title>dir_bbc7c2c1f127b379ce39be24c4bd3dbe</title>
<g id="a_node4"><a xlink:href="dir_bbc7c2c1f127b379ce39be24c4bd3dbe.html" target="_top" xlink:title="build">
<polygon fill="#edf0f7" stroke="red" stroke-dasharray="5,2" points="56.79,-19.25 20.54,-19.25 20.54,0 56.79,0 56.79,-19.25"/>
<text text-anchor="middle" x="38.66" y="-5.75" font-family="Helvetica,sans-Serif" font-size="10.00">build</text>
</a>
</g>
</g>
<!-- dir_c0dc9601ff2aa8d309681adcac579026&#45;&gt;dir_bbc7c2c1f127b379ce39be24c4bd3dbe -->
<g id="edge2" class="edge">
<title>dir_c0dc9601ff2aa8d309681adcac579026&#45;&gt;dir_bbc7c2c1f127b379ce39be24c4bd3dbe</title>
<g id="a_edge2"><a xlink:href="dir_000469_000034.html" target="_top">
<path fill="none" stroke="#63b8ff" d="M75.24,-116.24C55.5,-111.43 20.81,-99.69 5.66,-74.5 -2.41,-61.07 -0.84,-53.5 5.66,-39.25 7.81,-34.54 11.16,-30.31 14.91,-26.64"/>
<polygon fill="#63b8ff" stroke="#63b8ff" points="16.86,-29.57 22.31,-20.48 12.38,-24.19 16.86,-29.57"/>
</a>
</g>
<g id="a_edge2&#45;headlabel"><a xlink:href="dir_000469_000034.html" target="_top" xlink:title="4">
<text text-anchor="middle" x="17.08" y="-29.21" font-family="Helvetica,sans-Serif" font-size="10.00" fill="#63b8ff">4</text>
</a>
</g>
</g>
<!-- dir_f74a706a7efda297e6d8fb2c03527fc2 -->
<g id="node5" class="node">
<title>dir_f74a706a7efda297e6d8fb2c03527fc2</title>
<g id="a_node5"><a xlink:href="dir_f74a706a7efda297e6d8fb2c03527fc2.html" target="_top" xlink:title="logging">
<polygon fill="#edf0f7" stroke="red" stroke-dasharray="5,2" points="146.04,-19.25 99.29,-19.25 99.29,0 146.04,0 146.04,-19.25"/>
<text text-anchor="middle" x="122.66" y="-5.75" font-family="Helvetica,sans-Serif" font-size="10.00">logging</text>
</a>
</g>
</g>
<!-- dir_c0dc9601ff2aa8d309681adcac579026&#45;&gt;dir_f74a706a7efda297e6d8fb2c03527fc2 -->
<g id="edge4" class="edge">
<title>dir_c0dc9601ff2aa8d309681adcac579026&#45;&gt;dir_f74a706a7efda297e6d8fb2c03527fc2</title>
<g id="a_edge4"><a xlink:href="dir_000469_000316.html" target="_top">
<path fill="none" stroke="#63b8ff" d="M101.47,-110.77C111.65,-102.79 125.62,-89.73 131.66,-74.5 137.29,-60.31 134.37,-43.13 130.42,-30.16"/>
<polygon fill="#63b8ff" stroke="#63b8ff" points="133.84,-29.33 127.21,-21.07 127.24,-31.66 133.84,-29.33"/>
</a>
</g>
<g id="a_edge4&#45;headlabel"><a xlink:href="dir_000469_000316.html" target="_top" xlink:title="3">
<text text-anchor="middle" x="137.21" y="-26.48" font-family="Helvetica,sans-Serif" font-size="10.00" fill="#63b8ff">3</text>
</a>
</g>
</g>
<!-- dir_e5782c508e8f760ba996eb887d5113f1&#45;&gt;dir_bbc7c2c1f127b379ce39be24c4bd3dbe -->
<g id="edge5" class="edge">
<title>dir_e5782c508e8f760ba996eb887d5113f1&#45;&gt;dir_bbc7c2c1f127b379ce39be24c4bd3dbe</title>
<g id="a_edge5"><a xlink:href="dir_000003_000034.html" target="_top">
<path fill="none" stroke="#63b8ff" d="M85.99,-54.84C77.92,-47.3 66.2,-36.35 56.44,-27.23"/>
<polygon fill="#63b8ff" stroke="#63b8ff" points="58.99,-24.83 49.29,-20.56 54.21,-29.94 58.99,-24.83"/>
</a>
</g>
<g id="a_edge5&#45;headlabel"><a xlink:href="dir_000003_000034.html" target="_top" xlink:title="2">
<text text-anchor="middle" x="62.45" y="-20.3" font-family="Helvetica,sans-Serif" font-size="10.00" fill="#63b8ff">2</text>
</a>
</g>
</g>
<!-- dir_e5782c508e8f760ba996eb887d5113f1&#45;&gt;dir_f74a706a7efda297e6d8fb2c03527fc2 -->
<g id="edge6" class="edge">
<title>dir_e5782c508e8f760ba996eb887d5113f1&#45;&gt;dir_f74a706a7efda297e6d8fb2c03527fc2</title>
<g id="a_edge6"><a xlink:href="dir_000003_000316.html" target="_top">
<path fill="none" stroke="#63b8ff" d="M100.12,-55.08C103.62,-48.19 108.61,-38.34 113.01,-29.66"/>
<polygon fill="#63b8ff" stroke="#63b8ff" points="116.02,-31.46 117.42,-20.96 109.78,-28.3 116.02,-31.46"/>
</a>
</g>
<g id="a_edge6&#45;headlabel"><a xlink:href="dir_000003_000316.html" target="_top" xlink:title="2">
<text text-anchor="middle" x="117.61" y="-30.73" font-family="Helvetica,sans-Serif" font-size="10.00" fill="#63b8ff">2</text>
</a>
</g>
</g>
</g>
</svg>
