<?xml version="1.0" encoding="UTF-8" standalone="no"?>
<!DOCTYPE svg PUBLIC "-//W3C//DTD SVG 1.1//EN"
 "http://www.w3.org/Graphics/SVG/1.1/DTD/svg11.dtd">
<!-- Generated by graphviz version 9.0.0 (20230911.1827)
 -->
<!-- Title: /github/workspace/dev_area/sourcecode/iomanager/include/iomanager/queue Pages: 1 -->
<svg width="286pt" height="181pt"
 viewBox="0.00 0.00 285.53 181.00" xmlns="http://www.w3.org/2000/svg" xmlns:xlink="http://www.w3.org/1999/xlink">
<g id="graph0" class="graph" transform="scale(1 1) rotate(0) translate(4 177)">
<title>/github/workspace/dev_area/sourcecode/iomanager/include/iomanager/queue</title>
<g id="clust1" class="cluster">
<title>clusterdir_e09e17ccc4bc2b4edf2b17bf8a69f297</title>
<g id="a_clust1"><a xlink:href="dir_e09e17ccc4bc2b4edf2b17bf8a69f297.html" target="_top" xlink:title="iomanager">
<polygon fill="#edf0f7" stroke="#7f7f7f" stroke-dasharray="5,2" points="69.31,-39.25 69.31,-165 143.31,-165 143.31,-39.25 69.31,-39.25"/>
<text text-anchor="middle" x="106.31" y="-151.5" font-family="Helvetica,sans-Serif" font-size="10.00">iomanager</text>
</a>
</g>
</g>
<g id="clust2" class="cluster">
<title>clusterdir_901a047d3d57286d40458fdda26d0e7e</title>
<g id="a_clust2"><a xlink:href="dir_901a047d3d57286d40458fdda26d0e7e.html" target="_top">
<polygon fill="#edf0f7" stroke="#404040" stroke-width="2" points="77.31,-47.25 77.31,-137.75 135.31,-137.75 135.31,-47.25 77.31,-47.25"/>
</a>
</g>
</g>
<!-- dir_901a047d3d57286d40458fdda26d0e7e -->
<g id="node1" class="node">
<title>dir_901a047d3d57286d40458fdda26d0e7e</title>
<text text-anchor="middle" x="106.31" y="-116.25" font-family="Helvetica,sans-Serif" font-size="10.00">queue</text>
</g>
<!-- dir_62a6efa79948b1d9aaf379b8c40cf429 -->
<g id="node2" class="node">
<title>dir_62a6efa79948b1d9aaf379b8c40cf429</title>
<g id="a_node2"><a xlink:href="dir_62a6efa79948b1d9aaf379b8c40cf429.html" target="_top" xlink:title="detail">
<polygon fill="#a2b4d6" stroke="#404040" points="125.93,-74.5 86.68,-74.5 86.68,-55.25 125.93,-55.25 125.93,-74.5"/>
<text text-anchor="middle" x="106.31" y="-61" font-family="Helvetica,sans-Serif" font-size="10.00">detail</text>
</a>
</g>
</g>
<!-- dir_901a047d3d57286d40458fdda26d0e7e&#45;&gt;dir_62a6efa79948b1d9aaf379b8c40cf429 -->
<g id="edge1" class="edge">
<title>dir_901a047d3d57286d40458fdda26d0e7e&#45;&gt;dir_62a6efa79948b1d9aaf379b8c40cf429</title>
<g id="a_edge1"><a xlink:href="dir_000401_000117.html" target="_top">
<path fill="none" stroke="#63b8ff" d="M106.31,-110.8C106.31,-104.2 106.31,-94.69 106.31,-86.11"/>
<polygon fill="#63b8ff" stroke="#63b8ff" points="109.81,-86.18 106.31,-76.18 102.81,-86.18 109.81,-86.18"/>
</a>
</g>
<g id="a_edge1&#45;headlabel"><a xlink:href="dir_000401_000117.html" target="_top" xlink:title="4">
<text text-anchor="middle" x="112.65" y="-84.39" font-family="Helvetica,sans-Serif" font-size="10.00" fill="#63b8ff">4</text>
</a>
</g>
</g>
<!-- dir_934fd243b40ff671fa1d708949b38ec2 -->
<g id="node3" class="node">
<title>dir_934fd243b40ff671fa1d708949b38ec2</title>
<g id="a_node3"><a xlink:href="dir_934fd243b40ff671fa1d708949b38ec2.html" target="_top" xlink:title="utilities">
<polygon fill="#edf0f7" stroke="red" stroke-dasharray="5,2" points="61.68,-74.5 14.93,-74.5 14.93,-55.25 61.68,-55.25 61.68,-74.5"/>
<text text-anchor="middle" x="38.31" y="-61" font-family="Helvetica,sans-Serif" font-size="10.00">utilities</text>
</a>
</g>
</g>
<!-- dir_901a047d3d57286d40458fdda26d0e7e&#45;&gt;dir_934fd243b40ff671fa1d708949b38ec2 -->
<g id="edge2" class="edge">
<title>dir_901a047d3d57286d40458fdda26d0e7e&#45;&gt;dir_934fd243b40ff671fa1d708949b38ec2</title>
<g id="a_edge2"><a xlink:href="dir_000401_000533.html" target="_top">
<path fill="none" stroke="#63b8ff" d="M95.38,-110.57C85.55,-102.87 70.83,-91.35 58.81,-81.93"/>
<polygon fill="#63b8ff" stroke="#63b8ff" points="61.11,-79.29 51.08,-75.88 56.8,-84.8 61.11,-79.29"/>
</a>
</g>
<g id="a_edge2&#45;headlabel"><a xlink:href="dir_000401_000533.html" target="_top" xlink:title="1">
<text text-anchor="middle" x="64.5" y="-74.46" font-family="Helvetica,sans-Serif" font-size="10.00" fill="#63b8ff">1</text>
</a>
</g>
</g>
<!-- dir_a64e56b30f5ca31a10654cea03375984 -->
<g id="node4" class="node">
<title>dir_a64e56b30f5ca31a10654cea03375984</title>
<g id="a_node4"><a xlink:href="dir_a64e56b30f5ca31a10654cea03375984.html" target="_top" xlink:title="ers">
<polygon fill="#edf0f7" stroke="red" stroke-dasharray="5,2" points="77.06,-19.25 47.56,-19.25 47.56,0 77.06,0 77.06,-19.25"/>
<text text-anchor="middle" x="62.31" y="-5.75" font-family="Helvetica,sans-Serif" font-size="10.00">ers</text>
</a>
</g>
</g>
<!-- dir_901a047d3d57286d40458fdda26d0e7e&#45;&gt;dir_a64e56b30f5ca31a10654cea03375984 -->
<g id="edge3" class="edge">
<title>dir_901a047d3d57286d40458fdda26d0e7e&#45;&gt;dir_a64e56b30f5ca31a10654cea03375984</title>
<g id="a_edge3"><a xlink:href="dir_000401_000191.html" target="_top">
<path fill="none" stroke="#63b8ff" d="M85.57,-116.51C61.77,-112.27 23.8,-101.45 6.31,-74.5 -2.22,-61.36 -1.87,-52.61 6.31,-39.25 12.93,-28.42 25.09,-21.53 36.39,-17.22"/>
<polygon fill="#63b8ff" stroke="#63b8ff" points="37.28,-20.61 45.72,-14.2 35.13,-13.95 37.28,-20.61"/>
</a>
</g>
<g id="a_edge3&#45;headlabel"><a xlink:href="dir_000401_000191.html" target="_top" xlink:title="5">
<text text-anchor="middle" x="36.18" y="-20.08" font-family="Helvetica,sans-Serif" font-size="10.00" fill="#63b8ff">5</text>
</a>
</g>
</g>
<!-- dir_bbc7c2c1f127b379ce39be24c4bd3dbe -->
<g id="node5" class="node">
<title>dir_bbc7c2c1f127b379ce39be24c4bd3dbe</title>
<g id="a_node5"><a xlink:href="dir_bbc7c2c1f127b379ce39be24c4bd3dbe.html" target="_top" xlink:title="build">
<polygon fill="#edf0f7" stroke="red" stroke-dasharray="5,2" points="187.43,-74.5 151.18,-74.5 151.18,-55.25 187.43,-55.25 187.43,-74.5"/>
<text text-anchor="middle" x="169.31" y="-61" font-family="Helvetica,sans-Serif" font-size="10.00">build</text>
</a>
</g>
</g>
<!-- dir_901a047d3d57286d40458fdda26d0e7e&#45;&gt;dir_bbc7c2c1f127b379ce39be24c4bd3dbe -->
<g id="edge4" class="edge">
<title>dir_901a047d3d57286d40458fdda26d0e7e&#45;&gt;dir_bbc7c2c1f127b379ce39be24c4bd3dbe</title>
<g id="a_edge4"><a xlink:href="dir_000401_000034.html" target="_top">
<path fill="none" stroke="#63b8ff" d="M116.43,-110.57C125.45,-102.94 138.9,-91.57 149.98,-82.21"/>
<polygon fill="#63b8ff" stroke="#63b8ff" points="152.04,-85.05 157.42,-75.92 147.53,-79.7 152.04,-85.05"/>
</a>
</g>
<g id="a_edge4&#45;headlabel"><a xlink:href="dir_000401_000034.html" target="_top" xlink:title="2">
<text text-anchor="middle" x="152.29" y="-84.69" font-family="Helvetica,sans-Serif" font-size="10.00" fill="#63b8ff">2</text>
</a>
</g>
</g>
<!-- dir_f6ebe3d21dc6eefb077bc4c75cd16e31 -->
<g id="node6" class="node">
<title>dir_f6ebe3d21dc6eefb077bc4c75cd16e31</title>
<g id="a_node6"><a xlink:href="dir_f6ebe3d21dc6eefb077bc4c75cd16e31.html" target="_top" xlink:title="opmonlib">
<polygon fill="#edf0f7" stroke="red" stroke-dasharray="5,2" points="260.81,-74.5 205.81,-74.5 205.81,-55.25 260.81,-55.25 260.81,-74.5"/>
<text text-anchor="middle" x="233.31" y="-61" font-family="Helvetica,sans-Serif" font-size="10.00">opmonlib</text>
</a>
</g>
</g>
<!-- dir_901a047d3d57286d40458fdda26d0e7e&#45;&gt;dir_f6ebe3d21dc6eefb077bc4c75cd16e31 -->
<g id="edge5" class="edge">
<title>dir_901a047d3d57286d40458fdda26d0e7e&#45;&gt;dir_f6ebe3d21dc6eefb077bc4c75cd16e31</title>
<g id="a_edge5"><a xlink:href="dir_000401_000350.html" target="_top">
<path fill="none" stroke="#63b8ff" d="M126.71,-110.57C146.81,-102.14 177.81,-89.15 201.21,-79.33"/>
<polygon fill="#63b8ff" stroke="#63b8ff" points="202.41,-82.62 210.28,-75.53 199.71,-76.17 202.41,-82.62"/>
</a>
</g>
<g id="a_edge5&#45;headlabel"><a xlink:href="dir_000401_000350.html" target="_top" xlink:title="2">
<text text-anchor="middle" x="201.59" y="-82.17" font-family="Helvetica,sans-Serif" font-size="10.00" fill="#63b8ff">2</text>
</a>
</g>
</g>
<!-- dir_f74a706a7efda297e6d8fb2c03527fc2 -->
<g id="node7" class="node">
<title>dir_f74a706a7efda297e6d8fb2c03527fc2</title>
<g id="a_node7"><a xlink:href="dir_f74a706a7efda297e6d8fb2c03527fc2.html" target="_top" xlink:title="logging">
<polygon fill="#edf0f7" stroke="red" stroke-dasharray="5,2" points="172.68,-19.25 125.93,-19.25 125.93,0 172.68,0 172.68,-19.25"/>
<text text-anchor="middle" x="149.31" y="-5.75" font-family="Helvetica,sans-Serif" font-size="10.00">logging</text>
</a>
</g>
</g>
<!-- dir_901a047d3d57286d40458fdda26d0e7e&#45;&gt;dir_f74a706a7efda297e6d8fb2c03527fc2 -->
<g id="edge6" class="edge">
<title>dir_901a047d3d57286d40458fdda26d0e7e&#45;&gt;dir_f74a706a7efda297e6d8fb2c03527fc2</title>
<g id="a_edge6"><a xlink:href="dir_000401_000316.html" target="_top">
<path fill="none" stroke="#63b8ff" d="M127.14,-116.58C167.27,-111.21 252.88,-97.3 270.31,-74.5 279.82,-62.05 280.03,-51.54 270.31,-39.25 259.72,-25.87 216.07,-18.1 184.22,-14.11"/>
<polygon fill="#63b8ff" stroke="#63b8ff" points="184.95,-10.67 174.61,-12.99 184.14,-17.63 184.95,-10.67"/>
</a>
</g>
<g id="a_edge6&#45;headlabel"><a xlink:href="dir_000401_000316.html" target="_top" xlink:title="4">
<text text-anchor="middle" x="187.35" y="-4.22" font-family="Helvetica,sans-Serif" font-size="10.00" fill="#63b8ff">4</text>
</a>
</g>
</g>
<!-- dir_62a6efa79948b1d9aaf379b8c40cf429&#45;&gt;dir_a64e56b30f5ca31a10654cea03375984 -->
<g id="edge7" class="edge">
<title>dir_62a6efa79948b1d9aaf379b8c40cf429&#45;&gt;dir_a64e56b30f5ca31a10654cea03375984</title>
<g id="a_edge7"><a xlink:href="dir_000117_000191.html" target="_top">
<path fill="none" stroke="#63b8ff" d="M99.04,-55.08C93.03,-47.8 84.29,-37.23 76.85,-28.23"/>
<polygon fill="#63b8ff" stroke="#63b8ff" points="79.76,-26.26 70.7,-20.78 74.37,-30.71 79.76,-26.26"/>
</a>
</g>
<g id="a_edge7&#45;headlabel"><a xlink:href="dir_000117_000191.html" target="_top" xlink:title="1">
<text text-anchor="middle" x="83.28" y="-22.18" font-family="Helvetica,sans-Serif" font-size="10.00" fill="#63b8ff">1</text>
</a>
</g>
</g>
<!-- dir_62a6efa79948b1d9aaf379b8c40cf429&#45;&gt;dir_f74a706a7efda297e6d8fb2c03527fc2 -->
<g id="edge8" class="edge">
<title>dir_62a6efa79948b1d9aaf379b8c40cf429&#45;&gt;dir_f74a706a7efda297e6d8fb2c03527fc2</title>
<g id="a_edge8"><a xlink:href="dir_000117_000316.html" target="_top">
<path fill="none" stroke="#63b8ff" d="M113.41,-55.08C119.22,-47.88 127.64,-37.46 134.86,-28.51"/>
<polygon fill="#63b8ff" stroke="#63b8ff" points="137.54,-30.77 141.1,-20.79 132.1,-26.37 137.54,-30.77"/>
</a>
</g>
<g id="a_edge8&#45;headlabel"><a xlink:href="dir_000117_000316.html" target="_top" xlink:title="2">
<text text-anchor="middle" x="138.44" y="-30.29" font-family="Helvetica,sans-Serif" font-size="10.00" fill="#63b8ff">2</text>
</a>
</g>
</g>
</g>
</svg>
