<?xml version="1.0" encoding="UTF-8" standalone="no"?>
<!DOCTYPE svg PUBLIC "-//W3C//DTD SVG 1.1//EN"
 "http://www.w3.org/Graphics/SVG/1.1/DTD/svg11.dtd">
<!-- Generated by graphviz version 9.0.0 (20230911.1827)
 -->
<!-- Title: /github/workspace/dev_area/sourcecode/trgtools Pages: 1 -->
<svg width="580pt" height="197pt"
 viewBox="0.00 0.00 580.00 197.00" xmlns="http://www.w3.org/2000/svg" xmlns:xlink="http://www.w3.org/1999/xlink">
<g id="graph0" class="graph" transform="scale(1 1) rotate(0) translate(4 193)">
<title>/github/workspace/dev_area/sourcecode/trgtools</title>
<g id="clust1" class="cluster">
<title>clusterdir_e594a494f7a60e5bf534551500b27d35</title>
<g id="a_clust1"><a xlink:href="dir_e594a494f7a60e5bf534551500b27d35.html" target="_top" xlink:title="sourcecode">
<polygon fill="#edf0f7" stroke="#7f7f7f" stroke-dasharray="5,2" points="8,-8 8,-181 564,-181 564,-8 8,-8"/>
<text text-anchor="middle" x="286" y="-167.5" font-family="Helvetica,sans-Serif" font-size="10.00">sourcecode</text>
</a>
</g>
</g>
<g id="clust2" class="cluster">
<title>clusterdir_15e013f1d7fcc4d37a1af89cce9b0082</title>
<g id="a_clust2"><a xlink:href="dir_15e013f1d7fcc4d37a1af89cce9b0082.html" target="_top">
<polygon fill="#edf0f7" stroke="#404040" stroke-width="2" points="16,-63.25 16,-153.75 392,-153.75 392,-63.25 16,-63.25"/>
</a>
</g>
</g>
<!-- dir_7a4e2de72f40adc4f8b2aebaaa9fdd9b -->
<g id="node1" class="node">
<title>dir_7a4e2de72f40adc4f8b2aebaaa9fdd9b</title>
<g id="a_node1"><a xlink:href="dir_7a4e2de72f40adc4f8b2aebaaa9fdd9b.html" target="_top" xlink:title="triggeralgs">
<polygon fill="#a2b4d6" stroke="red" points="239.5,-35.25 178.5,-35.25 178.5,-16 239.5,-16 239.5,-35.25"/>
<text text-anchor="middle" x="209" y="-21.75" font-family="Helvetica,sans-Serif" font-size="10.00">triggeralgs</text>
</a>
</g>
</g>
<!-- dir_d1e2a2554d257d865d12dd7826332eac -->
<g id="node2" class="node">
<title>dir_d1e2a2554d257d865d12dd7826332eac</title>
<g id="a_node2"><a xlink:href="dir_d1e2a2554d257d865d12dd7826332eac.html" target="_top" xlink:title="trgdataformats">
<polygon fill="#a2b4d6" stroke="red" points="437.5,-35.25 358.5,-35.25 358.5,-16 437.5,-16 437.5,-35.25"/>
<text text-anchor="middle" x="398" y="-21.75" font-family="Helvetica,sans-Serif" font-size="10.00">trgdataformats</text>
</a>
</g>
</g>
<!-- dir_d24e48c8882d994109a98cb136e7ee99 -->
<g id="node3" class="node">
<title>dir_d24e48c8882d994109a98cb136e7ee99</title>
<g id="a_node3"><a xlink:href="dir_d24e48c8882d994109a98cb136e7ee99.html" target="_top" xlink:title="hdf5libs">
<polygon fill="#a2b4d6" stroke="red" points="449.88,-90.5 400.12,-90.5 400.12,-71.25 449.88,-71.25 449.88,-90.5"/>
<text text-anchor="middle" x="425" y="-77" font-family="Helvetica,sans-Serif" font-size="10.00">hdf5libs</text>
</a>
</g>
</g>
<!-- dir_fd12852c84626c78eaf66075877c6c41 -->
<g id="node4" class="node">
<title>dir_fd12852c84626c78eaf66075877c6c41</title>
<g id="a_node4"><a xlink:href="dir_fd12852c84626c78eaf66075877c6c41.html" target="_top" xlink:title="detchannelmaps">
<polygon fill="#a2b4d6" stroke="red" points="555.62,-90.5 468.38,-90.5 468.38,-71.25 555.62,-71.25 555.62,-90.5"/>
<text text-anchor="middle" x="512" y="-77" font-family="Helvetica,sans-Serif" font-size="10.00">detchannelmaps</text>
</a>
</g>
</g>
<!-- dir_d6186462c2ecf8bc2243dcff615e0cdf -->
<g id="node5" class="node">
<title>dir_d6186462c2ecf8bc2243dcff615e0cdf</title>
<g id="a_node5"><a xlink:href="dir_d6186462c2ecf8bc2243dcff615e0cdf.html" target="_top" xlink:title="daqdataformats">
<polygon fill="#a2b4d6" stroke="red" points="340.75,-35.25 257.25,-35.25 257.25,-16 340.75,-16 340.75,-35.25"/>
<text text-anchor="middle" x="299" y="-21.75" font-family="Helvetica,sans-Serif" font-size="10.00">daqdataformats</text>
</a>
</g>
</g>
<!-- dir_15e013f1d7fcc4d37a1af89cce9b0082 -->
<g id="node6" class="node">
<title>dir_15e013f1d7fcc4d37a1af89cce9b0082</title>
<text text-anchor="middle" x="360" y="-132.25" font-family="Helvetica,sans-Serif" font-size="10.00">trgtools</text>
</g>
<!-- dir_abd5b60162b0449523d4d45578541bc7 -->
<g id="node7" class="node">
<title>dir_abd5b60162b0449523d4d45578541bc7</title>
<g id="a_node7"><a xlink:href="dir_abd5b60162b0449523d4d45578541bc7.html" target="_top" xlink:title="apps">
<polygon fill="#a2b4d6" stroke="#404040" points="317.5,-145.75 280.5,-145.75 280.5,-126.5 317.5,-126.5 317.5,-145.75"/>
<text text-anchor="middle" x="299" y="-132.25" font-family="Helvetica,sans-Serif" font-size="10.00">apps</text>
</a>
</g>
</g>
<!-- dir_abd5b60162b0449523d4d45578541bc7&#45;&gt;dir_7a4e2de72f40adc4f8b2aebaaa9fdd9b -->
<g id="edge1" class="edge">
<title>dir_abd5b60162b0449523d4d45578541bc7&#45;&gt;dir_7a4e2de72f40adc4f8b2aebaaa9fdd9b</title>
<g id="a_edge1"><a xlink:href="dir_000029_000524.html" target="_top">
<path fill="none" stroke="#63b8ff" d="M291.63,-126.25C276.8,-108.36 243.09,-67.72 223.62,-44.25"/>
<polygon fill="#63b8ff" stroke="#63b8ff" points="226.51,-42.25 217.43,-36.79 221.12,-46.72 226.51,-42.25"/>
</a>
</g>
<g id="a_edge1&#45;headlabel"><a xlink:href="dir_000029_000524.html" target="_top" xlink:title="5">
<text text-anchor="middle" x="230.03" y="-38.17" font-family="Helvetica,sans-Serif" font-size="10.00" fill="#63b8ff">5</text>
</a>
</g>
</g>
<!-- dir_abd5b60162b0449523d4d45578541bc7&#45;&gt;dir_d1e2a2554d257d865d12dd7826332eac -->
<g id="edge3" class="edge">
<title>dir_abd5b60162b0449523d4d45578541bc7&#45;&gt;dir_d1e2a2554d257d865d12dd7826332eac</title>
<g id="a_edge3"><a xlink:href="dir_000029_000512.html" target="_top">
<path fill="none" stroke="#63b8ff" d="M307.1,-126.25C323.49,-108.28 360.83,-67.36 382.21,-43.94"/>
<polygon fill="#63b8ff" stroke="#63b8ff" points="384.61,-46.49 388.77,-36.74 379.44,-41.77 384.61,-46.49"/>
</a>
</g>
<g id="a_edge3&#45;headlabel"><a xlink:href="dir_000029_000512.html" target="_top" xlink:title="2">
<text text-anchor="middle" x="385.31" y="-46.07" font-family="Helvetica,sans-Serif" font-size="10.00" fill="#63b8ff">2</text>
</a>
</g>
</g>
<!-- dir_abd5b60162b0449523d4d45578541bc7&#45;&gt;dir_d24e48c8882d994109a98cb136e7ee99 -->
<g id="edge4" class="edge">
<title>dir_abd5b60162b0449523d4d45578541bc7&#45;&gt;dir_d24e48c8882d994109a98cb136e7ee99</title>
<g id="a_edge4"><a xlink:href="dir_000029_000217.html" target="_top">
<path fill="none" stroke="#63b8ff" d="M317.86,-127.15C337.75,-118.75 369.42,-105.36 393.18,-95.32"/>
<polygon fill="#63b8ff" stroke="#63b8ff" points="394.23,-98.68 402.08,-91.56 391.5,-92.23 394.23,-98.68"/>
</a>
</g>
<g id="a_edge4&#45;headlabel"><a xlink:href="dir_000029_000217.html" target="_top" xlink:title="3">
<text text-anchor="middle" x="393.42" y="-98.23" font-family="Helvetica,sans-Serif" font-size="10.00" fill="#63b8ff">3</text>
</a>
</g>
</g>
<!-- dir_abd5b60162b0449523d4d45578541bc7&#45;&gt;dir_fd12852c84626c78eaf66075877c6c41 -->
<g id="edge5" class="edge">
<title>dir_abd5b60162b0449523d4d45578541bc7&#45;&gt;dir_fd12852c84626c78eaf66075877c6c41</title>
<g id="a_edge5"><a xlink:href="dir_000029_000125.html" target="_top">
<path fill="none" stroke="#63b8ff" d="M317.93,-129.12C320.96,-128.21 324.06,-127.31 327,-126.5 371.61,-114.26 422.76,-102.06 459.96,-93.52"/>
<polygon fill="#63b8ff" stroke="#63b8ff" points="460.59,-96.97 469.55,-91.33 459.03,-90.14 460.59,-96.97"/>
</a>
</g>
<g id="a_edge5&#45;headlabel"><a xlink:href="dir_000029_000125.html" target="_top" xlink:title="1">
<text text-anchor="middle" x="459.19" y="-96.32" font-family="Helvetica,sans-Serif" font-size="10.00" fill="#63b8ff">1</text>
</a>
</g>
</g>
<!-- dir_9529f6dbbfa3b128c775ceb0a2761513 -->
<g id="node9" class="node">
<title>dir_9529f6dbbfa3b128c775ceb0a2761513</title>
<g id="a_node9"><a xlink:href="dir_9529f6dbbfa3b128c775ceb0a2761513.html" target="_top" xlink:title="include">
<polygon fill="#a2b4d6" stroke="#404040" points="322.38,-90.5 275.62,-90.5 275.62,-71.25 322.38,-71.25 322.38,-90.5"/>
<text text-anchor="middle" x="299" y="-77" font-family="Helvetica,sans-Serif" font-size="10.00">include</text>
</a>
</g>
</g>
<!-- dir_abd5b60162b0449523d4d45578541bc7&#45;&gt;dir_9529f6dbbfa3b128c775ceb0a2761513 -->
<g id="edge2" class="edge">
<title>dir_abd5b60162b0449523d4d45578541bc7&#45;&gt;dir_9529f6dbbfa3b128c775ceb0a2761513</title>
<g id="a_edge2"><a xlink:href="dir_000029_000289.html" target="_top">
<path fill="none" stroke="#63b8ff" d="M299,-126.33C299,-119.82 299,-110.67 299,-102.37"/>
<polygon fill="#63b8ff" stroke="#63b8ff" points="302.5,-102.37 299,-92.37 295.5,-102.37 302.5,-102.37"/>
</a>
</g>
<g id="a_edge2&#45;headlabel"><a xlink:href="dir_000029_000289.html" target="_top" xlink:title="2">
<text text-anchor="middle" x="305.34" y="-100.58" font-family="Helvetica,sans-Serif" font-size="10.00" fill="#63b8ff">2</text>
</a>
</g>
</g>
<!-- dir_8269d45c3f766b8be7dffecc55509c0d -->
<g id="node8" class="node">
<title>dir_8269d45c3f766b8be7dffecc55509c0d</title>
<g id="a_node8"><a xlink:href="dir_8269d45c3f766b8be7dffecc55509c0d.html" target="_top" xlink:title="docs">
<polygon fill="#a2b4d6" stroke="#404040" points="262.5,-145.75 225.5,-145.75 225.5,-126.5 262.5,-126.5 262.5,-145.75"/>
<text text-anchor="middle" x="244" y="-132.25" font-family="Helvetica,sans-Serif" font-size="10.00">docs</text>
</a>
</g>
</g>
<!-- dir_9529f6dbbfa3b128c775ceb0a2761513&#45;&gt;dir_7a4e2de72f40adc4f8b2aebaaa9fdd9b -->
<g id="edge7" class="edge">
<title>dir_9529f6dbbfa3b128c775ceb0a2761513&#45;&gt;dir_7a4e2de72f40adc4f8b2aebaaa9fdd9b</title>
<g id="a_edge7"><a xlink:href="dir_000289_000524.html" target="_top">
<path fill="none" stroke="#63b8ff" d="M284.47,-70.83C280.44,-68.35 276.06,-65.68 272,-63.25 259.78,-55.94 246.13,-47.98 234.67,-41.35"/>
<polygon fill="#63b8ff" stroke="#63b8ff" points="236.58,-38.41 226.17,-36.45 233.09,-44.48 236.58,-38.41"/>
</a>
</g>
<g id="a_edge7&#45;headlabel"><a xlink:href="dir_000289_000524.html" target="_top" xlink:title="4">
<text text-anchor="middle" x="239.8" y="-33.12" font-family="Helvetica,sans-Serif" font-size="10.00" fill="#63b8ff">4</text>
</a>
</g>
</g>
<!-- dir_9529f6dbbfa3b128c775ceb0a2761513&#45;&gt;dir_d1e2a2554d257d865d12dd7826332eac -->
<g id="edge6" class="edge">
<title>dir_9529f6dbbfa3b128c775ceb0a2761513&#45;&gt;dir_d1e2a2554d257d865d12dd7826332eac</title>
<g id="a_edge6"><a xlink:href="dir_000289_000512.html" target="_top">
<path fill="none" stroke="#63b8ff" d="M313.16,-70.86C317.26,-68.33 321.78,-65.62 326,-63.25 339.99,-55.4 355.86,-47.25 369.13,-40.64"/>
<polygon fill="#63b8ff" stroke="#63b8ff" points="370.36,-43.94 377.78,-36.37 367.26,-37.66 370.36,-43.94"/>
</a>
</g>
<g id="a_edge6&#45;headlabel"><a xlink:href="dir_000289_000512.html" target="_top" xlink:title="2">
<text text-anchor="middle" x="369.75" y="-43.53" font-family="Helvetica,sans-Serif" font-size="10.00" fill="#63b8ff">2</text>
</a>
</g>
</g>
<!-- dir_9529f6dbbfa3b128c775ceb0a2761513&#45;&gt;dir_d6186462c2ecf8bc2243dcff615e0cdf -->
<g id="edge8" class="edge">
<title>dir_9529f6dbbfa3b128c775ceb0a2761513&#45;&gt;dir_d6186462c2ecf8bc2243dcff615e0cdf</title>
<g id="a_edge8"><a xlink:href="dir_000289_000093.html" target="_top">
<path fill="none" stroke="#63b8ff" d="M299,-71.08C299,-64.57 299,-55.42 299,-47.12"/>
<polygon fill="#63b8ff" stroke="#63b8ff" points="302.5,-47.12 299,-37.12 295.5,-47.12 302.5,-47.12"/>
</a>
</g>
<g id="a_edge8&#45;headlabel"><a xlink:href="dir_000289_000093.html" target="_top" xlink:title="2">
<text text-anchor="middle" x="305.34" y="-45.33" font-family="Helvetica,sans-Serif" font-size="10.00" fill="#63b8ff">2</text>
</a>
</g>
</g>
<!-- dir_0932786433f0008679567c95df58d669 -->
<g id="node10" class="node">
<title>dir_0932786433f0008679567c95df58d669</title>
<g id="a_node10"><a xlink:href="dir_0932786433f0008679567c95df58d669.html" target="_top" xlink:title="pybindsrc">
<polygon fill="#a2b4d6" stroke="#404040" points="207.62,-145.75 150.38,-145.75 150.38,-126.5 207.62,-126.5 207.62,-145.75"/>
<text text-anchor="middle" x="179" y="-132.25" font-family="Helvetica,sans-Serif" font-size="10.00">pybindsrc</text>
</a>
</g>
</g>
<!-- dir_99479e4a31dfc8d74d6fe1a14dc95bb1 -->
<g id="node11" class="node">
<title>dir_99479e4a31dfc8d74d6fe1a14dc95bb1</title>
<g id="a_node11"><a xlink:href="dir_99479e4a31dfc8d74d6fe1a14dc95bb1.html" target="_top" xlink:title="python">
<polygon fill="#a2b4d6" stroke="#404040" points="132.25,-145.75 87.75,-145.75 87.75,-126.5 132.25,-126.5 132.25,-145.75"/>
<text text-anchor="middle" x="110" y="-132.25" font-family="Helvetica,sans-Serif" font-size="10.00">python</text>
</a>
</g>
</g>
<!-- dir_e20f126d9dbe8798f6c15fb47225df89 -->
<g id="node12" class="node">
<title>dir_e20f126d9dbe8798f6c15fb47225df89</title>
<g id="a_node12"><a xlink:href="dir_e20f126d9dbe8798f6c15fb47225df89.html" target="_top" xlink:title="scripts">
<polygon fill="#a2b4d6" stroke="#404040" points="69.62,-145.75 24.38,-145.75 24.38,-126.5 69.62,-126.5 69.62,-145.75"/>
<text text-anchor="middle" x="47" y="-132.25" font-family="Helvetica,sans-Serif" font-size="10.00">scripts</text>
</a>
</g>
</g>
</g>
</svg>
