<?xml version="1.0" encoding="UTF-8" standalone="no"?>
<!DOCTYPE svg PUBLIC "-//W3C//DTD SVG 1.1//EN"
 "http://www.w3.org/Graphics/SVG/1.1/DTD/svg11.dtd">
<!-- Generated by graphviz version 9.0.0 (20230911.1827)
 -->
<!-- Title: /github/workspace/dev_area/sourcecode/fdreadoutlibs/include/fdreadoutlibs Pages: 1 -->
<svg width="778pt" height="126pt"
 viewBox="0.00 0.00 777.88 125.75" xmlns="http://www.w3.org/2000/svg" xmlns:xlink="http://www.w3.org/1999/xlink">
<g id="graph0" class="graph" transform="scale(1 1) rotate(0) translate(4 121.75)">
<title>/github/workspace/dev_area/sourcecode/fdreadoutlibs/include/fdreadoutlibs</title>
<g id="clust1" class="cluster">
<title>clusterdir_575b28202c36ed264653905d4a3b4548</title>
<g id="a_clust1"><a xlink:href="dir_575b28202c36ed264653905d4a3b4548.html" target="_top" xlink:title="include">
<polygon fill="#edf0f7" stroke="#7f7f7f" stroke-dasharray="5,2" points="145.75,-39.25 145.75,-109.75 425.75,-109.75 425.75,-39.25 145.75,-39.25"/>
<text text-anchor="middle" x="285.75" y="-96.25" font-family="Helvetica,sans-Serif" font-size="10.00">include</text>
</a>
</g>
</g>
<g id="clust2" class="cluster">
<title>clusterdir_7bd2919941bc54d9a7d36dd4055bae9d</title>
<g id="a_clust2"><a xlink:href="dir_7bd2919941bc54d9a7d36dd4055bae9d.html" target="_top">
<polygon fill="#edf0f7" stroke="#404040" stroke-width="2" points="153.75,-47.25 153.75,-82.5 417.75,-82.5 417.75,-47.25 153.75,-47.25"/>
</a>
</g>
</g>
<!-- dir_7bd2919941bc54d9a7d36dd4055bae9d -->
<g id="node1" class="node">
<title>dir_7bd2919941bc54d9a7d36dd4055bae9d</title>
<text text-anchor="middle" x="197.75" y="-61" font-family="Helvetica,sans-Serif" font-size="10.00">fdreadoutlibs</text>
</g>
<!-- dir_a64e56b30f5ca31a10654cea03375984 -->
<g id="node5" class="node">
<title>dir_a64e56b30f5ca31a10654cea03375984</title>
<g id="a_node5"><a xlink:href="dir_a64e56b30f5ca31a10654cea03375984.html" target="_top" xlink:title="ers">
<polygon fill="#edf0f7" stroke="red" stroke-dasharray="5,2" points="29.5,-19.25 0,-19.25 0,0 29.5,0 29.5,-19.25"/>
<text text-anchor="middle" x="14.75" y="-5.75" font-family="Helvetica,sans-Serif" font-size="10.00">ers</text>
</a>
</g>
</g>
<!-- dir_7bd2919941bc54d9a7d36dd4055bae9d&#45;&gt;dir_a64e56b30f5ca31a10654cea03375984 -->
<g id="edge1" class="edge">
<title>dir_7bd2919941bc54d9a7d36dd4055bae9d&#45;&gt;dir_a64e56b30f5ca31a10654cea03375984</title>
<g id="a_edge1"><a xlink:href="dir_000202_000191.html" target="_top">
<path fill="none" stroke="#63b8ff" d="M164.66,-55.33C134.62,-47.41 88.91,-34.95 40.86,-19.76"/>
<polygon fill="#63b8ff" stroke="#63b8ff" points="41.96,-16.43 31.37,-16.73 39.83,-23.1 41.96,-16.43"/>
</a>
</g>
<g id="a_edge1&#45;headlabel"><a xlink:href="dir_000202_000191.html" target="_top" xlink:title="1">
<text text-anchor="middle" x="44.81" y="-10.49" font-family="Helvetica,sans-Serif" font-size="10.00" fill="#63b8ff">1</text>
</a>
</g>
</g>
<!-- dir_b171eb6ddcbdd8021917a50d6abc983c -->
<g id="node6" class="node">
<title>dir_b171eb6ddcbdd8021917a50d6abc983c</title>
<g id="a_node6"><a xlink:href="dir_b171eb6ddcbdd8021917a50d6abc983c.html" target="_top" xlink:title="fddetdataformats">
<polygon fill="#edf0f7" stroke="red" stroke-dasharray="5,2" points="137.5,-19.25 48,-19.25 48,0 137.5,0 137.5,-19.25"/>
<text text-anchor="middle" x="92.75" y="-5.75" font-family="Helvetica,sans-Serif" font-size="10.00">fddetdataformats</text>
</a>
</g>
</g>
<!-- dir_7bd2919941bc54d9a7d36dd4055bae9d&#45;&gt;dir_b171eb6ddcbdd8021917a50d6abc983c -->
<g id="edge2" class="edge">
<title>dir_7bd2919941bc54d9a7d36dd4055bae9d&#45;&gt;dir_b171eb6ddcbdd8021917a50d6abc983c</title>
<g id="a_edge2"><a xlink:href="dir_000202_000198.html" target="_top">
<path fill="none" stroke="#63b8ff" d="M180.88,-55.32C164.72,-47.12 140.02,-34.6 120.88,-24.89"/>
<polygon fill="#63b8ff" stroke="#63b8ff" points="122.48,-21.78 111.98,-20.38 119.32,-28.02 122.48,-21.78"/>
</a>
</g>
<g id="a_edge2&#45;headlabel"><a xlink:href="dir_000202_000198.html" target="_top" xlink:title="11">
<text text-anchor="middle" x="125.62" y="-16.31" font-family="Helvetica,sans-Serif" font-size="10.00" fill="#63b8ff">11</text>
</a>
</g>
</g>
<!-- dir_d6186462c2ecf8bc2243dcff615e0cdf -->
<g id="node7" class="node">
<title>dir_d6186462c2ecf8bc2243dcff615e0cdf</title>
<g id="a_node7"><a xlink:href="dir_d6186462c2ecf8bc2243dcff615e0cdf.html" target="_top" xlink:title="daqdataformats">
<polygon fill="#edf0f7" stroke="red" stroke-dasharray="5,2" points="239.5,-19.25 156,-19.25 156,0 239.5,0 239.5,-19.25"/>
<text text-anchor="middle" x="197.75" y="-5.75" font-family="Helvetica,sans-Serif" font-size="10.00">daqdataformats</text>
</a>
</g>
</g>
<!-- dir_7bd2919941bc54d9a7d36dd4055bae9d&#45;&gt;dir_d6186462c2ecf8bc2243dcff615e0cdf -->
<g id="edge3" class="edge">
<title>dir_7bd2919941bc54d9a7d36dd4055bae9d&#45;&gt;dir_d6186462c2ecf8bc2243dcff615e0cdf</title>
<g id="a_edge3"><a xlink:href="dir_000202_000093.html" target="_top">
<path fill="none" stroke="#63b8ff" d="M197.75,-55.55C197.75,-48.95 197.75,-39.44 197.75,-30.86"/>
<polygon fill="#63b8ff" stroke="#63b8ff" points="201.25,-30.93 197.75,-20.93 194.25,-30.93 201.25,-30.93"/>
</a>
</g>
<g id="a_edge3&#45;headlabel"><a xlink:href="dir_000202_000093.html" target="_top" xlink:title="12">
<text text-anchor="middle" x="204.09" y="-29.14" font-family="Helvetica,sans-Serif" font-size="10.00" fill="#63b8ff">12</text>
</a>
</g>
</g>
<!-- dir_0d1e8a419c83d189c8ebc0731f00cde8 -->
<g id="node2" class="node">
<title>dir_0d1e8a419c83d189c8ebc0731f00cde8</title>
<g id="a_node2"><a xlink:href="dir_0d1e8a419c83d189c8ebc0731f00cde8.html" target="_top" xlink:title="daphne">
<polygon fill="#a2b4d6" stroke="#404040" points="299.5,-74.5 252,-74.5 252,-55.25 299.5,-55.25 299.5,-74.5"/>
<text text-anchor="middle" x="275.75" y="-61" font-family="Helvetica,sans-Serif" font-size="10.00">daphne</text>
</a>
</g>
</g>
<!-- dir_0d1e8a419c83d189c8ebc0731f00cde8&#45;&gt;dir_b171eb6ddcbdd8021917a50d6abc983c -->
<g id="edge4" class="edge">
<title>dir_0d1e8a419c83d189c8ebc0731f00cde8&#45;&gt;dir_b171eb6ddcbdd8021917a50d6abc983c</title>
<g id="a_edge4"><a xlink:href="dir_000086_000198.html" target="_top">
<path fill="none" stroke="#63b8ff" d="M266.1,-54.82C259.89,-49.48 251.39,-43.05 242.75,-39.25 234.03,-35.41 187.77,-26.85 148.9,-20.09"/>
<polygon fill="#63b8ff" stroke="#63b8ff" points="149.59,-16.65 139.14,-18.4 148.4,-23.55 149.59,-16.65"/>
</a>
</g>
<g id="a_edge4&#45;headlabel"><a xlink:href="dir_000086_000198.html" target="_top" xlink:title="3">
<text text-anchor="middle" x="152.13" y="-10.34" font-family="Helvetica,sans-Serif" font-size="10.00" fill="#63b8ff">3</text>
</a>
</g>
</g>
<!-- dir_f74a706a7efda297e6d8fb2c03527fc2 -->
<g id="node8" class="node">
<title>dir_f74a706a7efda297e6d8fb2c03527fc2</title>
<g id="a_node8"><a xlink:href="dir_f74a706a7efda297e6d8fb2c03527fc2.html" target="_top" xlink:title="logging">
<polygon fill="#edf0f7" stroke="red" stroke-dasharray="5,2" points="304.12,-19.25 257.38,-19.25 257.38,0 304.12,0 304.12,-19.25"/>
<text text-anchor="middle" x="280.75" y="-5.75" font-family="Helvetica,sans-Serif" font-size="10.00">logging</text>
</a>
</g>
</g>
<!-- dir_0d1e8a419c83d189c8ebc0731f00cde8&#45;&gt;dir_f74a706a7efda297e6d8fb2c03527fc2 -->
<g id="edge5" class="edge">
<title>dir_0d1e8a419c83d189c8ebc0731f00cde8&#45;&gt;dir_f74a706a7efda297e6d8fb2c03527fc2</title>
<g id="a_edge5"><a xlink:href="dir_000086_000316.html" target="_top">
<path fill="none" stroke="#63b8ff" d="M276.58,-55.08C277.19,-48.49 278.07,-39.21 278.85,-30.82"/>
<polygon fill="#63b8ff" stroke="#63b8ff" points="282.31,-31.4 279.76,-21.12 275.35,-30.75 282.31,-31.4"/>
</a>
</g>
<g id="a_edge5&#45;headlabel"><a xlink:href="dir_000086_000316.html" target="_top" xlink:title="3">
<text text-anchor="middle" x="284.95" y="-29.86" font-family="Helvetica,sans-Serif" font-size="10.00" fill="#63b8ff">3</text>
</a>
</g>
</g>
<!-- dir_fa6656cf05a87bf9d66ed3de0114a478 -->
<g id="node9" class="node">
<title>dir_fa6656cf05a87bf9d66ed3de0114a478</title>
<g id="a_node9"><a xlink:href="dir_fa6656cf05a87bf9d66ed3de0114a478.html" target="_top" xlink:title="datahandlinglibs">
<polygon fill="#edf0f7" stroke="red" stroke-dasharray="5,2" points="407.62,-19.25 321.88,-19.25 321.88,0 407.62,0 407.62,-19.25"/>
<text text-anchor="middle" x="364.75" y="-5.75" font-family="Helvetica,sans-Serif" font-size="10.00">datahandlinglibs</text>
</a>
</g>
</g>
<!-- dir_0d1e8a419c83d189c8ebc0731f00cde8&#45;&gt;dir_fa6656cf05a87bf9d66ed3de0114a478 -->
<g id="edge6" class="edge">
<title>dir_0d1e8a419c83d189c8ebc0731f00cde8&#45;&gt;dir_fa6656cf05a87bf9d66ed3de0114a478</title>
<g id="a_edge6"><a xlink:href="dir_000086_000100.html" target="_top">
<path fill="none" stroke="#63b8ff" d="M286.72,-54.96C292.99,-50.05 301.1,-44.01 308.75,-39.25 317.05,-34.08 326.4,-29.02 335.05,-24.63"/>
<polygon fill="#63b8ff" stroke="#63b8ff" points="336.36,-27.89 343.77,-20.32 333.26,-21.62 336.36,-27.89"/>
</a>
</g>
<g id="a_edge6&#45;headlabel"><a xlink:href="dir_000086_000100.html" target="_top" xlink:title="13">
<text text-anchor="middle" x="335.75" y="-27.48" font-family="Helvetica,sans-Serif" font-size="10.00" fill="#63b8ff">13</text>
</a>
</g>
</g>
<!-- dir_0fdfd415a53ca967e6742ffed3579a7e -->
<g id="node3" class="node">
<title>dir_0fdfd415a53ca967e6742ffed3579a7e</title>
<g id="a_node3"><a xlink:href="dir_0fdfd415a53ca967e6742ffed3579a7e.html" target="_top" xlink:title="tde">
<polygon fill="#a2b4d6" stroke="#404040" points="347.5,-74.5 318,-74.5 318,-55.25 347.5,-55.25 347.5,-74.5"/>
<text text-anchor="middle" x="332.75" y="-61" font-family="Helvetica,sans-Serif" font-size="10.00">tde</text>
</a>
</g>
</g>
<!-- dir_0fdfd415a53ca967e6742ffed3579a7e&#45;&gt;dir_b171eb6ddcbdd8021917a50d6abc983c -->
<g id="edge9" class="edge">
<title>dir_0fdfd415a53ca967e6742ffed3579a7e&#45;&gt;dir_b171eb6ddcbdd8021917a50d6abc983c</title>
<g id="a_edge9"><a xlink:href="dir_000483_000198.html" target="_top">
<path fill="none" stroke="#63b8ff" d="M326.67,-55.09C322.34,-49.58 316.02,-42.86 308.75,-39.25 246.81,-8.52 221.03,-27.44 148.81,-19.34"/>
<polygon fill="#63b8ff" stroke="#63b8ff" points="149.68,-15.93 139.31,-18.14 148.79,-22.87 149.68,-15.93"/>
</a>
</g>
<g id="a_edge9&#45;headlabel"><a xlink:href="dir_000483_000198.html" target="_top" xlink:title="1">
<text text-anchor="middle" x="152.1" y="-9.5" font-family="Helvetica,sans-Serif" font-size="10.00" fill="#63b8ff">1</text>
</a>
</g>
</g>
<!-- dir_0fdfd415a53ca967e6742ffed3579a7e&#45;&gt;dir_d6186462c2ecf8bc2243dcff615e0cdf -->
<g id="edge10" class="edge">
<title>dir_0fdfd415a53ca967e6742ffed3579a7e&#45;&gt;dir_d6186462c2ecf8bc2243dcff615e0cdf</title>
<g id="a_edge10"><a xlink:href="dir_000483_000093.html" target="_top">
<path fill="none" stroke="#63b8ff" d="M326.11,-54.92C321.74,-49.63 315.57,-43.2 308.75,-39.25 298.57,-33.35 274.1,-26.79 250.72,-21.44"/>
<polygon fill="#63b8ff" stroke="#63b8ff" points="251.76,-18.09 241.24,-19.33 250.24,-24.92 251.76,-18.09"/>
</a>
</g>
<g id="a_edge10&#45;headlabel"><a xlink:href="dir_000483_000093.html" target="_top" xlink:title="1">
<text text-anchor="middle" x="254.41" y="-11.89" font-family="Helvetica,sans-Serif" font-size="10.00" fill="#63b8ff">1</text>
</a>
</g>
</g>
<!-- dir_0fdfd415a53ca967e6742ffed3579a7e&#45;&gt;dir_f74a706a7efda297e6d8fb2c03527fc2 -->
<g id="edge11" class="edge">
<title>dir_0fdfd415a53ca967e6742ffed3579a7e&#45;&gt;dir_f74a706a7efda297e6d8fb2c03527fc2</title>
<g id="a_edge11"><a xlink:href="dir_000483_000316.html" target="_top">
<path fill="none" stroke="#63b8ff" d="M324.31,-55.21C319.71,-50.49 313.92,-44.55 308.75,-39.25 305.14,-35.56 301.27,-31.6 297.6,-27.84"/>
<polygon fill="#63b8ff" stroke="#63b8ff" points="300.14,-25.43 290.64,-20.73 295.13,-30.32 300.14,-25.43"/>
</a>
</g>
<g id="a_edge11&#45;headlabel"><a xlink:href="dir_000483_000316.html" target="_top" xlink:title="2">
<text text-anchor="middle" x="303.62" y="-21.05" font-family="Helvetica,sans-Serif" font-size="10.00" fill="#63b8ff">2</text>
</a>
</g>
</g>
<!-- dir_0fdfd415a53ca967e6742ffed3579a7e&#45;&gt;dir_fa6656cf05a87bf9d66ed3de0114a478 -->
<g id="edge12" class="edge">
<title>dir_0fdfd415a53ca967e6742ffed3579a7e&#45;&gt;dir_fa6656cf05a87bf9d66ed3de0114a478</title>
<g id="a_edge12"><a xlink:href="dir_000483_000100.html" target="_top">
<path fill="none" stroke="#63b8ff" d="M338.03,-55.08C342.22,-48.11 348.23,-38.12 353.48,-29.37"/>
<polygon fill="#63b8ff" stroke="#63b8ff" points="356.42,-31.28 358.57,-20.91 350.42,-27.68 356.42,-31.28"/>
</a>
</g>
<g id="a_edge12&#45;headlabel"><a xlink:href="dir_000483_000100.html" target="_top" xlink:title="5">
<text text-anchor="middle" x="357.78" y="-30.65" font-family="Helvetica,sans-Serif" font-size="10.00" fill="#63b8ff">5</text>
</a>
</g>
</g>
<!-- dir_ab1b54331b4bb0c44e7fcd5a7d20111e -->
<g id="node10" class="node">
<title>dir_ab1b54331b4bb0c44e7fcd5a7d20111e</title>
<g id="a_node10"><a xlink:href="dir_ab1b54331b4bb0c44e7fcd5a7d20111e.html" target="_top" xlink:title="iomanager">
<polygon fill="#edf0f7" stroke="red" stroke-dasharray="5,2" points="486.25,-19.25 425.25,-19.25 425.25,0 486.25,0 486.25,-19.25"/>
<text text-anchor="middle" x="455.75" y="-5.75" font-family="Helvetica,sans-Serif" font-size="10.00">iomanager</text>
</a>
</g>
</g>
<!-- dir_0fdfd415a53ca967e6742ffed3579a7e&#45;&gt;dir_ab1b54331b4bb0c44e7fcd5a7d20111e -->
<g id="edge8" class="edge">
<title>dir_0fdfd415a53ca967e6742ffed3579a7e&#45;&gt;dir_ab1b54331b4bb0c44e7fcd5a7d20111e</title>
<g id="a_edge8"><a xlink:href="dir_000483_000300.html" target="_top">
<path fill="none" stroke="#63b8ff" d="M339.43,-54.99C343.82,-49.72 349.99,-43.3 356.75,-39.25 366.6,-33.35 391.45,-26.17 413.78,-20.48"/>
<polygon fill="#63b8ff" stroke="#63b8ff" points="414.48,-23.91 423.34,-18.1 412.79,-17.12 414.48,-23.91"/>
</a>
</g>
<g id="a_edge8&#45;headlabel"><a xlink:href="dir_000483_000300.html" target="_top" xlink:title="2">
<text text-anchor="middle" x="413.15" y="-23.3" font-family="Helvetica,sans-Serif" font-size="10.00" fill="#63b8ff">2</text>
</a>
</g>
</g>
<!-- dir_5365a3767b7bcdec829ecb94aa09817f -->
<g id="node11" class="node">
<title>dir_5365a3767b7bcdec829ecb94aa09817f</title>
<g id="a_node11"><a xlink:href="dir_5365a3767b7bcdec829ecb94aa09817f.html" target="_top" xlink:title="trigger">
<polygon fill="#edf0f7" stroke="red" stroke-dasharray="5,2" points="547.25,-19.25 504.25,-19.25 504.25,0 547.25,0 547.25,-19.25"/>
<text text-anchor="middle" x="525.75" y="-5.75" font-family="Helvetica,sans-Serif" font-size="10.00">trigger</text>
</a>
</g>
</g>
<!-- dir_0fdfd415a53ca967e6742ffed3579a7e&#45;&gt;dir_5365a3767b7bcdec829ecb94aa09817f -->
<g id="edge7" class="edge">
<title>dir_0fdfd415a53ca967e6742ffed3579a7e&#45;&gt;dir_5365a3767b7bcdec829ecb94aa09817f</title>
<g id="a_edge7"><a xlink:href="dir_000483_000520.html" target="_top">
<path fill="none" stroke="#63b8ff" d="M338.86,-55.14C343.19,-49.65 349.51,-42.93 356.75,-39.25 409.34,-12.5 432.18,-30.16 492.94,-19.44"/>
<polygon fill="#63b8ff" stroke="#63b8ff" points="493.26,-22.95 502.4,-17.58 491.91,-16.08 493.26,-22.95"/>
</a>
</g>
<g id="a_edge7&#45;headlabel"><a xlink:href="dir_000483_000520.html" target="_top" xlink:title="1">
<text text-anchor="middle" x="491.77" y="-22.26" font-family="Helvetica,sans-Serif" font-size="10.00" fill="#63b8ff">1</text>
</a>
</g>
</g>
<!-- dir_4db3262dc49ff9d8af37defa197f00d4 -->
<g id="node4" class="node">
<title>dir_4db3262dc49ff9d8af37defa197f00d4</title>
<g id="a_node4"><a xlink:href="dir_4db3262dc49ff9d8af37defa197f00d4.html" target="_top" xlink:title="wibeth">
<polygon fill="#a2b4d6" stroke="#404040" points="410,-74.5 365.5,-74.5 365.5,-55.25 410,-55.25 410,-74.5"/>
<text text-anchor="middle" x="387.75" y="-61" font-family="Helvetica,sans-Serif" font-size="10.00">wibeth</text>
</a>
</g>
</g>
<!-- dir_4db3262dc49ff9d8af37defa197f00d4&#45;&gt;dir_b171eb6ddcbdd8021917a50d6abc983c -->
<g id="edge16" class="edge">
<title>dir_4db3262dc49ff9d8af37defa197f00d4&#45;&gt;dir_b171eb6ddcbdd8021917a50d6abc983c</title>
<g id="a_edge16"><a xlink:href="dir_000544_000198.html" target="_top">
<path fill="none" stroke="#63b8ff" d="M379.16,-54.77C373.39,-49.28 365.29,-42.69 356.75,-39.25 273.1,-5.54 242.13,-29.14 149.14,-19.36"/>
<polygon fill="#63b8ff" stroke="#63b8ff" points="149.64,-15.9 139.3,-18.21 148.83,-22.85 149.64,-15.9"/>
</a>
</g>
<g id="a_edge16&#45;headlabel"><a xlink:href="dir_000544_000198.html" target="_top" xlink:title="2">
<text text-anchor="middle" x="152.04" y="-9.44" font-family="Helvetica,sans-Serif" font-size="10.00" fill="#63b8ff">2</text>
</a>
</g>
</g>
<!-- dir_4db3262dc49ff9d8af37defa197f00d4&#45;&gt;dir_d6186462c2ecf8bc2243dcff615e0cdf -->
<g id="edge18" class="edge">
<title>dir_4db3262dc49ff9d8af37defa197f00d4&#45;&gt;dir_d6186462c2ecf8bc2243dcff615e0cdf</title>
<g id="a_edge18"><a xlink:href="dir_000544_000093.html" target="_top">
<path fill="none" stroke="#63b8ff" d="M378.79,-54.77C373,-49.42 365.02,-42.99 356.75,-39.25 354.27,-38.13 296.26,-27.83 251.02,-19.9"/>
<polygon fill="#63b8ff" stroke="#63b8ff" points="251.78,-16.48 241.33,-18.21 250.57,-23.38 251.78,-16.48"/>
</a>
</g>
<g id="a_edge18&#45;headlabel"><a xlink:href="dir_000544_000093.html" target="_top" xlink:title="1">
<text text-anchor="middle" x="254.32" y="-10.17" font-family="Helvetica,sans-Serif" font-size="10.00" fill="#63b8ff">1</text>
</a>
</g>
</g>
<!-- dir_4db3262dc49ff9d8af37defa197f00d4&#45;&gt;dir_f74a706a7efda297e6d8fb2c03527fc2 -->
<g id="edge19" class="edge">
<title>dir_4db3262dc49ff9d8af37defa197f00d4&#45;&gt;dir_f74a706a7efda297e6d8fb2c03527fc2</title>
<g id="a_edge19"><a xlink:href="dir_000544_000316.html" target="_top">
<path fill="none" stroke="#63b8ff" d="M377.99,-54.82C372.15,-49.75 364.4,-43.59 356.75,-39.25 343.81,-31.92 328.64,-25.77 315.26,-21.07"/>
<polygon fill="#63b8ff" stroke="#63b8ff" points="316.57,-17.82 305.97,-17.95 314.34,-24.45 316.57,-17.82"/>
</a>
</g>
<g id="a_edge19&#45;headlabel"><a xlink:href="dir_000544_000316.html" target="_top" xlink:title="1">
<text text-anchor="middle" x="319.44" y="-11.91" font-family="Helvetica,sans-Serif" font-size="10.00" fill="#63b8ff">1</text>
</a>
</g>
</g>
<!-- dir_4db3262dc49ff9d8af37defa197f00d4&#45;&gt;dir_fa6656cf05a87bf9d66ed3de0114a478 -->
<g id="edge20" class="edge">
<title>dir_4db3262dc49ff9d8af37defa197f00d4&#45;&gt;dir_fa6656cf05a87bf9d66ed3de0114a478</title>
<g id="a_edge20"><a xlink:href="dir_000544_000100.html" target="_top">
<path fill="none" stroke="#63b8ff" d="M383.95,-55.08C381.01,-48.26 376.81,-38.56 373.1,-29.95"/>
<polygon fill="#63b8ff" stroke="#63b8ff" points="376.41,-28.79 369.23,-21 369.98,-31.57 376.41,-28.79"/>
</a>
</g>
<g id="a_edge20&#45;headlabel"><a xlink:href="dir_000544_000100.html" target="_top" xlink:title="1">
<text text-anchor="middle" x="379.84" y="-25.7" font-family="Helvetica,sans-Serif" font-size="10.00" fill="#63b8ff">1</text>
</a>
</g>
</g>
<!-- dir_4db3262dc49ff9d8af37defa197f00d4&#45;&gt;dir_ab1b54331b4bb0c44e7fcd5a7d20111e -->
<g id="edge15" class="edge">
<title>dir_4db3262dc49ff9d8af37defa197f00d4&#45;&gt;dir_ab1b54331b4bb0c44e7fcd5a7d20111e</title>
<g id="a_edge15"><a xlink:href="dir_000544_000300.html" target="_top">
<path fill="none" stroke="#63b8ff" d="M399.29,-54.84C409.21,-47.07 423.76,-35.67 435.61,-26.4"/>
<polygon fill="#63b8ff" stroke="#63b8ff" points="437.48,-29.38 443.19,-20.46 433.16,-23.87 437.48,-29.38"/>
</a>
</g>
<g id="a_edge15&#45;headlabel"><a xlink:href="dir_000544_000300.html" target="_top" xlink:title="2">
<text text-anchor="middle" x="437.59" y="-29.02" font-family="Helvetica,sans-Serif" font-size="10.00" fill="#63b8ff">2</text>
</a>
</g>
</g>
<!-- dir_4db3262dc49ff9d8af37defa197f00d4&#45;&gt;dir_5365a3767b7bcdec829ecb94aa09817f -->
<g id="edge13" class="edge">
<title>dir_4db3262dc49ff9d8af37defa197f00d4&#45;&gt;dir_5365a3767b7bcdec829ecb94aa09817f</title>
<g id="a_edge13"><a xlink:href="dir_000544_000520.html" target="_top">
<path fill="none" stroke="#63b8ff" d="M410.23,-55.2C432.85,-46.47 467.95,-32.93 493.53,-23.06"/>
<polygon fill="#63b8ff" stroke="#63b8ff" points="494.71,-26.35 502.78,-19.49 492.19,-19.82 494.71,-26.35"/>
</a>
</g>
<g id="a_edge13&#45;headlabel"><a xlink:href="dir_000544_000520.html" target="_top" xlink:title="1">
<text text-anchor="middle" x="493.79" y="-25.88" font-family="Helvetica,sans-Serif" font-size="10.00" fill="#63b8ff">1</text>
</a>
</g>
</g>
<!-- dir_fd12852c84626c78eaf66075877c6c41 -->
<g id="node12" class="node">
<title>dir_fd12852c84626c78eaf66075877c6c41</title>
<g id="a_node12"><a xlink:href="dir_fd12852c84626c78eaf66075877c6c41.html" target="_top" xlink:title="detchannelmaps">
<polygon fill="#edf0f7" stroke="red" stroke-dasharray="5,2" points="715.38,-19.25 628.12,-19.25 628.12,0 715.38,0 715.38,-19.25"/>
<text text-anchor="middle" x="671.75" y="-5.75" font-family="Helvetica,sans-Serif" font-size="10.00">detchannelmaps</text>
</a>
</g>
</g>
<!-- dir_4db3262dc49ff9d8af37defa197f00d4&#45;&gt;dir_fd12852c84626c78eaf66075877c6c41 -->
<g id="edge21" class="edge">
<title>dir_4db3262dc49ff9d8af37defa197f00d4&#45;&gt;dir_fd12852c84626c78eaf66075877c6c41</title>
<g id="a_edge21"><a xlink:href="dir_000544_000125.html" target="_top">
<path fill="none" stroke="#63b8ff" d="M410.04,-59.7C454.1,-51.43 553.56,-32.79 616.38,-21.01"/>
<polygon fill="#63b8ff" stroke="#63b8ff" points="617,-24.45 626.18,-19.17 615.71,-17.57 617,-24.45"/>
</a>
</g>
<g id="a_edge21&#45;headlabel"><a xlink:href="dir_000544_000125.html" target="_top" xlink:title="2">
<text text-anchor="middle" x="615.47" y="-23.75" font-family="Helvetica,sans-Serif" font-size="10.00" fill="#63b8ff">2</text>
</a>
</g>
</g>
<!-- dir_bbc7c2c1f127b379ce39be24c4bd3dbe -->
<g id="node13" class="node">
<title>dir_bbc7c2c1f127b379ce39be24c4bd3dbe</title>
<g id="a_node13"><a xlink:href="dir_bbc7c2c1f127b379ce39be24c4bd3dbe.html" target="_top" xlink:title="build">
<polygon fill="#edf0f7" stroke="red" stroke-dasharray="5,2" points="769.88,-19.25 733.62,-19.25 733.62,0 769.88,0 769.88,-19.25"/>
<text text-anchor="middle" x="751.75" y="-5.75" font-family="Helvetica,sans-Serif" font-size="10.00">build</text>
</a>
</g>
</g>
<!-- dir_4db3262dc49ff9d8af37defa197f00d4&#45;&gt;dir_bbc7c2c1f127b379ce39be24c4bd3dbe -->
<g id="edge17" class="edge">
<title>dir_4db3262dc49ff9d8af37defa197f00d4&#45;&gt;dir_bbc7c2c1f127b379ce39be24c4bd3dbe</title>
<g id="a_edge17"><a xlink:href="dir_000544_000034.html" target="_top">
<path fill="none" stroke="#63b8ff" d="M410.47,-62.27C463.54,-58.22 599.83,-46.12 722.24,-19.46"/>
<polygon fill="#63b8ff" stroke="#63b8ff" points="722.8,-22.92 731.8,-17.33 721.28,-16.08 722.8,-22.92"/>
</a>
</g>
<g id="a_edge17&#45;headlabel"><a xlink:href="dir_000544_000034.html" target="_top" xlink:title="2">
<text text-anchor="middle" x="721.38" y="-22.27" font-family="Helvetica,sans-Serif" font-size="10.00" fill="#63b8ff">2</text>
</a>
</g>
</g>
<!-- dir_7734814d57c7f85703a3dabba00e1beb -->
<g id="node14" class="node">
<title>dir_7734814d57c7f85703a3dabba00e1beb</title>
<g id="a_node14"><a xlink:href="dir_7734814d57c7f85703a3dabba00e1beb.html" target="_top" xlink:title="tpglibs">
<polygon fill="#edf0f7" stroke="red" stroke-dasharray="5,2" points="610,-19.25 565.5,-19.25 565.5,0 610,0 610,-19.25"/>
<text text-anchor="middle" x="587.75" y="-5.75" font-family="Helvetica,sans-Serif" font-size="10.00">tpglibs</text>
</a>
</g>
</g>
<!-- dir_4db3262dc49ff9d8af37defa197f00d4&#45;&gt;dir_7734814d57c7f85703a3dabba00e1beb -->
<g id="edge14" class="edge">
<title>dir_4db3262dc49ff9d8af37defa197f00d4&#45;&gt;dir_7734814d57c7f85703a3dabba00e1beb</title>
<g id="a_edge14"><a xlink:href="dir_000544_000508.html" target="_top">
<path fill="none" stroke="#63b8ff" d="M410.46,-57.98C440.97,-50.04 497.12,-35.35 554.06,-19.95"/>
<polygon fill="#63b8ff" stroke="#63b8ff" points="554.87,-23.36 563.61,-17.37 553.04,-16.6 554.87,-23.36"/>
</a>
</g>
<g id="a_edge14&#45;headlabel"><a xlink:href="dir_000544_000508.html" target="_top" xlink:title="1">
<text text-anchor="middle" x="553.61" y="-22.77" font-family="Helvetica,sans-Serif" font-size="10.00" fill="#63b8ff">1</text>
</a>
</g>
</g>
</g>
</svg>
