<?xml version="1.0" encoding="UTF-8" standalone="no"?>
<!DOCTYPE svg PUBLIC "-//W3C//DTD SVG 1.1//EN"
 "http://www.w3.org/Graphics/SVG/1.1/DTD/svg11.dtd">
<!-- Generated by graphviz version 9.0.0 (20230911.1827)
 -->
<!-- Title: /github/workspace/dev_area/sourcecode/iomanager/include/iomanager Pages: 1 -->
<svg width="430pt" height="236pt"
 viewBox="0.00 0.00 429.75 236.25" xmlns="http://www.w3.org/2000/svg" xmlns:xlink="http://www.w3.org/1999/xlink">
<g id="graph0" class="graph" transform="scale(1 1) rotate(0) translate(4 232.25)">
<title>/github/workspace/dev_area/sourcecode/iomanager/include/iomanager</title>
<g id="clust1" class="cluster">
<title>clusterdir_9e95dcb1a0783679c7ec39a3f8fe72e0</title>
<g id="a_clust1"><a xlink:href="dir_9e95dcb1a0783679c7ec39a3f8fe72e0.html" target="_top" xlink:title="include">
<polygon fill="#edf0f7" stroke="#7f7f7f" stroke-dasharray="5,2" points="124.38,-39.25 124.38,-220.25 266.38,-220.25 266.38,-39.25 124.38,-39.25"/>
<text text-anchor="middle" x="195.38" y="-206.75" font-family="Helvetica,sans-Serif" font-size="10.00">include</text>
</a>
</g>
</g>
<g id="clust2" class="cluster">
<title>clusterdir_e09e17ccc4bc2b4edf2b17bf8a69f297</title>
<g id="a_clust2"><a xlink:href="dir_e09e17ccc4bc2b4edf2b17bf8a69f297.html" target="_top">
<polygon fill="#edf0f7" stroke="#404040" stroke-width="2" points="132.38,-47.25 132.38,-193 258.38,-193 258.38,-47.25 132.38,-47.25"/>
</a>
</g>
</g>
<!-- dir_e09e17ccc4bc2b4edf2b17bf8a69f297 -->
<g id="node1" class="node">
<title>dir_e09e17ccc4bc2b4edf2b17bf8a69f297</title>
<text text-anchor="middle" x="219.38" y="-171.5" font-family="Helvetica,sans-Serif" font-size="10.00">iomanager</text>
</g>
<!-- dir_89a198a420b4fef0eeb7fa332151e7f7 -->
<g id="node2" class="node">
<title>dir_89a198a420b4fef0eeb7fa332151e7f7</title>
<g id="a_node2"><a xlink:href="dir_89a198a420b4fef0eeb7fa332151e7f7.html" target="_top" xlink:title="detail">
<polygon fill="#a2b4d6" stroke="#404040" points="239,-129.75 199.75,-129.75 199.75,-110.5 239,-110.5 239,-129.75"/>
<text text-anchor="middle" x="219.38" y="-116.25" font-family="Helvetica,sans-Serif" font-size="10.00">detail</text>
</a>
</g>
</g>
<!-- dir_e09e17ccc4bc2b4edf2b17bf8a69f297&#45;&gt;dir_89a198a420b4fef0eeb7fa332151e7f7 -->
<g id="edge1" class="edge">
<title>dir_e09e17ccc4bc2b4edf2b17bf8a69f297&#45;&gt;dir_89a198a420b4fef0eeb7fa332151e7f7</title>
<g id="a_edge1"><a xlink:href="dir_000301_000115.html" target="_top">
<path fill="none" stroke="#63b8ff" d="M219.38,-166.05C219.38,-159.45 219.38,-149.94 219.38,-141.36"/>
<polygon fill="#63b8ff" stroke="#63b8ff" points="222.88,-141.43 219.38,-131.43 215.88,-141.43 222.88,-141.43"/>
</a>
</g>
<g id="a_edge1&#45;headlabel"><a xlink:href="dir_000301_000115.html" target="_top" xlink:title="1">
<text text-anchor="middle" x="225.71" y="-139.64" font-family="Helvetica,sans-Serif" font-size="10.00" fill="#63b8ff">1</text>
</a>
</g>
</g>
<!-- dir_934fd243b40ff671fa1d708949b38ec2 -->
<g id="node6" class="node">
<title>dir_934fd243b40ff671fa1d708949b38ec2</title>
<g id="a_node6"><a xlink:href="dir_934fd243b40ff671fa1d708949b38ec2.html" target="_top" xlink:title="utilities">
<polygon fill="#edf0f7" stroke="red" stroke-dasharray="5,2" points="46.75,-19.25 0,-19.25 0,0 46.75,0 46.75,-19.25"/>
<text text-anchor="middle" x="23.38" y="-5.75" font-family="Helvetica,sans-Serif" font-size="10.00">utilities</text>
</a>
</g>
</g>
<!-- dir_e09e17ccc4bc2b4edf2b17bf8a69f297&#45;&gt;dir_934fd243b40ff671fa1d708949b38ec2 -->
<g id="edge2" class="edge">
<title>dir_e09e17ccc4bc2b4edf2b17bf8a69f297&#45;&gt;dir_934fd243b40ff671fa1d708949b38ec2</title>
<g id="a_edge2"><a xlink:href="dir_000301_000533.html" target="_top">
<path fill="none" stroke="#63b8ff" d="M209.11,-165.8C177.9,-139.73 83.76,-61.07 42.78,-26.84"/>
<polygon fill="#63b8ff" stroke="#63b8ff" points="45.09,-24.21 35.17,-20.48 40.6,-29.58 45.09,-24.21"/>
</a>
</g>
<g id="a_edge2&#45;headlabel"><a xlink:href="dir_000301_000533.html" target="_top" xlink:title="4">
<text text-anchor="middle" x="48.51" y="-19.49" font-family="Helvetica,sans-Serif" font-size="10.00" fill="#63b8ff">4</text>
</a>
</g>
</g>
<!-- dir_a64e56b30f5ca31a10654cea03375984 -->
<g id="node8" class="node">
<title>dir_a64e56b30f5ca31a10654cea03375984</title>
<g id="a_node8"><a xlink:href="dir_a64e56b30f5ca31a10654cea03375984.html" target="_top" xlink:title="ers">
<polygon fill="#edf0f7" stroke="red" stroke-dasharray="5,2" points="229.12,-19.25 199.62,-19.25 199.62,0 229.12,0 229.12,-19.25"/>
<text text-anchor="middle" x="214.38" y="-5.75" font-family="Helvetica,sans-Serif" font-size="10.00">ers</text>
</a>
</g>
</g>
<!-- dir_e09e17ccc4bc2b4edf2b17bf8a69f297&#45;&gt;dir_a64e56b30f5ca31a10654cea03375984 -->
<g id="edge3" class="edge">
<title>dir_e09e17ccc4bc2b4edf2b17bf8a69f297&#45;&gt;dir_a64e56b30f5ca31a10654cea03375984</title>
<g id="a_edge3"><a xlink:href="dir_000301_000191.html" target="_top">
<path fill="none" stroke="#63b8ff" d="M226.13,-165.98C242.95,-144 283.63,-83.43 259.38,-39.25 255.02,-31.33 247.45,-25.28 239.74,-20.84"/>
<polygon fill="#63b8ff" stroke="#63b8ff" points="241.31,-17.71 230.79,-16.41 238.2,-23.98 241.31,-17.71"/>
</a>
</g>
<g id="a_edge3&#45;headlabel"><a xlink:href="dir_000301_000191.html" target="_top" xlink:title="7">
<text text-anchor="middle" x="244.43" y="-12.21" font-family="Helvetica,sans-Serif" font-size="10.00" fill="#63b8ff">7</text>
</a>
</g>
</g>
<!-- dir_bbc7c2c1f127b379ce39be24c4bd3dbe -->
<g id="node9" class="node">
<title>dir_bbc7c2c1f127b379ce39be24c4bd3dbe</title>
<g id="a_node9"><a xlink:href="dir_bbc7c2c1f127b379ce39be24c4bd3dbe.html" target="_top" xlink:title="build">
<polygon fill="#edf0f7" stroke="red" stroke-dasharray="5,2" points="283.5,-19.25 247.25,-19.25 247.25,0 283.5,0 283.5,-19.25"/>
<text text-anchor="middle" x="265.38" y="-5.75" font-family="Helvetica,sans-Serif" font-size="10.00">build</text>
</a>
</g>
</g>
<!-- dir_e09e17ccc4bc2b4edf2b17bf8a69f297&#45;&gt;dir_bbc7c2c1f127b379ce39be24c4bd3dbe -->
<g id="edge4" class="edge">
<title>dir_e09e17ccc4bc2b4edf2b17bf8a69f297&#45;&gt;dir_bbc7c2c1f127b379ce39be24c4bd3dbe</title>
<g id="a_edge4"><a xlink:href="dir_000301_000034.html" target="_top">
<path fill="none" stroke="#63b8ff" d="M232.66,-165.81C243.82,-157.87 259.21,-145 267.38,-129.75 286.46,-94.12 283.75,-78.99 276.38,-39.25 275.81,-36.23 274.95,-33.11 273.94,-30.1"/>
<polygon fill="#63b8ff" stroke="#63b8ff" points="277.2,-28.83 270.27,-20.81 270.69,-31.4 277.2,-28.83"/>
</a>
</g>
<g id="a_edge4&#45;headlabel"><a xlink:href="dir_000301_000034.html" target="_top" xlink:title="10">
<text text-anchor="middle" x="280.61" y="-25.84" font-family="Helvetica,sans-Serif" font-size="10.00" fill="#63b8ff">10</text>
</a>
</g>
</g>
<!-- dir_f6ebe3d21dc6eefb077bc4c75cd16e31 -->
<g id="node10" class="node">
<title>dir_f6ebe3d21dc6eefb077bc4c75cd16e31</title>
<g id="a_node10"><a xlink:href="dir_f6ebe3d21dc6eefb077bc4c75cd16e31.html" target="_top" xlink:title="opmonlib">
<polygon fill="#edf0f7" stroke="red" stroke-dasharray="5,2" points="356.88,-19.25 301.88,-19.25 301.88,0 356.88,0 356.88,-19.25"/>
<text text-anchor="middle" x="329.38" y="-5.75" font-family="Helvetica,sans-Serif" font-size="10.00">opmonlib</text>
</a>
</g>
</g>
<!-- dir_e09e17ccc4bc2b4edf2b17bf8a69f297&#45;&gt;dir_f6ebe3d21dc6eefb077bc4c75cd16e31 -->
<g id="edge5" class="edge">
<title>dir_e09e17ccc4bc2b4edf2b17bf8a69f297&#45;&gt;dir_f6ebe3d21dc6eefb077bc4c75cd16e31</title>
<g id="a_edge5"><a xlink:href="dir_000301_000350.html" target="_top">
<path fill="none" stroke="#63b8ff" d="M237.96,-165.85C252.66,-158.26 272.74,-145.86 285.38,-129.75 308.89,-99.77 320.7,-55.99 325.9,-30.69"/>
<polygon fill="#63b8ff" stroke="#63b8ff" points="329.3,-31.58 327.72,-21.1 322.42,-30.28 329.3,-31.58"/>
</a>
</g>
<g id="a_edge5&#45;headlabel"><a xlink:href="dir_000301_000350.html" target="_top" xlink:title="4">
<text text-anchor="middle" x="331.7" y="-30.27" font-family="Helvetica,sans-Serif" font-size="10.00" fill="#63b8ff">4</text>
</a>
</g>
</g>
<!-- dir_f74a706a7efda297e6d8fb2c03527fc2 -->
<g id="node11" class="node">
<title>dir_f74a706a7efda297e6d8fb2c03527fc2</title>
<g id="a_node11"><a xlink:href="dir_f74a706a7efda297e6d8fb2c03527fc2.html" target="_top" xlink:title="logging">
<polygon fill="#edf0f7" stroke="red" stroke-dasharray="5,2" points="421.75,-19.25 375,-19.25 375,0 421.75,0 421.75,-19.25"/>
<text text-anchor="middle" x="398.38" y="-5.75" font-family="Helvetica,sans-Serif" font-size="10.00">logging</text>
</a>
</g>
</g>
<!-- dir_e09e17ccc4bc2b4edf2b17bf8a69f297&#45;&gt;dir_f74a706a7efda297e6d8fb2c03527fc2 -->
<g id="edge6" class="edge">
<title>dir_e09e17ccc4bc2b4edf2b17bf8a69f297&#45;&gt;dir_f74a706a7efda297e6d8fb2c03527fc2</title>
<g id="a_edge6"><a xlink:href="dir_000301_000316.html" target="_top">
<path fill="none" stroke="#63b8ff" d="M241.78,-165.9C260.13,-158.26 286.1,-145.77 305.38,-129.75 341.06,-100.1 371.82,-54.57 387.43,-29.25"/>
<polygon fill="#63b8ff" stroke="#63b8ff" points="390.39,-31.12 392.55,-20.75 384.4,-27.51 390.39,-31.12"/>
</a>
</g>
<g id="a_edge6&#45;headlabel"><a xlink:href="dir_000301_000316.html" target="_top" xlink:title="8">
<text text-anchor="middle" x="391.75" y="-30.49" font-family="Helvetica,sans-Serif" font-size="10.00" fill="#63b8ff">8</text>
</a>
</g>
</g>
<!-- dir_be9cd5a03a32e0b6550a26f039acc1b9 -->
<g id="node3" class="node">
<title>dir_be9cd5a03a32e0b6550a26f039acc1b9</title>
<g id="a_node3"><a xlink:href="dir_be9cd5a03a32e0b6550a26f039acc1b9.html" target="_top" xlink:title="network">
<polygon fill="#a2b4d6" stroke="#404040" points="190.62,-74.5 140.12,-74.5 140.12,-55.25 190.62,-55.25 190.62,-74.5"/>
<text text-anchor="middle" x="165.38" y="-61" font-family="Helvetica,sans-Serif" font-size="10.00">network</text>
</a>
</g>
</g>
<!-- dir_89a198a420b4fef0eeb7fa332151e7f7&#45;&gt;dir_be9cd5a03a32e0b6550a26f039acc1b9 -->
<g id="edge8" class="edge">
<title>dir_89a198a420b4fef0eeb7fa332151e7f7&#45;&gt;dir_be9cd5a03a32e0b6550a26f039acc1b9</title>
<g id="a_edge8"><a xlink:href="dir_000115_000320.html" target="_top">
<path fill="none" stroke="#63b8ff" d="M210.46,-110.33C202.92,-102.9 191.91,-92.04 182.65,-82.91"/>
<polygon fill="#63b8ff" stroke="#63b8ff" points="185.14,-80.45 175.56,-75.92 180.23,-85.44 185.14,-80.45"/>
</a>
</g>
<g id="a_edge8&#45;headlabel"><a xlink:href="dir_000115_000320.html" target="_top" xlink:title="4">
<text text-anchor="middle" x="188.62" y="-76.02" font-family="Helvetica,sans-Serif" font-size="10.00" fill="#63b8ff">4</text>
</a>
</g>
</g>
<!-- dir_901a047d3d57286d40458fdda26d0e7e -->
<g id="node4" class="node">
<title>dir_901a047d3d57286d40458fdda26d0e7e</title>
<g id="a_node4"><a xlink:href="dir_901a047d3d57286d40458fdda26d0e7e.html" target="_top" xlink:title="queue">
<polygon fill="#a2b4d6" stroke="#404040" points="250.5,-74.5 208.25,-74.5 208.25,-55.25 250.5,-55.25 250.5,-74.5"/>
<text text-anchor="middle" x="229.38" y="-61" font-family="Helvetica,sans-Serif" font-size="10.00">queue</text>
</a>
</g>
</g>
<!-- dir_89a198a420b4fef0eeb7fa332151e7f7&#45;&gt;dir_901a047d3d57286d40458fdda26d0e7e -->
<g id="edge7" class="edge">
<title>dir_89a198a420b4fef0eeb7fa332151e7f7&#45;&gt;dir_901a047d3d57286d40458fdda26d0e7e</title>
<g id="a_edge7"><a xlink:href="dir_000115_000401.html" target="_top">
<path fill="none" stroke="#63b8ff" d="M221.03,-110.33C222.26,-103.74 224.01,-94.46 225.58,-86.07"/>
<polygon fill="#63b8ff" stroke="#63b8ff" points="229,-86.82 227.41,-76.35 222.12,-85.53 229,-86.82"/>
</a>
</g>
<g id="a_edge7&#45;headlabel"><a xlink:href="dir_000115_000401.html" target="_top" xlink:title="3">
<text text-anchor="middle" x="231.41" y="-85.52" font-family="Helvetica,sans-Serif" font-size="10.00" fill="#63b8ff">3</text>
</a>
</g>
</g>
<!-- dir_6d314bedead70032a242c6ced44852ea -->
<g id="node5" class="node">
<title>dir_6d314bedead70032a242c6ced44852ea</title>
<g id="a_node5"><a xlink:href="dir_6d314bedead70032a242c6ced44852ea.html" target="_top" xlink:title="serialization">
<polygon fill="#edf0f7" stroke="red" stroke-dasharray="5,2" points="131.88,-19.25 64.88,-19.25 64.88,0 131.88,0 131.88,-19.25"/>
<text text-anchor="middle" x="98.38" y="-5.75" font-family="Helvetica,sans-Serif" font-size="10.00">serialization</text>
</a>
</g>
</g>
<!-- dir_be9cd5a03a32e0b6550a26f039acc1b9&#45;&gt;dir_6d314bedead70032a242c6ced44852ea -->
<g id="edge9" class="edge">
<title>dir_be9cd5a03a32e0b6550a26f039acc1b9&#45;&gt;dir_6d314bedead70032a242c6ced44852ea</title>
<g id="a_edge9"><a xlink:href="dir_000320_000427.html" target="_top">
<path fill="none" stroke="#63b8ff" d="M154.01,-54.84C144.33,-47.15 130.18,-35.9 118.57,-26.68"/>
<polygon fill="#63b8ff" stroke="#63b8ff" points="120.76,-23.95 110.76,-20.47 116.41,-29.43 120.76,-23.95"/>
</a>
</g>
<g id="a_edge9&#45;headlabel"><a xlink:href="dir_000320_000427.html" target="_top" xlink:title="5">
<text text-anchor="middle" x="124.16" y="-19.15" font-family="Helvetica,sans-Serif" font-size="10.00" fill="#63b8ff">5</text>
</a>
</g>
</g>
<!-- dir_be9cd5a03a32e0b6550a26f039acc1b9&#45;&gt;dir_934fd243b40ff671fa1d708949b38ec2 -->
<g id="edge10" class="edge">
<title>dir_be9cd5a03a32e0b6550a26f039acc1b9&#45;&gt;dir_934fd243b40ff671fa1d708949b38ec2</title>
<g id="a_edge10"><a xlink:href="dir_000320_000533.html" target="_top">
<path fill="none" stroke="#63b8ff" d="M141.29,-54.84C118.3,-46.22 83.44,-33.15 57.58,-23.45"/>
<polygon fill="#63b8ff" stroke="#63b8ff" points="59.12,-20.29 48.52,-20.06 56.66,-26.84 59.12,-20.29"/>
</a>
</g>
<g id="a_edge10&#45;headlabel"><a xlink:href="dir_000320_000533.html" target="_top" xlink:title="1">
<text text-anchor="middle" x="62.06" y="-14.49" font-family="Helvetica,sans-Serif" font-size="10.00" fill="#63b8ff">1</text>
</a>
</g>
</g>
<!-- dir_9ef3f0487673901798c3e985c3af822e -->
<g id="node7" class="node">
<title>dir_9ef3f0487673901798c3e985c3af822e</title>
<g id="a_node7"><a xlink:href="dir_9ef3f0487673901798c3e985c3af822e.html" target="_top" xlink:title="ipm">
<polygon fill="#edf0f7" stroke="red" stroke-dasharray="5,2" points="181.25,-19.25 149.5,-19.25 149.5,0 181.25,0 181.25,-19.25"/>
<text text-anchor="middle" x="165.38" y="-5.75" font-family="Helvetica,sans-Serif" font-size="10.00">ipm</text>
</a>
</g>
</g>
<!-- dir_be9cd5a03a32e0b6550a26f039acc1b9&#45;&gt;dir_9ef3f0487673901798c3e985c3af822e -->
<g id="edge11" class="edge">
<title>dir_be9cd5a03a32e0b6550a26f039acc1b9&#45;&gt;dir_9ef3f0487673901798c3e985c3af822e</title>
<g id="a_edge11"><a xlink:href="dir_000320_000305.html" target="_top">
<path fill="none" stroke="#63b8ff" d="M165.38,-55.08C165.38,-48.57 165.38,-39.42 165.38,-31.12"/>
<polygon fill="#63b8ff" stroke="#63b8ff" points="168.88,-31.12 165.38,-21.12 161.88,-31.12 168.88,-31.12"/>
</a>
</g>
<g id="a_edge11&#45;headlabel"><a xlink:href="dir_000320_000305.html" target="_top" xlink:title="7">
<text text-anchor="middle" x="171.71" y="-29.33" font-family="Helvetica,sans-Serif" font-size="10.00" fill="#63b8ff">7</text>
</a>
</g>
</g>
<!-- dir_be9cd5a03a32e0b6550a26f039acc1b9&#45;&gt;dir_a64e56b30f5ca31a10654cea03375984 -->
<g id="edge12" class="edge">
<title>dir_be9cd5a03a32e0b6550a26f039acc1b9&#45;&gt;dir_a64e56b30f5ca31a10654cea03375984</title>
<g id="a_edge12"><a xlink:href="dir_000320_000191.html" target="_top">
<path fill="none" stroke="#63b8ff" d="M173.47,-55.08C180.23,-47.73 190.1,-37.01 198.44,-27.94"/>
<polygon fill="#63b8ff" stroke="#63b8ff" points="200.89,-30.45 205.08,-20.72 195.74,-25.71 200.89,-30.45"/>
</a>
</g>
<g id="a_edge12&#45;headlabel"><a xlink:href="dir_000320_000191.html" target="_top" xlink:title="1">
<text text-anchor="middle" x="201.57" y="-30.03" font-family="Helvetica,sans-Serif" font-size="10.00" fill="#63b8ff">1</text>
</a>
</g>
</g>
<!-- dir_be9cd5a03a32e0b6550a26f039acc1b9&#45;&gt;dir_bbc7c2c1f127b379ce39be24c4bd3dbe -->
<g id="edge13" class="edge">
<title>dir_be9cd5a03a32e0b6550a26f039acc1b9&#45;&gt;dir_bbc7c2c1f127b379ce39be24c4bd3dbe</title>
<g id="a_edge13"><a xlink:href="dir_000320_000034.html" target="_top">
<path fill="none" stroke="#63b8ff" d="M176.6,-54.79C183.04,-49.83 191.4,-43.8 199.38,-39.25 211.05,-32.59 224.57,-26.48 236.33,-21.62"/>
<polygon fill="#63b8ff" stroke="#63b8ff" points="237.55,-24.9 245.53,-17.94 234.94,-18.4 237.55,-24.9"/>
</a>
</g>
<g id="a_edge13&#45;headlabel"><a xlink:href="dir_000320_000034.html" target="_top" xlink:title="2">
<text text-anchor="middle" x="236.67" y="-24.44" font-family="Helvetica,sans-Serif" font-size="10.00" fill="#63b8ff">2</text>
</a>
</g>
</g>
<!-- dir_be9cd5a03a32e0b6550a26f039acc1b9&#45;&gt;dir_f6ebe3d21dc6eefb077bc4c75cd16e31 -->
<g id="edge14" class="edge">
<title>dir_be9cd5a03a32e0b6550a26f039acc1b9&#45;&gt;dir_f6ebe3d21dc6eefb077bc4c75cd16e31</title>
<g id="a_edge14"><a xlink:href="dir_000320_000350.html" target="_top">
<path fill="none" stroke="#63b8ff" d="M175.39,-54.9C181.82,-49.59 190.59,-43.17 199.38,-39.25 234.97,-23.38 248.91,-27.63 290.35,-19.52"/>
<polygon fill="#63b8ff" stroke="#63b8ff" points="290.96,-22.97 300.03,-17.49 289.52,-16.12 290.96,-22.97"/>
</a>
</g>
<g id="a_edge14&#45;headlabel"><a xlink:href="dir_000320_000350.html" target="_top" xlink:title="1">
<text text-anchor="middle" x="289.51" y="-22.3" font-family="Helvetica,sans-Serif" font-size="10.00" fill="#63b8ff">1</text>
</a>
</g>
</g>
<!-- dir_be9cd5a03a32e0b6550a26f039acc1b9&#45;&gt;dir_f74a706a7efda297e6d8fb2c03527fc2 -->
<g id="edge15" class="edge">
<title>dir_be9cd5a03a32e0b6550a26f039acc1b9&#45;&gt;dir_f74a706a7efda297e6d8fb2c03527fc2</title>
<g id="a_edge15"><a xlink:href="dir_000320_000316.html" target="_top">
<path fill="none" stroke="#63b8ff" d="M174.98,-54.85C181.39,-49.39 190.28,-42.81 199.38,-39.25 265.72,-13.29 290.64,-31.55 363.58,-19.43"/>
<polygon fill="#63b8ff" stroke="#63b8ff" points="363.99,-22.91 373.21,-17.68 362.74,-16.03 363.99,-22.91"/>
</a>
</g>
<g id="a_edge15&#45;headlabel"><a xlink:href="dir_000320_000316.html" target="_top" xlink:title="2">
<text text-anchor="middle" x="362.45" y="-22.2" font-family="Helvetica,sans-Serif" font-size="10.00" fill="#63b8ff">2</text>
</a>
</g>
</g>
<!-- dir_901a047d3d57286d40458fdda26d0e7e&#45;&gt;dir_934fd243b40ff671fa1d708949b38ec2 -->
<g id="edge16" class="edge">
<title>dir_901a047d3d57286d40458fdda26d0e7e&#45;&gt;dir_934fd243b40ff671fa1d708949b38ec2</title>
<g id="a_edge16"><a xlink:href="dir_000401_000533.html" target="_top">
<path fill="none" stroke="#63b8ff" d="M221.06,-54.89C215.48,-49.45 207.65,-42.87 199.38,-39.25 143.31,-14.7 121.06,-30.27 57.99,-19.43"/>
<polygon fill="#63b8ff" stroke="#63b8ff" points="59.03,-16.07 48.55,-17.65 57.72,-22.94 59.03,-16.07"/>
</a>
</g>
<g id="a_edge16&#45;headlabel"><a xlink:href="dir_000401_000533.html" target="_top" xlink:title="1">
<text text-anchor="middle" x="61.6" y="-9.79" font-family="Helvetica,sans-Serif" font-size="10.00" fill="#63b8ff">1</text>
</a>
</g>
</g>
<!-- dir_901a047d3d57286d40458fdda26d0e7e&#45;&gt;dir_a64e56b30f5ca31a10654cea03375984 -->
<g id="edge17" class="edge">
<title>dir_901a047d3d57286d40458fdda26d0e7e&#45;&gt;dir_a64e56b30f5ca31a10654cea03375984</title>
<g id="a_edge17"><a xlink:href="dir_000401_000191.html" target="_top">
<path fill="none" stroke="#63b8ff" d="M226.9,-55.08C225.02,-48.42 222.37,-38.99 219.98,-30.53"/>
<polygon fill="#63b8ff" stroke="#63b8ff" points="223.4,-29.74 217.32,-21.07 216.66,-31.64 223.4,-29.74"/>
</a>
</g>
<g id="a_edge17&#45;headlabel"><a xlink:href="dir_000401_000191.html" target="_top" xlink:title="5">
<text text-anchor="middle" x="226.69" y="-27.1" font-family="Helvetica,sans-Serif" font-size="10.00" fill="#63b8ff">5</text>
</a>
</g>
</g>
<!-- dir_901a047d3d57286d40458fdda26d0e7e&#45;&gt;dir_bbc7c2c1f127b379ce39be24c4bd3dbe -->
<g id="edge18" class="edge">
<title>dir_901a047d3d57286d40458fdda26d0e7e&#45;&gt;dir_bbc7c2c1f127b379ce39be24c4bd3dbe</title>
<g id="a_edge18"><a xlink:href="dir_000401_000034.html" target="_top">
<path fill="none" stroke="#63b8ff" d="M235.32,-55.08C240.09,-48.03 246.94,-37.9 252.9,-29.08"/>
<polygon fill="#63b8ff" stroke="#63b8ff" points="255.75,-31.11 258.45,-20.86 249.95,-27.19 255.75,-31.11"/>
</a>
</g>
<g id="a_edge18&#45;headlabel"><a xlink:href="dir_000401_000034.html" target="_top" xlink:title="2">
<text text-anchor="middle" x="256.94" y="-30.55" font-family="Helvetica,sans-Serif" font-size="10.00" fill="#63b8ff">2</text>
</a>
</g>
</g>
<!-- dir_901a047d3d57286d40458fdda26d0e7e&#45;&gt;dir_f6ebe3d21dc6eefb077bc4c75cd16e31 -->
<g id="edge19" class="edge">
<title>dir_901a047d3d57286d40458fdda26d0e7e&#45;&gt;dir_f6ebe3d21dc6eefb077bc4c75cd16e31</title>
<g id="a_edge19"><a xlink:href="dir_000401_000350.html" target="_top">
<path fill="none" stroke="#63b8ff" d="M246.34,-54.84C261.64,-46.69 284.41,-34.57 302.24,-25.08"/>
<polygon fill="#63b8ff" stroke="#63b8ff" points="303.81,-28.2 310.99,-20.41 300.52,-22.02 303.81,-28.2"/>
</a>
</g>
<g id="a_edge19&#45;headlabel"><a xlink:href="dir_000401_000350.html" target="_top" xlink:title="2">
<text text-anchor="middle" x="303.31" y="-27.81" font-family="Helvetica,sans-Serif" font-size="10.00" fill="#63b8ff">2</text>
</a>
</g>
</g>
<!-- dir_901a047d3d57286d40458fdda26d0e7e&#45;&gt;dir_f74a706a7efda297e6d8fb2c03527fc2 -->
<g id="edge20" class="edge">
<title>dir_901a047d3d57286d40458fdda26d0e7e&#45;&gt;dir_f74a706a7efda297e6d8fb2c03527fc2</title>
<g id="a_edge20"><a xlink:href="dir_000401_000316.html" target="_top">
<path fill="none" stroke="#63b8ff" d="M250.78,-57.13C279.27,-48.15 329.98,-32.17 363.9,-21.49"/>
<polygon fill="#63b8ff" stroke="#63b8ff" points="364.77,-24.88 373.26,-18.54 362.67,-18.21 364.77,-24.88"/>
</a>
</g>
<g id="a_edge20&#45;headlabel"><a xlink:href="dir_000401_000316.html" target="_top" xlink:title="4">
<text text-anchor="middle" x="363.64" y="-24.34" font-family="Helvetica,sans-Serif" font-size="10.00" fill="#63b8ff">4</text>
</a>
</g>
</g>
</g>
</svg>
