<?xml version="1.0" encoding="UTF-8" standalone="no"?>
<!DOCTYPE svg PUBLIC "-//W3C//DTD SVG 1.1//EN"
 "http://www.w3.org/Graphics/SVG/1.1/DTD/svg11.dtd">
<!-- Generated by graphviz version 9.0.0 (20230911.1827)
 -->
<!-- Title: /github/workspace/dev_area/sourcecode/fdreadoutlibs Pages: 1 -->
<svg width="793pt" height="197pt"
 viewBox="0.00 0.00 793.12 197.00" xmlns="http://www.w3.org/2000/svg" xmlns:xlink="http://www.w3.org/1999/xlink">
<g id="graph0" class="graph" transform="scale(1 1) rotate(0) translate(4 193)">
<title>/github/workspace/dev_area/sourcecode/fdreadoutlibs</title>
<g id="clust1" class="cluster">
<title>clusterdir_e594a494f7a60e5bf534551500b27d35</title>
<g id="a_clust1"><a xlink:href="dir_e594a494f7a60e5bf534551500b27d35.html" target="_top" xlink:title="sourcecode">
<polygon fill="#edf0f7" stroke="#7f7f7f" stroke-dasharray="5,2" points="8,-8 8,-181 739,-181 739,-8 8,-8"/>
<text text-anchor="middle" x="373.5" y="-167.5" font-family="Helvetica,sans-Serif" font-size="10.00">sourcecode</text>
</a>
</g>
</g>
<g id="clust2" class="cluster">
<title>clusterdir_fe853eb0796da44195fb8219d49359ed</title>
<g id="a_clust2"><a xlink:href="dir_fe853eb0796da44195fb8219d49359ed.html" target="_top">
<polygon fill="#edf0f7" stroke="#404040" stroke-width="2" points="442,-63.25 442,-153.75 695,-153.75 695,-63.25 442,-63.25"/>
</a>
</g>
</g>
<!-- dir_b171eb6ddcbdd8021917a50d6abc983c -->
<g id="node1" class="node">
<title>dir_b171eb6ddcbdd8021917a50d6abc983c</title>
<g id="a_node1"><a xlink:href="dir_b171eb6ddcbdd8021917a50d6abc983c.html" target="_top" xlink:title="fddetdataformats">
<polygon fill="#a2b4d6" stroke="red" points="105.75,-35.25 16.25,-35.25 16.25,-16 105.75,-16 105.75,-35.25"/>
<text text-anchor="middle" x="61" y="-21.75" font-family="Helvetica,sans-Serif" font-size="10.00">fddetdataformats</text>
</a>
</g>
</g>
<!-- dir_f74a706a7efda297e6d8fb2c03527fc2 -->
<g id="node2" class="node">
<title>dir_f74a706a7efda297e6d8fb2c03527fc2</title>
<g id="a_node2"><a xlink:href="dir_f74a706a7efda297e6d8fb2c03527fc2.html" target="_top" xlink:title="logging">
<polygon fill="#a2b4d6" stroke="red" points="627.38,-35.25 580.62,-35.25 580.62,-16 627.38,-16 627.38,-35.25"/>
<text text-anchor="middle" x="604" y="-21.75" font-family="Helvetica,sans-Serif" font-size="10.00">logging</text>
</a>
</g>
</g>
<!-- dir_fa6656cf05a87bf9d66ed3de0114a478 -->
<g id="node3" class="node">
<title>dir_fa6656cf05a87bf9d66ed3de0114a478</title>
<g id="a_node3"><a xlink:href="dir_fa6656cf05a87bf9d66ed3de0114a478.html" target="_top" xlink:title="datahandlinglibs">
<polygon fill="#a2b4d6" stroke="red" points="730.88,-35.25 645.12,-35.25 645.12,-16 730.88,-16 730.88,-35.25"/>
<text text-anchor="middle" x="688" y="-21.75" font-family="Helvetica,sans-Serif" font-size="10.00">datahandlinglibs</text>
</a>
</g>
</g>
<!-- dir_d6186462c2ecf8bc2243dcff615e0cdf -->
<g id="node4" class="node">
<title>dir_d6186462c2ecf8bc2243dcff615e0cdf</title>
<g id="a_node4"><a xlink:href="dir_d6186462c2ecf8bc2243dcff615e0cdf.html" target="_top" xlink:title="daqdataformats">
<polygon fill="#a2b4d6" stroke="red" points="374.75,-35.25 291.25,-35.25 291.25,-16 374.75,-16 374.75,-35.25"/>
<text text-anchor="middle" x="333" y="-21.75" font-family="Helvetica,sans-Serif" font-size="10.00">daqdataformats</text>
</a>
</g>
</g>
<!-- dir_a64e56b30f5ca31a10654cea03375984 -->
<g id="node5" class="node">
<title>dir_a64e56b30f5ca31a10654cea03375984</title>
<g id="a_node5"><a xlink:href="dir_a64e56b30f5ca31a10654cea03375984.html" target="_top" xlink:title="ers">
<polygon fill="#a2b4d6" stroke="red" points="422.75,-35.25 393.25,-35.25 393.25,-16 422.75,-16 422.75,-35.25"/>
<text text-anchor="middle" x="408" y="-21.75" font-family="Helvetica,sans-Serif" font-size="10.00">ers</text>
</a>
</g>
</g>
<!-- dir_ab1b54331b4bb0c44e7fcd5a7d20111e -->
<g id="node6" class="node">
<title>dir_ab1b54331b4bb0c44e7fcd5a7d20111e</title>
<g id="a_node6"><a xlink:href="dir_ab1b54331b4bb0c44e7fcd5a7d20111e.html" target="_top" xlink:title="iomanager">
<polygon fill="#a2b4d6" stroke="red" points="501.5,-35.25 440.5,-35.25 440.5,-16 501.5,-16 501.5,-35.25"/>
<text text-anchor="middle" x="471" y="-21.75" font-family="Helvetica,sans-Serif" font-size="10.00">iomanager</text>
</a>
</g>
</g>
<!-- dir_5365a3767b7bcdec829ecb94aa09817f -->
<g id="node7" class="node">
<title>dir_5365a3767b7bcdec829ecb94aa09817f</title>
<g id="a_node7"><a xlink:href="dir_5365a3767b7bcdec829ecb94aa09817f.html" target="_top" xlink:title="trigger">
<polygon fill="#a2b4d6" stroke="red" points="562.5,-35.25 519.5,-35.25 519.5,-16 562.5,-16 562.5,-35.25"/>
<text text-anchor="middle" x="541" y="-21.75" font-family="Helvetica,sans-Serif" font-size="10.00">trigger</text>
</a>
</g>
</g>
<!-- dir_fd12852c84626c78eaf66075877c6c41 -->
<g id="node8" class="node">
<title>dir_fd12852c84626c78eaf66075877c6c41</title>
<g id="a_node8"><a xlink:href="dir_fd12852c84626c78eaf66075877c6c41.html" target="_top" xlink:title="detchannelmaps">
<polygon fill="#a2b4d6" stroke="red" points="210.62,-35.25 123.38,-35.25 123.38,-16 210.62,-16 210.62,-35.25"/>
<text text-anchor="middle" x="167" y="-21.75" font-family="Helvetica,sans-Serif" font-size="10.00">detchannelmaps</text>
</a>
</g>
</g>
<!-- dir_7734814d57c7f85703a3dabba00e1beb -->
<g id="node9" class="node">
<title>dir_7734814d57c7f85703a3dabba00e1beb</title>
<g id="a_node9"><a xlink:href="dir_7734814d57c7f85703a3dabba00e1beb.html" target="_top" xlink:title="tpglibs">
<polygon fill="#a2b4d6" stroke="red" points="273.25,-35.25 228.75,-35.25 228.75,-16 273.25,-16 273.25,-35.25"/>
<text text-anchor="middle" x="251" y="-21.75" font-family="Helvetica,sans-Serif" font-size="10.00">tpglibs</text>
</a>
</g>
</g>
<!-- dir_fe853eb0796da44195fb8219d49359ed -->
<g id="node10" class="node">
<title>dir_fe853eb0796da44195fb8219d49359ed</title>
<text text-anchor="middle" x="651" y="-132.25" font-family="Helvetica,sans-Serif" font-size="10.00">fdreadoutlibs</text>
</g>
<!-- dir_dee1b128e2d46003eac41ea18d12d79a -->
<g id="node11" class="node">
<title>dir_dee1b128e2d46003eac41ea18d12d79a</title>
<g id="a_node11"><a xlink:href="dir_dee1b128e2d46003eac41ea18d12d79a.html" target="_top" xlink:title="docs">
<polygon fill="#a2b4d6" stroke="#404040" points="597.5,-145.75 560.5,-145.75 560.5,-126.5 597.5,-126.5 597.5,-145.75"/>
<text text-anchor="middle" x="579" y="-132.25" font-family="Helvetica,sans-Serif" font-size="10.00">docs</text>
</a>
</g>
</g>
<!-- dir_575b28202c36ed264653905d4a3b4548 -->
<g id="node12" class="node">
<title>dir_575b28202c36ed264653905d4a3b4548</title>
<g id="a_node12"><a xlink:href="dir_575b28202c36ed264653905d4a3b4548.html" target="_top" xlink:title="include">
<polygon fill="#a2b4d6" stroke="#404040" points="496.38,-90.5 449.62,-90.5 449.62,-71.25 496.38,-71.25 496.38,-90.5"/>
<text text-anchor="middle" x="473" y="-77" font-family="Helvetica,sans-Serif" font-size="10.00">include</text>
</a>
</g>
</g>
<!-- dir_575b28202c36ed264653905d4a3b4548&#45;&gt;dir_b171eb6ddcbdd8021917a50d6abc983c -->
<g id="edge2" class="edge">
<title>dir_575b28202c36ed264653905d4a3b4548&#45;&gt;dir_b171eb6ddcbdd8021917a50d6abc983c</title>
<g id="a_edge2"><a xlink:href="dir_000268_000198.html" target="_top">
<path fill="none" stroke="#63b8ff" d="M460.97,-70.8C456.49,-67.88 451.23,-64.97 446,-63.25 308.78,-18.08 263.19,-51.65 117.22,-35.51"/>
<polygon fill="#63b8ff" stroke="#63b8ff" points="117.91,-32.07 107.58,-34.38 117.1,-39.02 117.91,-32.07"/>
</a>
</g>
<g id="a_edge2&#45;headlabel"><a xlink:href="dir_000268_000198.html" target="_top" xlink:title="11">
<text text-anchor="middle" x="120.31" y="-25.61" font-family="Helvetica,sans-Serif" font-size="10.00" fill="#63b8ff">11</text>
</a>
</g>
</g>
<!-- dir_575b28202c36ed264653905d4a3b4548&#45;&gt;dir_f74a706a7efda297e6d8fb2c03527fc2 -->
<g id="edge4" class="edge">
<title>dir_575b28202c36ed264653905d4a3b4548&#45;&gt;dir_f74a706a7efda297e6d8fb2c03527fc2</title>
<g id="a_edge4"><a xlink:href="dir_000268_000316.html" target="_top">
<path fill="none" stroke="#63b8ff" d="M486.42,-70.83C490.66,-68.19 495.43,-65.43 500,-63.25 522.45,-52.54 548.9,-43.26 569.51,-36.73"/>
<polygon fill="#63b8ff" stroke="#63b8ff" points="570.33,-40.14 578.85,-33.84 568.26,-33.45 570.33,-40.14"/>
</a>
</g>
<g id="a_edge4&#45;headlabel"><a xlink:href="dir_000268_000316.html" target="_top" xlink:title="6">
<text text-anchor="middle" x="569.19" y="-39.59" font-family="Helvetica,sans-Serif" font-size="10.00" fill="#63b8ff">6</text>
</a>
</g>
</g>
<!-- dir_575b28202c36ed264653905d4a3b4548&#45;&gt;dir_fa6656cf05a87bf9d66ed3de0114a478 -->
<g id="edge5" class="edge">
<title>dir_575b28202c36ed264653905d4a3b4548&#45;&gt;dir_fa6656cf05a87bf9d66ed3de0114a478</title>
<g id="a_edge5"><a xlink:href="dir_000268_000100.html" target="_top">
<path fill="none" stroke="#63b8ff" d="M485.69,-70.76C490.05,-67.99 495.08,-65.17 500,-63.25 512.38,-58.42 582.65,-45.33 633.65,-36.19"/>
<polygon fill="#63b8ff" stroke="#63b8ff" points="634.14,-39.66 643.37,-34.45 632.91,-32.77 634.14,-39.66"/>
</a>
</g>
<g id="a_edge5&#45;headlabel"><a xlink:href="dir_000268_000100.html" target="_top" xlink:title="19">
<text text-anchor="middle" x="632.59" y="-38.94" font-family="Helvetica,sans-Serif" font-size="10.00" fill="#63b8ff">19</text>
</a>
</g>
</g>
<!-- dir_575b28202c36ed264653905d4a3b4548&#45;&gt;dir_d6186462c2ecf8bc2243dcff615e0cdf -->
<g id="edge3" class="edge">
<title>dir_575b28202c36ed264653905d4a3b4548&#45;&gt;dir_d6186462c2ecf8bc2243dcff615e0cdf</title>
<g id="a_edge3"><a xlink:href="dir_000268_000093.html" target="_top">
<path fill="none" stroke="#63b8ff" d="M459.62,-70.76C455.38,-68.12 450.6,-65.37 446,-63.25 424.65,-53.39 399.91,-45.05 379.03,-38.83"/>
<polygon fill="#63b8ff" stroke="#63b8ff" points="380.22,-35.53 369.64,-36.11 378.27,-42.25 380.22,-35.53"/>
</a>
</g>
<g id="a_edge3&#45;headlabel"><a xlink:href="dir_000268_000093.html" target="_top" xlink:title="12">
<text text-anchor="middle" x="383.01" y="-29.51" font-family="Helvetica,sans-Serif" font-size="10.00" fill="#63b8ff">12</text>
</a>
</g>
</g>
<!-- dir_575b28202c36ed264653905d4a3b4548&#45;&gt;dir_a64e56b30f5ca31a10654cea03375984 -->
<g id="edge1" class="edge">
<title>dir_575b28202c36ed264653905d4a3b4548&#45;&gt;dir_a64e56b30f5ca31a10654cea03375984</title>
<g id="a_edge1"><a xlink:href="dir_000268_000191.html" target="_top">
<path fill="none" stroke="#63b8ff" d="M461.97,-70.84C452.58,-63.15 438.85,-51.9 427.59,-42.68"/>
<polygon fill="#63b8ff" stroke="#63b8ff" points="429.99,-40.11 420.03,-36.48 425.55,-45.53 429.99,-40.11"/>
</a>
</g>
<g id="a_edge1&#45;headlabel"><a xlink:href="dir_000268_000191.html" target="_top" xlink:title="1">
<text text-anchor="middle" x="433.4" y="-35.36" font-family="Helvetica,sans-Serif" font-size="10.00" fill="#63b8ff">1</text>
</a>
</g>
</g>
<!-- dir_575b28202c36ed264653905d4a3b4548&#45;&gt;dir_ab1b54331b4bb0c44e7fcd5a7d20111e -->
<g id="edge6" class="edge">
<title>dir_575b28202c36ed264653905d4a3b4548&#45;&gt;dir_ab1b54331b4bb0c44e7fcd5a7d20111e</title>
<g id="a_edge6"><a xlink:href="dir_000268_000300.html" target="_top">
<path fill="none" stroke="#63b8ff" d="M472.67,-71.08C472.42,-64.49 472.07,-55.21 471.76,-46.82"/>
<polygon fill="#63b8ff" stroke="#63b8ff" points="475.27,-46.98 471.39,-37.12 468.27,-47.25 475.27,-46.98"/>
</a>
</g>
<g id="a_edge6&#45;headlabel"><a xlink:href="dir_000268_000300.html" target="_top" xlink:title="4">
<text text-anchor="middle" x="478.18" y="-45.08" font-family="Helvetica,sans-Serif" font-size="10.00" fill="#63b8ff">4</text>
</a>
</g>
</g>
<!-- dir_575b28202c36ed264653905d4a3b4548&#45;&gt;dir_5365a3767b7bcdec829ecb94aa09817f -->
<g id="edge7" class="edge">
<title>dir_575b28202c36ed264653905d4a3b4548&#45;&gt;dir_5365a3767b7bcdec829ecb94aa09817f</title>
<g id="a_edge7"><a xlink:href="dir_000268_000520.html" target="_top">
<path fill="none" stroke="#63b8ff" d="M484.54,-70.84C494.46,-63.07 509.01,-51.67 520.86,-42.4"/>
<polygon fill="#63b8ff" stroke="#63b8ff" points="522.73,-45.38 528.44,-36.46 518.41,-39.87 522.73,-45.38"/>
</a>
</g>
<g id="a_edge7&#45;headlabel"><a xlink:href="dir_000268_000520.html" target="_top" xlink:title="2">
<text text-anchor="middle" x="522.84" y="-45.02" font-family="Helvetica,sans-Serif" font-size="10.00" fill="#63b8ff">2</text>
</a>
</g>
</g>
<!-- dir_575b28202c36ed264653905d4a3b4548&#45;&gt;dir_fd12852c84626c78eaf66075877c6c41 -->
<g id="edge8" class="edge">
<title>dir_575b28202c36ed264653905d4a3b4548&#45;&gt;dir_fd12852c84626c78eaf66075877c6c41</title>
<g id="a_edge8"><a xlink:href="dir_000268_000125.html" target="_top">
<path fill="none" stroke="#63b8ff" d="M460.93,-70.91C456.45,-68.01 451.19,-65.07 446,-63.25 353.86,-30.91 322.4,-48.27 222.18,-35.44"/>
<polygon fill="#63b8ff" stroke="#63b8ff" points="222.82,-31.99 212.44,-34.11 221.88,-38.93 222.82,-31.99"/>
</a>
</g>
<g id="a_edge8&#45;headlabel"><a xlink:href="dir_000268_000125.html" target="_top" xlink:title="2">
<text text-anchor="middle" x="225.26" y="-25.58" font-family="Helvetica,sans-Serif" font-size="10.00" fill="#63b8ff">2</text>
</a>
</g>
</g>
<!-- dir_575b28202c36ed264653905d4a3b4548&#45;&gt;dir_7734814d57c7f85703a3dabba00e1beb -->
<g id="edge10" class="edge">
<title>dir_575b28202c36ed264653905d4a3b4548&#45;&gt;dir_7734814d57c7f85703a3dabba00e1beb</title>
<g id="a_edge10"><a xlink:href="dir_000268_000508.html" target="_top">
<path fill="none" stroke="#63b8ff" d="M460.61,-70.87C456.19,-68.04 451.05,-65.15 446,-63.25 380.05,-38.39 356.38,-50.16 284.57,-35.56"/>
<polygon fill="#63b8ff" stroke="#63b8ff" points="285.61,-32.2 275.1,-33.52 284.14,-39.05 285.61,-32.2"/>
</a>
</g>
<g id="a_edge10&#45;headlabel"><a xlink:href="dir_000268_000508.html" target="_top" xlink:title="1">
<text text-anchor="middle" x="288.24" y="-25.99" font-family="Helvetica,sans-Serif" font-size="10.00" fill="#63b8ff">1</text>
</a>
</g>
</g>
<!-- dir_bbc7c2c1f127b379ce39be24c4bd3dbe -->
<g id="node15" class="node">
<title>dir_bbc7c2c1f127b379ce39be24c4bd3dbe</title>
<g id="a_node15"><a xlink:href="dir_bbc7c2c1f127b379ce39be24c4bd3dbe.html" target="_top" xlink:title="build">
<polygon fill="#edf0f7" stroke="red" stroke-dasharray="5,2" points="785.12,-35.25 748.88,-35.25 748.88,-16 785.12,-16 785.12,-35.25"/>
<text text-anchor="middle" x="767" y="-21.75" font-family="Helvetica,sans-Serif" font-size="10.00">build</text>
</a>
</g>
</g>
<!-- dir_575b28202c36ed264653905d4a3b4548&#45;&gt;dir_bbc7c2c1f127b379ce39be24c4bd3dbe -->
<g id="edge9" class="edge">
<title>dir_575b28202c36ed264653905d4a3b4548&#45;&gt;dir_bbc7c2c1f127b379ce39be24c4bd3dbe</title>
<g id="a_edge9"><a xlink:href="dir_000268_000034.html" target="_top">
<path fill="none" stroke="#63b8ff" d="M496.78,-77.41C542.37,-72.38 645.32,-59.54 737.59,-36.44"/>
<polygon fill="#63b8ff" stroke="#63b8ff" points="738.21,-39.89 747.03,-34.02 736.48,-33.11 738.21,-39.89"/>
</a>
</g>
<g id="a_edge9&#45;headlabel"><a xlink:href="dir_000268_000034.html" target="_top" xlink:title="2">
<text text-anchor="middle" x="736.9" y="-39.29" font-family="Helvetica,sans-Serif" font-size="10.00" fill="#63b8ff">2</text>
</a>
</g>
</g>
<!-- dir_5a7dd98f2433b344ca30ab4bf7fa712e -->
<g id="node13" class="node">
<title>dir_5a7dd98f2433b344ca30ab4bf7fa712e</title>
<g id="a_node13"><a xlink:href="dir_5a7dd98f2433b344ca30ab4bf7fa712e.html" target="_top" xlink:title="scripts">
<polygon fill="#a2b4d6" stroke="#404040" points="542.62,-145.75 497.38,-145.75 497.38,-126.5 542.62,-126.5 542.62,-145.75"/>
<text text-anchor="middle" x="520" y="-132.25" font-family="Helvetica,sans-Serif" font-size="10.00">scripts</text>
</a>
</g>
</g>
<!-- dir_79b0fc31886878301008cd3607d74e5c -->
<g id="node14" class="node">
<title>dir_79b0fc31886878301008cd3607d74e5c</title>
<g id="a_node14"><a xlink:href="dir_79b0fc31886878301008cd3607d74e5c.html" target="_top" xlink:title="src">
<polygon fill="#a2b4d6" stroke="#404040" points="479.75,-145.75 450.25,-145.75 450.25,-126.5 479.75,-126.5 479.75,-145.75"/>
<text text-anchor="middle" x="465" y="-132.25" font-family="Helvetica,sans-Serif" font-size="10.00">src</text>
</a>
</g>
</g>
<!-- dir_79b0fc31886878301008cd3607d74e5c&#45;&gt;dir_b171eb6ddcbdd8021917a50d6abc983c -->
<g id="edge12" class="edge">
<title>dir_79b0fc31886878301008cd3607d74e5c&#45;&gt;dir_b171eb6ddcbdd8021917a50d6abc983c</title>
<g id="a_edge12"><a xlink:href="dir_000453_000198.html" target="_top">
<path fill="none" stroke="#63b8ff" d="M450.14,-131.13C394.31,-116.14 195.65,-62.79 105.76,-38.65"/>
<polygon fill="#63b8ff" stroke="#63b8ff" points="106.87,-35.32 96.3,-36.11 105.05,-42.08 106.87,-35.32"/>
</a>
</g>
<g id="a_edge12&#45;headlabel"><a xlink:href="dir_000453_000198.html" target="_top" xlink:title="5">
<text text-anchor="middle" x="109.61" y="-29.24" font-family="Helvetica,sans-Serif" font-size="10.00" fill="#63b8ff">5</text>
</a>
</g>
</g>
<!-- dir_79b0fc31886878301008cd3607d74e5c&#45;&gt;dir_f74a706a7efda297e6d8fb2c03527fc2 -->
<g id="edge15" class="edge">
<title>dir_79b0fc31886878301008cd3607d74e5c&#45;&gt;dir_f74a706a7efda297e6d8fb2c03527fc2</title>
<g id="a_edge15"><a xlink:href="dir_000453_000316.html" target="_top">
<path fill="none" stroke="#63b8ff" d="M476.59,-126.28C488.32,-117.3 506.96,-102.99 523,-90.5 543.9,-74.22 567.7,-55.42 584.07,-42.45"/>
<polygon fill="#63b8ff" stroke="#63b8ff" points="585.92,-45.45 591.58,-36.49 581.57,-39.97 585.92,-45.45"/>
</a>
</g>
<g id="a_edge15&#45;headlabel"><a xlink:href="dir_000453_000316.html" target="_top" xlink:title="2">
<text text-anchor="middle" x="586.05" y="-45.09" font-family="Helvetica,sans-Serif" font-size="10.00" fill="#63b8ff">2</text>
</a>
</g>
</g>
<!-- dir_79b0fc31886878301008cd3607d74e5c&#45;&gt;dir_fa6656cf05a87bf9d66ed3de0114a478 -->
<g id="edge16" class="edge">
<title>dir_79b0fc31886878301008cd3607d74e5c&#45;&gt;dir_fa6656cf05a87bf9d66ed3de0114a478</title>
<g id="a_edge16"><a xlink:href="dir_000453_000100.html" target="_top">
<path fill="none" stroke="#63b8ff" d="M479.98,-127.84C516.58,-110.03 611.07,-64.06 659.08,-40.7"/>
<polygon fill="#63b8ff" stroke="#63b8ff" points="660.58,-43.86 668.04,-36.34 657.52,-37.56 660.58,-43.86"/>
</a>
</g>
<g id="a_edge16&#45;headlabel"><a xlink:href="dir_000453_000100.html" target="_top" xlink:title="12">
<text text-anchor="middle" x="659.95" y="-43.45" font-family="Helvetica,sans-Serif" font-size="10.00" fill="#63b8ff">12</text>
</a>
</g>
</g>
<!-- dir_79b0fc31886878301008cd3607d74e5c&#45;&gt;dir_ab1b54331b4bb0c44e7fcd5a7d20111e -->
<g id="edge14" class="edge">
<title>dir_79b0fc31886878301008cd3607d74e5c&#45;&gt;dir_ab1b54331b4bb0c44e7fcd5a7d20111e</title>
<g id="a_edge14"><a xlink:href="dir_000453_000300.html" target="_top">
<path fill="none" stroke="#63b8ff" d="M477.03,-126.01C486.65,-117.89 499.42,-105.08 505,-90.5 509.33,-79.19 509.43,-74.52 505,-63.25 502.06,-55.76 496.79,-48.89 491.26,-43.18"/>
<polygon fill="#63b8ff" stroke="#63b8ff" points="494.03,-40.98 484.33,-36.72 489.26,-46.1 494.03,-40.98"/>
</a>
</g>
<g id="a_edge14&#45;headlabel"><a xlink:href="dir_000453_000300.html" target="_top" xlink:title="1">
<text text-anchor="middle" x="497.49" y="-36.44" font-family="Helvetica,sans-Serif" font-size="10.00" fill="#63b8ff">1</text>
</a>
</g>
</g>
<!-- dir_79b0fc31886878301008cd3607d74e5c&#45;&gt;dir_5365a3767b7bcdec829ecb94aa09817f -->
<g id="edge17" class="edge">
<title>dir_79b0fc31886878301008cd3607d74e5c&#45;&gt;dir_5365a3767b7bcdec829ecb94aa09817f</title>
<g id="a_edge17"><a xlink:href="dir_000453_000520.html" target="_top">
<path fill="none" stroke="#63b8ff" d="M476.35,-126.16C486.42,-117.76 501.05,-104.45 511,-90.5 520.81,-76.76 528.75,-59.3 533.99,-46.11"/>
<polygon fill="#63b8ff" stroke="#63b8ff" points="537.23,-47.43 537.49,-36.84 530.69,-44.96 537.23,-47.43"/>
</a>
</g>
<g id="a_edge17&#45;headlabel"><a xlink:href="dir_000453_000520.html" target="_top" xlink:title="1">
<text text-anchor="middle" x="539.16" y="-46.51" font-family="Helvetica,sans-Serif" font-size="10.00" fill="#63b8ff">1</text>
</a>
</g>
</g>
<!-- dir_79b0fc31886878301008cd3607d74e5c&#45;&gt;dir_575b28202c36ed264653905d4a3b4548 -->
<g id="edge11" class="edge">
<title>dir_79b0fc31886878301008cd3607d74e5c&#45;&gt;dir_575b28202c36ed264653905d4a3b4548</title>
<g id="a_edge11"><a xlink:href="dir_000453_000268.html" target="_top">
<path fill="none" stroke="#63b8ff" d="M466.32,-126.33C467.31,-119.74 468.71,-110.46 469.97,-102.07"/>
<polygon fill="#63b8ff" stroke="#63b8ff" points="473.4,-102.76 471.43,-92.36 466.48,-101.72 473.4,-102.76"/>
</a>
</g>
<g id="a_edge11&#45;headlabel"><a xlink:href="dir_000453_000268.html" target="_top" xlink:title="20">
<text text-anchor="middle" x="475.9" y="-101.37" font-family="Helvetica,sans-Serif" font-size="10.00" fill="#63b8ff">20</text>
</a>
</g>
</g>
<!-- dir_79b0fc31886878301008cd3607d74e5c&#45;&gt;dir_bbc7c2c1f127b379ce39be24c4bd3dbe -->
<g id="edge13" class="edge">
<title>dir_79b0fc31886878301008cd3607d74e5c&#45;&gt;dir_bbc7c2c1f127b379ce39be24c4bd3dbe</title>
<g id="a_edge13"><a xlink:href="dir_000453_000034.html" target="_top">
<path fill="none" stroke="#63b8ff" d="M480.2,-128.95C482.78,-128.04 485.45,-127.18 488,-126.5 583.74,-100.98 620.75,-137.45 708,-90.5 728.09,-79.69 745.02,-59.38 755.52,-44.56"/>
<polygon fill="#63b8ff" stroke="#63b8ff" points="758.19,-46.86 760.88,-36.61 752.39,-42.95 758.19,-46.86"/>
</a>
</g>
<g id="a_edge13&#45;headlabel"><a xlink:href="dir_000453_000034.html" target="_top" xlink:title="6">
<text text-anchor="middle" x="759.38" y="-46.3" font-family="Helvetica,sans-Serif" font-size="10.00" fill="#63b8ff">6</text>
</a>
</g>
</g>
</g>
</svg>
