<?xml version="1.0" encoding="UTF-8" standalone="no"?>
<!DOCTYPE svg PUBLIC "-//W3C//DTD SVG 1.1//EN"
 "http://www.w3.org/Graphics/SVG/1.1/DTD/svg11.dtd">
<!-- Generated by graphviz version 9.0.0 (20230911.1827)
 -->
<!-- Title: /github/workspace/dev_area/sourcecode/fdreadoutlibs/src Pages: 1 -->
<svg width="714pt" height="142pt"
 viewBox="0.00 0.00 714.12 141.75" xmlns="http://www.w3.org/2000/svg" xmlns:xlink="http://www.w3.org/1999/xlink">
<g id="graph0" class="graph" transform="scale(1 1) rotate(0) translate(4 137.75)">
<title>/github/workspace/dev_area/sourcecode/fdreadoutlibs/src</title>
<g id="clust1" class="cluster">
<title>clusterdir_fe853eb0796da44195fb8219d49359ed</title>
<g id="a_clust1"><a xlink:href="dir_fe853eb0796da44195fb8219d49359ed.html" target="_top" xlink:title="fdreadoutlibs">
<polygon fill="#edf0f7" stroke="#7f7f7f" stroke-dasharray="5,2" points="8,-8 8,-125.75 246,-125.75 246,-8 8,-8"/>
<text text-anchor="middle" x="127" y="-112.25" font-family="Helvetica,sans-Serif" font-size="10.00">fdreadoutlibs</text>
</a>
</g>
</g>
<g id="clust2" class="cluster">
<title>clusterdir_79b0fc31886878301008cd3607d74e5c</title>
<g id="a_clust2"><a xlink:href="dir_79b0fc31886878301008cd3607d74e5c.html" target="_top">
<polygon fill="#edf0f7" stroke="#404040" stroke-width="2" points="16,-63.25 16,-98.5 238,-98.5 238,-63.25 16,-63.25"/>
</a>
</g>
</g>
<!-- dir_575b28202c36ed264653905d4a3b4548 -->
<g id="node1" class="node">
<title>dir_575b28202c36ed264653905d4a3b4548</title>
<g id="a_node1"><a xlink:href="dir_575b28202c36ed264653905d4a3b4548.html" target="_top" xlink:title="include">
<polygon fill="#a2b4d6" stroke="red" points="147.38,-35.25 100.62,-35.25 100.62,-16 147.38,-16 147.38,-35.25"/>
<text text-anchor="middle" x="124" y="-21.75" font-family="Helvetica,sans-Serif" font-size="10.00">include</text>
</a>
</g>
</g>
<!-- dir_79b0fc31886878301008cd3607d74e5c -->
<g id="node2" class="node">
<title>dir_79b0fc31886878301008cd3607d74e5c</title>
<text text-anchor="middle" x="39" y="-77" font-family="Helvetica,sans-Serif" font-size="10.00">src</text>
</g>
<!-- dir_79b0fc31886878301008cd3607d74e5c&#45;&gt;dir_575b28202c36ed264653905d4a3b4548 -->
<g id="edge1" class="edge">
<title>dir_79b0fc31886878301008cd3607d74e5c&#45;&gt;dir_575b28202c36ed264653905d4a3b4548</title>
<g id="a_edge1"><a xlink:href="dir_000453_000268.html" target="_top">
<path fill="none" stroke="#63b8ff" d="M51.11,-71.26C54.88,-68.64 59.08,-65.78 63,-63.25 74.48,-55.84 87.43,-47.99 98.44,-41.47"/>
<polygon fill="#63b8ff" stroke="#63b8ff" points="100.13,-44.53 106.98,-36.45 96.58,-38.5 100.13,-44.53"/>
</a>
</g>
<g id="a_edge1&#45;headlabel"><a xlink:href="dir_000453_000268.html" target="_top" xlink:title="20">
<text text-anchor="middle" x="99.78" y="-44.16" font-family="Helvetica,sans-Serif" font-size="10.00" fill="#63b8ff">20</text>
</a>
</g>
</g>
<!-- dir_3a7cf7923da53797f0fc9b6101abb03c -->
<g id="node3" class="node">
<title>dir_3a7cf7923da53797f0fc9b6101abb03c</title>
<g id="a_node3"><a xlink:href="dir_3a7cf7923da53797f0fc9b6101abb03c.html" target="_top" xlink:title="daphne">
<polygon fill="#a2b4d6" stroke="#404040" points="119.75,-90.5 72.25,-90.5 72.25,-71.25 119.75,-71.25 119.75,-90.5"/>
<text text-anchor="middle" x="96" y="-77" font-family="Helvetica,sans-Serif" font-size="10.00">daphne</text>
</a>
</g>
</g>
<!-- dir_3a7cf7923da53797f0fc9b6101abb03c&#45;&gt;dir_575b28202c36ed264653905d4a3b4548 -->
<g id="edge2" class="edge">
<title>dir_3a7cf7923da53797f0fc9b6101abb03c&#45;&gt;dir_575b28202c36ed264653905d4a3b4548</title>
<g id="a_edge2"><a xlink:href="dir_000087_000268.html" target="_top">
<path fill="none" stroke="#63b8ff" d="M100.62,-71.08C104.25,-64.19 109.43,-54.34 113.99,-45.66"/>
<polygon fill="#63b8ff" stroke="#63b8ff" points="117.02,-47.43 118.57,-36.95 110.82,-44.17 117.02,-47.43"/>
</a>
</g>
<g id="a_edge2&#45;headlabel"><a xlink:href="dir_000087_000268.html" target="_top" xlink:title="3">
<text text-anchor="middle" x="118.56" y="-46.72" font-family="Helvetica,sans-Serif" font-size="10.00" fill="#63b8ff">3</text>
</a>
</g>
</g>
<!-- dir_b171eb6ddcbdd8021917a50d6abc983c -->
<g id="node6" class="node">
<title>dir_b171eb6ddcbdd8021917a50d6abc983c</title>
<g id="a_node6"><a xlink:href="dir_b171eb6ddcbdd8021917a50d6abc983c.html" target="_top" xlink:title="fddetdataformats">
<polygon fill="#edf0f7" stroke="red" stroke-dasharray="5,2" points="343.75,-35.25 254.25,-35.25 254.25,-16 343.75,-16 343.75,-35.25"/>
<text text-anchor="middle" x="299" y="-21.75" font-family="Helvetica,sans-Serif" font-size="10.00">fddetdataformats</text>
</a>
</g>
</g>
<!-- dir_3a7cf7923da53797f0fc9b6101abb03c&#45;&gt;dir_b171eb6ddcbdd8021917a50d6abc983c -->
<g id="edge3" class="edge">
<title>dir_3a7cf7923da53797f0fc9b6101abb03c&#45;&gt;dir_b171eb6ddcbdd8021917a50d6abc983c</title>
<g id="a_edge3"><a xlink:href="dir_000087_000198.html" target="_top">
<path fill="none" stroke="#63b8ff" d="M111.75,-70.91C117.1,-68.15 123.19,-65.3 129,-63.25 149.69,-55.95 201.68,-45.13 242.76,-37.14"/>
<polygon fill="#63b8ff" stroke="#63b8ff" points="243.38,-40.59 252.54,-35.26 242.06,-33.72 243.38,-40.59"/>
</a>
</g>
<g id="a_edge3&#45;headlabel"><a xlink:href="dir_000087_000198.html" target="_top" xlink:title="3">
<text text-anchor="middle" x="241.87" y="-39.9" font-family="Helvetica,sans-Serif" font-size="10.00" fill="#63b8ff">3</text>
</a>
</g>
</g>
<!-- dir_97c9b2c81087625a01e0b53d94afaecc -->
<g id="node4" class="node">
<title>dir_97c9b2c81087625a01e0b53d94afaecc</title>
<g id="a_node4"><a xlink:href="dir_97c9b2c81087625a01e0b53d94afaecc.html" target="_top" xlink:title="tde">
<polygon fill="#a2b4d6" stroke="#404040" points="167.75,-90.5 138.25,-90.5 138.25,-71.25 167.75,-71.25 167.75,-90.5"/>
<text text-anchor="middle" x="153" y="-77" font-family="Helvetica,sans-Serif" font-size="10.00">tde</text>
</a>
</g>
</g>
<!-- dir_97c9b2c81087625a01e0b53d94afaecc&#45;&gt;dir_575b28202c36ed264653905d4a3b4548 -->
<g id="edge5" class="edge">
<title>dir_97c9b2c81087625a01e0b53d94afaecc&#45;&gt;dir_575b28202c36ed264653905d4a3b4548</title>
<g id="a_edge5"><a xlink:href="dir_000484_000268.html" target="_top">
<path fill="none" stroke="#63b8ff" d="M148.21,-71.08C144.46,-64.19 139.09,-54.34 134.37,-45.66"/>
<polygon fill="#63b8ff" stroke="#63b8ff" points="137.47,-44.05 129.62,-36.94 131.33,-47.39 137.47,-44.05"/>
</a>
</g>
<g id="a_edge5&#45;headlabel"><a xlink:href="dir_000484_000268.html" target="_top" xlink:title="3">
<text text-anchor="middle" x="140.96" y="-40.64" font-family="Helvetica,sans-Serif" font-size="10.00" fill="#63b8ff">3</text>
</a>
</g>
</g>
<!-- dir_97c9b2c81087625a01e0b53d94afaecc&#45;&gt;dir_b171eb6ddcbdd8021917a50d6abc983c -->
<g id="edge7" class="edge">
<title>dir_97c9b2c81087625a01e0b53d94afaecc&#45;&gt;dir_b171eb6ddcbdd8021917a50d6abc983c</title>
<g id="a_edge7"><a xlink:href="dir_000484_000198.html" target="_top">
<path fill="none" stroke="#63b8ff" d="M164.27,-70.98C168.14,-68.23 172.62,-65.36 177,-63.25 198.72,-52.79 224.06,-44.6 246,-38.64"/>
<polygon fill="#63b8ff" stroke="#63b8ff" points="246.88,-42.03 255.66,-36.11 245.1,-35.26 246.88,-42.03"/>
</a>
</g>
<g id="a_edge7&#45;headlabel"><a xlink:href="dir_000484_000198.html" target="_top" xlink:title="2">
<text text-anchor="middle" x="245.58" y="-41.43" font-family="Helvetica,sans-Serif" font-size="10.00" fill="#63b8ff">2</text>
</a>
</g>
</g>
<!-- dir_bbc7c2c1f127b379ce39be24c4bd3dbe -->
<g id="node7" class="node">
<title>dir_bbc7c2c1f127b379ce39be24c4bd3dbe</title>
<g id="a_node7"><a xlink:href="dir_bbc7c2c1f127b379ce39be24c4bd3dbe.html" target="_top" xlink:title="build">
<polygon fill="#edf0f7" stroke="red" stroke-dasharray="5,2" points="706.12,-35.25 669.88,-35.25 669.88,-16 706.12,-16 706.12,-35.25"/>
<text text-anchor="middle" x="688" y="-21.75" font-family="Helvetica,sans-Serif" font-size="10.00">build</text>
</a>
</g>
</g>
<!-- dir_97c9b2c81087625a01e0b53d94afaecc&#45;&gt;dir_bbc7c2c1f127b379ce39be24c4bd3dbe -->
<g id="edge8" class="edge">
<title>dir_97c9b2c81087625a01e0b53d94afaecc&#45;&gt;dir_bbc7c2c1f127b379ce39be24c4bd3dbe</title>
<g id="a_edge8"><a xlink:href="dir_000484_000034.html" target="_top">
<path fill="none" stroke="#63b8ff" d="M163.06,-71.07C167.12,-68.03 172.02,-64.97 177,-63.25 275.68,-29.25 537.98,-53.3 658.37,-35.09"/>
<polygon fill="#63b8ff" stroke="#63b8ff" points="658.8,-38.56 668.07,-33.44 657.63,-31.66 658.8,-38.56"/>
</a>
</g>
<g id="a_edge8&#45;headlabel"><a xlink:href="dir_000484_000034.html" target="_top" xlink:title="2">
<text text-anchor="middle" x="657.22" y="-37.83" font-family="Helvetica,sans-Serif" font-size="10.00" fill="#63b8ff">2</text>
</a>
</g>
</g>
<!-- dir_ab1b54331b4bb0c44e7fcd5a7d20111e -->
<g id="node8" class="node">
<title>dir_ab1b54331b4bb0c44e7fcd5a7d20111e</title>
<g id="a_node8"><a xlink:href="dir_ab1b54331b4bb0c44e7fcd5a7d20111e.html" target="_top" xlink:title="iomanager">
<polygon fill="#edf0f7" stroke="red" stroke-dasharray="5,2" points="422.5,-35.25 361.5,-35.25 361.5,-16 422.5,-16 422.5,-35.25"/>
<text text-anchor="middle" x="392" y="-21.75" font-family="Helvetica,sans-Serif" font-size="10.00">iomanager</text>
</a>
</g>
</g>
<!-- dir_97c9b2c81087625a01e0b53d94afaecc&#45;&gt;dir_ab1b54331b4bb0c44e7fcd5a7d20111e -->
<g id="edge6" class="edge">
<title>dir_97c9b2c81087625a01e0b53d94afaecc&#45;&gt;dir_ab1b54331b4bb0c44e7fcd5a7d20111e</title>
<g id="a_edge6"><a xlink:href="dir_000484_000300.html" target="_top">
<path fill="none" stroke="#63b8ff" d="M163.63,-70.98C167.61,-68.09 172.3,-65.14 177,-63.25 247.2,-35.06 272.87,-48.66 350.13,-35.6"/>
<polygon fill="#63b8ff" stroke="#63b8ff" points="350.67,-39.06 359.89,-33.85 349.43,-32.17 350.67,-39.06"/>
</a>
</g>
<g id="a_edge6&#45;headlabel"><a xlink:href="dir_000484_000300.html" target="_top" xlink:title="1">
<text text-anchor="middle" x="349.12" y="-38.35" font-family="Helvetica,sans-Serif" font-size="10.00" fill="#63b8ff">1</text>
</a>
</g>
</g>
<!-- dir_f74a706a7efda297e6d8fb2c03527fc2 -->
<g id="node9" class="node">
<title>dir_f74a706a7efda297e6d8fb2c03527fc2</title>
<g id="a_node9"><a xlink:href="dir_f74a706a7efda297e6d8fb2c03527fc2.html" target="_top" xlink:title="logging">
<polygon fill="#edf0f7" stroke="red" stroke-dasharray="5,2" points="548.38,-35.25 501.62,-35.25 501.62,-16 548.38,-16 548.38,-35.25"/>
<text text-anchor="middle" x="525" y="-21.75" font-family="Helvetica,sans-Serif" font-size="10.00">logging</text>
</a>
</g>
</g>
<!-- dir_97c9b2c81087625a01e0b53d94afaecc&#45;&gt;dir_f74a706a7efda297e6d8fb2c03527fc2 -->
<g id="edge9" class="edge">
<title>dir_97c9b2c81087625a01e0b53d94afaecc&#45;&gt;dir_f74a706a7efda297e6d8fb2c03527fc2</title>
<g id="a_edge9"><a xlink:href="dir_000484_000316.html" target="_top">
<path fill="none" stroke="#63b8ff" d="M163.56,-70.8C167.53,-67.89 172.23,-64.97 177,-63.25 306.22,-16.51 351.86,-57.71 490.32,-35.37"/>
<polygon fill="#63b8ff" stroke="#63b8ff" points="490.58,-38.88 499.85,-33.75 489.4,-31.98 490.58,-38.88"/>
</a>
</g>
<g id="a_edge9&#45;headlabel"><a xlink:href="dir_000484_000316.html" target="_top" xlink:title="1">
<text text-anchor="middle" x="489" y="-38.16" font-family="Helvetica,sans-Serif" font-size="10.00" fill="#63b8ff">1</text>
</a>
</g>
</g>
<!-- dir_fa6656cf05a87bf9d66ed3de0114a478 -->
<g id="node10" class="node">
<title>dir_fa6656cf05a87bf9d66ed3de0114a478</title>
<g id="a_node10"><a xlink:href="dir_fa6656cf05a87bf9d66ed3de0114a478.html" target="_top" xlink:title="datahandlinglibs">
<polygon fill="#edf0f7" stroke="red" stroke-dasharray="5,2" points="651.88,-35.25 566.12,-35.25 566.12,-16 651.88,-16 651.88,-35.25"/>
<text text-anchor="middle" x="609" y="-21.75" font-family="Helvetica,sans-Serif" font-size="10.00">datahandlinglibs</text>
</a>
</g>
</g>
<!-- dir_97c9b2c81087625a01e0b53d94afaecc&#45;&gt;dir_fa6656cf05a87bf9d66ed3de0114a478 -->
<g id="edge10" class="edge">
<title>dir_97c9b2c81087625a01e0b53d94afaecc&#45;&gt;dir_fa6656cf05a87bf9d66ed3de0114a478</title>
<g id="a_edge10"><a xlink:href="dir_000484_000100.html" target="_top">
<path fill="none" stroke="#63b8ff" d="M163.55,-70.76C167.51,-67.85 172.22,-64.94 177,-63.25 253.72,-36.14 456.25,-44.56 554.22,-35.34"/>
<polygon fill="#63b8ff" stroke="#63b8ff" points="554.55,-38.82 564.13,-34.28 553.81,-31.86 554.55,-38.82"/>
</a>
</g>
<g id="a_edge10&#45;headlabel"><a xlink:href="dir_000484_000100.html" target="_top" xlink:title="5">
<text text-anchor="middle" x="552.78" y="-37.99" font-family="Helvetica,sans-Serif" font-size="10.00" fill="#63b8ff">5</text>
</a>
</g>
</g>
<!-- dir_5365a3767b7bcdec829ecb94aa09817f -->
<g id="node11" class="node">
<title>dir_5365a3767b7bcdec829ecb94aa09817f</title>
<g id="a_node11"><a xlink:href="dir_5365a3767b7bcdec829ecb94aa09817f.html" target="_top" xlink:title="trigger">
<polygon fill="#edf0f7" stroke="red" stroke-dasharray="5,2" points="483.5,-35.25 440.5,-35.25 440.5,-16 483.5,-16 483.5,-35.25"/>
<text text-anchor="middle" x="462" y="-21.75" font-family="Helvetica,sans-Serif" font-size="10.00">trigger</text>
</a>
</g>
</g>
<!-- dir_97c9b2c81087625a01e0b53d94afaecc&#45;&gt;dir_5365a3767b7bcdec829ecb94aa09817f -->
<g id="edge4" class="edge">
<title>dir_97c9b2c81087625a01e0b53d94afaecc&#45;&gt;dir_5365a3767b7bcdec829ecb94aa09817f</title>
<g id="a_edge4"><a xlink:href="dir_000484_000520.html" target="_top">
<path fill="none" stroke="#63b8ff" d="M163.59,-70.85C167.55,-67.95 172.25,-65.02 177,-63.25 280.46,-24.59 317.8,-55.25 429.14,-35.45"/>
<polygon fill="#63b8ff" stroke="#63b8ff" points="429.49,-38.95 438.66,-33.65 428.19,-32.07 429.49,-38.95"/>
</a>
</g>
<g id="a_edge4&#45;headlabel"><a xlink:href="dir_000484_000520.html" target="_top" xlink:title="1">
<text text-anchor="middle" x="427.97" y="-38.25" font-family="Helvetica,sans-Serif" font-size="10.00" fill="#63b8ff">1</text>
</a>
</g>
</g>
<!-- dir_4e619e762342433205acde11e0da5a18 -->
<g id="node5" class="node">
<title>dir_4e619e762342433205acde11e0da5a18</title>
<g id="a_node5"><a xlink:href="dir_4e619e762342433205acde11e0da5a18.html" target="_top" xlink:title="wibeth">
<polygon fill="#a2b4d6" stroke="#404040" points="230.25,-90.5 185.75,-90.5 185.75,-71.25 230.25,-71.25 230.25,-90.5"/>
<text text-anchor="middle" x="208" y="-77" font-family="Helvetica,sans-Serif" font-size="10.00">wibeth</text>
</a>
</g>
</g>
<!-- dir_4e619e762342433205acde11e0da5a18&#45;&gt;dir_575b28202c36ed264653905d4a3b4548 -->
<g id="edge11" class="edge">
<title>dir_4e619e762342433205acde11e0da5a18&#45;&gt;dir_575b28202c36ed264653905d4a3b4548</title>
<g id="a_edge11"><a xlink:href="dir_000545_000268.html" target="_top">
<path fill="none" stroke="#63b8ff" d="M193.75,-70.84C181.2,-62.89 162.67,-51.14 147.86,-41.75"/>
<polygon fill="#63b8ff" stroke="#63b8ff" points="149.92,-38.91 139.6,-36.51 146.17,-44.82 149.92,-38.91"/>
</a>
</g>
<g id="a_edge11&#45;headlabel"><a xlink:href="dir_000545_000268.html" target="_top" xlink:title="10">
<text text-anchor="middle" x="153.2" y="-33.75" font-family="Helvetica,sans-Serif" font-size="10.00" fill="#63b8ff">10</text>
</a>
</g>
</g>
<!-- dir_4e619e762342433205acde11e0da5a18&#45;&gt;dir_bbc7c2c1f127b379ce39be24c4bd3dbe -->
<g id="edge12" class="edge">
<title>dir_4e619e762342433205acde11e0da5a18&#45;&gt;dir_bbc7c2c1f127b379ce39be24c4bd3dbe</title>
<g id="a_edge12"><a xlink:href="dir_000545_000034.html" target="_top">
<path fill="none" stroke="#63b8ff" d="M230.4,-79.34C295.38,-77.43 489.5,-69.26 658.46,-35.36"/>
<polygon fill="#63b8ff" stroke="#63b8ff" points="658.97,-38.82 668.06,-33.39 657.56,-31.97 658.97,-38.82"/>
</a>
</g>
<g id="a_edge12&#45;headlabel"><a xlink:href="dir_000545_000034.html" target="_top" xlink:title="4">
<text text-anchor="middle" x="657.5" y="-38.15" font-family="Helvetica,sans-Serif" font-size="10.00" fill="#63b8ff">4</text>
</a>
</g>
</g>
<!-- dir_4e619e762342433205acde11e0da5a18&#45;&gt;dir_f74a706a7efda297e6d8fb2c03527fc2 -->
<g id="edge13" class="edge">
<title>dir_4e619e762342433205acde11e0da5a18&#45;&gt;dir_f74a706a7efda297e6d8fb2c03527fc2</title>
<g id="a_edge13"><a xlink:href="dir_000545_000316.html" target="_top">
<path fill="none" stroke="#63b8ff" d="M230.69,-77.17C277.45,-71.41 388.1,-56.87 490.18,-35.66"/>
<polygon fill="#63b8ff" stroke="#63b8ff" points="490.76,-39.12 499.82,-33.63 489.32,-32.27 490.76,-39.12"/>
</a>
</g>
<g id="a_edge13&#45;headlabel"><a xlink:href="dir_000545_000316.html" target="_top" xlink:title="1">
<text text-anchor="middle" x="489.31" y="-38.45" font-family="Helvetica,sans-Serif" font-size="10.00" fill="#63b8ff">1</text>
</a>
</g>
</g>
<!-- dir_4e619e762342433205acde11e0da5a18&#45;&gt;dir_fa6656cf05a87bf9d66ed3de0114a478 -->
<g id="edge14" class="edge">
<title>dir_4e619e762342433205acde11e0da5a18&#45;&gt;dir_fa6656cf05a87bf9d66ed3de0114a478</title>
<g id="a_edge14"><a xlink:href="dir_000545_000100.html" target="_top">
<path fill="none" stroke="#63b8ff" d="M230.5,-77.29C284.45,-71.04 425.71,-54.29 554.65,-35.55"/>
<polygon fill="#63b8ff" stroke="#63b8ff" points="555,-39.03 564.39,-34.12 553.99,-32.11 555,-39.03"/>
</a>
</g>
<g id="a_edge14&#45;headlabel"><a xlink:href="dir_000545_000100.html" target="_top" xlink:title="7">
<text text-anchor="middle" x="553.35" y="-38.27" font-family="Helvetica,sans-Serif" font-size="10.00" fill="#63b8ff">7</text>
</a>
</g>
</g>
</g>
</svg>
