<?xml version="1.0" encoding="UTF-8" standalone="no"?>
<!DOCTYPE svg PUBLIC "-//W3C//DTD SVG 1.1//EN"
 "http://www.w3.org/Graphics/SVG/1.1/DTD/svg11.dtd">
<!-- Generated by graphviz version 9.0.0 (20230911.1827)
 -->
<!-- Title: /github/workspace/dev_area/build/fdreadoutmodules/codegen/include/fdreadoutmodules/opmon/dummy_consumer_info.pb.cc Pages: 1 -->
<svg width="1996pt" height="194pt"
 viewBox="0.00 0.00 1995.62 194.00" xmlns="http://www.w3.org/2000/svg" xmlns:xlink="http://www.w3.org/1999/xlink">
<g id="graph0" class="graph" transform="scale(1 1) rotate(0) translate(4 190)">
<title>/github/workspace/dev_area/build/fdreadoutmodules/codegen/include/fdreadoutmodules/opmon/dummy_consumer_info.pb.cc</title>
<!-- Node1 -->
<g id="Node000001" class="node">
<title>Node1</title>
<g id="a_Node000001"><a xlink:title=" ">
<polygon fill="#999999" stroke="#666666" points="1267.75,-186 1090.5,-186 1090.5,-133 1267.75,-133 1267.75,-186"/>
<text text-anchor="start" x="1098.5" y="-172.5" font-family="Helvetica,sans-Serif" font-size="10.00">/github/workspace/dev</text>
<text text-anchor="start" x="1098.5" y="-161.25" font-family="Helvetica,sans-Serif" font-size="10.00">_area/build/fdreadoutmodules</text>
<text text-anchor="start" x="1098.5" y="-150" font-family="Helvetica,sans-Serif" font-size="10.00">/codegen/include/fdreadoutmodules</text>
<text text-anchor="middle" x="1179.12" y="-138.75" font-family="Helvetica,sans-Serif" font-size="10.00">/opmon/dummy_consumer_info.pb.cc</text>
</a>
</g>
</g>
<!-- Node2 -->
<g id="Node000002" class="node">
<title>Node2</title>
<g id="a_Node000002"><a xlink:href="dummy__consumer__info_8pb_8h.html" target="_top" xlink:title=" ">
<polygon fill="white" stroke="#666666" points="1085,-97 945.25,-97 945.25,-66.5 1085,-66.5 1085,-97"/>
<text text-anchor="start" x="953.25" y="-83.5" font-family="Helvetica,sans-Serif" font-size="10.00">fdreadoutmodules/opmon</text>
<text text-anchor="middle" x="1015.12" y="-72.25" font-family="Helvetica,sans-Serif" font-size="10.00">/dummy_consumer_info.pb.h</text>
</a>
</g>
</g>
<!-- Node1&#45;&gt;Node2 -->
<g id="edge1_Node000001_Node000002" class="edge">
<title>Node1&#45;&gt;Node2</title>
<g id="a_edge1_Node000001_Node000002"><a xlink:title=" ">
<path fill="none" stroke="#63b8ff" d="M1123.14,-132.64C1101.59,-122.69 1077.37,-111.5 1057.33,-102.24"/>
<polygon fill="#63b8ff" stroke="#63b8ff" points="1058.89,-99.11 1048.34,-98.09 1055.95,-105.46 1058.89,-99.11"/>
</a>
</g>
</g>
<!-- Node6 -->
<g id="Node000006" class="node">
<title>Node6</title>
<g id="a_Node000006"><a xlink:title=" ">
<polygon fill="#e0e0e0" stroke="#999999" points="102.25,-30.5 0,-30.5 0,0 102.25,0 102.25,-30.5"/>
<text text-anchor="start" x="8" y="-17" font-family="Helvetica,sans-Serif" font-size="10.00">google/protobuf/port</text>
<text text-anchor="middle" x="51.12" y="-5.75" font-family="Helvetica,sans-Serif" font-size="10.00">_def.inc</text>
</a>
</g>
</g>
<!-- Node1&#45;&gt;Node6 -->
<g id="edge27_Node000001_Node000006" class="edge">
<title>Node1&#45;&gt;Node6</title>
<g id="a_edge27_Node000001_Node000006"><a xlink:title=" ">
<path fill="none" stroke="#63b8ff" d="M1090.02,-155.6C945.38,-149.96 650.81,-134.58 404.12,-97 301.18,-81.32 183.67,-52.12 113.54,-33.47"/>
<polygon fill="#63b8ff" stroke="#63b8ff" points="114.73,-30.16 104.16,-30.96 112.92,-36.92 114.73,-30.16"/>
</a>
</g>
</g>
<!-- Node7 -->
<g id="Node000007" class="node">
<title>Node7</title>
<g id="a_Node000007"><a xlink:title=" ">
<polygon fill="#e0e0e0" stroke="#999999" points="222.25,-30.5 120,-30.5 120,0 222.25,0 222.25,-30.5"/>
<text text-anchor="start" x="128" y="-17" font-family="Helvetica,sans-Serif" font-size="10.00">google/protobuf/port</text>
<text text-anchor="middle" x="171.12" y="-5.75" font-family="Helvetica,sans-Serif" font-size="10.00">_undef.inc</text>
</a>
</g>
</g>
<!-- Node1&#45;&gt;Node7 -->
<g id="edge28_Node000001_Node000007" class="edge">
<title>Node1&#45;&gt;Node7</title>
<g id="a_edge28_Node000001_Node000007"><a xlink:title=" ">
<path fill="none" stroke="#63b8ff" d="M1090.13,-151.17C975.74,-141.27 771.12,-121.96 597.12,-97 436.99,-74.02 394.74,-64.79 233.28,-30.9"/>
<polygon fill="#63b8ff" stroke="#63b8ff" points="234.46,-27.57 223.95,-28.95 233.02,-34.43 234.46,-27.57"/>
</a>
</g>
</g>
<!-- Node8 -->
<g id="Node000008" class="node">
<title>Node8</title>
<g id="a_Node000008"><a xlink:title=" ">
<polygon fill="#e0e0e0" stroke="#999999" points="333.75,-30.5 240.5,-30.5 240.5,0 333.75,0 333.75,-30.5"/>
<text text-anchor="start" x="248.5" y="-17" font-family="Helvetica,sans-Serif" font-size="10.00">google/protobuf/io</text>
<text text-anchor="middle" x="287.12" y="-5.75" font-family="Helvetica,sans-Serif" font-size="10.00">/coded_stream.h</text>
</a>
</g>
</g>
<!-- Node1&#45;&gt;Node8 -->
<g id="edge19_Node000001_Node000008" class="edge">
<title>Node1&#45;&gt;Node8</title>
<g id="a_edge19_Node000001_Node000008"><a xlink:title=" ">
<path fill="none" stroke="#63b8ff" d="M1090.45,-144.02C976.41,-125.49 772.15,-92.69 597.12,-66.5 487.47,-50.09 456.3,-52.7 345.16,-30.99"/>
<polygon fill="#63b8ff" stroke="#63b8ff" points="346.12,-27.61 335.63,-29.1 344.76,-34.48 346.12,-27.61"/>
</a>
</g>
</g>
<!-- Node14 -->
<g id="Node000014" class="node">
<title>Node14</title>
<g id="a_Node000014"><a xlink:title=" ">
<polygon fill="#e0e0e0" stroke="#999999" points="1842.38,-30.5 1713.88,-30.5 1713.88,0 1842.38,0 1842.38,-30.5"/>
<text text-anchor="start" x="1721.88" y="-17" font-family="Helvetica,sans-Serif" font-size="10.00">google/protobuf/generated</text>
<text text-anchor="middle" x="1778.12" y="-5.75" font-family="Helvetica,sans-Serif" font-size="10.00">_message_reflection.h</text>
</a>
</g>
</g>
<!-- Node1&#45;&gt;Node14 -->
<g id="edge23_Node000001_Node000014" class="edge">
<title>Node1&#45;&gt;Node14</title>
<g id="a_edge23_Node000001_Node000014"><a xlink:title=" ">
<path fill="none" stroke="#63b8ff" d="M1153.16,-132.9C1135.93,-112.86 1119.46,-85.32 1137.12,-66.5 1178.54,-22.37 1603.47,-37.13 1702.42,-30.34"/>
<polygon fill="#63b8ff" stroke="#63b8ff" points="1702.57,-33.85 1712.21,-29.43 1701.92,-26.88 1702.57,-33.85"/>
</a>
</g>
</g>
<!-- Node17 -->
<g id="Node000017" class="node">
<title>Node17</title>
<g id="a_Node000017"><a xlink:title=" ">
<polygon fill="#e0e0e0" stroke="#999999" points="1987.62,-30.5 1860.62,-30.5 1860.62,0 1987.62,0 1987.62,-30.5"/>
<text text-anchor="start" x="1868.62" y="-17" font-family="Helvetica,sans-Serif" font-size="10.00">google/protobuf/extension</text>
<text text-anchor="middle" x="1924.12" y="-5.75" font-family="Helvetica,sans-Serif" font-size="10.00">_set.h</text>
</a>
</g>
</g>
<!-- Node1&#45;&gt;Node17 -->
<g id="edge20_Node000001_Node000017" class="edge">
<title>Node1&#45;&gt;Node17</title>
<g id="a_edge20_Node000001_Node000017"><a xlink:title=" ">
<path fill="none" stroke="#63b8ff" d="M1167.1,-132.81C1159.42,-112.17 1153.67,-83.85 1170.12,-66.5 1220.34,-13.56 1735.52,-37.8 1849.2,-30.23"/>
<polygon fill="#63b8ff" stroke="#63b8ff" points="1849.36,-33.74 1859,-29.35 1848.73,-26.76 1849.36,-33.74"/>
</a>
</g>
</g>
<!-- Node19 -->
<g id="Node000019" class="node">
<title>Node19</title>
<g id="a_Node000019"><a xlink:title=" ">
<polygon fill="#e0e0e0" stroke="#999999" points="1235,-91.38 1179.25,-91.38 1179.25,-72.12 1235,-72.12 1235,-91.38"/>
<text text-anchor="middle" x="1207.12" y="-77.88" font-family="Helvetica,sans-Serif" font-size="10.00">algorithm</text>
</a>
</g>
</g>
<!-- Node1&#45;&gt;Node19 -->
<g id="edge18_Node000001_Node000019" class="edge">
<title>Node1&#45;&gt;Node19</title>
<g id="a_edge18_Node000001_Node000019"><a xlink:title=" ">
<path fill="none" stroke="#63b8ff" d="M1188.6,-132.85C1192.31,-122.84 1196.48,-111.54 1199.93,-102.21"/>
<polygon fill="#63b8ff" stroke="#63b8ff" points="1203.11,-103.7 1203.3,-93.11 1196.55,-101.28 1203.11,-103.7"/>
</a>
</g>
</g>
<!-- Node20 -->
<g id="Node000020" class="node">
<title>Node20</title>
<g id="a_Node000020"><a xlink:title=" ">
<polygon fill="#e0e0e0" stroke="#999999" points="1357,-97 1253.25,-97 1253.25,-66.5 1357,-66.5 1357,-97"/>
<text text-anchor="start" x="1261.25" y="-83.5" font-family="Helvetica,sans-Serif" font-size="10.00">google/protobuf/wire</text>
<text text-anchor="middle" x="1305.12" y="-72.25" font-family="Helvetica,sans-Serif" font-size="10.00">_format_lite.h</text>
</a>
</g>
</g>
<!-- Node1&#45;&gt;Node20 -->
<g id="edge21_Node000001_Node000020" class="edge">
<title>Node1&#45;&gt;Node20</title>
<g id="a_edge21_Node000001_Node000020"><a xlink:title=" ">
<path fill="none" stroke="#63b8ff" d="M1222.13,-132.64C1238.16,-123.01 1256.11,-112.22 1271.2,-103.14"/>
<polygon fill="#63b8ff" stroke="#63b8ff" points="1272.6,-106.39 1279.36,-98.24 1268.99,-100.39 1272.6,-106.39"/>
</a>
</g>
</g>
<!-- Node21 -->
<g id="Node000021" class="node">
<title>Node21</title>
<g id="a_Node000021"><a xlink:title=" ">
<polygon fill="#e0e0e0" stroke="#999999" points="1511.12,-91.38 1375.12,-91.38 1375.12,-72.12 1511.12,-72.12 1511.12,-91.38"/>
<text text-anchor="middle" x="1443.12" y="-77.88" font-family="Helvetica,sans-Serif" font-size="10.00">google/protobuf/descriptor.h</text>
</a>
</g>
</g>
<!-- Node1&#45;&gt;Node21 -->
<g id="edge22_Node000001_Node000021" class="edge">
<title>Node1&#45;&gt;Node21</title>
<g id="a_edge22_Node000001_Node000021"><a xlink:title=" ">
<path fill="none" stroke="#63b8ff" d="M1268.14,-132.96C1312.84,-120.13 1364.94,-105.18 1400.59,-94.95"/>
<polygon fill="#63b8ff" stroke="#63b8ff" points="1401.45,-98.35 1410.1,-92.23 1399.52,-91.62 1401.45,-98.35"/>
</a>
</g>
</g>
<!-- Node22 -->
<g id="Node000022" class="node">
<title>Node22</title>
<g id="a_Node000022"><a xlink:title=" ">
<polygon fill="#e0e0e0" stroke="#999999" points="1653.5,-97 1528.75,-97 1528.75,-66.5 1653.5,-66.5 1653.5,-97"/>
<text text-anchor="start" x="1536.75" y="-83.5" font-family="Helvetica,sans-Serif" font-size="10.00">google/protobuf/reflection</text>
<text text-anchor="middle" x="1591.12" y="-72.25" font-family="Helvetica,sans-Serif" font-size="10.00">_ops.h</text>
</a>
</g>
</g>
<!-- Node1&#45;&gt;Node22 -->
<g id="edge24_Node000001_Node000022" class="edge">
<title>Node1&#45;&gt;Node22</title>
<g id="a_edge24_Node000001_Node000022"><a xlink:title=" ">
<path fill="none" stroke="#63b8ff" d="M1268.24,-142.92C1334.34,-131.25 1426.96,-114.66 1517.15,-97.55"/>
<polygon fill="#63b8ff" stroke="#63b8ff" points="1517.76,-100.99 1526.93,-95.69 1516.45,-94.12 1517.76,-100.99"/>
</a>
</g>
</g>
<!-- Node23 -->
<g id="Node000023" class="node">
<title>Node23</title>
<g id="a_Node000023"><a xlink:title=" ">
<polygon fill="#e0e0e0" stroke="#999999" points="1775,-97 1671.25,-97 1671.25,-66.5 1775,-66.5 1775,-97"/>
<text text-anchor="start" x="1679.25" y="-83.5" font-family="Helvetica,sans-Serif" font-size="10.00">google/protobuf/wire</text>
<text text-anchor="middle" x="1723.12" y="-72.25" font-family="Helvetica,sans-Serif" font-size="10.00">_format.h</text>
</a>
</g>
</g>
<!-- Node1&#45;&gt;Node23 -->
<g id="edge25_Node000001_Node000023" class="edge">
<title>Node1&#45;&gt;Node23</title>
<g id="a_edge25_Node000001_Node000023"><a xlink:title=" ">
<path fill="none" stroke="#63b8ff" d="M1268.12,-149.94C1362.88,-140.2 1517.39,-122.52 1659.85,-97.3"/>
<polygon fill="#63b8ff" stroke="#63b8ff" points="1660.24,-100.78 1669.47,-95.58 1659.01,-93.89 1660.24,-100.78"/>
</a>
</g>
</g>
<!-- Node24 -->
<g id="Node000024" class="node">
<title>Node24</title>
<g id="a_Node000024"><a xlink:title=" ">
<polygon fill="#e0e0e0" stroke="#999999" points="1921.38,-97 1792.88,-97 1792.88,-66.5 1921.38,-66.5 1921.38,-97"/>
<text text-anchor="start" x="1800.88" y="-83.5" font-family="Helvetica,sans-Serif" font-size="10.00">google/protobuf/generated</text>
<text text-anchor="middle" x="1857.12" y="-72.25" font-family="Helvetica,sans-Serif" font-size="10.00">_message_tctable_impl.h</text>
</a>
</g>
</g>
<!-- Node1&#45;&gt;Node24 -->
<g id="edge26_Node000001_Node000024" class="edge">
<title>Node1&#45;&gt;Node24</title>
<g id="a_edge26_Node000001_Node000024"><a xlink:title=" ">
<path fill="none" stroke="#63b8ff" d="M1268.12,-152.02C1384.06,-142.99 1593.25,-124.76 1781.47,-97.31"/>
<polygon fill="#63b8ff" stroke="#63b8ff" points="1781.81,-100.8 1791.2,-95.88 1780.79,-93.87 1781.81,-100.8"/>
</a>
</g>
</g>
<!-- Node3 -->
<g id="Node000003" class="node">
<title>Node3</title>
<g id="a_Node000003"><a xlink:title=" ">
<polygon fill="#e0e0e0" stroke="#999999" points="1422.75,-24.88 1383.5,-24.88 1383.5,-5.63 1422.75,-5.63 1422.75,-24.88"/>
<text text-anchor="middle" x="1403.12" y="-11.38" font-family="Helvetica,sans-Serif" font-size="10.00">limits</text>
</a>
</g>
</g>
<!-- Node2&#45;&gt;Node3 -->
<g id="edge2_Node000002_Node000003" class="edge">
<title>Node2&#45;&gt;Node3</title>
<g id="a_edge2_Node000002_Node000003"><a xlink:title=" ">
<path fill="none" stroke="#63b8ff" d="M1085.22,-68.65C1089.92,-67.91 1094.59,-67.18 1099.12,-66.5 1221.02,-48.19 1256.13,-66.15 1374.12,-30.5 1374.93,-30.26 1375.74,-29.99 1376.55,-29.71"/>
<polygon fill="#63b8ff" stroke="#63b8ff" points="1377.68,-33.04 1385.55,-25.94 1374.97,-26.58 1377.68,-33.04"/>
</a>
</g>
</g>
<!-- Node4 -->
<g id="Node000004" class="node">
<title>Node4</title>
<g id="a_Node000004"><a xlink:title=" ">
<polygon fill="#e0e0e0" stroke="#999999" points="1481.12,-24.88 1441.12,-24.88 1441.12,-5.63 1481.12,-5.63 1481.12,-24.88"/>
<text text-anchor="middle" x="1461.12" y="-11.38" font-family="Helvetica,sans-Serif" font-size="10.00">string</text>
</a>
</g>
</g>
<!-- Node2&#45;&gt;Node4 -->
<g id="edge3_Node000002_Node000004" class="edge">
<title>Node2&#45;&gt;Node4</title>
<g id="a_edge3_Node000002_Node000004"><a xlink:title=" ">
<path fill="none" stroke="#63b8ff" d="M1085.2,-68.54C1089.91,-67.82 1094.58,-67.13 1099.12,-66.5 1246.57,-46.04 1289.15,-71.95 1432.12,-30.5 1433.09,-30.22 1434.06,-29.91 1435.04,-29.57"/>
<polygon fill="#63b8ff" stroke="#63b8ff" points="1436.01,-32.96 1443.87,-25.86 1433.3,-26.51 1436.01,-32.96"/>
</a>
</g>
</g>
<!-- Node5 -->
<g id="Node000005" class="node">
<title>Node5</title>
<g id="a_Node000005"><a xlink:title=" ">
<polygon fill="#e0e0e0" stroke="#999999" points="1560.62,-24.88 1499.62,-24.88 1499.62,-5.63 1560.62,-5.63 1560.62,-24.88"/>
<text text-anchor="middle" x="1530.12" y="-11.38" font-family="Helvetica,sans-Serif" font-size="10.00">type_traits</text>
</a>
</g>
</g>
<!-- Node2&#45;&gt;Node5 -->
<g id="edge4_Node000002_Node000005" class="edge">
<title>Node2&#45;&gt;Node5</title>
<g id="a_edge4_Node000002_Node000005"><a xlink:title=" ">
<path fill="none" stroke="#63b8ff" d="M1085.19,-68.45C1089.9,-67.75 1094.58,-67.09 1099.12,-66.5 1272.17,-43.89 1319.71,-68.08 1490.12,-30.5 1492.43,-29.99 1494.79,-29.39 1497.14,-28.72"/>
<polygon fill="#63b8ff" stroke="#63b8ff" points="1498.09,-32.09 1506.55,-25.71 1495.96,-25.42 1498.09,-32.09"/>
</a>
</g>
</g>
<!-- Node2&#45;&gt;Node6 -->
<g id="edge5_Node000002_Node000006" class="edge">
<title>Node2&#45;&gt;Node6</title>
<g id="a_edge5_Node000002_Node000006"><a xlink:title=" ">
<path fill="none" stroke="#63b8ff" d="M944.95,-81.08C794.19,-80.86 428.22,-75.46 113.88,-30.73"/>
<polygon fill="#63b8ff" stroke="#63b8ff" points="114.62,-27.3 104.22,-29.34 113.62,-34.23 114.62,-27.3"/>
</a>
</g>
</g>
<!-- Node2&#45;&gt;Node7 -->
<g id="edge6_Node000002_Node000007" class="edge">
<title>Node2&#45;&gt;Node7</title>
<g id="a_edge6_Node000002_Node000007"><a xlink:title=" ">
<path fill="none" stroke="#63b8ff" d="M944.92,-77.78C783.31,-70.69 387.73,-51.9 233.82,-30.69"/>
<polygon fill="#63b8ff" stroke="#63b8ff" points="234.62,-27.27 224.23,-29.31 233.62,-34.2 234.62,-27.27"/>
</a>
</g>
</g>
<!-- Node2&#45;&gt;Node8 -->
<g id="edge7_Node000002_Node000008" class="edge">
<title>Node2&#45;&gt;Node8</title>
<g id="a_edge7_Node000002_Node000008"><a xlink:title=" ">
<path fill="none" stroke="#63b8ff" d="M945.18,-75.23C911.08,-72.56 869.46,-69.33 832.12,-66.5 618.1,-50.31 559.57,-65.49 345.42,-30.87"/>
<polygon fill="#63b8ff" stroke="#63b8ff" points="346.04,-27.42 335.6,-29.26 344.91,-34.33 346.04,-27.42"/>
</a>
</g>
</g>
<!-- Node9 -->
<g id="Node000009" class="node">
<title>Node9</title>
<g id="a_Node000009"><a xlink:title=" ">
<polygon fill="#e0e0e0" stroke="#999999" points="1695.75,-24.88 1578.5,-24.88 1578.5,-5.63 1695.75,-5.63 1695.75,-24.88"/>
<text text-anchor="middle" x="1637.12" y="-11.38" font-family="Helvetica,sans-Serif" font-size="10.00">google/protobuf/arena.h</text>
</a>
</g>
</g>
<!-- Node2&#45;&gt;Node9 -->
<g id="edge8_Node000002_Node000009" class="edge">
<title>Node2&#45;&gt;Node9</title>
<g id="a_edge8_Node000002_Node000009"><a xlink:title=" ">
<path fill="none" stroke="#63b8ff" d="M1085.18,-68.37C1089.89,-67.69 1094.57,-67.06 1099.12,-66.5 1307.5,-40.92 1362.32,-60.4 1570.12,-30.5 1575.79,-29.68 1581.7,-28.67 1587.55,-27.56"/>
<polygon fill="#63b8ff" stroke="#63b8ff" points="1588.06,-31.03 1597.18,-25.64 1586.69,-24.17 1588.06,-31.03"/>
</a>
</g>
</g>
<!-- Node10 -->
<g id="Node000010" class="node">
<title>Node10</title>
<g id="a_Node000010"><a xlink:title=" ">
<polygon fill="#e0e0e0" stroke="#999999" points="492.75,-24.88 351.5,-24.88 351.5,-5.63 492.75,-5.63 492.75,-24.88"/>
<text text-anchor="middle" x="422.12" y="-11.38" font-family="Helvetica,sans-Serif" font-size="10.00">google/protobuf/arenastring.h</text>
</a>
</g>
</g>
<!-- Node2&#45;&gt;Node10 -->
<g id="edge9_Node000002_Node000010" class="edge">
<title>Node2&#45;&gt;Node10</title>
<g id="a_edge9_Node000002_Node000010"><a xlink:title=" ">
<path fill="none" stroke="#63b8ff" d="M944.8,-75.62C845.77,-68 659.7,-52.22 502.12,-30.5 495.15,-29.54 487.86,-28.41 480.64,-27.22"/>
<polygon fill="#63b8ff" stroke="#63b8ff" points="481.34,-23.79 470.9,-25.56 480.17,-30.69 481.34,-23.79"/>
</a>
</g>
</g>
<!-- Node11 -->
<g id="Node000011" class="node">
<title>Node11</title>
<g id="a_Node000011"><a xlink:title=" ">
<polygon fill="#e0e0e0" stroke="#999999" points="639.38,-30.5 510.88,-30.5 510.88,0 639.38,0 639.38,-30.5"/>
<text text-anchor="start" x="518.88" y="-17" font-family="Helvetica,sans-Serif" font-size="10.00">google/protobuf/generated</text>
<text text-anchor="middle" x="575.12" y="-5.75" font-family="Helvetica,sans-Serif" font-size="10.00">_message_tctable_decl.h</text>
</a>
</g>
</g>
<!-- Node2&#45;&gt;Node11 -->
<g id="edge10_Node000002_Node000011" class="edge">
<title>Node2&#45;&gt;Node11</title>
<g id="a_edge10_Node000002_Node000011"><a xlink:title=" ">
<path fill="none" stroke="#63b8ff" d="M944.79,-72.23C873.43,-63.34 759.52,-48.43 650.84,-30.72"/>
<polygon fill="#63b8ff" stroke="#63b8ff" points="651.59,-27.3 641.16,-29.13 650.46,-34.21 651.59,-27.3"/>
</a>
</g>
</g>
<!-- Node12 -->
<g id="Node000012" class="node">
<title>Node12</title>
<g id="a_Node000012"><a xlink:title=" ">
<polygon fill="#e0e0e0" stroke="#999999" points="786.38,-30.5 657.88,-30.5 657.88,0 786.38,0 786.38,-30.5"/>
<text text-anchor="start" x="665.88" y="-17" font-family="Helvetica,sans-Serif" font-size="10.00">google/protobuf/generated</text>
<text text-anchor="middle" x="722.12" y="-5.75" font-family="Helvetica,sans-Serif" font-size="10.00">_message_util.h</text>
</a>
</g>
</g>
<!-- Node2&#45;&gt;Node12 -->
<g id="edge11_Node000002_Node000012" class="edge">
<title>Node2&#45;&gt;Node12</title>
<g id="a_edge11_Node000002_Node000012"><a xlink:title=" ">
<path fill="none" stroke="#63b8ff" d="M948.27,-66.03C903.49,-56.18 844.44,-43.18 797.92,-32.93"/>
<polygon fill="#63b8ff" stroke="#63b8ff" points="798.67,-29.52 788.15,-30.79 797.17,-36.35 798.67,-29.52"/>
</a>
</g>
</g>
<!-- Node13 -->
<g id="Node000013" class="node">
<title>Node13</title>
<g id="a_Node000013"><a xlink:title=" ">
<polygon fill="#e0e0e0" stroke="#999999" points="930.25,-30.5 804,-30.5 804,0 930.25,0 930.25,-30.5"/>
<text text-anchor="start" x="812" y="-17" font-family="Helvetica,sans-Serif" font-size="10.00">google/protobuf/metadata</text>
<text text-anchor="middle" x="867.12" y="-5.75" font-family="Helvetica,sans-Serif" font-size="10.00">_lite.h</text>
</a>
</g>
</g>
<!-- Node2&#45;&gt;Node13 -->
<g id="edge12_Node000002_Node000013" class="edge">
<title>Node2&#45;&gt;Node13</title>
<g id="a_edge12_Node000002_Node000013"><a xlink:title=" ">
<path fill="none" stroke="#63b8ff" d="M981.54,-66.11C960.71,-57.03 933.7,-45.27 911.16,-35.44"/>
<polygon fill="#63b8ff" stroke="#63b8ff" points="912.78,-32.33 902.22,-31.54 909.99,-38.75 912.78,-32.33"/>
</a>
</g>
</g>
<!-- Node2&#45;&gt;Node14 -->
<g id="edge13_Node000002_Node000014" class="edge">
<title>Node2&#45;&gt;Node14</title>
<g id="a_edge13_Node000002_Node000014"><a xlink:title=" ">
<path fill="none" stroke="#63b8ff" d="M1085.17,-68.28C1089.88,-67.62 1094.57,-67.02 1099.12,-66.5 1363.53,-36.31 1435.5,-63.65 1702.5,-30.71"/>
<polygon fill="#63b8ff" stroke="#63b8ff" points="1702.72,-34.21 1712.21,-29.5 1701.85,-27.27 1702.72,-34.21"/>
</a>
</g>
</g>
<!-- Node15 -->
<g id="Node000015" class="node">
<title>Node15</title>
<g id="a_Node000015"><a xlink:title=" ">
<polygon fill="#e0e0e0" stroke="#999999" points="1081.62,-24.88 948.62,-24.88 948.62,-5.63 1081.62,-5.63 1081.62,-24.88"/>
<text text-anchor="middle" x="1015.12" y="-11.38" font-family="Helvetica,sans-Serif" font-size="10.00">google/protobuf/message.h</text>
</a>
</g>
</g>
<!-- Node2&#45;&gt;Node15 -->
<g id="edge14_Node000002_Node000015" class="edge">
<title>Node2&#45;&gt;Node15</title>
<g id="a_edge14_Node000002_Node000015"><a xlink:title=" ">
<path fill="none" stroke="#63b8ff" d="M1015.12,-66.11C1015.12,-57.33 1015.12,-46.02 1015.12,-36.4"/>
<polygon fill="#63b8ff" stroke="#63b8ff" points="1018.63,-36.59 1015.13,-26.59 1011.63,-36.59 1018.63,-36.59"/>
</a>
</g>
</g>
<!-- Node16 -->
<g id="Node000016" class="node">
<title>Node16</title>
<g id="a_Node000016"><a xlink:title=" ">
<polygon fill="#e0e0e0" stroke="#999999" points="1222.75,-30.5 1099.5,-30.5 1099.5,0 1222.75,0 1222.75,-30.5"/>
<text text-anchor="start" x="1107.5" y="-17" font-family="Helvetica,sans-Serif" font-size="10.00">google/protobuf/repeated</text>
<text text-anchor="middle" x="1161.12" y="-5.75" font-family="Helvetica,sans-Serif" font-size="10.00">_field.h</text>
</a>
</g>
</g>
<!-- Node2&#45;&gt;Node16 -->
<g id="edge15_Node000002_Node000016" class="edge">
<title>Node2&#45;&gt;Node16</title>
<g id="a_edge15_Node000002_Node000016"><a xlink:title=" ">
<path fill="none" stroke="#63b8ff" d="M1048.25,-66.11C1068.72,-57.07 1095.21,-45.37 1117.38,-35.58"/>
<polygon fill="#63b8ff" stroke="#63b8ff" points="1118.76,-38.79 1126.49,-31.55 1115.93,-32.39 1118.76,-38.79"/>
</a>
</g>
</g>
<!-- Node2&#45;&gt;Node17 -->
<g id="edge16_Node000002_Node000017" class="edge">
<title>Node2&#45;&gt;Node17</title>
<g id="a_edge16_Node000002_Node000017"><a xlink:title=" ">
<path fill="none" stroke="#63b8ff" d="M1085.37,-71.74C1102.29,-69.8 1120.34,-67.9 1137.12,-66.5 1450.05,-40.36 1533.78,-68.36 1849.19,-30.59"/>
<polygon fill="#63b8ff" stroke="#63b8ff" points="1849.5,-34.08 1859.01,-29.4 1848.66,-27.13 1849.5,-34.08"/>
</a>
</g>
</g>
<!-- Node18 -->
<g id="Node000018" class="node">
<title>Node18</title>
<g id="a_Node000018"><a xlink:title=" ">
<polygon fill="#e0e0e0" stroke="#999999" points="1365.5,-30.5 1240.75,-30.5 1240.75,0 1365.5,0 1365.5,-30.5"/>
<text text-anchor="start" x="1248.75" y="-17" font-family="Helvetica,sans-Serif" font-size="10.00">google/protobuf/unknown</text>
<text text-anchor="middle" x="1303.12" y="-5.75" font-family="Helvetica,sans-Serif" font-size="10.00">_field_set.h</text>
</a>
</g>
</g>
<!-- Node2&#45;&gt;Node18 -->
<g id="edge17_Node000002_Node000018" class="edge">
<title>Node2&#45;&gt;Node18</title>
<g id="a_edge17_Node000002_Node000018"><a xlink:title=" ">
<path fill="none" stroke="#63b8ff" d="M1080.84,-66.03C1125.16,-56.11 1183.7,-43 1229.58,-32.72"/>
<polygon fill="#63b8ff" stroke="#63b8ff" points="1230.19,-36.17 1239.18,-30.57 1228.66,-29.34 1230.19,-36.17"/>
</a>
</g>
</g>
</g>
</svg>
