<?xml version="1.0" encoding="UTF-8" standalone="no"?>
<!DOCTYPE svg PUBLIC "-//W3C//DTD SVG 1.1//EN"
 "http://www.w3.org/Graphics/SVG/1.1/DTD/svg11.dtd">
<!-- Generated by graphviz version 9.0.0 (20230911.1827)
 -->
<!-- Title: /github/workspace/dev_area/sourcecode/timing/include/timing/EndpointDesign.hpp Pages: 1 -->
<svg width="409pt" height="205pt"
 viewBox="0.00 0.00 409.12 205.25" xmlns="http://www.w3.org/2000/svg" xmlns:xlink="http://www.w3.org/1999/xlink">
<g id="graph0" class="graph" transform="scale(1 1) rotate(0) translate(4 201.25)">
<title>/github/workspace/dev_area/sourcecode/timing/include/timing/EndpointDesign.hpp</title>
<!-- Node1 -->
<g id="Node000001" class="node">
<title>Node1</title>
<g id="a_Node000001"><a xlink:title=" ">
<polygon fill="#999999" stroke="#666666" points="261.62,-197.25 94.12,-197.25 94.12,-155.5 261.62,-155.5 261.62,-197.25"/>
<text text-anchor="start" x="102.12" y="-183.75" font-family="Helvetica,sans-Serif" font-size="10.00">/github/workspace/dev</text>
<text text-anchor="start" x="102.12" y="-172.5" font-family="Helvetica,sans-Serif" font-size="10.00">_area/sourcecode/timing</text>
<text text-anchor="middle" x="177.88" y="-161.25" font-family="Helvetica,sans-Serif" font-size="10.00">/include/timing/EndpointDesign.hpp</text>
</a>
</g>
</g>
<!-- Node2 -->
<g id="Node000002" class="node">
<title>Node2</title>
<g id="a_Node000002"><a xlink:href="ChronosDesign_8hpp.html" target="_top" xlink:title=" ">
<polygon fill="white" stroke="#666666" points="260.88,-119.5 94.88,-119.5 94.88,-77.75 260.88,-77.75 260.88,-119.5"/>
<text text-anchor="start" x="102.88" y="-106" font-family="Helvetica,sans-Serif" font-size="10.00">/github/workspace/dev</text>
<text text-anchor="start" x="102.88" y="-94.75" font-family="Helvetica,sans-Serif" font-size="10.00">_area/sourcecode/timing</text>
<text text-anchor="middle" x="177.88" y="-83.5" font-family="Helvetica,sans-Serif" font-size="10.00">/include/timing/ChronosDesign.hpp</text>
</a>
</g>
</g>
<!-- Node1&#45;&gt;Node2 -->
<g id="edge1_Node000001_Node000002" class="edge">
<title>Node1&#45;&gt;Node2</title>
<g id="a_edge1_Node000001_Node000002"><a xlink:title=" ">
<path fill="none" stroke="#63b8ff" d="M177.88,-143.75C177.88,-135.71 177.88,-127.29 177.88,-119.98"/>
<polygon fill="#63b8ff" stroke="#63b8ff" points="174.38,-143.56 177.88,-153.56 181.38,-143.56 174.38,-143.56"/>
</a>
</g>
</g>
<!-- Node3 -->
<g id="Node000003" class="node">
<title>Node3</title>
<g id="a_Node000003"><a xlink:href="top__designs_8cpp.html" target="_top" xlink:title=" ">
<polygon fill="white" stroke="#666666" points="133.75,-41.75 0,-41.75 0,0 133.75,0 133.75,-41.75"/>
<text text-anchor="start" x="8" y="-28.25" font-family="Helvetica,sans-Serif" font-size="10.00">/github/workspace/dev</text>
<text text-anchor="start" x="8" y="-17" font-family="Helvetica,sans-Serif" font-size="10.00">_area/sourcecode/timing</text>
<text text-anchor="middle" x="66.88" y="-5.75" font-family="Helvetica,sans-Serif" font-size="10.00">/pybindsrc/top_designs.cpp</text>
</a>
</g>
</g>
<!-- Node1&#45;&gt;Node3 -->
<g id="edge4_Node000001_Node000003" class="edge">
<title>Node1&#45;&gt;Node3</title>
<g id="a_edge4_Node000001_Node000003"><a xlink:title=" ">
<path fill="none" stroke="#63b8ff" d="M118.8,-149.52C106.27,-141.54 94.3,-131.6 85.88,-119.5 69.78,-96.41 66.48,-63.14 66.2,-42.02"/>
<polygon fill="#63b8ff" stroke="#63b8ff" points="116.76,-152.37 127.14,-154.46 120.33,-146.35 116.76,-152.37"/>
</a>
</g>
</g>
<!-- Node5 -->
<g id="Node000005" class="node">
<title>Node5</title>
<g id="a_Node000005"><a xlink:href="EndpointDesign_8cpp.html" target="_top" xlink:title=" ">
<polygon fill="white" stroke="#666666" points="401.12,-119.5 278.62,-119.5 278.62,-77.75 401.12,-77.75 401.12,-119.5"/>
<text text-anchor="start" x="286.62" y="-106" font-family="Helvetica,sans-Serif" font-size="10.00">/github/workspace/dev</text>
<text text-anchor="start" x="286.62" y="-94.75" font-family="Helvetica,sans-Serif" font-size="10.00">_area/sourcecode/timing</text>
<text text-anchor="middle" x="339.88" y="-83.5" font-family="Helvetica,sans-Serif" font-size="10.00">/src/EndpointDesign.cpp</text>
</a>
</g>
</g>
<!-- Node1&#45;&gt;Node5 -->
<g id="edge5_Node000001_Node000005" class="edge">
<title>Node1&#45;&gt;Node5</title>
<g id="a_edge5_Node000001_Node000005"><a xlink:title=" ">
<path fill="none" stroke="#63b8ff" d="M231.67,-150.22C252.67,-140.4 276.44,-129.29 296.34,-119.98"/>
<polygon fill="#63b8ff" stroke="#63b8ff" points="230.24,-147.03 222.66,-154.43 233.2,-153.37 230.24,-147.03"/>
</a>
</g>
</g>
<!-- Node2&#45;&gt;Node3 -->
<g id="edge2_Node000002_Node000003" class="edge">
<title>Node2&#45;&gt;Node3</title>
<g id="a_edge2_Node000002_Node000003"><a xlink:title=" ">
<path fill="none" stroke="#63b8ff" d="M138.84,-70.98C124.99,-61.54 109.65,-51.07 96.7,-42.23"/>
<polygon fill="#63b8ff" stroke="#63b8ff" points="136.65,-73.73 146.88,-76.47 140.59,-67.94 136.65,-73.73"/>
</a>
</g>
</g>
<!-- Node4 -->
<g id="Node000004" class="node">
<title>Node4</title>
<g id="a_Node000004"><a xlink:href="ChronosDesign_8cpp.html" target="_top" xlink:title=" ">
<polygon fill="white" stroke="#666666" points="274.12,-41.75 151.62,-41.75 151.62,0 274.12,0 274.12,-41.75"/>
<text text-anchor="start" x="159.62" y="-28.25" font-family="Helvetica,sans-Serif" font-size="10.00">/github/workspace/dev</text>
<text text-anchor="start" x="159.62" y="-17" font-family="Helvetica,sans-Serif" font-size="10.00">_area/sourcecode/timing</text>
<text text-anchor="middle" x="212.88" y="-5.75" font-family="Helvetica,sans-Serif" font-size="10.00">/src/ChronosDesign.cpp</text>
</a>
</g>
</g>
<!-- Node2&#45;&gt;Node4 -->
<g id="edge3_Node000002_Node000004" class="edge">
<title>Node2&#45;&gt;Node4</title>
<g id="a_edge3_Node000002_Node000004"><a xlink:title=" ">
<path fill="none" stroke="#63b8ff" d="M191.97,-67.12C195.84,-58.75 199.94,-49.88 203.47,-42.23"/>
<polygon fill="#63b8ff" stroke="#63b8ff" points="188.91,-65.41 187.89,-75.95 195.26,-68.34 188.91,-65.41"/>
</a>
</g>
</g>
</g>
</svg>
