<?xml version="1.0" encoding="UTF-8" standalone="no"?>
<!DOCTYPE svg PUBLIC "-//W3C//DTD SVG 1.1//EN"
 "http://www.w3.org/Graphics/SVG/1.1/DTD/svg11.dtd">
<!-- Generated by graphviz version 9.0.0 (20230911.1827)
 -->
<!-- Title: /github/workspace/dev_area/sourcecode/okssystem/include/okssystem/Environment.hpp Pages: 1 -->
<svg width="183pt" height="105pt"
 viewBox="0.00 0.00 183.00 105.00" xmlns="http://www.w3.org/2000/svg" xmlns:xlink="http://www.w3.org/1999/xlink">
<g id="graph0" class="graph" transform="scale(1 1) rotate(0) translate(4 101)">
<title>/github/workspace/dev_area/sourcecode/okssystem/include/okssystem/Environment.hpp</title>
<!-- Node1 -->
<g id="Node000001" class="node">
<title>Node1</title>
<g id="a_Node000001"><a xlink:title=" ">
<polygon fill="#999999" stroke="#666666" points="175,-97 0,-97 0,-55.25 175,-55.25 175,-97"/>
<text text-anchor="start" x="8" y="-83.5" font-family="Helvetica,sans-Serif" font-size="10.00">/github/workspace/dev</text>
<text text-anchor="start" x="8" y="-72.25" font-family="Helvetica,sans-Serif" font-size="10.00">_area/sourcecode/okssystem</text>
<text text-anchor="middle" x="87.5" y="-61" font-family="Helvetica,sans-Serif" font-size="10.00">/include/okssystem/Environment.hpp</text>
</a>
</g>
</g>
<!-- Node2 -->
<g id="Node000002" class="node">
<title>Node2</title>
<g id="a_Node000002"><a xlink:title=" ">
<polygon fill="#e0e0e0" stroke="#999999" points="80.5,-19.25 40.5,-19.25 40.5,0 80.5,0 80.5,-19.25"/>
<text text-anchor="middle" x="60.5" y="-5.75" font-family="Helvetica,sans-Serif" font-size="10.00">string</text>
</a>
</g>
</g>
<!-- Node1&#45;&gt;Node2 -->
<g id="edge1_Node000001_Node000002" class="edge">
<title>Node1&#45;&gt;Node2</title>
<g id="a_edge1_Node000001_Node000002"><a xlink:title=" ">
<path fill="none" stroke="#63b8ff" d="M79.11,-55.07C75.78,-47.12 71.96,-38.01 68.66,-30.11"/>
<polygon fill="#63b8ff" stroke="#63b8ff" points="71.97,-28.96 64.88,-21.09 65.51,-31.67 71.97,-28.96"/>
</a>
</g>
</g>
<!-- Node3 -->
<g id="Node000003" class="node">
<title>Node3</title>
<g id="a_Node000003"><a xlink:title=" ">
<polygon fill="#e0e0e0" stroke="#999999" points="132.88,-19.25 98.12,-19.25 98.12,0 132.88,0 132.88,-19.25"/>
<text text-anchor="middle" x="115.5" y="-5.75" font-family="Helvetica,sans-Serif" font-size="10.00">map</text>
</a>
</g>
</g>
<!-- Node1&#45;&gt;Node3 -->
<g id="edge2_Node000001_Node000003" class="edge">
<title>Node1&#45;&gt;Node3</title>
<g id="a_edge2_Node000001_Node000003"><a xlink:title=" ">
<path fill="none" stroke="#63b8ff" d="M96.21,-55.07C99.66,-47.12 103.61,-38.01 107.04,-30.11"/>
<polygon fill="#63b8ff" stroke="#63b8ff" points="110.19,-31.65 110.96,-21.08 103.77,-28.86 110.19,-31.65"/>
</a>
</g>
</g>
</g>
</svg>
