<?xml version="1.0" encoding="UTF-8" standalone="no"?>
<!DOCTYPE svg PUBLIC "-//W3C//DTD SVG 1.1//EN"
 "http://www.w3.org/Graphics/SVG/1.1/DTD/svg11.dtd">
<!-- Generated by graphviz version 9.0.0 (20230911.1827)
 -->
<!-- Title: /github/workspace/dev_area/sourcecode/okssystem/src/Environment.cpp Pages: 1 -->
<svg width="1807pt" height="404pt"
 viewBox="0.00 0.00 1806.84 403.75" xmlns="http://www.w3.org/2000/svg" xmlns:xlink="http://www.w3.org/1999/xlink">
<g id="graph0" class="graph" transform="scale(1 1) rotate(0) translate(4 399.75)">
<title>/github/workspace/dev_area/sourcecode/okssystem/src/Environment.cpp</title>
<!-- Node1 -->
<g id="Node000001" class="node">
<title>Node1</title>
<g id="a_Node000001"><a xlink:title=" ">
<polygon fill="#999999" stroke="#666666" points="202.12,-395.75 58.62,-395.75 58.62,-354 202.12,-354 202.12,-395.75"/>
<text text-anchor="start" x="66.62" y="-382.25" font-family="Helvetica,sans-Serif" font-size="10.00">/github/workspace/dev</text>
<text text-anchor="start" x="66.62" y="-371" font-family="Helvetica,sans-Serif" font-size="10.00">_area/sourcecode/okssystem</text>
<text text-anchor="middle" x="130.38" y="-359.75" font-family="Helvetica,sans-Serif" font-size="10.00">/src/Environment.cpp</text>
</a>
</g>
</g>
<!-- Node2 -->
<g id="Node000002" class="node">
<title>Node2</title>
<g id="a_Node000002"><a xlink:title=" ">
<polygon fill="#e0e0e0" stroke="#999999" points="46.75,-318 0,-318 0,-298.75 46.75,-298.75 46.75,-318"/>
<text text-anchor="middle" x="23.38" y="-304.5" font-family="Helvetica,sans-Serif" font-size="10.00">stdlib.h</text>
</a>
</g>
</g>
<!-- Node1&#45;&gt;Node2 -->
<g id="edge1_Node000001_Node000002" class="edge">
<title>Node1&#45;&gt;Node2</title>
<g id="a_edge1_Node000001_Node000002"><a xlink:title=" ">
<path fill="none" stroke="#63b8ff" d="M96.81,-353.64C81.03,-344.13 62.55,-332.99 48.07,-324.26"/>
<polygon fill="#63b8ff" stroke="#63b8ff" points="50,-321.34 39.63,-319.18 46.39,-327.34 50,-321.34"/>
</a>
</g>
</g>
<!-- Node3 -->
<g id="Node000003" class="node">
<title>Node3</title>
<g id="a_Node000003"><a xlink:href="Environment_8hpp.html" target="_top" xlink:title=" ">
<polygon fill="white" stroke="#666666" points="266.5,-201.88 128.25,-201.88 128.25,-182.62 266.5,-182.62 266.5,-201.88"/>
<text text-anchor="middle" x="197.38" y="-188.38" font-family="Helvetica,sans-Serif" font-size="10.00">okssystem/Environment.hpp</text>
</a>
</g>
</g>
<!-- Node1&#45;&gt;Node3 -->
<g id="edge2_Node000001_Node000003" class="edge">
<title>Node1&#45;&gt;Node3</title>
<g id="a_edge2_Node000001_Node000003"><a xlink:title=" ">
<path fill="none" stroke="#63b8ff" d="M170.16,-353.76C183.56,-344.79 196.98,-332.84 204.38,-318 221.16,-284.29 211.96,-238.94 204.3,-213.23"/>
<polygon fill="#63b8ff" stroke="#63b8ff" points="207.65,-212.21 201.25,-203.77 200.99,-214.36 207.65,-212.21"/>
</a>
</g>
</g>
<!-- Node6 -->
<g id="Node000006" class="node">
<title>Node6</title>
<g id="a_Node000006"><a xlink:href="ystem_2include_2okssystem_2exceptions_8hpp.html" target="_top" xlink:title=" ">
<polygon fill="white" stroke="#666666" points="195.75,-318 65,-318 65,-298.75 195.75,-298.75 195.75,-318"/>
<text text-anchor="middle" x="130.38" y="-304.5" font-family="Helvetica,sans-Serif" font-size="10.00">okssystem/exceptions.hpp</text>
</a>
</g>
</g>
<!-- Node1&#45;&gt;Node6 -->
<g id="edge5_Node000001_Node000006" class="edge">
<title>Node1&#45;&gt;Node6</title>
<g id="a_edge5_Node000001_Node000006"><a xlink:title=" ">
<path fill="none" stroke="#63b8ff" d="M130.38,-353.82C130.38,-346.15 130.38,-337.39 130.38,-329.7"/>
<polygon fill="#63b8ff" stroke="#63b8ff" points="133.88,-329.96 130.38,-319.96 126.88,-329.96 133.88,-329.96"/>
</a>
</g>
</g>
<!-- Node4 -->
<g id="Node000004" class="node">
<title>Node4</title>
<g id="a_Node000004"><a xlink:title=" ">
<polygon fill="#e0e0e0" stroke="#999999" points="513.38,-74.5 473.38,-74.5 473.38,-55.25 513.38,-55.25 513.38,-74.5"/>
<text text-anchor="middle" x="493.38" y="-61" font-family="Helvetica,sans-Serif" font-size="10.00">string</text>
</a>
</g>
</g>
<!-- Node3&#45;&gt;Node4 -->
<g id="edge3_Node000003_Node000004" class="edge">
<title>Node3&#45;&gt;Node4</title>
<g id="a_edge3_Node000003_Node000004"><a xlink:title=" ">
<path fill="none" stroke="#63b8ff" d="M199.51,-182.25C204.06,-165.25 216.36,-128.49 241.38,-110.5 276.22,-85.44 401.98,-72.79 461.6,-68.09"/>
<polygon fill="#63b8ff" stroke="#63b8ff" points="461.71,-71.59 471.42,-67.34 461.19,-64.61 461.71,-71.59"/>
</a>
</g>
</g>
<!-- Node5 -->
<g id="Node000005" class="node">
<title>Node5</title>
<g id="a_Node000005"><a xlink:title=" ">
<polygon fill="#e0e0e0" stroke="#999999" points="284.75,-135.38 250,-135.38 250,-116.12 284.75,-116.12 284.75,-135.38"/>
<text text-anchor="middle" x="267.38" y="-121.88" font-family="Helvetica,sans-Serif" font-size="10.00">map</text>
</a>
</g>
</g>
<!-- Node3&#45;&gt;Node5 -->
<g id="edge4_Node000003_Node000005" class="edge">
<title>Node3&#45;&gt;Node5</title>
<g id="a_edge4_Node000003_Node000005"><a xlink:title=" ">
<path fill="none" stroke="#63b8ff" d="M207.11,-182.28C218.08,-172.17 236.14,-155.53 249.64,-143.1"/>
<polygon fill="#63b8ff" stroke="#63b8ff" points="251.63,-146.02 256.61,-136.67 246.89,-140.87 251.63,-146.02"/>
</a>
</g>
</g>
<!-- Node6&#45;&gt;Node4 -->
<g id="edge43_Node000006_Node000004" class="edge">
<title>Node6&#45;&gt;Node4</title>
<g id="a_edge43_Node000006_Node000004"><a xlink:title=" ">
<path fill="none" stroke="#63b8ff" d="M126.57,-298.52C117.75,-276.53 98.18,-218.21 119.38,-177 142.61,-131.81 165.36,-129.78 212.38,-110.5 297.81,-75.47 408.31,-67.8 461.71,-66.22"/>
<polygon fill="#63b8ff" stroke="#63b8ff" points="461.68,-69.72 471.6,-65.98 461.52,-62.72 461.68,-69.72"/>
</a>
</g>
</g>
<!-- Node7 -->
<g id="Node000007" class="node">
<title>Node7</title>
<g id="a_Node000007"><a xlink:href="Issue_8hpp.html" target="_top" xlink:title=" ">
<polygon fill="white" stroke="#666666" points="652.62,-262.75 578.12,-262.75 578.12,-243.5 652.62,-243.5 652.62,-262.75"/>
<text text-anchor="middle" x="615.38" y="-249.25" font-family="Helvetica,sans-Serif" font-size="10.00">ers/Issue.hpp</text>
</a>
</g>
</g>
<!-- Node6&#45;&gt;Node7 -->
<g id="edge6_Node000006_Node000007" class="edge">
<title>Node6&#45;&gt;Node7</title>
<g id="a_edge6_Node000006_Node000007"><a xlink:title=" ">
<path fill="none" stroke="#63b8ff" d="M196.04,-300.17C294.73,-289.33 479.06,-269.09 566.69,-259.47"/>
<polygon fill="#63b8ff" stroke="#63b8ff" points="566.83,-262.98 576.39,-258.41 566.07,-256.02 566.83,-262.98"/>
</a>
</g>
</g>
<!-- Node31 -->
<g id="Node000031" class="node">
<title>Node31</title>
<g id="a_Node000031"><a xlink:title=" ">
<polygon fill="#e0e0e0" stroke="#999999" points="174,-262.75 128.75,-262.75 128.75,-243.5 174,-243.5 174,-262.75"/>
<text text-anchor="middle" x="151.38" y="-249.25" font-family="Helvetica,sans-Serif" font-size="10.00">errno.h</text>
</a>
</g>
</g>
<!-- Node6&#45;&gt;Node31 -->
<g id="edge42_Node000006_Node000031" class="edge">
<title>Node6&#45;&gt;Node31</title>
<g id="a_edge42_Node000006_Node000031"><a xlink:title=" ">
<path fill="none" stroke="#63b8ff" d="M133.84,-298.58C136.5,-291.84 140.27,-282.27 143.64,-273.74"/>
<polygon fill="#63b8ff" stroke="#63b8ff" points="146.86,-275.1 147.28,-264.52 140.35,-272.54 146.86,-275.1"/>
</a>
</g>
</g>
<!-- Node7&#45;&gt;Node4 -->
<g id="edge11_Node000007_Node000004" class="edge">
<title>Node7&#45;&gt;Node4</title>
<g id="a_edge11_Node000007_Node000004"><a xlink:title=" ">
<path fill="none" stroke="#63b8ff" d="M577.82,-250.3C519.85,-246.6 412.8,-236 389.38,-207.5 352.86,-163.07 426.53,-107.27 467.9,-80.95"/>
<polygon fill="#63b8ff" stroke="#63b8ff" points="469.69,-83.95 476.35,-75.71 466,-78 469.69,-83.95"/>
</a>
</g>
</g>
<!-- Node7&#45;&gt;Node5 -->
<g id="edge10_Node000007_Node000005" class="edge">
<title>Node7&#45;&gt;Node5</title>
<g id="a_edge10_Node000007_Node000005"><a xlink:title=" ">
<path fill="none" stroke="#63b8ff" d="M577.86,-249.56C510.78,-244.42 373.49,-231.3 332.38,-207.5 307.25,-192.95 287.97,-164.67 277.16,-145.74"/>
<polygon fill="#63b8ff" stroke="#63b8ff" points="280.36,-144.3 272.51,-137.18 274.21,-147.64 280.36,-144.3"/>
</a>
</g>
</g>
<!-- Node8 -->
<g id="Node000008" class="node">
<title>Node8</title>
<g id="a_Node000008"><a xlink:title=" ">
<polygon fill="#e0e0e0" stroke="#999999" points="444,-201.88 398.75,-201.88 398.75,-182.62 444,-182.62 444,-201.88"/>
<text text-anchor="middle" x="421.38" y="-188.38" font-family="Helvetica,sans-Serif" font-size="10.00">math.h</text>
</a>
</g>
</g>
<!-- Node7&#45;&gt;Node8 -->
<g id="edge7_Node000007_Node000008" class="edge">
<title>Node7&#45;&gt;Node8</title>
<g id="a_edge7_Node000007_Node000008"><a xlink:title=" ">
<path fill="none" stroke="#63b8ff" d="M577.89,-243.5C544.73,-235.46 495.26,-222.5 453.38,-207.5 452.58,-207.22 451.78,-206.92 450.97,-206.62"/>
<polygon fill="#63b8ff" stroke="#63b8ff" points="452.46,-203.44 441.88,-202.89 449.8,-209.92 452.46,-203.44"/>
</a>
</g>
</g>
<!-- Node9 -->
<g id="Node000009" class="node">
<title>Node9</title>
<g id="a_Node000009"><a xlink:title=" ">
<polygon fill="#e0e0e0" stroke="#999999" points="506.62,-201.88 462.12,-201.88 462.12,-182.62 506.62,-182.62 506.62,-201.88"/>
<text text-anchor="middle" x="484.38" y="-188.38" font-family="Helvetica,sans-Serif" font-size="10.00">stdio.h</text>
</a>
</g>
</g>
<!-- Node7&#45;&gt;Node9 -->
<g id="edge8_Node000007_Node000009" class="edge">
<title>Node7&#45;&gt;Node9</title>
<g id="a_edge8_Node000007_Node000009"><a xlink:title=" ">
<path fill="none" stroke="#63b8ff" d="M595.04,-243.13C574.82,-234.17 542.91,-219.97 515.38,-207.5 515.03,-207.34 514.68,-207.19 514.34,-207.03"/>
<polygon fill="#63b8ff" stroke="#63b8ff" points="515.97,-203.93 505.42,-202.96 513.06,-210.29 515.97,-203.93"/>
</a>
</g>
</g>
<!-- Node10 -->
<g id="Node000010" class="node">
<title>Node10</title>
<g id="a_Node000010"><a xlink:title=" ">
<polygon fill="#e0e0e0" stroke="#999999" points="572.12,-201.88 524.62,-201.88 524.62,-182.62 572.12,-182.62 572.12,-201.88"/>
<text text-anchor="middle" x="548.38" y="-188.38" font-family="Helvetica,sans-Serif" font-size="10.00">string.h</text>
</a>
</g>
</g>
<!-- Node7&#45;&gt;Node10 -->
<g id="edge9_Node000007_Node000010" class="edge">
<title>Node7&#45;&gt;Node10</title>
<g id="a_edge9_Node000007_Node000010"><a xlink:title=" ">
<path fill="none" stroke="#63b8ff" d="M605.2,-243.18C595.16,-234.37 579.59,-220.68 567.28,-209.86"/>
<polygon fill="#63b8ff" stroke="#63b8ff" points="569.61,-207.25 559.78,-203.28 564.99,-212.51 569.61,-207.25"/>
</a>
</g>
</g>
<!-- Node11 -->
<g id="Node000011" class="node">
<title>Node11</title>
<g id="a_Node000011"><a xlink:title=" ">
<polygon fill="#e0e0e0" stroke="#999999" points="1063.12,-19.25 1009.62,-19.25 1009.62,0 1063.12,0 1063.12,-19.25"/>
<text text-anchor="middle" x="1036.38" y="-5.75" font-family="Helvetica,sans-Serif" font-size="10.00">iostream</text>
</a>
</g>
</g>
<!-- Node7&#45;&gt;Node11 -->
<g id="edge12_Node000007_Node000011" class="edge">
<title>Node7&#45;&gt;Node11</title>
<g id="a_edge12_Node000007_Node000011"><a xlink:title=" ">
<path fill="none" stroke="#63b8ff" d="M653.04,-251.65C845.79,-248.82 1715.59,-231.08 1789.38,-141 1883.23,-26.42 1240.57,-12.53 1074.74,-10.85"/>
<polygon fill="#63b8ff" stroke="#63b8ff" points="1074.97,-7.36 1064.94,-10.77 1074.9,-14.36 1074.97,-7.36"/>
</a>
</g>
</g>
<!-- Node12 -->
<g id="Node000012" class="node">
<title>Node12</title>
<g id="a_Node000012"><a xlink:title=" ">
<polygon fill="#e0e0e0" stroke="#999999" points="641,-201.88 589.75,-201.88 589.75,-182.62 641,-182.62 641,-201.88"/>
<text text-anchor="middle" x="615.38" y="-188.38" font-family="Helvetica,sans-Serif" font-size="10.00">sstream</text>
</a>
</g>
</g>
<!-- Node7&#45;&gt;Node12 -->
<g id="edge13_Node000007_Node000012" class="edge">
<title>Node7&#45;&gt;Node12</title>
<g id="a_edge13_Node000007_Node000012"><a xlink:title=" ">
<path fill="none" stroke="#63b8ff" d="M615.38,-243.18C615.38,-235.4 615.38,-223.83 615.38,-213.78"/>
<polygon fill="#63b8ff" stroke="#63b8ff" points="618.88,-213.79 615.38,-203.79 611.88,-213.79 618.88,-213.79"/>
</a>
</g>
</g>
<!-- Node13 -->
<g id="Node000013" class="node">
<title>Node13</title>
<g id="a_Node000013"><a xlink:title=" ">
<polygon fill="#e0e0e0" stroke="#999999" points="709.62,-201.88 659.12,-201.88 659.12,-182.62 709.62,-182.62 709.62,-201.88"/>
<text text-anchor="middle" x="684.38" y="-188.38" font-family="Helvetica,sans-Serif" font-size="10.00">memory</text>
</a>
</g>
</g>
<!-- Node7&#45;&gt;Node13 -->
<g id="edge14_Node000007_Node000013" class="edge">
<title>Node7&#45;&gt;Node13</title>
<g id="a_edge14_Node000007_Node000013"><a xlink:title=" ">
<path fill="none" stroke="#63b8ff" d="M625.85,-243.18C636.29,-234.28 652.55,-220.41 665.28,-209.54"/>
<polygon fill="#63b8ff" stroke="#63b8ff" points="667.31,-212.41 672.65,-203.26 662.77,-207.09 667.31,-212.41"/>
</a>
</g>
</g>
<!-- Node14 -->
<g id="Node000014" class="node">
<title>Node14</title>
<g id="a_Node000014"><a xlink:title=" ">
<polygon fill="#e0e0e0" stroke="#999999" points="348,-135.38 302.75,-135.38 302.75,-116.12 348,-116.12 348,-135.38"/>
<text text-anchor="middle" x="325.38" y="-121.88" font-family="Helvetica,sans-Serif" font-size="10.00">chrono</text>
</a>
</g>
</g>
<!-- Node7&#45;&gt;Node14 -->
<g id="edge15_Node000007_Node000014" class="edge">
<title>Node7&#45;&gt;Node14</title>
<g id="a_edge15_Node000007_Node000014"><a xlink:title=" ">
<path fill="none" stroke="#63b8ff" d="M577.78,-250.15C514.33,-246.09 389.61,-234.79 356.38,-207.5 338.18,-192.56 330.64,-165.62 327.53,-146.99"/>
<polygon fill="#63b8ff" stroke="#63b8ff" points="331.01,-146.62 326.21,-137.17 324.08,-147.55 331.01,-146.62"/>
</a>
</g>
</g>
<!-- Node15 -->
<g id="Node000015" class="node">
<title>Node15</title>
<g id="a_Node000015"><a xlink:title=" ">
<polygon fill="#e0e0e0" stroke="#999999" points="756.77,-201.88 727.98,-201.88 727.98,-182.62 756.77,-182.62 756.77,-201.88"/>
<text text-anchor="middle" x="742.38" y="-188.38" font-family="Helvetica,sans-Serif" font-size="10.00">list</text>
</a>
</g>
</g>
<!-- Node7&#45;&gt;Node15 -->
<g id="edge16_Node000007_Node000015" class="edge">
<title>Node7&#45;&gt;Node15</title>
<g id="a_edge16_Node000007_Node000015"><a xlink:title=" ">
<path fill="none" stroke="#63b8ff" d="M638.67,-243.02C657.82,-235.33 685.77,-223.62 717.76,-207.45"/>
<polygon fill="#63b8ff" stroke="#63b8ff" points="719.17,-210.66 726.47,-202.98 715.98,-204.44 719.17,-210.66"/>
</a>
</g>
</g>
<!-- Node16 -->
<g id="Node000016" class="node">
<title>Node16</title>
<g id="a_Node000016"><a xlink:href="IssueFactory_8hpp.html" target="_top" xlink:title=" ">
<polygon fill="white" stroke="#666666" points="881.75,-201.88 775,-201.88 775,-182.62 881.75,-182.62 881.75,-201.88"/>
<text text-anchor="middle" x="828.38" y="-188.38" font-family="Helvetica,sans-Serif" font-size="10.00">ers/IssueFactory.hpp</text>
</a>
</g>
</g>
<!-- Node7&#45;&gt;Node16 -->
<g id="edge17_Node000007_Node000016" class="edge">
<title>Node7&#45;&gt;Node16</title>
<g id="a_edge17_Node000007_Node000016"><a xlink:title=" ">
<path fill="none" stroke="#63b8ff" d="M648.19,-243.05C684.78,-232.94 744.12,-216.54 784.63,-205.34"/>
<polygon fill="#63b8ff" stroke="#63b8ff" points="785.36,-208.77 794.06,-202.73 783.49,-202.02 785.36,-208.77"/>
</a>
</g>
</g>
<!-- Node18 -->
<g id="Node000018" class="node">
<title>Node18</title>
<g id="a_Node000018"><a xlink:href="Severity_8hpp.html" target="_top" xlink:title=" ">
<polygon fill="white" stroke="#666666" points="826.25,-135.38 740.5,-135.38 740.5,-116.12 826.25,-116.12 826.25,-135.38"/>
<text text-anchor="middle" x="783.38" y="-121.88" font-family="Helvetica,sans-Serif" font-size="10.00">ers/Severity.hpp</text>
</a>
</g>
</g>
<!-- Node7&#45;&gt;Node18 -->
<g id="edge34_Node000007_Node000018" class="edge">
<title>Node7&#45;&gt;Node18</title>
<g id="a_edge34_Node000007_Node000018"><a xlink:title=" ">
<path fill="none" stroke="#63b8ff" d="M652.97,-251.78C721.01,-250.26 860.33,-242.82 890.38,-207.5 914.98,-178.58 864.76,-153.72 825.09,-139.5"/>
<polygon fill="#63b8ff" stroke="#63b8ff" points="826.28,-136.2 815.69,-136.26 824.01,-142.82 826.28,-136.2"/>
</a>
</g>
</g>
<!-- Node19 -->
<g id="Node000019" class="node">
<title>Node19</title>
<g id="a_Node000019"><a xlink:href="LocalContext_8hpp.html" target="_top" xlink:title=" ">
<polygon fill="white" stroke="#666666" points="1045.12,-201.88 937.62,-201.88 937.62,-182.62 1045.12,-182.62 1045.12,-201.88"/>
<text text-anchor="middle" x="991.38" y="-188.38" font-family="Helvetica,sans-Serif" font-size="10.00">ers/LocalContext.hpp</text>
</a>
</g>
</g>
<!-- Node7&#45;&gt;Node19 -->
<g id="edge26_Node000007_Node000019" class="edge">
<title>Node7&#45;&gt;Node19</title>
<g id="a_edge26_Node000007_Node000019"><a xlink:title=" ">
<path fill="none" stroke="#63b8ff" d="M652.95,-247.45C711.09,-240.05 826.28,-224.69 923.38,-207.5 928.52,-206.59 933.88,-205.58 939.22,-204.53"/>
<polygon fill="#63b8ff" stroke="#63b8ff" points="939.51,-208.04 948.62,-202.63 938.12,-201.18 939.51,-208.04"/>
</a>
</g>
</g>
<!-- Node24 -->
<g id="Node000024" class="node">
<title>Node24</title>
<g id="a_Node000024"><a xlink:href="IssueDeclarationMacro_8hpp.html" target="_top" xlink:title=" ">
<polygon fill="white" stroke="#666666" points="1449.25,-207.5 1309.5,-207.5 1309.5,-177 1449.25,-177 1449.25,-207.5"/>
<text text-anchor="start" x="1317.5" y="-194" font-family="Helvetica,sans-Serif" font-size="10.00">ers/internal/IssueDeclaration</text>
<text text-anchor="middle" x="1379.38" y="-182.75" font-family="Helvetica,sans-Serif" font-size="10.00">Macro.hpp</text>
</a>
</g>
</g>
<!-- Node7&#45;&gt;Node24 -->
<g id="edge35_Node000007_Node000024" class="edge">
<title>Node7&#45;&gt;Node24</title>
<g id="a_edge35_Node000007_Node000024"><a xlink:title=" ">
<path fill="none" stroke="#63b8ff" d="M653,-249.23C770.69,-240.16 1133.69,-212.18 1297.58,-199.55"/>
<polygon fill="#63b8ff" stroke="#63b8ff" points="1297.82,-203.04 1307.53,-198.79 1297.29,-196.07 1297.82,-203.04"/>
</a>
</g>
</g>
<!-- Node16&#45;&gt;Node4 -->
<g id="edge19_Node000016_Node000004" class="edge">
<title>Node16&#45;&gt;Node4</title>
<g id="a_edge19_Node000016_Node000004"><a xlink:title=" ">
<path fill="none" stroke="#63b8ff" d="M804.01,-182.13C744.23,-159.76 590.37,-102.18 524.29,-77.44"/>
<polygon fill="#63b8ff" stroke="#63b8ff" points="525.74,-74.25 515.15,-74.03 523.29,-80.81 525.74,-74.25"/>
</a>
</g>
</g>
<!-- Node16&#45;&gt;Node5 -->
<g id="edge21_Node000016_Node000005" class="edge">
<title>Node16&#45;&gt;Node5</title>
<g id="a_edge21_Node000016_Node000005"><a xlink:title=" ">
<path fill="none" stroke="#63b8ff" d="M792.57,-182.2C783.73,-180.23 774.25,-178.33 765.38,-177 557.33,-145.71 495.05,-200.91 293.38,-141 292.73,-140.81 292.08,-140.6 291.43,-140.37"/>
<polygon fill="#63b8ff" stroke="#63b8ff" points="293.13,-137.3 282.58,-136.36 290.24,-143.68 293.13,-137.3"/>
</a>
</g>
</g>
<!-- Node16&#45;&gt;Node14 -->
<g id="edge18_Node000016_Node000014" class="edge">
<title>Node16&#45;&gt;Node14</title>
<g id="a_edge18_Node000016_Node000014"><a xlink:title=" ">
<path fill="none" stroke="#63b8ff" d="M791.2,-182.14C782.74,-180.26 773.78,-178.43 765.38,-177 615.3,-151.54 434.2,-135.4 359.81,-129.4"/>
<polygon fill="#63b8ff" stroke="#63b8ff" points="360.16,-125.92 349.91,-128.61 359.6,-132.89 360.16,-125.92"/>
</a>
</g>
</g>
<!-- Node17 -->
<g id="Node000017" class="node">
<title>Node17</title>
<g id="a_Node000017"><a xlink:title=" ">
<polygon fill="#e0e0e0" stroke="#999999" points="804.88,-74.5 761.88,-74.5 761.88,-55.25 804.88,-55.25 804.88,-74.5"/>
<text text-anchor="middle" x="783.38" y="-61" font-family="Helvetica,sans-Serif" font-size="10.00">vector</text>
</a>
</g>
</g>
<!-- Node16&#45;&gt;Node17 -->
<g id="edge20_Node000016_Node000017" class="edge">
<title>Node16&#45;&gt;Node17</title>
<g id="a_edge20_Node000016_Node000017"><a xlink:title=" ">
<path fill="none" stroke="#63b8ff" d="M790.81,-182.19C769.38,-174.89 744.29,-162.23 731.38,-141 724.33,-129.42 725.71,-122.82 731.38,-110.5 736.83,-98.62 747.19,-88.72 757.23,-81.28"/>
<polygon fill="#63b8ff" stroke="#63b8ff" points="759.03,-84.29 765.33,-75.78 755.1,-78.5 759.03,-84.29"/>
</a>
</g>
</g>
<!-- Node16&#45;&gt;Node18 -->
<g id="edge22_Node000016_Node000018" class="edge">
<title>Node16&#45;&gt;Node18</title>
<g id="a_edge22_Node000016_Node000018"><a xlink:title=" ">
<path fill="none" stroke="#63b8ff" d="M822.12,-182.28C815.4,-172.65 804.55,-157.1 796.04,-144.9"/>
<polygon fill="#63b8ff" stroke="#63b8ff" points="799.04,-143.08 790.44,-136.88 793.3,-147.09 799.04,-143.08"/>
</a>
</g>
</g>
<!-- Node18&#45;&gt;Node4 -->
<g id="edge23_Node000018_Node000004" class="edge">
<title>Node18&#45;&gt;Node4</title>
<g id="a_edge23_Node000018_Node000004"><a xlink:title=" ">
<path fill="none" stroke="#63b8ff" d="M740.27,-116C681.28,-104.02 576.79,-82.81 524.71,-72.24"/>
<polygon fill="#63b8ff" stroke="#63b8ff" points="525.51,-68.83 515.02,-70.27 524.12,-75.69 525.51,-68.83"/>
</a>
</g>
</g>
<!-- Node18&#45;&gt;Node11 -->
<g id="edge25_Node000018_Node000011" class="edge">
<title>Node18&#45;&gt;Node11</title>
<g id="a_edge25_Node000018_Node000011"><a xlink:title=" ">
<path fill="none" stroke="#63b8ff" d="M803.23,-115.79C847.27,-95.93 953.41,-48.05 1005.92,-24.36"/>
<polygon fill="#63b8ff" stroke="#63b8ff" points="1007.21,-27.62 1014.88,-20.32 1004.33,-21.24 1007.21,-27.62"/>
</a>
</g>
</g>
<!-- Node18&#45;&gt;Node17 -->
<g id="edge24_Node000018_Node000017" class="edge">
<title>Node18&#45;&gt;Node17</title>
<g id="a_edge24_Node000018_Node000017"><a xlink:title=" ">
<path fill="none" stroke="#63b8ff" d="M783.38,-115.81C783.38,-108.03 783.38,-96.45 783.38,-86.41"/>
<polygon fill="#63b8ff" stroke="#63b8ff" points="786.88,-86.41 783.38,-76.41 779.88,-86.41 786.88,-86.41"/>
</a>
</g>
</g>
<!-- Node20 -->
<g id="Node000020" class="node">
<title>Node20</title>
<g id="a_Node000020"><a xlink:title=" ">
<polygon fill="#e0e0e0" stroke="#999999" points="976.75,-135.38 912,-135.38 912,-116.12 976.75,-116.12 976.75,-135.38"/>
<text text-anchor="middle" x="944.38" y="-121.88" font-family="Helvetica,sans-Serif" font-size="10.00">sys/types.h</text>
</a>
</g>
</g>
<!-- Node19&#45;&gt;Node20 -->
<g id="edge27_Node000019_Node000020" class="edge">
<title>Node19&#45;&gt;Node20</title>
<g id="a_edge27_Node000019_Node000020"><a xlink:title=" ">
<path fill="none" stroke="#63b8ff" d="M984.84,-182.28C977.82,-172.65 966.49,-157.1 957.6,-144.9"/>
<polygon fill="#63b8ff" stroke="#63b8ff" points="960.46,-142.89 951.75,-136.87 954.81,-147.01 960.46,-142.89"/>
</a>
</g>
</g>
<!-- Node21 -->
<g id="Node000021" class="node">
<title>Node21</title>
<g id="a_Node000021"><a xlink:title=" ">
<polygon fill="#e0e0e0" stroke="#999999" points="894.25,-135.38 844.5,-135.38 844.5,-116.12 894.25,-116.12 894.25,-135.38"/>
<text text-anchor="middle" x="869.38" y="-121.88" font-family="Helvetica,sans-Serif" font-size="10.00">unistd.h</text>
</a>
</g>
</g>
<!-- Node19&#45;&gt;Node21 -->
<g id="edge28_Node000019_Node000021" class="edge">
<title>Node19&#45;&gt;Node21</title>
<g id="a_edge28_Node000019_Node000021"><a xlink:title=" ">
<path fill="none" stroke="#63b8ff" d="M974.15,-182.15C953.99,-171.49 920.34,-153.69 896.62,-141.16"/>
<polygon fill="#63b8ff" stroke="#63b8ff" points="898.32,-138.1 887.85,-136.52 895.05,-144.28 898.32,-138.1"/>
</a>
</g>
</g>
<!-- Node22 -->
<g id="Node000022" class="node">
<title>Node22</title>
<g id="a_Node000022"><a xlink:href="Context_8hpp.html" target="_top" xlink:title=" ">
<polygon fill="white" stroke="#666666" points="1078.12,-135.38 994.62,-135.38 994.62,-116.12 1078.12,-116.12 1078.12,-135.38"/>
<text text-anchor="middle" x="1036.38" y="-121.88" font-family="Helvetica,sans-Serif" font-size="10.00">ers/Context.hpp</text>
</a>
</g>
</g>
<!-- Node19&#45;&gt;Node22 -->
<g id="edge29_Node000019_Node000022" class="edge">
<title>Node19&#45;&gt;Node22</title>
<g id="a_edge29_Node000019_Node000022"><a xlink:title=" ">
<path fill="none" stroke="#63b8ff" d="M997.63,-182.28C1004.35,-172.65 1015.2,-157.1 1023.71,-144.9"/>
<polygon fill="#63b8ff" stroke="#63b8ff" points="1026.45,-147.09 1029.31,-136.88 1020.71,-143.08 1026.45,-147.09"/>
</a>
</g>
</g>
<!-- Node22&#45;&gt;Node4 -->
<g id="edge30_Node000022_Node000004" class="edge">
<title>Node22&#45;&gt;Node4</title>
<g id="a_edge30_Node000022_Node000004"><a xlink:title=" ">
<path fill="none" stroke="#63b8ff" d="M1007.46,-115.69C1000.3,-113.72 992.61,-111.83 985.38,-110.5 813.61,-78.99 603.85,-69.37 525.18,-66.76"/>
<polygon fill="#63b8ff" stroke="#63b8ff" points="525.32,-63.26 515.22,-66.44 525.1,-70.26 525.32,-63.26"/>
</a>
</g>
</g>
<!-- Node22&#45;&gt;Node17 -->
<g id="edge31_Node000022_Node000017" class="edge">
<title>Node22&#45;&gt;Node17</title>
<g id="a_edge31_Node000022_Node000017"><a xlink:title=" ">
<path fill="none" stroke="#63b8ff" d="M1004.89,-115.66C998.45,-113.88 991.71,-112.08 985.38,-110.5 926.2,-95.71 856.64,-80.9 816.51,-72.61"/>
<polygon fill="#63b8ff" stroke="#63b8ff" points="817.27,-69.19 806.77,-70.61 815.86,-76.05 817.27,-69.19"/>
</a>
</g>
</g>
<!-- Node23 -->
<g id="Node000023" class="node">
<title>Node23</title>
<g id="a_Node000023"><a xlink:href="ers_2include_2ers_2Configuration_8hpp.html" target="_top" xlink:title=" ">
<polygon fill="white" stroke="#666666" points="1089.75,-74.5 983,-74.5 983,-55.25 1089.75,-55.25 1089.75,-74.5"/>
<text text-anchor="middle" x="1036.38" y="-61" font-family="Helvetica,sans-Serif" font-size="10.00">ers/Configuration.hpp</text>
</a>
</g>
</g>
<!-- Node22&#45;&gt;Node23 -->
<g id="edge32_Node000022_Node000023" class="edge">
<title>Node22&#45;&gt;Node23</title>
<g id="a_edge32_Node000022_Node000023"><a xlink:title=" ">
<path fill="none" stroke="#63b8ff" d="M1036.38,-115.81C1036.38,-108.03 1036.38,-96.45 1036.38,-86.41"/>
<polygon fill="#63b8ff" stroke="#63b8ff" points="1039.88,-86.41 1036.38,-76.41 1032.88,-86.41 1039.88,-86.41"/>
</a>
</g>
</g>
<!-- Node23&#45;&gt;Node11 -->
<g id="edge33_Node000023_Node000011" class="edge">
<title>Node23&#45;&gt;Node11</title>
<g id="a_edge33_Node000023_Node000011"><a xlink:title=" ">
<path fill="none" stroke="#63b8ff" d="M1036.38,-55.08C1036.38,-48.57 1036.38,-39.42 1036.38,-31.12"/>
<polygon fill="#63b8ff" stroke="#63b8ff" points="1039.88,-31.12 1036.38,-21.12 1032.88,-31.12 1039.88,-31.12"/>
</a>
</g>
</g>
<!-- Node25 -->
<g id="Node000025" class="node">
<title>Node25</title>
<g id="a_Node000025"><a xlink:title=" ">
<polygon fill="#e0e0e0" stroke="#999999" points="1546,-141 1446.75,-141 1446.75,-110.5 1546,-110.5 1546,-141"/>
<text text-anchor="start" x="1454.75" y="-127.5" font-family="Helvetica,sans-Serif" font-size="10.00">boost/preprocessor</text>
<text text-anchor="middle" x="1496.38" y="-116.25" font-family="Helvetica,sans-Serif" font-size="10.00">/if.hpp</text>
</a>
</g>
</g>
<!-- Node24&#45;&gt;Node25 -->
<g id="edge36_Node000024_Node000025" class="edge">
<title>Node24&#45;&gt;Node25</title>
<g id="a_edge36_Node000024_Node000025"><a xlink:title=" ">
<path fill="none" stroke="#63b8ff" d="M1405.92,-176.61C1421.93,-167.79 1442.54,-156.43 1460.04,-146.78"/>
<polygon fill="#63b8ff" stroke="#63b8ff" points="1461.54,-149.95 1468.61,-142.06 1458.16,-143.82 1461.54,-149.95"/>
</a>
</g>
</g>
<!-- Node26 -->
<g id="Node000026" class="node">
<title>Node26</title>
<g id="a_Node000026"><a xlink:title=" ">
<polygon fill="#e0e0e0" stroke="#999999" points="1663,-141 1563.75,-141 1563.75,-110.5 1663,-110.5 1663,-141"/>
<text text-anchor="start" x="1571.75" y="-127.5" font-family="Helvetica,sans-Serif" font-size="10.00">boost/preprocessor</text>
<text text-anchor="middle" x="1613.38" y="-116.25" font-family="Helvetica,sans-Serif" font-size="10.00">/seq.hpp</text>
</a>
</g>
</g>
<!-- Node24&#45;&gt;Node26 -->
<g id="edge37_Node000024_Node000026" class="edge">
<title>Node24&#45;&gt;Node26</title>
<g id="a_edge37_Node000024_Node000026"><a xlink:title=" ">
<path fill="none" stroke="#63b8ff" d="M1432.77,-176.53C1468.49,-166.69 1515.59,-153.7 1552.73,-143.47"/>
<polygon fill="#63b8ff" stroke="#63b8ff" points="1553.24,-146.95 1561.96,-140.92 1551.38,-140.21 1553.24,-146.95"/>
</a>
</g>
</g>
<!-- Node27 -->
<g id="Node000027" class="node">
<title>Node27</title>
<g id="a_Node000027"><a xlink:title=" ">
<polygon fill="#e0e0e0" stroke="#999999" points="1780,-141 1680.75,-141 1680.75,-110.5 1780,-110.5 1780,-141"/>
<text text-anchor="start" x="1688.75" y="-127.5" font-family="Helvetica,sans-Serif" font-size="10.00">boost/preprocessor</text>
<text text-anchor="middle" x="1730.38" y="-116.25" font-family="Helvetica,sans-Serif" font-size="10.00">/tuple.hpp</text>
</a>
</g>
</g>
<!-- Node24&#45;&gt;Node27 -->
<g id="edge38_Node000024_Node000027" class="edge">
<title>Node24&#45;&gt;Node27</title>
<g id="a_edge38_Node000024_Node000027"><a xlink:title=" ">
<path fill="none" stroke="#63b8ff" d="M1449.5,-180.66C1506.46,-171.73 1589.11,-158.03 1669.61,-141.5"/>
<polygon fill="#63b8ff" stroke="#63b8ff" points="1669.88,-145.02 1678.96,-139.56 1668.46,-138.17 1669.88,-145.02"/>
</a>
</g>
</g>
<!-- Node28 -->
<g id="Node000028" class="node">
<title>Node28</title>
<g id="a_Node000028"><a xlink:title=" ">
<polygon fill="#e0e0e0" stroke="#999999" points="1195,-141 1095.75,-141 1095.75,-110.5 1195,-110.5 1195,-141"/>
<text text-anchor="start" x="1103.75" y="-127.5" font-family="Helvetica,sans-Serif" font-size="10.00">boost/preprocessor</text>
<text text-anchor="middle" x="1145.38" y="-116.25" font-family="Helvetica,sans-Serif" font-size="10.00">/logical.hpp</text>
</a>
</g>
</g>
<!-- Node24&#45;&gt;Node28 -->
<g id="edge39_Node000024_Node000028" class="edge">
<title>Node24&#45;&gt;Node28</title>
<g id="a_edge39_Node000024_Node000028"><a xlink:title=" ">
<path fill="none" stroke="#63b8ff" d="M1325.98,-176.53C1290.26,-166.69 1243.16,-153.7 1206.02,-143.47"/>
<polygon fill="#63b8ff" stroke="#63b8ff" points="1207.37,-140.21 1196.79,-140.92 1205.51,-146.95 1207.37,-140.21"/>
</a>
</g>
</g>
<!-- Node29 -->
<g id="Node000029" class="node">
<title>Node29</title>
<g id="a_Node000029"><a xlink:title=" ">
<polygon fill="#e0e0e0" stroke="#999999" points="1312,-141 1212.75,-141 1212.75,-110.5 1312,-110.5 1312,-141"/>
<text text-anchor="start" x="1220.75" y="-127.5" font-family="Helvetica,sans-Serif" font-size="10.00">boost/preprocessor</text>
<text text-anchor="middle" x="1262.38" y="-116.25" font-family="Helvetica,sans-Serif" font-size="10.00">/stringize.hpp</text>
</a>
</g>
</g>
<!-- Node24&#45;&gt;Node29 -->
<g id="edge40_Node000024_Node000029" class="edge">
<title>Node24&#45;&gt;Node29</title>
<g id="a_edge40_Node000024_Node000029"><a xlink:title=" ">
<path fill="none" stroke="#63b8ff" d="M1352.83,-176.61C1336.82,-167.79 1316.21,-156.43 1298.71,-146.78"/>
<polygon fill="#63b8ff" stroke="#63b8ff" points="1300.59,-143.82 1290.14,-142.06 1297.21,-149.95 1300.59,-143.82"/>
</a>
</g>
</g>
<!-- Node30 -->
<g id="Node000030" class="node">
<title>Node30</title>
<g id="a_Node000030"><a xlink:title=" ">
<polygon fill="#e0e0e0" stroke="#999999" points="1429,-141 1329.75,-141 1329.75,-110.5 1429,-110.5 1429,-141"/>
<text text-anchor="start" x="1337.75" y="-127.5" font-family="Helvetica,sans-Serif" font-size="10.00">boost/preprocessor</text>
<text text-anchor="middle" x="1379.38" y="-116.25" font-family="Helvetica,sans-Serif" font-size="10.00">/comparison.hpp</text>
</a>
</g>
</g>
<!-- Node24&#45;&gt;Node30 -->
<g id="edge41_Node000024_Node000030" class="edge">
<title>Node24&#45;&gt;Node30</title>
<g id="a_edge41_Node000024_Node000030"><a xlink:title=" ">
<path fill="none" stroke="#63b8ff" d="M1379.38,-176.61C1379.38,-169.52 1379.38,-160.79 1379.38,-152.63"/>
<polygon fill="#63b8ff" stroke="#63b8ff" points="1382.88,-152.84 1379.38,-142.84 1375.88,-152.84 1382.88,-152.84"/>
</a>
</g>
</g>
</g>
</svg>
