<?xml version="1.0" encoding="UTF-8" standalone="no"?>
<!DOCTYPE svg PUBLIC "-//W3C//DTD SVG 1.1//EN"
 "http://www.w3.org/Graphics/SVG/1.1/DTD/svg11.dtd">
<!-- Generated by graphviz version 9.0.0 (20230911.1827)
 -->
<!-- Title: /github/workspace/dev_area/sourcecode/erskafka/include/erskafka/ERSPublisher.hpp Pages: 1 -->
<svg width="4013pt" height="404pt"
 viewBox="0.00 0.00 4012.97 403.75" xmlns="http://www.w3.org/2000/svg" xmlns:xlink="http://www.w3.org/1999/xlink">
<g id="graph0" class="graph" transform="scale(1 1) rotate(0) translate(4 399.75)">
<title>/github/workspace/dev_area/sourcecode/erskafka/include/erskafka/ERSPublisher.hpp</title>
<!-- Node1 -->
<g id="Node000001" class="node">
<title>Node1</title>
<g id="a_Node000001"><a xlink:title=" ">
<polygon fill="#999999" stroke="#666666" points="345.12,-395.75 173.88,-395.75 173.88,-354 345.12,-354 345.12,-395.75"/>
<text text-anchor="start" x="181.88" y="-382.25" font-family="Helvetica,sans-Serif" font-size="10.00">/github/workspace/dev</text>
<text text-anchor="start" x="181.88" y="-371" font-family="Helvetica,sans-Serif" font-size="10.00">_area/sourcecode/erskafka</text>
<text text-anchor="middle" x="259.5" y="-359.75" font-family="Helvetica,sans-Serif" font-size="10.00">/include/erskafka/ERSPublisher.hpp</text>
</a>
</g>
</g>
<!-- Node2 -->
<g id="Node000002" class="node">
<title>Node2</title>
<g id="a_Node000002"><a xlink:title=" ">
<polygon fill="#e0e0e0" stroke="#999999" points="97,-318 0,-318 0,-298.75 97,-298.75 97,-318"/>
<text text-anchor="middle" x="48.5" y="-304.5" font-family="Helvetica,sans-Serif" font-size="10.00">nlohmann/json.hpp</text>
</a>
</g>
</g>
<!-- Node1&#45;&gt;Node2 -->
<g id="edge1_Node000001_Node000002" class="edge">
<title>Node1&#45;&gt;Node2</title>
<g id="a_edge1_Node000001_Node000002"><a xlink:title=" ">
<path fill="none" stroke="#63b8ff" d="M193.03,-353.56C158.86,-343.11 118.33,-330.72 88.9,-321.72"/>
<polygon fill="#63b8ff" stroke="#63b8ff" points="90.23,-318.47 79.65,-318.9 88.19,-325.17 90.23,-318.47"/>
</a>
</g>
</g>
<!-- Node3 -->
<g id="Node000003" class="node">
<title>Node3</title>
<g id="a_Node000003"><a xlink:title=" ">
<polygon fill="#e0e0e0" stroke="#999999" points="231.75,-318 115.25,-318 115.25,-298.75 231.75,-298.75 231.75,-318"/>
<text text-anchor="middle" x="173.5" y="-304.5" font-family="Helvetica,sans-Serif" font-size="10.00">librdkafka/rdkafkacpp.h</text>
</a>
</g>
</g>
<!-- Node1&#45;&gt;Node3 -->
<g id="edge2_Node000001_Node000003" class="edge">
<title>Node1&#45;&gt;Node3</title>
<g id="a_edge2_Node000001_Node000003"><a xlink:title=" ">
<path fill="none" stroke="#63b8ff" d="M232.76,-353.82C220.43,-344.58 206.02,-333.76 194.49,-325.12"/>
<polygon fill="#63b8ff" stroke="#63b8ff" points="196.9,-322.55 186.8,-319.35 192.7,-328.15 196.9,-322.55"/>
</a>
</g>
</g>
<!-- Node4 -->
<g id="Node000004" class="node">
<title>Node4</title>
<g id="a_Node000004"><a xlink:title=" ">
<polygon fill="#e0e0e0" stroke="#999999" points="2697.75,-201.88 2647.25,-201.88 2647.25,-182.62 2697.75,-182.62 2697.75,-201.88"/>
<text text-anchor="middle" x="2672.5" y="-188.38" font-family="Helvetica,sans-Serif" font-size="10.00">memory</text>
</a>
</g>
</g>
<!-- Node1&#45;&gt;Node4 -->
<g id="edge3_Node000001_Node000004" class="edge">
<title>Node1&#45;&gt;Node4</title>
<g id="a_edge3_Node000001_Node000004"><a xlink:title=" ">
<path fill="none" stroke="#63b8ff" d="M345.46,-369.24C744.34,-347.54 2405.11,-255.04 2632.5,-207.5 2634.81,-207.02 2637.17,-206.43 2639.53,-205.78"/>
<polygon fill="#63b8ff" stroke="#63b8ff" points="2640.47,-209.15 2648.94,-202.79 2638.35,-202.48 2640.47,-209.15"/>
</a>
</g>
</g>
<!-- Node5 -->
<g id="Node000005" class="node">
<title>Node5</title>
<g id="a_Node000005"><a xlink:title=" ">
<polygon fill="#e0e0e0" stroke="#999999" points="2796.5,-74.5 2756.5,-74.5 2756.5,-55.25 2796.5,-55.25 2796.5,-74.5"/>
<text text-anchor="middle" x="2776.5" y="-61" font-family="Helvetica,sans-Serif" font-size="10.00">string</text>
</a>
</g>
</g>
<!-- Node1&#45;&gt;Node5 -->
<g id="edge4_Node000001_Node000005" class="edge">
<title>Node1&#45;&gt;Node5</title>
<g id="a_edge4_Node000001_Node000005"><a xlink:title=" ">
<path fill="none" stroke="#63b8ff" d="M259.5,-353.53C259.5,-329.71 259.5,-289.05 259.5,-254.12 259.5,-254.12 259.5,-254.12 259.5,-191.25 259.5,-60.5 2454.53,-64.62 2744.92,-65.73"/>
<polygon fill="#63b8ff" stroke="#63b8ff" points="2744.71,-69.23 2754.73,-65.77 2744.74,-62.23 2744.71,-69.23"/>
</a>
</g>
</g>
<!-- Node6 -->
<g id="Node000006" class="node">
<title>Node6</title>
<g id="a_Node000006"><a xlink:href="ers_2include_2ers_2Schema_8hpp.html" target="_top" xlink:title=" ">
<polygon fill="white" stroke="#666666" points="1657.75,-318 1571.25,-318 1571.25,-298.75 1657.75,-298.75 1657.75,-318"/>
<text text-anchor="middle" x="1614.5" y="-304.5" font-family="Helvetica,sans-Serif" font-size="10.00">ers/Schema.hpp</text>
</a>
</g>
</g>
<!-- Node1&#45;&gt;Node6 -->
<g id="edge5_Node000001_Node000006" class="edge">
<title>Node1&#45;&gt;Node6</title>
<g id="a_edge5_Node000001_Node000006"><a xlink:title=" ">
<path fill="none" stroke="#63b8ff" d="M345.54,-373.35C553.96,-371.4 1102.32,-362.11 1557.5,-318 1558.18,-317.93 1558.87,-317.86 1559.57,-317.79"/>
<polygon fill="#63b8ff" stroke="#63b8ff" points="1559.96,-321.27 1569.49,-316.63 1559.15,-314.32 1559.96,-321.27"/>
</a>
</g>
</g>
<!-- Node7 -->
<g id="Node000007" class="node">
<title>Node7</title>
<g id="a_Node000007"><a xlink:href="issue_8pb_8h.html" target="_top" xlink:title=" ">
<polygon fill="white" stroke="#666666" points="1515.5,-262.75 1439.5,-262.75 1439.5,-243.5 1515.5,-243.5 1515.5,-262.75"/>
<text text-anchor="middle" x="1477.5" y="-249.25" font-family="Helvetica,sans-Serif" font-size="10.00">ers/issue.pb.h</text>
</a>
</g>
</g>
<!-- Node6&#45;&gt;Node7 -->
<g id="edge6_Node000006_Node000007" class="edge">
<title>Node6&#45;&gt;Node7</title>
<g id="a_edge6_Node000006_Node000007"><a xlink:title=" ">
<path fill="none" stroke="#63b8ff" d="M1591.26,-298.34C1569.31,-289.81 1536.15,-276.92 1511.29,-267.26"/>
<polygon fill="#63b8ff" stroke="#63b8ff" points="1512.85,-264.11 1502.26,-263.75 1510.32,-270.64 1512.85,-264.11"/>
</a>
</g>
</g>
<!-- Node26 -->
<g id="Node000026" class="node">
<title>Node26</title>
<g id="a_Node000026"><a xlink:href="Issue_8hpp.html" target="_top" xlink:title=" ">
<polygon fill="white" stroke="#666666" points="3064.75,-262.75 2990.25,-262.75 2990.25,-243.5 3064.75,-243.5 3064.75,-262.75"/>
<text text-anchor="middle" x="3027.5" y="-249.25" font-family="Helvetica,sans-Serif" font-size="10.00">ers/Issue.hpp</text>
</a>
</g>
</g>
<!-- Node6&#45;&gt;Node26 -->
<g id="edge26_Node000006_Node000026" class="edge">
<title>Node6&#45;&gt;Node26</title>
<g id="a_edge26_Node000006_Node000026"><a xlink:title=" ">
<path fill="none" stroke="#63b8ff" d="M1657.95,-305.74C1865.9,-297.9 2758.53,-264.26 2978.41,-255.97"/>
<polygon fill="#63b8ff" stroke="#63b8ff" points="2978.48,-259.47 2988.34,-255.6 2978.22,-252.48 2978.48,-259.47"/>
</a>
</g>
</g>
<!-- Node7&#45;&gt;Node5 -->
<g id="edge8_Node000007_Node000005" class="edge">
<title>Node7&#45;&gt;Node5</title>
<g id="a_edge8_Node000007_Node000005"><a xlink:title=" ">
<path fill="none" stroke="#63b8ff" d="M1515.76,-245.2C1520.38,-244.53 1525.04,-243.94 1529.5,-243.5 1647.98,-231.73 2488.88,-248.95 2600.5,-207.5 2600.79,-207.39 2710.34,-119.17 2756.43,-82.04"/>
<polygon fill="#63b8ff" stroke="#63b8ff" points="2758.47,-84.89 2764.07,-75.89 2754.08,-79.44 2758.47,-84.89"/>
</a>
</g>
</g>
<!-- Node8 -->
<g id="Node000008" class="node">
<title>Node8</title>
<g id="a_Node000008"><a xlink:title=" ">
<polygon fill="#e0e0e0" stroke="#999999" points="1429.12,-201.88 1389.88,-201.88 1389.88,-182.62 1429.12,-182.62 1429.12,-201.88"/>
<text text-anchor="middle" x="1409.5" y="-188.38" font-family="Helvetica,sans-Serif" font-size="10.00">limits</text>
</a>
</g>
</g>
<!-- Node7&#45;&gt;Node8 -->
<g id="edge7_Node000007_Node000008" class="edge">
<title>Node7&#45;&gt;Node8</title>
<g id="a_edge7_Node000007_Node000008"><a xlink:title=" ">
<path fill="none" stroke="#63b8ff" d="M1467.17,-243.18C1456.89,-234.28 1440.87,-220.41 1428.32,-209.54"/>
<polygon fill="#63b8ff" stroke="#63b8ff" points="1430.92,-207.17 1421.07,-203.27 1426.34,-212.46 1430.92,-207.17"/>
</a>
</g>
</g>
<!-- Node9 -->
<g id="Node000009" class="node">
<title>Node9</title>
<g id="a_Node000009"><a xlink:title=" ">
<polygon fill="#e0e0e0" stroke="#999999" points="1508,-201.88 1447,-201.88 1447,-182.62 1508,-182.62 1508,-201.88"/>
<text text-anchor="middle" x="1477.5" y="-188.38" font-family="Helvetica,sans-Serif" font-size="10.00">type_traits</text>
</a>
</g>
</g>
<!-- Node7&#45;&gt;Node9 -->
<g id="edge9_Node000007_Node000009" class="edge">
<title>Node7&#45;&gt;Node9</title>
<g id="a_edge9_Node000007_Node000009"><a xlink:title=" ">
<path fill="none" stroke="#63b8ff" d="M1477.5,-243.18C1477.5,-235.4 1477.5,-223.83 1477.5,-213.78"/>
<polygon fill="#63b8ff" stroke="#63b8ff" points="1481,-213.79 1477.5,-203.79 1474,-213.79 1481,-213.79"/>
</a>
</g>
</g>
<!-- Node10 -->
<g id="Node000010" class="node">
<title>Node10</title>
<g id="a_Node000010"><a xlink:title=" ">
<polygon fill="#e0e0e0" stroke="#999999" points="1628.62,-207.5 1526.38,-207.5 1526.38,-177 1628.62,-177 1628.62,-207.5"/>
<text text-anchor="start" x="1534.38" y="-194" font-family="Helvetica,sans-Serif" font-size="10.00">google/protobuf/port</text>
<text text-anchor="middle" x="1577.5" y="-182.75" font-family="Helvetica,sans-Serif" font-size="10.00">_def.inc</text>
</a>
</g>
</g>
<!-- Node7&#45;&gt;Node10 -->
<g id="edge10_Node000007_Node000010" class="edge">
<title>Node7&#45;&gt;Node10</title>
<g id="a_edge10_Node000007_Node000010"><a xlink:title=" ">
<path fill="none" stroke="#63b8ff" d="M1492.69,-243.18C1506.02,-235.33 1525.92,-223.62 1543.09,-213.51"/>
<polygon fill="#63b8ff" stroke="#63b8ff" points="1544.67,-216.64 1551.51,-208.55 1541.12,-210.61 1544.67,-216.64"/>
</a>
</g>
</g>
<!-- Node11 -->
<g id="Node000011" class="node">
<title>Node11</title>
<g id="a_Node000011"><a xlink:title=" ">
<polygon fill="#e0e0e0" stroke="#999999" points="1748.62,-207.5 1646.38,-207.5 1646.38,-177 1748.62,-177 1748.62,-207.5"/>
<text text-anchor="start" x="1654.38" y="-194" font-family="Helvetica,sans-Serif" font-size="10.00">google/protobuf/port</text>
<text text-anchor="middle" x="1697.5" y="-182.75" font-family="Helvetica,sans-Serif" font-size="10.00">_undef.inc</text>
</a>
</g>
</g>
<!-- Node7&#45;&gt;Node11 -->
<g id="edge11_Node000007_Node000011" class="edge">
<title>Node7&#45;&gt;Node11</title>
<g id="a_edge11_Node000007_Node000011"><a xlink:title=" ">
<path fill="none" stroke="#63b8ff" d="M1511.39,-243.05C1544.22,-234.27 1594.8,-220.73 1634.94,-209.99"/>
<polygon fill="#63b8ff" stroke="#63b8ff" points="1635.75,-213.4 1644.5,-207.43 1633.94,-206.64 1635.75,-213.4"/>
</a>
</g>
</g>
<!-- Node12 -->
<g id="Node000012" class="node">
<title>Node12</title>
<g id="a_Node000012"><a xlink:title=" ">
<polygon fill="#e0e0e0" stroke="#999999" points="1860.12,-207.5 1766.88,-207.5 1766.88,-177 1860.12,-177 1860.12,-207.5"/>
<text text-anchor="start" x="1774.88" y="-194" font-family="Helvetica,sans-Serif" font-size="10.00">google/protobuf/io</text>
<text text-anchor="middle" x="1813.5" y="-182.75" font-family="Helvetica,sans-Serif" font-size="10.00">/coded_stream.h</text>
</a>
</g>
</g>
<!-- Node7&#45;&gt;Node12 -->
<g id="edge12_Node000007_Node000012" class="edge">
<title>Node7&#45;&gt;Node12</title>
<g id="a_edge12_Node000007_Node000012"><a xlink:title=" ">
<path fill="none" stroke="#63b8ff" d="M1515.83,-245.73C1520.44,-244.97 1525.07,-244.22 1529.5,-243.5 1627.21,-227.68 1655.08,-228.12 1755.27,-207.84"/>
<polygon fill="#63b8ff" stroke="#63b8ff" points="1755.94,-211.28 1765.04,-205.84 1754.54,-204.42 1755.94,-211.28"/>
</a>
</g>
</g>
<!-- Node13 -->
<g id="Node000013" class="node">
<title>Node13</title>
<g id="a_Node000013"><a xlink:title=" ">
<polygon fill="#e0e0e0" stroke="#999999" points="1995.12,-201.88 1877.88,-201.88 1877.88,-182.62 1995.12,-182.62 1995.12,-201.88"/>
<text text-anchor="middle" x="1936.5" y="-188.38" font-family="Helvetica,sans-Serif" font-size="10.00">google/protobuf/arena.h</text>
</a>
</g>
</g>
<!-- Node7&#45;&gt;Node13 -->
<g id="edge13_Node000007_Node000013" class="edge">
<title>Node7&#45;&gt;Node13</title>
<g id="a_edge13_Node000007_Node000013"><a xlink:title=" ">
<path fill="none" stroke="#63b8ff" d="M1515.8,-245.51C1520.41,-244.79 1525.06,-244.1 1529.5,-243.5 1680.07,-223.06 1719.43,-231.34 1869.5,-207.5 1874.87,-206.65 1880.46,-205.64 1886.02,-204.57"/>
<polygon fill="#63b8ff" stroke="#63b8ff" points="1886.71,-208 1895.82,-202.6 1885.32,-201.14 1886.71,-208"/>
</a>
</g>
</g>
<!-- Node14 -->
<g id="Node000014" class="node">
<title>Node14</title>
<g id="a_Node000014"><a xlink:title=" ">
<polygon fill="#e0e0e0" stroke="#999999" points="2154.12,-201.88 2012.88,-201.88 2012.88,-182.62 2154.12,-182.62 2154.12,-201.88"/>
<text text-anchor="middle" x="2083.5" y="-188.38" font-family="Helvetica,sans-Serif" font-size="10.00">google/protobuf/arenastring.h</text>
</a>
</g>
</g>
<!-- Node7&#45;&gt;Node14 -->
<g id="edge14_Node000007_Node000014" class="edge">
<title>Node7&#45;&gt;Node14</title>
<g id="a_edge14_Node000007_Node000014"><a xlink:title=" ">
<path fill="none" stroke="#63b8ff" d="M1515.78,-245.38C1520.4,-244.68 1525.05,-244.04 1529.5,-243.5 1739.69,-218.15 1794.49,-234.33 2004.5,-207.5 2011.66,-206.59 2019.16,-205.46 2026.56,-204.24"/>
<polygon fill="#63b8ff" stroke="#63b8ff" points="2026.91,-207.73 2036.18,-202.59 2025.73,-200.83 2026.91,-207.73"/>
</a>
</g>
</g>
<!-- Node15 -->
<g id="Node000015" class="node">
<title>Node15</title>
<g id="a_Node000015"><a xlink:title=" ">
<polygon fill="#e0e0e0" stroke="#999999" points="2300.75,-207.5 2172.25,-207.5 2172.25,-177 2300.75,-177 2300.75,-207.5"/>
<text text-anchor="start" x="2180.25" y="-194" font-family="Helvetica,sans-Serif" font-size="10.00">google/protobuf/generated</text>
<text text-anchor="middle" x="2236.5" y="-182.75" font-family="Helvetica,sans-Serif" font-size="10.00">_message_tctable_decl.h</text>
</a>
</g>
</g>
<!-- Node7&#45;&gt;Node15 -->
<g id="edge15_Node000007_Node000015" class="edge">
<title>Node7&#45;&gt;Node15</title>
<g id="a_edge15_Node000007_Node000015"><a xlink:title=" ">
<path fill="none" stroke="#63b8ff" d="M1515.77,-245.3C1520.39,-244.62 1525.04,-243.99 1529.5,-243.5 1806.31,-212.77 1881.49,-241.83 2160.79,-207.72"/>
<polygon fill="#63b8ff" stroke="#63b8ff" points="2161.09,-211.21 2170.59,-206.5 2160.23,-204.26 2161.09,-211.21"/>
</a>
</g>
</g>
<!-- Node16 -->
<g id="Node000016" class="node">
<title>Node16</title>
<g id="a_Node000016"><a xlink:title=" ">
<polygon fill="#e0e0e0" stroke="#999999" points="2447.75,-207.5 2319.25,-207.5 2319.25,-177 2447.75,-177 2447.75,-207.5"/>
<text text-anchor="start" x="2327.25" y="-194" font-family="Helvetica,sans-Serif" font-size="10.00">google/protobuf/generated</text>
<text text-anchor="middle" x="2383.5" y="-182.75" font-family="Helvetica,sans-Serif" font-size="10.00">_message_util.h</text>
</a>
</g>
</g>
<!-- Node7&#45;&gt;Node16 -->
<g id="edge16_Node000007_Node000016" class="edge">
<title>Node7&#45;&gt;Node16</title>
<g id="a_edge16_Node000007_Node000016"><a xlink:title=" ">
<path fill="none" stroke="#63b8ff" d="M1515.77,-245.25C1520.38,-244.58 1525.04,-243.97 1529.5,-243.5 1870.91,-207.44 1962.92,-247.54 2307.69,-207.57"/>
<polygon fill="#63b8ff" stroke="#63b8ff" points="2307.99,-211.06 2317.51,-206.41 2307.17,-204.1 2307.99,-211.06"/>
</a>
</g>
</g>
<!-- Node17 -->
<g id="Node000017" class="node">
<title>Node17</title>
<g id="a_Node000017"><a xlink:title=" ">
<polygon fill="#e0e0e0" stroke="#999999" points="2591.62,-207.5 2465.38,-207.5 2465.38,-177 2591.62,-177 2591.62,-207.5"/>
<text text-anchor="start" x="2473.38" y="-194" font-family="Helvetica,sans-Serif" font-size="10.00">google/protobuf/metadata</text>
<text text-anchor="middle" x="2528.5" y="-182.75" font-family="Helvetica,sans-Serif" font-size="10.00">_lite.h</text>
</a>
</g>
</g>
<!-- Node7&#45;&gt;Node17 -->
<g id="edge17_Node000007_Node000017" class="edge">
<title>Node7&#45;&gt;Node17</title>
<g id="a_edge17_Node000007_Node000017"><a xlink:title=" ">
<path fill="none" stroke="#63b8ff" d="M1515.76,-245.22C1520.38,-244.55 1525.04,-243.95 1529.5,-243.5 1935.98,-202.06 2045.05,-254.71 2453.73,-207.69"/>
<polygon fill="#63b8ff" stroke="#63b8ff" points="2453.95,-211.19 2463.48,-206.56 2453.14,-204.24 2453.95,-211.19"/>
</a>
</g>
</g>
<!-- Node18 -->
<g id="Node000018" class="node">
<title>Node18</title>
<g id="a_Node000018"><a xlink:title=" ">
<polygon fill="#e0e0e0" stroke="#999999" points="415.75,-207.5 287.25,-207.5 287.25,-177 415.75,-177 415.75,-207.5"/>
<text text-anchor="start" x="295.25" y="-194" font-family="Helvetica,sans-Serif" font-size="10.00">google/protobuf/generated</text>
<text text-anchor="middle" x="351.5" y="-182.75" font-family="Helvetica,sans-Serif" font-size="10.00">_message_reflection.h</text>
</a>
</g>
</g>
<!-- Node7&#45;&gt;Node18 -->
<g id="edge18_Node000007_Node000018" class="edge">
<title>Node7&#45;&gt;Node18</title>
<g id="a_edge18_Node000007_Node000018"><a xlink:title=" ">
<path fill="none" stroke="#63b8ff" d="M1439.08,-252.58C1302.53,-253.74 827.74,-254.07 427.14,-207.68"/>
<polygon fill="#63b8ff" stroke="#63b8ff" points="427.75,-204.23 417.41,-206.54 426.93,-211.18 427.75,-204.23"/>
</a>
</g>
</g>
<!-- Node19 -->
<g id="Node000019" class="node">
<title>Node19</title>
<g id="a_Node000019"><a xlink:title=" ">
<polygon fill="#e0e0e0" stroke="#999999" points="567,-201.88 434,-201.88 434,-182.62 567,-182.62 567,-201.88"/>
<text text-anchor="middle" x="500.5" y="-188.38" font-family="Helvetica,sans-Serif" font-size="10.00">google/protobuf/message.h</text>
</a>
</g>
</g>
<!-- Node7&#45;&gt;Node19 -->
<g id="edge19_Node000007_Node000019" class="edge">
<title>Node7&#45;&gt;Node19</title>
<g id="a_edge19_Node000007_Node000019"><a xlink:title=" ">
<path fill="none" stroke="#63b8ff" d="M1439.1,-252.12C1314.18,-251.7 908.28,-247.15 575.5,-207.5 568.5,-206.67 561.18,-205.56 553.97,-204.34"/>
<polygon fill="#63b8ff" stroke="#63b8ff" points="554.73,-200.92 544.27,-202.61 553.5,-207.81 554.73,-200.92"/>
</a>
</g>
</g>
<!-- Node20 -->
<g id="Node000020" class="node">
<title>Node20</title>
<g id="a_Node000020"><a xlink:title=" ">
<polygon fill="#e0e0e0" stroke="#999999" points="708.12,-207.5 584.88,-207.5 584.88,-177 708.12,-177 708.12,-207.5"/>
<text text-anchor="start" x="592.88" y="-194" font-family="Helvetica,sans-Serif" font-size="10.00">google/protobuf/repeated</text>
<text text-anchor="middle" x="646.5" y="-182.75" font-family="Helvetica,sans-Serif" font-size="10.00">_field.h</text>
</a>
</g>
</g>
<!-- Node7&#45;&gt;Node20 -->
<g id="edge20_Node000007_Node000020" class="edge">
<title>Node7&#45;&gt;Node20</title>
<g id="a_edge20_Node000007_Node000020"><a xlink:title=" ">
<path fill="none" stroke="#63b8ff" d="M1439.31,-251.8C1329.1,-250.46 1000.9,-243.63 719.51,-207.77"/>
<polygon fill="#63b8ff" stroke="#63b8ff" points="720.12,-204.32 709.76,-206.51 719.23,-211.26 720.12,-204.32"/>
</a>
</g>
</g>
<!-- Node21 -->
<g id="Node000021" class="node">
<title>Node21</title>
<g id="a_Node000021"><a xlink:title=" ">
<polygon fill="#e0e0e0" stroke="#999999" points="853,-207.5 726,-207.5 726,-177 853,-177 853,-207.5"/>
<text text-anchor="start" x="734" y="-194" font-family="Helvetica,sans-Serif" font-size="10.00">google/protobuf/extension</text>
<text text-anchor="middle" x="789.5" y="-182.75" font-family="Helvetica,sans-Serif" font-size="10.00">_set.h</text>
</a>
</g>
</g>
<!-- Node7&#45;&gt;Node21 -->
<g id="edge21_Node000007_Node000021" class="edge">
<title>Node7&#45;&gt;Node21</title>
<g id="a_edge21_Node000007_Node000021"><a xlink:title=" ">
<path fill="none" stroke="#63b8ff" d="M1439.19,-250.95C1343.86,-247.68 1088.18,-236.81 864.43,-207.63"/>
<polygon fill="#63b8ff" stroke="#63b8ff" points="865,-204.18 854.63,-206.34 864.08,-211.12 865,-204.18"/>
</a>
</g>
</g>
<!-- Node22 -->
<g id="Node000022" class="node">
<title>Node22</title>
<g id="a_Node000022"><a xlink:title=" ">
<polygon fill="#e0e0e0" stroke="#999999" points="983.5,-201.88 871.5,-201.88 871.5,-182.62 983.5,-182.62 983.5,-201.88"/>
<text text-anchor="middle" x="927.5" y="-188.38" font-family="Helvetica,sans-Serif" font-size="10.00">google/protobuf/map.h</text>
</a>
</g>
</g>
<!-- Node7&#45;&gt;Node22 -->
<g id="edge22_Node000007_Node000022" class="edge">
<title>Node7&#45;&gt;Node22</title>
<g id="a_edge22_Node000007_Node000022"><a xlink:title=" ">
<path fill="none" stroke="#63b8ff" d="M1439.26,-250.22C1357.09,-245.78 1157.74,-233.11 992.5,-207.5 987.21,-206.68 981.71,-205.69 976.25,-204.62"/>
<polygon fill="#63b8ff" stroke="#63b8ff" points="977.14,-201.23 966.64,-202.64 975.73,-208.09 977.14,-201.23"/>
</a>
</g>
</g>
<!-- Node23 -->
<g id="Node000023" class="node">
<title>Node23</title>
<g id="a_Node000023"><a xlink:title=" ">
<polygon fill="#e0e0e0" stroke="#999999" points="1105.75,-207.5 1001.25,-207.5 1001.25,-177 1105.75,-177 1105.75,-207.5"/>
<text text-anchor="start" x="1009.25" y="-194" font-family="Helvetica,sans-Serif" font-size="10.00">google/protobuf/map</text>
<text text-anchor="middle" x="1053.5" y="-182.75" font-family="Helvetica,sans-Serif" font-size="10.00">_entry.h</text>
</a>
</g>
</g>
<!-- Node7&#45;&gt;Node23 -->
<g id="edge23_Node000007_Node000023" class="edge">
<title>Node7&#45;&gt;Node23</title>
<g id="a_edge23_Node000007_Node000023"><a xlink:title=" ">
<path fill="none" stroke="#63b8ff" d="M1439.26,-248.72C1374.96,-242.71 1240.9,-228.98 1117.35,-207.7"/>
<polygon fill="#63b8ff" stroke="#63b8ff" points="1118.13,-204.28 1107.68,-206.01 1116.93,-211.18 1118.13,-204.28"/>
</a>
</g>
</g>
<!-- Node24 -->
<g id="Node000024" class="node">
<title>Node24</title>
<g id="a_Node000024"><a xlink:title=" ">
<polygon fill="#e0e0e0" stroke="#999999" points="1228.75,-207.5 1124.25,-207.5 1124.25,-177 1228.75,-177 1228.75,-207.5"/>
<text text-anchor="start" x="1132.25" y="-194" font-family="Helvetica,sans-Serif" font-size="10.00">google/protobuf/map</text>
<text text-anchor="middle" x="1176.5" y="-182.75" font-family="Helvetica,sans-Serif" font-size="10.00">_field_inl.h</text>
</a>
</g>
</g>
<!-- Node7&#45;&gt;Node24 -->
<g id="edge24_Node000007_Node000024" class="edge">
<title>Node7&#45;&gt;Node24</title>
<g id="a_edge24_Node000007_Node000024"><a xlink:title=" ">
<path fill="none" stroke="#63b8ff" d="M1439.32,-245.5C1394.28,-237.57 1316.86,-223.6 1240.49,-207.86"/>
<polygon fill="#63b8ff" stroke="#63b8ff" points="1241.22,-204.44 1230.71,-205.83 1239.8,-211.29 1241.22,-204.44"/>
</a>
</g>
</g>
<!-- Node25 -->
<g id="Node000025" class="node">
<title>Node25</title>
<g id="a_Node000025"><a xlink:title=" ">
<polygon fill="#e0e0e0" stroke="#999999" points="1371.88,-207.5 1247.12,-207.5 1247.12,-177 1371.88,-177 1371.88,-207.5"/>
<text text-anchor="start" x="1255.12" y="-194" font-family="Helvetica,sans-Serif" font-size="10.00">google/protobuf/unknown</text>
<text text-anchor="middle" x="1309.5" y="-182.75" font-family="Helvetica,sans-Serif" font-size="10.00">_field_set.h</text>
</a>
</g>
</g>
<!-- Node7&#45;&gt;Node25 -->
<g id="edge25_Node000007_Node000025" class="edge">
<title>Node7&#45;&gt;Node25</title>
<g id="a_edge25_Node000007_Node000025"><a xlink:title=" ">
<path fill="none" stroke="#63b8ff" d="M1451.62,-243.05C1427.85,-234.72 1391.89,-222.12 1362.1,-211.68"/>
<polygon fill="#63b8ff" stroke="#63b8ff" points="1363.45,-208.45 1352.86,-208.45 1361.14,-215.06 1363.45,-208.45"/>
</a>
</g>
</g>
<!-- Node26&#45;&gt;Node4 -->
<g id="edge34_Node000026_Node000004" class="edge">
<title>Node26&#45;&gt;Node4</title>
<g id="a_edge34_Node000026_Node000004"><a xlink:title=" ">
<path fill="none" stroke="#63b8ff" d="M2990.04,-249.4C2930.37,-244.48 2810.39,-232.26 2711.5,-207.5 2709.63,-207.03 2707.72,-206.5 2705.8,-205.94"/>
<polygon fill="#63b8ff" stroke="#63b8ff" points="2706.96,-202.63 2696.37,-202.83 2704.77,-209.28 2706.96,-202.63"/>
</a>
</g>
</g>
<!-- Node26&#45;&gt;Node5 -->
<g id="edge31_Node000026_Node000005" class="edge">
<title>Node26&#45;&gt;Node5</title>
<g id="a_edge31_Node000026_Node000005"><a xlink:title=" ">
<path fill="none" stroke="#63b8ff" d="M2989.92,-250.3C2926.15,-246.46 2800.45,-235.47 2767.5,-207.5 2733.72,-178.83 2730.94,-152.68 2744.5,-110.5 2747.66,-100.67 2753.87,-91.17 2759.99,-83.49"/>
<polygon fill="#63b8ff" stroke="#63b8ff" points="2762.59,-85.83 2766.46,-75.97 2757.28,-81.26 2762.59,-85.83"/>
</a>
</g>
</g>
<!-- Node27 -->
<g id="Node000027" class="node">
<title>Node27</title>
<g id="a_Node000027"><a xlink:title=" ">
<polygon fill="#e0e0e0" stroke="#999999" points="2961.12,-201.88 2915.88,-201.88 2915.88,-182.62 2961.12,-182.62 2961.12,-201.88"/>
<text text-anchor="middle" x="2938.5" y="-188.38" font-family="Helvetica,sans-Serif" font-size="10.00">math.h</text>
</a>
</g>
</g>
<!-- Node26&#45;&gt;Node27 -->
<g id="edge27_Node000026_Node000027" class="edge">
<title>Node26&#45;&gt;Node27</title>
<g id="a_edge27_Node000026_Node000027"><a xlink:title=" ">
<path fill="none" stroke="#63b8ff" d="M3013.98,-243.18C3000.13,-234.02 2978.32,-219.59 2961.7,-208.6"/>
<polygon fill="#63b8ff" stroke="#63b8ff" points="2963.68,-205.71 2953.41,-203.11 2959.82,-211.55 2963.68,-205.71"/>
</a>
</g>
</g>
<!-- Node28 -->
<g id="Node000028" class="node">
<title>Node28</title>
<g id="a_Node000028"><a xlink:title=" ">
<polygon fill="#e0e0e0" stroke="#999999" points="3099.75,-201.88 3055.25,-201.88 3055.25,-182.62 3099.75,-182.62 3099.75,-201.88"/>
<text text-anchor="middle" x="3077.5" y="-188.38" font-family="Helvetica,sans-Serif" font-size="10.00">stdio.h</text>
</a>
</g>
</g>
<!-- Node26&#45;&gt;Node28 -->
<g id="edge28_Node000026_Node000028" class="edge">
<title>Node26&#45;&gt;Node28</title>
<g id="a_edge28_Node000026_Node000028"><a xlink:title=" ">
<path fill="none" stroke="#63b8ff" d="M3035.09,-243.18C3042.36,-234.62 3053.53,-221.48 3062.58,-210.82"/>
<polygon fill="#63b8ff" stroke="#63b8ff" points="3065.05,-213.32 3068.85,-203.43 3059.71,-208.79 3065.05,-213.32"/>
</a>
</g>
</g>
<!-- Node29 -->
<g id="Node000029" class="node">
<title>Node29</title>
<g id="a_Node000029"><a xlink:title=" ">
<polygon fill="#e0e0e0" stroke="#999999" points="3165.25,-201.88 3117.75,-201.88 3117.75,-182.62 3165.25,-182.62 3165.25,-201.88"/>
<text text-anchor="middle" x="3141.5" y="-188.38" font-family="Helvetica,sans-Serif" font-size="10.00">string.h</text>
</a>
</g>
</g>
<!-- Node26&#45;&gt;Node29 -->
<g id="edge29_Node000026_Node000029" class="edge">
<title>Node26&#45;&gt;Node29</title>
<g id="a_edge29_Node000026_Node000029"><a xlink:title=" ">
<path fill="none" stroke="#63b8ff" d="M3044.81,-243.18C3063.14,-233.72 3092.34,-218.64 3113.86,-207.52"/>
<polygon fill="#63b8ff" stroke="#63b8ff" points="3115.4,-210.67 3122.68,-202.97 3112.19,-204.45 3115.4,-210.67"/>
</a>
</g>
</g>
<!-- Node30 -->
<g id="Node000030" class="node">
<title>Node30</title>
<g id="a_Node000030"><a xlink:title=" ">
<polygon fill="#e0e0e0" stroke="#999999" points="3031.88,-135.38 2997.12,-135.38 2997.12,-116.12 3031.88,-116.12 3031.88,-135.38"/>
<text text-anchor="middle" x="3014.5" y="-121.88" font-family="Helvetica,sans-Serif" font-size="10.00">map</text>
</a>
</g>
</g>
<!-- Node26&#45;&gt;Node30 -->
<g id="edge30_Node000026_Node000030" class="edge">
<title>Node26&#45;&gt;Node30</title>
<g id="a_edge30_Node000026_Node000030"><a xlink:title=" ">
<path fill="none" stroke="#63b8ff" d="M3026.57,-243.11C3024.49,-223.14 3019.48,-174.76 3016.61,-147.08"/>
<polygon fill="#63b8ff" stroke="#63b8ff" points="3020.1,-146.78 3015.58,-137.19 3013.13,-147.5 3020.1,-146.78"/>
</a>
</g>
</g>
<!-- Node31 -->
<g id="Node000031" class="node">
<title>Node31</title>
<g id="a_Node000031"><a xlink:title=" ">
<polygon fill="#e0e0e0" stroke="#999999" points="3269.25,-19.25 3215.75,-19.25 3215.75,0 3269.25,0 3269.25,-19.25"/>
<text text-anchor="middle" x="3242.5" y="-5.75" font-family="Helvetica,sans-Serif" font-size="10.00">iostream</text>
</a>
</g>
</g>
<!-- Node26&#45;&gt;Node31 -->
<g id="edge32_Node000026_Node000031" class="edge">
<title>Node26&#45;&gt;Node31</title>
<g id="a_edge32_Node000026_Node000031"><a xlink:title=" ">
<path fill="none" stroke="#63b8ff" d="M3065.13,-250.83C3236.26,-244.54 3935.34,-214.45 3995.5,-141 4089.35,-26.42 3446.69,-12.53 3280.87,-10.85"/>
<polygon fill="#63b8ff" stroke="#63b8ff" points="3281.09,-7.36 3271.06,-10.77 3281.03,-14.36 3281.09,-7.36"/>
</a>
</g>
</g>
<!-- Node32 -->
<g id="Node000032" class="node">
<title>Node32</title>
<g id="a_Node000032"><a xlink:title=" ">
<polygon fill="#e0e0e0" stroke="#999999" points="3234.12,-201.88 3182.88,-201.88 3182.88,-182.62 3234.12,-182.62 3234.12,-201.88"/>
<text text-anchor="middle" x="3208.5" y="-188.38" font-family="Helvetica,sans-Serif" font-size="10.00">sstream</text>
</a>
</g>
</g>
<!-- Node26&#45;&gt;Node32 -->
<g id="edge33_Node000026_Node000032" class="edge">
<title>Node26&#45;&gt;Node32</title>
<g id="a_edge33_Node000026_Node000032"><a xlink:title=" ">
<path fill="none" stroke="#63b8ff" d="M3060.8,-243.07C3090.81,-234.66 3135.98,-221.38 3174.5,-207.5 3175.45,-207.16 3176.41,-206.8 3177.38,-206.44"/>
<polygon fill="#63b8ff" stroke="#63b8ff" points="3178.35,-209.82 3186.37,-202.89 3175.78,-203.31 3178.35,-209.82"/>
</a>
</g>
</g>
<!-- Node33 -->
<g id="Node000033" class="node">
<title>Node33</title>
<g id="a_Node000033"><a xlink:title=" ">
<polygon fill="#e0e0e0" stroke="#999999" points="2799.12,-135.38 2753.88,-135.38 2753.88,-116.12 2799.12,-116.12 2799.12,-135.38"/>
<text text-anchor="middle" x="2776.5" y="-121.88" font-family="Helvetica,sans-Serif" font-size="10.00">chrono</text>
</a>
</g>
</g>
<!-- Node26&#45;&gt;Node33 -->
<g id="edge35_Node000026_Node000033" class="edge">
<title>Node26&#45;&gt;Node33</title>
<g id="a_edge35_Node000026_Node000033"><a xlink:title=" ">
<path fill="none" stroke="#63b8ff" d="M2990.08,-250.72C2928.43,-247.57 2809.6,-237.64 2782.5,-207.5 2767.91,-191.28 2768.81,-165.05 2771.77,-146.91"/>
<polygon fill="#63b8ff" stroke="#63b8ff" points="2775.15,-147.84 2773.69,-137.35 2768.29,-146.46 2775.15,-147.84"/>
</a>
</g>
</g>
<!-- Node34 -->
<g id="Node000034" class="node">
<title>Node34</title>
<g id="a_Node000034"><a xlink:title=" ">
<polygon fill="#e0e0e0" stroke="#999999" points="3280.9,-201.88 3252.1,-201.88 3252.1,-182.62 3280.9,-182.62 3280.9,-201.88"/>
<text text-anchor="middle" x="3266.5" y="-188.38" font-family="Helvetica,sans-Serif" font-size="10.00">list</text>
</a>
</g>
</g>
<!-- Node26&#45;&gt;Node34 -->
<g id="edge36_Node000026_Node000034" class="edge">
<title>Node26&#45;&gt;Node34</title>
<g id="a_edge36_Node000026_Node000034"><a xlink:title=" ">
<path fill="none" stroke="#63b8ff" d="M3064.95,-248.42C3108.95,-243.16 3183.56,-231.38 3243.5,-207.5 3243.61,-207.46 3243.72,-207.41 3243.83,-207.37"/>
<polygon fill="#63b8ff" stroke="#63b8ff" points="3245.16,-210.62 3252.44,-202.92 3241.95,-204.4 3245.16,-210.62"/>
</a>
</g>
</g>
<!-- Node35 -->
<g id="Node000035" class="node">
<title>Node35</title>
<g id="a_Node000035"><a xlink:href="IssueFactory_8hpp.html" target="_top" xlink:title=" ">
<polygon fill="white" stroke="#666666" points="2897.88,-201.88 2791.12,-201.88 2791.12,-182.62 2897.88,-182.62 2897.88,-201.88"/>
<text text-anchor="middle" x="2844.5" y="-188.38" font-family="Helvetica,sans-Serif" font-size="10.00">ers/IssueFactory.hpp</text>
</a>
</g>
</g>
<!-- Node26&#45;&gt;Node35 -->
<g id="edge37_Node000026_Node000035" class="edge">
<title>Node26&#45;&gt;Node35</title>
<g id="a_edge37_Node000026_Node000035"><a xlink:title=" ">
<path fill="none" stroke="#63b8ff" d="M2999.31,-243.05C2968.28,-233.07 2918.19,-216.96 2883.43,-205.77"/>
<polygon fill="#63b8ff" stroke="#63b8ff" points="2884.76,-202.52 2874.17,-202.79 2882.61,-209.19 2884.76,-202.52"/>
</a>
</g>
</g>
<!-- Node37 -->
<g id="Node000037" class="node">
<title>Node37</title>
<g id="a_Node000037"><a xlink:href="Severity_8hpp.html" target="_top" xlink:title=" ">
<polygon fill="white" stroke="#666666" points="2941.38,-135.38 2855.62,-135.38 2855.62,-116.12 2941.38,-116.12 2941.38,-135.38"/>
<text text-anchor="middle" x="2898.5" y="-121.88" font-family="Helvetica,sans-Serif" font-size="10.00">ers/Severity.hpp</text>
</a>
</g>
</g>
<!-- Node26&#45;&gt;Node37 -->
<g id="edge54_Node000026_Node000037" class="edge">
<title>Node26&#45;&gt;Node37</title>
<g id="a_edge54_Node000026_Node000037"><a xlink:title=" ">
<path fill="none" stroke="#63b8ff" d="M3021.97,-243.08C3012.6,-228.2 2992.46,-198.1 2970.5,-177 2956.39,-163.44 2938.33,-150.84 2923.82,-141.65"/>
<polygon fill="#63b8ff" stroke="#63b8ff" points="2926.08,-138.93 2915.73,-136.66 2922.4,-144.89 2926.08,-138.93"/>
</a>
</g>
</g>
<!-- Node38 -->
<g id="Node000038" class="node">
<title>Node38</title>
<g id="a_Node000038"><a xlink:href="LocalContext_8hpp.html" target="_top" xlink:title=" ">
<polygon fill="white" stroke="#666666" points="3406.25,-201.88 3298.75,-201.88 3298.75,-182.62 3406.25,-182.62 3406.25,-201.88"/>
<text text-anchor="middle" x="3352.5" y="-188.38" font-family="Helvetica,sans-Serif" font-size="10.00">ers/LocalContext.hpp</text>
</a>
</g>
</g>
<!-- Node26&#45;&gt;Node38 -->
<g id="edge46_Node000026_Node000038" class="edge">
<title>Node26&#45;&gt;Node38</title>
<g id="a_edge46_Node000026_Node000038"><a xlink:title=" ">
<path fill="none" stroke="#63b8ff" d="M3064.93,-246.4C3115.88,-238.46 3209.84,-223.28 3289.5,-207.5 3293.83,-206.64 3298.32,-205.71 3302.82,-204.75"/>
<polygon fill="#63b8ff" stroke="#63b8ff" points="3303.42,-208.2 3312.44,-202.64 3301.93,-201.36 3303.42,-208.2"/>
</a>
</g>
</g>
<!-- Node43 -->
<g id="Node000043" class="node">
<title>Node43</title>
<g id="a_Node000043"><a xlink:href="IssueDeclarationMacro_8hpp.html" target="_top" xlink:title=" ">
<polygon fill="white" stroke="#666666" points="3655.38,-207.5 3515.62,-207.5 3515.62,-177 3655.38,-177 3655.38,-207.5"/>
<text text-anchor="start" x="3523.62" y="-194" font-family="Helvetica,sans-Serif" font-size="10.00">ers/internal/IssueDeclaration</text>
<text text-anchor="middle" x="3585.5" y="-182.75" font-family="Helvetica,sans-Serif" font-size="10.00">Macro.hpp</text>
</a>
</g>
</g>
<!-- Node26&#45;&gt;Node43 -->
<g id="edge55_Node000026_Node000043" class="edge">
<title>Node26&#45;&gt;Node43</title>
<g id="a_edge55_Node000026_Node000043"><a xlink:title=" ">
<path fill="none" stroke="#63b8ff" d="M3064.98,-248.17C3154.31,-238.74 3381.46,-214.78 3504.06,-201.84"/>
<polygon fill="#63b8ff" stroke="#63b8ff" points="3504.15,-205.35 3513.73,-200.82 3503.42,-198.39 3504.15,-205.35"/>
</a>
</g>
</g>
<!-- Node35&#45;&gt;Node5 -->
<g id="edge39_Node000035_Node000005" class="edge">
<title>Node35&#45;&gt;Node5</title>
<g id="a_edge39_Node000035_Node000005"><a xlink:title=" ">
<path fill="none" stroke="#63b8ff" d="M2841.27,-182.48C2835.54,-167.35 2822.86,-135.53 2808.5,-110.5 2803.23,-101.31 2796.51,-91.7 2790.59,-83.75"/>
<polygon fill="#63b8ff" stroke="#63b8ff" points="2793.46,-81.75 2784.6,-75.94 2787.91,-86.01 2793.46,-81.75"/>
</a>
</g>
</g>
<!-- Node35&#45;&gt;Node30 -->
<g id="edge41_Node000035_Node000030" class="edge">
<title>Node35&#45;&gt;Node30</title>
<g id="a_edge41_Node000035_Node000030"><a xlink:title=" ">
<path fill="none" stroke="#63b8ff" d="M2871.66,-182.19C2899.87,-172.6 2945.15,-156.71 2983.5,-141 2984.46,-140.61 2985.43,-140.2 2986.41,-139.79"/>
<polygon fill="#63b8ff" stroke="#63b8ff" points="2987.79,-143 2995.52,-135.76 2984.96,-136.6 2987.79,-143"/>
</a>
</g>
</g>
<!-- Node35&#45;&gt;Node33 -->
<g id="edge38_Node000035_Node000033" class="edge">
<title>Node35&#45;&gt;Node33</title>
<g id="a_edge38_Node000035_Node000033"><a xlink:title=" ">
<path fill="none" stroke="#63b8ff" d="M2835.04,-182.28C2824.49,-172.27 2807.18,-155.85 2794.11,-143.45"/>
<polygon fill="#63b8ff" stroke="#63b8ff" points="2796.64,-141.03 2786.97,-136.68 2791.82,-146.11 2796.64,-141.03"/>
</a>
</g>
</g>
<!-- Node36 -->
<g id="Node000036" class="node">
<title>Node36</title>
<g id="a_Node000036"><a xlink:title=" ">
<polygon fill="#e0e0e0" stroke="#999999" points="2991,-74.5 2948,-74.5 2948,-55.25 2991,-55.25 2991,-74.5"/>
<text text-anchor="middle" x="2969.5" y="-61" font-family="Helvetica,sans-Serif" font-size="10.00">vector</text>
</a>
</g>
</g>
<!-- Node35&#45;&gt;Node36 -->
<g id="edge40_Node000035_Node000036" class="edge">
<title>Node35&#45;&gt;Node36</title>
<g id="a_edge40_Node000035_Node000036"><a xlink:title=" ">
<path fill="none" stroke="#63b8ff" d="M2882.23,-182.17C2905.15,-174.77 2933.24,-162 2950.5,-141 2963.3,-125.43 2967.62,-102.35 2969.01,-85.89"/>
<polygon fill="#63b8ff" stroke="#63b8ff" points="2972.48,-86.51 2969.51,-76.34 2965.49,-86.14 2972.48,-86.51"/>
</a>
</g>
</g>
<!-- Node35&#45;&gt;Node37 -->
<g id="edge42_Node000035_Node000037" class="edge">
<title>Node35&#45;&gt;Node37</title>
<g id="a_edge42_Node000035_Node000037"><a xlink:title=" ">
<path fill="none" stroke="#63b8ff" d="M2852.01,-182.28C2860.23,-172.46 2873.61,-156.48 2883.92,-144.17"/>
<polygon fill="#63b8ff" stroke="#63b8ff" points="2886.35,-146.72 2890.08,-136.8 2880.98,-142.22 2886.35,-146.72"/>
</a>
</g>
</g>
<!-- Node37&#45;&gt;Node5 -->
<g id="edge43_Node000037_Node000005" class="edge">
<title>Node37&#45;&gt;Node5</title>
<g id="a_edge43_Node000037_Node000005"><a xlink:title=" ">
<path fill="none" stroke="#63b8ff" d="M2879.7,-115.68C2859.86,-106.1 2828.31,-90.88 2805.32,-79.78"/>
<polygon fill="#63b8ff" stroke="#63b8ff" points="2807.01,-76.71 2796.48,-75.52 2803.96,-83.02 2807.01,-76.71"/>
</a>
</g>
</g>
<!-- Node37&#45;&gt;Node31 -->
<g id="edge45_Node000037_Node000031" class="edge">
<title>Node37&#45;&gt;Node31</title>
<g id="a_edge45_Node000037_Node000031"><a xlink:title=" ">
<path fill="none" stroke="#63b8ff" d="M2900.89,-115.76C2905.43,-100.55 2916.86,-69.97 2938.5,-55.25 2981.12,-26.27 3132.62,-15.61 3204.33,-12.13"/>
<polygon fill="#63b8ff" stroke="#63b8ff" points="3204.2,-15.64 3214.02,-11.68 3203.87,-8.65 3204.2,-15.64"/>
</a>
</g>
</g>
<!-- Node37&#45;&gt;Node36 -->
<g id="edge44_Node000037_Node000036" class="edge">
<title>Node37&#45;&gt;Node36</title>
<g id="a_edge44_Node000037_Node000036"><a xlink:title=" ">
<path fill="none" stroke="#63b8ff" d="M2909.28,-115.81C2920.02,-106.9 2936.75,-93.03 2949.85,-82.17"/>
<polygon fill="#63b8ff" stroke="#63b8ff" points="2951.99,-84.94 2957.45,-75.87 2947.52,-79.56 2951.99,-84.94"/>
</a>
</g>
</g>
<!-- Node39 -->
<g id="Node000039" class="node">
<title>Node39</title>
<g id="a_Node000039"><a xlink:title=" ">
<polygon fill="#e0e0e0" stroke="#999999" points="3114.88,-135.38 3050.12,-135.38 3050.12,-116.12 3114.88,-116.12 3114.88,-135.38"/>
<text text-anchor="middle" x="3082.5" y="-121.88" font-family="Helvetica,sans-Serif" font-size="10.00">sys/types.h</text>
</a>
</g>
</g>
<!-- Node38&#45;&gt;Node39 -->
<g id="edge47_Node000038_Node000039" class="edge">
<title>Node38&#45;&gt;Node39</title>
<g id="a_edge47_Node000038_Node000039"><a xlink:title=" ">
<path fill="none" stroke="#63b8ff" d="M3312.52,-182.15C3304.88,-180.43 3296.94,-178.65 3289.5,-177 3215.79,-160.67 3196.18,-161.43 3123.5,-141 3121.65,-140.48 3119.77,-139.92 3117.88,-139.34"/>
<polygon fill="#63b8ff" stroke="#63b8ff" points="3119.09,-136.06 3108.5,-136.3 3116.93,-142.72 3119.09,-136.06"/>
</a>
</g>
</g>
<!-- Node40 -->
<g id="Node000040" class="node">
<title>Node40</title>
<g id="a_Node000040"><a xlink:title=" ">
<polygon fill="#e0e0e0" stroke="#999999" points="3182.38,-135.38 3132.62,-135.38 3132.62,-116.12 3182.38,-116.12 3182.38,-135.38"/>
<text text-anchor="middle" x="3157.5" y="-121.88" font-family="Helvetica,sans-Serif" font-size="10.00">unistd.h</text>
</a>
</g>
</g>
<!-- Node38&#45;&gt;Node40 -->
<g id="edge48_Node000038_Node000040" class="edge">
<title>Node38&#45;&gt;Node40</title>
<g id="a_edge48_Node000038_Node000040"><a xlink:title=" ">
<path fill="none" stroke="#63b8ff" d="M3320.43,-182.21C3287.73,-172.77 3235.65,-157.1 3191.5,-141 3190.55,-140.65 3189.59,-140.3 3188.63,-139.93"/>
<polygon fill="#63b8ff" stroke="#63b8ff" points="3190.23,-136.8 3179.64,-136.36 3187.64,-143.31 3190.23,-136.8"/>
</a>
</g>
</g>
<!-- Node41 -->
<g id="Node000041" class="node">
<title>Node41</title>
<g id="a_Node000041"><a xlink:href="Context_8hpp.html" target="_top" xlink:title=" ">
<polygon fill="white" stroke="#666666" points="3284.25,-135.38 3200.75,-135.38 3200.75,-116.12 3284.25,-116.12 3284.25,-135.38"/>
<text text-anchor="middle" x="3242.5" y="-121.88" font-family="Helvetica,sans-Serif" font-size="10.00">ers/Context.hpp</text>
</a>
</g>
</g>
<!-- Node38&#45;&gt;Node41 -->
<g id="edge49_Node000038_Node000041" class="edge">
<title>Node38&#45;&gt;Node41</title>
<g id="a_edge49_Node000038_Node000041"><a xlink:title=" ">
<path fill="none" stroke="#63b8ff" d="M3337.2,-182.28C3319.25,-171.75 3289.19,-154.13 3267.76,-141.56"/>
<polygon fill="#63b8ff" stroke="#63b8ff" points="3269.72,-138.65 3259.33,-136.62 3266.18,-144.69 3269.72,-138.65"/>
</a>
</g>
</g>
<!-- Node41&#45;&gt;Node5 -->
<g id="edge50_Node000041_Node000005" class="edge">
<title>Node41&#45;&gt;Node5</title>
<g id="a_edge50_Node000041_Node000005"><a xlink:title=" ">
<path fill="none" stroke="#63b8ff" d="M3213.3,-115.7C3206.22,-113.75 3198.63,-111.87 3191.5,-110.5 3050.19,-83.35 2878.4,-71.47 2808.44,-67.51"/>
<polygon fill="#63b8ff" stroke="#63b8ff" points="2808.66,-64.01 2798.48,-66.96 2808.28,-71 2808.66,-64.01"/>
</a>
</g>
</g>
<!-- Node41&#45;&gt;Node36 -->
<g id="edge51_Node000041_Node000036" class="edge">
<title>Node41&#45;&gt;Node36</title>
<g id="a_edge51_Node000041_Node000036"><a xlink:title=" ">
<path fill="none" stroke="#63b8ff" d="M3211.31,-115.64C3204.79,-113.85 3197.94,-112.04 3191.5,-110.5 3124.93,-94.53 3046.21,-79.64 3002.67,-71.75"/>
<polygon fill="#63b8ff" stroke="#63b8ff" points="3003.31,-68.31 2992.85,-69.98 3002.07,-75.2 3003.31,-68.31"/>
</a>
</g>
</g>
<!-- Node42 -->
<g id="Node000042" class="node">
<title>Node42</title>
<g id="a_Node000042"><a xlink:href="ers_2include_2ers_2Configuration_8hpp.html" target="_top" xlink:title=" ">
<polygon fill="white" stroke="#666666" points="3295.88,-74.5 3189.12,-74.5 3189.12,-55.25 3295.88,-55.25 3295.88,-74.5"/>
<text text-anchor="middle" x="3242.5" y="-61" font-family="Helvetica,sans-Serif" font-size="10.00">ers/Configuration.hpp</text>
</a>
</g>
</g>
<!-- Node41&#45;&gt;Node42 -->
<g id="edge52_Node000041_Node000042" class="edge">
<title>Node41&#45;&gt;Node42</title>
<g id="a_edge52_Node000041_Node000042"><a xlink:title=" ">
<path fill="none" stroke="#63b8ff" d="M3242.5,-115.81C3242.5,-108.03 3242.5,-96.45 3242.5,-86.41"/>
<polygon fill="#63b8ff" stroke="#63b8ff" points="3246,-86.41 3242.5,-76.41 3239,-86.41 3246,-86.41"/>
</a>
</g>
</g>
<!-- Node42&#45;&gt;Node31 -->
<g id="edge53_Node000042_Node000031" class="edge">
<title>Node42&#45;&gt;Node31</title>
<g id="a_edge53_Node000042_Node000031"><a xlink:title=" ">
<path fill="none" stroke="#63b8ff" d="M3242.5,-55.08C3242.5,-48.57 3242.5,-39.42 3242.5,-31.12"/>
<polygon fill="#63b8ff" stroke="#63b8ff" points="3246,-31.12 3242.5,-21.12 3239,-31.12 3246,-31.12"/>
</a>
</g>
</g>
<!-- Node44 -->
<g id="Node000044" class="node">
<title>Node44</title>
<g id="a_Node000044"><a xlink:title=" ">
<polygon fill="#e0e0e0" stroke="#999999" points="3401.12,-141 3301.88,-141 3301.88,-110.5 3401.12,-110.5 3401.12,-141"/>
<text text-anchor="start" x="3309.88" y="-127.5" font-family="Helvetica,sans-Serif" font-size="10.00">boost/preprocessor</text>
<text text-anchor="middle" x="3351.5" y="-116.25" font-family="Helvetica,sans-Serif" font-size="10.00">/if.hpp</text>
</a>
</g>
</g>
<!-- Node43&#45;&gt;Node44 -->
<g id="edge56_Node000043_Node000044" class="edge">
<title>Node43&#45;&gt;Node44</title>
<g id="a_edge56_Node000043_Node000044"><a xlink:title=" ">
<path fill="none" stroke="#63b8ff" d="M3532.11,-176.53C3496.38,-166.69 3449.29,-153.7 3412.15,-143.47"/>
<polygon fill="#63b8ff" stroke="#63b8ff" points="3413.49,-140.21 3402.92,-140.92 3411.63,-146.95 3413.49,-140.21"/>
</a>
</g>
</g>
<!-- Node45 -->
<g id="Node000045" class="node">
<title>Node45</title>
<g id="a_Node000045"><a xlink:title=" ">
<polygon fill="#e0e0e0" stroke="#999999" points="3518.12,-141 3418.88,-141 3418.88,-110.5 3518.12,-110.5 3518.12,-141"/>
<text text-anchor="start" x="3426.88" y="-127.5" font-family="Helvetica,sans-Serif" font-size="10.00">boost/preprocessor</text>
<text text-anchor="middle" x="3468.5" y="-116.25" font-family="Helvetica,sans-Serif" font-size="10.00">/seq.hpp</text>
</a>
</g>
</g>
<!-- Node43&#45;&gt;Node45 -->
<g id="edge57_Node000043_Node000045" class="edge">
<title>Node43&#45;&gt;Node45</title>
<g id="a_edge57_Node000043_Node000045"><a xlink:title=" ">
<path fill="none" stroke="#63b8ff" d="M3558.95,-176.61C3542.94,-167.79 3522.33,-156.43 3504.83,-146.78"/>
<polygon fill="#63b8ff" stroke="#63b8ff" points="3506.72,-143.82 3496.27,-142.06 3503.34,-149.95 3506.72,-143.82"/>
</a>
</g>
</g>
<!-- Node46 -->
<g id="Node000046" class="node">
<title>Node46</title>
<g id="a_Node000046"><a xlink:title=" ">
<polygon fill="#e0e0e0" stroke="#999999" points="3635.12,-141 3535.88,-141 3535.88,-110.5 3635.12,-110.5 3635.12,-141"/>
<text text-anchor="start" x="3543.88" y="-127.5" font-family="Helvetica,sans-Serif" font-size="10.00">boost/preprocessor</text>
<text text-anchor="middle" x="3585.5" y="-116.25" font-family="Helvetica,sans-Serif" font-size="10.00">/tuple.hpp</text>
</a>
</g>
</g>
<!-- Node43&#45;&gt;Node46 -->
<g id="edge58_Node000043_Node000046" class="edge">
<title>Node43&#45;&gt;Node46</title>
<g id="a_edge58_Node000043_Node000046"><a xlink:title=" ">
<path fill="none" stroke="#63b8ff" d="M3585.5,-176.61C3585.5,-169.52 3585.5,-160.79 3585.5,-152.63"/>
<polygon fill="#63b8ff" stroke="#63b8ff" points="3589,-152.84 3585.5,-142.84 3582,-152.84 3589,-152.84"/>
</a>
</g>
</g>
<!-- Node47 -->
<g id="Node000047" class="node">
<title>Node47</title>
<g id="a_Node000047"><a xlink:title=" ">
<polygon fill="#e0e0e0" stroke="#999999" points="3752.12,-141 3652.88,-141 3652.88,-110.5 3752.12,-110.5 3752.12,-141"/>
<text text-anchor="start" x="3660.88" y="-127.5" font-family="Helvetica,sans-Serif" font-size="10.00">boost/preprocessor</text>
<text text-anchor="middle" x="3702.5" y="-116.25" font-family="Helvetica,sans-Serif" font-size="10.00">/logical.hpp</text>
</a>
</g>
</g>
<!-- Node43&#45;&gt;Node47 -->
<g id="edge59_Node000043_Node000047" class="edge">
<title>Node43&#45;&gt;Node47</title>
<g id="a_edge59_Node000043_Node000047"><a xlink:title=" ">
<path fill="none" stroke="#63b8ff" d="M3612.05,-176.61C3628.06,-167.79 3648.67,-156.43 3666.17,-146.78"/>
<polygon fill="#63b8ff" stroke="#63b8ff" points="3667.66,-149.95 3674.73,-142.06 3664.28,-143.82 3667.66,-149.95"/>
</a>
</g>
</g>
<!-- Node48 -->
<g id="Node000048" class="node">
<title>Node48</title>
<g id="a_Node000048"><a xlink:title=" ">
<polygon fill="#e0e0e0" stroke="#999999" points="3869.12,-141 3769.88,-141 3769.88,-110.5 3869.12,-110.5 3869.12,-141"/>
<text text-anchor="start" x="3777.88" y="-127.5" font-family="Helvetica,sans-Serif" font-size="10.00">boost/preprocessor</text>
<text text-anchor="middle" x="3819.5" y="-116.25" font-family="Helvetica,sans-Serif" font-size="10.00">/stringize.hpp</text>
</a>
</g>
</g>
<!-- Node43&#45;&gt;Node48 -->
<g id="edge60_Node000043_Node000048" class="edge">
<title>Node43&#45;&gt;Node48</title>
<g id="a_edge60_Node000043_Node000048"><a xlink:title=" ">
<path fill="none" stroke="#63b8ff" d="M3638.89,-176.53C3674.62,-166.69 3721.71,-153.7 3758.85,-143.47"/>
<polygon fill="#63b8ff" stroke="#63b8ff" points="3759.37,-146.95 3768.08,-140.92 3757.51,-140.21 3759.37,-146.95"/>
</a>
</g>
</g>
<!-- Node49 -->
<g id="Node000049" class="node">
<title>Node49</title>
<g id="a_Node000049"><a xlink:title=" ">
<polygon fill="#e0e0e0" stroke="#999999" points="3986.12,-141 3886.88,-141 3886.88,-110.5 3986.12,-110.5 3986.12,-141"/>
<text text-anchor="start" x="3894.88" y="-127.5" font-family="Helvetica,sans-Serif" font-size="10.00">boost/preprocessor</text>
<text text-anchor="middle" x="3936.5" y="-116.25" font-family="Helvetica,sans-Serif" font-size="10.00">/comparison.hpp</text>
</a>
</g>
</g>
<!-- Node43&#45;&gt;Node49 -->
<g id="edge61_Node000043_Node000049" class="edge">
<title>Node43&#45;&gt;Node49</title>
<g id="a_edge61_Node000043_Node000049"><a xlink:title=" ">
<path fill="none" stroke="#63b8ff" d="M3655.62,-180.66C3712.59,-171.73 3795.24,-158.03 3875.74,-141.5"/>
<polygon fill="#63b8ff" stroke="#63b8ff" points="3876,-145.02 3885.08,-139.56 3874.58,-138.17 3876,-145.02"/>
</a>
</g>
</g>
</g>
</svg>
