<?xml version="1.0" encoding="UTF-8" standalone="no"?>
<!DOCTYPE svg PUBLIC "-//W3C//DTD SVG 1.1//EN"
 "http://www.w3.org/Graphics/SVG/1.1/DTD/svg11.dtd">
<!-- Generated by graphviz version 9.0.0 (20230911.1827)
 -->
<!-- Title: /github/workspace/dev_area/sourcecode/wibmod/src/wibmod/WIB1/BUException/ExceptionBase.hh Pages: 1 -->
<svg width="620pt" height="116pt"
 viewBox="0.00 0.00 619.88 116.25" xmlns="http://www.w3.org/2000/svg" xmlns:xlink="http://www.w3.org/1999/xlink">
<g id="graph0" class="graph" transform="scale(1 1) rotate(0) translate(4 112.25)">
<title>/github/workspace/dev_area/sourcecode/wibmod/src/wibmod/WIB1/BUException/ExceptionBase.hh</title>
<!-- Node1 -->
<g id="Node000001" class="node">
<title>Node1</title>
<g id="a_Node000001"><a xlink:title=" ">
<polygon fill="#999999" stroke="#666666" points="363.38,-108.25 207.88,-108.25 207.88,-55.25 363.38,-55.25 363.38,-108.25"/>
<text text-anchor="start" x="215.88" y="-94.75" font-family="Helvetica,sans-Serif" font-size="10.00">/github/workspace/dev</text>
<text text-anchor="start" x="215.88" y="-83.5" font-family="Helvetica,sans-Serif" font-size="10.00">_area/sourcecode/wibmod</text>
<text text-anchor="start" x="215.88" y="-72.25" font-family="Helvetica,sans-Serif" font-size="10.00">/src/wibmod/WIB1/BUException</text>
<text text-anchor="middle" x="285.62" y="-61" font-family="Helvetica,sans-Serif" font-size="10.00">/ExceptionBase.hh</text>
</a>
</g>
</g>
<!-- Node2 -->
<g id="Node000002" class="node">
<title>Node2</title>
<g id="a_Node000002"><a xlink:title=" ">
<polygon fill="#e0e0e0" stroke="#999999" points="57.25,-19.25 0,-19.25 0,0 57.25,0 57.25,-19.25"/>
<text text-anchor="middle" x="28.62" y="-5.75" font-family="Helvetica,sans-Serif" font-size="10.00">exception</text>
</a>
</g>
</g>
<!-- Node1&#45;&gt;Node2 -->
<g id="edge1_Node000001_Node000002" class="edge">
<title>Node1&#45;&gt;Node2</title>
<g id="a_edge1_Node000001_Node000002"><a xlink:title=" ">
<path fill="none" stroke="#63b8ff" d="M207.47,-59.42C161.57,-46.9 105.48,-31.6 68.49,-21.5"/>
<polygon fill="#63b8ff" stroke="#63b8ff" points="69.69,-18.2 59.12,-18.95 67.85,-24.96 69.69,-18.2"/>
</a>
</g>
</g>
<!-- Node3 -->
<g id="Node000003" class="node">
<title>Node3</title>
<g id="a_Node000003"><a xlink:title=" ">
<polygon fill="#e0e0e0" stroke="#999999" points="122.38,-19.25 74.88,-19.25 74.88,0 122.38,0 122.38,-19.25"/>
<text text-anchor="middle" x="98.62" y="-5.75" font-family="Helvetica,sans-Serif" font-size="10.00">string.h</text>
</a>
</g>
</g>
<!-- Node1&#45;&gt;Node3 -->
<g id="edge2_Node000001_Node000003" class="edge">
<title>Node1&#45;&gt;Node3</title>
<g id="a_edge2_Node000001_Node000003"><a xlink:title=" ">
<path fill="none" stroke="#63b8ff" d="M216.52,-54.84C188.27,-44.24 156.82,-32.45 133.51,-23.71"/>
<polygon fill="#63b8ff" stroke="#63b8ff" points="134.79,-20.45 124.19,-20.21 132.33,-27 134.79,-20.45"/>
</a>
</g>
</g>
<!-- Node4 -->
<g id="Node000004" class="node">
<title>Node4</title>
<g id="a_Node000004"><a xlink:title=" ">
<polygon fill="#e0e0e0" stroke="#999999" points="180.62,-19.25 140.62,-19.25 140.62,0 180.62,0 180.62,-19.25"/>
<text text-anchor="middle" x="160.62" y="-5.75" font-family="Helvetica,sans-Serif" font-size="10.00">string</text>
</a>
</g>
</g>
<!-- Node1&#45;&gt;Node4 -->
<g id="edge3_Node000001_Node000004" class="edge">
<title>Node1&#45;&gt;Node4</title>
<g id="a_edge3_Node000001_Node000004"><a xlink:title=" ">
<path fill="none" stroke="#63b8ff" d="M239.43,-54.84C221.58,-44.82 201.81,-33.73 186.54,-25.17"/>
<polygon fill="#63b8ff" stroke="#63b8ff" points="188.52,-22.26 178.09,-20.42 185.1,-28.37 188.52,-22.26"/>
</a>
</g>
</g>
<!-- Node5 -->
<g id="Node000005" class="node">
<title>Node5</title>
<g id="a_Node000005"><a xlink:title=" ">
<polygon fill="#e0e0e0" stroke="#999999" points="245,-19.25 198.25,-19.25 198.25,0 245,0 245,-19.25"/>
<text text-anchor="middle" x="221.62" y="-5.75" font-family="Helvetica,sans-Serif" font-size="10.00">stdlib.h</text>
</a>
</g>
</g>
<!-- Node1&#45;&gt;Node5 -->
<g id="edge4_Node000001_Node000005" class="edge">
<title>Node1&#45;&gt;Node5</title>
<g id="a_edge4_Node000001_Node000005"><a xlink:title=" ">
<path fill="none" stroke="#63b8ff" d="M262.16,-55.04C253.97,-46.06 244.97,-36.21 237.54,-28.06"/>
<polygon fill="#63b8ff" stroke="#63b8ff" points="240.29,-25.88 230.96,-20.85 235.12,-30.6 240.29,-25.88"/>
</a>
</g>
</g>
<!-- Node6 -->
<g id="Node000006" class="node">
<title>Node6</title>
<g id="a_Node000006"><a xlink:title=" ">
<polygon fill="#e0e0e0" stroke="#999999" points="307.88,-19.25 263.38,-19.25 263.38,0 307.88,0 307.88,-19.25"/>
<text text-anchor="middle" x="285.62" y="-5.75" font-family="Helvetica,sans-Serif" font-size="10.00">stdio.h</text>
</a>
</g>
</g>
<!-- Node1&#45;&gt;Node6 -->
<g id="edge5_Node000001_Node000006" class="edge">
<title>Node1&#45;&gt;Node6</title>
<g id="a_edge5_Node000001_Node000006"><a xlink:title=" ">
<path fill="none" stroke="#63b8ff" d="M285.62,-55.04C285.62,-47.12 285.62,-38.52 285.62,-31.02"/>
<polygon fill="#63b8ff" stroke="#63b8ff" points="289.13,-31.25 285.63,-21.25 282.13,-31.25 289.13,-31.25"/>
</a>
</g>
</g>
<!-- Node7 -->
<g id="Node000007" class="node">
<title>Node7</title>
<g id="a_Node000007"><a xlink:title=" ">
<polygon fill="#e0e0e0" stroke="#999999" points="375.5,-19.25 325.75,-19.25 325.75,0 375.5,0 375.5,-19.25"/>
<text text-anchor="middle" x="350.62" y="-5.75" font-family="Helvetica,sans-Serif" font-size="10.00">unistd.h</text>
</a>
</g>
</g>
<!-- Node1&#45;&gt;Node7 -->
<g id="edge6_Node000001_Node000007" class="edge">
<title>Node1&#45;&gt;Node7</title>
<g id="a_edge6_Node000001_Node000007"><a xlink:title=" ">
<path fill="none" stroke="#63b8ff" d="M309.46,-55.04C317.78,-46.06 326.91,-36.21 334.46,-28.06"/>
<polygon fill="#63b8ff" stroke="#63b8ff" points="336.92,-30.56 341.15,-20.85 331.79,-25.8 336.92,-30.56"/>
</a>
</g>
</g>
<!-- Node8 -->
<g id="Node000008" class="node">
<title>Node8</title>
<g id="a_Node000008"><a xlink:title=" ">
<polygon fill="#e0e0e0" stroke="#999999" points="465.38,-19.25 393.88,-19.25 393.88,0 465.38,0 465.38,-19.25"/>
<text text-anchor="middle" x="429.62" y="-5.75" font-family="Helvetica,sans-Serif" font-size="10.00">sys/syscall.h</text>
</a>
</g>
</g>
<!-- Node1&#45;&gt;Node8 -->
<g id="edge7_Node000001_Node000008" class="edge">
<title>Node1&#45;&gt;Node8</title>
<g id="a_edge7_Node000001_Node000008"><a xlink:title=" ">
<path fill="none" stroke="#63b8ff" d="M338.84,-54.84C359.8,-44.63 383.05,-33.3 400.78,-24.67"/>
<polygon fill="#63b8ff" stroke="#63b8ff" points="402.21,-27.87 409.67,-20.34 399.14,-21.58 402.21,-27.87"/>
</a>
</g>
</g>
<!-- Node9 -->
<g id="Node000009" class="node">
<title>Node9</title>
<g id="a_Node000009"><a xlink:title=" ">
<polygon fill="#e0e0e0" stroke="#999999" points="543.38,-19.25 483.88,-19.25 483.88,0 543.38,0 543.38,-19.25"/>
<text text-anchor="middle" x="513.62" y="-5.75" font-family="Helvetica,sans-Serif" font-size="10.00">execinfo.h</text>
</a>
</g>
</g>
<!-- Node1&#45;&gt;Node9 -->
<g id="edge8_Node000001_Node000009" class="edge">
<title>Node1&#45;&gt;Node9</title>
<g id="a_edge8_Node000001_Node000009"><a xlink:title=" ">
<path fill="none" stroke="#63b8ff" d="M363.77,-56.72C400.58,-45.39 442.94,-32.37 473.21,-23.06"/>
<polygon fill="#63b8ff" stroke="#63b8ff" points="474.2,-26.41 482.73,-20.13 472.15,-19.72 474.2,-26.41"/>
</a>
</g>
</g>
<!-- Node10 -->
<g id="Node000010" class="node">
<title>Node10</title>
<g id="a_Node000010"><a xlink:title=" ">
<polygon fill="#e0e0e0" stroke="#999999" points="611.88,-19.25 561.38,-19.25 561.38,0 611.88,0 611.88,-19.25"/>
<text text-anchor="middle" x="586.62" y="-5.75" font-family="Helvetica,sans-Serif" font-size="10.00">cxxabi.h</text>
</a>
</g>
</g>
<!-- Node1&#45;&gt;Node10 -->
<g id="edge9_Node000001_Node000010" class="edge">
<title>Node1&#45;&gt;Node10</title>
<g id="a_edge9_Node000001_Node000010"><a xlink:title=" ">
<path fill="none" stroke="#63b8ff" d="M363.72,-63.24C414.3,-51.79 481.89,-36.28 550.07,-19.83"/>
<polygon fill="#63b8ff" stroke="#63b8ff" points="550.65,-23.29 559.55,-17.54 549.01,-16.49 550.65,-23.29"/>
</a>
</g>
</g>
</g>
</svg>
