<?xml version="1.0" encoding="UTF-8" standalone="no"?>
<!DOCTYPE svg PUBLIC "-//W3C//DTD SVG 1.1//EN"
 "http://www.w3.org/Graphics/SVG/1.1/DTD/svg11.dtd">
<!-- Generated by graphviz version 9.0.0 (20230911.1827)
 -->
<!-- Title: /github/workspace/dev_area/sourcecode/timing/include/timing/FLCmdGeneratorNode.hpp Pages: 1 -->
<svg width="1282pt" height="528pt"
 viewBox="0.00 0.00 1281.62 527.50" xmlns="http://www.w3.org/2000/svg" xmlns:xlink="http://www.w3.org/1999/xlink">
<g id="graph0" class="graph" transform="scale(1 1) rotate(0) translate(4 523.5)">
<title>/github/workspace/dev_area/sourcecode/timing/include/timing/FLCmdGeneratorNode.hpp</title>
<!-- Node1 -->
<g id="Node000001" class="node">
<title>Node1</title>
<g id="a_Node000001"><a xlink:title=" ">
<polygon fill="#999999" stroke="#666666" points="777.62,-519.5 620.62,-519.5 620.62,-466.5 777.62,-466.5 777.62,-519.5"/>
<text text-anchor="start" x="628.62" y="-506" font-family="Helvetica,sans-Serif" font-size="10.00">/github/workspace/dev</text>
<text text-anchor="start" x="628.62" y="-494.75" font-family="Helvetica,sans-Serif" font-size="10.00">_area/sourcecode/timing</text>
<text text-anchor="start" x="628.62" y="-483.5" font-family="Helvetica,sans-Serif" font-size="10.00">/include/timing/FLCmdGenerator</text>
<text text-anchor="middle" x="699.12" y="-472.25" font-family="Helvetica,sans-Serif" font-size="10.00">Node.hpp</text>
</a>
</g>
</g>
<!-- Node2 -->
<g id="Node000002" class="node">
<title>Node2</title>
<g id="a_Node000002"><a xlink:href="MasterNode_8hpp.html" target="_top" xlink:title=" ">
<polygon fill="white" stroke="#666666" points="504.75,-352.75 351.5,-352.75 351.5,-311 504.75,-311 504.75,-352.75"/>
<text text-anchor="start" x="359.5" y="-339.25" font-family="Helvetica,sans-Serif" font-size="10.00">/github/workspace/dev</text>
<text text-anchor="start" x="359.5" y="-328" font-family="Helvetica,sans-Serif" font-size="10.00">_area/sourcecode/timing</text>
<text text-anchor="middle" x="428.12" y="-316.75" font-family="Helvetica,sans-Serif" font-size="10.00">/include/timing/MasterNode.hpp</text>
</a>
</g>
</g>
<!-- Node1&#45;&gt;Node2 -->
<g id="edge1_Node000001_Node000002" class="edge">
<title>Node1&#45;&gt;Node2</title>
<g id="a_edge1_Node000001_Node000002"><a xlink:title=" ">
<path fill="none" stroke="#63b8ff" d="M609.1,-477.27C572.54,-468.13 531.41,-453.55 499.12,-430.5 470.81,-410.28 449.37,-375.24 437.78,-353.09"/>
<polygon fill="#63b8ff" stroke="#63b8ff" points="608.27,-480.67 618.81,-479.58 609.9,-473.86 608.27,-480.67"/>
</a>
</g>
</g>
<!-- Node6 -->
<g id="Node000006" class="node">
<title>Node6</title>
<g id="a_Node000006"><a xlink:href="MasterNodeInterface_8hpp.html" target="_top" xlink:title=" ">
<polygon fill="white" stroke="#666666" points="699.88,-430.5 508.38,-430.5 508.38,-388.75 699.88,-388.75 699.88,-430.5"/>
<text text-anchor="start" x="516.38" y="-417" font-family="Helvetica,sans-Serif" font-size="10.00">/github/workspace/dev</text>
<text text-anchor="start" x="516.38" y="-405.75" font-family="Helvetica,sans-Serif" font-size="10.00">_area/sourcecode/timing</text>
<text text-anchor="middle" x="604.12" y="-394.5" font-family="Helvetica,sans-Serif" font-size="10.00">/include/timing/MasterNodeInterface.hpp</text>
</a>
</g>
</g>
<!-- Node1&#45;&gt;Node6 -->
<g id="edge5_Node000001_Node000006" class="edge">
<title>Node1&#45;&gt;Node6</title>
<g id="a_edge5_Node000001_Node000006"><a xlink:title=" ">
<path fill="none" stroke="#63b8ff" d="M660.19,-458.65C649.23,-449.26 637.63,-439.32 627.85,-430.94"/>
<polygon fill="#63b8ff" stroke="#63b8ff" points="657.78,-461.2 667.66,-465.04 662.34,-455.88 657.78,-461.2"/>
</a>
</g>
</g>
<!-- Node26 -->
<g id="Node000026" class="node">
<title>Node26</title>
<g id="a_Node000026"><a xlink:href="FLCmdGeneratorNode_8cpp.html" target="_top" xlink:title=" ">
<polygon fill="white" stroke="#666666" points="870,-430.5 718.25,-430.5 718.25,-388.75 870,-388.75 870,-430.5"/>
<text text-anchor="start" x="726.25" y="-417" font-family="Helvetica,sans-Serif" font-size="10.00">/github/workspace/dev</text>
<text text-anchor="start" x="726.25" y="-405.75" font-family="Helvetica,sans-Serif" font-size="10.00">_area/sourcecode/timing</text>
<text text-anchor="middle" x="794.12" y="-394.5" font-family="Helvetica,sans-Serif" font-size="10.00">/src/FLCmdGeneratorNode.cpp</text>
</a>
</g>
</g>
<!-- Node1&#45;&gt;Node26 -->
<g id="edge31_Node000001_Node000026" class="edge">
<title>Node1&#45;&gt;Node26</title>
<g id="a_edge31_Node000001_Node000026"><a xlink:title=" ">
<path fill="none" stroke="#63b8ff" d="M738.06,-458.65C749.02,-449.26 760.62,-439.32 770.4,-430.94"/>
<polygon fill="#63b8ff" stroke="#63b8ff" points="735.91,-455.88 730.59,-465.04 740.47,-461.2 735.91,-455.88"/>
</a>
</g>
</g>
<!-- Node27 -->
<g id="Node000027" class="node">
<title>Node27</title>
<g id="a_Node000027"><a xlink:href="HSINode_8cpp.html" target="_top" xlink:title=" ">
<polygon fill="white" stroke="#666666" points="1010.38,-430.5 887.88,-430.5 887.88,-388.75 1010.38,-388.75 1010.38,-430.5"/>
<text text-anchor="start" x="895.88" y="-417" font-family="Helvetica,sans-Serif" font-size="10.00">/github/workspace/dev</text>
<text text-anchor="start" x="895.88" y="-405.75" font-family="Helvetica,sans-Serif" font-size="10.00">_area/sourcecode/timing</text>
<text text-anchor="middle" x="949.12" y="-394.5" font-family="Helvetica,sans-Serif" font-size="10.00">/src/HSINode.cpp</text>
</a>
</g>
</g>
<!-- Node1&#45;&gt;Node27 -->
<g id="edge32_Node000001_Node000027" class="edge">
<title>Node1&#45;&gt;Node27</title>
<g id="a_edge32_Node000001_Node000027"><a xlink:title=" ">
<path fill="none" stroke="#63b8ff" d="M788.82,-462.8C821.5,-452.17 857.69,-440.39 887.4,-430.72"/>
<polygon fill="#63b8ff" stroke="#63b8ff" points="787.75,-459.47 779.32,-465.9 789.91,-466.13 787.75,-459.47"/>
</a>
</g>
</g>
<!-- Node3 -->
<g id="Node000003" class="node">
<title>Node3</title>
<g id="a_Node000003"><a xlink:href="definitions_8cpp.html" target="_top" xlink:title=" ">
<polygon fill="white" stroke="#666666" points="383.5,-275 258.75,-275 258.75,-233.25 383.5,-233.25 383.5,-275"/>
<text text-anchor="start" x="266.75" y="-261.5" font-family="Helvetica,sans-Serif" font-size="10.00">/github/workspace/dev</text>
<text text-anchor="start" x="266.75" y="-250.25" font-family="Helvetica,sans-Serif" font-size="10.00">_area/sourcecode/timing</text>
<text text-anchor="middle" x="321.12" y="-239" font-family="Helvetica,sans-Serif" font-size="10.00">/pybindsrc/definitions.cpp</text>
</a>
</g>
</g>
<!-- Node2&#45;&gt;Node3 -->
<g id="edge2_Node000002_Node000003" class="edge">
<title>Node2&#45;&gt;Node3</title>
<g id="a_edge2_Node000002_Node000003"><a xlink:title=" ">
<path fill="none" stroke="#63b8ff" d="M390.11,-303.96C376.87,-294.59 362.24,-284.23 349.88,-275.48"/>
<polygon fill="#63b8ff" stroke="#63b8ff" points="388.03,-306.78 398.22,-309.7 392.08,-301.07 388.03,-306.78"/>
</a>
</g>
</g>
<!-- Node4 -->
<g id="Node000004" class="node">
<title>Node4</title>
<g id="a_Node000004"><a xlink:href="master_8cpp.html" target="_top" xlink:title=" ">
<polygon fill="white" stroke="#666666" points="524.38,-275 401.88,-275 401.88,-233.25 524.38,-233.25 524.38,-275"/>
<text text-anchor="start" x="409.88" y="-261.5" font-family="Helvetica,sans-Serif" font-size="10.00">/github/workspace/dev</text>
<text text-anchor="start" x="409.88" y="-250.25" font-family="Helvetica,sans-Serif" font-size="10.00">_area/sourcecode/timing</text>
<text text-anchor="middle" x="463.12" y="-239" font-family="Helvetica,sans-Serif" font-size="10.00">/pybindsrc/master.cpp</text>
</a>
</g>
</g>
<!-- Node2&#45;&gt;Node4 -->
<g id="edge3_Node000002_Node000004" class="edge">
<title>Node2&#45;&gt;Node4</title>
<g id="a_edge3_Node000002_Node000004"><a xlink:title=" ">
<path fill="none" stroke="#63b8ff" d="M442.22,-300.37C446.09,-292 450.19,-283.13 453.72,-275.48"/>
<polygon fill="#63b8ff" stroke="#63b8ff" points="439.16,-298.66 438.14,-309.2 445.51,-301.59 439.16,-298.66"/>
</a>
</g>
</g>
<!-- Node5 -->
<g id="Node000005" class="node">
<title>Node5</title>
<g id="a_Node000005"><a xlink:href="MasterNode_8cpp.html" target="_top" xlink:title=" ">
<polygon fill="white" stroke="#666666" points="240.38,-275 117.88,-275 117.88,-233.25 240.38,-233.25 240.38,-275"/>
<text text-anchor="start" x="125.88" y="-261.5" font-family="Helvetica,sans-Serif" font-size="10.00">/github/workspace/dev</text>
<text text-anchor="start" x="125.88" y="-250.25" font-family="Helvetica,sans-Serif" font-size="10.00">_area/sourcecode/timing</text>
<text text-anchor="middle" x="179.12" y="-239" font-family="Helvetica,sans-Serif" font-size="10.00">/src/MasterNode.cpp</text>
</a>
</g>
</g>
<!-- Node2&#45;&gt;Node5 -->
<g id="edge4_Node000002_Node000005" class="edge">
<title>Node2&#45;&gt;Node5</title>
<g id="a_edge4_Node000002_Node000005"><a xlink:title=" ">
<path fill="none" stroke="#63b8ff" d="M350.6,-307.29C315.14,-296.5 273.73,-283.9 240.48,-273.79"/>
<polygon fill="#63b8ff" stroke="#63b8ff" points="349.36,-310.57 359.95,-310.13 351.4,-303.88 349.36,-310.57"/>
</a>
</g>
</g>
<!-- Node6&#45;&gt;Node2 -->
<g id="edge29_Node000006_Node000002" class="edge">
<title>Node6&#45;&gt;Node2</title>
<g id="a_edge29_Node000006_Node000002"><a xlink:title=" ">
<path fill="none" stroke="#63b8ff" d="M546.62,-383.88C523.57,-373.95 497.34,-362.66 475.42,-353.23"/>
<polygon fill="#63b8ff" stroke="#63b8ff" points="545,-386.99 555.57,-387.73 547.77,-380.56 545,-386.99"/>
</a>
</g>
</g>
<!-- Node7 -->
<g id="Node000007" class="node">
<title>Node7</title>
<g id="a_Node000007"><a xlink:href="MasterDesignInterface_8hpp.html" target="_top" xlink:title=" ">
<polygon fill="white" stroke="#666666" points="721.25,-352.75 523,-352.75 523,-311 721.25,-311 721.25,-352.75"/>
<text text-anchor="start" x="531" y="-339.25" font-family="Helvetica,sans-Serif" font-size="10.00">/github/workspace/dev</text>
<text text-anchor="start" x="531" y="-328" font-family="Helvetica,sans-Serif" font-size="10.00">_area/sourcecode/timing</text>
<text text-anchor="middle" x="622.12" y="-316.75" font-family="Helvetica,sans-Serif" font-size="10.00">/include/timing/MasterDesignInterface.hpp</text>
</a>
</g>
</g>
<!-- Node6&#45;&gt;Node7 -->
<g id="edge6_Node000006_Node000007" class="edge">
<title>Node6&#45;&gt;Node7</title>
<g id="a_edge6_Node000006_Node000007"><a xlink:title=" ">
<path fill="none" stroke="#63b8ff" d="M611.57,-377.28C613.5,-369.16 615.53,-360.62 617.29,-353.23"/>
<polygon fill="#63b8ff" stroke="#63b8ff" points="608.21,-376.31 609.3,-386.85 615.02,-377.93 608.21,-376.31"/>
</a>
</g>
</g>
<!-- Node25 -->
<g id="Node000025" class="node">
<title>Node25</title>
<g id="a_Node000025"><a xlink:href="MasterNodeInterface_8cpp.html" target="_top" xlink:title=" ">
<polygon fill="white" stroke="#666666" points="884.62,-352.75 739.62,-352.75 739.62,-311 884.62,-311 884.62,-352.75"/>
<text text-anchor="start" x="747.62" y="-339.25" font-family="Helvetica,sans-Serif" font-size="10.00">/github/workspace/dev</text>
<text text-anchor="start" x="747.62" y="-328" font-family="Helvetica,sans-Serif" font-size="10.00">_area/sourcecode/timing</text>
<text text-anchor="middle" x="812.12" y="-316.75" font-family="Helvetica,sans-Serif" font-size="10.00">/src/MasterNodeInterface.cpp</text>
</a>
</g>
</g>
<!-- Node6&#45;&gt;Node25 -->
<g id="edge30_Node000006_Node000025" class="edge">
<title>Node6&#45;&gt;Node25</title>
<g id="a_edge30_Node000006_Node000025"><a xlink:title=" ">
<path fill="none" stroke="#63b8ff" d="M670.62,-384.41C698.21,-374.36 729.86,-362.83 756.23,-353.23"/>
<polygon fill="#63b8ff" stroke="#63b8ff" points="669.49,-381.1 661.29,-387.81 671.88,-387.67 669.49,-381.1"/>
</a>
</g>
</g>
<!-- Node8 -->
<g id="Node000008" class="node">
<title>Node8</title>
<g id="a_Node000008"><a xlink:href="MasterDesign_8hpp.html" target="_top" xlink:title=" ">
<polygon fill="white" stroke="#666666" points="702.12,-275 542.12,-275 542.12,-233.25 702.12,-233.25 702.12,-275"/>
<text text-anchor="start" x="550.12" y="-261.5" font-family="Helvetica,sans-Serif" font-size="10.00">/github/workspace/dev</text>
<text text-anchor="start" x="550.12" y="-250.25" font-family="Helvetica,sans-Serif" font-size="10.00">_area/sourcecode/timing</text>
<text text-anchor="middle" x="622.12" y="-239" font-family="Helvetica,sans-Serif" font-size="10.00">/include/timing/MasterDesign.hpp</text>
</a>
</g>
</g>
<!-- Node7&#45;&gt;Node8 -->
<g id="edge7_Node000007_Node000008" class="edge">
<title>Node7&#45;&gt;Node8</title>
<g id="a_edge7_Node000007_Node000008"><a xlink:title=" ">
<path fill="none" stroke="#63b8ff" d="M622.12,-299.25C622.12,-291.21 622.12,-282.79 622.12,-275.48"/>
<polygon fill="#63b8ff" stroke="#63b8ff" points="618.63,-299.06 622.13,-309.06 625.63,-299.06 618.63,-299.06"/>
</a>
</g>
</g>
<!-- Node24 -->
<g id="Node000024" class="node">
<title>Node24</title>
<g id="a_Node000024"><a xlink:href="sourcecode_2timinglibs_2src_2TimingHardwareManagerBase_8hpp.html" target="_top" xlink:title=" ">
<polygon fill="white" stroke="#666666" points="937.5,-275 752.75,-275 752.75,-233.25 937.5,-233.25 937.5,-275"/>
<text text-anchor="start" x="760.75" y="-261.5" font-family="Helvetica,sans-Serif" font-size="10.00">/github/workspace/dev</text>
<text text-anchor="start" x="760.75" y="-250.25" font-family="Helvetica,sans-Serif" font-size="10.00">_area/sourcecode/timinglibs</text>
<text text-anchor="middle" x="845.12" y="-239" font-family="Helvetica,sans-Serif" font-size="10.00">/src/TimingHardwareManagerBase.hpp</text>
</a>
</g>
</g>
<!-- Node7&#45;&gt;Node24 -->
<g id="edge27_Node000007_Node000024" class="edge">
<title>Node7&#45;&gt;Node24</title>
<g id="a_edge27_Node000007_Node000024"><a xlink:title=" ">
<path fill="none" stroke="#63b8ff" d="M692.63,-306.93C722.39,-296.82 756.68,-285.17 785.2,-275.48"/>
<polygon fill="#63b8ff" stroke="#63b8ff" points="691.66,-303.56 683.32,-310.09 693.91,-310.19 691.66,-303.56"/>
</a>
</g>
</g>
<!-- Node9 -->
<g id="Node000009" class="node">
<title>Node9</title>
<g id="a_Node000009"><a xlink:href="BoreasDesign_8hpp.html" target="_top" xlink:title=" ">
<polygon fill="white" stroke="#666666" points="329.5,-197.25 168.75,-197.25 168.75,-155.5 329.5,-155.5 329.5,-197.25"/>
<text text-anchor="start" x="176.75" y="-183.75" font-family="Helvetica,sans-Serif" font-size="10.00">/github/workspace/dev</text>
<text text-anchor="start" x="176.75" y="-172.5" font-family="Helvetica,sans-Serif" font-size="10.00">_area/sourcecode/timing</text>
<text text-anchor="middle" x="249.12" y="-161.25" font-family="Helvetica,sans-Serif" font-size="10.00">/include/timing/BoreasDesign.hpp</text>
</a>
</g>
</g>
<!-- Node8&#45;&gt;Node9 -->
<g id="edge8_Node000008_Node000009" class="edge">
<title>Node8&#45;&gt;Node9</title>
<g id="a_edge8_Node000008_Node000009"><a xlink:title=" ">
<path fill="none" stroke="#63b8ff" d="M530.99,-232.86C444.88,-215.55 421.02,-214.15 338.12,-197.25 335.33,-196.68 332.49,-196.09 329.63,-195.49"/>
<polygon fill="#63b8ff" stroke="#63b8ff" points="530.12,-236.25 540.62,-234.81 531.51,-229.39 530.12,-236.25"/>
</a>
</g>
</g>
<!-- Node12 -->
<g id="Node000012" class="node">
<title>Node12</title>
<g id="a_Node000012"><a xlink:href="GaiaDesign_8hpp.html" target="_top" xlink:title=" ">
<polygon fill="white" stroke="#666666" points="150.25,-197.25 0,-197.25 0,-155.5 150.25,-155.5 150.25,-197.25"/>
<text text-anchor="start" x="8" y="-183.75" font-family="Helvetica,sans-Serif" font-size="10.00">/github/workspace/dev</text>
<text text-anchor="start" x="8" y="-172.5" font-family="Helvetica,sans-Serif" font-size="10.00">_area/sourcecode/timing</text>
<text text-anchor="middle" x="75.12" y="-161.25" font-family="Helvetica,sans-Serif" font-size="10.00">/include/timing/GaiaDesign.hpp</text>
</a>
</g>
</g>
<!-- Node8&#45;&gt;Node12 -->
<g id="edge11_Node000008_Node000012" class="edge">
<title>Node8&#45;&gt;Node12</title>
<g id="a_edge11_Node000008_Node000012"><a xlink:title=" ">
<path fill="none" stroke="#63b8ff" d="M530.7,-232.97C366.7,-207.77 320.94,-223.69 160.12,-197.25 156.98,-196.73 153.79,-196.17 150.56,-195.57"/>
<polygon fill="#63b8ff" stroke="#63b8ff" points="529.76,-236.37 540.19,-234.46 530.85,-229.45 529.76,-236.37"/>
</a>
</g>
</g>
<!-- Node14 -->
<g id="Node000014" class="node">
<title>Node14</title>
<g id="a_Node000014"><a xlink:href="KerberosDesign_8hpp.html" target="_top" xlink:title=" ">
<polygon fill="white" stroke="#666666" points="516.62,-197.25 347.62,-197.25 347.62,-155.5 516.62,-155.5 516.62,-197.25"/>
<text text-anchor="start" x="355.62" y="-183.75" font-family="Helvetica,sans-Serif" font-size="10.00">/github/workspace/dev</text>
<text text-anchor="start" x="355.62" y="-172.5" font-family="Helvetica,sans-Serif" font-size="10.00">_area/sourcecode/timing</text>
<text text-anchor="middle" x="432.12" y="-161.25" font-family="Helvetica,sans-Serif" font-size="10.00">/include/timing/KerberosDesign.hpp</text>
</a>
</g>
</g>
<!-- Node8&#45;&gt;Node14 -->
<g id="edge14_Node000008_Node000014" class="edge">
<title>Node8&#45;&gt;Node14</title>
<g id="a_edge14_Node000008_Node000014"><a xlink:title=" ">
<path fill="none" stroke="#63b8ff" d="M560.72,-228.64C535.67,-218.66 507.05,-207.25 483.18,-197.73"/>
<polygon fill="#63b8ff" stroke="#63b8ff" points="559.22,-231.81 569.8,-232.26 561.81,-225.31 559.22,-231.81"/>
</a>
</g>
</g>
<!-- Node16 -->
<g id="Node000016" class="node">
<title>Node16</title>
<g id="a_Node000016"><a xlink:href="MasterMuxDesign_8hpp.html" target="_top" xlink:title=" ">
<polygon fill="white" stroke="#666666" points="1085.12,-197.25 907.12,-197.25 907.12,-155.5 1085.12,-155.5 1085.12,-197.25"/>
<text text-anchor="start" x="915.12" y="-183.75" font-family="Helvetica,sans-Serif" font-size="10.00">/github/workspace/dev</text>
<text text-anchor="start" x="915.12" y="-172.5" font-family="Helvetica,sans-Serif" font-size="10.00">_area/sourcecode/timing</text>
<text text-anchor="middle" x="996.12" y="-161.25" font-family="Helvetica,sans-Serif" font-size="10.00">/include/timing/MasterMuxDesign.hpp</text>
</a>
</g>
</g>
<!-- Node8&#45;&gt;Node16 -->
<g id="edge17_Node000008_Node000016" class="edge">
<title>Node8&#45;&gt;Node16</title>
<g id="a_edge17_Node000008_Node000016"><a xlink:title=" ">
<path fill="none" stroke="#63b8ff" d="M713.51,-234.62C772.34,-222.7 848.44,-207.29 906.85,-195.46"/>
<polygon fill="#63b8ff" stroke="#63b8ff" points="712.95,-231.16 703.84,-236.57 714.34,-238.02 712.95,-231.16"/>
</a>
</g>
</g>
<!-- Node21 -->
<g id="Node000021" class="node">
<title>Node21</title>
<g id="a_Node000021"><a xlink:href="OuroborosDesign_8hpp.html" target="_top" xlink:title=" ">
<polygon fill="white" stroke="#666666" points="709.62,-197.25 534.62,-197.25 534.62,-155.5 709.62,-155.5 709.62,-197.25"/>
<text text-anchor="start" x="542.62" y="-183.75" font-family="Helvetica,sans-Serif" font-size="10.00">/github/workspace/dev</text>
<text text-anchor="start" x="542.62" y="-172.5" font-family="Helvetica,sans-Serif" font-size="10.00">_area/sourcecode/timing</text>
<text text-anchor="middle" x="622.12" y="-161.25" font-family="Helvetica,sans-Serif" font-size="10.00">/include/timing/OuroborosDesign.hpp</text>
</a>
</g>
</g>
<!-- Node8&#45;&gt;Node21 -->
<g id="edge23_Node000008_Node000021" class="edge">
<title>Node8&#45;&gt;Node21</title>
<g id="a_edge23_Node000008_Node000021"><a xlink:title=" ">
<path fill="none" stroke="#63b8ff" d="M622.12,-221.5C622.12,-213.46 622.12,-205.04 622.12,-197.73"/>
<polygon fill="#63b8ff" stroke="#63b8ff" points="618.63,-221.31 622.13,-231.31 625.63,-221.31 618.63,-221.31"/>
</a>
</g>
</g>
<!-- Node23 -->
<g id="Node000023" class="node">
<title>Node23</title>
<g id="a_Node000023"><a xlink:href="MasterDesign_8cpp.html" target="_top" xlink:title=" ">
<polygon fill="white" stroke="#666666" points="850.38,-197.25 727.88,-197.25 727.88,-155.5 850.38,-155.5 850.38,-197.25"/>
<text text-anchor="start" x="735.88" y="-183.75" font-family="Helvetica,sans-Serif" font-size="10.00">/github/workspace/dev</text>
<text text-anchor="start" x="735.88" y="-172.5" font-family="Helvetica,sans-Serif" font-size="10.00">_area/sourcecode/timing</text>
<text text-anchor="middle" x="789.12" y="-161.25" font-family="Helvetica,sans-Serif" font-size="10.00">/src/MasterDesign.cpp</text>
</a>
</g>
</g>
<!-- Node8&#45;&gt;Node23 -->
<g id="edge26_Node000008_Node000023" class="edge">
<title>Node8&#45;&gt;Node23</title>
<g id="a_edge26_Node000008_Node000023"><a xlink:title=" ">
<path fill="none" stroke="#63b8ff" d="M677.28,-228.11C699.01,-218.25 723.64,-207.08 744.25,-197.73"/>
<polygon fill="#63b8ff" stroke="#63b8ff" points="675.92,-224.88 668.26,-232.2 678.81,-231.26 675.92,-224.88"/>
</a>
</g>
</g>
<!-- Node10 -->
<g id="Node000010" class="node">
<title>Node10</title>
<g id="a_Node000010"><a xlink:href="top__designs_8cpp.html" target="_top" xlink:title=" ">
<polygon fill="white" stroke="#666666" points="443,-41.75 309.25,-41.75 309.25,0 443,0 443,-41.75"/>
<text text-anchor="start" x="317.25" y="-28.25" font-family="Helvetica,sans-Serif" font-size="10.00">/github/workspace/dev</text>
<text text-anchor="start" x="317.25" y="-17" font-family="Helvetica,sans-Serif" font-size="10.00">_area/sourcecode/timing</text>
<text text-anchor="middle" x="376.12" y="-5.75" font-family="Helvetica,sans-Serif" font-size="10.00">/pybindsrc/top_designs.cpp</text>
</a>
</g>
</g>
<!-- Node9&#45;&gt;Node10 -->
<g id="edge9_Node000009_Node000010" class="edge">
<title>Node9&#45;&gt;Node10</title>
<g id="a_edge9_Node000009_Node000010"><a xlink:title=" ">
<path fill="none" stroke="#63b8ff" d="M288.05,-148.45C298.84,-139.93 310.07,-129.98 319.12,-119.5 339.92,-95.45 357.22,-62.74 367.12,-41.97"/>
<polygon fill="#63b8ff" stroke="#63b8ff" points="286.17,-145.48 280.35,-154.33 290.42,-151.04 286.17,-145.48"/>
</a>
</g>
</g>
<!-- Node11 -->
<g id="Node000011" class="node">
<title>Node11</title>
<g id="a_Node000011"><a xlink:href="BoreasDesign_8cpp.html" target="_top" xlink:title=" ">
<polygon fill="white" stroke="#666666" points="310.38,-119.5 187.88,-119.5 187.88,-77.75 310.38,-77.75 310.38,-119.5"/>
<text text-anchor="start" x="195.88" y="-106" font-family="Helvetica,sans-Serif" font-size="10.00">/github/workspace/dev</text>
<text text-anchor="start" x="195.88" y="-94.75" font-family="Helvetica,sans-Serif" font-size="10.00">_area/sourcecode/timing</text>
<text text-anchor="middle" x="249.12" y="-83.5" font-family="Helvetica,sans-Serif" font-size="10.00">/src/BoreasDesign.cpp</text>
</a>
</g>
</g>
<!-- Node9&#45;&gt;Node11 -->
<g id="edge10_Node000009_Node000011" class="edge">
<title>Node9&#45;&gt;Node11</title>
<g id="a_edge10_Node000009_Node000011"><a xlink:title=" ">
<path fill="none" stroke="#63b8ff" d="M249.12,-143.75C249.12,-135.71 249.12,-127.29 249.12,-119.98"/>
<polygon fill="#63b8ff" stroke="#63b8ff" points="245.63,-143.56 249.13,-153.56 252.63,-143.56 245.63,-143.56"/>
</a>
</g>
</g>
<!-- Node12&#45;&gt;Node10 -->
<g id="edge12_Node000012_Node000010" class="edge">
<title>Node12&#45;&gt;Node10</title>
<g id="a_edge12_Node000012_Node000010"><a xlink:title=" ">
<path fill="none" stroke="#63b8ff" d="M49.54,-145.93C34.56,-125.01 21.55,-97.29 38.12,-77.75 72.13,-37.67 220.3,-26.3 308.78,-23.1"/>
<polygon fill="#63b8ff" stroke="#63b8ff" points="46.69,-147.97 55.54,-153.8 52.26,-143.73 46.69,-147.97"/>
</a>
</g>
</g>
<!-- Node13 -->
<g id="Node000013" class="node">
<title>Node13</title>
<g id="a_Node000013"><a xlink:href="GaiaDesign_8cpp.html" target="_top" xlink:title=" ">
<polygon fill="white" stroke="#666666" points="169.38,-119.5 46.88,-119.5 46.88,-77.75 169.38,-77.75 169.38,-119.5"/>
<text text-anchor="start" x="54.88" y="-106" font-family="Helvetica,sans-Serif" font-size="10.00">/github/workspace/dev</text>
<text text-anchor="start" x="54.88" y="-94.75" font-family="Helvetica,sans-Serif" font-size="10.00">_area/sourcecode/timing</text>
<text text-anchor="middle" x="108.12" y="-83.5" font-family="Helvetica,sans-Serif" font-size="10.00">/src/GaiaDesign.cpp</text>
</a>
</g>
</g>
<!-- Node12&#45;&gt;Node13 -->
<g id="edge13_Node000012_Node000013" class="edge">
<title>Node12&#45;&gt;Node13</title>
<g id="a_edge13_Node000012_Node000013"><a xlink:title=" ">
<path fill="none" stroke="#63b8ff" d="M88.54,-144.59C92.15,-136.3 95.96,-127.54 99.26,-119.98"/>
<polygon fill="#63b8ff" stroke="#63b8ff" points="85.36,-143.12 84.57,-153.69 91.78,-145.92 85.36,-143.12"/>
</a>
</g>
</g>
<!-- Node14&#45;&gt;Node10 -->
<g id="edge15_Node000014_Node000010" class="edge">
<title>Node14&#45;&gt;Node10</title>
<g id="a_edge15_Node000014_Node000010"><a xlink:title=" ">
<path fill="none" stroke="#63b8ff" d="M409.45,-145.82C404.07,-137.65 398.82,-128.53 395.12,-119.5 384.66,-93.93 379.85,-62.19 377.72,-41.98"/>
<polygon fill="#63b8ff" stroke="#63b8ff" points="406.56,-147.78 415.13,-154 412.31,-143.79 406.56,-147.78"/>
</a>
</g>
</g>
<!-- Node15 -->
<g id="Node000015" class="node">
<title>Node15</title>
<g id="a_Node000015"><a xlink:href="KerberosDesign_8cpp.html" target="_top" xlink:title=" ">
<polygon fill="white" stroke="#666666" points="526.38,-119.5 403.88,-119.5 403.88,-77.75 526.38,-77.75 526.38,-119.5"/>
<text text-anchor="start" x="411.88" y="-106" font-family="Helvetica,sans-Serif" font-size="10.00">/github/workspace/dev</text>
<text text-anchor="start" x="411.88" y="-94.75" font-family="Helvetica,sans-Serif" font-size="10.00">_area/sourcecode/timing</text>
<text text-anchor="middle" x="465.12" y="-83.5" font-family="Helvetica,sans-Serif" font-size="10.00">/src/KerberosDesign.cpp</text>
</a>
</g>
</g>
<!-- Node14&#45;&gt;Node15 -->
<g id="edge16_Node000014_Node000015" class="edge">
<title>Node14&#45;&gt;Node15</title>
<g id="a_edge16_Node000014_Node000015"><a xlink:title=" ">
<path fill="none" stroke="#63b8ff" d="M445.54,-144.59C449.15,-136.3 452.96,-127.54 456.26,-119.98"/>
<polygon fill="#63b8ff" stroke="#63b8ff" points="442.36,-143.12 441.57,-153.69 448.78,-145.92 442.36,-143.12"/>
</a>
</g>
</g>
<!-- Node17 -->
<g id="Node000017" class="node">
<title>Node17</title>
<g id="a_Node000017"><a xlink:href="OuroborosMuxDesign_8hpp.html" target="_top" xlink:title=" ">
<polygon fill="white" stroke="#666666" points="1273.62,-119.5 1080.62,-119.5 1080.62,-77.75 1273.62,-77.75 1273.62,-119.5"/>
<text text-anchor="start" x="1088.62" y="-106" font-family="Helvetica,sans-Serif" font-size="10.00">/github/workspace/dev</text>
<text text-anchor="start" x="1088.62" y="-94.75" font-family="Helvetica,sans-Serif" font-size="10.00">_area/sourcecode/timing</text>
<text text-anchor="middle" x="1177.12" y="-83.5" font-family="Helvetica,sans-Serif" font-size="10.00">/include/timing/OuroborosMuxDesign.hpp</text>
</a>
</g>
</g>
<!-- Node16&#45;&gt;Node17 -->
<g id="edge18_Node000016_Node000017" class="edge">
<title>Node16&#45;&gt;Node17</title>
<g id="a_edge18_Node000016_Node000017"><a xlink:title=" ">
<path fill="none" stroke="#63b8ff" d="M1054.94,-150.76C1078.72,-140.81 1105.85,-129.46 1128.49,-119.98"/>
<polygon fill="#63b8ff" stroke="#63b8ff" points="1053.9,-147.4 1046.03,-154.49 1056.6,-153.86 1053.9,-147.4"/>
</a>
</g>
</g>
<!-- Node19 -->
<g id="Node000019" class="node">
<title>Node19</title>
<g id="a_Node000019"><a xlink:href="MasterMuxDesign_8cpp.html" target="_top" xlink:title=" ">
<polygon fill="white" stroke="#666666" points="1062.88,-119.5 931.38,-119.5 931.38,-77.75 1062.88,-77.75 1062.88,-119.5"/>
<text text-anchor="start" x="939.38" y="-106" font-family="Helvetica,sans-Serif" font-size="10.00">/github/workspace/dev</text>
<text text-anchor="start" x="939.38" y="-94.75" font-family="Helvetica,sans-Serif" font-size="10.00">_area/sourcecode/timing</text>
<text text-anchor="middle" x="997.12" y="-83.5" font-family="Helvetica,sans-Serif" font-size="10.00">/src/MasterMuxDesign.cpp</text>
</a>
</g>
</g>
<!-- Node16&#45;&gt;Node19 -->
<g id="edge21_Node000016_Node000019" class="edge">
<title>Node16&#45;&gt;Node19</title>
<g id="a_edge21_Node000016_Node000019"><a xlink:title=" ">
<path fill="none" stroke="#63b8ff" d="M996.54,-143.75C996.65,-135.71 996.76,-127.29 996.86,-119.98"/>
<polygon fill="#63b8ff" stroke="#63b8ff" points="993.05,-143.52 996.41,-153.56 1000.04,-143.61 993.05,-143.52"/>
</a>
</g>
</g>
<!-- Node20 -->
<g id="Node000020" class="node">
<title>Node20</title>
<g id="a_Node000020"><a xlink:href="sourcecode_2timinglibs_2src_2TimingHardwareManagerBase_8cpp.html" target="_top" xlink:title=" ">
<polygon fill="white" stroke="#666666" points="913.5,-119.5 728.75,-119.5 728.75,-77.75 913.5,-77.75 913.5,-119.5"/>
<text text-anchor="start" x="736.75" y="-106" font-family="Helvetica,sans-Serif" font-size="10.00">/github/workspace/dev</text>
<text text-anchor="start" x="736.75" y="-94.75" font-family="Helvetica,sans-Serif" font-size="10.00">_area/sourcecode/timinglibs</text>
<text text-anchor="middle" x="821.12" y="-83.5" font-family="Helvetica,sans-Serif" font-size="10.00">/src/TimingHardwareManagerBase.cpp</text>
</a>
</g>
</g>
<!-- Node16&#45;&gt;Node20 -->
<g id="edge22_Node000016_Node000020" class="edge">
<title>Node16&#45;&gt;Node20</title>
<g id="a_edge22_Node000016_Node000020"><a xlink:title=" ">
<path fill="none" stroke="#63b8ff" d="M938.95,-150.63C916.03,-140.7 889.94,-129.41 868.15,-119.98"/>
<polygon fill="#63b8ff" stroke="#63b8ff" points="937.27,-153.71 947.84,-154.47 940.05,-147.29 937.27,-153.71"/>
</a>
</g>
</g>
<!-- Node17&#45;&gt;Node10 -->
<g id="edge19_Node000017_Node000010" class="edge">
<title>Node17&#45;&gt;Node10</title>
<g id="a_edge19_Node000017_Node000010"><a xlink:title=" ">
<path fill="none" stroke="#63b8ff" d="M1069.04,-77.4C833.8,-46.38 565.5,-30.85 443.08,-24.86"/>
<polygon fill="#63b8ff" stroke="#63b8ff" points="1068.34,-80.84 1078.72,-78.69 1069.27,-73.9 1068.34,-80.84"/>
</a>
</g>
</g>
<!-- Node18 -->
<g id="Node000018" class="node">
<title>Node18</title>
<g id="a_Node000018"><a xlink:href="OuroborosMuxDesign_8cpp.html" target="_top" xlink:title=" ">
<polygon fill="white" stroke="#666666" points="1250.38,-41.75 1103.88,-41.75 1103.88,0 1250.38,0 1250.38,-41.75"/>
<text text-anchor="start" x="1111.88" y="-28.25" font-family="Helvetica,sans-Serif" font-size="10.00">/github/workspace/dev</text>
<text text-anchor="start" x="1111.88" y="-17" font-family="Helvetica,sans-Serif" font-size="10.00">_area/sourcecode/timing</text>
<text text-anchor="middle" x="1177.12" y="-5.75" font-family="Helvetica,sans-Serif" font-size="10.00">/src/OuroborosMuxDesign.cpp</text>
</a>
</g>
</g>
<!-- Node17&#45;&gt;Node18 -->
<g id="edge20_Node000017_Node000018" class="edge">
<title>Node17&#45;&gt;Node18</title>
<g id="a_edge20_Node000017_Node000018"><a xlink:title=" ">
<path fill="none" stroke="#63b8ff" d="M1177.12,-66C1177.12,-57.96 1177.12,-49.54 1177.12,-42.23"/>
<polygon fill="#63b8ff" stroke="#63b8ff" points="1173.63,-65.81 1177.13,-75.81 1180.63,-65.81 1173.63,-65.81"/>
</a>
</g>
</g>
<!-- Node21&#45;&gt;Node10 -->
<g id="edge24_Node000021_Node000010" class="edge">
<title>Node21&#45;&gt;Node10</title>
<g id="a_edge24_Node000021_Node000010"><a xlink:title=" ">
<path fill="none" stroke="#63b8ff" d="M661.46,-147.56C669.83,-139.55 677.52,-130.07 682.12,-119.5 689.53,-102.49 694.01,-92 682.12,-77.75 652.34,-42.03 524.1,-29.08 443.38,-24.43"/>
<polygon fill="#63b8ff" stroke="#63b8ff" points="659.26,-144.83 654.08,-154.07 663.89,-150.08 659.26,-144.83"/>
</a>
</g>
</g>
<!-- Node22 -->
<g id="Node000022" class="node">
<title>Node22</title>
<g id="a_Node000022"><a xlink:href="OuroborosDesign_8cpp.html" target="_top" xlink:title=" ">
<polygon fill="white" stroke="#666666" points="673.38,-119.5 544.88,-119.5 544.88,-77.75 673.38,-77.75 673.38,-119.5"/>
<text text-anchor="start" x="552.88" y="-106" font-family="Helvetica,sans-Serif" font-size="10.00">/github/workspace/dev</text>
<text text-anchor="start" x="552.88" y="-94.75" font-family="Helvetica,sans-Serif" font-size="10.00">_area/sourcecode/timing</text>
<text text-anchor="middle" x="609.12" y="-83.5" font-family="Helvetica,sans-Serif" font-size="10.00">/src/OuroborosDesign.cpp</text>
</a>
</g>
</g>
<!-- Node21&#45;&gt;Node22 -->
<g id="edge25_Node000021_Node000022" class="edge">
<title>Node21&#45;&gt;Node22</title>
<g id="a_edge25_Node000021_Node000022"><a xlink:title=" ">
<path fill="none" stroke="#63b8ff" d="M616.7,-143.75C615.32,-135.71 613.87,-127.29 612.62,-119.98"/>
<polygon fill="#63b8ff" stroke="#63b8ff" points="613.24,-144.32 618.39,-153.58 620.14,-143.14 613.24,-144.32"/>
</a>
</g>
</g>
<!-- Node24&#45;&gt;Node20 -->
<g id="edge28_Node000024_Node000020" class="edge">
<title>Node24&#45;&gt;Node20</title>
<g id="a_edge28_Node000024_Node000020"><a xlink:title=" ">
<path fill="none" stroke="#63b8ff" d="M856.44,-221.93C861.83,-202.49 865.79,-177.15 859.12,-155.5 855.12,-142.49 846.94,-129.8 839.2,-119.81"/>
<polygon fill="#63b8ff" stroke="#63b8ff" points="853.11,-220.87 853.52,-231.46 859.8,-222.92 853.11,-220.87"/>
</a>
</g>
</g>
</g>
</svg>
