<?xml version="1.0" encoding="UTF-8" standalone="no"?>
<!DOCTYPE svg PUBLIC "-//W3C//DTD SVG 1.1//EN"
 "http://www.w3.org/Graphics/SVG/1.1/DTD/svg11.dtd">
<!-- Generated by graphviz version 9.0.0 (20230911.1827)
 -->
<!-- Title: /github/workspace/dev_area/sourcecode/dpdklibs/include/dpdklibs/FlowControl.hpp Pages: 1 -->
<svg width="290pt" height="128pt"
 viewBox="0.00 0.00 290.25 127.50" xmlns="http://www.w3.org/2000/svg" xmlns:xlink="http://www.w3.org/1999/xlink">
<g id="graph0" class="graph" transform="scale(1 1) rotate(0) translate(4 123.5)">
<title>/github/workspace/dev_area/sourcecode/dpdklibs/include/dpdklibs/FlowControl.hpp</title>
<!-- Node1 -->
<g id="Node000001" class="node">
<title>Node1</title>
<g id="a_Node000001"><a xlink:title=" ">
<polygon fill="#999999" stroke="#666666" points="221.88,-119.5 60.38,-119.5 60.38,-77.75 221.88,-77.75 221.88,-119.5"/>
<text text-anchor="start" x="68.38" y="-106" font-family="Helvetica,sans-Serif" font-size="10.00">/github/workspace/dev</text>
<text text-anchor="start" x="68.38" y="-94.75" font-family="Helvetica,sans-Serif" font-size="10.00">_area/sourcecode/dpdklibs</text>
<text text-anchor="middle" x="141.12" y="-83.5" font-family="Helvetica,sans-Serif" font-size="10.00">/include/dpdklibs/FlowControl.hpp</text>
</a>
</g>
</g>
<!-- Node2 -->
<g id="Node000002" class="node">
<title>Node2</title>
<g id="a_Node000002"><a xlink:href="FlowControl_8cpp.html" target="_top" xlink:title=" ">
<polygon fill="white" stroke="#666666" points="132.25,-41.75 0,-41.75 0,0 132.25,0 132.25,-41.75"/>
<text text-anchor="start" x="8" y="-28.25" font-family="Helvetica,sans-Serif" font-size="10.00">/github/workspace/dev</text>
<text text-anchor="start" x="8" y="-17" font-family="Helvetica,sans-Serif" font-size="10.00">_area/sourcecode/dpdklibs</text>
<text text-anchor="middle" x="66.12" y="-5.75" font-family="Helvetica,sans-Serif" font-size="10.00">/src/FlowControl.cpp</text>
</a>
</g>
</g>
<!-- Node1&#45;&gt;Node2 -->
<g id="edge1_Node000001_Node000002" class="edge">
<title>Node1&#45;&gt;Node2</title>
<g id="a_edge1_Node000001_Node000002"><a xlink:title=" ">
<path fill="none" stroke="#63b8ff" d="M113.12,-69.34C104.2,-60.34 94.52,-50.56 86.28,-42.23"/>
<polygon fill="#63b8ff" stroke="#63b8ff" points="110.44,-71.61 119.96,-76.25 115.41,-66.68 110.44,-71.61"/>
</a>
</g>
</g>
<!-- Node3 -->
<g id="Node000003" class="node">
<title>Node3</title>
<g id="a_Node000003"><a xlink:href="IfaceWrapper_8cpp.html" target="_top" xlink:title=" ">
<polygon fill="white" stroke="#666666" points="282.25,-41.75 150,-41.75 150,0 282.25,0 282.25,-41.75"/>
<text text-anchor="start" x="158" y="-28.25" font-family="Helvetica,sans-Serif" font-size="10.00">/github/workspace/dev</text>
<text text-anchor="start" x="158" y="-17" font-family="Helvetica,sans-Serif" font-size="10.00">_area/sourcecode/dpdklibs</text>
<text text-anchor="middle" x="216.12" y="-5.75" font-family="Helvetica,sans-Serif" font-size="10.00">/src/IfaceWrapper.cpp</text>
</a>
</g>
</g>
<!-- Node1&#45;&gt;Node3 -->
<g id="edge2_Node000001_Node000003" class="edge">
<title>Node1&#45;&gt;Node3</title>
<g id="a_edge2_Node000001_Node000003"><a xlink:title=" ">
<path fill="none" stroke="#63b8ff" d="M169.13,-69.34C178.05,-60.34 187.73,-50.56 195.97,-42.23"/>
<polygon fill="#63b8ff" stroke="#63b8ff" points="166.84,-66.68 162.29,-76.25 171.81,-71.61 166.84,-66.68"/>
</a>
</g>
</g>
</g>
</svg>
