<?xml version="1.0" encoding="UTF-8" standalone="no"?>
<!DOCTYPE svg PUBLIC "-//W3C//DTD SVG 1.1//EN"
 "http://www.w3.org/Graphics/SVG/1.1/DTD/svg11.dtd">
<!-- Generated by graphviz version 9.0.0 (20230911.1827)
 -->
<!-- Title: /github/workspace/dev_area/sourcecode/uhallibs/include/uhallibs/formatters.hpp Pages: 1 -->
<svg width="232pt" height="105pt"
 viewBox="0.00 0.00 232.00 105.00" xmlns="http://www.w3.org/2000/svg" xmlns:xlink="http://www.w3.org/1999/xlink">
<g id="graph0" class="graph" transform="scale(1 1) rotate(0) translate(4 101)">
<title>/github/workspace/dev_area/sourcecode/uhallibs/include/uhallibs/formatters.hpp</title>
<!-- Node1 -->
<g id="Node000001" class="node">
<title>Node1</title>
<g id="a_Node000001"><a xlink:title=" ">
<polygon fill="#999999" stroke="#666666" points="191.25,-97 40.25,-97 40.25,-55.25 191.25,-55.25 191.25,-97"/>
<text text-anchor="start" x="48.25" y="-83.5" font-family="Helvetica,sans-Serif" font-size="10.00">/github/workspace/dev</text>
<text text-anchor="start" x="48.25" y="-72.25" font-family="Helvetica,sans-Serif" font-size="10.00">_area/sourcecode/uhallibs</text>
<text text-anchor="middle" x="115.75" y="-61" font-family="Helvetica,sans-Serif" font-size="10.00">/include/uhallibs/formatters.hpp</text>
</a>
</g>
</g>
<!-- Node2 -->
<g id="Node000002" class="node">
<title>Node2</title>
<g id="a_Node000002"><a xlink:title=" ">
<polygon fill="#e0e0e0" stroke="#999999" points="47.5,-19.25 0,-19.25 0,0 47.5,0 47.5,-19.25"/>
<text text-anchor="middle" x="23.75" y="-5.75" font-family="Helvetica,sans-Serif" font-size="10.00">stdint.h</text>
</a>
</g>
</g>
<!-- Node1&#45;&gt;Node2 -->
<g id="edge1_Node000001_Node000002" class="edge">
<title>Node1&#45;&gt;Node2</title>
<g id="a_edge1_Node000001_Node000002"><a xlink:title=" ">
<path fill="none" stroke="#63b8ff" d="M86.89,-54.89C73.59,-45.57 58.05,-34.67 45.71,-26.02"/>
<polygon fill="#63b8ff" stroke="#63b8ff" points="48.05,-23.39 37.85,-20.51 44.03,-29.12 48.05,-23.39"/>
</a>
</g>
</g>
<!-- Node3 -->
<g id="Node000003" class="node">
<title>Node3</title>
<g id="a_Node000003"><a xlink:title=" ">
<polygon fill="#e0e0e0" stroke="#999999" points="105.75,-19.25 65.75,-19.25 65.75,0 105.75,0 105.75,-19.25"/>
<text text-anchor="middle" x="85.75" y="-5.75" font-family="Helvetica,sans-Serif" font-size="10.00">string</text>
</a>
</g>
</g>
<!-- Node1&#45;&gt;Node3 -->
<g id="edge2_Node000001_Node000003" class="edge">
<title>Node1&#45;&gt;Node3</title>
<g id="a_edge2_Node000001_Node000003"><a xlink:title=" ">
<path fill="none" stroke="#63b8ff" d="M106.42,-55.07C102.72,-47.12 98.49,-38.01 94.81,-30.11"/>
<polygon fill="#63b8ff" stroke="#63b8ff" points="98,-28.66 90.61,-21.07 91.65,-31.61 98,-28.66"/>
</a>
</g>
</g>
<!-- Node4 -->
<g id="Node000004" class="node">
<title>Node4</title>
<g id="a_Node000004"><a xlink:title=" ">
<polygon fill="#e0e0e0" stroke="#999999" points="167.25,-19.25 124.25,-19.25 124.25,0 167.25,0 167.25,-19.25"/>
<text text-anchor="middle" x="145.75" y="-5.75" font-family="Helvetica,sans-Serif" font-size="10.00">vector</text>
</a>
</g>
</g>
<!-- Node1&#45;&gt;Node4 -->
<g id="edge3_Node000001_Node000004" class="edge">
<title>Node1&#45;&gt;Node4</title>
<g id="a_edge3_Node000001_Node000004"><a xlink:title=" ">
<path fill="none" stroke="#63b8ff" d="M125.08,-55.07C128.78,-47.12 133.01,-38.01 136.69,-30.11"/>
<polygon fill="#63b8ff" stroke="#63b8ff" points="139.85,-31.61 140.89,-21.07 133.5,-28.66 139.85,-31.61"/>
</a>
</g>
</g>
<!-- Node5 -->
<g id="Node000005" class="node">
<title>Node5</title>
<g id="a_Node000005"><a xlink:title=" ">
<polygon fill="#e0e0e0" stroke="#999999" points="224,-19.25 185.5,-19.25 185.5,0 224,0 224,-19.25"/>
<text text-anchor="middle" x="204.75" y="-5.75" font-family="Helvetica,sans-Serif" font-size="10.00">utility</text>
</a>
</g>
</g>
<!-- Node1&#45;&gt;Node5 -->
<g id="edge4_Node000001_Node000005" class="edge">
<title>Node1&#45;&gt;Node5</title>
<g id="a_edge4_Node000001_Node000005"><a xlink:title=" ">
<path fill="none" stroke="#63b8ff" d="M143.42,-55.07C156.18,-45.83 171.1,-35.01 183.03,-26.37"/>
<polygon fill="#63b8ff" stroke="#63b8ff" points="184.97,-29.29 191.01,-20.58 180.86,-23.62 184.97,-29.29"/>
</a>
</g>
</g>
</g>
</svg>
