<?xml version="1.0" encoding="UTF-8" standalone="no"?>
<!DOCTYPE svg PUBLIC "-//W3C//DTD SVG 1.1//EN"
 "http://www.w3.org/Graphics/SVG/1.1/DTD/svg11.dtd">
<!-- Generated by graphviz version 9.0.0 (20230911.1827)
 -->
<!-- Title: /github/workspace/dev_area/sourcecode/uhallibs/include/uhallibs/formatters.hpp Pages: 1 -->
<svg width="519pt" height="205pt"
 viewBox="0.00 0.00 518.62 205.25" xmlns="http://www.w3.org/2000/svg" xmlns:xlink="http://www.w3.org/1999/xlink">
<g id="graph0" class="graph" transform="scale(1 1) rotate(0) translate(4 201.25)">
<title>/github/workspace/dev_area/sourcecode/uhallibs/include/uhallibs/formatters.hpp</title>
<!-- Node1 -->
<g id="Node000001" class="node">
<title>Node1</title>
<g id="a_Node000001"><a xlink:title=" ">
<polygon fill="#999999" stroke="#666666" points="327.5,-197.25 176.5,-197.25 176.5,-155.5 327.5,-155.5 327.5,-197.25"/>
<text text-anchor="start" x="184.5" y="-183.75" font-family="Helvetica,sans-Serif" font-size="10.00">/github/workspace/dev</text>
<text text-anchor="start" x="184.5" y="-172.5" font-family="Helvetica,sans-Serif" font-size="10.00">_area/sourcecode/uhallibs</text>
<text text-anchor="middle" x="252" y="-161.25" font-family="Helvetica,sans-Serif" font-size="10.00">/include/uhallibs/formatters.hpp</text>
</a>
</g>
</g>
<!-- Node2 -->
<g id="Node000002" class="node">
<title>Node2</title>
<g id="a_Node000002"><a xlink:href="ProtocolAxi4Lite_8hpp.html" target="_top" xlink:title=" ">
<polygon fill="white" stroke="#666666" points="178,-119.5 0,-119.5 0,-77.75 178,-77.75 178,-119.5"/>
<text text-anchor="start" x="8" y="-106" font-family="Helvetica,sans-Serif" font-size="10.00">/github/workspace/dev</text>
<text text-anchor="start" x="8" y="-94.75" font-family="Helvetica,sans-Serif" font-size="10.00">_area/sourcecode/uhallibs</text>
<text text-anchor="middle" x="89" y="-83.5" font-family="Helvetica,sans-Serif" font-size="10.00">/include/uhallibs/ProtocolAxi4Lite.hpp</text>
</a>
</g>
</g>
<!-- Node1&#45;&gt;Node2 -->
<g id="edge1_Node000001_Node000002" class="edge">
<title>Node1&#45;&gt;Node2</title>
<g id="a_edge1_Node000001_Node000002"><a xlink:title=" ">
<path fill="none" stroke="#63b8ff" d="M198.17,-150.36C176.96,-140.5 152.92,-129.33 132.8,-119.98"/>
<polygon fill="#63b8ff" stroke="#63b8ff" points="196.4,-153.4 206.95,-154.44 199.35,-147.05 196.4,-153.4"/>
</a>
</g>
</g>
<!-- Node3 -->
<g id="Node000003" class="node">
<title>Node3</title>
<g id="a_Node000003"><a xlink:href="ProtocolAxi4Lite_8cpp.html" target="_top" xlink:title=" ">
<polygon fill="white" stroke="#666666" points="211.62,-41.75 82.38,-41.75 82.38,0 211.62,0 211.62,-41.75"/>
<text text-anchor="start" x="90.38" y="-28.25" font-family="Helvetica,sans-Serif" font-size="10.00">/github/workspace/dev</text>
<text text-anchor="start" x="90.38" y="-17" font-family="Helvetica,sans-Serif" font-size="10.00">_area/sourcecode/uhallibs</text>
<text text-anchor="middle" x="147" y="-5.75" font-family="Helvetica,sans-Serif" font-size="10.00">/src/ProtocolAxi4Lite.cpp</text>
</a>
</g>
</g>
<!-- Node1&#45;&gt;Node3 -->
<g id="edge3_Node000001_Node000003" class="edge">
<title>Node1&#45;&gt;Node3</title>
<g id="a_edge3_Node000001_Node000003"><a xlink:title=" ">
<path fill="none" stroke="#63b8ff" d="M232.5,-145.53C219.73,-126.11 202.57,-100.29 187,-77.75 178.8,-65.87 169.41,-52.74 161.8,-42.19"/>
<polygon fill="#63b8ff" stroke="#63b8ff" points="229.51,-147.34 237.92,-153.78 235.36,-143.5 229.51,-147.34"/>
</a>
</g>
</g>
<!-- Node4 -->
<g id="Node000004" class="node">
<title>Node4</title>
<g id="a_Node000004"><a xlink:href="ProtocolFlx_8cpp.html" target="_top" xlink:title=" ">
<polygon fill="white" stroke="#666666" points="363.62,-119.5 234.38,-119.5 234.38,-77.75 363.62,-77.75 363.62,-119.5"/>
<text text-anchor="start" x="242.38" y="-106" font-family="Helvetica,sans-Serif" font-size="10.00">/github/workspace/dev</text>
<text text-anchor="start" x="242.38" y="-94.75" font-family="Helvetica,sans-Serif" font-size="10.00">_area/sourcecode/uhallibs</text>
<text text-anchor="middle" x="299" y="-83.5" font-family="Helvetica,sans-Serif" font-size="10.00">/src/ProtocolFlx.cpp</text>
</a>
</g>
</g>
<!-- Node1&#45;&gt;Node4 -->
<g id="edge4_Node000001_Node000004" class="edge">
<title>Node1&#45;&gt;Node4</title>
<g id="a_edge4_Node000001_Node000004"><a xlink:title=" ">
<path fill="none" stroke="#63b8ff" d="M270.58,-145.43C275.88,-136.89 281.52,-127.8 286.37,-119.98"/>
<polygon fill="#63b8ff" stroke="#63b8ff" points="267.69,-143.45 265.39,-153.79 273.64,-147.14 267.69,-143.45"/>
</a>
</g>
</g>
<!-- Node5 -->
<g id="Node000005" class="node">
<title>Node5</title>
<g id="a_Node000005"><a xlink:href="formatters_8cpp.html" target="_top" xlink:title=" ">
<polygon fill="white" stroke="#666666" points="510.62,-119.5 381.38,-119.5 381.38,-77.75 510.62,-77.75 510.62,-119.5"/>
<text text-anchor="start" x="389.38" y="-106" font-family="Helvetica,sans-Serif" font-size="10.00">/github/workspace/dev</text>
<text text-anchor="start" x="389.38" y="-94.75" font-family="Helvetica,sans-Serif" font-size="10.00">_area/sourcecode/uhallibs</text>
<text text-anchor="middle" x="446" y="-83.5" font-family="Helvetica,sans-Serif" font-size="10.00">/src/formatters.cpp</text>
</a>
</g>
</g>
<!-- Node1&#45;&gt;Node5 -->
<g id="edge5_Node000001_Node000005" class="edge">
<title>Node1&#45;&gt;Node5</title>
<g id="a_edge5_Node000001_Node000005"><a xlink:title=" ">
<path fill="none" stroke="#63b8ff" d="M314.7,-150.89C340.27,-140.91 369.49,-129.5 393.87,-119.98"/>
<polygon fill="#63b8ff" stroke="#63b8ff" points="313.44,-147.63 305.4,-154.52 315.99,-154.15 313.44,-147.63"/>
</a>
</g>
</g>
<!-- Node2&#45;&gt;Node3 -->
<g id="edge2_Node000002_Node000003" class="edge">
<title>Node2&#45;&gt;Node3</title>
<g id="a_edge2_Node000002_Node000003"><a xlink:title=" ">
<path fill="none" stroke="#63b8ff" d="M111.51,-68.23C118.16,-59.54 125.3,-50.22 131.41,-42.23"/>
<polygon fill="#63b8ff" stroke="#63b8ff" points="108.76,-66.06 105.46,-76.12 114.32,-70.31 108.76,-66.06"/>
</a>
</g>
</g>
</g>
</svg>
