<?xml version="1.0" encoding="UTF-8" standalone="no"?>
<!DOCTYPE svg PUBLIC "-//W3C//DTD SVG 1.1//EN"
 "http://www.w3.org/Graphics/SVG/1.1/DTD/svg11.dtd">
<!-- Generated by graphviz version 9.0.0 (20230911.1827)
 -->
<!-- Title: /github/workspace/dev_area/sourcecode/daqdataformats/include/daqdataformats/Fragment.hpp Pages: 1 -->
<svg width="978pt" height="216pt"
 viewBox="0.00 0.00 977.88 215.50" xmlns="http://www.w3.org/2000/svg" xmlns:xlink="http://www.w3.org/1999/xlink">
<g id="graph0" class="graph" transform="scale(1 1) rotate(0) translate(4 211.5)">
<title>/github/workspace/dev_area/sourcecode/daqdataformats/include/daqdataformats/Fragment.hpp</title>
<!-- Node1 -->
<g id="Node000001" class="node">
<title>Node1</title>
<g id="a_Node000001"><a xlink:title=" ">
<polygon fill="#999999" stroke="#666666" points="745.88,-207.5 563.38,-207.5 563.38,-165.75 745.88,-165.75 745.88,-207.5"/>
<text text-anchor="start" x="571.38" y="-194" font-family="Helvetica,sans-Serif" font-size="10.00">/github/workspace/dev</text>
<text text-anchor="start" x="571.38" y="-182.75" font-family="Helvetica,sans-Serif" font-size="10.00">_area/sourcecode/daqdataformats</text>
<text text-anchor="middle" x="654.62" y="-171.5" font-family="Helvetica,sans-Serif" font-size="10.00">/include/daqdataformats/Fragment.hpp</text>
</a>
</g>
</g>
<!-- Node2 -->
<g id="Node000002" class="node">
<title>Node2</title>
<g id="a_Node000002"><a xlink:href="FragmentHeader_8hpp.html" target="_top" xlink:title=" ">
<polygon fill="white" stroke="#666666" points="569.25,-129.75 392,-129.75 392,-110.5 569.25,-110.5 569.25,-129.75"/>
<text text-anchor="middle" x="480.62" y="-116.25" font-family="Helvetica,sans-Serif" font-size="10.00">daqdataformats/FragmentHeader.hpp</text>
</a>
</g>
</g>
<!-- Node1&#45;&gt;Node2 -->
<g id="edge1_Node000001_Node000002" class="edge">
<title>Node1&#45;&gt;Node2</title>
<g id="a_edge1_Node000001_Node000002"><a xlink:title=" ">
<path fill="none" stroke="#63b8ff" d="M600.05,-165.39C572.39,-155.14 539.63,-143 515.43,-134.03"/>
<polygon fill="#63b8ff" stroke="#63b8ff" points="516.97,-130.86 506.38,-130.67 514.54,-137.43 516.97,-130.86"/>
</a>
</g>
</g>
<!-- Node3 -->
<g id="Node000003" class="node">
<title>Node3</title>
<g id="a_Node000003"><a xlink:href="SourceID_8hpp.html" target="_top" xlink:title=" ">
<polygon fill="white" stroke="#666666" points="412.12,-74.5 267.12,-74.5 267.12,-55.25 412.12,-55.25 412.12,-74.5"/>
<text text-anchor="middle" x="339.62" y="-61" font-family="Helvetica,sans-Serif" font-size="10.00">daqdataformats/SourceID.hpp</text>
</a>
</g>
</g>
<!-- Node1&#45;&gt;Node3 -->
<g id="edge24_Node000001_Node000003" class="edge">
<title>Node1&#45;&gt;Node3</title>
<g id="a_edge24_Node000001_Node000003"><a xlink:title=" ">
<path fill="none" stroke="#63b8ff" d="M563.16,-184.02C506.95,-179.08 435.79,-165.38 382.62,-129.75 366.5,-118.94 354.84,-99.85 347.76,-85.34"/>
<polygon fill="#63b8ff" stroke="#63b8ff" points="350.99,-84 343.69,-76.32 344.61,-86.88 350.99,-84"/>
</a>
</g>
</g>
<!-- Node6 -->
<g id="Node000006" class="node">
<title>Node6</title>
<g id="a_Node000006"><a xlink:title=" ">
<polygon fill="#e0e0e0" stroke="#999999" points="45.25,-19.25 0,-19.25 0,0 45.25,0 45.25,-19.25"/>
<text text-anchor="middle" x="22.62" y="-5.75" font-family="Helvetica,sans-Serif" font-size="10.00">cstdint</text>
</a>
</g>
</g>
<!-- Node1&#45;&gt;Node6 -->
<g id="edge27_Node000001_Node000006" class="edge">
<title>Node1&#45;&gt;Node6</title>
<g id="a_edge27_Node000001_Node000006"><a xlink:title=" ">
<path fill="none" stroke="#63b8ff" d="M563.06,-182.11C449.71,-174.49 253.45,-150.41 104.62,-74.5 79.9,-61.89 55.28,-41.37 39.57,-27"/>
<polygon fill="#63b8ff" stroke="#63b8ff" points="42.21,-24.68 32.52,-20.4 37.42,-29.79 42.21,-24.68"/>
</a>
</g>
</g>
<!-- Node15 -->
<g id="Node000015" class="node">
<title>Node15</title>
<g id="a_Node000015"><a xlink:href="daqdataformats_2include_2daqdataformats_2Types_8hpp.html" target="_top" xlink:title=" ">
<polygon fill="white" stroke="#666666" points="244,-74.5 113.25,-74.5 113.25,-55.25 244,-55.25 244,-74.5"/>
<text text-anchor="middle" x="178.62" y="-61" font-family="Helvetica,sans-Serif" font-size="10.00">daqdataformats/Types.hpp</text>
</a>
</g>
</g>
<!-- Node1&#45;&gt;Node15 -->
<g id="edge25_Node000001_Node000015" class="edge">
<title>Node1&#45;&gt;Node15</title>
<g id="a_edge25_Node000001_Node000015"><a xlink:title=" ">
<path fill="none" stroke="#63b8ff" d="M563.11,-171.98C504.44,-162.33 426.94,-147.89 359.62,-129.75 306.7,-115.49 247.06,-93.18 211.19,-79.06"/>
<polygon fill="#63b8ff" stroke="#63b8ff" points="212.85,-75.95 202.26,-75.52 210.26,-82.46 212.85,-75.95"/>
</a>
</g>
</g>
<!-- Node16 -->
<g id="Node000016" class="node">
<title>Node16</title>
<g id="a_Node000016"><a xlink:title=" ">
<polygon fill="#e0e0e0" stroke="#999999" points="598.62,-74.5 558.62,-74.5 558.62,-55.25 598.62,-55.25 598.62,-74.5"/>
<text text-anchor="middle" x="578.62" y="-61" font-family="Helvetica,sans-Serif" font-size="10.00">bitset</text>
</a>
</g>
</g>
<!-- Node1&#45;&gt;Node16 -->
<g id="edge26_Node000001_Node000016" class="edge">
<title>Node1&#45;&gt;Node16</title>
<g id="a_edge26_Node000001_Node000016"><a xlink:title=" ">
<path fill="none" stroke="#63b8ff" d="M641.73,-165.31C627.32,-142.6 604.19,-106.15 590.29,-84.26"/>
<polygon fill="#63b8ff" stroke="#63b8ff" points="593.42,-82.65 585.1,-76.08 587.51,-86.4 593.42,-82.65"/>
</a>
</g>
</g>
<!-- Node17 -->
<g id="Node000017" class="node">
<title>Node17</title>
<g id="a_Node000017"><a xlink:title=" ">
<polygon fill="#e0e0e0" stroke="#999999" points="660.88,-74.5 616.38,-74.5 616.38,-55.25 660.88,-55.25 660.88,-74.5"/>
<text text-anchor="middle" x="638.62" y="-61" font-family="Helvetica,sans-Serif" font-size="10.00">cstdlib</text>
</a>
</g>
</g>
<!-- Node1&#45;&gt;Node17 -->
<g id="edge28_Node000001_Node000017" class="edge">
<title>Node1&#45;&gt;Node17</title>
<g id="a_edge28_Node000001_Node000017"><a xlink:title=" ">
<path fill="none" stroke="#63b8ff" d="M651.91,-165.31C648.96,-143.22 644.27,-108.13 641.32,-86.08"/>
<polygon fill="#63b8ff" stroke="#63b8ff" points="644.81,-85.75 640.02,-76.31 637.87,-86.68 644.81,-85.75"/>
</a>
</g>
</g>
<!-- Node19 -->
<g id="Node000019" class="node">
<title>Node19</title>
<g id="a_Node000019"><a xlink:title=" ">
<polygon fill="#e0e0e0" stroke="#999999" points="729.88,-74.5 679.38,-74.5 679.38,-55.25 729.88,-55.25 729.88,-74.5"/>
<text text-anchor="middle" x="704.62" y="-61" font-family="Helvetica,sans-Serif" font-size="10.00">numeric</text>
</a>
</g>
</g>
<!-- Node1&#45;&gt;Node19 -->
<g id="edge31_Node000001_Node000019" class="edge">
<title>Node1&#45;&gt;Node19</title>
<g id="a_edge31_Node000001_Node000019"><a xlink:title=" ">
<path fill="none" stroke="#63b8ff" d="M663.11,-165.31C672.46,-142.91 687.39,-107.14 696.57,-85.16"/>
<polygon fill="#63b8ff" stroke="#63b8ff" points="699.69,-86.78 700.31,-76.2 693.23,-84.08 699.69,-86.78"/>
</a>
</g>
</g>
<!-- Node20 -->
<g id="Node000020" class="node">
<title>Node20</title>
<g id="a_Node000020"><a xlink:title=" ">
<polygon fill="#e0e0e0" stroke="#999999" points="791.12,-74.5 748.12,-74.5 748.12,-55.25 791.12,-55.25 791.12,-74.5"/>
<text text-anchor="middle" x="769.62" y="-61" font-family="Helvetica,sans-Serif" font-size="10.00">vector</text>
</a>
</g>
</g>
<!-- Node1&#45;&gt;Node20 -->
<g id="edge34_Node000001_Node000020" class="edge">
<title>Node1&#45;&gt;Node20</title>
<g id="a_edge34_Node000001_Node000020"><a xlink:title=" ">
<path fill="none" stroke="#63b8ff" d="M674.13,-165.31C696.34,-142.19 732.22,-104.82 753.1,-83.08"/>
<polygon fill="#63b8ff" stroke="#63b8ff" points="755.6,-85.53 760,-75.9 750.55,-80.69 755.6,-85.53"/>
</a>
</g>
</g>
<!-- Node21 -->
<g id="Node000021" class="node">
<title>Node21</title>
<g id="a_Node000021"><a xlink:title=" ">
<polygon fill="#e0e0e0" stroke="#999999" points="785.25,-129.75 740,-129.75 740,-110.5 785.25,-110.5 785.25,-129.75"/>
<text text-anchor="middle" x="762.62" y="-116.25" font-family="Helvetica,sans-Serif" font-size="10.00">cstring</text>
</a>
</g>
</g>
<!-- Node1&#45;&gt;Node21 -->
<g id="edge29_Node000001_Node000021" class="edge">
<title>Node1&#45;&gt;Node21</title>
<g id="a_edge29_Node000001_Node000021"><a xlink:title=" ">
<path fill="none" stroke="#63b8ff" d="M688.5,-165.39C704.43,-155.88 723.09,-144.74 737.7,-136.01"/>
<polygon fill="#63b8ff" stroke="#63b8ff" points="739.43,-139.05 746.22,-130.92 735.84,-133.04 739.43,-139.05"/>
</a>
</g>
</g>
<!-- Node22 -->
<g id="Node000022" class="node">
<title>Node22</title>
<g id="a_Node000022"><a xlink:title=" ">
<polygon fill="#e0e0e0" stroke="#999999" points="837.62,-129.75 803.62,-129.75 803.62,-110.5 837.62,-110.5 837.62,-129.75"/>
<text text-anchor="middle" x="820.62" y="-116.25" font-family="Helvetica,sans-Serif" font-size="10.00">new</text>
</a>
</g>
</g>
<!-- Node1&#45;&gt;Node22 -->
<g id="edge30_Node000001_Node000022" class="edge">
<title>Node1&#45;&gt;Node22</title>
<g id="a_edge30_Node000001_Node000022"><a xlink:title=" ">
<path fill="none" stroke="#63b8ff" d="M706.69,-165.39C735.13,-154.34 769.22,-141.1 792.65,-131.99"/>
<polygon fill="#63b8ff" stroke="#63b8ff" points="793.77,-135.32 801.82,-128.43 791.23,-128.79 793.77,-135.32"/>
</a>
</g>
</g>
<!-- Node23 -->
<g id="Node000023" class="node">
<title>Node23</title>
<g id="a_Node000023"><a xlink:title=" ">
<polygon fill="#e0e0e0" stroke="#999999" points="913.62,-129.75 855.62,-129.75 855.62,-110.5 913.62,-110.5 913.62,-129.75"/>
<text text-anchor="middle" x="884.62" y="-116.25" font-family="Helvetica,sans-Serif" font-size="10.00">stdexcept</text>
</a>
</g>
</g>
<!-- Node1&#45;&gt;Node23 -->
<g id="edge32_Node000001_Node000023" class="edge">
<title>Node1&#45;&gt;Node23</title>
<g id="a_edge32_Node000001_Node000023"><a xlink:title=" ">
<path fill="none" stroke="#63b8ff" d="M727.08,-165.31C765.83,-154.44 812.09,-141.47 844.42,-132.4"/>
<polygon fill="#63b8ff" stroke="#63b8ff" points="845.1,-135.85 853.78,-129.78 843.21,-129.11 845.1,-135.85"/>
</a>
</g>
</g>
<!-- Node24 -->
<g id="Node000024" class="node">
<title>Node24</title>
<g id="a_Node000024"><a xlink:title=" ">
<polygon fill="#e0e0e0" stroke="#999999" points="969.88,-129.75 931.38,-129.75 931.38,-110.5 969.88,-110.5 969.88,-129.75"/>
<text text-anchor="middle" x="950.62" y="-116.25" font-family="Helvetica,sans-Serif" font-size="10.00">utility</text>
</a>
</g>
</g>
<!-- Node1&#45;&gt;Node24 -->
<g id="edge33_Node000001_Node000024" class="edge">
<title>Node1&#45;&gt;Node24</title>
<g id="a_edge33_Node000001_Node000024"><a xlink:title=" ">
<path fill="none" stroke="#63b8ff" d="M746.28,-168.71C795.44,-159.13 857.21,-146.25 920.17,-130.21"/>
<polygon fill="#63b8ff" stroke="#63b8ff" points="920.83,-133.65 929.64,-127.77 919.09,-126.87 920.83,-133.65"/>
</a>
</g>
</g>
<!-- Node2&#45;&gt;Node3 -->
<g id="edge2_Node000002_Node000003" class="edge">
<title>Node2&#45;&gt;Node3</title>
<g id="a_edge2_Node000002_Node000003"><a xlink:title=" ">
<path fill="none" stroke="#63b8ff" d="M456.71,-110.09C434.12,-101.56 399.99,-88.67 374.4,-79.01"/>
<polygon fill="#63b8ff" stroke="#63b8ff" points="375.67,-75.75 365.08,-75.49 373.2,-82.29 375.67,-75.75"/>
</a>
</g>
</g>
<!-- Node5 -->
<g id="Node000005" class="node">
<title>Node5</title>
<g id="a_Node000005"><a xlink:title=" ">
<polygon fill="#e0e0e0" stroke="#999999" points="679.75,-19.25 631.5,-19.25 631.5,0 679.75,0 679.75,-19.25"/>
<text text-anchor="middle" x="655.62" y="-5.75" font-family="Helvetica,sans-Serif" font-size="10.00">cstddef</text>
</a>
</g>
</g>
<!-- Node2&#45;&gt;Node5 -->
<g id="edge18_Node000002_Node000005" class="edge">
<title>Node2&#45;&gt;Node5</title>
<g id="a_edge18_Node000002_Node000005"><a xlink:title=" ">
<path fill="none" stroke="#63b8ff" d="M474.13,-110.28C465.21,-96.94 451.65,-71.51 464.62,-55.25 507.35,-1.7 548.45,-32.93 619.89,-19.55"/>
<polygon fill="#63b8ff" stroke="#63b8ff" points="620.62,-22.97 629.66,-17.44 619.15,-16.13 620.62,-22.97"/>
</a>
</g>
</g>
<!-- Node12 -->
<g id="Node000012" class="node">
<title>Node12</title>
<g id="a_Node000012"><a xlink:title=" ">
<polygon fill="#e0e0e0" stroke="#999999" points="737.62,-19.25 697.62,-19.25 697.62,0 737.62,0 737.62,-19.25"/>
<text text-anchor="middle" x="717.62" y="-5.75" font-family="Helvetica,sans-Serif" font-size="10.00">string</text>
</a>
</g>
</g>
<!-- Node2&#45;&gt;Node12 -->
<g id="edge22_Node000002_Node000012" class="edge">
<title>Node2&#45;&gt;Node12</title>
<g id="a_edge22_Node000002_Node000012"><a xlink:title=" ">
<path fill="none" stroke="#63b8ff" d="M480.23,-110.22C480.14,-96.33 482.15,-69.62 497.62,-55.25 558.32,1.13 601.05,-36.22 686.25,-19.39"/>
<polygon fill="#63b8ff" stroke="#63b8ff" points="686.93,-22.83 695.94,-17.25 685.42,-15.99 686.93,-22.83"/>
</a>
</g>
</g>
<!-- Node2&#45;&gt;Node15 -->
<g id="edge14_Node000002_Node000015" class="edge">
<title>Node2&#45;&gt;Node15</title>
<g id="a_edge14_Node000002_Node000015"><a xlink:title=" ">
<path fill="none" stroke="#63b8ff" d="M429.05,-110.03C377.12,-100.87 296.94,-86.74 241.36,-76.94"/>
<polygon fill="#63b8ff" stroke="#63b8ff" points="242.18,-73.53 231.73,-75.24 240.97,-80.42 242.18,-73.53"/>
</a>
</g>
</g>
<!-- Node2&#45;&gt;Node16 -->
<g id="edge17_Node000002_Node000016" class="edge">
<title>Node2&#45;&gt;Node16</title>
<g id="a_edge17_Node000002_Node000016"><a xlink:title=" ">
<path fill="none" stroke="#63b8ff" d="M497.25,-110.09C512.31,-101.91 534.77,-89.71 552.28,-80.19"/>
<polygon fill="#63b8ff" stroke="#63b8ff" points="553.47,-83.52 560.59,-75.68 550.13,-77.37 553.47,-83.52"/>
</a>
</g>
</g>
<!-- Node2&#45;&gt;Node17 -->
<g id="edge19_Node000002_Node000017" class="edge">
<title>Node2&#45;&gt;Node17</title>
<g id="a_edge19_Node000002_Node000017"><a xlink:title=" ">
<path fill="none" stroke="#63b8ff" d="M507.43,-110.09C534.48,-100.98 576.3,-86.88 605.43,-77.06"/>
<polygon fill="#63b8ff" stroke="#63b8ff" points="606.5,-80.39 614.86,-73.88 604.27,-73.76 606.5,-80.39"/>
</a>
</g>
</g>
<!-- Node18 -->
<g id="Node000018" class="node">
<title>Node18</title>
<g id="a_Node000018"><a xlink:title=" ">
<polygon fill="#e0e0e0" stroke="#999999" points="541,-74.5 506.25,-74.5 506.25,-55.25 541,-55.25 541,-74.5"/>
<text text-anchor="middle" x="523.62" y="-61" font-family="Helvetica,sans-Serif" font-size="10.00">map</text>
</a>
</g>
</g>
<!-- Node2&#45;&gt;Node18 -->
<g id="edge20_Node000002_Node000018" class="edge">
<title>Node2&#45;&gt;Node18</title>
<g id="a_edge20_Node000002_Node000018"><a xlink:title=" ">
<path fill="none" stroke="#63b8ff" d="M487.73,-110.33C493.54,-103.13 501.96,-92.71 509.18,-83.76"/>
<polygon fill="#63b8ff" stroke="#63b8ff" points="511.86,-86.02 515.42,-76.04 506.41,-81.62 511.86,-86.02"/>
</a>
</g>
</g>
<!-- Node2&#45;&gt;Node19 -->
<g id="edge21_Node000002_Node000019" class="edge">
<title>Node2&#45;&gt;Node19</title>
<g id="a_edge21_Node000002_Node000019"><a xlink:title=" ">
<path fill="none" stroke="#63b8ff" d="M519.74,-110.01C555.67,-101.61 610.67,-88.68 667.92,-74.89"/>
<polygon fill="#63b8ff" stroke="#63b8ff" points="668.65,-78.32 677.55,-72.57 667,-71.51 668.65,-78.32"/>
</a>
</g>
</g>
<!-- Node2&#45;&gt;Node20 -->
<g id="edge23_Node000002_Node000020" class="edge">
<title>Node2&#45;&gt;Node20</title>
<g id="a_edge23_Node000002_Node000020"><a xlink:title=" ">
<path fill="none" stroke="#63b8ff" d="M543.8,-110.01C593.68,-102.39 665.25,-90.57 736.68,-74.74"/>
<polygon fill="#63b8ff" stroke="#63b8ff" points="737.21,-78.21 746.2,-72.61 735.68,-71.38 737.21,-78.21"/>
</a>
</g>
</g>
<!-- Node4 -->
<g id="Node000004" class="node">
<title>Node4</title>
<g id="a_Node000004"><a xlink:title=" ">
<polygon fill="#e0e0e0" stroke="#999999" points="409.75,-19.25 361.5,-19.25 361.5,0 409.75,0 409.75,-19.25"/>
<text text-anchor="middle" x="385.62" y="-5.75" font-family="Helvetica,sans-Serif" font-size="10.00">cassert</text>
</a>
</g>
</g>
<!-- Node3&#45;&gt;Node4 -->
<g id="edge3_Node000003_Node000004" class="edge">
<title>Node3&#45;&gt;Node4</title>
<g id="a_edge3_Node000003_Node000004"><a xlink:title=" ">
<path fill="none" stroke="#63b8ff" d="M347.22,-55.08C353.51,-47.8 362.64,-37.23 370.42,-28.23"/>
<polygon fill="#63b8ff" stroke="#63b8ff" points="372.99,-30.61 376.87,-20.75 367.69,-26.03 372.99,-30.61"/>
</a>
</g>
</g>
<!-- Node3&#45;&gt;Node5 -->
<g id="edge4_Node000003_Node000005" class="edge">
<title>Node3&#45;&gt;Node5</title>
<g id="a_edge4_Node000003_Node000005"><a xlink:title=" ">
<path fill="none" stroke="#63b8ff" d="M409.76,-54.79C464.66,-47.23 543.13,-35.43 620.3,-19.57"/>
<polygon fill="#63b8ff" stroke="#63b8ff" points="620.62,-23.08 629.7,-17.61 619.2,-16.22 620.62,-23.08"/>
</a>
</g>
</g>
<!-- Node3&#45;&gt;Node6 -->
<g id="edge5_Node000003_Node000006" class="edge">
<title>Node3&#45;&gt;Node6</title>
<g id="a_edge5_Node000003_Node000006"><a xlink:title=" ">
<path fill="none" stroke="#63b8ff" d="M266.91,-54.91C211.45,-47.53 133.01,-35.92 56.37,-19.66"/>
<polygon fill="#63b8ff" stroke="#63b8ff" points="57.57,-16.33 47.05,-17.65 56.09,-23.18 57.57,-16.33"/>
</a>
</g>
</g>
<!-- Node7 -->
<g id="Node000007" class="node">
<title>Node7</title>
<g id="a_Node000007"><a xlink:title=" ">
<polygon fill="#e0e0e0" stroke="#999999" points="477.5,-19.25 427.75,-19.25 427.75,0 477.5,0 477.5,-19.25"/>
<text text-anchor="middle" x="452.62" y="-5.75" font-family="Helvetica,sans-Serif" font-size="10.00">iomanip</text>
</a>
</g>
</g>
<!-- Node3&#45;&gt;Node7 -->
<g id="edge6_Node000003_Node000007" class="edge">
<title>Node3&#45;&gt;Node7</title>
<g id="a_edge6_Node000003_Node000007"><a xlink:title=" ">
<path fill="none" stroke="#63b8ff" d="M358.79,-54.84C376.41,-46.54 402.78,-34.11 423.09,-24.54"/>
<polygon fill="#63b8ff" stroke="#63b8ff" points="424.44,-27.78 431.99,-20.35 421.45,-21.44 424.44,-27.78"/>
</a>
</g>
</g>
<!-- Node8 -->
<g id="Node000008" class="node">
<title>Node8</title>
<g id="a_Node000008"><a xlink:title=" ">
<polygon fill="#e0e0e0" stroke="#999999" points="543.75,-19.25 495.5,-19.25 495.5,0 543.75,0 543.75,-19.25"/>
<text text-anchor="middle" x="519.62" y="-5.75" font-family="Helvetica,sans-Serif" font-size="10.00">istream</text>
</a>
</g>
</g>
<!-- Node3&#45;&gt;Node8 -->
<g id="edge7_Node000003_Node000008" class="edge">
<title>Node3&#45;&gt;Node8</title>
<g id="a_edge7_Node000003_Node000008"><a xlink:title=" ">
<path fill="none" stroke="#63b8ff" d="M370.16,-54.84C401.79,-45.48 451.16,-30.88 484.41,-21.04"/>
<polygon fill="#63b8ff" stroke="#63b8ff" points="484.98,-24.52 493.57,-18.33 482.99,-17.81 484.98,-24.52"/>
</a>
</g>
</g>
<!-- Node9 -->
<g id="Node000009" class="node">
<title>Node9</title>
<g id="a_Node000009"><a xlink:title=" ">
<polygon fill="#e0e0e0" stroke="#999999" points="102.25,-19.25 63,-19.25 63,0 102.25,0 102.25,-19.25"/>
<text text-anchor="middle" x="82.62" y="-5.75" font-family="Helvetica,sans-Serif" font-size="10.00">limits</text>
</a>
</g>
</g>
<!-- Node3&#45;&gt;Node9 -->
<g id="edge8_Node000003_Node000009" class="edge">
<title>Node3&#45;&gt;Node9</title>
<g id="a_edge8_Node000003_Node000009"><a xlink:title=" ">
<path fill="none" stroke="#63b8ff" d="M284.2,-54.78C240.14,-47.16 176.76,-35.36 113.68,-19.83"/>
<polygon fill="#63b8ff" stroke="#63b8ff" points="114.76,-16.49 104.21,-17.47 113.06,-23.29 114.76,-16.49"/>
</a>
</g>
</g>
<!-- Node10 -->
<g id="Node000010" class="node">
<title>Node10</title>
<g id="a_Node000010"><a xlink:title=" ">
<polygon fill="#e0e0e0" stroke="#999999" points="613.25,-19.25 562,-19.25 562,0 613.25,0 613.25,-19.25"/>
<text text-anchor="middle" x="587.62" y="-5.75" font-family="Helvetica,sans-Serif" font-size="10.00">ostream</text>
</a>
</g>
</g>
<!-- Node3&#45;&gt;Node10 -->
<g id="edge9_Node000003_Node000010" class="edge">
<title>Node3&#45;&gt;Node10</title>
<g id="a_edge9_Node000003_Node000010"><a xlink:title=" ">
<path fill="none" stroke="#63b8ff" d="M385.43,-54.76C426.27,-46.53 487.95,-33.83 550.75,-19.61"/>
<polygon fill="#63b8ff" stroke="#63b8ff" points="551.21,-23.1 560.18,-17.47 549.65,-16.27 551.21,-23.1"/>
</a>
</g>
</g>
<!-- Node11 -->
<g id="Node000011" class="node">
<title>Node11</title>
<g id="a_Node000011"><a xlink:title=" ">
<polygon fill="#e0e0e0" stroke="#999999" points="171.25,-19.25 120,-19.25 120,0 171.25,0 171.25,-19.25"/>
<text text-anchor="middle" x="145.62" y="-5.75" font-family="Helvetica,sans-Serif" font-size="10.00">sstream</text>
</a>
</g>
</g>
<!-- Node3&#45;&gt;Node11 -->
<g id="edge10_Node000003_Node000011" class="edge">
<title>Node3&#45;&gt;Node11</title>
<g id="a_edge10_Node000003_Node000011"><a xlink:title=" ">
<path fill="none" stroke="#63b8ff" d="M306.72,-54.84C272.28,-45.39 218.34,-30.59 182.5,-20.75"/>
<polygon fill="#63b8ff" stroke="#63b8ff" points="183.57,-17.41 173,-18.14 181.72,-24.16 183.57,-17.41"/>
</a>
</g>
</g>
<!-- Node3&#45;&gt;Node12 -->
<g id="edge11_Node000003_Node000012" class="edge">
<title>Node3&#45;&gt;Node12</title>
<g id="a_edge11_Node000003_Node000012"><a xlink:title=" ">
<path fill="none" stroke="#63b8ff" d="M412.39,-58.03C480.82,-51.75 586.24,-40.08 685.95,-19.52"/>
<polygon fill="#63b8ff" stroke="#63b8ff" points="686.59,-22.96 695.65,-17.48 685.15,-16.11 686.59,-22.96"/>
</a>
</g>
</g>
<!-- Node13 -->
<g id="Node000013" class="node">
<title>Node13</title>
<g id="a_Node000013"><a xlink:title=" ">
<polygon fill="#e0e0e0" stroke="#999999" points="226.12,-19.25 189.12,-19.25 189.12,0 226.12,0 226.12,-19.25"/>
<text text-anchor="middle" x="207.62" y="-5.75" font-family="Helvetica,sans-Serif" font-size="10.00">tuple</text>
</a>
</g>
</g>
<!-- Node3&#45;&gt;Node13 -->
<g id="edge12_Node000003_Node000013" class="edge">
<title>Node3&#45;&gt;Node13</title>
<g id="a_edge12_Node000003_Node000013"><a xlink:title=" ">
<path fill="none" stroke="#63b8ff" d="M317.23,-54.84C295.04,-45.89 260.93,-32.13 236.66,-22.34"/>
<polygon fill="#63b8ff" stroke="#63b8ff" points="238.27,-19.21 227.68,-18.72 235.65,-25.7 238.27,-19.21"/>
</a>
</g>
</g>
<!-- Node14 -->
<g id="Node000014" class="node">
<title>Node14</title>
<g id="a_Node000014"><a xlink:href="SourceID_8hxx.html" target="_top" xlink:title=" ">
<polygon fill="white" stroke="#666666" points="343.25,-19.25 244,-19.25 244,0 343.25,0 343.25,-19.25"/>
<text text-anchor="middle" x="293.62" y="-5.75" font-family="Helvetica,sans-Serif" font-size="10.00">detail/SourceID.hxx</text>
</a>
</g>
</g>
<!-- Node3&#45;&gt;Node14 -->
<g id="edge13_Node000003_Node000014" class="edge">
<title>Node3&#45;&gt;Node14</title>
<g id="a_edge13_Node000003_Node000014"><a xlink:title=" ">
<path fill="none" stroke="#63b8ff" d="M332.03,-55.08C325.74,-47.8 316.61,-37.23 308.83,-28.23"/>
<polygon fill="#63b8ff" stroke="#63b8ff" points="311.56,-26.03 302.38,-20.75 306.26,-30.61 311.56,-26.03"/>
</a>
</g>
</g>
<!-- Node15&#45;&gt;Node6 -->
<g id="edge15_Node000015_Node000006" class="edge">
<title>Node15&#45;&gt;Node6</title>
<g id="a_edge15_Node000015_Node000006"><a xlink:title=" ">
<path fill="none" stroke="#63b8ff" d="M152.16,-54.84C125.76,-45.83 85.11,-31.95 56.4,-22.15"/>
<polygon fill="#63b8ff" stroke="#63b8ff" points="57.68,-18.89 47.09,-18.97 55.42,-25.52 57.68,-18.89"/>
</a>
</g>
</g>
<!-- Node15&#45;&gt;Node9 -->
<g id="edge16_Node000015_Node000009" class="edge">
<title>Node15&#45;&gt;Node9</title>
<g id="a_edge16_Node000015_Node000009"><a xlink:title=" ">
<path fill="none" stroke="#63b8ff" d="M162.34,-54.84C147.72,-46.73 126,-34.68 108.92,-25.21"/>
<polygon fill="#63b8ff" stroke="#63b8ff" points="110.76,-22.23 100.31,-20.44 107.36,-28.35 110.76,-22.23"/>
</a>
</g>
</g>
</g>
</svg>
