<?xml version="1.0" encoding="UTF-8" standalone="no"?>
<!DOCTYPE svg PUBLIC "-//W3C//DTD SVG 1.1//EN"
 "http://www.w3.org/Graphics/SVG/1.1/DTD/svg11.dtd">
<!-- Generated by graphviz version 9.0.0 (20230911.1827)
 -->
<!-- Title: /github/workspace/dev_area/sourcecode/datahandlinglibs/include/datahandlinglibs/FrameErrorRegistry.hpp Pages: 1 -->
<svg width="2734pt" height="395pt"
 viewBox="0.00 0.00 2733.62 394.50" xmlns="http://www.w3.org/2000/svg" xmlns:xlink="http://www.w3.org/1999/xlink">
<g id="graph0" class="graph" transform="scale(1 1) rotate(0) translate(4 390.5)">
<title>/github/workspace/dev_area/sourcecode/datahandlinglibs/include/datahandlinglibs/FrameErrorRegistry.hpp</title>
<!-- Node1 -->
<g id="Node000001" class="node">
<title>Node1</title>
<g id="a_Node000001"><a xlink:title=" ">
<polygon fill="#999999" stroke="#666666" points="1504.75,-386.5 1331.25,-386.5 1331.25,-333.5 1504.75,-333.5 1504.75,-386.5"/>
<text text-anchor="start" x="1339.25" y="-373" font-family="Helvetica,sans-Serif" font-size="10.00">/github/workspace/dev</text>
<text text-anchor="start" x="1339.25" y="-361.75" font-family="Helvetica,sans-Serif" font-size="10.00">_area/sourcecode/datahandlinglibs</text>
<text text-anchor="start" x="1339.25" y="-350.5" font-family="Helvetica,sans-Serif" font-size="10.00">/include/datahandlinglibs/FrameError</text>
<text text-anchor="middle" x="1418" y="-339.25" font-family="Helvetica,sans-Serif" font-size="10.00">Registry.hpp</text>
</a>
</g>
</g>
<!-- Node2 -->
<g id="Node000002" class="node">
<title>Node2</title>
<g id="a_Node000002"><a xlink:href="DataHandlingModel_8hpp.html" target="_top" xlink:title=" ">
<polygon fill="white" stroke="#666666" points="166,-297.5 0,-297.5 0,-244.5 166,-244.5 166,-297.5"/>
<text text-anchor="start" x="8" y="-284" font-family="Helvetica,sans-Serif" font-size="10.00">/github/workspace/dev</text>
<text text-anchor="start" x="8" y="-272.75" font-family="Helvetica,sans-Serif" font-size="10.00">_area/sourcecode/datahandlinglibs</text>
<text text-anchor="start" x="8" y="-261.5" font-family="Helvetica,sans-Serif" font-size="10.00">/include/datahandlinglibs/models</text>
<text text-anchor="middle" x="83" y="-250.25" font-family="Helvetica,sans-Serif" font-size="10.00">/DataHandlingModel.hpp</text>
</a>
</g>
</g>
<!-- Node1&#45;&gt;Node2 -->
<g id="edge1_Node000001_Node000002" class="edge">
<title>Node1&#45;&gt;Node2</title>
<g id="a_edge1_Node000001_Node000002"><a xlink:title=" ">
<path fill="none" stroke="#63b8ff" d="M1319.63,-354.21C1133.91,-344.96 718.95,-323.24 370,-297.5 301.41,-292.44 223.7,-285.46 166.46,-280.08"/>
<polygon fill="#63b8ff" stroke="#63b8ff" points="1319.32,-357.7 1329.48,-354.7 1319.66,-350.71 1319.32,-357.7"/>
</a>
</g>
</g>
<!-- Node4 -->
<g id="Node000004" class="node">
<title>Node4</title>
<g id="a_Node000004"><a xlink:href="DefaultRequestHandlerModel_8hpp.html" target="_top" xlink:title=" ">
<polygon fill="white" stroke="#666666" points="545,-297.5 379,-297.5 379,-244.5 545,-244.5 545,-297.5"/>
<text text-anchor="start" x="387" y="-284" font-family="Helvetica,sans-Serif" font-size="10.00">/github/workspace/dev</text>
<text text-anchor="start" x="387" y="-272.75" font-family="Helvetica,sans-Serif" font-size="10.00">_area/sourcecode/datahandlinglibs</text>
<text text-anchor="start" x="387" y="-261.5" font-family="Helvetica,sans-Serif" font-size="10.00">/include/datahandlinglibs/models</text>
<text text-anchor="middle" x="462" y="-250.25" font-family="Helvetica,sans-Serif" font-size="10.00">/DefaultRequestHandlerModel.hpp</text>
</a>
</g>
</g>
<!-- Node1&#45;&gt;Node4 -->
<g id="edge3_Node000001_Node000004" class="edge">
<title>Node1&#45;&gt;Node4</title>
<g id="a_edge3_Node000001_Node000004"><a xlink:title=" ">
<path fill="none" stroke="#63b8ff" d="M1319.62,-352.89C1173.21,-343.41 889.41,-323.48 649,-297.5 614.96,-293.82 577.55,-288.9 545.19,-284.36"/>
<polygon fill="#63b8ff" stroke="#63b8ff" points="1319.07,-356.36 1329.27,-353.52 1319.52,-349.38 1319.07,-356.36"/>
</a>
</g>
</g>
<!-- Node5 -->
<g id="Node000005" class="node">
<title>Node5</title>
<g id="a_Node000005"><a xlink:href="DefaultSkipListRequestHandler_8hpp.html" target="_top" xlink:title=" ">
<polygon fill="white" stroke="#666666" points="710.75,-208.5 537.25,-208.5 537.25,-155.5 710.75,-155.5 710.75,-208.5"/>
<text text-anchor="start" x="545.25" y="-195" font-family="Helvetica,sans-Serif" font-size="10.00">/github/workspace/dev</text>
<text text-anchor="start" x="545.25" y="-183.75" font-family="Helvetica,sans-Serif" font-size="10.00">_area/sourcecode/datahandlinglibs</text>
<text text-anchor="start" x="545.25" y="-172.5" font-family="Helvetica,sans-Serif" font-size="10.00">/include/datahandlinglibs/models</text>
<text text-anchor="middle" x="624" y="-161.25" font-family="Helvetica,sans-Serif" font-size="10.00">/DefaultSkipListRequestHandler.hpp</text>
</a>
</g>
</g>
<!-- Node1&#45;&gt;Node5 -->
<g id="edge15_Node000001_Node000005" class="edge">
<title>Node1&#45;&gt;Node5</title>
<g id="a_edge15_Node000001_Node000005"><a xlink:title=" ">
<path fill="none" stroke="#63b8ff" d="M1319.85,-359.14C1154.03,-357.93 826.54,-348.86 725,-297.5 685.97,-277.76 655.3,-235.9 638.42,-208.64"/>
<polygon fill="#63b8ff" stroke="#63b8ff" points="1319.48,-362.64 1329.5,-359.2 1319.53,-355.64 1319.48,-362.64"/>
</a>
</g>
</g>
<!-- Node6 -->
<g id="Node000006" class="node">
<title>Node6</title>
<g id="a_Node000006"><a xlink:href="TPRequestHandler_8hpp.html" target="_top" xlink:title=" ">
<polygon fill="white" stroke="#666666" points="544,-119.5 378,-119.5 378,-77.75 544,-77.75 544,-119.5"/>
<text text-anchor="start" x="386" y="-106" font-family="Helvetica,sans-Serif" font-size="10.00">/github/workspace/dev</text>
<text text-anchor="start" x="386" y="-94.75" font-family="Helvetica,sans-Serif" font-size="10.00">_area/sourcecode/trigger</text>
<text text-anchor="middle" x="461" y="-83.5" font-family="Helvetica,sans-Serif" font-size="10.00">/src/trigger/TPRequestHandler.hpp</text>
</a>
</g>
</g>
<!-- Node1&#45;&gt;Node6 -->
<g id="edge49_Node000001_Node000006" class="edge">
<title>Node1&#45;&gt;Node6</title>
<g id="a_edge49_Node000001_Node000006"><a xlink:title=" ">
<path fill="none" stroke="#63b8ff" d="M1319.87,-348.1C1243.16,-338.35 1134.27,-321.82 1041,-297.5 928.9,-268.27 898.83,-261.86 796,-208.5 759.45,-189.53 757.76,-171.94 720,-155.5 650.38,-125.19 627.22,-135.52 553,-119.5 550.12,-118.88 547.2,-118.25 544.24,-117.61"/>
<polygon fill="#63b8ff" stroke="#63b8ff" points="1319.09,-351.52 1329.45,-349.3 1319.96,-344.58 1319.09,-351.52"/>
</a>
</g>
</g>
<!-- Node10 -->
<g id="Node000010" class="node">
<title>Node10</title>
<g id="a_Node000010"><a xlink:href="DAPHNEListRequestHandler_8hpp.html" target="_top" xlink:title=" ">
<polygon fill="white" stroke="#666666" points="969.25,-208.5 804.75,-208.5 804.75,-155.5 969.25,-155.5 969.25,-208.5"/>
<text text-anchor="start" x="812.75" y="-195" font-family="Helvetica,sans-Serif" font-size="10.00">/github/workspace/dev</text>
<text text-anchor="start" x="812.75" y="-183.75" font-family="Helvetica,sans-Serif" font-size="10.00">_area/sourcecode/fdreadoutlibs</text>
<text text-anchor="start" x="812.75" y="-172.5" font-family="Helvetica,sans-Serif" font-size="10.00">/include/fdreadoutlibs/daphne</text>
<text text-anchor="middle" x="887" y="-161.25" font-family="Helvetica,sans-Serif" font-size="10.00">/DAPHNEListRequestHandler.hpp</text>
</a>
</g>
</g>
<!-- Node1&#45;&gt;Node10 -->
<g id="edge40_Node000001_Node000010" class="edge">
<title>Node1&#45;&gt;Node10</title>
<g id="a_edge40_Node000001_Node000010"><a xlink:title=" ">
<path fill="none" stroke="#63b8ff" d="M1319.83,-335.78C1277.7,-325.15 1228.12,-311.75 1184,-297.5 1101.18,-270.74 1007.85,-233.57 948.29,-208.93"/>
<polygon fill="#63b8ff" stroke="#63b8ff" points="1318.91,-339.16 1329.46,-338.19 1320.61,-332.37 1318.91,-339.16"/>
</a>
</g>
</g>
<!-- Node13 -->
<g id="Node000013" class="node">
<title>Node13</title>
<g id="a_Node000013"><a xlink:href="TaskRawDataProcessorModel_8hpp.html" target="_top" xlink:title=" ">
<polygon fill="white" stroke="#666666" points="1886.5,-297.5 1717.5,-297.5 1717.5,-244.5 1886.5,-244.5 1886.5,-297.5"/>
<text text-anchor="start" x="1725.5" y="-284" font-family="Helvetica,sans-Serif" font-size="10.00">/github/workspace/dev</text>
<text text-anchor="start" x="1725.5" y="-272.75" font-family="Helvetica,sans-Serif" font-size="10.00">_area/sourcecode/datahandlinglibs</text>
<text text-anchor="start" x="1725.5" y="-261.5" font-family="Helvetica,sans-Serif" font-size="10.00">/include/datahandlinglibs/models</text>
<text text-anchor="middle" x="1802" y="-250.25" font-family="Helvetica,sans-Serif" font-size="10.00">/TaskRawDataProcessorModel.hpp</text>
</a>
</g>
</g>
<!-- Node1&#45;&gt;Node13 -->
<g id="edge16_Node000001_Node000013" class="edge">
<title>Node1&#45;&gt;Node13</title>
<g id="a_edge16_Node000001_Node000013"><a xlink:title=" ">
<path fill="none" stroke="#63b8ff" d="M1516.35,-338.78C1571.37,-327.21 1641.13,-312.14 1703,-297.5 1707.66,-296.4 1712.44,-295.24 1717.27,-294.06"/>
<polygon fill="#63b8ff" stroke="#63b8ff" points="1515.75,-335.33 1506.68,-340.81 1517.19,-342.18 1515.75,-335.33"/>
</a>
</g>
</g>
<!-- Node14 -->
<g id="Node000014" class="node">
<title>Node14</title>
<g id="a_Node000014"><a xlink:href="DAPHNEFrameProcessor_8hpp.html" target="_top" xlink:title=" ">
<polygon fill="white" stroke="#666666" points="1138.88,-208.5 987.12,-208.5 987.12,-155.5 1138.88,-155.5 1138.88,-208.5"/>
<text text-anchor="start" x="995.12" y="-195" font-family="Helvetica,sans-Serif" font-size="10.00">/github/workspace/dev</text>
<text text-anchor="start" x="995.12" y="-183.75" font-family="Helvetica,sans-Serif" font-size="10.00">_area/sourcecode/fdreadoutlibs</text>
<text text-anchor="start" x="995.12" y="-172.5" font-family="Helvetica,sans-Serif" font-size="10.00">/include/fdreadoutlibs/daphne</text>
<text text-anchor="middle" x="1063" y="-161.25" font-family="Helvetica,sans-Serif" font-size="10.00">/DAPHNEFrameProcessor.hpp</text>
</a>
</g>
</g>
<!-- Node1&#45;&gt;Node14 -->
<g id="edge39_Node000001_Node000014" class="edge">
<title>Node1&#45;&gt;Node14</title>
<g id="a_edge39_Node000001_Node000014"><a xlink:title=" ">
<path fill="none" stroke="#63b8ff" d="M1355.44,-327.98C1287.2,-294.15 1179.21,-240.61 1115.31,-208.93"/>
<polygon fill="#63b8ff" stroke="#63b8ff" points="1353.75,-331.05 1364.26,-332.36 1356.86,-324.78 1353.75,-331.05"/>
</a>
</g>
</g>
<!-- Node16 -->
<g id="Node000016" class="node">
<title>Node16</title>
<g id="a_Node000016"><a xlink:href="DAPHNEStreamFrameProcessor_8hpp.html" target="_top" xlink:title=" ">
<polygon fill="white" stroke="#666666" points="1508.88,-208.5 1327.12,-208.5 1327.12,-155.5 1508.88,-155.5 1508.88,-208.5"/>
<text text-anchor="start" x="1335.12" y="-195" font-family="Helvetica,sans-Serif" font-size="10.00">/github/workspace/dev</text>
<text text-anchor="start" x="1335.12" y="-183.75" font-family="Helvetica,sans-Serif" font-size="10.00">_area/sourcecode/fdreadoutlibs</text>
<text text-anchor="start" x="1335.12" y="-172.5" font-family="Helvetica,sans-Serif" font-size="10.00">/include/fdreadoutlibs/daphne</text>
<text text-anchor="middle" x="1418" y="-161.25" font-family="Helvetica,sans-Serif" font-size="10.00">/DAPHNEStreamFrameProcessor.hpp</text>
</a>
</g>
</g>
<!-- Node1&#45;&gt;Node16 -->
<g id="edge41_Node000001_Node000016" class="edge">
<title>Node1&#45;&gt;Node16</title>
<g id="a_edge41_Node000001_Node000016"><a xlink:title=" ">
<path fill="none" stroke="#63b8ff" d="M1418,-321.72C1418,-287.78 1418,-238.56 1418,-208.79"/>
<polygon fill="#63b8ff" stroke="#63b8ff" points="1414.5,-321.52 1418,-331.52 1421.5,-321.52 1414.5,-321.52"/>
</a>
</g>
</g>
<!-- Node19 -->
<g id="Node000019" class="node">
<title>Node19</title>
<g id="a_Node000019"><a xlink:href="TDEEthFrameProcessor_8cpp.html" target="_top" xlink:title=" ">
<polygon fill="white" stroke="#666666" points="1999.5,-119.5 1824.5,-119.5 1824.5,-77.75 1999.5,-77.75 1999.5,-119.5"/>
<text text-anchor="start" x="1832.5" y="-106" font-family="Helvetica,sans-Serif" font-size="10.00">/github/workspace/dev</text>
<text text-anchor="start" x="1832.5" y="-94.75" font-family="Helvetica,sans-Serif" font-size="10.00">_area/sourcecode/fdreadoutlibs</text>
<text text-anchor="middle" x="1912" y="-83.5" font-family="Helvetica,sans-Serif" font-size="10.00">/src/tde/TDEEthFrameProcessor.cpp</text>
</a>
</g>
</g>
<!-- Node1&#45;&gt;Node19 -->
<g id="edge43_Node000001_Node000019" class="edge">
<title>Node1&#45;&gt;Node19</title>
<g id="a_edge43_Node000001_Node000019"><a xlink:title=" ">
<path fill="none" stroke="#63b8ff" d="M1516.52,-352.88C1648.79,-343.69 1870.28,-324.47 1896,-297.5 1942.27,-248.99 1927.47,-159.97 1917.68,-120"/>
<polygon fill="#63b8ff" stroke="#63b8ff" points="1516.44,-349.38 1506.7,-353.56 1516.92,-356.36 1516.44,-349.38"/>
</a>
</g>
</g>
<!-- Node20 -->
<g id="Node000020" class="node">
<title>Node20</title>
<g id="a_Node000020"><a xlink:href="TDEFrameProcessor_8hpp.html" target="_top" xlink:title=" ">
<polygon fill="white" stroke="#666666" points="1308.88,-208.5 1157.12,-208.5 1157.12,-155.5 1308.88,-155.5 1308.88,-208.5"/>
<text text-anchor="start" x="1165.12" y="-195" font-family="Helvetica,sans-Serif" font-size="10.00">/github/workspace/dev</text>
<text text-anchor="start" x="1165.12" y="-183.75" font-family="Helvetica,sans-Serif" font-size="10.00">_area/sourcecode/fdreadoutlibs</text>
<text text-anchor="start" x="1165.12" y="-172.5" font-family="Helvetica,sans-Serif" font-size="10.00">/include/fdreadoutlibs/tde</text>
<text text-anchor="middle" x="1233" y="-161.25" font-family="Helvetica,sans-Serif" font-size="10.00">/TDEFrameProcessor.hpp</text>
</a>
</g>
</g>
<!-- Node1&#45;&gt;Node20 -->
<g id="edge42_Node000001_Node000020" class="edge">
<title>Node1&#45;&gt;Node20</title>
<g id="a_edge42_Node000001_Node000020"><a xlink:title=" ">
<path fill="none" stroke="#63b8ff" d="M1382.49,-325.22C1346.78,-291.25 1292.5,-239.6 1260.11,-208.79"/>
<polygon fill="#63b8ff" stroke="#63b8ff" points="1379.95,-327.63 1389.61,-331.99 1384.77,-322.56 1379.95,-327.63"/>
</a>
</g>
</g>
<!-- Node23 -->
<g id="Node000023" class="node">
<title>Node23</title>
<g id="a_Node000023"><a xlink:href="WIBEthFrameProcessor_8cpp.html" target="_top" xlink:title=" ">
<polygon fill="white" stroke="#666666" points="1804,-119.5 1614,-119.5 1614,-77.75 1804,-77.75 1804,-119.5"/>
<text text-anchor="start" x="1622" y="-106" font-family="Helvetica,sans-Serif" font-size="10.00">/github/workspace/dev</text>
<text text-anchor="start" x="1622" y="-94.75" font-family="Helvetica,sans-Serif" font-size="10.00">_area/sourcecode/fdreadoutlibs</text>
<text text-anchor="middle" x="1709" y="-83.5" font-family="Helvetica,sans-Serif" font-size="10.00">/src/wibeth/WIBEthFrameProcessor.cpp</text>
</a>
</g>
</g>
<!-- Node1&#45;&gt;Node23 -->
<g id="edge44_Node000001_Node000023" class="edge">
<title>Node1&#45;&gt;Node23</title>
<g id="a_edge44_Node000001_Node000023"><a xlink:title=" ">
<path fill="none" stroke="#63b8ff" d="M1514.22,-328.96C1573.38,-305.51 1645.71,-266.94 1688,-208.5 1707.07,-182.14 1710.12,-143.14 1709.98,-119.67"/>
<polygon fill="#63b8ff" stroke="#63b8ff" points="1513.2,-325.6 1505.13,-332.47 1515.72,-332.13 1513.2,-325.6"/>
</a>
</g>
</g>
<!-- Node24 -->
<g id="Node000024" class="node">
<title>Node24</title>
<g id="a_Node000024"><a xlink:href="sourcecode_2hsilibs_2src_2HSIFrameProcessor_8hpp.html" target="_top" xlink:title=" ">
<polygon fill="white" stroke="#666666" points="2636.38,-202.88 2493.62,-202.88 2493.62,-161.12 2636.38,-161.12 2636.38,-202.88"/>
<text text-anchor="start" x="2501.62" y="-189.38" font-family="Helvetica,sans-Serif" font-size="10.00">/github/workspace/dev</text>
<text text-anchor="start" x="2501.62" y="-178.12" font-family="Helvetica,sans-Serif" font-size="10.00">_area/sourcecode/hsilibs</text>
<text text-anchor="middle" x="2565" y="-166.88" font-family="Helvetica,sans-Serif" font-size="10.00">/src/HSIFrameProcessor.hpp</text>
</a>
</g>
</g>
<!-- Node1&#45;&gt;Node24 -->
<g id="edge45_Node000001_Node000024" class="edge">
<title>Node1&#45;&gt;Node24</title>
<g id="a_edge45_Node000001_Node000024"><a xlink:title=" ">
<path fill="none" stroke="#63b8ff" d="M1516.41,-358.02C1763.56,-354.9 2396.56,-342.54 2480,-297.5 2518.56,-276.68 2544.43,-229.92 2556.73,-203.03"/>
<polygon fill="#63b8ff" stroke="#63b8ff" points="1516.41,-354.52 1506.45,-358.14 1516.5,-361.52 1516.41,-354.52"/>
</a>
</g>
</g>
<!-- Node27 -->
<g id="Node000027" class="node">
<title>Node27</title>
<g id="a_Node000027"><a xlink:href="TAProcessor_8cpp.html" target="_top" xlink:title=" ">
<polygon fill="white" stroke="#666666" points="2360.62,-119.5 2237.38,-119.5 2237.38,-77.75 2360.62,-77.75 2360.62,-119.5"/>
<text text-anchor="start" x="2245.38" y="-106" font-family="Helvetica,sans-Serif" font-size="10.00">/github/workspace/dev</text>
<text text-anchor="start" x="2245.38" y="-94.75" font-family="Helvetica,sans-Serif" font-size="10.00">_area/sourcecode/trigger</text>
<text text-anchor="middle" x="2299" y="-83.5" font-family="Helvetica,sans-Serif" font-size="10.00">/src/TAProcessor.cpp</text>
</a>
</g>
</g>
<!-- Node1&#45;&gt;Node27 -->
<g id="edge46_Node000001_Node000027" class="edge">
<title>Node1&#45;&gt;Node27</title>
<g id="a_edge46_Node000001_Node000027"><a xlink:title=" ">
<path fill="none" stroke="#63b8ff" d="M1516.4,-352.05C1762.33,-333.67 2388.35,-280.21 2447,-208.5 2461.91,-190.27 2460.4,-174.88 2447,-155.5 2427.63,-127.49 2392.3,-113.5 2361.02,-106.53"/>
<polygon fill="#63b8ff" stroke="#63b8ff" points="1516.2,-348.56 1506.49,-352.79 1516.72,-355.54 1516.2,-348.56"/>
</a>
</g>
</g>
<!-- Node29 -->
<g id="Node000029" class="node">
<title>Node29</title>
<g id="a_Node000029"><a xlink:href="TCProcessor_8cpp.html" target="_top" xlink:title=" ">
<polygon fill="white" stroke="#666666" points="2725.62,-119.5 2602.38,-119.5 2602.38,-77.75 2725.62,-77.75 2725.62,-119.5"/>
<text text-anchor="start" x="2610.38" y="-106" font-family="Helvetica,sans-Serif" font-size="10.00">/github/workspace/dev</text>
<text text-anchor="start" x="2610.38" y="-94.75" font-family="Helvetica,sans-Serif" font-size="10.00">_area/sourcecode/trigger</text>
<text text-anchor="middle" x="2664" y="-83.5" font-family="Helvetica,sans-Serif" font-size="10.00">/src/TCProcessor.cpp</text>
</a>
</g>
</g>
<!-- Node1&#45;&gt;Node29 -->
<g id="edge47_Node000001_Node000029" class="edge">
<title>Node1&#45;&gt;Node29</title>
<g id="a_edge47_Node000001_Node000029"><a xlink:title=" ">
<path fill="none" stroke="#63b8ff" d="M1516.18,-356.61C1768.4,-350.04 2425.81,-329.98 2519,-297.5 2583.74,-274.93 2608.33,-266.43 2645,-208.5 2662.24,-181.26 2665.04,-142.89 2664.92,-119.72"/>
<polygon fill="#63b8ff" stroke="#63b8ff" points="1516.26,-353.11 1506.36,-356.87 1516.44,-360.11 1516.26,-353.11"/>
</a>
</g>
</g>
<!-- Node31 -->
<g id="Node000031" class="node">
<title>Node31</title>
<g id="a_Node000031"><a xlink:href="TPProcessor_8cpp.html" target="_top" xlink:title=" ">
<polygon fill="white" stroke="#666666" points="2156.62,-119.5 2033.38,-119.5 2033.38,-77.75 2156.62,-77.75 2156.62,-119.5"/>
<text text-anchor="start" x="2041.38" y="-106" font-family="Helvetica,sans-Serif" font-size="10.00">/github/workspace/dev</text>
<text text-anchor="start" x="2041.38" y="-94.75" font-family="Helvetica,sans-Serif" font-size="10.00">_area/sourcecode/trigger</text>
<text text-anchor="middle" x="2095" y="-83.5" font-family="Helvetica,sans-Serif" font-size="10.00">/src/TPProcessor.cpp</text>
</a>
</g>
</g>
<!-- Node1&#45;&gt;Node31 -->
<g id="edge48_Node000001_Node000031" class="edge">
<title>Node1&#45;&gt;Node31</title>
<g id="a_edge48_Node000001_Node000031"><a xlink:title=" ">
<path fill="none" stroke="#63b8ff" d="M1516.24,-357.51C1619.64,-353.54 1786.09,-340.3 1923,-297.5 2004.02,-272.17 2047.14,-280.57 2092,-208.5 2108.79,-181.53 2104.83,-143.07 2100.13,-119.82"/>
<polygon fill="#63b8ff" stroke="#63b8ff" points="1516.26,-354.01 1506.39,-357.86 1516.51,-361 1516.26,-354.01"/>
</a>
</g>
</g>
<!-- Node3 -->
<g id="Node000003" class="node">
<title>Node3</title>
<g id="a_Node000003"><a xlink:href="Readoutlibs_8cpp.html" target="_top" xlink:title=" ">
<polygon fill="white" stroke="#666666" points="265,-119.5 99,-119.5 99,-77.75 265,-77.75 265,-119.5"/>
<text text-anchor="start" x="107" y="-106" font-family="Helvetica,sans-Serif" font-size="10.00">/github/workspace/dev</text>
<text text-anchor="start" x="107" y="-94.75" font-family="Helvetica,sans-Serif" font-size="10.00">_area/sourcecode/datahandlinglibs</text>
<text text-anchor="middle" x="182" y="-83.5" font-family="Helvetica,sans-Serif" font-size="10.00">/src/Readoutlibs.cpp</text>
</a>
</g>
</g>
<!-- Node2&#45;&gt;Node3 -->
<g id="edge2_Node000002_Node000003" class="edge">
<title>Node2&#45;&gt;Node3</title>
<g id="a_edge2_Node000002_Node000003"><a xlink:title=" ">
<path fill="none" stroke="#63b8ff" d="M53.23,-235.22C36.63,-211.42 22.35,-179.87 39,-155.5 52.9,-135.14 75.43,-122.2 98.53,-113.97"/>
<polygon fill="#63b8ff" stroke="#63b8ff" points="50.24,-237.07 58.99,-243.04 55.87,-232.92 50.24,-237.07"/>
</a>
</g>
</g>
<!-- Node4&#45;&gt;Node3 -->
<g id="edge11_Node000004_Node000003" class="edge">
<title>Node4&#45;&gt;Node3</title>
<g id="a_edge11_Node000004_Node000003"><a xlink:title=" ">
<path fill="none" stroke="#63b8ff" d="M367.3,-261.47C258.08,-250.66 91.01,-230.74 72,-208.5 56.7,-190.59 59.68,-175.58 72,-155.5 81.69,-139.71 97.39,-128.21 113.93,-119.9"/>
<polygon fill="#63b8ff" stroke="#63b8ff" points="366.87,-264.95 377.17,-262.44 367.55,-257.98 366.87,-264.95"/>
</a>
</g>
</g>
<!-- Node4&#45;&gt;Node5 -->
<g id="edge4_Node000004_Node000005" class="edge">
<title>Node4&#45;&gt;Node5</title>
<g id="a_edge4_Node000004_Node000005"><a xlink:title=" ">
<path fill="none" stroke="#63b8ff" d="M520.1,-238.8C538.34,-229 558.26,-218.3 575.74,-208.92"/>
<polygon fill="#63b8ff" stroke="#63b8ff" points="518.65,-235.6 511.5,-243.42 521.97,-241.77 518.65,-235.6"/>
</a>
</g>
</g>
<!-- Node8 -->
<g id="Node000008" class="node">
<title>Node8</title>
<g id="a_Node000008"><a xlink:href="EmptyFragmentRequestHandlerModel_8hpp.html" target="_top" xlink:title=" ">
<polygon fill="white" stroke="#666666" points="282.62,-208.5 81.38,-208.5 81.38,-155.5 282.62,-155.5 282.62,-208.5"/>
<text text-anchor="start" x="89.38" y="-195" font-family="Helvetica,sans-Serif" font-size="10.00">/github/workspace/dev</text>
<text text-anchor="start" x="89.38" y="-183.75" font-family="Helvetica,sans-Serif" font-size="10.00">_area/sourcecode/datahandlinglibs</text>
<text text-anchor="start" x="89.38" y="-172.5" font-family="Helvetica,sans-Serif" font-size="10.00">/include/datahandlinglibs/models</text>
<text text-anchor="middle" x="182" y="-161.25" font-family="Helvetica,sans-Serif" font-size="10.00">/EmptyFragmentRequestHandlerModel.hpp</text>
</a>
</g>
</g>
<!-- Node4&#45;&gt;Node8 -->
<g id="edge7_Node000004_Node000008" class="edge">
<title>Node4&#45;&gt;Node8</title>
<g id="a_edge7_Node000004_Node000008"><a xlink:title=" ">
<path fill="none" stroke="#63b8ff" d="M368.11,-240.83C334.87,-230.5 297.72,-218.96 265.41,-208.92"/>
<polygon fill="#63b8ff" stroke="#63b8ff" points="366.72,-244.06 377.3,-243.68 368.79,-237.37 366.72,-244.06"/>
</a>
</g>
</g>
<!-- Node9 -->
<g id="Node000009" class="node">
<title>Node9</title>
<g id="a_Node000009"><a xlink:href="ZeroCopyRecordingRequestHandlerModel_8hpp.html" target="_top" xlink:title=" ">
<polygon fill="white" stroke="#666666" points="518.88,-208.5 301.12,-208.5 301.12,-155.5 518.88,-155.5 518.88,-208.5"/>
<text text-anchor="start" x="309.12" y="-195" font-family="Helvetica,sans-Serif" font-size="10.00">/github/workspace/dev</text>
<text text-anchor="start" x="309.12" y="-183.75" font-family="Helvetica,sans-Serif" font-size="10.00">_area/sourcecode/datahandlinglibs</text>
<text text-anchor="start" x="309.12" y="-172.5" font-family="Helvetica,sans-Serif" font-size="10.00">/include/datahandlinglibs/models</text>
<text text-anchor="middle" x="410" y="-161.25" font-family="Helvetica,sans-Serif" font-size="10.00">/ZeroCopyRecordingRequestHandlerModel.hpp</text>
</a>
</g>
</g>
<!-- Node4&#45;&gt;Node9 -->
<g id="edge9_Node000004_Node000009" class="edge">
<title>Node4&#45;&gt;Node9</title>
<g id="a_edge9_Node000004_Node000009"><a xlink:title=" ">
<path fill="none" stroke="#63b8ff" d="M440.8,-234.52C435.64,-225.89 430.22,-216.83 425.39,-208.75"/>
<polygon fill="#63b8ff" stroke="#63b8ff" points="437.77,-236.28 445.9,-243.07 443.78,-232.69 437.77,-236.28"/>
</a>
</g>
</g>
<!-- Node4&#45;&gt;Node10 -->
<g id="edge12_Node000004_Node000010" class="edge">
<title>Node4&#45;&gt;Node10</title>
<g id="a_edge12_Node000004_Node000010"><a xlink:title=" ">
<path fill="none" stroke="#63b8ff" d="M556.68,-250.62C631,-235.4 733.44,-214.43 804.46,-199.9"/>
<polygon fill="#63b8ff" stroke="#63b8ff" points="556.04,-247.18 546.94,-252.61 557.44,-254.04 556.04,-247.18"/>
</a>
</g>
</g>
<!-- Node5&#45;&gt;Node6 -->
<g id="edge5_Node000005_Node000006" class="edge">
<title>Node5&#45;&gt;Node6</title>
<g id="a_edge5_Node000005_Node000006"><a xlink:title=" ">
<path fill="none" stroke="#63b8ff" d="M561.92,-150.01C541.75,-139.94 519.9,-129.03 501.7,-119.94"/>
<polygon fill="#63b8ff" stroke="#63b8ff" points="560.11,-153.02 570.62,-154.35 563.24,-146.75 560.11,-153.02"/>
</a>
</g>
</g>
<!-- Node7 -->
<g id="Node000007" class="node">
<title>Node7</title>
<g id="a_Node000007"><a xlink:href="TPRequestHandler_8cpp.html" target="_top" xlink:title=" ">
<polygon fill="white" stroke="#666666" points="529,-41.75 393,-41.75 393,0 529,0 529,-41.75"/>
<text text-anchor="start" x="401" y="-28.25" font-family="Helvetica,sans-Serif" font-size="10.00">/github/workspace/dev</text>
<text text-anchor="start" x="401" y="-17" font-family="Helvetica,sans-Serif" font-size="10.00">_area/sourcecode/trigger</text>
<text text-anchor="middle" x="461" y="-5.75" font-family="Helvetica,sans-Serif" font-size="10.00">/src/TPRequestHandler.cpp</text>
</a>
</g>
</g>
<!-- Node6&#45;&gt;Node7 -->
<g id="edge6_Node000006_Node000007" class="edge">
<title>Node6&#45;&gt;Node7</title>
<g id="a_edge6_Node000006_Node000007"><a xlink:title=" ">
<path fill="none" stroke="#63b8ff" d="M461,-66C461,-57.96 461,-49.54 461,-42.23"/>
<polygon fill="#63b8ff" stroke="#63b8ff" points="457.5,-65.81 461,-75.81 464.5,-65.81 457.5,-65.81"/>
</a>
</g>
</g>
<!-- Node8&#45;&gt;Node3 -->
<g id="edge8_Node000008_Node000003" class="edge">
<title>Node8&#45;&gt;Node3</title>
<g id="a_edge8_Node000008_Node000003"><a xlink:title=" ">
<path fill="none" stroke="#63b8ff" d="M182,-143.83C182,-135.55 182,-127.08 182,-119.79"/>
<polygon fill="#63b8ff" stroke="#63b8ff" points="178.5,-143.74 182,-153.74 185.5,-143.74 178.5,-143.74"/>
</a>
</g>
</g>
<!-- Node9&#45;&gt;Node3 -->
<g id="edge10_Node000009_Node000003" class="edge">
<title>Node9&#45;&gt;Node3</title>
<g id="a_edge10_Node000009_Node000003"><a xlink:title=" ">
<path fill="none" stroke="#63b8ff" d="M326.64,-151.25C297.48,-140.84 265.43,-129.4 238.93,-119.94"/>
<polygon fill="#63b8ff" stroke="#63b8ff" points="325.21,-154.45 335.81,-154.52 327.57,-147.86 325.21,-154.45"/>
</a>
</g>
</g>
<!-- Node11 -->
<g id="Node000011" class="node">
<title>Node11</title>
<g id="a_Node000011"><a xlink:href="FDReadoutlibs_8cpp.html" target="_top" xlink:title=" ">
<polygon fill="white" stroke="#666666" points="1166.88,-119.5 1015.12,-119.5 1015.12,-77.75 1166.88,-77.75 1166.88,-119.5"/>
<text text-anchor="start" x="1023.12" y="-106" font-family="Helvetica,sans-Serif" font-size="10.00">/github/workspace/dev</text>
<text text-anchor="start" x="1023.12" y="-94.75" font-family="Helvetica,sans-Serif" font-size="10.00">_area/sourcecode/fdreadoutlibs</text>
<text text-anchor="middle" x="1091" y="-83.5" font-family="Helvetica,sans-Serif" font-size="10.00">/src/FDReadoutlibs.cpp</text>
</a>
</g>
</g>
<!-- Node10&#45;&gt;Node11 -->
<g id="edge13_Node000010_Node000011" class="edge">
<title>Node10&#45;&gt;Node11</title>
<g id="a_edge13_Node000010_Node000011"><a xlink:title=" ">
<path fill="none" stroke="#63b8ff" d="M962.62,-150.84C988.43,-140.54 1016.66,-129.28 1040.06,-119.94"/>
<polygon fill="#63b8ff" stroke="#63b8ff" points="961.51,-147.51 953.51,-154.47 964.1,-154.01 961.51,-147.51"/>
</a>
</g>
</g>
<!-- Node12 -->
<g id="Node000012" class="node">
<title>Node12</title>
<g id="a_Node000012"><a xlink:href="DAPHNEListRequestHandler_8cpp.html" target="_top" xlink:title=" ">
<polygon fill="white" stroke="#666666" points="777.75,-119.5 562.25,-119.5 562.25,-77.75 777.75,-77.75 777.75,-119.5"/>
<text text-anchor="start" x="570.25" y="-106" font-family="Helvetica,sans-Serif" font-size="10.00">/github/workspace/dev</text>
<text text-anchor="start" x="570.25" y="-94.75" font-family="Helvetica,sans-Serif" font-size="10.00">_area/sourcecode/fdreadoutlibs</text>
<text text-anchor="middle" x="670" y="-83.5" font-family="Helvetica,sans-Serif" font-size="10.00">/src/daphne/DAPHNEListRequestHandler.cpp</text>
</a>
</g>
</g>
<!-- Node10&#45;&gt;Node12 -->
<g id="edge14_Node000010_Node000012" class="edge">
<title>Node10&#45;&gt;Node12</title>
<g id="a_edge14_Node000010_Node000012"><a xlink:title=" ">
<path fill="none" stroke="#63b8ff" d="M807.29,-151.11C779.64,-140.74 749.3,-129.36 724.19,-119.94"/>
<polygon fill="#63b8ff" stroke="#63b8ff" points="805.73,-154.26 816.33,-154.5 808.19,-147.71 805.73,-154.26"/>
</a>
</g>
</g>
<!-- Node13&#45;&gt;Node3 -->
<g id="edge17_Node000013_Node000003" class="edge">
<title>Node13&#45;&gt;Node3</title>
<g id="a_edge17_Node000013_Node000003"><a xlink:title=" ">
<path fill="none" stroke="#63b8ff" d="M1705.74,-270.71C1487.68,-271.26 962.1,-266.32 796,-208.5 757.11,-194.96 758.6,-169.84 720,-155.5 572.99,-100.91 524.97,-135.79 369,-119.5 335.07,-115.96 297.68,-111.99 265.31,-108.55"/>
<polygon fill="#63b8ff" stroke="#63b8ff" points="1705.64,-274.21 1715.63,-270.68 1705.62,-267.21 1705.64,-274.21"/>
</a>
</g>
</g>
<!-- Node13&#45;&gt;Node14 -->
<g id="edge18_Node000013_Node000014" class="edge">
<title>Node13&#45;&gt;Node14</title>
<g id="a_edge18_Node000013_Node000014"><a xlink:title=" ">
<path fill="none" stroke="#63b8ff" d="M1705.78,-266.9C1577.49,-261.41 1343.85,-246.7 1148,-208.5 1145.13,-207.94 1142.21,-207.32 1139.28,-206.66"/>
<polygon fill="#63b8ff" stroke="#63b8ff" points="1705.45,-270.39 1715.59,-267.31 1705.74,-263.39 1705.45,-270.39"/>
</a>
</g>
</g>
<!-- Node13&#45;&gt;Node16 -->
<g id="edge21_Node000013_Node000016" class="edge">
<title>Node13&#45;&gt;Node16</title>
<g id="a_edge21_Node000013_Node000016"><a xlink:title=" ">
<path fill="none" stroke="#63b8ff" d="M1705.84,-250.09C1650.74,-238.45 1580.36,-223.2 1518,-208.5 1515.12,-207.82 1512.2,-207.13 1509.25,-206.42"/>
<polygon fill="#63b8ff" stroke="#63b8ff" points="1705.02,-253.49 1715.52,-252.13 1706.46,-246.64 1705.02,-253.49"/>
</a>
</g>
</g>
<!-- Node18 -->
<g id="Node000018" class="node">
<title>Node18</title>
<g id="a_Node000018"><a xlink:href="TDEEthFrameProcessor_8hpp.html" target="_top" xlink:title=" ">
<polygon fill="white" stroke="#666666" points="1886.88,-208.5 1735.12,-208.5 1735.12,-155.5 1886.88,-155.5 1886.88,-208.5"/>
<text text-anchor="start" x="1743.12" y="-195" font-family="Helvetica,sans-Serif" font-size="10.00">/github/workspace/dev</text>
<text text-anchor="start" x="1743.12" y="-183.75" font-family="Helvetica,sans-Serif" font-size="10.00">_area/sourcecode/fdreadoutlibs</text>
<text text-anchor="start" x="1743.12" y="-172.5" font-family="Helvetica,sans-Serif" font-size="10.00">/include/fdreadoutlibs/tde</text>
<text text-anchor="middle" x="1811" y="-161.25" font-family="Helvetica,sans-Serif" font-size="10.00">/TDEEthFrameProcessor.hpp</text>
</a>
</g>
</g>
<!-- Node13&#45;&gt;Node18 -->
<g id="edge23_Node000013_Node000018" class="edge">
<title>Node13&#45;&gt;Node18</title>
<g id="a_edge23_Node000013_Node000018"><a xlink:title=" ">
<path fill="none" stroke="#63b8ff" d="M1805.82,-233.11C1806.66,-224.91 1807.55,-216.39 1808.34,-208.75"/>
<polygon fill="#63b8ff" stroke="#63b8ff" points="1802.36,-232.56 1804.81,-242.86 1809.32,-233.28 1802.36,-232.56"/>
</a>
</g>
</g>
<!-- Node13&#45;&gt;Node20 -->
<g id="edge25_Node000013_Node000020" class="edge">
<title>Node13&#45;&gt;Node20</title>
<g id="a_edge25_Node000013_Node000020"><a xlink:title=" ">
<path fill="none" stroke="#63b8ff" d="M1705.97,-262.5C1607.74,-253.74 1451.11,-236.72 1318,-208.5 1315.14,-207.89 1312.23,-207.24 1309.3,-206.54"/>
<polygon fill="#63b8ff" stroke="#63b8ff" points="1705.58,-265.98 1715.85,-263.37 1706.19,-259.01 1705.58,-265.98"/>
</a>
</g>
</g>
<!-- Node22 -->
<g id="Node000022" class="node">
<title>Node22</title>
<g id="a_Node000022"><a xlink:href="WIBEthFrameProcessor_8hpp.html" target="_top" xlink:title=" ">
<polygon fill="white" stroke="#666666" points="1678.88,-208.5 1527.12,-208.5 1527.12,-155.5 1678.88,-155.5 1678.88,-208.5"/>
<text text-anchor="start" x="1535.12" y="-195" font-family="Helvetica,sans-Serif" font-size="10.00">/github/workspace/dev</text>
<text text-anchor="start" x="1535.12" y="-183.75" font-family="Helvetica,sans-Serif" font-size="10.00">_area/sourcecode/fdreadoutlibs</text>
<text text-anchor="start" x="1535.12" y="-172.5" font-family="Helvetica,sans-Serif" font-size="10.00">/include/fdreadoutlibs/wibeth</text>
<text text-anchor="middle" x="1603" y="-161.25" font-family="Helvetica,sans-Serif" font-size="10.00">/WIBEthFrameProcessor.hpp</text>
</a>
</g>
</g>
<!-- Node13&#45;&gt;Node22 -->
<g id="edge28_Node000013_Node000022" class="edge">
<title>Node13&#45;&gt;Node22</title>
<g id="a_edge28_Node000013_Node000022"><a xlink:title=" ">
<path fill="none" stroke="#63b8ff" d="M1732.23,-239.5C1709.35,-229.49 1684.15,-218.48 1662.13,-208.85"/>
<polygon fill="#63b8ff" stroke="#63b8ff" points="1730.61,-242.61 1741.18,-243.41 1733.42,-236.2 1730.61,-242.61"/>
</a>
</g>
</g>
<!-- Node13&#45;&gt;Node24 -->
<g id="edge31_Node000013_Node000024" class="edge">
<title>Node13&#45;&gt;Node24</title>
<g id="a_edge31_Node000013_Node000024"><a xlink:title=" ">
<path fill="none" stroke="#63b8ff" d="M1898.08,-264.38C2024.49,-256.19 2253.32,-238.55 2447,-208.5 2462.02,-206.17 2477.99,-203.11 2493.18,-199.93"/>
<polygon fill="#63b8ff" stroke="#63b8ff" points="1898.18,-260.87 1888.43,-265 1898.63,-267.86 1898.18,-260.87"/>
</a>
</g>
</g>
<!-- Node26 -->
<g id="Node000026" class="node">
<title>Node26</title>
<g id="a_Node000026"><a xlink:href="TAProcessor_8hpp.html" target="_top" xlink:title=" ">
<polygon fill="white" stroke="#666666" points="2279.25,-202.88 2138.75,-202.88 2138.75,-161.12 2279.25,-161.12 2279.25,-202.88"/>
<text text-anchor="start" x="2146.75" y="-189.38" font-family="Helvetica,sans-Serif" font-size="10.00">/github/workspace/dev</text>
<text text-anchor="start" x="2146.75" y="-178.12" font-family="Helvetica,sans-Serif" font-size="10.00">_area/sourcecode/trigger</text>
<text text-anchor="middle" x="2209" y="-166.88" font-family="Helvetica,sans-Serif" font-size="10.00">/src/trigger/TAProcessor.hpp</text>
</a>
</g>
</g>
<!-- Node13&#45;&gt;Node26 -->
<g id="edge33_Node000013_Node000026" class="edge">
<title>Node13&#45;&gt;Node26</title>
<g id="a_edge33_Node000013_Node000026"><a xlink:title=" ">
<path fill="none" stroke="#63b8ff" d="M1897.81,-249.82C1954.33,-237.88 2027.26,-222.42 2092,-208.5 2107.04,-205.27 2123.16,-201.77 2138.48,-198.44"/>
<polygon fill="#63b8ff" stroke="#63b8ff" points="1897.27,-246.36 1888.21,-251.85 1898.72,-253.21 1897.27,-246.36"/>
</a>
</g>
</g>
<!-- Node28 -->
<g id="Node000028" class="node">
<title>Node28</title>
<g id="a_Node000028"><a xlink:href="TCProcessor_8hpp.html" target="_top" xlink:title=" ">
<polygon fill="white" stroke="#666666" points="2438.25,-202.88 2297.75,-202.88 2297.75,-161.12 2438.25,-161.12 2438.25,-202.88"/>
<text text-anchor="start" x="2305.75" y="-189.38" font-family="Helvetica,sans-Serif" font-size="10.00">/github/workspace/dev</text>
<text text-anchor="start" x="2305.75" y="-178.12" font-family="Helvetica,sans-Serif" font-size="10.00">_area/sourcecode/trigger</text>
<text text-anchor="middle" x="2368" y="-166.88" font-family="Helvetica,sans-Serif" font-size="10.00">/src/trigger/TCProcessor.hpp</text>
</a>
</g>
</g>
<!-- Node13&#45;&gt;Node28 -->
<g id="edge35_Node000013_Node000028" class="edge">
<title>Node13&#45;&gt;Node28</title>
<g id="a_edge35_Node000013_Node000028"><a xlink:title=" ">
<path fill="none" stroke="#63b8ff" d="M1898.09,-263.05C1996.77,-254.7 2154.39,-237.99 2288,-208.5 2294.69,-207.02 2301.62,-205.23 2308.48,-203.28"/>
<polygon fill="#63b8ff" stroke="#63b8ff" points="1897.83,-259.56 1888.16,-263.88 1898.42,-266.54 1897.83,-259.56"/>
</a>
</g>
</g>
<!-- Node30 -->
<g id="Node000030" class="node">
<title>Node30</title>
<g id="a_Node000030"><a xlink:href="TPProcessor_8hpp.html" target="_top" xlink:title=" ">
<polygon fill="white" stroke="#666666" points="2083.25,-202.88 1942.75,-202.88 1942.75,-161.12 2083.25,-161.12 2083.25,-202.88"/>
<text text-anchor="start" x="1950.75" y="-189.38" font-family="Helvetica,sans-Serif" font-size="10.00">/github/workspace/dev</text>
<text text-anchor="start" x="1950.75" y="-178.12" font-family="Helvetica,sans-Serif" font-size="10.00">_area/sourcecode/trigger</text>
<text text-anchor="middle" x="2013" y="-166.88" font-family="Helvetica,sans-Serif" font-size="10.00">/src/trigger/TPProcessor.hpp</text>
</a>
</g>
</g>
<!-- Node13&#45;&gt;Node30 -->
<g id="edge37_Node000013_Node000030" class="edge">
<title>Node13&#45;&gt;Node30</title>
<g id="a_edge37_Node000013_Node000030"><a xlink:title=" ">
<path fill="none" stroke="#63b8ff" d="M1875.58,-239.66C1904.74,-227.64 1937.48,-214.14 1963.69,-203.33"/>
<polygon fill="#63b8ff" stroke="#63b8ff" points="1874.33,-236.39 1866.42,-243.44 1877,-242.86 1874.33,-236.39"/>
</a>
</g>
</g>
<!-- Node14&#45;&gt;Node11 -->
<g id="edge19_Node000014_Node000011" class="edge">
<title>Node14&#45;&gt;Node11</title>
<g id="a_edge19_Node000014_Node000011"><a xlink:title=" ">
<path fill="none" stroke="#63b8ff" d="M1075.59,-144.4C1078.5,-135.94 1081.5,-127.24 1084.06,-119.79"/>
<polygon fill="#63b8ff" stroke="#63b8ff" points="1072.3,-143.23 1072.35,-153.82 1078.92,-145.5 1072.3,-143.23"/>
</a>
</g>
</g>
<!-- Node15 -->
<g id="Node000015" class="node">
<title>Node15</title>
<g id="a_Node000015"><a xlink:href="DAPHNEFrameProcessor_8cpp.html" target="_top" xlink:title=" ">
<polygon fill="white" stroke="#666666" points="996.62,-119.5 795.38,-119.5 795.38,-77.75 996.62,-77.75 996.62,-119.5"/>
<text text-anchor="start" x="803.38" y="-106" font-family="Helvetica,sans-Serif" font-size="10.00">/github/workspace/dev</text>
<text text-anchor="start" x="803.38" y="-94.75" font-family="Helvetica,sans-Serif" font-size="10.00">_area/sourcecode/fdreadoutlibs</text>
<text text-anchor="middle" x="896" y="-83.5" font-family="Helvetica,sans-Serif" font-size="10.00">/src/daphne/DAPHNEFrameProcessor.cpp</text>
</a>
</g>
</g>
<!-- Node14&#45;&gt;Node15 -->
<g id="edge20_Node000014_Node000015" class="edge">
<title>Node14&#45;&gt;Node15</title>
<g id="a_edge20_Node000014_Node000015"><a xlink:title=" ">
<path fill="none" stroke="#63b8ff" d="M999.4,-150.01C978.74,-139.94 956.34,-129.03 937.7,-119.94"/>
<polygon fill="#63b8ff" stroke="#63b8ff" points="997.82,-153.13 1008.34,-154.37 1000.88,-146.84 997.82,-153.13"/>
</a>
</g>
</g>
<!-- Node17 -->
<g id="Node000017" class="node">
<title>Node17</title>
<g id="a_Node000017"><a xlink:href="DAPHNEStreamFrameProcessor_8cpp.html" target="_top" xlink:title=" ">
<polygon fill="white" stroke="#666666" points="1596.38,-119.5 1363.62,-119.5 1363.62,-77.75 1596.38,-77.75 1596.38,-119.5"/>
<text text-anchor="start" x="1371.62" y="-106" font-family="Helvetica,sans-Serif" font-size="10.00">/github/workspace/dev</text>
<text text-anchor="start" x="1371.62" y="-94.75" font-family="Helvetica,sans-Serif" font-size="10.00">_area/sourcecode/fdreadoutlibs</text>
<text text-anchor="middle" x="1480" y="-83.5" font-family="Helvetica,sans-Serif" font-size="10.00">/src/daphne/DAPHNEStreamFrameProcessor.cpp</text>
</a>
</g>
</g>
<!-- Node16&#45;&gt;Node17 -->
<g id="edge22_Node000016_Node000017" class="edge">
<title>Node16&#45;&gt;Node17</title>
<g id="a_edge22_Node000016_Node000017"><a xlink:title=" ">
<path fill="none" stroke="#63b8ff" d="M1444.59,-146.1C1451.43,-137.12 1458.57,-127.75 1464.63,-119.79"/>
<polygon fill="#63b8ff" stroke="#63b8ff" points="1441.81,-143.97 1438.53,-154.05 1447.38,-148.22 1441.81,-143.97"/>
</a>
</g>
</g>
<!-- Node18&#45;&gt;Node19 -->
<g id="edge24_Node000018_Node000019" class="edge">
<title>Node18&#45;&gt;Node19</title>
<g id="a_edge24_Node000018_Node000019"><a xlink:title=" ">
<path fill="none" stroke="#63b8ff" d="M1852.05,-147.93C1863.81,-138.45 1876.28,-128.41 1886.78,-119.94"/>
<polygon fill="#63b8ff" stroke="#63b8ff" points="1850,-145.08 1844.41,-154.08 1854.4,-150.53 1850,-145.08"/>
</a>
</g>
</g>
<!-- Node20&#45;&gt;Node11 -->
<g id="edge26_Node000020_Node000011" class="edge">
<title>Node20&#45;&gt;Node11</title>
<g id="a_edge26_Node000020_Node000011"><a xlink:title=" ">
<path fill="none" stroke="#63b8ff" d="M1177.72,-149.32C1160.48,-139.44 1141.95,-128.82 1126.46,-119.94"/>
<polygon fill="#63b8ff" stroke="#63b8ff" points="1175.95,-152.34 1186.37,-154.28 1179.43,-146.27 1175.95,-152.34"/>
</a>
</g>
</g>
<!-- Node21 -->
<g id="Node000021" class="node">
<title>Node21</title>
<g id="a_Node000021"><a xlink:href="TDEFrameProcessor_8cpp.html" target="_top" xlink:title=" ">
<polygon fill="white" stroke="#666666" points="1345.38,-119.5 1184.62,-119.5 1184.62,-77.75 1345.38,-77.75 1345.38,-119.5"/>
<text text-anchor="start" x="1192.62" y="-106" font-family="Helvetica,sans-Serif" font-size="10.00">/github/workspace/dev</text>
<text text-anchor="start" x="1192.62" y="-94.75" font-family="Helvetica,sans-Serif" font-size="10.00">_area/sourcecode/fdreadoutlibs</text>
<text text-anchor="middle" x="1265" y="-83.5" font-family="Helvetica,sans-Serif" font-size="10.00">/src/tde/TDEFrameProcessor.cpp</text>
</a>
</g>
</g>
<!-- Node20&#45;&gt;Node21 -->
<g id="edge27_Node000020_Node000021" class="edge">
<title>Node20&#45;&gt;Node21</title>
<g id="a_edge27_Node000020_Node000021"><a xlink:title=" ">
<path fill="none" stroke="#63b8ff" d="M1247.28,-144.68C1250.64,-136.13 1254.11,-127.33 1257.07,-119.79"/>
<polygon fill="#63b8ff" stroke="#63b8ff" points="1244.08,-143.26 1243.68,-153.84 1250.6,-145.82 1244.08,-143.26"/>
</a>
</g>
</g>
<!-- Node22&#45;&gt;Node11 -->
<g id="edge29_Node000022_Node000011" class="edge">
<title>Node22&#45;&gt;Node11</title>
<g id="a_edge29_Node000022_Node000011"><a xlink:title=" ">
<path fill="none" stroke="#63b8ff" d="M1515.76,-155.22C1366.15,-126.3 1323.17,-144.35 1176,-119.5 1173.16,-119.02 1170.27,-118.5 1167.36,-117.96"/>
<polygon fill="#63b8ff" stroke="#63b8ff" points="1514.74,-158.59 1525.23,-157.09 1516.1,-151.72 1514.74,-158.59"/>
</a>
</g>
</g>
<!-- Node22&#45;&gt;Node23 -->
<g id="edge30_Node000022_Node000023" class="edge">
<title>Node22&#45;&gt;Node23</title>
<g id="a_edge30_Node000022_Node000023"><a xlink:title=" ">
<path fill="none" stroke="#63b8ff" d="M1645.71,-148.21C1658.16,-138.65 1671.4,-128.49 1682.53,-119.94"/>
<polygon fill="#63b8ff" stroke="#63b8ff" points="1643.83,-145.24 1638.03,-154.11 1648.09,-150.79 1643.83,-145.24"/>
</a>
</g>
</g>
<!-- Node25 -->
<g id="Node000025" class="node">
<title>Node25</title>
<g id="a_Node000025"><a xlink:href="sourcecode_2hsilibs_2src_2HSIFrameProcessor_8cpp.html" target="_top" xlink:title=" ">
<polygon fill="white" stroke="#666666" points="2584.38,-119.5 2441.62,-119.5 2441.62,-77.75 2584.38,-77.75 2584.38,-119.5"/>
<text text-anchor="start" x="2449.62" y="-106" font-family="Helvetica,sans-Serif" font-size="10.00">/github/workspace/dev</text>
<text text-anchor="start" x="2449.62" y="-94.75" font-family="Helvetica,sans-Serif" font-size="10.00">_area/sourcecode/hsilibs</text>
<text text-anchor="middle" x="2513" y="-83.5" font-family="Helvetica,sans-Serif" font-size="10.00">/src/HSIFrameProcessor.cpp</text>
</a>
</g>
</g>
<!-- Node24&#45;&gt;Node25 -->
<g id="edge32_Node000024_Node000025" class="edge">
<title>Node24&#45;&gt;Node25</title>
<g id="a_edge32_Node000024_Node000025"><a xlink:title=" ">
<path fill="none" stroke="#63b8ff" d="M2546,-151.27C2539.31,-140.8 2531.95,-129.29 2525.89,-119.79"/>
<polygon fill="#63b8ff" stroke="#63b8ff" points="2543,-153.07 2551.33,-159.61 2548.9,-149.3 2543,-153.07"/>
</a>
</g>
</g>
<!-- Node26&#45;&gt;Node27 -->
<g id="edge34_Node000026_Node000027" class="edge">
<title>Node26&#45;&gt;Node27</title>
<g id="a_edge34_Node000026_Node000027"><a xlink:title=" ">
<path fill="none" stroke="#63b8ff" d="M2239.75,-153.2C2251.88,-142.23 2265.55,-129.87 2276.7,-119.79"/>
<polygon fill="#63b8ff" stroke="#63b8ff" points="2237.44,-150.57 2232.37,-159.87 2242.13,-155.76 2237.44,-150.57"/>
</a>
</g>
</g>
<!-- Node28&#45;&gt;Node29 -->
<g id="edge36_Node000028_Node000029" class="edge">
<title>Node28&#45;&gt;Node29</title>
<g id="a_edge36_Node000028_Node000029"><a xlink:title=" ">
<path fill="none" stroke="#63b8ff" d="M2449.62,-158.82C2492.35,-147.18 2545.52,-132.64 2593,-119.5 2595.96,-118.68 2598.99,-117.84 2602.05,-116.99"/>
<polygon fill="#63b8ff" stroke="#63b8ff" points="2448.9,-155.39 2440.17,-161.39 2450.74,-162.14 2448.9,-155.39"/>
</a>
</g>
</g>
<!-- Node30&#45;&gt;Node31 -->
<g id="edge38_Node000030_Node000031" class="edge">
<title>Node30&#45;&gt;Node31</title>
<g id="a_edge38_Node000030_Node000031"><a xlink:title=" ">
<path fill="none" stroke="#63b8ff" d="M2041.34,-152.88C2052.31,-141.99 2064.62,-129.77 2074.68,-119.79"/>
<polygon fill="#63b8ff" stroke="#63b8ff" points="2038.98,-150.29 2034.34,-159.82 2043.91,-155.26 2038.98,-150.29"/>
</a>
</g>
</g>
</g>
</svg>
