<?xml version="1.0" encoding="UTF-8" standalone="no"?>
<!DOCTYPE svg PUBLIC "-//W3C//DTD SVG 1.1//EN"
 "http://www.w3.org/Graphics/SVG/1.1/DTD/svg11.dtd">
<!-- Generated by graphviz version 9.0.0 (20230911.1827)
 -->
<!-- Title: /github/workspace/dev_area/sourcecode/dbe/include/dbe/GraphicalClass.hpp Pages: 1 -->
<svg width="263pt" height="160pt"
 viewBox="0.00 0.00 263.25 160.25" xmlns="http://www.w3.org/2000/svg" xmlns:xlink="http://www.w3.org/1999/xlink">
<g id="graph0" class="graph" transform="scale(1 1) rotate(0) translate(4 156.25)">
<title>/github/workspace/dev_area/sourcecode/dbe/include/dbe/GraphicalClass.hpp</title>
<!-- Node1 -->
<g id="Node000001" class="node">
<title>Node1</title>
<g id="a_Node000001"><a xlink:title=" ">
<polygon fill="#999999" stroke="#666666" points="181.25,-152.25 25.75,-152.25 25.75,-110.5 181.25,-110.5 181.25,-152.25"/>
<text text-anchor="start" x="33.75" y="-138.75" font-family="Helvetica,sans-Serif" font-size="10.00">/github/workspace/dev</text>
<text text-anchor="start" x="33.75" y="-127.5" font-family="Helvetica,sans-Serif" font-size="10.00">_area/sourcecode/dbe</text>
<text text-anchor="middle" x="103.5" y="-116.25" font-family="Helvetica,sans-Serif" font-size="10.00">/include/dbe/GraphicalClass.hpp</text>
</a>
</g>
</g>
<!-- Node2 -->
<g id="Node000002" class="node">
<title>Node2</title>
<g id="a_Node000002"><a xlink:title=" ">
<polygon fill="#e0e0e0" stroke="#999999" points="91,-74.5 0,-74.5 0,-55.25 91,-55.25 91,-74.5"/>
<text text-anchor="middle" x="45.5" y="-61" font-family="Helvetica,sans-Serif" font-size="10.00">QGraphicsObject</text>
</a>
</g>
</g>
<!-- Node1&#45;&gt;Node2 -->
<g id="edge1_Node000001_Node000002" class="edge">
<title>Node1&#45;&gt;Node2</title>
<g id="a_edge1_Node000001_Node000002"><a xlink:title=" ">
<path fill="none" stroke="#63b8ff" d="M85.47,-110.32C77.73,-101.72 68.78,-91.77 61.31,-83.46"/>
<polygon fill="#63b8ff" stroke="#63b8ff" points="63.96,-81.17 54.67,-76.07 58.75,-85.85 63.96,-81.17"/>
</a>
</g>
</g>
<!-- Node3 -->
<g id="Node000003" class="node">
<title>Node3</title>
<g id="a_Node000003"><a xlink:href="conffwk_2include_2conffwk_2Schema_8hpp.html" target="_top" xlink:title=" ">
<polygon fill="white" stroke="#666666" points="215.88,-74.5 109.12,-74.5 109.12,-55.25 215.88,-55.25 215.88,-74.5"/>
<text text-anchor="middle" x="162.5" y="-61" font-family="Helvetica,sans-Serif" font-size="10.00">conffwk/Schema.hpp</text>
</a>
</g>
</g>
<!-- Node1&#45;&gt;Node3 -->
<g id="edge2_Node000001_Node000003" class="edge">
<title>Node1&#45;&gt;Node3</title>
<g id="a_edge2_Node000001_Node000003"><a xlink:title=" ">
<path fill="none" stroke="#63b8ff" d="M121.84,-110.32C129.79,-101.63 139.01,-91.55 146.66,-83.19"/>
<polygon fill="#63b8ff" stroke="#63b8ff" points="149.01,-85.8 153.18,-76.06 143.85,-81.08 149.01,-85.8"/>
</a>
</g>
</g>
<!-- Node4 -->
<g id="Node000004" class="node">
<title>Node4</title>
<g id="a_Node000004"><a xlink:title=" ">
<polygon fill="#e0e0e0" stroke="#999999" points="122.5,-19.25 82.5,-19.25 82.5,0 122.5,0 122.5,-19.25"/>
<text text-anchor="middle" x="102.5" y="-5.75" font-family="Helvetica,sans-Serif" font-size="10.00">string</text>
</a>
</g>
</g>
<!-- Node3&#45;&gt;Node4 -->
<g id="edge3_Node000003_Node000004" class="edge">
<title>Node3&#45;&gt;Node4</title>
<g id="a_edge3_Node000003_Node000004"><a xlink:title=" ">
<path fill="none" stroke="#63b8ff" d="M152.32,-54.84C143.74,-47.22 131.23,-36.12 120.9,-26.95"/>
<polygon fill="#63b8ff" stroke="#63b8ff" points="123.46,-24.55 113.66,-20.53 118.82,-29.79 123.46,-24.55"/>
</a>
</g>
</g>
<!-- Node5 -->
<g id="Node000005" class="node">
<title>Node5</title>
<g id="a_Node000005"><a xlink:title=" ">
<polygon fill="#e0e0e0" stroke="#999999" points="184,-19.25 141,-19.25 141,0 184,0 184,-19.25"/>
<text text-anchor="middle" x="162.5" y="-5.75" font-family="Helvetica,sans-Serif" font-size="10.00">vector</text>
</a>
</g>
</g>
<!-- Node3&#45;&gt;Node5 -->
<g id="edge4_Node000003_Node000005" class="edge">
<title>Node3&#45;&gt;Node5</title>
<g id="a_edge4_Node000003_Node000005"><a xlink:title=" ">
<path fill="none" stroke="#63b8ff" d="M162.5,-55.08C162.5,-48.57 162.5,-39.42 162.5,-31.12"/>
<polygon fill="#63b8ff" stroke="#63b8ff" points="166,-31.12 162.5,-21.12 159,-31.12 166,-31.12"/>
</a>
</g>
</g>
<!-- Node6 -->
<g id="Node000006" class="node">
<title>Node6</title>
<g id="a_Node000006"><a xlink:title=" ">
<polygon fill="#e0e0e0" stroke="#999999" points="255.25,-19.25 201.75,-19.25 201.75,0 255.25,0 255.25,-19.25"/>
<text text-anchor="middle" x="228.5" y="-5.75" font-family="Helvetica,sans-Serif" font-size="10.00">iostream</text>
</a>
</g>
</g>
<!-- Node3&#45;&gt;Node6 -->
<g id="edge5_Node000003_Node000006" class="edge">
<title>Node3&#45;&gt;Node6</title>
<g id="a_edge5_Node000003_Node000006"><a xlink:title=" ">
<path fill="none" stroke="#63b8ff" d="M173.7,-54.84C183.24,-47.15 197.17,-35.9 208.61,-26.68"/>
<polygon fill="#63b8ff" stroke="#63b8ff" points="210.71,-29.48 216.29,-20.48 206.31,-24.03 210.71,-29.48"/>
</a>
</g>
</g>
</g>
</svg>
