<?xml version="1.0" encoding="UTF-8" standalone="no"?>
<!DOCTYPE svg PUBLIC "-//W3C//DTD SVG 1.1//EN"
 "http://www.w3.org/Graphics/SVG/1.1/DTD/svg11.dtd">
<!-- Generated by graphviz version 9.0.0 (20230911.1827)
 -->
<!-- Title: /github/workspace/dev_area/sourcecode/hermesmodules/pybindsrc/hermescorecontroller.cpp Pages: 1 -->
<svg width="3301pt" height="426pt"
 viewBox="0.00 0.00 3301.12 426.25" xmlns="http://www.w3.org/2000/svg" xmlns:xlink="http://www.w3.org/1999/xlink">
<g id="graph0" class="graph" transform="scale(1 1) rotate(0) translate(4 422.25)">
<title>/github/workspace/dev_area/sourcecode/hermesmodules/pybindsrc/hermescorecontroller.cpp</title>
<!-- Node1 -->
<g id="Node000001" class="node">
<title>Node1</title>
<g id="a_Node000001"><a xlink:title=" ">
<polygon fill="#999999" stroke="#666666" points="857.88,-418.25 685.88,-418.25 685.88,-376.5 857.88,-376.5 857.88,-418.25"/>
<text text-anchor="start" x="693.88" y="-404.75" font-family="Helvetica,sans-Serif" font-size="10.00">/github/workspace/dev</text>
<text text-anchor="start" x="693.88" y="-393.5" font-family="Helvetica,sans-Serif" font-size="10.00">_area/sourcecode/hermesmodules</text>
<text text-anchor="middle" x="771.88" y="-382.25" font-family="Helvetica,sans-Serif" font-size="10.00">/pybindsrc/hermescorecontroller.cpp</text>
</a>
</g>
</g>
<!-- Node2 -->
<g id="Node000002" class="node">
<title>Node2</title>
<g id="a_Node000002"><a xlink:title=" ">
<polygon fill="#e0e0e0" stroke="#999999" points="595.5,-334.88 490.25,-334.88 490.25,-315.62 595.5,-315.62 595.5,-334.88"/>
<text text-anchor="middle" x="542.88" y="-321.38" font-family="Helvetica,sans-Serif" font-size="10.00">pybind11/operators.h</text>
</a>
</g>
</g>
<!-- Node1&#45;&gt;Node2 -->
<g id="edge1_Node000001_Node000002" class="edge">
<title>Node1&#45;&gt;Node2</title>
<g id="a_edge1_Node000001_Node000002"><a xlink:title=" ">
<path fill="none" stroke="#63b8ff" d="M705.64,-376.09C666.12,-363.99 617.21,-349.01 583.38,-338.65"/>
<polygon fill="#63b8ff" stroke="#63b8ff" points="584.55,-335.35 573.96,-335.77 582.5,-342.05 584.55,-335.35"/>
</a>
</g>
</g>
<!-- Node3 -->
<g id="Node000003" class="node">
<title>Node3</title>
<g id="a_Node000003"><a xlink:title=" ">
<polygon fill="#e0e0e0" stroke="#999999" points="716.38,-334.88 613.38,-334.88 613.38,-315.62 716.38,-315.62 716.38,-334.88"/>
<text text-anchor="middle" x="664.88" y="-321.38" font-family="Helvetica,sans-Serif" font-size="10.00">pybind11/pybind11.h</text>
</a>
</g>
</g>
<!-- Node1&#45;&gt;Node3 -->
<g id="edge2_Node000001_Node000003" class="edge">
<title>Node1&#45;&gt;Node3</title>
<g id="a_edge2_Node000001_Node000003"><a xlink:title=" ">
<path fill="none" stroke="#63b8ff" d="M740.93,-376.09C724.02,-365.01 703.43,-351.52 687.94,-341.36"/>
<polygon fill="#63b8ff" stroke="#63b8ff" points="690.13,-338.62 679.85,-336.06 686.3,-344.47 690.13,-338.62"/>
</a>
</g>
</g>
<!-- Node4 -->
<g id="Node000004" class="node">
<title>Node4</title>
<g id="a_Node000004"><a xlink:title=" ">
<polygon fill="#e0e0e0" stroke="#999999" points="809.5,-334.88 734.25,-334.88 734.25,-315.62 809.5,-315.62 809.5,-334.88"/>
<text text-anchor="middle" x="771.88" y="-321.38" font-family="Helvetica,sans-Serif" font-size="10.00">pybind11/stl.h</text>
</a>
</g>
</g>
<!-- Node1&#45;&gt;Node4 -->
<g id="edge3_Node000001_Node000004" class="edge">
<title>Node1&#45;&gt;Node4</title>
<g id="a_edge3_Node000001_Node000004"><a xlink:title=" ">
<path fill="none" stroke="#63b8ff" d="M771.88,-376.09C771.88,-366.75 771.88,-355.69 771.88,-346.37"/>
<polygon fill="#63b8ff" stroke="#63b8ff" points="775.38,-346.57 771.88,-336.57 768.38,-346.57 775.38,-346.57"/>
</a>
</g>
</g>
<!-- Node5 -->
<g id="Node000005" class="node">
<title>Node5</title>
<g id="a_Node000005"><a xlink:title=" ">
<polygon fill="#e0e0e0" stroke="#999999" points="241.5,-201.88 190.25,-201.88 190.25,-182.62 241.5,-182.62 241.5,-201.88"/>
<text text-anchor="middle" x="215.88" y="-188.38" font-family="Helvetica,sans-Serif" font-size="10.00">sstream</text>
</a>
</g>
</g>
<!-- Node1&#45;&gt;Node5 -->
<g id="edge4_Node000001_Node000005" class="edge">
<title>Node1&#45;&gt;Node5</title>
<g id="a_edge4_Node000001_Node000005"><a xlink:title=" ">
<path fill="none" stroke="#63b8ff" d="M795.97,-376.13C815.04,-357.68 835.85,-330.3 818.88,-310 654.07,-112.85 496.28,-280.38 249.88,-207.5 248.53,-207.1 247.16,-206.67 245.79,-206.21"/>
<polygon fill="#63b8ff" stroke="#63b8ff" points="247.39,-203.07 236.8,-202.82 244.93,-209.62 247.39,-203.07"/>
</a>
</g>
</g>
<!-- Node6 -->
<g id="Node000006" class="node">
<title>Node6</title>
<g id="a_Node000006"><a xlink:href="HermesCoreController_8hpp.html" target="_top" xlink:title=" ">
<polygon fill="white" stroke="#666666" points="1556.25,-340.5 1413.5,-340.5 1413.5,-310 1556.25,-310 1556.25,-340.5"/>
<text text-anchor="start" x="1421.5" y="-327" font-family="Helvetica,sans-Serif" font-size="10.00">hermesmodules/HermesCore</text>
<text text-anchor="middle" x="1484.88" y="-315.75" font-family="Helvetica,sans-Serif" font-size="10.00">Controller.hpp</text>
</a>
</g>
</g>
<!-- Node1&#45;&gt;Node6 -->
<g id="edge5_Node000001_Node000006" class="edge">
<title>Node1&#45;&gt;Node6</title>
<g id="a_edge5_Node000001_Node000006"><a xlink:title=" ">
<path fill="none" stroke="#63b8ff" d="M858.23,-387.88C996.53,-374.28 1265.92,-347.78 1401.99,-334.4"/>
<polygon fill="#63b8ff" stroke="#63b8ff" points="1402.03,-337.92 1411.64,-333.45 1401.34,-330.95 1402.03,-337.92"/>
</a>
</g>
</g>
<!-- Node7 -->
<g id="Node000007" class="node">
<title>Node7</title>
<g id="a_Node000007"><a xlink:href="Issue_8hpp.html" target="_top" xlink:title=" ">
<polygon fill="white" stroke="#666666" points="957.12,-268.38 882.62,-268.38 882.62,-249.12 957.12,-249.12 957.12,-268.38"/>
<text text-anchor="middle" x="919.88" y="-254.88" font-family="Helvetica,sans-Serif" font-size="10.00">ers/Issue.hpp</text>
</a>
</g>
</g>
<!-- Node6&#45;&gt;Node7 -->
<g id="edge6_Node000006_Node000007" class="edge">
<title>Node6&#45;&gt;Node7</title>
<g id="a_edge6_Node000006_Node000007"><a xlink:title=" ">
<path fill="none" stroke="#63b8ff" d="M1413.03,-316.05C1296.24,-302.72 1068.25,-276.69 968.53,-265.3"/>
<polygon fill="#63b8ff" stroke="#63b8ff" points="969.14,-261.85 958.8,-264.19 968.34,-268.81 969.14,-261.85"/>
</a>
</g>
</g>
<!-- Node32 -->
<g id="Node000032" class="node">
<title>Node32</title>
<g id="a_Node000032"><a xlink:title=" ">
<polygon fill="#e0e0e0" stroke="#999999" points="2232.38,-268.38 2159.38,-268.38 2159.38,-249.12 2232.38,-249.12 2232.38,-268.38"/>
<text text-anchor="middle" x="2195.88" y="-254.88" font-family="Helvetica,sans-Serif" font-size="10.00">uhal/uhal.hpp</text>
</a>
</g>
</g>
<!-- Node6&#45;&gt;Node32 -->
<g id="edge42_Node000006_Node000032" class="edge">
<title>Node6&#45;&gt;Node32</title>
<g id="a_edge42_Node000006_Node000032"><a xlink:title=" ">
<path fill="none" stroke="#63b8ff" d="M1556.56,-324.25C1679.37,-323.04 1937.42,-315.27 2150.88,-274 2153.86,-273.42 2156.93,-272.71 2160,-271.92"/>
<polygon fill="#63b8ff" stroke="#63b8ff" points="2160.81,-275.33 2169.46,-269.2 2158.88,-268.6 2160.81,-275.33"/>
</a>
</g>
</g>
<!-- Node33 -->
<g id="Node000033" class="node">
<title>Node33</title>
<g id="a_Node000033"><a xlink:href="hermescontroller_8pb_8h.html" target="_top" xlink:title=" ">
<polygon fill="white" stroke="#666666" points="2141.5,-274 2024.25,-274 2024.25,-243.5 2141.5,-243.5 2141.5,-274"/>
<text text-anchor="start" x="2032.25" y="-260.5" font-family="Helvetica,sans-Serif" font-size="10.00">hermesmodules/opmon</text>
<text text-anchor="middle" x="2082.88" y="-249.25" font-family="Helvetica,sans-Serif" font-size="10.00">/hermescontroller.pb.h</text>
</a>
</g>
</g>
<!-- Node6&#45;&gt;Node33 -->
<g id="edge43_Node000006_Node000033" class="edge">
<title>Node6&#45;&gt;Node33</title>
<g id="a_edge43_Node000006_Node000033"><a xlink:title=" ">
<path fill="none" stroke="#63b8ff" d="M1556.71,-316.5C1672.22,-304.04 1897.86,-279.71 2012.46,-267.34"/>
<polygon fill="#63b8ff" stroke="#63b8ff" points="2012.8,-270.83 2022.36,-266.28 2012.05,-263.87 2012.8,-270.83"/>
</a>
</g>
</g>
<!-- Node7&#45;&gt;Node5 -->
<g id="edge13_Node000007_Node000005" class="edge">
<title>Node7&#45;&gt;Node5</title>
<g id="a_edge13_Node000007_Node000005"><a xlink:title=" ">
<path fill="none" stroke="#63b8ff" d="M882.28,-248.84C872.43,-246.79 861.8,-244.83 851.88,-243.5 586.21,-207.92 510.95,-268.16 249.88,-207.5 248.24,-207.12 246.58,-206.67 244.92,-206.16"/>
<polygon fill="#63b8ff" stroke="#63b8ff" points="246.22,-202.91 235.63,-202.77 243.82,-209.49 246.22,-202.91"/>
</a>
</g>
</g>
<!-- Node8 -->
<g id="Node000008" class="node">
<title>Node8</title>
<g id="a_Node000008"><a xlink:title=" ">
<polygon fill="#e0e0e0" stroke="#999999" points="815.5,-201.88 770.25,-201.88 770.25,-182.62 815.5,-182.62 815.5,-201.88"/>
<text text-anchor="middle" x="792.88" y="-188.38" font-family="Helvetica,sans-Serif" font-size="10.00">math.h</text>
</a>
</g>
</g>
<!-- Node7&#45;&gt;Node8 -->
<g id="edge7_Node000007_Node000008" class="edge">
<title>Node7&#45;&gt;Node8</title>
<g id="a_edge7_Node000007_Node000008"><a xlink:title=" ">
<path fill="none" stroke="#63b8ff" d="M901.95,-248.65C880.86,-237.94 845.61,-220.03 820.91,-207.49"/>
<polygon fill="#63b8ff" stroke="#63b8ff" points="822.56,-204.4 812.06,-202.99 819.39,-210.64 822.56,-204.4"/>
</a>
</g>
</g>
<!-- Node9 -->
<g id="Node000009" class="node">
<title>Node9</title>
<g id="a_Node000009"><a xlink:title=" ">
<polygon fill="#e0e0e0" stroke="#999999" points="878.12,-201.88 833.62,-201.88 833.62,-182.62 878.12,-182.62 878.12,-201.88"/>
<text text-anchor="middle" x="855.88" y="-188.38" font-family="Helvetica,sans-Serif" font-size="10.00">stdio.h</text>
</a>
</g>
</g>
<!-- Node7&#45;&gt;Node9 -->
<g id="edge8_Node000007_Node000009" class="edge">
<title>Node7&#45;&gt;Node9</title>
<g id="a_edge8_Node000007_Node000009"><a xlink:title=" ">
<path fill="none" stroke="#63b8ff" d="M910.98,-248.78C901.14,-238.87 885.06,-222.66 872.8,-210.31"/>
<polygon fill="#63b8ff" stroke="#63b8ff" points="875.29,-207.85 865.76,-203.22 870.32,-212.78 875.29,-207.85"/>
</a>
</g>
</g>
<!-- Node10 -->
<g id="Node000010" class="node">
<title>Node10</title>
<g id="a_Node000010"><a xlink:title=" ">
<polygon fill="#e0e0e0" stroke="#999999" points="943.62,-201.88 896.12,-201.88 896.12,-182.62 943.62,-182.62 943.62,-201.88"/>
<text text-anchor="middle" x="919.88" y="-188.38" font-family="Helvetica,sans-Serif" font-size="10.00">string.h</text>
</a>
</g>
</g>
<!-- Node7&#45;&gt;Node10 -->
<g id="edge9_Node000007_Node000010" class="edge">
<title>Node7&#45;&gt;Node10</title>
<g id="a_edge9_Node000007_Node000010"><a xlink:title=" ">
<path fill="none" stroke="#63b8ff" d="M919.88,-248.78C919.88,-239.73 919.88,-225.45 919.88,-213.63"/>
<polygon fill="#63b8ff" stroke="#63b8ff" points="923.38,-213.66 919.88,-203.66 916.38,-213.66 923.38,-213.66"/>
</a>
</g>
</g>
<!-- Node11 -->
<g id="Node000011" class="node">
<title>Node11</title>
<g id="a_Node000011"><a xlink:title=" ">
<polygon fill="#e0e0e0" stroke="#999999" points="989.25,-135.38 954.5,-135.38 954.5,-116.12 989.25,-116.12 989.25,-135.38"/>
<text text-anchor="middle" x="971.88" y="-121.88" font-family="Helvetica,sans-Serif" font-size="10.00">map</text>
</a>
</g>
</g>
<!-- Node7&#45;&gt;Node11 -->
<g id="edge10_Node000007_Node000011" class="edge">
<title>Node7&#45;&gt;Node11</title>
<g id="a_edge10_Node000007_Node000011"><a xlink:title=" ">
<path fill="none" stroke="#63b8ff" d="M927.25,-248.68C934.76,-239.03 946.2,-223.03 952.88,-207.5 961.4,-187.68 966.45,-163.4 969.18,-146.67"/>
<polygon fill="#63b8ff" stroke="#63b8ff" points="972.6,-147.45 970.61,-137.05 965.68,-146.43 972.6,-147.45"/>
</a>
</g>
</g>
<!-- Node12 -->
<g id="Node000012" class="node">
<title>Node12</title>
<g id="a_Node000012"><a xlink:title=" ">
<polygon fill="#e0e0e0" stroke="#999999" points="1178.88,-74.5 1138.88,-74.5 1138.88,-55.25 1178.88,-55.25 1178.88,-74.5"/>
<text text-anchor="middle" x="1158.88" y="-61" font-family="Helvetica,sans-Serif" font-size="10.00">string</text>
</a>
</g>
</g>
<!-- Node7&#45;&gt;Node12 -->
<g id="edge11_Node000007_Node000012" class="edge">
<title>Node7&#45;&gt;Node12</title>
<g id="a_edge11_Node000007_Node000012"><a xlink:title=" ">
<path fill="none" stroke="#63b8ff" d="M957.46,-255.92C1007.24,-252.21 1096.7,-241.05 1164.88,-207.5 1205.45,-187.53 1223.06,-182.12 1241.88,-141 1247.52,-128.67 1248.83,-122.14 1241.88,-110.5 1230.63,-91.69 1208.43,-80.35 1189.81,-73.8"/>
<polygon fill="#63b8ff" stroke="#63b8ff" points="1191.13,-70.55 1180.54,-70.87 1189.02,-77.22 1191.13,-70.55"/>
</a>
</g>
</g>
<!-- Node13 -->
<g id="Node000013" class="node">
<title>Node13</title>
<g id="a_Node000013"><a xlink:title=" ">
<polygon fill="#e0e0e0" stroke="#999999" points="1114.62,-19.25 1061.12,-19.25 1061.12,0 1114.62,0 1114.62,-19.25"/>
<text text-anchor="middle" x="1087.88" y="-5.75" font-family="Helvetica,sans-Serif" font-size="10.00">iostream</text>
</a>
</g>
</g>
<!-- Node7&#45;&gt;Node13 -->
<g id="edge12_Node000007_Node000013" class="edge">
<title>Node7&#45;&gt;Node13</title>
<g id="a_edge12_Node000007_Node000013"><a xlink:title=" ">
<path fill="none" stroke="#63b8ff" d="M957.42,-254.44C1024.92,-247.96 1163.57,-232.04 1204.88,-207.5 1237.36,-188.19 1245.4,-176.68 1257.88,-141 1280.5,-76.32 1182.53,-37.22 1125.81,-20.37"/>
<polygon fill="#63b8ff" stroke="#63b8ff" points="1127.1,-17.1 1116.52,-17.72 1125.17,-23.83 1127.1,-17.1"/>
</a>
</g>
</g>
<!-- Node14 -->
<g id="Node000014" class="node">
<title>Node14</title>
<g id="a_Node000014"><a xlink:title=" ">
<polygon fill="#e0e0e0" stroke="#999999" points="547.12,-201.88 496.62,-201.88 496.62,-182.62 547.12,-182.62 547.12,-201.88"/>
<text text-anchor="middle" x="521.88" y="-188.38" font-family="Helvetica,sans-Serif" font-size="10.00">memory</text>
</a>
</g>
</g>
<!-- Node7&#45;&gt;Node14 -->
<g id="edge14_Node000007_Node000014" class="edge">
<title>Node7&#45;&gt;Node14</title>
<g id="a_edge14_Node000007_Node000014"><a xlink:title=" ">
<path fill="none" stroke="#63b8ff" d="M882.22,-249.26C872.37,-247.21 861.75,-245.13 851.88,-243.5 721.56,-221.94 684.72,-240.69 556.88,-207.5 555.29,-207.09 553.68,-206.62 552.06,-206.11"/>
<polygon fill="#63b8ff" stroke="#63b8ff" points="553.57,-202.94 542.98,-202.84 551.2,-209.52 553.57,-202.94"/>
</a>
</g>
</g>
<!-- Node15 -->
<g id="Node000015" class="node">
<title>Node15</title>
<g id="a_Node000015"><a xlink:title=" ">
<polygon fill="#e0e0e0" stroke="#999999" points="1232.5,-135.38 1187.25,-135.38 1187.25,-116.12 1232.5,-116.12 1232.5,-135.38"/>
<text text-anchor="middle" x="1209.88" y="-121.88" font-family="Helvetica,sans-Serif" font-size="10.00">chrono</text>
</a>
</g>
</g>
<!-- Node7&#45;&gt;Node15 -->
<g id="edge15_Node000007_Node000015" class="edge">
<title>Node7&#45;&gt;Node15</title>
<g id="a_edge15_Node000007_Node000015"><a xlink:title=" ">
<path fill="none" stroke="#63b8ff" d="M957.44,-255.25C1001.73,-250.9 1076.33,-239.14 1131.88,-207.5 1159.46,-191.79 1183.51,-163.39 1197.36,-144.81"/>
<polygon fill="#63b8ff" stroke="#63b8ff" points="1200.08,-147.02 1203.08,-136.86 1194.4,-142.93 1200.08,-147.02"/>
</a>
</g>
</g>
<!-- Node16 -->
<g id="Node000016" class="node">
<title>Node16</title>
<g id="a_Node000016"><a xlink:title=" ">
<polygon fill="#e0e0e0" stroke="#999999" points="594.27,-201.88 565.48,-201.88 565.48,-182.62 594.27,-182.62 594.27,-201.88"/>
<text text-anchor="middle" x="579.88" y="-188.38" font-family="Helvetica,sans-Serif" font-size="10.00">list</text>
</a>
</g>
</g>
<!-- Node7&#45;&gt;Node16 -->
<g id="edge16_Node000007_Node000016" class="edge">
<title>Node7&#45;&gt;Node16</title>
<g id="a_edge16_Node000007_Node000016"><a xlink:title=" ">
<path fill="none" stroke="#63b8ff" d="M882.19,-249.41C872.35,-247.35 861.73,-245.24 851.88,-243.5 741.77,-224.02 707.95,-245.75 602.88,-207.5 602.76,-207.46 602.65,-207.42 602.54,-207.38"/>
<polygon fill="#63b8ff" stroke="#63b8ff" points="604.4,-204.39 593.89,-203.05 601.27,-210.65 604.4,-204.39"/>
</a>
</g>
</g>
<!-- Node17 -->
<g id="Node000017" class="node">
<title>Node17</title>
<g id="a_Node000017"><a xlink:href="IssueFactory_8hpp.html" target="_top" xlink:title=" ">
<polygon fill="white" stroke="#666666" points="1106.25,-201.88 999.5,-201.88 999.5,-182.62 1106.25,-182.62 1106.25,-201.88"/>
<text text-anchor="middle" x="1052.88" y="-188.38" font-family="Helvetica,sans-Serif" font-size="10.00">ers/IssueFactory.hpp</text>
</a>
</g>
</g>
<!-- Node7&#45;&gt;Node17 -->
<g id="edge17_Node000007_Node000017" class="edge">
<title>Node7&#45;&gt;Node17</title>
<g id="a_edge17_Node000007_Node000017"><a xlink:title=" ">
<path fill="none" stroke="#63b8ff" d="M938.65,-248.65C960.83,-237.89 997.98,-219.87 1023.87,-207.32"/>
<polygon fill="#63b8ff" stroke="#63b8ff" points="1025.36,-210.48 1032.84,-202.97 1022.31,-204.18 1025.36,-210.48"/>
</a>
</g>
</g>
<!-- Node19 -->
<g id="Node000019" class="node">
<title>Node19</title>
<g id="a_Node000019"><a xlink:href="Severity_8hpp.html" target="_top" xlink:title=" ">
<polygon fill="white" stroke="#666666" points="1130.75,-135.38 1045,-135.38 1045,-116.12 1130.75,-116.12 1130.75,-135.38"/>
<text text-anchor="middle" x="1087.88" y="-121.88" font-family="Helvetica,sans-Serif" font-size="10.00">ers/Severity.hpp</text>
</a>
</g>
</g>
<!-- Node7&#45;&gt;Node19 -->
<g id="edge34_Node000007_Node000019" class="edge">
<title>Node7&#45;&gt;Node19</title>
<g id="a_edge34_Node000007_Node000019"><a xlink:title=" ">
<path fill="none" stroke="#63b8ff" d="M957.41,-253.5C1008.5,-246.86 1095.76,-232.16 1114.88,-207.5 1129.39,-188.77 1115.14,-161.83 1102.46,-144.31"/>
<polygon fill="#63b8ff" stroke="#63b8ff" points="1105.58,-142.62 1096.69,-136.85 1100.04,-146.91 1105.58,-142.62"/>
</a>
</g>
</g>
<!-- Node20 -->
<g id="Node000020" class="node">
<title>Node20</title>
<g id="a_Node000020"><a xlink:href="LocalContext_8hpp.html" target="_top" xlink:title=" ">
<polygon fill="white" stroke="#666666" points="366.62,-201.88 259.12,-201.88 259.12,-182.62 366.62,-182.62 366.62,-201.88"/>
<text text-anchor="middle" x="312.88" y="-188.38" font-family="Helvetica,sans-Serif" font-size="10.00">ers/LocalContext.hpp</text>
</a>
</g>
</g>
<!-- Node7&#45;&gt;Node20 -->
<g id="edge26_Node000007_Node000020" class="edge">
<title>Node7&#45;&gt;Node20</title>
<g id="a_edge26_Node000007_Node000020"><a xlink:title=" ">
<path fill="none" stroke="#63b8ff" d="M882.25,-249.07C872.4,-247.02 861.77,-244.99 851.88,-243.5 806.11,-236.59 511.57,-210.56 378.26,-198.93"/>
<polygon fill="#63b8ff" stroke="#63b8ff" points="378.8,-195.46 368.53,-198.08 378.19,-202.43 378.8,-195.46"/>
</a>
</g>
</g>
<!-- Node25 -->
<g id="Node000025" class="node">
<title>Node25</title>
<g id="a_Node000025"><a xlink:href="IssueDeclarationMacro_8hpp.html" target="_top" xlink:title=" ">
<polygon fill="white" stroke="#666666" points="751.75,-207.5 612,-207.5 612,-177 751.75,-177 751.75,-207.5"/>
<text text-anchor="start" x="620" y="-194" font-family="Helvetica,sans-Serif" font-size="10.00">ers/internal/IssueDeclaration</text>
<text text-anchor="middle" x="681.88" y="-182.75" font-family="Helvetica,sans-Serif" font-size="10.00">Macro.hpp</text>
</a>
</g>
</g>
<!-- Node7&#45;&gt;Node25 -->
<g id="edge35_Node000007_Node000025" class="edge">
<title>Node7&#45;&gt;Node25</title>
<g id="a_edge35_Node000007_Node000025"><a xlink:title=" ">
<path fill="none" stroke="#63b8ff" d="M886.28,-248.65C850.18,-238.86 791.9,-223.07 746.8,-210.84"/>
<polygon fill="#63b8ff" stroke="#63b8ff" points="747.96,-207.53 737.39,-208.29 746.13,-214.29 747.96,-207.53"/>
</a>
</g>
</g>
<!-- Node17&#45;&gt;Node11 -->
<g id="edge21_Node000017_Node000011" class="edge">
<title>Node17&#45;&gt;Node11</title>
<g id="a_edge21_Node000017_Node000011"><a xlink:title=" ">
<path fill="none" stroke="#63b8ff" d="M1041.61,-182.28C1028.87,-172.13 1007.86,-155.4 992.22,-142.95"/>
<polygon fill="#63b8ff" stroke="#63b8ff" points="994.49,-140.28 984.49,-136.79 990.13,-145.76 994.49,-140.28"/>
</a>
</g>
</g>
<!-- Node17&#45;&gt;Node12 -->
<g id="edge19_Node000017_Node000012" class="edge">
<title>Node17&#45;&gt;Node12</title>
<g id="a_edge19_Node000017_Node000012"><a xlink:title=" ">
<path fill="none" stroke="#63b8ff" d="M1079.97,-182.15C1099.45,-174.24 1124.83,-160.9 1139.88,-141 1151.91,-125.08 1156.38,-102.39 1158.01,-86.11"/>
<polygon fill="#63b8ff" stroke="#63b8ff" points="1161.49,-86.42 1158.69,-76.2 1154.51,-85.94 1161.49,-86.42"/>
</a>
</g>
</g>
<!-- Node17&#45;&gt;Node15 -->
<g id="edge18_Node000017_Node000015" class="edge">
<title>Node17&#45;&gt;Node15</title>
<g id="a_edge18_Node000017_Node000015"><a xlink:title=" ">
<path fill="none" stroke="#63b8ff" d="M1075.04,-182.15C1101.69,-171.2 1146.64,-152.73 1177.26,-140.15"/>
<polygon fill="#63b8ff" stroke="#63b8ff" points="1178.51,-143.42 1186.43,-136.38 1175.85,-136.95 1178.51,-143.42"/>
</a>
</g>
</g>
<!-- Node18 -->
<g id="Node000018" class="node">
<title>Node18</title>
<g id="a_Node000018"><a xlink:title=" ">
<polygon fill="#e0e0e0" stroke="#999999" points="1038.38,-74.5 995.38,-74.5 995.38,-55.25 1038.38,-55.25 1038.38,-74.5"/>
<text text-anchor="middle" x="1016.88" y="-61" font-family="Helvetica,sans-Serif" font-size="10.00">vector</text>
</a>
</g>
</g>
<!-- Node17&#45;&gt;Node18 -->
<g id="edge20_Node000017_Node000018" class="edge">
<title>Node17&#45;&gt;Node18</title>
<g id="a_edge20_Node000017_Node000018"><a xlink:title=" ">
<path fill="none" stroke="#63b8ff" d="M1049.65,-182.42C1046.07,-172.44 1040.2,-155.66 1035.88,-141 1030.4,-122.45 1025.08,-101.05 1021.47,-85.84"/>
<polygon fill="#63b8ff" stroke="#63b8ff" points="1024.9,-85.14 1019.22,-76.2 1018.09,-86.73 1024.9,-85.14"/>
</a>
</g>
</g>
<!-- Node17&#45;&gt;Node19 -->
<g id="edge22_Node000017_Node000019" class="edge">
<title>Node17&#45;&gt;Node19</title>
<g id="a_edge22_Node000017_Node000019"><a xlink:title=" ">
<path fill="none" stroke="#63b8ff" d="M1057.74,-182.28C1062.86,-172.85 1071.07,-157.72 1077.63,-145.63"/>
<polygon fill="#63b8ff" stroke="#63b8ff" points="1080.63,-147.43 1082.33,-136.97 1074.48,-144.09 1080.63,-147.43"/>
</a>
</g>
</g>
<!-- Node19&#45;&gt;Node12 -->
<g id="edge23_Node000019_Node000012" class="edge">
<title>Node19&#45;&gt;Node12</title>
<g id="a_edge23_Node000019_Node000012"><a xlink:title=" ">
<path fill="none" stroke="#63b8ff" d="M1098.66,-115.81C1109.4,-106.9 1126.13,-93.03 1139.23,-82.17"/>
<polygon fill="#63b8ff" stroke="#63b8ff" points="1141.36,-84.94 1146.83,-75.87 1136.89,-79.56 1141.36,-84.94"/>
</a>
</g>
</g>
<!-- Node19&#45;&gt;Node13 -->
<g id="edge25_Node000019_Node000013" class="edge">
<title>Node19&#45;&gt;Node13</title>
<g id="a_edge25_Node000019_Node000013"><a xlink:title=" ">
<path fill="none" stroke="#63b8ff" d="M1087.88,-115.79C1087.88,-97.63 1087.88,-56.04 1087.88,-30.95"/>
<polygon fill="#63b8ff" stroke="#63b8ff" points="1091.38,-31.05 1087.88,-21.05 1084.38,-31.05 1091.38,-31.05"/>
</a>
</g>
</g>
<!-- Node19&#45;&gt;Node18 -->
<g id="edge24_Node000019_Node000018" class="edge">
<title>Node19&#45;&gt;Node18</title>
<g id="a_edge24_Node000019_Node000018"><a xlink:title=" ">
<path fill="none" stroke="#63b8ff" d="M1077.09,-115.81C1066.35,-106.9 1049.62,-93.03 1036.52,-82.17"/>
<polygon fill="#63b8ff" stroke="#63b8ff" points="1038.86,-79.56 1028.92,-75.87 1034.39,-84.94 1038.86,-79.56"/>
</a>
</g>
</g>
<!-- Node21 -->
<g id="Node000021" class="node">
<title>Node21</title>
<g id="a_Node000021"><a xlink:title=" ">
<polygon fill="#e0e0e0" stroke="#999999" points="234.25,-135.38 169.5,-135.38 169.5,-116.12 234.25,-116.12 234.25,-135.38"/>
<text text-anchor="middle" x="201.88" y="-121.88" font-family="Helvetica,sans-Serif" font-size="10.00">sys/types.h</text>
</a>
</g>
</g>
<!-- Node20&#45;&gt;Node21 -->
<g id="edge27_Node000020_Node000021" class="edge">
<title>Node20&#45;&gt;Node21</title>
<g id="a_edge27_Node000020_Node000021"><a xlink:title=" ">
<path fill="none" stroke="#63b8ff" d="M297.44,-182.28C279.32,-171.75 248.99,-154.13 227.36,-141.56"/>
<polygon fill="#63b8ff" stroke="#63b8ff" points="229.25,-138.61 218.84,-136.61 225.73,-144.66 229.25,-138.61"/>
</a>
</g>
</g>
<!-- Node22 -->
<g id="Node000022" class="node">
<title>Node22</title>
<g id="a_Node000022"><a xlink:title=" ">
<polygon fill="#e0e0e0" stroke="#999999" points="49.75,-135.38 0,-135.38 0,-116.12 49.75,-116.12 49.75,-135.38"/>
<text text-anchor="middle" x="24.88" y="-121.88" font-family="Helvetica,sans-Serif" font-size="10.00">unistd.h</text>
</a>
</g>
</g>
<!-- Node20&#45;&gt;Node22 -->
<g id="edge28_Node000020_Node000022" class="edge">
<title>Node20&#45;&gt;Node22</title>
<g id="a_edge28_Node000020_Node000022"><a xlink:title=" ">
<path fill="none" stroke="#63b8ff" d="M274.56,-182.19C266.74,-180.41 258.55,-178.6 250.88,-177 165.88,-159.27 142.04,-165.92 58.88,-141 57.53,-140.6 56.17,-140.16 54.8,-139.69"/>
<polygon fill="#63b8ff" stroke="#63b8ff" points="56.4,-136.56 45.81,-136.29 53.92,-143.11 56.4,-136.56"/>
</a>
</g>
</g>
<!-- Node23 -->
<g id="Node000023" class="node">
<title>Node23</title>
<g id="a_Node000023"><a xlink:href="Context_8hpp.html" target="_top" xlink:title=" ">
<polygon fill="white" stroke="#666666" points="151.62,-135.38 68.12,-135.38 68.12,-116.12 151.62,-116.12 151.62,-135.38"/>
<text text-anchor="middle" x="109.88" y="-121.88" font-family="Helvetica,sans-Serif" font-size="10.00">ers/Context.hpp</text>
</a>
</g>
</g>
<!-- Node20&#45;&gt;Node23 -->
<g id="edge29_Node000020_Node000023" class="edge">
<title>Node20&#45;&gt;Node23</title>
<g id="a_edge29_Node000020_Node000023"><a xlink:title=" ">
<path fill="none" stroke="#63b8ff" d="M284.22,-182.15C248.93,-170.93 188.81,-151.83 149.22,-139.25"/>
<polygon fill="#63b8ff" stroke="#63b8ff" points="150.42,-135.96 139.83,-136.27 148.3,-142.63 150.42,-135.96"/>
</a>
</g>
</g>
<!-- Node23&#45;&gt;Node12 -->
<g id="edge30_Node000023_Node000012" class="edge">
<title>Node23&#45;&gt;Node12</title>
<g id="a_edge30_Node000023_Node000012"><a xlink:title=" ">
<path fill="none" stroke="#63b8ff" d="M137.94,-115.65C145.33,-113.61 153.34,-111.69 160.88,-110.5 550.6,-49 654.02,-97.79 1047.88,-74.5 1074.57,-72.92 1104.84,-70.53 1127.02,-68.66"/>
<polygon fill="#63b8ff" stroke="#63b8ff" points="1127.26,-72.16 1136.92,-67.82 1126.66,-65.18 1127.26,-72.16"/>
</a>
</g>
</g>
<!-- Node23&#45;&gt;Node18 -->
<g id="edge31_Node000023_Node000018" class="edge">
<title>Node23&#45;&gt;Node18</title>
<g id="a_edge31_Node000023_Node000018"><a xlink:title=" ">
<path fill="none" stroke="#63b8ff" d="M138.22,-115.64C145.53,-113.62 153.44,-111.72 160.88,-110.5 323.74,-83.84 846.98,-69.88 983.86,-66.62"/>
<polygon fill="#63b8ff" stroke="#63b8ff" points="983.74,-70.13 993.66,-66.39 983.58,-63.13 983.74,-70.13"/>
</a>
</g>
</g>
<!-- Node24 -->
<g id="Node000024" class="node">
<title>Node24</title>
<g id="a_Node000024"><a xlink:href="ers_2include_2ers_2Configuration_8hpp.html" target="_top" xlink:title=" ">
<polygon fill="white" stroke="#666666" points="570.25,-74.5 463.5,-74.5 463.5,-55.25 570.25,-55.25 570.25,-74.5"/>
<text text-anchor="middle" x="516.88" y="-61" font-family="Helvetica,sans-Serif" font-size="10.00">ers/Configuration.hpp</text>
</a>
</g>
</g>
<!-- Node23&#45;&gt;Node24 -->
<g id="edge32_Node000023_Node000024" class="edge">
<title>Node23&#45;&gt;Node24</title>
<g id="a_edge32_Node000023_Node000024"><a xlink:title=" ">
<path fill="none" stroke="#63b8ff" d="M139.63,-115.64C146.56,-113.74 153.94,-111.9 160.88,-110.5 261.59,-90.23 380.29,-77.56 452,-71.1"/>
<polygon fill="#63b8ff" stroke="#63b8ff" points="451.94,-74.62 461.59,-70.26 451.32,-67.65 451.94,-74.62"/>
</a>
</g>
</g>
<!-- Node24&#45;&gt;Node13 -->
<g id="edge33_Node000024_Node000013" class="edge">
<title>Node24&#45;&gt;Node13</title>
<g id="a_edge33_Node000024_Node000013"><a xlink:title=" ">
<path fill="none" stroke="#63b8ff" d="M570.59,-58.87C685.04,-48.19 950.54,-23.43 1049.65,-14.19"/>
<polygon fill="#63b8ff" stroke="#63b8ff" points="1049.75,-17.7 1059.38,-13.28 1049.1,-10.73 1049.75,-17.7"/>
</a>
</g>
</g>
<!-- Node26 -->
<g id="Node000026" class="node">
<title>Node26</title>
<g id="a_Node000026"><a xlink:title=" ">
<polygon fill="#e0e0e0" stroke="#999999" points="819.5,-141 720.25,-141 720.25,-110.5 819.5,-110.5 819.5,-141"/>
<text text-anchor="start" x="728.25" y="-127.5" font-family="Helvetica,sans-Serif" font-size="10.00">boost/preprocessor</text>
<text text-anchor="middle" x="769.88" y="-116.25" font-family="Helvetica,sans-Serif" font-size="10.00">/if.hpp</text>
</a>
</g>
</g>
<!-- Node25&#45;&gt;Node26 -->
<g id="edge36_Node000025_Node000026" class="edge">
<title>Node25&#45;&gt;Node26</title>
<g id="a_edge36_Node000025_Node000026"><a xlink:title=" ">
<path fill="none" stroke="#63b8ff" d="M701.84,-176.61C713.43,-168.12 728.23,-157.27 741.06,-147.87"/>
<polygon fill="#63b8ff" stroke="#63b8ff" points="742.77,-150.96 748.76,-142.22 738.63,-145.31 742.77,-150.96"/>
</a>
</g>
</g>
<!-- Node27 -->
<g id="Node000027" class="node">
<title>Node27</title>
<g id="a_Node000027"><a xlink:title=" ">
<polygon fill="#e0e0e0" stroke="#999999" points="936.5,-141 837.25,-141 837.25,-110.5 936.5,-110.5 936.5,-141"/>
<text text-anchor="start" x="845.25" y="-127.5" font-family="Helvetica,sans-Serif" font-size="10.00">boost/preprocessor</text>
<text text-anchor="middle" x="886.88" y="-116.25" font-family="Helvetica,sans-Serif" font-size="10.00">/seq.hpp</text>
</a>
</g>
</g>
<!-- Node25&#45;&gt;Node27 -->
<g id="edge37_Node000025_Node000027" class="edge">
<title>Node25&#45;&gt;Node27</title>
<g id="a_edge37_Node000025_Node000027"><a xlink:title=" ">
<path fill="none" stroke="#63b8ff" d="M728.65,-176.53C758.56,-167.12 797.58,-154.85 829.38,-144.84"/>
<polygon fill="#63b8ff" stroke="#63b8ff" points="830.37,-148.2 838.86,-141.86 828.27,-141.52 830.37,-148.2"/>
</a>
</g>
</g>
<!-- Node28 -->
<g id="Node000028" class="node">
<title>Node28</title>
<g id="a_Node000028"><a xlink:title=" ">
<polygon fill="#e0e0e0" stroke="#999999" points="351.5,-141 252.25,-141 252.25,-110.5 351.5,-110.5 351.5,-141"/>
<text text-anchor="start" x="260.25" y="-127.5" font-family="Helvetica,sans-Serif" font-size="10.00">boost/preprocessor</text>
<text text-anchor="middle" x="301.88" y="-116.25" font-family="Helvetica,sans-Serif" font-size="10.00">/tuple.hpp</text>
</a>
</g>
</g>
<!-- Node25&#45;&gt;Node28 -->
<g id="edge38_Node000025_Node000028" class="edge">
<title>Node25&#45;&gt;Node28</title>
<g id="a_edge38_Node000025_Node000028"><a xlink:title=" ">
<path fill="none" stroke="#63b8ff" d="M611.68,-178.47C608.71,-177.97 605.76,-177.47 602.88,-177 498.72,-159.89 468.96,-161.89 362.99,-141.51"/>
<polygon fill="#63b8ff" stroke="#63b8ff" points="363.77,-138.1 353.28,-139.62 362.43,-144.97 363.77,-138.1"/>
</a>
</g>
</g>
<!-- Node29 -->
<g id="Node000029" class="node">
<title>Node29</title>
<g id="a_Node000029"><a xlink:title=" ">
<polygon fill="#e0e0e0" stroke="#999999" points="468.5,-141 369.25,-141 369.25,-110.5 468.5,-110.5 468.5,-141"/>
<text text-anchor="start" x="377.25" y="-127.5" font-family="Helvetica,sans-Serif" font-size="10.00">boost/preprocessor</text>
<text text-anchor="middle" x="418.88" y="-116.25" font-family="Helvetica,sans-Serif" font-size="10.00">/logical.hpp</text>
</a>
</g>
</g>
<!-- Node25&#45;&gt;Node29 -->
<g id="edge39_Node000025_Node000029" class="edge">
<title>Node25&#45;&gt;Node29</title>
<g id="a_edge39_Node000025_Node000029"><a xlink:title=" ">
<path fill="none" stroke="#63b8ff" d="M621.77,-176.53C583.55,-167.16 532.7,-154.7 479.82,-141.72"/>
<polygon fill="#63b8ff" stroke="#63b8ff" points="480.88,-138.38 470.33,-139.39 479.21,-145.18 480.88,-138.38"/>
</a>
</g>
</g>
<!-- Node30 -->
<g id="Node000030" class="node">
<title>Node30</title>
<g id="a_Node000030"><a xlink:title=" ">
<polygon fill="#e0e0e0" stroke="#999999" points="585.5,-141 486.25,-141 486.25,-110.5 585.5,-110.5 585.5,-141"/>
<text text-anchor="start" x="494.25" y="-127.5" font-family="Helvetica,sans-Serif" font-size="10.00">boost/preprocessor</text>
<text text-anchor="middle" x="535.88" y="-116.25" font-family="Helvetica,sans-Serif" font-size="10.00">/stringize.hpp</text>
</a>
</g>
</g>
<!-- Node25&#45;&gt;Node30 -->
<g id="edge40_Node000025_Node000030" class="edge">
<title>Node25&#45;&gt;Node30</title>
<g id="a_edge40_Node000025_Node000030"><a xlink:title=" ">
<path fill="none" stroke="#63b8ff" d="M648.75,-176.61C628.28,-167.57 601.79,-155.87 579.62,-146.08"/>
<polygon fill="#63b8ff" stroke="#63b8ff" points="581.07,-142.89 570.51,-142.05 578.24,-149.29 581.07,-142.89"/>
</a>
</g>
</g>
<!-- Node31 -->
<g id="Node000031" class="node">
<title>Node31</title>
<g id="a_Node000031"><a xlink:title=" ">
<polygon fill="#e0e0e0" stroke="#999999" points="702.5,-141 603.25,-141 603.25,-110.5 702.5,-110.5 702.5,-141"/>
<text text-anchor="start" x="611.25" y="-127.5" font-family="Helvetica,sans-Serif" font-size="10.00">boost/preprocessor</text>
<text text-anchor="middle" x="652.88" y="-116.25" font-family="Helvetica,sans-Serif" font-size="10.00">/comparison.hpp</text>
</a>
</g>
</g>
<!-- Node25&#45;&gt;Node31 -->
<g id="edge41_Node000025_Node000031" class="edge">
<title>Node25&#45;&gt;Node31</title>
<g id="a_edge41_Node000025_Node000031"><a xlink:title=" ">
<path fill="none" stroke="#63b8ff" d="M675.29,-176.61C671.99,-169.27 667.91,-160.18 664.13,-151.77"/>
<polygon fill="#63b8ff" stroke="#63b8ff" points="667.34,-150.39 660.05,-142.71 660.96,-153.26 667.34,-150.39"/>
</a>
</g>
</g>
<!-- Node33&#45;&gt;Node12 -->
<g id="edge45_Node000033_Node000012" class="edge">
<title>Node33&#45;&gt;Node12</title>
<g id="a_edge45_Node000033_Node000012"><a xlink:title=" ">
<path fill="none" stroke="#63b8ff" d="M2023.96,-256.01C1861.81,-250.88 1417.02,-234.52 1356.88,-207.5 1300.68,-182.26 1308.74,-145.25 1257.88,-110.5 1236.73,-96.05 1210.15,-84.37 1189.85,-76.59"/>
<polygon fill="#63b8ff" stroke="#63b8ff" points="1191.31,-73.4 1180.72,-73.2 1188.88,-79.96 1191.31,-73.4"/>
</a>
</g>
</g>
<!-- Node34 -->
<g id="Node000034" class="node">
<title>Node34</title>
<g id="a_Node000034"><a xlink:title=" ">
<polygon fill="#e0e0e0" stroke="#999999" points="1984.5,-201.88 1945.25,-201.88 1945.25,-182.62 1984.5,-182.62 1984.5,-201.88"/>
<text text-anchor="middle" x="1964.88" y="-188.38" font-family="Helvetica,sans-Serif" font-size="10.00">limits</text>
</a>
</g>
</g>
<!-- Node33&#45;&gt;Node34 -->
<g id="edge44_Node000033_Node000034" class="edge">
<title>Node33&#45;&gt;Node34</title>
<g id="a_edge44_Node000033_Node000034"><a xlink:title=" ">
<path fill="none" stroke="#63b8ff" d="M2056.1,-243.11C2036.71,-232.51 2010.61,-218.25 1991.3,-207.7"/>
<polygon fill="#63b8ff" stroke="#63b8ff" points="1993.14,-204.71 1982.69,-202.99 1989.78,-210.85 1993.14,-204.71"/>
</a>
</g>
</g>
<!-- Node35 -->
<g id="Node000035" class="node">
<title>Node35</title>
<g id="a_Node000035"><a xlink:title=" ">
<polygon fill="#e0e0e0" stroke="#999999" points="2063.38,-201.88 2002.38,-201.88 2002.38,-182.62 2063.38,-182.62 2063.38,-201.88"/>
<text text-anchor="middle" x="2032.88" y="-188.38" font-family="Helvetica,sans-Serif" font-size="10.00">type_traits</text>
</a>
</g>
</g>
<!-- Node33&#45;&gt;Node35 -->
<g id="edge46_Node000033_Node000035" class="edge">
<title>Node33&#45;&gt;Node35</title>
<g id="a_edge46_Node000033_Node000035"><a xlink:title=" ">
<path fill="none" stroke="#63b8ff" d="M2071.53,-243.11C2064.18,-233.64 2054.57,-221.23 2046.76,-211.16"/>
<polygon fill="#63b8ff" stroke="#63b8ff" points="2049.53,-209.03 2040.64,-203.27 2044,-213.32 2049.53,-209.03"/>
</a>
</g>
</g>
<!-- Node36 -->
<g id="Node000036" class="node">
<title>Node36</title>
<g id="a_Node000036"><a xlink:title=" ">
<polygon fill="#e0e0e0" stroke="#999999" points="2184,-207.5 2081.75,-207.5 2081.75,-177 2184,-177 2184,-207.5"/>
<text text-anchor="start" x="2089.75" y="-194" font-family="Helvetica,sans-Serif" font-size="10.00">google/protobuf/port</text>
<text text-anchor="middle" x="2132.88" y="-182.75" font-family="Helvetica,sans-Serif" font-size="10.00">_def.inc</text>
</a>
</g>
</g>
<!-- Node33&#45;&gt;Node36 -->
<g id="edge47_Node000033_Node000036" class="edge">
<title>Node33&#45;&gt;Node36</title>
<g id="a_edge47_Node000033_Node000036"><a xlink:title=" ">
<path fill="none" stroke="#63b8ff" d="M2094.22,-243.11C2100.23,-235.36 2107.76,-225.65 2114.57,-216.86"/>
<polygon fill="#63b8ff" stroke="#63b8ff" points="2117.29,-219.07 2120.65,-209.02 2111.75,-214.78 2117.29,-219.07"/>
</a>
</g>
</g>
<!-- Node37 -->
<g id="Node000037" class="node">
<title>Node37</title>
<g id="a_Node000037"><a xlink:title=" ">
<polygon fill="#e0e0e0" stroke="#999999" points="2304,-207.5 2201.75,-207.5 2201.75,-177 2304,-177 2304,-207.5"/>
<text text-anchor="start" x="2209.75" y="-194" font-family="Helvetica,sans-Serif" font-size="10.00">google/protobuf/port</text>
<text text-anchor="middle" x="2252.88" y="-182.75" font-family="Helvetica,sans-Serif" font-size="10.00">_undef.inc</text>
</a>
</g>
</g>
<!-- Node33&#45;&gt;Node37 -->
<g id="edge48_Node000033_Node000037" class="edge">
<title>Node33&#45;&gt;Node37</title>
<g id="a_edge48_Node000033_Node000037"><a xlink:title=" ">
<path fill="none" stroke="#63b8ff" d="M2121.45,-243.11C2145.82,-233.87 2177.53,-221.84 2203.69,-211.91"/>
<polygon fill="#63b8ff" stroke="#63b8ff" points="2204.63,-215.3 2212.74,-208.48 2202.15,-208.75 2204.63,-215.3"/>
</a>
</g>
</g>
<!-- Node38 -->
<g id="Node000038" class="node">
<title>Node38</title>
<g id="a_Node000038"><a xlink:title=" ">
<polygon fill="#e0e0e0" stroke="#999999" points="2415.5,-207.5 2322.25,-207.5 2322.25,-177 2415.5,-177 2415.5,-207.5"/>
<text text-anchor="start" x="2330.25" y="-194" font-family="Helvetica,sans-Serif" font-size="10.00">google/protobuf/io</text>
<text text-anchor="middle" x="2368.88" y="-182.75" font-family="Helvetica,sans-Serif" font-size="10.00">/coded_stream.h</text>
</a>
</g>
</g>
<!-- Node33&#45;&gt;Node38 -->
<g id="edge49_Node000033_Node000038" class="edge">
<title>Node33&#45;&gt;Node38</title>
<g id="a_edge49_Node000033_Node000038"><a xlink:title=" ">
<path fill="none" stroke="#63b8ff" d="M2141.96,-245.08C2194.13,-233.86 2267.39,-217.98 2310.73,-207.95"/>
<polygon fill="#63b8ff" stroke="#63b8ff" points="2311.44,-211.37 2320.38,-205.69 2309.84,-204.56 2311.44,-211.37"/>
</a>
</g>
</g>
<!-- Node39 -->
<g id="Node000039" class="node">
<title>Node39</title>
<g id="a_Node000039"><a xlink:title=" ">
<polygon fill="#e0e0e0" stroke="#999999" points="2550.5,-201.88 2433.25,-201.88 2433.25,-182.62 2550.5,-182.62 2550.5,-201.88"/>
<text text-anchor="middle" x="2491.88" y="-188.38" font-family="Helvetica,sans-Serif" font-size="10.00">google/protobuf/arena.h</text>
</a>
</g>
</g>
<!-- Node33&#45;&gt;Node39 -->
<g id="edge50_Node000033_Node000039" class="edge">
<title>Node33&#45;&gt;Node39</title>
<g id="a_edge50_Node000033_Node000039"><a xlink:title=" ">
<path fill="none" stroke="#63b8ff" d="M2141.79,-245.12C2144.86,-244.55 2147.9,-244.01 2150.88,-243.5 2271.96,-222.89 2303.82,-228.29 2424.88,-207.5 2430.02,-206.62 2435.38,-205.61 2440.72,-204.56"/>
<polygon fill="#63b8ff" stroke="#63b8ff" points="2441,-208.08 2450.1,-202.66 2439.6,-201.22 2441,-208.08"/>
</a>
</g>
</g>
<!-- Node40 -->
<g id="Node000040" class="node">
<title>Node40</title>
<g id="a_Node000040"><a xlink:title=" ">
<polygon fill="#e0e0e0" stroke="#999999" points="2709.5,-201.88 2568.25,-201.88 2568.25,-182.62 2709.5,-182.62 2709.5,-201.88"/>
<text text-anchor="middle" x="2638.88" y="-188.38" font-family="Helvetica,sans-Serif" font-size="10.00">google/protobuf/arenastring.h</text>
</a>
</g>
</g>
<!-- Node33&#45;&gt;Node40 -->
<g id="edge51_Node000033_Node000040" class="edge">
<title>Node33&#45;&gt;Node40</title>
<g id="a_edge51_Node000033_Node000040"><a xlink:title=" ">
<path fill="none" stroke="#63b8ff" d="M2141.77,-244.96C2144.84,-244.43 2147.89,-243.94 2150.88,-243.5 2331.38,-216.74 2379.01,-231.72 2559.88,-207.5 2566.86,-206.57 2574.16,-205.44 2581.38,-204.25"/>
<polygon fill="#63b8ff" stroke="#63b8ff" points="2581.86,-207.72 2591.13,-202.57 2580.68,-200.82 2581.86,-207.72"/>
</a>
</g>
</g>
<!-- Node41 -->
<g id="Node000041" class="node">
<title>Node41</title>
<g id="a_Node000041"><a xlink:title=" ">
<polygon fill="#e0e0e0" stroke="#999999" points="2856.12,-207.5 2727.62,-207.5 2727.62,-177 2856.12,-177 2856.12,-207.5"/>
<text text-anchor="start" x="2735.62" y="-194" font-family="Helvetica,sans-Serif" font-size="10.00">google/protobuf/generated</text>
<text text-anchor="middle" x="2791.88" y="-182.75" font-family="Helvetica,sans-Serif" font-size="10.00">_message_tctable_decl.h</text>
</a>
</g>
</g>
<!-- Node33&#45;&gt;Node41 -->
<g id="edge52_Node000033_Node000041" class="edge">
<title>Node33&#45;&gt;Node41</title>
<g id="a_edge52_Node000033_Node000041"><a xlink:title=" ">
<path fill="none" stroke="#63b8ff" d="M2141.76,-244.87C2144.83,-244.37 2147.89,-243.91 2150.88,-243.5 2397.86,-209.97 2466.01,-238.92 2716.18,-207.72"/>
<polygon fill="#63b8ff" stroke="#63b8ff" points="2716.48,-211.22 2725.96,-206.48 2715.6,-204.27 2716.48,-211.22"/>
</a>
</g>
</g>
<!-- Node42 -->
<g id="Node000042" class="node">
<title>Node42</title>
<g id="a_Node000042"><a xlink:title=" ">
<polygon fill="#e0e0e0" stroke="#999999" points="3003.12,-207.5 2874.62,-207.5 2874.62,-177 3003.12,-177 3003.12,-207.5"/>
<text text-anchor="start" x="2882.62" y="-194" font-family="Helvetica,sans-Serif" font-size="10.00">google/protobuf/generated</text>
<text text-anchor="middle" x="2938.88" y="-182.75" font-family="Helvetica,sans-Serif" font-size="10.00">_message_util.h</text>
</a>
</g>
</g>
<!-- Node33&#45;&gt;Node42 -->
<g id="edge53_Node000033_Node000042" class="edge">
<title>Node33&#45;&gt;Node42</title>
<g id="a_edge53_Node000033_Node000042"><a xlink:title=" ">
<path fill="none" stroke="#63b8ff" d="M2141.75,-244.82C2144.83,-244.33 2147.88,-243.89 2150.88,-243.5 2462.3,-203.27 2547.45,-244.64 2863.06,-207.57"/>
<polygon fill="#63b8ff" stroke="#63b8ff" points="2863.37,-211.06 2872.88,-206.4 2862.54,-204.11 2863.37,-211.06"/>
</a>
</g>
</g>
<!-- Node43 -->
<g id="Node000043" class="node">
<title>Node43</title>
<g id="a_Node000043"><a xlink:title=" ">
<polygon fill="#e0e0e0" stroke="#999999" points="3147,-207.5 3020.75,-207.5 3020.75,-177 3147,-177 3147,-207.5"/>
<text text-anchor="start" x="3028.75" y="-194" font-family="Helvetica,sans-Serif" font-size="10.00">google/protobuf/metadata</text>
<text text-anchor="middle" x="3083.88" y="-182.75" font-family="Helvetica,sans-Serif" font-size="10.00">_lite.h</text>
</a>
</g>
</g>
<!-- Node33&#45;&gt;Node43 -->
<g id="edge54_Node000033_Node000043" class="edge">
<title>Node33&#45;&gt;Node43</title>
<g id="a_edge54_Node000033_Node000043"><a xlink:title=" ">
<path fill="none" stroke="#63b8ff" d="M2141.75,-244.79C2144.83,-244.31 2147.88,-243.87 2150.88,-243.5 2527.22,-196.52 2629.57,-251.72 3009.05,-207.7"/>
<polygon fill="#63b8ff" stroke="#63b8ff" points="3009.33,-211.19 3018.85,-206.55 3008.51,-204.24 3009.33,-211.19"/>
</a>
</g>
</g>
<!-- Node44 -->
<g id="Node000044" class="node">
<title>Node44</title>
<g id="a_Node000044"><a xlink:title=" ">
<polygon fill="#e0e0e0" stroke="#999999" points="3293.12,-207.5 3164.62,-207.5 3164.62,-177 3293.12,-177 3293.12,-207.5"/>
<text text-anchor="start" x="3172.62" y="-194" font-family="Helvetica,sans-Serif" font-size="10.00">google/protobuf/generated</text>
<text text-anchor="middle" x="3228.88" y="-182.75" font-family="Helvetica,sans-Serif" font-size="10.00">_message_reflection.h</text>
</a>
</g>
</g>
<!-- Node33&#45;&gt;Node44 -->
<g id="edge55_Node000033_Node000044" class="edge">
<title>Node33&#45;&gt;Node44</title>
<g id="a_edge55_Node000033_Node000044"><a xlink:title=" ">
<path fill="none" stroke="#63b8ff" d="M2141.74,-244.77C2144.82,-244.29 2147.88,-243.86 2150.88,-243.5 2590.87,-189.92 2709.87,-257.34 3153.27,-207.66"/>
<polygon fill="#63b8ff" stroke="#63b8ff" points="3153.43,-211.17 3162.97,-206.56 3152.64,-204.21 3153.43,-211.17"/>
</a>
</g>
</g>
<!-- Node45 -->
<g id="Node000045" class="node">
<title>Node45</title>
<g id="a_Node000045"><a xlink:title=" ">
<polygon fill="#e0e0e0" stroke="#999999" points="1498.38,-201.88 1365.38,-201.88 1365.38,-182.62 1498.38,-182.62 1498.38,-201.88"/>
<text text-anchor="middle" x="1431.88" y="-188.38" font-family="Helvetica,sans-Serif" font-size="10.00">google/protobuf/message.h</text>
</a>
</g>
</g>
<!-- Node33&#45;&gt;Node45 -->
<g id="edge56_Node000033_Node000045" class="edge">
<title>Node33&#45;&gt;Node45</title>
<g id="a_edge56_Node000033_Node000045"><a xlink:title=" ">
<path fill="none" stroke="#63b8ff" d="M2023.78,-254.57C1919.2,-248.49 1694.81,-233.48 1506.88,-207.5 1500.4,-206.6 1493.63,-205.53 1486.93,-204.37"/>
<polygon fill="#63b8ff" stroke="#63b8ff" points="1487.73,-200.95 1477.26,-202.63 1486.49,-207.84 1487.73,-200.95"/>
</a>
</g>
</g>
<!-- Node46 -->
<g id="Node000046" class="node">
<title>Node46</title>
<g id="a_Node000046"><a xlink:title=" ">
<polygon fill="#e0e0e0" stroke="#999999" points="1639.5,-207.5 1516.25,-207.5 1516.25,-177 1639.5,-177 1639.5,-207.5"/>
<text text-anchor="start" x="1524.25" y="-194" font-family="Helvetica,sans-Serif" font-size="10.00">google/protobuf/repeated</text>
<text text-anchor="middle" x="1577.88" y="-182.75" font-family="Helvetica,sans-Serif" font-size="10.00">_field.h</text>
</a>
</g>
</g>
<!-- Node33&#45;&gt;Node46 -->
<g id="edge57_Node000033_Node000046" class="edge">
<title>Node33&#45;&gt;Node46</title>
<g id="a_edge57_Node000033_Node000046"><a xlink:title=" ">
<path fill="none" stroke="#63b8ff" d="M2024.05,-252.5C1942.61,-244.88 1790.7,-229.44 1651.09,-207.76"/>
<polygon fill="#63b8ff" stroke="#63b8ff" points="1651.69,-204.31 1641.27,-206.22 1650.61,-211.23 1651.69,-204.31"/>
</a>
</g>
</g>
<!-- Node47 -->
<g id="Node000047" class="node">
<title>Node47</title>
<g id="a_Node000047"><a xlink:title=" ">
<polygon fill="#e0e0e0" stroke="#999999" points="1784.38,-207.5 1657.38,-207.5 1657.38,-177 1784.38,-177 1784.38,-207.5"/>
<text text-anchor="start" x="1665.38" y="-194" font-family="Helvetica,sans-Serif" font-size="10.00">google/protobuf/extension</text>
<text text-anchor="middle" x="1720.88" y="-182.75" font-family="Helvetica,sans-Serif" font-size="10.00">_set.h</text>
</a>
</g>
</g>
<!-- Node33&#45;&gt;Node47 -->
<g id="edge58_Node000033_Node000047" class="edge">
<title>Node33&#45;&gt;Node47</title>
<g id="a_edge58_Node000033_Node000047"><a xlink:title=" ">
<path fill="none" stroke="#63b8ff" d="M2023.86,-247.86C1967.87,-238.38 1881.05,-223.49 1795.76,-207.83"/>
<polygon fill="#63b8ff" stroke="#63b8ff" points="1796.52,-204.41 1786.05,-206.04 1795.25,-211.29 1796.52,-204.41"/>
</a>
</g>
</g>
<!-- Node48 -->
<g id="Node000048" class="node">
<title>Node48</title>
<g id="a_Node000048"><a xlink:title=" ">
<polygon fill="#e0e0e0" stroke="#999999" points="1927.25,-207.5 1802.5,-207.5 1802.5,-177 1927.25,-177 1927.25,-207.5"/>
<text text-anchor="start" x="1810.5" y="-194" font-family="Helvetica,sans-Serif" font-size="10.00">google/protobuf/unknown</text>
<text text-anchor="middle" x="1864.88" y="-182.75" font-family="Helvetica,sans-Serif" font-size="10.00">_field_set.h</text>
</a>
</g>
</g>
<!-- Node33&#45;&gt;Node48 -->
<g id="edge59_Node000033_Node000048" class="edge">
<title>Node33&#45;&gt;Node48</title>
<g id="a_edge59_Node000033_Node000048"><a xlink:title=" ">
<path fill="none" stroke="#63b8ff" d="M2033.13,-243.03C2001.04,-233.54 1959.11,-221.13 1925.13,-211.08"/>
<polygon fill="#63b8ff" stroke="#63b8ff" points="1926.44,-207.81 1915.85,-208.33 1924.45,-214.53 1926.44,-207.81"/>
</a>
</g>
</g>
</g>
</svg>
