<?xml version="1.0" encoding="UTF-8" standalone="no"?>
<!DOCTYPE svg PUBLIC "-//W3C//DTD SVG 1.1//EN"
 "http://www.w3.org/Graphics/SVG/1.1/DTD/svg11.dtd">
<!-- Generated by graphviz version 9.0.0 (20230911.1827)
 -->
<!-- Title: /github/workspace/dev_area/build/hermesmodules/codegen/include/hermesmodules/opmon/hermescontroller.pb.h Pages: 1 -->
<svg width="482pt" height="228pt"
 viewBox="0.00 0.00 482.38 227.75" xmlns="http://www.w3.org/2000/svg" xmlns:xlink="http://www.w3.org/1999/xlink">
<g id="graph0" class="graph" transform="scale(1 1) rotate(0) translate(4 223.75)">
<title>/github/workspace/dev_area/build/hermesmodules/codegen/include/hermesmodules/opmon/hermescontroller.pb.h</title>
<!-- Node1 -->
<g id="Node000001" class="node">
<title>Node1</title>
<g id="a_Node000001"><a xlink:title=" ">
<polygon fill="#999999" stroke="#666666" points="270.5,-219.75 109,-219.75 109,-166.75 270.5,-166.75 270.5,-219.75"/>
<text text-anchor="start" x="117" y="-206.25" font-family="Helvetica,sans-Serif" font-size="10.00">/github/workspace/dev</text>
<text text-anchor="start" x="117" y="-195" font-family="Helvetica,sans-Serif" font-size="10.00">_area/build/hermesmodules</text>
<text text-anchor="start" x="117" y="-183.75" font-family="Helvetica,sans-Serif" font-size="10.00">/codegen/include/hermesmodules</text>
<text text-anchor="middle" x="189.75" y="-172.5" font-family="Helvetica,sans-Serif" font-size="10.00">/opmon/hermescontroller.pb.h</text>
</a>
</g>
</g>
<!-- Node2 -->
<g id="Node000002" class="node">
<title>Node2</title>
<g id="a_Node000002"><a xlink:href="hermescontroller_8pb_8cc.html" target="_top" xlink:title=" ">
<polygon fill="white" stroke="#666666" points="161.5,-130.75 0,-130.75 0,-77.75 161.5,-77.75 161.5,-130.75"/>
<text text-anchor="start" x="8" y="-117.25" font-family="Helvetica,sans-Serif" font-size="10.00">/github/workspace/dev</text>
<text text-anchor="start" x="8" y="-106" font-family="Helvetica,sans-Serif" font-size="10.00">_area/build/hermesmodules</text>
<text text-anchor="start" x="8" y="-94.75" font-family="Helvetica,sans-Serif" font-size="10.00">/codegen/include/hermesmodules</text>
<text text-anchor="middle" x="80.75" y="-83.5" font-family="Helvetica,sans-Serif" font-size="10.00">/opmon/hermescontroller.pb.cc</text>
</a>
</g>
</g>
<!-- Node1&#45;&gt;Node2 -->
<g id="edge1_Node000001_Node000002" class="edge">
<title>Node1&#45;&gt;Node2</title>
<g id="a_edge1_Node000001_Node000002"><a xlink:title=" ">
<path fill="none" stroke="#63b8ff" d="M148.6,-159.41C136.9,-150.07 124.33,-140.03 113.22,-131.17"/>
<polygon fill="#63b8ff" stroke="#63b8ff" points="146.16,-161.94 156.16,-165.44 150.53,-156.46 146.16,-161.94"/>
</a>
</g>
</g>
<!-- Node3 -->
<g id="Node000003" class="node">
<title>Node3</title>
<g id="a_Node000003"><a xlink:href="HermesCoreController_8hpp.html" target="_top" xlink:title=" ">
<polygon fill="white" stroke="#666666" points="418.12,-125.12 179.38,-125.12 179.38,-83.38 418.12,-83.38 418.12,-125.12"/>
<text text-anchor="start" x="187.38" y="-111.62" font-family="Helvetica,sans-Serif" font-size="10.00">/github/workspace/dev</text>
<text text-anchor="start" x="187.38" y="-100.38" font-family="Helvetica,sans-Serif" font-size="10.00">_area/sourcecode/hermesmodules</text>
<text text-anchor="middle" x="298.75" y="-89.12" font-family="Helvetica,sans-Serif" font-size="10.00">/include/hermesmodules/HermesCoreController.hpp</text>
</a>
</g>
</g>
<!-- Node1&#45;&gt;Node3 -->
<g id="edge2_Node000001_Node000003" class="edge">
<title>Node1&#45;&gt;Node3</title>
<g id="a_edge2_Node000001_Node000003"><a xlink:title=" ">
<path fill="none" stroke="#63b8ff" d="M230.88,-159.42C245.23,-147.97 260.9,-135.46 273.56,-125.36"/>
<polygon fill="#63b8ff" stroke="#63b8ff" points="228.97,-156.46 223.34,-165.44 233.34,-161.94 228.97,-156.46"/>
</a>
</g>
</g>
<!-- Node4 -->
<g id="Node000004" class="node">
<title>Node4</title>
<g id="a_Node000004"><a xlink:href="hermescorecontroller_8cpp.html" target="_top" xlink:title=" ">
<polygon fill="white" stroke="#666666" points="290.75,-41.75 118.75,-41.75 118.75,0 290.75,0 290.75,-41.75"/>
<text text-anchor="start" x="126.75" y="-28.25" font-family="Helvetica,sans-Serif" font-size="10.00">/github/workspace/dev</text>
<text text-anchor="start" x="126.75" y="-17" font-family="Helvetica,sans-Serif" font-size="10.00">_area/sourcecode/hermesmodules</text>
<text text-anchor="middle" x="204.75" y="-5.75" font-family="Helvetica,sans-Serif" font-size="10.00">/pybindsrc/hermescorecontroller.cpp</text>
</a>
</g>
</g>
<!-- Node3&#45;&gt;Node4 -->
<g id="edge3_Node000003_Node000004" class="edge">
<title>Node3&#45;&gt;Node4</title>
<g id="a_edge3_Node000003_Node000004"><a xlink:title=" ">
<path fill="none" stroke="#63b8ff" d="M267,-75.77C254.24,-64.72 239.8,-52.22 228.04,-42.04"/>
<polygon fill="#63b8ff" stroke="#63b8ff" points="264.52,-78.25 274.37,-82.14 269.1,-72.95 264.52,-78.25"/>
</a>
</g>
</g>
<!-- Node5 -->
<g id="Node000005" class="node">
<title>Node5</title>
<g id="a_Node000005"><a xlink:href="HermesCoreController_8cpp.html" target="_top" xlink:title=" ">
<polygon fill="white" stroke="#666666" points="474.38,-41.75 309.12,-41.75 309.12,0 474.38,0 474.38,-41.75"/>
<text text-anchor="start" x="317.12" y="-28.25" font-family="Helvetica,sans-Serif" font-size="10.00">/github/workspace/dev</text>
<text text-anchor="start" x="317.12" y="-17" font-family="Helvetica,sans-Serif" font-size="10.00">_area/sourcecode/hermesmodules</text>
<text text-anchor="middle" x="391.75" y="-5.75" font-family="Helvetica,sans-Serif" font-size="10.00">/src/HermesCoreController.cpp</text>
</a>
</g>
</g>
<!-- Node3&#45;&gt;Node5 -->
<g id="edge4_Node000003_Node000005" class="edge">
<title>Node3&#45;&gt;Node5</title>
<g id="a_edge4_Node000003_Node000005"><a xlink:title=" ">
<path fill="none" stroke="#63b8ff" d="M330.16,-75.77C342.78,-64.72 357.07,-52.22 368.7,-42.04"/>
<polygon fill="#63b8ff" stroke="#63b8ff" points="328.1,-72.92 322.88,-82.14 332.71,-78.19 328.1,-72.92"/>
</a>
</g>
</g>
</g>
</svg>
