<?xml version="1.0" encoding="UTF-8" standalone="no"?>
<!DOCTYPE svg PUBLIC "-//W3C//DTD SVG 1.1//EN"
 "http://www.w3.org/Graphics/SVG/1.1/DTD/svg11.dtd">
<!-- Generated by graphviz version 9.0.0 (20230911.1827)
 -->
<!-- Title: /github/workspace/dev_area/sourcecode/dbe/include/dbe/highlighter.hpp Pages: 1 -->
<svg width="410pt" height="105pt"
 viewBox="0.00 0.00 409.62 105.00" xmlns="http://www.w3.org/2000/svg" xmlns:xlink="http://www.w3.org/1999/xlink">
<g id="graph0" class="graph" transform="scale(1 1) rotate(0) translate(4 101)">
<title>/github/workspace/dev_area/sourcecode/dbe/include/dbe/highlighter.hpp</title>
<!-- Node1 -->
<g id="Node000001" class="node">
<title>Node1</title>
<g id="a_Node000001"><a xlink:title=" ">
<polygon fill="#999999" stroke="#666666" points="295.5,-97 161.75,-97 161.75,-55.25 295.5,-55.25 295.5,-97"/>
<text text-anchor="start" x="169.75" y="-83.5" font-family="Helvetica,sans-Serif" font-size="10.00">/github/workspace/dev</text>
<text text-anchor="start" x="169.75" y="-72.25" font-family="Helvetica,sans-Serif" font-size="10.00">_area/sourcecode/dbe</text>
<text text-anchor="middle" x="228.62" y="-61" font-family="Helvetica,sans-Serif" font-size="10.00">/include/dbe/highlighter.hpp</text>
</a>
</g>
</g>
<!-- Node2 -->
<g id="Node000002" class="node">
<title>Node2</title>
<g id="a_Node000002"><a xlink:title=" ">
<polygon fill="#e0e0e0" stroke="#999999" points="99.25,-19.25 0,-19.25 0,0 99.25,0 99.25,-19.25"/>
<text text-anchor="middle" x="49.62" y="-5.75" font-family="Helvetica,sans-Serif" font-size="10.00">QSyntaxHighlighter</text>
</a>
</g>
</g>
<!-- Node1&#45;&gt;Node2 -->
<g id="edge1_Node000001_Node000002" class="edge">
<title>Node1&#45;&gt;Node2</title>
<g id="a_edge1_Node000001_Node000002"><a xlink:title=" ">
<path fill="none" stroke="#63b8ff" d="M172.48,-54.89C144.03,-44.64 110.33,-32.5 85.43,-23.53"/>
<polygon fill="#63b8ff" stroke="#63b8ff" points="86.67,-20.25 76.08,-20.16 84.3,-26.84 86.67,-20.25"/>
</a>
</g>
</g>
<!-- Node3 -->
<g id="Node000003" class="node">
<title>Node3</title>
<g id="a_Node000003"><a xlink:title=" ">
<polygon fill="#e0e0e0" stroke="#999999" points="164,-19.25 117.25,-19.25 117.25,0 164,0 164,-19.25"/>
<text text-anchor="middle" x="140.62" y="-5.75" font-family="Helvetica,sans-Serif" font-size="10.00">QHash</text>
</a>
</g>
</g>
<!-- Node1&#45;&gt;Node3 -->
<g id="edge2_Node000001_Node000003" class="edge">
<title>Node1&#45;&gt;Node3</title>
<g id="a_edge2_Node000001_Node000003"><a xlink:title=" ">
<path fill="none" stroke="#63b8ff" d="M201.26,-55.07C188.65,-45.83 173.9,-35.01 162.1,-26.37"/>
<polygon fill="#63b8ff" stroke="#63b8ff" points="164.36,-23.68 154.22,-20.59 160.22,-29.32 164.36,-23.68"/>
</a>
</g>
</g>
<!-- Node4 -->
<g id="Node000004" class="node">
<title>Node4</title>
<g id="a_Node000004"><a xlink:title=" ">
<polygon fill="#e0e0e0" stroke="#999999" points="275.25,-19.25 182,-19.25 182,0 275.25,0 275.25,-19.25"/>
<text text-anchor="middle" x="228.62" y="-5.75" font-family="Helvetica,sans-Serif" font-size="10.00">QTextCharFormat</text>
</a>
</g>
</g>
<!-- Node1&#45;&gt;Node4 -->
<g id="edge3_Node000001_Node000004" class="edge">
<title>Node1&#45;&gt;Node4</title>
<g id="a_edge3_Node000001_Node000004"><a xlink:title=" ">
<path fill="none" stroke="#63b8ff" d="M228.62,-55.07C228.62,-47.4 228.62,-38.64 228.62,-30.95"/>
<polygon fill="#63b8ff" stroke="#63b8ff" points="232.13,-31.21 228.63,-21.21 225.13,-31.21 232.13,-31.21"/>
</a>
</g>
</g>
<!-- Node5 -->
<g id="Node000005" class="node">
<title>Node5</title>
<g id="a_Node000005"><a xlink:title=" ">
<polygon fill="#e0e0e0" stroke="#999999" points="343.5,-19.25 293.75,-19.25 293.75,0 343.5,0 343.5,-19.25"/>
<text text-anchor="middle" x="318.62" y="-5.75" font-family="Helvetica,sans-Serif" font-size="10.00">QMutex</text>
</a>
</g>
</g>
<!-- Node1&#45;&gt;Node5 -->
<g id="edge4_Node000001_Node000005" class="edge">
<title>Node1&#45;&gt;Node5</title>
<g id="a_edge4_Node000001_Node000005"><a xlink:title=" ">
<path fill="none" stroke="#63b8ff" d="M256.61,-55.07C269.51,-45.83 284.6,-35.01 296.66,-26.37"/>
<polygon fill="#63b8ff" stroke="#63b8ff" points="298.65,-29.25 304.74,-20.58 294.57,-23.56 298.65,-29.25"/>
</a>
</g>
</g>
<!-- Node6 -->
<g id="Node000006" class="node">
<title>Node6</title>
<g id="a_Node000006"><a xlink:title=" ">
<polygon fill="#e0e0e0" stroke="#999999" points="401.62,-19.25 361.62,-19.25 361.62,0 401.62,0 401.62,-19.25"/>
<text text-anchor="middle" x="381.62" y="-5.75" font-family="Helvetica,sans-Serif" font-size="10.00">QList</text>
</a>
</g>
</g>
<!-- Node1&#45;&gt;Node6 -->
<g id="edge5_Node000001_Node000006" class="edge">
<title>Node1&#45;&gt;Node6</title>
<g id="a_edge5_Node000001_Node000006"><a xlink:title=" ">
<path fill="none" stroke="#63b8ff" d="M276.62,-54.89C300.94,-44.64 329.76,-32.49 351.05,-23.52"/>
<polygon fill="#63b8ff" stroke="#63b8ff" points="352.18,-26.84 360.04,-19.73 349.46,-20.39 352.18,-26.84"/>
</a>
</g>
</g>
</g>
</svg>
