<?xml version="1.0" encoding="UTF-8" standalone="no"?>
<!DOCTYPE svg PUBLIC "-//W3C//DTD SVG 1.1//EN"
 "http://www.w3.org/Graphics/SVG/1.1/DTD/svg11.dtd">
<!-- Generated by graphviz version 9.0.0 (20230911.1827)
 -->
<!-- Title: /github/workspace/dev_area/sourcecode/triggeralgs/include/triggeralgs/dbscan/Hit.hpp Pages: 1 -->
<svg width="605pt" height="306pt"
 viewBox="0.00 0.00 604.50 305.50" xmlns="http://www.w3.org/2000/svg" xmlns:xlink="http://www.w3.org/1999/xlink">
<g id="graph0" class="graph" transform="scale(1 1) rotate(0) translate(4 301.5)">
<title>/github/workspace/dev_area/sourcecode/triggeralgs/include/triggeralgs/dbscan/Hit.hpp</title>
<!-- Node1 -->
<g id="Node000001" class="node">
<title>Node1</title>
<g id="a_Node000001"><a xlink:title=" ">
<polygon fill="#999999" stroke="#666666" points="509.88,-297.5 343.88,-297.5 343.88,-255.75 509.88,-255.75 509.88,-297.5"/>
<text text-anchor="start" x="351.88" y="-284" font-family="Helvetica,sans-Serif" font-size="10.00">/github/workspace/dev</text>
<text text-anchor="start" x="351.88" y="-272.75" font-family="Helvetica,sans-Serif" font-size="10.00">_area/sourcecode/triggeralgs</text>
<text text-anchor="middle" x="426.88" y="-261.5" font-family="Helvetica,sans-Serif" font-size="10.00">/include/triggeralgs/dbscan/Hit.hpp</text>
</a>
</g>
</g>
<!-- Node2 -->
<g id="Node000002" class="node">
<title>Node2</title>
<g id="a_Node000002"><a xlink:href="dbscan_8hpp.html" target="_top" xlink:title=" ">
<polygon fill="white" stroke="#666666" points="381.5,-219.75 240.25,-219.75 240.25,-166.75 381.5,-166.75 381.5,-219.75"/>
<text text-anchor="start" x="248.25" y="-206.25" font-family="Helvetica,sans-Serif" font-size="10.00">/github/workspace/dev</text>
<text text-anchor="start" x="248.25" y="-195" font-family="Helvetica,sans-Serif" font-size="10.00">_area/sourcecode/triggeralgs</text>
<text text-anchor="start" x="248.25" y="-183.75" font-family="Helvetica,sans-Serif" font-size="10.00">/include/triggeralgs/dbscan</text>
<text text-anchor="middle" x="310.88" y="-172.5" font-family="Helvetica,sans-Serif" font-size="10.00">/dbscan.hpp</text>
</a>
</g>
</g>
<!-- Node1&#45;&gt;Node2 -->
<g id="edge1_Node000001_Node000002" class="edge">
<title>Node1&#45;&gt;Node2</title>
<g id="a_edge1_Node000001_Node000002"><a xlink:title=" ">
<path fill="none" stroke="#63b8ff" d="M388.65,-248.81C375.52,-239.6 360.84,-229.3 347.81,-220.16"/>
<polygon fill="#63b8ff" stroke="#63b8ff" points="386.47,-251.55 396.66,-254.43 390.49,-245.82 386.47,-251.55"/>
</a>
</g>
</g>
<!-- Node7 -->
<g id="Node000007" class="node">
<title>Node7</title>
<g id="a_Node000007"><a xlink:href="dbscan_8cpp.html" target="_top" xlink:title=" ">
<polygon fill="white" stroke="#666666" points="515.5,-125.12 374.25,-125.12 374.25,-83.38 515.5,-83.38 515.5,-125.12"/>
<text text-anchor="start" x="382.25" y="-111.62" font-family="Helvetica,sans-Serif" font-size="10.00">/github/workspace/dev</text>
<text text-anchor="start" x="382.25" y="-100.38" font-family="Helvetica,sans-Serif" font-size="10.00">_area/sourcecode/triggeralgs</text>
<text text-anchor="middle" x="444.88" y="-89.12" font-family="Helvetica,sans-Serif" font-size="10.00">/src/dbscan/dbscan.cpp</text>
</a>
</g>
</g>
<!-- Node1&#45;&gt;Node7 -->
<g id="edge8_Node000001_Node000007" class="edge">
<title>Node1&#45;&gt;Node7</title>
<g id="a_edge8_Node000001_Node000007"><a xlink:title=" ">
<path fill="none" stroke="#63b8ff" d="M430.21,-244.06C433.87,-209.39 439.64,-154.75 442.74,-125.44"/>
<polygon fill="#63b8ff" stroke="#63b8ff" points="426.74,-243.59 429.17,-253.91 433.7,-244.33 426.74,-243.59"/>
</a>
</g>
</g>
<!-- Node8 -->
<g id="Node000008" class="node">
<title>Node8</title>
<g id="a_Node000008"><a xlink:href="Hit_8cpp.html" target="_top" xlink:title=" ">
<polygon fill="white" stroke="#666666" points="596.5,-214.12 455.25,-214.12 455.25,-172.38 596.5,-172.38 596.5,-214.12"/>
<text text-anchor="start" x="463.25" y="-200.62" font-family="Helvetica,sans-Serif" font-size="10.00">/github/workspace/dev</text>
<text text-anchor="start" x="463.25" y="-189.38" font-family="Helvetica,sans-Serif" font-size="10.00">_area/sourcecode/triggeralgs</text>
<text text-anchor="middle" x="525.88" y="-178.12" font-family="Helvetica,sans-Serif" font-size="10.00">/src/dbscan/Hit.cpp</text>
</a>
</g>
</g>
<!-- Node1&#45;&gt;Node8 -->
<g id="edge7_Node000001_Node000008" class="edge">
<title>Node1&#45;&gt;Node8</title>
<g id="a_edge7_Node000001_Node000008"><a xlink:title=" ">
<path fill="none" stroke="#63b8ff" d="M460.49,-247.99C473.8,-237.05 488.83,-224.7 501.12,-214.6"/>
<polygon fill="#63b8ff" stroke="#63b8ff" points="458.27,-245.29 452.77,-254.34 462.72,-250.69 458.27,-245.29"/>
</a>
</g>
</g>
<!-- Node3 -->
<g id="Node000003" class="node">
<title>Node3</title>
<g id="a_Node000003"><a xlink:href="sourcecode_2triggeralgs_2include_2triggeralgs_2dbscan_2TAMakerDBSCANAlgorithm_8hpp.html" target="_top" xlink:title=" ">
<polygon fill="white" stroke="#666666" points="175.5,-130.75 16.25,-130.75 16.25,-77.75 175.5,-77.75 175.5,-130.75"/>
<text text-anchor="start" x="24.25" y="-117.25" font-family="Helvetica,sans-Serif" font-size="10.00">/github/workspace/dev</text>
<text text-anchor="start" x="24.25" y="-106" font-family="Helvetica,sans-Serif" font-size="10.00">_area/sourcecode/triggeralgs</text>
<text text-anchor="start" x="24.25" y="-94.75" font-family="Helvetica,sans-Serif" font-size="10.00">/include/triggeralgs/dbscan</text>
<text text-anchor="middle" x="95.88" y="-83.5" font-family="Helvetica,sans-Serif" font-size="10.00">/TAMakerDBSCANAlgorithm.hpp</text>
</a>
</g>
</g>
<!-- Node2&#45;&gt;Node3 -->
<g id="edge2_Node000002_Node000003" class="edge">
<title>Node2&#45;&gt;Node3</title>
<g id="a_edge2_Node000002_Node000003"><a xlink:title=" ">
<path fill="none" stroke="#63b8ff" d="M236.16,-162.02C211.26,-151.94 183.76,-140.81 159.76,-131.1"/>
<polygon fill="#63b8ff" stroke="#63b8ff" points="234.67,-165.19 245.26,-165.7 237.3,-158.7 234.67,-165.19"/>
</a>
</g>
</g>
<!-- Node5 -->
<g id="Node000005" class="node">
<title>Node5</title>
<g id="a_Node000005"><a xlink:href="sourcecode_2triggeralgs_2include_2triggeralgs_2dbscan_2TCMakerDBSCANAlgorithm_8hpp.html" target="_top" xlink:title=" ">
<polygon fill="white" stroke="#666666" points="356.5,-130.75 197.25,-130.75 197.25,-77.75 356.5,-77.75 356.5,-130.75"/>
<text text-anchor="start" x="205.25" y="-117.25" font-family="Helvetica,sans-Serif" font-size="10.00">/github/workspace/dev</text>
<text text-anchor="start" x="205.25" y="-106" font-family="Helvetica,sans-Serif" font-size="10.00">_area/sourcecode/triggeralgs</text>
<text text-anchor="start" x="205.25" y="-94.75" font-family="Helvetica,sans-Serif" font-size="10.00">/include/triggeralgs/dbscan</text>
<text text-anchor="middle" x="276.88" y="-83.5" font-family="Helvetica,sans-Serif" font-size="10.00">/TCMakerDBSCANAlgorithm.hpp</text>
</a>
</g>
</g>
<!-- Node2&#45;&gt;Node5 -->
<g id="edge4_Node000002_Node000005" class="edge">
<title>Node2&#45;&gt;Node5</title>
<g id="a_edge4_Node000002_Node000005"><a xlink:title=" ">
<path fill="none" stroke="#63b8ff" d="M296.68,-155.93C293.41,-147.55 289.99,-138.82 286.94,-131"/>
<polygon fill="#63b8ff" stroke="#63b8ff" points="293.41,-157.17 300.31,-165.21 299.93,-154.62 293.41,-157.17"/>
</a>
</g>
</g>
<!-- Node2&#45;&gt;Node7 -->
<g id="edge6_Node000002_Node000007" class="edge">
<title>Node2&#45;&gt;Node7</title>
<g id="a_edge6_Node000002_Node000007"><a xlink:title=" ">
<path fill="none" stroke="#63b8ff" d="M359.95,-160.39C377.99,-148.68 397.9,-135.75 413.91,-125.36"/>
<polygon fill="#63b8ff" stroke="#63b8ff" points="358.47,-157.18 351.99,-165.56 362.28,-163.05 358.47,-157.18"/>
</a>
</g>
</g>
<!-- Node4 -->
<g id="Node000004" class="node">
<title>Node4</title>
<g id="a_Node000004"><a xlink:href="sourcecode_2triggeralgs_2src_2TAMakerDBSCANAlgorithm_8cpp.html" target="_top" xlink:title=" ">
<polygon fill="white" stroke="#666666" points="175.75,-41.75 0,-41.75 0,0 175.75,0 175.75,-41.75"/>
<text text-anchor="start" x="8" y="-28.25" font-family="Helvetica,sans-Serif" font-size="10.00">/github/workspace/dev</text>
<text text-anchor="start" x="8" y="-17" font-family="Helvetica,sans-Serif" font-size="10.00">_area/sourcecode/triggeralgs</text>
<text text-anchor="middle" x="87.88" y="-5.75" font-family="Helvetica,sans-Serif" font-size="10.00">/src/TAMakerDBSCANAlgorithm.cpp</text>
</a>
</g>
</g>
<!-- Node3&#45;&gt;Node4 -->
<g id="edge3_Node000003_Node000004" class="edge">
<title>Node3&#45;&gt;Node4</title>
<g id="a_edge3_Node000003_Node000004"><a xlink:title=" ">
<path fill="none" stroke="#63b8ff" d="M92.22,-66.08C91.41,-57.8 90.57,-49.33 89.86,-42.04"/>
<polygon fill="#63b8ff" stroke="#63b8ff" points="88.73,-66.39 93.2,-76 95.7,-65.7 88.73,-66.39"/>
</a>
</g>
</g>
<!-- Node6 -->
<g id="Node000006" class="node">
<title>Node6</title>
<g id="a_Node000006"><a xlink:href="sourcecode_2triggeralgs_2src_2TCMakerDBSCANAlgorithm_8cpp.html" target="_top" xlink:title=" ">
<polygon fill="white" stroke="#666666" points="369.75,-41.75 194,-41.75 194,0 369.75,0 369.75,-41.75"/>
<text text-anchor="start" x="202" y="-28.25" font-family="Helvetica,sans-Serif" font-size="10.00">/github/workspace/dev</text>
<text text-anchor="start" x="202" y="-17" font-family="Helvetica,sans-Serif" font-size="10.00">_area/sourcecode/triggeralgs</text>
<text text-anchor="middle" x="281.88" y="-5.75" font-family="Helvetica,sans-Serif" font-size="10.00">/src/TCMakerDBSCANAlgorithm.cpp</text>
</a>
</g>
</g>
<!-- Node5&#45;&gt;Node6 -->
<g id="edge5_Node000005_Node000006" class="edge">
<title>Node5&#45;&gt;Node6</title>
<g id="a_edge5_Node000005_Node000006"><a xlink:title=" ">
<path fill="none" stroke="#63b8ff" d="M279.16,-66.08C279.67,-57.8 280.19,-49.33 280.64,-42.04"/>
<polygon fill="#63b8ff" stroke="#63b8ff" points="275.67,-65.8 278.55,-75.99 282.66,-66.23 275.67,-65.8"/>
</a>
</g>
</g>
</g>
</svg>
