<?xml version="1.0" encoding="UTF-8" standalone="no"?>
<!DOCTYPE svg PUBLIC "-//W3C//DTD SVG 1.1//EN"
 "http://www.w3.org/Graphics/SVG/1.1/DTD/svg11.dtd">
<!-- Generated by graphviz version 9.0.0 (20230911.1827)
 -->
<!-- Title: /github/workspace/dev_area/sourcecode/okssystem/src/Host.cpp Pages: 1 -->
<svg width="790pt" height="160pt"
 viewBox="0.00 0.00 789.88 160.25" xmlns="http://www.w3.org/2000/svg" xmlns:xlink="http://www.w3.org/1999/xlink">
<g id="graph0" class="graph" transform="scale(1 1) rotate(0) translate(4 156.25)">
<title>/github/workspace/dev_area/sourcecode/okssystem/src/Host.cpp</title>
<!-- Node1 -->
<g id="Node000001" class="node">
<title>Node1</title>
<g id="a_Node000001"><a xlink:title=" ">
<polygon fill="#999999" stroke="#666666" points="431.12,-152.25 287.62,-152.25 287.62,-110.5 431.12,-110.5 431.12,-152.25"/>
<text text-anchor="start" x="295.62" y="-138.75" font-family="Helvetica,sans-Serif" font-size="10.00">/github/workspace/dev</text>
<text text-anchor="start" x="295.62" y="-127.5" font-family="Helvetica,sans-Serif" font-size="10.00">_area/sourcecode/okssystem</text>
<text text-anchor="middle" x="359.38" y="-116.25" font-family="Helvetica,sans-Serif" font-size="10.00">/src/Host.cpp</text>
</a>
</g>
</g>
<!-- Node2 -->
<g id="Node000002" class="node">
<title>Node2</title>
<g id="a_Node000002"><a xlink:title=" ">
<polygon fill="#e0e0e0" stroke="#999999" points="64.75,-74.5 0,-74.5 0,-55.25 64.75,-55.25 64.75,-74.5"/>
<text text-anchor="middle" x="32.38" y="-61" font-family="Helvetica,sans-Serif" font-size="10.00">sys/types.h</text>
</a>
</g>
</g>
<!-- Node1&#45;&gt;Node2 -->
<g id="edge1_Node000001_Node000002" class="edge">
<title>Node1&#45;&gt;Node2</title>
<g id="a_edge1_Node000001_Node000002"><a xlink:title=" ">
<path fill="none" stroke="#63b8ff" d="M287.3,-116.43C232.25,-105.74 154.19,-90.48 75.97,-74.8"/>
<polygon fill="#63b8ff" stroke="#63b8ff" points="76.91,-71.42 66.41,-72.89 75.53,-78.29 76.91,-71.42"/>
</a>
</g>
</g>
<!-- Node3 -->
<g id="Node000003" class="node">
<title>Node3</title>
<g id="a_Node000003"><a xlink:title=" ">
<polygon fill="#e0e0e0" stroke="#999999" points="153.75,-74.5 83,-74.5 83,-55.25 153.75,-55.25 153.75,-74.5"/>
<text text-anchor="middle" x="118.38" y="-61" font-family="Helvetica,sans-Serif" font-size="10.00">sys/socket.h</text>
</a>
</g>
</g>
<!-- Node1&#45;&gt;Node3 -->
<g id="edge2_Node000001_Node000003" class="edge">
<title>Node1&#45;&gt;Node3</title>
<g id="a_edge2_Node000001_Node000003"><a xlink:title=" ">
<path fill="none" stroke="#63b8ff" d="M287.39,-111.11C246.97,-100.29 197.8,-87.13 162.94,-77.8"/>
<polygon fill="#63b8ff" stroke="#63b8ff" points="164.18,-74.51 153.61,-75.31 162.37,-81.27 164.18,-74.51"/>
</a>
</g>
</g>
<!-- Node4 -->
<g id="Node000004" class="node">
<title>Node4</title>
<g id="a_Node000004"><a xlink:title=" ">
<polygon fill="#e0e0e0" stroke="#999999" points="250.88,-74.5 171.88,-74.5 171.88,-55.25 250.88,-55.25 250.88,-74.5"/>
<text text-anchor="middle" x="211.38" y="-61" font-family="Helvetica,sans-Serif" font-size="10.00">sys/utsname.h</text>
</a>
</g>
</g>
<!-- Node1&#45;&gt;Node4 -->
<g id="edge3_Node000001_Node000004" class="edge">
<title>Node1&#45;&gt;Node4</title>
<g id="a_edge3_Node000001_Node000004"><a xlink:title=" ">
<path fill="none" stroke="#63b8ff" d="M312.95,-110.14C289.96,-100.12 262.82,-88.29 242.38,-79.39"/>
<polygon fill="#63b8ff" stroke="#63b8ff" points="244.02,-76.29 233.46,-75.5 241.23,-82.7 244.02,-76.29"/>
</a>
</g>
</g>
<!-- Node5 -->
<g id="Node000005" class="node">
<title>Node5</title>
<g id="a_Node000005"><a xlink:title=" ">
<polygon fill="#e0e0e0" stroke="#999999" points="316.12,-74.5 268.62,-74.5 268.62,-55.25 316.12,-55.25 316.12,-74.5"/>
<text text-anchor="middle" x="292.38" y="-61" font-family="Helvetica,sans-Serif" font-size="10.00">netdb.h</text>
</a>
</g>
</g>
<!-- Node1&#45;&gt;Node5 -->
<g id="edge4_Node000001_Node000005" class="edge">
<title>Node1&#45;&gt;Node5</title>
<g id="a_edge4_Node000001_Node000005"><a xlink:title=" ">
<path fill="none" stroke="#63b8ff" d="M338.54,-110.32C329.42,-101.54 318.83,-91.34 310.09,-82.93"/>
<polygon fill="#63b8ff" stroke="#63b8ff" points="312.52,-80.41 302.89,-76 307.66,-85.45 312.52,-80.41"/>
</a>
</g>
</g>
<!-- Node6 -->
<g id="Node000006" class="node">
<title>Node6</title>
<g id="a_Node000006"><a xlink:title=" ">
<polygon fill="#e0e0e0" stroke="#999999" points="384.25,-74.5 334.5,-74.5 334.5,-55.25 384.25,-55.25 384.25,-74.5"/>
<text text-anchor="middle" x="359.38" y="-61" font-family="Helvetica,sans-Serif" font-size="10.00">unistd.h</text>
</a>
</g>
</g>
<!-- Node1&#45;&gt;Node6 -->
<g id="edge5_Node000001_Node000006" class="edge">
<title>Node1&#45;&gt;Node6</title>
<g id="a_edge5_Node000001_Node000006"><a xlink:title=" ">
<path fill="none" stroke="#63b8ff" d="M359.38,-110.32C359.38,-102.65 359.38,-93.89 359.38,-86.2"/>
<polygon fill="#63b8ff" stroke="#63b8ff" points="362.88,-86.46 359.38,-76.46 355.88,-86.46 362.88,-86.46"/>
</a>
</g>
</g>
<!-- Node7 -->
<g id="Node000007" class="node">
<title>Node7</title>
<g id="a_Node000007"><a xlink:title=" ">
<polygon fill="#e0e0e0" stroke="#999999" points="456.12,-74.5 402.62,-74.5 402.62,-55.25 456.12,-55.25 456.12,-74.5"/>
<text text-anchor="middle" x="429.38" y="-61" font-family="Helvetica,sans-Serif" font-size="10.00">iostream</text>
</a>
</g>
</g>
<!-- Node1&#45;&gt;Node7 -->
<g id="edge6_Node000001_Node000007" class="edge">
<title>Node1&#45;&gt;Node7</title>
<g id="a_edge6_Node000001_Node000007"><a xlink:title=" ">
<path fill="none" stroke="#63b8ff" d="M381.14,-110.32C390.77,-101.44 401.97,-91.12 411.15,-82.66"/>
<polygon fill="#63b8ff" stroke="#63b8ff" points="413.44,-85.32 418.42,-75.97 408.69,-80.17 413.44,-85.32"/>
</a>
</g>
</g>
<!-- Node8 -->
<g id="Node000008" class="node">
<title>Node8</title>
<g id="a_Node000008"><a xlink:title=" ">
<polygon fill="#e0e0e0" stroke="#999999" points="525,-74.5 473.75,-74.5 473.75,-55.25 525,-55.25 525,-74.5"/>
<text text-anchor="middle" x="499.38" y="-61" font-family="Helvetica,sans-Serif" font-size="10.00">sstream</text>
</a>
</g>
</g>
<!-- Node1&#45;&gt;Node8 -->
<g id="edge7_Node000001_Node000008" class="edge">
<title>Node1&#45;&gt;Node8</title>
<g id="a_edge7_Node000001_Node000008"><a xlink:title=" ">
<path fill="none" stroke="#63b8ff" d="M403.29,-110.14C424.84,-100.21 450.24,-88.51 469.51,-79.63"/>
<polygon fill="#63b8ff" stroke="#63b8ff" points="470.81,-82.89 478.42,-75.53 467.88,-76.53 470.81,-82.89"/>
</a>
</g>
</g>
<!-- Node9 -->
<g id="Node000009" class="node">
<title>Node9</title>
<g id="a_Node000009"><a xlink:title=" ">
<polygon fill="#e0e0e0" stroke="#999999" points="595.75,-74.5 543,-74.5 543,-55.25 595.75,-55.25 595.75,-74.5"/>
<text text-anchor="middle" x="569.38" y="-61" font-family="Helvetica,sans-Serif" font-size="10.00">strings.h</text>
</a>
</g>
</g>
<!-- Node1&#45;&gt;Node9 -->
<g id="edge8_Node000001_Node000009" class="edge">
<title>Node1&#45;&gt;Node9</title>
<g id="a_edge8_Node000001_Node000009"><a xlink:title=" ">
<path fill="none" stroke="#63b8ff" d="M425.53,-110.06C460.61,-99.28 502.41,-86.44 531.89,-77.39"/>
<polygon fill="#63b8ff" stroke="#63b8ff" points="532.56,-80.84 541.1,-74.56 530.51,-74.15 532.56,-80.84"/>
</a>
</g>
</g>
<!-- Node10 -->
<g id="Node000010" class="node">
<title>Node10</title>
<g id="a_Node000010"><a xlink:href="Host_8hpp.html" target="_top" xlink:title=" ">
<polygon fill="white" stroke="#666666" points="719,-74.5 613.75,-74.5 613.75,-55.25 719,-55.25 719,-74.5"/>
<text text-anchor="middle" x="666.38" y="-61" font-family="Helvetica,sans-Serif" font-size="10.00">okssystem/Host.hpp</text>
</a>
</g>
</g>
<!-- Node1&#45;&gt;Node10 -->
<g id="edge9_Node000001_Node000010" class="edge">
<title>Node1&#45;&gt;Node10</title>
<g id="a_edge9_Node000001_Node000010"><a xlink:title=" ">
<path fill="none" stroke="#63b8ff" d="M431.35,-115.25C486.71,-103.62 562.01,-87.8 612.3,-77.24"/>
<polygon fill="#63b8ff" stroke="#63b8ff" points="612.72,-80.73 621.78,-75.24 611.28,-73.87 612.72,-80.73"/>
</a>
</g>
</g>
<!-- Node11 -->
<g id="Node000011" class="node">
<title>Node11</title>
<g id="a_Node000011"><a xlink:title=" ">
<polygon fill="#e0e0e0" stroke="#999999" points="583,-19.25 519.75,-19.25 519.75,0 583,0 583,-19.25"/>
<text text-anchor="middle" x="551.38" y="-5.75" font-family="Helvetica,sans-Serif" font-size="10.00">netinet/in.h</text>
</a>
</g>
</g>
<!-- Node10&#45;&gt;Node11 -->
<g id="edge10_Node000010_Node000011" class="edge">
<title>Node10&#45;&gt;Node11</title>
<g id="a_edge10_Node000010_Node000011"><a xlink:title=" ">
<path fill="none" stroke="#63b8ff" d="M646.87,-54.84C628.86,-46.5 601.85,-34 581.15,-24.41"/>
<polygon fill="#63b8ff" stroke="#63b8ff" points="582.9,-21.36 572.35,-20.34 579.96,-27.72 582.9,-21.36"/>
</a>
</g>
</g>
<!-- Node12 -->
<g id="Node000012" class="node">
<title>Node12</title>
<g id="a_Node000012"><a xlink:title=" ">
<polygon fill="#e0e0e0" stroke="#999999" points="661.88,-19.25 600.88,-19.25 600.88,0 661.88,0 661.88,-19.25"/>
<text text-anchor="middle" x="631.38" y="-5.75" font-family="Helvetica,sans-Serif" font-size="10.00">arpa/inet.h</text>
</a>
</g>
</g>
<!-- Node10&#45;&gt;Node12 -->
<g id="edge11_Node000010_Node000012" class="edge">
<title>Node10&#45;&gt;Node12</title>
<g id="a_edge11_Node000010_Node000012"><a xlink:title=" ">
<path fill="none" stroke="#63b8ff" d="M660.6,-55.08C655.96,-48.03 649.3,-37.9 643.51,-29.08"/>
<polygon fill="#63b8ff" stroke="#63b8ff" points="646.53,-27.31 638.11,-20.87 640.68,-31.15 646.53,-27.31"/>
</a>
</g>
</g>
<!-- Node13 -->
<g id="Node000013" class="node">
<title>Node13</title>
<g id="a_Node000013"><a xlink:title=" ">
<polygon fill="#e0e0e0" stroke="#999999" points="720.38,-19.25 680.38,-19.25 680.38,0 720.38,0 720.38,-19.25"/>
<text text-anchor="middle" x="700.38" y="-5.75" font-family="Helvetica,sans-Serif" font-size="10.00">string</text>
</a>
</g>
</g>
<!-- Node10&#45;&gt;Node13 -->
<g id="edge12_Node000010_Node000013" class="edge">
<title>Node10&#45;&gt;Node13</title>
<g id="a_edge12_Node000010_Node000013"><a xlink:title=" ">
<path fill="none" stroke="#63b8ff" d="M671.99,-55.08C676.49,-48.03 682.96,-37.9 688.59,-29.08"/>
<polygon fill="#63b8ff" stroke="#63b8ff" points="691.39,-31.2 693.82,-20.88 685.49,-27.43 691.39,-31.2"/>
</a>
</g>
</g>
<!-- Node14 -->
<g id="Node000014" class="node">
<title>Node14</title>
<g id="a_Node000014"><a xlink:title=" ">
<polygon fill="#e0e0e0" stroke="#999999" points="781.88,-19.25 738.88,-19.25 738.88,0 781.88,0 781.88,-19.25"/>
<text text-anchor="middle" x="760.38" y="-5.75" font-family="Helvetica,sans-Serif" font-size="10.00">vector</text>
</a>
</g>
</g>
<!-- Node10&#45;&gt;Node14 -->
<g id="edge13_Node000010_Node000014" class="edge">
<title>Node10&#45;&gt;Node14</title>
<g id="a_edge13_Node000010_Node000014"><a xlink:title=" ">
<path fill="none" stroke="#63b8ff" d="M682.32,-54.84C696.64,-46.73 717.91,-34.68 734.63,-25.21"/>
<polygon fill="#63b8ff" stroke="#63b8ff" points="736.06,-28.42 743.03,-20.45 732.61,-22.33 736.06,-28.42"/>
</a>
</g>
</g>
</g>
</svg>
