<?xml version="1.0" encoding="UTF-8" standalone="no"?>
<!DOCTYPE svg PUBLIC "-//W3C//DTD SVG 1.1//EN"
 "http://www.w3.org/Graphics/SVG/1.1/DTD/svg11.dtd">
<!-- Generated by graphviz version 9.0.0 (20230911.1827)
 -->
<!-- Title: /github/workspace/dev_area/sourcecode/detdataformats/include/detdataformats/HSIFrame.hpp Pages: 1 -->
<svg width="422pt" height="283pt"
 viewBox="0.00 0.00 422.12 283.00" xmlns="http://www.w3.org/2000/svg" xmlns:xlink="http://www.w3.org/1999/xlink">
<g id="graph0" class="graph" transform="scale(1 1) rotate(0) translate(4 279)">
<title>/github/workspace/dev_area/sourcecode/detdataformats/include/detdataformats/HSIFrame.hpp</title>
<!-- Node1 -->
<g id="Node000001" class="node">
<title>Node1</title>
<g id="a_Node000001"><a xlink:title=" ">
<polygon fill="#999999" stroke="#666666" points="253.75,-275 69.75,-275 69.75,-233.25 253.75,-233.25 253.75,-275"/>
<text text-anchor="start" x="77.75" y="-261.5" font-family="Helvetica,sans-Serif" font-size="10.00">/github/workspace/dev</text>
<text text-anchor="start" x="77.75" y="-250.25" font-family="Helvetica,sans-Serif" font-size="10.00">_area/sourcecode/detdataformats</text>
<text text-anchor="middle" x="161.75" y="-239" font-family="Helvetica,sans-Serif" font-size="10.00">/include/detdataformats/HSIFrame.hpp</text>
</a>
</g>
</g>
<!-- Node2 -->
<g id="Node000002" class="node">
<title>Node2</title>
<g id="a_Node000002"><a xlink:href="hsi_8cpp.html" target="_top" xlink:title=" ">
<polygon fill="white" stroke="#666666" points="161.5,-197.25 0,-197.25 0,-155.5 161.5,-155.5 161.5,-197.25"/>
<text text-anchor="start" x="8" y="-183.75" font-family="Helvetica,sans-Serif" font-size="10.00">/github/workspace/dev</text>
<text text-anchor="start" x="8" y="-172.5" font-family="Helvetica,sans-Serif" font-size="10.00">_area/sourcecode/detdataformats</text>
<text text-anchor="middle" x="80.75" y="-161.25" font-family="Helvetica,sans-Serif" font-size="10.00">/pybindsrc/hsi.cpp</text>
</a>
</g>
</g>
<!-- Node1&#45;&gt;Node2 -->
<g id="edge1_Node000001_Node000002" class="edge">
<title>Node1&#45;&gt;Node2</title>
<g id="a_edge1_Node000001_Node000002"><a xlink:title=" ">
<path fill="none" stroke="#63b8ff" d="M131.8,-225.11C122.09,-216.03 111.51,-206.14 102.52,-197.73"/>
<polygon fill="#63b8ff" stroke="#63b8ff" points="129.24,-227.52 138.94,-231.79 134.02,-222.4 129.24,-227.52"/>
</a>
</g>
</g>
<!-- Node3 -->
<g id="Node000003" class="node">
<title>Node3</title>
<g id="a_Node000003"><a xlink:href="hsilibs_2include_2hsilibs_2Types_8hpp.html" target="_top" xlink:title=" ">
<polygon fill="white" stroke="#666666" points="307.62,-197.25 179.88,-197.25 179.88,-155.5 307.62,-155.5 307.62,-197.25"/>
<text text-anchor="start" x="187.88" y="-183.75" font-family="Helvetica,sans-Serif" font-size="10.00">/github/workspace/dev</text>
<text text-anchor="start" x="187.88" y="-172.5" font-family="Helvetica,sans-Serif" font-size="10.00">_area/sourcecode/hsilibs</text>
<text text-anchor="middle" x="243.75" y="-161.25" font-family="Helvetica,sans-Serif" font-size="10.00">/include/hsilibs/Types.hpp</text>
</a>
</g>
</g>
<!-- Node1&#45;&gt;Node3 -->
<g id="edge2_Node000001_Node000003" class="edge">
<title>Node1&#45;&gt;Node3</title>
<g id="a_edge2_Node000001_Node000003"><a xlink:title=" ">
<path fill="none" stroke="#63b8ff" d="M192.07,-225.11C201.9,-216.03 212.61,-206.14 221.71,-197.73"/>
<polygon fill="#63b8ff" stroke="#63b8ff" points="189.81,-222.44 184.84,-231.8 194.56,-227.58 189.81,-222.44"/>
</a>
</g>
</g>
<!-- Node4 -->
<g id="Node000004" class="node">
<title>Node4</title>
<g id="a_Node000004"><a xlink:href="sourcecode_2hsilibs_2include_2hsilibs_2HSIEventSender_8hpp.html" target="_top" xlink:title=" ">
<polygon fill="white" stroke="#666666" points="215.88,-119.5 41.62,-119.5 41.62,-77.75 215.88,-77.75 215.88,-119.5"/>
<text text-anchor="start" x="49.62" y="-106" font-family="Helvetica,sans-Serif" font-size="10.00">/github/workspace/dev</text>
<text text-anchor="start" x="49.62" y="-94.75" font-family="Helvetica,sans-Serif" font-size="10.00">_area/sourcecode/hsilibs</text>
<text text-anchor="middle" x="128.75" y="-83.5" font-family="Helvetica,sans-Serif" font-size="10.00">/include/hsilibs/HSIEventSender.hpp</text>
</a>
</g>
</g>
<!-- Node3&#45;&gt;Node4 -->
<g id="edge3_Node000003_Node000004" class="edge">
<title>Node3&#45;&gt;Node4</title>
<g id="a_edge3_Node000003_Node000004"><a xlink:title=" ">
<path fill="none" stroke="#63b8ff" d="M203.72,-149.01C189.27,-139.49 173.2,-128.9 159.65,-119.98"/>
<polygon fill="#63b8ff" stroke="#63b8ff" points="201.39,-151.66 211.67,-154.24 205.24,-145.82 201.39,-151.66"/>
</a>
</g>
</g>
<!-- Node6 -->
<g id="Node000006" class="node">
<title>Node6</title>
<g id="a_Node000006"><a xlink:href="sourcecode_2hsilibs_2src_2HSIFrameProcessor_8cpp.html" target="_top" xlink:title=" ">
<polygon fill="white" stroke="#666666" points="383.12,-41.75 240.38,-41.75 240.38,0 383.12,0 383.12,-41.75"/>
<text text-anchor="start" x="248.38" y="-28.25" font-family="Helvetica,sans-Serif" font-size="10.00">/github/workspace/dev</text>
<text text-anchor="start" x="248.38" y="-17" font-family="Helvetica,sans-Serif" font-size="10.00">_area/sourcecode/hsilibs</text>
<text text-anchor="middle" x="311.75" y="-5.75" font-family="Helvetica,sans-Serif" font-size="10.00">/src/HSIFrameProcessor.cpp</text>
</a>
</g>
</g>
<!-- Node3&#45;&gt;Node6 -->
<g id="edge5_Node000003_Node000006" class="edge">
<title>Node3&#45;&gt;Node6</title>
<g id="a_edge5_Node000003_Node000006"><a xlink:title=" ">
<path fill="none" stroke="#63b8ff" d="M245.64,-144.13C247.83,-124.28 252.56,-98.52 262.75,-77.75 269.23,-64.54 279.65,-52.02 289.23,-42.19"/>
<polygon fill="#63b8ff" stroke="#63b8ff" points="242.18,-143.54 244.74,-153.82 249.15,-144.19 242.18,-143.54"/>
</a>
</g>
</g>
<!-- Node7 -->
<g id="Node000007" class="node">
<title>Node7</title>
<g id="a_Node000007"><a xlink:href="sourcecode_2hsilibs_2src_2HSIFrameProcessor_8hpp.html" target="_top" xlink:title=" ">
<polygon fill="white" stroke="#666666" points="414.12,-119.5 271.38,-119.5 271.38,-77.75 414.12,-77.75 414.12,-119.5"/>
<text text-anchor="start" x="279.38" y="-106" font-family="Helvetica,sans-Serif" font-size="10.00">/github/workspace/dev</text>
<text text-anchor="start" x="279.38" y="-94.75" font-family="Helvetica,sans-Serif" font-size="10.00">_area/sourcecode/hsilibs</text>
<text text-anchor="middle" x="342.75" y="-83.5" font-family="Helvetica,sans-Serif" font-size="10.00">/src/HSIFrameProcessor.hpp</text>
</a>
</g>
</g>
<!-- Node3&#45;&gt;Node7 -->
<g id="edge6_Node000003_Node000007" class="edge">
<title>Node3&#45;&gt;Node7</title>
<g id="a_edge6_Node000003_Node000007"><a xlink:title=" ">
<path fill="none" stroke="#63b8ff" d="M279.28,-148.19C291.44,-138.89 304.82,-128.65 316.15,-119.98"/>
<polygon fill="#63b8ff" stroke="#63b8ff" points="277.3,-145.3 271.48,-154.16 281.55,-150.86 277.3,-145.3"/>
</a>
</g>
</g>
<!-- Node5 -->
<g id="Node000005" class="node">
<title>Node5</title>
<g id="a_Node000005"><a xlink:href="sourcecode_2hsilibs_2src_2HSIEventSender_8cpp.html" target="_top" xlink:title=" ">
<polygon fill="white" stroke="#666666" points="191.88,-41.75 65.62,-41.75 65.62,0 191.88,0 191.88,-41.75"/>
<text text-anchor="start" x="73.62" y="-28.25" font-family="Helvetica,sans-Serif" font-size="10.00">/github/workspace/dev</text>
<text text-anchor="start" x="73.62" y="-17" font-family="Helvetica,sans-Serif" font-size="10.00">_area/sourcecode/hsilibs</text>
<text text-anchor="middle" x="128.75" y="-5.75" font-family="Helvetica,sans-Serif" font-size="10.00">/src/HSIEventSender.cpp</text>
</a>
</g>
</g>
<!-- Node4&#45;&gt;Node5 -->
<g id="edge4_Node000004_Node000005" class="edge">
<title>Node4&#45;&gt;Node5</title>
<g id="a_edge4_Node000004_Node000005"><a xlink:title=" ">
<path fill="none" stroke="#63b8ff" d="M128.75,-66C128.75,-57.96 128.75,-49.54 128.75,-42.23"/>
<polygon fill="#63b8ff" stroke="#63b8ff" points="125.25,-65.81 128.75,-75.81 132.25,-65.81 125.25,-65.81"/>
</a>
</g>
</g>
<!-- Node7&#45;&gt;Node6 -->
<g id="edge7_Node000007_Node000006" class="edge">
<title>Node7&#45;&gt;Node6</title>
<g id="a_edge7_Node000007_Node000006"><a xlink:title=" ">
<path fill="none" stroke="#63b8ff" d="M330.15,-66.84C326.76,-58.55 323.18,-49.79 320.08,-42.23"/>
<polygon fill="#63b8ff" stroke="#63b8ff" points="326.84,-68 333.87,-75.92 333.32,-65.34 326.84,-68"/>
</a>
</g>
</g>
</g>
</svg>
