<?xml version="1.0" encoding="UTF-8" standalone="no"?>
<!DOCTYPE svg PUBLIC "-//W3C//DTD SVG 1.1//EN"
 "http://www.w3.org/Graphics/SVG/1.1/DTD/svg11.dtd">
<!-- Generated by graphviz version 9.0.0 (20230911.1827)
 -->
<!-- Title: /github/workspace/dev_area/sourcecode/timing/include/timing/I2CMasterNode.hpp Pages: 1 -->
<svg width="1991pt" height="404pt"
 viewBox="0.00 0.00 1991.38 403.75" xmlns="http://www.w3.org/2000/svg" xmlns:xlink="http://www.w3.org/1999/xlink">
<g id="graph0" class="graph" transform="scale(1 1) rotate(0) translate(4 399.75)">
<title>/github/workspace/dev_area/sourcecode/timing/include/timing/I2CMasterNode.hpp</title>
<!-- Node1 -->
<g id="Node000001" class="node">
<title>Node1</title>
<g id="a_Node000001"><a xlink:title=" ">
<polygon fill="#999999" stroke="#666666" points="765.12,-395.75 596.88,-395.75 596.88,-354 765.12,-354 765.12,-395.75"/>
<text text-anchor="start" x="604.88" y="-382.25" font-family="Helvetica,sans-Serif" font-size="10.00">/github/workspace/dev</text>
<text text-anchor="start" x="604.88" y="-371" font-family="Helvetica,sans-Serif" font-size="10.00">_area/sourcecode/timing</text>
<text text-anchor="middle" x="681" y="-359.75" font-family="Helvetica,sans-Serif" font-size="10.00">/include/timing/I2CMasterNode.hpp</text>
</a>
</g>
</g>
<!-- Node2 -->
<g id="Node000002" class="node">
<title>Node2</title>
<g id="a_Node000002"><a xlink:href="TimingNode_8hpp.html" target="_top" xlink:title=" ">
<polygon fill="white" stroke="#666666" points="331.88,-318 216.12,-318 216.12,-298.75 331.88,-298.75 331.88,-318"/>
<text text-anchor="middle" x="274" y="-304.5" font-family="Helvetica,sans-Serif" font-size="10.00">timing/TimingNode.hpp</text>
</a>
</g>
</g>
<!-- Node1&#45;&gt;Node2 -->
<g id="edge1_Node000001_Node000002" class="edge">
<title>Node1&#45;&gt;Node2</title>
<g id="a_edge1_Node000001_Node000002"><a xlink:title=" ">
<path fill="none" stroke="#63b8ff" d="M596.67,-360.51C521.46,-348.59 412.72,-331.36 342.69,-320.26"/>
<polygon fill="#63b8ff" stroke="#63b8ff" points="343.29,-316.81 332.86,-318.7 342.19,-323.73 343.29,-316.81"/>
</a>
</g>
</g>
<!-- Node3 -->
<g id="Node000003" class="node">
<title>Node3</title>
<g id="a_Node000003"><a xlink:title=" ">
<polygon fill="#e0e0e0" stroke="#999999" points="139.62,-262.75 28.38,-262.75 28.38,-243.5 139.62,-243.5 139.62,-262.75"/>
<text text-anchor="middle" x="84" y="-249.25" font-family="Helvetica,sans-Serif" font-size="10.00">uhal/DerivedNode.hpp</text>
</a>
</g>
</g>
<!-- Node1&#45;&gt;Node3 -->
<g id="edge47_Node000001_Node000003" class="edge">
<title>Node1&#45;&gt;Node3</title>
<g id="a_edge47_Node000001_Node000003"><a xlink:title=" ">
<path fill="none" stroke="#63b8ff" d="M596.49,-373.04C500.2,-370.01 339.08,-358.59 207,-318 169.93,-306.61 130.79,-284.25 106.88,-269.24"/>
<polygon fill="#63b8ff" stroke="#63b8ff" points="108.9,-266.38 98.59,-263.94 105.13,-272.28 108.9,-266.38"/>
</a>
</g>
</g>
<!-- Node4 -->
<g id="Node000004" class="node">
<title>Node4</title>
<g id="a_Node000004"><a xlink:href="Issue_8hpp.html" target="_top" xlink:title=" ">
<polygon fill="white" stroke="#666666" points="755.25,-262.75 680.75,-262.75 680.75,-243.5 755.25,-243.5 755.25,-262.75"/>
<text text-anchor="middle" x="718" y="-249.25" font-family="Helvetica,sans-Serif" font-size="10.00">ers/Issue.hpp</text>
</a>
</g>
</g>
<!-- Node1&#45;&gt;Node4 -->
<g id="edge46_Node000001_Node000004" class="edge">
<title>Node1&#45;&gt;Node4</title>
<g id="a_edge46_Node000001_Node000004"><a xlink:title=" ">
<path fill="none" stroke="#63b8ff" d="M685.35,-353.57C688.8,-338.34 694.03,-317.04 700,-298.75 702.72,-290.42 706.23,-281.42 709.43,-273.7"/>
<polygon fill="#63b8ff" stroke="#63b8ff" points="712.61,-275.18 713.31,-264.61 706.17,-272.44 712.61,-275.18"/>
</a>
</g>
</g>
<!-- Node9 -->
<g id="Node000009" class="node">
<title>Node9</title>
<g id="a_Node000009"><a xlink:title=" ">
<polygon fill="#e0e0e0" stroke="#999999" points="954,-74.5 914,-74.5 914,-55.25 954,-55.25 954,-74.5"/>
<text text-anchor="middle" x="934" y="-61" font-family="Helvetica,sans-Serif" font-size="10.00">string</text>
</a>
</g>
</g>
<!-- Node1&#45;&gt;Node9 -->
<g id="edge48_Node000001_Node000009" class="edge">
<title>Node1&#45;&gt;Node9</title>
<g id="a_edge48_Node000001_Node000009"><a xlink:title=" ">
<path fill="none" stroke="#63b8ff" d="M765.29,-374.25C1037.12,-374.35 1873,-365.59 1873,-254.12 1873,-254.12 1873,-254.12 1873,-191.25 1873,-146.27 1851.83,-131.39 1812,-110.5 1731,-68.01 1097.57,-88.68 965.62,-74.16"/>
<polygon fill="#63b8ff" stroke="#63b8ff" points="966.33,-70.72 955.95,-72.84 965.38,-77.66 966.33,-70.72"/>
</a>
</g>
</g>
<!-- Node16 -->
<g id="Node000016" class="node">
<title>Node16</title>
<g id="a_Node000016"><a xlink:title=" ">
<polygon fill="#e0e0e0" stroke="#999999" points="675.5,-74.5 632.5,-74.5 632.5,-55.25 675.5,-55.25 675.5,-74.5"/>
<text text-anchor="middle" x="654" y="-61" font-family="Helvetica,sans-Serif" font-size="10.00">vector</text>
</a>
</g>
</g>
<!-- Node1&#45;&gt;Node16 -->
<g id="edge50_Node000001_Node000016" class="edge">
<title>Node1&#45;&gt;Node16</title>
<g id="a_edge50_Node000001_Node000016"><a xlink:title=" ">
<path fill="none" stroke="#63b8ff" d="M596.45,-371.88C492.02,-367.82 309.58,-355.48 158,-318 84.47,-299.82 0,-329.87 0,-254.12 0,-254.12 0,-254.12 0,-191.25 0,-127.35 487.83,-80.31 620.85,-68.67"/>
<polygon fill="#63b8ff" stroke="#63b8ff" points="621.07,-72.16 630.73,-67.81 620.47,-65.19 621.07,-72.16"/>
</a>
</g>
</g>
<!-- Node31 -->
<g id="Node000031" class="node">
<title>Node31</title>
<g id="a_Node000031"><a xlink:href="include_2timing_2TimingIssues_8hpp.html" target="_top" xlink:title=" ">
<polygon fill="white" stroke="#666666" points="801.25,-318 708.75,-318 708.75,-298.75 801.25,-298.75 801.25,-318"/>
<text text-anchor="middle" x="755" y="-304.5" font-family="Helvetica,sans-Serif" font-size="10.00">TimingIssues.hpp</text>
</a>
</g>
</g>
<!-- Node1&#45;&gt;Node31 -->
<g id="edge43_Node000001_Node000031" class="edge">
<title>Node1&#45;&gt;Node31</title>
<g id="a_edge43_Node000001_Node000031"><a xlink:title=" ">
<path fill="none" stroke="#63b8ff" d="M704.01,-353.82C714.3,-344.85 726.28,-334.41 736.04,-325.9"/>
<polygon fill="#63b8ff" stroke="#63b8ff" points="738.21,-328.65 743.45,-319.44 733.61,-323.37 738.21,-328.65"/>
</a>
</g>
</g>
<!-- Node32 -->
<g id="Node000032" class="node">
<title>Node32</title>
<g id="a_Node000032"><a xlink:title=" ">
<polygon fill="#e0e0e0" stroke="#999999" points="1983.38,-318 1900.62,-318 1900.62,-298.75 1983.38,-298.75 1983.38,-318"/>
<text text-anchor="middle" x="1942" y="-304.5" font-family="Helvetica,sans-Serif" font-size="10.00">unordered_map</text>
</a>
</g>
</g>
<!-- Node1&#45;&gt;Node32 -->
<g id="edge49_Node000001_Node000032" class="edge">
<title>Node1&#45;&gt;Node32</title>
<g id="a_edge49_Node000001_Node000032"><a xlink:title=" ">
<path fill="none" stroke="#63b8ff" d="M765.3,-373.13C962.18,-370.71 1467.33,-360.5 1887,-318 1887.68,-317.93 1888.36,-317.86 1889.04,-317.79"/>
<polygon fill="#63b8ff" stroke="#63b8ff" points="1889.32,-321.28 1898.82,-316.59 1888.47,-314.33 1889.32,-321.28"/>
</a>
</g>
</g>
<!-- Node2&#45;&gt;Node3 -->
<g id="edge2_Node000002_Node000003" class="edge">
<title>Node2&#45;&gt;Node3</title>
<g id="a_edge2_Node000002_Node000003"><a xlink:title=" ">
<path fill="none" stroke="#63b8ff" d="M241.77,-298.34C210.24,-289.51 162.02,-275.99 127.19,-266.23"/>
<polygon fill="#63b8ff" stroke="#63b8ff" points="128.42,-262.94 117.85,-263.61 126.53,-269.68 128.42,-262.94"/>
</a>
</g>
</g>
<!-- Node2&#45;&gt;Node4 -->
<g id="edge3_Node000002_Node000004" class="edge">
<title>Node2&#45;&gt;Node4</title>
<g id="a_edge3_Node000002_Node000004"><a xlink:title=" ">
<path fill="none" stroke="#63b8ff" d="M332.05,-300.41C420.3,-289.83 586.65,-269.88 669.11,-259.99"/>
<polygon fill="#63b8ff" stroke="#63b8ff" points="669.4,-263.48 678.91,-258.81 668.56,-256.53 669.4,-263.48"/>
</a>
</g>
</g>
<!-- Node8 -->
<g id="Node000008" class="node">
<title>Node8</title>
<g id="a_Node000008"><a xlink:title=" ">
<polygon fill="#e0e0e0" stroke="#999999" points="673.38,-135.38 638.62,-135.38 638.62,-116.12 673.38,-116.12 673.38,-135.38"/>
<text text-anchor="middle" x="656" y="-121.88" font-family="Helvetica,sans-Serif" font-size="10.00">map</text>
</a>
</g>
</g>
<!-- Node2&#45;&gt;Node8 -->
<g id="edge40_Node000002_Node000008" class="edge">
<title>Node2&#45;&gt;Node8</title>
<g id="a_edge40_Node000002_Node000008"><a xlink:title=" ">
<path fill="none" stroke="#63b8ff" d="M276.63,-298.56C284.78,-271.9 310.25,-192.97 331,-177 336.9,-172.46 549.35,-141.9 627.51,-130.78"/>
<polygon fill="#63b8ff" stroke="#63b8ff" points="627.54,-134.32 636.94,-129.44 626.55,-127.39 627.54,-134.32"/>
</a>
</g>
</g>
<!-- Node2&#45;&gt;Node9 -->
<g id="edge41_Node000002_Node000009" class="edge">
<title>Node2&#45;&gt;Node9</title>
<g id="a_edge41_Node000002_Node000009"><a xlink:title=" ">
<path fill="none" stroke="#63b8ff" d="M270.75,-298.47C262.94,-275.33 245.89,-212.61 276,-177 358,-80.04 782.08,-67.65 902.24,-66.09"/>
<polygon fill="#63b8ff" stroke="#63b8ff" points="902.04,-69.6 912,-65.98 901.96,-62.6 902.04,-69.6"/>
</a>
</g>
</g>
<!-- Node13 -->
<g id="Node000013" class="node">
<title>Node13</title>
<g id="a_Node000013"><a xlink:title=" ">
<polygon fill="#e0e0e0" stroke="#999999" points="544.62,-135.38 499.38,-135.38 499.38,-116.12 544.62,-116.12 544.62,-135.38"/>
<text text-anchor="middle" x="522" y="-121.88" font-family="Helvetica,sans-Serif" font-size="10.00">chrono</text>
</a>
</g>
</g>
<!-- Node2&#45;&gt;Node13 -->
<g id="edge39_Node000002_Node000013" class="edge">
<title>Node2&#45;&gt;Node13</title>
<g id="a_edge39_Node000002_Node000013"><a xlink:title=" ">
<path fill="none" stroke="#63b8ff" d="M272.63,-298.31C269.62,-274.77 265.13,-211.17 298,-177 323.86,-150.12 431.66,-135.68 487.75,-129.86"/>
<polygon fill="#63b8ff" stroke="#63b8ff" points="487.78,-133.38 497.38,-128.9 487.08,-126.41 487.78,-133.38"/>
</a>
</g>
</g>
<!-- Node30 -->
<g id="Node000030" class="node">
<title>Node30</title>
<g id="a_Node000030"><a xlink:title=" ">
<polygon fill="#e0e0e0" stroke="#999999" points="207.88,-262.75 158.12,-262.75 158.12,-243.5 207.88,-243.5 207.88,-262.75"/>
<text text-anchor="middle" x="183" y="-249.25" font-family="Helvetica,sans-Serif" font-size="10.00">typeinfo</text>
</a>
</g>
</g>
<!-- Node2&#45;&gt;Node30 -->
<g id="edge42_Node000002_Node000030" class="edge">
<title>Node2&#45;&gt;Node30</title>
<g id="a_edge42_Node000002_Node000030"><a xlink:title=" ">
<path fill="none" stroke="#63b8ff" d="M258.56,-298.34C244.84,-290.31 224.5,-278.41 208.38,-268.98"/>
<polygon fill="#63b8ff" stroke="#63b8ff" points="210.22,-266 199.82,-263.97 206.68,-272.04 210.22,-266"/>
</a>
</g>
</g>
<!-- Node5 -->
<g id="Node000005" class="node">
<title>Node5</title>
<g id="a_Node000005"><a xlink:title=" ">
<polygon fill="#e0e0e0" stroke="#999999" points="646.62,-201.88 601.38,-201.88 601.38,-182.62 646.62,-182.62 646.62,-201.88"/>
<text text-anchor="middle" x="624" y="-188.38" font-family="Helvetica,sans-Serif" font-size="10.00">math.h</text>
</a>
</g>
</g>
<!-- Node4&#45;&gt;Node5 -->
<g id="edge4_Node000004_Node000005" class="edge">
<title>Node4&#45;&gt;Node5</title>
<g id="a_edge4_Node000004_Node000005"><a xlink:title=" ">
<path fill="none" stroke="#63b8ff" d="M703.72,-243.18C688.95,-233.93 665.63,-219.32 648.01,-208.29"/>
<polygon fill="#63b8ff" stroke="#63b8ff" points="650.03,-205.42 639.69,-203.08 646.31,-211.35 650.03,-205.42"/>
</a>
</g>
</g>
<!-- Node6 -->
<g id="Node000006" class="node">
<title>Node6</title>
<g id="a_Node000006"><a xlink:title=" ">
<polygon fill="#e0e0e0" stroke="#999999" points="834.25,-201.88 789.75,-201.88 789.75,-182.62 834.25,-182.62 834.25,-201.88"/>
<text text-anchor="middle" x="812" y="-188.38" font-family="Helvetica,sans-Serif" font-size="10.00">stdio.h</text>
</a>
</g>
</g>
<!-- Node4&#45;&gt;Node6 -->
<g id="edge5_Node000004_Node000006" class="edge">
<title>Node4&#45;&gt;Node6</title>
<g id="a_edge5_Node000004_Node000006"><a xlink:title=" ">
<path fill="none" stroke="#63b8ff" d="M732.28,-243.18C747.05,-233.93 770.37,-219.32 787.99,-208.29"/>
<polygon fill="#63b8ff" stroke="#63b8ff" points="789.69,-211.35 796.31,-203.08 785.97,-205.42 789.69,-211.35"/>
</a>
</g>
</g>
<!-- Node7 -->
<g id="Node000007" class="node">
<title>Node7</title>
<g id="a_Node000007"><a xlink:title=" ">
<polygon fill="#e0e0e0" stroke="#999999" points="899.75,-201.88 852.25,-201.88 852.25,-182.62 899.75,-182.62 899.75,-201.88"/>
<text text-anchor="middle" x="876" y="-188.38" font-family="Helvetica,sans-Serif" font-size="10.00">string.h</text>
</a>
</g>
</g>
<!-- Node4&#45;&gt;Node7 -->
<g id="edge6_Node000004_Node000007" class="edge">
<title>Node4&#45;&gt;Node7</title>
<g id="a_edge6_Node000004_Node000007"><a xlink:title=" ">
<path fill="none" stroke="#63b8ff" d="M745.01,-243.05C770.45,-234.36 809.55,-220.68 843,-207.5 843.64,-207.25 844.28,-207 844.92,-206.74"/>
<polygon fill="#63b8ff" stroke="#63b8ff" points="846.2,-210 854.09,-202.93 843.51,-203.53 846.2,-210"/>
</a>
</g>
</g>
<!-- Node4&#45;&gt;Node8 -->
<g id="edge7_Node000004_Node000008" class="edge">
<title>Node4&#45;&gt;Node8</title>
<g id="a_edge7_Node000004_Node000008"><a xlink:title=" ">
<path fill="none" stroke="#63b8ff" d="M755.65,-250.18C823.1,-245.36 953.54,-229.16 909,-177 875.83,-138.16 730.33,-157.52 682,-141 681.63,-140.88 681.27,-140.75 680.9,-140.61"/>
<polygon fill="#63b8ff" stroke="#63b8ff" points="682.37,-137.43 671.82,-136.44 679.45,-143.79 682.37,-137.43"/>
</a>
</g>
</g>
<!-- Node4&#45;&gt;Node9 -->
<g id="edge8_Node000004_Node000009" class="edge">
<title>Node4&#45;&gt;Node9</title>
<g id="a_edge8_Node000004_Node000009"><a xlink:title=" ">
<path fill="none" stroke="#63b8ff" d="M755.53,-251.24C936.35,-246.56 1711.75,-221.88 1778,-141 1786.59,-130.51 1787.37,-120.29 1778,-110.5 1748.08,-79.22 1072.66,-81.71 965.65,-73.82"/>
<polygon fill="#63b8ff" stroke="#63b8ff" points="966.27,-70.36 955.95,-72.79 965.53,-77.33 966.27,-70.36"/>
</a>
</g>
</g>
<!-- Node10 -->
<g id="Node000010" class="node">
<title>Node10</title>
<g id="a_Node000010"><a xlink:title=" ">
<polygon fill="#e0e0e0" stroke="#999999" points="760.75,-19.25 707.25,-19.25 707.25,0 760.75,0 760.75,-19.25"/>
<text text-anchor="middle" x="734" y="-5.75" font-family="Helvetica,sans-Serif" font-size="10.00">iostream</text>
</a>
</g>
</g>
<!-- Node4&#45;&gt;Node10 -->
<g id="edge9_Node000004_Node000010" class="edge">
<title>Node4&#45;&gt;Node10</title>
<g id="a_edge9_Node000004_Node000010"><a xlink:title=" ">
<path fill="none" stroke="#63b8ff" d="M680.53,-250.01C651.1,-246.15 611.89,-235.64 592,-207.5 584.18,-196.43 590.31,-190.45 592,-177 598.94,-121.6 586.23,-97.27 623,-55.25 641.66,-33.93 671.94,-22.66 696.17,-16.79"/>
<polygon fill="#63b8ff" stroke="#63b8ff" points="696.66,-20.26 705.68,-14.7 695.16,-13.42 696.66,-20.26"/>
</a>
</g>
</g>
<!-- Node11 -->
<g id="Node000011" class="node">
<title>Node11</title>
<g id="a_Node000011"><a xlink:title=" ">
<polygon fill="#e0e0e0" stroke="#999999" points="391.62,-201.88 340.38,-201.88 340.38,-182.62 391.62,-182.62 391.62,-201.88"/>
<text text-anchor="middle" x="366" y="-188.38" font-family="Helvetica,sans-Serif" font-size="10.00">sstream</text>
</a>
</g>
</g>
<!-- Node4&#45;&gt;Node11 -->
<g id="edge10_Node000004_Node000011" class="edge">
<title>Node4&#45;&gt;Node11</title>
<g id="a_edge10_Node000004_Node000011"><a xlink:title=" ">
<path fill="none" stroke="#63b8ff" d="M680.31,-249.84C620.3,-245.52 499.74,-234.11 401,-207.5 399.42,-207.07 397.81,-206.59 396.2,-206.08"/>
<polygon fill="#63b8ff" stroke="#63b8ff" points="397.71,-202.9 387.12,-202.78 395.32,-209.48 397.71,-202.9"/>
</a>
</g>
</g>
<!-- Node12 -->
<g id="Node000012" class="node">
<title>Node12</title>
<g id="a_Node000012"><a xlink:title=" ">
<polygon fill="#e0e0e0" stroke="#999999" points="460.25,-201.88 409.75,-201.88 409.75,-182.62 460.25,-182.62 460.25,-201.88"/>
<text text-anchor="middle" x="435" y="-188.38" font-family="Helvetica,sans-Serif" font-size="10.00">memory</text>
</a>
</g>
</g>
<!-- Node4&#45;&gt;Node12 -->
<g id="edge11_Node000004_Node000012" class="edge">
<title>Node4&#45;&gt;Node12</title>
<g id="a_edge11_Node000004_Node000012"><a xlink:title=" ">
<path fill="none" stroke="#63b8ff" d="M680.47,-247.85C631.4,-241.7 543.11,-228.71 470,-207.5 468.62,-207.1 467.22,-206.66 465.81,-206.2"/>
<polygon fill="#63b8ff" stroke="#63b8ff" points="467.12,-202.95 456.52,-202.79 464.71,-209.52 467.12,-202.95"/>
</a>
</g>
</g>
<!-- Node4&#45;&gt;Node13 -->
<g id="edge12_Node000004_Node000013" class="edge">
<title>Node4&#45;&gt;Node13</title>
<g id="a_edge12_Node000004_Node000013"><a xlink:title=" ">
<path fill="none" stroke="#63b8ff" d="M680.41,-250.39C645.26,-246.91 593.21,-236.75 559,-207.5 540.72,-191.87 530.98,-165.3 526.16,-146.93"/>
<polygon fill="#63b8ff" stroke="#63b8ff" points="529.58,-146.18 523.9,-137.23 522.76,-147.77 529.58,-146.18"/>
</a>
</g>
</g>
<!-- Node14 -->
<g id="Node000014" class="node">
<title>Node14</title>
<g id="a_Node000014"><a xlink:title=" ">
<polygon fill="#e0e0e0" stroke="#999999" points="507.4,-201.88 478.6,-201.88 478.6,-182.62 507.4,-182.62 507.4,-201.88"/>
<text text-anchor="middle" x="493" y="-188.38" font-family="Helvetica,sans-Serif" font-size="10.00">list</text>
</a>
</g>
</g>
<!-- Node4&#45;&gt;Node14 -->
<g id="edge13_Node000004_Node000014" class="edge">
<title>Node4&#45;&gt;Node14</title>
<g id="a_edge13_Node000004_Node000014"><a xlink:title=" ">
<path fill="none" stroke="#63b8ff" d="M680.55,-246.49C640.32,-239.78 574.92,-226.99 521,-207.5 520.03,-207.15 519.06,-206.78 518.08,-206.38"/>
<polygon fill="#63b8ff" stroke="#63b8ff" points="519.73,-203.29 509.18,-202.28 516.8,-209.64 519.73,-203.29"/>
</a>
</g>
</g>
<!-- Node15 -->
<g id="Node000015" class="node">
<title>Node15</title>
<g id="a_Node000015"><a xlink:href="IssueFactory_8hpp.html" target="_top" xlink:title=" ">
<polygon fill="white" stroke="#666666" points="771.38,-201.88 664.62,-201.88 664.62,-182.62 771.38,-182.62 771.38,-201.88"/>
<text text-anchor="middle" x="718" y="-188.38" font-family="Helvetica,sans-Serif" font-size="10.00">ers/IssueFactory.hpp</text>
</a>
</g>
</g>
<!-- Node4&#45;&gt;Node15 -->
<g id="edge14_Node000004_Node000015" class="edge">
<title>Node4&#45;&gt;Node15</title>
<g id="a_edge14_Node000004_Node000015"><a xlink:title=" ">
<path fill="none" stroke="#63b8ff" d="M718,-243.18C718,-235.4 718,-223.83 718,-213.78"/>
<polygon fill="#63b8ff" stroke="#63b8ff" points="721.5,-213.79 718,-203.79 714.5,-213.79 721.5,-213.79"/>
</a>
</g>
</g>
<!-- Node17 -->
<g id="Node000017" class="node">
<title>Node17</title>
<g id="a_Node000017"><a xlink:href="Severity_8hpp.html" target="_top" xlink:title=" ">
<polygon fill="white" stroke="#666666" points="776.88,-135.38 691.12,-135.38 691.12,-116.12 776.88,-116.12 776.88,-135.38"/>
<text text-anchor="middle" x="734" y="-121.88" font-family="Helvetica,sans-Serif" font-size="10.00">ers/Severity.hpp</text>
</a>
</g>
</g>
<!-- Node4&#45;&gt;Node17 -->
<g id="edge31_Node000004_Node000017" class="edge">
<title>Node4&#45;&gt;Node17</title>
<g id="a_edge31_Node000004_Node000017"><a xlink:title=" ">
<path fill="none" stroke="#63b8ff" d="M755.7,-250.21C813.27,-246.42 918.86,-235.7 942,-207.5 950.6,-197.02 950.38,-187.65 942,-177 932.41,-164.82 846.94,-147.17 788.59,-136.35"/>
<polygon fill="#63b8ff" stroke="#63b8ff" points="789.27,-132.92 778.8,-134.56 788.01,-139.8 789.27,-132.92"/>
</a>
</g>
</g>
<!-- Node18 -->
<g id="Node000018" class="node">
<title>Node18</title>
<g id="a_Node000018"><a xlink:href="LocalContext_8hpp.html" target="_top" xlink:title=" ">
<polygon fill="white" stroke="#666666" points="1101.75,-201.88 994.25,-201.88 994.25,-182.62 1101.75,-182.62 1101.75,-201.88"/>
<text text-anchor="middle" x="1048" y="-188.38" font-family="Helvetica,sans-Serif" font-size="10.00">ers/LocalContext.hpp</text>
</a>
</g>
</g>
<!-- Node4&#45;&gt;Node18 -->
<g id="edge23_Node000004_Node000018" class="edge">
<title>Node4&#45;&gt;Node18</title>
<g id="a_edge23_Node000004_Node000018"><a xlink:title=" ">
<path fill="none" stroke="#63b8ff" d="M755.39,-246.21C806.3,-238.06 900.22,-222.65 980,-207.5 984.86,-206.58 989.92,-205.58 994.97,-204.57"/>
<polygon fill="#63b8ff" stroke="#63b8ff" points="995.39,-208.05 1004.49,-202.62 993.99,-201.19 995.39,-208.05"/>
</a>
</g>
</g>
<!-- Node23 -->
<g id="Node000023" class="node">
<title>Node23</title>
<g id="a_Node000023"><a xlink:href="IssueDeclarationMacro_8hpp.html" target="_top" xlink:title=" ">
<polygon fill="white" stroke="#666666" points="1437.88,-207.5 1298.12,-207.5 1298.12,-177 1437.88,-177 1437.88,-207.5"/>
<text text-anchor="start" x="1306.12" y="-194" font-family="Helvetica,sans-Serif" font-size="10.00">ers/internal/IssueDeclaration</text>
<text text-anchor="middle" x="1368" y="-182.75" font-family="Helvetica,sans-Serif" font-size="10.00">Macro.hpp</text>
</a>
</g>
</g>
<!-- Node4&#45;&gt;Node23 -->
<g id="edge32_Node000004_Node000023" class="edge">
<title>Node4&#45;&gt;Node23</title>
<g id="a_edge32_Node000004_Node000023"><a xlink:title=" ">
<path fill="none" stroke="#63b8ff" d="M755.28,-248.75C857.65,-239.48 1144.85,-213.46 1286.67,-200.62"/>
<polygon fill="#63b8ff" stroke="#63b8ff" points="1286.72,-204.13 1296.36,-199.74 1286.09,-197.16 1286.72,-204.13"/>
</a>
</g>
</g>
<!-- Node15&#45;&gt;Node8 -->
<g id="edge18_Node000015_Node000008" class="edge">
<title>Node15&#45;&gt;Node8</title>
<g id="a_edge18_Node000015_Node000008"><a xlink:title=" ">
<path fill="none" stroke="#63b8ff" d="M709.38,-182.28C699.85,-172.37 684.27,-156.16 672.4,-143.81"/>
<polygon fill="#63b8ff" stroke="#63b8ff" points="675.05,-141.52 665.6,-136.73 670,-146.37 675.05,-141.52"/>
</a>
</g>
</g>
<!-- Node15&#45;&gt;Node9 -->
<g id="edge16_Node000015_Node000009" class="edge">
<title>Node15&#45;&gt;Node9</title>
<g id="a_edge16_Node000015_Node000009"><a xlink:title=" ">
<path fill="none" stroke="#63b8ff" d="M730.65,-182.14C744.39,-172.18 766.93,-155.69 786,-141 803.16,-127.78 805.32,-121.46 824,-110.5 849.24,-95.68 880.32,-83.57 903,-75.73"/>
<polygon fill="#63b8ff" stroke="#63b8ff" points="903.92,-79.11 912.28,-72.6 901.68,-72.48 903.92,-79.11"/>
</a>
</g>
</g>
<!-- Node15&#45;&gt;Node13 -->
<g id="edge15_Node000015_Node000013" class="edge">
<title>Node15&#45;&gt;Node13</title>
<g id="a_edge15_Node000015_Node000013"><a xlink:title=" ">
<path fill="none" stroke="#63b8ff" d="M690.33,-182.15C654.89,-170.48 593.52,-150.29 555.48,-137.77"/>
<polygon fill="#63b8ff" stroke="#63b8ff" points="556.98,-134.58 546.38,-134.77 554.79,-141.22 556.98,-134.58"/>
</a>
</g>
</g>
<!-- Node15&#45;&gt;Node16 -->
<g id="edge17_Node000015_Node000016" class="edge">
<title>Node15&#45;&gt;Node16</title>
<g id="a_edge17_Node000015_Node000016"><a xlink:title=" ">
<path fill="none" stroke="#63b8ff" d="M686.48,-182.28C666.45,-174.77 642.1,-161.84 630,-141 619.51,-122.93 630.05,-99.72 640.28,-83.91"/>
<polygon fill="#63b8ff" stroke="#63b8ff" points="642.98,-86.15 645.86,-75.95 637.25,-82.13 642.98,-86.15"/>
</a>
</g>
</g>
<!-- Node15&#45;&gt;Node17 -->
<g id="edge19_Node000015_Node000017" class="edge">
<title>Node15&#45;&gt;Node17</title>
<g id="a_edge19_Node000015_Node000017"><a xlink:title=" ">
<path fill="none" stroke="#63b8ff" d="M720.22,-182.28C722.49,-173.14 726.09,-158.64 729.04,-146.75"/>
<polygon fill="#63b8ff" stroke="#63b8ff" points="732.42,-147.66 731.43,-137.11 725.62,-145.97 732.42,-147.66"/>
</a>
</g>
</g>
<!-- Node17&#45;&gt;Node9 -->
<g id="edge20_Node000017_Node000009" class="edge">
<title>Node17&#45;&gt;Node9</title>
<g id="a_edge20_Node000017_Node000009"><a xlink:title=" ">
<path fill="none" stroke="#63b8ff" d="M764.81,-115.68C802.25,-104.66 865.06,-86.17 902.71,-75.09"/>
<polygon fill="#63b8ff" stroke="#63b8ff" points="903.47,-78.51 912.08,-72.33 901.5,-71.79 903.47,-78.51"/>
</a>
</g>
</g>
<!-- Node17&#45;&gt;Node10 -->
<g id="edge22_Node000017_Node000010" class="edge">
<title>Node17&#45;&gt;Node10</title>
<g id="a_edge22_Node000017_Node000010"><a xlink:title=" ">
<path fill="none" stroke="#63b8ff" d="M734,-115.79C734,-97.63 734,-56.04 734,-30.95"/>
<polygon fill="#63b8ff" stroke="#63b8ff" points="737.5,-31.05 734,-21.05 730.5,-31.05 737.5,-31.05"/>
</a>
</g>
</g>
<!-- Node17&#45;&gt;Node16 -->
<g id="edge21_Node000017_Node000016" class="edge">
<title>Node17&#45;&gt;Node16</title>
<g id="a_edge21_Node000017_Node000016"><a xlink:title=" ">
<path fill="none" stroke="#63b8ff" d="M721.85,-115.81C709.52,-106.73 690.17,-92.49 675.28,-81.54"/>
<polygon fill="#63b8ff" stroke="#63b8ff" points="677.61,-78.91 667.48,-75.8 673.46,-84.54 677.61,-78.91"/>
</a>
</g>
</g>
<!-- Node19 -->
<g id="Node000019" class="node">
<title>Node19</title>
<g id="a_Node000019"><a xlink:title=" ">
<polygon fill="#e0e0e0" stroke="#999999" points="897.38,-135.38 832.62,-135.38 832.62,-116.12 897.38,-116.12 897.38,-135.38"/>
<text text-anchor="middle" x="865" y="-121.88" font-family="Helvetica,sans-Serif" font-size="10.00">sys/types.h</text>
</a>
</g>
</g>
<!-- Node18&#45;&gt;Node19 -->
<g id="edge24_Node000018_Node000019" class="edge">
<title>Node18&#45;&gt;Node19</title>
<g id="a_edge24_Node000018_Node000019"><a xlink:title=" ">
<path fill="none" stroke="#63b8ff" d="M1022.17,-182.15C990.56,-171.01 936.86,-152.08 901.16,-139.49"/>
<polygon fill="#63b8ff" stroke="#63b8ff" points="902.72,-136.33 892.13,-136.31 900.4,-142.94 902.72,-136.33"/>
</a>
</g>
</g>
<!-- Node20 -->
<g id="Node000020" class="node">
<title>Node20</title>
<g id="a_Node000020"><a xlink:title=" ">
<polygon fill="#e0e0e0" stroke="#999999" points="964.88,-135.38 915.12,-135.38 915.12,-116.12 964.88,-116.12 964.88,-135.38"/>
<text text-anchor="middle" x="940" y="-121.88" font-family="Helvetica,sans-Serif" font-size="10.00">unistd.h</text>
</a>
</g>
</g>
<!-- Node18&#45;&gt;Node20 -->
<g id="edge25_Node000018_Node000020" class="edge">
<title>Node18&#45;&gt;Node20</title>
<g id="a_edge25_Node000018_Node000020"><a xlink:title=" ">
<path fill="none" stroke="#63b8ff" d="M1032.98,-182.28C1015.43,-171.8 986.11,-154.29 965.09,-141.73"/>
<polygon fill="#63b8ff" stroke="#63b8ff" points="966.92,-138.75 956.54,-136.63 963.33,-144.76 966.92,-138.75"/>
</a>
</g>
</g>
<!-- Node21 -->
<g id="Node000021" class="node">
<title>Node21</title>
<g id="a_Node000021"><a xlink:href="Context_8hpp.html" target="_top" xlink:title=" ">
<polygon fill="white" stroke="#666666" points="1066.75,-135.38 983.25,-135.38 983.25,-116.12 1066.75,-116.12 1066.75,-135.38"/>
<text text-anchor="middle" x="1025" y="-121.88" font-family="Helvetica,sans-Serif" font-size="10.00">ers/Context.hpp</text>
</a>
</g>
</g>
<!-- Node18&#45;&gt;Node21 -->
<g id="edge26_Node000018_Node000021" class="edge">
<title>Node18&#45;&gt;Node21</title>
<g id="a_edge26_Node000018_Node000021"><a xlink:title=" ">
<path fill="none" stroke="#63b8ff" d="M1044.8,-182.28C1041.51,-173.04 1036.26,-158.33 1032,-146.38"/>
<polygon fill="#63b8ff" stroke="#63b8ff" points="1035.33,-145.31 1028.68,-137.07 1028.74,-147.66 1035.33,-145.31"/>
</a>
</g>
</g>
<!-- Node21&#45;&gt;Node9 -->
<g id="edge27_Node000021_Node000009" class="edge">
<title>Node21&#45;&gt;Node9</title>
<g id="a_edge27_Node000021_Node000009"><a xlink:title=" ">
<path fill="none" stroke="#63b8ff" d="M1011.18,-115.81C996.88,-106.56 974.3,-91.95 957.25,-80.92"/>
<polygon fill="#63b8ff" stroke="#63b8ff" points="959.52,-78.22 949.22,-75.72 955.72,-84.09 959.52,-78.22"/>
</a>
</g>
</g>
<!-- Node21&#45;&gt;Node16 -->
<g id="edge28_Node000021_Node000016" class="edge">
<title>Node21&#45;&gt;Node16</title>
<g id="a_edge28_Node000021_Node000016"><a xlink:title=" ">
<path fill="none" stroke="#63b8ff" d="M994.96,-115.64C988.11,-113.76 980.84,-111.93 974,-110.5 870.44,-88.91 745.8,-74.91 687.34,-69.04"/>
<polygon fill="#63b8ff" stroke="#63b8ff" points="687.7,-65.56 677.41,-68.06 687.02,-72.52 687.7,-65.56"/>
</a>
</g>
</g>
<!-- Node22 -->
<g id="Node000022" class="node">
<title>Node22</title>
<g id="a_Node000022"><a xlink:href="ers_2include_2ers_2Configuration_8hpp.html" target="_top" xlink:title=" ">
<polygon fill="white" stroke="#666666" points="1078.38,-74.5 971.62,-74.5 971.62,-55.25 1078.38,-55.25 1078.38,-74.5"/>
<text text-anchor="middle" x="1025" y="-61" font-family="Helvetica,sans-Serif" font-size="10.00">ers/Configuration.hpp</text>
</a>
</g>
</g>
<!-- Node21&#45;&gt;Node22 -->
<g id="edge29_Node000021_Node000022" class="edge">
<title>Node21&#45;&gt;Node22</title>
<g id="a_edge29_Node000021_Node000022"><a xlink:title=" ">
<path fill="none" stroke="#63b8ff" d="M1025,-115.81C1025,-108.03 1025,-96.45 1025,-86.41"/>
<polygon fill="#63b8ff" stroke="#63b8ff" points="1028.5,-86.41 1025,-76.41 1021.5,-86.41 1028.5,-86.41"/>
</a>
</g>
</g>
<!-- Node22&#45;&gt;Node10 -->
<g id="edge30_Node000022_Node000010" class="edge">
<title>Node22&#45;&gt;Node10</title>
<g id="a_edge30_Node000022_Node000010"><a xlink:title=" ">
<path fill="none" stroke="#63b8ff" d="M975.31,-54.78C917.81,-44.26 824.37,-27.16 772.25,-17.62"/>
<polygon fill="#63b8ff" stroke="#63b8ff" points="773.12,-14.22 762.65,-15.87 771.86,-21.11 773.12,-14.22"/>
</a>
</g>
</g>
<!-- Node24 -->
<g id="Node000024" class="node">
<title>Node24</title>
<g id="a_Node000024"><a xlink:title=" ">
<polygon fill="#e0e0e0" stroke="#999999" points="1300.62,-141 1201.38,-141 1201.38,-110.5 1300.62,-110.5 1300.62,-141"/>
<text text-anchor="start" x="1209.38" y="-127.5" font-family="Helvetica,sans-Serif" font-size="10.00">boost/preprocessor</text>
<text text-anchor="middle" x="1251" y="-116.25" font-family="Helvetica,sans-Serif" font-size="10.00">/if.hpp</text>
</a>
</g>
</g>
<!-- Node23&#45;&gt;Node24 -->
<g id="edge33_Node000023_Node000024" class="edge">
<title>Node23&#45;&gt;Node24</title>
<g id="a_edge33_Node000023_Node000024"><a xlink:title=" ">
<path fill="none" stroke="#63b8ff" d="M1341.45,-176.61C1325.44,-167.79 1304.83,-156.43 1287.33,-146.78"/>
<polygon fill="#63b8ff" stroke="#63b8ff" points="1289.22,-143.82 1278.77,-142.06 1285.84,-149.95 1289.22,-143.82"/>
</a>
</g>
</g>
<!-- Node25 -->
<g id="Node000025" class="node">
<title>Node25</title>
<g id="a_Node000025"><a xlink:title=" ">
<polygon fill="#e0e0e0" stroke="#999999" points="1417.62,-141 1318.38,-141 1318.38,-110.5 1417.62,-110.5 1417.62,-141"/>
<text text-anchor="start" x="1326.38" y="-127.5" font-family="Helvetica,sans-Serif" font-size="10.00">boost/preprocessor</text>
<text text-anchor="middle" x="1368" y="-116.25" font-family="Helvetica,sans-Serif" font-size="10.00">/seq.hpp</text>
</a>
</g>
</g>
<!-- Node23&#45;&gt;Node25 -->
<g id="edge34_Node000023_Node000025" class="edge">
<title>Node23&#45;&gt;Node25</title>
<g id="a_edge34_Node000023_Node000025"><a xlink:title=" ">
<path fill="none" stroke="#63b8ff" d="M1368,-176.61C1368,-169.52 1368,-160.79 1368,-152.63"/>
<polygon fill="#63b8ff" stroke="#63b8ff" points="1371.5,-152.84 1368,-142.84 1364.5,-152.84 1371.5,-152.84"/>
</a>
</g>
</g>
<!-- Node26 -->
<g id="Node000026" class="node">
<title>Node26</title>
<g id="a_Node000026"><a xlink:title=" ">
<polygon fill="#e0e0e0" stroke="#999999" points="1534.62,-141 1435.38,-141 1435.38,-110.5 1534.62,-110.5 1534.62,-141"/>
<text text-anchor="start" x="1443.38" y="-127.5" font-family="Helvetica,sans-Serif" font-size="10.00">boost/preprocessor</text>
<text text-anchor="middle" x="1485" y="-116.25" font-family="Helvetica,sans-Serif" font-size="10.00">/tuple.hpp</text>
</a>
</g>
</g>
<!-- Node23&#45;&gt;Node26 -->
<g id="edge35_Node000023_Node000026" class="edge">
<title>Node23&#45;&gt;Node26</title>
<g id="a_edge35_Node000023_Node000026"><a xlink:title=" ">
<path fill="none" stroke="#63b8ff" d="M1394.55,-176.61C1410.56,-167.79 1431.17,-156.43 1448.67,-146.78"/>
<polygon fill="#63b8ff" stroke="#63b8ff" points="1450.16,-149.95 1457.23,-142.06 1446.78,-143.82 1450.16,-149.95"/>
</a>
</g>
</g>
<!-- Node27 -->
<g id="Node000027" class="node">
<title>Node27</title>
<g id="a_Node000027"><a xlink:title=" ">
<polygon fill="#e0e0e0" stroke="#999999" points="1651.62,-141 1552.38,-141 1552.38,-110.5 1651.62,-110.5 1651.62,-141"/>
<text text-anchor="start" x="1560.38" y="-127.5" font-family="Helvetica,sans-Serif" font-size="10.00">boost/preprocessor</text>
<text text-anchor="middle" x="1602" y="-116.25" font-family="Helvetica,sans-Serif" font-size="10.00">/logical.hpp</text>
</a>
</g>
</g>
<!-- Node23&#45;&gt;Node27 -->
<g id="edge36_Node000023_Node000027" class="edge">
<title>Node23&#45;&gt;Node27</title>
<g id="a_edge36_Node000023_Node000027"><a xlink:title=" ">
<path fill="none" stroke="#63b8ff" d="M1421.39,-176.53C1457.12,-166.69 1504.21,-153.7 1541.35,-143.47"/>
<polygon fill="#63b8ff" stroke="#63b8ff" points="1541.87,-146.95 1550.58,-140.92 1540.01,-140.21 1541.87,-146.95"/>
</a>
</g>
</g>
<!-- Node28 -->
<g id="Node000028" class="node">
<title>Node28</title>
<g id="a_Node000028"><a xlink:title=" ">
<polygon fill="#e0e0e0" stroke="#999999" points="1768.62,-141 1669.38,-141 1669.38,-110.5 1768.62,-110.5 1768.62,-141"/>
<text text-anchor="start" x="1677.38" y="-127.5" font-family="Helvetica,sans-Serif" font-size="10.00">boost/preprocessor</text>
<text text-anchor="middle" x="1719" y="-116.25" font-family="Helvetica,sans-Serif" font-size="10.00">/stringize.hpp</text>
</a>
</g>
</g>
<!-- Node23&#45;&gt;Node28 -->
<g id="edge37_Node000023_Node000028" class="edge">
<title>Node23&#45;&gt;Node28</title>
<g id="a_edge37_Node000023_Node000028"><a xlink:title=" ">
<path fill="none" stroke="#63b8ff" d="M1438.12,-180.66C1495.09,-171.73 1577.74,-158.03 1658.24,-141.5"/>
<polygon fill="#63b8ff" stroke="#63b8ff" points="1658.5,-145.02 1667.58,-139.56 1657.08,-138.17 1658.5,-145.02"/>
</a>
</g>
</g>
<!-- Node29 -->
<g id="Node000029" class="node">
<title>Node29</title>
<g id="a_Node000029"><a xlink:title=" ">
<polygon fill="#e0e0e0" stroke="#999999" points="1183.62,-141 1084.38,-141 1084.38,-110.5 1183.62,-110.5 1183.62,-141"/>
<text text-anchor="start" x="1092.38" y="-127.5" font-family="Helvetica,sans-Serif" font-size="10.00">boost/preprocessor</text>
<text text-anchor="middle" x="1134" y="-116.25" font-family="Helvetica,sans-Serif" font-size="10.00">/comparison.hpp</text>
</a>
</g>
</g>
<!-- Node23&#45;&gt;Node29 -->
<g id="edge38_Node000023_Node000029" class="edge">
<title>Node23&#45;&gt;Node29</title>
<g id="a_edge38_Node000023_Node000029"><a xlink:title=" ">
<path fill="none" stroke="#63b8ff" d="M1314.61,-176.53C1278.88,-166.69 1231.79,-153.7 1194.65,-143.47"/>
<polygon fill="#63b8ff" stroke="#63b8ff" points="1195.99,-140.21 1185.42,-140.92 1194.13,-146.95 1195.99,-140.21"/>
</a>
</g>
</g>
<!-- Node31&#45;&gt;Node4 -->
<g id="edge44_Node000031_Node000004" class="edge">
<title>Node31&#45;&gt;Node4</title>
<g id="a_edge44_Node000031_Node000004"><a xlink:title=" ">
<path fill="none" stroke="#63b8ff" d="M748.89,-298.58C743.94,-291.46 736.8,-281.18 730.63,-272.3"/>
<polygon fill="#63b8ff" stroke="#63b8ff" points="733.69,-270.57 725.11,-264.35 727.94,-274.56 733.69,-270.57"/>
</a>
</g>
</g>
<!-- Node31&#45;&gt;Node9 -->
<g id="edge45_Node000031_Node000009" class="edge">
<title>Node31&#45;&gt;Node9</title>
<g id="a_edge45_Node000031_Node000009"><a xlink:title=" ">
<path fill="none" stroke="#63b8ff" d="M801.7,-305.78C931.87,-300.5 1309.15,-279.64 1613,-207.5 1696.79,-187.61 1745.65,-211.58 1795,-141 1802.77,-129.89 1804.38,-120.29 1795,-110.5 1764.44,-78.59 1074.95,-81.77 965.86,-73.83"/>
<polygon fill="#63b8ff" stroke="#63b8ff" points="966.26,-70.36 955.95,-72.79 965.53,-77.32 966.26,-70.36"/>
</a>
</g>
</g>
</g>
</svg>
