<?xml version="1.0" encoding="UTF-8" standalone="no"?>
<!DOCTYPE svg PUBLIC "-//W3C//DTD SVG 1.1//EN"
 "http://www.w3.org/Graphics/SVG/1.1/DTD/svg11.dtd">
<!-- Generated by graphviz version 9.0.0 (20230911.1827)
 -->
<!-- Title: /github/workspace/dev_area/sourcecode/timing/include/timing/I2CSlave.hpp Pages: 1 -->
<svg width="1704pt" height="404pt"
 viewBox="0.00 0.00 1704.38 403.75" xmlns="http://www.w3.org/2000/svg" xmlns:xlink="http://www.w3.org/1999/xlink">
<g id="graph0" class="graph" transform="scale(1 1) rotate(0) translate(4 399.75)">
<title>/github/workspace/dev_area/sourcecode/timing/include/timing/I2CSlave.hpp</title>
<!-- Node1 -->
<g id="Node000001" class="node">
<title>Node1</title>
<g id="a_Node000001"><a xlink:title=" ">
<polygon fill="#999999" stroke="#666666" points="1281.88,-395.75 1142.12,-395.75 1142.12,-354 1281.88,-354 1281.88,-395.75"/>
<text text-anchor="start" x="1150.12" y="-382.25" font-family="Helvetica,sans-Serif" font-size="10.00">/github/workspace/dev</text>
<text text-anchor="start" x="1150.12" y="-371" font-family="Helvetica,sans-Serif" font-size="10.00">_area/sourcecode/timing</text>
<text text-anchor="middle" x="1212" y="-359.75" font-family="Helvetica,sans-Serif" font-size="10.00">/include/timing/I2CSlave.hpp</text>
</a>
</g>
</g>
<!-- Node2 -->
<g id="Node000002" class="node">
<title>Node2</title>
<g id="a_Node000002"><a xlink:href="include_2timing_2TimingIssues_8hpp.html" target="_top" xlink:title=" ">
<polygon fill="white" stroke="#666666" points="708.25,-318 615.75,-318 615.75,-298.75 708.25,-298.75 708.25,-318"/>
<text text-anchor="middle" x="662" y="-304.5" font-family="Helvetica,sans-Serif" font-size="10.00">TimingIssues.hpp</text>
</a>
</g>
</g>
<!-- Node1&#45;&gt;Node2 -->
<g id="edge1_Node000001_Node000002" class="edge">
<title>Node1&#45;&gt;Node2</title>
<g id="a_edge1_Node000001_Node000002"><a xlink:title=" ">
<path fill="none" stroke="#63b8ff" d="M1141.78,-365.64C1031.92,-352.76 821.45,-328.07 719.78,-316.15"/>
<polygon fill="#63b8ff" stroke="#63b8ff" points="720.37,-312.7 710.03,-315.01 719.55,-319.65 720.37,-312.7"/>
</a>
</g>
</g>
<!-- Node3 -->
<g id="Node000003" class="node">
<title>Node3</title>
<g id="a_Node000003"><a xlink:href="Issue_8hpp.html" target="_top" xlink:title=" ">
<polygon fill="white" stroke="#666666" points="699.25,-262.75 624.75,-262.75 624.75,-243.5 699.25,-243.5 699.25,-262.75"/>
<text text-anchor="middle" x="662" y="-249.25" font-family="Helvetica,sans-Serif" font-size="10.00">ers/Issue.hpp</text>
</a>
</g>
</g>
<!-- Node1&#45;&gt;Node3 -->
<g id="edge39_Node000001_Node000003" class="edge">
<title>Node1&#45;&gt;Node3</title>
<g id="a_edge39_Node000001_Node000003"><a xlink:title=" ">
<path fill="none" stroke="#63b8ff" d="M1141.78,-358.59C1028.55,-333.93 808.44,-286.01 710.74,-264.74"/>
<polygon fill="#63b8ff" stroke="#63b8ff" points="711.72,-261.37 701.2,-262.66 710.23,-268.21 711.72,-261.37"/>
</a>
</g>
</g>
<!-- Node8 -->
<g id="Node000008" class="node">
<title>Node8</title>
<g id="a_Node000008"><a xlink:title=" ">
<polygon fill="#e0e0e0" stroke="#999999" points="141,-74.5 101,-74.5 101,-55.25 141,-55.25 141,-74.5"/>
<text text-anchor="middle" x="121" y="-61" font-family="Helvetica,sans-Serif" font-size="10.00">string</text>
</a>
</g>
</g>
<!-- Node1&#45;&gt;Node8 -->
<g id="edge42_Node000001_Node000008" class="edge">
<title>Node1&#45;&gt;Node8</title>
<g id="a_edge42_Node000001_Node000008"><a xlink:title=" ">
<path fill="none" stroke="#63b8ff" d="M1142.04,-374.35C883.94,-375.21 0,-369.69 0,-254.12 0,-254.12 0,-254.12 0,-191.25 0,-138.8 55.5,-99.89 91.33,-80.23"/>
<polygon fill="#63b8ff" stroke="#63b8ff" points="92.74,-83.45 99.95,-75.69 89.47,-77.25 92.74,-83.45"/>
</a>
</g>
</g>
<!-- Node15 -->
<g id="Node000015" class="node">
<title>Node15</title>
<g id="a_Node000015"><a xlink:title=" ">
<polygon fill="#e0e0e0" stroke="#999999" points="354.5,-74.5 311.5,-74.5 311.5,-55.25 354.5,-55.25 354.5,-74.5"/>
<text text-anchor="middle" x="333" y="-61" font-family="Helvetica,sans-Serif" font-size="10.00">vector</text>
</a>
</g>
</g>
<!-- Node1&#45;&gt;Node15 -->
<g id="edge43_Node000001_Node000015" class="edge">
<title>Node1&#45;&gt;Node15</title>
<g id="a_edge43_Node000001_Node000015"><a xlink:title=" ">
<path fill="none" stroke="#63b8ff" d="M1282.21,-359.52C1336.33,-343.88 1402,-312.81 1402,-254.12 1402,-254.12 1402,-254.12 1402,-191.25 1402,-147.32 1383.62,-131.43 1345,-110.5 1250.57,-59.32 485.74,-86.43 379,-74.5 374.8,-74.03 370.4,-73.39 366.06,-72.68"/>
<polygon fill="#63b8ff" stroke="#63b8ff" points="366.85,-69.27 356.38,-70.93 365.6,-76.15 366.85,-69.27"/>
</a>
</g>
</g>
<!-- Node29 -->
<g id="Node000029" class="node">
<title>Node29</title>
<g id="a_Node000029"><a xlink:title=" ">
<polygon fill="#e0e0e0" stroke="#999999" points="1541.62,-318 1430.38,-318 1430.38,-298.75 1541.62,-298.75 1541.62,-318"/>
<text text-anchor="middle" x="1486" y="-304.5" font-family="Helvetica,sans-Serif" font-size="10.00">uhal/DerivedNode.hpp</text>
</a>
</g>
</g>
<!-- Node1&#45;&gt;Node29 -->
<g id="edge40_Node000001_Node000029" class="edge">
<title>Node1&#45;&gt;Node29</title>
<g id="a_edge40_Node000001_Node000029"><a xlink:title=" ">
<path fill="none" stroke="#63b8ff" d="M1282.21,-357.35C1330.38,-346.01 1393.15,-331.23 1436.23,-321.09"/>
<polygon fill="#63b8ff" stroke="#63b8ff" points="1436.87,-324.54 1445.8,-318.84 1435.27,-317.72 1436.87,-324.54"/>
</a>
</g>
</g>
<!-- Node30 -->
<g id="Node000030" class="node">
<title>Node30</title>
<g id="a_Node000030"><a xlink:title=" ">
<polygon fill="#e0e0e0" stroke="#999999" points="1696.38,-318 1559.62,-318 1559.62,-298.75 1696.38,-298.75 1696.38,-318"/>
<text text-anchor="middle" x="1628" y="-304.5" font-family="Helvetica,sans-Serif" font-size="10.00">boost/core/noncopyable.hpp</text>
</a>
</g>
</g>
<!-- Node1&#45;&gt;Node30 -->
<g id="edge41_Node000001_Node000030" class="edge">
<title>Node1&#45;&gt;Node30</title>
<g id="a_edge41_Node000001_Node000030"><a xlink:title=" ">
<path fill="none" stroke="#63b8ff" d="M1282.1,-363.01C1359.01,-351.08 1481.72,-332.06 1558.42,-320.16"/>
<polygon fill="#63b8ff" stroke="#63b8ff" points="1558.55,-323.68 1567.9,-318.69 1557.48,-316.77 1558.55,-323.68"/>
</a>
</g>
</g>
<!-- Node2&#45;&gt;Node3 -->
<g id="edge2_Node000002_Node000003" class="edge">
<title>Node2&#45;&gt;Node3</title>
<g id="a_edge2_Node000002_Node000003"><a xlink:title=" ">
<path fill="none" stroke="#63b8ff" d="M662,-298.58C662,-292.07 662,-282.92 662,-274.62"/>
<polygon fill="#63b8ff" stroke="#63b8ff" points="665.5,-274.62 662,-264.62 658.5,-274.62 665.5,-274.62"/>
</a>
</g>
</g>
<!-- Node2&#45;&gt;Node8 -->
<g id="edge38_Node000002_Node000008" class="edge">
<title>Node2&#45;&gt;Node8</title>
<g id="a_edge38_Node000002_Node000008"><a xlink:title=" ">
<path fill="none" stroke="#63b8ff" d="M615.36,-304.39C498,-296.02 194.35,-268.83 117,-207.5 81.74,-179.54 73.92,-153.24 88,-110.5 91.3,-100.48 97.82,-90.87 104.19,-83.15"/>
<polygon fill="#63b8ff" stroke="#63b8ff" points="106.61,-85.69 110.66,-75.9 101.39,-81.03 106.61,-85.69"/>
</a>
</g>
</g>
<!-- Node4 -->
<g id="Node000004" class="node">
<title>Node4</title>
<g id="a_Node000004"><a xlink:title=" ">
<polygon fill="#e0e0e0" stroke="#999999" points="618.62,-201.88 573.38,-201.88 573.38,-182.62 618.62,-182.62 618.62,-201.88"/>
<text text-anchor="middle" x="596" y="-188.38" font-family="Helvetica,sans-Serif" font-size="10.00">math.h</text>
</a>
</g>
</g>
<!-- Node3&#45;&gt;Node4 -->
<g id="edge3_Node000003_Node000004" class="edge">
<title>Node3&#45;&gt;Node4</title>
<g id="a_edge3_Node000003_Node000004"><a xlink:title=" ">
<path fill="none" stroke="#63b8ff" d="M651.98,-243.18C642.09,-234.37 626.74,-220.68 614.62,-209.86"/>
<polygon fill="#63b8ff" stroke="#63b8ff" points="617.04,-207.33 607.25,-203.28 612.38,-212.55 617.04,-207.33"/>
</a>
</g>
</g>
<!-- Node5 -->
<g id="Node000005" class="node">
<title>Node5</title>
<g id="a_Node000005"><a xlink:title=" ">
<polygon fill="#e0e0e0" stroke="#999999" points="1023.25,-201.88 978.75,-201.88 978.75,-182.62 1023.25,-182.62 1023.25,-201.88"/>
<text text-anchor="middle" x="1001" y="-188.38" font-family="Helvetica,sans-Serif" font-size="10.00">stdio.h</text>
</a>
</g>
</g>
<!-- Node3&#45;&gt;Node5 -->
<g id="edge4_Node000003_Node000005" class="edge">
<title>Node3&#45;&gt;Node5</title>
<g id="a_edge4_Node000003_Node000005"><a xlink:title=" ">
<path fill="none" stroke="#63b8ff" d="M699.72,-250.15C758.53,-246.29 875.18,-235.53 970,-207.5 970.99,-207.21 972,-206.89 973,-206.54"/>
<polygon fill="#63b8ff" stroke="#63b8ff" points="974.24,-209.82 982.23,-202.85 971.64,-203.32 974.24,-209.82"/>
</a>
</g>
</g>
<!-- Node6 -->
<g id="Node000006" class="node">
<title>Node6</title>
<g id="a_Node000006"><a xlink:title=" ">
<polygon fill="#e0e0e0" stroke="#999999" points="1088.75,-201.88 1041.25,-201.88 1041.25,-182.62 1088.75,-182.62 1088.75,-201.88"/>
<text text-anchor="middle" x="1065" y="-188.38" font-family="Helvetica,sans-Serif" font-size="10.00">string.h</text>
</a>
</g>
</g>
<!-- Node3&#45;&gt;Node6 -->
<g id="edge5_Node000003_Node000006" class="edge">
<title>Node3&#45;&gt;Node6</title>
<g id="a_edge5_Node000003_Node000006"><a xlink:title=" ">
<path fill="none" stroke="#63b8ff" d="M699.7,-251.14C767.38,-248.59 913.48,-239.52 1032,-207.5 1033.36,-207.13 1034.73,-206.72 1036.1,-206.28"/>
<polygon fill="#63b8ff" stroke="#63b8ff" points="1036.96,-209.69 1045.07,-202.88 1034.48,-203.15 1036.96,-209.69"/>
</a>
</g>
</g>
<!-- Node7 -->
<g id="Node000007" class="node">
<title>Node7</title>
<g id="a_Node000007"><a xlink:title=" ">
<polygon fill="#e0e0e0" stroke="#999999" points="138.38,-135.38 103.62,-135.38 103.62,-116.12 138.38,-116.12 138.38,-135.38"/>
<text text-anchor="middle" x="121" y="-121.88" font-family="Helvetica,sans-Serif" font-size="10.00">map</text>
</a>
</g>
</g>
<!-- Node3&#45;&gt;Node7 -->
<g id="edge6_Node000003_Node000007" class="edge">
<title>Node3&#45;&gt;Node7</title>
<g id="a_edge6_Node000003_Node000007"><a xlink:title=" ">
<path fill="none" stroke="#63b8ff" d="M624.26,-250.69C533.29,-246.83 304.2,-234.64 233,-207.5 195.32,-193.14 158.79,-162.78 138.18,-143.65"/>
<polygon fill="#63b8ff" stroke="#63b8ff" points="140.63,-141.15 130.98,-136.79 135.81,-146.22 140.63,-141.15"/>
</a>
</g>
</g>
<!-- Node3&#45;&gt;Node8 -->
<g id="edge7_Node000003_Node000008" class="edge">
<title>Node3&#45;&gt;Node8</title>
<g id="a_edge7_Node000003_Node000008"><a xlink:title=" ">
<path fill="none" stroke="#63b8ff" d="M624.41,-251.47C525.13,-249.31 258.06,-240.5 177,-207.5 133.54,-189.81 115.19,-183.36 95,-141 86.04,-122.19 96.68,-99.45 106.93,-83.95"/>
<polygon fill="#63b8ff" stroke="#63b8ff" points="109.54,-86.32 112.51,-76.15 103.84,-82.24 109.54,-86.32"/>
</a>
</g>
</g>
<!-- Node9 -->
<g id="Node000009" class="node">
<title>Node9</title>
<g id="a_Node000009"><a xlink:title=" ">
<polygon fill="#e0e0e0" stroke="#999999" points="467.75,-19.25 414.25,-19.25 414.25,0 467.75,0 467.75,-19.25"/>
<text text-anchor="middle" x="441" y="-5.75" font-family="Helvetica,sans-Serif" font-size="10.00">iostream</text>
</a>
</g>
</g>
<!-- Node3&#45;&gt;Node9 -->
<g id="edge8_Node000003_Node000009" class="edge">
<title>Node3&#45;&gt;Node9</title>
<g id="a_edge8_Node000003_Node000009"><a xlink:title=" ">
<path fill="none" stroke="#63b8ff" d="M699.69,-250.59C855.2,-243.6 1434.68,-210.63 1345,-110.5 1286.29,-44.95 644.35,-17.83 479.44,-11.91"/>
<polygon fill="#63b8ff" stroke="#63b8ff" points="479.6,-8.42 469.48,-11.56 479.35,-15.41 479.6,-8.42"/>
</a>
</g>
</g>
<!-- Node10 -->
<g id="Node000010" class="node">
<title>Node10</title>
<g id="a_Node000010"><a xlink:title=" ">
<polygon fill="#e0e0e0" stroke="#999999" points="687.62,-201.88 636.38,-201.88 636.38,-182.62 687.62,-182.62 687.62,-201.88"/>
<text text-anchor="middle" x="662" y="-188.38" font-family="Helvetica,sans-Serif" font-size="10.00">sstream</text>
</a>
</g>
</g>
<!-- Node3&#45;&gt;Node10 -->
<g id="edge9_Node000003_Node000010" class="edge">
<title>Node3&#45;&gt;Node10</title>
<g id="a_edge9_Node000003_Node000010"><a xlink:title=" ">
<path fill="none" stroke="#63b8ff" d="M662,-243.18C662,-235.4 662,-223.83 662,-213.78"/>
<polygon fill="#63b8ff" stroke="#63b8ff" points="665.5,-213.79 662,-203.79 658.5,-213.79 665.5,-213.79"/>
</a>
</g>
</g>
<!-- Node11 -->
<g id="Node000011" class="node">
<title>Node11</title>
<g id="a_Node000011"><a xlink:title=" ">
<polygon fill="#e0e0e0" stroke="#999999" points="756.25,-201.88 705.75,-201.88 705.75,-182.62 756.25,-182.62 756.25,-201.88"/>
<text text-anchor="middle" x="731" y="-188.38" font-family="Helvetica,sans-Serif" font-size="10.00">memory</text>
</a>
</g>
</g>
<!-- Node3&#45;&gt;Node11 -->
<g id="edge10_Node000003_Node000011" class="edge">
<title>Node3&#45;&gt;Node11</title>
<g id="a_edge10_Node000003_Node000011"><a xlink:title=" ">
<path fill="none" stroke="#63b8ff" d="M672.48,-243.18C682.92,-234.28 699.17,-220.41 711.91,-209.54"/>
<polygon fill="#63b8ff" stroke="#63b8ff" points="713.94,-212.41 719.27,-203.26 709.39,-207.09 713.94,-212.41"/>
</a>
</g>
</g>
<!-- Node12 -->
<g id="Node000012" class="node">
<title>Node12</title>
<g id="a_Node000012"><a xlink:title=" ">
<polygon fill="#e0e0e0" stroke="#999999" points="381.62,-135.38 336.38,-135.38 336.38,-116.12 381.62,-116.12 381.62,-135.38"/>
<text text-anchor="middle" x="359" y="-121.88" font-family="Helvetica,sans-Serif" font-size="10.00">chrono</text>
</a>
</g>
</g>
<!-- Node3&#45;&gt;Node12 -->
<g id="edge11_Node000003_Node000012" class="edge">
<title>Node3&#45;&gt;Node12</title>
<g id="a_edge11_Node000003_Node000012"><a xlink:title=" ">
<path fill="none" stroke="#63b8ff" d="M624.64,-251.24C578.44,-248.71 498.62,-239.59 439,-207.5 410.7,-192.27 386.04,-163.74 371.83,-145"/>
<polygon fill="#63b8ff" stroke="#63b8ff" points="374.68,-142.96 365.95,-136.96 369.03,-147.09 374.68,-142.96"/>
</a>
</g>
</g>
<!-- Node13 -->
<g id="Node000013" class="node">
<title>Node13</title>
<g id="a_Node000013"><a xlink:title=" ">
<polygon fill="#e0e0e0" stroke="#999999" points="803.4,-201.88 774.6,-201.88 774.6,-182.62 803.4,-182.62 803.4,-201.88"/>
<text text-anchor="middle" x="789" y="-188.38" font-family="Helvetica,sans-Serif" font-size="10.00">list</text>
</a>
</g>
</g>
<!-- Node3&#45;&gt;Node13 -->
<g id="edge12_Node000003_Node000013" class="edge">
<title>Node3&#45;&gt;Node13</title>
<g id="a_edge12_Node000003_Node000013"><a xlink:title=" ">
<path fill="none" stroke="#63b8ff" d="M685.3,-243.02C704.45,-235.33 732.4,-223.62 764.39,-207.45"/>
<polygon fill="#63b8ff" stroke="#63b8ff" points="765.8,-210.66 773.1,-202.98 762.6,-204.44 765.8,-210.66"/>
</a>
</g>
</g>
<!-- Node14 -->
<g id="Node000014" class="node">
<title>Node14</title>
<g id="a_Node000014"><a xlink:href="IssueFactory_8hpp.html" target="_top" xlink:title=" ">
<polygon fill="white" stroke="#666666" points="366.38,-201.88 259.62,-201.88 259.62,-182.62 366.38,-182.62 366.38,-201.88"/>
<text text-anchor="middle" x="313" y="-188.38" font-family="Helvetica,sans-Serif" font-size="10.00">ers/IssueFactory.hpp</text>
</a>
</g>
</g>
<!-- Node3&#45;&gt;Node14 -->
<g id="edge13_Node000003_Node000014" class="edge">
<title>Node3&#45;&gt;Node14</title>
<g id="a_edge13_Node000003_Node000014"><a xlink:title=" ">
<path fill="none" stroke="#63b8ff" d="M624.26,-246.12C571.87,-237.75 474.15,-221.94 391,-207.5 385.15,-206.48 379.06,-205.41 372.97,-204.32"/>
<polygon fill="#63b8ff" stroke="#63b8ff" points="374.03,-200.95 363.56,-202.62 372.78,-207.84 374.03,-200.95"/>
</a>
</g>
</g>
<!-- Node16 -->
<g id="Node000016" class="node">
<title>Node16</title>
<g id="a_Node000016"><a xlink:href="Severity_8hpp.html" target="_top" xlink:title=" ">
<polygon fill="white" stroke="#666666" points="279.88,-135.38 194.12,-135.38 194.12,-116.12 279.88,-116.12 279.88,-135.38"/>
<text text-anchor="middle" x="237" y="-121.88" font-family="Helvetica,sans-Serif" font-size="10.00">ers/Severity.hpp</text>
</a>
</g>
</g>
<!-- Node3&#45;&gt;Node16 -->
<g id="edge30_Node000003_Node000016" class="edge">
<title>Node3&#45;&gt;Node16</title>
<g id="a_edge30_Node000003_Node000016"><a xlink:title=" ">
<path fill="none" stroke="#63b8ff" d="M624.52,-250.59C528.27,-246.31 277.99,-232.82 251,-207.5 234.81,-192.31 233.16,-165.65 234.33,-147.14"/>
<polygon fill="#63b8ff" stroke="#63b8ff" points="237.8,-147.67 235.3,-137.37 230.83,-146.97 237.8,-147.67"/>
</a>
</g>
</g>
<!-- Node17 -->
<g id="Node000017" class="node">
<title>Node17</title>
<g id="a_Node000017"><a xlink:href="LocalContext_8hpp.html" target="_top" xlink:title=" ">
<polygon fill="white" stroke="#666666" points="555.75,-201.88 448.25,-201.88 448.25,-182.62 555.75,-182.62 555.75,-201.88"/>
<text text-anchor="middle" x="502" y="-188.38" font-family="Helvetica,sans-Serif" font-size="10.00">ers/LocalContext.hpp</text>
</a>
</g>
</g>
<!-- Node3&#45;&gt;Node17 -->
<g id="edge22_Node000003_Node000017" class="edge">
<title>Node3&#45;&gt;Node17</title>
<g id="a_edge22_Node000003_Node000017"><a xlink:title=" ">
<path fill="none" stroke="#63b8ff" d="M637.35,-243.05C610.57,-233.2 567.56,-217.38 537.23,-206.21"/>
<polygon fill="#63b8ff" stroke="#63b8ff" points="538.69,-203.02 528.1,-202.85 536.27,-209.59 538.69,-203.02"/>
</a>
</g>
</g>
<!-- Node22 -->
<g id="Node000022" class="node">
<title>Node22</title>
<g id="a_Node000022"><a xlink:href="IssueDeclarationMacro_8hpp.html" target="_top" xlink:title=" ">
<polygon fill="white" stroke="#666666" points="960.88,-207.5 821.12,-207.5 821.12,-177 960.88,-177 960.88,-207.5"/>
<text text-anchor="start" x="829.12" y="-194" font-family="Helvetica,sans-Serif" font-size="10.00">ers/internal/IssueDeclaration</text>
<text text-anchor="middle" x="891" y="-182.75" font-family="Helvetica,sans-Serif" font-size="10.00">Macro.hpp</text>
</a>
</g>
</g>
<!-- Node3&#45;&gt;Node22 -->
<g id="edge31_Node000003_Node000022" class="edge">
<title>Node3&#45;&gt;Node22</title>
<g id="a_edge31_Node000003_Node000022"><a xlink:title=" ">
<path fill="none" stroke="#63b8ff" d="M697.28,-243.05C730.61,-234.49 781.5,-221.4 822.76,-210.79"/>
<polygon fill="#63b8ff" stroke="#63b8ff" points="823.56,-214.2 832.38,-208.32 821.82,-207.42 823.56,-214.2"/>
</a>
</g>
</g>
<!-- Node14&#45;&gt;Node7 -->
<g id="edge17_Node000014_Node000007" class="edge">
<title>Node14&#45;&gt;Node7</title>
<g id="a_edge17_Node000014_Node000007"><a xlink:title=" ">
<path fill="none" stroke="#63b8ff" d="M279.58,-182.18C246.72,-172.94 195.33,-157.64 152,-141 151.06,-140.64 150.1,-140.26 149.14,-139.87"/>
<polygon fill="#63b8ff" stroke="#63b8ff" points="150.82,-136.79 140.25,-136.03 148.05,-143.21 150.82,-136.79"/>
</a>
</g>
</g>
<!-- Node14&#45;&gt;Node8 -->
<g id="edge15_Node000014_Node000008" class="edge">
<title>Node14&#45;&gt;Node8</title>
<g id="a_edge15_Node000014_Node000008"><a xlink:title=" ">
<path fill="none" stroke="#63b8ff" d="M276.73,-182.19C249.73,-174.28 212.89,-160.9 185,-141 163.05,-125.34 143.91,-100.55 132.41,-83.77"/>
<polygon fill="#63b8ff" stroke="#63b8ff" points="135.56,-82.18 127.12,-75.77 129.72,-86.04 135.56,-82.18"/>
</a>
</g>
</g>
<!-- Node14&#45;&gt;Node12 -->
<g id="edge14_Node000014_Node000012" class="edge">
<title>Node14&#45;&gt;Node12</title>
<g id="a_edge14_Node000014_Node000012"><a xlink:title=" ">
<path fill="none" stroke="#63b8ff" d="M319.4,-182.28C326.26,-172.65 337.35,-157.1 346.06,-144.9"/>
<polygon fill="#63b8ff" stroke="#63b8ff" points="348.82,-147.05 351.78,-136.87 343.12,-142.98 348.82,-147.05"/>
</a>
</g>
</g>
<!-- Node14&#45;&gt;Node15 -->
<g id="edge16_Node000014_Node000015" class="edge">
<title>Node14&#45;&gt;Node15</title>
<g id="a_edge16_Node000014_Node000015"><a xlink:title=" ">
<path fill="none" stroke="#63b8ff" d="M314.44,-182.23C317.64,-162.17 325.41,-113.45 329.82,-85.83"/>
<polygon fill="#63b8ff" stroke="#63b8ff" points="333.22,-86.73 331.34,-76.3 326.3,-85.63 333.22,-86.73"/>
</a>
</g>
</g>
<!-- Node14&#45;&gt;Node16 -->
<g id="edge18_Node000014_Node000016" class="edge">
<title>Node14&#45;&gt;Node16</title>
<g id="a_edge18_Node000014_Node000016"><a xlink:title=" ">
<path fill="none" stroke="#63b8ff" d="M302.43,-182.28C290.41,-172.08 270.54,-155.21 255.84,-142.74"/>
<polygon fill="#63b8ff" stroke="#63b8ff" points="258.52,-140.42 248.63,-136.62 253.99,-145.76 258.52,-140.42"/>
</a>
</g>
</g>
<!-- Node16&#45;&gt;Node8 -->
<g id="edge19_Node000016_Node000008" class="edge">
<title>Node16&#45;&gt;Node8</title>
<g id="a_edge19_Node000016_Node000008"><a xlink:title=" ">
<path fill="none" stroke="#63b8ff" d="M219.13,-115.68C200.34,-106.14 170.54,-91.02 148.7,-79.93"/>
<polygon fill="#63b8ff" stroke="#63b8ff" points="150.55,-76.95 140.05,-75.54 147.38,-83.19 150.55,-76.95"/>
</a>
</g>
</g>
<!-- Node16&#45;&gt;Node9 -->
<g id="edge21_Node000016_Node000009" class="edge">
<title>Node16&#45;&gt;Node9</title>
<g id="a_edge21_Node000016_Node000009"><a xlink:title=" ">
<path fill="none" stroke="#63b8ff" d="M243.1,-115.69C253.49,-100.93 276.04,-71.7 302,-55.25 333.09,-35.55 373.64,-23.84 402.91,-17.4"/>
<polygon fill="#63b8ff" stroke="#63b8ff" points="403.36,-20.88 412.44,-15.41 401.93,-14.02 403.36,-20.88"/>
</a>
</g>
</g>
<!-- Node16&#45;&gt;Node15 -->
<g id="edge20_Node000016_Node000015" class="edge">
<title>Node16&#45;&gt;Node15</title>
<g id="a_edge20_Node000016_Node000015"><a xlink:title=" ">
<path fill="none" stroke="#63b8ff" d="M251.58,-115.81C266.66,-106.56 290.49,-91.95 308.48,-80.92"/>
<polygon fill="#63b8ff" stroke="#63b8ff" points="310.3,-83.9 316.99,-75.69 306.64,-77.94 310.3,-83.9"/>
</a>
</g>
</g>
<!-- Node18 -->
<g id="Node000018" class="node">
<title>Node18</title>
<g id="a_Node000018"><a xlink:title=" ">
<polygon fill="#e0e0e0" stroke="#999999" points="565.38,-135.38 500.62,-135.38 500.62,-116.12 565.38,-116.12 565.38,-135.38"/>
<text text-anchor="middle" x="533" y="-121.88" font-family="Helvetica,sans-Serif" font-size="10.00">sys/types.h</text>
</a>
</g>
</g>
<!-- Node17&#45;&gt;Node18 -->
<g id="edge23_Node000017_Node000018" class="edge">
<title>Node17&#45;&gt;Node18</title>
<g id="a_edge23_Node000017_Node000018"><a xlink:title=" ">
<path fill="none" stroke="#63b8ff" d="M506.31,-182.28C510.8,-172.94 517.97,-158.03 523.75,-146.01"/>
<polygon fill="#63b8ff" stroke="#63b8ff" points="526.89,-147.54 528.07,-137.01 520.58,-144.5 526.89,-147.54"/>
</a>
</g>
</g>
<!-- Node19 -->
<g id="Node000019" class="node">
<title>Node19</title>
<g id="a_Node000019"><a xlink:title=" ">
<polygon fill="#e0e0e0" stroke="#999999" points="632.88,-135.38 583.12,-135.38 583.12,-116.12 632.88,-116.12 632.88,-135.38"/>
<text text-anchor="middle" x="608" y="-121.88" font-family="Helvetica,sans-Serif" font-size="10.00">unistd.h</text>
</a>
</g>
</g>
<!-- Node17&#45;&gt;Node19 -->
<g id="edge24_Node000017_Node000019" class="edge">
<title>Node17&#45;&gt;Node19</title>
<g id="a_edge24_Node000017_Node000019"><a xlink:title=" ">
<path fill="none" stroke="#63b8ff" d="M516.74,-182.28C533.97,-171.8 562.74,-154.29 583.38,-141.73"/>
<polygon fill="#63b8ff" stroke="#63b8ff" points="585.03,-144.83 591.75,-136.64 581.39,-138.85 585.03,-144.83"/>
</a>
</g>
</g>
<!-- Node20 -->
<g id="Node000020" class="node">
<title>Node20</title>
<g id="a_Node000020"><a xlink:href="Context_8hpp.html" target="_top" xlink:title=" ">
<polygon fill="white" stroke="#666666" points="482.75,-135.38 399.25,-135.38 399.25,-116.12 482.75,-116.12 482.75,-135.38"/>
<text text-anchor="middle" x="441" y="-121.88" font-family="Helvetica,sans-Serif" font-size="10.00">ers/Context.hpp</text>
</a>
</g>
</g>
<!-- Node17&#45;&gt;Node20 -->
<g id="edge25_Node000017_Node000020" class="edge">
<title>Node17&#45;&gt;Node20</title>
<g id="a_edge25_Node000017_Node000020"><a xlink:title=" ">
<path fill="none" stroke="#63b8ff" d="M493.52,-182.28C484.14,-172.37 468.82,-156.16 457.13,-143.81"/>
<polygon fill="#63b8ff" stroke="#63b8ff" points="459.86,-141.6 450.45,-136.74 454.78,-146.41 459.86,-141.6"/>
</a>
</g>
</g>
<!-- Node20&#45;&gt;Node8 -->
<g id="edge26_Node000020_Node000008" class="edge">
<title>Node20&#45;&gt;Node8</title>
<g id="a_edge26_Node000020_Node000008"><a xlink:title=" ">
<path fill="none" stroke="#63b8ff" d="M411.27,-115.68C404.63,-113.82 397.61,-111.98 391,-110.5 305.59,-91.34 203.28,-76.64 152.63,-69.91"/>
<polygon fill="#63b8ff" stroke="#63b8ff" points="153.35,-66.48 142.98,-68.65 152.44,-73.42 153.35,-66.48"/>
</a>
</g>
</g>
<!-- Node20&#45;&gt;Node15 -->
<g id="edge27_Node000020_Node000015" class="edge">
<title>Node20&#45;&gt;Node15</title>
<g id="a_edge27_Node000020_Node000015"><a xlink:title=" ">
<path fill="none" stroke="#63b8ff" d="M424.6,-115.81C407.31,-106.38 379.82,-91.4 359.46,-80.3"/>
<polygon fill="#63b8ff" stroke="#63b8ff" points="361.34,-77.34 350.89,-75.63 357.99,-83.48 361.34,-77.34"/>
</a>
</g>
</g>
<!-- Node21 -->
<g id="Node000021" class="node">
<title>Node21</title>
<g id="a_Node000021"><a xlink:href="ers_2include_2ers_2Configuration_8hpp.html" target="_top" xlink:title=" ">
<polygon fill="white" stroke="#666666" points="494.38,-74.5 387.62,-74.5 387.62,-55.25 494.38,-55.25 494.38,-74.5"/>
<text text-anchor="middle" x="441" y="-61" font-family="Helvetica,sans-Serif" font-size="10.00">ers/Configuration.hpp</text>
</a>
</g>
</g>
<!-- Node20&#45;&gt;Node21 -->
<g id="edge28_Node000020_Node000021" class="edge">
<title>Node20&#45;&gt;Node21</title>
<g id="a_edge28_Node000020_Node000021"><a xlink:title=" ">
<path fill="none" stroke="#63b8ff" d="M441,-115.81C441,-108.03 441,-96.45 441,-86.41"/>
<polygon fill="#63b8ff" stroke="#63b8ff" points="444.5,-86.41 441,-76.41 437.5,-86.41 444.5,-86.41"/>
</a>
</g>
</g>
<!-- Node21&#45;&gt;Node9 -->
<g id="edge29_Node000021_Node000009" class="edge">
<title>Node21&#45;&gt;Node9</title>
<g id="a_edge29_Node000021_Node000009"><a xlink:title=" ">
<path fill="none" stroke="#63b8ff" d="M441,-55.08C441,-48.57 441,-39.42 441,-31.12"/>
<polygon fill="#63b8ff" stroke="#63b8ff" points="444.5,-31.12 441,-21.12 437.5,-31.12 444.5,-31.12"/>
</a>
</g>
</g>
<!-- Node23 -->
<g id="Node000023" class="node">
<title>Node23</title>
<g id="a_Node000023"><a xlink:title=" ">
<polygon fill="#e0e0e0" stroke="#999999" points="750.62,-141 651.38,-141 651.38,-110.5 750.62,-110.5 750.62,-141"/>
<text text-anchor="start" x="659.38" y="-127.5" font-family="Helvetica,sans-Serif" font-size="10.00">boost/preprocessor</text>
<text text-anchor="middle" x="701" y="-116.25" font-family="Helvetica,sans-Serif" font-size="10.00">/if.hpp</text>
</a>
</g>
</g>
<!-- Node22&#45;&gt;Node23 -->
<g id="edge32_Node000022_Node000023" class="edge">
<title>Node22&#45;&gt;Node23</title>
<g id="a_edge32_Node000022_Node000023"><a xlink:title=" ">
<path fill="none" stroke="#63b8ff" d="M847.89,-176.61C820.29,-167.25 784.27,-155.02 754.8,-145.01"/>
<polygon fill="#63b8ff" stroke="#63b8ff" points="756.3,-141.83 745.7,-141.93 754.05,-148.46 756.3,-141.83"/>
</a>
</g>
</g>
<!-- Node24 -->
<g id="Node000024" class="node">
<title>Node24</title>
<g id="a_Node000024"><a xlink:title=" ">
<polygon fill="#e0e0e0" stroke="#999999" points="867.62,-141 768.38,-141 768.38,-110.5 867.62,-110.5 867.62,-141"/>
<text text-anchor="start" x="776.38" y="-127.5" font-family="Helvetica,sans-Serif" font-size="10.00">boost/preprocessor</text>
<text text-anchor="middle" x="818" y="-116.25" font-family="Helvetica,sans-Serif" font-size="10.00">/seq.hpp</text>
</a>
</g>
</g>
<!-- Node22&#45;&gt;Node24 -->
<g id="edge33_Node000022_Node000024" class="edge">
<title>Node22&#45;&gt;Node24</title>
<g id="a_edge33_Node000022_Node000024"><a xlink:title=" ">
<path fill="none" stroke="#63b8ff" d="M874.44,-176.61C865.1,-168.37 853.26,-157.9 842.84,-148.69"/>
<polygon fill="#63b8ff" stroke="#63b8ff" points="845.44,-146.33 835.63,-142.33 840.81,-151.57 845.44,-146.33"/>
</a>
</g>
</g>
<!-- Node25 -->
<g id="Node000025" class="node">
<title>Node25</title>
<g id="a_Node000025"><a xlink:title=" ">
<polygon fill="#e0e0e0" stroke="#999999" points="984.62,-141 885.38,-141 885.38,-110.5 984.62,-110.5 984.62,-141"/>
<text text-anchor="start" x="893.38" y="-127.5" font-family="Helvetica,sans-Serif" font-size="10.00">boost/preprocessor</text>
<text text-anchor="middle" x="935" y="-116.25" font-family="Helvetica,sans-Serif" font-size="10.00">/tuple.hpp</text>
</a>
</g>
</g>
<!-- Node22&#45;&gt;Node25 -->
<g id="edge34_Node000022_Node000025" class="edge">
<title>Node22&#45;&gt;Node25</title>
<g id="a_edge34_Node000022_Node000025"><a xlink:title=" ">
<path fill="none" stroke="#63b8ff" d="M900.98,-176.61C906.22,-168.94 912.76,-159.36 918.7,-150.65"/>
<polygon fill="#63b8ff" stroke="#63b8ff" points="921.46,-152.81 924.2,-142.58 915.68,-148.87 921.46,-152.81"/>
</a>
</g>
</g>
<!-- Node26 -->
<g id="Node000026" class="node">
<title>Node26</title>
<g id="a_Node000026"><a xlink:title=" ">
<polygon fill="#e0e0e0" stroke="#999999" points="1101.62,-141 1002.38,-141 1002.38,-110.5 1101.62,-110.5 1101.62,-141"/>
<text text-anchor="start" x="1010.38" y="-127.5" font-family="Helvetica,sans-Serif" font-size="10.00">boost/preprocessor</text>
<text text-anchor="middle" x="1052" y="-116.25" font-family="Helvetica,sans-Serif" font-size="10.00">/logical.hpp</text>
</a>
</g>
</g>
<!-- Node22&#45;&gt;Node26 -->
<g id="edge35_Node000022_Node000026" class="edge">
<title>Node22&#45;&gt;Node26</title>
<g id="a_edge35_Node000022_Node000026"><a xlink:title=" ">
<path fill="none" stroke="#63b8ff" d="M927.53,-176.61C950.4,-167.45 980.11,-155.55 1004.76,-145.68"/>
<polygon fill="#63b8ff" stroke="#63b8ff" points="1005.95,-148.97 1013.93,-142 1003.34,-142.47 1005.95,-148.97"/>
</a>
</g>
</g>
<!-- Node27 -->
<g id="Node000027" class="node">
<title>Node27</title>
<g id="a_Node000027"><a xlink:title=" ">
<polygon fill="#e0e0e0" stroke="#999999" points="1218.62,-141 1119.38,-141 1119.38,-110.5 1218.62,-110.5 1218.62,-141"/>
<text text-anchor="start" x="1127.38" y="-127.5" font-family="Helvetica,sans-Serif" font-size="10.00">boost/preprocessor</text>
<text text-anchor="middle" x="1169" y="-116.25" font-family="Helvetica,sans-Serif" font-size="10.00">/stringize.hpp</text>
</a>
</g>
</g>
<!-- Node22&#45;&gt;Node27 -->
<g id="edge36_Node000022_Node000027" class="edge">
<title>Node22&#45;&gt;Node27</title>
<g id="a_edge36_Node000022_Node000027"><a xlink:title=" ">
<path fill="none" stroke="#63b8ff" d="M956.53,-176.58C997.65,-167.3 1052.08,-154.9 1108.16,-141.65"/>
<polygon fill="#63b8ff" stroke="#63b8ff" points="1108.63,-145.14 1117.55,-139.43 1107.02,-138.33 1108.63,-145.14"/>
</a>
</g>
</g>
<!-- Node28 -->
<g id="Node000028" class="node">
<title>Node28</title>
<g id="a_Node000028"><a xlink:title=" ">
<polygon fill="#e0e0e0" stroke="#999999" points="1335.62,-141 1236.38,-141 1236.38,-110.5 1335.62,-110.5 1335.62,-141"/>
<text text-anchor="start" x="1244.38" y="-127.5" font-family="Helvetica,sans-Serif" font-size="10.00">boost/preprocessor</text>
<text text-anchor="middle" x="1286" y="-116.25" font-family="Helvetica,sans-Serif" font-size="10.00">/comparison.hpp</text>
</a>
</g>
</g>
<!-- Node22&#45;&gt;Node28 -->
<g id="edge37_Node000022_Node000028" class="edge">
<title>Node22&#45;&gt;Node28</title>
<g id="a_edge37_Node000022_Node000028"><a xlink:title=" ">
<path fill="none" stroke="#63b8ff" d="M961.19,-178.44C964.16,-177.94 967.11,-177.46 970,-177 1080.75,-159.29 1112.35,-162.6 1224.93,-141.48"/>
<polygon fill="#63b8ff" stroke="#63b8ff" points="1225.43,-144.95 1234.6,-139.64 1224.12,-138.07 1225.43,-144.95"/>
</a>
</g>
</g>
</g>
</svg>
