<?xml version="1.0" encoding="UTF-8" standalone="no"?>
<!DOCTYPE svg PUBLIC "-//W3C//DTD SVG 1.1//EN"
 "http://www.w3.org/Graphics/SVG/1.1/DTD/svg11.dtd">
<!-- Generated by graphviz version 9.0.0 (20230911.1827)
 -->
<!-- Title: /github/workspace/dev_area/sourcecode/timinglibs/include/timinglibs/TimingIssues.hpp Pages: 1 -->
<svg width="945pt" height="294pt"
 viewBox="0.00 0.00 944.62 294.25" xmlns="http://www.w3.org/2000/svg" xmlns:xlink="http://www.w3.org/1999/xlink">
<g id="graph0" class="graph" transform="scale(1 1) rotate(0) translate(4 290.25)">
<title>/github/workspace/dev_area/sourcecode/timinglibs/include/timinglibs/TimingIssues.hpp</title>
<!-- Node1 -->
<g id="Node000001" class="node">
<title>Node1</title>
<g id="a_Node000001"><a xlink:title=" ">
<polygon fill="#999999" stroke="#666666" points="629,-286.25 455.5,-286.25 455.5,-244.5 629,-244.5 629,-286.25"/>
<text text-anchor="start" x="463.5" y="-272.75" font-family="Helvetica,sans-Serif" font-size="10.00">/github/workspace/dev</text>
<text text-anchor="start" x="463.5" y="-261.5" font-family="Helvetica,sans-Serif" font-size="10.00">_area/sourcecode/timinglibs</text>
<text text-anchor="middle" x="542.25" y="-250.25" font-family="Helvetica,sans-Serif" font-size="10.00">/include/timinglibs/TimingIssues.hpp</text>
</a>
</g>
</g>
<!-- Node2 -->
<g id="Node000002" class="node">
<title>Node2</title>
<g id="a_Node000002"><a xlink:href="sourcecode_2timinglibs_2include_2timinglibs_2TimingController_8hpp.html" target="_top" xlink:title=" ">
<polygon fill="white" stroke="#666666" points="396,-208.5 210.5,-208.5 210.5,-166.75 396,-166.75 396,-208.5"/>
<text text-anchor="start" x="218.5" y="-195" font-family="Helvetica,sans-Serif" font-size="10.00">/github/workspace/dev</text>
<text text-anchor="start" x="218.5" y="-183.75" font-family="Helvetica,sans-Serif" font-size="10.00">_area/sourcecode/timinglibs</text>
<text text-anchor="middle" x="303.25" y="-172.5" font-family="Helvetica,sans-Serif" font-size="10.00">/include/timinglibs/TimingController.hpp</text>
</a>
</g>
</g>
<!-- Node1&#45;&gt;Node2 -->
<g id="edge1_Node000001_Node000002" class="edge">
<title>Node1&#45;&gt;Node2</title>
<g id="a_edge1_Node000001_Node000002"><a xlink:title=" ">
<path fill="none" stroke="#63b8ff" d="M467.53,-240.69C435.44,-230.52 398.31,-218.75 367.47,-208.98"/>
<polygon fill="#63b8ff" stroke="#63b8ff" points="466.17,-243.93 476.76,-243.62 468.28,-237.26 466.17,-243.93"/>
</a>
</g>
</g>
<!-- Node4 -->
<g id="Node000004" class="node">
<title>Node4</title>
<g id="a_Node000004"><a xlink:href="sourcecode_2timinglibs_2src_2TimingEndpointControllerBase_8cpp.html" target="_top" xlink:title=" ">
<polygon fill="white" stroke="#666666" points="506.25,-41.75 322.25,-41.75 322.25,0 506.25,0 506.25,-41.75"/>
<text text-anchor="start" x="330.25" y="-28.25" font-family="Helvetica,sans-Serif" font-size="10.00">/github/workspace/dev</text>
<text text-anchor="start" x="330.25" y="-17" font-family="Helvetica,sans-Serif" font-size="10.00">_area/sourcecode/timinglibs</text>
<text text-anchor="middle" x="414.25" y="-5.75" font-family="Helvetica,sans-Serif" font-size="10.00">/src/TimingEndpointControllerBase.cpp</text>
</a>
</g>
</g>
<!-- Node1&#45;&gt;Node4 -->
<g id="edge8_Node000001_Node000004" class="edge">
<title>Node1&#45;&gt;Node4</title>
<g id="a_edge8_Node000001_Node000004"><a xlink:title=" ">
<path fill="none" stroke="#63b8ff" d="M547.61,-232.67C552.54,-192.86 554.96,-124.18 523.25,-77.75 512.57,-62.12 496.15,-50.61 479.26,-42.23"/>
<polygon fill="#63b8ff" stroke="#63b8ff" points="544.14,-232.15 546.24,-242.54 551.08,-233.11 544.14,-232.15"/>
</a>
</g>
</g>
<!-- Node5 -->
<g id="Node000005" class="node">
<title>Node5</title>
<g id="a_Node000005"><a xlink:href="sourcecode_2timinglibs_2src_2TimingController_8cpp.html" target="_top" xlink:title=" ">
<polygon fill="white" stroke="#666666" points="514,-125.12 376.5,-125.12 376.5,-83.38 514,-83.38 514,-125.12"/>
<text text-anchor="start" x="384.5" y="-111.62" font-family="Helvetica,sans-Serif" font-size="10.00">/github/workspace/dev</text>
<text text-anchor="start" x="384.5" y="-100.38" font-family="Helvetica,sans-Serif" font-size="10.00">_area/sourcecode/timinglibs</text>
<text text-anchor="middle" x="445.25" y="-89.12" font-family="Helvetica,sans-Serif" font-size="10.00">/src/TimingController.cpp</text>
</a>
</g>
</g>
<!-- Node1&#45;&gt;Node5 -->
<g id="edge7_Node000001_Node000005" class="edge">
<title>Node1&#45;&gt;Node5</title>
<g id="a_edge7_Node000001_Node000005"><a xlink:title=" ">
<path fill="none" stroke="#63b8ff" d="M524.07,-234.55C504.65,-202.7 474.41,-153.08 457.59,-125.49"/>
<polygon fill="#63b8ff" stroke="#63b8ff" points="520.98,-236.21 529.18,-242.93 526.96,-232.57 520.98,-236.21"/>
</a>
</g>
</g>
<!-- Node8 -->
<g id="Node000008" class="node">
<title>Node8</title>
<g id="a_Node000008"><a xlink:href="sourcecode_2timinglibs_2src_2TimingHardwareInterface_8cpp.html" target="_top" xlink:title=" ">
<polygon fill="white" stroke="#666666" points="733.75,-208.5 570.75,-208.5 570.75,-166.75 733.75,-166.75 733.75,-208.5"/>
<text text-anchor="start" x="578.75" y="-195" font-family="Helvetica,sans-Serif" font-size="10.00">/github/workspace/dev</text>
<text text-anchor="start" x="578.75" y="-183.75" font-family="Helvetica,sans-Serif" font-size="10.00">_area/sourcecode/timinglibs</text>
<text text-anchor="middle" x="652.25" y="-172.5" font-family="Helvetica,sans-Serif" font-size="10.00">/src/TimingHardwareInterface.cpp</text>
</a>
</g>
</g>
<!-- Node1&#45;&gt;Node8 -->
<g id="edge9_Node000001_Node000008" class="edge">
<title>Node1&#45;&gt;Node8</title>
<g id="a_edge9_Node000001_Node000008"><a xlink:title=" ">
<path fill="none" stroke="#63b8ff" d="M580.94,-237.73C594.65,-228.29 609.86,-217.82 622.69,-208.98"/>
<polygon fill="#63b8ff" stroke="#63b8ff" points="579.23,-234.66 572.97,-243.22 583.2,-240.43 579.23,-234.66"/>
</a>
</g>
</g>
<!-- Node9 -->
<g id="Node000009" class="node">
<title>Node9</title>
<g id="a_Node000009"><a xlink:href="sourcecode_2timinglibs_2src_2TimingHardwareManagerBase_8hpp.html" target="_top" xlink:title=" ">
<polygon fill="white" stroke="#666666" points="936.62,-208.5 751.88,-208.5 751.88,-166.75 936.62,-166.75 936.62,-208.5"/>
<text text-anchor="start" x="759.88" y="-195" font-family="Helvetica,sans-Serif" font-size="10.00">/github/workspace/dev</text>
<text text-anchor="start" x="759.88" y="-183.75" font-family="Helvetica,sans-Serif" font-size="10.00">_area/sourcecode/timinglibs</text>
<text text-anchor="middle" x="844.25" y="-172.5" font-family="Helvetica,sans-Serif" font-size="10.00">/src/TimingHardwareManagerBase.hpp</text>
</a>
</g>
</g>
<!-- Node1&#45;&gt;Node9 -->
<g id="edge10_Node000001_Node000009" class="edge">
<title>Node1&#45;&gt;Node9</title>
<g id="a_edge10_Node000001_Node000009"><a xlink:title=" ">
<path fill="none" stroke="#63b8ff" d="M634.3,-241.29C675.38,-230.98 723.37,-218.94 763.1,-208.98"/>
<polygon fill="#63b8ff" stroke="#63b8ff" points="633.5,-237.88 624.65,-243.71 635.2,-244.67 633.5,-237.88"/>
</a>
</g>
</g>
<!-- Node3 -->
<g id="Node000003" class="node">
<title>Node3</title>
<g id="a_Node000003"><a xlink:href="sourcecode_2timinglibs_2include_2timinglibs_2TimingEndpointControllerBase_8hpp.html" target="_top" xlink:title=" ">
<polygon fill="white" stroke="#666666" points="358.12,-130.75 194.38,-130.75 194.38,-77.75 358.12,-77.75 358.12,-130.75"/>
<text text-anchor="start" x="202.38" y="-117.25" font-family="Helvetica,sans-Serif" font-size="10.00">/github/workspace/dev</text>
<text text-anchor="start" x="202.38" y="-106" font-family="Helvetica,sans-Serif" font-size="10.00">_area/sourcecode/timinglibs</text>
<text text-anchor="start" x="202.38" y="-94.75" font-family="Helvetica,sans-Serif" font-size="10.00">/include/timinglibs/TimingEndpoint</text>
<text text-anchor="middle" x="276.25" y="-83.5" font-family="Helvetica,sans-Serif" font-size="10.00">ControllerBase.hpp</text>
</a>
</g>
</g>
<!-- Node2&#45;&gt;Node3 -->
<g id="edge2_Node000002_Node000003" class="edge">
<title>Node2&#45;&gt;Node3</title>
<g id="a_edge2_Node000002_Node000003"><a xlink:title=" ">
<path fill="none" stroke="#63b8ff" d="M293.03,-155.83C290.31,-147.63 287.41,-138.87 284.79,-130.98"/>
<polygon fill="#63b8ff" stroke="#63b8ff" points="289.63,-156.68 296.1,-165.07 296.27,-154.48 289.63,-156.68"/>
</a>
</g>
</g>
<!-- Node2&#45;&gt;Node5 -->
<g id="edge4_Node000002_Node000005" class="edge">
<title>Node2&#45;&gt;Node5</title>
<g id="a_edge4_Node000002_Node000005"><a xlink:title=" ">
<path fill="none" stroke="#63b8ff" d="M348.46,-160.72C368.27,-149.36 391.18,-136.23 409.74,-125.6"/>
<polygon fill="#63b8ff" stroke="#63b8ff" points="346.97,-157.54 340.03,-165.55 350.45,-163.61 346.97,-157.54"/>
</a>
</g>
</g>
<!-- Node6 -->
<g id="Node000006" class="node">
<title>Node6</title>
<g id="a_Node000006"><a xlink:href="sourcecode_2timinglibs_2src_2TimingMasterControllerBase_8hpp.html" target="_top" xlink:title=" ">
<polygon fill="white" stroke="#666666" points="176.5,-125.12 0,-125.12 0,-83.38 176.5,-83.38 176.5,-125.12"/>
<text text-anchor="start" x="8" y="-111.62" font-family="Helvetica,sans-Serif" font-size="10.00">/github/workspace/dev</text>
<text text-anchor="start" x="8" y="-100.38" font-family="Helvetica,sans-Serif" font-size="10.00">_area/sourcecode/timinglibs</text>
<text text-anchor="middle" x="88.25" y="-89.12" font-family="Helvetica,sans-Serif" font-size="10.00">/src/TimingMasterControllerBase.hpp</text>
</a>
</g>
</g>
<!-- Node2&#45;&gt;Node6 -->
<g id="edge5_Node000002_Node000006" class="edge">
<title>Node2&#45;&gt;Node6</title>
<g id="a_edge5_Node000002_Node000006"><a xlink:title=" ">
<path fill="none" stroke="#63b8ff" d="M238.88,-162.26C207.99,-150.57 171.39,-136.72 142.01,-125.6"/>
<polygon fill="#63b8ff" stroke="#63b8ff" points="237.54,-165.5 248.14,-165.76 240.02,-158.95 237.54,-165.5"/>
</a>
</g>
</g>
<!-- Node3&#45;&gt;Node4 -->
<g id="edge3_Node000003_Node000004" class="edge">
<title>Node3&#45;&gt;Node4</title>
<g id="a_edge3_Node000003_Node000004"><a xlink:title=" ">
<path fill="none" stroke="#63b8ff" d="M329.98,-71.57C346.72,-61.69 364.74,-51.07 379.79,-42.19"/>
<polygon fill="#63b8ff" stroke="#63b8ff" points="328.43,-68.42 321.6,-76.51 331.99,-74.45 328.43,-68.42"/>
</a>
</g>
</g>
<!-- Node7 -->
<g id="Node000007" class="node">
<title>Node7</title>
<g id="a_Node000007"><a xlink:href="sourcecode_2timinglibs_2src_2TimingMasterControllerBase_8cpp.html" target="_top" xlink:title=" ">
<polygon fill="white" stroke="#666666" points="176.5,-41.75 0,-41.75 0,0 176.5,0 176.5,-41.75"/>
<text text-anchor="start" x="8" y="-28.25" font-family="Helvetica,sans-Serif" font-size="10.00">/github/workspace/dev</text>
<text text-anchor="start" x="8" y="-17" font-family="Helvetica,sans-Serif" font-size="10.00">_area/sourcecode/timinglibs</text>
<text text-anchor="middle" x="88.25" y="-5.75" font-family="Helvetica,sans-Serif" font-size="10.00">/src/TimingMasterControllerBase.cpp</text>
</a>
</g>
</g>
<!-- Node6&#45;&gt;Node7 -->
<g id="edge6_Node000006_Node000007" class="edge">
<title>Node6&#45;&gt;Node7</title>
<g id="a_edge6_Node000006_Node000007"><a xlink:title=" ">
<path fill="none" stroke="#63b8ff" d="M88.25,-71.89C88.25,-61.87 88.25,-51.05 88.25,-42.04"/>
<polygon fill="#63b8ff" stroke="#63b8ff" points="84.75,-71.62 88.25,-81.62 91.75,-71.62 84.75,-71.62"/>
</a>
</g>
</g>
<!-- Node10 -->
<g id="Node000010" class="node">
<title>Node10</title>
<g id="a_Node000010"><a xlink:href="sourcecode_2timinglibs_2src_2TimingHardwareManagerBase_8cpp.html" target="_top" xlink:title=" ">
<polygon fill="white" stroke="#666666" points="936.62,-125.12 751.88,-125.12 751.88,-83.38 936.62,-83.38 936.62,-125.12"/>
<text text-anchor="start" x="759.88" y="-111.62" font-family="Helvetica,sans-Serif" font-size="10.00">/github/workspace/dev</text>
<text text-anchor="start" x="759.88" y="-100.38" font-family="Helvetica,sans-Serif" font-size="10.00">_area/sourcecode/timinglibs</text>
<text text-anchor="middle" x="844.25" y="-89.12" font-family="Helvetica,sans-Serif" font-size="10.00">/src/TimingHardwareManagerBase.cpp</text>
</a>
</g>
</g>
<!-- Node9&#45;&gt;Node10 -->
<g id="edge11_Node000009_Node000010" class="edge">
<title>Node9&#45;&gt;Node10</title>
<g id="a_edge11_Node000009_Node000010"><a xlink:title=" ">
<path fill="none" stroke="#63b8ff" d="M844.25,-155.27C844.25,-145.24 844.25,-134.42 844.25,-125.42"/>
<polygon fill="#63b8ff" stroke="#63b8ff" points="840.75,-155 844.25,-165 847.75,-155 840.75,-155"/>
</a>
</g>
</g>
</g>
</svg>
