<?xml version="1.0" encoding="UTF-8" standalone="no"?>
<!DOCTYPE svg PUBLIC "-//W3C//DTD SVG 1.1//EN"
 "http://www.w3.org/Graphics/SVG/1.1/DTD/svg11.dtd">
<!-- Generated by graphviz version 9.0.0 (20230911.1827)
 -->
<!-- Title: /github/workspace/dev_area/build/confmodel/codegen/include/confmodel/ResourceSetOR.hpp Pages: 1 -->
<svg width="1740pt" height="239pt"
 viewBox="0.00 0.00 1740.25 239.00" xmlns="http://www.w3.org/2000/svg" xmlns:xlink="http://www.w3.org/1999/xlink">
<g id="graph0" class="graph" transform="scale(1 1) rotate(0) translate(4 235)">
<title>/github/workspace/dev_area/build/confmodel/codegen/include/confmodel/ResourceSetOR.hpp</title>
<!-- Node1 -->
<g id="Node000001" class="node">
<title>Node1</title>
<g id="a_Node000001"><a xlink:title=" ">
<polygon fill="#999999" stroke="#666666" points="1121.38,-231 983.88,-231 983.88,-178 1121.38,-178 1121.38,-231"/>
<text text-anchor="start" x="991.88" y="-217.5" font-family="Helvetica,sans-Serif" font-size="10.00">/github/workspace/dev</text>
<text text-anchor="start" x="991.88" y="-206.25" font-family="Helvetica,sans-Serif" font-size="10.00">_area/build/confmodel</text>
<text text-anchor="start" x="991.88" y="-195" font-family="Helvetica,sans-Serif" font-size="10.00">/codegen/include/confmodel</text>
<text text-anchor="middle" x="1052.62" y="-183.75" font-family="Helvetica,sans-Serif" font-size="10.00">/ResourceSetOR.hpp</text>
</a>
</g>
</g>
<!-- Node2 -->
<g id="Node000002" class="node">
<title>Node2</title>
<g id="a_Node000002"><a xlink:href="include_2confmodel_2DetectorToDaqConnection_8hpp.html" target="_top" xlink:title=" ">
<polygon fill="white" stroke="#666666" points="958.12,-142 807.12,-142 807.12,-89 958.12,-89 958.12,-142"/>
<text text-anchor="start" x="815.12" y="-128.5" font-family="Helvetica,sans-Serif" font-size="10.00">/github/workspace/dev</text>
<text text-anchor="start" x="815.12" y="-117.25" font-family="Helvetica,sans-Serif" font-size="10.00">_area/build/confmodel</text>
<text text-anchor="start" x="815.12" y="-106" font-family="Helvetica,sans-Serif" font-size="10.00">/codegen/include/confmodel</text>
<text text-anchor="middle" x="882.62" y="-94.75" font-family="Helvetica,sans-Serif" font-size="10.00">/DetectorToDaqConnection.hpp</text>
</a>
</g>
</g>
<!-- Node1&#45;&gt;Node2 -->
<g id="edge1_Node000001_Node000002" class="edge">
<title>Node1&#45;&gt;Node2</title>
<g id="a_edge1_Node000001_Node000002"><a xlink:title=" ">
<path fill="none" stroke="#63b8ff" d="M991.92,-172.43C972.71,-162.6 951.7,-151.85 933.27,-142.42"/>
<polygon fill="#63b8ff" stroke="#63b8ff" points="990.24,-175.5 1000.73,-176.94 993.42,-169.27 990.24,-175.5"/>
</a>
</g>
</g>
<!-- Node5 -->
<g id="Node000005" class="node">
<title>Node5</title>
<g id="a_Node000005"><a xlink:href="dump__dunedaq____confmodel_8cpp.html" target="_top" xlink:title=" ">
<polygon fill="white" stroke="#666666" points="141.25,-53 0,-53 0,0 141.25,0 141.25,-53"/>
<text text-anchor="start" x="8" y="-39.5" font-family="Helvetica,sans-Serif" font-size="10.00">/github/workspace/dev</text>
<text text-anchor="start" x="8" y="-28.25" font-family="Helvetica,sans-Serif" font-size="10.00">_area/build/confmodel</text>
<text text-anchor="start" x="8" y="-17" font-family="Helvetica,sans-Serif" font-size="10.00">/codegen/src/dump_dunedaq</text>
<text text-anchor="middle" x="70.62" y="-5.75" font-family="Helvetica,sans-Serif" font-size="10.00">__confmodel.cpp</text>
</a>
</g>
</g>
<!-- Node1&#45;&gt;Node5 -->
<g id="edge14_Node000001_Node000005" class="edge">
<title>Node1&#45;&gt;Node5</title>
<g id="a_edge14_Node000001_Node000005"><a xlink:title=" ">
<path fill="none" stroke="#63b8ff" d="M972.44,-194.04C813.99,-174.5 450.16,-125.33 150.62,-53 147.65,-52.28 144.62,-51.51 141.58,-50.7"/>
<polygon fill="#63b8ff" stroke="#63b8ff" points="971.63,-197.47 981.99,-195.21 972.49,-190.52 971.63,-197.47"/>
</a>
</g>
</g>
<!-- Node10 -->
<g id="Node000010" class="node">
<title>Node10</title>
<g id="a_Node000010"><a xlink:href="dalMethods_8cpp.html" target="_top" xlink:title=" ">
<polygon fill="white" stroke="#666666" points="1732.25,-47.38 1591,-47.38 1591,-5.62 1732.25,-5.62 1732.25,-47.38"/>
<text text-anchor="start" x="1599" y="-33.88" font-family="Helvetica,sans-Serif" font-size="10.00">/github/workspace/dev</text>
<text text-anchor="start" x="1599" y="-22.62" font-family="Helvetica,sans-Serif" font-size="10.00">_area/sourcecode/confmodel</text>
<text text-anchor="middle" x="1661.62" y="-11.38" font-family="Helvetica,sans-Serif" font-size="10.00">/src/dalMethods.cpp</text>
</a>
</g>
</g>
<!-- Node1&#45;&gt;Node10 -->
<g id="edge15_Node000001_Node000010" class="edge">
<title>Node1&#45;&gt;Node10</title>
<g id="a_edge15_Node000001_Node000010"><a xlink:title=" ">
<path fill="none" stroke="#63b8ff" d="M1020.74,-169.1C1001.6,-144.27 984.66,-111.32 1005.62,-89 1049.61,-42.19 1519.51,-64.96 1582.62,-53 1589.71,-51.66 1597.03,-49.87 1604.24,-47.86"/>
<polygon fill="#63b8ff" stroke="#63b8ff" points="1017.86,-171.1 1026.87,-176.67 1023.29,-166.69 1017.86,-171.1"/>
</a>
</g>
</g>
<!-- Node13 -->
<g id="Node000013" class="node">
<title>Node13</title>
<g id="a_Node000013"><a xlink:href="src_2DetectorToDaqConnection_8hpp.html" target="_top" xlink:title=" ">
<polygon fill="white" stroke="#666666" points="1222.25,-136.38 1015,-136.38 1015,-94.62 1222.25,-94.62 1222.25,-136.38"/>
<text text-anchor="start" x="1023" y="-122.88" font-family="Helvetica,sans-Serif" font-size="10.00">/github/workspace/dev</text>
<text text-anchor="start" x="1023" y="-111.62" font-family="Helvetica,sans-Serif" font-size="10.00">_area/build/confmodel</text>
<text text-anchor="middle" x="1118.62" y="-100.38" font-family="Helvetica,sans-Serif" font-size="10.00">/codegen/src/DetectorToDaqConnection.hpp</text>
</a>
</g>
</g>
<!-- Node1&#45;&gt;Node13 -->
<g id="edge12_Node000001_Node000013" class="edge">
<title>Node1&#45;&gt;Node13</title>
<g id="a_edge12_Node000001_Node000013"><a xlink:title=" ">
<path fill="none" stroke="#63b8ff" d="M1078.85,-168.94C1087.14,-158.01 1096.02,-146.29 1103.29,-136.71"/>
<polygon fill="#63b8ff" stroke="#63b8ff" points="1076.24,-166.58 1072.98,-176.66 1081.82,-170.81 1076.24,-166.58"/>
</a>
</g>
</g>
<!-- Node14 -->
<g id="Node000014" class="node">
<title>Node14</title>
<g id="a_Node000014"><a xlink:href="ResourceSetOR_8cpp.html" target="_top" xlink:title=" ">
<polygon fill="white" stroke="#666666" points="1404.5,-136.38 1240.75,-136.38 1240.75,-94.62 1404.5,-94.62 1404.5,-136.38"/>
<text text-anchor="start" x="1248.75" y="-122.88" font-family="Helvetica,sans-Serif" font-size="10.00">/github/workspace/dev</text>
<text text-anchor="start" x="1248.75" y="-111.62" font-family="Helvetica,sans-Serif" font-size="10.00">_area/build/confmodel</text>
<text text-anchor="middle" x="1322.62" y="-100.38" font-family="Helvetica,sans-Serif" font-size="10.00">/codegen/src/ResourceSetOR.cpp</text>
</a>
</g>
</g>
<!-- Node1&#45;&gt;Node14 -->
<g id="edge13_Node000001_Node000014" class="edge">
<title>Node1&#45;&gt;Node14</title>
<g id="a_edge13_Node000001_Node000014"><a xlink:title=" ">
<path fill="none" stroke="#63b8ff" d="M1132.74,-177.68C1173.29,-164.62 1221.79,-148.99 1259.63,-136.8"/>
<polygon fill="#63b8ff" stroke="#63b8ff" points="1131.69,-174.35 1123.25,-180.74 1133.84,-181.01 1131.69,-174.35"/>
</a>
</g>
</g>
<!-- Node15 -->
<g id="Node000015" class="node">
<title>Node15</title>
<g id="a_Node000015"><a xlink:href="disabled-components_8cpp.html" target="_top" xlink:title=" ">
<polygon fill="white" stroke="#666666" points="1568.5,-136.38 1422.75,-136.38 1422.75,-94.62 1568.5,-94.62 1568.5,-136.38"/>
<text text-anchor="start" x="1430.75" y="-122.88" font-family="Helvetica,sans-Serif" font-size="10.00">/github/workspace/dev</text>
<text text-anchor="start" x="1430.75" y="-111.62" font-family="Helvetica,sans-Serif" font-size="10.00">_area/sourcecode/confmodel</text>
<text text-anchor="middle" x="1495.62" y="-100.38" font-family="Helvetica,sans-Serif" font-size="10.00">/src/disabled&#45;components.cpp</text>
</a>
</g>
</g>
<!-- Node1&#45;&gt;Node15 -->
<g id="edge16_Node000001_Node000015" class="edge">
<title>Node1&#45;&gt;Node15</title>
<g id="a_edge16_Node000001_Node000015"><a xlink:title=" ">
<path fill="none" stroke="#63b8ff" d="M1132.73,-192.97C1206.3,-182.56 1318.06,-164.89 1413.62,-142 1420,-140.47 1426.61,-138.72 1433.18,-136.86"/>
<polygon fill="#63b8ff" stroke="#63b8ff" points="1132.63,-189.45 1123.21,-194.3 1133.6,-196.38 1132.63,-189.45"/>
</a>
</g>
</g>
<!-- Node3 -->
<g id="Node000003" class="node">
<title>Node3</title>
<g id="a_Node000003"><a xlink:href="DataReaderModule_8cpp.html" target="_top" xlink:title=" ">
<polygon fill="white" stroke="#666666" points="335.5,-47.38 159.75,-47.38 159.75,-5.62 335.5,-5.62 335.5,-47.38"/>
<text text-anchor="start" x="167.75" y="-33.88" font-family="Helvetica,sans-Serif" font-size="10.00">/github/workspace/dev</text>
<text text-anchor="start" x="167.75" y="-22.62" font-family="Helvetica,sans-Serif" font-size="10.00">_area/build/appmodel</text>
<text text-anchor="middle" x="247.62" y="-11.38" font-family="Helvetica,sans-Serif" font-size="10.00">/codegen/src/DataReaderModule.cpp</text>
</a>
</g>
</g>
<!-- Node2&#45;&gt;Node3 -->
<g id="edge2_Node000002_Node000003" class="edge">
<title>Node2&#45;&gt;Node3</title>
<g id="a_edge2_Node000002_Node000003"><a xlink:title=" ">
<path fill="none" stroke="#63b8ff" d="M795.46,-108.4C688.58,-100.03 502.2,-82.56 344.62,-53 336.75,-51.52 328.58,-49.75 320.46,-47.84"/>
<polygon fill="#63b8ff" stroke="#63b8ff" points="795.08,-111.88 805.32,-109.16 795.62,-104.9 795.08,-111.88"/>
</a>
</g>
</g>
<!-- Node4 -->
<g id="Node000004" class="node">
<title>Node4</title>
<g id="a_Node000004"><a xlink:href="DetectorToDaqConnection_8cpp.html" target="_top" xlink:title=" ">
<polygon fill="white" stroke="#666666" points="561.25,-47.38 354,-47.38 354,-5.62 561.25,-5.62 561.25,-47.38"/>
<text text-anchor="start" x="362" y="-33.88" font-family="Helvetica,sans-Serif" font-size="10.00">/github/workspace/dev</text>
<text text-anchor="start" x="362" y="-22.62" font-family="Helvetica,sans-Serif" font-size="10.00">_area/build/confmodel</text>
<text text-anchor="middle" x="457.62" y="-11.38" font-family="Helvetica,sans-Serif" font-size="10.00">/codegen/src/DetectorToDaqConnection.cpp</text>
</a>
</g>
</g>
<!-- Node2&#45;&gt;Node4 -->
<g id="edge3_Node000002_Node000004" class="edge">
<title>Node2&#45;&gt;Node4</title>
<g id="a_edge3_Node000002_Node000004"><a xlink:title=" ">
<path fill="none" stroke="#63b8ff" d="M795.83,-98.05C733.16,-86.01 646.55,-69.05 570.62,-53 562.85,-51.36 554.79,-49.61 546.71,-47.84"/>
<polygon fill="#63b8ff" stroke="#63b8ff" points="794.89,-101.43 805.37,-99.88 796.2,-94.56 794.89,-101.43"/>
</a>
</g>
</g>
<!-- Node2&#45;&gt;Node5 -->
<g id="edge4_Node000002_Node000005" class="edge">
<title>Node2&#45;&gt;Node5</title>
<g id="a_edge4_Node000002_Node000005"><a xlink:title=" ">
<path fill="none" stroke="#63b8ff" d="M795.76,-109.66C629.47,-99.98 271.91,-77.1 150.62,-53 147.62,-52.4 144.57,-51.73 141.51,-51"/>
<polygon fill="#63b8ff" stroke="#63b8ff" points="795.22,-113.13 805.4,-110.22 795.62,-106.14 795.22,-113.13"/>
</a>
</g>
</g>
<!-- Node6 -->
<g id="Node000006" class="node">
<title>Node6</title>
<g id="a_Node000006"><a xlink:href="sourcecode_2appmodel_2src_2DFApplication_8cpp.html" target="_top" xlink:title=" ">
<polygon fill="white" stroke="#666666" points="717.75,-47.38 579.5,-47.38 579.5,-5.62 717.75,-5.62 717.75,-47.38"/>
<text text-anchor="start" x="587.5" y="-33.88" font-family="Helvetica,sans-Serif" font-size="10.00">/github/workspace/dev</text>
<text text-anchor="start" x="587.5" y="-22.62" font-family="Helvetica,sans-Serif" font-size="10.00">_area/sourcecode/appmodel</text>
<text text-anchor="middle" x="648.62" y="-11.38" font-family="Helvetica,sans-Serif" font-size="10.00">/src/DFApplication.cpp</text>
</a>
</g>
</g>
<!-- Node2&#45;&gt;Node6 -->
<g id="edge5_Node000002_Node000006" class="edge">
<title>Node2&#45;&gt;Node6</title>
<g id="a_edge5_Node000002_Node000006"><a xlink:title=" ">
<path fill="none" stroke="#63b8ff" d="M802.3,-84.63C769.65,-72.5 732.76,-58.78 703.31,-47.83"/>
<polygon fill="#63b8ff" stroke="#63b8ff" points="800.72,-87.78 811.32,-87.99 803.16,-81.22 800.72,-87.78"/>
</a>
</g>
</g>
<!-- Node7 -->
<g id="Node000007" class="node">
<title>Node7</title>
<g id="a_Node000007"><a xlink:href="sourcecode_2appmodel_2src_2MLTApplication_8cpp.html" target="_top" xlink:title=" ">
<polygon fill="white" stroke="#666666" points="873.75,-47.38 735.5,-47.38 735.5,-5.62 873.75,-5.62 873.75,-47.38"/>
<text text-anchor="start" x="743.5" y="-33.88" font-family="Helvetica,sans-Serif" font-size="10.00">/github/workspace/dev</text>
<text text-anchor="start" x="743.5" y="-22.62" font-family="Helvetica,sans-Serif" font-size="10.00">_area/sourcecode/appmodel</text>
<text text-anchor="middle" x="804.62" y="-11.38" font-family="Helvetica,sans-Serif" font-size="10.00">/src/MLTApplication.cpp</text>
</a>
</g>
</g>
<!-- Node2&#45;&gt;Node7 -->
<g id="edge6_Node000002_Node000007" class="edge">
<title>Node2&#45;&gt;Node7</title>
<g id="a_edge6_Node000002_Node000007"><a xlink:title=" ">
<path fill="none" stroke="#63b8ff" d="M852.22,-80.59C842.26,-69.48 831.51,-57.48 822.75,-47.71"/>
<polygon fill="#63b8ff" stroke="#63b8ff" points="849.35,-82.63 858.63,-87.74 854.56,-77.96 849.35,-82.63"/>
</a>
</g>
</g>
<!-- Node8 -->
<g id="Node000008" class="node">
<title>Node8</title>
<g id="a_Node000008"><a xlink:href="sourcecode_2appmodel_2src_2ReadoutApplication_8cpp.html" target="_top" xlink:title=" ">
<polygon fill="white" stroke="#666666" points="1029.75,-47.38 891.5,-47.38 891.5,-5.62 1029.75,-5.62 1029.75,-47.38"/>
<text text-anchor="start" x="899.5" y="-33.88" font-family="Helvetica,sans-Serif" font-size="10.00">/github/workspace/dev</text>
<text text-anchor="start" x="899.5" y="-22.62" font-family="Helvetica,sans-Serif" font-size="10.00">_area/sourcecode/appmodel</text>
<text text-anchor="middle" x="960.62" y="-11.38" font-family="Helvetica,sans-Serif" font-size="10.00">/src/ReadoutApplication.cpp</text>
</a>
</g>
</g>
<!-- Node2&#45;&gt;Node8 -->
<g id="edge7_Node000002_Node000008" class="edge">
<title>Node2&#45;&gt;Node8</title>
<g id="a_edge7_Node000002_Node000008"><a xlink:title=" ">
<path fill="none" stroke="#63b8ff" d="M913.03,-80.59C922.99,-69.48 933.74,-57.48 942.5,-47.71"/>
<polygon fill="#63b8ff" stroke="#63b8ff" points="910.69,-77.96 906.62,-87.74 915.9,-82.63 910.69,-77.96"/>
</a>
</g>
</g>
<!-- Node9 -->
<g id="Node000009" class="node">
<title>Node9</title>
<g id="a_Node000009"><a xlink:href="sourcecode_2appmodel_2src_2WIECApplication_8cpp.html" target="_top" xlink:title=" ">
<polygon fill="white" stroke="#666666" points="1185.75,-47.38 1047.5,-47.38 1047.5,-5.62 1185.75,-5.62 1185.75,-47.38"/>
<text text-anchor="start" x="1055.5" y="-33.88" font-family="Helvetica,sans-Serif" font-size="10.00">/github/workspace/dev</text>
<text text-anchor="start" x="1055.5" y="-22.62" font-family="Helvetica,sans-Serif" font-size="10.00">_area/sourcecode/appmodel</text>
<text text-anchor="middle" x="1116.62" y="-11.38" font-family="Helvetica,sans-Serif" font-size="10.00">/src/WIECApplication.cpp</text>
</a>
</g>
</g>
<!-- Node2&#45;&gt;Node9 -->
<g id="edge8_Node000002_Node000009" class="edge">
<title>Node2&#45;&gt;Node9</title>
<g id="a_edge8_Node000002_Node000009"><a xlink:title=" ">
<path fill="none" stroke="#63b8ff" d="M962.95,-84.63C995.6,-72.5 1032.49,-58.78 1061.94,-47.83"/>
<polygon fill="#63b8ff" stroke="#63b8ff" points="962.09,-81.22 953.93,-87.99 964.53,-87.78 962.09,-81.22"/>
</a>
</g>
</g>
<!-- Node2&#45;&gt;Node10 -->
<g id="edge9_Node000002_Node000010" class="edge">
<title>Node2&#45;&gt;Node10</title>
<g id="a_edge9_Node000002_Node000010"><a xlink:title=" ">
<path fill="none" stroke="#63b8ff" d="M969.56,-89.54C970.59,-89.35 971.61,-89.17 972.62,-89 1240.41,-43.72 1315.71,-103.11 1582.62,-53 1589.85,-51.64 1597.33,-49.82 1604.68,-47.76"/>
<polygon fill="#63b8ff" stroke="#63b8ff" points="969.07,-86.07 959.95,-91.46 970.45,-92.93 969.07,-86.07"/>
</a>
</g>
</g>
<!-- Node11 -->
<g id="Node000011" class="node">
<title>Node11</title>
<g id="a_Node000011"><a xlink:href="FakeCardReaderBase_8hpp.html" target="_top" xlink:title=" ">
<polygon fill="white" stroke="#666666" points="1401.75,-53 1203.5,-53 1203.5,0 1401.75,0 1401.75,-53"/>
<text text-anchor="start" x="1211.5" y="-39.5" font-family="Helvetica,sans-Serif" font-size="10.00">/github/workspace/dev</text>
<text text-anchor="start" x="1211.5" y="-28.25" font-family="Helvetica,sans-Serif" font-size="10.00">_area/sourcecode/datahandlinglibs</text>
<text text-anchor="start" x="1211.5" y="-17" font-family="Helvetica,sans-Serif" font-size="10.00">/include/datahandlinglibs/FakeCardReader</text>
<text text-anchor="middle" x="1302.62" y="-5.75" font-family="Helvetica,sans-Serif" font-size="10.00">Base.hpp</text>
</a>
</g>
</g>
<!-- Node2&#45;&gt;Node11 -->
<g id="edge10_Node000002_Node000011" class="edge">
<title>Node2&#45;&gt;Node11</title>
<g id="a_edge10_Node000002_Node000011"><a xlink:title=" ">
<path fill="none" stroke="#63b8ff" d="M969.59,-89.68C970.61,-89.45 971.62,-89.22 972.62,-89 1070.21,-67.34 1096.59,-72.5 1194.62,-53 1197.46,-52.44 1200.33,-51.85 1203.23,-51.25"/>
<polygon fill="#63b8ff" stroke="#63b8ff" points="968.96,-86.24 960.05,-91.96 970.59,-93.04 968.96,-86.24"/>
</a>
</g>
</g>
<!-- Node12 -->
<g id="Node000012" class="node">
<title>Node12</title>
<g id="a_Node000012"><a xlink:href="HDF5SourceIDHandler_8cpp.html" target="_top" xlink:title=" ">
<polygon fill="white" stroke="#666666" points="1573.25,-47.38 1420,-47.38 1420,-5.62 1573.25,-5.62 1573.25,-47.38"/>
<text text-anchor="start" x="1428" y="-33.88" font-family="Helvetica,sans-Serif" font-size="10.00">/github/workspace/dev</text>
<text text-anchor="start" x="1428" y="-22.62" font-family="Helvetica,sans-Serif" font-size="10.00">_area/sourcecode/hdf5libs</text>
<text text-anchor="middle" x="1496.62" y="-11.38" font-family="Helvetica,sans-Serif" font-size="10.00">/src/HDF5SourceIDHandler.cpp</text>
</a>
</g>
</g>
<!-- Node2&#45;&gt;Node12 -->
<g id="edge11_Node000002_Node000012" class="edge">
<title>Node2&#45;&gt;Node12</title>
<g id="a_edge11_Node000002_Node000012"><a xlink:title=" ">
<path fill="none" stroke="#63b8ff" d="M969.57,-89.57C970.59,-89.37 971.61,-89.18 972.62,-89 1164.83,-54.21 1218.64,-88.95 1410.62,-53 1418.13,-51.6 1425.91,-49.79 1433.58,-47.8"/>
<polygon fill="#63b8ff" stroke="#63b8ff" points="969.04,-86.1 959.97,-91.58 970.48,-92.96 969.04,-86.1"/>
</a>
</g>
</g>
</g>
</svg>
