<?xml version="1.0" encoding="UTF-8" standalone="no"?>
<!DOCTYPE svg PUBLIC "-//W3C//DTD SVG 1.1//EN"
 "http://www.w3.org/Graphics/SVG/1.1/DTD/svg11.dtd">
<!-- Generated by graphviz version 9.0.0 (20230911.1827)
 -->
<!-- Title: /github/workspace/dev_area/build/appmodel/codegen/include/appmodel/TPStreamWriterConf.hpp Pages: 1 -->
<svg width="950pt" height="150pt"
 viewBox="0.00 0.00 950.38 150.00" xmlns="http://www.w3.org/2000/svg" xmlns:xlink="http://www.w3.org/1999/xlink">
<g id="graph0" class="graph" transform="scale(1 1) rotate(0) translate(4 146)">
<title>/github/workspace/dev_area/build/appmodel/codegen/include/appmodel/TPStreamWriterConf.hpp</title>
<!-- Node1 -->
<g id="Node000001" class="node">
<title>Node1</title>
<g id="a_Node000001"><a xlink:title=" ">
<polygon fill="#999999" stroke="#666666" points="594.75,-142 460.25,-142 460.25,-89 594.75,-89 594.75,-142"/>
<text text-anchor="start" x="468.25" y="-128.5" font-family="Helvetica,sans-Serif" font-size="10.00">/github/workspace/dev</text>
<text text-anchor="start" x="468.25" y="-117.25" font-family="Helvetica,sans-Serif" font-size="10.00">_area/build/appmodel</text>
<text text-anchor="start" x="468.25" y="-106" font-family="Helvetica,sans-Serif" font-size="10.00">/codegen/include/appmodel</text>
<text text-anchor="middle" x="527.5" y="-94.75" font-family="Helvetica,sans-Serif" font-size="10.00">/TPStreamWriterConf.hpp</text>
</a>
</g>
</g>
<!-- Node2 -->
<g id="Node000002" class="node">
<title>Node2</title>
<g id="a_Node000002"><a xlink:href="TPStreamWriterApplication_8cpp.html" target="_top" xlink:title=" ">
<polygon fill="white" stroke="#666666" points="211,-47.38 0,-47.38 0,-5.62 211,-5.62 211,-47.38"/>
<text text-anchor="start" x="8" y="-33.88" font-family="Helvetica,sans-Serif" font-size="10.00">/github/workspace/dev</text>
<text text-anchor="start" x="8" y="-22.62" font-family="Helvetica,sans-Serif" font-size="10.00">_area/build/appmodel</text>
<text text-anchor="middle" x="105.5" y="-11.38" font-family="Helvetica,sans-Serif" font-size="10.00">/codegen/src/TPStreamWriterApplication.cpp</text>
</a>
</g>
</g>
<!-- Node1&#45;&gt;Node2 -->
<g id="edge1_Node000001_Node000002" class="edge">
<title>Node1&#45;&gt;Node2</title>
<g id="a_edge1_Node000001_Node000002"><a xlink:title=" ">
<path fill="none" stroke="#63b8ff" d="M448.89,-99.32C386.59,-87.17 297.38,-69.48 219.5,-53 211.76,-51.36 203.74,-49.63 195.69,-47.87"/>
<polygon fill="#63b8ff" stroke="#63b8ff" points="447.84,-102.68 458.33,-101.16 449.18,-95.81 447.84,-102.68"/>
</a>
</g>
</g>
<!-- Node3 -->
<g id="Node000003" class="node">
<title>Node3</title>
<g id="a_Node000003"><a xlink:href="TPStreamWriterConf_8cpp.html" target="_top" xlink:title=" ">
<polygon fill="white" stroke="#666666" points="412.12,-47.38 228.88,-47.38 228.88,-5.62 412.12,-5.62 412.12,-47.38"/>
<text text-anchor="start" x="236.88" y="-33.88" font-family="Helvetica,sans-Serif" font-size="10.00">/github/workspace/dev</text>
<text text-anchor="start" x="236.88" y="-22.62" font-family="Helvetica,sans-Serif" font-size="10.00">_area/build/appmodel</text>
<text text-anchor="middle" x="320.5" y="-11.38" font-family="Helvetica,sans-Serif" font-size="10.00">/codegen/src/TPStreamWriterConf.cpp</text>
</a>
</g>
</g>
<!-- Node1&#45;&gt;Node3 -->
<g id="edge2_Node000001_Node000003" class="edge">
<title>Node1&#45;&gt;Node3</title>
<g id="a_edge2_Node000001_Node000003"><a xlink:title=" ">
<path fill="none" stroke="#63b8ff" d="M455.31,-84.16C426.71,-72.14 394.59,-58.64 368.88,-47.83"/>
<polygon fill="#63b8ff" stroke="#63b8ff" points="453.7,-87.28 464.28,-87.93 456.42,-80.83 453.7,-87.28"/>
</a>
</g>
</g>
<!-- Node4 -->
<g id="Node000004" class="node">
<title>Node4</title>
<g id="a_Node000004"><a xlink:href="TPStreamWriterModule_8cpp.html" target="_top" xlink:title=" ">
<polygon fill="white" stroke="#666666" points="624.75,-47.38 430.25,-47.38 430.25,-5.62 624.75,-5.62 624.75,-47.38"/>
<text text-anchor="start" x="438.25" y="-33.88" font-family="Helvetica,sans-Serif" font-size="10.00">/github/workspace/dev</text>
<text text-anchor="start" x="438.25" y="-22.62" font-family="Helvetica,sans-Serif" font-size="10.00">_area/build/appmodel</text>
<text text-anchor="middle" x="527.5" y="-11.38" font-family="Helvetica,sans-Serif" font-size="10.00">/codegen/src/TPStreamWriterModule.cpp</text>
</a>
</g>
</g>
<!-- Node1&#45;&gt;Node4 -->
<g id="edge3_Node000001_Node000004" class="edge">
<title>Node1&#45;&gt;Node4</title>
<g id="a_edge3_Node000001_Node000004"><a xlink:title=" ">
<path fill="none" stroke="#63b8ff" d="M527.5,-77.63C527.5,-67.38 527.5,-56.62 527.5,-47.71"/>
<polygon fill="#63b8ff" stroke="#63b8ff" points="524,-77.35 527.5,-87.35 531,-77.35 524,-77.35"/>
</a>
</g>
</g>
<!-- Node5 -->
<g id="Node000005" class="node">
<title>Node5</title>
<g id="a_Node000005"><a xlink:href="dump__dunedaq____appmodel_8cpp.html" target="_top" xlink:title=" ">
<polygon fill="white" stroke="#666666" points="784.12,-53 642.88,-53 642.88,0 784.12,0 784.12,-53"/>
<text text-anchor="start" x="650.88" y="-39.5" font-family="Helvetica,sans-Serif" font-size="10.00">/github/workspace/dev</text>
<text text-anchor="start" x="650.88" y="-28.25" font-family="Helvetica,sans-Serif" font-size="10.00">_area/build/appmodel</text>
<text text-anchor="start" x="650.88" y="-17" font-family="Helvetica,sans-Serif" font-size="10.00">/codegen/src/dump_dunedaq</text>
<text text-anchor="middle" x="713.5" y="-5.75" font-family="Helvetica,sans-Serif" font-size="10.00">__appmodel.cpp</text>
</a>
</g>
</g>
<!-- Node1&#45;&gt;Node5 -->
<g id="edge4_Node000001_Node000005" class="edge">
<title>Node1&#45;&gt;Node5</title>
<g id="a_edge4_Node000001_Node000005"><a xlink:title=" ">
<path fill="none" stroke="#63b8ff" d="M593.29,-83.73C614.53,-73.79 637.84,-62.89 658.23,-53.35"/>
<polygon fill="#63b8ff" stroke="#63b8ff" points="592,-80.47 584.43,-87.87 594.97,-86.81 592,-80.47"/>
</a>
</g>
</g>
<!-- Node6 -->
<g id="Node000006" class="node">
<title>Node6</title>
<g id="a_Node000006"><a xlink:href="TPWriterApplication_8cpp.html" target="_top" xlink:title=" ">
<polygon fill="white" stroke="#666666" points="942.38,-47.38 802.62,-47.38 802.62,-5.62 942.38,-5.62 942.38,-47.38"/>
<text text-anchor="start" x="810.62" y="-33.88" font-family="Helvetica,sans-Serif" font-size="10.00">/github/workspace/dev</text>
<text text-anchor="start" x="810.62" y="-22.62" font-family="Helvetica,sans-Serif" font-size="10.00">_area/sourcecode/appmodel</text>
<text text-anchor="middle" x="872.5" y="-11.38" font-family="Helvetica,sans-Serif" font-size="10.00">/src/TPWriterApplication.cpp</text>
</a>
</g>
</g>
<!-- Node1&#45;&gt;Node6 -->
<g id="edge5_Node000001_Node000006" class="edge">
<title>Node1&#45;&gt;Node6</title>
<g id="a_edge5_Node000001_Node000006"><a xlink:title=" ">
<path fill="none" stroke="#63b8ff" d="M606.19,-98.15C659.37,-86.64 731.02,-70.27 793.5,-53 799.33,-51.39 805.38,-49.62 811.41,-47.78"/>
<polygon fill="#63b8ff" stroke="#63b8ff" points="605.65,-94.68 596.61,-100.21 607.12,-101.53 605.65,-94.68"/>
</a>
</g>
</g>
</g>
</svg>
