<?xml version="1.0" encoding="UTF-8" standalone="no"?>
<!DOCTYPE svg PUBLIC "-//W3C//DTD SVG 1.1//EN"
 "http://www.w3.org/Graphics/SVG/1.1/DTD/svg11.dtd">
<!-- Generated by graphviz version 9.0.0 (20230911.1827)
 -->
<!-- Title: /github/workspace/dev_area/build/appmodel/codegen/include/appmodel/QueueDescriptor.hpp Pages: 1 -->
<svg width="1790pt" height="150pt"
 viewBox="0.00 0.00 1790.38 150.00" xmlns="http://www.w3.org/2000/svg" xmlns:xlink="http://www.w3.org/1999/xlink">
<g id="graph0" class="graph" transform="scale(1 1) rotate(0) translate(4 146)">
<title>/github/workspace/dev_area/build/appmodel/codegen/include/appmodel/QueueDescriptor.hpp</title>
<!-- Node1 -->
<g id="Node000001" class="node">
<title>Node1</title>
<g id="a_Node000001"><a xlink:title=" ">
<polygon fill="#999999" stroke="#666666" points="965.5,-142 831,-142 831,-89 965.5,-89 965.5,-142"/>
<text text-anchor="start" x="839" y="-128.5" font-family="Helvetica,sans-Serif" font-size="10.00">/github/workspace/dev</text>
<text text-anchor="start" x="839" y="-117.25" font-family="Helvetica,sans-Serif" font-size="10.00">_area/build/appmodel</text>
<text text-anchor="start" x="839" y="-106" font-family="Helvetica,sans-Serif" font-size="10.00">/codegen/include/appmodel</text>
<text text-anchor="middle" x="898.25" y="-94.75" font-family="Helvetica,sans-Serif" font-size="10.00">/QueueDescriptor.hpp</text>
</a>
</g>
</g>
<!-- Node2 -->
<g id="Node000002" class="node">
<title>Node2</title>
<g id="a_Node000002"><a xlink:href="QueueConnectionRule_8cpp.html" target="_top" xlink:title=" ">
<polygon fill="white" stroke="#666666" points="152.5,-53 0,-53 0,0 152.5,0 152.5,-53"/>
<text text-anchor="start" x="8" y="-39.5" font-family="Helvetica,sans-Serif" font-size="10.00">/github/workspace/dev</text>
<text text-anchor="start" x="8" y="-28.25" font-family="Helvetica,sans-Serif" font-size="10.00">_area/build/appmodel</text>
<text text-anchor="start" x="8" y="-17" font-family="Helvetica,sans-Serif" font-size="10.00">/codegen/src/QueueConnection</text>
<text text-anchor="middle" x="76.25" y="-5.75" font-family="Helvetica,sans-Serif" font-size="10.00">Rule.cpp</text>
</a>
</g>
</g>
<!-- Node1&#45;&gt;Node2 -->
<g id="edge1_Node000001_Node000002" class="edge">
<title>Node1&#45;&gt;Node2</title>
<g id="a_edge1_Node000001_Node000002"><a xlink:title=" ">
<path fill="none" stroke="#63b8ff" d="M819.07,-113.28C683.29,-109.99 397.82,-97.85 161.25,-53 158.53,-52.48 155.76,-51.91 152.98,-51.3"/>
<polygon fill="#63b8ff" stroke="#63b8ff" points="818.96,-116.78 829.04,-113.51 819.12,-109.78 818.96,-116.78"/>
</a>
</g>
</g>
<!-- Node3 -->
<g id="Node000003" class="node">
<title>Node3</title>
<g id="a_Node000003"><a xlink:href="QueueDescriptor_8cpp.html" target="_top" xlink:title=" ">
<polygon fill="white" stroke="#666666" points="336.25,-47.38 170.25,-47.38 170.25,-5.62 336.25,-5.62 336.25,-47.38"/>
<text text-anchor="start" x="178.25" y="-33.88" font-family="Helvetica,sans-Serif" font-size="10.00">/github/workspace/dev</text>
<text text-anchor="start" x="178.25" y="-22.62" font-family="Helvetica,sans-Serif" font-size="10.00">_area/build/appmodel</text>
<text text-anchor="middle" x="253.25" y="-11.38" font-family="Helvetica,sans-Serif" font-size="10.00">/codegen/src/QueueDescriptor.cpp</text>
</a>
</g>
</g>
<!-- Node1&#45;&gt;Node3 -->
<g id="edge2_Node000001_Node000003" class="edge">
<title>Node1&#45;&gt;Node3</title>
<g id="a_edge2_Node000001_Node000003"><a xlink:title=" ">
<path fill="none" stroke="#63b8ff" d="M819.5,-109.71C711.7,-102.26 512.49,-85.26 345.25,-53 337.68,-51.54 329.83,-49.77 322.04,-47.85"/>
<polygon fill="#63b8ff" stroke="#63b8ff" points="819.18,-113.2 829.4,-110.39 819.66,-106.22 819.18,-113.2"/>
</a>
</g>
</g>
<!-- Node4 -->
<g id="Node000004" class="node">
<title>Node4</title>
<g id="a_Node000004"><a xlink:href="dump__dunedaq____appmodel_8cpp.html" target="_top" xlink:title=" ">
<polygon fill="white" stroke="#666666" points="495.88,-53 354.62,-53 354.62,0 495.88,0 495.88,-53"/>
<text text-anchor="start" x="362.62" y="-39.5" font-family="Helvetica,sans-Serif" font-size="10.00">/github/workspace/dev</text>
<text text-anchor="start" x="362.62" y="-28.25" font-family="Helvetica,sans-Serif" font-size="10.00">_area/build/appmodel</text>
<text text-anchor="start" x="362.62" y="-17" font-family="Helvetica,sans-Serif" font-size="10.00">/codegen/src/dump_dunedaq</text>
<text text-anchor="middle" x="425.25" y="-5.75" font-family="Helvetica,sans-Serif" font-size="10.00">__appmodel.cpp</text>
</a>
</g>
</g>
<!-- Node1&#45;&gt;Node4 -->
<g id="edge3_Node000001_Node000004" class="edge">
<title>Node1&#45;&gt;Node4</title>
<g id="a_edge3_Node000001_Node000004"><a xlink:title=" ">
<path fill="none" stroke="#63b8ff" d="M819.59,-105.79C739.76,-96.12 612.93,-78.43 505.25,-53 502.27,-52.3 499.24,-51.54 496.19,-50.73"/>
<polygon fill="#63b8ff" stroke="#63b8ff" points="818.69,-109.21 829.03,-106.93 819.52,-102.26 818.69,-109.21"/>
</a>
</g>
</g>
<!-- Node5 -->
<g id="Node000005" class="node">
<title>Node5</title>
<g id="a_Node000005"><a xlink:href="sourcecode_2appmodel_2src_2DFApplication_8cpp.html" target="_top" xlink:title=" ">
<polygon fill="white" stroke="#666666" points="652.38,-47.38 514.12,-47.38 514.12,-5.62 652.38,-5.62 652.38,-47.38"/>
<text text-anchor="start" x="522.12" y="-33.88" font-family="Helvetica,sans-Serif" font-size="10.00">/github/workspace/dev</text>
<text text-anchor="start" x="522.12" y="-22.62" font-family="Helvetica,sans-Serif" font-size="10.00">_area/sourcecode/appmodel</text>
<text text-anchor="middle" x="583.25" y="-11.38" font-family="Helvetica,sans-Serif" font-size="10.00">/src/DFApplication.cpp</text>
</a>
</g>
</g>
<!-- Node1&#45;&gt;Node5 -->
<g id="edge4_Node000001_Node000005" class="edge">
<title>Node1&#45;&gt;Node5</title>
<g id="a_edge4_Node000001_Node000005"><a xlink:title=" ">
<path fill="none" stroke="#63b8ff" d="M819.36,-95.33C773.1,-83.77 713.64,-68.34 661.25,-53 655.64,-51.36 649.83,-49.59 644.03,-47.77"/>
<polygon fill="#63b8ff" stroke="#63b8ff" points="818.5,-98.73 829.05,-97.75 820.19,-91.93 818.5,-98.73"/>
</a>
</g>
</g>
<!-- Node6 -->
<g id="Node000006" class="node">
<title>Node6</title>
<g id="a_Node000006"><a xlink:href="sourcecode_2appmodel_2src_2DFOApplication_8cpp.html" target="_top" xlink:title=" ">
<polygon fill="white" stroke="#666666" points="808.38,-47.38 670.12,-47.38 670.12,-5.62 808.38,-5.62 808.38,-47.38"/>
<text text-anchor="start" x="678.12" y="-33.88" font-family="Helvetica,sans-Serif" font-size="10.00">/github/workspace/dev</text>
<text text-anchor="start" x="678.12" y="-22.62" font-family="Helvetica,sans-Serif" font-size="10.00">_area/sourcecode/appmodel</text>
<text text-anchor="middle" x="739.25" y="-11.38" font-family="Helvetica,sans-Serif" font-size="10.00">/src/DFOApplication.cpp</text>
</a>
</g>
</g>
<!-- Node1&#45;&gt;Node6 -->
<g id="edge5_Node000001_Node000006" class="edge">
<title>Node1&#45;&gt;Node6</title>
<g id="a_edge5_Node000001_Node000006"><a xlink:title=" ">
<path fill="none" stroke="#63b8ff" d="M840.94,-83.14C819.39,-71.35 795.47,-58.26 776.25,-47.75"/>
<polygon fill="#63b8ff" stroke="#63b8ff" points="839.19,-86.18 849.65,-87.91 842.55,-80.04 839.19,-86.18"/>
</a>
</g>
</g>
<!-- Node7 -->
<g id="Node000007" class="node">
<title>Node7</title>
<g id="a_Node000007"><a xlink:href="sourcecode_2appmodel_2src_2FakeDataApplication_8cpp.html" target="_top" xlink:title=" ">
<polygon fill="white" stroke="#666666" points="970,-47.38 826.5,-47.38 826.5,-5.62 970,-5.62 970,-47.38"/>
<text text-anchor="start" x="834.5" y="-33.88" font-family="Helvetica,sans-Serif" font-size="10.00">/github/workspace/dev</text>
<text text-anchor="start" x="834.5" y="-22.62" font-family="Helvetica,sans-Serif" font-size="10.00">_area/sourcecode/appmodel</text>
<text text-anchor="middle" x="898.25" y="-11.38" font-family="Helvetica,sans-Serif" font-size="10.00">/src/FakeDataApplication.cpp</text>
</a>
</g>
</g>
<!-- Node1&#45;&gt;Node7 -->
<g id="edge6_Node000001_Node000007" class="edge">
<title>Node1&#45;&gt;Node7</title>
<g id="a_edge6_Node000001_Node000007"><a xlink:title=" ">
<path fill="none" stroke="#63b8ff" d="M898.25,-77.63C898.25,-67.38 898.25,-56.62 898.25,-47.71"/>
<polygon fill="#63b8ff" stroke="#63b8ff" points="894.75,-77.35 898.25,-87.35 901.75,-77.35 894.75,-77.35"/>
</a>
</g>
</g>
<!-- Node8 -->
<g id="Node000008" class="node">
<title>Node8</title>
<g id="a_Node000008"><a xlink:href="sourcecode_2appmodel_2src_2FakeHSIApplication_8cpp.html" target="_top" xlink:title=" ">
<polygon fill="white" stroke="#666666" points="1128.5,-47.38 988,-47.38 988,-5.62 1128.5,-5.62 1128.5,-47.38"/>
<text text-anchor="start" x="996" y="-33.88" font-family="Helvetica,sans-Serif" font-size="10.00">/github/workspace/dev</text>
<text text-anchor="start" x="996" y="-22.62" font-family="Helvetica,sans-Serif" font-size="10.00">_area/sourcecode/appmodel</text>
<text text-anchor="middle" x="1058.25" y="-11.38" font-family="Helvetica,sans-Serif" font-size="10.00">/src/FakeHSIApplication.cpp</text>
</a>
</g>
</g>
<!-- Node1&#45;&gt;Node8 -->
<g id="edge7_Node000001_Node000008" class="edge">
<title>Node1&#45;&gt;Node8</title>
<g id="a_edge7_Node000001_Node000008"><a xlink:title=" ">
<path fill="none" stroke="#63b8ff" d="M955.92,-83.14C977.61,-71.35 1001.67,-58.26 1021.02,-47.75"/>
<polygon fill="#63b8ff" stroke="#63b8ff" points="954.27,-80.06 947.15,-87.91 957.61,-86.21 954.27,-80.06"/>
</a>
</g>
</g>
<!-- Node9 -->
<g id="Node000009" class="node">
<title>Node9</title>
<g id="a_Node000009"><a xlink:href="sourcecode_2appmodel_2src_2HSIEventToTCApplication_8cpp.html" target="_top" xlink:title=" ">
<polygon fill="white" stroke="#666666" points="1314,-47.38 1146.5,-47.38 1146.5,-5.62 1314,-5.62 1314,-47.38"/>
<text text-anchor="start" x="1154.5" y="-33.88" font-family="Helvetica,sans-Serif" font-size="10.00">/github/workspace/dev</text>
<text text-anchor="start" x="1154.5" y="-22.62" font-family="Helvetica,sans-Serif" font-size="10.00">_area/sourcecode/appmodel</text>
<text text-anchor="middle" x="1230.25" y="-11.38" font-family="Helvetica,sans-Serif" font-size="10.00">/src/HSIEventToTCApplication.cpp</text>
</a>
</g>
</g>
<!-- Node1&#45;&gt;Node9 -->
<g id="edge8_Node000001_Node000009" class="edge">
<title>Node1&#45;&gt;Node9</title>
<g id="a_edge8_Node000001_Node000009"><a xlink:title=" ">
<path fill="none" stroke="#63b8ff" d="M976.75,-94.63C1023.43,-82.74 1083.77,-67.21 1137.25,-53 1143.48,-51.34 1149.94,-49.61 1156.42,-47.86"/>
<polygon fill="#63b8ff" stroke="#63b8ff" points="976.09,-91.19 967.27,-97.05 977.82,-97.97 976.09,-91.19"/>
</a>
</g>
</g>
<!-- Node10 -->
<g id="Node000010" class="node">
<title>Node10</title>
<g id="a_Node000010"><a xlink:href="sourcecode_2appmodel_2src_2MLTApplication_8cpp.html" target="_top" xlink:title=" ">
<polygon fill="white" stroke="#666666" points="1470.38,-47.38 1332.12,-47.38 1332.12,-5.62 1470.38,-5.62 1470.38,-47.38"/>
<text text-anchor="start" x="1340.12" y="-33.88" font-family="Helvetica,sans-Serif" font-size="10.00">/github/workspace/dev</text>
<text text-anchor="start" x="1340.12" y="-22.62" font-family="Helvetica,sans-Serif" font-size="10.00">_area/sourcecode/appmodel</text>
<text text-anchor="middle" x="1401.25" y="-11.38" font-family="Helvetica,sans-Serif" font-size="10.00">/src/MLTApplication.cpp</text>
</a>
</g>
</g>
<!-- Node1&#45;&gt;Node10 -->
<g id="edge9_Node000001_Node000010" class="edge">
<title>Node1&#45;&gt;Node10</title>
<g id="a_edge9_Node000001_Node000010"><a xlink:title=" ">
<path fill="none" stroke="#63b8ff" d="M977.13,-107.19C1063.04,-98.29 1204.1,-80.88 1323.25,-53 1329.63,-51.51 1336.24,-49.73 1342.78,-47.81"/>
<polygon fill="#63b8ff" stroke="#63b8ff" points="977,-103.69 967.41,-108.19 977.71,-110.65 977,-103.69"/>
</a>
</g>
</g>
<!-- Node11 -->
<g id="Node000011" class="node">
<title>Node11</title>
<g id="a_Node000011"><a xlink:href="sourcecode_2appmodel_2src_2ReadoutApplication_8cpp.html" target="_top" xlink:title=" ">
<polygon fill="white" stroke="#666666" points="1626.38,-47.38 1488.12,-47.38 1488.12,-5.62 1626.38,-5.62 1626.38,-47.38"/>
<text text-anchor="start" x="1496.12" y="-33.88" font-family="Helvetica,sans-Serif" font-size="10.00">/github/workspace/dev</text>
<text text-anchor="start" x="1496.12" y="-22.62" font-family="Helvetica,sans-Serif" font-size="10.00">_area/sourcecode/appmodel</text>
<text text-anchor="middle" x="1557.25" y="-11.38" font-family="Helvetica,sans-Serif" font-size="10.00">/src/ReadoutApplication.cpp</text>
</a>
</g>
</g>
<!-- Node1&#45;&gt;Node11 -->
<g id="edge10_Node000001_Node000011" class="edge">
<title>Node1&#45;&gt;Node11</title>
<g id="a_edge10_Node000001_Node000011"><a xlink:title=" ">
<path fill="none" stroke="#63b8ff" d="M976.86,-111.43C1089.31,-105.85 1302.08,-90.89 1479.25,-53 1485.94,-51.57 1492.86,-49.78 1499.69,-47.81"/>
<polygon fill="#63b8ff" stroke="#63b8ff" points="976.96,-107.92 967.14,-111.9 977.3,-114.91 976.96,-107.92"/>
</a>
</g>
</g>
<!-- Node12 -->
<g id="Node000012" class="node">
<title>Node12</title>
<g id="a_Node000012"><a xlink:href="sourcecode_2appmodel_2src_2TriggerApplication_8cpp.html" target="_top" xlink:title=" ">
<polygon fill="white" stroke="#666666" points="1782.38,-47.38 1644.12,-47.38 1644.12,-5.62 1782.38,-5.62 1782.38,-47.38"/>
<text text-anchor="start" x="1652.12" y="-33.88" font-family="Helvetica,sans-Serif" font-size="10.00">/github/workspace/dev</text>
<text text-anchor="start" x="1652.12" y="-22.62" font-family="Helvetica,sans-Serif" font-size="10.00">_area/sourcecode/appmodel</text>
<text text-anchor="middle" x="1713.25" y="-11.38" font-family="Helvetica,sans-Serif" font-size="10.00">/src/TriggerApplication.cpp</text>
</a>
</g>
</g>
<!-- Node1&#45;&gt;Node12 -->
<g id="edge11_Node000001_Node000012" class="edge">
<title>Node1&#45;&gt;Node12</title>
<g id="a_edge11_Node000001_Node000012"><a xlink:title=" ">
<path fill="none" stroke="#63b8ff" d="M977.29,-113.91C1113.14,-111.56 1399.09,-100.78 1635.25,-53 1642.09,-51.62 1649.17,-49.83 1656.15,-47.84"/>
<polygon fill="#63b8ff" stroke="#63b8ff" points="977.26,-110.41 967.32,-114.07 977.37,-117.41 977.26,-110.41"/>
</a>
</g>
</g>
</g>
</svg>
