<?xml version="1.0" encoding="UTF-8" standalone="no"?>
<!DOCTYPE svg PUBLIC "-//W3C//DTD SVG 1.1//EN"
 "http://www.w3.org/Graphics/SVG/1.1/DTD/svg11.dtd">
<!-- Generated by graphviz version 9.0.0 (20230911.1827)
 -->
<!-- Title: /github/workspace/dev_area/build/sspmodules/codegen/include/sspmodules/dal/SSPCalibModule.hpp Pages: 1 -->
<svg width="617pt" height="306pt"
 viewBox="0.00 0.00 617.12 305.50" xmlns="http://www.w3.org/2000/svg" xmlns:xlink="http://www.w3.org/1999/xlink">
<g id="graph0" class="graph" transform="scale(1 1) rotate(0) translate(4 301.5)">
<title>/github/workspace/dev_area/build/sspmodules/codegen/include/sspmodules/dal/SSPCalibModule.hpp</title>
<!-- Node1 -->
<g id="Node000001" class="node">
<title>Node1</title>
<g id="a_Node000001"><a xlink:title=" ">
<polygon fill="#999999" stroke="#666666" points="376.88,-297.5 231.88,-297.5 231.88,-244.5 376.88,-244.5 376.88,-297.5"/>
<text text-anchor="start" x="239.88" y="-284" font-family="Helvetica,sans-Serif" font-size="10.00">/github/workspace/dev</text>
<text text-anchor="start" x="239.88" y="-272.75" font-family="Helvetica,sans-Serif" font-size="10.00">_area/build/sspmodules</text>
<text text-anchor="start" x="239.88" y="-261.5" font-family="Helvetica,sans-Serif" font-size="10.00">/codegen/include/sspmodules</text>
<text text-anchor="middle" x="304.38" y="-250.25" font-family="Helvetica,sans-Serif" font-size="10.00">/dal/SSPCalibModule.hpp</text>
</a>
</g>
</g>
<!-- Node2 -->
<g id="Node000002" class="node">
<title>Node2</title>
<g id="a_Node000002"><a xlink:href="SSPCalibModule_8cpp.html" target="_top" xlink:title=" ">
<polygon fill="white" stroke="#666666" points="166.75,-202.88 0,-202.88 0,-161.12 166.75,-161.12 166.75,-202.88"/>
<text text-anchor="start" x="8" y="-189.38" font-family="Helvetica,sans-Serif" font-size="10.00">/github/workspace/dev</text>
<text text-anchor="start" x="8" y="-178.12" font-family="Helvetica,sans-Serif" font-size="10.00">_area/build/sspmodules</text>
<text text-anchor="middle" x="83.38" y="-166.88" font-family="Helvetica,sans-Serif" font-size="10.00">/codegen/src/SSPCalibModule.cpp</text>
</a>
</g>
</g>
<!-- Node1&#45;&gt;Node2 -->
<g id="edge1_Node000001_Node000002" class="edge">
<title>Node1&#45;&gt;Node2</title>
<g id="a_edge1_Node000001_Node000002"><a xlink:title=" ">
<path fill="none" stroke="#63b8ff" d="M227.71,-239.82C197.07,-227.76 162.6,-214.19 135.02,-203.33"/>
<polygon fill="#63b8ff" stroke="#63b8ff" points="226.37,-243.05 236.96,-243.46 228.94,-236.54 226.37,-243.05"/>
</a>
</g>
</g>
<!-- Node3 -->
<g id="Node000003" class="node">
<title>Node3</title>
<g id="a_Node000003"><a xlink:href="dump__dunedaq____sspmodules____dal_8cpp.html" target="_top" xlink:title=" ">
<polygon fill="white" stroke="#666666" points="326,-208.5 184.75,-208.5 184.75,-155.5 326,-155.5 326,-208.5"/>
<text text-anchor="start" x="192.75" y="-195" font-family="Helvetica,sans-Serif" font-size="10.00">/github/workspace/dev</text>
<text text-anchor="start" x="192.75" y="-183.75" font-family="Helvetica,sans-Serif" font-size="10.00">_area/build/sspmodules</text>
<text text-anchor="start" x="192.75" y="-172.5" font-family="Helvetica,sans-Serif" font-size="10.00">/codegen/src/dump_dunedaq</text>
<text text-anchor="middle" x="255.38" y="-161.25" font-family="Helvetica,sans-Serif" font-size="10.00">__sspmodules__dal.cpp</text>
</a>
</g>
</g>
<!-- Node1&#45;&gt;Node3 -->
<g id="edge2_Node000001_Node000003" class="edge">
<title>Node1&#45;&gt;Node3</title>
<g id="a_edge2_Node000001_Node000003"><a xlink:title=" ">
<path fill="none" stroke="#63b8ff" d="M284.39,-234.52C279.53,-225.89 274.43,-216.83 269.88,-208.75"/>
<polygon fill="#63b8ff" stroke="#63b8ff" points="281.24,-236.05 289.2,-243.05 287.34,-232.62 281.24,-236.05"/>
</a>
</g>
</g>
<!-- Node4 -->
<g id="Node000004" class="node">
<title>Node4</title>
<g id="a_Node000004"><a xlink:href="SSPLEDCalibWrapper_8hpp.html" target="_top" xlink:title=" ">
<polygon fill="white" stroke="#666666" points="429.5,-119.5 279.25,-119.5 279.25,-77.75 429.5,-77.75 429.5,-119.5"/>
<text text-anchor="start" x="287.25" y="-106" font-family="Helvetica,sans-Serif" font-size="10.00">/github/workspace/dev</text>
<text text-anchor="start" x="287.25" y="-94.75" font-family="Helvetica,sans-Serif" font-size="10.00">_area/sourcecode/sspmodules</text>
<text text-anchor="middle" x="354.38" y="-83.5" font-family="Helvetica,sans-Serif" font-size="10.00">/src/SSPLEDCalibWrapper.hpp</text>
</a>
</g>
</g>
<!-- Node1&#45;&gt;Node4 -->
<g id="edge3_Node000001_Node000004" class="edge">
<title>Node1&#45;&gt;Node4</title>
<g id="a_edge3_Node000001_Node000004"><a xlink:title=" ">
<path fill="none" stroke="#63b8ff" d="M324.69,-234.09C328.7,-225.87 332.55,-217.04 335.38,-208.5 345.33,-178.45 350.34,-141.9 352.65,-119.72"/>
<polygon fill="#63b8ff" stroke="#63b8ff" points="321.69,-232.25 320.26,-242.75 327.93,-235.44 321.69,-232.25"/>
</a>
</g>
</g>
<!-- Node6 -->
<g id="Node000006" class="node">
<title>Node6</title>
<g id="a_Node000006"><a xlink:href="DeviceInterface_8hpp.html" target="_top" xlink:title=" ">
<polygon fill="white" stroke="#666666" points="545.88,-202.88 382.88,-202.88 382.88,-161.12 545.88,-161.12 545.88,-202.88"/>
<text text-anchor="start" x="390.88" y="-189.38" font-family="Helvetica,sans-Serif" font-size="10.00">/github/workspace/dev</text>
<text text-anchor="start" x="390.88" y="-178.12" font-family="Helvetica,sans-Serif" font-size="10.00">_area/sourcecode/sspmodules</text>
<text text-anchor="middle" x="464.38" y="-166.88" font-family="Helvetica,sans-Serif" font-size="10.00">/src/anlBoard/DeviceInterface.hpp</text>
</a>
</g>
</g>
<!-- Node1&#45;&gt;Node6 -->
<g id="edge5_Node000001_Node000006" class="edge">
<title>Node1&#45;&gt;Node6</title>
<g id="a_edge5_Node000001_Node000006"><a xlink:title=" ">
<path fill="none" stroke="#63b8ff" d="M362.04,-238.64C383.73,-226.85 407.8,-213.76 427.14,-203.25"/>
<polygon fill="#63b8ff" stroke="#63b8ff" points="360.39,-235.56 353.28,-243.41 363.73,-241.71 360.39,-235.56"/>
</a>
</g>
</g>
<!-- Node5 -->
<g id="Node000005" class="node">
<title>Node5</title>
<g id="a_Node000005"><a xlink:href="SSPLEDCalibWrapper_8cpp.html" target="_top" xlink:title=" ">
<polygon fill="white" stroke="#666666" points="429.5,-41.75 279.25,-41.75 279.25,0 429.5,0 429.5,-41.75"/>
<text text-anchor="start" x="287.25" y="-28.25" font-family="Helvetica,sans-Serif" font-size="10.00">/github/workspace/dev</text>
<text text-anchor="start" x="287.25" y="-17" font-family="Helvetica,sans-Serif" font-size="10.00">_area/sourcecode/sspmodules</text>
<text text-anchor="middle" x="354.38" y="-5.75" font-family="Helvetica,sans-Serif" font-size="10.00">/src/SSPLEDCalibWrapper.cpp</text>
</a>
</g>
</g>
<!-- Node4&#45;&gt;Node5 -->
<g id="edge4_Node000004_Node000005" class="edge">
<title>Node4&#45;&gt;Node5</title>
<g id="a_edge4_Node000004_Node000005"><a xlink:title=" ">
<path fill="none" stroke="#63b8ff" d="M354.38,-66C354.38,-57.96 354.38,-49.54 354.38,-42.23"/>
<polygon fill="#63b8ff" stroke="#63b8ff" points="350.88,-65.81 354.38,-75.81 357.88,-65.81 350.88,-65.81"/>
</a>
</g>
</g>
<!-- Node6&#45;&gt;Node4 -->
<g id="edge6_Node000006_Node000004" class="edge">
<title>Node6&#45;&gt;Node4</title>
<g id="a_edge6_Node000006_Node000004"><a xlink:title=" ">
<path fill="none" stroke="#63b8ff" d="M427.88,-154C412.88,-142.9 395.8,-130.27 381.88,-119.97"/>
<polygon fill="#63b8ff" stroke="#63b8ff" points="425.56,-156.64 435.68,-159.78 429.73,-151.01 425.56,-156.64"/>
</a>
</g>
</g>
<!-- Node7 -->
<g id="Node000007" class="node">
<title>Node7</title>
<g id="a_Node000007"><a xlink:href="DeviceInterface_8cxx.html" target="_top" xlink:title=" ">
<polygon fill="white" stroke="#666666" points="609.12,-119.5 447.62,-119.5 447.62,-77.75 609.12,-77.75 609.12,-119.5"/>
<text text-anchor="start" x="455.62" y="-106" font-family="Helvetica,sans-Serif" font-size="10.00">/github/workspace/dev</text>
<text text-anchor="start" x="455.62" y="-94.75" font-family="Helvetica,sans-Serif" font-size="10.00">_area/sourcecode/sspmodules</text>
<text text-anchor="middle" x="528.38" y="-83.5" font-family="Helvetica,sans-Serif" font-size="10.00">/src/anlBoard/DeviceInterface.cxx</text>
</a>
</g>
</g>
<!-- Node6&#45;&gt;Node7 -->
<g id="edge7_Node000006_Node000007" class="edge">
<title>Node6&#45;&gt;Node7</title>
<g id="a_edge7_Node000006_Node000007"><a xlink:title=" ">
<path fill="none" stroke="#63b8ff" d="M487.25,-151.91C495.62,-141.28 504.89,-129.48 512.51,-119.79"/>
<polygon fill="#63b8ff" stroke="#63b8ff" points="484.56,-149.67 481.13,-159.7 490.06,-154 484.56,-149.67"/>
</a>
</g>
</g>
</g>
</svg>
