<?xml version="1.0" encoding="UTF-8" standalone="no"?>
<!DOCTYPE svg PUBLIC "-//W3C//DTD SVG 1.1//EN"
 "http://www.w3.org/Graphics/SVG/1.1/DTD/svg11.dtd">
<!-- Generated by graphviz version 9.0.0 (20230911.1827)
 -->
<!-- Title: /github/workspace/dev_area/build/appmodel/codegen/include/appmodel/TPStreamWriterModule.hpp Pages: 1 -->
<svg width="520pt" height="150pt"
 viewBox="0.00 0.00 520.12 150.00" xmlns="http://www.w3.org/2000/svg" xmlns:xlink="http://www.w3.org/1999/xlink">
<g id="graph0" class="graph" transform="scale(1 1) rotate(0) translate(4 146)">
<title>/github/workspace/dev_area/build/appmodel/codegen/include/appmodel/TPStreamWriterModule.hpp</title>
<!-- Node1 -->
<g id="Node000001" class="node">
<title>Node1</title>
<g id="a_Node000001"><a xlink:title=" ">
<polygon fill="#999999" stroke="#666666" points="352.38,-142 214.12,-142 214.12,-89 352.38,-89 352.38,-142"/>
<text text-anchor="start" x="222.12" y="-128.5" font-family="Helvetica,sans-Serif" font-size="10.00">/github/workspace/dev</text>
<text text-anchor="start" x="222.12" y="-117.25" font-family="Helvetica,sans-Serif" font-size="10.00">_area/build/appmodel</text>
<text text-anchor="start" x="222.12" y="-106" font-family="Helvetica,sans-Serif" font-size="10.00">/codegen/include/appmodel</text>
<text text-anchor="middle" x="283.25" y="-94.75" font-family="Helvetica,sans-Serif" font-size="10.00">/TPStreamWriterModule.hpp</text>
</a>
</g>
</g>
<!-- Node2 -->
<g id="Node000002" class="node">
<title>Node2</title>
<g id="a_Node000002"><a xlink:href="TPStreamWriterModule_8cpp.html" target="_top" xlink:title=" ">
<polygon fill="white" stroke="#666666" points="194.5,-47.38 0,-47.38 0,-5.62 194.5,-5.62 194.5,-47.38"/>
<text text-anchor="start" x="8" y="-33.88" font-family="Helvetica,sans-Serif" font-size="10.00">/github/workspace/dev</text>
<text text-anchor="start" x="8" y="-22.62" font-family="Helvetica,sans-Serif" font-size="10.00">_area/build/appmodel</text>
<text text-anchor="middle" x="97.25" y="-11.38" font-family="Helvetica,sans-Serif" font-size="10.00">/codegen/src/TPStreamWriterModule.cpp</text>
</a>
</g>
</g>
<!-- Node1&#45;&gt;Node2 -->
<g id="edge1_Node000001_Node000002" class="edge">
<title>Node1&#45;&gt;Node2</title>
<g id="a_edge1_Node000001_Node000002"><a xlink:title=" ">
<path fill="none" stroke="#63b8ff" d="M217.37,-83.69C191.93,-71.79 163.52,-58.5 140.72,-47.83"/>
<polygon fill="#63b8ff" stroke="#63b8ff" points="215.78,-86.81 226.32,-87.87 218.75,-80.47 215.78,-86.81"/>
</a>
</g>
</g>
<!-- Node3 -->
<g id="Node000003" class="node">
<title>Node3</title>
<g id="a_Node000003"><a xlink:href="dump__dunedaq____appmodel_8cpp.html" target="_top" xlink:title=" ">
<polygon fill="white" stroke="#666666" points="353.88,-53 212.62,-53 212.62,0 353.88,0 353.88,-53"/>
<text text-anchor="start" x="220.62" y="-39.5" font-family="Helvetica,sans-Serif" font-size="10.00">/github/workspace/dev</text>
<text text-anchor="start" x="220.62" y="-28.25" font-family="Helvetica,sans-Serif" font-size="10.00">_area/build/appmodel</text>
<text text-anchor="start" x="220.62" y="-17" font-family="Helvetica,sans-Serif" font-size="10.00">/codegen/src/dump_dunedaq</text>
<text text-anchor="middle" x="283.25" y="-5.75" font-family="Helvetica,sans-Serif" font-size="10.00">__appmodel.cpp</text>
</a>
</g>
</g>
<!-- Node1&#45;&gt;Node3 -->
<g id="edge2_Node000001_Node000003" class="edge">
<title>Node1&#45;&gt;Node3</title>
<g id="a_edge2_Node000001_Node000003"><a xlink:title=" ">
<path fill="none" stroke="#63b8ff" d="M283.25,-77.61C283.25,-69.41 283.25,-60.89 283.25,-53.25"/>
<polygon fill="#63b8ff" stroke="#63b8ff" points="279.75,-77.35 283.25,-87.35 286.75,-77.35 279.75,-77.35"/>
</a>
</g>
</g>
<!-- Node4 -->
<g id="Node000004" class="node">
<title>Node4</title>
<g id="a_Node000004"><a xlink:href="TPWriterApplication_8cpp.html" target="_top" xlink:title=" ">
<polygon fill="white" stroke="#666666" points="512.12,-47.38 372.38,-47.38 372.38,-5.62 512.12,-5.62 512.12,-47.38"/>
<text text-anchor="start" x="380.38" y="-33.88" font-family="Helvetica,sans-Serif" font-size="10.00">/github/workspace/dev</text>
<text text-anchor="start" x="380.38" y="-22.62" font-family="Helvetica,sans-Serif" font-size="10.00">_area/sourcecode/appmodel</text>
<text text-anchor="middle" x="442.25" y="-11.38" font-family="Helvetica,sans-Serif" font-size="10.00">/src/TPWriterApplication.cpp</text>
</a>
</g>
</g>
<!-- Node1&#45;&gt;Node4 -->
<g id="edge3_Node000001_Node000004" class="edge">
<title>Node1&#45;&gt;Node4</title>
<g id="a_edge3_Node000001_Node000004"><a xlink:title=" ">
<path fill="none" stroke="#63b8ff" d="M340.56,-83.14C362.11,-71.35 386.03,-58.26 405.25,-47.75"/>
<polygon fill="#63b8ff" stroke="#63b8ff" points="338.95,-80.04 331.85,-87.91 342.31,-86.18 338.95,-80.04"/>
</a>
</g>
</g>
</g>
</svg>
