<?xml version="1.0" encoding="UTF-8" standalone="no"?>
<!DOCTYPE svg PUBLIC "-//W3C//DTD SVG 1.1//EN"
 "http://www.w3.org/Graphics/SVG/1.1/DTD/svg11.dtd">
<!-- Generated by graphviz version 9.0.0 (20230911.1827)
 -->
<!-- Title: /github/workspace/dev_area/sourcecode/dbe/include/dbe/IncludeFileWidget.hpp Pages: 1 -->
<svg width="509pt" height="160pt"
 viewBox="0.00 0.00 509.25 160.25" xmlns="http://www.w3.org/2000/svg" xmlns:xlink="http://www.w3.org/1999/xlink">
<g id="graph0" class="graph" transform="scale(1 1) rotate(0) translate(4 156.25)">
<title>/github/workspace/dev_area/sourcecode/dbe/include/dbe/IncludeFileWidget.hpp</title>
<!-- Node1 -->
<g id="Node000001" class="node">
<title>Node1</title>
<g id="a_Node000001"><a xlink:title=" ">
<polygon fill="#999999" stroke="#666666" points="214.62,-152.25 47.88,-152.25 47.88,-110.5 214.62,-110.5 214.62,-152.25"/>
<text text-anchor="start" x="55.88" y="-138.75" font-family="Helvetica,sans-Serif" font-size="10.00">/github/workspace/dev</text>
<text text-anchor="start" x="55.88" y="-127.5" font-family="Helvetica,sans-Serif" font-size="10.00">_area/sourcecode/dbe</text>
<text text-anchor="middle" x="131.25" y="-116.25" font-family="Helvetica,sans-Serif" font-size="10.00">/include/dbe/IncludeFileWidget.hpp</text>
</a>
</g>
</g>
<!-- Node2 -->
<g id="Node000002" class="node">
<title>Node2</title>
<g id="a_Node000002"><a xlink:title=" ">
<polygon fill="#e0e0e0" stroke="#999999" points="50.5,-74.5 0,-74.5 0,-55.25 50.5,-55.25 50.5,-74.5"/>
<text text-anchor="middle" x="25.25" y="-61" font-family="Helvetica,sans-Serif" font-size="10.00">memory</text>
</a>
</g>
</g>
<!-- Node1&#45;&gt;Node2 -->
<g id="edge1_Node000001_Node000002" class="edge">
<title>Node1&#45;&gt;Node2</title>
<g id="a_edge1_Node000001_Node000002"><a xlink:title=" ">
<path fill="none" stroke="#63b8ff" d="M98,-110.14C82.37,-100.63 64.06,-89.49 49.72,-80.76"/>
<polygon fill="#63b8ff" stroke="#63b8ff" points="51.73,-77.89 41.37,-75.68 48.09,-83.87 51.73,-77.89"/>
</a>
</g>
</g>
<!-- Node3 -->
<g id="Node000003" class="node">
<title>Node3</title>
<g id="a_Node000003"><a xlink:title=" ">
<polygon fill="#e0e0e0" stroke="#999999" points="134.38,-74.5 68.12,-74.5 68.12,-55.25 134.38,-55.25 134.38,-74.5"/>
<text text-anchor="middle" x="101.25" y="-61" font-family="Helvetica,sans-Serif" font-size="10.00">QFileDialog</text>
</a>
</g>
</g>
<!-- Node1&#45;&gt;Node3 -->
<g id="edge2_Node000001_Node000003" class="edge">
<title>Node1&#45;&gt;Node3</title>
<g id="a_edge2_Node000001_Node000003"><a xlink:title=" ">
<path fill="none" stroke="#63b8ff" d="M121.92,-110.32C118.22,-102.37 113.99,-93.26 110.31,-85.36"/>
<polygon fill="#63b8ff" stroke="#63b8ff" points="113.5,-83.91 106.11,-76.32 107.15,-86.86 113.5,-83.91"/>
</a>
</g>
</g>
<!-- Node4 -->
<g id="Node000004" class="node">
<title>Node4</title>
<g id="a_Node000004"><a xlink:title=" ">
<polygon fill="#e0e0e0" stroke="#999999" points="189,-19.25 135.5,-19.25 135.5,0 189,0 189,-19.25"/>
<text text-anchor="middle" x="162.25" y="-5.75" font-family="Helvetica,sans-Serif" font-size="10.00">QWidget</text>
</a>
</g>
</g>
<!-- Node1&#45;&gt;Node4 -->
<g id="edge3_Node000001_Node000004" class="edge">
<title>Node1&#45;&gt;Node4</title>
<g id="a_edge3_Node000001_Node000004"><a xlink:title=" ">
<path fill="none" stroke="#63b8ff" d="M136.51,-110.06C142.25,-87.87 151.4,-52.55 157.1,-30.52"/>
<polygon fill="#63b8ff" stroke="#63b8ff" points="160.44,-31.58 159.56,-21.02 153.66,-29.82 160.44,-31.58"/>
</a>
</g>
</g>
<!-- Node5 -->
<g id="Node000005" class="node">
<title>Node5</title>
<g id="a_Node000005"><a xlink:href="CreateDatabaseWidget_8hpp.html" target="_top" xlink:title=" ">
<polygon fill="white" stroke="#666666" points="342.5,-74.5 190,-74.5 190,-55.25 342.5,-55.25 342.5,-74.5"/>
<text text-anchor="middle" x="266.25" y="-61" font-family="Helvetica,sans-Serif" font-size="10.00">dbe/CreateDatabaseWidget.hpp</text>
</a>
</g>
</g>
<!-- Node1&#45;&gt;Node5 -->
<g id="edge4_Node000001_Node000005" class="edge">
<title>Node1&#45;&gt;Node5</title>
<g id="a_edge4_Node000001_Node000005"><a xlink:title=" ">
<path fill="none" stroke="#63b8ff" d="M173.59,-110.14C194.28,-100.26 218.64,-88.62 237.19,-79.76"/>
<polygon fill="#63b8ff" stroke="#63b8ff" points="238.49,-83.02 246.01,-75.55 235.47,-76.7 238.49,-83.02"/>
</a>
</g>
</g>
<!-- Node5&#45;&gt;Node4 -->
<g id="edge5_Node000005_Node000004" class="edge">
<title>Node5&#45;&gt;Node4</title>
<g id="a_edge5_Node000005_Node000004"><a xlink:title=" ">
<path fill="none" stroke="#63b8ff" d="M248.61,-54.84C232.62,-46.66 208.79,-34.46 190.21,-24.94"/>
<polygon fill="#63b8ff" stroke="#63b8ff" points="191.82,-21.83 181.33,-20.39 188.63,-28.07 191.82,-21.83"/>
</a>
</g>
</g>
<!-- Node6 -->
<g id="Node000006" class="node">
<title>Node6</title>
<g id="a_Node000006"><a xlink:title=" ">
<polygon fill="#e0e0e0" stroke="#999999" points="273.75,-19.25 206.75,-19.25 206.75,0 273.75,0 273.75,-19.25"/>
<text text-anchor="middle" x="240.25" y="-5.75" font-family="Helvetica,sans-Serif" font-size="10.00">QStatusBar</text>
</a>
</g>
</g>
<!-- Node5&#45;&gt;Node6 -->
<g id="edge6_Node000005_Node000006" class="edge">
<title>Node5&#45;&gt;Node6</title>
<g id="a_edge6_Node000005_Node000006"><a xlink:title=" ">
<path fill="none" stroke="#63b8ff" d="M261.96,-55.08C258.63,-48.26 253.89,-38.56 249.69,-29.95"/>
<polygon fill="#63b8ff" stroke="#63b8ff" points="252.83,-28.42 245.3,-20.97 246.54,-31.49 252.83,-28.42"/>
</a>
</g>
</g>
<!-- Node7 -->
<g id="Node000007" class="node">
<title>Node7</title>
<g id="a_Node000007"><a xlink:title=" ">
<polygon fill="#e0e0e0" stroke="#999999" points="347.12,-19.25 291.38,-19.25 291.38,0 347.12,0 347.12,-19.25"/>
<text text-anchor="middle" x="319.25" y="-5.75" font-family="Helvetica,sans-Serif" font-size="10.00">QFileInfo</text>
</a>
</g>
</g>
<!-- Node5&#45;&gt;Node7 -->
<g id="edge7_Node000005_Node000007" class="edge">
<title>Node5&#45;&gt;Node7</title>
<g id="a_edge7_Node000005_Node000007"><a xlink:title=" ">
<path fill="none" stroke="#63b8ff" d="M275,-55.08C282.4,-47.65 293.21,-36.79 302.3,-27.66"/>
<polygon fill="#63b8ff" stroke="#63b8ff" points="304.67,-30.24 309.24,-20.68 299.71,-25.3 304.67,-30.24"/>
</a>
</g>
</g>
<!-- Node8 -->
<g id="Node000008" class="node">
<title>Node8</title>
<g id="a_Node000008"><a xlink:title=" ">
<polygon fill="#e0e0e0" stroke="#999999" points="501.25,-19.25 365.25,-19.25 365.25,0 501.25,0 501.25,-19.25"/>
<text text-anchor="middle" x="433.25" y="-5.75" font-family="Helvetica,sans-Serif" font-size="10.00">ui_CreateDatabaseWidget.h</text>
</a>
</g>
</g>
<!-- Node5&#45;&gt;Node8 -->
<g id="edge8_Node000005_Node000008" class="edge">
<title>Node5&#45;&gt;Node8</title>
<g id="a_edge8_Node000005_Node000008"><a xlink:title=" ">
<path fill="none" stroke="#63b8ff" d="M294.58,-54.84C321.93,-46.12 363.57,-32.84 394.09,-23.11"/>
<polygon fill="#63b8ff" stroke="#63b8ff" points="394.88,-26.53 403.34,-20.16 392.75,-19.87 394.88,-26.53"/>
</a>
</g>
</g>
</g>
</svg>
