<?xml version="1.0" encoding="UTF-8" standalone="no"?>
<!DOCTYPE svg PUBLIC "-//W3C//DTD SVG 1.1//EN"
 "http://www.w3.org/Graphics/SVG/1.1/DTD/svg11.dtd">
<!-- Generated by graphviz version 9.0.0 (20230911.1827)
 -->
<!-- Title: /github/workspace/dev_area/build/confmodel/codegen/include/confmodel/DetDataSender.hpp Pages: 1 -->
<svg width="2107pt" height="328pt"
 viewBox="0.00 0.00 2107.12 328.00" xmlns="http://www.w3.org/2000/svg" xmlns:xlink="http://www.w3.org/1999/xlink">
<g id="graph0" class="graph" transform="scale(1 1) rotate(0) translate(4 324)">
<title>/github/workspace/dev_area/build/confmodel/codegen/include/confmodel/DetDataSender.hpp</title>
<!-- Node1 -->
<g id="Node000001" class="node">
<title>Node1</title>
<g id="a_Node000001"><a xlink:title=" ">
<polygon fill="#999999" stroke="#666666" points="1179.75,-320 1042.25,-320 1042.25,-267 1179.75,-267 1179.75,-320"/>
<text text-anchor="start" x="1050.25" y="-306.5" font-family="Helvetica,sans-Serif" font-size="10.00">/github/workspace/dev</text>
<text text-anchor="start" x="1050.25" y="-295.25" font-family="Helvetica,sans-Serif" font-size="10.00">_area/build/confmodel</text>
<text text-anchor="start" x="1050.25" y="-284" font-family="Helvetica,sans-Serif" font-size="10.00">/codegen/include/confmodel</text>
<text text-anchor="middle" x="1111" y="-272.75" font-family="Helvetica,sans-Serif" font-size="10.00">/DetDataSender.hpp</text>
</a>
</g>
</g>
<!-- Node2 -->
<g id="Node000002" class="node">
<title>Node2</title>
<g id="a_Node000002"><a xlink:href="include_2appmodel_2FakeDataSender_8hpp.html" target="_top" xlink:title=" ">
<polygon fill="white" stroke="#666666" points="258.25,-231 123.75,-231 123.75,-178 258.25,-178 258.25,-231"/>
<text text-anchor="start" x="131.75" y="-217.5" font-family="Helvetica,sans-Serif" font-size="10.00">/github/workspace/dev</text>
<text text-anchor="start" x="131.75" y="-206.25" font-family="Helvetica,sans-Serif" font-size="10.00">_area/build/appmodel</text>
<text text-anchor="start" x="131.75" y="-195" font-family="Helvetica,sans-Serif" font-size="10.00">/codegen/include/appmodel</text>
<text text-anchor="middle" x="191" y="-183.75" font-family="Helvetica,sans-Serif" font-size="10.00">/FakeDataSender.hpp</text>
</a>
</g>
</g>
<!-- Node1&#45;&gt;Node2 -->
<g id="edge1_Node000001_Node000002" class="edge">
<title>Node1&#45;&gt;Node2</title>
<g id="a_edge1_Node000001_Node000002"><a xlink:title=" ">
<path fill="none" stroke="#63b8ff" d="M1030.51,-293.19C879.5,-293.05 543.98,-285.89 268,-231 264.82,-230.37 261.6,-229.64 258.35,-228.85"/>
<polygon fill="#63b8ff" stroke="#63b8ff" points="1030.43,-296.69 1040.42,-293.19 1030.42,-289.69 1030.43,-296.69"/>
</a>
</g>
</g>
<!-- Node5 -->
<g id="Node000005" class="node">
<title>Node5</title>
<g id="a_Node000005"><a xlink:href="include_2appmodel_2FelixDataSender_8hpp.html" target="_top" xlink:title=" ">
<polygon fill="white" stroke="#666666" points="411.25,-231 276.75,-231 276.75,-178 411.25,-178 411.25,-231"/>
<text text-anchor="start" x="284.75" y="-217.5" font-family="Helvetica,sans-Serif" font-size="10.00">/github/workspace/dev</text>
<text text-anchor="start" x="284.75" y="-206.25" font-family="Helvetica,sans-Serif" font-size="10.00">_area/build/appmodel</text>
<text text-anchor="start" x="284.75" y="-195" font-family="Helvetica,sans-Serif" font-size="10.00">/codegen/include/appmodel</text>
<text text-anchor="middle" x="344" y="-183.75" font-family="Helvetica,sans-Serif" font-size="10.00">/FelixDataSender.hpp</text>
</a>
</g>
</g>
<!-- Node1&#45;&gt;Node5 -->
<g id="edge4_Node000001_Node000005" class="edge">
<title>Node1&#45;&gt;Node5</title>
<g id="a_edge4_Node000001_Node000005"><a xlink:title=" ">
<path fill="none" stroke="#63b8ff" d="M1030.87,-283.41C879.29,-266.22 553.1,-229.22 411.69,-213.18"/>
<polygon fill="#63b8ff" stroke="#63b8ff" points="1030.09,-286.84 1040.42,-284.49 1030.87,-279.89 1030.09,-286.84"/>
</a>
</g>
</g>
<!-- Node7 -->
<g id="Node000007" class="node">
<title>Node7</title>
<g id="a_Node000007"><a xlink:href="include_2appmodel_2NWDetDataSender_8hpp.html" target="_top" xlink:title=" ">
<polygon fill="white" stroke="#666666" points="789.25,-231 654.75,-231 654.75,-178 789.25,-178 789.25,-231"/>
<text text-anchor="start" x="662.75" y="-217.5" font-family="Helvetica,sans-Serif" font-size="10.00">/github/workspace/dev</text>
<text text-anchor="start" x="662.75" y="-206.25" font-family="Helvetica,sans-Serif" font-size="10.00">_area/build/appmodel</text>
<text text-anchor="start" x="662.75" y="-195" font-family="Helvetica,sans-Serif" font-size="10.00">/codegen/include/appmodel</text>
<text text-anchor="middle" x="722" y="-183.75" font-family="Helvetica,sans-Serif" font-size="10.00">/NWDetDataSender.hpp</text>
</a>
</g>
</g>
<!-- Node1&#45;&gt;Node7 -->
<g id="edge7_Node000001_Node000007" class="edge">
<title>Node1&#45;&gt;Node7</title>
<g id="a_edge7_Node000001_Node000007"><a xlink:title=" ">
<path fill="none" stroke="#63b8ff" d="M1031.05,-278.98C968.57,-267.83 879.73,-250.68 803,-231 798.57,-229.86 794.03,-228.63 789.47,-227.34"/>
<polygon fill="#63b8ff" stroke="#63b8ff" points="1030.07,-282.36 1040.53,-280.66 1031.29,-275.47 1030.07,-282.36"/>
</a>
</g>
</g>
<!-- Node14 -->
<g id="Node000014" class="node">
<title>Node14</title>
<g id="a_Node000014"><a xlink:href="sourcecode_2appmodel_2src_2ReadoutApplication_8cpp.html" target="_top" xlink:title=" ">
<polygon fill="white" stroke="#666666" points="1311.12,-136.38 1172.88,-136.38 1172.88,-94.62 1311.12,-94.62 1311.12,-136.38"/>
<text text-anchor="start" x="1180.88" y="-122.88" font-family="Helvetica,sans-Serif" font-size="10.00">/github/workspace/dev</text>
<text text-anchor="start" x="1180.88" y="-111.62" font-family="Helvetica,sans-Serif" font-size="10.00">_area/sourcecode/appmodel</text>
<text text-anchor="middle" x="1242" y="-100.38" font-family="Helvetica,sans-Serif" font-size="10.00">/src/ReadoutApplication.cpp</text>
</a>
</g>
</g>
<!-- Node1&#45;&gt;Node14 -->
<g id="edge24_Node000001_Node000014" class="edge">
<title>Node1&#45;&gt;Node14</title>
<g id="a_edge24_Node000001_Node000014"><a xlink:title=" ">
<path fill="none" stroke="#63b8ff" d="M1030.92,-285.97C929.53,-274.77 774.95,-246.12 836,-178 884.94,-123.4 1092.32,-157.48 1164,-142 1170.68,-140.56 1177.6,-138.76 1184.44,-136.79"/>
<polygon fill="#63b8ff" stroke="#63b8ff" points="1030.27,-289.42 1040.58,-287 1031.01,-282.46 1030.27,-289.42"/>
</a>
</g>
</g>
<!-- Node17 -->
<g id="Node000017" class="node">
<title>Node17</title>
<g id="a_Node000017"><a xlink:href="src_2FakeDataSender_8hpp.html" target="_top" xlink:title=" ">
<polygon fill="white" stroke="#666666" points="1011,-225.38 845,-225.38 845,-183.62 1011,-183.62 1011,-225.38"/>
<text text-anchor="start" x="853" y="-211.88" font-family="Helvetica,sans-Serif" font-size="10.00">/github/workspace/dev</text>
<text text-anchor="start" x="853" y="-200.62" font-family="Helvetica,sans-Serif" font-size="10.00">_area/build/appmodel</text>
<text text-anchor="middle" x="928" y="-189.38" font-family="Helvetica,sans-Serif" font-size="10.00">/codegen/src/FakeDataSender.hpp</text>
</a>
</g>
</g>
<!-- Node1&#45;&gt;Node17 -->
<g id="edge19_Node000001_Node000017" class="edge">
<title>Node1&#45;&gt;Node17</title>
<g id="a_edge19_Node000001_Node000017"><a xlink:title=" ">
<path fill="none" stroke="#63b8ff" d="M1046.39,-261.78C1021.23,-249.82 993.11,-236.45 970.59,-225.75"/>
<polygon fill="#63b8ff" stroke="#63b8ff" points="1044.69,-264.85 1055.22,-265.98 1047.69,-258.53 1044.69,-264.85"/>
</a>
</g>
</g>
<!-- Node18 -->
<g id="Node000018" class="node">
<title>Node18</title>
<g id="a_Node000018"><a xlink:href="src_2FelixDataSender_8hpp.html" target="_top" xlink:title=" ">
<polygon fill="white" stroke="#666666" points="1193.25,-225.38 1028.75,-225.38 1028.75,-183.62 1193.25,-183.62 1193.25,-225.38"/>
<text text-anchor="start" x="1036.75" y="-211.88" font-family="Helvetica,sans-Serif" font-size="10.00">/github/workspace/dev</text>
<text text-anchor="start" x="1036.75" y="-200.62" font-family="Helvetica,sans-Serif" font-size="10.00">_area/build/appmodel</text>
<text text-anchor="middle" x="1111" y="-189.38" font-family="Helvetica,sans-Serif" font-size="10.00">/codegen/src/FelixDataSender.hpp</text>
</a>
</g>
</g>
<!-- Node1&#45;&gt;Node18 -->
<g id="edge20_Node000001_Node000018" class="edge">
<title>Node1&#45;&gt;Node18</title>
<g id="a_edge20_Node000001_Node000018"><a xlink:title=" ">
<path fill="none" stroke="#63b8ff" d="M1111,-255.63C1111,-245.38 1111,-234.62 1111,-225.71"/>
<polygon fill="#63b8ff" stroke="#63b8ff" points="1107.5,-255.35 1111,-265.35 1114.5,-255.35 1107.5,-255.35"/>
</a>
</g>
</g>
<!-- Node19 -->
<g id="Node000019" class="node">
<title>Node19</title>
<g id="a_Node000019"><a xlink:href="src_2NWDetDataSender_8hpp.html" target="_top" xlink:title=" ">
<polygon fill="white" stroke="#666666" points="1386.88,-225.38 1211.12,-225.38 1211.12,-183.62 1386.88,-183.62 1386.88,-225.38"/>
<text text-anchor="start" x="1219.12" y="-211.88" font-family="Helvetica,sans-Serif" font-size="10.00">/github/workspace/dev</text>
<text text-anchor="start" x="1219.12" y="-200.62" font-family="Helvetica,sans-Serif" font-size="10.00">_area/build/appmodel</text>
<text text-anchor="middle" x="1299" y="-189.38" font-family="Helvetica,sans-Serif" font-size="10.00">/codegen/src/NWDetDataSender.hpp</text>
</a>
</g>
</g>
<!-- Node1&#45;&gt;Node19 -->
<g id="edge21_Node000001_Node000019" class="edge">
<title>Node1&#45;&gt;Node19</title>
<g id="a_edge21_Node000001_Node000019"><a xlink:title=" ">
<path fill="none" stroke="#63b8ff" d="M1177.59,-261.69C1203.3,-249.79 1232.02,-236.5 1255.07,-225.83"/>
<polygon fill="#63b8ff" stroke="#63b8ff" points="1176.13,-258.5 1168.53,-265.88 1179.07,-264.86 1176.13,-258.5"/>
</a>
</g>
</g>
<!-- Node20 -->
<g id="Node000020" class="node">
<title>Node20</title>
<g id="a_Node000020"><a xlink:href="DetDataSender_8cpp.html" target="_top" xlink:title=" ">
<polygon fill="white" stroke="#666666" points="1564.62,-225.38 1405.38,-225.38 1405.38,-183.62 1564.62,-183.62 1564.62,-225.38"/>
<text text-anchor="start" x="1413.38" y="-211.88" font-family="Helvetica,sans-Serif" font-size="10.00">/github/workspace/dev</text>
<text text-anchor="start" x="1413.38" y="-200.62" font-family="Helvetica,sans-Serif" font-size="10.00">_area/build/confmodel</text>
<text text-anchor="middle" x="1485" y="-189.38" font-family="Helvetica,sans-Serif" font-size="10.00">/codegen/src/DetDataSender.cpp</text>
</a>
</g>
</g>
<!-- Node1&#45;&gt;Node20 -->
<g id="edge22_Node000001_Node000020" class="edge">
<title>Node1&#45;&gt;Node20</title>
<g id="a_edge22_Node000001_Node000020"><a xlink:title=" ">
<path fill="none" stroke="#63b8ff" d="M1191.28,-276.66C1248.56,-265 1327.3,-248.23 1396,-231 1402.39,-229.4 1409.02,-227.65 1415.64,-225.85"/>
<polygon fill="#63b8ff" stroke="#63b8ff" points="1190.7,-273.21 1181.6,-278.63 1192.09,-280.07 1190.7,-273.21"/>
</a>
</g>
</g>
<!-- Node21 -->
<g id="Node000021" class="node">
<title>Node21</title>
<g id="a_Node000021"><a xlink:href="dump__dunedaq____confmodel_8cpp.html" target="_top" xlink:title=" ">
<polygon fill="white" stroke="#666666" points="1723.62,-231 1582.38,-231 1582.38,-178 1723.62,-178 1723.62,-231"/>
<text text-anchor="start" x="1590.38" y="-217.5" font-family="Helvetica,sans-Serif" font-size="10.00">/github/workspace/dev</text>
<text text-anchor="start" x="1590.38" y="-206.25" font-family="Helvetica,sans-Serif" font-size="10.00">_area/build/confmodel</text>
<text text-anchor="start" x="1590.38" y="-195" font-family="Helvetica,sans-Serif" font-size="10.00">/codegen/src/dump_dunedaq</text>
<text text-anchor="middle" x="1653" y="-183.75" font-family="Helvetica,sans-Serif" font-size="10.00">__confmodel.cpp</text>
</a>
</g>
</g>
<!-- Node1&#45;&gt;Node21 -->
<g id="edge23_Node000001_Node000021" class="edge">
<title>Node1&#45;&gt;Node21</title>
<g id="a_edge23_Node000001_Node000021"><a xlink:title=" ">
<path fill="none" stroke="#63b8ff" d="M1191.22,-286.26C1284.16,-278.02 1441.5,-260.93 1574,-231 1576.67,-230.4 1579.38,-229.74 1582.11,-229.05"/>
<polygon fill="#63b8ff" stroke="#63b8ff" points="1191.1,-282.76 1181.44,-287.12 1191.71,-289.73 1191.1,-282.76"/>
</a>
</g>
</g>
<!-- Node22 -->
<g id="Node000022" class="node">
<title>Node22</title>
<g id="a_Node000022"><a xlink:href="dalMethods_8cpp.html" target="_top" xlink:title=" ">
<polygon fill="white" stroke="#666666" points="1882.62,-225.38 1741.38,-225.38 1741.38,-183.62 1882.62,-183.62 1882.62,-225.38"/>
<text text-anchor="start" x="1749.38" y="-211.88" font-family="Helvetica,sans-Serif" font-size="10.00">/github/workspace/dev</text>
<text text-anchor="start" x="1749.38" y="-200.62" font-family="Helvetica,sans-Serif" font-size="10.00">_area/sourcecode/confmodel</text>
<text text-anchor="middle" x="1812" y="-189.38" font-family="Helvetica,sans-Serif" font-size="10.00">/src/dalMethods.cpp</text>
</a>
</g>
</g>
<!-- Node1&#45;&gt;Node22 -->
<g id="edge25_Node000001_Node000022" class="edge">
<title>Node1&#45;&gt;Node22</title>
<g id="a_edge25_Node000001_Node000022"><a xlink:title=" ">
<path fill="none" stroke="#63b8ff" d="M1191.02,-290.05C1310.24,-285.16 1541.07,-270.98 1733,-231 1739.77,-229.59 1746.78,-227.81 1753.7,-225.85"/>
<polygon fill="#63b8ff" stroke="#63b8ff" points="1191.2,-286.54 1181.34,-290.43 1191.48,-293.53 1191.2,-286.54"/>
</a>
</g>
</g>
<!-- Node23 -->
<g id="Node000023" class="node">
<title>Node23</title>
<g id="a_Node000023"><a xlink:href="FakeCardReaderBase_8hpp.html" target="_top" xlink:title=" ">
<polygon fill="white" stroke="#666666" points="2099.12,-231 1900.88,-231 1900.88,-178 2099.12,-178 2099.12,-231"/>
<text text-anchor="start" x="1908.88" y="-217.5" font-family="Helvetica,sans-Serif" font-size="10.00">/github/workspace/dev</text>
<text text-anchor="start" x="1908.88" y="-206.25" font-family="Helvetica,sans-Serif" font-size="10.00">_area/sourcecode/datahandlinglibs</text>
<text text-anchor="start" x="1908.88" y="-195" font-family="Helvetica,sans-Serif" font-size="10.00">/include/datahandlinglibs/FakeCardReader</text>
<text text-anchor="middle" x="2000" y="-183.75" font-family="Helvetica,sans-Serif" font-size="10.00">Base.hpp</text>
</a>
</g>
</g>
<!-- Node1&#45;&gt;Node23 -->
<g id="edge26_Node000001_Node000023" class="edge">
<title>Node1&#45;&gt;Node23</title>
<g id="a_edge26_Node000001_Node000023"><a xlink:title=" ">
<path fill="none" stroke="#63b8ff" d="M1191.28,-290.23C1333.35,-285.32 1638.02,-270.74 1892,-231 1894.86,-230.55 1897.75,-230.07 1900.66,-229.56"/>
<polygon fill="#63b8ff" stroke="#63b8ff" points="1191.49,-286.73 1181.62,-290.56 1191.73,-293.72 1191.49,-286.73"/>
</a>
</g>
</g>
<!-- Node3 -->
<g id="Node000003" class="node">
<title>Node3</title>
<g id="a_Node000003"><a xlink:href="FakeDataSender_8cpp.html" target="_top" xlink:title=" ">
<polygon fill="white" stroke="#666666" points="166,-136.38 0,-136.38 0,-94.62 166,-94.62 166,-136.38"/>
<text text-anchor="start" x="8" y="-122.88" font-family="Helvetica,sans-Serif" font-size="10.00">/github/workspace/dev</text>
<text text-anchor="start" x="8" y="-111.62" font-family="Helvetica,sans-Serif" font-size="10.00">_area/build/appmodel</text>
<text text-anchor="middle" x="83" y="-100.38" font-family="Helvetica,sans-Serif" font-size="10.00">/codegen/src/FakeDataSender.cpp</text>
</a>
</g>
</g>
<!-- Node2&#45;&gt;Node3 -->
<g id="edge2_Node000002_Node000003" class="edge">
<title>Node2&#45;&gt;Node3</title>
<g id="a_edge2_Node000002_Node000003"><a xlink:title=" ">
<path fill="none" stroke="#63b8ff" d="M150.24,-170.67C136.03,-159.22 120.5,-146.71 107.96,-136.61"/>
<polygon fill="#63b8ff" stroke="#63b8ff" points="147.73,-173.14 157.71,-176.68 152.12,-167.68 147.73,-173.14"/>
</a>
</g>
</g>
<!-- Node4 -->
<g id="Node000004" class="node">
<title>Node4</title>
<g id="a_Node000004"><a xlink:href="dump__dunedaq____appmodel_8cpp.html" target="_top" xlink:title=" ">
<polygon fill="white" stroke="#666666" points="302.62,-53 161.38,-53 161.38,0 302.62,0 302.62,-53"/>
<text text-anchor="start" x="169.38" y="-39.5" font-family="Helvetica,sans-Serif" font-size="10.00">/github/workspace/dev</text>
<text text-anchor="start" x="169.38" y="-28.25" font-family="Helvetica,sans-Serif" font-size="10.00">_area/build/appmodel</text>
<text text-anchor="start" x="169.38" y="-17" font-family="Helvetica,sans-Serif" font-size="10.00">/codegen/src/dump_dunedaq</text>
<text text-anchor="middle" x="232" y="-5.75" font-family="Helvetica,sans-Serif" font-size="10.00">__appmodel.cpp</text>
</a>
</g>
</g>
<!-- Node2&#45;&gt;Node4 -->
<g id="edge3_Node000002_Node000004" class="edge">
<title>Node2&#45;&gt;Node4</title>
<g id="a_edge3_Node000002_Node000004"><a xlink:title=" ">
<path fill="none" stroke="#63b8ff" d="M199.58,-166.66C207.49,-132.71 219.03,-83.19 225.99,-53.29"/>
<polygon fill="#63b8ff" stroke="#63b8ff" points="196.25,-165.52 197.39,-176.06 203.07,-167.11 196.25,-165.52"/>
</a>
</g>
</g>
<!-- Node5&#45;&gt;Node4 -->
<g id="edge6_Node000005_Node000004" class="edge">
<title>Node5&#45;&gt;Node4</title>
<g id="a_edge6_Node000005_Node000004"><a xlink:title=" ">
<path fill="none" stroke="#63b8ff" d="M279.51,-171.12C268.53,-162.99 258.32,-153.29 251,-142 233.67,-115.29 230.5,-77.94 230.6,-53.25"/>
<polygon fill="#63b8ff" stroke="#63b8ff" points="277.41,-173.92 287.63,-176.72 281.39,-168.16 277.41,-173.92"/>
</a>
</g>
</g>
<!-- Node6 -->
<g id="Node000006" class="node">
<title>Node6</title>
<g id="a_Node000006"><a xlink:href="FelixDataSender_8cpp.html" target="_top" xlink:title=" ">
<polygon fill="white" stroke="#666666" points="424.25,-136.38 259.75,-136.38 259.75,-94.62 424.25,-94.62 424.25,-136.38"/>
<text text-anchor="start" x="267.75" y="-122.88" font-family="Helvetica,sans-Serif" font-size="10.00">/github/workspace/dev</text>
<text text-anchor="start" x="267.75" y="-111.62" font-family="Helvetica,sans-Serif" font-size="10.00">_area/build/appmodel</text>
<text text-anchor="middle" x="342" y="-100.38" font-family="Helvetica,sans-Serif" font-size="10.00">/codegen/src/FelixDataSender.cpp</text>
</a>
</g>
</g>
<!-- Node5&#45;&gt;Node6 -->
<g id="edge5_Node000005_Node000006" class="edge">
<title>Node5&#45;&gt;Node6</title>
<g id="a_edge5_Node000005_Node000006"><a xlink:title=" ">
<path fill="none" stroke="#63b8ff" d="M343.15,-166.63C342.92,-156.38 342.67,-145.62 342.46,-136.71"/>
<polygon fill="#63b8ff" stroke="#63b8ff" points="339.65,-166.44 343.38,-176.35 346.65,-166.28 339.65,-166.44"/>
</a>
</g>
</g>
<!-- Node7&#45;&gt;Node4 -->
<g id="edge15_Node000007_Node000004" class="edge">
<title>Node7&#45;&gt;Node4</title>
<g id="a_edge15_Node000007_Node000004"><a xlink:title=" ">
<path fill="none" stroke="#63b8ff" d="M643.2,-198.37C590.64,-191.71 522.07,-176.53 471,-142 446.99,-125.77 456.61,-105.82 433,-89 387.3,-56.45 365.62,-69.52 312,-53 309.07,-52.1 306.09,-51.17 303.08,-50.23"/>
<polygon fill="#63b8ff" stroke="#63b8ff" points="642.66,-201.83 653,-199.52 643.47,-194.87 642.66,-201.83"/>
</a>
</g>
</g>
<!-- Node8 -->
<g id="Node000008" class="node">
<title>Node8</title>
<g id="a_Node000008"><a xlink:href="include_2appmodel_2HermesDataSender_8hpp.html" target="_top" xlink:title=" ">
<polygon fill="white" stroke="#666666" points="614.25,-142 479.75,-142 479.75,-89 614.25,-89 614.25,-142"/>
<text text-anchor="start" x="487.75" y="-128.5" font-family="Helvetica,sans-Serif" font-size="10.00">/github/workspace/dev</text>
<text text-anchor="start" x="487.75" y="-117.25" font-family="Helvetica,sans-Serif" font-size="10.00">_area/build/appmodel</text>
<text text-anchor="start" x="487.75" y="-106" font-family="Helvetica,sans-Serif" font-size="10.00">/codegen/include/appmodel</text>
<text text-anchor="middle" x="547" y="-94.75" font-family="Helvetica,sans-Serif" font-size="10.00">/HermesDataSender.hpp</text>
</a>
</g>
</g>
<!-- Node7&#45;&gt;Node8 -->
<g id="edge8_Node000007_Node000008" class="edge">
<title>Node7&#45;&gt;Node8</title>
<g id="a_edge8_Node000007_Node000008"><a xlink:title=" ">
<path fill="none" stroke="#63b8ff" d="M659.79,-172.57C639.94,-162.7 618.19,-151.89 599.13,-142.42"/>
<polygon fill="#63b8ff" stroke="#63b8ff" points="658.1,-175.64 668.61,-176.96 661.22,-169.37 658.1,-175.64"/>
</a>
</g>
</g>
<!-- Node12 -->
<g id="Node000012" class="node">
<title>Node12</title>
<g id="a_Node000012"><a xlink:href="src_2HermesDataSender_8hpp.html" target="_top" xlink:title=" ">
<polygon fill="white" stroke="#666666" points="811.38,-136.38 632.62,-136.38 632.62,-94.62 811.38,-94.62 811.38,-136.38"/>
<text text-anchor="start" x="640.62" y="-122.88" font-family="Helvetica,sans-Serif" font-size="10.00">/github/workspace/dev</text>
<text text-anchor="start" x="640.62" y="-111.62" font-family="Helvetica,sans-Serif" font-size="10.00">_area/build/appmodel</text>
<text text-anchor="middle" x="722" y="-100.38" font-family="Helvetica,sans-Serif" font-size="10.00">/codegen/src/HermesDataSender.hpp</text>
</a>
</g>
</g>
<!-- Node7&#45;&gt;Node12 -->
<g id="edge13_Node000007_Node000012" class="edge">
<title>Node7&#45;&gt;Node12</title>
<g id="a_edge13_Node000007_Node000012"><a xlink:title=" ">
<path fill="none" stroke="#63b8ff" d="M722,-166.63C722,-156.38 722,-145.62 722,-136.71"/>
<polygon fill="#63b8ff" stroke="#63b8ff" points="718.5,-166.35 722,-176.35 725.5,-166.35 718.5,-166.35"/>
</a>
</g>
</g>
<!-- Node13 -->
<g id="Node000013" class="node">
<title>Node13</title>
<g id="a_Node000013"><a xlink:href="NWDetDataSender_8cpp.html" target="_top" xlink:title=" ">
<polygon fill="white" stroke="#666666" points="1004.88,-136.38 829.12,-136.38 829.12,-94.62 1004.88,-94.62 1004.88,-136.38"/>
<text text-anchor="start" x="837.12" y="-122.88" font-family="Helvetica,sans-Serif" font-size="10.00">/github/workspace/dev</text>
<text text-anchor="start" x="837.12" y="-111.62" font-family="Helvetica,sans-Serif" font-size="10.00">_area/build/appmodel</text>
<text text-anchor="middle" x="917" y="-100.38" font-family="Helvetica,sans-Serif" font-size="10.00">/codegen/src/NWDetDataSender.cpp</text>
</a>
</g>
</g>
<!-- Node7&#45;&gt;Node13 -->
<g id="edge14_Node000007_Node000013" class="edge">
<title>Node7&#45;&gt;Node13</title>
<g id="a_edge14_Node000007_Node000013"><a xlink:title=" ">
<path fill="none" stroke="#63b8ff" d="M790.71,-172.84C817.48,-160.9 847.42,-147.54 871.43,-136.83"/>
<polygon fill="#63b8ff" stroke="#63b8ff" points="789.33,-169.63 781.62,-176.9 792.18,-176.02 789.33,-169.63"/>
</a>
</g>
</g>
<!-- Node7&#45;&gt;Node14 -->
<g id="edge16_Node000007_Node000014" class="edge">
<title>Node7&#45;&gt;Node14</title>
<g id="a_edge16_Node000007_Node000014"><a xlink:title=" ">
<path fill="none" stroke="#63b8ff" d="M800.47,-178.53C801.32,-178.35 802.16,-178.17 803,-178 960.96,-145.62 1006.22,-175.25 1164,-142 1170.69,-140.59 1177.62,-138.81 1184.45,-136.85"/>
<polygon fill="#63b8ff" stroke="#63b8ff" points="799.75,-175.11 790.82,-180.81 801.36,-181.92 799.75,-175.11"/>
</a>
</g>
</g>
<!-- Node15 -->
<g id="Node000015" class="node">
<title>Node15</title>
<g id="a_Node000015"><a xlink:href="IfaceWrapper_8hpp.html" target="_top" xlink:title=" ">
<polygon fill="white" stroke="#666666" points="1155.12,-136.38 1022.88,-136.38 1022.88,-94.62 1155.12,-94.62 1155.12,-136.38"/>
<text text-anchor="start" x="1030.88" y="-122.88" font-family="Helvetica,sans-Serif" font-size="10.00">/github/workspace/dev</text>
<text text-anchor="start" x="1030.88" y="-111.62" font-family="Helvetica,sans-Serif" font-size="10.00">_area/sourcecode/dpdklibs</text>
<text text-anchor="middle" x="1089" y="-100.38" font-family="Helvetica,sans-Serif" font-size="10.00">/src/IfaceWrapper.hpp</text>
</a>
</g>
</g>
<!-- Node7&#45;&gt;Node15 -->
<g id="edge17_Node000007_Node000015" class="edge">
<title>Node7&#45;&gt;Node15</title>
<g id="a_edge17_Node000007_Node000015"><a xlink:title=" ">
<path fill="none" stroke="#63b8ff" d="M800.49,-178.62C801.33,-178.41 802.17,-178.2 803,-178 895.47,-155.66 921.79,-165.39 1014,-142 1020,-140.48 1026.21,-138.7 1032.36,-136.81"/>
<polygon fill="#63b8ff" stroke="#63b8ff" points="799.68,-175.21 790.89,-181.13 801.45,-181.98 799.68,-175.21"/>
</a>
</g>
</g>
<!-- Node8&#45;&gt;Node4 -->
<g id="edge11_Node000008_Node000004" class="edge">
<title>Node8&#45;&gt;Node4</title>
<g id="a_edge11_Node000008_Node000004"><a xlink:title=" ">
<path fill="none" stroke="#63b8ff" d="M468.49,-89.69C467.66,-89.46 466.83,-89.23 466,-89 398.21,-70.43 379.76,-71.69 312,-53 309.05,-52.19 306.04,-51.33 303.01,-50.46"/>
<polygon fill="#63b8ff" stroke="#63b8ff" points="467.46,-93.03 478.04,-92.41 469.38,-86.3 467.46,-93.03"/>
</a>
</g>
</g>
<!-- Node9 -->
<g id="Node000009" class="node">
<title>Node9</title>
<g id="a_Node000009"><a xlink:href="HermesDataSender_8cpp.html" target="_top" xlink:title=" ">
<polygon fill="white" stroke="#666666" points="499.38,-47.38 320.62,-47.38 320.62,-5.62 499.38,-5.62 499.38,-47.38"/>
<text text-anchor="start" x="328.62" y="-33.88" font-family="Helvetica,sans-Serif" font-size="10.00">/github/workspace/dev</text>
<text text-anchor="start" x="328.62" y="-22.62" font-family="Helvetica,sans-Serif" font-size="10.00">_area/build/appmodel</text>
<text text-anchor="middle" x="410" y="-11.38" font-family="Helvetica,sans-Serif" font-size="10.00">/codegen/src/HermesDataSender.cpp</text>
</a>
</g>
</g>
<!-- Node8&#45;&gt;Node9 -->
<g id="edge9_Node000008_Node000009" class="edge">
<title>Node8&#45;&gt;Node9</title>
<g id="a_edge9_Node000008_Node000009"><a xlink:title=" ">
<path fill="none" stroke="#63b8ff" d="M496.57,-82.48C478.2,-70.81 457.95,-57.95 441.66,-47.61"/>
<polygon fill="#63b8ff" stroke="#63b8ff" points="494.67,-85.42 504.99,-87.82 498.42,-79.51 494.67,-85.42"/>
</a>
</g>
</g>
<!-- Node10 -->
<g id="Node000010" class="node">
<title>Node10</title>
<g id="a_Node000010"><a xlink:href="HermesModule_8cpp.html" target="_top" xlink:title=" ">
<polygon fill="white" stroke="#666666" points="676.62,-47.38 517.38,-47.38 517.38,-5.62 676.62,-5.62 676.62,-47.38"/>
<text text-anchor="start" x="525.38" y="-33.88" font-family="Helvetica,sans-Serif" font-size="10.00">/github/workspace/dev</text>
<text text-anchor="start" x="525.38" y="-22.62" font-family="Helvetica,sans-Serif" font-size="10.00">_area/build/appmodel</text>
<text text-anchor="middle" x="597" y="-11.38" font-family="Helvetica,sans-Serif" font-size="10.00">/codegen/src/HermesModule.cpp</text>
</a>
</g>
</g>
<!-- Node8&#45;&gt;Node10 -->
<g id="edge10_Node000008_Node000010" class="edge">
<title>Node8&#45;&gt;Node10</title>
<g id="a_edge10_Node000008_Node000010"><a xlink:title=" ">
<path fill="none" stroke="#63b8ff" d="M567.43,-78.95C573.55,-68.31 580.04,-57 585.38,-47.71"/>
<polygon fill="#63b8ff" stroke="#63b8ff" points="564.43,-77.14 562.49,-87.56 570.5,-80.63 564.43,-77.14"/>
</a>
</g>
</g>
<!-- Node11 -->
<g id="Node000011" class="node">
<title>Node11</title>
<g id="a_Node000011"><a xlink:href="sourcecode_2appmodel_2src_2WIECApplication_8cpp.html" target="_top" xlink:title=" ">
<polygon fill="white" stroke="#666666" points="833.12,-47.38 694.88,-47.38 694.88,-5.62 833.12,-5.62 833.12,-47.38"/>
<text text-anchor="start" x="702.88" y="-33.88" font-family="Helvetica,sans-Serif" font-size="10.00">/github/workspace/dev</text>
<text text-anchor="start" x="702.88" y="-22.62" font-family="Helvetica,sans-Serif" font-size="10.00">_area/sourcecode/appmodel</text>
<text text-anchor="middle" x="764" y="-11.38" font-family="Helvetica,sans-Serif" font-size="10.00">/src/WIECApplication.cpp</text>
</a>
</g>
</g>
<!-- Node8&#45;&gt;Node11 -->
<g id="edge12_Node000008_Node000011" class="edge">
<title>Node8&#45;&gt;Node11</title>
<g id="a_edge12_Node000008_Node000011"><a xlink:title=" ">
<path fill="none" stroke="#63b8ff" d="M622.28,-84.32C652.36,-72.26 686.21,-58.69 713.29,-47.83"/>
<polygon fill="#63b8ff" stroke="#63b8ff" points="621.2,-80.98 613.22,-87.95 623.8,-87.48 621.2,-80.98"/>
</a>
</g>
</g>
<!-- Node16 -->
<g id="Node000016" class="node">
<title>Node16</title>
<g id="a_Node000016"><a xlink:href="IfaceWrapper_8cpp.html" target="_top" xlink:title=" ">
<polygon fill="white" stroke="#666666" points="1155.12,-47.38 1022.88,-47.38 1022.88,-5.62 1155.12,-5.62 1155.12,-47.38"/>
<text text-anchor="start" x="1030.88" y="-33.88" font-family="Helvetica,sans-Serif" font-size="10.00">/github/workspace/dev</text>
<text text-anchor="start" x="1030.88" y="-22.62" font-family="Helvetica,sans-Serif" font-size="10.00">_area/sourcecode/dpdklibs</text>
<text text-anchor="middle" x="1089" y="-11.38" font-family="Helvetica,sans-Serif" font-size="10.00">/src/IfaceWrapper.cpp</text>
</a>
</g>
</g>
<!-- Node15&#45;&gt;Node16 -->
<g id="edge18_Node000015_Node000016" class="edge">
<title>Node15&#45;&gt;Node16</title>
<g id="a_edge18_Node000015_Node000016"><a xlink:title=" ">
<path fill="none" stroke="#63b8ff" d="M1089,-83.14C1089,-71.4 1089,-58.37 1089,-47.87"/>
<polygon fill="#63b8ff" stroke="#63b8ff" points="1085.5,-82.81 1089,-92.81 1092.5,-82.81 1085.5,-82.81"/>
</a>
</g>
</g>
</g>
</svg>
