<?xml version="1.0" encoding="UTF-8" standalone="no"?>
<!DOCTYPE svg PUBLIC "-//W3C//DTD SVG 1.1//EN"
 "http://www.w3.org/Graphics/SVG/1.1/DTD/svg11.dtd">
<!-- Generated by graphviz version 9.0.0 (20230911.1827)
 -->
<!-- Title: /github/workspace/dev_area/build/appmodel/codegen/include/appmodel/NetworkConnectionRule.hpp Pages: 1 -->
<svg width="2132pt" height="150pt"
 viewBox="0.00 0.00 2131.50 150.00" xmlns="http://www.w3.org/2000/svg" xmlns:xlink="http://www.w3.org/1999/xlink">
<g id="graph0" class="graph" transform="scale(1 1) rotate(0) translate(4 146)">
<title>/github/workspace/dev_area/build/appmodel/codegen/include/appmodel/NetworkConnectionRule.hpp</title>
<!-- Node1 -->
<g id="Node000001" class="node">
<title>Node1</title>
<g id="a_Node000001"><a xlink:title=" ">
<polygon fill="#999999" stroke="#666666" points="1152.38,-142 1010.38,-142 1010.38,-89 1152.38,-89 1152.38,-142"/>
<text text-anchor="start" x="1018.38" y="-128.5" font-family="Helvetica,sans-Serif" font-size="10.00">/github/workspace/dev</text>
<text text-anchor="start" x="1018.38" y="-117.25" font-family="Helvetica,sans-Serif" font-size="10.00">_area/build/appmodel</text>
<text text-anchor="start" x="1018.38" y="-106" font-family="Helvetica,sans-Serif" font-size="10.00">/codegen/include/appmodel</text>
<text text-anchor="middle" x="1081.38" y="-94.75" font-family="Helvetica,sans-Serif" font-size="10.00">/NetworkConnectionRule.hpp</text>
</a>
</g>
</g>
<!-- Node2 -->
<g id="Node000002" class="node">
<title>Node2</title>
<g id="a_Node000002"><a xlink:href="NetworkConnectionRule_8cpp.html" target="_top" xlink:title=" ">
<polygon fill="white" stroke="#666666" points="160.75,-53 0,-53 0,0 160.75,0 160.75,-53"/>
<text text-anchor="start" x="8" y="-39.5" font-family="Helvetica,sans-Serif" font-size="10.00">/github/workspace/dev</text>
<text text-anchor="start" x="8" y="-28.25" font-family="Helvetica,sans-Serif" font-size="10.00">_area/build/appmodel</text>
<text text-anchor="start" x="8" y="-17" font-family="Helvetica,sans-Serif" font-size="10.00">/codegen/src/NetworkConnection</text>
<text text-anchor="middle" x="80.38" y="-5.75" font-family="Helvetica,sans-Serif" font-size="10.00">Rule.cpp</text>
</a>
</g>
</g>
<!-- Node1&#45;&gt;Node2 -->
<g id="edge1_Node000001_Node000002" class="edge">
<title>Node1&#45;&gt;Node2</title>
<g id="a_edge1_Node000001_Node000002"><a xlink:title=" ">
<path fill="none" stroke="#63b8ff" d="M998.68,-114.66C837.89,-113.72 472.38,-105.39 170.38,-53 167.33,-52.47 164.25,-51.88 161.14,-51.24"/>
<polygon fill="#63b8ff" stroke="#63b8ff" points="998.37,-118.16 1008.39,-114.71 998.4,-111.16 998.37,-118.16"/>
</a>
</g>
</g>
<!-- Node3 -->
<g id="Node000003" class="node">
<title>Node3</title>
<g id="a_Node000003"><a xlink:href="build_2appmodel_2codegen_2src_2SmartDaqApplication_8cpp.html" target="_top" xlink:title=" ">
<polygon fill="white" stroke="#666666" points="363.75,-47.38 179,-47.38 179,-5.62 363.75,-5.62 363.75,-47.38"/>
<text text-anchor="start" x="187" y="-33.88" font-family="Helvetica,sans-Serif" font-size="10.00">/github/workspace/dev</text>
<text text-anchor="start" x="187" y="-22.62" font-family="Helvetica,sans-Serif" font-size="10.00">_area/build/appmodel</text>
<text text-anchor="middle" x="271.38" y="-11.38" font-family="Helvetica,sans-Serif" font-size="10.00">/codegen/src/SmartDaqApplication.cpp</text>
</a>
</g>
</g>
<!-- Node1&#45;&gt;Node3 -->
<g id="edge2_Node000001_Node000003" class="edge">
<title>Node1&#45;&gt;Node3</title>
<g id="a_edge2_Node000001_Node000003"><a xlink:title=" ">
<path fill="none" stroke="#63b8ff" d="M998.69,-111.64C865.84,-106.08 597.01,-90.85 372.38,-53 363.9,-51.57 355.1,-49.8 346.38,-47.85"/>
<polygon fill="#63b8ff" stroke="#63b8ff" points="998.3,-115.13 1008.44,-112.04 998.59,-108.13 998.3,-115.13"/>
</a>
</g>
</g>
<!-- Node4 -->
<g id="Node000004" class="node">
<title>Node4</title>
<g id="a_Node000004"><a xlink:href="dump__dunedaq____appmodel_8cpp.html" target="_top" xlink:title=" ">
<polygon fill="white" stroke="#666666" points="523,-53 381.75,-53 381.75,0 523,0 523,-53"/>
<text text-anchor="start" x="389.75" y="-39.5" font-family="Helvetica,sans-Serif" font-size="10.00">/github/workspace/dev</text>
<text text-anchor="start" x="389.75" y="-28.25" font-family="Helvetica,sans-Serif" font-size="10.00">_area/build/appmodel</text>
<text text-anchor="start" x="389.75" y="-17" font-family="Helvetica,sans-Serif" font-size="10.00">/codegen/src/dump_dunedaq</text>
<text text-anchor="middle" x="452.38" y="-5.75" font-family="Helvetica,sans-Serif" font-size="10.00">__appmodel.cpp</text>
</a>
</g>
</g>
<!-- Node1&#45;&gt;Node4 -->
<g id="edge3_Node000001_Node000004" class="edge">
<title>Node1&#45;&gt;Node4</title>
<g id="a_edge3_Node000001_Node000004"><a xlink:title=" ">
<path fill="none" stroke="#63b8ff" d="M998.55,-110.31C890.36,-103.69 695.51,-87.78 532.38,-53 529.38,-52.36 526.34,-51.66 523.28,-50.9"/>
<polygon fill="#63b8ff" stroke="#63b8ff" points="998.33,-113.81 1008.52,-110.91 998.74,-106.82 998.33,-113.81"/>
</a>
</g>
</g>
<!-- Node5 -->
<g id="Node000005" class="node">
<title>Node5</title>
<g id="a_Node000005"><a xlink:href="sourcecode_2appmodel_2src_2DFApplication_8cpp.html" target="_top" xlink:title=" ">
<polygon fill="white" stroke="#666666" points="679.5,-47.38 541.25,-47.38 541.25,-5.62 679.5,-5.62 679.5,-47.38"/>
<text text-anchor="start" x="549.25" y="-33.88" font-family="Helvetica,sans-Serif" font-size="10.00">/github/workspace/dev</text>
<text text-anchor="start" x="549.25" y="-22.62" font-family="Helvetica,sans-Serif" font-size="10.00">_area/sourcecode/appmodel</text>
<text text-anchor="middle" x="610.38" y="-11.38" font-family="Helvetica,sans-Serif" font-size="10.00">/src/DFApplication.cpp</text>
</a>
</g>
</g>
<!-- Node1&#45;&gt;Node5 -->
<g id="edge4_Node000001_Node000005" class="edge">
<title>Node1&#45;&gt;Node5</title>
<g id="a_edge4_Node000001_Node000005"><a xlink:title=" ">
<path fill="none" stroke="#63b8ff" d="M999.07,-105.53C919.04,-95.89 794.36,-78.44 688.38,-53 682.14,-51.5 675.69,-49.75 669.29,-47.86"/>
<polygon fill="#63b8ff" stroke="#63b8ff" points="998.22,-108.95 1008.56,-106.66 999.05,-102 998.22,-108.95"/>
</a>
</g>
</g>
<!-- Node6 -->
<g id="Node000006" class="node">
<title>Node6</title>
<g id="a_Node000006"><a xlink:href="sourcecode_2appmodel_2src_2DFOApplication_8cpp.html" target="_top" xlink:title=" ">
<polygon fill="white" stroke="#666666" points="835.5,-47.38 697.25,-47.38 697.25,-5.62 835.5,-5.62 835.5,-47.38"/>
<text text-anchor="start" x="705.25" y="-33.88" font-family="Helvetica,sans-Serif" font-size="10.00">/github/workspace/dev</text>
<text text-anchor="start" x="705.25" y="-22.62" font-family="Helvetica,sans-Serif" font-size="10.00">_area/sourcecode/appmodel</text>
<text text-anchor="middle" x="766.38" y="-11.38" font-family="Helvetica,sans-Serif" font-size="10.00">/src/DFOApplication.cpp</text>
</a>
</g>
</g>
<!-- Node1&#45;&gt;Node6 -->
<g id="edge5_Node000001_Node000006" class="edge">
<title>Node1&#45;&gt;Node6</title>
<g id="a_edge5_Node000001_Node000006"><a xlink:title=" ">
<path fill="none" stroke="#63b8ff" d="M998.96,-94.45C953.23,-82.99 895.44,-67.96 844.38,-53 838.77,-51.36 832.96,-49.59 827.15,-47.77"/>
<polygon fill="#63b8ff" stroke="#63b8ff" points="998,-97.82 1008.55,-96.84 999.7,-91.03 998,-97.82"/>
</a>
</g>
</g>
<!-- Node7 -->
<g id="Node000007" class="node">
<title>Node7</title>
<g id="a_Node000007"><a xlink:href="sourcecode_2appmodel_2src_2DTSHSIApplication_8cpp.html" target="_top" xlink:title=" ">
<polygon fill="white" stroke="#666666" points="991.5,-47.38 853.25,-47.38 853.25,-5.62 991.5,-5.62 991.5,-47.38"/>
<text text-anchor="start" x="861.25" y="-33.88" font-family="Helvetica,sans-Serif" font-size="10.00">/github/workspace/dev</text>
<text text-anchor="start" x="861.25" y="-22.62" font-family="Helvetica,sans-Serif" font-size="10.00">_area/sourcecode/appmodel</text>
<text text-anchor="middle" x="922.38" y="-11.38" font-family="Helvetica,sans-Serif" font-size="10.00">/src/DTSHSIApplication.cpp</text>
</a>
</g>
</g>
<!-- Node1&#45;&gt;Node7 -->
<g id="edge6_Node000001_Node000007" class="edge">
<title>Node1&#45;&gt;Node7</title>
<g id="a_edge6_Node000001_Node000007"><a xlink:title=" ">
<path fill="none" stroke="#63b8ff" d="M1024.07,-83.14C1002.51,-71.35 978.6,-58.26 959.38,-47.75"/>
<polygon fill="#63b8ff" stroke="#63b8ff" points="1022.32,-86.18 1032.77,-87.91 1025.68,-80.04 1022.32,-86.18"/>
</a>
</g>
</g>
<!-- Node8 -->
<g id="Node000008" class="node">
<title>Node8</title>
<g id="a_Node000008"><a xlink:href="sourcecode_2appmodel_2src_2FakeDataApplication_8cpp.html" target="_top" xlink:title=" ">
<polygon fill="white" stroke="#666666" points="1153.12,-47.38 1009.62,-47.38 1009.62,-5.62 1153.12,-5.62 1153.12,-47.38"/>
<text text-anchor="start" x="1017.62" y="-33.88" font-family="Helvetica,sans-Serif" font-size="10.00">/github/workspace/dev</text>
<text text-anchor="start" x="1017.62" y="-22.62" font-family="Helvetica,sans-Serif" font-size="10.00">_area/sourcecode/appmodel</text>
<text text-anchor="middle" x="1081.38" y="-11.38" font-family="Helvetica,sans-Serif" font-size="10.00">/src/FakeDataApplication.cpp</text>
</a>
</g>
</g>
<!-- Node1&#45;&gt;Node8 -->
<g id="edge7_Node000001_Node000008" class="edge">
<title>Node1&#45;&gt;Node8</title>
<g id="a_edge7_Node000001_Node000008"><a xlink:title=" ">
<path fill="none" stroke="#63b8ff" d="M1081.38,-77.63C1081.38,-67.38 1081.38,-56.62 1081.38,-47.71"/>
<polygon fill="#63b8ff" stroke="#63b8ff" points="1077.88,-77.35 1081.38,-87.35 1084.88,-77.35 1077.88,-77.35"/>
</a>
</g>
</g>
<!-- Node9 -->
<g id="Node000009" class="node">
<title>Node9</title>
<g id="a_Node000009"><a xlink:href="sourcecode_2appmodel_2src_2FakeHSIApplication_8cpp.html" target="_top" xlink:title=" ">
<polygon fill="white" stroke="#666666" points="1311.62,-47.38 1171.12,-47.38 1171.12,-5.62 1311.62,-5.62 1311.62,-47.38"/>
<text text-anchor="start" x="1179.12" y="-33.88" font-family="Helvetica,sans-Serif" font-size="10.00">/github/workspace/dev</text>
<text text-anchor="start" x="1179.12" y="-22.62" font-family="Helvetica,sans-Serif" font-size="10.00">_area/sourcecode/appmodel</text>
<text text-anchor="middle" x="1241.38" y="-11.38" font-family="Helvetica,sans-Serif" font-size="10.00">/src/FakeHSIApplication.cpp</text>
</a>
</g>
</g>
<!-- Node1&#45;&gt;Node9 -->
<g id="edge8_Node000001_Node000009" class="edge">
<title>Node1&#45;&gt;Node9</title>
<g id="a_edge8_Node000001_Node000009"><a xlink:title=" ">
<path fill="none" stroke="#63b8ff" d="M1139.04,-83.14C1160.73,-71.35 1184.8,-58.26 1204.14,-47.75"/>
<polygon fill="#63b8ff" stroke="#63b8ff" points="1137.39,-80.06 1130.28,-87.91 1140.73,-86.21 1137.39,-80.06"/>
</a>
</g>
</g>
<!-- Node10 -->
<g id="Node000010" class="node">
<title>Node10</title>
<g id="a_Node000010"><a xlink:href="sourcecode_2appmodel_2src_2HSIEventToTCApplication_8cpp.html" target="_top" xlink:title=" ">
<polygon fill="white" stroke="#666666" points="1497.12,-47.38 1329.62,-47.38 1329.62,-5.62 1497.12,-5.62 1497.12,-47.38"/>
<text text-anchor="start" x="1337.62" y="-33.88" font-family="Helvetica,sans-Serif" font-size="10.00">/github/workspace/dev</text>
<text text-anchor="start" x="1337.62" y="-22.62" font-family="Helvetica,sans-Serif" font-size="10.00">_area/sourcecode/appmodel</text>
<text text-anchor="middle" x="1413.38" y="-11.38" font-family="Helvetica,sans-Serif" font-size="10.00">/src/HSIEventToTCApplication.cpp</text>
</a>
</g>
</g>
<!-- Node1&#45;&gt;Node10 -->
<g id="edge9_Node000001_Node000010" class="edge">
<title>Node1&#45;&gt;Node10</title>
<g id="a_edge9_Node000001_Node000010"><a xlink:title=" ">
<path fill="none" stroke="#63b8ff" d="M1163.96,-93.59C1210.04,-81.84 1268.45,-66.8 1320.38,-53 1326.6,-51.34 1333.06,-49.61 1339.54,-47.86"/>
<polygon fill="#63b8ff" stroke="#63b8ff" points="1163.12,-90.19 1154.29,-96.05 1164.85,-96.98 1163.12,-90.19"/>
</a>
</g>
</g>
<!-- Node11 -->
<g id="Node000011" class="node">
<title>Node11</title>
<g id="a_Node000011"><a xlink:href="sourcecode_2appmodel_2src_2MLTApplication_8cpp.html" target="_top" xlink:title=" ">
<polygon fill="white" stroke="#666666" points="1653.5,-47.38 1515.25,-47.38 1515.25,-5.62 1653.5,-5.62 1653.5,-47.38"/>
<text text-anchor="start" x="1523.25" y="-33.88" font-family="Helvetica,sans-Serif" font-size="10.00">/github/workspace/dev</text>
<text text-anchor="start" x="1523.25" y="-22.62" font-family="Helvetica,sans-Serif" font-size="10.00">_area/sourcecode/appmodel</text>
<text text-anchor="middle" x="1584.38" y="-11.38" font-family="Helvetica,sans-Serif" font-size="10.00">/src/MLTApplication.cpp</text>
</a>
</g>
</g>
<!-- Node1&#45;&gt;Node11 -->
<g id="edge10_Node000001_Node000011" class="edge">
<title>Node1&#45;&gt;Node11</title>
<g id="a_edge10_Node000001_Node000011"><a xlink:title=" ">
<path fill="none" stroke="#63b8ff" d="M1164.05,-106.8C1250.27,-97.78 1388.96,-80.47 1506.38,-53 1512.76,-51.51 1519.36,-49.73 1525.91,-47.81"/>
<polygon fill="#63b8ff" stroke="#63b8ff" points="1163.85,-103.3 1154.27,-107.81 1164.57,-110.26 1163.85,-103.3"/>
</a>
</g>
</g>
<!-- Node12 -->
<g id="Node000012" class="node">
<title>Node12</title>
<g id="a_Node000012"><a xlink:href="sourcecode_2appmodel_2src_2ReadoutApplication_8cpp.html" target="_top" xlink:title=" ">
<polygon fill="white" stroke="#666666" points="1809.5,-47.38 1671.25,-47.38 1671.25,-5.62 1809.5,-5.62 1809.5,-47.38"/>
<text text-anchor="start" x="1679.25" y="-33.88" font-family="Helvetica,sans-Serif" font-size="10.00">/github/workspace/dev</text>
<text text-anchor="start" x="1679.25" y="-22.62" font-family="Helvetica,sans-Serif" font-size="10.00">_area/sourcecode/appmodel</text>
<text text-anchor="middle" x="1740.38" y="-11.38" font-family="Helvetica,sans-Serif" font-size="10.00">/src/ReadoutApplication.cpp</text>
</a>
</g>
</g>
<!-- Node1&#45;&gt;Node12 -->
<g id="edge11_Node000001_Node000012" class="edge">
<title>Node1&#45;&gt;Node12</title>
<g id="a_edge11_Node000001_Node000012"><a xlink:title=" ">
<path fill="none" stroke="#63b8ff" d="M1164.13,-111.22C1277.61,-105.48 1487.37,-90.43 1662.38,-53 1669.06,-51.57 1675.98,-49.78 1682.82,-47.81"/>
<polygon fill="#63b8ff" stroke="#63b8ff" points="1164.12,-107.71 1154.3,-111.7 1164.46,-114.71 1164.12,-107.71"/>
</a>
</g>
</g>
<!-- Node13 -->
<g id="Node000013" class="node">
<title>Node13</title>
<g id="a_Node000013"><a xlink:href="TPWriterApplication_8cpp.html" target="_top" xlink:title=" ">
<polygon fill="white" stroke="#666666" points="1967.25,-47.38 1827.5,-47.38 1827.5,-5.62 1967.25,-5.62 1967.25,-47.38"/>
<text text-anchor="start" x="1835.5" y="-33.88" font-family="Helvetica,sans-Serif" font-size="10.00">/github/workspace/dev</text>
<text text-anchor="start" x="1835.5" y="-22.62" font-family="Helvetica,sans-Serif" font-size="10.00">_area/sourcecode/appmodel</text>
<text text-anchor="middle" x="1897.38" y="-11.38" font-family="Helvetica,sans-Serif" font-size="10.00">/src/TPWriterApplication.cpp</text>
</a>
</g>
</g>
<!-- Node1&#45;&gt;Node13 -->
<g id="edge12_Node000001_Node000013" class="edge">
<title>Node1&#45;&gt;Node13</title>
<g id="a_edge12_Node000001_Node000013"><a xlink:title=" ">
<path fill="none" stroke="#63b8ff" d="M1163.98,-113.74C1301.2,-111.13 1584.19,-99.92 1818.38,-53 1825.3,-51.61 1832.47,-49.82 1839.53,-47.83"/>
<polygon fill="#63b8ff" stroke="#63b8ff" points="1164.21,-110.24 1154.27,-113.92 1164.34,-117.24 1164.21,-110.24"/>
</a>
</g>
</g>
<!-- Node14 -->
<g id="Node000014" class="node">
<title>Node14</title>
<g id="a_Node000014"><a xlink:href="sourcecode_2appmodel_2src_2TriggerApplication_8cpp.html" target="_top" xlink:title=" ">
<polygon fill="white" stroke="#666666" points="2123.5,-47.38 1985.25,-47.38 1985.25,-5.62 2123.5,-5.62 2123.5,-47.38"/>
<text text-anchor="start" x="1993.25" y="-33.88" font-family="Helvetica,sans-Serif" font-size="10.00">/github/workspace/dev</text>
<text text-anchor="start" x="1993.25" y="-22.62" font-family="Helvetica,sans-Serif" font-size="10.00">_area/sourcecode/appmodel</text>
<text text-anchor="middle" x="2054.38" y="-11.38" font-family="Helvetica,sans-Serif" font-size="10.00">/src/TriggerApplication.cpp</text>
</a>
</g>
</g>
<!-- Node1&#45;&gt;Node14 -->
<g id="edge13_Node000001_Node000014" class="edge">
<title>Node1&#45;&gt;Node14</title>
<g id="a_edge13_Node000001_Node000014"><a xlink:title=" ">
<path fill="none" stroke="#63b8ff" d="M1164.13,-111.43C1355.13,-103.92 1822.16,-83.03 1976.38,-53 1983.37,-51.64 1990.6,-49.84 1997.72,-47.82"/>
<polygon fill="#63b8ff" stroke="#63b8ff" points="1164.14,-107.93 1154.29,-111.81 1164.42,-114.92 1164.14,-107.93"/>
</a>
</g>
</g>
</g>
</svg>
