<?xml version="1.0" encoding="UTF-8" standalone="no"?>
<!DOCTYPE svg PUBLIC "-//W3C//DTD SVG 1.1//EN"
 "http://www.w3.org/Graphics/SVG/1.1/DTD/svg11.dtd">
<!-- Generated by graphviz version 9.0.0 (20230911.1827)
 -->
<!-- Title: /github/workspace/dev_area/build/appmodel/codegen/include/appmodel/FilenameParams.hpp Pages: 1 -->
<svg width="666pt" height="150pt"
 viewBox="0.00 0.00 665.62 150.00" xmlns="http://www.w3.org/2000/svg" xmlns:xlink="http://www.w3.org/1999/xlink">
<g id="graph0" class="graph" transform="scale(1 1) rotate(0) translate(4 146)">
<title>/github/workspace/dev_area/build/appmodel/codegen/include/appmodel/FilenameParams.hpp</title>
<!-- Node1 -->
<g id="Node000001" class="node">
<title>Node1</title>
<g id="a_Node000001"><a xlink:title=" ">
<polygon fill="#999999" stroke="#666666" points="411.75,-142 277.25,-142 277.25,-89 411.75,-89 411.75,-142"/>
<text text-anchor="start" x="285.25" y="-128.5" font-family="Helvetica,sans-Serif" font-size="10.00">/github/workspace/dev</text>
<text text-anchor="start" x="285.25" y="-117.25" font-family="Helvetica,sans-Serif" font-size="10.00">_area/build/appmodel</text>
<text text-anchor="start" x="285.25" y="-106" font-family="Helvetica,sans-Serif" font-size="10.00">/codegen/include/appmodel</text>
<text text-anchor="middle" x="344.5" y="-94.75" font-family="Helvetica,sans-Serif" font-size="10.00">/FilenameParams.hpp</text>
</a>
</g>
</g>
<!-- Node2 -->
<g id="Node000002" class="node">
<title>Node2</title>
<g id="a_Node000002"><a xlink:href="DataStoreConf_8cpp.html" target="_top" xlink:title=" ">
<polygon fill="white" stroke="#666666" points="157,-47.38 0,-47.38 0,-5.62 157,-5.62 157,-47.38"/>
<text text-anchor="start" x="8" y="-33.88" font-family="Helvetica,sans-Serif" font-size="10.00">/github/workspace/dev</text>
<text text-anchor="start" x="8" y="-22.62" font-family="Helvetica,sans-Serif" font-size="10.00">_area/build/appmodel</text>
<text text-anchor="middle" x="78.5" y="-11.38" font-family="Helvetica,sans-Serif" font-size="10.00">/codegen/src/DataStoreConf.cpp</text>
</a>
</g>
</g>
<!-- Node1&#45;&gt;Node2 -->
<g id="edge1_Node000001_Node000002" class="edge">
<title>Node1&#45;&gt;Node2</title>
<g id="a_edge1_Node000001_Node000002"><a xlink:title=" ">
<path fill="none" stroke="#63b8ff" d="M266.21,-88.9C226.09,-75.77 177.92,-60.02 140.43,-47.75"/>
<polygon fill="#63b8ff" stroke="#63b8ff" points="265,-92.18 275.59,-91.96 267.18,-85.53 265,-92.18"/>
</a>
</g>
</g>
<!-- Node3 -->
<g id="Node000003" class="node">
<title>Node3</title>
<g id="a_Node000003"><a xlink:href="FilenameParams_8cpp.html" target="_top" xlink:title=" ">
<polygon fill="white" stroke="#666666" points="341.88,-47.38 175.12,-47.38 175.12,-5.62 341.88,-5.62 341.88,-47.38"/>
<text text-anchor="start" x="183.12" y="-33.88" font-family="Helvetica,sans-Serif" font-size="10.00">/github/workspace/dev</text>
<text text-anchor="start" x="183.12" y="-22.62" font-family="Helvetica,sans-Serif" font-size="10.00">_area/build/appmodel</text>
<text text-anchor="middle" x="258.5" y="-11.38" font-family="Helvetica,sans-Serif" font-size="10.00">/codegen/src/FilenameParams.cpp</text>
</a>
</g>
</g>
<!-- Node1&#45;&gt;Node3 -->
<g id="edge2_Node000001_Node000003" class="edge">
<title>Node1&#45;&gt;Node3</title>
<g id="a_edge2_Node000001_Node000003"><a xlink:title=" ">
<path fill="none" stroke="#63b8ff" d="M311.3,-80.92C300.23,-69.71 288.23,-57.58 278.48,-47.71"/>
<polygon fill="#63b8ff" stroke="#63b8ff" points="308.58,-83.14 318.1,-87.79 313.56,-78.22 308.58,-83.14"/>
</a>
</g>
</g>
<!-- Node4 -->
<g id="Node000004" class="node">
<title>Node4</title>
<g id="a_Node000004"><a xlink:href="dump__dunedaq____appmodel_8cpp.html" target="_top" xlink:title=" ">
<polygon fill="white" stroke="#666666" points="501.12,-53 359.88,-53 359.88,0 501.12,0 501.12,-53"/>
<text text-anchor="start" x="367.88" y="-39.5" font-family="Helvetica,sans-Serif" font-size="10.00">/github/workspace/dev</text>
<text text-anchor="start" x="367.88" y="-28.25" font-family="Helvetica,sans-Serif" font-size="10.00">_area/build/appmodel</text>
<text text-anchor="start" x="367.88" y="-17" font-family="Helvetica,sans-Serif" font-size="10.00">/codegen/src/dump_dunedaq</text>
<text text-anchor="middle" x="430.5" y="-5.75" font-family="Helvetica,sans-Serif" font-size="10.00">__appmodel.cpp</text>
</a>
</g>
</g>
<!-- Node1&#45;&gt;Node4 -->
<g id="edge3_Node000001_Node000004" class="edge">
<title>Node1&#45;&gt;Node4</title>
<g id="a_edge3_Node000001_Node000004"><a xlink:title=" ">
<path fill="none" stroke="#63b8ff" d="M377.91,-80.71C386.93,-71.58 396.54,-61.86 405.05,-53.25"/>
<polygon fill="#63b8ff" stroke="#63b8ff" points="375.44,-78.22 370.9,-87.79 380.42,-83.14 375.44,-78.22"/>
</a>
</g>
</g>
<!-- Node5 -->
<g id="Node000005" class="node">
<title>Node5</title>
<g id="a_Node000005"><a xlink:href="sourcecode_2appmodel_2src_2DFApplication_8cpp.html" target="_top" xlink:title=" ">
<polygon fill="white" stroke="#666666" points="657.62,-47.38 519.38,-47.38 519.38,-5.62 657.62,-5.62 657.62,-47.38"/>
<text text-anchor="start" x="527.38" y="-33.88" font-family="Helvetica,sans-Serif" font-size="10.00">/github/workspace/dev</text>
<text text-anchor="start" x="527.38" y="-22.62" font-family="Helvetica,sans-Serif" font-size="10.00">_area/sourcecode/appmodel</text>
<text text-anchor="middle" x="588.5" y="-11.38" font-family="Helvetica,sans-Serif" font-size="10.00">/src/DFApplication.cpp</text>
</a>
</g>
</g>
<!-- Node1&#45;&gt;Node5 -->
<g id="edge4_Node000001_Node000005" class="edge">
<title>Node1&#45;&gt;Node5</title>
<g id="a_edge4_Node000001_Node000005"><a xlink:title=" ">
<path fill="none" stroke="#63b8ff" d="M422.91,-86.54C458.22,-73.95 499.14,-59.36 531.47,-47.84"/>
<polygon fill="#63b8ff" stroke="#63b8ff" points="421.81,-83.22 413.57,-89.87 424.16,-89.81 421.81,-83.22"/>
</a>
</g>
</g>
</g>
</svg>
