<?xml version="1.0" encoding="UTF-8" standalone="no"?>
<!DOCTYPE svg PUBLIC "-//W3C//DTD SVG 1.1//EN"
 "http://www.w3.org/Graphics/SVG/1.1/DTD/svg11.dtd">
<!-- Generated by graphviz version 9.0.0 (20230911.1827)
 -->
<!-- Title: /github/workspace/dev_area/build/appmodel/codegen/include/appmodel/MLTApplication.hpp Pages: 1 -->
<svg width="790pt" height="150pt"
 viewBox="0.00 0.00 790.12 150.00" xmlns="http://www.w3.org/2000/svg" xmlns:xlink="http://www.w3.org/1999/xlink">
<g id="graph0" class="graph" transform="scale(1 1) rotate(0) translate(4 146)">
<title>/github/workspace/dev_area/build/appmodel/codegen/include/appmodel/MLTApplication.hpp</title>
<!-- Node1 -->
<g id="Node000001" class="node">
<title>Node1</title>
<g id="a_Node000001"><a xlink:title=" ">
<polygon fill="#999999" stroke="#666666" points="475,-142 340.5,-142 340.5,-89 475,-89 475,-142"/>
<text text-anchor="start" x="348.5" y="-128.5" font-family="Helvetica,sans-Serif" font-size="10.00">/github/workspace/dev</text>
<text text-anchor="start" x="348.5" y="-117.25" font-family="Helvetica,sans-Serif" font-size="10.00">_area/build/appmodel</text>
<text text-anchor="start" x="348.5" y="-106" font-family="Helvetica,sans-Serif" font-size="10.00">/codegen/include/appmodel</text>
<text text-anchor="middle" x="407.75" y="-94.75" font-family="Helvetica,sans-Serif" font-size="10.00">/MLTApplication.hpp</text>
</a>
</g>
</g>
<!-- Node2 -->
<g id="Node000002" class="node">
<title>Node2</title>
<g id="a_Node000002"><a xlink:href="build_2appmodel_2codegen_2src_2MLTApplication_8cpp.html" target="_top" xlink:title=" ">
<polygon fill="white" stroke="#666666" points="161.5,-47.38 0,-47.38 0,-5.62 161.5,-5.62 161.5,-47.38"/>
<text text-anchor="start" x="8" y="-33.88" font-family="Helvetica,sans-Serif" font-size="10.00">/github/workspace/dev</text>
<text text-anchor="start" x="8" y="-22.62" font-family="Helvetica,sans-Serif" font-size="10.00">_area/build/appmodel</text>
<text text-anchor="middle" x="80.75" y="-11.38" font-family="Helvetica,sans-Serif" font-size="10.00">/codegen/src/MLTApplication.cpp</text>
</a>
</g>
</g>
<!-- Node1&#45;&gt;Node2 -->
<g id="edge1_Node000001_Node000002" class="edge">
<title>Node1&#45;&gt;Node2</title>
<g id="a_edge1_Node000001_Node000002"><a xlink:title=" ">
<path fill="none" stroke="#63b8ff" d="M329.27,-94.77C282.81,-82.95 222.83,-67.46 169.75,-53 163.7,-51.35 157.43,-49.62 151.15,-47.85"/>
<polygon fill="#63b8ff" stroke="#63b8ff" points="328.15,-98.1 338.71,-97.17 329.88,-91.31 328.15,-98.1"/>
</a>
</g>
</g>
<!-- Node3 -->
<g id="Node000003" class="node">
<title>Node3</title>
<g id="a_Node000003"><a xlink:href="dump__dunedaq____appmodel_8cpp.html" target="_top" xlink:title=" ">
<polygon fill="white" stroke="#666666" points="320.38,-53 179.12,-53 179.12,0 320.38,0 320.38,-53"/>
<text text-anchor="start" x="187.12" y="-39.5" font-family="Helvetica,sans-Serif" font-size="10.00">/github/workspace/dev</text>
<text text-anchor="start" x="187.12" y="-28.25" font-family="Helvetica,sans-Serif" font-size="10.00">_area/build/appmodel</text>
<text text-anchor="start" x="187.12" y="-17" font-family="Helvetica,sans-Serif" font-size="10.00">/codegen/src/dump_dunedaq</text>
<text text-anchor="middle" x="249.75" y="-5.75" font-family="Helvetica,sans-Serif" font-size="10.00">__appmodel.cpp</text>
</a>
</g>
</g>
<!-- Node1&#45;&gt;Node3 -->
<g id="edge2_Node000001_Node000003" class="edge">
<title>Node1&#45;&gt;Node3</title>
<g id="a_edge2_Node000001_Node000003"><a xlink:title=" ">
<path fill="none" stroke="#63b8ff" d="M351.09,-83.3C333.3,-73.5 313.87,-62.8 296.82,-53.42"/>
<polygon fill="#63b8ff" stroke="#63b8ff" points="349,-86.15 359.45,-87.9 352.38,-80.01 349,-86.15"/>
</a>
</g>
</g>
<!-- Node4 -->
<g id="Node000004" class="node">
<title>Node4</title>
<g id="a_Node000004"><a xlink:href="appmodel_2pybindsrc_2dal__methods_8cpp.html" target="_top" xlink:title=" ">
<polygon fill="white" stroke="#666666" points="476.88,-47.38 338.62,-47.38 338.62,-5.62 476.88,-5.62 476.88,-47.38"/>
<text text-anchor="start" x="346.62" y="-33.88" font-family="Helvetica,sans-Serif" font-size="10.00">/github/workspace/dev</text>
<text text-anchor="start" x="346.62" y="-22.62" font-family="Helvetica,sans-Serif" font-size="10.00">_area/sourcecode/appmodel</text>
<text text-anchor="middle" x="407.75" y="-11.38" font-family="Helvetica,sans-Serif" font-size="10.00">/pybindsrc/dal_methods.cpp</text>
</a>
</g>
</g>
<!-- Node1&#45;&gt;Node4 -->
<g id="edge3_Node000001_Node000004" class="edge">
<title>Node1&#45;&gt;Node4</title>
<g id="a_edge3_Node000001_Node000004"><a xlink:title=" ">
<path fill="none" stroke="#63b8ff" d="M407.75,-77.63C407.75,-67.38 407.75,-56.62 407.75,-47.71"/>
<polygon fill="#63b8ff" stroke="#63b8ff" points="404.25,-77.35 407.75,-87.35 411.25,-77.35 404.25,-77.35"/>
</a>
</g>
</g>
<!-- Node5 -->
<g id="Node000005" class="node">
<title>Node5</title>
<g id="a_Node000005"><a xlink:href="sourcecode_2appmodel_2src_2MLTApplication_8cpp.html" target="_top" xlink:title=" ">
<polygon fill="white" stroke="#666666" points="632.88,-47.38 494.62,-47.38 494.62,-5.62 632.88,-5.62 632.88,-47.38"/>
<text text-anchor="start" x="502.62" y="-33.88" font-family="Helvetica,sans-Serif" font-size="10.00">/github/workspace/dev</text>
<text text-anchor="start" x="502.62" y="-22.62" font-family="Helvetica,sans-Serif" font-size="10.00">_area/sourcecode/appmodel</text>
<text text-anchor="middle" x="563.75" y="-11.38" font-family="Helvetica,sans-Serif" font-size="10.00">/src/MLTApplication.cpp</text>
</a>
</g>
</g>
<!-- Node1&#45;&gt;Node5 -->
<g id="edge4_Node000001_Node000005" class="edge">
<title>Node1&#45;&gt;Node5</title>
<g id="a_edge4_Node000001_Node000005"><a xlink:title=" ">
<path fill="none" stroke="#63b8ff" d="M463.98,-83.14C485.12,-71.35 508.59,-58.26 527.45,-47.75"/>
<polygon fill="#63b8ff" stroke="#63b8ff" points="462.48,-79.97 455.45,-87.9 465.89,-86.08 462.48,-79.97"/>
</a>
</g>
</g>
<!-- Node6 -->
<g id="Node000006" class="node">
<title>Node6</title>
<g id="a_Node000006"><a xlink:href="GraphBuilder_8cpp.html" target="_top" xlink:title=" ">
<polygon fill="white" stroke="#666666" points="782.12,-47.38 651.38,-47.38 651.38,-5.62 782.12,-5.62 782.12,-47.38"/>
<text text-anchor="start" x="659.38" y="-33.88" font-family="Helvetica,sans-Serif" font-size="10.00">/github/workspace/dev</text>
<text text-anchor="start" x="659.38" y="-22.62" font-family="Helvetica,sans-Serif" font-size="10.00">_area/sourcecode/daqconf</text>
<text text-anchor="middle" x="716.75" y="-11.38" font-family="Helvetica,sans-Serif" font-size="10.00">/apps/GraphBuilder.cpp</text>
</a>
</g>
</g>
<!-- Node1&#45;&gt;Node6 -->
<g id="edge5_Node000001_Node000006" class="edge">
<title>Node1&#45;&gt;Node6</title>
<g id="a_edge5_Node000001_Node000006"><a xlink:title=" ">
<path fill="none" stroke="#63b8ff" d="M486.44,-95.3C532.02,-83.8 590.38,-68.46 641.75,-53 647.15,-51.37 652.74,-49.62 658.33,-47.81"/>
<polygon fill="#63b8ff" stroke="#63b8ff" points="485.75,-91.86 476.9,-97.69 487.45,-98.65 485.75,-91.86"/>
</a>
</g>
</g>
</g>
</svg>
