<?xml version="1.0" encoding="UTF-8" standalone="no"?>
<!DOCTYPE svg PUBLIC "-//W3C//DTD SVG 1.1//EN"
 "http://www.w3.org/Graphics/SVG/1.1/DTD/svg11.dtd">
<!-- Generated by graphviz version 9.0.0 (20230911.1827)
 -->
<!-- Title: /github/workspace/dev_area/build/confmodel/codegen/include/confmodel/FSMCommand.hpp Pages: 1 -->
<svg width="818pt" height="150pt"
 viewBox="0.00 0.00 817.88 150.00" xmlns="http://www.w3.org/2000/svg" xmlns:xlink="http://www.w3.org/1999/xlink">
<g id="graph0" class="graph" transform="scale(1 1) rotate(0) translate(4 146)">
<title>/github/workspace/dev_area/build/confmodel/codegen/include/confmodel/FSMCommand.hpp</title>
<!-- Node1 -->
<g id="Node000001" class="node">
<title>Node1</title>
<g id="a_Node000001"><a xlink:title=" ">
<polygon fill="#999999" stroke="#666666" points="482,-142 344.5,-142 344.5,-89 482,-89 482,-142"/>
<text text-anchor="start" x="352.5" y="-128.5" font-family="Helvetica,sans-Serif" font-size="10.00">/github/workspace/dev</text>
<text text-anchor="start" x="352.5" y="-117.25" font-family="Helvetica,sans-Serif" font-size="10.00">_area/build/confmodel</text>
<text text-anchor="start" x="352.5" y="-106" font-family="Helvetica,sans-Serif" font-size="10.00">/codegen/include/confmodel</text>
<text text-anchor="middle" x="413.25" y="-94.75" font-family="Helvetica,sans-Serif" font-size="10.00">/FSMCommand.hpp</text>
</a>
</g>
</g>
<!-- Node2 -->
<g id="Node000002" class="node">
<title>Node2</title>
<g id="a_Node000002"><a xlink:href="ActionPlan_8cpp.html" target="_top" xlink:title=" ">
<polygon fill="white" stroke="#666666" points="140.5,-47.38 0,-47.38 0,-5.62 140.5,-5.62 140.5,-47.38"/>
<text text-anchor="start" x="8" y="-33.88" font-family="Helvetica,sans-Serif" font-size="10.00">/github/workspace/dev</text>
<text text-anchor="start" x="8" y="-22.62" font-family="Helvetica,sans-Serif" font-size="10.00">_area/build/confmodel</text>
<text text-anchor="middle" x="70.25" y="-11.38" font-family="Helvetica,sans-Serif" font-size="10.00">/codegen/src/ActionPlan.cpp</text>
</a>
</g>
</g>
<!-- Node1&#45;&gt;Node2 -->
<g id="edge1_Node000001_Node000002" class="edge">
<title>Node1&#45;&gt;Node2</title>
<g id="a_edge1_Node000001_Node000002"><a xlink:title=" ">
<path fill="none" stroke="#63b8ff" d="M332.99,-97.45C280.68,-85.92 211.1,-69.79 150.25,-53 144.35,-51.37 138.23,-49.59 132.12,-47.75"/>
<polygon fill="#63b8ff" stroke="#63b8ff" points="332.21,-100.87 342.73,-99.59 333.71,-94.03 332.21,-100.87"/>
</a>
</g>
</g>
<!-- Node3 -->
<g id="Node000003" class="node">
<title>Node3</title>
<g id="a_Node000003"><a xlink:href="FSMCommand_8cpp.html" target="_top" xlink:title=" ">
<polygon fill="white" stroke="#666666" points="317.5,-47.38 159,-47.38 159,-5.62 317.5,-5.62 317.5,-47.38"/>
<text text-anchor="start" x="167" y="-33.88" font-family="Helvetica,sans-Serif" font-size="10.00">/github/workspace/dev</text>
<text text-anchor="start" x="167" y="-22.62" font-family="Helvetica,sans-Serif" font-size="10.00">_area/build/confmodel</text>
<text text-anchor="middle" x="238.25" y="-11.38" font-family="Helvetica,sans-Serif" font-size="10.00">/codegen/src/FSMCommand.cpp</text>
</a>
</g>
</g>
<!-- Node1&#45;&gt;Node3 -->
<g id="edge2_Node000001_Node000003" class="edge">
<title>Node1&#45;&gt;Node3</title>
<g id="a_edge2_Node000001_Node000003"><a xlink:title=" ">
<path fill="none" stroke="#63b8ff" d="M351.14,-83.62C327.17,-71.71 300.42,-58.41 278.97,-47.75"/>
<polygon fill="#63b8ff" stroke="#63b8ff" points="349.35,-86.64 359.86,-87.96 352.47,-80.37 349.35,-86.64"/>
</a>
</g>
</g>
<!-- Node4 -->
<g id="Node000004" class="node">
<title>Node4</title>
<g id="a_Node000004"><a xlink:href="FSMsequence_8cpp.html" target="_top" xlink:title=" ">
<polygon fill="white" stroke="#666666" points="491.38,-47.38 335.12,-47.38 335.12,-5.62 491.38,-5.62 491.38,-47.38"/>
<text text-anchor="start" x="343.12" y="-33.88" font-family="Helvetica,sans-Serif" font-size="10.00">/github/workspace/dev</text>
<text text-anchor="start" x="343.12" y="-22.62" font-family="Helvetica,sans-Serif" font-size="10.00">_area/build/confmodel</text>
<text text-anchor="middle" x="413.25" y="-11.38" font-family="Helvetica,sans-Serif" font-size="10.00">/codegen/src/FSMsequence.cpp</text>
</a>
</g>
</g>
<!-- Node1&#45;&gt;Node4 -->
<g id="edge3_Node000001_Node000004" class="edge">
<title>Node1&#45;&gt;Node4</title>
<g id="a_edge3_Node000001_Node000004"><a xlink:title=" ">
<path fill="none" stroke="#63b8ff" d="M413.25,-77.63C413.25,-67.38 413.25,-56.62 413.25,-47.71"/>
<polygon fill="#63b8ff" stroke="#63b8ff" points="409.75,-77.35 413.25,-87.35 416.75,-77.35 409.75,-77.35"/>
</a>
</g>
</g>
<!-- Node5 -->
<g id="Node000005" class="node">
<title>Node5</title>
<g id="a_Node000005"><a xlink:href="dump__dunedaq____confmodel_8cpp.html" target="_top" xlink:title=" ">
<polygon fill="white" stroke="#666666" points="650.88,-53 509.62,-53 509.62,0 650.88,0 650.88,-53"/>
<text text-anchor="start" x="517.62" y="-39.5" font-family="Helvetica,sans-Serif" font-size="10.00">/github/workspace/dev</text>
<text text-anchor="start" x="517.62" y="-28.25" font-family="Helvetica,sans-Serif" font-size="10.00">_area/build/confmodel</text>
<text text-anchor="start" x="517.62" y="-17" font-family="Helvetica,sans-Serif" font-size="10.00">/codegen/src/dump_dunedaq</text>
<text text-anchor="middle" x="580.25" y="-5.75" font-family="Helvetica,sans-Serif" font-size="10.00">__confmodel.cpp</text>
</a>
</g>
</g>
<!-- Node1&#45;&gt;Node5 -->
<g id="edge4_Node000001_Node000005" class="edge">
<title>Node1&#45;&gt;Node5</title>
<g id="a_edge4_Node000001_Node000005"><a xlink:title=" ">
<path fill="none" stroke="#63b8ff" d="M472.88,-83.43C491.75,-73.6 512.4,-62.85 530.5,-53.42"/>
<polygon fill="#63b8ff" stroke="#63b8ff" points="471.5,-80.21 464.25,-87.93 474.73,-86.42 471.5,-80.21"/>
</a>
</g>
</g>
<!-- Node6 -->
<g id="Node000006" class="node">
<title>Node6</title>
<g id="a_Node000006"><a xlink:href="ModuleConfiguration_8cpp.html" target="_top" xlink:title=" ">
<polygon fill="white" stroke="#666666" points="809.88,-47.38 668.62,-47.38 668.62,-5.62 809.88,-5.62 809.88,-47.38"/>
<text text-anchor="start" x="676.62" y="-33.88" font-family="Helvetica,sans-Serif" font-size="10.00">/github/workspace/dev</text>
<text text-anchor="start" x="676.62" y="-22.62" font-family="Helvetica,sans-Serif" font-size="10.00">_area/sourcecode/appfwk</text>
<text text-anchor="middle" x="739.25" y="-11.38" font-family="Helvetica,sans-Serif" font-size="10.00">/src/ModuleConfiguration.cpp</text>
</a>
</g>
</g>
<!-- Node1&#45;&gt;Node6 -->
<g id="edge5_Node000001_Node000006" class="edge">
<title>Node1&#45;&gt;Node6</title>
<g id="a_edge5_Node000001_Node000006"><a xlink:title=" ">
<path fill="none" stroke="#63b8ff" d="M493.32,-96.03C541.84,-84.47 604.86,-68.81 660.25,-53 665.93,-51.38 671.82,-49.62 677.7,-47.81"/>
<polygon fill="#63b8ff" stroke="#63b8ff" points="492.65,-92.59 483.73,-98.3 494.27,-99.4 492.65,-92.59"/>
</a>
</g>
</g>
</g>
</svg>
