<?xml version="1.0" encoding="UTF-8" standalone="no"?>
<!DOCTYPE svg PUBLIC "-//W3C//DTD SVG 1.1//EN"
 "http://www.w3.org/Graphics/SVG/1.1/DTD/svg11.dtd">
<!-- Generated by graphviz version 9.0.0 (20230911.1827)
 -->
<!-- Title: /github/workspace/dev_area/build/confmodel/codegen/include/confmodel/HostComponent.hpp Pages: 1 -->
<svg width="2747pt" height="317pt"
 viewBox="0.00 0.00 2747.00 316.75" xmlns="http://www.w3.org/2000/svg" xmlns:xlink="http://www.w3.org/1999/xlink">
<g id="graph0" class="graph" transform="scale(1 1) rotate(0) translate(4 312.75)">
<title>/github/workspace/dev_area/build/confmodel/codegen/include/confmodel/HostComponent.hpp</title>
<!-- Node1 -->
<g id="Node000001" class="node">
<title>Node1</title>
<g id="a_Node000001"><a xlink:title=" ">
<polygon fill="#999999" stroke="#666666" points="1703.12,-308.75 1565.62,-308.75 1565.62,-255.75 1703.12,-255.75 1703.12,-308.75"/>
<text text-anchor="start" x="1573.62" y="-295.25" font-family="Helvetica,sans-Serif" font-size="10.00">/github/workspace/dev</text>
<text text-anchor="start" x="1573.62" y="-284" font-family="Helvetica,sans-Serif" font-size="10.00">_area/build/confmodel</text>
<text text-anchor="start" x="1573.62" y="-272.75" font-family="Helvetica,sans-Serif" font-size="10.00">/codegen/include/confmodel</text>
<text text-anchor="middle" x="1634.38" y="-261.5" font-family="Helvetica,sans-Serif" font-size="10.00">/HostComponent.hpp</text>
</a>
</g>
</g>
<!-- Node2 -->
<g id="Node000002" class="node">
<title>Node2</title>
<g id="a_Node000002"><a xlink:href="include_2confmodel_2NetworkDevice_8hpp.html" target="_top" xlink:title=" ">
<polygon fill="white" stroke="#666666" points="882.12,-219.75 744.62,-219.75 744.62,-166.75 882.12,-166.75 882.12,-219.75"/>
<text text-anchor="start" x="752.62" y="-206.25" font-family="Helvetica,sans-Serif" font-size="10.00">/github/workspace/dev</text>
<text text-anchor="start" x="752.62" y="-195" font-family="Helvetica,sans-Serif" font-size="10.00">_area/build/confmodel</text>
<text text-anchor="start" x="752.62" y="-183.75" font-family="Helvetica,sans-Serif" font-size="10.00">/codegen/include/confmodel</text>
<text text-anchor="middle" x="813.38" y="-172.5" font-family="Helvetica,sans-Serif" font-size="10.00">/NetworkDevice.hpp</text>
</a>
</g>
</g>
<!-- Node1&#45;&gt;Node2 -->
<g id="edge1_Node000001_Node000002" class="edge">
<title>Node1&#45;&gt;Node2</title>
<g id="a_edge1_Node000001_Node000002"><a xlink:title=" ">
<path fill="none" stroke="#63b8ff" d="M1554.05,-273.99C1435.78,-263.14 1207.85,-241.61 1014.38,-219.75 970.51,-214.79 921.35,-208.57 882.62,-203.51"/>
<polygon fill="#63b8ff" stroke="#63b8ff" points="1553.72,-277.47 1563.99,-274.9 1554.35,-270.5 1553.72,-277.47"/>
</a>
</g>
</g>
<!-- Node6 -->
<g id="Node000006" class="node">
<title>Node6</title>
<g id="a_Node000006"><a xlink:href="dump__dunedaq____confmodel_8cpp.html" target="_top" xlink:title=" ">
<polygon fill="white" stroke="#666666" points="1148,-130.75 1006.75,-130.75 1006.75,-77.75 1148,-77.75 1148,-130.75"/>
<text text-anchor="start" x="1014.75" y="-117.25" font-family="Helvetica,sans-Serif" font-size="10.00">/github/workspace/dev</text>
<text text-anchor="start" x="1014.75" y="-106" font-family="Helvetica,sans-Serif" font-size="10.00">_area/build/confmodel</text>
<text text-anchor="start" x="1014.75" y="-94.75" font-family="Helvetica,sans-Serif" font-size="10.00">/codegen/src/dump_dunedaq</text>
<text text-anchor="middle" x="1077.38" y="-83.5" font-family="Helvetica,sans-Serif" font-size="10.00">__confmodel.cpp</text>
</a>
</g>
</g>
<!-- Node1&#45;&gt;Node6 -->
<g id="edge26_Node000001_Node000006" class="edge">
<title>Node1&#45;&gt;Node6</title>
<g id="a_edge26_Node000001_Node000006"><a xlink:title=" ">
<path fill="none" stroke="#63b8ff" d="M1554.24,-278.7C1401.46,-273 1080.68,-256.73 1047.38,-219.75 1025.37,-195.32 1042.59,-156.7 1058.6,-131.17"/>
<polygon fill="#63b8ff" stroke="#63b8ff" points="1553.75,-282.18 1563.87,-279.05 1554.01,-275.19 1553.75,-282.18"/>
</a>
</g>
</g>
<!-- Node9 -->
<g id="Node000009" class="node">
<title>Node9</title>
<g id="a_Node000009"><a xlink:href="include_2confmodel_2ProcessingResource_8hpp.html" target="_top" xlink:title=" ">
<polygon fill="white" stroke="#666666" points="1194.12,-219.75 1056.62,-219.75 1056.62,-166.75 1194.12,-166.75 1194.12,-219.75"/>
<text text-anchor="start" x="1064.62" y="-206.25" font-family="Helvetica,sans-Serif" font-size="10.00">/github/workspace/dev</text>
<text text-anchor="start" x="1064.62" y="-195" font-family="Helvetica,sans-Serif" font-size="10.00">_area/build/confmodel</text>
<text text-anchor="start" x="1064.62" y="-183.75" font-family="Helvetica,sans-Serif" font-size="10.00">/codegen/include/confmodel</text>
<text text-anchor="middle" x="1125.38" y="-172.5" font-family="Helvetica,sans-Serif" font-size="10.00">/ProcessingResource.hpp</text>
</a>
</g>
</g>
<!-- Node1&#45;&gt;Node9 -->
<g id="edge8_Node000001_Node000009" class="edge">
<title>Node1&#45;&gt;Node9</title>
<g id="a_edge8_Node000001_Node000009"><a xlink:title=" ">
<path fill="none" stroke="#63b8ff" d="M1553.99,-274.01C1466.84,-265.18 1324.02,-247.85 1203.38,-219.75 1200.46,-219.07 1197.5,-218.33 1194.52,-217.55"/>
<polygon fill="#63b8ff" stroke="#63b8ff" points="1553.59,-277.49 1563.88,-275 1554.28,-270.52 1553.59,-277.49"/>
</a>
</g>
</g>
<!-- Node12 -->
<g id="Node000012" class="node">
<title>Node12</title>
<g id="a_Node000012"><a xlink:href="include_2confmodel_2StorageDevice_8hpp.html" target="_top" xlink:title=" ">
<polygon fill="white" stroke="#666666" points="655.12,-219.75 517.62,-219.75 517.62,-166.75 655.12,-166.75 655.12,-219.75"/>
<text text-anchor="start" x="525.62" y="-206.25" font-family="Helvetica,sans-Serif" font-size="10.00">/github/workspace/dev</text>
<text text-anchor="start" x="525.62" y="-195" font-family="Helvetica,sans-Serif" font-size="10.00">_area/build/confmodel</text>
<text text-anchor="start" x="525.62" y="-183.75" font-family="Helvetica,sans-Serif" font-size="10.00">/codegen/include/confmodel</text>
<text text-anchor="middle" x="586.38" y="-172.5" font-family="Helvetica,sans-Serif" font-size="10.00">/StorageDevice.hpp</text>
</a>
</g>
</g>
<!-- Node1&#45;&gt;Node12 -->
<g id="edge14_Node000001_Node000012" class="edge">
<title>Node1&#45;&gt;Node12</title>
<g id="a_edge14_Node000001_Node000012"><a xlink:title=" ">
<path fill="none" stroke="#63b8ff" d="M1553.91,-278.48C1396.33,-272.45 1036.19,-255.69 735.38,-219.75 709.19,-216.62 680.6,-212.02 655.53,-207.58"/>
<polygon fill="#63b8ff" stroke="#63b8ff" points="1553.72,-281.97 1563.84,-278.85 1553.98,-274.98 1553.72,-281.97"/>
</a>
</g>
</g>
<!-- Node15 -->
<g id="Node000015" class="node">
<title>Node15</title>
<g id="a_Node000015"><a xlink:href="DaqModule_8cpp.html" target="_top" xlink:title=" ">
<polygon fill="white" stroke="#666666" points="1354.38,-214.12 1212.38,-214.12 1212.38,-172.38 1354.38,-172.38 1354.38,-214.12"/>
<text text-anchor="start" x="1220.38" y="-200.62" font-family="Helvetica,sans-Serif" font-size="10.00">/github/workspace/dev</text>
<text text-anchor="start" x="1220.38" y="-189.38" font-family="Helvetica,sans-Serif" font-size="10.00">_area/build/confmodel</text>
<text text-anchor="middle" x="1283.38" y="-178.12" font-family="Helvetica,sans-Serif" font-size="10.00">/codegen/src/DaqModule.cpp</text>
</a>
</g>
</g>
<!-- Node1&#45;&gt;Node15 -->
<g id="edge19_Node000001_Node000015" class="edge">
<title>Node1&#45;&gt;Node15</title>
<g id="a_edge19_Node000001_Node000015"><a xlink:title=" ">
<path fill="none" stroke="#63b8ff" d="M1553.93,-264.88C1499.78,-253.4 1426.93,-237.06 1363.38,-219.75 1357.47,-218.14 1351.35,-216.37 1345.24,-214.54"/>
<polygon fill="#63b8ff" stroke="#63b8ff" points="1553.21,-268.3 1563.71,-266.94 1554.65,-261.45 1553.21,-268.3"/>
</a>
</g>
</g>
<!-- Node16 -->
<g id="Node000016" class="node">
<title>Node16</title>
<g id="a_Node000016"><a xlink:href="HostComponent_8cpp.html" target="_top" xlink:title=" ">
<polygon fill="white" stroke="#666666" points="1536.25,-214.12 1372.5,-214.12 1372.5,-172.38 1536.25,-172.38 1536.25,-214.12"/>
<text text-anchor="start" x="1380.5" y="-200.62" font-family="Helvetica,sans-Serif" font-size="10.00">/github/workspace/dev</text>
<text text-anchor="start" x="1380.5" y="-189.38" font-family="Helvetica,sans-Serif" font-size="10.00">_area/build/confmodel</text>
<text text-anchor="middle" x="1454.38" y="-178.12" font-family="Helvetica,sans-Serif" font-size="10.00">/codegen/src/HostComponent.cpp</text>
</a>
</g>
</g>
<!-- Node1&#45;&gt;Node16 -->
<g id="edge20_Node000001_Node000016" class="edge">
<title>Node1&#45;&gt;Node16</title>
<g id="a_edge20_Node000001_Node000016"><a xlink:title=" ">
<path fill="none" stroke="#63b8ff" d="M1570.82,-250.53C1546.08,-238.57 1518.42,-225.2 1496.26,-214.5"/>
<polygon fill="#63b8ff" stroke="#63b8ff" points="1568.97,-253.52 1579.49,-254.72 1572.01,-247.22 1568.97,-253.52"/>
</a>
</g>
</g>
<!-- Node17 -->
<g id="Node000017" class="node">
<title>Node17</title>
<g id="a_Node000017"><a xlink:href="src_2NetworkDevice_8hpp.html" target="_top" xlink:title=" ">
<polygon fill="white" stroke="#666666" points="1714.38,-214.12 1554.38,-214.12 1554.38,-172.38 1714.38,-172.38 1714.38,-214.12"/>
<text text-anchor="start" x="1562.38" y="-200.62" font-family="Helvetica,sans-Serif" font-size="10.00">/github/workspace/dev</text>
<text text-anchor="start" x="1562.38" y="-189.38" font-family="Helvetica,sans-Serif" font-size="10.00">_area/build/confmodel</text>
<text text-anchor="middle" x="1634.38" y="-178.12" font-family="Helvetica,sans-Serif" font-size="10.00">/codegen/src/NetworkDevice.hpp</text>
</a>
</g>
</g>
<!-- Node1&#45;&gt;Node17 -->
<g id="edge21_Node000001_Node000017" class="edge">
<title>Node1&#45;&gt;Node17</title>
<g id="a_edge21_Node000001_Node000017"><a xlink:title=" ">
<path fill="none" stroke="#63b8ff" d="M1634.38,-244.38C1634.38,-234.13 1634.38,-223.37 1634.38,-214.46"/>
<polygon fill="#63b8ff" stroke="#63b8ff" points="1630.88,-244.1 1634.38,-254.1 1637.88,-244.1 1630.88,-244.1"/>
</a>
</g>
</g>
<!-- Node18 -->
<g id="Node000018" class="node">
<title>Node18</title>
<g id="a_Node000018"><a xlink:href="PhysicalHost_8cpp.html" target="_top" xlink:title=" ">
<polygon fill="white" stroke="#666666" points="1883.88,-214.12 1732.88,-214.12 1732.88,-172.38 1883.88,-172.38 1883.88,-214.12"/>
<text text-anchor="start" x="1740.88" y="-200.62" font-family="Helvetica,sans-Serif" font-size="10.00">/github/workspace/dev</text>
<text text-anchor="start" x="1740.88" y="-189.38" font-family="Helvetica,sans-Serif" font-size="10.00">_area/build/confmodel</text>
<text text-anchor="middle" x="1808.38" y="-178.12" font-family="Helvetica,sans-Serif" font-size="10.00">/codegen/src/PhysicalHost.cpp</text>
</a>
</g>
</g>
<!-- Node1&#45;&gt;Node18 -->
<g id="edge22_Node000001_Node000018" class="edge">
<title>Node1&#45;&gt;Node18</title>
<g id="a_edge22_Node000001_Node000018"><a xlink:title=" ">
<path fill="none" stroke="#63b8ff" d="M1696.13,-250.37C1719.96,-238.46 1746.56,-225.16 1767.88,-214.5"/>
<polygon fill="#63b8ff" stroke="#63b8ff" points="1694.84,-247.1 1687.46,-254.71 1697.97,-253.36 1694.84,-247.1"/>
</a>
</g>
</g>
<!-- Node19 -->
<g id="Node000019" class="node">
<title>Node19</title>
<g id="a_Node000019"><a xlink:href="src_2ProcessingResource_8hpp.html" target="_top" xlink:title=" ">
<polygon fill="white" stroke="#666666" points="2085,-214.12 1901.75,-214.12 1901.75,-172.38 2085,-172.38 2085,-214.12"/>
<text text-anchor="start" x="1909.75" y="-200.62" font-family="Helvetica,sans-Serif" font-size="10.00">/github/workspace/dev</text>
<text text-anchor="start" x="1909.75" y="-189.38" font-family="Helvetica,sans-Serif" font-size="10.00">_area/build/confmodel</text>
<text text-anchor="middle" x="1993.38" y="-178.12" font-family="Helvetica,sans-Serif" font-size="10.00">/codegen/src/ProcessingResource.hpp</text>
</a>
</g>
</g>
<!-- Node1&#45;&gt;Node19 -->
<g id="edge23_Node000001_Node000019" class="edge">
<title>Node1&#45;&gt;Node19</title>
<g id="a_edge23_Node000001_Node000019"><a xlink:title=" ">
<path fill="none" stroke="#63b8ff" d="M1714.43,-262.6C1765.65,-250.58 1833.49,-234.5 1893.38,-219.75 1900.07,-218.1 1907.02,-216.37 1913.98,-214.62"/>
<polygon fill="#63b8ff" stroke="#63b8ff" points="1713.84,-259.14 1704.91,-264.83 1715.44,-265.96 1713.84,-259.14"/>
</a>
</g>
</g>
<!-- Node20 -->
<g id="Node000020" class="node">
<title>Node20</title>
<g id="a_Node000020"><a xlink:href="src_2StorageDevice_8hpp.html" target="_top" xlink:title=" ">
<polygon fill="white" stroke="#666666" points="2259.88,-214.12 2102.88,-214.12 2102.88,-172.38 2259.88,-172.38 2259.88,-214.12"/>
<text text-anchor="start" x="2110.88" y="-200.62" font-family="Helvetica,sans-Serif" font-size="10.00">/github/workspace/dev</text>
<text text-anchor="start" x="2110.88" y="-189.38" font-family="Helvetica,sans-Serif" font-size="10.00">_area/build/confmodel</text>
<text text-anchor="middle" x="2181.38" y="-178.12" font-family="Helvetica,sans-Serif" font-size="10.00">/codegen/src/StorageDevice.hpp</text>
</a>
</g>
</g>
<!-- Node1&#45;&gt;Node20 -->
<g id="edge24_Node000001_Node000020" class="edge">
<title>Node1&#45;&gt;Node20</title>
<g id="a_edge24_Node000001_Node000020"><a xlink:title=" ">
<path fill="none" stroke="#63b8ff" d="M1714.73,-274.25C1807.04,-265.34 1962.72,-247.67 2094.38,-219.75 2101.46,-218.25 2108.8,-216.46 2116.09,-214.54"/>
<polygon fill="#63b8ff" stroke="#63b8ff" points="1714.64,-270.74 1705.02,-275.17 1715.31,-277.71 1714.64,-270.74"/>
</a>
</g>
</g>
<!-- Node21 -->
<g id="Node000021" class="node">
<title>Node21</title>
<g id="a_Node000021"><a xlink:href="VirtualHost_8cpp.html" target="_top" xlink:title=" ">
<polygon fill="white" stroke="#666666" points="2420.38,-214.12 2278.38,-214.12 2278.38,-172.38 2420.38,-172.38 2420.38,-214.12"/>
<text text-anchor="start" x="2286.38" y="-200.62" font-family="Helvetica,sans-Serif" font-size="10.00">/github/workspace/dev</text>
<text text-anchor="start" x="2286.38" y="-189.38" font-family="Helvetica,sans-Serif" font-size="10.00">_area/build/confmodel</text>
<text text-anchor="middle" x="2349.38" y="-178.12" font-family="Helvetica,sans-Serif" font-size="10.00">/codegen/src/VirtualHost.cpp</text>
</a>
</g>
</g>
<!-- Node1&#45;&gt;Node21 -->
<g id="edge25_Node000001_Node000021" class="edge">
<title>Node1&#45;&gt;Node21</title>
<g id="a_edge25_Node000001_Node000021"><a xlink:title=" ">
<path fill="none" stroke="#63b8ff" d="M1714.58,-278.92C1835.84,-274.19 2072.57,-260.17 2269.38,-219.75 2276.23,-218.34 2283.33,-216.57 2290.33,-214.61"/>
<polygon fill="#63b8ff" stroke="#63b8ff" points="1714.59,-275.42 1704.73,-279.3 1714.85,-282.42 1714.59,-275.42"/>
</a>
</g>
</g>
<!-- Node22 -->
<g id="Node000022" class="node">
<title>Node22</title>
<g id="a_Node000022"><a xlink:href="confmodel_2pybindsrc_2dal__methods_8cpp.html" target="_top" xlink:title=" ">
<polygon fill="white" stroke="#666666" points="2580,-214.12 2438.75,-214.12 2438.75,-172.38 2580,-172.38 2580,-214.12"/>
<text text-anchor="start" x="2446.75" y="-200.62" font-family="Helvetica,sans-Serif" font-size="10.00">/github/workspace/dev</text>
<text text-anchor="start" x="2446.75" y="-189.38" font-family="Helvetica,sans-Serif" font-size="10.00">_area/sourcecode/confmodel</text>
<text text-anchor="middle" x="2509.38" y="-178.12" font-family="Helvetica,sans-Serif" font-size="10.00">/pybindsrc/dal_methods.cpp</text>
</a>
</g>
</g>
<!-- Node1&#45;&gt;Node22 -->
<g id="edge27_Node000001_Node000022" class="edge">
<title>Node1&#45;&gt;Node22</title>
<g id="a_edge27_Node000001_Node000022"><a xlink:title=" ">
<path fill="none" stroke="#63b8ff" d="M1714.78,-281.14C1859.22,-279.6 2171.59,-270.1 2429.38,-219.75 2436.39,-218.38 2443.64,-216.6 2450.8,-214.62"/>
<polygon fill="#63b8ff" stroke="#63b8ff" points="1714.9,-277.64 1704.93,-281.24 1714.96,-284.64 1714.9,-277.64"/>
</a>
</g>
</g>
<!-- Node23 -->
<g id="Node000023" class="node">
<title>Node23</title>
<g id="a_Node000023"><a xlink:href="confmodel_2pybindsrc_2module_8cpp.html" target="_top" xlink:title=" ">
<polygon fill="white" stroke="#666666" points="2739,-214.12 2597.75,-214.12 2597.75,-172.38 2739,-172.38 2739,-214.12"/>
<text text-anchor="start" x="2605.75" y="-200.62" font-family="Helvetica,sans-Serif" font-size="10.00">/github/workspace/dev</text>
<text text-anchor="start" x="2605.75" y="-189.38" font-family="Helvetica,sans-Serif" font-size="10.00">_area/sourcecode/confmodel</text>
<text text-anchor="middle" x="2668.38" y="-178.12" font-family="Helvetica,sans-Serif" font-size="10.00">/pybindsrc/module.cpp</text>
</a>
</g>
</g>
<!-- Node1&#45;&gt;Node23 -->
<g id="edge28_Node000001_Node000023" class="edge">
<title>Node1&#45;&gt;Node23</title>
<g id="a_edge28_Node000001_Node000023"><a xlink:title=" ">
<path fill="none" stroke="#63b8ff" d="M1715.08,-278.63C1913.79,-271.75 2422.66,-251.51 2589.38,-219.75 2596.45,-218.4 2603.78,-216.61 2610.99,-214.59"/>
<polygon fill="#63b8ff" stroke="#63b8ff" points="1714.96,-275.13 1705.09,-278.97 1715.2,-282.12 1714.96,-275.13"/>
</a>
</g>
</g>
<!-- Node3 -->
<g id="Node000003" class="node">
<title>Node3</title>
<g id="a_Node000003"><a xlink:href="DPDKReceiver_8cpp.html" target="_top" xlink:title=" ">
<polygon fill="white" stroke="#666666" points="494.62,-125.12 336.12,-125.12 336.12,-83.38 494.62,-83.38 494.62,-125.12"/>
<text text-anchor="start" x="344.12" y="-111.62" font-family="Helvetica,sans-Serif" font-size="10.00">/github/workspace/dev</text>
<text text-anchor="start" x="344.12" y="-100.38" font-family="Helvetica,sans-Serif" font-size="10.00">_area/build/appmodel</text>
<text text-anchor="middle" x="415.38" y="-89.12" font-family="Helvetica,sans-Serif" font-size="10.00">/codegen/src/DPDKReceiver.cpp</text>
</a>
</g>
</g>
<!-- Node2&#45;&gt;Node3 -->
<g id="edge2_Node000002_Node000003" class="edge">
<title>Node2&#45;&gt;Node3</title>
<g id="a_edge2_Node000002_Node000003"><a xlink:title=" ">
<path fill="none" stroke="#63b8ff" d="M733.34,-178.33C670.49,-166.93 580.95,-149.65 503.38,-130.75 496.88,-129.17 490.15,-127.42 483.44,-125.6"/>
<polygon fill="#63b8ff" stroke="#63b8ff" points="732.41,-181.72 742.87,-180.05 733.65,-174.83 732.41,-181.72"/>
</a>
</g>
</g>
<!-- Node4 -->
<g id="Node000004" class="node">
<title>Node4</title>
<g id="a_Node000004"><a xlink:href="RoHwConfig_8cpp.html" target="_top" xlink:title=" ">
<polygon fill="white" stroke="#666666" points="660,-125.12 512.75,-125.12 512.75,-83.38 660,-83.38 660,-125.12"/>
<text text-anchor="start" x="520.75" y="-111.62" font-family="Helvetica,sans-Serif" font-size="10.00">/github/workspace/dev</text>
<text text-anchor="start" x="520.75" y="-100.38" font-family="Helvetica,sans-Serif" font-size="10.00">_area/build/appmodel</text>
<text text-anchor="middle" x="586.38" y="-89.12" font-family="Helvetica,sans-Serif" font-size="10.00">/codegen/src/RoHwConfig.cpp</text>
</a>
</g>
</g>
<!-- Node2&#45;&gt;Node4 -->
<g id="edge3_Node000002_Node000004" class="edge">
<title>Node2&#45;&gt;Node4</title>
<g id="a_edge3_Node000002_Node000004"><a xlink:title=" ">
<path fill="none" stroke="#63b8ff" d="M735.04,-162.23C703.47,-150.13 667.87,-136.48 639.42,-125.58"/>
<polygon fill="#63b8ff" stroke="#63b8ff" points="733.57,-165.41 744.16,-165.72 736.08,-158.88 733.57,-165.41"/>
</a>
</g>
</g>
<!-- Node5 -->
<g id="Node000005" class="node">
<title>Node5</title>
<g id="a_Node000005"><a xlink:href="NetworkDevice_8cpp.html" target="_top" xlink:title=" ">
<polygon fill="white" stroke="#666666" points="988.38,-125.12 828.38,-125.12 828.38,-83.38 988.38,-83.38 988.38,-125.12"/>
<text text-anchor="start" x="836.38" y="-111.62" font-family="Helvetica,sans-Serif" font-size="10.00">/github/workspace/dev</text>
<text text-anchor="start" x="836.38" y="-100.38" font-family="Helvetica,sans-Serif" font-size="10.00">_area/build/confmodel</text>
<text text-anchor="middle" x="908.38" y="-89.12" font-family="Helvetica,sans-Serif" font-size="10.00">/codegen/src/NetworkDevice.cpp</text>
</a>
</g>
</g>
<!-- Node2&#45;&gt;Node5 -->
<g id="edge4_Node000002_Node000005" class="edge">
<title>Node2&#45;&gt;Node5</title>
<g id="a_edge4_Node000002_Node000005"><a xlink:title=" ">
<path fill="none" stroke="#63b8ff" d="M849.93,-158.77C862.25,-147.49 875.59,-135.27 886.42,-125.36"/>
<polygon fill="#63b8ff" stroke="#63b8ff" points="847.75,-156.03 842.74,-165.36 852.48,-161.19 847.75,-156.03"/>
</a>
</g>
</g>
<!-- Node2&#45;&gt;Node6 -->
<g id="edge5_Node000002_Node000006" class="edge">
<title>Node2&#45;&gt;Node6</title>
<g id="a_edge5_Node000002_Node000006"><a xlink:title=" ">
<path fill="none" stroke="#63b8ff" d="M892.9,-166.04C929.03,-154.14 971.43,-140.16 1006.46,-128.62"/>
<polygon fill="#63b8ff" stroke="#63b8ff" points="892.23,-162.58 883.83,-169.03 894.42,-169.23 892.23,-162.58"/>
</a>
</g>
</g>
<!-- Node7 -->
<g id="Node000007" class="node">
<title>Node7</title>
<g id="a_Node000007"><a xlink:href="IfaceWrapper_8hpp.html" target="_top" xlink:title=" ">
<polygon fill="white" stroke="#666666" points="810.5,-125.12 678.25,-125.12 678.25,-83.38 810.5,-83.38 810.5,-125.12"/>
<text text-anchor="start" x="686.25" y="-111.62" font-family="Helvetica,sans-Serif" font-size="10.00">/github/workspace/dev</text>
<text text-anchor="start" x="686.25" y="-100.38" font-family="Helvetica,sans-Serif" font-size="10.00">_area/sourcecode/dpdklibs</text>
<text text-anchor="middle" x="744.38" y="-89.12" font-family="Helvetica,sans-Serif" font-size="10.00">/src/IfaceWrapper.hpp</text>
</a>
</g>
</g>
<!-- Node2&#45;&gt;Node7 -->
<g id="edge6_Node000002_Node000007" class="edge">
<title>Node2&#45;&gt;Node7</title>
<g id="a_edge6_Node000002_Node000007"><a xlink:title=" ">
<path fill="none" stroke="#63b8ff" d="M785.96,-157.69C777.29,-146.76 768,-135.04 760.41,-125.46"/>
<polygon fill="#63b8ff" stroke="#63b8ff" points="783.15,-159.77 792.11,-165.43 788.63,-155.42 783.15,-159.77"/>
</a>
</g>
</g>
<!-- Node8 -->
<g id="Node000008" class="node">
<title>Node8</title>
<g id="a_Node000008"><a xlink:href="IfaceWrapper_8cpp.html" target="_top" xlink:title=" ">
<polygon fill="white" stroke="#666666" points="1026.5,-41.75 894.25,-41.75 894.25,0 1026.5,0 1026.5,-41.75"/>
<text text-anchor="start" x="902.25" y="-28.25" font-family="Helvetica,sans-Serif" font-size="10.00">/github/workspace/dev</text>
<text text-anchor="start" x="902.25" y="-17" font-family="Helvetica,sans-Serif" font-size="10.00">_area/sourcecode/dpdklibs</text>
<text text-anchor="middle" x="960.38" y="-5.75" font-family="Helvetica,sans-Serif" font-size="10.00">/src/IfaceWrapper.cpp</text>
</a>
</g>
</g>
<!-- Node7&#45;&gt;Node8 -->
<g id="edge7_Node000007_Node000008" class="edge">
<title>Node7&#45;&gt;Node8</title>
<g id="a_edge7_Node000007_Node000008"><a xlink:title=" ">
<path fill="none" stroke="#63b8ff" d="M809.04,-78.89C840.08,-67.19 876.85,-53.34 906.37,-42.22"/>
<polygon fill="#63b8ff" stroke="#63b8ff" points="807.86,-75.59 799.74,-82.39 810.33,-82.14 807.86,-75.59"/>
</a>
</g>
</g>
<!-- Node9&#45;&gt;Node4 -->
<g id="edge10_Node000009_Node000004" class="edge">
<title>Node9&#45;&gt;Node4</title>
<g id="a_edge10_Node000009_Node000004"><a xlink:title=" ">
<path fill="none" stroke="#63b8ff" d="M1045.12,-183.03C934.01,-170 739.15,-146.07 669.38,-130.75 662.6,-129.26 655.58,-127.49 648.63,-125.57"/>
<polygon fill="#63b8ff" stroke="#63b8ff" points="1044.42,-186.48 1054.76,-184.16 1045.23,-179.52 1044.42,-186.48"/>
</a>
</g>
</g>
<!-- Node9&#45;&gt;Node6 -->
<g id="edge12_Node000009_Node000006" class="edge">
<title>Node9&#45;&gt;Node6</title>
<g id="a_edge12_Node000009_Node000006"><a xlink:title=" ">
<path fill="none" stroke="#63b8ff" d="M1105.8,-156.77C1101.04,-148.14 1096.04,-139.08 1091.58,-131"/>
<polygon fill="#63b8ff" stroke="#63b8ff" points="1102.61,-158.23 1110.5,-165.29 1108.74,-154.85 1102.61,-158.23"/>
</a>
</g>
</g>
<!-- Node9&#45;&gt;Node8 -->
<g id="edge13_Node000009_Node000008" class="edge">
<title>Node9&#45;&gt;Node8</title>
<g id="a_edge13_Node000009_Node000008"><a xlink:title=" ">
<path fill="none" stroke="#63b8ff" d="M1149.94,-157.09C1163.64,-132.77 1174.77,-100.76 1157.38,-77.75 1141.46,-56.69 1077.72,-41.26 1026.99,-32.02"/>
<polygon fill="#63b8ff" stroke="#63b8ff" points="1147.12,-154.99 1144.98,-165.37 1153.12,-158.59 1147.12,-154.99"/>
</a>
</g>
</g>
<!-- Node10 -->
<g id="Node000010" class="node">
<title>Node10</title>
<g id="a_Node000010"><a xlink:href="DPDKPortConfiguration_8cpp.html" target="_top" xlink:title=" ">
<polygon fill="white" stroke="#666666" points="1398.62,-125.12 1204.12,-125.12 1204.12,-83.38 1398.62,-83.38 1398.62,-125.12"/>
<text text-anchor="start" x="1212.12" y="-111.62" font-family="Helvetica,sans-Serif" font-size="10.00">/github/workspace/dev</text>
<text text-anchor="start" x="1212.12" y="-100.38" font-family="Helvetica,sans-Serif" font-size="10.00">_area/build/appmodel</text>
<text text-anchor="middle" x="1301.38" y="-89.12" font-family="Helvetica,sans-Serif" font-size="10.00">/codegen/src/DPDKPortConfiguration.cpp</text>
</a>
</g>
</g>
<!-- Node9&#45;&gt;Node10 -->
<g id="edge9_Node000009_Node000010" class="edge">
<title>Node9&#45;&gt;Node10</title>
<g id="a_edge9_Node000009_Node000010"><a xlink:title=" ">
<path fill="none" stroke="#63b8ff" d="M1187.84,-161.37C1211.95,-149.46 1238.85,-136.16 1260.42,-125.5"/>
<polygon fill="#63b8ff" stroke="#63b8ff" points="1186.47,-158.14 1179.06,-165.71 1189.58,-164.42 1186.47,-158.14"/>
</a>
</g>
</g>
<!-- Node11 -->
<g id="Node000011" class="node">
<title>Node11</title>
<g id="a_Node000011"><a xlink:href="ProcessingResource_8cpp.html" target="_top" xlink:title=" ">
<polygon fill="white" stroke="#666666" points="1600,-125.12 1416.75,-125.12 1416.75,-83.38 1600,-83.38 1600,-125.12"/>
<text text-anchor="start" x="1424.75" y="-111.62" font-family="Helvetica,sans-Serif" font-size="10.00">/github/workspace/dev</text>
<text text-anchor="start" x="1424.75" y="-100.38" font-family="Helvetica,sans-Serif" font-size="10.00">_area/build/confmodel</text>
<text text-anchor="middle" x="1508.38" y="-89.12" font-family="Helvetica,sans-Serif" font-size="10.00">/codegen/src/ProcessingResource.cpp</text>
</a>
</g>
</g>
<!-- Node9&#45;&gt;Node11 -->
<g id="edge11_Node000009_Node000011" class="edge">
<title>Node9&#45;&gt;Node11</title>
<g id="a_edge11_Node000009_Node000011"><a xlink:title=" ">
<path fill="none" stroke="#63b8ff" d="M1205.72,-166.32C1294.71,-144.79 1320.87,-149.28 1407.38,-130.75 1414.8,-129.16 1422.51,-127.4 1430.21,-125.58"/>
<polygon fill="#63b8ff" stroke="#63b8ff" points="1204.89,-162.92 1196.02,-168.71 1206.57,-169.71 1204.89,-162.92"/>
</a>
</g>
</g>
<!-- Node12&#45;&gt;Node4 -->
<g id="edge16_Node000012_Node000004" class="edge">
<title>Node12&#45;&gt;Node4</title>
<g id="a_edge16_Node000012_Node000004"><a xlink:title=" ">
<path fill="none" stroke="#63b8ff" d="M586.38,-155.38C586.38,-145.13 586.38,-134.37 586.38,-125.46"/>
<polygon fill="#63b8ff" stroke="#63b8ff" points="582.88,-155.1 586.38,-165.1 589.88,-155.1 582.88,-155.1"/>
</a>
</g>
</g>
<!-- Node12&#45;&gt;Node6 -->
<g id="edge18_Node000012_Node000006" class="edge">
<title>Node12&#45;&gt;Node6</title>
<g id="a_edge18_Node000012_Node000006"><a xlink:title=" ">
<path fill="none" stroke="#63b8ff" d="M666.41,-178.05C688.71,-174.23 712.96,-170.21 735.38,-166.75 851.54,-148.83 882.74,-156.69 997.38,-130.75 1000.36,-130.07 1003.39,-129.34 1006.45,-128.56"/>
<polygon fill="#63b8ff" stroke="#63b8ff" points="666.04,-174.57 656.78,-179.71 667.23,-181.46 666.04,-174.57"/>
</a>
</g>
</g>
<!-- Node13 -->
<g id="Node000013" class="node">
<title>Node13</title>
<g id="a_Node000013"><a xlink:href="DFHWConf_8cpp.html" target="_top" xlink:title=" ">
<polygon fill="white" stroke="#666666" points="142.75,-125.12 0,-125.12 0,-83.38 142.75,-83.38 142.75,-125.12"/>
<text text-anchor="start" x="8" y="-111.62" font-family="Helvetica,sans-Serif" font-size="10.00">/github/workspace/dev</text>
<text text-anchor="start" x="8" y="-100.38" font-family="Helvetica,sans-Serif" font-size="10.00">_area/build/appmodel</text>
<text text-anchor="middle" x="71.38" y="-89.12" font-family="Helvetica,sans-Serif" font-size="10.00">/codegen/src/DFHWConf.cpp</text>
</a>
</g>
</g>
<!-- Node12&#45;&gt;Node13 -->
<g id="edge15_Node000012_Node000013" class="edge">
<title>Node12&#45;&gt;Node13</title>
<g id="a_edge15_Node000012_Node000013"><a xlink:title=" ">
<path fill="none" stroke="#63b8ff" d="M506.15,-184.87C418.5,-175.88 274.31,-158.39 152.38,-130.75 145.76,-129.25 138.91,-127.47 132.12,-125.55"/>
<polygon fill="#63b8ff" stroke="#63b8ff" points="505.53,-188.32 515.83,-185.85 506.24,-181.36 505.53,-188.32"/>
</a>
</g>
</g>
<!-- Node14 -->
<g id="Node000014" class="node">
<title>Node14</title>
<g id="a_Node000014"><a xlink:href="StorageDevice_8cpp.html" target="_top" xlink:title=" ">
<polygon fill="white" stroke="#666666" points="317.88,-125.12 160.88,-125.12 160.88,-83.38 317.88,-83.38 317.88,-125.12"/>
<text text-anchor="start" x="168.88" y="-111.62" font-family="Helvetica,sans-Serif" font-size="10.00">/github/workspace/dev</text>
<text text-anchor="start" x="168.88" y="-100.38" font-family="Helvetica,sans-Serif" font-size="10.00">_area/build/confmodel</text>
<text text-anchor="middle" x="239.38" y="-89.12" font-family="Helvetica,sans-Serif" font-size="10.00">/codegen/src/StorageDevice.cpp</text>
</a>
</g>
</g>
<!-- Node12&#45;&gt;Node14 -->
<g id="edge17_Node000012_Node000014" class="edge">
<title>Node12&#45;&gt;Node14</title>
<g id="a_edge17_Node000012_Node000014"><a xlink:title=" ">
<path fill="none" stroke="#63b8ff" d="M506.15,-174.27C454.86,-162.51 387.02,-146.46 327.38,-130.75 321.22,-129.13 314.84,-127.39 308.46,-125.62"/>
<polygon fill="#63b8ff" stroke="#63b8ff" points="505.16,-177.63 515.69,-176.45 506.72,-170.81 505.16,-177.63"/>
</a>
</g>
</g>
</g>
</svg>
