<?xml version="1.0" encoding="UTF-8" standalone="no"?>
<!DOCTYPE svg PUBLIC "-//W3C//DTD SVG 1.1//EN"
 "http://www.w3.org/Graphics/SVG/1.1/DTD/svg11.dtd">
<!-- Generated by graphviz version 9.0.0 (20230911.1827)
 -->
<!-- Title: /github/workspace/dev_area/build/timinglibs/codegen/include/timinglibs/dal/TimingEndpointControllerConf.hpp Pages: 1 -->
<svg width="946pt" height="239pt"
 viewBox="0.00 0.00 945.88 239.00" xmlns="http://www.w3.org/2000/svg" xmlns:xlink="http://www.w3.org/1999/xlink">
<g id="graph0" class="graph" transform="scale(1 1) rotate(0) translate(4 235)">
<title>/github/workspace/dev_area/build/timinglibs/codegen/include/timinglibs/dal/TimingEndpointControllerConf.hpp</title>
<!-- Node1 -->
<g id="Node000001" class="node">
<title>Node1</title>
<g id="a_Node000001"><a xlink:title=" ">
<polygon fill="#999999" stroke="#666666" points="575.38,-231 394.38,-231 394.38,-178 575.38,-178 575.38,-231"/>
<text text-anchor="start" x="402.38" y="-217.5" font-family="Helvetica,sans-Serif" font-size="10.00">/github/workspace/dev</text>
<text text-anchor="start" x="402.38" y="-206.25" font-family="Helvetica,sans-Serif" font-size="10.00">_area/build/timinglibs</text>
<text text-anchor="start" x="402.38" y="-195" font-family="Helvetica,sans-Serif" font-size="10.00">/codegen/include/timinglibs</text>
<text text-anchor="middle" x="484.88" y="-183.75" font-family="Helvetica,sans-Serif" font-size="10.00">/dal/TimingEndpointControllerConf.hpp</text>
</a>
</g>
</g>
<!-- Node2 -->
<g id="Node000002" class="node">
<title>Node2</title>
<g id="a_Node000002"><a xlink:href="include_2hsilibs_2dal_2HSIControllerConf_8hpp.html" target="_top" xlink:title=" ">
<polygon fill="white" stroke="#666666" points="222.75,-142 65,-142 65,-89 222.75,-89 222.75,-142"/>
<text text-anchor="start" x="73" y="-128.5" font-family="Helvetica,sans-Serif" font-size="10.00">/github/workspace/dev</text>
<text text-anchor="start" x="73" y="-117.25" font-family="Helvetica,sans-Serif" font-size="10.00">_area/build/hsilibs/codegen</text>
<text text-anchor="start" x="73" y="-106" font-family="Helvetica,sans-Serif" font-size="10.00">/include/hsilibs/dal/HSIController</text>
<text text-anchor="middle" x="143.88" y="-94.75" font-family="Helvetica,sans-Serif" font-size="10.00">Conf.hpp</text>
</a>
</g>
</g>
<!-- Node1&#45;&gt;Node2 -->
<g id="edge1_Node000001_Node000002" class="edge">
<title>Node1&#45;&gt;Node2</title>
<g id="a_edge1_Node000001_Node000002"><a xlink:title=" ">
<path fill="none" stroke="#63b8ff" d="M382.94,-179.79C336.71,-168.76 281.41,-155.19 231.88,-142 228.95,-141.22 225.98,-140.42 222.98,-139.6"/>
<polygon fill="#63b8ff" stroke="#63b8ff" points="381.87,-183.13 392.41,-182.04 383.49,-176.32 381.87,-183.13"/>
</a>
</g>
</g>
<!-- Node5 -->
<g id="Node000005" class="node">
<title>Node5</title>
<g id="a_Node000005"><a xlink:href="src_2HSIControllerConf_8hpp.html" target="_top" xlink:title=" ">
<polygon fill="white" stroke="#666666" points="374.75,-136.38 241,-136.38 241,-94.62 374.75,-94.62 374.75,-136.38"/>
<text text-anchor="start" x="249" y="-122.88" font-family="Helvetica,sans-Serif" font-size="10.00">/github/workspace/dev</text>
<text text-anchor="start" x="249" y="-111.62" font-family="Helvetica,sans-Serif" font-size="10.00">_area/build/hsilibs/codegen</text>
<text text-anchor="middle" x="307.88" y="-100.38" font-family="Helvetica,sans-Serif" font-size="10.00">/src/HSIControllerConf.hpp</text>
</a>
</g>
</g>
<!-- Node1&#45;&gt;Node5 -->
<g id="edge4_Node000001_Node000005" class="edge">
<title>Node1&#45;&gt;Node5</title>
<g id="a_edge4_Node000001_Node000005"><a xlink:title=" ">
<path fill="none" stroke="#63b8ff" d="M422.05,-172.62C397.81,-160.71 370.75,-147.41 349.06,-136.75"/>
<polygon fill="#63b8ff" stroke="#63b8ff" points="420.37,-175.69 430.89,-176.97 423.46,-169.41 420.37,-175.69"/>
</a>
</g>
</g>
<!-- Node6 -->
<g id="Node000006" class="node">
<title>Node6</title>
<g id="a_Node000006"><a xlink:href="TimingEndpointControllerConf_8cpp.html" target="_top" xlink:title=" ">
<polygon fill="white" stroke="#666666" points="576.5,-142 393.25,-142 393.25,-89 576.5,-89 576.5,-142"/>
<text text-anchor="start" x="401.25" y="-128.5" font-family="Helvetica,sans-Serif" font-size="10.00">/github/workspace/dev</text>
<text text-anchor="start" x="401.25" y="-117.25" font-family="Helvetica,sans-Serif" font-size="10.00">_area/build/timinglibs</text>
<text text-anchor="start" x="401.25" y="-106" font-family="Helvetica,sans-Serif" font-size="10.00">/codegen/src/TimingEndpointController</text>
<text text-anchor="middle" x="484.88" y="-94.75" font-family="Helvetica,sans-Serif" font-size="10.00">Conf.cpp</text>
</a>
</g>
</g>
<!-- Node1&#45;&gt;Node6 -->
<g id="edge5_Node000001_Node000006" class="edge">
<title>Node1&#45;&gt;Node6</title>
<g id="a_edge5_Node000001_Node000006"><a xlink:title=" ">
<path fill="none" stroke="#63b8ff" d="M484.88,-166.61C484.88,-158.41 484.88,-149.89 484.88,-142.25"/>
<polygon fill="#63b8ff" stroke="#63b8ff" points="481.38,-166.35 484.88,-176.35 488.38,-166.35 481.38,-166.35"/>
</a>
</g>
</g>
<!-- Node7 -->
<g id="Node000007" class="node">
<title>Node7</title>
<g id="a_Node000007"><a xlink:href="dump__dunedaq____timinglibs____dal_8cpp.html" target="_top" xlink:title=" ">
<polygon fill="white" stroke="#666666" points="735.5,-142 594.25,-142 594.25,-89 735.5,-89 735.5,-142"/>
<text text-anchor="start" x="602.25" y="-128.5" font-family="Helvetica,sans-Serif" font-size="10.00">/github/workspace/dev</text>
<text text-anchor="start" x="602.25" y="-117.25" font-family="Helvetica,sans-Serif" font-size="10.00">_area/build/timinglibs</text>
<text text-anchor="start" x="602.25" y="-106" font-family="Helvetica,sans-Serif" font-size="10.00">/codegen/src/dump_dunedaq</text>
<text text-anchor="middle" x="664.88" y="-94.75" font-family="Helvetica,sans-Serif" font-size="10.00">__timinglibs__dal.cpp</text>
</a>
</g>
</g>
<!-- Node1&#45;&gt;Node7 -->
<g id="edge6_Node000001_Node000007" class="edge">
<title>Node1&#45;&gt;Node7</title>
<g id="a_edge6_Node000001_Node000007"><a xlink:title=" ">
<path fill="none" stroke="#63b8ff" d="M548.59,-172.71C569.08,-162.8 591.56,-151.94 611.25,-142.42"/>
<polygon fill="#63b8ff" stroke="#63b8ff" points="547.24,-169.47 539.76,-176.97 550.28,-175.77 547.24,-169.47"/>
</a>
</g>
</g>
<!-- Node8 -->
<g id="Node000008" class="node">
<title>Node8</title>
<g id="a_Node000008"><a xlink:href="sourcecode_2timinglibs_2src_2TimingEndpointControllerBase_8cpp.html" target="_top" xlink:title=" ">
<polygon fill="white" stroke="#666666" points="937.88,-136.38 753.88,-136.38 753.88,-94.62 937.88,-94.62 937.88,-136.38"/>
<text text-anchor="start" x="761.88" y="-122.88" font-family="Helvetica,sans-Serif" font-size="10.00">/github/workspace/dev</text>
<text text-anchor="start" x="761.88" y="-111.62" font-family="Helvetica,sans-Serif" font-size="10.00">_area/sourcecode/timinglibs</text>
<text text-anchor="middle" x="845.88" y="-100.38" font-family="Helvetica,sans-Serif" font-size="10.00">/src/TimingEndpointControllerBase.cpp</text>
</a>
</g>
</g>
<!-- Node1&#45;&gt;Node8 -->
<g id="edge7_Node000001_Node000008" class="edge">
<title>Node1&#45;&gt;Node8</title>
<g id="a_edge7_Node000001_Node000008"><a xlink:title=" ">
<path fill="none" stroke="#63b8ff" d="M586.83,-179.76C634.82,-168.49 692.83,-154.72 744.88,-142 751.64,-140.35 758.65,-138.61 765.69,-136.86"/>
<polygon fill="#63b8ff" stroke="#63b8ff" points="586.21,-176.31 577.27,-182 587.81,-183.12 586.21,-176.31"/>
</a>
</g>
</g>
<!-- Node3 -->
<g id="Node000003" class="node">
<title>Node3</title>
<g id="a_Node000003"><a xlink:href="HSIControllerConf_8cpp.html" target="_top" xlink:title=" ">
<polygon fill="white" stroke="#666666" points="133.75,-47.38 0,-47.38 0,-5.62 133.75,-5.62 133.75,-47.38"/>
<text text-anchor="start" x="8" y="-33.88" font-family="Helvetica,sans-Serif" font-size="10.00">/github/workspace/dev</text>
<text text-anchor="start" x="8" y="-22.62" font-family="Helvetica,sans-Serif" font-size="10.00">_area/build/hsilibs/codegen</text>
<text text-anchor="middle" x="66.88" y="-11.38" font-family="Helvetica,sans-Serif" font-size="10.00">/src/HSIControllerConf.cpp</text>
</a>
</g>
</g>
<!-- Node2&#45;&gt;Node3 -->
<g id="edge2_Node000002_Node000003" class="edge">
<title>Node2&#45;&gt;Node3</title>
<g id="a_edge2_Node000002_Node000003"><a xlink:title=" ">
<path fill="none" stroke="#63b8ff" d="M113.57,-80.26C103.82,-69.24 93.33,-57.39 84.76,-47.71"/>
<polygon fill="#63b8ff" stroke="#63b8ff" points="110.94,-82.57 120.19,-87.73 116.18,-77.93 110.94,-82.57"/>
</a>
</g>
</g>
<!-- Node4 -->
<g id="Node000004" class="node">
<title>Node4</title>
<g id="a_Node000004"><a xlink:href="dump__dunedaq____hsilibs____dal_8cpp.html" target="_top" xlink:title=" ">
<polygon fill="white" stroke="#666666" points="291.75,-53 152,-53 152,0 291.75,0 291.75,-53"/>
<text text-anchor="start" x="160" y="-39.5" font-family="Helvetica,sans-Serif" font-size="10.00">/github/workspace/dev</text>
<text text-anchor="start" x="160" y="-28.25" font-family="Helvetica,sans-Serif" font-size="10.00">_area/build/hsilibs/codegen</text>
<text text-anchor="start" x="160" y="-17" font-family="Helvetica,sans-Serif" font-size="10.00">/src/dump_dunedaq__hsilibs</text>
<text text-anchor="middle" x="221.88" y="-5.75" font-family="Helvetica,sans-Serif" font-size="10.00">__dal.cpp</text>
</a>
</g>
</g>
<!-- Node2&#45;&gt;Node4 -->
<g id="edge3_Node000002_Node000004" class="edge">
<title>Node2&#45;&gt;Node4</title>
<g id="a_edge3_Node000002_Node000004"><a xlink:title=" ">
<path fill="none" stroke="#63b8ff" d="M174.42,-80.43C182.53,-71.38 191.15,-61.77 198.79,-53.25"/>
<polygon fill="#63b8ff" stroke="#63b8ff" points="171.94,-77.96 167.87,-87.74 177.15,-82.63 171.94,-77.96"/>
</a>
</g>
</g>
</g>
</svg>
