<?xml version="1.0" encoding="UTF-8" standalone="no"?>
<!DOCTYPE svg PUBLIC "-//W3C//DTD SVG 1.1//EN"
 "http://www.w3.org/Graphics/SVG/1.1/DTD/svg11.dtd">
<!-- Generated by graphviz version 9.0.0 (20230911.1827)
 -->
<!-- Title: /github/workspace/dev_area/build/timinglibs/codegen/include/timinglibs/dal/TimingHardwareManagerConf.hpp Pages: 1 -->
<svg width="756pt" height="228pt"
 viewBox="0.00 0.00 756.38 227.75" xmlns="http://www.w3.org/2000/svg" xmlns:xlink="http://www.w3.org/1999/xlink">
<g id="graph0" class="graph" transform="scale(1 1) rotate(0) translate(4 223.75)">
<title>/github/workspace/dev_area/build/timinglibs/codegen/include/timinglibs/dal/TimingHardwareManagerConf.hpp</title>
<!-- Node1 -->
<g id="Node000001" class="node">
<title>Node1</title>
<g id="a_Node000001"><a xlink:title=" ">
<polygon fill="#999999" stroke="#666666" points="474.88,-219.75 293.12,-219.75 293.12,-166.75 474.88,-166.75 474.88,-219.75"/>
<text text-anchor="start" x="301.12" y="-206.25" font-family="Helvetica,sans-Serif" font-size="10.00">/github/workspace/dev</text>
<text text-anchor="start" x="301.12" y="-195" font-family="Helvetica,sans-Serif" font-size="10.00">_area/build/timinglibs</text>
<text text-anchor="start" x="301.12" y="-183.75" font-family="Helvetica,sans-Serif" font-size="10.00">/codegen/include/timinglibs</text>
<text text-anchor="middle" x="384" y="-172.5" font-family="Helvetica,sans-Serif" font-size="10.00">/dal/TimingHardwareManagerConf.hpp</text>
</a>
</g>
</g>
<!-- Node2 -->
<g id="Node000002" class="node">
<title>Node2</title>
<g id="a_Node000002"><a xlink:href="build_2timinglibs_2codegen_2src_2TimingHardwareManagerBase_8cpp.html" target="_top" xlink:title=" ">
<polygon fill="white" stroke="#666666" points="184,-130.75 0,-130.75 0,-77.75 184,-77.75 184,-130.75"/>
<text text-anchor="start" x="8" y="-117.25" font-family="Helvetica,sans-Serif" font-size="10.00">/github/workspace/dev</text>
<text text-anchor="start" x="8" y="-106" font-family="Helvetica,sans-Serif" font-size="10.00">_area/build/timinglibs</text>
<text text-anchor="start" x="8" y="-94.75" font-family="Helvetica,sans-Serif" font-size="10.00">/codegen/src/TimingHardwareManager</text>
<text text-anchor="middle" x="92" y="-83.5" font-family="Helvetica,sans-Serif" font-size="10.00">Base.cpp</text>
</a>
</g>
</g>
<!-- Node1&#45;&gt;Node2 -->
<g id="edge1_Node000001_Node000002" class="edge">
<title>Node1&#45;&gt;Node2</title>
<g id="a_edge1_Node000001_Node000002"><a xlink:title=" ">
<path fill="none" stroke="#63b8ff" d="M286.17,-163.1C251.49,-152.77 212.73,-141.22 179.02,-131.18"/>
<polygon fill="#63b8ff" stroke="#63b8ff" points="284.75,-166.33 295.34,-165.83 286.75,-159.62 284.75,-166.33"/>
</a>
</g>
</g>
<!-- Node3 -->
<g id="Node000003" class="node">
<title>Node3</title>
<g id="a_Node000003"><a xlink:href="TimingHardwareManagerConf_8cpp.html" target="_top" xlink:title=" ">
<polygon fill="white" stroke="#666666" points="386,-130.75 202,-130.75 202,-77.75 386,-77.75 386,-130.75"/>
<text text-anchor="start" x="210" y="-117.25" font-family="Helvetica,sans-Serif" font-size="10.00">/github/workspace/dev</text>
<text text-anchor="start" x="210" y="-106" font-family="Helvetica,sans-Serif" font-size="10.00">_area/build/timinglibs</text>
<text text-anchor="start" x="210" y="-94.75" font-family="Helvetica,sans-Serif" font-size="10.00">/codegen/src/TimingHardwareManager</text>
<text text-anchor="middle" x="294" y="-83.5" font-family="Helvetica,sans-Serif" font-size="10.00">Conf.cpp</text>
</a>
</g>
</g>
<!-- Node1&#45;&gt;Node3 -->
<g id="edge2_Node000001_Node000003" class="edge">
<title>Node1&#45;&gt;Node3</title>
<g id="a_edge2_Node000001_Node000003"><a xlink:title=" ">
<path fill="none" stroke="#63b8ff" d="M349.33,-158.74C339.81,-149.53 329.63,-139.69 320.64,-131"/>
<polygon fill="#63b8ff" stroke="#63b8ff" points="346.77,-161.13 356.4,-165.57 351.64,-156.1 346.77,-161.13"/>
</a>
</g>
</g>
<!-- Node4 -->
<g id="Node000004" class="node">
<title>Node4</title>
<g id="a_Node000004"><a xlink:href="dump__dunedaq____timinglibs____dal_8cpp.html" target="_top" xlink:title=" ">
<polygon fill="white" stroke="#666666" points="545.62,-130.75 404.38,-130.75 404.38,-77.75 545.62,-77.75 545.62,-130.75"/>
<text text-anchor="start" x="412.38" y="-117.25" font-family="Helvetica,sans-Serif" font-size="10.00">/github/workspace/dev</text>
<text text-anchor="start" x="412.38" y="-106" font-family="Helvetica,sans-Serif" font-size="10.00">_area/build/timinglibs</text>
<text text-anchor="start" x="412.38" y="-94.75" font-family="Helvetica,sans-Serif" font-size="10.00">/codegen/src/dump_dunedaq</text>
<text text-anchor="middle" x="475" y="-83.5" font-family="Helvetica,sans-Serif" font-size="10.00">__timinglibs__dal.cpp</text>
</a>
</g>
</g>
<!-- Node1&#45;&gt;Node4 -->
<g id="edge3_Node000001_Node000004" class="edge">
<title>Node1&#45;&gt;Node4</title>
<g id="a_edge3_Node000001_Node000004"><a xlink:title=" ">
<path fill="none" stroke="#63b8ff" d="M419.06,-158.74C428.68,-149.53 438.97,-139.69 448.07,-131"/>
<polygon fill="#63b8ff" stroke="#63b8ff" points="416.71,-156.13 411.9,-165.57 421.55,-161.19 416.71,-156.13"/>
</a>
</g>
</g>
<!-- Node5 -->
<g id="Node000005" class="node">
<title>Node5</title>
<g id="a_Node000005"><a xlink:href="sourcecode_2timinglibs_2src_2TimingHardwareManagerBase_8hpp.html" target="_top" xlink:title=" ">
<polygon fill="white" stroke="#666666" points="748.38,-125.12 563.62,-125.12 563.62,-83.38 748.38,-83.38 748.38,-125.12"/>
<text text-anchor="start" x="571.62" y="-111.62" font-family="Helvetica,sans-Serif" font-size="10.00">/github/workspace/dev</text>
<text text-anchor="start" x="571.62" y="-100.38" font-family="Helvetica,sans-Serif" font-size="10.00">_area/sourcecode/timinglibs</text>
<text text-anchor="middle" x="656" y="-89.12" font-family="Helvetica,sans-Serif" font-size="10.00">/src/TimingHardwareManagerBase.hpp</text>
</a>
</g>
</g>
<!-- Node1&#45;&gt;Node5 -->
<g id="edge4_Node000001_Node000005" class="edge">
<title>Node1&#45;&gt;Node5</title>
<g id="a_edge4_Node000001_Node000005"><a xlink:title=" ">
<path fill="none" stroke="#63b8ff" d="M475.9,-162.86C514.21,-150.6 557.76,-136.67 592.43,-125.58"/>
<polygon fill="#63b8ff" stroke="#63b8ff" points="475.14,-159.42 466.68,-165.8 477.27,-166.09 475.14,-159.42"/>
</a>
</g>
</g>
<!-- Node6 -->
<g id="Node000006" class="node">
<title>Node6</title>
<g id="a_Node000006"><a xlink:href="sourcecode_2timinglibs_2src_2TimingHardwareManagerBase_8cpp.html" target="_top" xlink:title=" ">
<polygon fill="white" stroke="#666666" points="748.38,-41.75 563.62,-41.75 563.62,0 748.38,0 748.38,-41.75"/>
<text text-anchor="start" x="571.62" y="-28.25" font-family="Helvetica,sans-Serif" font-size="10.00">/github/workspace/dev</text>
<text text-anchor="start" x="571.62" y="-17" font-family="Helvetica,sans-Serif" font-size="10.00">_area/sourcecode/timinglibs</text>
<text text-anchor="middle" x="656" y="-5.75" font-family="Helvetica,sans-Serif" font-size="10.00">/src/TimingHardwareManagerBase.cpp</text>
</a>
</g>
</g>
<!-- Node5&#45;&gt;Node6 -->
<g id="edge5_Node000005_Node000006" class="edge">
<title>Node5&#45;&gt;Node6</title>
<g id="a_edge5_Node000005_Node000006"><a xlink:title=" ">
<path fill="none" stroke="#63b8ff" d="M656,-71.89C656,-61.87 656,-51.05 656,-42.04"/>
<polygon fill="#63b8ff" stroke="#63b8ff" points="652.5,-71.62 656,-81.62 659.5,-71.62 652.5,-71.62"/>
</a>
</g>
</g>
</g>
</svg>
