<?xml version="1.0" encoding="UTF-8" standalone="no"?>
<!DOCTYPE svg PUBLIC "-//W3C//DTD SVG 1.1//EN"
 "http://www.w3.org/Graphics/SVG/1.1/DTD/svg11.dtd">
<!-- Generated by graphviz version 9.0.0 (20230911.1827)
 -->
<!-- Title: /github/workspace/dev_area/build/appmodel/codegen/include/appmodel/TCAlgorithm.hpp Pages: 1 -->
<svg width="4607pt" height="239pt"
 viewBox="0.00 0.00 4607.12 239.00" xmlns="http://www.w3.org/2000/svg" xmlns:xlink="http://www.w3.org/1999/xlink">
<g id="graph0" class="graph" transform="scale(1 1) rotate(0) translate(4 235)">
<title>/github/workspace/dev_area/build/appmodel/codegen/include/appmodel/TCAlgorithm.hpp</title>
<!-- Node1 -->
<g id="Node000001" class="node">
<title>Node1</title>
<g id="a_Node000001"><a xlink:title=" ">
<polygon fill="#999999" stroke="#666666" points="2340.75,-231 2206.25,-231 2206.25,-178 2340.75,-178 2340.75,-231"/>
<text text-anchor="start" x="2214.25" y="-217.5" font-family="Helvetica,sans-Serif" font-size="10.00">/github/workspace/dev</text>
<text text-anchor="start" x="2214.25" y="-206.25" font-family="Helvetica,sans-Serif" font-size="10.00">_area/build/appmodel</text>
<text text-anchor="start" x="2214.25" y="-195" font-family="Helvetica,sans-Serif" font-size="10.00">/codegen/include/appmodel</text>
<text text-anchor="middle" x="2273.5" y="-183.75" font-family="Helvetica,sans-Serif" font-size="10.00">/TCAlgorithm.hpp</text>
</a>
</g>
</g>
<!-- Node2 -->
<g id="Node000002" class="node">
<title>Node2</title>
<g id="a_Node000002"><a xlink:href="include_2appmodel_2TCCustomAlgorithm_8hpp.html" target="_top" xlink:title=" ">
<polygon fill="white" stroke="#666666" points="254.75,-142 120.25,-142 120.25,-89 254.75,-89 254.75,-142"/>
<text text-anchor="start" x="128.25" y="-128.5" font-family="Helvetica,sans-Serif" font-size="10.00">/github/workspace/dev</text>
<text text-anchor="start" x="128.25" y="-117.25" font-family="Helvetica,sans-Serif" font-size="10.00">_area/build/appmodel</text>
<text text-anchor="start" x="128.25" y="-106" font-family="Helvetica,sans-Serif" font-size="10.00">/codegen/include/appmodel</text>
<text text-anchor="middle" x="187.5" y="-94.75" font-family="Helvetica,sans-Serif" font-size="10.00">/TCCustomAlgorithm.hpp</text>
</a>
</g>
</g>
<!-- Node1&#45;&gt;Node2 -->
<g id="edge1_Node000001_Node000002" class="edge">
<title>Node1&#45;&gt;Node2</title>
<g id="a_edge1_Node000001_Node000002"><a xlink:title=" ">
<path fill="none" stroke="#63b8ff" d="M2194.56,-202.43C1846.36,-197.53 456.62,-176.01 264.5,-142 261.45,-141.46 258.35,-140.82 255.25,-140.11"/>
<polygon fill="#63b8ff" stroke="#63b8ff" points="2194.45,-205.93 2204.5,-202.57 2194.55,-198.93 2194.45,-205.93"/>
</a>
</g>
</g>
<!-- Node4 -->
<g id="Node000004" class="node">
<title>Node4</title>
<g id="a_Node000004"><a xlink:href="dump__dunedaq____appmodel_8cpp.html" target="_top" xlink:title=" ">
<polygon fill="white" stroke="#666666" points="1174.12,-53 1032.88,-53 1032.88,0 1174.12,0 1174.12,-53"/>
<text text-anchor="start" x="1040.88" y="-39.5" font-family="Helvetica,sans-Serif" font-size="10.00">/github/workspace/dev</text>
<text text-anchor="start" x="1040.88" y="-28.25" font-family="Helvetica,sans-Serif" font-size="10.00">_area/build/appmodel</text>
<text text-anchor="start" x="1040.88" y="-17" font-family="Helvetica,sans-Serif" font-size="10.00">/codegen/src/dump_dunedaq</text>
<text text-anchor="middle" x="1103.5" y="-5.75" font-family="Helvetica,sans-Serif" font-size="10.00">__appmodel.cpp</text>
</a>
</g>
</g>
<!-- Node1&#45;&gt;Node4 -->
<g id="edge43_Node000001_Node000004" class="edge">
<title>Node1&#45;&gt;Node4</title>
<g id="a_edge43_Node000001_Node000004"><a xlink:title=" ">
<path fill="none" stroke="#63b8ff" d="M2194.68,-201.97C1941.41,-196.72 1162.43,-177.73 1122.5,-142 1098.02,-120.1 1097.01,-79.67 1099.51,-53.18"/>
<polygon fill="#63b8ff" stroke="#63b8ff" points="2194.4,-205.47 2204.47,-202.18 2194.54,-198.47 2194.4,-205.47"/>
</a>
</g>
</g>
<!-- Node5 -->
<g id="Node000005" class="node">
<title>Node5</title>
<g id="a_Node000005"><a xlink:href="build_2appmodel_2codegen_2include_2appmodel_2TCMakerADCSimpleWindowAlgorithm_8hpp.html" target="_top" xlink:title=" ">
<polygon fill="white" stroke="#666666" points="475.88,-142 273.12,-142 273.12,-89 475.88,-89 475.88,-142"/>
<text text-anchor="start" x="281.12" y="-128.5" font-family="Helvetica,sans-Serif" font-size="10.00">/github/workspace/dev</text>
<text text-anchor="start" x="281.12" y="-117.25" font-family="Helvetica,sans-Serif" font-size="10.00">_area/build/appmodel</text>
<text text-anchor="start" x="281.12" y="-106" font-family="Helvetica,sans-Serif" font-size="10.00">/codegen/include/appmodel</text>
<text text-anchor="middle" x="374.5" y="-94.75" font-family="Helvetica,sans-Serif" font-size="10.00">/TCMakerADCSimpleWindowAlgorithm.hpp</text>
</a>
</g>
</g>
<!-- Node1&#45;&gt;Node5 -->
<g id="edge4_Node000001_Node000005" class="edge">
<title>Node1&#45;&gt;Node5</title>
<g id="a_edge4_Node000001_Node000005"><a xlink:title=" ">
<path fill="none" stroke="#63b8ff" d="M2194.59,-202.82C1894.24,-199.9 822.35,-186.54 484.5,-142 481.78,-141.64 479.03,-141.25 476.25,-140.82"/>
<polygon fill="#63b8ff" stroke="#63b8ff" points="2194.24,-206.31 2204.28,-202.91 2194.31,-199.31 2194.24,-206.31"/>
</a>
</g>
</g>
<!-- Node7 -->
<g id="Node000007" class="node">
<title>Node7</title>
<g id="a_Node000007"><a xlink:href="build_2appmodel_2codegen_2include_2appmodel_2TCMakerBundleNAlgorithm_8hpp.html" target="_top" xlink:title=" ">
<polygon fill="white" stroke="#666666" points="649.25,-142 493.75,-142 493.75,-89 649.25,-89 649.25,-142"/>
<text text-anchor="start" x="501.75" y="-128.5" font-family="Helvetica,sans-Serif" font-size="10.00">/github/workspace/dev</text>
<text text-anchor="start" x="501.75" y="-117.25" font-family="Helvetica,sans-Serif" font-size="10.00">_area/build/appmodel</text>
<text text-anchor="start" x="501.75" y="-106" font-family="Helvetica,sans-Serif" font-size="10.00">/codegen/include/appmodel</text>
<text text-anchor="middle" x="571.5" y="-94.75" font-family="Helvetica,sans-Serif" font-size="10.00">/TCMakerBundleNAlgorithm.hpp</text>
</a>
</g>
</g>
<!-- Node1&#45;&gt;Node7 -->
<g id="edge7_Node000001_Node000007" class="edge">
<title>Node1&#45;&gt;Node7</title>
<g id="a_edge7_Node000001_Node000007"><a xlink:title=" ">
<path fill="none" stroke="#63b8ff" d="M2194.81,-203.07C1913.64,-201.15 959.47,-191.06 658.5,-142 655.55,-141.52 652.56,-140.97 649.54,-140.36"/>
<polygon fill="#63b8ff" stroke="#63b8ff" points="2194.57,-206.57 2204.59,-203.14 2194.62,-199.57 2194.57,-206.57"/>
</a>
</g>
</g>
<!-- Node9 -->
<g id="Node000009" class="node">
<title>Node9</title>
<g id="a_Node000009"><a xlink:href="build_2appmodel_2codegen_2include_2appmodel_2TCMakerChannelAdjacencyAlgorithm_8hpp.html" target="_top" xlink:title=" ">
<polygon fill="white" stroke="#666666" points="865.62,-142 667.38,-142 667.38,-89 865.62,-89 865.62,-142"/>
<text text-anchor="start" x="675.38" y="-128.5" font-family="Helvetica,sans-Serif" font-size="10.00">/github/workspace/dev</text>
<text text-anchor="start" x="675.38" y="-117.25" font-family="Helvetica,sans-Serif" font-size="10.00">_area/build/appmodel</text>
<text text-anchor="start" x="675.38" y="-106" font-family="Helvetica,sans-Serif" font-size="10.00">/codegen/include/appmodel</text>
<text text-anchor="middle" x="766.5" y="-94.75" font-family="Helvetica,sans-Serif" font-size="10.00">/TCMakerChannelAdjacencyAlgorithm.hpp</text>
</a>
</g>
</g>
<!-- Node1&#45;&gt;Node9 -->
<g id="edge10_Node000001_Node000009" class="edge">
<title>Node1&#45;&gt;Node9</title>
<g id="a_edge10_Node000001_Node000009"><a xlink:title=" ">
<path fill="none" stroke="#63b8ff" d="M2194.44,-201.98C1938.22,-196.75 1132.42,-177.79 874.5,-142 871.73,-141.62 868.93,-141.19 866.11,-140.74"/>
<polygon fill="#63b8ff" stroke="#63b8ff" points="2194.28,-205.48 2204.35,-202.18 2194.42,-198.48 2194.28,-205.48"/>
</a>
</g>
</g>
<!-- Node11 -->
<g id="Node000011" class="node">
<title>Node11</title>
<g id="a_Node000011"><a xlink:href="build_2appmodel_2codegen_2include_2appmodel_2TCMakerChannelDistanceAlgorithm_8hpp.html" target="_top" xlink:title=" ">
<polygon fill="white" stroke="#666666" points="1075.25,-142 883.75,-142 883.75,-89 1075.25,-89 1075.25,-142"/>
<text text-anchor="start" x="891.75" y="-128.5" font-family="Helvetica,sans-Serif" font-size="10.00">/github/workspace/dev</text>
<text text-anchor="start" x="891.75" y="-117.25" font-family="Helvetica,sans-Serif" font-size="10.00">_area/build/appmodel</text>
<text text-anchor="start" x="891.75" y="-106" font-family="Helvetica,sans-Serif" font-size="10.00">/codegen/include/appmodel</text>
<text text-anchor="middle" x="979.5" y="-94.75" font-family="Helvetica,sans-Serif" font-size="10.00">/TCMakerChannelDistanceAlgorithm.hpp</text>
</a>
</g>
</g>
<!-- Node1&#45;&gt;Node11 -->
<g id="edge13_Node000001_Node000011" class="edge">
<title>Node1&#45;&gt;Node11</title>
<g id="a_edge13_Node000001_Node000011"><a xlink:title=" ">
<path fill="none" stroke="#63b8ff" d="M2194.72,-204.18C2004,-204.78 1502.72,-200.17 1089.5,-142 1084.94,-141.36 1080.29,-140.62 1075.6,-139.81"/>
<polygon fill="#63b8ff" stroke="#63b8ff" points="2194.52,-207.68 2204.5,-204.14 2194.49,-200.68 2194.52,-207.68"/>
</a>
</g>
</g>
<!-- Node13 -->
<g id="Node000013" class="node">
<title>Node13</title>
<g id="a_Node000013"><a xlink:href="build_2appmodel_2codegen_2include_2appmodel_2TCMakerDBSCANAlgorithm_8hpp.html" target="_top" xlink:title=" ">
<polygon fill="white" stroke="#666666" points="1291.12,-142 1131.88,-142 1131.88,-89 1291.12,-89 1291.12,-142"/>
<text text-anchor="start" x="1139.88" y="-128.5" font-family="Helvetica,sans-Serif" font-size="10.00">/github/workspace/dev</text>
<text text-anchor="start" x="1139.88" y="-117.25" font-family="Helvetica,sans-Serif" font-size="10.00">_area/build/appmodel</text>
<text text-anchor="start" x="1139.88" y="-106" font-family="Helvetica,sans-Serif" font-size="10.00">/codegen/include/appmodel</text>
<text text-anchor="middle" x="1211.5" y="-94.75" font-family="Helvetica,sans-Serif" font-size="10.00">/TCMakerDBSCANAlgorithm.hpp</text>
</a>
</g>
</g>
<!-- Node1&#45;&gt;Node13 -->
<g id="edge16_Node000001_Node000013" class="edge">
<title>Node1&#45;&gt;Node13</title>
<g id="a_edge16_Node000001_Node000013"><a xlink:title=" ">
<path fill="none" stroke="#63b8ff" d="M2194.78,-204.34C2028.24,-204.84 1628.49,-199.34 1299.5,-142 1296.84,-141.54 1294.14,-141.02 1291.42,-140.46"/>
<polygon fill="#63b8ff" stroke="#63b8ff" points="2194.39,-207.84 2204.38,-204.3 2194.36,-200.84 2194.39,-207.84"/>
</a>
</g>
</g>
<!-- Node15 -->
<g id="Node000015" class="node">
<title>Node15</title>
<g id="a_Node000015"><a xlink:href="build_2appmodel_2codegen_2include_2appmodel_2TCMakerHorizontalMuonAlgorithm_8hpp.html" target="_top" xlink:title=" ">
<polygon fill="white" stroke="#666666" points="1494.25,-142 1308.75,-142 1308.75,-89 1494.25,-89 1494.25,-142"/>
<text text-anchor="start" x="1316.75" y="-128.5" font-family="Helvetica,sans-Serif" font-size="10.00">/github/workspace/dev</text>
<text text-anchor="start" x="1316.75" y="-117.25" font-family="Helvetica,sans-Serif" font-size="10.00">_area/build/appmodel</text>
<text text-anchor="start" x="1316.75" y="-106" font-family="Helvetica,sans-Serif" font-size="10.00">/codegen/include/appmodel</text>
<text text-anchor="middle" x="1401.5" y="-94.75" font-family="Helvetica,sans-Serif" font-size="10.00">/TCMakerHorizontalMuonAlgorithm.hpp</text>
</a>
</g>
</g>
<!-- Node1&#45;&gt;Node15 -->
<g id="edge19_Node000001_Node000015" class="edge">
<title>Node1&#45;&gt;Node15</title>
<g id="a_edge19_Node000001_Node000015"><a xlink:title=" ">
<path fill="none" stroke="#63b8ff" d="M2194.41,-201.49C2054.31,-196.97 1753.71,-182.98 1503.5,-142 1500.53,-141.51 1497.52,-140.98 1494.48,-140.42"/>
<polygon fill="#63b8ff" stroke="#63b8ff" points="2194.23,-204.99 2204.33,-201.8 2194.44,-197.99 2194.23,-204.99"/>
</a>
</g>
</g>
<!-- Node17 -->
<g id="Node000017" class="node">
<title>Node17</title>
<g id="a_Node000017"><a xlink:href="build_2appmodel_2codegen_2include_2appmodel_2TCMakerMichelElectronAlgorithm_8hpp.html" target="_top" xlink:title=" ">
<polygon fill="white" stroke="#666666" points="1694.38,-142 1512.62,-142 1512.62,-89 1694.38,-89 1694.38,-142"/>
<text text-anchor="start" x="1520.62" y="-128.5" font-family="Helvetica,sans-Serif" font-size="10.00">/github/workspace/dev</text>
<text text-anchor="start" x="1520.62" y="-117.25" font-family="Helvetica,sans-Serif" font-size="10.00">_area/build/appmodel</text>
<text text-anchor="start" x="1520.62" y="-106" font-family="Helvetica,sans-Serif" font-size="10.00">/codegen/include/appmodel</text>
<text text-anchor="middle" x="1603.5" y="-94.75" font-family="Helvetica,sans-Serif" font-size="10.00">/TCMakerMichelElectronAlgorithm.hpp</text>
</a>
</g>
</g>
<!-- Node1&#45;&gt;Node17 -->
<g id="edge22_Node000001_Node000017" class="edge">
<title>Node1&#45;&gt;Node17</title>
<g id="a_edge22_Node000001_Node000017"><a xlink:title=" ">
<path fill="none" stroke="#63b8ff" d="M2194.57,-198.55C2084.08,-190.81 1877.33,-173.38 1703.5,-142 1700.59,-141.47 1697.64,-140.91 1694.67,-140.32"/>
<polygon fill="#63b8ff" stroke="#63b8ff" points="2194.2,-202.03 2204.42,-199.23 2194.69,-195.05 2194.2,-202.03"/>
</a>
</g>
</g>
<!-- Node19 -->
<g id="Node000019" class="node">
<title>Node19</title>
<g id="a_Node000019"><a xlink:href="build_2appmodel_2codegen_2include_2appmodel_2TCMakerPlaneCoincidenceAlgorithm_8hpp.html" target="_top" xlink:title=" ">
<polygon fill="white" stroke="#666666" points="1908.5,-142 1712.5,-142 1712.5,-89 1908.5,-89 1908.5,-142"/>
<text text-anchor="start" x="1720.5" y="-128.5" font-family="Helvetica,sans-Serif" font-size="10.00">/github/workspace/dev</text>
<text text-anchor="start" x="1720.5" y="-117.25" font-family="Helvetica,sans-Serif" font-size="10.00">_area/build/appmodel</text>
<text text-anchor="start" x="1720.5" y="-106" font-family="Helvetica,sans-Serif" font-size="10.00">/codegen/include/appmodel</text>
<text text-anchor="middle" x="1810.5" y="-94.75" font-family="Helvetica,sans-Serif" font-size="10.00">/TCMakerPlaneCoincidenceAlgorithm.hpp</text>
</a>
</g>
</g>
<!-- Node1&#45;&gt;Node19 -->
<g id="edge25_Node000001_Node000019" class="edge">
<title>Node1&#45;&gt;Node19</title>
<g id="a_edge25_Node000001_Node000019"><a xlink:title=" ">
<path fill="none" stroke="#63b8ff" d="M2194.73,-191.35C2122.42,-179.85 2012.41,-161.49 1917.5,-142 1914.69,-141.42 1911.85,-140.83 1908.98,-140.22"/>
<polygon fill="#63b8ff" stroke="#63b8ff" points="2194.09,-194.79 2204.51,-192.9 2195.18,-187.88 2194.09,-194.79"/>
</a>
</g>
</g>
<!-- Node21 -->
<g id="Node000021" class="node">
<title>Node21</title>
<g id="a_Node000021"><a xlink:href="build_2appmodel_2codegen_2include_2appmodel_2TCMakerPrescaleAlgorithm_8hpp.html" target="_top" xlink:title=" ">
<polygon fill="white" stroke="#666666" points="2082.62,-142 1926.38,-142 1926.38,-89 2082.62,-89 2082.62,-142"/>
<text text-anchor="start" x="1934.38" y="-128.5" font-family="Helvetica,sans-Serif" font-size="10.00">/github/workspace/dev</text>
<text text-anchor="start" x="1934.38" y="-117.25" font-family="Helvetica,sans-Serif" font-size="10.00">_area/build/appmodel</text>
<text text-anchor="start" x="1934.38" y="-106" font-family="Helvetica,sans-Serif" font-size="10.00">/codegen/include/appmodel</text>
<text text-anchor="middle" x="2004.5" y="-94.75" font-family="Helvetica,sans-Serif" font-size="10.00">/TCMakerPrescaleAlgorithm.hpp</text>
</a>
</g>
</g>
<!-- Node1&#45;&gt;Node21 -->
<g id="edge28_Node000001_Node000021" class="edge">
<title>Node1&#45;&gt;Node21</title>
<g id="a_edge28_Node000001_Node000021"><a xlink:title=" ">
<path fill="none" stroke="#63b8ff" d="M2195.23,-178.19C2159.94,-166.77 2118.36,-153.32 2083.04,-141.9"/>
<polygon fill="#63b8ff" stroke="#63b8ff" points="2193.94,-181.45 2204.53,-181.19 2196.09,-174.79 2193.94,-181.45"/>
</a>
</g>
</g>
<!-- Node23 -->
<g id="Node000023" class="node">
<title>Node23</title>
<g id="a_Node000023"><a xlink:href="TADataProcessor_8cpp.html" target="_top" xlink:title=" ">
<polygon fill="white" stroke="#666666" points="2270.75,-136.38 2100.25,-136.38 2100.25,-94.62 2270.75,-94.62 2270.75,-136.38"/>
<text text-anchor="start" x="2108.25" y="-122.88" font-family="Helvetica,sans-Serif" font-size="10.00">/github/workspace/dev</text>
<text text-anchor="start" x="2108.25" y="-111.62" font-family="Helvetica,sans-Serif" font-size="10.00">_area/build/appmodel</text>
<text text-anchor="middle" x="2185.5" y="-100.38" font-family="Helvetica,sans-Serif" font-size="10.00">/codegen/src/TADataProcessor.cpp</text>
</a>
</g>
</g>
<!-- Node1&#45;&gt;Node23 -->
<g id="edge31_Node000001_Node000023" class="edge">
<title>Node1&#45;&gt;Node23</title>
<g id="a_edge31_Node000001_Node000023"><a xlink:title=" ">
<path fill="none" stroke="#63b8ff" d="M2239.53,-169.92C2228.2,-158.71 2215.92,-146.58 2205.94,-136.71"/>
<polygon fill="#63b8ff" stroke="#63b8ff" points="2236.92,-172.26 2246.5,-176.8 2241.85,-167.28 2236.92,-172.26"/>
</a>
</g>
</g>
<!-- Node24 -->
<g id="Node000024" class="node">
<title>Node24</title>
<g id="a_Node000024"><a xlink:href="TCAlgorithm_8cpp.html" target="_top" xlink:title=" ">
<polygon fill="white" stroke="#666666" points="2436.12,-136.38 2288.88,-136.38 2288.88,-94.62 2436.12,-94.62 2436.12,-136.38"/>
<text text-anchor="start" x="2296.88" y="-122.88" font-family="Helvetica,sans-Serif" font-size="10.00">/github/workspace/dev</text>
<text text-anchor="start" x="2296.88" y="-111.62" font-family="Helvetica,sans-Serif" font-size="10.00">_area/build/appmodel</text>
<text text-anchor="middle" x="2362.5" y="-100.38" font-family="Helvetica,sans-Serif" font-size="10.00">/codegen/src/TCAlgorithm.cpp</text>
</a>
</g>
</g>
<!-- Node1&#45;&gt;Node24 -->
<g id="edge32_Node000001_Node000024" class="edge">
<title>Node1&#45;&gt;Node24</title>
<g id="a_edge32_Node000001_Node000024"><a xlink:title=" ">
<path fill="none" stroke="#63b8ff" d="M2307.85,-169.92C2319.32,-158.71 2331.73,-146.58 2341.82,-136.71"/>
<polygon fill="#63b8ff" stroke="#63b8ff" points="2305.51,-167.32 2300.8,-176.81 2310.4,-172.32 2305.51,-167.32"/>
</a>
</g>
</g>
<!-- Node25 -->
<g id="Node000025" class="node">
<title>Node25</title>
<g id="a_Node000025"><a xlink:href="src_2TCCustomAlgorithm_8hpp.html" target="_top" xlink:title=" ">
<polygon fill="white" stroke="#666666" points="2635,-136.38 2454,-136.38 2454,-94.62 2635,-94.62 2635,-136.38"/>
<text text-anchor="start" x="2462" y="-122.88" font-family="Helvetica,sans-Serif" font-size="10.00">/github/workspace/dev</text>
<text text-anchor="start" x="2462" y="-111.62" font-family="Helvetica,sans-Serif" font-size="10.00">_area/build/appmodel</text>
<text text-anchor="middle" x="2544.5" y="-100.38" font-family="Helvetica,sans-Serif" font-size="10.00">/codegen/src/TCCustomAlgorithm.hpp</text>
</a>
</g>
</g>
<!-- Node1&#45;&gt;Node25 -->
<g id="edge33_Node000001_Node000025" class="edge">
<title>Node1&#45;&gt;Node25</title>
<g id="a_edge33_Node000001_Node000025"><a xlink:title=" ">
<path fill="none" stroke="#63b8ff" d="M2351.99,-178.3C2393.11,-165.1 2442.8,-149.15 2481.39,-136.76"/>
<polygon fill="#63b8ff" stroke="#63b8ff" points="2351.08,-174.92 2342.63,-181.31 2353.22,-181.58 2351.08,-174.92"/>
</a>
</g>
</g>
<!-- Node26 -->
<g id="Node000026" class="node">
<title>Node26</title>
<g id="a_Node000026"><a xlink:href="build_2appmodel_2codegen_2src_2TCMakerADCSimpleWindowAlgorithm_8hpp.html" target="_top" xlink:title=" ">
<polygon fill="white" stroke="#666666" points="2818.12,-142 2652.88,-142 2652.88,-89 2818.12,-89 2818.12,-142"/>
<text text-anchor="start" x="2660.88" y="-128.5" font-family="Helvetica,sans-Serif" font-size="10.00">/github/workspace/dev</text>
<text text-anchor="start" x="2660.88" y="-117.25" font-family="Helvetica,sans-Serif" font-size="10.00">_area/build/appmodel</text>
<text text-anchor="start" x="2660.88" y="-106" font-family="Helvetica,sans-Serif" font-size="10.00">/codegen/src/TCMakerADCSimple</text>
<text text-anchor="middle" x="2735.5" y="-94.75" font-family="Helvetica,sans-Serif" font-size="10.00">WindowAlgorithm.hpp</text>
</a>
</g>
</g>
<!-- Node1&#45;&gt;Node26 -->
<g id="edge34_Node000001_Node000026" class="edge">
<title>Node1&#45;&gt;Node26</title>
<g id="a_edge34_Node000001_Node000026"><a xlink:title=" ">
<path fill="none" stroke="#63b8ff" d="M2352.23,-192.99C2427.66,-182.32 2544.48,-164.24 2644.5,-142 2647.22,-141.39 2649.99,-140.76 2652.77,-140.09"/>
<polygon fill="#63b8ff" stroke="#63b8ff" points="2351.86,-189.51 2342.44,-194.36 2352.83,-196.44 2351.86,-189.51"/>
</a>
</g>
</g>
<!-- Node27 -->
<g id="Node000027" class="node">
<title>Node27</title>
<g id="a_Node000027"><a xlink:href="build_2appmodel_2codegen_2src_2TCMakerBundleNAlgorithm_8hpp.html" target="_top" xlink:title=" ">
<polygon fill="white" stroke="#666666" points="3048.38,-136.38 2836.62,-136.38 2836.62,-94.62 3048.38,-94.62 3048.38,-136.38"/>
<text text-anchor="start" x="2844.62" y="-122.88" font-family="Helvetica,sans-Serif" font-size="10.00">/github/workspace/dev</text>
<text text-anchor="start" x="2844.62" y="-111.62" font-family="Helvetica,sans-Serif" font-size="10.00">_area/build/appmodel</text>
<text text-anchor="middle" x="2942.5" y="-100.38" font-family="Helvetica,sans-Serif" font-size="10.00">/codegen/src/TCMakerBundleNAlgorithm.hpp</text>
</a>
</g>
</g>
<!-- Node1&#45;&gt;Node27 -->
<g id="edge35_Node000001_Node000027" class="edge">
<title>Node1&#45;&gt;Node27</title>
<g id="a_edge35_Node000001_Node000027"><a xlink:title=" ">
<path fill="none" stroke="#63b8ff" d="M2352.61,-197.41C2460.45,-188.51 2659.4,-169.88 2827.5,-142 2836.58,-140.49 2846.02,-138.73 2855.41,-136.84"/>
<polygon fill="#63b8ff" stroke="#63b8ff" points="2352.38,-193.92 2342.7,-198.23 2352.95,-200.9 2352.38,-193.92"/>
</a>
</g>
</g>
<!-- Node28 -->
<g id="Node000028" class="node">
<title>Node28</title>
<g id="a_Node000028"><a xlink:href="build_2appmodel_2codegen_2src_2TCMakerChannelAdjacencyAlgorithm_8hpp.html" target="_top" xlink:title=" ">
<polygon fill="white" stroke="#666666" points="3262.12,-142 3066.88,-142 3066.88,-89 3262.12,-89 3262.12,-142"/>
<text text-anchor="start" x="3074.88" y="-128.5" font-family="Helvetica,sans-Serif" font-size="10.00">/github/workspace/dev</text>
<text text-anchor="start" x="3074.88" y="-117.25" font-family="Helvetica,sans-Serif" font-size="10.00">_area/build/appmodel</text>
<text text-anchor="start" x="3074.88" y="-106" font-family="Helvetica,sans-Serif" font-size="10.00">/codegen/src/TCMakerChannelAdjacency</text>
<text text-anchor="middle" x="3164.5" y="-94.75" font-family="Helvetica,sans-Serif" font-size="10.00">Algorithm.hpp</text>
</a>
</g>
</g>
<!-- Node1&#45;&gt;Node28 -->
<g id="edge36_Node000001_Node000028" class="edge">
<title>Node1&#45;&gt;Node28</title>
<g id="a_edge36_Node000001_Node000028"><a xlink:title=" ">
<path fill="none" stroke="#63b8ff" d="M2352.18,-201.38C2493.97,-196.65 2801.44,-182.3 3057.5,-142 3060.52,-141.52 3063.58,-141.01 3066.66,-140.46"/>
<polygon fill="#63b8ff" stroke="#63b8ff" points="2352.42,-197.87 2342.54,-201.69 2352.65,-204.86 2352.42,-197.87"/>
</a>
</g>
</g>
<!-- Node29 -->
<g id="Node000029" class="node">
<title>Node29</title>
<g id="a_Node000029"><a xlink:href="build_2appmodel_2codegen_2src_2TCMakerChannelDistanceAlgorithm_8hpp.html" target="_top" xlink:title=" ">
<polygon fill="white" stroke="#666666" points="3468.75,-142 3280.25,-142 3280.25,-89 3468.75,-89 3468.75,-142"/>
<text text-anchor="start" x="3288.25" y="-128.5" font-family="Helvetica,sans-Serif" font-size="10.00">/github/workspace/dev</text>
<text text-anchor="start" x="3288.25" y="-117.25" font-family="Helvetica,sans-Serif" font-size="10.00">_area/build/appmodel</text>
<text text-anchor="start" x="3288.25" y="-106" font-family="Helvetica,sans-Serif" font-size="10.00">/codegen/src/TCMakerChannelDistance</text>
<text text-anchor="middle" x="3374.5" y="-94.75" font-family="Helvetica,sans-Serif" font-size="10.00">Algorithm.hpp</text>
</a>
</g>
</g>
<!-- Node1&#45;&gt;Node29 -->
<g id="edge37_Node000001_Node000029" class="edge">
<title>Node1&#45;&gt;Node29</title>
<g id="a_edge37_Node000001_Node000029"><a xlink:title=" ">
<path fill="none" stroke="#63b8ff" d="M2352.4,-203.48C2521.76,-202.37 2932.26,-194.01 3271.5,-142 3274.23,-141.58 3277,-141.12 3279.78,-140.63"/>
<polygon fill="#63b8ff" stroke="#63b8ff" points="2352.61,-199.97 2342.63,-203.53 2352.65,-206.97 2352.61,-199.97"/>
</a>
</g>
</g>
<!-- Node30 -->
<g id="Node000030" class="node">
<title>Node30</title>
<g id="a_Node000030"><a xlink:href="build_2appmodel_2codegen_2src_2TCMakerDBSCANAlgorithm_8hpp.html" target="_top" xlink:title=" ">
<polygon fill="white" stroke="#666666" points="3702.25,-136.38 3486.75,-136.38 3486.75,-94.62 3702.25,-94.62 3702.25,-136.38"/>
<text text-anchor="start" x="3494.75" y="-122.88" font-family="Helvetica,sans-Serif" font-size="10.00">/github/workspace/dev</text>
<text text-anchor="start" x="3494.75" y="-111.62" font-family="Helvetica,sans-Serif" font-size="10.00">_area/build/appmodel</text>
<text text-anchor="middle" x="3594.5" y="-100.38" font-family="Helvetica,sans-Serif" font-size="10.00">/codegen/src/TCMakerDBSCANAlgorithm.hpp</text>
</a>
</g>
</g>
<!-- Node1&#45;&gt;Node30 -->
<g id="edge38_Node000001_Node000030" class="edge">
<title>Node1&#45;&gt;Node30</title>
<g id="a_edge38_Node000001_Node000030"><a xlink:title=" ">
<path fill="none" stroke="#63b8ff" d="M2352.51,-203.92C2545.54,-203.97 3056.15,-198.29 3477.5,-142 3487.7,-140.64 3498.33,-138.85 3508.84,-136.85"/>
<polygon fill="#63b8ff" stroke="#63b8ff" points="2352.6,-200.42 2342.59,-203.91 2352.59,-207.42 2352.6,-200.42"/>
</a>
</g>
</g>
<!-- Node31 -->
<g id="Node000031" class="node">
<title>Node31</title>
<g id="a_Node000031"><a xlink:href="build_2appmodel_2codegen_2src_2TCMakerHorizontalMuonAlgorithm_8hpp.html" target="_top" xlink:title=" ">
<polygon fill="white" stroke="#666666" points="3878.75,-142 3720.25,-142 3720.25,-89 3878.75,-89 3878.75,-142"/>
<text text-anchor="start" x="3728.25" y="-128.5" font-family="Helvetica,sans-Serif" font-size="10.00">/github/workspace/dev</text>
<text text-anchor="start" x="3728.25" y="-117.25" font-family="Helvetica,sans-Serif" font-size="10.00">_area/build/appmodel</text>
<text text-anchor="start" x="3728.25" y="-106" font-family="Helvetica,sans-Serif" font-size="10.00">/codegen/src/TCMakerHorizontal</text>
<text text-anchor="middle" x="3799.5" y="-94.75" font-family="Helvetica,sans-Serif" font-size="10.00">MuonAlgorithm.hpp</text>
</a>
</g>
</g>
<!-- Node1&#45;&gt;Node31 -->
<g id="edge39_Node000001_Node000031" class="edge">
<title>Node1&#45;&gt;Node31</title>
<g id="a_edge39_Node000001_Node000031"><a xlink:title=" ">
<path fill="none" stroke="#63b8ff" d="M2352.2,-202.61C2612.86,-199.28 3446.5,-185.42 3711.5,-142 3714.33,-141.54 3717.19,-141.01 3720.07,-140.44"/>
<polygon fill="#63b8ff" stroke="#63b8ff" points="2352.42,-199.11 2342.47,-202.73 2352.51,-206.11 2352.42,-199.11"/>
</a>
</g>
</g>
<!-- Node32 -->
<g id="Node000032" class="node">
<title>Node32</title>
<g id="a_Node000032"><a xlink:href="build_2appmodel_2codegen_2src_2TCMakerMichelElectronAlgorithm_8hpp.html" target="_top" xlink:title=" ">
<polygon fill="white" stroke="#666666" points="4075.88,-142 3897.12,-142 3897.12,-89 4075.88,-89 4075.88,-142"/>
<text text-anchor="start" x="3905.12" y="-128.5" font-family="Helvetica,sans-Serif" font-size="10.00">/github/workspace/dev</text>
<text text-anchor="start" x="3905.12" y="-117.25" font-family="Helvetica,sans-Serif" font-size="10.00">_area/build/appmodel</text>
<text text-anchor="start" x="3905.12" y="-106" font-family="Helvetica,sans-Serif" font-size="10.00">/codegen/src/TCMakerMichelElectron</text>
<text text-anchor="middle" x="3986.5" y="-94.75" font-family="Helvetica,sans-Serif" font-size="10.00">Algorithm.hpp</text>
</a>
</g>
</g>
<!-- Node1&#45;&gt;Node32 -->
<g id="edge40_Node000001_Node000032" class="edge">
<title>Node1&#45;&gt;Node32</title>
<g id="a_edge40_Node000001_Node000032"><a xlink:title=" ">
<path fill="none" stroke="#63b8ff" d="M2352.09,-202.73C2632.91,-199.64 3585.95,-186.06 3887.5,-142 3890.57,-141.55 3893.69,-141.04 3896.83,-140.49"/>
<polygon fill="#63b8ff" stroke="#63b8ff" points="2352.28,-199.23 2342.32,-202.84 2352.36,-206.23 2352.28,-199.23"/>
</a>
</g>
</g>
<!-- Node33 -->
<g id="Node000033" class="node">
<title>Node33</title>
<g id="a_Node000033"><a xlink:href="build_2appmodel_2codegen_2src_2TCMakerPlaneCoincidenceAlgorithm_8hpp.html" target="_top" xlink:title=" ">
<polygon fill="white" stroke="#666666" points="4287,-142 4094,-142 4094,-89 4287,-89 4287,-142"/>
<text text-anchor="start" x="4102" y="-128.5" font-family="Helvetica,sans-Serif" font-size="10.00">/github/workspace/dev</text>
<text text-anchor="start" x="4102" y="-117.25" font-family="Helvetica,sans-Serif" font-size="10.00">_area/build/appmodel</text>
<text text-anchor="start" x="4102" y="-106" font-family="Helvetica,sans-Serif" font-size="10.00">/codegen/src/TCMakerPlaneCoincidence</text>
<text text-anchor="middle" x="4190.5" y="-94.75" font-family="Helvetica,sans-Serif" font-size="10.00">Algorithm.hpp</text>
</a>
</g>
</g>
<!-- Node1&#45;&gt;Node33 -->
<g id="edge41_Node000001_Node000033" class="edge">
<title>Node1&#45;&gt;Node33</title>
<g id="a_edge41_Node000001_Node000033"><a xlink:title=" ">
<path fill="none" stroke="#63b8ff" d="M2352.37,-202.94C2655.03,-200.47 3742.3,-188.48 4084.5,-142 4087.5,-141.59 4090.54,-141.14 4093.6,-140.64"/>
<polygon fill="#63b8ff" stroke="#63b8ff" points="2352.57,-199.44 2342.6,-203.02 2352.63,-206.44 2352.57,-199.44"/>
</a>
</g>
</g>
<!-- Node34 -->
<g id="Node000034" class="node">
<title>Node34</title>
<g id="a_Node000034"><a xlink:href="build_2appmodel_2codegen_2src_2TCMakerPrescaleAlgorithm_8hpp.html" target="_top" xlink:title=" ">
<polygon fill="white" stroke="#666666" points="4458.12,-142 4304.88,-142 4304.88,-89 4458.12,-89 4458.12,-142"/>
<text text-anchor="start" x="4312.88" y="-128.5" font-family="Helvetica,sans-Serif" font-size="10.00">/github/workspace/dev</text>
<text text-anchor="start" x="4312.88" y="-117.25" font-family="Helvetica,sans-Serif" font-size="10.00">_area/build/appmodel</text>
<text text-anchor="start" x="4312.88" y="-106" font-family="Helvetica,sans-Serif" font-size="10.00">/codegen/src/TCMakerPrescale</text>
<text text-anchor="middle" x="4381.5" y="-94.75" font-family="Helvetica,sans-Serif" font-size="10.00">Algorithm.hpp</text>
</a>
</g>
</g>
<!-- Node1&#45;&gt;Node34 -->
<g id="edge42_Node000001_Node000034" class="edge">
<title>Node1&#45;&gt;Node34</title>
<g id="a_edge42_Node000001_Node000034"><a xlink:title=" ">
<path fill="none" stroke="#63b8ff" d="M2352.35,-203.85C2677.13,-204.85 3912.17,-204.39 4296.5,-142 4299.24,-141.56 4302.01,-141.05 4304.8,-140.49"/>
<polygon fill="#63b8ff" stroke="#63b8ff" points="2352.71,-200.35 2342.7,-203.81 2352.69,-207.35 2352.71,-200.35"/>
</a>
</g>
</g>
<!-- Node35 -->
<g id="Node000035" class="node">
<title>Node35</title>
<g id="a_Node000035"><a xlink:href="TAProcessor_8cpp.html" target="_top" xlink:title=" ">
<polygon fill="white" stroke="#666666" points="4599.12,-136.38 4475.88,-136.38 4475.88,-94.62 4599.12,-94.62 4599.12,-136.38"/>
<text text-anchor="start" x="4483.88" y="-122.88" font-family="Helvetica,sans-Serif" font-size="10.00">/github/workspace/dev</text>
<text text-anchor="start" x="4483.88" y="-111.62" font-family="Helvetica,sans-Serif" font-size="10.00">_area/sourcecode/trigger</text>
<text text-anchor="middle" x="4537.5" y="-100.38" font-family="Helvetica,sans-Serif" font-size="10.00">/src/TAProcessor.cpp</text>
</a>
</g>
</g>
<!-- Node1&#45;&gt;Node35 -->
<g id="edge44_Node000001_Node000035" class="edge">
<title>Node1&#45;&gt;Node35</title>
<g id="a_edge44_Node000001_Node000035"><a xlink:title=" ">
<path fill="none" stroke="#63b8ff" d="M2352.41,-202.79C2720.17,-199.26 4256.86,-182.22 4467.5,-142 4474.11,-140.74 4480.92,-138.94 4487.58,-136.87"/>
<polygon fill="#63b8ff" stroke="#63b8ff" points="2352.59,-199.28 2342.62,-202.88 2352.65,-206.28 2352.59,-199.28"/>
</a>
</g>
</g>
<!-- Node3 -->
<g id="Node000003" class="node">
<title>Node3</title>
<g id="a_Node000003"><a xlink:href="TCCustomAlgorithm_8cpp.html" target="_top" xlink:title=" ">
<polygon fill="white" stroke="#666666" points="181,-47.38 0,-47.38 0,-5.62 181,-5.62 181,-47.38"/>
<text text-anchor="start" x="8" y="-33.88" font-family="Helvetica,sans-Serif" font-size="10.00">/github/workspace/dev</text>
<text text-anchor="start" x="8" y="-22.62" font-family="Helvetica,sans-Serif" font-size="10.00">_area/build/appmodel</text>
<text text-anchor="middle" x="90.5" y="-11.38" font-family="Helvetica,sans-Serif" font-size="10.00">/codegen/src/TCCustomAlgorithm.cpp</text>
</a>
</g>
</g>
<!-- Node2&#45;&gt;Node3 -->
<g id="edge2_Node000002_Node000003" class="edge">
<title>Node2&#45;&gt;Node3</title>
<g id="a_edge2_Node000002_Node000003"><a xlink:title=" ">
<path fill="none" stroke="#63b8ff" d="M150.17,-81.02C137.6,-69.74 123.97,-57.52 112.92,-47.61"/>
<polygon fill="#63b8ff" stroke="#63b8ff" points="147.75,-83.55 157.53,-87.62 152.43,-78.34 147.75,-83.55"/>
</a>
</g>
</g>
<!-- Node2&#45;&gt;Node4 -->
<g id="edge3_Node000002_Node000004" class="edge">
<title>Node2&#45;&gt;Node4</title>
<g id="a_edge3_Node000002_Node000004"><a xlink:title=" ">
<path fill="none" stroke="#63b8ff" d="M265.76,-89.05C598.6,-29.16 694.69,-112.15 1023.5,-53 1026.51,-52.46 1029.57,-51.83 1032.64,-51.14"/>
<polygon fill="#63b8ff" stroke="#63b8ff" points="265.53,-85.53 256.32,-90.78 266.79,-92.42 265.53,-85.53"/>
</a>
</g>
</g>
<!-- Node5&#45;&gt;Node4 -->
<g id="edge6_Node000005_Node000004" class="edge">
<title>Node5&#45;&gt;Node4</title>
<g id="a_edge6_Node000005_Node000004"><a xlink:title=" ">
<path fill="none" stroke="#63b8ff" d="M487.66,-88.65C724.08,-55.13 791.31,-97.08 1023.5,-53 1026.51,-52.43 1029.56,-51.78 1032.63,-51.07"/>
<polygon fill="#63b8ff" stroke="#63b8ff" points="487.16,-85.18 477.77,-90.08 488.17,-92.11 487.16,-85.18"/>
</a>
</g>
</g>
<!-- Node6 -->
<g id="Node000006" class="node">
<title>Node6</title>
<g id="a_Node000006"><a xlink:href="build_2appmodel_2codegen_2src_2TCMakerADCSimpleWindowAlgorithm_8cpp.html" target="_top" xlink:title=" ">
<polygon fill="white" stroke="#666666" points="364.12,-53 198.88,-53 198.88,0 364.12,0 364.12,-53"/>
<text text-anchor="start" x="206.88" y="-39.5" font-family="Helvetica,sans-Serif" font-size="10.00">/github/workspace/dev</text>
<text text-anchor="start" x="206.88" y="-28.25" font-family="Helvetica,sans-Serif" font-size="10.00">_area/build/appmodel</text>
<text text-anchor="start" x="206.88" y="-17" font-family="Helvetica,sans-Serif" font-size="10.00">/codegen/src/TCMakerADCSimple</text>
<text text-anchor="middle" x="281.5" y="-5.75" font-family="Helvetica,sans-Serif" font-size="10.00">WindowAlgorithm.cpp</text>
</a>
</g>
</g>
<!-- Node5&#45;&gt;Node6 -->
<g id="edge5_Node000005_Node000006" class="edge">
<title>Node5&#45;&gt;Node6</title>
<g id="a_edge5_Node000005_Node000006"><a xlink:title=" ">
<path fill="none" stroke="#63b8ff" d="M338.51,-80.83C328.78,-71.73 318.4,-62.02 309.21,-53.42"/>
<polygon fill="#63b8ff" stroke="#63b8ff" points="336.05,-83.32 345.74,-87.6 340.83,-78.21 336.05,-83.32"/>
</a>
</g>
</g>
<!-- Node7&#45;&gt;Node4 -->
<g id="edge9_Node000007_Node000004" class="edge">
<title>Node7&#45;&gt;Node4</title>
<g id="a_edge9_Node000007_Node000004"><a xlink:title=" ">
<path fill="none" stroke="#63b8ff" d="M660.78,-88.74C820.62,-59.17 867.44,-85.19 1023.5,-53 1026.5,-52.38 1029.54,-51.69 1032.61,-50.95"/>
<polygon fill="#63b8ff" stroke="#63b8ff" points="660.24,-85.28 651.07,-90.58 661.55,-92.15 660.24,-85.28"/>
</a>
</g>
</g>
<!-- Node8 -->
<g id="Node000008" class="node">
<title>Node8</title>
<g id="a_Node000008"><a xlink:href="build_2appmodel_2codegen_2src_2TCMakerBundleNAlgorithm_8cpp.html" target="_top" xlink:title=" ">
<polygon fill="white" stroke="#666666" points="594.38,-47.38 382.62,-47.38 382.62,-5.62 594.38,-5.62 594.38,-47.38"/>
<text text-anchor="start" x="390.62" y="-33.88" font-family="Helvetica,sans-Serif" font-size="10.00">/github/workspace/dev</text>
<text text-anchor="start" x="390.62" y="-22.62" font-family="Helvetica,sans-Serif" font-size="10.00">_area/build/appmodel</text>
<text text-anchor="middle" x="488.5" y="-11.38" font-family="Helvetica,sans-Serif" font-size="10.00">/codegen/src/TCMakerBundleNAlgorithm.cpp</text>
</a>
</g>
</g>
<!-- Node7&#45;&gt;Node8 -->
<g id="edge8_Node000007_Node000008" class="edge">
<title>Node7&#45;&gt;Node8</title>
<g id="a_edge8_Node000007_Node000008"><a xlink:title=" ">
<path fill="none" stroke="#63b8ff" d="M539.15,-80.59C528.55,-69.48 517.1,-57.48 507.78,-47.71"/>
<polygon fill="#63b8ff" stroke="#63b8ff" points="536.57,-82.95 546,-87.77 541.63,-78.12 536.57,-82.95"/>
</a>
</g>
</g>
<!-- Node9&#45;&gt;Node4 -->
<g id="edge12_Node000009_Node000004" class="edge">
<title>Node9&#45;&gt;Node4</title>
<g id="a_edge12_Node000009_Node000004"><a xlink:title=" ">
<path fill="none" stroke="#63b8ff" d="M877.08,-88.23C943.24,-72.48 1015.95,-55.1 1023.5,-53 1026.45,-52.18 1029.45,-51.32 1032.48,-50.44"/>
<polygon fill="#63b8ff" stroke="#63b8ff" points="876.5,-84.77 867.58,-90.49 878.12,-91.58 876.5,-84.77"/>
</a>
</g>
</g>
<!-- Node10 -->
<g id="Node000010" class="node">
<title>Node10</title>
<g id="a_Node000010"><a xlink:href="build_2appmodel_2codegen_2src_2TCMakerChannelAdjacencyAlgorithm_8cpp.html" target="_top" xlink:title=" ">
<polygon fill="white" stroke="#666666" points="808.12,-53 612.88,-53 612.88,0 808.12,0 808.12,-53"/>
<text text-anchor="start" x="620.88" y="-39.5" font-family="Helvetica,sans-Serif" font-size="10.00">/github/workspace/dev</text>
<text text-anchor="start" x="620.88" y="-28.25" font-family="Helvetica,sans-Serif" font-size="10.00">_area/build/appmodel</text>
<text text-anchor="start" x="620.88" y="-17" font-family="Helvetica,sans-Serif" font-size="10.00">/codegen/src/TCMakerChannelAdjacency</text>
<text text-anchor="middle" x="710.5" y="-5.75" font-family="Helvetica,sans-Serif" font-size="10.00">Algorithm.cpp</text>
</a>
</g>
</g>
<!-- Node9&#45;&gt;Node10 -->
<g id="edge11_Node000009_Node000010" class="edge">
<title>Node9&#45;&gt;Node10</title>
<g id="a_edge11_Node000009_Node000010"><a xlink:title=" ">
<path fill="none" stroke="#63b8ff" d="M743.85,-79.3C738.24,-70.59 732.33,-61.42 727.07,-53.25"/>
<polygon fill="#63b8ff" stroke="#63b8ff" points="740.83,-81.08 749.18,-87.6 746.71,-77.29 740.83,-81.08"/>
</a>
</g>
</g>
<!-- Node11&#45;&gt;Node4 -->
<g id="edge15_Node000011_Node000004" class="edge">
<title>Node11&#45;&gt;Node4</title>
<g id="a_edge15_Node000011_Node000004"><a xlink:title=" ">
<path fill="none" stroke="#63b8ff" d="M1025.53,-82.21C1039.06,-72.71 1053.68,-62.46 1066.56,-53.42"/>
<polygon fill="#63b8ff" stroke="#63b8ff" points="1023.78,-79.15 1017.61,-87.76 1027.8,-84.89 1023.78,-79.15"/>
</a>
</g>
</g>
<!-- Node12 -->
<g id="Node000012" class="node">
<title>Node12</title>
<g id="a_Node000012"><a xlink:href="build_2appmodel_2codegen_2src_2TCMakerChannelDistanceAlgorithm_8cpp.html" target="_top" xlink:title=" ">
<polygon fill="white" stroke="#666666" points="1014.75,-53 826.25,-53 826.25,0 1014.75,0 1014.75,-53"/>
<text text-anchor="start" x="834.25" y="-39.5" font-family="Helvetica,sans-Serif" font-size="10.00">/github/workspace/dev</text>
<text text-anchor="start" x="834.25" y="-28.25" font-family="Helvetica,sans-Serif" font-size="10.00">_area/build/appmodel</text>
<text text-anchor="start" x="834.25" y="-17" font-family="Helvetica,sans-Serif" font-size="10.00">/codegen/src/TCMakerChannelDistance</text>
<text text-anchor="middle" x="920.5" y="-5.75" font-family="Helvetica,sans-Serif" font-size="10.00">Algorithm.cpp</text>
</a>
</g>
</g>
<!-- Node11&#45;&gt;Node12 -->
<g id="edge14_Node000011_Node000012" class="edge">
<title>Node11&#45;&gt;Node12</title>
<g id="a_edge14_Node000011_Node000012"><a xlink:title=" ">
<path fill="none" stroke="#63b8ff" d="M955.82,-79.59C949.86,-70.79 943.56,-61.5 937.96,-53.25"/>
<polygon fill="#63b8ff" stroke="#63b8ff" points="952.76,-81.3 961.27,-87.62 958.55,-77.37 952.76,-81.3"/>
</a>
</g>
</g>
<!-- Node13&#45;&gt;Node4 -->
<g id="edge18_Node000013_Node000004" class="edge">
<title>Node13&#45;&gt;Node4</title>
<g id="a_edge18_Node000013_Node000004"><a xlink:title=" ">
<path fill="none" stroke="#63b8ff" d="M1170.73,-81.66C1159.14,-72.32 1146.68,-62.28 1135.67,-53.42"/>
<polygon fill="#63b8ff" stroke="#63b8ff" points="1168.23,-84.14 1178.21,-87.68 1172.62,-78.68 1168.23,-84.14"/>
</a>
</g>
</g>
<!-- Node14 -->
<g id="Node000014" class="node">
<title>Node14</title>
<g id="a_Node000014"><a xlink:href="build_2appmodel_2codegen_2src_2TCMakerDBSCANAlgorithm_8cpp.html" target="_top" xlink:title=" ">
<polygon fill="white" stroke="#666666" points="1407.25,-47.38 1191.75,-47.38 1191.75,-5.62 1407.25,-5.62 1407.25,-47.38"/>
<text text-anchor="start" x="1199.75" y="-33.88" font-family="Helvetica,sans-Serif" font-size="10.00">/github/workspace/dev</text>
<text text-anchor="start" x="1199.75" y="-22.62" font-family="Helvetica,sans-Serif" font-size="10.00">_area/build/appmodel</text>
<text text-anchor="middle" x="1299.5" y="-11.38" font-family="Helvetica,sans-Serif" font-size="10.00">/codegen/src/TCMakerDBSCANAlgorithm.cpp</text>
</a>
</g>
</g>
<!-- Node13&#45;&gt;Node14 -->
<g id="edge17_Node000013_Node000014" class="edge">
<title>Node13&#45;&gt;Node14</title>
<g id="a_edge17_Node000013_Node000014"><a xlink:title=" ">
<path fill="none" stroke="#63b8ff" d="M1245.47,-80.92C1256.8,-69.71 1269.08,-57.58 1279.06,-47.71"/>
<polygon fill="#63b8ff" stroke="#63b8ff" points="1243.15,-78.28 1238.5,-87.8 1248.08,-83.26 1243.15,-78.28"/>
</a>
</g>
</g>
<!-- Node15&#45;&gt;Node4 -->
<g id="edge21_Node000015_Node000004" class="edge">
<title>Node15&#45;&gt;Node4</title>
<g id="a_edge21_Node000015_Node000004"><a xlink:title=" ">
<path fill="none" stroke="#63b8ff" d="M1297.64,-86.21C1261.15,-76.04 1219.92,-64.29 1182.5,-53 1179.88,-52.21 1177.21,-51.4 1174.52,-50.57"/>
<polygon fill="#63b8ff" stroke="#63b8ff" points="1296.26,-89.47 1306.84,-88.77 1298.14,-82.72 1296.26,-89.47"/>
</a>
</g>
</g>
<!-- Node16 -->
<g id="Node000016" class="node">
<title>Node16</title>
<g id="a_Node000016"><a xlink:href="build_2appmodel_2codegen_2src_2TCMakerHorizontalMuonAlgorithm_8cpp.html" target="_top" xlink:title=" ">
<polygon fill="white" stroke="#666666" points="1583.75,-53 1425.25,-53 1425.25,0 1583.75,0 1583.75,-53"/>
<text text-anchor="start" x="1433.25" y="-39.5" font-family="Helvetica,sans-Serif" font-size="10.00">/github/workspace/dev</text>
<text text-anchor="start" x="1433.25" y="-28.25" font-family="Helvetica,sans-Serif" font-size="10.00">_area/build/appmodel</text>
<text text-anchor="start" x="1433.25" y="-17" font-family="Helvetica,sans-Serif" font-size="10.00">/codegen/src/TCMakerHorizontal</text>
<text text-anchor="middle" x="1504.5" y="-5.75" font-family="Helvetica,sans-Serif" font-size="10.00">MuonAlgorithm.cpp</text>
</a>
</g>
</g>
<!-- Node15&#45;&gt;Node16 -->
<g id="edge20_Node000015_Node000016" class="edge">
<title>Node15&#45;&gt;Node16</title>
<g id="a_edge20_Node000015_Node000016"><a xlink:title=" ">
<path fill="none" stroke="#63b8ff" d="M1440.71,-81.38C1451.67,-72.12 1463.42,-62.2 1473.82,-53.42"/>
<polygon fill="#63b8ff" stroke="#63b8ff" points="1438.66,-78.53 1433.28,-87.66 1443.18,-83.88 1438.66,-78.53"/>
</a>
</g>
</g>
<!-- Node17&#45;&gt;Node4 -->
<g id="edge24_Node000017_Node000004" class="edge">
<title>Node17&#45;&gt;Node4</title>
<g id="a_edge24_Node000017_Node000004"><a xlink:title=" ">
<path fill="none" stroke="#63b8ff" d="M1501.11,-88.69C1360.21,-64.19 1319.28,-82.43 1182.5,-53 1179.82,-52.42 1177.11,-51.79 1174.38,-51.12"/>
<polygon fill="#63b8ff" stroke="#63b8ff" points="1500.38,-92.12 1510.84,-90.43 1501.61,-85.23 1500.38,-92.12"/>
</a>
</g>
</g>
<!-- Node18 -->
<g id="Node000018" class="node">
<title>Node18</title>
<g id="a_Node000018"><a xlink:href="build_2appmodel_2codegen_2src_2TCMakerMichelElectronAlgorithm_8cpp.html" target="_top" xlink:title=" ">
<polygon fill="white" stroke="#666666" points="1780.88,-53 1602.12,-53 1602.12,0 1780.88,0 1780.88,-53"/>
<text text-anchor="start" x="1610.12" y="-39.5" font-family="Helvetica,sans-Serif" font-size="10.00">/github/workspace/dev</text>
<text text-anchor="start" x="1610.12" y="-28.25" font-family="Helvetica,sans-Serif" font-size="10.00">_area/build/appmodel</text>
<text text-anchor="start" x="1610.12" y="-17" font-family="Helvetica,sans-Serif" font-size="10.00">/codegen/src/TCMakerMichelElectron</text>
<text text-anchor="middle" x="1691.5" y="-5.75" font-family="Helvetica,sans-Serif" font-size="10.00">Algorithm.cpp</text>
</a>
</g>
</g>
<!-- Node17&#45;&gt;Node18 -->
<g id="edge23_Node000017_Node000018" class="edge">
<title>Node17&#45;&gt;Node18</title>
<g id="a_edge23_Node000017_Node000018"><a xlink:title=" ">
<path fill="none" stroke="#63b8ff" d="M1637.4,-80.99C1646.71,-71.78 1656.66,-61.94 1665.45,-53.25"/>
<polygon fill="#63b8ff" stroke="#63b8ff" points="1635.15,-78.28 1630.5,-87.8 1640.08,-83.26 1635.15,-78.28"/>
</a>
</g>
</g>
<!-- Node19&#45;&gt;Node4 -->
<g id="edge27_Node000019_Node000004" class="edge">
<title>Node19&#45;&gt;Node4</title>
<g id="a_edge27_Node000019_Node000004"><a xlink:title=" ">
<path fill="none" stroke="#63b8ff" d="M1700.72,-88.7C1471.96,-55.34 1406.73,-96.27 1182.5,-53 1179.81,-52.48 1177.09,-51.9 1174.35,-51.27"/>
<polygon fill="#63b8ff" stroke="#63b8ff" points="1700.18,-92.16 1710.59,-90.18 1701.22,-85.24 1700.18,-92.16"/>
</a>
</g>
</g>
<!-- Node20 -->
<g id="Node000020" class="node">
<title>Node20</title>
<g id="a_Node000020"><a xlink:href="build_2appmodel_2codegen_2src_2TCMakerPlaneCoincidenceAlgorithm_8cpp.html" target="_top" xlink:title=" ">
<polygon fill="white" stroke="#666666" points="1992,-53 1799,-53 1799,0 1992,0 1992,-53"/>
<text text-anchor="start" x="1807" y="-39.5" font-family="Helvetica,sans-Serif" font-size="10.00">/github/workspace/dev</text>
<text text-anchor="start" x="1807" y="-28.25" font-family="Helvetica,sans-Serif" font-size="10.00">_area/build/appmodel</text>
<text text-anchor="start" x="1807" y="-17" font-family="Helvetica,sans-Serif" font-size="10.00">/codegen/src/TCMakerPlaneCoincidence</text>
<text text-anchor="middle" x="1895.5" y="-5.75" font-family="Helvetica,sans-Serif" font-size="10.00">Algorithm.cpp</text>
</a>
</g>
</g>
<!-- Node19&#45;&gt;Node20 -->
<g id="edge26_Node000019_Node000020" class="edge">
<title>Node19&#45;&gt;Node20</title>
<g id="a_edge26_Node000019_Node000020"><a xlink:title=" ">
<path fill="none" stroke="#63b8ff" d="M1843.52,-80.71C1852.43,-71.58 1861.93,-61.86 1870.34,-53.25"/>
<polygon fill="#63b8ff" stroke="#63b8ff" points="1841.09,-78.19 1836.6,-87.79 1846.09,-83.08 1841.09,-78.19"/>
</a>
</g>
</g>
<!-- Node21&#45;&gt;Node4 -->
<g id="edge30_Node000021_Node000004" class="edge">
<title>Node21&#45;&gt;Node4</title>
<g id="a_edge30_Node000021_Node000004"><a xlink:title=" ">
<path fill="none" stroke="#63b8ff" d="M1914.91,-88.75C1592.93,-36.34 1500.63,-111.08 1182.5,-53 1179.81,-52.51 1177.08,-51.95 1174.33,-51.33"/>
<polygon fill="#63b8ff" stroke="#63b8ff" points="1914.04,-92.15 1924.48,-90.33 1915.19,-85.24 1914.04,-92.15"/>
</a>
</g>
</g>
<!-- Node22 -->
<g id="Node000022" class="node">
<title>Node22</title>
<g id="a_Node000022"><a xlink:href="build_2appmodel_2codegen_2src_2TCMakerPrescaleAlgorithm_8cpp.html" target="_top" xlink:title=" ">
<polygon fill="white" stroke="#666666" points="2163.12,-53 2009.88,-53 2009.88,0 2163.12,0 2163.12,-53"/>
<text text-anchor="start" x="2017.88" y="-39.5" font-family="Helvetica,sans-Serif" font-size="10.00">/github/workspace/dev</text>
<text text-anchor="start" x="2017.88" y="-28.25" font-family="Helvetica,sans-Serif" font-size="10.00">_area/build/appmodel</text>
<text text-anchor="start" x="2017.88" y="-17" font-family="Helvetica,sans-Serif" font-size="10.00">/codegen/src/TCMakerPrescale</text>
<text text-anchor="middle" x="2086.5" y="-5.75" font-family="Helvetica,sans-Serif" font-size="10.00">Algorithm.cpp</text>
</a>
</g>
</g>
<!-- Node21&#45;&gt;Node22 -->
<g id="edge29_Node000021_Node000022" class="edge">
<title>Node21&#45;&gt;Node22</title>
<g id="a_edge29_Node000021_Node000022"><a xlink:title=" ">
<path fill="none" stroke="#63b8ff" d="M2036.35,-80.71C2044.95,-71.58 2054.12,-61.86 2062.23,-53.25"/>
<polygon fill="#63b8ff" stroke="#63b8ff" points="2034.01,-78.09 2029.7,-87.77 2039.1,-82.89 2034.01,-78.09"/>
</a>
</g>
</g>
</g>
</svg>
