<?xml version="1.0" encoding="UTF-8" standalone="no"?>
<!DOCTYPE svg PUBLIC "-//W3C//DTD SVG 1.1//EN"
 "http://www.w3.org/Graphics/SVG/1.1/DTD/svg11.dtd">
<!-- Generated by graphviz version 9.0.0 (20230911.1827)
 -->
<!-- Title: /github/workspace/dev_area/build/appmodel/codegen/include/appmodel/FEMBSettings.hpp Pages: 1 -->
<svg width="490pt" height="150pt"
 viewBox="0.00 0.00 489.75 150.00" xmlns="http://www.w3.org/2000/svg" xmlns:xlink="http://www.w3.org/1999/xlink">
<g id="graph0" class="graph" transform="scale(1 1) rotate(0) translate(4 146)">
<title>/github/workspace/dev_area/build/appmodel/codegen/include/appmodel/FEMBSettings.hpp</title>
<!-- Node1 -->
<g id="Node000001" class="node">
<title>Node1</title>
<g id="a_Node000001"><a xlink:title=" ">
<polygon fill="#999999" stroke="#666666" points="315.38,-142 180.88,-142 180.88,-89 315.38,-89 315.38,-142"/>
<text text-anchor="start" x="188.88" y="-128.5" font-family="Helvetica,sans-Serif" font-size="10.00">/github/workspace/dev</text>
<text text-anchor="start" x="188.88" y="-117.25" font-family="Helvetica,sans-Serif" font-size="10.00">_area/build/appmodel</text>
<text text-anchor="start" x="188.88" y="-106" font-family="Helvetica,sans-Serif" font-size="10.00">/codegen/include/appmodel</text>
<text text-anchor="middle" x="248.12" y="-94.75" font-family="Helvetica,sans-Serif" font-size="10.00">/FEMBSettings.hpp</text>
</a>
</g>
</g>
<!-- Node2 -->
<g id="Node000002" class="node">
<title>Node2</title>
<g id="a_Node000002"><a xlink:href="FEMBSettings_8cpp.html" target="_top" xlink:title=" ">
<polygon fill="white" stroke="#666666" points="156.25,-47.38 0,-47.38 0,-5.62 156.25,-5.62 156.25,-47.38"/>
<text text-anchor="start" x="8" y="-33.88" font-family="Helvetica,sans-Serif" font-size="10.00">/github/workspace/dev</text>
<text text-anchor="start" x="8" y="-22.62" font-family="Helvetica,sans-Serif" font-size="10.00">_area/build/appmodel</text>
<text text-anchor="middle" x="78.12" y="-11.38" font-family="Helvetica,sans-Serif" font-size="10.00">/codegen/src/FEMBSettings.cpp</text>
</a>
</g>
</g>
<!-- Node1&#45;&gt;Node2 -->
<g id="edge1_Node000001_Node000002" class="edge">
<title>Node1&#45;&gt;Node2</title>
<g id="a_edge1_Node000001_Node000002"><a xlink:title=" ">
<path fill="none" stroke="#63b8ff" d="M187.48,-83.46C164.27,-71.59 138.42,-58.36 117.69,-47.75"/>
<polygon fill="#63b8ff" stroke="#63b8ff" points="185.74,-86.5 196.23,-87.94 188.92,-80.27 185.74,-86.5"/>
</a>
</g>
</g>
<!-- Node3 -->
<g id="Node000003" class="node">
<title>Node3</title>
<g id="a_Node000003"><a xlink:href="WIBSettings_8cpp.html" target="_top" xlink:title=" ">
<polygon fill="white" stroke="#666666" points="322.12,-47.38 174.12,-47.38 174.12,-5.62 322.12,-5.62 322.12,-47.38"/>
<text text-anchor="start" x="182.12" y="-33.88" font-family="Helvetica,sans-Serif" font-size="10.00">/github/workspace/dev</text>
<text text-anchor="start" x="182.12" y="-22.62" font-family="Helvetica,sans-Serif" font-size="10.00">_area/build/appmodel</text>
<text text-anchor="middle" x="248.12" y="-11.38" font-family="Helvetica,sans-Serif" font-size="10.00">/codegen/src/WIBSettings.cpp</text>
</a>
</g>
</g>
<!-- Node1&#45;&gt;Node3 -->
<g id="edge2_Node000001_Node000003" class="edge">
<title>Node1&#45;&gt;Node3</title>
<g id="a_edge2_Node000001_Node000003"><a xlink:title=" ">
<path fill="none" stroke="#63b8ff" d="M248.12,-77.63C248.12,-67.38 248.12,-56.62 248.12,-47.71"/>
<polygon fill="#63b8ff" stroke="#63b8ff" points="244.63,-77.35 248.13,-87.35 251.63,-77.35 244.63,-77.35"/>
</a>
</g>
</g>
<!-- Node4 -->
<g id="Node000004" class="node">
<title>Node4</title>
<g id="a_Node000004"><a xlink:href="dump__dunedaq____appmodel_8cpp.html" target="_top" xlink:title=" ">
<polygon fill="white" stroke="#666666" points="481.75,-53 340.5,-53 340.5,0 481.75,0 481.75,-53"/>
<text text-anchor="start" x="348.5" y="-39.5" font-family="Helvetica,sans-Serif" font-size="10.00">/github/workspace/dev</text>
<text text-anchor="start" x="348.5" y="-28.25" font-family="Helvetica,sans-Serif" font-size="10.00">_area/build/appmodel</text>
<text text-anchor="start" x="348.5" y="-17" font-family="Helvetica,sans-Serif" font-size="10.00">/codegen/src/dump_dunedaq</text>
<text text-anchor="middle" x="411.12" y="-5.75" font-family="Helvetica,sans-Serif" font-size="10.00">__appmodel.cpp</text>
</a>
</g>
</g>
<!-- Node1&#45;&gt;Node4 -->
<g id="edge3_Node000001_Node000004" class="edge">
<title>Node1&#45;&gt;Node4</title>
<g id="a_edge3_Node000001_Node000004"><a xlink:title=" ">
<path fill="none" stroke="#63b8ff" d="M306.58,-83.3C324.93,-73.5 344.98,-62.8 362.57,-53.42"/>
<polygon fill="#63b8ff" stroke="#63b8ff" points="305.1,-80.12 297.92,-87.92 308.39,-86.3 305.1,-80.12"/>
</a>
</g>
</g>
</g>
</svg>
