<?xml version="1.0" encoding="UTF-8" standalone="no"?>
<!DOCTYPE svg PUBLIC "-//W3C//DTD SVG 1.1//EN"
 "http://www.w3.org/Graphics/SVG/1.1/DTD/svg11.dtd">
<!-- Generated by graphviz version 9.0.0 (20230911.1827)
 -->
<!-- Title: /github/workspace/dev_area/build/timinglibs/codegen/include/timinglibs/dal/TimingEndpointController.hpp Pages: 1 -->
<svg width="571pt" height="150pt"
 viewBox="0.00 0.00 570.62 150.00" xmlns="http://www.w3.org/2000/svg" xmlns:xlink="http://www.w3.org/1999/xlink">
<g id="graph0" class="graph" transform="scale(1 1) rotate(0) translate(4 146)">
<title>/github/workspace/dev_area/build/timinglibs/codegen/include/timinglibs/dal/TimingEndpointController.hpp</title>
<!-- Node1 -->
<g id="Node000001" class="node">
<title>Node1</title>
<g id="a_Node000001"><a xlink:title=" ">
<polygon fill="#999999" stroke="#666666" points="370,-142 209.25,-142 209.25,-89 370,-89 370,-142"/>
<text text-anchor="start" x="217.25" y="-128.5" font-family="Helvetica,sans-Serif" font-size="10.00">/github/workspace/dev</text>
<text text-anchor="start" x="217.25" y="-117.25" font-family="Helvetica,sans-Serif" font-size="10.00">_area/build/timinglibs</text>
<text text-anchor="start" x="217.25" y="-106" font-family="Helvetica,sans-Serif" font-size="10.00">/codegen/include/timinglibs</text>
<text text-anchor="middle" x="289.62" y="-94.75" font-family="Helvetica,sans-Serif" font-size="10.00">/dal/TimingEndpointController.hpp</text>
</a>
</g>
</g>
<!-- Node2 -->
<g id="Node000002" class="node">
<title>Node2</title>
<g id="a_Node000002"><a xlink:href="TimingEndpointController_8cpp.html" target="_top" xlink:title=" ">
<polygon fill="white" stroke="#666666" points="201.25,-47.38 0,-47.38 0,-5.62 201.25,-5.62 201.25,-47.38"/>
<text text-anchor="start" x="8" y="-33.88" font-family="Helvetica,sans-Serif" font-size="10.00">/github/workspace/dev</text>
<text text-anchor="start" x="8" y="-22.62" font-family="Helvetica,sans-Serif" font-size="10.00">_area/build/timinglibs</text>
<text text-anchor="middle" x="100.62" y="-11.38" font-family="Helvetica,sans-Serif" font-size="10.00">/codegen/src/TimingEndpointController.cpp</text>
</a>
</g>
</g>
<!-- Node1&#45;&gt;Node2 -->
<g id="edge1_Node000001_Node000002" class="edge">
<title>Node1&#45;&gt;Node2</title>
<g id="a_edge1_Node000001_Node000002"><a xlink:title=" ">
<path fill="none" stroke="#63b8ff" d="M223.03,-83.84C197.09,-71.9 168.07,-58.54 144.79,-47.83"/>
<polygon fill="#63b8ff" stroke="#63b8ff" points="221.25,-86.88 231.8,-87.88 224.18,-80.52 221.25,-86.88"/>
</a>
</g>
</g>
<!-- Node3 -->
<g id="Node000003" class="node">
<title>Node3</title>
<g id="a_Node000003"><a xlink:href="dump__dunedaq____timinglibs____dal_8cpp.html" target="_top" xlink:title=" ">
<polygon fill="white" stroke="#666666" points="360.25,-53 219,-53 219,0 360.25,0 360.25,-53"/>
<text text-anchor="start" x="227" y="-39.5" font-family="Helvetica,sans-Serif" font-size="10.00">/github/workspace/dev</text>
<text text-anchor="start" x="227" y="-28.25" font-family="Helvetica,sans-Serif" font-size="10.00">_area/build/timinglibs</text>
<text text-anchor="start" x="227" y="-17" font-family="Helvetica,sans-Serif" font-size="10.00">/codegen/src/dump_dunedaq</text>
<text text-anchor="middle" x="289.62" y="-5.75" font-family="Helvetica,sans-Serif" font-size="10.00">__timinglibs__dal.cpp</text>
</a>
</g>
</g>
<!-- Node1&#45;&gt;Node3 -->
<g id="edge2_Node000001_Node000003" class="edge">
<title>Node1&#45;&gt;Node3</title>
<g id="a_edge2_Node000001_Node000003"><a xlink:title=" ">
<path fill="none" stroke="#63b8ff" d="M289.62,-77.61C289.62,-69.41 289.62,-60.89 289.62,-53.25"/>
<polygon fill="#63b8ff" stroke="#63b8ff" points="286.13,-77.35 289.63,-87.35 293.13,-77.35 286.13,-77.35"/>
</a>
</g>
</g>
<!-- Node4 -->
<g id="Node000004" class="node">
<title>Node4</title>
<g id="a_Node000004"><a xlink:href="TimingEndpointControllerBase_8cpp.html" target="_top" xlink:title=" ">
<polygon fill="white" stroke="#666666" points="562.62,-47.38 378.62,-47.38 378.62,-5.62 562.62,-5.62 562.62,-47.38"/>
<text text-anchor="start" x="386.62" y="-33.88" font-family="Helvetica,sans-Serif" font-size="10.00">/github/workspace/dev</text>
<text text-anchor="start" x="386.62" y="-22.62" font-family="Helvetica,sans-Serif" font-size="10.00">_area/sourcecode/timinglibs</text>
<text text-anchor="middle" x="470.62" y="-11.38" font-family="Helvetica,sans-Serif" font-size="10.00">/src/TimingEndpointControllerBase.cpp</text>
</a>
</g>
</g>
<!-- Node1&#45;&gt;Node4 -->
<g id="edge3_Node000001_Node000004" class="edge">
<title>Node1&#45;&gt;Node4</title>
<g id="a_edge3_Node000001_Node000004"><a xlink:title=" ">
<path fill="none" stroke="#63b8ff" d="M353.53,-83.78C378.41,-71.82 406.23,-58.45 428.51,-47.75"/>
<polygon fill="#63b8ff" stroke="#63b8ff" points="352.3,-80.49 344.81,-87.98 355.33,-86.8 352.3,-80.49"/>
</a>
</g>
</g>
</g>
</svg>
