<?xml version="1.0" encoding="UTF-8" standalone="no"?>
<!DOCTYPE svg PUBLIC "-//W3C//DTD SVG 1.1//EN"
 "http://www.w3.org/Graphics/SVG/1.1/DTD/svg11.dtd">
<!-- Generated by graphviz version 9.0.0 (20230911.1827)
 -->
<!-- Title: /github/workspace/dev_area/build/appmodel/codegen/include/appmodel/TriggerApplication.hpp Pages: 1 -->
<svg width="1073pt" height="239pt"
 viewBox="0.00 0.00 1072.75 239.00" xmlns="http://www.w3.org/2000/svg" xmlns:xlink="http://www.w3.org/1999/xlink">
<g id="graph0" class="graph" transform="scale(1 1) rotate(0) translate(4 235)">
<title>/github/workspace/dev_area/build/appmodel/codegen/include/appmodel/TriggerApplication.hpp</title>
<!-- Node1 -->
<g id="Node000001" class="node">
<title>Node1</title>
<g id="a_Node000001"><a xlink:title=" ">
<polygon fill="#999999" stroke="#666666" points="577.88,-231 443.38,-231 443.38,-178 577.88,-178 577.88,-231"/>
<text text-anchor="start" x="451.38" y="-217.5" font-family="Helvetica,sans-Serif" font-size="10.00">/github/workspace/dev</text>
<text text-anchor="start" x="451.38" y="-206.25" font-family="Helvetica,sans-Serif" font-size="10.00">_area/build/appmodel</text>
<text text-anchor="start" x="451.38" y="-195" font-family="Helvetica,sans-Serif" font-size="10.00">/codegen/include/appmodel</text>
<text text-anchor="middle" x="510.62" y="-183.75" font-family="Helvetica,sans-Serif" font-size="10.00">/TriggerApplication.hpp</text>
</a>
</g>
</g>
<!-- Node2 -->
<g id="Node000002" class="node">
<title>Node2</title>
<g id="a_Node000002"><a xlink:href="include_2appmodel_2MLTApplication_8hpp.html" target="_top" xlink:title=" ">
<polygon fill="white" stroke="#666666" points="463.88,-142 329.38,-142 329.38,-89 463.88,-89 463.88,-142"/>
<text text-anchor="start" x="337.38" y="-128.5" font-family="Helvetica,sans-Serif" font-size="10.00">/github/workspace/dev</text>
<text text-anchor="start" x="337.38" y="-117.25" font-family="Helvetica,sans-Serif" font-size="10.00">_area/build/appmodel</text>
<text text-anchor="start" x="337.38" y="-106" font-family="Helvetica,sans-Serif" font-size="10.00">/codegen/include/appmodel</text>
<text text-anchor="middle" x="396.62" y="-94.75" font-family="Helvetica,sans-Serif" font-size="10.00">/MLTApplication.hpp</text>
</a>
</g>
</g>
<!-- Node1&#45;&gt;Node2 -->
<g id="edge1_Node000001_Node000002" class="edge">
<title>Node1&#45;&gt;Node2</title>
<g id="a_edge1_Node000001_Node000002"><a xlink:title=" ">
<path fill="none" stroke="#63b8ff" d="M467.59,-170.66C455.35,-161.32 442.2,-151.28 430.59,-142.42"/>
<polygon fill="#63b8ff" stroke="#63b8ff" points="465.45,-173.43 475.53,-176.71 469.7,-167.87 465.45,-173.43"/>
</a>
</g>
</g>
<!-- Node4 -->
<g id="Node000004" class="node">
<title>Node4</title>
<g id="a_Node000004"><a xlink:href="dump__dunedaq____appmodel_8cpp.html" target="_top" xlink:title=" ">
<polygon fill="white" stroke="#666666" points="141.25,-53 0,-53 0,0 141.25,0 141.25,-53"/>
<text text-anchor="start" x="8" y="-39.5" font-family="Helvetica,sans-Serif" font-size="10.00">/github/workspace/dev</text>
<text text-anchor="start" x="8" y="-28.25" font-family="Helvetica,sans-Serif" font-size="10.00">_area/build/appmodel</text>
<text text-anchor="start" x="8" y="-17" font-family="Helvetica,sans-Serif" font-size="10.00">/codegen/src/dump_dunedaq</text>
<text text-anchor="middle" x="70.62" y="-5.75" font-family="Helvetica,sans-Serif" font-size="10.00">__appmodel.cpp</text>
</a>
</g>
</g>
<!-- Node1&#45;&gt;Node4 -->
<g id="edge9_Node000001_Node000004" class="edge">
<title>Node1&#45;&gt;Node4</title>
<g id="a_edge9_Node000001_Node000004"><a xlink:title=" ">
<path fill="none" stroke="#63b8ff" d="M431.88,-189.53C383.18,-179.47 320,-163.8 266.62,-142 208.07,-118.08 145.9,-79.15 107.66,-53.43"/>
<polygon fill="#63b8ff" stroke="#63b8ff" points="431.01,-192.93 441.5,-191.48 432.4,-186.07 431.01,-192.93"/>
</a>
</g>
</g>
<!-- Node5 -->
<g id="Node000005" class="node">
<title>Node5</title>
<g id="a_Node000005"><a xlink:href="appmodel_2pybindsrc_2dal__methods_8cpp.html" target="_top" xlink:title=" ">
<polygon fill="white" stroke="#666666" points="297.75,-47.38 159.5,-47.38 159.5,-5.62 297.75,-5.62 297.75,-47.38"/>
<text text-anchor="start" x="167.5" y="-33.88" font-family="Helvetica,sans-Serif" font-size="10.00">/github/workspace/dev</text>
<text text-anchor="start" x="167.5" y="-22.62" font-family="Helvetica,sans-Serif" font-size="10.00">_area/sourcecode/appmodel</text>
<text text-anchor="middle" x="228.62" y="-11.38" font-family="Helvetica,sans-Serif" font-size="10.00">/pybindsrc/dal_methods.cpp</text>
</a>
</g>
</g>
<!-- Node1&#45;&gt;Node5 -->
<g id="edge10_Node000001_Node000005" class="edge">
<title>Node1&#45;&gt;Node5</title>
<g id="a_edge10_Node000001_Node000005"><a xlink:title=" ">
<path fill="none" stroke="#63b8ff" d="M432.02,-188.92C395.86,-179.59 353.74,-164.82 320.62,-142 284.09,-116.82 254.72,-72.97 239.65,-47.47"/>
<polygon fill="#63b8ff" stroke="#63b8ff" points="431.01,-192.27 441.56,-191.28 432.69,-185.48 431.01,-192.27"/>
</a>
</g>
</g>
<!-- Node6 -->
<g id="Node000006" class="node">
<title>Node6</title>
<g id="a_Node000006"><a xlink:href="sourcecode_2appmodel_2src_2MLTApplication_8cpp.html" target="_top" xlink:title=" ">
<polygon fill="white" stroke="#666666" points="633.75,-47.38 495.5,-47.38 495.5,-5.62 633.75,-5.62 633.75,-47.38"/>
<text text-anchor="start" x="503.5" y="-33.88" font-family="Helvetica,sans-Serif" font-size="10.00">/github/workspace/dev</text>
<text text-anchor="start" x="503.5" y="-22.62" font-family="Helvetica,sans-Serif" font-size="10.00">_area/sourcecode/appmodel</text>
<text text-anchor="middle" x="564.62" y="-11.38" font-family="Helvetica,sans-Serif" font-size="10.00">/src/MLTApplication.cpp</text>
</a>
</g>
</g>
<!-- Node1&#45;&gt;Node6 -->
<g id="edge11_Node000001_Node000006" class="edge">
<title>Node1&#45;&gt;Node6</title>
<g id="a_edge11_Node000001_Node000006"><a xlink:title=" ">
<path fill="none" stroke="#63b8ff" d="M506.53,-166.24C505.38,-143.27 506.42,-113.6 515.62,-89 521.42,-73.53 532.68,-58.94 542.95,-47.86"/>
<polygon fill="#63b8ff" stroke="#63b8ff" points="503.02,-166.33 507.19,-176.07 510.01,-165.86 503.02,-166.33"/>
</a>
</g>
</g>
<!-- Node7 -->
<g id="Node000007" class="node">
<title>Node7</title>
<g id="a_Node000007"><a xlink:href="GraphBuilder_8cpp.html" target="_top" xlink:title=" ">
<polygon fill="white" stroke="#666666" points="783,-47.38 652.25,-47.38 652.25,-5.62 783,-5.62 783,-47.38"/>
<text text-anchor="start" x="660.25" y="-33.88" font-family="Helvetica,sans-Serif" font-size="10.00">/github/workspace/dev</text>
<text text-anchor="start" x="660.25" y="-22.62" font-family="Helvetica,sans-Serif" font-size="10.00">_area/sourcecode/daqconf</text>
<text text-anchor="middle" x="717.62" y="-11.38" font-family="Helvetica,sans-Serif" font-size="10.00">/apps/GraphBuilder.cpp</text>
</a>
</g>
</g>
<!-- Node1&#45;&gt;Node7 -->
<g id="edge13_Node000001_Node000007" class="edge">
<title>Node1&#45;&gt;Node7</title>
<g id="a_edge13_Node000001_Node000007"><a xlink:title=" ">
<path fill="none" stroke="#63b8ff" d="M514.47,-166.69C518.88,-141.83 528.34,-109.88 548.62,-89 552.75,-84.76 611.18,-64 658.19,-47.76"/>
<polygon fill="#63b8ff" stroke="#63b8ff" points="511.04,-165.98 512.96,-176.39 517.95,-167.05 511.04,-165.98"/>
</a>
</g>
</g>
<!-- Node8 -->
<g id="Node000008" class="node">
<title>Node8</title>
<g id="a_Node000008"><a xlink:href="src_2MLTApplication_8hpp.html" target="_top" xlink:title=" ">
<polygon fill="white" stroke="#666666" points="719.38,-136.38 557.88,-136.38 557.88,-94.62 719.38,-94.62 719.38,-136.38"/>
<text text-anchor="start" x="565.88" y="-122.88" font-family="Helvetica,sans-Serif" font-size="10.00">/github/workspace/dev</text>
<text text-anchor="start" x="565.88" y="-111.62" font-family="Helvetica,sans-Serif" font-size="10.00">_area/build/appmodel</text>
<text text-anchor="middle" x="638.62" y="-100.38" font-family="Helvetica,sans-Serif" font-size="10.00">/codegen/src/MLTApplication.hpp</text>
</a>
</g>
</g>
<!-- Node1&#45;&gt;Node8 -->
<g id="edge7_Node000001_Node000008" class="edge">
<title>Node1&#45;&gt;Node8</title>
<g id="a_edge7_Node000001_Node000008"><a xlink:title=" ">
<path fill="none" stroke="#63b8ff" d="M557.98,-171.32C575.08,-159.69 593.9,-146.9 609.04,-136.61"/>
<polygon fill="#63b8ff" stroke="#63b8ff" points="556.24,-168.27 549.93,-176.78 560.17,-174.06 556.24,-168.27"/>
</a>
</g>
</g>
<!-- Node9 -->
<g id="Node000009" class="node">
<title>Node9</title>
<g id="a_Node000009"><a xlink:href="build_2appmodel_2codegen_2src_2TriggerApplication_8cpp.html" target="_top" xlink:title=" ">
<polygon fill="white" stroke="#666666" points="908.25,-136.38 737,-136.38 737,-94.62 908.25,-94.62 908.25,-136.38"/>
<text text-anchor="start" x="745" y="-122.88" font-family="Helvetica,sans-Serif" font-size="10.00">/github/workspace/dev</text>
<text text-anchor="start" x="745" y="-111.62" font-family="Helvetica,sans-Serif" font-size="10.00">_area/build/appmodel</text>
<text text-anchor="middle" x="822.62" y="-100.38" font-family="Helvetica,sans-Serif" font-size="10.00">/codegen/src/TriggerApplication.cpp</text>
</a>
</g>
</g>
<!-- Node1&#45;&gt;Node9 -->
<g id="edge8_Node000001_Node000009" class="edge">
<title>Node1&#45;&gt;Node9</title>
<g id="a_edge8_Node000001_Node000009"><a xlink:title=" ">
<path fill="none" stroke="#63b8ff" d="M589.25,-181.58C638.48,-167.85 701.48,-150.28 749.62,-136.86"/>
<polygon fill="#63b8ff" stroke="#63b8ff" points="588.47,-178.16 579.78,-184.22 590.35,-184.9 588.47,-178.16"/>
</a>
</g>
</g>
<!-- Node10 -->
<g id="Node000010" class="node">
<title>Node10</title>
<g id="a_Node000010"><a xlink:href="sourcecode_2appmodel_2src_2TriggerApplication_8cpp.html" target="_top" xlink:title=" ">
<polygon fill="white" stroke="#666666" points="1064.75,-136.38 926.5,-136.38 926.5,-94.62 1064.75,-94.62 1064.75,-136.38"/>
<text text-anchor="start" x="934.5" y="-122.88" font-family="Helvetica,sans-Serif" font-size="10.00">/github/workspace/dev</text>
<text text-anchor="start" x="934.5" y="-111.62" font-family="Helvetica,sans-Serif" font-size="10.00">_area/sourcecode/appmodel</text>
<text text-anchor="middle" x="995.62" y="-100.38" font-family="Helvetica,sans-Serif" font-size="10.00">/src/TriggerApplication.cpp</text>
</a>
</g>
</g>
<!-- Node1&#45;&gt;Node10 -->
<g id="edge12_Node000001_Node000010" class="edge">
<title>Node1&#45;&gt;Node10</title>
<g id="a_edge12_Node000001_Node000010"><a xlink:title=" ">
<path fill="none" stroke="#63b8ff" d="M589.56,-195.5C672.11,-186.23 805.06,-168.71 917.62,-142 924,-140.49 930.6,-138.69 937.15,-136.77"/>
<polygon fill="#63b8ff" stroke="#63b8ff" points="589.32,-192.01 579.76,-196.59 590.09,-198.97 589.32,-192.01"/>
</a>
</g>
</g>
<!-- Node3 -->
<g id="Node000003" class="node">
<title>Node3</title>
<g id="a_Node000003"><a xlink:href="build_2appmodel_2codegen_2src_2MLTApplication_8cpp.html" target="_top" xlink:title=" ">
<polygon fill="white" stroke="#666666" points="477.38,-47.38 315.88,-47.38 315.88,-5.62 477.38,-5.62 477.38,-47.38"/>
<text text-anchor="start" x="323.88" y="-33.88" font-family="Helvetica,sans-Serif" font-size="10.00">/github/workspace/dev</text>
<text text-anchor="start" x="323.88" y="-22.62" font-family="Helvetica,sans-Serif" font-size="10.00">_area/build/appmodel</text>
<text text-anchor="middle" x="396.62" y="-11.38" font-family="Helvetica,sans-Serif" font-size="10.00">/codegen/src/MLTApplication.cpp</text>
</a>
</g>
</g>
<!-- Node2&#45;&gt;Node3 -->
<g id="edge2_Node000002_Node000003" class="edge">
<title>Node2&#45;&gt;Node3</title>
<g id="a_edge2_Node000002_Node000003"><a xlink:title=" ">
<path fill="none" stroke="#63b8ff" d="M396.62,-77.63C396.62,-67.38 396.62,-56.62 396.62,-47.71"/>
<polygon fill="#63b8ff" stroke="#63b8ff" points="393.13,-77.35 396.63,-87.35 400.13,-77.35 393.13,-77.35"/>
</a>
</g>
</g>
<!-- Node2&#45;&gt;Node4 -->
<g id="edge3_Node000002_Node000004" class="edge">
<title>Node2&#45;&gt;Node4</title>
<g id="a_edge3_Node000002_Node000004"><a xlink:title=" ">
<path fill="none" stroke="#63b8ff" d="M317.93,-96.18C269.48,-84.56 206.22,-68.79 150.62,-53 147.68,-52.16 144.68,-51.29 141.65,-50.4"/>
<polygon fill="#63b8ff" stroke="#63b8ff" points="316.96,-99.54 327.5,-98.46 318.59,-92.73 316.96,-99.54"/>
</a>
</g>
</g>
<!-- Node2&#45;&gt;Node5 -->
<g id="edge4_Node000002_Node000005" class="edge">
<title>Node2&#45;&gt;Node5</title>
<g id="a_edge4_Node000002_Node000005"><a xlink:title=" ">
<path fill="none" stroke="#63b8ff" d="M336.69,-83.46C313.76,-71.59 288.21,-58.36 267.72,-47.75"/>
<polygon fill="#63b8ff" stroke="#63b8ff" points="334.84,-86.45 345.33,-87.94 338.06,-80.23 334.84,-86.45"/>
</a>
</g>
</g>
<!-- Node2&#45;&gt;Node6 -->
<g id="edge5_Node000002_Node000006" class="edge">
<title>Node2&#45;&gt;Node6</title>
<g id="a_edge5_Node000002_Node000006"><a xlink:title=" ">
<path fill="none" stroke="#63b8ff" d="M456.56,-83.46C479.49,-71.59 505.04,-58.36 525.53,-47.75"/>
<polygon fill="#63b8ff" stroke="#63b8ff" points="455.19,-80.23 447.92,-87.94 458.41,-86.45 455.19,-80.23"/>
</a>
</g>
</g>
<!-- Node2&#45;&gt;Node7 -->
<g id="edge6_Node000002_Node000007" class="edge">
<title>Node2&#45;&gt;Node7</title>
<g id="a_edge6_Node000002_Node000007"><a xlink:title=" ">
<path fill="none" stroke="#63b8ff" d="M475.17,-96.61C523.7,-85.13 587.09,-69.35 642.62,-53 648.17,-51.37 653.91,-49.59 659.63,-47.75"/>
<polygon fill="#63b8ff" stroke="#63b8ff" points="474.52,-93.17 465.59,-98.87 476.12,-99.99 474.52,-93.17"/>
</a>
</g>
</g>
</g>
</svg>
