<?xml version="1.0" encoding="UTF-8" standalone="no"?>
<!DOCTYPE svg PUBLIC "-//W3C//DTD SVG 1.1//EN"
 "http://www.w3.org/Graphics/SVG/1.1/DTD/svg11.dtd">
<!-- Generated by graphviz version 9.0.0 (20230911.1827)
 -->
<!-- Title: /github/workspace/dev_area/build/appmodel/codegen/include/appmodel/DPDKReceiver.hpp Pages: 1 -->
<svg width="632pt" height="228pt"
 viewBox="0.00 0.00 632.38 227.75" xmlns="http://www.w3.org/2000/svg" xmlns:xlink="http://www.w3.org/1999/xlink">
<g id="graph0" class="graph" transform="scale(1 1) rotate(0) translate(4 223.75)">
<title>/github/workspace/dev_area/build/appmodel/codegen/include/appmodel/DPDKReceiver.hpp</title>
<!-- Node1 -->
<g id="Node000001" class="node">
<title>Node1</title>
<g id="a_Node000001"><a xlink:title=" ">
<polygon fill="#999999" stroke="#666666" points="393.5,-219.75 259,-219.75 259,-166.75 393.5,-166.75 393.5,-219.75"/>
<text text-anchor="start" x="267" y="-206.25" font-family="Helvetica,sans-Serif" font-size="10.00">/github/workspace/dev</text>
<text text-anchor="start" x="267" y="-195" font-family="Helvetica,sans-Serif" font-size="10.00">_area/build/appmodel</text>
<text text-anchor="start" x="267" y="-183.75" font-family="Helvetica,sans-Serif" font-size="10.00">/codegen/include/appmodel</text>
<text text-anchor="middle" x="326.25" y="-172.5" font-family="Helvetica,sans-Serif" font-size="10.00">/DPDKReceiver.hpp</text>
</a>
</g>
</g>
<!-- Node2 -->
<g id="Node000002" class="node">
<title>Node2</title>
<g id="a_Node000002"><a xlink:href="DPDKReceiver_8cpp.html" target="_top" xlink:title=" ">
<polygon fill="white" stroke="#666666" points="158.5,-125.12 0,-125.12 0,-83.38 158.5,-83.38 158.5,-125.12"/>
<text text-anchor="start" x="8" y="-111.62" font-family="Helvetica,sans-Serif" font-size="10.00">/github/workspace/dev</text>
<text text-anchor="start" x="8" y="-100.38" font-family="Helvetica,sans-Serif" font-size="10.00">_area/build/appmodel</text>
<text text-anchor="middle" x="79.25" y="-89.12" font-family="Helvetica,sans-Serif" font-size="10.00">/codegen/src/DPDKReceiver.cpp</text>
</a>
</g>
</g>
<!-- Node1&#45;&gt;Node2 -->
<g id="edge1_Node000001_Node000002" class="edge">
<title>Node1&#45;&gt;Node2</title>
<g id="a_edge1_Node000001_Node000002"><a xlink:title=" ">
<path fill="none" stroke="#63b8ff" d="M248.27,-164.78C212.23,-152.09 170.17,-137.27 137.02,-125.6"/>
<polygon fill="#63b8ff" stroke="#63b8ff" points="246.73,-167.95 257.33,-167.97 249.06,-161.35 246.73,-167.95"/>
</a>
</g>
</g>
<!-- Node3 -->
<g id="Node000003" class="node">
<title>Node3</title>
<g id="a_Node000003"><a xlink:href="dump__dunedaq____appmodel_8cpp.html" target="_top" xlink:title=" ">
<polygon fill="white" stroke="#666666" points="317.88,-130.75 176.62,-130.75 176.62,-77.75 317.88,-77.75 317.88,-130.75"/>
<text text-anchor="start" x="184.62" y="-117.25" font-family="Helvetica,sans-Serif" font-size="10.00">/github/workspace/dev</text>
<text text-anchor="start" x="184.62" y="-106" font-family="Helvetica,sans-Serif" font-size="10.00">_area/build/appmodel</text>
<text text-anchor="start" x="184.62" y="-94.75" font-family="Helvetica,sans-Serif" font-size="10.00">/codegen/src/dump_dunedaq</text>
<text text-anchor="middle" x="247.25" y="-83.5" font-family="Helvetica,sans-Serif" font-size="10.00">__appmodel.cpp</text>
</a>
</g>
</g>
<!-- Node1&#45;&gt;Node3 -->
<g id="edge2_Node000001_Node000003" class="edge">
<title>Node1&#45;&gt;Node3</title>
<g id="a_edge2_Node000001_Node000003"><a xlink:title=" ">
<path fill="none" stroke="#63b8ff" d="M295.31,-158.18C287.1,-149.13 278.37,-139.52 270.63,-131"/>
<polygon fill="#63b8ff" stroke="#63b8ff" points="292.64,-160.45 301.96,-165.5 297.83,-155.74 292.64,-160.45"/>
</a>
</g>
</g>
<!-- Node4 -->
<g id="Node000004" class="node">
<title>Node4</title>
<g id="a_Node000004"><a xlink:href="sourcecode_2appmodel_2src_2ReadoutApplication_8cpp.html" target="_top" xlink:title=" ">
<polygon fill="white" stroke="#666666" points="474.38,-125.12 336.12,-125.12 336.12,-83.38 474.38,-83.38 474.38,-125.12"/>
<text text-anchor="start" x="344.12" y="-111.62" font-family="Helvetica,sans-Serif" font-size="10.00">/github/workspace/dev</text>
<text text-anchor="start" x="344.12" y="-100.38" font-family="Helvetica,sans-Serif" font-size="10.00">_area/sourcecode/appmodel</text>
<text text-anchor="middle" x="405.25" y="-89.12" font-family="Helvetica,sans-Serif" font-size="10.00">/src/ReadoutApplication.cpp</text>
</a>
</g>
</g>
<!-- Node1&#45;&gt;Node4 -->
<g id="edge3_Node000001_Node000004" class="edge">
<title>Node1&#45;&gt;Node4</title>
<g id="a_edge3_Node000001_Node000004"><a xlink:title=" ">
<path fill="none" stroke="#63b8ff" d="M357.04,-158.34C367.13,-147.23 378.02,-135.23 386.9,-125.46"/>
<polygon fill="#63b8ff" stroke="#63b8ff" points="354.67,-155.74 350.54,-165.5 359.86,-160.45 354.67,-155.74"/>
</a>
</g>
</g>
<!-- Node5 -->
<g id="Node000005" class="node">
<title>Node5</title>
<g id="a_Node000005"><a xlink:href="IfaceWrapper_8hpp.html" target="_top" xlink:title=" ">
<polygon fill="white" stroke="#666666" points="624.38,-125.12 492.12,-125.12 492.12,-83.38 624.38,-83.38 624.38,-125.12"/>
<text text-anchor="start" x="500.12" y="-111.62" font-family="Helvetica,sans-Serif" font-size="10.00">/github/workspace/dev</text>
<text text-anchor="start" x="500.12" y="-100.38" font-family="Helvetica,sans-Serif" font-size="10.00">_area/sourcecode/dpdklibs</text>
<text text-anchor="middle" x="558.25" y="-89.12" font-family="Helvetica,sans-Serif" font-size="10.00">/src/IfaceWrapper.hpp</text>
</a>
</g>
</g>
<!-- Node1&#45;&gt;Node5 -->
<g id="edge4_Node000001_Node000005" class="edge">
<title>Node1&#45;&gt;Node5</title>
<g id="a_edge4_Node000001_Node000005"><a xlink:title=" ">
<path fill="none" stroke="#63b8ff" d="M404.43,-162.93C437.17,-150.65 474.42,-136.69 504.06,-125.57"/>
<polygon fill="#63b8ff" stroke="#63b8ff" points="403.53,-159.53 395.39,-166.32 405.99,-166.09 403.53,-159.53"/>
</a>
</g>
</g>
<!-- Node6 -->
<g id="Node000006" class="node">
<title>Node6</title>
<g id="a_Node000006"><a xlink:href="IfaceWrapper_8cpp.html" target="_top" xlink:title=" ">
<polygon fill="white" stroke="#666666" points="624.38,-41.75 492.12,-41.75 492.12,0 624.38,0 624.38,-41.75"/>
<text text-anchor="start" x="500.12" y="-28.25" font-family="Helvetica,sans-Serif" font-size="10.00">/github/workspace/dev</text>
<text text-anchor="start" x="500.12" y="-17" font-family="Helvetica,sans-Serif" font-size="10.00">_area/sourcecode/dpdklibs</text>
<text text-anchor="middle" x="558.25" y="-5.75" font-family="Helvetica,sans-Serif" font-size="10.00">/src/IfaceWrapper.cpp</text>
</a>
</g>
</g>
<!-- Node5&#45;&gt;Node6 -->
<g id="edge5_Node000005_Node000006" class="edge">
<title>Node5&#45;&gt;Node6</title>
<g id="a_edge5_Node000005_Node000006"><a xlink:title=" ">
<path fill="none" stroke="#63b8ff" d="M558.25,-71.89C558.25,-61.87 558.25,-51.05 558.25,-42.04"/>
<polygon fill="#63b8ff" stroke="#63b8ff" points="554.75,-71.62 558.25,-81.62 561.75,-71.62 554.75,-71.62"/>
</a>
</g>
</g>
</g>
</svg>
