<?xml version="1.0" encoding="UTF-8" standalone="no"?>
<!DOCTYPE svg PUBLIC "-//W3C//DTD SVG 1.1//EN"
 "http://www.w3.org/Graphics/SVG/1.1/DTD/svg11.dtd">
<!-- Generated by graphviz version 9.0.0 (20230911.1827)
 -->
<!-- Title: /github/workspace/dev_area/build/appmodel/codegen/include/appmodel/NetworkConnectionDescriptor.hpp Pages: 1 -->
<svg width="1952pt" height="150pt"
 viewBox="0.00 0.00 1951.50 150.00" xmlns="http://www.w3.org/2000/svg" xmlns:xlink="http://www.w3.org/1999/xlink">
<g id="graph0" class="graph" transform="scale(1 1) rotate(0) translate(4 146)">
<title>/github/workspace/dev_area/build/appmodel/codegen/include/appmodel/NetworkConnectionDescriptor.hpp</title>
<!-- Node1 -->
<g id="Node000001" class="node">
<title>Node1</title>
<g id="a_Node000001"><a xlink:title=" ">
<polygon fill="#999999" stroke="#666666" points="1064.75,-142 898,-142 898,-89 1064.75,-89 1064.75,-142"/>
<text text-anchor="start" x="906" y="-128.5" font-family="Helvetica,sans-Serif" font-size="10.00">/github/workspace/dev</text>
<text text-anchor="start" x="906" y="-117.25" font-family="Helvetica,sans-Serif" font-size="10.00">_area/build/appmodel</text>
<text text-anchor="start" x="906" y="-106" font-family="Helvetica,sans-Serif" font-size="10.00">/codegen/include/appmodel</text>
<text text-anchor="middle" x="981.38" y="-94.75" font-family="Helvetica,sans-Serif" font-size="10.00">/NetworkConnectionDescriptor.hpp</text>
</a>
</g>
</g>
<!-- Node2 -->
<g id="Node000002" class="node">
<title>Node2</title>
<g id="a_Node000002"><a xlink:href="NetworkConnectionDescriptor_8cpp.html" target="_top" xlink:title=" ">
<polygon fill="white" stroke="#666666" points="160.75,-53 0,-53 0,0 160.75,0 160.75,-53"/>
<text text-anchor="start" x="8" y="-39.5" font-family="Helvetica,sans-Serif" font-size="10.00">/github/workspace/dev</text>
<text text-anchor="start" x="8" y="-28.25" font-family="Helvetica,sans-Serif" font-size="10.00">_area/build/appmodel</text>
<text text-anchor="start" x="8" y="-17" font-family="Helvetica,sans-Serif" font-size="10.00">/codegen/src/NetworkConnection</text>
<text text-anchor="middle" x="80.38" y="-5.75" font-family="Helvetica,sans-Serif" font-size="10.00">Descriptor.cpp</text>
</a>
</g>
</g>
<!-- Node1&#45;&gt;Node2 -->
<g id="edge1_Node000001_Node000002" class="edge">
<title>Node1&#45;&gt;Node2</title>
<g id="a_edge1_Node000001_Node000002"><a xlink:title=" ">
<path fill="none" stroke="#63b8ff" d="M886.36,-113.44C734.11,-110.38 426.55,-98.53 170.38,-53 167.34,-52.46 164.25,-51.86 161.15,-51.21"/>
<polygon fill="#63b8ff" stroke="#63b8ff" points="885.92,-116.94 895.99,-113.63 886.06,-109.94 885.92,-116.94"/>
</a>
</g>
</g>
<!-- Node3 -->
<g id="Node000003" class="node">
<title>Node3</title>
<g id="a_Node000003"><a xlink:href="NetworkConnectionRule_8cpp.html" target="_top" xlink:title=" ">
<polygon fill="white" stroke="#666666" points="339.75,-53 179,-53 179,0 339.75,0 339.75,-53"/>
<text text-anchor="start" x="187" y="-39.5" font-family="Helvetica,sans-Serif" font-size="10.00">/github/workspace/dev</text>
<text text-anchor="start" x="187" y="-28.25" font-family="Helvetica,sans-Serif" font-size="10.00">_area/build/appmodel</text>
<text text-anchor="start" x="187" y="-17" font-family="Helvetica,sans-Serif" font-size="10.00">/codegen/src/NetworkConnection</text>
<text text-anchor="middle" x="259.38" y="-5.75" font-family="Helvetica,sans-Serif" font-size="10.00">Rule.cpp</text>
</a>
</g>
</g>
<!-- Node1&#45;&gt;Node3 -->
<g id="edge2_Node000001_Node000003" class="edge">
<title>Node1&#45;&gt;Node3</title>
<g id="a_edge2_Node000001_Node000003"><a xlink:title=" ">
<path fill="none" stroke="#63b8ff" d="M886.38,-110.67C761.88,-104.42 537.18,-88.91 348.38,-53 345.69,-52.49 342.97,-51.93 340.23,-51.34"/>
<polygon fill="#63b8ff" stroke="#63b8ff" points="886.07,-114.16 896.23,-111.15 886.41,-107.17 886.07,-114.16"/>
</a>
</g>
</g>
<!-- Node4 -->
<g id="Node000004" class="node">
<title>Node4</title>
<g id="a_Node000004"><a xlink:href="dump__dunedaq____appmodel_8cpp.html" target="_top" xlink:title=" ">
<polygon fill="white" stroke="#666666" points="499,-53 357.75,-53 357.75,0 499,0 499,-53"/>
<text text-anchor="start" x="365.75" y="-39.5" font-family="Helvetica,sans-Serif" font-size="10.00">/github/workspace/dev</text>
<text text-anchor="start" x="365.75" y="-28.25" font-family="Helvetica,sans-Serif" font-size="10.00">_area/build/appmodel</text>
<text text-anchor="start" x="365.75" y="-17" font-family="Helvetica,sans-Serif" font-size="10.00">/codegen/src/dump_dunedaq</text>
<text text-anchor="middle" x="428.38" y="-5.75" font-family="Helvetica,sans-Serif" font-size="10.00">__appmodel.cpp</text>
</a>
</g>
</g>
<!-- Node1&#45;&gt;Node4 -->
<g id="edge3_Node000001_Node000004" class="edge">
<title>Node1&#45;&gt;Node4</title>
<g id="a_edge3_Node000001_Node000004"><a xlink:title=" ">
<path fill="none" stroke="#63b8ff" d="M886.27,-107.18C790.13,-98.6 637.7,-81.78 508.38,-53 505.39,-52.34 502.35,-51.61 499.29,-50.83"/>
<polygon fill="#63b8ff" stroke="#63b8ff" points="885.93,-110.66 896.2,-108.05 886.55,-103.69 885.93,-110.66"/>
</a>
</g>
</g>
<!-- Node5 -->
<g id="Node000005" class="node">
<title>Node5</title>
<g id="a_Node000005"><a xlink:href="sourcecode_2appmodel_2src_2DFApplication_8cpp.html" target="_top" xlink:title=" ">
<polygon fill="white" stroke="#666666" points="655.5,-47.38 517.25,-47.38 517.25,-5.62 655.5,-5.62 655.5,-47.38"/>
<text text-anchor="start" x="525.25" y="-33.88" font-family="Helvetica,sans-Serif" font-size="10.00">/github/workspace/dev</text>
<text text-anchor="start" x="525.25" y="-22.62" font-family="Helvetica,sans-Serif" font-size="10.00">_area/sourcecode/appmodel</text>
<text text-anchor="middle" x="586.38" y="-11.38" font-family="Helvetica,sans-Serif" font-size="10.00">/src/DFApplication.cpp</text>
</a>
</g>
</g>
<!-- Node1&#45;&gt;Node5 -->
<g id="edge4_Node000001_Node000005" class="edge">
<title>Node1&#45;&gt;Node5</title>
<g id="a_edge4_Node000001_Node000005"><a xlink:title=" ">
<path fill="none" stroke="#63b8ff" d="M886.47,-99.27C823.13,-88.32 738.22,-72.15 664.38,-53 658.31,-51.43 652.02,-49.64 645.77,-47.76"/>
<polygon fill="#63b8ff" stroke="#63b8ff" points="885.7,-102.69 896.15,-100.93 886.89,-95.79 885.7,-102.69"/>
</a>
</g>
</g>
<!-- Node6 -->
<g id="Node000006" class="node">
<title>Node6</title>
<g id="a_Node000006"><a xlink:href="sourcecode_2appmodel_2src_2DFOApplication_8cpp.html" target="_top" xlink:title=" ">
<polygon fill="white" stroke="#666666" points="811.5,-47.38 673.25,-47.38 673.25,-5.62 811.5,-5.62 811.5,-47.38"/>
<text text-anchor="start" x="681.25" y="-33.88" font-family="Helvetica,sans-Serif" font-size="10.00">/github/workspace/dev</text>
<text text-anchor="start" x="681.25" y="-22.62" font-family="Helvetica,sans-Serif" font-size="10.00">_area/sourcecode/appmodel</text>
<text text-anchor="middle" x="742.38" y="-11.38" font-family="Helvetica,sans-Serif" font-size="10.00">/src/DFOApplication.cpp</text>
</a>
</g>
</g>
<!-- Node1&#45;&gt;Node6 -->
<g id="edge5_Node000001_Node000006" class="edge">
<title>Node1&#45;&gt;Node6</title>
<g id="a_edge5_Node000001_Node000006"><a xlink:title=" ">
<path fill="none" stroke="#63b8ff" d="M899.33,-84.63C865.98,-72.5 828.31,-58.78 798.23,-47.83"/>
<polygon fill="#63b8ff" stroke="#63b8ff" points="897.97,-87.87 908.57,-88 900.37,-81.29 897.97,-87.87"/>
</a>
</g>
</g>
<!-- Node7 -->
<g id="Node000007" class="node">
<title>Node7</title>
<g id="a_Node000007"><a xlink:href="sourcecode_2appmodel_2src_2FakeDataApplication_8cpp.html" target="_top" xlink:title=" ">
<polygon fill="white" stroke="#666666" points="973.12,-47.38 829.62,-47.38 829.62,-5.62 973.12,-5.62 973.12,-47.38"/>
<text text-anchor="start" x="837.62" y="-33.88" font-family="Helvetica,sans-Serif" font-size="10.00">/github/workspace/dev</text>
<text text-anchor="start" x="837.62" y="-22.62" font-family="Helvetica,sans-Serif" font-size="10.00">_area/sourcecode/appmodel</text>
<text text-anchor="middle" x="901.38" y="-11.38" font-family="Helvetica,sans-Serif" font-size="10.00">/src/FakeDataApplication.cpp</text>
</a>
</g>
</g>
<!-- Node1&#45;&gt;Node7 -->
<g id="edge6_Node000001_Node000007" class="edge">
<title>Node1&#45;&gt;Node7</title>
<g id="a_edge6_Node000001_Node000007"><a xlink:title=" ">
<path fill="none" stroke="#63b8ff" d="M950.19,-80.59C939.97,-69.48 928.95,-57.48 919.96,-47.71"/>
<polygon fill="#63b8ff" stroke="#63b8ff" points="947.44,-82.76 956.78,-87.75 952.59,-78.02 947.44,-82.76"/>
</a>
</g>
</g>
<!-- Node8 -->
<g id="Node000008" class="node">
<title>Node8</title>
<g id="a_Node000008"><a xlink:href="sourcecode_2appmodel_2src_2FakeHSIApplication_8cpp.html" target="_top" xlink:title=" ">
<polygon fill="white" stroke="#666666" points="1131.62,-47.38 991.12,-47.38 991.12,-5.62 1131.62,-5.62 1131.62,-47.38"/>
<text text-anchor="start" x="999.12" y="-33.88" font-family="Helvetica,sans-Serif" font-size="10.00">/github/workspace/dev</text>
<text text-anchor="start" x="999.12" y="-22.62" font-family="Helvetica,sans-Serif" font-size="10.00">_area/sourcecode/appmodel</text>
<text text-anchor="middle" x="1061.38" y="-11.38" font-family="Helvetica,sans-Serif" font-size="10.00">/src/FakeHSIApplication.cpp</text>
</a>
</g>
</g>
<!-- Node1&#45;&gt;Node8 -->
<g id="edge7_Node000001_Node000008" class="edge">
<title>Node1&#45;&gt;Node8</title>
<g id="a_edge7_Node000001_Node000008"><a xlink:title=" ">
<path fill="none" stroke="#63b8ff" d="M1012.56,-80.59C1022.78,-69.48 1033.8,-57.48 1042.79,-47.71"/>
<polygon fill="#63b8ff" stroke="#63b8ff" points="1010.16,-78.02 1005.97,-87.75 1015.31,-82.76 1010.16,-78.02"/>
</a>
</g>
</g>
<!-- Node9 -->
<g id="Node000009" class="node">
<title>Node9</title>
<g id="a_Node000009"><a xlink:href="sourcecode_2appmodel_2src_2HSIEventToTCApplication_8cpp.html" target="_top" xlink:title=" ">
<polygon fill="white" stroke="#666666" points="1317.12,-47.38 1149.62,-47.38 1149.62,-5.62 1317.12,-5.62 1317.12,-47.38"/>
<text text-anchor="start" x="1157.62" y="-33.88" font-family="Helvetica,sans-Serif" font-size="10.00">/github/workspace/dev</text>
<text text-anchor="start" x="1157.62" y="-22.62" font-family="Helvetica,sans-Serif" font-size="10.00">_area/sourcecode/appmodel</text>
<text text-anchor="middle" x="1233.38" y="-11.38" font-family="Helvetica,sans-Serif" font-size="10.00">/src/HSIEventToTCApplication.cpp</text>
</a>
</g>
</g>
<!-- Node1&#45;&gt;Node9 -->
<g id="edge8_Node000001_Node000009" class="edge">
<title>Node1&#45;&gt;Node9</title>
<g id="a_edge8_Node000001_Node000009"><a xlink:title=" ">
<path fill="none" stroke="#63b8ff" d="M1067.43,-84.79C1102.7,-72.61 1142.63,-58.83 1174.48,-47.83"/>
<polygon fill="#63b8ff" stroke="#63b8ff" points="1066.38,-81.45 1058.07,-88.02 1068.67,-88.07 1066.38,-81.45"/>
</a>
</g>
</g>
<!-- Node10 -->
<g id="Node000010" class="node">
<title>Node10</title>
<g id="a_Node000010"><a xlink:href="sourcecode_2appmodel_2src_2MLTApplication_8cpp.html" target="_top" xlink:title=" ">
<polygon fill="white" stroke="#666666" points="1473.5,-47.38 1335.25,-47.38 1335.25,-5.62 1473.5,-5.62 1473.5,-47.38"/>
<text text-anchor="start" x="1343.25" y="-33.88" font-family="Helvetica,sans-Serif" font-size="10.00">/github/workspace/dev</text>
<text text-anchor="start" x="1343.25" y="-22.62" font-family="Helvetica,sans-Serif" font-size="10.00">_area/sourcecode/appmodel</text>
<text text-anchor="middle" x="1404.38" y="-11.38" font-family="Helvetica,sans-Serif" font-size="10.00">/src/MLTApplication.cpp</text>
</a>
</g>
</g>
<!-- Node1&#45;&gt;Node10 -->
<g id="edge9_Node000001_Node000010" class="edge">
<title>Node1&#45;&gt;Node10</title>
<g id="a_edge9_Node000001_Node000010"><a xlink:title=" ">
<path fill="none" stroke="#63b8ff" d="M1075.98,-101.28C1145.73,-90.65 1242.64,-74.04 1326.38,-53 1332.45,-51.47 1338.75,-49.72 1345,-47.86"/>
<polygon fill="#63b8ff" stroke="#63b8ff" points="1075.88,-97.75 1066.52,-102.71 1076.93,-104.68 1075.88,-97.75"/>
</a>
</g>
</g>
<!-- Node11 -->
<g id="Node000011" class="node">
<title>Node11</title>
<g id="a_Node000011"><a xlink:href="sourcecode_2appmodel_2src_2ReadoutApplication_8cpp.html" target="_top" xlink:title=" ">
<polygon fill="white" stroke="#666666" points="1629.5,-47.38 1491.25,-47.38 1491.25,-5.62 1629.5,-5.62 1629.5,-47.38"/>
<text text-anchor="start" x="1499.25" y="-33.88" font-family="Helvetica,sans-Serif" font-size="10.00">/github/workspace/dev</text>
<text text-anchor="start" x="1499.25" y="-22.62" font-family="Helvetica,sans-Serif" font-size="10.00">_area/sourcecode/appmodel</text>
<text text-anchor="middle" x="1560.38" y="-11.38" font-family="Helvetica,sans-Serif" font-size="10.00">/src/ReadoutApplication.cpp</text>
</a>
</g>
</g>
<!-- Node1&#45;&gt;Node11 -->
<g id="edge10_Node000001_Node000011" class="edge">
<title>Node1&#45;&gt;Node11</title>
<g id="a_edge10_Node000001_Node000011"><a xlink:title=" ">
<path fill="none" stroke="#63b8ff" d="M1076.55,-108.33C1178.02,-100.48 1342.97,-84.03 1482.38,-53 1488.91,-51.54 1495.68,-49.76 1502.37,-47.83"/>
<polygon fill="#63b8ff" stroke="#63b8ff" points="1076.32,-104.84 1066.61,-109.09 1076.85,-111.82 1076.32,-104.84"/>
</a>
</g>
</g>
<!-- Node12 -->
<g id="Node000012" class="node">
<title>Node12</title>
<g id="a_Node000012"><a xlink:href="TPWriterApplication_8cpp.html" target="_top" xlink:title=" ">
<polygon fill="white" stroke="#666666" points="1787.25,-47.38 1647.5,-47.38 1647.5,-5.62 1787.25,-5.62 1787.25,-47.38"/>
<text text-anchor="start" x="1655.5" y="-33.88" font-family="Helvetica,sans-Serif" font-size="10.00">/github/workspace/dev</text>
<text text-anchor="start" x="1655.5" y="-22.62" font-family="Helvetica,sans-Serif" font-size="10.00">_area/sourcecode/appmodel</text>
<text text-anchor="middle" x="1717.38" y="-11.38" font-family="Helvetica,sans-Serif" font-size="10.00">/src/TPWriterApplication.cpp</text>
</a>
</g>
</g>
<!-- Node1&#45;&gt;Node12 -->
<g id="edge11_Node000001_Node000012" class="edge">
<title>Node1&#45;&gt;Node12</title>
<g id="a_edge11_Node000001_Node000012"><a xlink:title=" ">
<path fill="none" stroke="#63b8ff" d="M1076.56,-112.11C1205.22,-107.4 1441.22,-93.54 1638.38,-53 1645.29,-51.58 1652.46,-49.77 1659.52,-47.77"/>
<polygon fill="#63b8ff" stroke="#63b8ff" points="1076.59,-108.6 1066.72,-112.46 1076.84,-115.6 1076.59,-108.6"/>
</a>
</g>
</g>
<!-- Node13 -->
<g id="Node000013" class="node">
<title>Node13</title>
<g id="a_Node000013"><a xlink:href="sourcecode_2appmodel_2src_2TriggerApplication_8cpp.html" target="_top" xlink:title=" ">
<polygon fill="white" stroke="#666666" points="1943.5,-47.38 1805.25,-47.38 1805.25,-5.62 1943.5,-5.62 1943.5,-47.38"/>
<text text-anchor="start" x="1813.25" y="-33.88" font-family="Helvetica,sans-Serif" font-size="10.00">/github/workspace/dev</text>
<text text-anchor="start" x="1813.25" y="-22.62" font-family="Helvetica,sans-Serif" font-size="10.00">_area/sourcecode/appmodel</text>
<text text-anchor="middle" x="1874.38" y="-11.38" font-family="Helvetica,sans-Serif" font-size="10.00">/src/TriggerApplication.cpp</text>
</a>
</g>
</g>
<!-- Node1&#45;&gt;Node13 -->
<g id="edge12_Node000001_Node000013" class="edge">
<title>Node1&#45;&gt;Node13</title>
<g id="a_edge12_Node000001_Node000013"><a xlink:title=" ">
<path fill="none" stroke="#63b8ff" d="M1076.17,-114.7C1229.17,-113.39 1539.39,-103.93 1796.38,-53 1803.36,-51.62 1810.6,-49.8 1817.71,-47.77"/>
<polygon fill="#63b8ff" stroke="#63b8ff" points="1076.47,-111.2 1066.49,-114.77 1076.52,-118.2 1076.47,-111.2"/>
</a>
</g>
</g>
</g>
</svg>
