<?xml version="1.0" encoding="UTF-8" standalone="no"?>
<!DOCTYPE svg PUBLIC "-//W3C//DTD SVG 1.1//EN"
 "http://www.w3.org/Graphics/SVG/1.1/DTD/svg11.dtd">
<!-- Generated by graphviz version 9.0.0 (20230911.1827)
 -->
<!-- Title: /github/workspace/dev_area/build/timinglibs/codegen/include/timinglibs/dal/TimingMasterControllerConf.hpp Pages: 1 -->
<svg width="538pt" height="228pt"
 viewBox="0.00 0.00 538.12 227.75" xmlns="http://www.w3.org/2000/svg" xmlns:xlink="http://www.w3.org/1999/xlink">
<g id="graph0" class="graph" transform="scale(1 1) rotate(0) translate(4 223.75)">
<title>/github/workspace/dev_area/build/timinglibs/codegen/include/timinglibs/dal/TimingMasterControllerConf.hpp</title>
<!-- Node1 -->
<g id="Node000001" class="node">
<title>Node1</title>
<g id="a_Node000001"><a xlink:title=" ">
<polygon fill="#999999" stroke="#666666" points="351.62,-219.75 178.12,-219.75 178.12,-166.75 351.62,-166.75 351.62,-219.75"/>
<text text-anchor="start" x="186.12" y="-206.25" font-family="Helvetica,sans-Serif" font-size="10.00">/github/workspace/dev</text>
<text text-anchor="start" x="186.12" y="-195" font-family="Helvetica,sans-Serif" font-size="10.00">_area/build/timinglibs</text>
<text text-anchor="start" x="186.12" y="-183.75" font-family="Helvetica,sans-Serif" font-size="10.00">/codegen/include/timinglibs</text>
<text text-anchor="middle" x="264.88" y="-172.5" font-family="Helvetica,sans-Serif" font-size="10.00">/dal/TimingMasterControllerConf.hpp</text>
</a>
</g>
</g>
<!-- Node2 -->
<g id="Node000002" class="node">
<title>Node2</title>
<g id="a_Node000002"><a xlink:href="TimingMasterControllerConf_8cpp.html" target="_top" xlink:title=" ">
<polygon fill="white" stroke="#666666" points="175.75,-130.75 0,-130.75 0,-77.75 175.75,-77.75 175.75,-130.75"/>
<text text-anchor="start" x="8" y="-117.25" font-family="Helvetica,sans-Serif" font-size="10.00">/github/workspace/dev</text>
<text text-anchor="start" x="8" y="-106" font-family="Helvetica,sans-Serif" font-size="10.00">_area/build/timinglibs</text>
<text text-anchor="start" x="8" y="-94.75" font-family="Helvetica,sans-Serif" font-size="10.00">/codegen/src/TimingMasterController</text>
<text text-anchor="middle" x="87.88" y="-83.5" font-family="Helvetica,sans-Serif" font-size="10.00">Conf.cpp</text>
</a>
</g>
</g>
<!-- Node1&#45;&gt;Node2 -->
<g id="edge1_Node000001_Node000002" class="edge">
<title>Node1&#45;&gt;Node2</title>
<g id="a_edge1_Node000001_Node000002"><a xlink:title=" ">
<path fill="none" stroke="#63b8ff" d="M201.95,-161.32C181.87,-151.45 159.88,-140.64 140.6,-131.17"/>
<polygon fill="#63b8ff" stroke="#63b8ff" points="200.37,-164.44 210.89,-165.72 203.46,-158.16 200.37,-164.44"/>
</a>
</g>
</g>
<!-- Node3 -->
<g id="Node000003" class="node">
<title>Node3</title>
<g id="a_Node000003"><a xlink:href="dump__dunedaq____timinglibs____dal_8cpp.html" target="_top" xlink:title=" ">
<polygon fill="white" stroke="#666666" points="335.5,-130.75 194.25,-130.75 194.25,-77.75 335.5,-77.75 335.5,-130.75"/>
<text text-anchor="start" x="202.25" y="-117.25" font-family="Helvetica,sans-Serif" font-size="10.00">/github/workspace/dev</text>
<text text-anchor="start" x="202.25" y="-106" font-family="Helvetica,sans-Serif" font-size="10.00">_area/build/timinglibs</text>
<text text-anchor="start" x="202.25" y="-94.75" font-family="Helvetica,sans-Serif" font-size="10.00">/codegen/src/dump_dunedaq</text>
<text text-anchor="middle" x="264.88" y="-83.5" font-family="Helvetica,sans-Serif" font-size="10.00">__timinglibs__dal.cpp</text>
</a>
</g>
</g>
<!-- Node1&#45;&gt;Node3 -->
<g id="edge2_Node000001_Node000003" class="edge">
<title>Node1&#45;&gt;Node3</title>
<g id="a_edge2_Node000001_Node000003"><a xlink:title=" ">
<path fill="none" stroke="#63b8ff" d="M264.88,-155.36C264.88,-147.16 264.88,-138.64 264.88,-131"/>
<polygon fill="#63b8ff" stroke="#63b8ff" points="261.38,-155.1 264.88,-165.1 268.38,-155.1 261.38,-155.1"/>
</a>
</g>
</g>
<!-- Node4 -->
<g id="Node000004" class="node">
<title>Node4</title>
<g id="a_Node000004"><a xlink:href="sourcecode_2timinglibs_2src_2TimingMasterControllerBase_8hpp.html" target="_top" xlink:title=" ">
<polygon fill="white" stroke="#666666" points="530.12,-125.12 353.62,-125.12 353.62,-83.38 530.12,-83.38 530.12,-125.12"/>
<text text-anchor="start" x="361.62" y="-111.62" font-family="Helvetica,sans-Serif" font-size="10.00">/github/workspace/dev</text>
<text text-anchor="start" x="361.62" y="-100.38" font-family="Helvetica,sans-Serif" font-size="10.00">_area/sourcecode/timinglibs</text>
<text text-anchor="middle" x="441.88" y="-89.12" font-family="Helvetica,sans-Serif" font-size="10.00">/src/TimingMasterControllerBase.hpp</text>
</a>
</g>
</g>
<!-- Node1&#45;&gt;Node4 -->
<g id="edge3_Node000001_Node000004" class="edge">
<title>Node1&#45;&gt;Node4</title>
<g id="a_edge3_Node000001_Node000004"><a xlink:title=" ">
<path fill="none" stroke="#63b8ff" d="M327.7,-161.37C351.94,-149.46 379,-136.16 400.69,-125.5"/>
<polygon fill="#63b8ff" stroke="#63b8ff" points="326.29,-158.16 318.86,-165.72 329.38,-164.44 326.29,-158.16"/>
</a>
</g>
</g>
<!-- Node5 -->
<g id="Node000005" class="node">
<title>Node5</title>
<g id="a_Node000005"><a xlink:href="sourcecode_2timinglibs_2src_2TimingMasterControllerBase_8cpp.html" target="_top" xlink:title=" ">
<polygon fill="white" stroke="#666666" points="530.12,-41.75 353.62,-41.75 353.62,0 530.12,0 530.12,-41.75"/>
<text text-anchor="start" x="361.62" y="-28.25" font-family="Helvetica,sans-Serif" font-size="10.00">/github/workspace/dev</text>
<text text-anchor="start" x="361.62" y="-17" font-family="Helvetica,sans-Serif" font-size="10.00">_area/sourcecode/timinglibs</text>
<text text-anchor="middle" x="441.88" y="-5.75" font-family="Helvetica,sans-Serif" font-size="10.00">/src/TimingMasterControllerBase.cpp</text>
</a>
</g>
</g>
<!-- Node4&#45;&gt;Node5 -->
<g id="edge4_Node000004_Node000005" class="edge">
<title>Node4&#45;&gt;Node5</title>
<g id="a_edge4_Node000004_Node000005"><a xlink:title=" ">
<path fill="none" stroke="#63b8ff" d="M441.88,-71.89C441.88,-61.87 441.88,-51.05 441.88,-42.04"/>
<polygon fill="#63b8ff" stroke="#63b8ff" points="438.38,-71.62 441.88,-81.62 445.38,-71.62 438.38,-71.62"/>
</a>
</g>
</g>
</g>
</svg>
