<?xml version="1.0" encoding="UTF-8" standalone="no"?>
<!DOCTYPE svg PUBLIC "-//W3C//DTD SVG 1.1//EN"
 "http://www.w3.org/Graphics/SVG/1.1/DTD/svg11.dtd">
<!-- Generated by graphviz version 9.0.0 (20230911.1827)
 -->
<!-- Title: /github/workspace/dev_area/build/appmodel/codegen/include/appmodel/TPStreamWriterApplication.hpp Pages: 1 -->
<svg width="848pt" height="150pt"
 viewBox="0.00 0.00 848.38 150.00" xmlns="http://www.w3.org/2000/svg" xmlns:xlink="http://www.w3.org/1999/xlink">
<g id="graph0" class="graph" transform="scale(1 1) rotate(0) translate(4 146)">
<title>/github/workspace/dev_area/build/appmodel/codegen/include/appmodel/TPStreamWriterApplication.hpp</title>
<!-- Node1 -->
<g id="Node000001" class="node">
<title>Node1</title>
<g id="a_Node000001"><a xlink:title=" ">
<polygon fill="#999999" stroke="#666666" points="534.88,-142 380.12,-142 380.12,-89 534.88,-89 534.88,-142"/>
<text text-anchor="start" x="388.12" y="-128.5" font-family="Helvetica,sans-Serif" font-size="10.00">/github/workspace/dev</text>
<text text-anchor="start" x="388.12" y="-117.25" font-family="Helvetica,sans-Serif" font-size="10.00">_area/build/appmodel</text>
<text text-anchor="start" x="388.12" y="-106" font-family="Helvetica,sans-Serif" font-size="10.00">/codegen/include/appmodel</text>
<text text-anchor="middle" x="457.5" y="-94.75" font-family="Helvetica,sans-Serif" font-size="10.00">/TPStreamWriterApplication.hpp</text>
</a>
</g>
</g>
<!-- Node2 -->
<g id="Node000002" class="node">
<title>Node2</title>
<g id="a_Node000002"><a xlink:href="TPStreamWriterApplication_8cpp.html" target="_top" xlink:title=" ">
<polygon fill="white" stroke="#666666" points="211,-47.38 0,-47.38 0,-5.62 211,-5.62 211,-47.38"/>
<text text-anchor="start" x="8" y="-33.88" font-family="Helvetica,sans-Serif" font-size="10.00">/github/workspace/dev</text>
<text text-anchor="start" x="8" y="-22.62" font-family="Helvetica,sans-Serif" font-size="10.00">_area/build/appmodel</text>
<text text-anchor="middle" x="105.5" y="-11.38" font-family="Helvetica,sans-Serif" font-size="10.00">/codegen/src/TPStreamWriterApplication.cpp</text>
</a>
</g>
</g>
<!-- Node1&#45;&gt;Node2 -->
<g id="edge1_Node000001_Node000002" class="edge">
<title>Node1&#45;&gt;Node2</title>
<g id="a_edge1_Node000001_Node000002"><a xlink:title=" ">
<path fill="none" stroke="#63b8ff" d="M368.92,-92.61C313.37,-78.88 242.23,-61.29 187.89,-47.86"/>
<polygon fill="#63b8ff" stroke="#63b8ff" points="367.8,-95.93 378.35,-94.94 369.48,-89.14 367.8,-95.93"/>
</a>
</g>
</g>
<!-- Node3 -->
<g id="Node000003" class="node">
<title>Node3</title>
<g id="a_Node000003"><a xlink:href="dump__dunedaq____appmodel_8cpp.html" target="_top" xlink:title=" ">
<polygon fill="white" stroke="#666666" points="370.12,-53 228.88,-53 228.88,0 370.12,0 370.12,-53"/>
<text text-anchor="start" x="236.88" y="-39.5" font-family="Helvetica,sans-Serif" font-size="10.00">/github/workspace/dev</text>
<text text-anchor="start" x="236.88" y="-28.25" font-family="Helvetica,sans-Serif" font-size="10.00">_area/build/appmodel</text>
<text text-anchor="start" x="236.88" y="-17" font-family="Helvetica,sans-Serif" font-size="10.00">/codegen/src/dump_dunedaq</text>
<text text-anchor="middle" x="299.5" y="-5.75" font-family="Helvetica,sans-Serif" font-size="10.00">__appmodel.cpp</text>
</a>
</g>
</g>
<!-- Node1&#45;&gt;Node3 -->
<g id="edge2_Node000001_Node000003" class="edge">
<title>Node1&#45;&gt;Node3</title>
<g id="a_edge2_Node000001_Node000003"><a xlink:title=" ">
<path fill="none" stroke="#63b8ff" d="M400.84,-83.3C383.05,-73.5 363.62,-62.8 346.57,-53.42"/>
<polygon fill="#63b8ff" stroke="#63b8ff" points="398.75,-86.15 409.2,-87.9 402.13,-80.01 398.75,-86.15"/>
</a>
</g>
</g>
<!-- Node4 -->
<g id="Node000004" class="node">
<title>Node4</title>
<g id="a_Node000004"><a xlink:href="appmodel_2pybindsrc_2dal__methods_8cpp.html" target="_top" xlink:title=" ">
<polygon fill="white" stroke="#666666" points="526.62,-47.38 388.38,-47.38 388.38,-5.62 526.62,-5.62 526.62,-47.38"/>
<text text-anchor="start" x="396.38" y="-33.88" font-family="Helvetica,sans-Serif" font-size="10.00">/github/workspace/dev</text>
<text text-anchor="start" x="396.38" y="-22.62" font-family="Helvetica,sans-Serif" font-size="10.00">_area/sourcecode/appmodel</text>
<text text-anchor="middle" x="457.5" y="-11.38" font-family="Helvetica,sans-Serif" font-size="10.00">/pybindsrc/dal_methods.cpp</text>
</a>
</g>
</g>
<!-- Node1&#45;&gt;Node4 -->
<g id="edge3_Node000001_Node000004" class="edge">
<title>Node1&#45;&gt;Node4</title>
<g id="a_edge3_Node000001_Node000004"><a xlink:title=" ">
<path fill="none" stroke="#63b8ff" d="M457.5,-77.63C457.5,-67.38 457.5,-56.62 457.5,-47.71"/>
<polygon fill="#63b8ff" stroke="#63b8ff" points="454,-77.35 457.5,-87.35 461,-77.35 454,-77.35"/>
</a>
</g>
</g>
<!-- Node5 -->
<g id="Node000005" class="node">
<title>Node5</title>
<g id="a_Node000005"><a xlink:href="GraphBuilder_8cpp.html" target="_top" xlink:title=" ">
<polygon fill="white" stroke="#666666" points="682.62,-47.38 544.38,-47.38 544.38,-5.62 682.62,-5.62 682.62,-47.38"/>
<text text-anchor="start" x="552.38" y="-33.88" font-family="Helvetica,sans-Serif" font-size="10.00">/github/workspace/dev</text>
<text text-anchor="start" x="552.38" y="-22.62" font-family="Helvetica,sans-Serif" font-size="10.00">_area/sourcecode/appmodel</text>
<text text-anchor="middle" x="613.5" y="-11.38" font-family="Helvetica,sans-Serif" font-size="10.00">/src/GraphBuilder.cpp</text>
</a>
</g>
</g>
<!-- Node1&#45;&gt;Node5 -->
<g id="edge4_Node000001_Node000005" class="edge">
<title>Node1&#45;&gt;Node5</title>
<g id="a_edge4_Node000001_Node000005"><a xlink:title=" ">
<path fill="none" stroke="#63b8ff" d="M513.73,-83.14C534.87,-71.35 558.34,-58.26 577.2,-47.75"/>
<polygon fill="#63b8ff" stroke="#63b8ff" points="512.23,-79.97 505.2,-87.9 515.64,-86.08 512.23,-79.97"/>
</a>
</g>
</g>
<!-- Node6 -->
<g id="Node000006" class="node">
<title>Node6</title>
<g id="a_Node000006"><a xlink:href="TPWriterApplication_8cpp.html" target="_top" xlink:title=" ">
<polygon fill="white" stroke="#666666" points="840.38,-47.38 700.62,-47.38 700.62,-5.62 840.38,-5.62 840.38,-47.38"/>
<text text-anchor="start" x="708.62" y="-33.88" font-family="Helvetica,sans-Serif" font-size="10.00">/github/workspace/dev</text>
<text text-anchor="start" x="708.62" y="-22.62" font-family="Helvetica,sans-Serif" font-size="10.00">_area/sourcecode/appmodel</text>
<text text-anchor="middle" x="770.5" y="-11.38" font-family="Helvetica,sans-Serif" font-size="10.00">/src/TPWriterApplication.cpp</text>
</a>
</g>
</g>
<!-- Node1&#45;&gt;Node6 -->
<g id="edge5_Node000001_Node000006" class="edge">
<title>Node1&#45;&gt;Node6</title>
<g id="a_edge5_Node000001_Node000006"><a xlink:title=" ">
<path fill="none" stroke="#63b8ff" d="M546.2,-92.42C590.08,-81.18 643.74,-66.97 691.5,-53 697.03,-51.38 702.77,-49.65 708.5,-47.87"/>
<polygon fill="#63b8ff" stroke="#63b8ff" points="545.55,-88.97 536.73,-94.83 547.29,-95.75 545.55,-88.97"/>
</a>
</g>
</g>
</g>
</svg>
