<?xml version="1.0" encoding="UTF-8" standalone="no"?>
<!DOCTYPE svg PUBLIC "-//W3C//DTD SVG 1.1//EN"
 "http://www.w3.org/Graphics/SVG/1.1/DTD/svg11.dtd">
<!-- Generated by graphviz version 9.0.0 (20230911.1827)
 -->
<!-- Title: /github/workspace/dev_area/build/confmodel/codegen/include/confmodel/VariableBase.hpp Pages: 1 -->
<svg width="1319pt" height="239pt"
 viewBox="0.00 0.00 1319.00 239.00" xmlns="http://www.w3.org/2000/svg" xmlns:xlink="http://www.w3.org/1999/xlink">
<g id="graph0" class="graph" transform="scale(1 1) rotate(0) translate(4 235)">
<title>/github/workspace/dev_area/build/confmodel/codegen/include/confmodel/VariableBase.hpp</title>
<!-- Node1 -->
<g id="Node000001" class="node">
<title>Node1</title>
<g id="a_Node000001"><a xlink:title=" ">
<polygon fill="#999999" stroke="#666666" points="761,-231 623.5,-231 623.5,-178 761,-178 761,-231"/>
<text text-anchor="start" x="631.5" y="-217.5" font-family="Helvetica,sans-Serif" font-size="10.00">/github/workspace/dev</text>
<text text-anchor="start" x="631.5" y="-206.25" font-family="Helvetica,sans-Serif" font-size="10.00">_area/build/confmodel</text>
<text text-anchor="start" x="631.5" y="-195" font-family="Helvetica,sans-Serif" font-size="10.00">/codegen/include/confmodel</text>
<text text-anchor="middle" x="692.25" y="-183.75" font-family="Helvetica,sans-Serif" font-size="10.00">/VariableBase.hpp</text>
</a>
</g>
</g>
<!-- Node2 -->
<g id="Node000002" class="node">
<title>Node2</title>
<g id="a_Node000002"><a xlink:href="include_2confmodel_2Variable_8hpp.html" target="_top" xlink:title=" ">
<polygon fill="white" stroke="#666666" points="320,-142 182.5,-142 182.5,-89 320,-89 320,-142"/>
<text text-anchor="start" x="190.5" y="-128.5" font-family="Helvetica,sans-Serif" font-size="10.00">/github/workspace/dev</text>
<text text-anchor="start" x="190.5" y="-117.25" font-family="Helvetica,sans-Serif" font-size="10.00">_area/build/confmodel</text>
<text text-anchor="start" x="190.5" y="-106" font-family="Helvetica,sans-Serif" font-size="10.00">/codegen/include/confmodel</text>
<text text-anchor="middle" x="251.25" y="-94.75" font-family="Helvetica,sans-Serif" font-size="10.00">/Variable.hpp</text>
</a>
</g>
</g>
<!-- Node1&#45;&gt;Node2 -->
<g id="edge1_Node000001_Node000002" class="edge">
<title>Node1&#45;&gt;Node2</title>
<g id="a_edge1_Node000001_Node000002"><a xlink:title=" ">
<path fill="none" stroke="#63b8ff" d="M611.71,-190.98C541.77,-179.65 437.91,-161.77 348.25,-142 339.24,-140.01 329.8,-137.76 320.5,-135.43"/>
<polygon fill="#63b8ff" stroke="#63b8ff" points="611.15,-194.43 621.58,-192.56 612.26,-187.52 611.15,-194.43"/>
</a>
</g>
</g>
<!-- Node5 -->
<g id="Node000005" class="node">
<title>Node5</title>
<g id="a_Node000005"><a xlink:href="dump__dunedaq____confmodel_8cpp.html" target="_top" xlink:title=" ">
<polygon fill="white" stroke="#666666" points="446.88,-53 305.62,-53 305.62,0 446.88,0 446.88,-53"/>
<text text-anchor="start" x="313.62" y="-39.5" font-family="Helvetica,sans-Serif" font-size="10.00">/github/workspace/dev</text>
<text text-anchor="start" x="313.62" y="-28.25" font-family="Helvetica,sans-Serif" font-size="10.00">_area/build/confmodel</text>
<text text-anchor="start" x="313.62" y="-17" font-family="Helvetica,sans-Serif" font-size="10.00">/codegen/src/dump_dunedaq</text>
<text text-anchor="middle" x="376.25" y="-5.75" font-family="Helvetica,sans-Serif" font-size="10.00">__confmodel.cpp</text>
</a>
</g>
</g>
<!-- Node1&#45;&gt;Node5 -->
<g id="edge13_Node000001_Node000005" class="edge">
<title>Node1&#45;&gt;Node5</title>
<g id="a_edge13_Node000001_Node000005"><a xlink:title=" ">
<path fill="none" stroke="#63b8ff" d="M611.71,-198.62C529.72,-191.81 410.62,-176.2 381.25,-142 360.38,-117.7 363.78,-78.68 369.18,-53.06"/>
<polygon fill="#63b8ff" stroke="#63b8ff" points="611.26,-202.1 621.51,-199.4 611.82,-195.12 611.26,-202.1"/>
</a>
</g>
</g>
<!-- Node6 -->
<g id="Node000006" class="node">
<title>Node6</title>
<g id="a_Node000006"><a xlink:href="include_2confmodel_2VariableSet_8hpp.html" target="_top" xlink:title=" ">
<polygon fill="white" stroke="#666666" points="528,-142 390.5,-142 390.5,-89 528,-89 528,-142"/>
<text text-anchor="start" x="398.5" y="-128.5" font-family="Helvetica,sans-Serif" font-size="10.00">/github/workspace/dev</text>
<text text-anchor="start" x="398.5" y="-117.25" font-family="Helvetica,sans-Serif" font-size="10.00">_area/build/confmodel</text>
<text text-anchor="start" x="398.5" y="-106" font-family="Helvetica,sans-Serif" font-size="10.00">/codegen/include/confmodel</text>
<text text-anchor="middle" x="459.25" y="-94.75" font-family="Helvetica,sans-Serif" font-size="10.00">/VariableSet.hpp</text>
</a>
</g>
</g>
<!-- Node1&#45;&gt;Node6 -->
<g id="edge5_Node000001_Node000006" class="edge">
<title>Node1&#45;&gt;Node6</title>
<g id="a_edge5_Node000001_Node000006"><a xlink:title=" ">
<path fill="none" stroke="#63b8ff" d="M612.58,-173.75C585.23,-163.54 554.88,-152.21 528.44,-142.33"/>
<polygon fill="#63b8ff" stroke="#63b8ff" points="611.28,-177 621.87,-177.22 613.73,-170.44 611.28,-177"/>
</a>
</g>
</g>
<!-- Node8 -->
<g id="Node000008" class="node">
<title>Node8</title>
<g id="a_Node000008"><a xlink:href="build_2confmodel_2codegen_2src_2Application_8cpp.html" target="_top" xlink:title=" ">
<polygon fill="white" stroke="#666666" points="686.88,-136.38 545.62,-136.38 545.62,-94.62 686.88,-94.62 686.88,-136.38"/>
<text text-anchor="start" x="553.62" y="-122.88" font-family="Helvetica,sans-Serif" font-size="10.00">/github/workspace/dev</text>
<text text-anchor="start" x="553.62" y="-111.62" font-family="Helvetica,sans-Serif" font-size="10.00">_area/build/confmodel</text>
<text text-anchor="middle" x="616.25" y="-100.38" font-family="Helvetica,sans-Serif" font-size="10.00">/codegen/src/Application.cpp</text>
</a>
</g>
</g>
<!-- Node1&#45;&gt;Node8 -->
<g id="edge8_Node000001_Node000008" class="edge">
<title>Node1&#45;&gt;Node8</title>
<g id="a_edge8_Node000001_Node000008"><a xlink:title=" ">
<path fill="none" stroke="#63b8ff" d="M662.34,-169.26C652.71,-158.24 642.36,-146.39 633.91,-136.71"/>
<polygon fill="#63b8ff" stroke="#63b8ff" points="659.65,-171.5 668.86,-176.73 664.92,-166.89 659.65,-171.5"/>
</a>
</g>
</g>
<!-- Node9 -->
<g id="Node000009" class="node">
<title>Node9</title>
<g id="a_Node000009"><a xlink:href="Session_8cpp.html" target="_top" xlink:title=" ">
<polygon fill="white" stroke="#666666" points="833.5,-136.38 705,-136.38 705,-94.62 833.5,-94.62 833.5,-136.38"/>
<text text-anchor="start" x="713" y="-122.88" font-family="Helvetica,sans-Serif" font-size="10.00">/github/workspace/dev</text>
<text text-anchor="start" x="713" y="-111.62" font-family="Helvetica,sans-Serif" font-size="10.00">_area/build/confmodel</text>
<text text-anchor="middle" x="769.25" y="-100.38" font-family="Helvetica,sans-Serif" font-size="10.00">/codegen/src/Session.cpp</text>
</a>
</g>
</g>
<!-- Node1&#45;&gt;Node9 -->
<g id="edge9_Node000001_Node000009" class="edge">
<title>Node1&#45;&gt;Node9</title>
<g id="a_edge9_Node000001_Node000009"><a xlink:title=" ">
<path fill="none" stroke="#63b8ff" d="M722.55,-169.26C732.31,-158.24 742.8,-146.39 751.36,-136.71"/>
<polygon fill="#63b8ff" stroke="#63b8ff" points="719.95,-166.93 715.94,-176.73 725.19,-171.57 719.95,-166.93"/>
</a>
</g>
</g>
<!-- Node10 -->
<g id="Node000010" class="node">
<title>Node10</title>
<g id="a_Node000010"><a xlink:href="src_2Variable_8hpp.html" target="_top" xlink:title=" ">
<polygon fill="white" stroke="#666666" points="980.5,-136.38 852,-136.38 852,-94.62 980.5,-94.62 980.5,-136.38"/>
<text text-anchor="start" x="860" y="-122.88" font-family="Helvetica,sans-Serif" font-size="10.00">/github/workspace/dev</text>
<text text-anchor="start" x="860" y="-111.62" font-family="Helvetica,sans-Serif" font-size="10.00">_area/build/confmodel</text>
<text text-anchor="middle" x="916.25" y="-100.38" font-family="Helvetica,sans-Serif" font-size="10.00">/codegen/src/Variable.hpp</text>
</a>
</g>
</g>
<!-- Node1&#45;&gt;Node10 -->
<g id="edge10_Node000001_Node000010" class="edge">
<title>Node1&#45;&gt;Node10</title>
<g id="a_edge10_Node000001_Node000010"><a xlink:title=" ">
<path fill="none" stroke="#63b8ff" d="M769.55,-173.48C800.7,-161.38 835.83,-147.73 863.9,-136.83"/>
<polygon fill="#63b8ff" stroke="#63b8ff" points="768.62,-170.08 760.56,-176.97 771.15,-176.61 768.62,-170.08"/>
</a>
</g>
</g>
<!-- Node11 -->
<g id="Node000011" class="node">
<title>Node11</title>
<g id="a_Node000011"><a xlink:href="VariableBase_8cpp.html" target="_top" xlink:title=" ">
<polygon fill="white" stroke="#666666" points="1149.75,-136.38 998.75,-136.38 998.75,-94.62 1149.75,-94.62 1149.75,-136.38"/>
<text text-anchor="start" x="1006.75" y="-122.88" font-family="Helvetica,sans-Serif" font-size="10.00">/github/workspace/dev</text>
<text text-anchor="start" x="1006.75" y="-111.62" font-family="Helvetica,sans-Serif" font-size="10.00">_area/build/confmodel</text>
<text text-anchor="middle" x="1074.25" y="-100.38" font-family="Helvetica,sans-Serif" font-size="10.00">/codegen/src/VariableBase.cpp</text>
</a>
</g>
</g>
<!-- Node1&#45;&gt;Node11 -->
<g id="edge11_Node000001_Node000011" class="edge">
<title>Node1&#45;&gt;Node11</title>
<g id="a_edge11_Node000001_Node000011"><a xlink:title=" ">
<path fill="none" stroke="#63b8ff" d="M772.65,-188.82C832.65,-177.39 916.48,-160.41 989.25,-142 995.52,-140.41 1002.03,-138.66 1008.51,-136.84"/>
<polygon fill="#63b8ff" stroke="#63b8ff" points="772.02,-185.38 762.84,-190.68 773.32,-192.26 772.02,-185.38"/>
</a>
</g>
</g>
<!-- Node12 -->
<g id="Node000012" class="node">
<title>Node12</title>
<g id="a_Node000012"><a xlink:href="src_2VariableSet_8hpp.html" target="_top" xlink:title=" ">
<polygon fill="white" stroke="#666666" points="1311,-136.38 1167.5,-136.38 1167.5,-94.62 1311,-94.62 1311,-136.38"/>
<text text-anchor="start" x="1175.5" y="-122.88" font-family="Helvetica,sans-Serif" font-size="10.00">/github/workspace/dev</text>
<text text-anchor="start" x="1175.5" y="-111.62" font-family="Helvetica,sans-Serif" font-size="10.00">_area/build/confmodel</text>
<text text-anchor="middle" x="1239.25" y="-100.38" font-family="Helvetica,sans-Serif" font-size="10.00">/codegen/src/VariableSet.hpp</text>
</a>
</g>
</g>
<!-- Node1&#45;&gt;Node12 -->
<g id="edge12_Node000001_Node000012" class="edge">
<title>Node1&#45;&gt;Node12</title>
<g id="a_edge12_Node000001_Node000012"><a xlink:title=" ">
<path fill="none" stroke="#63b8ff" d="M772.74,-197.27C866.42,-189.02 1025.37,-171.9 1159.25,-142 1165.94,-140.51 1172.86,-138.7 1179.72,-136.75"/>
<polygon fill="#63b8ff" stroke="#63b8ff" points="772.54,-193.78 762.88,-198.13 773.14,-200.75 772.54,-193.78"/>
</a>
</g>
</g>
<!-- Node3 -->
<g id="Node000003" class="node">
<title>Node3</title>
<g id="a_Node000003"><a xlink:href="FSMaction_8cpp.html" target="_top" xlink:title=" ">
<polygon fill="white" stroke="#666666" points="140.5,-47.38 0,-47.38 0,-5.62 140.5,-5.62 140.5,-47.38"/>
<text text-anchor="start" x="8" y="-33.88" font-family="Helvetica,sans-Serif" font-size="10.00">/github/workspace/dev</text>
<text text-anchor="start" x="8" y="-22.62" font-family="Helvetica,sans-Serif" font-size="10.00">_area/build/confmodel</text>
<text text-anchor="middle" x="70.25" y="-11.38" font-family="Helvetica,sans-Serif" font-size="10.00">/codegen/src/FSMaction.cpp</text>
</a>
</g>
</g>
<!-- Node2&#45;&gt;Node3 -->
<g id="edge2_Node000002_Node000003" class="edge">
<title>Node2&#45;&gt;Node3</title>
<g id="a_edge2_Node000002_Node000003"><a xlink:title=" ">
<path fill="none" stroke="#63b8ff" d="M187.34,-83.78C162.47,-71.82 134.65,-58.45 112.37,-47.75"/>
<polygon fill="#63b8ff" stroke="#63b8ff" points="185.54,-86.8 196.07,-87.98 188.57,-80.49 185.54,-86.8"/>
</a>
</g>
</g>
<!-- Node4 -->
<g id="Node000004" class="node">
<title>Node4</title>
<g id="a_Node000004"><a xlink:href="Variable_8cpp.html" target="_top" xlink:title=" ">
<polygon fill="white" stroke="#666666" points="287.5,-47.38 159,-47.38 159,-5.62 287.5,-5.62 287.5,-47.38"/>
<text text-anchor="start" x="167" y="-33.88" font-family="Helvetica,sans-Serif" font-size="10.00">/github/workspace/dev</text>
<text text-anchor="start" x="167" y="-22.62" font-family="Helvetica,sans-Serif" font-size="10.00">_area/build/confmodel</text>
<text text-anchor="middle" x="223.25" y="-11.38" font-family="Helvetica,sans-Serif" font-size="10.00">/codegen/src/Variable.cpp</text>
</a>
</g>
</g>
<!-- Node2&#45;&gt;Node4 -->
<g id="edge3_Node000002_Node000004" class="edge">
<title>Node2&#45;&gt;Node4</title>
<g id="a_edge3_Node000002_Node000004"><a xlink:title=" ">
<path fill="none" stroke="#63b8ff" d="M239.49,-77.96C236.16,-67.61 232.65,-56.72 229.76,-47.71"/>
<polygon fill="#63b8ff" stroke="#63b8ff" points="236.14,-78.98 242.54,-87.43 242.8,-76.84 236.14,-78.98"/>
</a>
</g>
</g>
<!-- Node2&#45;&gt;Node5 -->
<g id="edge4_Node000002_Node000005" class="edge">
<title>Node2&#45;&gt;Node5</title>
<g id="a_edge4_Node000002_Node000005"><a xlink:title=" ">
<path fill="none" stroke="#63b8ff" d="M297.65,-82.21C311.29,-72.71 326.02,-62.46 339.01,-53.42"/>
<polygon fill="#63b8ff" stroke="#63b8ff" points="295.87,-79.18 289.66,-87.77 299.87,-84.93 295.87,-79.18"/>
</a>
</g>
</g>
<!-- Node6&#45;&gt;Node5 -->
<g id="edge7_Node000006_Node000005" class="edge">
<title>Node6&#45;&gt;Node5</title>
<g id="a_edge7_Node000006_Node000005"><a xlink:title=" ">
<path fill="none" stroke="#63b8ff" d="M427.01,-80.71C418.3,-71.58 409.03,-61.86 400.82,-53.25"/>
<polygon fill="#63b8ff" stroke="#63b8ff" points="424.32,-82.95 433.75,-87.77 429.38,-78.12 424.32,-82.95"/>
</a>
</g>
</g>
<!-- Node7 -->
<g id="Node000007" class="node">
<title>Node7</title>
<g id="a_Node000007"><a xlink:href="VariableSet_8cpp.html" target="_top" xlink:title=" ">
<polygon fill="white" stroke="#666666" points="608,-47.38 464.5,-47.38 464.5,-5.62 608,-5.62 608,-47.38"/>
<text text-anchor="start" x="472.5" y="-33.88" font-family="Helvetica,sans-Serif" font-size="10.00">/github/workspace/dev</text>
<text text-anchor="start" x="472.5" y="-22.62" font-family="Helvetica,sans-Serif" font-size="10.00">_area/build/confmodel</text>
<text text-anchor="middle" x="536.25" y="-11.38" font-family="Helvetica,sans-Serif" font-size="10.00">/codegen/src/VariableSet.cpp</text>
</a>
</g>
</g>
<!-- Node6&#45;&gt;Node7 -->
<g id="edge6_Node000006_Node000007" class="edge">
<title>Node6&#45;&gt;Node7</title>
<g id="a_edge6_Node000006_Node000007"><a xlink:title=" ">
<path fill="none" stroke="#63b8ff" d="M489.55,-80.26C499.31,-69.24 509.8,-57.39 518.36,-47.71"/>
<polygon fill="#63b8ff" stroke="#63b8ff" points="486.95,-77.93 482.94,-87.73 492.19,-82.57 486.95,-77.93"/>
</a>
</g>
</g>
</g>
</svg>
