<?xml version="1.0" encoding="UTF-8" standalone="no"?>
<!DOCTYPE svg PUBLIC "-//W3C//DTD SVG 1.1//EN"
 "http://www.w3.org/Graphics/SVG/1.1/DTD/svg11.dtd">
<!-- Generated by graphviz version 9.0.0 (20230911.1827)
 -->
<!-- Title: /github/workspace/dev_area/build/appmodel/codegen/include/appmodel/NetworkConnectionRule.hpp Pages: 1 -->
<svg width="1976pt" height="150pt"
 viewBox="0.00 0.00 1975.50 150.00" xmlns="http://www.w3.org/2000/svg" xmlns:xlink="http://www.w3.org/1999/xlink">
<g id="graph0" class="graph" transform="scale(1 1) rotate(0) translate(4 146)">
<title>/github/workspace/dev_area/build/appmodel/codegen/include/appmodel/NetworkConnectionRule.hpp</title>
<!-- Node1 -->
<g id="Node000001" class="node">
<title>Node1</title>
<g id="a_Node000001"><a xlink:title=" ">
<polygon fill="#999999" stroke="#666666" points="1076.38,-142 934.38,-142 934.38,-89 1076.38,-89 1076.38,-142"/>
<text text-anchor="start" x="942.38" y="-128.5" font-family="Helvetica,sans-Serif" font-size="10.00">/github/workspace/dev</text>
<text text-anchor="start" x="942.38" y="-117.25" font-family="Helvetica,sans-Serif" font-size="10.00">_area/build/appmodel</text>
<text text-anchor="start" x="942.38" y="-106" font-family="Helvetica,sans-Serif" font-size="10.00">/codegen/include/appmodel</text>
<text text-anchor="middle" x="1005.38" y="-94.75" font-family="Helvetica,sans-Serif" font-size="10.00">/NetworkConnectionRule.hpp</text>
</a>
</g>
</g>
<!-- Node2 -->
<g id="Node000002" class="node">
<title>Node2</title>
<g id="a_Node000002"><a xlink:href="NetworkConnectionRule_8cpp.html" target="_top" xlink:title=" ">
<polygon fill="white" stroke="#666666" points="160.75,-53 0,-53 0,0 160.75,0 160.75,-53"/>
<text text-anchor="start" x="8" y="-39.5" font-family="Helvetica,sans-Serif" font-size="10.00">/github/workspace/dev</text>
<text text-anchor="start" x="8" y="-28.25" font-family="Helvetica,sans-Serif" font-size="10.00">_area/build/appmodel</text>
<text text-anchor="start" x="8" y="-17" font-family="Helvetica,sans-Serif" font-size="10.00">/codegen/src/NetworkConnection</text>
<text text-anchor="middle" x="80.38" y="-5.75" font-family="Helvetica,sans-Serif" font-size="10.00">Rule.cpp</text>
</a>
</g>
</g>
<!-- Node1&#45;&gt;Node2 -->
<g id="edge1_Node000001_Node000002" class="edge">
<title>Node1&#45;&gt;Node2</title>
<g id="a_edge1_Node000001_Node000002"><a xlink:title=" ">
<path fill="none" stroke="#63b8ff" d="M922.71,-113.94C772,-111.69 442.94,-101.14 170.38,-53 167.34,-52.46 164.25,-51.87 161.15,-51.22"/>
<polygon fill="#63b8ff" stroke="#63b8ff" points="922.56,-117.44 932.61,-114.08 922.66,-110.44 922.56,-117.44"/>
</a>
</g>
</g>
<!-- Node3 -->
<g id="Node000003" class="node">
<title>Node3</title>
<g id="a_Node000003"><a xlink:href="build_2appmodel_2codegen_2src_2SmartDaqApplication_8cpp.html" target="_top" xlink:title=" ">
<polygon fill="white" stroke="#666666" points="363.75,-47.38 179,-47.38 179,-5.62 363.75,-5.62 363.75,-47.38"/>
<text text-anchor="start" x="187" y="-33.88" font-family="Helvetica,sans-Serif" font-size="10.00">/github/workspace/dev</text>
<text text-anchor="start" x="187" y="-22.62" font-family="Helvetica,sans-Serif" font-size="10.00">_area/build/appmodel</text>
<text text-anchor="middle" x="271.38" y="-11.38" font-family="Helvetica,sans-Serif" font-size="10.00">/codegen/src/SmartDaqApplication.cpp</text>
</a>
</g>
</g>
<!-- Node1&#45;&gt;Node3 -->
<g id="edge2_Node000001_Node000003" class="edge">
<title>Node1&#45;&gt;Node3</title>
<g id="a_edge2_Node000001_Node000003"><a xlink:title=" ">
<path fill="none" stroke="#63b8ff" d="M922.79,-110.45C801.44,-103.6 568.12,-87.02 372.38,-53 364,-51.54 355.3,-49.76 346.67,-47.83"/>
<polygon fill="#63b8ff" stroke="#63b8ff" points="922.49,-113.94 932.67,-111 922.88,-106.95 922.49,-113.94"/>
</a>
</g>
</g>
<!-- Node4 -->
<g id="Node000004" class="node">
<title>Node4</title>
<g id="a_Node000004"><a xlink:href="dump__dunedaq____appmodel_8cpp.html" target="_top" xlink:title=" ">
<polygon fill="white" stroke="#666666" points="523,-53 381.75,-53 381.75,0 523,0 523,-53"/>
<text text-anchor="start" x="389.75" y="-39.5" font-family="Helvetica,sans-Serif" font-size="10.00">/github/workspace/dev</text>
<text text-anchor="start" x="389.75" y="-28.25" font-family="Helvetica,sans-Serif" font-size="10.00">_area/build/appmodel</text>
<text text-anchor="start" x="389.75" y="-17" font-family="Helvetica,sans-Serif" font-size="10.00">/codegen/src/dump_dunedaq</text>
<text text-anchor="middle" x="452.38" y="-5.75" font-family="Helvetica,sans-Serif" font-size="10.00">__appmodel.cpp</text>
</a>
</g>
</g>
<!-- Node1&#45;&gt;Node4 -->
<g id="edge3_Node000001_Node000004" class="edge">
<title>Node1&#45;&gt;Node4</title>
<g id="a_edge3_Node000001_Node000004"><a xlink:title=" ">
<path fill="none" stroke="#63b8ff" d="M922.91,-108.29C827.91,-100.1 667.53,-83.07 532.38,-53 529.39,-52.34 526.35,-51.61 523.29,-50.83"/>
<polygon fill="#63b8ff" stroke="#63b8ff" points="922.4,-111.76 932.66,-109.12 922.99,-104.78 922.4,-111.76"/>
</a>
</g>
</g>
<!-- Node5 -->
<g id="Node000005" class="node">
<title>Node5</title>
<g id="a_Node000005"><a xlink:href="sourcecode_2appmodel_2src_2DFApplication_8cpp.html" target="_top" xlink:title=" ">
<polygon fill="white" stroke="#666666" points="679.5,-47.38 541.25,-47.38 541.25,-5.62 679.5,-5.62 679.5,-47.38"/>
<text text-anchor="start" x="549.25" y="-33.88" font-family="Helvetica,sans-Serif" font-size="10.00">/github/workspace/dev</text>
<text text-anchor="start" x="549.25" y="-22.62" font-family="Helvetica,sans-Serif" font-size="10.00">_area/sourcecode/appmodel</text>
<text text-anchor="middle" x="610.38" y="-11.38" font-family="Helvetica,sans-Serif" font-size="10.00">/src/DFApplication.cpp</text>
</a>
</g>
</g>
<!-- Node1&#45;&gt;Node5 -->
<g id="edge4_Node000001_Node000005" class="edge">
<title>Node1&#45;&gt;Node5</title>
<g id="a_edge4_Node000001_Node000005"><a xlink:title=" ">
<path fill="none" stroke="#63b8ff" d="M922.7,-101.36C858.36,-90.44 767.08,-73.42 688.38,-53 682.31,-51.43 676.02,-49.64 669.77,-47.76"/>
<polygon fill="#63b8ff" stroke="#63b8ff" points="922.05,-104.8 932.5,-103.01 923.22,-97.9 922.05,-104.8"/>
</a>
</g>
</g>
<!-- Node6 -->
<g id="Node000006" class="node">
<title>Node6</title>
<g id="a_Node000006"><a xlink:href="sourcecode_2appmodel_2src_2DFOApplication_8cpp.html" target="_top" xlink:title=" ">
<polygon fill="white" stroke="#666666" points="835.5,-47.38 697.25,-47.38 697.25,-5.62 835.5,-5.62 835.5,-47.38"/>
<text text-anchor="start" x="705.25" y="-33.88" font-family="Helvetica,sans-Serif" font-size="10.00">/github/workspace/dev</text>
<text text-anchor="start" x="705.25" y="-22.62" font-family="Helvetica,sans-Serif" font-size="10.00">_area/sourcecode/appmodel</text>
<text text-anchor="middle" x="766.38" y="-11.38" font-family="Helvetica,sans-Serif" font-size="10.00">/src/DFOApplication.cpp</text>
</a>
</g>
</g>
<!-- Node1&#45;&gt;Node6 -->
<g id="edge5_Node000001_Node000006" class="edge">
<title>Node1&#45;&gt;Node6</title>
<g id="a_edge5_Node000001_Node000006"><a xlink:title=" ">
<path fill="none" stroke="#63b8ff" d="M923.33,-84.63C889.98,-72.5 852.31,-58.78 822.23,-47.83"/>
<polygon fill="#63b8ff" stroke="#63b8ff" points="921.97,-87.87 932.57,-88 924.37,-81.29 921.97,-87.87"/>
</a>
</g>
</g>
<!-- Node7 -->
<g id="Node000007" class="node">
<title>Node7</title>
<g id="a_Node000007"><a xlink:href="sourcecode_2appmodel_2src_2FakeDataApplication_8cpp.html" target="_top" xlink:title=" ">
<polygon fill="white" stroke="#666666" points="997.12,-47.38 853.62,-47.38 853.62,-5.62 997.12,-5.62 997.12,-47.38"/>
<text text-anchor="start" x="861.62" y="-33.88" font-family="Helvetica,sans-Serif" font-size="10.00">/github/workspace/dev</text>
<text text-anchor="start" x="861.62" y="-22.62" font-family="Helvetica,sans-Serif" font-size="10.00">_area/sourcecode/appmodel</text>
<text text-anchor="middle" x="925.38" y="-11.38" font-family="Helvetica,sans-Serif" font-size="10.00">/src/FakeDataApplication.cpp</text>
</a>
</g>
</g>
<!-- Node1&#45;&gt;Node7 -->
<g id="edge6_Node000001_Node000007" class="edge">
<title>Node1&#45;&gt;Node7</title>
<g id="a_edge6_Node000001_Node000007"><a xlink:title=" ">
<path fill="none" stroke="#63b8ff" d="M974.19,-80.59C963.97,-69.48 952.95,-57.48 943.96,-47.71"/>
<polygon fill="#63b8ff" stroke="#63b8ff" points="971.44,-82.76 980.78,-87.75 976.59,-78.02 971.44,-82.76"/>
</a>
</g>
</g>
<!-- Node8 -->
<g id="Node000008" class="node">
<title>Node8</title>
<g id="a_Node000008"><a xlink:href="sourcecode_2appmodel_2src_2FakeHSIApplication_8cpp.html" target="_top" xlink:title=" ">
<polygon fill="white" stroke="#666666" points="1155.62,-47.38 1015.12,-47.38 1015.12,-5.62 1155.62,-5.62 1155.62,-47.38"/>
<text text-anchor="start" x="1023.12" y="-33.88" font-family="Helvetica,sans-Serif" font-size="10.00">/github/workspace/dev</text>
<text text-anchor="start" x="1023.12" y="-22.62" font-family="Helvetica,sans-Serif" font-size="10.00">_area/sourcecode/appmodel</text>
<text text-anchor="middle" x="1085.38" y="-11.38" font-family="Helvetica,sans-Serif" font-size="10.00">/src/FakeHSIApplication.cpp</text>
</a>
</g>
</g>
<!-- Node1&#45;&gt;Node8 -->
<g id="edge7_Node000001_Node000008" class="edge">
<title>Node1&#45;&gt;Node8</title>
<g id="a_edge7_Node000001_Node000008"><a xlink:title=" ">
<path fill="none" stroke="#63b8ff" d="M1036.56,-80.59C1046.78,-69.48 1057.8,-57.48 1066.79,-47.71"/>
<polygon fill="#63b8ff" stroke="#63b8ff" points="1034.16,-78.02 1029.97,-87.75 1039.31,-82.76 1034.16,-78.02"/>
</a>
</g>
</g>
<!-- Node9 -->
<g id="Node000009" class="node">
<title>Node9</title>
<g id="a_Node000009"><a xlink:href="sourcecode_2appmodel_2src_2HSIEventToTCApplication_8cpp.html" target="_top" xlink:title=" ">
<polygon fill="white" stroke="#666666" points="1341.12,-47.38 1173.62,-47.38 1173.62,-5.62 1341.12,-5.62 1341.12,-47.38"/>
<text text-anchor="start" x="1181.62" y="-33.88" font-family="Helvetica,sans-Serif" font-size="10.00">/github/workspace/dev</text>
<text text-anchor="start" x="1181.62" y="-22.62" font-family="Helvetica,sans-Serif" font-size="10.00">_area/sourcecode/appmodel</text>
<text text-anchor="middle" x="1257.38" y="-11.38" font-family="Helvetica,sans-Serif" font-size="10.00">/src/HSIEventToTCApplication.cpp</text>
</a>
</g>
</g>
<!-- Node1&#45;&gt;Node9 -->
<g id="edge8_Node000001_Node000009" class="edge">
<title>Node1&#45;&gt;Node9</title>
<g id="a_edge8_Node000001_Node000009"><a xlink:title=" ">
<path fill="none" stroke="#63b8ff" d="M1087.17,-86.26C1123.52,-73.71 1165.5,-59.22 1198.67,-47.77"/>
<polygon fill="#63b8ff" stroke="#63b8ff" points="1086.32,-82.85 1078.01,-89.42 1088.6,-89.47 1086.32,-82.85"/>
</a>
</g>
</g>
<!-- Node10 -->
<g id="Node000010" class="node">
<title>Node10</title>
<g id="a_Node000010"><a xlink:href="sourcecode_2appmodel_2src_2MLTApplication_8cpp.html" target="_top" xlink:title=" ">
<polygon fill="white" stroke="#666666" points="1497.5,-47.38 1359.25,-47.38 1359.25,-5.62 1497.5,-5.62 1497.5,-47.38"/>
<text text-anchor="start" x="1367.25" y="-33.88" font-family="Helvetica,sans-Serif" font-size="10.00">/github/workspace/dev</text>
<text text-anchor="start" x="1367.25" y="-22.62" font-family="Helvetica,sans-Serif" font-size="10.00">_area/sourcecode/appmodel</text>
<text text-anchor="middle" x="1428.38" y="-11.38" font-family="Helvetica,sans-Serif" font-size="10.00">/src/MLTApplication.cpp</text>
</a>
</g>
</g>
<!-- Node1&#45;&gt;Node10 -->
<g id="edge9_Node000001_Node000010" class="edge">
<title>Node1&#45;&gt;Node10</title>
<g id="a_edge9_Node000001_Node000010"><a xlink:title=" ">
<path fill="none" stroke="#63b8ff" d="M1087.68,-103.13C1158.01,-92.64 1261.6,-75.31 1350.38,-53 1356.45,-51.47 1362.75,-49.72 1369,-47.86"/>
<polygon fill="#63b8ff" stroke="#63b8ff" points="1087.57,-99.61 1078.19,-104.54 1088.59,-106.54 1087.57,-99.61"/>
</a>
</g>
</g>
<!-- Node11 -->
<g id="Node000011" class="node">
<title>Node11</title>
<g id="a_Node000011"><a xlink:href="sourcecode_2appmodel_2src_2ReadoutApplication_8cpp.html" target="_top" xlink:title=" ">
<polygon fill="white" stroke="#666666" points="1653.5,-47.38 1515.25,-47.38 1515.25,-5.62 1653.5,-5.62 1653.5,-47.38"/>
<text text-anchor="start" x="1523.25" y="-33.88" font-family="Helvetica,sans-Serif" font-size="10.00">/github/workspace/dev</text>
<text text-anchor="start" x="1523.25" y="-22.62" font-family="Helvetica,sans-Serif" font-size="10.00">_area/sourcecode/appmodel</text>
<text text-anchor="middle" x="1584.38" y="-11.38" font-family="Helvetica,sans-Serif" font-size="10.00">/src/ReadoutApplication.cpp</text>
</a>
</g>
</g>
<!-- Node1&#45;&gt;Node11 -->
<g id="edge10_Node000001_Node000011" class="edge">
<title>Node1&#45;&gt;Node11</title>
<g id="a_edge10_Node000001_Node000011"><a xlink:title=" ">
<path fill="none" stroke="#63b8ff" d="M1087.86,-109.3C1187.85,-101.86 1361,-85.36 1506.38,-53 1512.91,-51.54 1519.68,-49.76 1526.37,-47.83"/>
<polygon fill="#63b8ff" stroke="#63b8ff" points="1087.86,-105.79 1078.14,-110 1088.37,-112.77 1087.86,-105.79"/>
</a>
</g>
</g>
<!-- Node12 -->
<g id="Node000012" class="node">
<title>Node12</title>
<g id="a_Node000012"><a xlink:href="TPWriterApplication_8cpp.html" target="_top" xlink:title=" ">
<polygon fill="white" stroke="#666666" points="1811.25,-47.38 1671.5,-47.38 1671.5,-5.62 1811.25,-5.62 1811.25,-47.38"/>
<text text-anchor="start" x="1679.5" y="-33.88" font-family="Helvetica,sans-Serif" font-size="10.00">/github/workspace/dev</text>
<text text-anchor="start" x="1679.5" y="-22.62" font-family="Helvetica,sans-Serif" font-size="10.00">_area/sourcecode/appmodel</text>
<text text-anchor="middle" x="1741.38" y="-11.38" font-family="Helvetica,sans-Serif" font-size="10.00">/src/TPWriterApplication.cpp</text>
</a>
</g>
</g>
<!-- Node1&#45;&gt;Node12 -->
<g id="edge11_Node000001_Node000012" class="edge">
<title>Node1&#45;&gt;Node12</title>
<g id="a_edge11_Node000001_Node000012"><a xlink:title=" ">
<path fill="none" stroke="#63b8ff" d="M1088,-112.55C1213.37,-108.3 1458.62,-94.89 1662.38,-53 1669.29,-51.58 1676.46,-49.77 1683.52,-47.77"/>
<polygon fill="#63b8ff" stroke="#63b8ff" points="1088.01,-109.05 1078.13,-112.87 1088.24,-116.05 1088.01,-109.05"/>
</a>
</g>
</g>
<!-- Node13 -->
<g id="Node000013" class="node">
<title>Node13</title>
<g id="a_Node000013"><a xlink:href="sourcecode_2appmodel_2src_2TriggerApplication_8cpp.html" target="_top" xlink:title=" ">
<polygon fill="white" stroke="#666666" points="1967.5,-47.38 1829.25,-47.38 1829.25,-5.62 1967.5,-5.62 1967.5,-47.38"/>
<text text-anchor="start" x="1837.25" y="-33.88" font-family="Helvetica,sans-Serif" font-size="10.00">/github/workspace/dev</text>
<text text-anchor="start" x="1837.25" y="-22.62" font-family="Helvetica,sans-Serif" font-size="10.00">_area/sourcecode/appmodel</text>
<text text-anchor="middle" x="1898.38" y="-11.38" font-family="Helvetica,sans-Serif" font-size="10.00">/src/TriggerApplication.cpp</text>
</a>
</g>
</g>
<!-- Node1&#45;&gt;Node13 -->
<g id="edge12_Node000001_Node000013" class="edge">
<title>Node1&#45;&gt;Node13</title>
<g id="a_edge12_Node000001_Node000013"><a xlink:title=" ">
<path fill="none" stroke="#63b8ff" d="M1087.96,-114.79C1236.15,-113.87 1556.36,-105.32 1820.38,-53 1827.36,-51.62 1834.6,-49.8 1841.71,-47.77"/>
<polygon fill="#63b8ff" stroke="#63b8ff" points="1088.23,-111.29 1078.25,-114.84 1088.27,-118.29 1088.23,-111.29"/>
</a>
</g>
</g>
</g>
</svg>
