<?xml version="1.0" encoding="UTF-8" standalone="no"?>
<!DOCTYPE svg PUBLIC "-//W3C//DTD SVG 1.1//EN"
 "http://www.w3.org/Graphics/SVG/1.1/DTD/svg11.dtd">
<!-- Generated by graphviz version 9.0.0 (20230911.1827)
 -->
<!-- Title: /github/workspace/dev_area/build/confmodel/codegen/include/confmodel/FSMxTransition.hpp Pages: 1 -->
<svg width="515pt" height="150pt"
 viewBox="0.00 0.00 515.12 150.00" xmlns="http://www.w3.org/2000/svg" xmlns:xlink="http://www.w3.org/1999/xlink">
<g id="graph0" class="graph" transform="scale(1 1) rotate(0) translate(4 146)">
<title>/github/workspace/dev_area/build/confmodel/codegen/include/confmodel/FSMxTransition.hpp</title>
<!-- Node1 -->
<g id="Node000001" class="node">
<title>Node1</title>
<g id="a_Node000001"><a xlink:title=" ">
<polygon fill="#999999" stroke="#666666" points="336.25,-142 198.75,-142 198.75,-89 336.25,-89 336.25,-142"/>
<text text-anchor="start" x="206.75" y="-128.5" font-family="Helvetica,sans-Serif" font-size="10.00">/github/workspace/dev</text>
<text text-anchor="start" x="206.75" y="-117.25" font-family="Helvetica,sans-Serif" font-size="10.00">_area/build/confmodel</text>
<text text-anchor="start" x="206.75" y="-106" font-family="Helvetica,sans-Serif" font-size="10.00">/codegen/include/confmodel</text>
<text text-anchor="middle" x="267.5" y="-94.75" font-family="Helvetica,sans-Serif" font-size="10.00">/FSMxTransition.hpp</text>
</a>
</g>
</g>
<!-- Node2 -->
<g id="Node000002" class="node">
<title>Node2</title>
<g id="a_Node000002"><a xlink:href="FSMconfiguration_8cpp.html" target="_top" xlink:title=" ">
<polygon fill="white" stroke="#666666" points="169,-47.38 0,-47.38 0,-5.62 169,-5.62 169,-47.38"/>
<text text-anchor="start" x="8" y="-33.88" font-family="Helvetica,sans-Serif" font-size="10.00">/github/workspace/dev</text>
<text text-anchor="start" x="8" y="-22.62" font-family="Helvetica,sans-Serif" font-size="10.00">_area/build/confmodel</text>
<text text-anchor="middle" x="84.5" y="-11.38" font-family="Helvetica,sans-Serif" font-size="10.00">/codegen/src/FSMconfiguration.cpp</text>
</a>
</g>
</g>
<!-- Node1&#45;&gt;Node2 -->
<g id="edge1_Node000001_Node000002" class="edge">
<title>Node1&#45;&gt;Node2</title>
<g id="a_edge1_Node000001_Node000002"><a xlink:title=" ">
<path fill="none" stroke="#63b8ff" d="M202.89,-83.78C177.73,-71.82 149.61,-58.45 127.09,-47.75"/>
<polygon fill="#63b8ff" stroke="#63b8ff" points="201.19,-86.85 211.72,-87.98 204.19,-80.53 201.19,-86.85"/>
</a>
</g>
</g>
<!-- Node3 -->
<g id="Node000003" class="node">
<title>Node3</title>
<g id="a_Node000003"><a xlink:href="FSMxTransition_8cpp.html" target="_top" xlink:title=" ">
<polygon fill="white" stroke="#666666" points="348.25,-47.38 186.75,-47.38 186.75,-5.62 348.25,-5.62 348.25,-47.38"/>
<text text-anchor="start" x="194.75" y="-33.88" font-family="Helvetica,sans-Serif" font-size="10.00">/github/workspace/dev</text>
<text text-anchor="start" x="194.75" y="-22.62" font-family="Helvetica,sans-Serif" font-size="10.00">_area/build/confmodel</text>
<text text-anchor="middle" x="267.5" y="-11.38" font-family="Helvetica,sans-Serif" font-size="10.00">/codegen/src/FSMxTransition.cpp</text>
</a>
</g>
</g>
<!-- Node1&#45;&gt;Node3 -->
<g id="edge2_Node000001_Node000003" class="edge">
<title>Node1&#45;&gt;Node3</title>
<g id="a_edge2_Node000001_Node000003"><a xlink:title=" ">
<path fill="none" stroke="#63b8ff" d="M267.5,-77.63C267.5,-67.38 267.5,-56.62 267.5,-47.71"/>
<polygon fill="#63b8ff" stroke="#63b8ff" points="264,-77.35 267.5,-87.35 271,-77.35 264,-77.35"/>
</a>
</g>
</g>
<!-- Node4 -->
<g id="Node000004" class="node">
<title>Node4</title>
<g id="a_Node000004"><a xlink:href="dump__dunedaq____confmodel_8cpp.html" target="_top" xlink:title=" ">
<polygon fill="white" stroke="#666666" points="507.12,-53 365.88,-53 365.88,0 507.12,0 507.12,-53"/>
<text text-anchor="start" x="373.88" y="-39.5" font-family="Helvetica,sans-Serif" font-size="10.00">/github/workspace/dev</text>
<text text-anchor="start" x="373.88" y="-28.25" font-family="Helvetica,sans-Serif" font-size="10.00">_area/build/confmodel</text>
<text text-anchor="start" x="373.88" y="-17" font-family="Helvetica,sans-Serif" font-size="10.00">/codegen/src/dump_dunedaq</text>
<text text-anchor="middle" x="436.5" y="-5.75" font-family="Helvetica,sans-Serif" font-size="10.00">__confmodel.cpp</text>
</a>
</g>
</g>
<!-- Node1&#45;&gt;Node4 -->
<g id="edge3_Node000001_Node000004" class="edge">
<title>Node1&#45;&gt;Node4</title>
<g id="a_edge3_Node000001_Node000004"><a xlink:title=" ">
<path fill="none" stroke="#63b8ff" d="M327.84,-83.43C346.94,-73.6 367.84,-62.85 386.15,-53.42"/>
<polygon fill="#63b8ff" stroke="#63b8ff" points="326.38,-80.25 319.09,-87.94 329.59,-86.47 326.38,-80.25"/>
</a>
</g>
</g>
</g>
</svg>
