<?xml version="1.0" encoding="UTF-8" standalone="no"?>
<!DOCTYPE svg PUBLIC "-//W3C//DTD SVG 1.1//EN"
 "http://www.w3.org/Graphics/SVG/1.1/DTD/svg11.dtd">
<!-- Generated by graphviz version 9.0.0 (20230911.1827)
 -->
<!-- Title: /github/workspace/dev_area/build/confmodel/codegen/include/confmodel/RCApplication.hpp Pages: 1 -->
<svg width="960pt" height="150pt"
 viewBox="0.00 0.00 960.00 150.00" xmlns="http://www.w3.org/2000/svg" xmlns:xlink="http://www.w3.org/1999/xlink">
<g id="graph0" class="graph" transform="scale(1 1) rotate(0) translate(4 146)">
<title>/github/workspace/dev_area/build/confmodel/codegen/include/confmodel/RCApplication.hpp</title>
<!-- Node1 -->
<g id="Node000001" class="node">
<title>Node1</title>
<g id="a_Node000001"><a xlink:title=" ">
<polygon fill="#999999" stroke="#666666" points="545.12,-142 407.62,-142 407.62,-89 545.12,-89 545.12,-142"/>
<text text-anchor="start" x="415.62" y="-128.5" font-family="Helvetica,sans-Serif" font-size="10.00">/github/workspace/dev</text>
<text text-anchor="start" x="415.62" y="-117.25" font-family="Helvetica,sans-Serif" font-size="10.00">_area/build/confmodel</text>
<text text-anchor="start" x="415.62" y="-106" font-family="Helvetica,sans-Serif" font-size="10.00">/codegen/include/confmodel</text>
<text text-anchor="middle" x="476.38" y="-94.75" font-family="Helvetica,sans-Serif" font-size="10.00">/RCApplication.hpp</text>
</a>
</g>
</g>
<!-- Node2 -->
<g id="Node000002" class="node">
<title>Node2</title>
<g id="a_Node000002"><a xlink:href="RCApplication_8cpp.html" target="_top" xlink:title=" ">
<polygon fill="white" stroke="#666666" points="154.75,-47.38 0,-47.38 0,-5.62 154.75,-5.62 154.75,-47.38"/>
<text text-anchor="start" x="8" y="-33.88" font-family="Helvetica,sans-Serif" font-size="10.00">/github/workspace/dev</text>
<text text-anchor="start" x="8" y="-22.62" font-family="Helvetica,sans-Serif" font-size="10.00">_area/build/confmodel</text>
<text text-anchor="middle" x="77.38" y="-11.38" font-family="Helvetica,sans-Serif" font-size="10.00">/codegen/src/RCApplication.cpp</text>
</a>
</g>
</g>
<!-- Node1&#45;&gt;Node2 -->
<g id="edge1_Node000001_Node000002" class="edge">
<title>Node1&#45;&gt;Node2</title>
<g id="a_edge1_Node000001_Node000002"><a xlink:title=" ">
<path fill="none" stroke="#63b8ff" d="M396.11,-100.74C332.83,-89.4 242.54,-72.12 164.38,-53 157.95,-51.43 151.3,-49.69 144.66,-47.87"/>
<polygon fill="#63b8ff" stroke="#63b8ff" points="395.25,-104.15 405.71,-102.45 396.48,-97.25 395.25,-104.15"/>
</a>
</g>
</g>
<!-- Node3 -->
<g id="Node000003" class="node">
<title>Node3</title>
<g id="a_Node000003"><a xlink:href="Segment_8cpp.html" target="_top" xlink:title=" ">
<polygon fill="white" stroke="#666666" points="305.5,-47.38 173.25,-47.38 173.25,-5.62 305.5,-5.62 305.5,-47.38"/>
<text text-anchor="start" x="181.25" y="-33.88" font-family="Helvetica,sans-Serif" font-size="10.00">/github/workspace/dev</text>
<text text-anchor="start" x="181.25" y="-22.62" font-family="Helvetica,sans-Serif" font-size="10.00">_area/build/confmodel</text>
<text text-anchor="middle" x="239.38" y="-11.38" font-family="Helvetica,sans-Serif" font-size="10.00">/codegen/src/Segment.cpp</text>
</a>
</g>
</g>
<!-- Node1&#45;&gt;Node3 -->
<g id="edge2_Node000001_Node000003" class="edge">
<title>Node1&#45;&gt;Node3</title>
<g id="a_edge2_Node000001_Node000003"><a xlink:title=" ">
<path fill="none" stroke="#63b8ff" d="M396.51,-85.18C363.06,-72.9 325.01,-58.94 294.73,-47.82"/>
<polygon fill="#63b8ff" stroke="#63b8ff" points="395.17,-88.42 405.77,-88.58 397.59,-81.85 395.17,-88.42"/>
</a>
</g>
</g>
<!-- Node4 -->
<g id="Node000004" class="node">
<title>Node4</title>
<g id="a_Node000004"><a xlink:href="dump__dunedaq____confmodel_8cpp.html" target="_top" xlink:title=" ">
<polygon fill="white" stroke="#666666" points="465,-53 323.75,-53 323.75,0 465,0 465,-53"/>
<text text-anchor="start" x="331.75" y="-39.5" font-family="Helvetica,sans-Serif" font-size="10.00">/github/workspace/dev</text>
<text text-anchor="start" x="331.75" y="-28.25" font-family="Helvetica,sans-Serif" font-size="10.00">_area/build/confmodel</text>
<text text-anchor="start" x="331.75" y="-17" font-family="Helvetica,sans-Serif" font-size="10.00">/codegen/src/dump_dunedaq</text>
<text text-anchor="middle" x="394.38" y="-5.75" font-family="Helvetica,sans-Serif" font-size="10.00">__confmodel.cpp</text>
</a>
</g>
</g>
<!-- Node1&#45;&gt;Node4 -->
<g id="edge3_Node000001_Node000004" class="edge">
<title>Node1&#45;&gt;Node4</title>
<g id="a_edge3_Node000001_Node000004"><a xlink:title=" ">
<path fill="none" stroke="#63b8ff" d="M444.52,-80.71C435.92,-71.58 426.76,-61.86 418.64,-53.25"/>
<polygon fill="#63b8ff" stroke="#63b8ff" points="441.77,-82.89 451.18,-87.77 446.87,-78.09 441.77,-82.89"/>
</a>
</g>
</g>
<!-- Node5 -->
<g id="Node000005" class="node">
<title>Node5</title>
<g id="a_Node000005"><a xlink:href="get__apps__arguments_8cxx.html" target="_top" xlink:title=" ">
<polygon fill="white" stroke="#666666" points="633.5,-47.38 483.25,-47.38 483.25,-5.62 633.5,-5.62 633.5,-47.38"/>
<text text-anchor="start" x="491.25" y="-33.88" font-family="Helvetica,sans-Serif" font-size="10.00">/github/workspace/dev</text>
<text text-anchor="start" x="491.25" y="-22.62" font-family="Helvetica,sans-Serif" font-size="10.00">_area/sourcecode/appmodel</text>
<text text-anchor="middle" x="558.38" y="-11.38" font-family="Helvetica,sans-Serif" font-size="10.00">/apps/get_apps_arguments.cxx</text>
</a>
</g>
</g>
<!-- Node1&#45;&gt;Node5 -->
<g id="edge4_Node000001_Node000005" class="edge">
<title>Node1&#45;&gt;Node5</title>
<g id="a_edge4_Node000001_Node000005"><a xlink:title=" ">
<path fill="none" stroke="#63b8ff" d="M508.34,-80.59C518.81,-69.48 530.11,-57.48 539.32,-47.71"/>
<polygon fill="#63b8ff" stroke="#63b8ff" points="505.88,-78.09 501.57,-87.77 510.98,-82.89 505.88,-78.09"/>
</a>
</g>
</g>
<!-- Node6 -->
<g id="Node000006" class="node">
<title>Node6</title>
<g id="a_Node000006"><a xlink:href="confmodel_2pybindsrc_2dal__methods_8cpp.html" target="_top" xlink:title=" ">
<polygon fill="white" stroke="#666666" points="793,-47.38 651.75,-47.38 651.75,-5.62 793,-5.62 793,-47.38"/>
<text text-anchor="start" x="659.75" y="-33.88" font-family="Helvetica,sans-Serif" font-size="10.00">/github/workspace/dev</text>
<text text-anchor="start" x="659.75" y="-22.62" font-family="Helvetica,sans-Serif" font-size="10.00">_area/sourcecode/confmodel</text>
<text text-anchor="middle" x="722.38" y="-11.38" font-family="Helvetica,sans-Serif" font-size="10.00">/pybindsrc/dal_methods.cpp</text>
</a>
</g>
</g>
<!-- Node1&#45;&gt;Node6 -->
<g id="edge5_Node000001_Node000006" class="edge">
<title>Node1&#45;&gt;Node6</title>
<g id="a_edge5_Node000001_Node000006"><a xlink:title=" ">
<path fill="none" stroke="#63b8ff" d="M556.35,-86.22C591.76,-73.69 632.6,-59.25 664.92,-47.82"/>
<polygon fill="#63b8ff" stroke="#63b8ff" points="555.24,-82.9 546.98,-89.53 557.58,-89.49 555.24,-82.9"/>
</a>
</g>
</g>
<!-- Node7 -->
<g id="Node000007" class="node">
<title>Node7</title>
<g id="a_Node000007"><a xlink:href="dalMethods_8cpp.html" target="_top" xlink:title=" ">
<polygon fill="white" stroke="#666666" points="952,-47.38 810.75,-47.38 810.75,-5.62 952,-5.62 952,-47.38"/>
<text text-anchor="start" x="818.75" y="-33.88" font-family="Helvetica,sans-Serif" font-size="10.00">/github/workspace/dev</text>
<text text-anchor="start" x="818.75" y="-22.62" font-family="Helvetica,sans-Serif" font-size="10.00">_area/sourcecode/confmodel</text>
<text text-anchor="middle" x="881.38" y="-11.38" font-family="Helvetica,sans-Serif" font-size="10.00">/src/dalMethods.cpp</text>
</a>
</g>
</g>
<!-- Node1&#45;&gt;Node7 -->
<g id="edge6_Node000001_Node000007" class="edge">
<title>Node1&#45;&gt;Node7</title>
<g id="a_edge6_Node000001_Node000007"><a xlink:title=" ">
<path fill="none" stroke="#63b8ff" d="M556.82,-102.22C623.18,-91.4 719.54,-74.09 802.38,-53 808.52,-51.44 814.89,-49.65 821.22,-47.78"/>
<polygon fill="#63b8ff" stroke="#63b8ff" points="556.42,-98.74 547.11,-103.79 557.54,-105.65 556.42,-98.74"/>
</a>
</g>
</g>
</g>
</svg>
