<?xml version="1.0" encoding="UTF-8" standalone="no"?>
<!DOCTYPE svg PUBLIC "-//W3C//DTD SVG 1.1//EN"
 "http://www.w3.org/Graphics/SVG/1.1/DTD/svg11.dtd">
<!-- Generated by graphviz version 9.0.0 (20230911.1827)
 -->
<!-- Title: /github/workspace/dev_area/build/appmodel/codegen/include/appmodel/FakeHSIEventGeneratorModule.hpp Pages: 1 -->
<svg width="508pt" height="150pt"
 viewBox="0.00 0.00 508.12 150.00" xmlns="http://www.w3.org/2000/svg" xmlns:xlink="http://www.w3.org/1999/xlink">
<g id="graph0" class="graph" transform="scale(1 1) rotate(0) translate(4 146)">
<title>/github/workspace/dev_area/build/appmodel/codegen/include/appmodel/FakeHSIEventGeneratorModule.hpp</title>
<!-- Node1 -->
<g id="Node000001" class="node">
<title>Node1</title>
<g id="a_Node000001"><a xlink:title=" ">
<polygon fill="#999999" stroke="#666666" points="358.38,-142 183.38,-142 183.38,-89 358.38,-89 358.38,-142"/>
<text text-anchor="start" x="191.38" y="-128.5" font-family="Helvetica,sans-Serif" font-size="10.00">/github/workspace/dev</text>
<text text-anchor="start" x="191.38" y="-117.25" font-family="Helvetica,sans-Serif" font-size="10.00">_area/build/appmodel</text>
<text text-anchor="start" x="191.38" y="-106" font-family="Helvetica,sans-Serif" font-size="10.00">/codegen/include/appmodel</text>
<text text-anchor="middle" x="270.88" y="-94.75" font-family="Helvetica,sans-Serif" font-size="10.00">/FakeHSIEventGeneratorModule.hpp</text>
</a>
</g>
</g>
<!-- Node2 -->
<g id="Node000002" class="node">
<title>Node2</title>
<g id="a_Node000002"><a xlink:href="FakeHSIEventGeneratorModule_8cpp.html" target="_top" xlink:title=" ">
<polygon fill="white" stroke="#666666" points="181.75,-53 0,-53 0,0 181.75,0 181.75,-53"/>
<text text-anchor="start" x="8" y="-39.5" font-family="Helvetica,sans-Serif" font-size="10.00">/github/workspace/dev</text>
<text text-anchor="start" x="8" y="-28.25" font-family="Helvetica,sans-Serif" font-size="10.00">_area/build/appmodel</text>
<text text-anchor="start" x="8" y="-17" font-family="Helvetica,sans-Serif" font-size="10.00">/codegen/src/FakeHSIEventGenerator</text>
<text text-anchor="middle" x="90.88" y="-5.75" font-family="Helvetica,sans-Serif" font-size="10.00">Module.cpp</text>
</a>
</g>
</g>
<!-- Node1&#45;&gt;Node2 -->
<g id="edge1_Node000001_Node000002" class="edge">
<title>Node1&#45;&gt;Node2</title>
<g id="a_edge1_Node000001_Node000002"><a xlink:title=" ">
<path fill="none" stroke="#63b8ff" d="M207.16,-83.71C186.67,-73.8 164.19,-62.94 144.5,-53.42"/>
<polygon fill="#63b8ff" stroke="#63b8ff" points="205.47,-86.77 215.99,-87.97 208.51,-80.47 205.47,-86.77"/>
</a>
</g>
</g>
<!-- Node3 -->
<g id="Node000003" class="node">
<title>Node3</title>
<g id="a_Node000003"><a xlink:href="dump__dunedaq____appmodel_8cpp.html" target="_top" xlink:title=" ">
<polygon fill="white" stroke="#666666" points="341.5,-53 200.25,-53 200.25,0 341.5,0 341.5,-53"/>
<text text-anchor="start" x="208.25" y="-39.5" font-family="Helvetica,sans-Serif" font-size="10.00">/github/workspace/dev</text>
<text text-anchor="start" x="208.25" y="-28.25" font-family="Helvetica,sans-Serif" font-size="10.00">_area/build/appmodel</text>
<text text-anchor="start" x="208.25" y="-17" font-family="Helvetica,sans-Serif" font-size="10.00">/codegen/src/dump_dunedaq</text>
<text text-anchor="middle" x="270.88" y="-5.75" font-family="Helvetica,sans-Serif" font-size="10.00">__appmodel.cpp</text>
</a>
</g>
</g>
<!-- Node1&#45;&gt;Node3 -->
<g id="edge2_Node000001_Node000003" class="edge">
<title>Node1&#45;&gt;Node3</title>
<g id="a_edge2_Node000001_Node000003"><a xlink:title=" ">
<path fill="none" stroke="#63b8ff" d="M270.88,-77.61C270.88,-69.41 270.88,-60.89 270.88,-53.25"/>
<polygon fill="#63b8ff" stroke="#63b8ff" points="267.38,-77.35 270.88,-87.35 274.38,-77.35 267.38,-77.35"/>
</a>
</g>
</g>
<!-- Node4 -->
<g id="Node000004" class="node">
<title>Node4</title>
<g id="a_Node000004"><a xlink:href="sourcecode_2appmodel_2src_2FakeHSIApplication_8cpp.html" target="_top" xlink:title=" ">
<polygon fill="white" stroke="#666666" points="500.12,-47.38 359.62,-47.38 359.62,-5.62 500.12,-5.62 500.12,-47.38"/>
<text text-anchor="start" x="367.62" y="-33.88" font-family="Helvetica,sans-Serif" font-size="10.00">/github/workspace/dev</text>
<text text-anchor="start" x="367.62" y="-22.62" font-family="Helvetica,sans-Serif" font-size="10.00">_area/sourcecode/appmodel</text>
<text text-anchor="middle" x="429.88" y="-11.38" font-family="Helvetica,sans-Serif" font-size="10.00">/src/FakeHSIApplication.cpp</text>
</a>
</g>
</g>
<!-- Node1&#45;&gt;Node4 -->
<g id="edge3_Node000001_Node000004" class="edge">
<title>Node1&#45;&gt;Node4</title>
<g id="a_edge3_Node000001_Node000004"><a xlink:title=" ">
<path fill="none" stroke="#63b8ff" d="M328.18,-83.14C349.74,-71.35 373.65,-58.26 392.87,-47.75"/>
<polygon fill="#63b8ff" stroke="#63b8ff" points="326.57,-80.04 319.48,-87.91 329.93,-86.18 326.57,-80.04"/>
</a>
</g>
</g>
</g>
</svg>
