<?xml version="1.0" encoding="UTF-8" standalone="no"?>
<!DOCTYPE svg PUBLIC "-//W3C//DTD SVG 1.1//EN"
 "http://www.w3.org/Graphics/SVG/1.1/DTD/svg11.dtd">
<!-- Generated by graphviz version 9.0.0 (20230911.1827)
 -->
<!-- Title: /github/workspace/dev_area/build/confmodel/codegen/include/confmodel/ProcessingResource.hpp Pages: 1 -->
<svg width="878pt" height="150pt"
 viewBox="0.00 0.00 878.38 150.00" xmlns="http://www.w3.org/2000/svg" xmlns:xlink="http://www.w3.org/1999/xlink">
<g id="graph0" class="graph" transform="scale(1 1) rotate(0) translate(4 146)">
<title>/github/workspace/dev_area/build/confmodel/codegen/include/confmodel/ProcessingResource.hpp</title>
<!-- Node1 -->
<g id="Node000001" class="node">
<title>Node1</title>
<g id="a_Node000001"><a xlink:title=" ">
<polygon fill="#999999" stroke="#666666" points="538,-142 400.5,-142 400.5,-89 538,-89 538,-142"/>
<text text-anchor="start" x="408.5" y="-128.5" font-family="Helvetica,sans-Serif" font-size="10.00">/github/workspace/dev</text>
<text text-anchor="start" x="408.5" y="-117.25" font-family="Helvetica,sans-Serif" font-size="10.00">_area/build/confmodel</text>
<text text-anchor="start" x="408.5" y="-106" font-family="Helvetica,sans-Serif" font-size="10.00">/codegen/include/confmodel</text>
<text text-anchor="middle" x="469.25" y="-94.75" font-family="Helvetica,sans-Serif" font-size="10.00">/ProcessingResource.hpp</text>
</a>
</g>
</g>
<!-- Node2 -->
<g id="Node000002" class="node">
<title>Node2</title>
<g id="a_Node000002"><a xlink:href="DPDKPortConfiguration_8cpp.html" target="_top" xlink:title=" ">
<polygon fill="white" stroke="#666666" points="194.5,-47.38 0,-47.38 0,-5.62 194.5,-5.62 194.5,-47.38"/>
<text text-anchor="start" x="8" y="-33.88" font-family="Helvetica,sans-Serif" font-size="10.00">/github/workspace/dev</text>
<text text-anchor="start" x="8" y="-22.62" font-family="Helvetica,sans-Serif" font-size="10.00">_area/build/appmodel</text>
<text text-anchor="middle" x="97.25" y="-11.38" font-family="Helvetica,sans-Serif" font-size="10.00">/codegen/src/DPDKPortConfiguration.cpp</text>
</a>
</g>
</g>
<!-- Node1&#45;&gt;Node2 -->
<g id="edge1_Node000001_Node000002" class="edge">
<title>Node1&#45;&gt;Node2</title>
<g id="a_edge1_Node000001_Node000002"><a xlink:title=" ">
<path fill="none" stroke="#63b8ff" d="M389.05,-96.15C336.24,-84.02 265.59,-67.71 203.25,-53 196.16,-51.33 188.8,-49.58 181.42,-47.82"/>
<polygon fill="#63b8ff" stroke="#63b8ff" points="388.04,-99.51 398.57,-98.34 389.6,-92.69 388.04,-99.51"/>
</a>
</g>
</g>
<!-- Node3 -->
<g id="Node000003" class="node">
<title>Node3</title>
<g id="a_Node000003"><a xlink:href="RoHwConfig_8cpp.html" target="_top" xlink:title=" ">
<polygon fill="white" stroke="#666666" points="359.88,-47.38 212.62,-47.38 212.62,-5.62 359.88,-5.62 359.88,-47.38"/>
<text text-anchor="start" x="220.62" y="-33.88" font-family="Helvetica,sans-Serif" font-size="10.00">/github/workspace/dev</text>
<text text-anchor="start" x="220.62" y="-22.62" font-family="Helvetica,sans-Serif" font-size="10.00">_area/build/appmodel</text>
<text text-anchor="middle" x="286.25" y="-11.38" font-family="Helvetica,sans-Serif" font-size="10.00">/codegen/src/RoHwConfig.cpp</text>
</a>
</g>
</g>
<!-- Node1&#45;&gt;Node3 -->
<g id="edge2_Node000001_Node000003" class="edge">
<title>Node1&#45;&gt;Node3</title>
<g id="a_edge2_Node000001_Node000003"><a xlink:title=" ">
<path fill="none" stroke="#63b8ff" d="M404.64,-83.78C379.48,-71.82 351.36,-58.45 328.84,-47.75"/>
<polygon fill="#63b8ff" stroke="#63b8ff" points="402.94,-86.85 413.47,-87.98 405.94,-80.53 402.94,-86.85"/>
</a>
</g>
</g>
<!-- Node4 -->
<g id="Node000004" class="node">
<title>Node4</title>
<g id="a_Node000004"><a xlink:href="ProcessingResource_8cpp.html" target="_top" xlink:title=" ">
<polygon fill="white" stroke="#666666" points="560.88,-47.38 377.62,-47.38 377.62,-5.62 560.88,-5.62 560.88,-47.38"/>
<text text-anchor="start" x="385.62" y="-33.88" font-family="Helvetica,sans-Serif" font-size="10.00">/github/workspace/dev</text>
<text text-anchor="start" x="385.62" y="-22.62" font-family="Helvetica,sans-Serif" font-size="10.00">_area/build/confmodel</text>
<text text-anchor="middle" x="469.25" y="-11.38" font-family="Helvetica,sans-Serif" font-size="10.00">/codegen/src/ProcessingResource.cpp</text>
</a>
</g>
</g>
<!-- Node1&#45;&gt;Node4 -->
<g id="edge3_Node000001_Node000004" class="edge">
<title>Node1&#45;&gt;Node4</title>
<g id="a_edge3_Node000001_Node000004"><a xlink:title=" ">
<path fill="none" stroke="#63b8ff" d="M469.25,-77.63C469.25,-67.38 469.25,-56.62 469.25,-47.71"/>
<polygon fill="#63b8ff" stroke="#63b8ff" points="465.75,-77.35 469.25,-87.35 472.75,-77.35 465.75,-77.35"/>
</a>
</g>
</g>
<!-- Node5 -->
<g id="Node000005" class="node">
<title>Node5</title>
<g id="a_Node000005"><a xlink:href="dump__dunedaq____confmodel_8cpp.html" target="_top" xlink:title=" ">
<polygon fill="white" stroke="#666666" points="719.88,-53 578.62,-53 578.62,0 719.88,0 719.88,-53"/>
<text text-anchor="start" x="586.62" y="-39.5" font-family="Helvetica,sans-Serif" font-size="10.00">/github/workspace/dev</text>
<text text-anchor="start" x="586.62" y="-28.25" font-family="Helvetica,sans-Serif" font-size="10.00">_area/build/confmodel</text>
<text text-anchor="start" x="586.62" y="-17" font-family="Helvetica,sans-Serif" font-size="10.00">/codegen/src/dump_dunedaq</text>
<text text-anchor="middle" x="649.25" y="-5.75" font-family="Helvetica,sans-Serif" font-size="10.00">__confmodel.cpp</text>
</a>
</g>
</g>
<!-- Node1&#45;&gt;Node5 -->
<g id="edge4_Node000001_Node000005" class="edge">
<title>Node1&#45;&gt;Node5</title>
<g id="a_edge4_Node000001_Node000005"><a xlink:title=" ">
<path fill="none" stroke="#63b8ff" d="M532.96,-83.71C553.45,-73.8 575.94,-62.94 595.63,-53.42"/>
<polygon fill="#63b8ff" stroke="#63b8ff" points="531.61,-80.47 524.13,-87.97 534.66,-86.77 531.61,-80.47"/>
</a>
</g>
</g>
<!-- Node6 -->
<g id="Node000006" class="node">
<title>Node6</title>
<g id="a_Node000006"><a xlink:href="IfaceWrapper_8cpp.html" target="_top" xlink:title=" ">
<polygon fill="white" stroke="#666666" points="870.38,-47.38 738.12,-47.38 738.12,-5.62 870.38,-5.62 870.38,-47.38"/>
<text text-anchor="start" x="746.12" y="-33.88" font-family="Helvetica,sans-Serif" font-size="10.00">/github/workspace/dev</text>
<text text-anchor="start" x="746.12" y="-22.62" font-family="Helvetica,sans-Serif" font-size="10.00">_area/sourcecode/dpdklibs</text>
<text text-anchor="middle" x="804.25" y="-11.38" font-family="Helvetica,sans-Serif" font-size="10.00">/src/IfaceWrapper.cpp</text>
</a>
</g>
</g>
<!-- Node1&#45;&gt;Node6 -->
<g id="edge5_Node000001_Node000006" class="edge">
<title>Node1&#45;&gt;Node6</title>
<g id="a_edge5_Node000001_Node000006"><a xlink:title=" ">
<path fill="none" stroke="#63b8ff" d="M549.51,-97.59C601.16,-86.2 669.55,-70.17 729.25,-53 734.8,-51.4 740.55,-49.64 746.28,-47.82"/>
<polygon fill="#63b8ff" stroke="#63b8ff" points="548.91,-94.14 539.89,-99.7 550.41,-100.98 548.91,-94.14"/>
</a>
</g>
</g>
</g>
</svg>
