<?xml version="1.0" encoding="UTF-8" standalone="no"?>
<!DOCTYPE svg PUBLIC "-//W3C//DTD SVG 1.1//EN"
 "http://www.w3.org/Graphics/SVG/1.1/DTD/svg11.dtd">
<!-- Generated by graphviz version 9.0.0 (20230911.1827)
 -->
<!-- Title: Graphical Class Hierarchy Pages: 1 -->
<svg width="212pt" height="64pt"
 viewBox="0.00 0.00 211.75 64.25" xmlns="http://www.w3.org/2000/svg" xmlns:xlink="http://www.w3.org/1999/xlink">
<g id="graph0" class="graph" transform="scale(1 1) rotate(0) translate(4 60.25)">
<title>Graphical Class Hierarchy</title>
<!-- Node0 -->
<g id="Node000000" class="node">
<title>Node0</title>
<g id="a_Node000000"><a xlink:href="classers_1_1Context.html" target="_top" xlink:title="An abstract interface to access an Issue context.">
<polygon fill="white" stroke="#666666" points="67,-37.25 0,-37.25 0,-18 67,-18 67,-37.25"/>
<text text-anchor="middle" x="33.5" y="-23.75" font-family="Helvetica,sans-Serif" font-size="10.00">ers::Context</text>
</a>
</g>
</g>
<!-- Node1 -->
<g id="Node000001" class="node">
<title>Node1</title>
<g id="a_Node000001"><a xlink:href="classers_1_1LocalContext.html" target="_top" xlink:title=" ">
<polygon fill="white" stroke="#666666" points="198.88,-56.25 107.88,-56.25 107.88,-37 198.88,-37 198.88,-56.25"/>
<text text-anchor="middle" x="153.38" y="-42.75" font-family="Helvetica,sans-Serif" font-size="10.00">ers::LocalContext</text>
</a>
</g>
</g>
<!-- Node0&#45;&gt;Node1 -->
<g id="edge454_Node000000_Node000001" class="edge">
<title>Node0&#45;&gt;Node1</title>
<g id="a_edge454_Node000000_Node000001"><a xlink:title=" ">
<path fill="none" stroke="#63b8ff" d="M78.5,-34.72C87.93,-36.24 97.91,-37.85 107.38,-39.37"/>
<polygon fill="#63b8ff" stroke="#63b8ff" points="79.26,-31.29 68.83,-33.16 78.14,-38.21 79.26,-31.29"/>
</a>
</g>
</g>
<!-- Node2 -->
<g id="Node000002" class="node">
<title>Node2</title>
<g id="a_Node000002"><a xlink:href="classers_1_1RemoteContext.html" target="_top" xlink:title=" ">
<polygon fill="white" stroke="#666666" points="203.75,-19.25 103,-19.25 103,0 203.75,0 203.75,-19.25"/>
<text text-anchor="middle" x="153.38" y="-5.75" font-family="Helvetica,sans-Serif" font-size="10.00">ers::RemoteContext</text>
</a>
</g>
</g>
<!-- Node0&#45;&gt;Node2 -->
<g id="edge455_Node000000_Node000002" class="edge">
<title>Node0&#45;&gt;Node2</title>
<g id="a_edge455_Node000000_Node000002"><a xlink:title=" ">
<path fill="none" stroke="#63b8ff" d="M78.48,-20.91C86.31,-19.71 94.53,-18.46 102.51,-17.24"/>
<polygon fill="#63b8ff" stroke="#63b8ff" points="78.19,-17.41 68.83,-22.38 79.24,-24.33 78.19,-17.41"/>
</a>
</g>
</g>
</g>
</svg>
