<?xml version="1.0" encoding="UTF-8" standalone="no"?>
<!DOCTYPE svg PUBLIC "-//W3C//DTD SVG 1.1//EN"
 "http://www.w3.org/Graphics/SVG/1.1/DTD/svg11.dtd">
<!-- Generated by graphviz version 9.0.0 (20230911.1827)
 -->
<!-- Title: Graphical Class Hierarchy Pages: 1 -->
<svg width="289pt" height="88pt"
 viewBox="0.00 0.00 289.00 87.50" xmlns="http://www.w3.org/2000/svg" xmlns:xlink="http://www.w3.org/1999/xlink">
<g id="graph0" class="graph" transform="scale(1 1) rotate(0) translate(4 83.5)">
<title>Graphical Class Hierarchy</title>
<!-- Node0 -->
<g id="Node000000" class="node">
<title>Node0</title>
<g id="a_Node000000"><a xlink:href="classdunedaq_1_1conffwk_1_1ConfigObjectImpl.html" target="_top" xlink:title="Implements database objects.">
<polygon fill="white" stroke="#666666" points="122.5,-54.5 0,-54.5 0,-24 122.5,-24 122.5,-54.5"/>
<text text-anchor="start" x="8" y="-41" font-family="Helvetica,sans-Serif" font-size="10.00">dunedaq::conffwk::Config</text>
<text text-anchor="middle" x="61.25" y="-29.75" font-family="Helvetica,sans-Serif" font-size="10.00">ObjectImpl</text>
</a>
</g>
</g>
<!-- Node1 -->
<g id="Node000001" class="node">
<title>Node1</title>
<g id="a_Node000001"><a xlink:href="classdunedaq_1_1conffwk_1_1ConfigObjectDefault.html" target="_top" xlink:title=" ">
<polygon fill="white" stroke="#666666" points="281,-79.5 158.5,-79.5 158.5,-49 281,-49 281,-79.5"/>
<text text-anchor="start" x="166.5" y="-66" font-family="Helvetica,sans-Serif" font-size="10.00">dunedaq::conffwk::Config</text>
<text text-anchor="middle" x="219.75" y="-54.75" font-family="Helvetica,sans-Serif" font-size="10.00">ObjectDefault</text>
</a>
</g>
</g>
<!-- Node0&#45;&gt;Node1 -->
<g id="edge128_Node000000_Node000001" class="edge">
<title>Node0&#45;&gt;Node1</title>
<g id="a_edge128_Node000000_Node000001"><a xlink:title=" ">
<path fill="none" stroke="#63b8ff" d="M134.05,-50.72C142.1,-52.01 150.25,-53.31 158.15,-54.57"/>
<polygon fill="#63b8ff" stroke="#63b8ff" points="134.68,-47.28 124.25,-49.15 133.57,-54.19 134.68,-47.28"/>
</a>
</g>
</g>
<!-- Node2 -->
<g id="Node000002" class="node">
<title>Node2</title>
<g id="a_Node000002"><a xlink:href="classdunedaq_1_1oksconflibs_1_1OksConfigObject.html" target="_top" xlink:title=" ">
<polygon fill="white" stroke="#666666" points="272.75,-30.5 166.75,-30.5 166.75,0 272.75,0 272.75,-30.5"/>
<text text-anchor="start" x="174.75" y="-17" font-family="Helvetica,sans-Serif" font-size="10.00">dunedaq::oksconflibs</text>
<text text-anchor="middle" x="219.75" y="-5.75" font-family="Helvetica,sans-Serif" font-size="10.00">::OksConfigObject</text>
</a>
</g>
</g>
<!-- Node0&#45;&gt;Node2 -->
<g id="edge129_Node000000_Node000002" class="edge">
<title>Node0&#45;&gt;Node2</title>
<g id="a_edge129_Node000000_Node000002"><a xlink:title=" ">
<path fill="none" stroke="#63b8ff" d="M134,-28.25C144.88,-26.58 155.93,-24.88 166.3,-23.29"/>
<polygon fill="#63b8ff" stroke="#63b8ff" points="133.61,-24.77 124.25,-29.74 134.67,-31.69 133.61,-24.77"/>
</a>
</g>
</g>
</g>
</svg>
