<?xml version="1.0" encoding="UTF-8" standalone="no"?>
<!DOCTYPE svg PUBLIC "-//W3C//DTD SVG 1.1//EN"
 "http://www.w3.org/Graphics/SVG/1.1/DTD/svg11.dtd">
<!-- Generated by graphviz version 9.0.0 (20230911.1827)
 -->
<!-- Title: Graphical Class Hierarchy Pages: 1 -->
<svg width="252pt" height="88pt"
 viewBox="0.00 0.00 251.50 87.50" xmlns="http://www.w3.org/2000/svg" xmlns:xlink="http://www.w3.org/1999/xlink">
<g id="graph0" class="graph" transform="scale(1 1) rotate(0) translate(4 83.5)">
<title>Graphical Class Hierarchy</title>
<!-- Node0 -->
<g id="Node000000" class="node">
<title>Node0</title>
<g id="a_Node000000"><a xlink:title=" ">
<polygon fill="#e0e0e0" stroke="#999999" points="33.25,-48.88 0,-48.88 0,-29.62 33.25,-29.62 33.25,-48.88"/>
<text text-anchor="middle" x="16.62" y="-35.38" font-family="Helvetica,sans-Serif" font-size="10.00">App</text>
</a>
</g>
</g>
<!-- Node1 -->
<g id="Node000001" class="node">
<title>Node1</title>
<g id="a_Node000001"><a xlink:href="classfaketp__to__sink_1_1faketp__to__sink_1_1FakeTPToSinkApp.html" target="_top" xlink:title=" ">
<polygon fill="white" stroke="#666666" points="225.12,-79.5 87.62,-79.5 87.62,-49 225.12,-49 225.12,-79.5"/>
<text text-anchor="start" x="95.62" y="-66" font-family="Helvetica,sans-Serif" font-size="10.00">faketp_to_sink.faketp</text>
<text text-anchor="middle" x="156.38" y="-54.75" font-family="Helvetica,sans-Serif" font-size="10.00">_to_sink.FakeTPToSinkApp</text>
</a>
</g>
</g>
<!-- Node0&#45;&gt;Node1 -->
<g id="edge10_Node000000_Node000001" class="edge">
<title>Node0&#45;&gt;Node1</title>
<g id="a_edge10_Node000000_Node000001"><a xlink:title=" ">
<path fill="none" stroke="#63b8ff" d="M44.9,-44.2C57.15,-46.42 72.2,-49.16 87.21,-51.88"/>
<polygon fill="#63b8ff" stroke="#63b8ff" points="45.65,-40.78 35.19,-42.44 44.4,-47.67 45.65,-40.78"/>
</a>
</g>
</g>
<!-- Node2 -->
<g id="Node000002" class="node">
<title>Node2</title>
<g id="a_Node000002"><a xlink:href="classtest__channel__filter_1_1test__channel__filter_1_1TestChannelFilterApp.html" target="_top" xlink:title=" ">
<polygon fill="white" stroke="#666666" points="243.5,-30.5 69.25,-30.5 69.25,0 243.5,0 243.5,-30.5"/>
<text text-anchor="start" x="77.25" y="-17" font-family="Helvetica,sans-Serif" font-size="10.00">test_channel_filter.test</text>
<text text-anchor="middle" x="156.38" y="-5.75" font-family="Helvetica,sans-Serif" font-size="10.00">_channel_filter.TestChannelFilterApp</text>
</a>
</g>
</g>
<!-- Node0&#45;&gt;Node2 -->
<g id="edge11_Node000000_Node000002" class="edge">
<title>Node0&#45;&gt;Node2</title>
<g id="a_edge11_Node000000_Node000002"><a xlink:title=" ">
<path fill="none" stroke="#63b8ff" d="M44.86,-34.51C52.11,-33.24 60.34,-31.81 68.96,-30.31"/>
<polygon fill="#63b8ff" stroke="#63b8ff" points="44.44,-31.03 35.19,-36.19 45.64,-37.92 44.44,-31.03"/>
</a>
</g>
</g>
</g>
</svg>
