<?xml version="1.0" encoding="UTF-8" standalone="no"?>
<!DOCTYPE svg PUBLIC "-//W3C//DTD SVG 1.1//EN"
 "http://www.w3.org/Graphics/SVG/1.1/DTD/svg11.dtd">
<!-- Generated by graphviz version 9.0.0 (20230911.1827)
 -->
<!-- Title: Graphical Class Hierarchy Pages: 1 -->
<svg width="275pt" height="101pt"
 viewBox="0.00 0.00 274.75 101.25" xmlns="http://www.w3.org/2000/svg" xmlns:xlink="http://www.w3.org/1999/xlink">
<g id="graph0" class="graph" transform="scale(1 1) rotate(0) translate(4 97.25)">
<title>Graphical Class Hierarchy</title>
<!-- Node0 -->
<g id="Node000000" class="node">
<title>Node0</title>
<g id="a_Node000000"><a xlink:title=" ">
<polygon fill="#e0e0e0" stroke="#999999" points="91,-56.25 0,-56.25 0,-37 91,-37 91,-56.25"/>
<text text-anchor="middle" x="45.5" y="-42.75" font-family="Helvetica,sans-Serif" font-size="10.00">QGraphicsObject</text>
</a>
</g>
</g>
<!-- Node1 -->
<g id="Node000001" class="node">
<title>Node1</title>
<g id="a_Node000001"><a xlink:href="classdbe_1_1GraphicalObject.html" target="_top" xlink:title=" ">
<polygon fill="white" stroke="#666666" points="249.88,-93.25 143.88,-93.25 143.88,-74 249.88,-74 249.88,-93.25"/>
<text text-anchor="middle" x="196.88" y="-79.75" font-family="Helvetica,sans-Serif" font-size="10.00">dbe::GraphicalObject</text>
</a>
</g>
</g>
<!-- Node0&#45;&gt;Node1 -->
<g id="edge591_Node000000_Node000001" class="edge">
<title>Node0&#45;&gt;Node1</title>
<g id="a_edge591_Node000000_Node000001"><a xlink:title=" ">
<path fill="none" stroke="#63b8ff" d="M98.28,-59.45C116.88,-64.06 137.58,-69.18 155.11,-73.53"/>
<polygon fill="#63b8ff" stroke="#63b8ff" points="99.33,-56.11 88.79,-57.1 97.65,-62.9 99.33,-56.11"/>
</a>
</g>
</g>
<!-- Node2 -->
<g id="Node000002" class="node">
<title>Node2</title>
<g id="a_Node000002"><a xlink:href="classdbe_1_1GraphicalRelationship.html" target="_top" xlink:title=" ">
<polygon fill="white" stroke="#666666" points="262.25,-56.25 131.5,-56.25 131.5,-37 262.25,-37 262.25,-56.25"/>
<text text-anchor="middle" x="196.88" y="-42.75" font-family="Helvetica,sans-Serif" font-size="10.00">dbe::GraphicalRelationship</text>
</a>
</g>
</g>
<!-- Node0&#45;&gt;Node2 -->
<g id="edge592_Node000000_Node000002" class="edge">
<title>Node0&#45;&gt;Node2</title>
<g id="a_edge592_Node000000_Node000002"><a xlink:title=" ">
<path fill="none" stroke="#63b8ff" d="M102.8,-46.62C112.07,-46.62 121.75,-46.62 131.21,-46.62"/>
<polygon fill="#63b8ff" stroke="#63b8ff" points="102.83,-43.13 92.83,-46.63 102.83,-50.13 102.83,-43.13"/>
</a>
</g>
</g>
<!-- Node3 -->
<g id="Node000003" class="node">
<title>Node3</title>
<g id="a_Node000003"><a xlink:href="classdbse_1_1SchemaGraphicObject.html" target="_top" xlink:title=" ">
<polygon fill="white" stroke="#666666" points="266.75,-19.25 127,-19.25 127,0 266.75,0 266.75,-19.25"/>
<text text-anchor="middle" x="196.88" y="-5.75" font-family="Helvetica,sans-Serif" font-size="10.00">dbse::SchemaGraphicObject</text>
</a>
</g>
</g>
<!-- Node0&#45;&gt;Node3 -->
<g id="edge593_Node000000_Node000003" class="edge">
<title>Node0&#45;&gt;Node3</title>
<g id="a_edge593_Node000000_Node000003"><a xlink:title=" ">
<path fill="none" stroke="#63b8ff" d="M98.28,-33.8C116.88,-29.19 137.58,-24.07 155.11,-19.72"/>
<polygon fill="#63b8ff" stroke="#63b8ff" points="97.65,-30.35 88.79,-36.15 99.33,-37.14 97.65,-30.35"/>
</a>
</g>
</g>
</g>
</svg>
