<?xml version="1.0" encoding="UTF-8" standalone="no"?>
<!DOCTYPE svg PUBLIC "-//W3C//DTD SVG 1.1//EN"
 "http://www.w3.org/Graphics/SVG/1.1/DTD/svg11.dtd">
<!-- Generated by graphviz version 9.0.0 (20230911.1827)
 -->
<!-- Title: Graphical Class Hierarchy Pages: 1 -->
<svg width="274pt" height="101pt"
 viewBox="0.00 0.00 274.00 101.25" xmlns="http://www.w3.org/2000/svg" xmlns:xlink="http://www.w3.org/1999/xlink">
<g id="graph0" class="graph" transform="scale(1 1) rotate(0) translate(4 97.25)">
<title>Graphical Class Hierarchy</title>
<!-- Node0 -->
<g id="Node000000" class="node">
<title>Node0</title>
<g id="a_Node000000"><a xlink:href="classOksSystem_1_1File.html" target="_top" xlink:title="Wrapper for file operations.">
<polygon fill="white" stroke="#666666" points="87.25,-56.25 0,-56.25 0,-37 87.25,-37 87.25,-56.25"/>
<text text-anchor="middle" x="43.62" y="-42.75" font-family="Helvetica,sans-Serif" font-size="10.00">OksSystem::File</text>
</a>
</g>
</g>
<!-- Node1 -->
<g id="Node000001" class="node">
<title>Node1</title>
<g id="a_Node000001"><a xlink:href="classOksSystem_1_1Executable.html" target="_top" xlink:title="Wrapper for executable file manipulation.">
<polygon fill="white" stroke="#666666" points="254,-93.25 135.25,-93.25 135.25,-74 254,-74 254,-93.25"/>
<text text-anchor="middle" x="194.62" y="-79.75" font-family="Helvetica,sans-Serif" font-size="10.00">OksSystem::Executable</text>
</a>
</g>
</g>
<!-- Node0&#45;&gt;Node1 -->
<g id="edge583_Node000000_Node000001" class="edge">
<title>Node0&#45;&gt;Node1</title>
<g id="a_edge583_Node000000_Node000001"><a xlink:title=" ">
<path fill="none" stroke="#63b8ff" d="M96.28,-59.45C114.83,-64.06 135.47,-69.18 152.96,-73.53"/>
<polygon fill="#63b8ff" stroke="#63b8ff" points="97.36,-56.11 86.81,-57.1 95.67,-62.91 97.36,-56.11"/>
</a>
</g>
</g>
<!-- Node2 -->
<g id="Node000002" class="node">
<title>Node2</title>
<g id="a_Node000002"><a xlink:href="classOksSystem_1_1FIFOConnection.html" target="_top" xlink:title=" ">
<polygon fill="white" stroke="#666666" points="266,-56.25 123.25,-56.25 123.25,-37 266,-37 266,-56.25"/>
<text text-anchor="middle" x="194.62" y="-42.75" font-family="Helvetica,sans-Serif" font-size="10.00">OksSystem::FIFOConnection</text>
</a>
</g>
</g>
<!-- Node0&#45;&gt;Node2 -->
<g id="edge584_Node000000_Node000002" class="edge">
<title>Node0&#45;&gt;Node2</title>
<g id="a_edge584_Node000000_Node000002"><a xlink:title=" ">
<path fill="none" stroke="#63b8ff" d="M99.14,-46.62C106.85,-46.62 114.87,-46.62 122.83,-46.62"/>
<polygon fill="#63b8ff" stroke="#63b8ff" points="99.24,-43.13 89.24,-46.63 99.24,-50.13 99.24,-43.13"/>
</a>
</g>
</g>
<!-- Node3 -->
<g id="Node000003" class="node">
<title>Node3</title>
<g id="a_Node000003"><a xlink:href="classOksSystem_1_1MapFile.html" target="_top" xlink:title="Wrapper for memory map operations.">
<polygon fill="white" stroke="#666666" points="247.62,-19.25 141.62,-19.25 141.62,0 247.62,0 247.62,-19.25"/>
<text text-anchor="middle" x="194.62" y="-5.75" font-family="Helvetica,sans-Serif" font-size="10.00">OksSystem::MapFile</text>
</a>
</g>
</g>
<!-- Node0&#45;&gt;Node3 -->
<g id="edge585_Node000000_Node000003" class="edge">
<title>Node0&#45;&gt;Node3</title>
<g id="a_edge585_Node000000_Node000003"><a xlink:title=" ">
<path fill="none" stroke="#63b8ff" d="M96.28,-33.8C114.83,-29.19 135.47,-24.07 152.96,-19.72"/>
<polygon fill="#63b8ff" stroke="#63b8ff" points="95.67,-30.34 86.81,-36.15 97.36,-37.14 95.67,-30.34"/>
</a>
</g>
</g>
</g>
</svg>
