<?xml version="1.0" encoding="UTF-8" standalone="no"?>
<!DOCTYPE svg PUBLIC "-//W3C//DTD SVG 1.1//EN"
 "http://www.w3.org/Graphics/SVG/1.1/DTD/svg11.dtd">
<!-- Generated by graphviz version 9.0.0 (20230911.1827)
 -->
<!-- Title: Graphical Class Hierarchy Pages: 1 -->
<svg width="261pt" height="174pt"
 viewBox="0.00 0.00 260.50 173.50" xmlns="http://www.w3.org/2000/svg" xmlns:xlink="http://www.w3.org/1999/xlink">
<g id="graph0" class="graph" transform="scale(1 1) rotate(0) translate(4 169.5)">
<title>Graphical Class Hierarchy</title>
<!-- Node0 -->
<g id="Node000000" class="node">
<title>Node0</title>
<g id="a_Node000000"><a xlink:title=" ">
<polygon fill="#e0e0e0" stroke="#999999" points="58,-94.88 0,-94.88 0,-75.62 58,-75.62 58,-94.88"/>
<text text-anchor="middle" x="29" y="-81.38" font-family="Helvetica,sans-Serif" font-size="10.00">Exception</text>
</a>
</g>
</g>
<!-- Node1 -->
<g id="Node000001" class="node">
<title>Node1</title>
<g id="a_Node000001"><a xlink:href="classERSKafkaLogHandler_1_1ERSKafkaLogHandlerOnRootLogger.html" target="_top" xlink:title=" ">
<polygon fill="white" stroke="#666666" points="252.5,-165.5 94,-165.5 94,-135 252.5,-135 252.5,-165.5"/>
<text text-anchor="start" x="102" y="-152" font-family="Helvetica,sans-Serif" font-size="10.00">ERSKafkaLogHandler.ERSKafka</text>
<text text-anchor="middle" x="173.25" y="-140.75" font-family="Helvetica,sans-Serif" font-size="10.00">LogHandlerOnRootLogger</text>
</a>
</g>
</g>
<!-- Node0&#45;&gt;Node1 -->
<g id="edge456_Node000000_Node000001" class="edge">
<title>Node0&#45;&gt;Node1</title>
<g id="a_edge456_Node000000_Node000001"><a xlink:title=" ">
<path fill="none" stroke="#63b8ff" d="M52.28,-101.66C64.2,-109.88 79.41,-119.49 94,-126.25 100.58,-129.3 107.64,-132.08 114.73,-134.59"/>
<polygon fill="#63b8ff" stroke="#63b8ff" points="54.54,-98.97 44.35,-96.05 50.49,-104.68 54.54,-98.97"/>
</a>
</g>
</g>
<!-- Node2 -->
<g id="Node000002" class="node">
<title>Node2</title>
<g id="a_Node000002"><a xlink:href="classERSPublisher_1_1ERSException.html" target="_top" xlink:title=" ">
<polygon fill="white" stroke="#666666" points="243.12,-116.88 103.38,-116.88 103.38,-97.62 243.12,-97.62 243.12,-116.88"/>
<text text-anchor="middle" x="173.25" y="-103.38" font-family="Helvetica,sans-Serif" font-size="10.00">ERSPublisher.ERSException</text>
</a>
</g>
</g>
<!-- Node0&#45;&gt;Node2 -->
<g id="edge457_Node000000_Node000002" class="edge">
<title>Node0&#45;&gt;Node2</title>
<g id="a_edge457_Node000000_Node000002"><a xlink:title=" ">
<path fill="none" stroke="#63b8ff" d="M69.49,-91.36C81.07,-93.15 94.06,-95.16 106.79,-97.13"/>
<polygon fill="#63b8ff" stroke="#63b8ff" points="70.36,-87.95 59.94,-89.88 69.29,-94.87 70.36,-87.95"/>
</a>
</g>
</g>
<!-- Node3 -->
<g id="Node000003" class="node">
<title>Node3</title>
<g id="a_Node000003"><a xlink:href="classafc_1_1click__texttable_1_1ArraySizeError.html" target="_top" xlink:title=" ">
<polygon fill="white" stroke="#666666" points="232.62,-79.5 113.88,-79.5 113.88,-49 232.62,-49 232.62,-79.5"/>
<text text-anchor="start" x="121.88" y="-66" font-family="Helvetica,sans-Serif" font-size="10.00">afc.click_texttable.Array</text>
<text text-anchor="middle" x="173.25" y="-54.75" font-family="Helvetica,sans-Serif" font-size="10.00">SizeError</text>
</a>
</g>
</g>
<!-- Node0&#45;&gt;Node3 -->
<g id="edge458_Node000000_Node000003" class="edge">
<title>Node0&#45;&gt;Node3</title>
<g id="a_edge458_Node000000_Node000003"><a xlink:title=" ">
<path fill="none" stroke="#63b8ff" d="M69.81,-79.37C83.38,-77.37 98.85,-75.09 113.58,-72.91"/>
<polygon fill="#63b8ff" stroke="#63b8ff" points="69.32,-75.91 59.94,-80.83 70.35,-82.83 69.32,-75.91"/>
</a>
</g>
</g>
<!-- Node4 -->
<g id="Node000004" class="node">
<title>Node4</title>
<g id="a_Node000004"><a xlink:href="classappmodel_1_1UnknownGeneratorException.html" target="_top" xlink:title=" ">
<polygon fill="white" stroke="#666666" points="245.38,-30.5 101.12,-30.5 101.12,0 245.38,0 245.38,-30.5"/>
<text text-anchor="start" x="109.12" y="-17" font-family="Helvetica,sans-Serif" font-size="10.00">appmodel.UnknownGenerator</text>
<text text-anchor="middle" x="173.25" y="-5.75" font-family="Helvetica,sans-Serif" font-size="10.00">Exception</text>
</a>
</g>
</g>
<!-- Node0&#45;&gt;Node4 -->
<g id="edge459_Node000000_Node000004" class="edge">
<title>Node0&#45;&gt;Node4</title>
<g id="a_edge459_Node000000_Node000004"><a xlink:title=" ">
<path fill="none" stroke="#63b8ff" d="M50.37,-68.51C62.47,-59.2 78.45,-47.97 94,-40.25 100.9,-36.82 108.37,-33.73 115.86,-30.98"/>
<polygon fill="#63b8ff" stroke="#63b8ff" points="48.44,-65.58 42.77,-74.52 52.78,-71.07 48.44,-65.58"/>
</a>
</g>
</g>
</g>
</svg>
