<?xml version="1.0" encoding="UTF-8" standalone="no"?>
<!DOCTYPE svg PUBLIC "-//W3C//DTD SVG 1.1//EN"
 "http://www.w3.org/Graphics/SVG/1.1/DTD/svg11.dtd">
<!-- Generated by graphviz version 9.0.0 (20230911.1827)
 -->
<!-- Title: Graphical Class Hierarchy Pages: 1 -->
<svg width="753pt" height="455pt"
 viewBox="0.00 0.00 753.00 454.50" xmlns="http://www.w3.org/2000/svg" xmlns:xlink="http://www.w3.org/1999/xlink">
<g id="graph0" class="graph" transform="scale(1 1) rotate(0) translate(4 450.5)">
<title>Graphical Class Hierarchy</title>
<!-- Node0 -->
<g id="Node000000" class="node">
<title>Node0</title>
<g id="a_Node000000"><a xlink:href="classrawdatautils_1_1unpack_1_1dataclasses_1_1RecordDataBase.html" target="_top" xlink:title=" ">
<polygon fill="white" stroke="#666666" points="159.25,-152.5 0,-152.5 0,-122 159.25,-122 159.25,-152.5"/>
<text text-anchor="start" x="8" y="-139" font-family="Helvetica,sans-Serif" font-size="10.00">rawdatautils.unpack.dataclasses.</text>
<text text-anchor="middle" x="79.62" y="-127.75" font-family="Helvetica,sans-Serif" font-size="10.00">RecordDataBase</text>
</a>
</g>
</g>
<!-- Node1 -->
<g id="Node000001" class="node">
<title>Node1</title>
<g id="a_Node000001"><a xlink:href="classrawdatautils_1_1unpack_1_1dataclasses_1_1FragmentDataBase.html" target="_top" xlink:title=" ">
<polygon fill="white" stroke="#666666" points="354.5,-201.5 195.25,-201.5 195.25,-171 354.5,-171 354.5,-201.5"/>
<text text-anchor="start" x="203.25" y="-188" font-family="Helvetica,sans-Serif" font-size="10.00">rawdatautils.unpack.dataclasses.</text>
<text text-anchor="middle" x="274.88" y="-176.75" font-family="Helvetica,sans-Serif" font-size="10.00">FragmentDataBase</text>
</a>
</g>
</g>
<!-- Node0&#45;&gt;Node1 -->
<g id="edge657_Node000000_Node000001" class="edge">
<title>Node0&#45;&gt;Node1</title>
<g id="a_edge657_Node000000_Node000001"><a xlink:title=" ">
<path fill="none" stroke="#63b8ff" d="M153.69,-155.78C172.89,-160.64 193.4,-165.85 211.95,-170.55"/>
<polygon fill="#63b8ff" stroke="#63b8ff" points="154.59,-152.39 144.04,-153.33 152.87,-159.18 154.59,-152.39"/>
</a>
</g>
</g>
<!-- Node16 -->
<g id="Node000016" class="node">
<title>Node16</title>
<g id="a_Node000016"><a xlink:href="classrawdatautils_1_1unpack_1_1dataclasses_1_1SourceIDData.html" target="_top" xlink:title=" ">
<polygon fill="white" stroke="#666666" points="354.5,-152.5 195.25,-152.5 195.25,-122 354.5,-122 354.5,-152.5"/>
<text text-anchor="start" x="203.25" y="-139" font-family="Helvetica,sans-Serif" font-size="10.00">rawdatautils.unpack.dataclasses.</text>
<text text-anchor="middle" x="274.88" y="-127.75" font-family="Helvetica,sans-Serif" font-size="10.00">SourceIDData</text>
</a>
</g>
</g>
<!-- Node0&#45;&gt;Node16 -->
<g id="edge672_Node000000_Node000016" class="edge">
<title>Node0&#45;&gt;Node16</title>
<g id="a_edge672_Node000000_Node000016"><a xlink:title=" ">
<path fill="none" stroke="#63b8ff" d="M170.83,-137.25C178.88,-137.25 186.99,-137.25 194.93,-137.25"/>
<polygon fill="#63b8ff" stroke="#63b8ff" points="171.02,-133.75 161.02,-137.25 171.02,-140.75 171.02,-133.75"/>
</a>
</g>
</g>
<!-- Node17 -->
<g id="Node000017" class="node">
<title>Node17</title>
<g id="a_Node000017"><a xlink:href="classrawdatautils_1_1unpack_1_1dataclasses_1_1TriggerRecordData.html" target="_top" xlink:title=" ">
<polygon fill="white" stroke="#666666" points="354.5,-103.5 195.25,-103.5 195.25,-73 354.5,-73 354.5,-103.5"/>
<text text-anchor="start" x="203.25" y="-90" font-family="Helvetica,sans-Serif" font-size="10.00">rawdatautils.unpack.dataclasses.</text>
<text text-anchor="middle" x="274.88" y="-78.75" font-family="Helvetica,sans-Serif" font-size="10.00">TriggerRecordData</text>
</a>
</g>
</g>
<!-- Node0&#45;&gt;Node17 -->
<g id="edge673_Node000000_Node000017" class="edge">
<title>Node0&#45;&gt;Node17</title>
<g id="a_edge673_Node000000_Node000017"><a xlink:title=" ">
<path fill="none" stroke="#63b8ff" d="M153.69,-118.72C172.89,-113.86 193.4,-108.65 211.95,-103.95"/>
<polygon fill="#63b8ff" stroke="#63b8ff" points="152.87,-115.32 144.04,-121.17 154.59,-122.11 152.87,-115.32"/>
</a>
</g>
</g>
<!-- Node2 -->
<g id="Node000002" class="node">
<title>Node2</title>
<g id="a_Node000002"><a xlink:href="classrawdatautils_1_1unpack_1_1dataclasses_1_1DAPHNEChannelDataBase.html" target="_top" xlink:title=" ">
<polygon fill="white" stroke="#666666" points="549.75,-373.5 390.5,-373.5 390.5,-343 549.75,-343 549.75,-373.5"/>
<text text-anchor="start" x="398.5" y="-360" font-family="Helvetica,sans-Serif" font-size="10.00">rawdatautils.unpack.dataclasses.</text>
<text text-anchor="middle" x="470.12" y="-348.75" font-family="Helvetica,sans-Serif" font-size="10.00">DAPHNEChannelDataBase</text>
</a>
</g>
</g>
<!-- Node1&#45;&gt;Node2 -->
<g id="edge658_Node000001_Node000002" class="edge">
<title>Node1&#45;&gt;Node2</title>
<g id="a_edge658_Node000001_Node000002"><a xlink:title=" ">
<path fill="none" stroke="#63b8ff" d="M289.06,-211.34C307.5,-244.04 344.01,-300.88 390.5,-333.25 395.67,-336.85 401.39,-339.95 407.31,-342.62"/>
<polygon fill="#63b8ff" stroke="#63b8ff" points="292.34,-210.03 284.45,-202.95 286.2,-213.4 292.34,-210.03"/>
</a>
</g>
</g>
<!-- Node7 -->
<g id="Node000007" class="node">
<title>Node7</title>
<g id="a_Node000007"><a xlink:href="classrawdatautils_1_1unpack_1_1dataclasses_1_1DAPHNEStreamHeaderData.html" target="_top" xlink:title=" ">
<polygon fill="white" stroke="#666666" points="549.75,-324.5 390.5,-324.5 390.5,-294 549.75,-294 549.75,-324.5"/>
<text text-anchor="start" x="398.5" y="-311" font-family="Helvetica,sans-Serif" font-size="10.00">rawdatautils.unpack.dataclasses.</text>
<text text-anchor="middle" x="470.12" y="-299.75" font-family="Helvetica,sans-Serif" font-size="10.00">DAPHNEStreamHeaderData</text>
</a>
</g>
</g>
<!-- Node1&#45;&gt;Node7 -->
<g id="edge663_Node000001_Node000007" class="edge">
<title>Node1&#45;&gt;Node7</title>
<g id="a_edge663_Node000001_Node000007"><a xlink:title=" ">
<path fill="none" stroke="#63b8ff" d="M297.87,-209.86C319.54,-231.88 354.55,-264.25 390.5,-284.25 396.76,-287.73 403.57,-290.81 410.48,-293.5"/>
<polygon fill="#63b8ff" stroke="#63b8ff" points="300.49,-207.54 291.02,-202.78 295.46,-212.4 300.49,-207.54"/>
</a>
</g>
</g>
<!-- Node8 -->
<g id="Node000008" class="node">
<title>Node8</title>
<g id="a_Node000008"><a xlink:href="classrawdatautils_1_1unpack_1_1dataclasses_1_1DAQHeaderData.html" target="_top" xlink:title=" ">
<polygon fill="white" stroke="#666666" points="549.75,-275.5 390.5,-275.5 390.5,-245 549.75,-245 549.75,-275.5"/>
<text text-anchor="start" x="398.5" y="-262" font-family="Helvetica,sans-Serif" font-size="10.00">rawdatautils.unpack.dataclasses.</text>
<text text-anchor="middle" x="470.12" y="-250.75" font-family="Helvetica,sans-Serif" font-size="10.00">DAQHeaderData</text>
</a>
</g>
</g>
<!-- Node1&#45;&gt;Node8 -->
<g id="edge664_Node000001_Node000008" class="edge">
<title>Node1&#45;&gt;Node8</title>
<g id="a_edge664_Node000001_Node000008"><a xlink:title=" ">
<path fill="none" stroke="#63b8ff" d="M320.39,-206.46C341.45,-215.72 367.07,-226.54 390.5,-235.25 399.09,-238.44 408.3,-241.6 417.29,-244.55"/>
<polygon fill="#63b8ff" stroke="#63b8ff" points="322.08,-203.38 311.52,-202.53 319.25,-209.78 322.08,-203.38"/>
</a>
</g>
</g>
<!-- Node9 -->
<g id="Node000009" class="node">
<title>Node9</title>
<g id="a_Node000009"><a xlink:href="classrawdatautils_1_1unpack_1_1dataclasses_1_1FragmentHeaderData.html" target="_top" xlink:title=" ">
<polygon fill="white" stroke="#666666" points="549.75,-226.5 390.5,-226.5 390.5,-196 549.75,-196 549.75,-226.5"/>
<text text-anchor="start" x="398.5" y="-213" font-family="Helvetica,sans-Serif" font-size="10.00">rawdatautils.unpack.dataclasses.</text>
<text text-anchor="middle" x="470.12" y="-201.75" font-family="Helvetica,sans-Serif" font-size="10.00">FragmentHeaderData</text>
</a>
</g>
</g>
<!-- Node1&#45;&gt;Node9 -->
<g id="edge665_Node000001_Node000009" class="edge">
<title>Node1&#45;&gt;Node9</title>
<g id="a_edge665_Node000001_Node000009"><a xlink:title=" ">
<path fill="none" stroke="#63b8ff" d="M366.08,-197.92C374.13,-198.96 382.24,-200.01 390.18,-201.04"/>
<polygon fill="#63b8ff" stroke="#63b8ff" points="366.62,-194.46 356.26,-196.65 365.73,-201.4 366.62,-194.46"/>
</a>
</g>
</g>
<!-- Node10 -->
<g id="Node000010" class="node">
<title>Node10</title>
<g id="a_Node000010"><a xlink:href="classrawdatautils_1_1unpack_1_1dataclasses_1_1TriggerHeaderData.html" target="_top" xlink:title=" ">
<polygon fill="white" stroke="#666666" points="549.75,-177.5 390.5,-177.5 390.5,-147 549.75,-147 549.75,-177.5"/>
<text text-anchor="start" x="398.5" y="-164" font-family="Helvetica,sans-Serif" font-size="10.00">rawdatautils.unpack.dataclasses.</text>
<text text-anchor="middle" x="470.12" y="-152.75" font-family="Helvetica,sans-Serif" font-size="10.00">TriggerHeaderData</text>
</a>
</g>
</g>
<!-- Node1&#45;&gt;Node10 -->
<g id="edge666_Node000001_Node000010" class="edge">
<title>Node1&#45;&gt;Node10</title>
<g id="a_edge666_Node000001_Node000010"><a xlink:title=" ">
<path fill="none" stroke="#63b8ff" d="M366.08,-175.05C374.13,-174.05 382.24,-173.04 390.18,-172.05"/>
<polygon fill="#63b8ff" stroke="#63b8ff" points="365.75,-171.56 356.26,-176.27 366.61,-178.51 365.75,-171.56"/>
</a>
</g>
</g>
<!-- Node11 -->
<g id="Node000011" class="node">
<title>Node11</title>
<g id="a_Node000011"><a xlink:href="classrawdatautils_1_1unpack_1_1dataclasses_1_1TriggerPrimitiveData.html" target="_top" xlink:title=" ">
<polygon fill="white" stroke="#666666" points="549.75,-128.5 390.5,-128.5 390.5,-98 549.75,-98 549.75,-128.5"/>
<text text-anchor="start" x="398.5" y="-115" font-family="Helvetica,sans-Serif" font-size="10.00">rawdatautils.unpack.dataclasses.</text>
<text text-anchor="middle" x="470.12" y="-103.75" font-family="Helvetica,sans-Serif" font-size="10.00">TriggerPrimitiveData</text>
</a>
</g>
</g>
<!-- Node1&#45;&gt;Node11 -->
<g id="edge667_Node000001_Node000011" class="edge">
<title>Node1&#45;&gt;Node11</title>
<g id="a_edge667_Node000001_Node000011"><a xlink:title=" ">
<path fill="none" stroke="#63b8ff" d="M342.16,-166.57C346.38,-164.88 350.53,-163.11 354.5,-161.25 371.69,-153.19 373.31,-146.31 390.5,-138.25 397.76,-134.85 405.61,-131.74 413.44,-128.95"/>
<polygon fill="#63b8ff" stroke="#63b8ff" points="341.11,-163.22 332.98,-170.01 343.57,-169.77 341.11,-163.22"/>
</a>
</g>
</g>
<!-- Node12 -->
<g id="Node000012" class="node">
<title>Node12</title>
<g id="a_Node000012"><a xlink:href="classrawdatautils_1_1unpack_1_1dataclasses_1_1WIBEthChannelDataBase.html" target="_top" xlink:title=" ">
<polygon fill="white" stroke="#666666" points="549.75,-79.5 390.5,-79.5 390.5,-49 549.75,-49 549.75,-79.5"/>
<text text-anchor="start" x="398.5" y="-66" font-family="Helvetica,sans-Serif" font-size="10.00">rawdatautils.unpack.dataclasses.</text>
<text text-anchor="middle" x="470.12" y="-54.75" font-family="Helvetica,sans-Serif" font-size="10.00">WIBEthChannelDataBase</text>
</a>
</g>
</g>
<!-- Node1&#45;&gt;Node12 -->
<g id="edge668_Node000001_Node000012" class="edge">
<title>Node1&#45;&gt;Node12</title>
<g id="a_edge668_Node000001_Node000012"><a xlink:title=" ">
<path fill="none" stroke="#63b8ff" d="M349.94,-164.81C351.52,-163.68 353.04,-162.5 354.5,-161.25 381.69,-138 363.31,-112.5 390.5,-89.25 394.75,-85.62 399.52,-82.51 404.57,-79.86"/>
<polygon fill="#63b8ff" stroke="#63b8ff" points="348.42,-161.64 341.72,-169.85 352.08,-167.61 348.42,-161.64"/>
</a>
</g>
</g>
<!-- Node15 -->
<g id="Node000015" class="node">
<title>Node15</title>
<g id="a_Node000015"><a xlink:href="classrawdatautils_1_1unpack_1_1dataclasses_1_1WIBEthHeaderData.html" target="_top" xlink:title=" ">
<polygon fill="white" stroke="#666666" points="549.75,-30.5 390.5,-30.5 390.5,0 549.75,0 549.75,-30.5"/>
<text text-anchor="start" x="398.5" y="-17" font-family="Helvetica,sans-Serif" font-size="10.00">rawdatautils.unpack.dataclasses.</text>
<text text-anchor="middle" x="470.12" y="-5.75" font-family="Helvetica,sans-Serif" font-size="10.00">WIBEthHeaderData</text>
</a>
</g>
</g>
<!-- Node1&#45;&gt;Node15 -->
<g id="edge671_Node000001_Node000015" class="edge">
<title>Node1&#45;&gt;Node15</title>
<g id="a_edge671_Node000001_Node000015"><a xlink:title=" ">
<path fill="none" stroke="#63b8ff" d="M351.77,-163.84C352.71,-163.01 353.62,-162.14 354.5,-161.25 393.8,-121.21 351.2,-80.29 390.5,-40.25 394.01,-36.67 398.03,-33.61 402.36,-30.98"/>
<polygon fill="#63b8ff" stroke="#63b8ff" points="349.86,-160.9 343.86,-169.63 354,-166.55 349.86,-160.9"/>
</a>
</g>
</g>
<!-- Node3 -->
<g id="Node000003" class="node">
<title>Node3</title>
<g id="a_Node000003"><a xlink:href="classrawdatautils_1_1unpack_1_1dataclasses_1_1DAPHNEAnalysisData.html" target="_top" xlink:title=" ">
<polygon fill="white" stroke="#666666" points="745,-446.5 585.75,-446.5 585.75,-416 745,-416 745,-446.5"/>
<text text-anchor="start" x="593.75" y="-433" font-family="Helvetica,sans-Serif" font-size="10.00">rawdatautils.unpack.dataclasses.</text>
<text text-anchor="middle" x="665.38" y="-421.75" font-family="Helvetica,sans-Serif" font-size="10.00">DAPHNEAnalysisData</text>
</a>
</g>
</g>
<!-- Node2&#45;&gt;Node3 -->
<g id="edge659_Node000002_Node000003" class="edge">
<title>Node2&#45;&gt;Node3</title>
<g id="a_edge659_Node000002_Node000003"><a xlink:title=" ">
<path fill="none" stroke="#63b8ff" d="M516.9,-378.52C537.74,-387.45 562.82,-397.82 585.75,-406.25 594.49,-409.46 603.86,-412.65 612.98,-415.63"/>
<polygon fill="#63b8ff" stroke="#63b8ff" points="518.39,-375.34 507.82,-374.59 515.61,-381.77 518.39,-375.34"/>
</a>
</g>
</g>
<!-- Node4 -->
<g id="Node000004" class="node">
<title>Node4</title>
<g id="a_Node000004"><a xlink:href="classrawdatautils_1_1unpack_1_1dataclasses_1_1DAPHNEStreamAnalysisData.html" target="_top" xlink:title=" ">
<polygon fill="white" stroke="#666666" points="745,-397.5 585.75,-397.5 585.75,-367 745,-367 745,-397.5"/>
<text text-anchor="start" x="593.75" y="-384" font-family="Helvetica,sans-Serif" font-size="10.00">rawdatautils.unpack.dataclasses.</text>
<text text-anchor="middle" x="665.38" y="-372.75" font-family="Helvetica,sans-Serif" font-size="10.00">DAPHNEStreamAnalysisData</text>
</a>
</g>
</g>
<!-- Node2&#45;&gt;Node4 -->
<g id="edge660_Node000002_Node000004" class="edge">
<title>Node2&#45;&gt;Node4</title>
<g id="a_edge660_Node000002_Node000004"><a xlink:title=" ">
<path fill="none" stroke="#63b8ff" d="M561.33,-369.45C569.38,-370.45 577.49,-371.46 585.43,-372.45"/>
<polygon fill="#63b8ff" stroke="#63b8ff" points="561.86,-365.99 551.51,-368.23 561,-372.94 561.86,-365.99"/>
</a>
</g>
</g>
<!-- Node5 -->
<g id="Node000005" class="node">
<title>Node5</title>
<g id="a_Node000005"><a xlink:href="classrawdatautils_1_1unpack_1_1dataclasses_1_1DAPHNEStreamWaveformData.html" target="_top" xlink:title=" ">
<polygon fill="white" stroke="#666666" points="745,-348.5 585.75,-348.5 585.75,-318 745,-318 745,-348.5"/>
<text text-anchor="start" x="593.75" y="-335" font-family="Helvetica,sans-Serif" font-size="10.00">rawdatautils.unpack.dataclasses.</text>
<text text-anchor="middle" x="665.38" y="-323.75" font-family="Helvetica,sans-Serif" font-size="10.00">DAPHNEStreamWaveformData</text>
</a>
</g>
</g>
<!-- Node2&#45;&gt;Node5 -->
<g id="edge661_Node000002_Node000005" class="edge">
<title>Node2&#45;&gt;Node5</title>
<g id="a_edge661_Node000002_Node000005"><a xlink:title=" ">
<path fill="none" stroke="#63b8ff" d="M561.33,-346.58C569.38,-345.54 577.49,-344.49 585.43,-343.46"/>
<polygon fill="#63b8ff" stroke="#63b8ff" points="560.98,-343.1 551.51,-347.85 561.87,-350.04 560.98,-343.1"/>
</a>
</g>
</g>
<!-- Node6 -->
<g id="Node000006" class="node">
<title>Node6</title>
<g id="a_Node000006"><a xlink:href="classrawdatautils_1_1unpack_1_1dataclasses_1_1DAPHNEWaveformData.html" target="_top" xlink:title=" ">
<polygon fill="white" stroke="#666666" points="745,-299.5 585.75,-299.5 585.75,-269 745,-269 745,-299.5"/>
<text text-anchor="start" x="593.75" y="-286" font-family="Helvetica,sans-Serif" font-size="10.00">rawdatautils.unpack.dataclasses.</text>
<text text-anchor="middle" x="665.38" y="-274.75" font-family="Helvetica,sans-Serif" font-size="10.00">DAPHNEWaveformData</text>
</a>
</g>
</g>
<!-- Node2&#45;&gt;Node6 -->
<g id="edge662_Node000002_Node000006" class="edge">
<title>Node2&#45;&gt;Node6</title>
<g id="a_edge662_Node000002_Node000006"><a xlink:title=" ">
<path fill="none" stroke="#63b8ff" d="M538.03,-338.42C542.04,-336.79 545.98,-335.06 549.75,-333.25 567.08,-324.92 568.42,-317.58 585.75,-309.25 592.85,-305.84 600.53,-302.74 608.21,-299.97"/>
<polygon fill="#63b8ff" stroke="#63b8ff" points="536.79,-335.15 528.7,-341.99 539.29,-341.68 536.79,-335.15"/>
</a>
</g>
</g>
<!-- Node13 -->
<g id="Node000013" class="node">
<title>Node13</title>
<g id="a_Node000013"><a xlink:href="classrawdatautils_1_1unpack_1_1dataclasses_1_1WIBEthAnalysisData.html" target="_top" xlink:title=" ">
<polygon fill="white" stroke="#666666" points="745,-104.5 585.75,-104.5 585.75,-74 745,-74 745,-104.5"/>
<text text-anchor="start" x="593.75" y="-91" font-family="Helvetica,sans-Serif" font-size="10.00">rawdatautils.unpack.dataclasses.</text>
<text text-anchor="middle" x="665.38" y="-79.75" font-family="Helvetica,sans-Serif" font-size="10.00">WIBEthAnalysisData</text>
</a>
</g>
</g>
<!-- Node12&#45;&gt;Node13 -->
<g id="edge669_Node000012_Node000013" class="edge">
<title>Node12&#45;&gt;Node13</title>
<g id="a_edge669_Node000012_Node000013"><a xlink:title=" ">
<path fill="none" stroke="#63b8ff" d="M561.33,-75.92C569.38,-76.96 577.49,-78.01 585.43,-79.04"/>
<polygon fill="#63b8ff" stroke="#63b8ff" points="561.87,-72.46 551.51,-74.65 560.98,-79.4 561.87,-72.46"/>
</a>
</g>
</g>
<!-- Node14 -->
<g id="Node000014" class="node">
<title>Node14</title>
<g id="a_Node000014"><a xlink:href="classrawdatautils_1_1unpack_1_1dataclasses_1_1WIBEthWaveformData.html" target="_top" xlink:title=" ">
<polygon fill="white" stroke="#666666" points="745,-55.5 585.75,-55.5 585.75,-25 745,-25 745,-55.5"/>
<text text-anchor="start" x="593.75" y="-42" font-family="Helvetica,sans-Serif" font-size="10.00">rawdatautils.unpack.dataclasses.</text>
<text text-anchor="middle" x="665.38" y="-30.75" font-family="Helvetica,sans-Serif" font-size="10.00">WIBEthWaveformData</text>
</a>
</g>
</g>
<!-- Node12&#45;&gt;Node14 -->
<g id="edge670_Node000012_Node000014" class="edge">
<title>Node12&#45;&gt;Node14</title>
<g id="a_edge670_Node000012_Node000014"><a xlink:title=" ">
<path fill="none" stroke="#63b8ff" d="M561.33,-53.05C569.38,-52.05 577.49,-51.04 585.43,-50.05"/>
<polygon fill="#63b8ff" stroke="#63b8ff" points="561,-49.56 551.51,-54.27 561.86,-56.51 561,-49.56"/>
</a>
</g>
</g>
</g>
</svg>
