<?xml version="1.0" encoding="UTF-8" standalone="no"?>
<!DOCTYPE svg PUBLIC "-//W3C//DTD SVG 1.1//EN"
 "http://www.w3.org/Graphics/SVG/1.1/DTD/svg11.dtd">
<!-- Generated by graphviz version 9.0.0 (20230911.1827)
 -->
<!-- Title: Graphical Class Hierarchy Pages: 1 -->
<svg width="291pt" height="187pt"
 viewBox="0.00 0.00 291.25 187.25" xmlns="http://www.w3.org/2000/svg" xmlns:xlink="http://www.w3.org/1999/xlink">
<g id="graph0" class="graph" transform="scale(1 1) rotate(0) translate(4 183.25)">
<title>Graphical Class Hierarchy</title>
<!-- Node0 -->
<g id="Node000000" class="node">
<title>Node0</title>
<g id="a_Node000000"><a xlink:title=" ">
<polygon fill="#e0e0e0" stroke="#999999" points="106,-179.25 0,-179.25 0,-160 106,-160 106,-179.25"/>
<text text-anchor="middle" x="53" y="-165.75" font-family="Helvetica,sans-Serif" font-size="10.00">std::basic_streambuf</text>
</a>
</g>
</g>
<!-- Node1 -->
<g id="Node000001" class="node">
<title>Node1</title>
<g id="a_Node000001"><a xlink:href="classdaq_1_1QTUtils_1_1QDebugStream.html" target="_top" xlink:title=" ">
<polygon fill="white" stroke="#666666" points="283.25,-179.25 142,-179.25 142,-160 283.25,-160 283.25,-179.25"/>
<text text-anchor="middle" x="212.62" y="-165.75" font-family="Helvetica,sans-Serif" font-size="10.00">daq::QTUtils::QDebugStream</text>
</a>
</g>
</g>
<!-- Node0&#45;&gt;Node1 -->
<g id="edge698_Node000000_Node000001" class="edge">
<title>Node0&#45;&gt;Node1</title>
<g id="a_edge698_Node000000_Node000001"><a xlink:title=" ">
<path fill="none" stroke="#63b8ff" d="M117.82,-169.62C125.68,-169.62 133.75,-169.62 141.7,-169.62"/>
<polygon fill="#63b8ff" stroke="#63b8ff" points="118,-166.13 108,-169.63 118,-173.13 118,-166.13"/>
</a>
</g>
</g>
<!-- Node2 -->
<g id="Node000002" class="node">
<title>Node2</title>
<g id="a_Node000002"><a xlink:title=" ">
<polygon fill="#e0e0e0" stroke="#999999" points="79,-105.25 27,-105.25 27,-86 79,-86 79,-105.25"/>
<text text-anchor="middle" x="53" y="-91.75" font-family="Helvetica,sans-Serif" font-size="10.00">QObject</text>
</a>
</g>
</g>
<!-- Node2&#45;&gt;Node1 -->
<g id="edge699_Node000002_Node000001" class="edge">
<title>Node2&#45;&gt;Node1</title>
<g id="a_edge699_Node000002_Node000001"><a xlink:title=" ">
<path fill="none" stroke="#63b8ff" d="M76.14,-112.49C93.3,-124.86 118.12,-141.25 142,-151.62 149.1,-154.71 156.84,-157.36 164.5,-159.6"/>
<polygon fill="#63b8ff" stroke="#63b8ff" points="78.33,-109.76 68.2,-106.64 74.17,-115.39 78.33,-109.76"/>
</a>
</g>
</g>
<!-- Node3 -->
<g id="Node000003" class="node">
<title>Node3</title>
<g id="a_Node000003"><a xlink:href="classdbe_1_1confaccessor.html" target="_top" xlink:title=" ">
<polygon fill="white" stroke="#666666" points="260,-142.25 165.25,-142.25 165.25,-123 260,-123 260,-142.25"/>
<text text-anchor="middle" x="212.62" y="-128.75" font-family="Helvetica,sans-Serif" font-size="10.00">dbe::confaccessor</text>
</a>
</g>
</g>
<!-- Node2&#45;&gt;Node3 -->
<g id="edge700_Node000002_Node000003" class="edge">
<title>Node2&#45;&gt;Node3</title>
<g id="a_edge700_Node000002_Node000003"><a xlink:title=" ">
<path fill="none" stroke="#63b8ff" d="M90.46,-104.18C113.75,-109.65 144.05,-116.76 168.52,-122.51"/>
<polygon fill="#63b8ff" stroke="#63b8ff" points="91.33,-100.79 80.8,-101.92 89.73,-107.61 91.33,-100.79"/>
</a>
</g>
</g>
<!-- Node4 -->
<g id="Node000004" class="node">
<title>Node4</title>
<g id="a_Node000004"><a xlink:href="classdbe_1_1datahandler.html" target="_top" xlink:title=" ">
<polygon fill="white" stroke="#666666" points="255.88,-105.25 169.38,-105.25 169.38,-86 255.88,-86 255.88,-105.25"/>
<text text-anchor="middle" x="212.62" y="-91.75" font-family="Helvetica,sans-Serif" font-size="10.00">dbe::datahandler</text>
</a>
</g>
</g>
<!-- Node2&#45;&gt;Node4 -->
<g id="edge701_Node000002_Node000004" class="edge">
<title>Node2&#45;&gt;Node4</title>
<g id="a_edge701_Node000002_Node000004"><a xlink:title=" ">
<path fill="none" stroke="#63b8ff" d="M90.55,-95.62C114.02,-95.62 144.59,-95.62 169.14,-95.62"/>
<polygon fill="#63b8ff" stroke="#63b8ff" points="90.84,-92.13 80.84,-95.63 90.84,-99.13 90.84,-92.13"/>
</a>
</g>
</g>
<!-- Node5 -->
<g id="Node000005" class="node">
<title>Node5</title>
<g id="a_Node000005"><a xlink:href="classdbe_1_1interface_1_1messenger__proxy.html" target="_top" xlink:title=" ">
<polygon fill="white" stroke="#666666" points="275.75,-67.88 149.5,-67.88 149.5,-37.38 275.75,-37.38 275.75,-67.88"/>
<text text-anchor="start" x="157.5" y="-54.38" font-family="Helvetica,sans-Serif" font-size="10.00">dbe::interface::messenger</text>
<text text-anchor="middle" x="212.62" y="-43.12" font-family="Helvetica,sans-Serif" font-size="10.00">_proxy</text>
</a>
</g>
</g>
<!-- Node2&#45;&gt;Node5 -->
<g id="edge702_Node000002_Node000005" class="edge">
<title>Node2&#45;&gt;Node5</title>
<g id="a_edge702_Node000002_Node000005"><a xlink:title=" ">
<path fill="none" stroke="#63b8ff" d="M90.41,-85.69C109.26,-80.55 132.73,-74.15 153.98,-68.35"/>
<polygon fill="#63b8ff" stroke="#63b8ff" points="89.51,-82.31 80.79,-88.32 91.35,-89.06 89.51,-82.31"/>
</a>
</g>
</g>
<!-- Node6 -->
<g id="Node000006" class="node">
<title>Node6</title>
<g id="a_Node000006"><a xlink:href="classdbse_1_1KernelWrapper.html" target="_top" xlink:title=" ">
<polygon fill="white" stroke="#666666" points="265.25,-19.25 160,-19.25 160,0 265.25,0 265.25,-19.25"/>
<text text-anchor="middle" x="212.62" y="-5.75" font-family="Helvetica,sans-Serif" font-size="10.00">dbse::KernelWrapper</text>
</a>
</g>
</g>
<!-- Node2&#45;&gt;Node6 -->
<g id="edge703_Node000002_Node000006" class="edge">
<title>Node2&#45;&gt;Node6</title>
<g id="a_edge703_Node000002_Node000006"><a xlink:title=" ">
<path fill="none" stroke="#63b8ff" d="M72.57,-78.05C89.47,-62.94 115.7,-41.61 142,-28.62 149.19,-25.08 157.14,-22.11 165.01,-19.67"/>
<polygon fill="#63b8ff" stroke="#63b8ff" points="70.34,-75.35 65.33,-84.68 75.06,-80.51 70.34,-75.35"/>
</a>
</g>
</g>
</g>
</svg>
