<?xml version="1.0" encoding="UTF-8" standalone="no"?>
<!DOCTYPE svg PUBLIC "-//W3C//DTD SVG 1.1//EN"
 "http://www.w3.org/Graphics/SVG/1.1/DTD/svg11.dtd">
<!-- Generated by graphviz version 9.0.0 (20230911.1827)
 -->
<!-- Title: Graphical Class Hierarchy Pages: 1 -->
<svg width="297pt" height="64pt"
 viewBox="0.00 0.00 297.25 64.25" xmlns="http://www.w3.org/2000/svg" xmlns:xlink="http://www.w3.org/1999/xlink">
<g id="graph0" class="graph" transform="scale(1 1) rotate(0) translate(4 60.25)">
<title>Graphical Class Hierarchy</title>
<!-- Node0 -->
<g id="Node000000" class="node">
<title>Node0</title>
<g id="a_Node000000"><a xlink:title=" ">
<polygon fill="#e0e0e0" stroke="#999999" points="124.75,-37.25 0,-37.25 0,-18 124.75,-18 124.75,-37.25"/>
<text text-anchor="middle" x="62.38" y="-23.75" font-family="Helvetica,sans-Serif" font-size="10.00">click.types.IntParamType</text>
</a>
</g>
</g>
<!-- Node1 -->
<g id="Node000001" class="node">
<title>Node1</title>
<g id="a_Node000001"><a xlink:href="classafc_1_1toolbox_1_1IntRange.html" target="_top" xlink:title=" ">
<polygon fill="white" stroke="#666666" points="276.88,-56.25 173.12,-56.25 173.12,-37 276.88,-37 276.88,-56.25"/>
<text text-anchor="middle" x="225" y="-42.75" font-family="Helvetica,sans-Serif" font-size="10.00">afc.toolbox.IntRange</text>
</a>
</g>
</g>
<!-- Node0&#45;&gt;Node1 -->
<g id="edge17_Node000000_Node000001" class="edge">
<title>Node0&#45;&gt;Node1</title>
<g id="a_edge17_Node000000_Node000001"><a xlink:title=" ">
<path fill="none" stroke="#63b8ff" d="M136.22,-36.24C148.53,-37.7 161.08,-39.18 172.69,-40.56"/>
<polygon fill="#63b8ff" stroke="#63b8ff" points="136.86,-32.79 126.52,-35.09 136.04,-39.74 136.86,-32.79"/>
</a>
</g>
</g>
<!-- Node2 -->
<g id="Node000002" class="node">
<title>Node2</title>
<g id="a_Node000002"><a xlink:href="classtiming_1_1cli_1_1toolbox_1_1IntRange.html" target="_top" xlink:title=" ">
<polygon fill="white" stroke="#666666" points="289.25,-19.25 160.75,-19.25 160.75,0 289.25,0 289.25,-19.25"/>
<text text-anchor="middle" x="225" y="-5.75" font-family="Helvetica,sans-Serif" font-size="10.00">timing.cli.toolbox.IntRange</text>
</a>
</g>
</g>
<!-- Node0&#45;&gt;Node2 -->
<g id="edge18_Node000000_Node000002" class="edge">
<title>Node0&#45;&gt;Node2</title>
<g id="a_edge18_Node000000_Node000002"><a xlink:title=" ">
<path fill="none" stroke="#63b8ff" d="M136.29,-19.45C144.33,-18.55 152.48,-17.64 160.39,-16.75"/>
<polygon fill="#63b8ff" stroke="#63b8ff" points="136.07,-15.96 126.52,-20.55 136.85,-22.91 136.07,-15.96"/>
</a>
</g>
</g>
</g>
</svg>
