<?xml version="1.0" encoding="UTF-8" standalone="no"?>
<!DOCTYPE svg PUBLIC "-//W3C//DTD SVG 1.1//EN"
 "http://www.w3.org/Graphics/SVG/1.1/DTD/svg11.dtd">
<!-- Generated by graphviz version 9.0.0 (20230911.1827)
 -->
<!-- Title: /github/workspace/dev_area/sourcecode/ers/include/ers/IssueFactory.hpp Pages: 1 -->
<svg width="268pt" height="160pt"
 viewBox="0.00 0.00 268.12 160.25" xmlns="http://www.w3.org/2000/svg" xmlns:xlink="http://www.w3.org/1999/xlink">
<g id="graph0" class="graph" transform="scale(1 1) rotate(0) translate(4 156.25)">
<title>/github/workspace/dev_area/sourcecode/ers/include/ers/IssueFactory.hpp</title>
<!-- Node1 -->
<g id="Node000001" class="node">
<title>Node1</title>
<g id="a_Node000001"><a xlink:title=" ">
<polygon fill="#999999" stroke="#666666" points="216.38,-152.25 72.88,-152.25 72.88,-110.5 216.38,-110.5 216.38,-152.25"/>
<text text-anchor="start" x="80.88" y="-138.75" font-family="Helvetica,sans-Serif" font-size="10.00">/github/workspace/dev</text>
<text text-anchor="start" x="80.88" y="-127.5" font-family="Helvetica,sans-Serif" font-size="10.00">_area/sourcecode/ers</text>
<text text-anchor="middle" x="144.62" y="-116.25" font-family="Helvetica,sans-Serif" font-size="10.00">/include/ers/IssueFactory.hpp</text>
</a>
</g>
</g>
<!-- Node2 -->
<g id="Node000002" class="node">
<title>Node2</title>
<g id="a_Node000002"><a xlink:title=" ">
<polygon fill="#e0e0e0" stroke="#999999" points="45.25,-74.5 0,-74.5 0,-55.25 45.25,-55.25 45.25,-74.5"/>
<text text-anchor="middle" x="22.62" y="-61" font-family="Helvetica,sans-Serif" font-size="10.00">chrono</text>
</a>
</g>
</g>
<!-- Node1&#45;&gt;Node2 -->
<g id="edge1_Node000001_Node000002" class="edge">
<title>Node1&#45;&gt;Node2</title>
<g id="a_edge1_Node000001_Node000002"><a xlink:title=" ">
<path fill="none" stroke="#63b8ff" d="M106.36,-110.14C88.01,-100.45 66.47,-89.06 49.83,-80.26"/>
<polygon fill="#63b8ff" stroke="#63b8ff" points="51.5,-77.18 41.02,-75.6 48.23,-83.37 51.5,-77.18"/>
</a>
</g>
</g>
<!-- Node3 -->
<g id="Node000003" class="node">
<title>Node3</title>
<g id="a_Node000003"><a xlink:title=" ">
<polygon fill="#e0e0e0" stroke="#999999" points="96.62,-19.25 56.62,-19.25 56.62,0 96.62,0 96.62,-19.25"/>
<text text-anchor="middle" x="76.62" y="-5.75" font-family="Helvetica,sans-Serif" font-size="10.00">string</text>
</a>
</g>
</g>
<!-- Node1&#45;&gt;Node3 -->
<g id="edge2_Node000001_Node000003" class="edge">
<title>Node1&#45;&gt;Node3</title>
<g id="a_edge2_Node000001_Node000003"><a xlink:title=" ">
<path fill="none" stroke="#63b8ff" d="M121.03,-110.13C110.93,-100.31 99.83,-87.78 92.62,-74.5 85.18,-60.8 81.13,-43.56 78.97,-30.45"/>
<polygon fill="#63b8ff" stroke="#63b8ff" points="82.48,-30.31 77.63,-20.89 75.55,-31.28 82.48,-30.31"/>
</a>
</g>
</g>
<!-- Node4 -->
<g id="Node000004" class="node">
<title>Node4</title>
<g id="a_Node000004"><a xlink:title=" ">
<polygon fill="#e0e0e0" stroke="#999999" points="260.12,-19.25 217.12,-19.25 217.12,0 260.12,0 260.12,-19.25"/>
<text text-anchor="middle" x="238.62" y="-5.75" font-family="Helvetica,sans-Serif" font-size="10.00">vector</text>
</a>
</g>
</g>
<!-- Node1&#45;&gt;Node4 -->
<g id="edge3_Node000001_Node000004" class="edge">
<title>Node1&#45;&gt;Node4</title>
<g id="a_edge3_Node000001_Node000004"><a xlink:title=" ">
<path fill="none" stroke="#63b8ff" d="M207.7,-110.05C223.84,-101.68 239.26,-90.16 248.62,-74.5 256.64,-61.09 252.98,-43.37 247.98,-30"/>
<polygon fill="#63b8ff" stroke="#63b8ff" points="251.26,-28.77 244.09,-20.98 244.83,-31.54 251.26,-28.77"/>
</a>
</g>
</g>
<!-- Node5 -->
<g id="Node000005" class="node">
<title>Node5</title>
<g id="a_Node000005"><a xlink:title=" ">
<polygon fill="#e0e0e0" stroke="#999999" points="240,-74.5 205.25,-74.5 205.25,-55.25 240,-55.25 240,-74.5"/>
<text text-anchor="middle" x="222.62" y="-61" font-family="Helvetica,sans-Serif" font-size="10.00">map</text>
</a>
</g>
</g>
<!-- Node1&#45;&gt;Node5 -->
<g id="edge4_Node000001_Node000005" class="edge">
<title>Node1&#45;&gt;Node5</title>
<g id="a_edge4_Node000001_Node000005"><a xlink:title=" ">
<path fill="none" stroke="#63b8ff" d="M168.88,-110.32C179.83,-101.26 192.61,-90.69 202.96,-82.14"/>
<polygon fill="#63b8ff" stroke="#63b8ff" points="205.01,-84.98 210.49,-75.91 200.55,-79.59 205.01,-84.98"/>
</a>
</g>
</g>
<!-- Node6 -->
<g id="Node000006" class="node">
<title>Node6</title>
<g id="a_Node000006"><a xlink:href="Severity_8hpp.html" target="_top" xlink:title=" ">
<polygon fill="white" stroke="#666666" points="187.5,-74.5 101.75,-74.5 101.75,-55.25 187.5,-55.25 187.5,-74.5"/>
<text text-anchor="middle" x="144.62" y="-61" font-family="Helvetica,sans-Serif" font-size="10.00">ers/Severity.hpp</text>
</a>
</g>
</g>
<!-- Node1&#45;&gt;Node6 -->
<g id="edge5_Node000001_Node000006" class="edge">
<title>Node1&#45;&gt;Node6</title>
<g id="a_edge5_Node000001_Node000006"><a xlink:title=" ">
<path fill="none" stroke="#63b8ff" d="M144.62,-110.32C144.62,-102.65 144.62,-93.89 144.62,-86.2"/>
<polygon fill="#63b8ff" stroke="#63b8ff" points="148.13,-86.46 144.63,-76.46 141.13,-86.46 148.13,-86.46"/>
</a>
</g>
</g>
<!-- Node6&#45;&gt;Node3 -->
<g id="edge6_Node000006_Node000003" class="edge">
<title>Node6&#45;&gt;Node3</title>
<g id="a_edge6_Node000006_Node000003"><a xlink:title=" ">
<path fill="none" stroke="#63b8ff" d="M133.09,-54.84C123.16,-47.07 108.61,-35.67 96.77,-26.4"/>
<polygon fill="#63b8ff" stroke="#63b8ff" points="99.21,-23.87 89.18,-20.46 94.9,-29.38 99.21,-23.87"/>
</a>
</g>
</g>
<!-- Node6&#45;&gt;Node4 -->
<g id="edge7_Node000006_Node000004" class="edge">
<title>Node6&#45;&gt;Node4</title>
<g id="a_edge7_Node000006_Node000004"><a xlink:title=" ">
<path fill="none" stroke="#63b8ff" d="M160.57,-54.84C174.89,-46.73 196.16,-34.68 212.88,-25.21"/>
<polygon fill="#63b8ff" stroke="#63b8ff" points="214.31,-28.42 221.28,-20.45 210.86,-22.33 214.31,-28.42"/>
</a>
</g>
</g>
<!-- Node7 -->
<g id="Node000007" class="node">
<title>Node7</title>
<g id="a_Node000007"><a xlink:title=" ">
<polygon fill="#e0e0e0" stroke="#999999" points="171.38,-19.25 117.88,-19.25 117.88,0 171.38,0 171.38,-19.25"/>
<text text-anchor="middle" x="144.62" y="-5.75" font-family="Helvetica,sans-Serif" font-size="10.00">iostream</text>
</a>
</g>
</g>
<!-- Node6&#45;&gt;Node7 -->
<g id="edge8_Node000006_Node000007" class="edge">
<title>Node6&#45;&gt;Node7</title>
<g id="a_edge8_Node000006_Node000007"><a xlink:title=" ">
<path fill="none" stroke="#63b8ff" d="M144.62,-55.08C144.62,-48.57 144.62,-39.42 144.62,-31.12"/>
<polygon fill="#63b8ff" stroke="#63b8ff" points="148.13,-31.12 144.63,-21.12 141.13,-31.12 148.13,-31.12"/>
</a>
</g>
</g>
</g>
</svg>
