<?xml version="1.0" encoding="UTF-8" standalone="no"?>
<!DOCTYPE svg PUBLIC "-//W3C//DTD SVG 1.1//EN"
 "http://www.w3.org/Graphics/SVG/1.1/DTD/svg11.dtd">
<!-- Generated by graphviz version 9.0.0 (20230911.1827)
 -->
<!-- Title: /github/workspace/dev_area/sourcecode/wibmod/src/wibmod/WIB1/ItemConversion.hh Pages: 1 -->
<svg width="213pt" height="105pt"
 viewBox="0.00 0.00 213.00 105.00" xmlns="http://www.w3.org/2000/svg" xmlns:xlink="http://www.w3.org/1999/xlink">
<g id="graph0" class="graph" transform="scale(1 1) rotate(0) translate(4 101)">
<title>/github/workspace/dev_area/sourcecode/wibmod/src/wibmod/WIB1/ItemConversion.hh</title>
<!-- Node1 -->
<g id="Node000001" class="node">
<title>Node1</title>
<g id="a_Node000001"><a xlink:title=" ">
<polygon fill="#999999" stroke="#666666" points="180.25,-97 0,-97 0,-55.25 180.25,-55.25 180.25,-97"/>
<text text-anchor="start" x="8" y="-83.5" font-family="Helvetica,sans-Serif" font-size="10.00">/github/workspace/dev</text>
<text text-anchor="start" x="8" y="-72.25" font-family="Helvetica,sans-Serif" font-size="10.00">_area/sourcecode/wibmod</text>
<text text-anchor="middle" x="90.12" y="-61" font-family="Helvetica,sans-Serif" font-size="10.00">/src/wibmod/WIB1/ItemConversion.hh</text>
</a>
</g>
</g>
<!-- Node2 -->
<g id="Node000002" class="node">
<title>Node2</title>
<g id="a_Node000002"><a xlink:title=" ">
<polygon fill="#e0e0e0" stroke="#999999" points="59.12,-19.25 19.12,-19.25 19.12,0 59.12,0 59.12,-19.25"/>
<text text-anchor="middle" x="39.12" y="-5.75" font-family="Helvetica,sans-Serif" font-size="10.00">string</text>
</a>
</g>
</g>
<!-- Node1&#45;&gt;Node2 -->
<g id="edge1_Node000001_Node000002" class="edge">
<title>Node1&#45;&gt;Node2</title>
<g id="a_edge1_Node000001_Node000002"><a xlink:title=" ">
<path fill="none" stroke="#63b8ff" d="M74.27,-55.07C67.54,-46.56 59.77,-36.73 53.24,-28.48"/>
<polygon fill="#63b8ff" stroke="#63b8ff" points="56.18,-26.56 47.24,-20.88 50.69,-30.9 56.18,-26.56"/>
</a>
</g>
</g>
<!-- Node3 -->
<g id="Node000003" class="node">
<title>Node3</title>
<g id="a_Node000003"><a xlink:title=" ">
<polygon fill="#e0e0e0" stroke="#999999" points="205,-19.25 77.25,-19.25 77.25,0 205,0 205,-19.25"/>
<text text-anchor="middle" x="141.12" y="-5.75" font-family="Helvetica,sans-Serif" font-size="10.00">boost/unordered_map.hpp</text>
</a>
</g>
</g>
<!-- Node1&#45;&gt;Node3 -->
<g id="edge2_Node000001_Node000003" class="edge">
<title>Node1&#45;&gt;Node3</title>
<g id="a_edge2_Node000001_Node000003"><a xlink:title=" ">
<path fill="none" stroke="#63b8ff" d="M105.98,-55.07C112.71,-46.56 120.48,-36.73 127.01,-28.48"/>
<polygon fill="#63b8ff" stroke="#63b8ff" points="129.56,-30.9 133.01,-20.88 124.07,-26.56 129.56,-30.9"/>
</a>
</g>
</g>
</g>
</svg>
