<?xml version="1.0" encoding="UTF-8" standalone="no"?>
<!DOCTYPE svg PUBLIC "-//W3C//DTD SVG 1.1//EN"
 "http://www.w3.org/Graphics/SVG/1.1/DTD/svg11.dtd">
<!-- Generated by graphviz version 9.0.0 (20230911.1827)
 -->
<!-- Title: /github/workspace/dev_area/sourcecode/datahandlinglibs/include/datahandlinglibs/concepts/LatencyBufferConcept.hpp Pages: 1 -->
<svg width="1895pt" height="406pt"
 viewBox="0.00 0.00 1894.75 405.75" xmlns="http://www.w3.org/2000/svg" xmlns:xlink="http://www.w3.org/1999/xlink">
<g id="graph0" class="graph" transform="scale(1 1) rotate(0) translate(4 401.75)">
<title>/github/workspace/dev_area/sourcecode/datahandlinglibs/include/datahandlinglibs/concepts/LatencyBufferConcept.hpp</title>
<!-- Node1 -->
<g id="Node000001" class="node">
<title>Node1</title>
<g id="a_Node000001"><a xlink:title=" ">
<polygon fill="#999999" stroke="#666666" points="446,-397.75 280,-397.75 280,-344.75 446,-344.75 446,-397.75"/>
<text text-anchor="start" x="288" y="-384.25" font-family="Helvetica,sans-Serif" font-size="10.00">/github/workspace/dev</text>
<text text-anchor="start" x="288" y="-373" font-family="Helvetica,sans-Serif" font-size="10.00">_area/sourcecode/datahandlinglibs</text>
<text text-anchor="start" x="288" y="-361.75" font-family="Helvetica,sans-Serif" font-size="10.00">/include/datahandlinglibs/concepts</text>
<text text-anchor="middle" x="363" y="-350.5" font-family="Helvetica,sans-Serif" font-size="10.00">/LatencyBufferConcept.hpp</text>
</a>
</g>
</g>
<!-- Node2 -->
<g id="Node000002" class="node">
<title>Node2</title>
<g id="a_Node000002"><a xlink:href="DataHandlingModel_8hpp.html" target="_top" xlink:title=" ">
<polygon fill="white" stroke="#666666" points="166,-308.75 0,-308.75 0,-255.75 166,-255.75 166,-308.75"/>
<text text-anchor="start" x="8" y="-295.25" font-family="Helvetica,sans-Serif" font-size="10.00">/github/workspace/dev</text>
<text text-anchor="start" x="8" y="-284" font-family="Helvetica,sans-Serif" font-size="10.00">_area/sourcecode/datahandlinglibs</text>
<text text-anchor="start" x="8" y="-272.75" font-family="Helvetica,sans-Serif" font-size="10.00">/include/datahandlinglibs/models</text>
<text text-anchor="middle" x="83" y="-261.5" font-family="Helvetica,sans-Serif" font-size="10.00">/DataHandlingModel.hpp</text>
</a>
</g>
</g>
<!-- Node1&#45;&gt;Node2 -->
<g id="edge1_Node000001_Node000002" class="edge">
<title>Node1&#45;&gt;Node2</title>
<g id="a_edge1_Node000001_Node000002"><a xlink:title=" ">
<path fill="none" stroke="#63b8ff" d="M269.11,-341.08C235.87,-330.75 198.72,-319.21 166.41,-309.17"/>
<polygon fill="#63b8ff" stroke="#63b8ff" points="267.72,-344.31 278.3,-343.93 269.79,-337.62 267.72,-344.31"/>
</a>
</g>
</g>
<!-- Node3 -->
<g id="Node000003" class="node">
<title>Node3</title>
<g id="a_Node000003"><a xlink:href="Readoutlibs_8cpp.html" target="_top" xlink:title=" ">
<polygon fill="white" stroke="#666666" points="334,-41.75 168,-41.75 168,0 334,0 334,-41.75"/>
<text text-anchor="start" x="176" y="-28.25" font-family="Helvetica,sans-Serif" font-size="10.00">/github/workspace/dev</text>
<text text-anchor="start" x="176" y="-17" font-family="Helvetica,sans-Serif" font-size="10.00">_area/sourcecode/datahandlinglibs</text>
<text text-anchor="middle" x="251" y="-5.75" font-family="Helvetica,sans-Serif" font-size="10.00">/src/Readoutlibs.cpp</text>
</a>
</g>
</g>
<!-- Node1&#45;&gt;Node3 -->
<g id="edge22_Node000001_Node000003" class="edge">
<title>Node1&#45;&gt;Node3</title>
<g id="a_edge22_Node000001_Node000003"><a xlink:title=" ">
<path fill="none" stroke="#63b8ff" d="M319.27,-337.28C286.68,-309.85 244.57,-267.65 225,-219.75 201.12,-161.31 207.03,-139.08 222,-77.75 225.06,-65.22 231.46,-52.37 237.47,-42.16"/>
<polygon fill="#63b8ff" stroke="#63b8ff" points="316.65,-339.65 326.59,-343.31 321.1,-334.25 316.65,-339.65"/>
</a>
</g>
</g>
<!-- Node4 -->
<g id="Node000004" class="node">
<title>Node4</title>
<g id="a_Node000004"><a xlink:href="IterableQueueModel_8hpp.html" target="_top" xlink:title=" ">
<polygon fill="white" stroke="#666666" points="715,-308.75 549,-308.75 549,-255.75 715,-255.75 715,-308.75"/>
<text text-anchor="start" x="557" y="-295.25" font-family="Helvetica,sans-Serif" font-size="10.00">/github/workspace/dev</text>
<text text-anchor="start" x="557" y="-284" font-family="Helvetica,sans-Serif" font-size="10.00">_area/sourcecode/datahandlinglibs</text>
<text text-anchor="start" x="557" y="-272.75" font-family="Helvetica,sans-Serif" font-size="10.00">/include/datahandlinglibs/models</text>
<text text-anchor="middle" x="632" y="-261.5" font-family="Helvetica,sans-Serif" font-size="10.00">/IterableQueueModel.hpp</text>
</a>
</g>
</g>
<!-- Node1&#45;&gt;Node4 -->
<g id="edge3_Node000001_Node000004" class="edge">
<title>Node1&#45;&gt;Node4</title>
<g id="a_edge3_Node000001_Node000004"><a xlink:title=" ">
<path fill="none" stroke="#63b8ff" d="M453.98,-340.83C485.79,-330.54 521.23,-319.07 552.07,-309.1"/>
<polygon fill="#63b8ff" stroke="#63b8ff" points="453.22,-337.39 444.78,-343.8 455.38,-344.05 453.22,-337.39"/>
</a>
</g>
</g>
<!-- Node12 -->
<g id="Node000012" class="node">
<title>Node12</title>
<g id="a_Node000012"><a xlink:href="SkipListLatencyBufferModel_8hpp.html" target="_top" xlink:title=" ">
<polygon fill="white" stroke="#666666" points="1420,-308.75 1254,-308.75 1254,-255.75 1420,-255.75 1420,-308.75"/>
<text text-anchor="start" x="1262" y="-295.25" font-family="Helvetica,sans-Serif" font-size="10.00">/github/workspace/dev</text>
<text text-anchor="start" x="1262" y="-284" font-family="Helvetica,sans-Serif" font-size="10.00">_area/sourcecode/datahandlinglibs</text>
<text text-anchor="start" x="1262" y="-272.75" font-family="Helvetica,sans-Serif" font-size="10.00">/include/datahandlinglibs/models</text>
<text text-anchor="middle" x="1337" y="-261.5" font-family="Helvetica,sans-Serif" font-size="10.00">/SkipListLatencyBufferModel.hpp</text>
</a>
</g>
</g>
<!-- Node1&#45;&gt;Node12 -->
<g id="edge14_Node000001_Node000012" class="edge">
<title>Node1&#45;&gt;Node12</title>
<g id="a_edge14_Node000001_Node000012"><a xlink:title=" ">
<path fill="none" stroke="#63b8ff" d="M457.82,-361.78C648,-344.79 1073.22,-306.81 1253.57,-290.7"/>
<polygon fill="#63b8ff" stroke="#63b8ff" points="457.62,-358.28 447.97,-362.66 458.24,-365.26 457.62,-358.28"/>
</a>
</g>
</g>
<!-- Node2&#45;&gt;Node3 -->
<g id="edge2_Node000002_Node000003" class="edge">
<title>Node2&#45;&gt;Node3</title>
<g id="a_edge2_Node000002_Node000003"><a xlink:title=" ">
<path fill="none" stroke="#63b8ff" d="M94.71,-244.54C109.69,-201.47 138.72,-129.38 180,-77.75 190.97,-64.03 205.93,-51.62 219.29,-42"/>
<polygon fill="#63b8ff" stroke="#63b8ff" points="91.42,-243.33 91.52,-253.93 98.05,-245.59 91.42,-243.33"/>
</a>
</g>
</g>
<!-- Node4&#45;&gt;Node3 -->
<g id="edge8_Node000004_Node000003" class="edge">
<title>Node4&#45;&gt;Node3</title>
<g id="a_edge8_Node000004_Node000003"><a xlink:title=" ">
<path fill="none" stroke="#63b8ff" d="M537.39,-279.5C436.73,-275.4 287.08,-262.12 251,-219.75 207.79,-169.01 230.07,-81.54 243.4,-42.14"/>
<polygon fill="#63b8ff" stroke="#63b8ff" points="537.16,-282.99 547.29,-279.87 537.43,-276 537.16,-282.99"/>
</a>
</g>
</g>
<!-- Node5 -->
<g id="Node000005" class="node">
<title>Node5</title>
<g id="a_Node000005"><a xlink:href="BinarySearchQueueModel_8hpp.html" target="_top" xlink:title=" ">
<polygon fill="white" stroke="#666666" points="426,-219.75 260,-219.75 260,-166.75 426,-166.75 426,-219.75"/>
<text text-anchor="start" x="268" y="-206.25" font-family="Helvetica,sans-Serif" font-size="10.00">/github/workspace/dev</text>
<text text-anchor="start" x="268" y="-195" font-family="Helvetica,sans-Serif" font-size="10.00">_area/sourcecode/datahandlinglibs</text>
<text text-anchor="start" x="268" y="-183.75" font-family="Helvetica,sans-Serif" font-size="10.00">/include/datahandlinglibs/models</text>
<text text-anchor="middle" x="343" y="-172.5" font-family="Helvetica,sans-Serif" font-size="10.00">/BinarySearchQueueModel.hpp</text>
</a>
</g>
</g>
<!-- Node4&#45;&gt;Node5 -->
<g id="edge4_Node000004_Node000005" class="edge">
<title>Node4&#45;&gt;Node5</title>
<g id="a_edge4_Node000004_Node000005"><a xlink:title=" ">
<path fill="none" stroke="#63b8ff" d="M537.81,-252.9C501.88,-242.08 461.22,-229.84 426.37,-219.35"/>
<polygon fill="#63b8ff" stroke="#63b8ff" points="536.76,-256.24 547.35,-255.77 538.78,-249.53 536.76,-256.24"/>
</a>
</g>
</g>
<!-- Node7 -->
<g id="Node000007" class="node">
<title>Node7</title>
<g id="a_Node000007"><a xlink:href="TDEEthFrameProcessor_8cpp.html" target="_top" xlink:title=" ">
<polygon fill="white" stroke="#666666" points="619.5,-214.12 444.5,-214.12 444.5,-172.38 619.5,-172.38 619.5,-214.12"/>
<text text-anchor="start" x="452.5" y="-200.62" font-family="Helvetica,sans-Serif" font-size="10.00">/github/workspace/dev</text>
<text text-anchor="start" x="452.5" y="-189.38" font-family="Helvetica,sans-Serif" font-size="10.00">_area/sourcecode/fdreadoutlibs</text>
<text text-anchor="middle" x="532" y="-178.12" font-family="Helvetica,sans-Serif" font-size="10.00">/src/tde/TDEEthFrameProcessor.cpp</text>
</a>
</g>
</g>
<!-- Node4&#45;&gt;Node7 -->
<g id="edge9_Node000004_Node000007" class="edge">
<title>Node4&#45;&gt;Node7</title>
<g id="a_edge9_Node000004_Node000007"><a xlink:title=" ">
<path fill="none" stroke="#63b8ff" d="M593.89,-248.09C580.83,-236.73 566.62,-224.37 555.11,-214.36"/>
<polygon fill="#63b8ff" stroke="#63b8ff" points="591.28,-250.47 601.13,-254.39 595.88,-245.19 591.28,-250.47"/>
</a>
</g>
</g>
<!-- Node8 -->
<g id="Node000008" class="node">
<title>Node8</title>
<g id="a_Node000008"><a xlink:href="WIBEthFrameProcessor_8cpp.html" target="_top" xlink:title=" ">
<polygon fill="white" stroke="#666666" points="828,-214.12 638,-214.12 638,-172.38 828,-172.38 828,-214.12"/>
<text text-anchor="start" x="646" y="-200.62" font-family="Helvetica,sans-Serif" font-size="10.00">/github/workspace/dev</text>
<text text-anchor="start" x="646" y="-189.38" font-family="Helvetica,sans-Serif" font-size="10.00">_area/sourcecode/fdreadoutlibs</text>
<text text-anchor="middle" x="733" y="-178.12" font-family="Helvetica,sans-Serif" font-size="10.00">/src/wibeth/WIBEthFrameProcessor.cpp</text>
</a>
</g>
</g>
<!-- Node4&#45;&gt;Node8 -->
<g id="edge10_Node000004_Node000008" class="edge">
<title>Node4&#45;&gt;Node8</title>
<g id="a_edge10_Node000004_Node000008"><a xlink:title=" ">
<path fill="none" stroke="#63b8ff" d="M670.49,-248.09C683.68,-236.73 698.04,-224.37 709.66,-214.36"/>
<polygon fill="#63b8ff" stroke="#63b8ff" points="668.47,-245.22 663.18,-254.39 673.04,-250.52 668.47,-245.22"/>
</a>
</g>
</g>
<!-- Node9 -->
<g id="Node000009" class="node">
<title>Node9</title>
<g id="a_Node000009"><a xlink:href="TAProcessor_8cpp.html" target="_top" xlink:title=" ">
<polygon fill="white" stroke="#666666" points="969.62,-214.12 846.38,-214.12 846.38,-172.38 969.62,-172.38 969.62,-214.12"/>
<text text-anchor="start" x="854.38" y="-200.62" font-family="Helvetica,sans-Serif" font-size="10.00">/github/workspace/dev</text>
<text text-anchor="start" x="854.38" y="-189.38" font-family="Helvetica,sans-Serif" font-size="10.00">_area/sourcecode/trigger</text>
<text text-anchor="middle" x="908" y="-178.12" font-family="Helvetica,sans-Serif" font-size="10.00">/src/TAProcessor.cpp</text>
</a>
</g>
</g>
<!-- Node4&#45;&gt;Node9 -->
<g id="edge11_Node000004_Node000009" class="edge">
<title>Node4&#45;&gt;Node9</title>
<g id="a_edge11_Node000004_Node000009"><a xlink:title=" ">
<path fill="none" stroke="#63b8ff" d="M725.8,-254.25C760.83,-243.87 800.86,-231.65 837,-219.75 841.98,-218.11 847.13,-216.36 852.29,-214.58"/>
<polygon fill="#63b8ff" stroke="#63b8ff" points="725.15,-250.8 716.55,-256.98 727.14,-257.51 725.15,-250.8"/>
</a>
</g>
</g>
<!-- Node10 -->
<g id="Node000010" class="node">
<title>Node10</title>
<g id="a_Node000010"><a xlink:href="TCProcessor_8cpp.html" target="_top" xlink:title=" ">
<polygon fill="white" stroke="#666666" points="1110.62,-214.12 987.38,-214.12 987.38,-172.38 1110.62,-172.38 1110.62,-214.12"/>
<text text-anchor="start" x="995.38" y="-200.62" font-family="Helvetica,sans-Serif" font-size="10.00">/github/workspace/dev</text>
<text text-anchor="start" x="995.38" y="-189.38" font-family="Helvetica,sans-Serif" font-size="10.00">_area/sourcecode/trigger</text>
<text text-anchor="middle" x="1049" y="-178.12" font-family="Helvetica,sans-Serif" font-size="10.00">/src/TCProcessor.cpp</text>
</a>
</g>
</g>
<!-- Node4&#45;&gt;Node10 -->
<g id="edge12_Node000004_Node000010" class="edge">
<title>Node4&#45;&gt;Node10</title>
<g id="a_edge12_Node000004_Node000010"><a xlink:title=" ">
<path fill="none" stroke="#63b8ff" d="M726.31,-269.06C796.66,-258.89 894.73,-242.38 979,-219.75 984.62,-218.24 990.43,-216.47 996.18,-214.59"/>
<polygon fill="#63b8ff" stroke="#63b8ff" points="726.17,-265.55 716.77,-270.43 727.16,-272.48 726.17,-265.55"/>
</a>
</g>
</g>
<!-- Node11 -->
<g id="Node000011" class="node">
<title>Node11</title>
<g id="a_Node000011"><a xlink:href="TPProcessor_8cpp.html" target="_top" xlink:title=" ">
<polygon fill="white" stroke="#666666" points="1251.62,-214.12 1128.38,-214.12 1128.38,-172.38 1251.62,-172.38 1251.62,-214.12"/>
<text text-anchor="start" x="1136.38" y="-200.62" font-family="Helvetica,sans-Serif" font-size="10.00">/github/workspace/dev</text>
<text text-anchor="start" x="1136.38" y="-189.38" font-family="Helvetica,sans-Serif" font-size="10.00">_area/sourcecode/trigger</text>
<text text-anchor="middle" x="1190" y="-178.12" font-family="Helvetica,sans-Serif" font-size="10.00">/src/TPProcessor.cpp</text>
</a>
</g>
</g>
<!-- Node4&#45;&gt;Node11 -->
<g id="edge13_Node000004_Node000011" class="edge">
<title>Node4&#45;&gt;Node11</title>
<g id="a_edge13_Node000004_Node000011"><a xlink:title=" ">
<path fill="none" stroke="#63b8ff" d="M726.67,-275.62C825.83,-268.27 985.54,-252.28 1120,-219.75 1126.03,-218.29 1132.27,-216.48 1138.41,-214.51"/>
<polygon fill="#63b8ff" stroke="#63b8ff" points="726.71,-272.11 716.99,-276.32 727.22,-279.09 726.71,-272.11"/>
</a>
</g>
</g>
<!-- Node5&#45;&gt;Node3 -->
<g id="edge7_Node000005_Node000003" class="edge">
<title>Node5&#45;&gt;Node3</title>
<g id="a_edge7_Node000005_Node000003"><a xlink:title=" ">
<path fill="none" stroke="#63b8ff" d="M308.86,-158.02C301.63,-149.57 294.53,-140.22 289,-130.75 272.25,-102.05 261.25,-64.79 255.58,-42.14"/>
<polygon fill="#63b8ff" stroke="#63b8ff" points="306.1,-160.18 315.36,-165.32 311.33,-155.53 306.1,-160.18"/>
</a>
</g>
</g>
<!-- Node6 -->
<g id="Node000006" class="node">
<title>Node6</title>
<g id="a_Node000006"><a xlink:href="FixedRateQueueModel_8hpp.html" target="_top" xlink:title=" ">
<polygon fill="white" stroke="#666666" points="464,-130.75 298,-130.75 298,-77.75 464,-77.75 464,-130.75"/>
<text text-anchor="start" x="306" y="-117.25" font-family="Helvetica,sans-Serif" font-size="10.00">/github/workspace/dev</text>
<text text-anchor="start" x="306" y="-106" font-family="Helvetica,sans-Serif" font-size="10.00">_area/sourcecode/datahandlinglibs</text>
<text text-anchor="start" x="306" y="-94.75" font-family="Helvetica,sans-Serif" font-size="10.00">/include/datahandlinglibs/models</text>
<text text-anchor="middle" x="381" y="-83.5" font-family="Helvetica,sans-Serif" font-size="10.00">/FixedRateQueueModel.hpp</text>
</a>
</g>
</g>
<!-- Node5&#45;&gt;Node6 -->
<g id="edge5_Node000005_Node000006" class="edge">
<title>Node5&#45;&gt;Node6</title>
<g id="a_edge5_Node000005_Node000006"><a xlink:title=" ">
<path fill="none" stroke="#63b8ff" d="M358.74,-156.21C362.44,-147.75 366.3,-138.9 369.75,-131"/>
<polygon fill="#63b8ff" stroke="#63b8ff" points="355.6,-154.67 354.8,-165.23 362.01,-157.47 355.6,-154.67"/>
</a>
</g>
</g>
<!-- Node6&#45;&gt;Node3 -->
<g id="edge6_Node000006_Node000003" class="edge">
<title>Node6&#45;&gt;Node3</title>
<g id="a_edge6_Node000006_Node000003"><a xlink:title=" ">
<path fill="none" stroke="#63b8ff" d="M329.95,-71.29C314.29,-61.49 297.51,-50.99 283.46,-42.19"/>
<polygon fill="#63b8ff" stroke="#63b8ff" points="327.89,-74.14 338.23,-76.48 331.61,-68.2 327.89,-74.14"/>
</a>
</g>
</g>
<!-- Node12&#45;&gt;Node3 -->
<g id="edge18_Node000012_Node000003" class="edge">
<title>Node12&#45;&gt;Node3</title>
<g id="a_edge18_Node000012_Node000003"><a xlink:title=" ">
<path fill="none" stroke="#63b8ff" d="M1314.73,-246.21C1293.78,-213.49 1265.04,-169.3 1261,-166.75 1106.86,-69.33 547.43,-34.9 334.27,-25.16"/>
<polygon fill="#63b8ff" stroke="#63b8ff" points="1311.52,-247.7 1319.86,-254.24 1317.42,-243.93 1311.52,-247.7"/>
</a>
</g>
</g>
<!-- Node13 -->
<g id="Node000013" class="node">
<title>Node13</title>
<g id="a_Node000013"><a xlink:href="DefaultSkipListRequestHandler_8hpp.html" target="_top" xlink:title=" ">
<polygon fill="white" stroke="#666666" points="1481.75,-219.75 1308.25,-219.75 1308.25,-166.75 1481.75,-166.75 1481.75,-219.75"/>
<text text-anchor="start" x="1316.25" y="-206.25" font-family="Helvetica,sans-Serif" font-size="10.00">/github/workspace/dev</text>
<text text-anchor="start" x="1316.25" y="-195" font-family="Helvetica,sans-Serif" font-size="10.00">_area/sourcecode/datahandlinglibs</text>
<text text-anchor="start" x="1316.25" y="-183.75" font-family="Helvetica,sans-Serif" font-size="10.00">/include/datahandlinglibs/models</text>
<text text-anchor="middle" x="1395" y="-172.5" font-family="Helvetica,sans-Serif" font-size="10.00">/DefaultSkipListRequestHandler.hpp</text>
</a>
</g>
</g>
<!-- Node12&#45;&gt;Node13 -->
<g id="edge15_Node000012_Node000013" class="edge">
<title>Node12&#45;&gt;Node13</title>
<g id="a_edge15_Node000012_Node000013"><a xlink:title=" ">
<path fill="none" stroke="#63b8ff" d="M1360.46,-246.05C1366.27,-237.34 1372.39,-228.17 1377.83,-220"/>
<polygon fill="#63b8ff" stroke="#63b8ff" points="1357.56,-244.1 1354.93,-254.36 1363.39,-247.98 1357.56,-244.1"/>
</a>
</g>
</g>
<!-- Node16 -->
<g id="Node000016" class="node">
<title>Node16</title>
<g id="a_Node000016"><a xlink:href="DAPHNEListRequestHandler_8hpp.html" target="_top" xlink:title=" ">
<polygon fill="white" stroke="#666666" points="1664.25,-219.75 1499.75,-219.75 1499.75,-166.75 1664.25,-166.75 1664.25,-219.75"/>
<text text-anchor="start" x="1507.75" y="-206.25" font-family="Helvetica,sans-Serif" font-size="10.00">/github/workspace/dev</text>
<text text-anchor="start" x="1507.75" y="-195" font-family="Helvetica,sans-Serif" font-size="10.00">_area/sourcecode/fdreadoutlibs</text>
<text text-anchor="start" x="1507.75" y="-183.75" font-family="Helvetica,sans-Serif" font-size="10.00">/include/fdreadoutlibs/daphne</text>
<text text-anchor="middle" x="1582" y="-172.5" font-family="Helvetica,sans-Serif" font-size="10.00">/DAPHNEListRequestHandler.hpp</text>
</a>
</g>
</g>
<!-- Node12&#45;&gt;Node16 -->
<g id="edge19_Node000012_Node000016" class="edge">
<title>Node12&#45;&gt;Node16</title>
<g id="a_edge19_Node000012_Node000016"><a xlink:title=" ">
<path fill="none" stroke="#63b8ff" d="M1421,-251.42C1449.67,-241.24 1481.48,-229.94 1509.2,-220.1"/>
<polygon fill="#63b8ff" stroke="#63b8ff" points="1419.85,-248.11 1411.6,-254.76 1422.2,-254.71 1419.85,-248.11"/>
</a>
</g>
</g>
<!-- Node14 -->
<g id="Node000014" class="node">
<title>Node14</title>
<g id="a_Node000014"><a xlink:href="TPRequestHandler_8hpp.html" target="_top" xlink:title=" ">
<polygon fill="white" stroke="#666666" points="1478,-125.12 1312,-125.12 1312,-83.38 1478,-83.38 1478,-125.12"/>
<text text-anchor="start" x="1320" y="-111.62" font-family="Helvetica,sans-Serif" font-size="10.00">/github/workspace/dev</text>
<text text-anchor="start" x="1320" y="-100.38" font-family="Helvetica,sans-Serif" font-size="10.00">_area/sourcecode/trigger</text>
<text text-anchor="middle" x="1395" y="-89.12" font-family="Helvetica,sans-Serif" font-size="10.00">/src/trigger/TPRequestHandler.hpp</text>
</a>
</g>
</g>
<!-- Node13&#45;&gt;Node14 -->
<g id="edge16_Node000013_Node000014" class="edge">
<title>Node13&#45;&gt;Node14</title>
<g id="a_edge16_Node000013_Node000014"><a xlink:title=" ">
<path fill="none" stroke="#63b8ff" d="M1395,-155.38C1395,-145.13 1395,-134.37 1395,-125.46"/>
<polygon fill="#63b8ff" stroke="#63b8ff" points="1391.5,-155.1 1395,-165.1 1398.5,-155.1 1391.5,-155.1"/>
</a>
</g>
</g>
<!-- Node15 -->
<g id="Node000015" class="node">
<title>Node15</title>
<g id="a_Node000015"><a xlink:href="TPRequestHandler_8cpp.html" target="_top" xlink:title=" ">
<polygon fill="white" stroke="#666666" points="1463,-41.75 1327,-41.75 1327,0 1463,0 1463,-41.75"/>
<text text-anchor="start" x="1335" y="-28.25" font-family="Helvetica,sans-Serif" font-size="10.00">/github/workspace/dev</text>
<text text-anchor="start" x="1335" y="-17" font-family="Helvetica,sans-Serif" font-size="10.00">_area/sourcecode/trigger</text>
<text text-anchor="middle" x="1395" y="-5.75" font-family="Helvetica,sans-Serif" font-size="10.00">/src/TPRequestHandler.cpp</text>
</a>
</g>
</g>
<!-- Node14&#45;&gt;Node15 -->
<g id="edge17_Node000014_Node000015" class="edge">
<title>Node14&#45;&gt;Node15</title>
<g id="a_edge17_Node000014_Node000015"><a xlink:title=" ">
<path fill="none" stroke="#63b8ff" d="M1395,-71.89C1395,-61.87 1395,-51.05 1395,-42.04"/>
<polygon fill="#63b8ff" stroke="#63b8ff" points="1391.5,-71.62 1395,-81.62 1398.5,-71.62 1391.5,-71.62"/>
</a>
</g>
</g>
<!-- Node17 -->
<g id="Node000017" class="node">
<title>Node17</title>
<g id="a_Node000017"><a xlink:href="FDReadoutlibs_8cpp.html" target="_top" xlink:title=" ">
<polygon fill="white" stroke="#666666" points="1652.88,-125.12 1501.12,-125.12 1501.12,-83.38 1652.88,-83.38 1652.88,-125.12"/>
<text text-anchor="start" x="1509.12" y="-111.62" font-family="Helvetica,sans-Serif" font-size="10.00">/github/workspace/dev</text>
<text text-anchor="start" x="1509.12" y="-100.38" font-family="Helvetica,sans-Serif" font-size="10.00">_area/sourcecode/fdreadoutlibs</text>
<text text-anchor="middle" x="1577" y="-89.12" font-family="Helvetica,sans-Serif" font-size="10.00">/src/FDReadoutlibs.cpp</text>
</a>
</g>
</g>
<!-- Node16&#45;&gt;Node17 -->
<g id="edge20_Node000016_Node000017" class="edge">
<title>Node16&#45;&gt;Node17</title>
<g id="a_edge20_Node000016_Node000017"><a xlink:title=" ">
<path fill="none" stroke="#63b8ff" d="M1579.88,-155.38C1579.29,-145.13 1578.67,-134.37 1578.16,-125.46"/>
<polygon fill="#63b8ff" stroke="#63b8ff" points="1576.37,-155.32 1580.44,-165.11 1583.36,-154.92 1576.37,-155.32"/>
</a>
</g>
</g>
<!-- Node18 -->
<g id="Node000018" class="node">
<title>Node18</title>
<g id="a_Node000018"><a xlink:href="DAPHNEListRequestHandler_8cpp.html" target="_top" xlink:title=" ">
<polygon fill="white" stroke="#666666" points="1886.75,-125.12 1671.25,-125.12 1671.25,-83.38 1886.75,-83.38 1886.75,-125.12"/>
<text text-anchor="start" x="1679.25" y="-111.62" font-family="Helvetica,sans-Serif" font-size="10.00">/github/workspace/dev</text>
<text text-anchor="start" x="1679.25" y="-100.38" font-family="Helvetica,sans-Serif" font-size="10.00">_area/sourcecode/fdreadoutlibs</text>
<text text-anchor="middle" x="1779" y="-89.12" font-family="Helvetica,sans-Serif" font-size="10.00">/src/daphne/DAPHNEListRequestHandler.cpp</text>
</a>
</g>
</g>
<!-- Node16&#45;&gt;Node18 -->
<g id="edge21_Node000016_Node000018" class="edge">
<title>Node16&#45;&gt;Node18</title>
<g id="a_edge21_Node000016_Node000018"><a xlink:title=" ">
<path fill="none" stroke="#63b8ff" d="M1651.06,-161.75C1678.19,-149.77 1708.6,-136.34 1732.96,-125.58"/>
<polygon fill="#63b8ff" stroke="#63b8ff" points="1649.96,-158.41 1642.22,-165.65 1652.79,-164.82 1649.96,-158.41"/>
</a>
</g>
</g>
</g>
</svg>
