<?xml version="1.0" encoding="UTF-8" standalone="no"?>
<!DOCTYPE svg PUBLIC "-//W3C//DTD SVG 1.1//EN"
 "http://www.w3.org/Graphics/SVG/1.1/DTD/svg11.dtd">
<!-- Generated by graphviz version 9.0.0 (20230911.1827)
 -->
<!-- Title: /github/workspace/dev_area/build/trigger/codegen/include/trigger/opmon/latency_info.pb.cc Pages: 1 -->
<svg width="1996pt" height="194pt"
 viewBox="0.00 0.00 1995.62 194.00" xmlns="http://www.w3.org/2000/svg" xmlns:xlink="http://www.w3.org/1999/xlink">
<g id="graph0" class="graph" transform="scale(1 1) rotate(0) translate(4 190)">
<title>/github/workspace/dev_area/build/trigger/codegen/include/trigger/opmon/latency_info.pb.cc</title>
<!-- Node1 -->
<g id="Node000001" class="node">
<title>Node1</title>
<g id="a_Node000001"><a xlink:title=" ">
<polygon fill="#999999" stroke="#666666" points="1237,-186 1091.25,-186 1091.25,-133 1237,-133 1237,-186"/>
<text text-anchor="start" x="1099.25" y="-172.5" font-family="Helvetica,sans-Serif" font-size="10.00">/github/workspace/dev</text>
<text text-anchor="start" x="1099.25" y="-161.25" font-family="Helvetica,sans-Serif" font-size="10.00">_area/build/trigger/codegen</text>
<text text-anchor="start" x="1099.25" y="-150" font-family="Helvetica,sans-Serif" font-size="10.00">/include/trigger/opmon/latency</text>
<text text-anchor="middle" x="1164.12" y="-138.75" font-family="Helvetica,sans-Serif" font-size="10.00">_info.pb.cc</text>
</a>
</g>
</g>
<!-- Node2 -->
<g id="Node000002" class="node">
<title>Node2</title>
<g id="a_Node000002"><a xlink:href="latency__info_8pb_8h.html" target="_top" xlink:title=" ">
<polygon fill="white" stroke="#666666" points="1069.62,-97 960.62,-97 960.62,-66.5 1069.62,-66.5 1069.62,-97"/>
<text text-anchor="start" x="968.62" y="-83.5" font-family="Helvetica,sans-Serif" font-size="10.00">trigger/opmon/latency</text>
<text text-anchor="middle" x="1015.12" y="-72.25" font-family="Helvetica,sans-Serif" font-size="10.00">_info.pb.h</text>
</a>
</g>
</g>
<!-- Node1&#45;&gt;Node2 -->
<g id="edge1_Node000001_Node000002" class="edge">
<title>Node1&#45;&gt;Node2</title>
<g id="a_edge1_Node000001_Node000002"><a xlink:title=" ">
<path fill="none" stroke="#63b8ff" d="M1113.26,-132.64C1093.95,-122.83 1072.28,-111.81 1054.22,-102.63"/>
<polygon fill="#63b8ff" stroke="#63b8ff" points="1055.9,-99.55 1045.4,-98.14 1052.73,-105.79 1055.9,-99.55"/>
</a>
</g>
</g>
<!-- Node6 -->
<g id="Node000006" class="node">
<title>Node6</title>
<g id="a_Node000006"><a xlink:title=" ">
<polygon fill="#e0e0e0" stroke="#999999" points="102.25,-30.5 0,-30.5 0,0 102.25,0 102.25,-30.5"/>
<text text-anchor="start" x="8" y="-17" font-family="Helvetica,sans-Serif" font-size="10.00">google/protobuf/port</text>
<text text-anchor="middle" x="51.12" y="-5.75" font-family="Helvetica,sans-Serif" font-size="10.00">_def.inc</text>
</a>
</g>
</g>
<!-- Node1&#45;&gt;Node6 -->
<g id="edge27_Node000001_Node000006" class="edge">
<title>Node1&#45;&gt;Node6</title>
<g id="a_edge27_Node000001_Node000006"><a xlink:title=" ">
<path fill="none" stroke="#63b8ff" d="M1090.82,-155.76C956.16,-149.99 660.57,-133.98 414.12,-97 307.61,-81.02 185.77,-51.57 113.81,-33"/>
<polygon fill="#63b8ff" stroke="#63b8ff" points="114.72,-29.62 104.16,-30.5 112.96,-36.4 114.72,-29.62"/>
</a>
</g>
</g>
<!-- Node7 -->
<g id="Node000007" class="node">
<title>Node7</title>
<g id="a_Node000007"><a xlink:title=" ">
<polygon fill="#e0e0e0" stroke="#999999" points="222.25,-30.5 120,-30.5 120,0 222.25,0 222.25,-30.5"/>
<text text-anchor="start" x="128" y="-17" font-family="Helvetica,sans-Serif" font-size="10.00">google/protobuf/port</text>
<text text-anchor="middle" x="171.12" y="-5.75" font-family="Helvetica,sans-Serif" font-size="10.00">_undef.inc</text>
</a>
</g>
</g>
<!-- Node1&#45;&gt;Node7 -->
<g id="edge28_Node000001_Node000007" class="edge">
<title>Node1&#45;&gt;Node7</title>
<g id="a_edge28_Node000001_Node000007"><a xlink:title=" ">
<path fill="none" stroke="#63b8ff" d="M1090.81,-151.97C983.96,-142.1 779.29,-121.87 606.12,-97 442.18,-73.45 398.72,-65.2 233.53,-30.94"/>
<polygon fill="#63b8ff" stroke="#63b8ff" points="234.45,-27.56 223.95,-28.96 233.03,-34.42 234.45,-27.56"/>
</a>
</g>
</g>
<!-- Node8 -->
<g id="Node000008" class="node">
<title>Node8</title>
<g id="a_Node000008"><a xlink:title=" ">
<polygon fill="#e0e0e0" stroke="#999999" points="333.75,-30.5 240.5,-30.5 240.5,0 333.75,0 333.75,-30.5"/>
<text text-anchor="start" x="248.5" y="-17" font-family="Helvetica,sans-Serif" font-size="10.00">google/protobuf/io</text>
<text text-anchor="middle" x="287.12" y="-5.75" font-family="Helvetica,sans-Serif" font-size="10.00">/coded_stream.h</text>
</a>
</g>
</g>
<!-- Node1&#45;&gt;Node8 -->
<g id="edge19_Node000001_Node000008" class="edge">
<title>Node1&#45;&gt;Node8</title>
<g id="a_edge19_Node000001_Node000008"><a xlink:title=" ">
<path fill="none" stroke="#63b8ff" d="M1091.11,-145.79C984.62,-127.42 780.4,-92.74 606.12,-66.5 492.57,-49.4 460.25,-53.14 345.17,-30.97"/>
<polygon fill="#63b8ff" stroke="#63b8ff" points="346.12,-27.59 335.63,-29.11 344.78,-34.46 346.12,-27.59"/>
</a>
</g>
</g>
<!-- Node14 -->
<g id="Node000014" class="node">
<title>Node14</title>
<g id="a_Node000014"><a xlink:title=" ">
<polygon fill="#e0e0e0" stroke="#999999" points="1842.38,-30.5 1713.88,-30.5 1713.88,0 1842.38,0 1842.38,-30.5"/>
<text text-anchor="start" x="1721.88" y="-17" font-family="Helvetica,sans-Serif" font-size="10.00">google/protobuf/generated</text>
<text text-anchor="middle" x="1778.12" y="-5.75" font-family="Helvetica,sans-Serif" font-size="10.00">_message_reflection.h</text>
</a>
</g>
</g>
<!-- Node1&#45;&gt;Node14 -->
<g id="edge23_Node000001_Node000014" class="edge">
<title>Node1&#45;&gt;Node14</title>
<g id="a_edge23_Node000001_Node000014"><a xlink:title=" ">
<path fill="none" stroke="#63b8ff" d="M1138.15,-132.89C1120.92,-112.85 1104.45,-85.3 1122.12,-66.5 1164.71,-21.2 1601.68,-37.21 1702.46,-30.34"/>
<polygon fill="#63b8ff" stroke="#63b8ff" points="1702.57,-33.85 1712.21,-29.44 1701.93,-26.88 1702.57,-33.85"/>
</a>
</g>
</g>
<!-- Node17 -->
<g id="Node000017" class="node">
<title>Node17</title>
<g id="a_Node000017"><a xlink:title=" ">
<polygon fill="#e0e0e0" stroke="#999999" points="1987.62,-30.5 1860.62,-30.5 1860.62,0 1987.62,0 1987.62,-30.5"/>
<text text-anchor="start" x="1868.62" y="-17" font-family="Helvetica,sans-Serif" font-size="10.00">google/protobuf/extension</text>
<text text-anchor="middle" x="1924.12" y="-5.75" font-family="Helvetica,sans-Serif" font-size="10.00">_set.h</text>
</a>
</g>
</g>
<!-- Node1&#45;&gt;Node17 -->
<g id="edge20_Node000001_Node000017" class="edge">
<title>Node1&#45;&gt;Node17</title>
<g id="a_edge20_Node000001_Node000017"><a xlink:title=" ">
<path fill="none" stroke="#63b8ff" d="M1152.09,-132.81C1144.41,-112.16 1138.66,-83.84 1155.12,-66.5 1206.52,-12.38 1734.05,-37.91 1849.33,-30.23"/>
<polygon fill="#63b8ff" stroke="#63b8ff" points="1849.36,-33.74 1859,-29.35 1848.73,-26.77 1849.36,-33.74"/>
</a>
</g>
</g>
<!-- Node19 -->
<g id="Node000019" class="node">
<title>Node19</title>
<g id="a_Node000019"><a xlink:title=" ">
<polygon fill="#e0e0e0" stroke="#999999" points="1220,-91.38 1164.25,-91.38 1164.25,-72.12 1220,-72.12 1220,-91.38"/>
<text text-anchor="middle" x="1192.12" y="-77.88" font-family="Helvetica,sans-Serif" font-size="10.00">algorithm</text>
</a>
</g>
</g>
<!-- Node1&#45;&gt;Node19 -->
<g id="edge18_Node000001_Node000019" class="edge">
<title>Node1&#45;&gt;Node19</title>
<g id="a_edge18_Node000001_Node000019"><a xlink:title=" ">
<path fill="none" stroke="#63b8ff" d="M1173.6,-132.85C1177.31,-122.84 1181.48,-111.54 1184.93,-102.21"/>
<polygon fill="#63b8ff" stroke="#63b8ff" points="1188.11,-103.7 1188.3,-93.11 1181.55,-101.28 1188.11,-103.7"/>
</a>
</g>
</g>
<!-- Node20 -->
<g id="Node000020" class="node">
<title>Node20</title>
<g id="a_Node000020"><a xlink:title=" ">
<polygon fill="#e0e0e0" stroke="#999999" points="1342,-97 1238.25,-97 1238.25,-66.5 1342,-66.5 1342,-97"/>
<text text-anchor="start" x="1246.25" y="-83.5" font-family="Helvetica,sans-Serif" font-size="10.00">google/protobuf/wire</text>
<text text-anchor="middle" x="1290.12" y="-72.25" font-family="Helvetica,sans-Serif" font-size="10.00">_format_lite.h</text>
</a>
</g>
</g>
<!-- Node1&#45;&gt;Node20 -->
<g id="edge21_Node000001_Node000020" class="edge">
<title>Node1&#45;&gt;Node20</title>
<g id="a_edge21_Node000001_Node000020"><a xlink:title=" ">
<path fill="none" stroke="#63b8ff" d="M1207.13,-132.64C1223.16,-123.01 1241.11,-112.22 1256.2,-103.14"/>
<polygon fill="#63b8ff" stroke="#63b8ff" points="1257.6,-106.39 1264.36,-98.24 1253.99,-100.39 1257.6,-106.39"/>
</a>
</g>
</g>
<!-- Node21 -->
<g id="Node000021" class="node">
<title>Node21</title>
<g id="a_Node000021"><a xlink:title=" ">
<polygon fill="#e0e0e0" stroke="#999999" points="1496.12,-91.38 1360.12,-91.38 1360.12,-72.12 1496.12,-72.12 1496.12,-91.38"/>
<text text-anchor="middle" x="1428.12" y="-77.88" font-family="Helvetica,sans-Serif" font-size="10.00">google/protobuf/descriptor.h</text>
</a>
</g>
</g>
<!-- Node1&#45;&gt;Node21 -->
<g id="edge22_Node000001_Node000021" class="edge">
<title>Node1&#45;&gt;Node21</title>
<g id="a_edge22_Node000001_Node000021"><a xlink:title=" ">
<path fill="none" stroke="#63b8ff" d="M1237.31,-137.5C1285.05,-123.8 1345.69,-106.4 1385.65,-94.94"/>
<polygon fill="#63b8ff" stroke="#63b8ff" points="1386.49,-98.34 1395.13,-92.22 1384.56,-91.61 1386.49,-98.34"/>
</a>
</g>
</g>
<!-- Node22 -->
<g id="Node000022" class="node">
<title>Node22</title>
<g id="a_Node000022"><a xlink:title=" ">
<polygon fill="#e0e0e0" stroke="#999999" points="1638.5,-97 1513.75,-97 1513.75,-66.5 1638.5,-66.5 1638.5,-97"/>
<text text-anchor="start" x="1521.75" y="-83.5" font-family="Helvetica,sans-Serif" font-size="10.00">google/protobuf/reflection</text>
<text text-anchor="middle" x="1576.12" y="-72.25" font-family="Helvetica,sans-Serif" font-size="10.00">_ops.h</text>
</a>
</g>
</g>
<!-- Node1&#45;&gt;Node22 -->
<g id="edge24_Node000001_Node000022" class="edge">
<title>Node1&#45;&gt;Node22</title>
<g id="a_edge24_Node000001_Node000022"><a xlink:title=" ">
<path fill="none" stroke="#63b8ff" d="M1237.37,-145.72C1303.91,-134.01 1405.09,-115.96 1502.21,-97.54"/>
<polygon fill="#63b8ff" stroke="#63b8ff" points="1502.76,-100.99 1511.93,-95.69 1501.45,-94.12 1502.76,-100.99"/>
</a>
</g>
</g>
<!-- Node23 -->
<g id="Node000023" class="node">
<title>Node23</title>
<g id="a_Node000023"><a xlink:title=" ">
<polygon fill="#e0e0e0" stroke="#999999" points="1760,-97 1656.25,-97 1656.25,-66.5 1760,-66.5 1760,-97"/>
<text text-anchor="start" x="1664.25" y="-83.5" font-family="Helvetica,sans-Serif" font-size="10.00">google/protobuf/wire</text>
<text text-anchor="middle" x="1708.12" y="-72.25" font-family="Helvetica,sans-Serif" font-size="10.00">_format.h</text>
</a>
</g>
</g>
<!-- Node1&#45;&gt;Node23 -->
<g id="edge25_Node000001_Node000023" class="edge">
<title>Node1&#45;&gt;Node23</title>
<g id="a_edge25_Node000001_Node000023"><a xlink:title=" ">
<path fill="none" stroke="#63b8ff" d="M1237.31,-151.55C1329.92,-142.23 1494.5,-123.9 1644.71,-97.32"/>
<polygon fill="#63b8ff" stroke="#63b8ff" points="1645.24,-100.78 1654.47,-95.58 1644.01,-93.89 1645.24,-100.78"/>
</a>
</g>
</g>
<!-- Node24 -->
<g id="Node000024" class="node">
<title>Node24</title>
<g id="a_Node000024"><a xlink:title=" ">
<polygon fill="#e0e0e0" stroke="#999999" points="1906.38,-97 1777.88,-97 1777.88,-66.5 1906.38,-66.5 1906.38,-97"/>
<text text-anchor="start" x="1785.88" y="-83.5" font-family="Helvetica,sans-Serif" font-size="10.00">google/protobuf/generated</text>
<text text-anchor="middle" x="1842.12" y="-72.25" font-family="Helvetica,sans-Serif" font-size="10.00">_message_tctable_impl.h</text>
</a>
</g>
</g>
<!-- Node1&#45;&gt;Node24 -->
<g id="edge26_Node000001_Node000024" class="edge">
<title>Node1&#45;&gt;Node24</title>
<g id="a_edge26_Node000001_Node000024"><a xlink:title=" ">
<path fill="none" stroke="#63b8ff" d="M1237.5,-153.22C1349.47,-144.68 1569.89,-125.98 1766.57,-97.3"/>
<polygon fill="#63b8ff" stroke="#63b8ff" points="1766.81,-100.8 1776.2,-95.88 1765.79,-93.87 1766.81,-100.8"/>
</a>
</g>
</g>
<!-- Node3 -->
<g id="Node000003" class="node">
<title>Node3</title>
<g id="a_Node000003"><a xlink:title=" ">
<polygon fill="#e0e0e0" stroke="#999999" points="1422.75,-24.88 1383.5,-24.88 1383.5,-5.63 1422.75,-5.63 1422.75,-24.88"/>
<text text-anchor="middle" x="1403.12" y="-11.38" font-family="Helvetica,sans-Serif" font-size="10.00">limits</text>
</a>
</g>
</g>
<!-- Node2&#45;&gt;Node3 -->
<g id="edge2_Node000002_Node000003" class="edge">
<title>Node2&#45;&gt;Node3</title>
<g id="a_edge2_Node000002_Node000003"><a xlink:title=" ">
<path fill="none" stroke="#63b8ff" d="M1070.04,-69C1074.79,-68.1 1079.54,-67.26 1084.12,-66.5 1212.27,-45.35 1249.67,-67.65 1374.12,-30.5 1374.93,-30.26 1375.74,-30 1376.56,-29.72"/>
<polygon fill="#63b8ff" stroke="#63b8ff" points="1377.68,-33.04 1385.55,-25.96 1374.98,-26.59 1377.68,-33.04"/>
</a>
</g>
</g>
<!-- Node4 -->
<g id="Node000004" class="node">
<title>Node4</title>
<g id="a_Node000004"><a xlink:title=" ">
<polygon fill="#e0e0e0" stroke="#999999" points="1481.12,-24.88 1441.12,-24.88 1441.12,-5.63 1481.12,-5.63 1481.12,-24.88"/>
<text text-anchor="middle" x="1461.12" y="-11.38" font-family="Helvetica,sans-Serif" font-size="10.00">string</text>
</a>
</g>
</g>
<!-- Node2&#45;&gt;Node4 -->
<g id="edge3_Node000002_Node000004" class="edge">
<title>Node2&#45;&gt;Node4</title>
<g id="a_edge3_Node000002_Node000004"><a xlink:title=" ">
<path fill="none" stroke="#63b8ff" d="M1070.02,-68.89C1074.78,-68.02 1079.53,-67.21 1084.12,-66.5 1237.79,-42.75 1282.68,-73.46 1432.12,-30.5 1433.09,-30.22 1434.07,-29.91 1435.04,-29.58"/>
<polygon fill="#63b8ff" stroke="#63b8ff" points="1436.01,-32.97 1443.88,-25.87 1433.3,-26.51 1436.01,-32.97"/>
</a>
</g>
</g>
<!-- Node5 -->
<g id="Node000005" class="node">
<title>Node5</title>
<g id="a_Node000005"><a xlink:title=" ">
<polygon fill="#e0e0e0" stroke="#999999" points="1560.62,-24.88 1499.62,-24.88 1499.62,-5.63 1560.62,-5.63 1560.62,-24.88"/>
<text text-anchor="middle" x="1530.12" y="-11.38" font-family="Helvetica,sans-Serif" font-size="10.00">type_traits</text>
</a>
</g>
</g>
<!-- Node2&#45;&gt;Node5 -->
<g id="edge4_Node000002_Node000005" class="edge">
<title>Node2&#45;&gt;Node5</title>
<g id="a_edge4_Node000002_Node000005"><a xlink:title=" ">
<path fill="none" stroke="#63b8ff" d="M1070.01,-68.82C1074.77,-67.97 1079.53,-67.18 1084.12,-66.5 1263.35,-40.14 1313.16,-69.21 1490.12,-30.5 1492.43,-30 1494.79,-29.39 1497.14,-28.73"/>
<polygon fill="#63b8ff" stroke="#63b8ff" points="1498.09,-32.1 1506.55,-25.72 1495.96,-25.43 1498.09,-32.1"/>
</a>
</g>
</g>
<!-- Node2&#45;&gt;Node6 -->
<g id="edge5_Node000002_Node000006" class="edge">
<title>Node2&#45;&gt;Node6</title>
<g id="a_edge5_Node000002_Node000006"><a xlink:title=" ">
<path fill="none" stroke="#63b8ff" d="M960.27,-81.08C820.4,-81.2 439.09,-77.01 113.79,-30.71"/>
<polygon fill="#63b8ff" stroke="#63b8ff" points="114.62,-27.3 104.22,-29.34 113.62,-34.23 114.62,-27.3"/>
</a>
</g>
</g>
<!-- Node2&#45;&gt;Node7 -->
<g id="edge6_Node000002_Node000007" class="edge">
<title>Node2&#45;&gt;Node7</title>
<g id="a_edge6_Node000002_Node000007"><a xlink:title=" ">
<path fill="none" stroke="#63b8ff" d="M960.36,-78.45C810.08,-71.94 392.45,-52.56 233.7,-30.67"/>
<polygon fill="#63b8ff" stroke="#63b8ff" points="234.62,-27.27 224.23,-29.31 233.62,-34.2 234.62,-27.27"/>
</a>
</g>
</g>
<!-- Node2&#45;&gt;Node8 -->
<g id="edge7_Node000002_Node000008" class="edge">
<title>Node2&#45;&gt;Node8</title>
<g id="a_edge7_Node000002_Node000008"><a xlink:title=" ">
<path fill="none" stroke="#63b8ff" d="M960.4,-75.99C927.08,-73.14 883.66,-69.49 845.12,-66.5 625.38,-49.43 565.28,-66.18 345.38,-30.86"/>
<polygon fill="#63b8ff" stroke="#63b8ff" points="346.04,-27.42 335.6,-29.27 344.91,-34.33 346.04,-27.42"/>
</a>
</g>
</g>
<!-- Node9 -->
<g id="Node000009" class="node">
<title>Node9</title>
<g id="a_Node000009"><a xlink:title=" ">
<polygon fill="#e0e0e0" stroke="#999999" points="1695.75,-24.88 1578.5,-24.88 1578.5,-5.63 1695.75,-5.63 1695.75,-24.88"/>
<text text-anchor="middle" x="1637.12" y="-11.38" font-family="Helvetica,sans-Serif" font-size="10.00">google/protobuf/arena.h</text>
</a>
</g>
</g>
<!-- Node2&#45;&gt;Node9 -->
<g id="edge8_Node000002_Node000009" class="edge">
<title>Node2&#45;&gt;Node9</title>
<g id="a_edge8_Node000002_Node000009"><a xlink:title=" ">
<path fill="none" stroke="#63b8ff" d="M1070,-68.75C1074.76,-67.91 1079.52,-67.14 1084.12,-66.5 1298.63,-36.53 1355.71,-61.1 1570.12,-30.5 1575.79,-29.69 1581.7,-28.68 1587.55,-27.58"/>
<polygon fill="#63b8ff" stroke="#63b8ff" points="1588.06,-31.05 1597.18,-25.66 1586.69,-24.18 1588.06,-31.05"/>
</a>
</g>
</g>
<!-- Node10 -->
<g id="Node000010" class="node">
<title>Node10</title>
<g id="a_Node000010"><a xlink:title=" ">
<polygon fill="#e0e0e0" stroke="#999999" points="492.75,-24.88 351.5,-24.88 351.5,-5.63 492.75,-5.63 492.75,-24.88"/>
<text text-anchor="middle" x="422.12" y="-11.38" font-family="Helvetica,sans-Serif" font-size="10.00">google/protobuf/arenastring.h</text>
</a>
</g>
</g>
<!-- Node2&#45;&gt;Node10 -->
<g id="edge9_Node000002_Node000010" class="edge">
<title>Node2&#45;&gt;Node10</title>
<g id="a_edge9_Node000002_Node000010"><a xlink:title=" ">
<path fill="none" stroke="#63b8ff" d="M960.29,-75.93C846.81,-65.86 589.56,-42.55 502.12,-30.5 495.15,-29.54 487.86,-28.41 480.64,-27.22"/>
<polygon fill="#63b8ff" stroke="#63b8ff" points="481.34,-23.79 470.9,-25.56 480.17,-30.69 481.34,-23.79"/>
</a>
</g>
</g>
<!-- Node11 -->
<g id="Node000011" class="node">
<title>Node11</title>
<g id="a_Node000011"><a xlink:title=" ">
<polygon fill="#e0e0e0" stroke="#999999" points="639.38,-30.5 510.88,-30.5 510.88,0 639.38,0 639.38,-30.5"/>
<text text-anchor="start" x="518.88" y="-17" font-family="Helvetica,sans-Serif" font-size="10.00">google/protobuf/generated</text>
<text text-anchor="middle" x="575.12" y="-5.75" font-family="Helvetica,sans-Serif" font-size="10.00">_message_tctable_decl.h</text>
</a>
</g>
</g>
<!-- Node2&#45;&gt;Node11 -->
<g id="edge10_Node000002_Node000011" class="edge">
<title>Node2&#45;&gt;Node11</title>
<g id="a_edge10_Node000002_Node000011"><a xlink:title=" ">
<path fill="none" stroke="#63b8ff" d="M960.42,-74.17C890.99,-65.62 767.28,-49.68 650.9,-30.73"/>
<polygon fill="#63b8ff" stroke="#63b8ff" points="651.59,-27.3 641.16,-29.13 650.46,-34.21 651.59,-27.3"/>
</a>
</g>
</g>
<!-- Node12 -->
<g id="Node000012" class="node">
<title>Node12</title>
<g id="a_Node000012"><a xlink:title=" ">
<polygon fill="#e0e0e0" stroke="#999999" points="786.38,-30.5 657.88,-30.5 657.88,0 786.38,0 786.38,-30.5"/>
<text text-anchor="start" x="665.88" y="-17" font-family="Helvetica,sans-Serif" font-size="10.00">google/protobuf/generated</text>
<text text-anchor="middle" x="722.12" y="-5.75" font-family="Helvetica,sans-Serif" font-size="10.00">_message_util.h</text>
</a>
</g>
</g>
<!-- Node2&#45;&gt;Node12 -->
<g id="edge11_Node000002_Node000012" class="edge">
<title>Node2&#45;&gt;Node12</title>
<g id="a_edge11_Node000002_Node000012"><a xlink:title=" ">
<path fill="none" stroke="#63b8ff" d="M960.36,-68.69C914.53,-58.6 848.65,-44.1 797.79,-32.91"/>
<polygon fill="#63b8ff" stroke="#63b8ff" points="798.84,-29.55 788.32,-30.82 797.34,-36.39 798.84,-29.55"/>
</a>
</g>
</g>
<!-- Node13 -->
<g id="Node000013" class="node">
<title>Node13</title>
<g id="a_Node000013"><a xlink:title=" ">
<polygon fill="#e0e0e0" stroke="#999999" points="930.25,-30.5 804,-30.5 804,0 930.25,0 930.25,-30.5"/>
<text text-anchor="start" x="812" y="-17" font-family="Helvetica,sans-Serif" font-size="10.00">google/protobuf/metadata</text>
<text text-anchor="middle" x="867.12" y="-5.75" font-family="Helvetica,sans-Serif" font-size="10.00">_lite.h</text>
</a>
</g>
</g>
<!-- Node2&#45;&gt;Node13 -->
<g id="edge12_Node000002_Node000013" class="edge">
<title>Node2&#45;&gt;Node13</title>
<g id="a_edge12_Node000002_Node000013"><a xlink:title=" ">
<path fill="none" stroke="#63b8ff" d="M981.54,-66.11C960.71,-57.03 933.7,-45.27 911.16,-35.44"/>
<polygon fill="#63b8ff" stroke="#63b8ff" points="912.78,-32.33 902.22,-31.54 909.99,-38.75 912.78,-32.33"/>
</a>
</g>
</g>
<!-- Node2&#45;&gt;Node14 -->
<g id="edge13_Node000002_Node000014" class="edge">
<title>Node2&#45;&gt;Node14</title>
<g id="a_edge13_Node000002_Node000014"><a xlink:title=" ">
<path fill="none" stroke="#63b8ff" d="M1069.99,-68.67C1074.76,-67.85 1079.52,-67.11 1084.12,-66.5 1354.61,-30.92 1428.88,-64.16 1702.63,-30.69"/>
<polygon fill="#63b8ff" stroke="#63b8ff" points="1702.72,-34.21 1712.21,-29.5 1701.86,-27.26 1702.72,-34.21"/>
</a>
</g>
</g>
<!-- Node15 -->
<g id="Node000015" class="node">
<title>Node15</title>
<g id="a_Node000015"><a xlink:title=" ">
<polygon fill="#e0e0e0" stroke="#999999" points="1081.62,-24.88 948.62,-24.88 948.62,-5.63 1081.62,-5.63 1081.62,-24.88"/>
<text text-anchor="middle" x="1015.12" y="-11.38" font-family="Helvetica,sans-Serif" font-size="10.00">google/protobuf/message.h</text>
</a>
</g>
</g>
<!-- Node2&#45;&gt;Node15 -->
<g id="edge14_Node000002_Node000015" class="edge">
<title>Node2&#45;&gt;Node15</title>
<g id="a_edge14_Node000002_Node000015"><a xlink:title=" ">
<path fill="none" stroke="#63b8ff" d="M1015.12,-66.11C1015.12,-57.33 1015.12,-46.02 1015.12,-36.4"/>
<polygon fill="#63b8ff" stroke="#63b8ff" points="1018.63,-36.59 1015.13,-26.59 1011.63,-36.59 1018.63,-36.59"/>
</a>
</g>
</g>
<!-- Node16 -->
<g id="Node000016" class="node">
<title>Node16</title>
<g id="a_Node000016"><a xlink:title=" ">
<polygon fill="#e0e0e0" stroke="#999999" points="1222.75,-30.5 1099.5,-30.5 1099.5,0 1222.75,0 1222.75,-30.5"/>
<text text-anchor="start" x="1107.5" y="-17" font-family="Helvetica,sans-Serif" font-size="10.00">google/protobuf/repeated</text>
<text text-anchor="middle" x="1161.12" y="-5.75" font-family="Helvetica,sans-Serif" font-size="10.00">_field.h</text>
</a>
</g>
</g>
<!-- Node2&#45;&gt;Node16 -->
<g id="edge15_Node000002_Node000016" class="edge">
<title>Node2&#45;&gt;Node16</title>
<g id="a_edge15_Node000002_Node000016"><a xlink:title=" ">
<path fill="none" stroke="#63b8ff" d="M1048.25,-66.11C1068.72,-57.07 1095.21,-45.37 1117.38,-35.58"/>
<polygon fill="#63b8ff" stroke="#63b8ff" points="1118.76,-38.79 1126.49,-31.55 1115.93,-32.39 1118.76,-38.79"/>
</a>
</g>
</g>
<!-- Node2&#45;&gt;Node17 -->
<g id="edge16_Node000002_Node000017" class="edge">
<title>Node2&#45;&gt;Node17</title>
<g id="a_edge16_Node000002_Node000017"><a xlink:title=" ">
<path fill="none" stroke="#63b8ff" d="M1070.01,-72.55C1086.71,-70.3 1105.14,-68.05 1122.12,-66.5 1441.55,-37.39 1527.19,-68.95 1849.44,-30.56"/>
<polygon fill="#63b8ff" stroke="#63b8ff" points="1849.5,-34.08 1859.01,-29.41 1848.66,-27.13 1849.5,-34.08"/>
</a>
</g>
</g>
<!-- Node18 -->
<g id="Node000018" class="node">
<title>Node18</title>
<g id="a_Node000018"><a xlink:title=" ">
<polygon fill="#e0e0e0" stroke="#999999" points="1365.5,-30.5 1240.75,-30.5 1240.75,0 1365.5,0 1365.5,-30.5"/>
<text text-anchor="start" x="1248.75" y="-17" font-family="Helvetica,sans-Serif" font-size="10.00">google/protobuf/unknown</text>
<text text-anchor="middle" x="1303.12" y="-5.75" font-family="Helvetica,sans-Serif" font-size="10.00">_field_set.h</text>
</a>
</g>
</g>
<!-- Node2&#45;&gt;Node18 -->
<g id="edge17_Node000002_Node000018" class="edge">
<title>Node2&#45;&gt;Node18</title>
<g id="a_edge17_Node000002_Node000018"><a xlink:title=" ">
<path fill="none" stroke="#63b8ff" d="M1069.97,-68.47C1115.19,-58.34 1179.74,-43.88 1229.46,-32.75"/>
<polygon fill="#63b8ff" stroke="#63b8ff" points="1230,-36.21 1238.99,-30.61 1228.47,-29.38 1230,-36.21"/>
</a>
</g>
</g>
</g>
</svg>
