<?xml version="1.0" encoding="UTF-8" standalone="no"?>
<!DOCTYPE svg PUBLIC "-//W3C//DTD SVG 1.1//EN"
 "http://www.w3.org/Graphics/SVG/1.1/DTD/svg11.dtd">
<!-- Generated by graphviz version 9.0.0 (20230911.1827)
 -->
<!-- Title: /github/workspace/dev_area/sourcecode/listrev/src/ListStorage.hpp Pages: 1 -->
<svg width="1450pt" height="459pt"
 viewBox="0.00 0.00 1450.41 459.00" xmlns="http://www.w3.org/2000/svg" xmlns:xlink="http://www.w3.org/1999/xlink">
<g id="graph0" class="graph" transform="scale(1 1) rotate(0) translate(4 455)">
<title>/github/workspace/dev_area/sourcecode/listrev/src/ListStorage.hpp</title>
<!-- Node1 -->
<g id="Node000001" class="node">
<title>Node1</title>
<g id="a_Node000001"><a xlink:title=" ">
<polygon fill="#999999" stroke="#666666" points="134.25,-451 11.75,-451 11.75,-409.25 134.25,-409.25 134.25,-451"/>
<text text-anchor="start" x="19.75" y="-437.5" font-family="Helvetica,sans-Serif" font-size="10.00">/github/workspace/dev</text>
<text text-anchor="start" x="19.75" y="-426.25" font-family="Helvetica,sans-Serif" font-size="10.00">_area/sourcecode/listrev</text>
<text text-anchor="middle" x="73" y="-415" font-family="Helvetica,sans-Serif" font-size="10.00">/src/ListStorage.hpp</text>
</a>
</g>
</g>
<!-- Node2 -->
<g id="Node000002" class="node">
<title>Node2</title>
<g id="a_Node000002"><a xlink:href="ListWrapper_8hpp.html" target="_top" xlink:title=" ">
<polygon fill="white" stroke="#666666" points="236.25,-373.25 149.75,-373.25 149.75,-354 236.25,-354 236.25,-373.25"/>
<text text-anchor="middle" x="193" y="-359.75" font-family="Helvetica,sans-Serif" font-size="10.00">ListWrapper.hpp</text>
</a>
</g>
</g>
<!-- Node1&#45;&gt;Node2 -->
<g id="edge1_Node000001_Node000002" class="edge">
<title>Node1&#45;&gt;Node2</title>
<g id="a_edge1_Node000001_Node000002"><a xlink:title=" ">
<path fill="none" stroke="#63b8ff" d="M110.64,-408.89C128.68,-399.2 149.87,-387.81 166.24,-379.01"/>
<polygon fill="#63b8ff" stroke="#63b8ff" points="167.74,-382.18 174.89,-374.36 164.42,-376.01 167.74,-382.18"/>
</a>
</g>
</g>
<!-- Node8 -->
<g id="Node000008" class="node">
<title>Node8</title>
<g id="a_Node000008"><a xlink:title=" ">
<polygon fill="#e0e0e0" stroke="#999999" points="188.38,-135.38 153.62,-135.38 153.62,-116.12 188.38,-116.12 188.38,-135.38"/>
<text text-anchor="middle" x="171" y="-121.88" font-family="Helvetica,sans-Serif" font-size="10.00">map</text>
</a>
</g>
</g>
<!-- Node1&#45;&gt;Node8 -->
<g id="edge46_Node000001_Node000008" class="edge">
<title>Node1&#45;&gt;Node8</title>
<g id="a_edge46_Node000001_Node000008"><a xlink:title=" ">
<path fill="none" stroke="#63b8ff" d="M63.25,-408.88C52.89,-385.49 38,-345.55 38,-309.38 38,-309.38 38,-309.38 38,-252.12 38,-194.96 103.86,-156.17 142.89,-138.19"/>
<polygon fill="#63b8ff" stroke="#63b8ff" points="144.22,-141.43 151.95,-134.19 141.39,-135.03 144.22,-141.43"/>
</a>
</g>
</g>
<!-- Node16 -->
<g id="Node000016" class="node">
<title>Node16</title>
<g id="a_Node000016"><a xlink:title=" ">
<polygon fill="#e0e0e0" stroke="#999999" points="192.5,-74.5 149.5,-74.5 149.5,-55.25 192.5,-55.25 192.5,-74.5"/>
<text text-anchor="middle" x="171" y="-61" font-family="Helvetica,sans-Serif" font-size="10.00">vector</text>
</a>
</g>
</g>
<!-- Node1&#45;&gt;Node16 -->
<g id="edge48_Node000001_Node000016" class="edge">
<title>Node1&#45;&gt;Node16</title>
<g id="a_edge48_Node000001_Node000016"><a xlink:title=" ">
<path fill="none" stroke="#63b8ff" d="M51.1,-408.91C29.59,-386.76 0,-349.06 0,-309.38 0,-309.38 0,-309.38 0,-191.25 0,-123.29 88.93,-88.14 138.53,-73.83"/>
<polygon fill="#63b8ff" stroke="#63b8ff" points="139.17,-77.28 147.88,-71.26 137.31,-70.53 139.17,-77.28"/>
</a>
</g>
</g>
<!-- Node34 -->
<g id="Node000034" class="node">
<title>Node34</title>
<g id="a_Node000034"><a xlink:title=" ">
<polygon fill="#e0e0e0" stroke="#999999" points="296.12,-373.25 253.88,-373.25 253.88,-354 296.12,-354 296.12,-373.25"/>
<text text-anchor="middle" x="275" y="-359.75" font-family="Helvetica,sans-Serif" font-size="10.00">mutex</text>
</a>
</g>
</g>
<!-- Node1&#45;&gt;Node34 -->
<g id="edge47_Node000001_Node000034" class="edge">
<title>Node1&#45;&gt;Node34</title>
<g id="a_edge47_Node000001_Node000034"><a xlink:title=" ">
<path fill="none" stroke="#63b8ff" d="M134.7,-409.42C170.35,-398.04 213.73,-384.19 242.73,-374.93"/>
<polygon fill="#63b8ff" stroke="#63b8ff" points="243.56,-378.34 252.02,-371.96 241.43,-371.67 243.56,-378.34"/>
</a>
</g>
</g>
<!-- Node3 -->
<g id="Node000003" class="node">
<title>Node3</title>
<g id="a_Node000003"><a xlink:href="Serialization_8hpp.html" target="_top" xlink:title=" ">
<polygon fill="white" stroke="#666666" points="398.25,-318 257.75,-318 257.75,-298.75 398.25,-298.75 398.25,-318"/>
<text text-anchor="middle" x="328" y="-304.5" font-family="Helvetica,sans-Serif" font-size="10.00">serialization/Serialization.hpp</text>
</a>
</g>
</g>
<!-- Node2&#45;&gt;Node3 -->
<g id="edge2_Node000002_Node000003" class="edge">
<title>Node2&#45;&gt;Node3</title>
<g id="a_edge2_Node000002_Node000003"><a xlink:title=" ">
<path fill="none" stroke="#63b8ff" d="M215.9,-353.59C237.43,-345.1 269.91,-332.29 294.38,-322.64"/>
<polygon fill="#63b8ff" stroke="#63b8ff" points="295.56,-325.93 303.58,-319.01 292.99,-319.42 295.56,-325.93"/>
</a>
</g>
</g>
<!-- Node2&#45;&gt;Node16 -->
<g id="edge45_Node000002_Node000016" class="edge">
<title>Node2&#45;&gt;Node16</title>
<g id="a_edge45_Node000002_Node000016"><a xlink:title=" ">
<path fill="none" stroke="#63b8ff" d="M236.62,-355.03C289.75,-345.52 376.22,-329.13 407,-318 460.47,-298.67 548.81,-285.96 511,-243.5 464.88,-191.71 262.08,-240.34 201,-207.5 166.97,-189.2 158.25,-177.3 145,-141 140.35,-128.27 141.47,-123.59 145,-110.5 147.51,-101.22 152.48,-91.88 157.41,-84.16"/>
<polygon fill="#63b8ff" stroke="#63b8ff" points="160.21,-86.27 163.01,-76.05 154.45,-82.29 160.21,-86.27"/>
</a>
</g>
</g>
<!-- Node4 -->
<g id="Node000004" class="node">
<title>Node4</title>
<g id="a_Node000004"><a xlink:href="Issue_8hpp.html" target="_top" xlink:title=" ">
<polygon fill="white" stroke="#666666" points="632.25,-262.75 557.75,-262.75 557.75,-243.5 632.25,-243.5 632.25,-262.75"/>
<text text-anchor="middle" x="595" y="-249.25" font-family="Helvetica,sans-Serif" font-size="10.00">ers/Issue.hpp</text>
</a>
</g>
</g>
<!-- Node3&#45;&gt;Node4 -->
<g id="edge3_Node000003_Node000004" class="edge">
<title>Node3&#45;&gt;Node4</title>
<g id="a_edge3_Node000003_Node000004"><a xlink:title=" ">
<path fill="none" stroke="#63b8ff" d="M373.6,-298.28C421.68,-288.69 497.16,-273.64 546.36,-263.83"/>
<polygon fill="#63b8ff" stroke="#63b8ff" points="546.75,-267.32 555.87,-261.93 545.38,-260.45 546.75,-267.32"/>
</a>
</g>
</g>
<!-- Node9 -->
<g id="Node000009" class="node">
<title>Node9</title>
<g id="a_Node000009"><a xlink:title=" ">
<polygon fill="#e0e0e0" stroke="#999999" points="480,-74.5 440,-74.5 440,-55.25 480,-55.25 480,-74.5"/>
<text text-anchor="middle" x="460" y="-61" font-family="Helvetica,sans-Serif" font-size="10.00">string</text>
</a>
</g>
</g>
<!-- Node3&#45;&gt;Node9 -->
<g id="edge43_Node000003_Node000009" class="edge">
<title>Node3&#45;&gt;Node9</title>
<g id="a_edge43_Node000003_Node000009"><a xlink:title=" ">
<path fill="none" stroke="#63b8ff" d="M398.47,-302.19C631.64,-284.31 1367.08,-221.87 1433,-141 1441.56,-130.49 1442.37,-120.29 1433,-110.5 1401.67,-77.75 663.27,-76.74 618,-74.5 574.21,-72.34 523.6,-69.52 491.71,-67.7"/>
<polygon fill="#63b8ff" stroke="#63b8ff" points="492.14,-64.22 481.96,-67.15 491.74,-71.21 492.14,-64.22"/>
</a>
</g>
</g>
<!-- Node3&#45;&gt;Node16 -->
<g id="edge44_Node000003_Node000016" class="edge">
<title>Node3&#45;&gt;Node16</title>
<g id="a_edge44_Node000003_Node000016"><a xlink:title=" ">
<path fill="none" stroke="#63b8ff" d="M257.31,-303.51C196.46,-298.52 115.34,-287.35 95,-262.75 73.04,-236.18 -17.22,-333.49 112,-110.5 119.12,-98.21 131.1,-88.21 142.41,-80.81"/>
<polygon fill="#63b8ff" stroke="#63b8ff" points="144,-83.95 150.75,-75.78 140.38,-77.96 144,-83.95"/>
</a>
</g>
</g>
<!-- Node30 -->
<g id="Node000030" class="node">
<title>Node30</title>
<g id="a_Node000030"><a xlink:title=" ">
<polygon fill="#e0e0e0" stroke="#999999" points="221.62,-262.75 104.38,-262.75 104.38,-243.5 221.62,-243.5 221.62,-262.75"/>
<text text-anchor="middle" x="163" y="-249.25" font-family="Helvetica,sans-Serif" font-size="10.00">boost/preprocessor.hpp</text>
</a>
</g>
</g>
<!-- Node3&#45;&gt;Node30 -->
<g id="edge39_Node000003_Node000030" class="edge">
<title>Node3&#45;&gt;Node30</title>
<g id="a_edge39_Node000003_Node000030"><a xlink:title=" ">
<path fill="none" stroke="#63b8ff" d="M300.01,-298.34C272.99,-289.62 231.84,-276.34 201.69,-266.61"/>
<polygon fill="#63b8ff" stroke="#63b8ff" points="203.16,-263.41 192.57,-263.67 201.01,-270.07 203.16,-263.41"/>
</a>
</g>
</g>
<!-- Node31 -->
<g id="Node000031" class="node">
<title>Node31</title>
<g id="a_Node000031"><a xlink:title=" ">
<polygon fill="#e0e0e0" stroke="#999999" points="313.88,-262.75 240.12,-262.75 240.12,-243.5 313.88,-243.5 313.88,-262.75"/>
<text text-anchor="middle" x="277" y="-249.25" font-family="Helvetica,sans-Serif" font-size="10.00">msgpack.hpp</text>
</a>
</g>
</g>
<!-- Node3&#45;&gt;Node31 -->
<g id="edge40_Node000003_Node000031" class="edge">
<title>Node3&#45;&gt;Node31</title>
<g id="a_edge40_Node000003_Node000031"><a xlink:title=" ">
<path fill="none" stroke="#63b8ff" d="M319.58,-298.58C312.46,-291.15 302.06,-280.29 293.31,-271.16"/>
<polygon fill="#63b8ff" stroke="#63b8ff" points="296.1,-269 286.65,-264.2 291.04,-273.85 296.1,-269"/>
</a>
</g>
</g>
<!-- Node32 -->
<g id="Node000032" class="node">
<title>Node32</title>
<g id="a_Node000032"><a xlink:title=" ">
<polygon fill="#e0e0e0" stroke="#999999" points="428.5,-262.75 331.5,-262.75 331.5,-243.5 428.5,-243.5 428.5,-262.75"/>
<text text-anchor="middle" x="380" y="-249.25" font-family="Helvetica,sans-Serif" font-size="10.00">nlohmann/json.hpp</text>
</a>
</g>
</g>
<!-- Node3&#45;&gt;Node32 -->
<g id="edge41_Node000003_Node000032" class="edge">
<title>Node3&#45;&gt;Node32</title>
<g id="a_edge41_Node000003_Node000032"><a xlink:title=" ">
<path fill="none" stroke="#63b8ff" d="M336.59,-298.58C343.84,-291.15 354.45,-280.29 363.37,-271.16"/>
<polygon fill="#63b8ff" stroke="#63b8ff" points="365.69,-273.79 370.17,-264.19 360.68,-268.9 365.69,-273.79"/>
</a>
</g>
</g>
<!-- Node33 -->
<g id="Node000033" class="node">
<title>Node33</title>
<g id="a_Node000033"><a xlink:title=" ">
<polygon fill="#e0e0e0" stroke="#999999" points="501.88,-262.75 446.12,-262.75 446.12,-243.5 501.88,-243.5 501.88,-262.75"/>
<text text-anchor="middle" x="474" y="-249.25" font-family="Helvetica,sans-Serif" font-size="10.00">algorithm</text>
</a>
</g>
</g>
<!-- Node3&#45;&gt;Node33 -->
<g id="edge42_Node000003_Node000033" class="edge">
<title>Node3&#45;&gt;Node33</title>
<g id="a_edge42_Node000003_Node000033"><a xlink:title=" ">
<path fill="none" stroke="#63b8ff" d="M352.77,-298.34C376.26,-289.77 411.81,-276.81 438.35,-267.13"/>
<polygon fill="#63b8ff" stroke="#63b8ff" points="439.49,-270.44 447.69,-263.72 437.1,-263.86 439.49,-270.44"/>
</a>
</g>
</g>
<!-- Node5 -->
<g id="Node000005" class="node">
<title>Node5</title>
<g id="a_Node000005"><a xlink:title=" ">
<polygon fill="#e0e0e0" stroke="#999999" points="427.62,-201.88 382.38,-201.88 382.38,-182.62 427.62,-182.62 427.62,-201.88"/>
<text text-anchor="middle" x="405" y="-188.38" font-family="Helvetica,sans-Serif" font-size="10.00">math.h</text>
</a>
</g>
</g>
<!-- Node4&#45;&gt;Node5 -->
<g id="edge4_Node000004_Node000005" class="edge">
<title>Node4&#45;&gt;Node5</title>
<g id="a_edge4_Node000004_Node000005"><a xlink:title=" ">
<path fill="none" stroke="#63b8ff" d="M560.71,-243.01C529.54,-234.51 482.37,-221.13 442,-207.5 440.68,-207.05 439.34,-206.59 437.98,-206.11"/>
<polygon fill="#63b8ff" stroke="#63b8ff" points="439.6,-202.98 429.01,-202.82 437.19,-209.55 439.6,-202.98"/>
</a>
</g>
</g>
<!-- Node6 -->
<g id="Node000006" class="node">
<title>Node6</title>
<g id="a_Node000006"><a xlink:title=" ">
<polygon fill="#e0e0e0" stroke="#999999" points="751.25,-201.88 706.75,-201.88 706.75,-182.62 751.25,-182.62 751.25,-201.88"/>
<text text-anchor="middle" x="729" y="-188.38" font-family="Helvetica,sans-Serif" font-size="10.00">stdio.h</text>
</a>
</g>
</g>
<!-- Node4&#45;&gt;Node6 -->
<g id="edge5_Node000004_Node000006" class="edge">
<title>Node4&#45;&gt;Node6</title>
<g id="a_edge5_Node000004_Node000006"><a xlink:title=" ">
<path fill="none" stroke="#63b8ff" d="M615.64,-243.05C637.64,-233.39 672.72,-217.98 698.03,-206.86"/>
<polygon fill="#63b8ff" stroke="#63b8ff" points="699.42,-210.07 707.17,-202.84 696.6,-203.66 699.42,-210.07"/>
</a>
</g>
</g>
<!-- Node7 -->
<g id="Node000007" class="node">
<title>Node7</title>
<g id="a_Node000007"><a xlink:title=" ">
<polygon fill="#e0e0e0" stroke="#999999" points="816.75,-201.88 769.25,-201.88 769.25,-182.62 816.75,-182.62 816.75,-201.88"/>
<text text-anchor="middle" x="793" y="-188.38" font-family="Helvetica,sans-Serif" font-size="10.00">string.h</text>
</a>
</g>
</g>
<!-- Node4&#45;&gt;Node7 -->
<g id="edge6_Node000004_Node000007" class="edge">
<title>Node4&#45;&gt;Node7</title>
<g id="a_edge6_Node000004_Node000007"><a xlink:title=" ">
<path fill="none" stroke="#63b8ff" d="M632.49,-243.61C666.24,-235.57 716.99,-222.51 760,-207.5 760.95,-207.17 761.92,-206.82 762.89,-206.46"/>
<polygon fill="#63b8ff" stroke="#63b8ff" points="763.89,-209.83 771.88,-202.87 761.3,-203.33 763.89,-209.83"/>
</a>
</g>
</g>
<!-- Node4&#45;&gt;Node8 -->
<g id="edge7_Node000004_Node000008" class="edge">
<title>Node4&#45;&gt;Node8</title>
<g id="a_edge7_Node000004_Node000008"><a xlink:title=" ">
<path fill="none" stroke="#63b8ff" d="M557.43,-245.55C552.91,-244.83 548.36,-244.12 544,-243.5 408.89,-224.11 359.16,-272.24 239,-207.5 212.83,-193.4 192.53,-164.76 181.16,-145.66"/>
<polygon fill="#63b8ff" stroke="#63b8ff" points="184.24,-143.99 176.27,-137.01 178.15,-147.44 184.24,-143.99"/>
</a>
</g>
</g>
<!-- Node4&#45;&gt;Node9 -->
<g id="edge8_Node000004_Node000009" class="edge">
<title>Node4&#45;&gt;Node9</title>
<g id="a_edge8_Node000004_Node000009"><a xlink:title=" ">
<path fill="none" stroke="#63b8ff" d="M558.33,-243.04C527.06,-234.51 485.53,-221.06 475,-207.5 447.4,-171.95 451.46,-115.37 456.12,-85.62"/>
<polygon fill="#63b8ff" stroke="#63b8ff" points="459.5,-86.61 457.79,-76.15 452.61,-85.39 459.5,-86.61"/>
</a>
</g>
</g>
<!-- Node10 -->
<g id="Node000010" class="node">
<title>Node10</title>
<g id="a_Node000010"><a xlink:title=" ">
<polygon fill="#e0e0e0" stroke="#999999" points="706.75,-19.25 653.25,-19.25 653.25,0 706.75,0 706.75,-19.25"/>
<text text-anchor="middle" x="680" y="-5.75" font-family="Helvetica,sans-Serif" font-size="10.00">iostream</text>
</a>
</g>
</g>
<!-- Node4&#45;&gt;Node10 -->
<g id="edge9_Node000004_Node000010" class="edge">
<title>Node4&#45;&gt;Node10</title>
<g id="a_edge9_Node000004_Node000010"><a xlink:title=" ">
<path fill="none" stroke="#63b8ff" d="M632.7,-250.11C789.14,-241.34 1381.54,-204.14 1433,-141 1526.58,-26.19 884.12,-12.47 718.35,-10.84"/>
<polygon fill="#63b8ff" stroke="#63b8ff" points="718.58,-7.35 708.55,-10.76 718.52,-14.35 718.58,-7.35"/>
</a>
</g>
</g>
<!-- Node11 -->
<g id="Node000011" class="node">
<title>Node11</title>
<g id="a_Node000011"><a xlink:title=" ">
<polygon fill="#e0e0e0" stroke="#999999" points="535.62,-201.88 484.38,-201.88 484.38,-182.62 535.62,-182.62 535.62,-201.88"/>
<text text-anchor="middle" x="510" y="-188.38" font-family="Helvetica,sans-Serif" font-size="10.00">sstream</text>
</a>
</g>
</g>
<!-- Node4&#45;&gt;Node11 -->
<g id="edge10_Node000004_Node000011" class="edge">
<title>Node4&#45;&gt;Node11</title>
<g id="a_edge10_Node000004_Node000011"><a xlink:title=" ">
<path fill="none" stroke="#63b8ff" d="M582.09,-243.18C568.86,-234.02 548.03,-219.59 532.16,-208.6"/>
<polygon fill="#63b8ff" stroke="#63b8ff" points="534.49,-205.95 524.28,-203.14 530.5,-211.71 534.49,-205.95"/>
</a>
</g>
</g>
<!-- Node12 -->
<g id="Node000012" class="node">
<title>Node12</title>
<g id="a_Node000012"><a xlink:title=" ">
<polygon fill="#e0e0e0" stroke="#999999" points="604.25,-201.88 553.75,-201.88 553.75,-182.62 604.25,-182.62 604.25,-201.88"/>
<text text-anchor="middle" x="579" y="-188.38" font-family="Helvetica,sans-Serif" font-size="10.00">memory</text>
</a>
</g>
</g>
<!-- Node4&#45;&gt;Node12 -->
<g id="edge11_Node000004_Node000012" class="edge">
<title>Node4&#45;&gt;Node12</title>
<g id="a_edge11_Node000004_Node000012"><a xlink:title=" ">
<path fill="none" stroke="#63b8ff" d="M592.57,-243.18C590.41,-235.23 587.17,-223.31 584.4,-213.12"/>
<polygon fill="#63b8ff" stroke="#63b8ff" points="587.85,-212.47 581.85,-203.74 581.09,-214.3 587.85,-212.47"/>
</a>
</g>
</g>
<!-- Node13 -->
<g id="Node000013" class="node">
<title>Node13</title>
<g id="a_Node000013"><a xlink:title=" ">
<polygon fill="#e0e0e0" stroke="#999999" points="431.62,-135.38 386.38,-135.38 386.38,-116.12 431.62,-116.12 431.62,-135.38"/>
<text text-anchor="middle" x="409" y="-121.88" font-family="Helvetica,sans-Serif" font-size="10.00">chrono</text>
</a>
</g>
</g>
<!-- Node4&#45;&gt;Node13 -->
<g id="edge12_Node000004_Node000013" class="edge">
<title>Node4&#45;&gt;Node13</title>
<g id="a_edge12_Node000004_Node000013"><a xlink:title=" ">
<path fill="none" stroke="#63b8ff" d="M618.09,-243.08C633,-235.88 651.2,-224.21 660,-207.5 666.31,-195.51 668.6,-187.48 660,-177 607.97,-113.6 559.41,-157.18 479,-141 467.36,-138.66 454.63,-136.07 443.27,-133.76"/>
<polygon fill="#63b8ff" stroke="#63b8ff" points="443.99,-130.33 433.49,-131.76 442.59,-137.19 443.99,-130.33"/>
</a>
</g>
</g>
<!-- Node14 -->
<g id="Node000014" class="node">
<title>Node14</title>
<g id="a_Node000014"><a xlink:title=" ">
<polygon fill="#e0e0e0" stroke="#999999" points="651.4,-201.88 622.6,-201.88 622.6,-182.62 651.4,-182.62 651.4,-201.88"/>
<text text-anchor="middle" x="637" y="-188.38" font-family="Helvetica,sans-Serif" font-size="10.00">list</text>
</a>
</g>
</g>
<!-- Node4&#45;&gt;Node14 -->
<g id="edge13_Node000004_Node000014" class="edge">
<title>Node4&#45;&gt;Node14</title>
<g id="a_edge13_Node000004_Node000014"><a xlink:title=" ">
<path fill="none" stroke="#63b8ff" d="M601.38,-243.18C607.36,-234.8 616.49,-222.01 624,-211.47"/>
<polygon fill="#63b8ff" stroke="#63b8ff" points="626.72,-213.68 629.68,-203.51 621.03,-209.62 626.72,-213.68"/>
</a>
</g>
</g>
<!-- Node15 -->
<g id="Node000015" class="node">
<title>Node15</title>
<g id="a_Node000015"><a xlink:href="IssueFactory_8hpp.html" target="_top" xlink:title=" ">
<polygon fill="white" stroke="#666666" points="364.38,-201.88 257.62,-201.88 257.62,-182.62 364.38,-182.62 364.38,-201.88"/>
<text text-anchor="middle" x="311" y="-188.38" font-family="Helvetica,sans-Serif" font-size="10.00">ers/IssueFactory.hpp</text>
</a>
</g>
</g>
<!-- Node4&#45;&gt;Node15 -->
<g id="edge14_Node000004_Node000015" class="edge">
<title>Node4&#45;&gt;Node15</title>
<g id="a_edge14_Node000004_Node000015"><a xlink:title=" ">
<path fill="none" stroke="#63b8ff" d="M557.62,-244.94C513.44,-236.37 437.76,-221.45 373,-207.5 368.98,-206.64 364.83,-205.72 360.66,-204.79"/>
<polygon fill="#63b8ff" stroke="#63b8ff" points="361.66,-201.43 351.14,-202.64 360.12,-208.26 361.66,-201.43"/>
</a>
</g>
</g>
<!-- Node17 -->
<g id="Node000017" class="node">
<title>Node17</title>
<g id="a_Node000017"><a xlink:href="Severity_8hpp.html" target="_top" xlink:title=" ">
<polygon fill="white" stroke="#666666" points="329.88,-135.38 244.12,-135.38 244.12,-116.12 329.88,-116.12 329.88,-135.38"/>
<text text-anchor="middle" x="287" y="-121.88" font-family="Helvetica,sans-Serif" font-size="10.00">ers/Severity.hpp</text>
</a>
</g>
</g>
<!-- Node4&#45;&gt;Node17 -->
<g id="edge31_Node000004_Node000017" class="edge">
<title>Node4&#45;&gt;Node17</title>
<g id="a_edge31_Node000004_Node000017"><a xlink:title=" ">
<path fill="none" stroke="#63b8ff" d="M557.43,-245.57C552.91,-244.84 548.35,-244.13 544,-243.5 478.65,-233.99 292.78,-256.95 249,-207.5 232.23,-188.56 252.31,-160.93 269.06,-143.4"/>
<polygon fill="#63b8ff" stroke="#63b8ff" points="271.12,-146.28 275.76,-136.75 266.19,-141.31 271.12,-146.28"/>
</a>
</g>
</g>
<!-- Node18 -->
<g id="Node000018" class="node">
<title>Node18</title>
<g id="a_Node000018"><a xlink:href="LocalContext_8hpp.html" target="_top" xlink:title=" ">
<polygon fill="white" stroke="#666666" points="942.75,-201.88 835.25,-201.88 835.25,-182.62 942.75,-182.62 942.75,-201.88"/>
<text text-anchor="middle" x="889" y="-188.38" font-family="Helvetica,sans-Serif" font-size="10.00">ers/LocalContext.hpp</text>
</a>
</g>
</g>
<!-- Node4&#45;&gt;Node18 -->
<g id="edge23_Node000004_Node000018" class="edge">
<title>Node4&#45;&gt;Node18</title>
<g id="a_edge23_Node000004_Node000018"><a xlink:title=" ">
<path fill="none" stroke="#63b8ff" d="M632.68,-245.22C678.47,-236.75 758.04,-221.75 826,-207.5 830.08,-206.64 834.31,-205.74 838.55,-204.81"/>
<polygon fill="#63b8ff" stroke="#63b8ff" points="839.24,-208.24 848.24,-202.66 837.72,-201.41 839.24,-208.24"/>
</a>
</g>
</g>
<!-- Node23 -->
<g id="Node000023" class="node">
<title>Node23</title>
<g id="a_Node000023"><a xlink:href="IssueDeclarationMacro_8hpp.html" target="_top" xlink:title=" ">
<polygon fill="white" stroke="#666666" points="1100.88,-207.5 961.12,-207.5 961.12,-177 1100.88,-177 1100.88,-207.5"/>
<text text-anchor="start" x="969.12" y="-194" font-family="Helvetica,sans-Serif" font-size="10.00">ers/internal/IssueDeclaration</text>
<text text-anchor="middle" x="1031" y="-182.75" font-family="Helvetica,sans-Serif" font-size="10.00">Macro.hpp</text>
</a>
</g>
</g>
<!-- Node4&#45;&gt;Node23 -->
<g id="edge32_Node000004_Node000023" class="edge">
<title>Node4&#45;&gt;Node23</title>
<g id="a_edge32_Node000004_Node000023"><a xlink:title=" ">
<path fill="none" stroke="#63b8ff" d="M632.61,-248.1C695.82,-241.19 827.62,-226.16 949.44,-207.84"/>
<polygon fill="#63b8ff" stroke="#63b8ff" points="949.96,-211.3 959.33,-206.34 948.91,-204.38 949.96,-211.3"/>
</a>
</g>
</g>
<!-- Node15&#45;&gt;Node8 -->
<g id="edge18_Node000015_Node000008" class="edge">
<title>Node15&#45;&gt;Node8</title>
<g id="a_edge18_Node000015_Node000008"><a xlink:title=" ">
<path fill="none" stroke="#63b8ff" d="M291.24,-182.15C267.12,-171.04 226.2,-152.18 198.89,-139.6"/>
<polygon fill="#63b8ff" stroke="#63b8ff" points="200.38,-136.43 189.83,-135.42 197.45,-142.79 200.38,-136.43"/>
</a>
</g>
</g>
<!-- Node15&#45;&gt;Node9 -->
<g id="edge16_Node000015_Node000009" class="edge">
<title>Node15&#45;&gt;Node9</title>
<g id="a_edge16_Node000015_Node000009"><a xlink:title=" ">
<path fill="none" stroke="#63b8ff" d="M316.61,-182.28C326.96,-166.26 350.46,-132.38 377,-110.5 392.74,-97.52 412.84,-86.6 429.31,-78.81"/>
<polygon fill="#63b8ff" stroke="#63b8ff" points="430.51,-82.11 438.16,-74.78 427.61,-75.74 430.51,-82.11"/>
</a>
</g>
</g>
<!-- Node15&#45;&gt;Node13 -->
<g id="edge15_Node000015_Node000013" class="edge">
<title>Node15&#45;&gt;Node13</title>
<g id="a_edge15_Node000015_Node000013"><a xlink:title=" ">
<path fill="none" stroke="#63b8ff" d="M324.63,-182.28C340.41,-171.89 366.67,-154.61 385.71,-142.08"/>
<polygon fill="#63b8ff" stroke="#63b8ff" points="387.48,-145.1 393.91,-136.68 383.63,-139.26 387.48,-145.1"/>
</a>
</g>
</g>
<!-- Node15&#45;&gt;Node16 -->
<g id="edge17_Node000015_Node000016" class="edge">
<title>Node15&#45;&gt;Node16</title>
<g id="a_edge17_Node000015_Node000016"><a xlink:title=" ">
<path fill="none" stroke="#63b8ff" d="M294.65,-182.25C278.59,-173.02 253.83,-157.67 235,-141 215.24,-123.51 196.09,-99.87 183.97,-83.81"/>
<polygon fill="#63b8ff" stroke="#63b8ff" points="187.05,-82.09 178.29,-76.13 181.42,-86.25 187.05,-82.09"/>
</a>
</g>
</g>
<!-- Node15&#45;&gt;Node17 -->
<g id="edge19_Node000015_Node000017" class="edge">
<title>Node15&#45;&gt;Node17</title>
<g id="a_edge19_Node000015_Node000017"><a xlink:title=" ">
<path fill="none" stroke="#63b8ff" d="M307.66,-182.28C304.22,-173.04 298.75,-158.33 294.3,-146.38"/>
<polygon fill="#63b8ff" stroke="#63b8ff" points="297.6,-145.21 290.84,-137.06 291.04,-147.65 297.6,-145.21"/>
</a>
</g>
</g>
<!-- Node17&#45;&gt;Node9 -->
<g id="edge20_Node000017_Node000009" class="edge">
<title>Node17&#45;&gt;Node9</title>
<g id="a_edge20_Node000017_Node000009"><a xlink:title=" ">
<path fill="none" stroke="#63b8ff" d="M313.65,-115.68C344.68,-105.12 395.87,-87.7 428.75,-76.51"/>
<polygon fill="#63b8ff" stroke="#63b8ff" points="429.78,-79.86 438.12,-73.32 427.52,-73.23 429.78,-79.86"/>
</a>
</g>
</g>
<!-- Node17&#45;&gt;Node10 -->
<g id="edge22_Node000017_Node000010" class="edge">
<title>Node17&#45;&gt;Node10</title>
<g id="a_edge22_Node000017_Node000010"><a xlink:title=" ">
<path fill="none" stroke="#63b8ff" d="M301.98,-115.81C327.54,-100.96 381.62,-71.26 431,-55.25 503.52,-31.74 592.18,-19.6 641.74,-14.21"/>
<polygon fill="#63b8ff" stroke="#63b8ff" points="641.8,-17.73 651.38,-13.2 641.07,-10.76 641.8,-17.73"/>
</a>
</g>
</g>
<!-- Node17&#45;&gt;Node16 -->
<g id="edge21_Node000017_Node000016" class="edge">
<title>Node17&#45;&gt;Node16</title>
<g id="a_edge21_Node000017_Node000016"><a xlink:title=" ">
<path fill="none" stroke="#63b8ff" d="M269.13,-115.68C250.34,-106.14 220.54,-91.02 198.7,-79.93"/>
<polygon fill="#63b8ff" stroke="#63b8ff" points="200.55,-76.95 190.05,-75.54 197.38,-83.19 200.55,-76.95"/>
</a>
</g>
</g>
<!-- Node19 -->
<g id="Node000019" class="node">
<title>Node19</title>
<g id="a_Node000019"><a xlink:title=" ">
<polygon fill="#e0e0e0" stroke="#999999" points="552.38,-135.38 487.62,-135.38 487.62,-116.12 552.38,-116.12 552.38,-135.38"/>
<text text-anchor="middle" x="520" y="-121.88" font-family="Helvetica,sans-Serif" font-size="10.00">sys/types.h</text>
</a>
</g>
</g>
<!-- Node18&#45;&gt;Node19 -->
<g id="edge24_Node000018_Node000019" class="edge">
<title>Node18&#45;&gt;Node19</title>
<g id="a_edge24_Node000018_Node000019"><a xlink:title=" ">
<path fill="none" stroke="#63b8ff" d="M851.47,-182.19C843.11,-180.34 834.28,-178.5 826,-177 709.03,-155.87 676.6,-168.65 561,-141 558.86,-140.49 556.67,-139.91 554.47,-139.28"/>
<polygon fill="#63b8ff" stroke="#63b8ff" points="555.64,-135.98 545.05,-136.31 553.54,-142.65 555.64,-135.98"/>
</a>
</g>
</g>
<!-- Node20 -->
<g id="Node000020" class="node">
<title>Node20</title>
<g id="a_Node000020"><a xlink:title=" ">
<polygon fill="#e0e0e0" stroke="#999999" points="619.88,-135.38 570.12,-135.38 570.12,-116.12 619.88,-116.12 619.88,-135.38"/>
<text text-anchor="middle" x="595" y="-121.88" font-family="Helvetica,sans-Serif" font-size="10.00">unistd.h</text>
</a>
</g>
</g>
<!-- Node18&#45;&gt;Node20 -->
<g id="edge25_Node000018_Node000020" class="edge">
<title>Node18&#45;&gt;Node20</title>
<g id="a_edge25_Node000018_Node000020"><a xlink:title=" ">
<path fill="none" stroke="#63b8ff" d="M850.07,-182.18C842.12,-180.4 833.8,-178.59 826,-177 738.8,-159.18 714.32,-166.35 629,-141 627.65,-140.6 626.29,-140.16 624.92,-139.7"/>
<polygon fill="#63b8ff" stroke="#63b8ff" points="626.52,-136.57 615.93,-136.31 624.05,-143.11 626.52,-136.57"/>
</a>
</g>
</g>
<!-- Node21 -->
<g id="Node000021" class="node">
<title>Node21</title>
<g id="a_Node000021"><a xlink:href="Context_8hpp.html" target="_top" xlink:title=" ">
<polygon fill="white" stroke="#666666" points="721.75,-135.38 638.25,-135.38 638.25,-116.12 721.75,-116.12 721.75,-135.38"/>
<text text-anchor="middle" x="680" y="-121.88" font-family="Helvetica,sans-Serif" font-size="10.00">ers/Context.hpp</text>
</a>
</g>
</g>
<!-- Node18&#45;&gt;Node21 -->
<g id="edge26_Node000018_Node000021" class="edge">
<title>Node18&#45;&gt;Node21</title>
<g id="a_edge26_Node000018_Node000021"><a xlink:title=" ">
<path fill="none" stroke="#63b8ff" d="M859.5,-182.15C823.09,-170.91 761.01,-151.75 720.24,-139.17"/>
<polygon fill="#63b8ff" stroke="#63b8ff" points="721.38,-135.86 710.8,-136.25 719.32,-142.55 721.38,-135.86"/>
</a>
</g>
</g>
<!-- Node21&#45;&gt;Node9 -->
<g id="edge27_Node000021_Node000009" class="edge">
<title>Node21&#45;&gt;Node9</title>
<g id="a_edge27_Node000021_Node000009"><a xlink:title=" ">
<path fill="none" stroke="#63b8ff" d="M647.64,-115.63C641.46,-113.91 635.03,-112.14 629,-110.5 581.06,-97.47 525.33,-82.86 491.37,-74.02"/>
<polygon fill="#63b8ff" stroke="#63b8ff" points="492.34,-70.65 481.78,-71.52 490.58,-77.43 492.34,-70.65"/>
</a>
</g>
</g>
<!-- Node21&#45;&gt;Node16 -->
<g id="edge28_Node000021_Node000016" class="edge">
<title>Node21&#45;&gt;Node16</title>
<g id="a_edge28_Node000021_Node000016"><a xlink:title=" ">
<path fill="none" stroke="#63b8ff" d="M650.81,-115.65C643.73,-113.7 636.14,-111.83 629,-110.5 471.34,-81.03 279.29,-70.34 203.75,-67.1"/>
<polygon fill="#63b8ff" stroke="#63b8ff" points="204.3,-63.61 194.16,-66.7 204.01,-70.61 204.3,-63.61"/>
</a>
</g>
</g>
<!-- Node22 -->
<g id="Node000022" class="node">
<title>Node22</title>
<g id="a_Node000022"><a xlink:href="ers_2include_2ers_2Configuration_8hpp.html" target="_top" xlink:title=" ">
<polygon fill="white" stroke="#666666" points="733.38,-74.5 626.62,-74.5 626.62,-55.25 733.38,-55.25 733.38,-74.5"/>
<text text-anchor="middle" x="680" y="-61" font-family="Helvetica,sans-Serif" font-size="10.00">ers/Configuration.hpp</text>
</a>
</g>
</g>
<!-- Node21&#45;&gt;Node22 -->
<g id="edge29_Node000021_Node000022" class="edge">
<title>Node21&#45;&gt;Node22</title>
<g id="a_edge29_Node000021_Node000022"><a xlink:title=" ">
<path fill="none" stroke="#63b8ff" d="M680,-115.81C680,-108.03 680,-96.45 680,-86.41"/>
<polygon fill="#63b8ff" stroke="#63b8ff" points="683.5,-86.41 680,-76.41 676.5,-86.41 683.5,-86.41"/>
</a>
</g>
</g>
<!-- Node22&#45;&gt;Node10 -->
<g id="edge30_Node000022_Node000010" class="edge">
<title>Node22&#45;&gt;Node10</title>
<g id="a_edge30_Node000022_Node000010"><a xlink:title=" ">
<path fill="none" stroke="#63b8ff" d="M680,-55.08C680,-48.57 680,-39.42 680,-31.12"/>
<polygon fill="#63b8ff" stroke="#63b8ff" points="683.5,-31.12 680,-21.12 676.5,-31.12 683.5,-31.12"/>
</a>
</g>
</g>
<!-- Node24 -->
<g id="Node000024" class="node">
<title>Node24</title>
<g id="a_Node000024"><a xlink:title=" ">
<polygon fill="#e0e0e0" stroke="#999999" points="838.62,-141 739.38,-141 739.38,-110.5 838.62,-110.5 838.62,-141"/>
<text text-anchor="start" x="747.38" y="-127.5" font-family="Helvetica,sans-Serif" font-size="10.00">boost/preprocessor</text>
<text text-anchor="middle" x="789" y="-116.25" font-family="Helvetica,sans-Serif" font-size="10.00">/if.hpp</text>
</a>
</g>
</g>
<!-- Node23&#45;&gt;Node24 -->
<g id="edge33_Node000023_Node000024" class="edge">
<title>Node23&#45;&gt;Node24</title>
<g id="a_edge33_Node000023_Node000024"><a xlink:title=" ">
<path fill="none" stroke="#63b8ff" d="M975.78,-176.53C938.33,-166.55 888.79,-153.35 850.14,-143.05"/>
<polygon fill="#63b8ff" stroke="#63b8ff" points="851.07,-139.67 840.5,-140.48 849.26,-146.43 851.07,-139.67"/>
</a>
</g>
</g>
<!-- Node25 -->
<g id="Node000025" class="node">
<title>Node25</title>
<g id="a_Node000025"><a xlink:title=" ">
<polygon fill="#e0e0e0" stroke="#999999" points="955.62,-141 856.38,-141 856.38,-110.5 955.62,-110.5 955.62,-141"/>
<text text-anchor="start" x="864.38" y="-127.5" font-family="Helvetica,sans-Serif" font-size="10.00">boost/preprocessor</text>
<text text-anchor="middle" x="906" y="-116.25" font-family="Helvetica,sans-Serif" font-size="10.00">/seq.hpp</text>
</a>
</g>
</g>
<!-- Node23&#45;&gt;Node25 -->
<g id="edge34_Node000023_Node000025" class="edge">
<title>Node23&#45;&gt;Node25</title>
<g id="a_edge34_Node000023_Node000025"><a xlink:title=" ">
<path fill="none" stroke="#63b8ff" d="M1002.64,-176.61C985.37,-167.71 963.1,-156.22 944.29,-146.51"/>
<polygon fill="#63b8ff" stroke="#63b8ff" points="946.09,-143.5 935.6,-142.02 942.88,-149.72 946.09,-143.5"/>
</a>
</g>
</g>
<!-- Node26 -->
<g id="Node000026" class="node">
<title>Node26</title>
<g id="a_Node000026"><a xlink:title=" ">
<polygon fill="#e0e0e0" stroke="#999999" points="1072.62,-141 973.38,-141 973.38,-110.5 1072.62,-110.5 1072.62,-141"/>
<text text-anchor="start" x="981.38" y="-127.5" font-family="Helvetica,sans-Serif" font-size="10.00">boost/preprocessor</text>
<text text-anchor="middle" x="1023" y="-116.25" font-family="Helvetica,sans-Serif" font-size="10.00">/tuple.hpp</text>
</a>
</g>
</g>
<!-- Node23&#45;&gt;Node26 -->
<g id="edge35_Node000023_Node000026" class="edge">
<title>Node23&#45;&gt;Node26</title>
<g id="a_edge35_Node000023_Node000026"><a xlink:title=" ">
<path fill="none" stroke="#63b8ff" d="M1029.18,-176.61C1028.31,-169.52 1027.22,-160.79 1026.21,-152.63"/>
<polygon fill="#63b8ff" stroke="#63b8ff" points="1029.7,-152.32 1024.99,-142.83 1022.75,-153.18 1029.7,-152.32"/>
</a>
</g>
</g>
<!-- Node27 -->
<g id="Node000027" class="node">
<title>Node27</title>
<g id="a_Node000027"><a xlink:title=" ">
<polygon fill="#e0e0e0" stroke="#999999" points="1189.62,-141 1090.38,-141 1090.38,-110.5 1189.62,-110.5 1189.62,-141"/>
<text text-anchor="start" x="1098.38" y="-127.5" font-family="Helvetica,sans-Serif" font-size="10.00">boost/preprocessor</text>
<text text-anchor="middle" x="1140" y="-116.25" font-family="Helvetica,sans-Serif" font-size="10.00">/logical.hpp</text>
</a>
</g>
</g>
<!-- Node23&#45;&gt;Node27 -->
<g id="edge36_Node000023_Node000027" class="edge">
<title>Node23&#45;&gt;Node27</title>
<g id="a_edge36_Node000023_Node000027"><a xlink:title=" ">
<path fill="none" stroke="#63b8ff" d="M1055.73,-176.61C1070.51,-167.87 1089.49,-156.64 1105.69,-147.05"/>
<polygon fill="#63b8ff" stroke="#63b8ff" points="1107.24,-150.2 1114.06,-142.1 1103.67,-144.18 1107.24,-150.2"/>
</a>
</g>
</g>
<!-- Node28 -->
<g id="Node000028" class="node">
<title>Node28</title>
<g id="a_Node000028"><a xlink:title=" ">
<polygon fill="#e0e0e0" stroke="#999999" points="1306.62,-141 1207.38,-141 1207.38,-110.5 1306.62,-110.5 1306.62,-141"/>
<text text-anchor="start" x="1215.38" y="-127.5" font-family="Helvetica,sans-Serif" font-size="10.00">boost/preprocessor</text>
<text text-anchor="middle" x="1257" y="-116.25" font-family="Helvetica,sans-Serif" font-size="10.00">/stringize.hpp</text>
</a>
</g>
</g>
<!-- Node23&#45;&gt;Node28 -->
<g id="edge37_Node000023_Node000028" class="edge">
<title>Node23&#45;&gt;Node28</title>
<g id="a_edge37_Node000023_Node000028"><a xlink:title=" ">
<path fill="none" stroke="#63b8ff" d="M1082.57,-176.53C1116.45,-166.86 1160.92,-154.17 1196.48,-144.02"/>
<polygon fill="#63b8ff" stroke="#63b8ff" points="1197.1,-147.49 1205.75,-141.38 1195.18,-140.75 1197.1,-147.49"/>
</a>
</g>
</g>
<!-- Node29 -->
<g id="Node000029" class="node">
<title>Node29</title>
<g id="a_Node000029"><a xlink:title=" ">
<polygon fill="#e0e0e0" stroke="#999999" points="1423.62,-141 1324.38,-141 1324.38,-110.5 1423.62,-110.5 1423.62,-141"/>
<text text-anchor="start" x="1332.38" y="-127.5" font-family="Helvetica,sans-Serif" font-size="10.00">boost/preprocessor</text>
<text text-anchor="middle" x="1374" y="-116.25" font-family="Helvetica,sans-Serif" font-size="10.00">/comparison.hpp</text>
</a>
</g>
</g>
<!-- Node23&#45;&gt;Node29 -->
<g id="edge38_Node000023_Node000029" class="edge">
<title>Node23&#45;&gt;Node29</title>
<g id="a_edge38_Node000023_Node000029"><a xlink:title=" ">
<path fill="none" stroke="#63b8ff" d="M1101.23,-180.2C1156.47,-171.21 1235.62,-157.65 1313.14,-141.53"/>
<polygon fill="#63b8ff" stroke="#63b8ff" points="1313.51,-145.03 1322.58,-139.55 1312.07,-138.18 1313.51,-145.03"/>
</a>
</g>
</g>
</g>
</svg>
