<?xml version="1.0" encoding="UTF-8" standalone="no"?>
<!DOCTYPE svg PUBLIC "-//W3C//DTD SVG 1.1//EN"
 "http://www.w3.org/Graphics/SVG/1.1/DTD/svg11.dtd">
<!-- Generated by graphviz version 9.0.0 (20230911.1827)
 -->
<!-- Title: /github/workspace/dev_area/build/listrev/codegen/include/listrev/opmon/list_rev_info.pb.cc Pages: 1 -->
<svg width="1996pt" height="194pt"
 viewBox="0.00 0.00 1995.62 194.00" xmlns="http://www.w3.org/2000/svg" xmlns:xlink="http://www.w3.org/1999/xlink">
<g id="graph0" class="graph" transform="scale(1 1) rotate(0) translate(4 190)">
<title>/github/workspace/dev_area/build/listrev/codegen/include/listrev/opmon/list_rev_info.pb.cc</title>
<!-- Node1 -->
<g id="Node000001" class="node">
<title>Node1</title>
<g id="a_Node000001"><a xlink:title=" ">
<polygon fill="#999999" stroke="#666666" points="1220.25,-186 1088,-186 1088,-133 1220.25,-133 1220.25,-186"/>
<text text-anchor="start" x="1096" y="-172.5" font-family="Helvetica,sans-Serif" font-size="10.00">/github/workspace/dev</text>
<text text-anchor="start" x="1096" y="-161.25" font-family="Helvetica,sans-Serif" font-size="10.00">_area/build/listrev/codegen</text>
<text text-anchor="start" x="1096" y="-150" font-family="Helvetica,sans-Serif" font-size="10.00">/include/listrev/opmon/list</text>
<text text-anchor="middle" x="1154.12" y="-138.75" font-family="Helvetica,sans-Serif" font-size="10.00">_rev_info.pb.cc</text>
</a>
</g>
</g>
<!-- Node2 -->
<g id="Node000002" class="node">
<title>Node2</title>
<g id="a_Node000002"><a xlink:href="list__rev__info_8pb_8h.html" target="_top" xlink:title=" ">
<polygon fill="white" stroke="#666666" points="1060.25,-97 970,-97 970,-66.5 1060.25,-66.5 1060.25,-97"/>
<text text-anchor="start" x="978" y="-83.5" font-family="Helvetica,sans-Serif" font-size="10.00">listrev/opmon/list</text>
<text text-anchor="middle" x="1015.12" y="-72.25" font-family="Helvetica,sans-Serif" font-size="10.00">_rev_info.pb.h</text>
</a>
</g>
</g>
<!-- Node1&#45;&gt;Node2 -->
<g id="edge1_Node000001_Node000002" class="edge">
<title>Node1&#45;&gt;Node2</title>
<g id="a_edge1_Node000001_Node000002"><a xlink:title=" ">
<path fill="none" stroke="#63b8ff" d="M1106.68,-132.64C1088.83,-122.92 1068.82,-112.01 1052.07,-102.88"/>
<polygon fill="#63b8ff" stroke="#63b8ff" points="1053.9,-99.89 1043.44,-98.18 1050.55,-106.04 1053.9,-99.89"/>
</a>
</g>
</g>
<!-- Node6 -->
<g id="Node000006" class="node">
<title>Node6</title>
<g id="a_Node000006"><a xlink:title=" ">
<polygon fill="#e0e0e0" stroke="#999999" points="102.25,-30.5 0,-30.5 0,0 102.25,0 102.25,-30.5"/>
<text text-anchor="start" x="8" y="-17" font-family="Helvetica,sans-Serif" font-size="10.00">google/protobuf/port</text>
<text text-anchor="middle" x="51.12" y="-5.75" font-family="Helvetica,sans-Serif" font-size="10.00">_def.inc</text>
</a>
</g>
</g>
<!-- Node1&#45;&gt;Node6 -->
<g id="edge27_Node000001_Node000006" class="edge">
<title>Node1&#45;&gt;Node6</title>
<g id="a_edge27_Node000001_Node000006"><a xlink:title=" ">
<path fill="none" stroke="#63b8ff" d="M1087.72,-155.87C958.16,-150.1 662.83,-133.79 417.12,-97 309.24,-80.85 185.7,-51.22 113.27,-32.69"/>
<polygon fill="#63b8ff" stroke="#63b8ff" points="114.55,-29.41 104,-30.31 112.81,-36.19 114.55,-29.41"/>
</a>
</g>
</g>
<!-- Node7 -->
<g id="Node000007" class="node">
<title>Node7</title>
<g id="a_Node000007"><a xlink:title=" ">
<polygon fill="#e0e0e0" stroke="#999999" points="222.25,-30.5 120,-30.5 120,0 222.25,0 222.25,-30.5"/>
<text text-anchor="start" x="128" y="-17" font-family="Helvetica,sans-Serif" font-size="10.00">google/protobuf/port</text>
<text text-anchor="middle" x="171.12" y="-5.75" font-family="Helvetica,sans-Serif" font-size="10.00">_undef.inc</text>
</a>
</g>
</g>
<!-- Node1&#45;&gt;Node7 -->
<g id="edge28_Node000001_Node000007" class="edge">
<title>Node1&#45;&gt;Node7</title>
<g id="a_edge28_Node000001_Node000007"><a xlink:title=" ">
<path fill="none" stroke="#63b8ff" d="M1087.63,-152.25C985.25,-142.33 782.96,-121.58 612.12,-97 445.64,-73.05 401.37,-65.48 233.69,-30.97"/>
<polygon fill="#63b8ff" stroke="#63b8ff" points="234.45,-27.55 223.95,-28.96 233.04,-34.41 234.45,-27.55"/>
</a>
</g>
</g>
<!-- Node8 -->
<g id="Node000008" class="node">
<title>Node8</title>
<g id="a_Node000008"><a xlink:title=" ">
<polygon fill="#e0e0e0" stroke="#999999" points="333.75,-30.5 240.5,-30.5 240.5,0 333.75,0 333.75,-30.5"/>
<text text-anchor="start" x="248.5" y="-17" font-family="Helvetica,sans-Serif" font-size="10.00">google/protobuf/io</text>
<text text-anchor="middle" x="287.12" y="-5.75" font-family="Helvetica,sans-Serif" font-size="10.00">/coded_stream.h</text>
</a>
</g>
</g>
<!-- Node1&#45;&gt;Node8 -->
<g id="edge19_Node000001_Node000008" class="edge">
<title>Node1&#45;&gt;Node8</title>
<g id="a_edge19_Node000001_Node000008"><a xlink:title=" ">
<path fill="none" stroke="#63b8ff" d="M1087.92,-146.48C985.91,-128.14 784.11,-92.55 612.12,-66.5 496.05,-48.92 462.93,-53.42 345.4,-31.01"/>
<polygon fill="#63b8ff" stroke="#63b8ff" points="346.11,-27.58 335.63,-29.12 344.78,-34.46 346.11,-27.58"/>
</a>
</g>
</g>
<!-- Node14 -->
<g id="Node000014" class="node">
<title>Node14</title>
<g id="a_Node000014"><a xlink:title=" ">
<polygon fill="#e0e0e0" stroke="#999999" points="1842.38,-30.5 1713.88,-30.5 1713.88,0 1842.38,0 1842.38,-30.5"/>
<text text-anchor="start" x="1721.88" y="-17" font-family="Helvetica,sans-Serif" font-size="10.00">google/protobuf/generated</text>
<text text-anchor="middle" x="1778.12" y="-5.75" font-family="Helvetica,sans-Serif" font-size="10.00">_message_reflection.h</text>
</a>
</g>
</g>
<!-- Node1&#45;&gt;Node14 -->
<g id="edge23_Node000001_Node000014" class="edge">
<title>Node1&#45;&gt;Node14</title>
<g id="a_edge23_Node000001_Node000014"><a xlink:title=" ">
<path fill="none" stroke="#63b8ff" d="M1128.15,-132.89C1110.91,-112.84 1094.44,-85.3 1112.12,-66.5 1155.47,-20.45 1599.91,-37.25 1702.29,-30.35"/>
<polygon fill="#63b8ff" stroke="#63b8ff" points="1702.57,-33.84 1712.21,-29.44 1701.93,-26.87 1702.57,-33.84"/>
</a>
</g>
</g>
<!-- Node17 -->
<g id="Node000017" class="node">
<title>Node17</title>
<g id="a_Node000017"><a xlink:title=" ">
<polygon fill="#e0e0e0" stroke="#999999" points="1987.62,-30.5 1860.62,-30.5 1860.62,0 1987.62,0 1987.62,-30.5"/>
<text text-anchor="start" x="1868.62" y="-17" font-family="Helvetica,sans-Serif" font-size="10.00">google/protobuf/extension</text>
<text text-anchor="middle" x="1924.12" y="-5.75" font-family="Helvetica,sans-Serif" font-size="10.00">_set.h</text>
</a>
</g>
</g>
<!-- Node1&#45;&gt;Node17 -->
<g id="edge20_Node000001_Node000017" class="edge">
<title>Node1&#45;&gt;Node17</title>
<g id="a_edge20_Node000001_Node000017"><a xlink:title=" ">
<path fill="none" stroke="#63b8ff" d="M1142.09,-132.8C1134.4,-112.16 1128.65,-83.83 1145.12,-66.5 1197.28,-11.62 1732.36,-37.96 1849.18,-30.24"/>
<polygon fill="#63b8ff" stroke="#63b8ff" points="1849.35,-33.74 1859,-29.36 1848.73,-26.76 1849.35,-33.74"/>
</a>
</g>
</g>
<!-- Node19 -->
<g id="Node000019" class="node">
<title>Node19</title>
<g id="a_Node000019"><a xlink:title=" ">
<polygon fill="#e0e0e0" stroke="#999999" points="1210,-91.38 1154.25,-91.38 1154.25,-72.12 1210,-72.12 1210,-91.38"/>
<text text-anchor="middle" x="1182.12" y="-77.88" font-family="Helvetica,sans-Serif" font-size="10.00">algorithm</text>
</a>
</g>
</g>
<!-- Node1&#45;&gt;Node19 -->
<g id="edge18_Node000001_Node000019" class="edge">
<title>Node1&#45;&gt;Node19</title>
<g id="a_edge18_Node000001_Node000019"><a xlink:title=" ">
<path fill="none" stroke="#63b8ff" d="M1163.6,-132.85C1167.31,-122.84 1171.48,-111.54 1174.93,-102.21"/>
<polygon fill="#63b8ff" stroke="#63b8ff" points="1178.11,-103.7 1178.3,-93.11 1171.55,-101.28 1178.11,-103.7"/>
</a>
</g>
</g>
<!-- Node20 -->
<g id="Node000020" class="node">
<title>Node20</title>
<g id="a_Node000020"><a xlink:title=" ">
<polygon fill="#e0e0e0" stroke="#999999" points="1332,-97 1228.25,-97 1228.25,-66.5 1332,-66.5 1332,-97"/>
<text text-anchor="start" x="1236.25" y="-83.5" font-family="Helvetica,sans-Serif" font-size="10.00">google/protobuf/wire</text>
<text text-anchor="middle" x="1280.12" y="-72.25" font-family="Helvetica,sans-Serif" font-size="10.00">_format_lite.h</text>
</a>
</g>
</g>
<!-- Node1&#45;&gt;Node20 -->
<g id="edge21_Node000001_Node000020" class="edge">
<title>Node1&#45;&gt;Node20</title>
<g id="a_edge21_Node000001_Node000020"><a xlink:title=" ">
<path fill="none" stroke="#63b8ff" d="M1197.13,-132.64C1213.16,-123.01 1231.11,-112.22 1246.2,-103.14"/>
<polygon fill="#63b8ff" stroke="#63b8ff" points="1247.6,-106.39 1254.36,-98.24 1243.99,-100.39 1247.6,-106.39"/>
</a>
</g>
</g>
<!-- Node21 -->
<g id="Node000021" class="node">
<title>Node21</title>
<g id="a_Node000021"><a xlink:title=" ">
<polygon fill="#e0e0e0" stroke="#999999" points="1486.12,-91.38 1350.12,-91.38 1350.12,-72.12 1486.12,-72.12 1486.12,-91.38"/>
<text text-anchor="middle" x="1418.12" y="-77.88" font-family="Helvetica,sans-Serif" font-size="10.00">google/protobuf/descriptor.h</text>
</a>
</g>
</g>
<!-- Node1&#45;&gt;Node21 -->
<g id="edge22_Node000001_Node000021" class="edge">
<title>Node1&#45;&gt;Node21</title>
<g id="a_edge22_Node000001_Node000021"><a xlink:title=" ">
<path fill="none" stroke="#63b8ff" d="M1220.74,-139.39C1269.3,-125.45 1333.64,-106.99 1375.45,-94.99"/>
<polygon fill="#63b8ff" stroke="#63b8ff" points="1376.25,-98.41 1384.9,-92.28 1374.32,-91.68 1376.25,-98.41"/>
</a>
</g>
</g>
<!-- Node22 -->
<g id="Node000022" class="node">
<title>Node22</title>
<g id="a_Node000022"><a xlink:title=" ">
<polygon fill="#e0e0e0" stroke="#999999" points="1628.5,-97 1503.75,-97 1503.75,-66.5 1628.5,-66.5 1628.5,-97"/>
<text text-anchor="start" x="1511.75" y="-83.5" font-family="Helvetica,sans-Serif" font-size="10.00">google/protobuf/reflection</text>
<text text-anchor="middle" x="1566.12" y="-72.25" font-family="Helvetica,sans-Serif" font-size="10.00">_ops.h</text>
</a>
</g>
</g>
<!-- Node1&#45;&gt;Node22 -->
<g id="edge24_Node000001_Node000022" class="edge">
<title>Node1&#45;&gt;Node22</title>
<g id="a_edge24_Node000001_Node000022"><a xlink:title=" ">
<path fill="none" stroke="#63b8ff" d="M1220.52,-146.92C1286.81,-135.27 1391.9,-116.57 1492.17,-97.55"/>
<polygon fill="#63b8ff" stroke="#63b8ff" points="1492.76,-100.99 1501.93,-95.69 1491.45,-94.12 1492.76,-100.99"/>
</a>
</g>
</g>
<!-- Node23 -->
<g id="Node000023" class="node">
<title>Node23</title>
<g id="a_Node000023"><a xlink:title=" ">
<polygon fill="#e0e0e0" stroke="#999999" points="1750,-97 1646.25,-97 1646.25,-66.5 1750,-66.5 1750,-97"/>
<text text-anchor="start" x="1654.25" y="-83.5" font-family="Helvetica,sans-Serif" font-size="10.00">google/protobuf/wire</text>
<text text-anchor="middle" x="1698.12" y="-72.25" font-family="Helvetica,sans-Serif" font-size="10.00">_format.h</text>
</a>
</g>
</g>
<!-- Node1&#45;&gt;Node23 -->
<g id="edge25_Node000001_Node000023" class="edge">
<title>Node1&#45;&gt;Node23</title>
<g id="a_edge25_Node000001_Node000023"><a xlink:title=" ">
<path fill="none" stroke="#63b8ff" d="M1220.47,-152.23C1311.68,-143.14 1481.07,-124.51 1634.91,-97.28"/>
<polygon fill="#63b8ff" stroke="#63b8ff" points="1635.24,-100.78 1644.47,-95.58 1634.01,-93.89 1635.24,-100.78"/>
</a>
</g>
</g>
<!-- Node24 -->
<g id="Node000024" class="node">
<title>Node24</title>
<g id="a_Node000024"><a xlink:title=" ">
<polygon fill="#e0e0e0" stroke="#999999" points="1896.38,-97 1767.88,-97 1767.88,-66.5 1896.38,-66.5 1896.38,-97"/>
<text text-anchor="start" x="1775.88" y="-83.5" font-family="Helvetica,sans-Serif" font-size="10.00">google/protobuf/generated</text>
<text text-anchor="middle" x="1832.12" y="-72.25" font-family="Helvetica,sans-Serif" font-size="10.00">_message_tctable_impl.h</text>
</a>
</g>
</g>
<!-- Node1&#45;&gt;Node24 -->
<g id="edge26_Node000001_Node000024" class="edge">
<title>Node1&#45;&gt;Node24</title>
<g id="a_edge26_Node000001_Node000024"><a xlink:title=" ">
<path fill="none" stroke="#63b8ff" d="M1220.62,-153.74C1330.2,-145.46 1555.78,-126.57 1756.35,-97.33"/>
<polygon fill="#63b8ff" stroke="#63b8ff" points="1756.81,-100.8 1766.2,-95.88 1755.79,-93.87 1756.81,-100.8"/>
</a>
</g>
</g>
<!-- Node3 -->
<g id="Node000003" class="node">
<title>Node3</title>
<g id="a_Node000003"><a xlink:title=" ">
<polygon fill="#e0e0e0" stroke="#999999" points="1422.75,-24.88 1383.5,-24.88 1383.5,-5.63 1422.75,-5.63 1422.75,-24.88"/>
<text text-anchor="middle" x="1403.12" y="-11.38" font-family="Helvetica,sans-Serif" font-size="10.00">limits</text>
</a>
</g>
</g>
<!-- Node2&#45;&gt;Node3 -->
<g id="edge2_Node000002_Node000003" class="edge">
<title>Node2&#45;&gt;Node3</title>
<g id="a_edge2_Node000002_Node000003"><a xlink:title=" ">
<path fill="none" stroke="#63b8ff" d="M1060.43,-69.24C1065.04,-68.24 1069.67,-67.3 1074.12,-66.5 1206.29,-42.69 1245.37,-68.65 1374.12,-30.5 1375.09,-30.21 1376.06,-29.9 1377.04,-29.56"/>
<polygon fill="#63b8ff" stroke="#63b8ff" points="1378.01,-32.94 1385.86,-25.83 1375.29,-26.5 1378.01,-32.94"/>
</a>
</g>
</g>
<!-- Node4 -->
<g id="Node000004" class="node">
<title>Node4</title>
<g id="a_Node000004"><a xlink:title=" ">
<polygon fill="#e0e0e0" stroke="#999999" points="1481.12,-24.88 1441.12,-24.88 1441.12,-5.63 1481.12,-5.63 1481.12,-24.88"/>
<text text-anchor="middle" x="1461.12" y="-11.38" font-family="Helvetica,sans-Serif" font-size="10.00">string</text>
</a>
</g>
</g>
<!-- Node2&#45;&gt;Node4 -->
<g id="edge3_Node000002_Node000004" class="edge">
<title>Node2&#45;&gt;Node4</title>
<g id="a_edge3_Node000002_Node000004"><a xlink:title=" ">
<path fill="none" stroke="#63b8ff" d="M1060.74,-69.08C1065.24,-68.13 1069.76,-67.24 1074.12,-66.5 1231.77,-39.67 1278.37,-74.46 1432.12,-30.5 1433.09,-30.22 1434.07,-29.92 1435.04,-29.58"/>
<polygon fill="#63b8ff" stroke="#63b8ff" points="1436.01,-32.97 1443.88,-25.88 1433.3,-26.52 1436.01,-32.97"/>
</a>
</g>
</g>
<!-- Node5 -->
<g id="Node000005" class="node">
<title>Node5</title>
<g id="a_Node000005"><a xlink:title=" ">
<polygon fill="#e0e0e0" stroke="#999999" points="1560.62,-24.88 1499.62,-24.88 1499.62,-5.63 1560.62,-5.63 1560.62,-24.88"/>
<text text-anchor="middle" x="1530.12" y="-11.38" font-family="Helvetica,sans-Serif" font-size="10.00">type_traits</text>
</a>
</g>
</g>
<!-- Node2&#45;&gt;Node5 -->
<g id="edge4_Node000002_Node000005" class="edge">
<title>Node2&#45;&gt;Node5</title>
<g id="a_edge4_Node000002_Node000005"><a xlink:title=" ">
<path fill="none" stroke="#63b8ff" d="M1060.72,-69.02C1065.23,-68.07 1069.76,-67.21 1074.12,-66.5 1257.29,-36.63 1308.79,-69.96 1490.12,-30.5 1492.43,-30 1494.79,-29.4 1497.15,-28.73"/>
<polygon fill="#63b8ff" stroke="#63b8ff" points="1498.09,-32.11 1506.55,-25.73 1495.96,-25.44 1498.09,-32.11"/>
</a>
</g>
</g>
<!-- Node2&#45;&gt;Node6 -->
<g id="edge5_Node000002_Node000006" class="edge">
<title>Node2&#45;&gt;Node6</title>
<g id="a_edge5_Node000002_Node000006"><a xlink:title=" ">
<path fill="none" stroke="#63b8ff" d="M969.69,-81.07C838.32,-81.38 446.71,-78.06 114.04,-30.75"/>
<polygon fill="#63b8ff" stroke="#63b8ff" points="114.62,-27.3 104.22,-29.33 113.62,-34.22 114.62,-27.3"/>
</a>
</g>
</g>
<!-- Node2&#45;&gt;Node7 -->
<g id="edge6_Node000002_Node000007" class="edge">
<title>Node2&#45;&gt;Node7</title>
<g id="a_edge6_Node000002_Node000007"><a xlink:title=" ">
<path fill="none" stroke="#63b8ff" d="M969.64,-78.85C828.15,-72.78 396.11,-53.02 233.93,-30.7"/>
<polygon fill="#63b8ff" stroke="#63b8ff" points="234.62,-27.27 224.23,-29.31 233.63,-34.19 234.62,-27.27"/>
</a>
</g>
</g>
<!-- Node2&#45;&gt;Node8 -->
<g id="edge7_Node000002_Node000008" class="edge">
<title>Node2&#45;&gt;Node8</title>
<g id="a_edge7_Node000002_Node000008"><a xlink:title=" ">
<path fill="none" stroke="#63b8ff" d="M969.69,-76.51C937.45,-73.55 893.15,-69.6 854.12,-66.5 630.39,-48.73 569.22,-66.66 345.25,-30.83"/>
<polygon fill="#63b8ff" stroke="#63b8ff" points="346.03,-27.41 335.6,-29.27 344.91,-34.32 346.03,-27.41"/>
</a>
</g>
</g>
<!-- Node9 -->
<g id="Node000009" class="node">
<title>Node9</title>
<g id="a_Node000009"><a xlink:title=" ">
<polygon fill="#e0e0e0" stroke="#999999" points="1695.75,-24.88 1578.5,-24.88 1578.5,-5.63 1695.75,-5.63 1695.75,-24.88"/>
<text text-anchor="middle" x="1637.12" y="-11.38" font-family="Helvetica,sans-Serif" font-size="10.00">google/protobuf/arena.h</text>
</a>
</g>
</g>
<!-- Node2&#45;&gt;Node9 -->
<g id="edge8_Node000002_Node000009" class="edge">
<title>Node2&#45;&gt;Node9</title>
<g id="a_edge8_Node000002_Node000009"><a xlink:title=" ">
<path fill="none" stroke="#63b8ff" d="M1060.71,-68.95C1065.23,-68.02 1069.75,-67.18 1074.12,-66.5 1292.51,-32.44 1351.29,-61.56 1570.12,-30.5 1575.79,-29.7 1581.7,-28.69 1587.55,-27.59"/>
<polygon fill="#63b8ff" stroke="#63b8ff" points="1588.06,-31.05 1597.18,-25.67 1586.69,-24.19 1588.06,-31.05"/>
</a>
</g>
</g>
<!-- Node10 -->
<g id="Node000010" class="node">
<title>Node10</title>
<g id="a_Node000010"><a xlink:title=" ">
<polygon fill="#e0e0e0" stroke="#999999" points="492.75,-24.88 351.5,-24.88 351.5,-5.63 492.75,-5.63 492.75,-24.88"/>
<text text-anchor="middle" x="422.12" y="-11.38" font-family="Helvetica,sans-Serif" font-size="10.00">google/protobuf/arenastring.h</text>
</a>
</g>
</g>
<!-- Node2&#45;&gt;Node10 -->
<g id="edge9_Node000002_Node000010" class="edge">
<title>Node2&#45;&gt;Node10</title>
<g id="a_edge9_Node000002_Node000010"><a xlink:title=" ">
<path fill="none" stroke="#63b8ff" d="M969.84,-76.78C861.96,-67.23 592.11,-42.9 502.12,-30.5 495.15,-29.54 487.86,-28.41 480.64,-27.22"/>
<polygon fill="#63b8ff" stroke="#63b8ff" points="481.34,-23.79 470.9,-25.56 480.17,-30.69 481.34,-23.79"/>
</a>
</g>
</g>
<!-- Node11 -->
<g id="Node000011" class="node">
<title>Node11</title>
<g id="a_Node000011"><a xlink:title=" ">
<polygon fill="#e0e0e0" stroke="#999999" points="639.38,-30.5 510.88,-30.5 510.88,0 639.38,0 639.38,-30.5"/>
<text text-anchor="start" x="518.88" y="-17" font-family="Helvetica,sans-Serif" font-size="10.00">google/protobuf/generated</text>
<text text-anchor="middle" x="575.12" y="-5.75" font-family="Helvetica,sans-Serif" font-size="10.00">_message_tctable_decl.h</text>
</a>
</g>
</g>
<!-- Node2&#45;&gt;Node11 -->
<g id="edge10_Node000002_Node000011" class="edge">
<title>Node2&#45;&gt;Node11</title>
<g id="a_edge10_Node000002_Node000011"><a xlink:title=" ">
<path fill="none" stroke="#63b8ff" d="M969.65,-75.3C902.42,-67.08 772.33,-50.5 651,-30.75"/>
<polygon fill="#63b8ff" stroke="#63b8ff" points="651.59,-27.3 641.16,-29.13 650.46,-34.21 651.59,-27.3"/>
</a>
</g>
</g>
<!-- Node12 -->
<g id="Node000012" class="node">
<title>Node12</title>
<g id="a_Node000012"><a xlink:title=" ">
<polygon fill="#e0e0e0" stroke="#999999" points="786.38,-30.5 657.88,-30.5 657.88,0 786.38,0 786.38,-30.5"/>
<text text-anchor="start" x="665.88" y="-17" font-family="Helvetica,sans-Serif" font-size="10.00">google/protobuf/generated</text>
<text text-anchor="middle" x="722.12" y="-5.75" font-family="Helvetica,sans-Serif" font-size="10.00">_message_util.h</text>
</a>
</g>
</g>
<!-- Node2&#45;&gt;Node12 -->
<g id="edge11_Node000002_Node000012" class="edge">
<title>Node2&#45;&gt;Node12</title>
<g id="a_edge11_Node000002_Node000012"><a xlink:title=" ">
<path fill="none" stroke="#63b8ff" d="M969.67,-70.74C923.8,-60.65 852.17,-44.88 797.74,-32.9"/>
<polygon fill="#63b8ff" stroke="#63b8ff" points="798.75,-29.53 788.23,-30.8 797.24,-36.37 798.75,-29.53"/>
</a>
</g>
</g>
<!-- Node13 -->
<g id="Node000013" class="node">
<title>Node13</title>
<g id="a_Node000013"><a xlink:title=" ">
<polygon fill="#e0e0e0" stroke="#999999" points="930.25,-30.5 804,-30.5 804,0 930.25,0 930.25,-30.5"/>
<text text-anchor="start" x="812" y="-17" font-family="Helvetica,sans-Serif" font-size="10.00">google/protobuf/metadata</text>
<text text-anchor="middle" x="867.12" y="-5.75" font-family="Helvetica,sans-Serif" font-size="10.00">_lite.h</text>
</a>
</g>
</g>
<!-- Node2&#45;&gt;Node13 -->
<g id="edge12_Node000002_Node000013" class="edge">
<title>Node2&#45;&gt;Node13</title>
<g id="a_edge12_Node000002_Node000013"><a xlink:title=" ">
<path fill="none" stroke="#63b8ff" d="M981.54,-66.11C960.71,-57.03 933.7,-45.27 911.16,-35.44"/>
<polygon fill="#63b8ff" stroke="#63b8ff" points="912.78,-32.33 902.22,-31.54 909.99,-38.75 912.78,-32.33"/>
</a>
</g>
</g>
<!-- Node2&#45;&gt;Node14 -->
<g id="edge13_Node000002_Node000014" class="edge">
<title>Node2&#45;&gt;Node14</title>
<g id="a_edge13_Node000002_Node000014"><a xlink:title=" ">
<path fill="none" stroke="#63b8ff" d="M1060.7,-68.88C1065.22,-67.97 1069.75,-67.15 1074.12,-66.5 1348.33,-25.9 1424.41,-64.45 1702.46,-30.71"/>
<polygon fill="#63b8ff" stroke="#63b8ff" points="1702.72,-34.2 1712.21,-29.5 1701.86,-27.25 1702.72,-34.2"/>
</a>
</g>
</g>
<!-- Node15 -->
<g id="Node000015" class="node">
<title>Node15</title>
<g id="a_Node000015"><a xlink:title=" ">
<polygon fill="#e0e0e0" stroke="#999999" points="1081.62,-24.88 948.62,-24.88 948.62,-5.63 1081.62,-5.63 1081.62,-24.88"/>
<text text-anchor="middle" x="1015.12" y="-11.38" font-family="Helvetica,sans-Serif" font-size="10.00">google/protobuf/message.h</text>
</a>
</g>
</g>
<!-- Node2&#45;&gt;Node15 -->
<g id="edge14_Node000002_Node000015" class="edge">
<title>Node2&#45;&gt;Node15</title>
<g id="a_edge14_Node000002_Node000015"><a xlink:title=" ">
<path fill="none" stroke="#63b8ff" d="M1015.12,-66.11C1015.12,-57.33 1015.12,-46.02 1015.12,-36.4"/>
<polygon fill="#63b8ff" stroke="#63b8ff" points="1018.63,-36.59 1015.13,-26.59 1011.63,-36.59 1018.63,-36.59"/>
</a>
</g>
</g>
<!-- Node16 -->
<g id="Node000016" class="node">
<title>Node16</title>
<g id="a_Node000016"><a xlink:title=" ">
<polygon fill="#e0e0e0" stroke="#999999" points="1222.75,-30.5 1099.5,-30.5 1099.5,0 1222.75,0 1222.75,-30.5"/>
<text text-anchor="start" x="1107.5" y="-17" font-family="Helvetica,sans-Serif" font-size="10.00">google/protobuf/repeated</text>
<text text-anchor="middle" x="1161.12" y="-5.75" font-family="Helvetica,sans-Serif" font-size="10.00">_field.h</text>
</a>
</g>
</g>
<!-- Node2&#45;&gt;Node16 -->
<g id="edge15_Node000002_Node000016" class="edge">
<title>Node2&#45;&gt;Node16</title>
<g id="a_edge15_Node000002_Node000016"><a xlink:title=" ">
<path fill="none" stroke="#63b8ff" d="M1048.25,-66.11C1068.72,-57.07 1095.21,-45.37 1117.38,-35.58"/>
<polygon fill="#63b8ff" stroke="#63b8ff" points="1118.76,-38.79 1126.49,-31.55 1115.93,-32.39 1118.76,-38.79"/>
</a>
</g>
</g>
<!-- Node2&#45;&gt;Node17 -->
<g id="edge16_Node000002_Node000017" class="edge">
<title>Node2&#45;&gt;Node17</title>
<g id="a_edge16_Node000002_Node000017"><a xlink:title=" ">
<path fill="none" stroke="#63b8ff" d="M1060.41,-73.17C1076.68,-70.69 1095.18,-68.15 1112.12,-66.5 1435.73,-34.92 1522.74,-69.31 1849.29,-30.58"/>
<polygon fill="#63b8ff" stroke="#63b8ff" points="1849.5,-34.08 1859.01,-29.41 1848.66,-27.13 1849.5,-34.08"/>
</a>
</g>
</g>
<!-- Node18 -->
<g id="Node000018" class="node">
<title>Node18</title>
<g id="a_Node000018"><a xlink:title=" ">
<polygon fill="#e0e0e0" stroke="#999999" points="1365.5,-30.5 1240.75,-30.5 1240.75,0 1365.5,0 1365.5,-30.5"/>
<text text-anchor="start" x="1248.75" y="-17" font-family="Helvetica,sans-Serif" font-size="10.00">google/protobuf/unknown</text>
<text text-anchor="middle" x="1303.12" y="-5.75" font-family="Helvetica,sans-Serif" font-size="10.00">_field_set.h</text>
</a>
</g>
</g>
<!-- Node2&#45;&gt;Node18 -->
<g id="edge17_Node000002_Node000018" class="edge">
<title>Node2&#45;&gt;Node18</title>
<g id="a_edge17_Node000002_Node000018"><a xlink:title=" ">
<path fill="none" stroke="#63b8ff" d="M1060.52,-69.68C1065.11,-68.6 1069.71,-67.52 1074.12,-66.5 1125.86,-54.58 1184.33,-41.76 1229.24,-32.05"/>
<polygon fill="#63b8ff" stroke="#63b8ff" points="1229.84,-35.5 1238.87,-29.97 1228.36,-28.66 1229.84,-35.5"/>
</a>
</g>
</g>
</g>
</svg>
