<?xml version="1.0" encoding="UTF-8" standalone="no"?>
<!DOCTYPE svg PUBLIC "-//W3C//DTD SVG 1.1//EN"
 "http://www.w3.org/Graphics/SVG/1.1/DTD/svg11.dtd">
<!-- Generated by graphviz version 9.0.0 (20230911.1827)
 -->
<!-- Title: /github/workspace/dev_area/sourcecode/listrev/src/ListWrapper.hpp Pages: 1 -->
<svg width="272pt" height="205pt"
 viewBox="0.00 0.00 271.50 205.25" xmlns="http://www.w3.org/2000/svg" xmlns:xlink="http://www.w3.org/1999/xlink">
<g id="graph0" class="graph" transform="scale(1 1) rotate(0) translate(4 201.25)">
<title>/github/workspace/dev_area/sourcecode/listrev/src/ListWrapper.hpp</title>
<!-- Node1 -->
<g id="Node000001" class="node">
<title>Node1</title>
<g id="a_Node000001"><a xlink:title=" ">
<polygon fill="#999999" stroke="#666666" points="192.5,-197.25 70,-197.25 70,-155.5 192.5,-155.5 192.5,-197.25"/>
<text text-anchor="start" x="78" y="-183.75" font-family="Helvetica,sans-Serif" font-size="10.00">/github/workspace/dev</text>
<text text-anchor="start" x="78" y="-172.5" font-family="Helvetica,sans-Serif" font-size="10.00">_area/sourcecode/listrev</text>
<text text-anchor="middle" x="131.25" y="-161.25" font-family="Helvetica,sans-Serif" font-size="10.00">/src/ListWrapper.hpp</text>
</a>
</g>
</g>
<!-- Node2 -->
<g id="Node000002" class="node">
<title>Node2</title>
<g id="a_Node000002"><a xlink:href="ListCreator_8hpp.html" target="_top" xlink:title=" ">
<polygon fill="white" stroke="#666666" points="122.5,-119.5 0,-119.5 0,-77.75 122.5,-77.75 122.5,-119.5"/>
<text text-anchor="start" x="8" y="-106" font-family="Helvetica,sans-Serif" font-size="10.00">/github/workspace/dev</text>
<text text-anchor="start" x="8" y="-94.75" font-family="Helvetica,sans-Serif" font-size="10.00">_area/sourcecode/listrev</text>
<text text-anchor="middle" x="61.25" y="-83.5" font-family="Helvetica,sans-Serif" font-size="10.00">/src/ListCreator.hpp</text>
</a>
</g>
</g>
<!-- Node1&#45;&gt;Node2 -->
<g id="edge1_Node000001_Node000002" class="edge">
<title>Node1&#45;&gt;Node2</title>
<g id="a_edge1_Node000001_Node000002"><a xlink:title=" ">
<path fill="none" stroke="#63b8ff" d="M104.86,-146.81C96.61,-137.89 87.68,-128.22 80.06,-119.98"/>
<polygon fill="#63b8ff" stroke="#63b8ff" points="102.11,-148.99 111.46,-153.96 107.25,-144.24 102.11,-148.99"/>
</a>
</g>
</g>
<!-- Node4 -->
<g id="Node000004" class="node">
<title>Node4</title>
<g id="a_Node000004"><a xlink:href="ListStorage_8hpp.html" target="_top" xlink:title=" ">
<polygon fill="white" stroke="#666666" points="263.5,-119.5 141,-119.5 141,-77.75 263.5,-77.75 263.5,-119.5"/>
<text text-anchor="start" x="149" y="-106" font-family="Helvetica,sans-Serif" font-size="10.00">/github/workspace/dev</text>
<text text-anchor="start" x="149" y="-94.75" font-family="Helvetica,sans-Serif" font-size="10.00">_area/sourcecode/listrev</text>
<text text-anchor="middle" x="202.25" y="-83.5" font-family="Helvetica,sans-Serif" font-size="10.00">/src/ListStorage.hpp</text>
</a>
</g>
</g>
<!-- Node1&#45;&gt;Node4 -->
<g id="edge3_Node000001_Node000004" class="edge">
<title>Node1&#45;&gt;Node4</title>
<g id="a_edge3_Node000001_Node000004"><a xlink:title=" ">
<path fill="none" stroke="#63b8ff" d="M158.02,-146.81C166.39,-137.89 175.44,-128.22 183.17,-119.98"/>
<polygon fill="#63b8ff" stroke="#63b8ff" points="155.6,-144.28 151.31,-153.97 160.7,-149.07 155.6,-144.28"/>
</a>
</g>
</g>
<!-- Node3 -->
<g id="Node000003" class="node">
<title>Node3</title>
<g id="a_Node000003"><a xlink:href="ListCreator_8cpp.html" target="_top" xlink:title=" ">
<polygon fill="white" stroke="#666666" points="122.5,-41.75 0,-41.75 0,0 122.5,0 122.5,-41.75"/>
<text text-anchor="start" x="8" y="-28.25" font-family="Helvetica,sans-Serif" font-size="10.00">/github/workspace/dev</text>
<text text-anchor="start" x="8" y="-17" font-family="Helvetica,sans-Serif" font-size="10.00">_area/sourcecode/listrev</text>
<text text-anchor="middle" x="61.25" y="-5.75" font-family="Helvetica,sans-Serif" font-size="10.00">/src/ListCreator.cpp</text>
</a>
</g>
</g>
<!-- Node2&#45;&gt;Node3 -->
<g id="edge2_Node000002_Node000003" class="edge">
<title>Node2&#45;&gt;Node3</title>
<g id="a_edge2_Node000002_Node000003"><a xlink:title=" ">
<path fill="none" stroke="#63b8ff" d="M61.25,-66C61.25,-57.96 61.25,-49.54 61.25,-42.23"/>
<polygon fill="#63b8ff" stroke="#63b8ff" points="57.75,-65.81 61.25,-75.81 64.75,-65.81 57.75,-65.81"/>
</a>
</g>
</g>
<!-- Node5 -->
<g id="Node000005" class="node">
<title>Node5</title>
<g id="a_Node000005"><a xlink:href="ListStorage_8cpp.html" target="_top" xlink:title=" ">
<polygon fill="white" stroke="#666666" points="263.5,-41.75 141,-41.75 141,0 263.5,0 263.5,-41.75"/>
<text text-anchor="start" x="149" y="-28.25" font-family="Helvetica,sans-Serif" font-size="10.00">/github/workspace/dev</text>
<text text-anchor="start" x="149" y="-17" font-family="Helvetica,sans-Serif" font-size="10.00">_area/sourcecode/listrev</text>
<text text-anchor="middle" x="202.25" y="-5.75" font-family="Helvetica,sans-Serif" font-size="10.00">/src/ListStorage.cpp</text>
</a>
</g>
</g>
<!-- Node4&#45;&gt;Node5 -->
<g id="edge4_Node000004_Node000005" class="edge">
<title>Node4&#45;&gt;Node5</title>
<g id="a_edge4_Node000004_Node000005"><a xlink:title=" ">
<path fill="none" stroke="#63b8ff" d="M202.25,-66C202.25,-57.96 202.25,-49.54 202.25,-42.23"/>
<polygon fill="#63b8ff" stroke="#63b8ff" points="198.75,-65.81 202.25,-75.81 205.75,-65.81 198.75,-65.81"/>
</a>
</g>
</g>
</g>
</svg>
