<?xml version="1.0" encoding="UTF-8" standalone="no"?>
<!DOCTYPE svg PUBLIC "-//W3C//DTD SVG 1.1//EN"
 "http://www.w3.org/Graphics/SVG/1.1/DTD/svg11.dtd">
<!-- Generated by graphviz version 9.0.0 (20230911.1827)
 -->
<!-- Title: /github/workspace/dev_area/build/listrev/codegen/include/listrev/listreverser/Nljs.hpp Pages: 1 -->
<svg width="216pt" height="183pt"
 viewBox="0.00 0.00 216.12 182.75" xmlns="http://www.w3.org/2000/svg" xmlns:xlink="http://www.w3.org/1999/xlink">
<g id="graph0" class="graph" transform="scale(1 1) rotate(0) translate(4 178.75)">
<title>/github/workspace/dev_area/build/listrev/codegen/include/listrev/listreverser/Nljs.hpp</title>
<!-- Node1 -->
<g id="Node000001" class="node">
<title>Node1</title>
<g id="a_Node000001"><a xlink:title=" ">
<polygon fill="#999999" stroke="#666666" points="168.75,-174.75 36.5,-174.75 36.5,-121.75 168.75,-121.75 168.75,-174.75"/>
<text text-anchor="start" x="44.5" y="-161.25" font-family="Helvetica,sans-Serif" font-size="10.00">/github/workspace/dev</text>
<text text-anchor="start" x="44.5" y="-150" font-family="Helvetica,sans-Serif" font-size="10.00">_area/build/listrev/codegen</text>
<text text-anchor="start" x="44.5" y="-138.75" font-family="Helvetica,sans-Serif" font-size="10.00">/include/listrev/listreverser</text>
<text text-anchor="middle" x="102.62" y="-127.5" font-family="Helvetica,sans-Serif" font-size="10.00">/Nljs.hpp</text>
</a>
</g>
</g>
<!-- Node2 -->
<g id="Node000002" class="node">
<title>Node2</title>
<g id="a_Node000002"><a xlink:href="listrev_2codegen_2include_2listrev_2listreverser_2Structs_8hpp.html" target="_top" xlink:title=" ">
<polygon fill="white" stroke="#666666" points="93.25,-85.75 0,-85.75 0,-55.25 93.25,-55.25 93.25,-85.75"/>
<text text-anchor="start" x="8" y="-72.25" font-family="Helvetica,sans-Serif" font-size="10.00">listrev/listreverser</text>
<text text-anchor="middle" x="46.62" y="-61" font-family="Helvetica,sans-Serif" font-size="10.00">/Structs.hpp</text>
</a>
</g>
</g>
<!-- Node1&#45;&gt;Node2 -->
<g id="edge1_Node000001_Node000002" class="edge">
<title>Node1&#45;&gt;Node2</title>
<g id="a_edge1_Node000001_Node000002"><a xlink:title=" ">
<path fill="none" stroke="#63b8ff" d="M83.67,-121.6C77.37,-113.09 70.39,-103.65 64.21,-95.28"/>
<polygon fill="#63b8ff" stroke="#63b8ff" points="67.06,-93.25 58.3,-87.29 61.43,-97.41 67.06,-93.25"/>
</a>
</g>
</g>
<!-- Node4 -->
<g id="Node000004" class="node">
<title>Node4</title>
<g id="a_Node000004"><a xlink:title=" ">
<polygon fill="#e0e0e0" stroke="#999999" points="208.12,-80.12 111.12,-80.12 111.12,-60.88 208.12,-60.88 208.12,-80.12"/>
<text text-anchor="middle" x="159.62" y="-66.62" font-family="Helvetica,sans-Serif" font-size="10.00">nlohmann/json.hpp</text>
</a>
</g>
</g>
<!-- Node1&#45;&gt;Node4 -->
<g id="edge3_Node000001_Node000004" class="edge">
<title>Node1&#45;&gt;Node4</title>
<g id="a_edge3_Node000001_Node000004"><a xlink:title=" ">
<path fill="none" stroke="#63b8ff" d="M121.92,-121.6C129.88,-111.03 138.91,-99.03 146.14,-89.42"/>
<polygon fill="#63b8ff" stroke="#63b8ff" points="148.77,-91.74 151.99,-81.65 143.18,-87.54 148.77,-91.74"/>
</a>
</g>
</g>
<!-- Node3 -->
<g id="Node000003" class="node">
<title>Node3</title>
<g id="a_Node000003"><a xlink:title=" ">
<polygon fill="#e0e0e0" stroke="#999999" points="69.25,-19.25 24,-19.25 24,0 69.25,0 69.25,-19.25"/>
<text text-anchor="middle" x="46.62" y="-5.75" font-family="Helvetica,sans-Serif" font-size="10.00">cstdint</text>
</a>
</g>
</g>
<!-- Node2&#45;&gt;Node3 -->
<g id="edge2_Node000002_Node000003" class="edge">
<title>Node2&#45;&gt;Node3</title>
<g id="a_edge2_Node000002_Node000003"><a xlink:title=" ">
<path fill="none" stroke="#63b8ff" d="M46.62,-54.95C46.62,-47.71 46.62,-38.84 46.62,-30.94"/>
<polygon fill="#63b8ff" stroke="#63b8ff" points="50.13,-31.21 46.63,-21.21 43.13,-31.21 50.13,-31.21"/>
</a>
</g>
</g>
</g>
</svg>
