<?xml version="1.0" encoding="UTF-8" standalone="no"?>
<!DOCTYPE svg PUBLIC "-//W3C//DTD SVG 1.1//EN"
 "http://www.w3.org/Graphics/SVG/1.1/DTD/svg11.dtd">
<!-- Generated by graphviz version 9.0.0 (20230911.1827)
 -->
<!-- Title: /github/workspace/dev_area/sourcecode/dbe/include/dbe/messenger.hpp Pages: 1 -->
<svg width="857pt" height="271pt"
 viewBox="0.00 0.00 857.12 270.75" xmlns="http://www.w3.org/2000/svg" xmlns:xlink="http://www.w3.org/1999/xlink">
<g id="graph0" class="graph" transform="scale(1 1) rotate(0) translate(4 266.75)">
<title>/github/workspace/dev_area/sourcecode/dbe/include/dbe/messenger.hpp</title>
<!-- Node1 -->
<g id="Node000001" class="node">
<title>Node1</title>
<g id="a_Node000001"><a xlink:title=" ">
<polygon fill="#999999" stroke="#666666" points="350.75,-262.75 213.25,-262.75 213.25,-221 350.75,-221 350.75,-262.75"/>
<text text-anchor="start" x="221.25" y="-249.25" font-family="Helvetica,sans-Serif" font-size="10.00">/github/workspace/dev</text>
<text text-anchor="start" x="221.25" y="-238" font-family="Helvetica,sans-Serif" font-size="10.00">_area/sourcecode/dbe</text>
<text text-anchor="middle" x="282" y="-226.75" font-family="Helvetica,sans-Serif" font-size="10.00">/include/dbe/messenger.hpp</text>
</a>
</g>
</g>
<!-- Node2 -->
<g id="Node000002" class="node">
<title>Node2</title>
<g id="a_Node000002"><a xlink:href="dbe_2include_2dbe_2macro_8hpp.html" target="_top" xlink:title=" ">
<polygon fill="white" stroke="#666666" points="144.88,-129.75 65.12,-129.75 65.12,-110.5 144.88,-110.5 144.88,-129.75"/>
<text text-anchor="middle" x="105" y="-116.25" font-family="Helvetica,sans-Serif" font-size="10.00">dbe/macro.hpp</text>
</a>
</g>
</g>
<!-- Node1&#45;&gt;Node2 -->
<g id="edge1_Node000001_Node000002" class="edge">
<title>Node1&#45;&gt;Node2</title>
<g id="a_edge1_Node000001_Node000002"><a xlink:title=" ">
<path fill="none" stroke="#63b8ff" d="M229.81,-220.55C209,-211.25 185.44,-199.13 166,-185 147.66,-171.67 130.15,-152.42 118.64,-138.55"/>
<polygon fill="#63b8ff" stroke="#63b8ff" points="121.64,-136.7 112.64,-131.11 116.2,-141.09 121.64,-136.7"/>
</a>
</g>
</g>
<!-- Node3 -->
<g id="Node000003" class="node">
<title>Node3</title>
<g id="a_Node000003"><a xlink:title=" ">
<polygon fill="#e0e0e0" stroke="#999999" points="40,-19.25 0,-19.25 0,0 40,0 40,-19.25"/>
<text text-anchor="middle" x="20" y="-5.75" font-family="Helvetica,sans-Serif" font-size="10.00">string</text>
</a>
</g>
</g>
<!-- Node1&#45;&gt;Node3 -->
<g id="edge19_Node000001_Node000003" class="edge">
<title>Node1&#45;&gt;Node3</title>
<g id="a_edge19_Node000001_Node000003"><a xlink:title=" ">
<path fill="none" stroke="#63b8ff" d="M212.91,-221.5C163.46,-204.5 98.4,-175.25 56,-129.75 36.8,-109.15 33.18,-101.44 25,-74.5 20.69,-60.29 19.51,-43.53 19.38,-30.74"/>
<polygon fill="#63b8ff" stroke="#63b8ff" points="22.87,-31.08 19.49,-21.04 15.87,-31 22.87,-31.08"/>
</a>
</g>
</g>
<!-- Node5 -->
<g id="Node000005" class="node">
<title>Node5</title>
<g id="a_Node000005"><a xlink:title=" ">
<polygon fill="#e0e0e0" stroke="#999999" points="209.25,-19.25 158.75,-19.25 158.75,0 209.25,0 209.25,-19.25"/>
<text text-anchor="middle" x="184" y="-5.75" font-family="Helvetica,sans-Serif" font-size="10.00">memory</text>
</a>
</g>
</g>
<!-- Node1&#45;&gt;Node5 -->
<g id="edge20_Node000001_Node000005" class="edge">
<title>Node1&#45;&gt;Node5</title>
<g id="a_edge20_Node000001_Node000005"><a xlink:title=" ">
<path fill="none" stroke="#63b8ff" d="M261.82,-220.79C242.23,-199.96 213.41,-165.48 199,-129.75 185.78,-96.98 183.49,-55.37 183.45,-31"/>
<polygon fill="#63b8ff" stroke="#63b8ff" points="186.95,-31.24 183.58,-21.2 179.95,-31.15 186.95,-31.24"/>
</a>
</g>
</g>
<!-- Node7 -->
<g id="Node000007" class="node">
<title>Node7</title>
<g id="a_Node000007"><a xlink:href="msghandler_8hpp.html" target="_top" xlink:title=" ">
<polygon fill="white" stroke="#666666" points="399.5,-185 296.5,-185 296.5,-165.75 399.5,-165.75 399.5,-185"/>
<text text-anchor="middle" x="348" y="-171.5" font-family="Helvetica,sans-Serif" font-size="10.00">dbe/msghandler.hpp</text>
</a>
</g>
</g>
<!-- Node1&#45;&gt;Node7 -->
<g id="edge7_Node000001_Node000007" class="edge">
<title>Node1&#45;&gt;Node7</title>
<g id="a_edge7_Node000001_Node000007"><a xlink:title=" ">
<path fill="none" stroke="#63b8ff" d="M302.52,-220.82C311.51,-212.04 321.94,-201.84 330.55,-193.43"/>
<polygon fill="#63b8ff" stroke="#63b8ff" points="332.93,-196 337.64,-186.5 328.04,-190.99 332.93,-196"/>
</a>
</g>
</g>
<!-- Node8 -->
<g id="Node000008" class="node">
<title>Node8</title>
<g id="a_Node000008"><a xlink:title=" ">
<polygon fill="#e0e0e0" stroke="#999999" points="250.12,-129.75 207.88,-129.75 207.88,-110.5 250.12,-110.5 250.12,-129.75"/>
<text text-anchor="middle" x="229" y="-116.25" font-family="Helvetica,sans-Serif" font-size="10.00">mutex</text>
</a>
</g>
</g>
<!-- Node1&#45;&gt;Node8 -->
<g id="edge21_Node000001_Node000008" class="edge">
<title>Node1&#45;&gt;Node8</title>
<g id="a_edge21_Node000001_Node000008"><a xlink:title=" ">
<path fill="none" stroke="#63b8ff" d="M273.01,-220.56C263.1,-198.16 247.26,-162.39 237.54,-140.41"/>
<polygon fill="#63b8ff" stroke="#63b8ff" points="240.81,-139.17 233.57,-131.44 234.41,-142 240.81,-139.17"/>
</a>
</g>
</g>
<!-- Node17 -->
<g id="Node000017" class="node">
<title>Node17</title>
<g id="a_Node000017"><a xlink:title=" ">
<polygon fill="#e0e0e0" stroke="#999999" points="494.75,-185 417.25,-185 417.25,-165.75 494.75,-165.75 494.75,-185"/>
<text text-anchor="middle" x="456" y="-171.5" font-family="Helvetica,sans-Serif" font-size="10.00">unordered_set</text>
</a>
</g>
</g>
<!-- Node1&#45;&gt;Node17 -->
<g id="edge22_Node000001_Node000017" class="edge">
<title>Node1&#45;&gt;Node17</title>
<g id="a_edge22_Node000001_Node000017"><a xlink:title=" ">
<path fill="none" stroke="#63b8ff" d="M336.58,-220.64C364.23,-210.39 396.99,-198.25 421.2,-189.28"/>
<polygon fill="#63b8ff" stroke="#63b8ff" points="422.09,-192.68 430.25,-185.92 419.66,-186.11 422.09,-192.68"/>
</a>
</g>
</g>
<!-- Node18 -->
<g id="Node000018" class="node">
<title>Node18</title>
<g id="a_Node000018"><a xlink:title=" ">
<polygon fill="#e0e0e0" stroke="#999999" points="549.5,-185 512.5,-185 512.5,-165.75 549.5,-165.75 549.5,-185"/>
<text text-anchor="middle" x="531" y="-171.5" font-family="Helvetica,sans-Serif" font-size="10.00">array</text>
</a>
</g>
</g>
<!-- Node1&#45;&gt;Node18 -->
<g id="edge23_Node000001_Node000018" class="edge">
<title>Node1&#45;&gt;Node18</title>
<g id="a_edge23_Node000001_Node000018"><a xlink:title=" ">
<path fill="none" stroke="#63b8ff" d="M350.8,-224.74C392.13,-214.77 445.98,-201.3 501.43,-185.62"/>
<polygon fill="#63b8ff" stroke="#63b8ff" points="502.05,-189.08 510.71,-182.97 500.13,-182.35 502.05,-189.08"/>
</a>
</g>
</g>
<!-- Node19 -->
<g id="Node000019" class="node">
<title>Node19</title>
<g id="a_Node000019"><a xlink:title=" ">
<polygon fill="#e0e0e0" stroke="#999999" points="612.62,-185 567.38,-185 567.38,-165.75 612.62,-165.75 612.62,-185"/>
<text text-anchor="middle" x="590" y="-171.5" font-family="Helvetica,sans-Serif" font-size="10.00">atomic</text>
</a>
</g>
</g>
<!-- Node1&#45;&gt;Node19 -->
<g id="edge24_Node000001_Node000019" class="edge">
<title>Node1&#45;&gt;Node19</title>
<g id="a_edge24_Node000001_Node000019"><a xlink:title=" ">
<path fill="none" stroke="#63b8ff" d="M351.17,-228.36C404.76,-218.34 481.07,-203.35 555.99,-185.6"/>
<polygon fill="#63b8ff" stroke="#63b8ff" points="556.64,-189.05 565.55,-183.32 555.01,-182.24 556.64,-189.05"/>
</a>
</g>
</g>
<!-- Node2&#45;&gt;Node3 -->
<g id="edge2_Node000002_Node000003" class="edge">
<title>Node2&#45;&gt;Node3</title>
<g id="a_edge2_Node000002_Node000003"><a xlink:title=" ">
<path fill="none" stroke="#63b8ff" d="M84.61,-110.04C69.92,-102.51 50.7,-90.45 39,-74.5 29.67,-61.77 24.89,-44.47 22.46,-31.09"/>
<polygon fill="#63b8ff" stroke="#63b8ff" points="25.92,-30.61 21,-21.23 19,-31.63 25.92,-30.61"/>
</a>
</g>
</g>
<!-- Node4 -->
<g id="Node000004" class="node">
<title>Node4</title>
<g id="a_Node000004"><a xlink:href="convenience_8hpp.html" target="_top" xlink:title=" ">
<polygon fill="white" stroke="#666666" points="155.75,-74.5 48.25,-74.5 48.25,-55.25 155.75,-55.25 155.75,-74.5"/>
<text text-anchor="middle" x="102" y="-61" font-family="Helvetica,sans-Serif" font-size="10.00">dbe/convenience.hpp</text>
</a>
</g>
</g>
<!-- Node2&#45;&gt;Node4 -->
<g id="edge3_Node000002_Node000004" class="edge">
<title>Node2&#45;&gt;Node4</title>
<g id="a_edge3_Node000002_Node000004"><a xlink:title=" ">
<path fill="none" stroke="#63b8ff" d="M104.5,-110.33C104.13,-103.74 103.61,-94.46 103.14,-86.07"/>
<polygon fill="#63b8ff" stroke="#63b8ff" points="106.65,-86.16 102.59,-76.37 99.66,-86.55 106.65,-86.16"/>
</a>
</g>
</g>
<!-- Node4&#45;&gt;Node3 -->
<g id="edge5_Node000004_Node000003" class="edge">
<title>Node4&#45;&gt;Node3</title>
<g id="a_edge5_Node000004_Node000003"><a xlink:title=" ">
<path fill="none" stroke="#63b8ff" d="M88.09,-54.84C75.84,-46.89 57.75,-35.14 43.29,-25.75"/>
<polygon fill="#63b8ff" stroke="#63b8ff" points="45.54,-23.04 35.25,-20.53 41.73,-28.91 45.54,-23.04"/>
</a>
</g>
</g>
<!-- Node4&#45;&gt;Node5 -->
<g id="edge4_Node000004_Node000005" class="edge">
<title>Node4&#45;&gt;Node5</title>
<g id="a_edge4_Node000004_Node000005"><a xlink:title=" ">
<path fill="none" stroke="#63b8ff" d="M115.91,-54.84C128.16,-46.89 146.25,-35.14 160.71,-25.75"/>
<polygon fill="#63b8ff" stroke="#63b8ff" points="162.27,-28.91 168.75,-20.53 158.46,-23.04 162.27,-28.91"/>
</a>
</g>
</g>
<!-- Node6 -->
<g id="Node000006" class="node">
<title>Node6</title>
<g id="a_Node000006"><a xlink:title=" ">
<polygon fill="#e0e0e0" stroke="#999999" points="126.88,-19.25 77.12,-19.25 77.12,0 126.88,0 126.88,-19.25"/>
<text text-anchor="middle" x="102" y="-5.75" font-family="Helvetica,sans-Serif" font-size="10.00">typeinfo</text>
</a>
</g>
</g>
<!-- Node4&#45;&gt;Node6 -->
<g id="edge6_Node000004_Node000006" class="edge">
<title>Node4&#45;&gt;Node6</title>
<g id="a_edge6_Node000004_Node000006"><a xlink:title=" ">
<path fill="none" stroke="#63b8ff" d="M102,-55.08C102,-48.57 102,-39.42 102,-31.12"/>
<polygon fill="#63b8ff" stroke="#63b8ff" points="105.5,-31.12 102,-21.12 98.5,-31.12 105.5,-31.12"/>
</a>
</g>
</g>
<!-- Node7&#45;&gt;Node2 -->
<g id="edge16_Node000007_Node000002" class="edge">
<title>Node7&#45;&gt;Node2</title>
<g id="a_edge16_Node000007_Node000002"><a xlink:title=" ">
<path fill="none" stroke="#63b8ff" d="M306.5,-165.28C264.98,-156.18 201.01,-142.16 156.32,-132.37"/>
<polygon fill="#63b8ff" stroke="#63b8ff" points="157.11,-128.96 146.59,-130.24 155.61,-135.8 157.11,-128.96"/>
</a>
</g>
</g>
<!-- Node7&#45;&gt;Node5 -->
<g id="edge8_Node000007_Node000005" class="edge">
<title>Node7&#45;&gt;Node5</title>
<g id="a_edge8_Node000007_Node000005"><a xlink:title=" ">
<path fill="none" stroke="#63b8ff" d="M399.73,-166.38C467.93,-155.61 580.04,-136.93 586,-129.75 591.46,-123.17 587.93,-118.84 586,-110.5 579.84,-83.87 581.29,-71.07 559,-55.25 505.31,-17.13 304.99,-11.36 221.21,-10.64"/>
<polygon fill="#63b8ff" stroke="#63b8ff" points="221.26,-7.14 211.24,-10.58 221.22,-14.14 221.26,-7.14"/>
</a>
</g>
</g>
<!-- Node7&#45;&gt;Node8 -->
<g id="edge9_Node000007_Node000008" class="edge">
<title>Node7&#45;&gt;Node8</title>
<g id="a_edge9_Node000007_Node000008"><a xlink:title=" ">
<path fill="none" stroke="#63b8ff" d="M327.81,-165.34C309.09,-156.97 280.98,-144.38 259.52,-134.78"/>
<polygon fill="#63b8ff" stroke="#63b8ff" points="261.22,-131.71 250.67,-130.82 258.37,-138.1 261.22,-131.71"/>
</a>
</g>
</g>
<!-- Node9 -->
<g id="Node000009" class="node">
<title>Node9</title>
<g id="a_Node000009"><a xlink:title=" ">
<polygon fill="#e0e0e0" stroke="#999999" points="676.5,-129.75 633.5,-129.75 633.5,-110.5 676.5,-110.5 676.5,-129.75"/>
<text text-anchor="middle" x="655" y="-116.25" font-family="Helvetica,sans-Serif" font-size="10.00">thread</text>
</a>
</g>
</g>
<!-- Node7&#45;&gt;Node9 -->
<g id="edge10_Node000007_Node000009" class="edge">
<title>Node7&#45;&gt;Node9</title>
<g id="a_edge10_Node000007_Node000009"><a xlink:title=" ">
<path fill="none" stroke="#63b8ff" d="M399.94,-166.28C466.48,-155.83 578.1,-138.01 619,-129.75 620.17,-129.51 621.35,-129.27 622.55,-129.01"/>
<polygon fill="#63b8ff" stroke="#63b8ff" points="622.89,-132.52 631.88,-126.91 621.35,-125.7 622.89,-132.52"/>
</a>
</g>
</g>
<!-- Node10 -->
<g id="Node000010" class="node">
<title>Node10</title>
<g id="a_Node000010"><a xlink:title=" ">
<polygon fill="#e0e0e0" stroke="#999999" points="789,-129.75 695,-129.75 695,-110.5 789,-110.5 789,-129.75"/>
<text text-anchor="middle" x="742" y="-116.25" font-family="Helvetica,sans-Serif" font-size="10.00">condition_variable</text>
</a>
</g>
</g>
<!-- Node7&#45;&gt;Node10 -->
<g id="edge11_Node000007_Node000010" class="edge">
<title>Node7&#45;&gt;Node10</title>
<g id="a_edge11_Node000007_Node000010"><a xlink:title=" ">
<path fill="none" stroke="#63b8ff" d="M399.7,-166.9C402.51,-166.5 405.29,-166.12 408,-165.75 527.82,-149.38 560.74,-147.34 683.31,-130.1"/>
<polygon fill="#63b8ff" stroke="#63b8ff" points="683.74,-133.58 693.16,-128.71 682.77,-126.64 683.74,-133.58"/>
</a>
</g>
</g>
<!-- Node11 -->
<g id="Node000011" class="node">
<title>Node11</title>
<g id="a_Node000011"><a xlink:title=" ">
<polygon fill="#e0e0e0" stroke="#999999" points="849.12,-129.75 806.88,-129.75 806.88,-110.5 849.12,-110.5 849.12,-129.75"/>
<text text-anchor="middle" x="828" y="-116.25" font-family="Helvetica,sans-Serif" font-size="10.00">queue</text>
</a>
</g>
</g>
<!-- Node7&#45;&gt;Node11 -->
<g id="edge12_Node000007_Node000011" class="edge">
<title>Node7&#45;&gt;Node11</title>
<g id="a_edge12_Node000007_Node000011"><a xlink:title=" ">
<path fill="none" stroke="#63b8ff" d="M399.69,-166.77C402.5,-166.41 405.28,-166.07 408,-165.75 577.24,-145.79 624.94,-161.26 795.35,-129.92"/>
<polygon fill="#63b8ff" stroke="#63b8ff" points="795.81,-133.39 805,-128.11 794.53,-126.51 795.81,-133.39"/>
</a>
</g>
</g>
<!-- Node12 -->
<g id="Node000012" class="node">
<title>Node12</title>
<g id="a_Node000012"><a xlink:title=" ">
<polygon fill="#e0e0e0" stroke="#999999" points="317.5,-129.75 268.5,-129.75 268.5,-110.5 317.5,-110.5 317.5,-129.75"/>
<text text-anchor="middle" x="293" y="-116.25" font-family="Helvetica,sans-Serif" font-size="10.00">fstream</text>
</a>
</g>
</g>
<!-- Node7&#45;&gt;Node12 -->
<g id="edge13_Node000007_Node000012" class="edge">
<title>Node7&#45;&gt;Node12</title>
<g id="a_edge13_Node000007_Node000012"><a xlink:title=" ">
<path fill="none" stroke="#63b8ff" d="M338.92,-165.58C331.16,-158.07 319.79,-147.06 310.3,-137.88"/>
<polygon fill="#63b8ff" stroke="#63b8ff" points="312.99,-135.6 303.37,-131.16 308.12,-140.63 312.99,-135.6"/>
</a>
</g>
</g>
<!-- Node13 -->
<g id="Node000013" class="node">
<title>Node13</title>
<g id="a_Node000013"><a xlink:title=" ">
<polygon fill="#e0e0e0" stroke="#999999" points="388.75,-129.75 335.25,-129.75 335.25,-110.5 388.75,-110.5 388.75,-129.75"/>
<text text-anchor="middle" x="362" y="-116.25" font-family="Helvetica,sans-Serif" font-size="10.00">iostream</text>
</a>
</g>
</g>
<!-- Node7&#45;&gt;Node13 -->
<g id="edge14_Node000007_Node000013" class="edge">
<title>Node7&#45;&gt;Node13</title>
<g id="a_edge14_Node000007_Node000013"><a xlink:title=" ">
<path fill="none" stroke="#63b8ff" d="M350.31,-165.58C352.06,-158.92 354.54,-149.49 356.77,-141.03"/>
<polygon fill="#63b8ff" stroke="#63b8ff" points="360.1,-142.13 359.25,-131.57 353.33,-140.35 360.1,-142.13"/>
</a>
</g>
</g>
<!-- Node14 -->
<g id="Node000014" class="node">
<title>Node14</title>
<g id="a_Node000014"><a xlink:title=" ">
<polygon fill="#e0e0e0" stroke="#999999" points="449.5,-129.75 406.5,-129.75 406.5,-110.5 449.5,-110.5 449.5,-129.75"/>
<text text-anchor="middle" x="428" y="-116.25" font-family="Helvetica,sans-Serif" font-size="10.00">vector</text>
</a>
</g>
</g>
<!-- Node7&#45;&gt;Node14 -->
<g id="edge15_Node000007_Node000014" class="edge">
<title>Node7&#45;&gt;Node14</title>
<g id="a_edge15_Node000007_Node000014"><a xlink:title=" ">
<path fill="none" stroke="#63b8ff" d="M361.57,-165.34C373.41,-157.46 390.84,-145.86 404.87,-136.52"/>
<polygon fill="#63b8ff" stroke="#63b8ff" points="406.72,-139.5 413.1,-131.04 402.84,-133.67 406.72,-139.5"/>
</a>
</g>
</g>
<!-- Node15 -->
<g id="Node000015" class="node">
<title>Node15</title>
<g id="a_Node000015"><a xlink:href="msghandler_8hxx.html" target="_top" xlink:title=" ">
<polygon fill="white" stroke="#666666" points="576.5,-129.75 467.5,-129.75 467.5,-110.5 576.5,-110.5 576.5,-129.75"/>
<text text-anchor="middle" x="522" y="-116.25" font-family="Helvetica,sans-Serif" font-size="10.00">detail/msghandler.hxx</text>
</a>
</g>
</g>
<!-- Node7&#45;&gt;Node15 -->
<g id="edge17_Node000007_Node000015" class="edge">
<title>Node7&#45;&gt;Node15</title>
<g id="a_edge17_Node000007_Node000015"><a xlink:title=" ">
<path fill="none" stroke="#63b8ff" d="M377.52,-165.34C406.14,-156.58 449.78,-143.23 481.62,-133.48"/>
<polygon fill="#63b8ff" stroke="#63b8ff" points="482.35,-136.92 490.89,-130.65 480.3,-130.23 482.35,-136.92"/>
</a>
</g>
</g>
<!-- Node16 -->
<g id="Node000016" class="node">
<title>Node16</title>
<g id="a_Node000016"><a xlink:title=" ">
<polygon fill="#e0e0e0" stroke="#999999" points="549.88,-74.5 494.12,-74.5 494.12,-55.25 549.88,-55.25 549.88,-74.5"/>
<text text-anchor="middle" x="522" y="-61" font-family="Helvetica,sans-Serif" font-size="10.00">algorithm</text>
</a>
</g>
</g>
<!-- Node15&#45;&gt;Node16 -->
<g id="edge18_Node000015_Node000016" class="edge">
<title>Node15&#45;&gt;Node16</title>
<g id="a_edge18_Node000015_Node000016"><a xlink:title=" ">
<path fill="none" stroke="#63b8ff" d="M522,-110.33C522,-103.82 522,-94.67 522,-86.37"/>
<polygon fill="#63b8ff" stroke="#63b8ff" points="525.5,-86.37 522,-76.37 518.5,-86.37 525.5,-86.37"/>
</a>
</g>
</g>
</g>
</svg>
