<?xml version="1.0" encoding="UTF-8" standalone="no"?>
<!DOCTYPE svg PUBLIC "-//W3C//DTD SVG 1.1//EN"
 "http://www.w3.org/Graphics/SVG/1.1/DTD/svg11.dtd">
<!-- Generated by graphviz version 9.0.0 (20230911.1827)
 -->
<!-- Title: /github/workspace/dev_area/sourcecode/oks/include/oks/method.hpp Pages: 1 -->
<svg width="3368pt" height="317pt"
 viewBox="0.00 0.00 3367.75 316.75" xmlns="http://www.w3.org/2000/svg" xmlns:xlink="http://www.w3.org/1999/xlink">
<g id="graph0" class="graph" transform="scale(1 1) rotate(0) translate(4 312.75)">
<title>/github/workspace/dev_area/sourcecode/oks/include/oks/method.hpp</title>
<!-- Node1 -->
<g id="Node000001" class="node">
<title>Node1</title>
<g id="a_Node000001"><a xlink:title=" ">
<polygon fill="#999999" stroke="#666666" points="2588.12,-308.75 2466.38,-308.75 2466.38,-267 2588.12,-267 2588.12,-308.75"/>
<text text-anchor="start" x="2474.38" y="-295.25" font-family="Helvetica,sans-Serif" font-size="10.00">/github/workspace/dev</text>
<text text-anchor="start" x="2474.38" y="-284" font-family="Helvetica,sans-Serif" font-size="10.00">_area/sourcecode/oks</text>
<text text-anchor="middle" x="2527.25" y="-272.75" font-family="Helvetica,sans-Serif" font-size="10.00">/include/oks/method.hpp</text>
</a>
</g>
</g>
<!-- Node2 -->
<g id="Node000002" class="node">
<title>Node2</title>
<g id="a_Node000002"><a xlink:href="SchemaGraphicObject_8cpp.html" target="_top" xlink:title=" ">
<polygon fill="white" stroke="#666666" points="176.5,-53 0,-53 0,0 176.5,0 176.5,-53"/>
<text text-anchor="start" x="8" y="-39.5" font-family="Helvetica,sans-Serif" font-size="10.00">/github/workspace/dev</text>
<text text-anchor="start" x="8" y="-28.25" font-family="Helvetica,sans-Serif" font-size="10.00">_area/sourcecode/dbe</text>
<text text-anchor="start" x="8" y="-17" font-family="Helvetica,sans-Serif" font-size="10.00">/apps/SchemaEditor/SchemaGraphic</text>
<text text-anchor="middle" x="88.25" y="-5.75" font-family="Helvetica,sans-Serif" font-size="10.00">Object.cpp</text>
</a>
</g>
</g>
<!-- Node1&#45;&gt;Node2 -->
<g id="edge1_Node000001_Node000002" class="edge">
<title>Node1&#45;&gt;Node2</title>
<g id="a_edge1_Node000001_Node000002"><a xlink:title=" ">
<path fill="none" stroke="#63b8ff" d="M2454.83,-284.96C2275.94,-279.87 1798.89,-264.07 1402.25,-231 1063.78,-202.78 978.86,-194.21 643.25,-142 438.35,-110.12 387.41,-99.16 185.25,-53 182.53,-52.38 179.78,-51.74 177,-51.08"/>
<polygon fill="#63b8ff" stroke="#63b8ff" points="2454.57,-288.46 2464.67,-285.24 2454.77,-281.46 2454.57,-288.46"/>
</a>
</g>
</g>
<!-- Node3 -->
<g id="Node000003" class="node">
<title>Node3</title>
<g id="a_Node000003"><a xlink:href="SchemaCommand_8hpp.html" target="_top" xlink:title=" ">
<polygon fill="white" stroke="#666666" points="1581.12,-225.38 1411.38,-225.38 1411.38,-183.62 1581.12,-183.62 1581.12,-225.38"/>
<text text-anchor="start" x="1419.38" y="-211.88" font-family="Helvetica,sans-Serif" font-size="10.00">/github/workspace/dev</text>
<text text-anchor="start" x="1419.38" y="-200.62" font-family="Helvetica,sans-Serif" font-size="10.00">_area/sourcecode/dbe</text>
<text text-anchor="middle" x="1496.25" y="-189.38" font-family="Helvetica,sans-Serif" font-size="10.00">/include/dbe/SchemaCommand.hpp</text>
</a>
</g>
</g>
<!-- Node1&#45;&gt;Node3 -->
<g id="edge2_Node000001_Node000003" class="edge">
<title>Node1&#45;&gt;Node3</title>
<g id="a_edge2_Node000001_Node000003"><a xlink:title=" ">
<path fill="none" stroke="#63b8ff" d="M2455.01,-281.17C2270.06,-266.58 1780.05,-227.9 1581.55,-212.23"/>
<polygon fill="#63b8ff" stroke="#63b8ff" points="2454.47,-284.64 2464.72,-281.94 2455.02,-277.66 2454.47,-284.64"/>
</a>
</g>
</g>
<!-- Node19 -->
<g id="Node000019" class="node">
<title>Node19</title>
<g id="a_Node000019"><a xlink:href="SchemaCustomMethodImplementationModel_8hpp.html" target="_top" xlink:title=" ">
<polygon fill="white" stroke="#666666" points="2419,-231 2245.5,-231 2245.5,-178 2419,-178 2419,-231"/>
<text text-anchor="start" x="2253.5" y="-217.5" font-family="Helvetica,sans-Serif" font-size="10.00">/github/workspace/dev</text>
<text text-anchor="start" x="2253.5" y="-206.25" font-family="Helvetica,sans-Serif" font-size="10.00">_area/sourcecode/dbe</text>
<text text-anchor="start" x="2253.5" y="-195" font-family="Helvetica,sans-Serif" font-size="10.00">/include/dbe/SchemaCustomMethod</text>
<text text-anchor="middle" x="2332.25" y="-183.75" font-family="Helvetica,sans-Serif" font-size="10.00">ImplementationModel.hpp</text>
</a>
</g>
</g>
<!-- Node1&#45;&gt;Node19 -->
<g id="edge20_Node000001_Node000019" class="edge">
<title>Node1&#45;&gt;Node19</title>
<g id="a_edge20_Node000001_Node000019"><a xlink:title=" ">
<path fill="none" stroke="#63b8ff" d="M2468.09,-262.19C2444.76,-252.45 2417.94,-241.26 2394.33,-231.41"/>
<polygon fill="#63b8ff" stroke="#63b8ff" points="2466.57,-265.35 2477.15,-265.97 2469.27,-258.89 2466.57,-265.35"/>
</a>
</g>
</g>
<!-- Node21 -->
<g id="Node000021" class="node">
<title>Node21</title>
<g id="a_Node000021"><a xlink:href="SchemaMethodEditor_8hpp.html" target="_top" xlink:title=" ">
<polygon fill="white" stroke="#666666" points="2621.5,-136.38 2439,-136.38 2439,-94.62 2621.5,-94.62 2621.5,-136.38"/>
<text text-anchor="start" x="2447" y="-122.88" font-family="Helvetica,sans-Serif" font-size="10.00">/github/workspace/dev</text>
<text text-anchor="start" x="2447" y="-111.62" font-family="Helvetica,sans-Serif" font-size="10.00">_area/sourcecode/dbe</text>
<text text-anchor="middle" x="2530.25" y="-100.38" font-family="Helvetica,sans-Serif" font-size="10.00">/include/dbe/SchemaMethodEditor.hpp</text>
</a>
</g>
</g>
<!-- Node1&#45;&gt;Node21 -->
<g id="edge31_Node000001_Node000021" class="edge">
<title>Node1&#45;&gt;Node21</title>
<g id="a_edge31_Node000001_Node000021"><a xlink:title=" ">
<path fill="none" stroke="#63b8ff" d="M2490.68,-258.84C2482.8,-250.79 2475.55,-241.36 2471.25,-231 2462.22,-209.24 2462.46,-199.85 2471.25,-178 2477.76,-161.8 2490.81,-147.47 2502.98,-136.72"/>
<polygon fill="#63b8ff" stroke="#63b8ff" points="2488.25,-261.35 2497.93,-265.66 2493.05,-256.26 2488.25,-261.35"/>
</a>
</g>
</g>
<!-- Node22 -->
<g id="Node000022" class="node">
<title>Node22</title>
<g id="a_Node000022"><a xlink:href="SchemaCustomMethodModel_8hpp.html" target="_top" xlink:title=" ">
<polygon fill="white" stroke="#666666" points="2224,-231 2050.5,-231 2050.5,-178 2224,-178 2224,-231"/>
<text text-anchor="start" x="2058.5" y="-217.5" font-family="Helvetica,sans-Serif" font-size="10.00">/github/workspace/dev</text>
<text text-anchor="start" x="2058.5" y="-206.25" font-family="Helvetica,sans-Serif" font-size="10.00">_area/sourcecode/dbe</text>
<text text-anchor="start" x="2058.5" y="-195" font-family="Helvetica,sans-Serif" font-size="10.00">/include/dbe/SchemaCustomMethod</text>
<text text-anchor="middle" x="2137.25" y="-183.75" font-family="Helvetica,sans-Serif" font-size="10.00">Model.hpp</text>
</a>
</g>
</g>
<!-- Node1&#45;&gt;Node22 -->
<g id="edge25_Node000001_Node000022" class="edge">
<title>Node1&#45;&gt;Node22</title>
<g id="a_edge25_Node000001_Node000022"><a xlink:title=" ">
<path fill="none" stroke="#63b8ff" d="M2454.91,-274.28C2395.88,-263.69 2310.4,-247.65 2236.25,-231 2232.35,-230.13 2228.38,-229.21 2224.37,-228.26"/>
<polygon fill="#63b8ff" stroke="#63b8ff" points="2454.04,-277.68 2464.5,-275.99 2455.27,-270.79 2454.04,-277.68"/>
</a>
</g>
</g>
<!-- Node25 -->
<g id="Node000025" class="node">
<title>Node25</title>
<g id="a_Node000025"><a xlink:href="SchemaMethodImplementationEditor_8hpp.html" target="_top" xlink:title=" ">
<polygon fill="white" stroke="#666666" points="2846.5,-142 2640,-142 2640,-89 2846.5,-89 2846.5,-142"/>
<text text-anchor="start" x="2648" y="-128.5" font-family="Helvetica,sans-Serif" font-size="10.00">/github/workspace/dev</text>
<text text-anchor="start" x="2648" y="-117.25" font-family="Helvetica,sans-Serif" font-size="10.00">_area/sourcecode/dbe</text>
<text text-anchor="start" x="2648" y="-106" font-family="Helvetica,sans-Serif" font-size="10.00">/include/dbe/SchemaMethodImplementation</text>
<text text-anchor="middle" x="2743.25" y="-94.75" font-family="Helvetica,sans-Serif" font-size="10.00">Editor.hpp</text>
</a>
</g>
</g>
<!-- Node1&#45;&gt;Node25 -->
<g id="edge32_Node000001_Node000025" class="edge">
<title>Node1&#45;&gt;Node25</title>
<g id="a_edge32_Node000001_Node000025"><a xlink:title=" ">
<path fill="none" stroke="#63b8ff" d="M2508.88,-256.78C2497.05,-233.11 2486.82,-200.48 2504.25,-178 2508.75,-172.19 2577.13,-154.93 2639.59,-140.17"/>
<polygon fill="#63b8ff" stroke="#63b8ff" points="2505.64,-258.14 2513.44,-265.3 2511.81,-254.84 2505.64,-258.14"/>
</a>
</g>
</g>
<!-- Node26 -->
<g id="Node000026" class="node">
<title>Node26</title>
<g id="a_Node000026"><a xlink:href="class_8cpp.html" target="_top" xlink:title=" ">
<polygon fill="white" stroke="#666666" points="2627.38,-225.38 2513.12,-225.38 2513.12,-183.62 2627.38,-183.62 2627.38,-225.38"/>
<text text-anchor="start" x="2521.12" y="-211.88" font-family="Helvetica,sans-Serif" font-size="10.00">/github/workspace/dev</text>
<text text-anchor="start" x="2521.12" y="-200.62" font-family="Helvetica,sans-Serif" font-size="10.00">_area/sourcecode/oks</text>
<text text-anchor="middle" x="2570.25" y="-189.38" font-family="Helvetica,sans-Serif" font-size="10.00">/src/class.cpp</text>
</a>
</g>
</g>
<!-- Node1&#45;&gt;Node26 -->
<g id="edge36_Node000001_Node000026" class="edge">
<title>Node1&#45;&gt;Node26</title>
<g id="a_edge36_Node000001_Node000026"><a xlink:title=" ">
<path fill="none" stroke="#63b8ff" d="M2543.13,-256.82C2548.62,-246.44 2554.63,-235.06 2559.59,-225.67"/>
<polygon fill="#63b8ff" stroke="#63b8ff" points="2540.16,-254.94 2538.59,-265.42 2546.35,-258.22 2540.16,-254.94"/>
</a>
</g>
</g>
<!-- Node27 -->
<g id="Node000027" class="node">
<title>Node27</title>
<g id="a_Node000027"><a xlink:href="kernel_8cpp.html" target="_top" xlink:title=" ">
<polygon fill="white" stroke="#666666" points="2759.38,-225.38 2645.12,-225.38 2645.12,-183.62 2759.38,-183.62 2759.38,-225.38"/>
<text text-anchor="start" x="2653.12" y="-211.88" font-family="Helvetica,sans-Serif" font-size="10.00">/github/workspace/dev</text>
<text text-anchor="start" x="2653.12" y="-200.62" font-family="Helvetica,sans-Serif" font-size="10.00">_area/sourcecode/oks</text>
<text text-anchor="middle" x="2702.25" y="-189.38" font-family="Helvetica,sans-Serif" font-size="10.00">/src/kernel.cpp</text>
</a>
</g>
</g>
<!-- Node1&#45;&gt;Node27 -->
<g id="edge37_Node000001_Node000027" class="edge">
<title>Node1&#45;&gt;Node27</title>
<g id="a_edge37_Node000001_Node000027"><a xlink:title=" ">
<path fill="none" stroke="#63b8ff" d="M2581.3,-261.74C2606.09,-250.22 2635.1,-236.73 2658.49,-225.85"/>
<polygon fill="#63b8ff" stroke="#63b8ff" points="2579.92,-258.52 2572.33,-265.91 2582.87,-264.87 2579.92,-258.52"/>
</a>
</g>
</g>
<!-- Node28 -->
<g id="Node000028" class="node">
<title>Node28</title>
<g id="a_Node000028"><a xlink:href="method_8cpp.html" target="_top" xlink:title=" ">
<polygon fill="white" stroke="#666666" points="2891.38,-225.38 2777.12,-225.38 2777.12,-183.62 2891.38,-183.62 2891.38,-225.38"/>
<text text-anchor="start" x="2785.12" y="-211.88" font-family="Helvetica,sans-Serif" font-size="10.00">/github/workspace/dev</text>
<text text-anchor="start" x="2785.12" y="-200.62" font-family="Helvetica,sans-Serif" font-size="10.00">_area/sourcecode/oks</text>
<text text-anchor="middle" x="2834.25" y="-189.38" font-family="Helvetica,sans-Serif" font-size="10.00">/src/method.cpp</text>
</a>
</g>
</g>
<!-- Node1&#45;&gt;Node28 -->
<g id="edge38_Node000001_Node000028" class="edge">
<title>Node1&#45;&gt;Node28</title>
<g id="a_edge38_Node000001_Node000028"><a xlink:title=" ">
<path fill="none" stroke="#63b8ff" d="M2599.81,-272.84C2648.02,-262.83 2712.47,-248.15 2768.25,-231 2773.3,-229.45 2778.51,-227.7 2783.7,-225.86"/>
<polygon fill="#63b8ff" stroke="#63b8ff" points="2599.12,-269.41 2590.03,-274.85 2600.53,-276.26 2599.12,-269.41"/>
</a>
</g>
</g>
<!-- Node29 -->
<g id="Node000029" class="node">
<title>Node29</title>
<g id="a_Node000029"><a xlink:href="oksdalgen_8cxx.html" target="_top" xlink:title=" ">
<polygon fill="white" stroke="#666666" points="3049.5,-225.38 2909,-225.38 2909,-183.62 3049.5,-183.62 3049.5,-225.38"/>
<text text-anchor="start" x="2917" y="-211.88" font-family="Helvetica,sans-Serif" font-size="10.00">/github/workspace/dev</text>
<text text-anchor="start" x="2917" y="-200.62" font-family="Helvetica,sans-Serif" font-size="10.00">_area/sourcecode/oksdalgen</text>
<text text-anchor="middle" x="2979.25" y="-189.38" font-family="Helvetica,sans-Serif" font-size="10.00">/apps/oksdalgen.cxx</text>
</a>
</g>
</g>
<!-- Node1&#45;&gt;Node29 -->
<g id="edge39_Node000001_Node000029" class="edge">
<title>Node1&#45;&gt;Node29</title>
<g id="a_edge39_Node000001_Node000029"><a xlink:title=" ">
<path fill="none" stroke="#63b8ff" d="M2599.84,-279.56C2675.49,-271.11 2797.17,-255.19 2900.25,-231 2906.7,-229.49 2913.39,-227.69 2920.01,-225.77"/>
<polygon fill="#63b8ff" stroke="#63b8ff" points="2599.62,-276.06 2590.07,-280.64 2600.39,-283.02 2599.62,-276.06"/>
</a>
</g>
</g>
<!-- Node30 -->
<g id="Node000030" class="node">
<title>Node30</title>
<g id="a_Node000030"><a xlink:href="utils_8cpp.html" target="_top" xlink:title=" ">
<polygon fill="white" stroke="#666666" points="3208.5,-225.38 3068,-225.38 3068,-183.62 3208.5,-183.62 3208.5,-225.38"/>
<text text-anchor="start" x="3076" y="-211.88" font-family="Helvetica,sans-Serif" font-size="10.00">/github/workspace/dev</text>
<text text-anchor="start" x="3076" y="-200.62" font-family="Helvetica,sans-Serif" font-size="10.00">_area/sourcecode/oksdalgen</text>
<text text-anchor="middle" x="3138.25" y="-189.38" font-family="Helvetica,sans-Serif" font-size="10.00">/apps/utils.cpp</text>
</a>
</g>
</g>
<!-- Node1&#45;&gt;Node30 -->
<g id="edge40_Node000001_Node000030" class="edge">
<title>Node1&#45;&gt;Node30</title>
<g id="a_edge40_Node000001_Node000030"><a xlink:title=" ">
<path fill="none" stroke="#63b8ff" d="M2599.89,-283.92C2702.83,-278.67 2896.64,-264.89 3058.25,-231 3065.1,-229.56 3072.19,-227.77 3079.2,-225.8"/>
<polygon fill="#63b8ff" stroke="#63b8ff" points="2599.72,-280.42 2589.91,-284.41 2600.07,-287.41 2599.72,-280.42"/>
</a>
</g>
</g>
<!-- Node31 -->
<g id="Node000031" class="node">
<title>Node31</title>
<g id="a_Node000031"><a xlink:href="oks__diff__schema_8cxx.html" target="_top" xlink:title=" ">
<polygon fill="white" stroke="#666666" points="3359.75,-225.38 3226.75,-225.38 3226.75,-183.62 3359.75,-183.62 3359.75,-225.38"/>
<text text-anchor="start" x="3234.75" y="-211.88" font-family="Helvetica,sans-Serif" font-size="10.00">/github/workspace/dev</text>
<text text-anchor="start" x="3234.75" y="-200.62" font-family="Helvetica,sans-Serif" font-size="10.00">_area/sourcecode/oksutils</text>
<text text-anchor="middle" x="3293.25" y="-189.38" font-family="Helvetica,sans-Serif" font-size="10.00">/apps/oks_diff_schema.cxx</text>
</a>
</g>
</g>
<!-- Node1&#45;&gt;Node31 -->
<g id="edge41_Node000001_Node000031" class="edge">
<title>Node1&#45;&gt;Node31</title>
<g id="a_edge41_Node000001_Node000031"><a xlink:title=" ">
<path fill="none" stroke="#63b8ff" d="M2599.84,-286.76C2726.49,-285.28 2995.48,-276.48 3217.25,-231 3223.93,-229.63 3230.84,-227.85 3237.64,-225.87"/>
<polygon fill="#63b8ff" stroke="#63b8ff" points="2599.88,-283.26 2589.92,-286.86 2599.95,-290.26 2599.88,-283.26"/>
</a>
</g>
</g>
<!-- Node4 -->
<g id="Node000004" class="node">
<title>Node4</title>
<g id="a_Node000004"><a xlink:href="SchemaCommand_8cpp.html" target="_top" xlink:title=" ">
<polygon fill="white" stroke="#666666" points="399.75,-47.38 194.75,-47.38 194.75,-5.62 399.75,-5.62 399.75,-47.38"/>
<text text-anchor="start" x="202.75" y="-33.88" font-family="Helvetica,sans-Serif" font-size="10.00">/github/workspace/dev</text>
<text text-anchor="start" x="202.75" y="-22.62" font-family="Helvetica,sans-Serif" font-size="10.00">_area/sourcecode/dbe</text>
<text text-anchor="middle" x="297.25" y="-11.38" font-family="Helvetica,sans-Serif" font-size="10.00">/apps/SchemaEditor/SchemaCommand.cpp</text>
</a>
</g>
</g>
<!-- Node3&#45;&gt;Node4 -->
<g id="edge3_Node000003_Node000004" class="edge">
<title>Node3&#45;&gt;Node4</title>
<g id="a_edge3_Node000003_Node000004"><a xlink:title=" ">
<path fill="none" stroke="#63b8ff" d="M1399.58,-192.95C1209.21,-171.56 772.67,-119.4 409.25,-53 400.72,-51.44 391.85,-49.68 383.01,-47.82"/>
<polygon fill="#63b8ff" stroke="#63b8ff" points="1399.11,-196.42 1409.43,-194.06 1399.89,-189.47 1399.11,-196.42"/>
</a>
</g>
</g>
<!-- Node5 -->
<g id="Node000005" class="node">
<title>Node5</title>
<g id="a_Node000005"><a xlink:href="SchemaKernelWrapper_8hpp.html" target="_top" xlink:title=" ">
<polygon fill="white" stroke="#666666" points="1590.88,-136.38 1401.62,-136.38 1401.62,-94.62 1590.88,-94.62 1590.88,-136.38"/>
<text text-anchor="start" x="1409.62" y="-122.88" font-family="Helvetica,sans-Serif" font-size="10.00">/github/workspace/dev</text>
<text text-anchor="start" x="1409.62" y="-111.62" font-family="Helvetica,sans-Serif" font-size="10.00">_area/sourcecode/dbe</text>
<text text-anchor="middle" x="1496.25" y="-100.38" font-family="Helvetica,sans-Serif" font-size="10.00">/include/dbe/SchemaKernelWrapper.hpp</text>
</a>
</g>
</g>
<!-- Node3&#45;&gt;Node5 -->
<g id="edge4_Node000003_Node000005" class="edge">
<title>Node3&#45;&gt;Node5</title>
<g id="a_edge4_Node000003_Node000005"><a xlink:title=" ">
<path fill="none" stroke="#63b8ff" d="M1496.25,-172.14C1496.25,-160.4 1496.25,-147.37 1496.25,-136.87"/>
<polygon fill="#63b8ff" stroke="#63b8ff" points="1492.75,-171.81 1496.25,-181.81 1499.75,-171.81 1492.75,-171.81"/>
</a>
</g>
</g>
<!-- Node5&#45;&gt;Node2 -->
<g id="edge12_Node000005_Node000002" class="edge">
<title>Node5&#45;&gt;Node2</title>
<g id="a_edge12_Node000005_Node000002"><a xlink:title=" ">
<path fill="none" stroke="#63b8ff" d="M1390.05,-112.4C1120.82,-106.6 416.59,-88.43 185.25,-53 182.5,-52.58 179.71,-52.11 176.9,-51.6"/>
<polygon fill="#63b8ff" stroke="#63b8ff" points="1389.79,-115.89 1399.87,-112.61 1389.94,-108.89 1389.79,-115.89"/>
</a>
</g>
</g>
<!-- Node5&#45;&gt;Node4 -->
<g id="edge7_Node000005_Node000004" class="edge">
<title>Node5&#45;&gt;Node4</title>
<g id="a_edge7_Node000005_Node000004"><a xlink:title=" ">
<path fill="none" stroke="#63b8ff" d="M1390.14,-107.88C1305.02,-102.62 1182.47,-95.14 1075.25,-89 779.3,-72.04 702.83,-94.05 409.25,-53 399.47,-51.63 389.29,-49.84 379.22,-47.84"/>
<polygon fill="#63b8ff" stroke="#63b8ff" points="1389.66,-111.36 1399.86,-108.48 1390.1,-104.37 1389.66,-111.36"/>
</a>
</g>
</g>
<!-- Node6 -->
<g id="Node000006" class="node">
<title>Node6</title>
<g id="a_Node000006"><a xlink:href="SchemaAttributeEditor_8cpp.html" target="_top" xlink:title=" ">
<polygon fill="white" stroke="#666666" points="1195,-53 1015.5,-53 1015.5,0 1195,0 1195,-53"/>
<text text-anchor="start" x="1023.5" y="-39.5" font-family="Helvetica,sans-Serif" font-size="10.00">/github/workspace/dev</text>
<text text-anchor="start" x="1023.5" y="-28.25" font-family="Helvetica,sans-Serif" font-size="10.00">_area/sourcecode/dbe</text>
<text text-anchor="start" x="1023.5" y="-17" font-family="Helvetica,sans-Serif" font-size="10.00">/apps/SchemaEditor/SchemaAttribute</text>
<text text-anchor="middle" x="1105.25" y="-5.75" font-family="Helvetica,sans-Serif" font-size="10.00">Editor.cpp</text>
</a>
</g>
</g>
<!-- Node5&#45;&gt;Node6 -->
<g id="edge5_Node000005_Node000006" class="edge">
<title>Node5&#45;&gt;Node6</title>
<g id="a_edge5_Node000005_Node000006"><a xlink:title=" ">
<path fill="none" stroke="#63b8ff" d="M1390.06,-93.32C1334.56,-81.95 1265.6,-67.35 1204.25,-53 1201.31,-52.31 1198.33,-51.6 1195.32,-50.88"/>
<polygon fill="#63b8ff" stroke="#63b8ff" points="1389.35,-96.75 1399.85,-95.32 1390.75,-89.89 1389.35,-96.75"/>
</a>
</g>
</g>
<!-- Node7 -->
<g id="Node000007" class="node">
<title>Node7</title>
<g id="a_Node000007"><a xlink:href="SchemaClassEditor_8cpp.html" target="_top" xlink:title=" ">
<polygon fill="white" stroke="#666666" points="2360,-53 2192.5,-53 2192.5,0 2360,0 2360,-53"/>
<text text-anchor="start" x="2200.5" y="-39.5" font-family="Helvetica,sans-Serif" font-size="10.00">/github/workspace/dev</text>
<text text-anchor="start" x="2200.5" y="-28.25" font-family="Helvetica,sans-Serif" font-size="10.00">_area/sourcecode/dbe</text>
<text text-anchor="start" x="2200.5" y="-17" font-family="Helvetica,sans-Serif" font-size="10.00">/apps/SchemaEditor/SchemaClass</text>
<text text-anchor="middle" x="2276.25" y="-5.75" font-family="Helvetica,sans-Serif" font-size="10.00">Editor.cpp</text>
</a>
</g>
</g>
<!-- Node5&#45;&gt;Node7 -->
<g id="edge6_Node000005_Node000007" class="edge">
<title>Node5&#45;&gt;Node7</title>
<g id="a_edge6_Node000005_Node000007"><a xlink:title=" ">
<path fill="none" stroke="#63b8ff" d="M1602.27,-107.33C1766.47,-95.84 2074.67,-72.58 2183.25,-53 2186.13,-52.48 2189.06,-51.91 2192,-51.3"/>
<polygon fill="#63b8ff" stroke="#63b8ff" points="1602.43,-103.81 1592.69,-108 1602.91,-110.8 1602.43,-103.81"/>
</a>
</g>
</g>
<!-- Node8 -->
<g id="Node000008" class="node">
<title>Node8</title>
<g id="a_Node000008"><a xlink:href="SchemaCustomFileModel_8cpp.html" target="_top" xlink:title=" ">
<polygon fill="white" stroke="#666666" points="1389.5,-53 1213,-53 1213,0 1389.5,0 1389.5,-53"/>
<text text-anchor="start" x="1221" y="-39.5" font-family="Helvetica,sans-Serif" font-size="10.00">/github/workspace/dev</text>
<text text-anchor="start" x="1221" y="-28.25" font-family="Helvetica,sans-Serif" font-size="10.00">_area/sourcecode/dbe</text>
<text text-anchor="start" x="1221" y="-17" font-family="Helvetica,sans-Serif" font-size="10.00">/apps/SchemaEditor/SchemaCustom</text>
<text text-anchor="middle" x="1301.25" y="-5.75" font-family="Helvetica,sans-Serif" font-size="10.00">FileModel.cpp</text>
</a>
</g>
</g>
<!-- Node5&#45;&gt;Node8 -->
<g id="edge8_Node000005_Node000008" class="edge">
<title>Node5&#45;&gt;Node8</title>
<g id="a_edge8_Node000005_Node000008"><a xlink:title=" ">
<path fill="none" stroke="#63b8ff" d="M1440.77,-89.75C1415.26,-78.37 1385,-64.87 1359.2,-53.35"/>
<polygon fill="#63b8ff" stroke="#63b8ff" points="1439.08,-92.83 1449.64,-93.71 1441.93,-86.43 1439.08,-92.83"/>
</a>
</g>
</g>
<!-- Node9 -->
<g id="Node000009" class="node">
<title>Node9</title>
<g id="a_Node000009"><a xlink:href="SchemaCustomModelInterface_8cpp.html" target="_top" xlink:title=" ">
<polygon fill="white" stroke="#666666" points="1584.5,-53 1408,-53 1408,0 1584.5,0 1584.5,-53"/>
<text text-anchor="start" x="1416" y="-39.5" font-family="Helvetica,sans-Serif" font-size="10.00">/github/workspace/dev</text>
<text text-anchor="start" x="1416" y="-28.25" font-family="Helvetica,sans-Serif" font-size="10.00">_area/sourcecode/dbe</text>
<text text-anchor="start" x="1416" y="-17" font-family="Helvetica,sans-Serif" font-size="10.00">/apps/SchemaEditor/SchemaCustom</text>
<text text-anchor="middle" x="1496.25" y="-5.75" font-family="Helvetica,sans-Serif" font-size="10.00">ModelInterface.cpp</text>
</a>
</g>
</g>
<!-- Node5&#45;&gt;Node9 -->
<g id="edge9_Node000005_Node000009" class="edge">
<title>Node5&#45;&gt;Node9</title>
<g id="a_edge9_Node000005_Node000009"><a xlink:title=" ">
<path fill="none" stroke="#63b8ff" d="M1496.25,-82.97C1496.25,-73.19 1496.25,-62.53 1496.25,-53.19"/>
<polygon fill="#63b8ff" stroke="#63b8ff" points="1492.75,-82.81 1496.25,-92.81 1499.75,-82.81 1492.75,-82.81"/>
</a>
</g>
</g>
<!-- Node10 -->
<g id="Node000010" class="node">
<title>Node10</title>
<g id="a_Node000010"><a xlink:href="SchemaCustomTableModel_8cpp.html" target="_top" xlink:title=" ">
<polygon fill="white" stroke="#666666" points="1779.5,-53 1603,-53 1603,0 1779.5,0 1779.5,-53"/>
<text text-anchor="start" x="1611" y="-39.5" font-family="Helvetica,sans-Serif" font-size="10.00">/github/workspace/dev</text>
<text text-anchor="start" x="1611" y="-28.25" font-family="Helvetica,sans-Serif" font-size="10.00">_area/sourcecode/dbe</text>
<text text-anchor="start" x="1611" y="-17" font-family="Helvetica,sans-Serif" font-size="10.00">/apps/SchemaEditor/SchemaCustom</text>
<text text-anchor="middle" x="1691.25" y="-5.75" font-family="Helvetica,sans-Serif" font-size="10.00">TableModel.cpp</text>
</a>
</g>
</g>
<!-- Node5&#45;&gt;Node10 -->
<g id="edge10_Node000005_Node000010" class="edge">
<title>Node5&#45;&gt;Node10</title>
<g id="a_edge10_Node000005_Node000010"><a xlink:title=" ">
<path fill="none" stroke="#63b8ff" d="M1551.73,-89.75C1577.24,-78.37 1607.5,-64.87 1633.3,-53.35"/>
<polygon fill="#63b8ff" stroke="#63b8ff" points="1550.57,-86.43 1542.86,-93.71 1553.42,-92.83 1550.57,-86.43"/>
</a>
</g>
</g>
<!-- Node11 -->
<g id="Node000011" class="node">
<title>Node11</title>
<g id="a_Node000011"><a xlink:href="SchemaGraphicArrow_8cpp.html" target="_top" xlink:title=" ">
<polygon fill="white" stroke="#666666" points="1974.5,-53 1798,-53 1798,0 1974.5,0 1974.5,-53"/>
<text text-anchor="start" x="1806" y="-39.5" font-family="Helvetica,sans-Serif" font-size="10.00">/github/workspace/dev</text>
<text text-anchor="start" x="1806" y="-28.25" font-family="Helvetica,sans-Serif" font-size="10.00">_area/sourcecode/dbe</text>
<text text-anchor="start" x="1806" y="-17" font-family="Helvetica,sans-Serif" font-size="10.00">/apps/SchemaEditor/SchemaGraphic</text>
<text text-anchor="middle" x="1886.25" y="-5.75" font-family="Helvetica,sans-Serif" font-size="10.00">Arrow.cpp</text>
</a>
</g>
</g>
<!-- Node5&#45;&gt;Node11 -->
<g id="edge11_Node000005_Node000011" class="edge">
<title>Node5&#45;&gt;Node11</title>
<g id="a_edge11_Node000005_Node000011"><a xlink:title=" ">
<path fill="none" stroke="#63b8ff" d="M1602.46,-93.38C1657.95,-82.03 1726.92,-67.43 1788.25,-53 1791.33,-52.28 1794.46,-51.53 1797.62,-50.76"/>
<polygon fill="#63b8ff" stroke="#63b8ff" points="1601.77,-89.95 1592.67,-95.38 1603.16,-96.81 1601.77,-89.95"/>
</a>
</g>
</g>
<!-- Node12 -->
<g id="Node000012" class="node">
<title>Node12</title>
<g id="a_Node000012"><a xlink:href="SchemaGraphicSegmentedArrow_8cpp.html" target="_top" xlink:title=" ">
<polygon fill="white" stroke="#666666" points="594.5,-53 418,-53 418,0 594.5,0 594.5,-53"/>
<text text-anchor="start" x="426" y="-39.5" font-family="Helvetica,sans-Serif" font-size="10.00">/github/workspace/dev</text>
<text text-anchor="start" x="426" y="-28.25" font-family="Helvetica,sans-Serif" font-size="10.00">_area/sourcecode/dbe</text>
<text text-anchor="start" x="426" y="-17" font-family="Helvetica,sans-Serif" font-size="10.00">/apps/SchemaEditor/SchemaGraphic</text>
<text text-anchor="middle" x="506.25" y="-5.75" font-family="Helvetica,sans-Serif" font-size="10.00">SegmentedArrow.cpp</text>
</a>
</g>
</g>
<!-- Node5&#45;&gt;Node12 -->
<g id="edge13_Node000005_Node000012" class="edge">
<title>Node5&#45;&gt;Node12</title>
<g id="a_edge13_Node000005_Node000012"><a xlink:title=" ">
<path fill="none" stroke="#63b8ff" d="M1390.28,-108.3C1170.66,-95.3 679.97,-65.35 604.25,-53 601.13,-52.49 597.96,-51.93 594.77,-51.32"/>
<polygon fill="#63b8ff" stroke="#63b8ff" points="1389.78,-111.78 1399.97,-108.88 1390.2,-104.79 1389.78,-111.78"/>
</a>
</g>
</g>
<!-- Node13 -->
<g id="Node000013" class="node">
<title>Node13</title>
<g id="a_Node000013"><a xlink:href="SchemaGraphicsScene_8cpp.html" target="_top" xlink:title=" ">
<polygon fill="white" stroke="#666666" points="2174.12,-53 1992.38,-53 1992.38,0 2174.12,0 2174.12,-53"/>
<text text-anchor="start" x="2000.38" y="-39.5" font-family="Helvetica,sans-Serif" font-size="10.00">/github/workspace/dev</text>
<text text-anchor="start" x="2000.38" y="-28.25" font-family="Helvetica,sans-Serif" font-size="10.00">_area/sourcecode/dbe</text>
<text text-anchor="start" x="2000.38" y="-17" font-family="Helvetica,sans-Serif" font-size="10.00">/apps/SchemaEditor/SchemaGraphics</text>
<text text-anchor="middle" x="2083.25" y="-5.75" font-family="Helvetica,sans-Serif" font-size="10.00">Scene.cpp</text>
</a>
</g>
</g>
<!-- Node5&#45;&gt;Node13 -->
<g id="edge14_Node000005_Node000013" class="edge">
<title>Node5&#45;&gt;Node13</title>
<g id="a_edge14_Node000005_Node000013"><a xlink:title=" ">
<path fill="none" stroke="#63b8ff" d="M1602.28,-104.94C1701.33,-95.1 1853.05,-77.72 1983.25,-53 1986.15,-52.45 1989.1,-51.86 1992.07,-51.25"/>
<polygon fill="#63b8ff" stroke="#63b8ff" points="1602.18,-101.43 1592.57,-105.89 1602.87,-108.4 1602.18,-101.43"/>
</a>
</g>
</g>
<!-- Node14 -->
<g id="Node000014" class="node">
<title>Node14</title>
<g id="a_Node000014"><a xlink:href="SchemaKernelWrapper_8cpp.html" target="_top" xlink:title=" ">
<polygon fill="white" stroke="#666666" points="783.5,-53 613,-53 613,0 783.5,0 783.5,-53"/>
<text text-anchor="start" x="621" y="-39.5" font-family="Helvetica,sans-Serif" font-size="10.00">/github/workspace/dev</text>
<text text-anchor="start" x="621" y="-28.25" font-family="Helvetica,sans-Serif" font-size="10.00">_area/sourcecode/dbe</text>
<text text-anchor="start" x="621" y="-17" font-family="Helvetica,sans-Serif" font-size="10.00">/apps/SchemaEditor/SchemaKernel</text>
<text text-anchor="middle" x="698.25" y="-5.75" font-family="Helvetica,sans-Serif" font-size="10.00">Wrapper.cpp</text>
</a>
</g>
</g>
<!-- Node5&#45;&gt;Node14 -->
<g id="edge15_Node000005_Node000014" class="edge">
<title>Node5&#45;&gt;Node14</title>
<g id="a_edge15_Node000005_Node000014"><a xlink:title=" ">
<path fill="none" stroke="#63b8ff" d="M1389.95,-107.54C1222.3,-96.17 904.06,-72.89 792.25,-53 789.5,-52.51 786.72,-51.98 783.92,-51.41"/>
<polygon fill="#63b8ff" stroke="#63b8ff" points="1389.54,-111.02 1399.75,-108.2 1390.01,-104.04 1389.54,-111.02"/>
</a>
</g>
</g>
<!-- Node15 -->
<g id="Node000015" class="node">
<title>Node15</title>
<g id="a_Node000015"><a xlink:href="SchemaMainWindow_8cpp.html" target="_top" xlink:title=" ">
<polygon fill="white" stroke="#666666" points="2542.12,-53 2378.38,-53 2378.38,0 2542.12,0 2542.12,-53"/>
<text text-anchor="start" x="2386.38" y="-39.5" font-family="Helvetica,sans-Serif" font-size="10.00">/github/workspace/dev</text>
<text text-anchor="start" x="2386.38" y="-28.25" font-family="Helvetica,sans-Serif" font-size="10.00">_area/sourcecode/dbe</text>
<text text-anchor="start" x="2386.38" y="-17" font-family="Helvetica,sans-Serif" font-size="10.00">/apps/SchemaEditor/SchemaMain</text>
<text text-anchor="middle" x="2460.25" y="-5.75" font-family="Helvetica,sans-Serif" font-size="10.00">Window.cpp</text>
</a>
</g>
</g>
<!-- Node5&#45;&gt;Node15 -->
<g id="edge16_Node000005_Node000015" class="edge">
<title>Node5&#45;&gt;Node15</title>
<g id="a_edge16_Node000005_Node000015"><a xlink:title=" ">
<path fill="none" stroke="#63b8ff" d="M1602.68,-106.63C1672.03,-101.54 1764.5,-94.79 1846.25,-89 2078.66,-72.53 2139.65,-92.64 2369.25,-53 2372.16,-52.5 2375.11,-51.94 2378.08,-51.34"/>
<polygon fill="#63b8ff" stroke="#63b8ff" points="1602.54,-103.14 1592.82,-107.36 1603.05,-110.12 1602.54,-103.14"/>
</a>
</g>
</g>
<!-- Node16 -->
<g id="Node000016" class="node">
<title>Node16</title>
<g id="a_Node000016"><a xlink:href="SchemaMethodEditor_8cpp.html" target="_top" xlink:title=" ">
<polygon fill="white" stroke="#666666" points="2734.75,-53 2559.75,-53 2559.75,0 2734.75,0 2734.75,-53"/>
<text text-anchor="start" x="2567.75" y="-39.5" font-family="Helvetica,sans-Serif" font-size="10.00">/github/workspace/dev</text>
<text text-anchor="start" x="2567.75" y="-28.25" font-family="Helvetica,sans-Serif" font-size="10.00">_area/sourcecode/dbe</text>
<text text-anchor="start" x="2567.75" y="-17" font-family="Helvetica,sans-Serif" font-size="10.00">/apps/SchemaEditor/SchemaMethod</text>
<text text-anchor="middle" x="2647.25" y="-5.75" font-family="Helvetica,sans-Serif" font-size="10.00">Editor.cpp</text>
</a>
</g>
</g>
<!-- Node5&#45;&gt;Node16 -->
<g id="edge17_Node000005_Node000016" class="edge">
<title>Node5&#45;&gt;Node16</title>
<g id="a_edge17_Node000005_Node000016"><a xlink:title=" ">
<path fill="none" stroke="#63b8ff" d="M1602.64,-106.15C1671.99,-100.85 1764.46,-94.07 1846.25,-89 2159.39,-69.6 2241.29,-101.54 2551.25,-53 2553.89,-52.59 2556.56,-52.13 2559.26,-51.64"/>
<polygon fill="#63b8ff" stroke="#63b8ff" points="1602.5,-102.65 1592.79,-106.9 1603.03,-109.63 1602.5,-102.65"/>
</a>
</g>
</g>
<!-- Node17 -->
<g id="Node000017" class="node">
<title>Node17</title>
<g id="a_Node000017"><a xlink:href="SchemaMethodImplementationEditor_8cpp.html" target="_top" xlink:title=" ">
<polygon fill="white" stroke="#666666" points="2927.75,-53 2752.75,-53 2752.75,0 2927.75,0 2927.75,-53"/>
<text text-anchor="start" x="2760.75" y="-39.5" font-family="Helvetica,sans-Serif" font-size="10.00">/github/workspace/dev</text>
<text text-anchor="start" x="2760.75" y="-28.25" font-family="Helvetica,sans-Serif" font-size="10.00">_area/sourcecode/dbe</text>
<text text-anchor="start" x="2760.75" y="-17" font-family="Helvetica,sans-Serif" font-size="10.00">/apps/SchemaEditor/SchemaMethod</text>
<text text-anchor="middle" x="2840.25" y="-5.75" font-family="Helvetica,sans-Serif" font-size="10.00">ImplementationEditor.cpp</text>
</a>
</g>
</g>
<!-- Node5&#45;&gt;Node17 -->
<g id="edge18_Node000005_Node000017" class="edge">
<title>Node5&#45;&gt;Node17</title>
<g id="a_edge18_Node000005_Node000017"><a xlink:title=" ">
<path fill="none" stroke="#63b8ff" d="M1602.63,-105.84C1671.96,-100.42 1764.43,-93.62 1846.25,-89 2245.05,-66.48 2349.29,-112.63 2744.25,-53 2746.89,-52.6 2749.57,-52.16 2752.26,-51.67"/>
<polygon fill="#63b8ff" stroke="#63b8ff" points="1602.47,-102.34 1592.78,-106.62 1603.02,-109.32 1602.47,-102.34"/>
</a>
</g>
</g>
<!-- Node18 -->
<g id="Node000018" class="node">
<title>Node18</title>
<g id="a_Node000018"><a xlink:href="SchemaRelationshipEditor_8cpp.html" target="_top" xlink:title=" ">
<polygon fill="white" stroke="#666666" points="997.25,-53 801.25,-53 801.25,0 997.25,0 997.25,-53"/>
<text text-anchor="start" x="809.25" y="-39.5" font-family="Helvetica,sans-Serif" font-size="10.00">/github/workspace/dev</text>
<text text-anchor="start" x="809.25" y="-28.25" font-family="Helvetica,sans-Serif" font-size="10.00">_area/sourcecode/dbe</text>
<text text-anchor="start" x="809.25" y="-17" font-family="Helvetica,sans-Serif" font-size="10.00">/apps/SchemaEditor/SchemaRelationship</text>
<text text-anchor="middle" x="899.25" y="-5.75" font-family="Helvetica,sans-Serif" font-size="10.00">Editor.cpp</text>
</a>
</g>
</g>
<!-- Node5&#45;&gt;Node18 -->
<g id="edge19_Node000005_Node000018" class="edge">
<title>Node5&#45;&gt;Node18</title>
<g id="a_edge19_Node000005_Node000018"><a xlink:title=" ">
<path fill="none" stroke="#63b8ff" d="M1390.12,-104.56C1290.52,-94.43 1137.64,-76.83 1006.25,-53 1003.43,-52.49 1000.58,-51.95 997.7,-51.39"/>
<polygon fill="#63b8ff" stroke="#63b8ff" points="1389.58,-108.02 1399.88,-105.54 1390.29,-101.05 1389.58,-108.02"/>
</a>
</g>
</g>
<!-- Node20 -->
<g id="Node000020" class="node">
<title>Node20</title>
<g id="a_Node000020"><a xlink:href="SchemaCustomMethodImplementationModel_8cpp.html" target="_top" xlink:title=" ">
<polygon fill="white" stroke="#666666" points="2420.5,-142 2244,-142 2244,-89 2420.5,-89 2420.5,-142"/>
<text text-anchor="start" x="2252" y="-128.5" font-family="Helvetica,sans-Serif" font-size="10.00">/github/workspace/dev</text>
<text text-anchor="start" x="2252" y="-117.25" font-family="Helvetica,sans-Serif" font-size="10.00">_area/sourcecode/dbe</text>
<text text-anchor="start" x="2252" y="-106" font-family="Helvetica,sans-Serif" font-size="10.00">/apps/SchemaEditor/SchemaCustom</text>
<text text-anchor="middle" x="2332.25" y="-94.75" font-family="Helvetica,sans-Serif" font-size="10.00">MethodImplementationModel.cpp</text>
</a>
</g>
</g>
<!-- Node19&#45;&gt;Node20 -->
<g id="edge21_Node000019_Node000020" class="edge">
<title>Node19&#45;&gt;Node20</title>
<g id="a_edge21_Node000019_Node000020"><a xlink:title=" ">
<path fill="none" stroke="#63b8ff" d="M2332.25,-166.61C2332.25,-158.41 2332.25,-149.89 2332.25,-142.25"/>
<polygon fill="#63b8ff" stroke="#63b8ff" points="2328.75,-166.35 2332.25,-176.35 2335.75,-166.35 2328.75,-166.35"/>
</a>
</g>
</g>
<!-- Node19&#45;&gt;Node21 -->
<g id="edge22_Node000019_Node000021" class="edge">
<title>Node19&#45;&gt;Node21</title>
<g id="a_edge22_Node000019_Node000021"><a xlink:title=" ">
<path fill="none" stroke="#63b8ff" d="M2401.66,-173C2428.92,-161.02 2459.49,-147.59 2483.98,-136.83"/>
<polygon fill="#63b8ff" stroke="#63b8ff" points="2400.52,-169.68 2392.77,-176.91 2403.34,-176.09 2400.52,-169.68"/>
</a>
</g>
</g>
<!-- Node21&#45;&gt;Node7 -->
<g id="edge23_Node000021_Node000007" class="edge">
<title>Node21&#45;&gt;Node7</title>
<g id="a_edge23_Node000021_Node000007"><a xlink:title=" ">
<path fill="none" stroke="#63b8ff" d="M2460.36,-90.56C2426.74,-79.04 2386.37,-65.22 2352.02,-53.45"/>
<polygon fill="#63b8ff" stroke="#63b8ff" points="2458.99,-93.79 2469.59,-93.72 2461.26,-87.17 2458.99,-93.79"/>
</a>
</g>
</g>
<!-- Node21&#45;&gt;Node16 -->
<g id="edge24_Node000021_Node000016" class="edge">
<title>Node21&#45;&gt;Node16</title>
<g id="a_edge24_Node000021_Node000016"><a xlink:title=" ">
<path fill="none" stroke="#63b8ff" d="M2566.25,-87.73C2581.03,-76.74 2598.07,-64.07 2612.7,-53.19"/>
<polygon fill="#63b8ff" stroke="#63b8ff" points="2564.54,-84.64 2558.6,-93.42 2568.71,-90.26 2564.54,-84.64"/>
</a>
</g>
</g>
<!-- Node23 -->
<g id="Node000023" class="node">
<title>Node23</title>
<g id="a_Node000023"><a xlink:href="SchemaCustomMethodModel_8cpp.html" target="_top" xlink:title=" ">
<polygon fill="white" stroke="#666666" points="2225.5,-142 2049,-142 2049,-89 2225.5,-89 2225.5,-142"/>
<text text-anchor="start" x="2057" y="-128.5" font-family="Helvetica,sans-Serif" font-size="10.00">/github/workspace/dev</text>
<text text-anchor="start" x="2057" y="-117.25" font-family="Helvetica,sans-Serif" font-size="10.00">_area/sourcecode/dbe</text>
<text text-anchor="start" x="2057" y="-106" font-family="Helvetica,sans-Serif" font-size="10.00">/apps/SchemaEditor/SchemaCustom</text>
<text text-anchor="middle" x="2137.25" y="-94.75" font-family="Helvetica,sans-Serif" font-size="10.00">MethodModel.cpp</text>
</a>
</g>
</g>
<!-- Node22&#45;&gt;Node23 -->
<g id="edge26_Node000022_Node000023" class="edge">
<title>Node22&#45;&gt;Node23</title>
<g id="a_edge26_Node000022_Node000023"><a xlink:title=" ">
<path fill="none" stroke="#63b8ff" d="M2137.25,-166.61C2137.25,-158.41 2137.25,-149.89 2137.25,-142.25"/>
<polygon fill="#63b8ff" stroke="#63b8ff" points="2133.75,-166.35 2137.25,-176.35 2140.75,-166.35 2133.75,-166.35"/>
</a>
</g>
</g>
<!-- Node24 -->
<g id="Node000024" class="node">
<title>Node24</title>
<g id="a_Node000024"><a xlink:href="SchemaClassEditor_8hpp.html" target="_top" xlink:title=" ">
<polygon fill="white" stroke="#666666" points="2030.75,-136.38 1855.75,-136.38 1855.75,-94.62 2030.75,-94.62 2030.75,-136.38"/>
<text text-anchor="start" x="1863.75" y="-122.88" font-family="Helvetica,sans-Serif" font-size="10.00">/github/workspace/dev</text>
<text text-anchor="start" x="1863.75" y="-111.62" font-family="Helvetica,sans-Serif" font-size="10.00">_area/sourcecode/dbe</text>
<text text-anchor="middle" x="1943.25" y="-100.38" font-family="Helvetica,sans-Serif" font-size="10.00">/include/dbe/SchemaClassEditor.hpp</text>
</a>
</g>
</g>
<!-- Node22&#45;&gt;Node24 -->
<g id="edge27_Node000022_Node000024" class="edge">
<title>Node22&#45;&gt;Node24</title>
<g id="a_edge27_Node000022_Node000024"><a xlink:title=" ">
<path fill="none" stroke="#63b8ff" d="M2068.89,-172.84C2042.26,-160.9 2012.47,-147.54 1988.59,-136.83"/>
<polygon fill="#63b8ff" stroke="#63b8ff" points="2067.37,-176 2077.93,-176.9 2070.23,-169.61 2067.37,-176"/>
</a>
</g>
</g>
<!-- Node24&#45;&gt;Node7 -->
<g id="edge28_Node000024_Node000007" class="edge">
<title>Node24&#45;&gt;Node7</title>
<g id="a_edge28_Node000024_Node000007"><a xlink:title=" ">
<path fill="none" stroke="#63b8ff" d="M2031.3,-91.31C2034.32,-90.53 2037.31,-89.76 2040.25,-89 2103.72,-72.67 2119.87,-69.67 2183.25,-53 2186.16,-52.23 2189.13,-51.45 2192.12,-50.65"/>
<polygon fill="#63b8ff" stroke="#63b8ff" points="2030.53,-87.89 2021.73,-93.79 2032.29,-94.67 2030.53,-87.89"/>
</a>
</g>
</g>
<!-- Node24&#45;&gt;Node13 -->
<g id="edge29_Node000024_Node000013" class="edge">
<title>Node24&#45;&gt;Node13</title>
<g id="a_edge29_Node000024_Node000013"><a xlink:title=" ">
<path fill="none" stroke="#63b8ff" d="M1985.29,-88.37C2003.13,-77.29 2023.86,-64.41 2041.65,-53.35"/>
<polygon fill="#63b8ff" stroke="#63b8ff" points="1983.65,-85.27 1977.01,-93.52 1987.35,-91.22 1983.65,-85.27"/>
</a>
</g>
</g>
<!-- Node24&#45;&gt;Node15 -->
<g id="edge30_Node000024_Node000015" class="edge">
<title>Node24&#45;&gt;Node15</title>
<g id="a_edge30_Node000024_Node000015"><a xlink:title=" ">
<path fill="none" stroke="#63b8ff" d="M2026.97,-91.67C2031.45,-90.7 2035.9,-89.81 2040.25,-89 2184.89,-62.23 2224.83,-80.94 2369.25,-53 2372.15,-52.44 2375.09,-51.83 2378.05,-51.19"/>
<polygon fill="#63b8ff" stroke="#63b8ff" points="2026.28,-88.23 2017.29,-93.85 2027.82,-95.06 2026.28,-88.23"/>
</a>
</g>
</g>
<!-- Node25&#45;&gt;Node15 -->
<g id="edge33_Node000025_Node000015" class="edge">
<title>Node25&#45;&gt;Node15</title>
<g id="a_edge33_Node000025_Node000015"><a xlink:title=" ">
<path fill="none" stroke="#63b8ff" d="M2647.78,-85.15C2613.58,-74.64 2575.36,-62.89 2542.39,-52.75"/>
<polygon fill="#63b8ff" stroke="#63b8ff" points="2646.69,-88.48 2657.28,-88.07 2648.75,-81.79 2646.69,-88.48"/>
</a>
</g>
</g>
<!-- Node25&#45;&gt;Node16 -->
<g id="edge34_Node000025_Node000016" class="edge">
<title>Node25&#45;&gt;Node16</title>
<g id="a_edge34_Node000025_Node000016"><a xlink:title=" ">
<path fill="none" stroke="#63b8ff" d="M2706.4,-81.11C2696.27,-71.93 2685.44,-62.11 2675.85,-53.42"/>
<polygon fill="#63b8ff" stroke="#63b8ff" points="2703.83,-83.49 2713.59,-87.62 2708.53,-78.31 2703.83,-83.49"/>
</a>
</g>
</g>
<!-- Node25&#45;&gt;Node17 -->
<g id="edge35_Node000025_Node000017" class="edge">
<title>Node25&#45;&gt;Node17</title>
<g id="a_edge35_Node000025_Node000017"><a xlink:title=" ">
<path fill="none" stroke="#63b8ff" d="M2780.48,-81.11C2790.72,-71.93 2801.66,-62.11 2811.35,-53.42"/>
<polygon fill="#63b8ff" stroke="#63b8ff" points="2778.32,-78.34 2773.22,-87.62 2783,-83.55 2778.32,-78.34"/>
</a>
</g>
</g>
</g>
</svg>
