<?xml version="1.0" encoding="UTF-8" standalone="no"?>
<!DOCTYPE svg PUBLIC "-//W3C//DTD SVG 1.1//EN"
 "http://www.w3.org/Graphics/SVG/1.1/DTD/svg11.dtd">
<!-- Generated by graphviz version 9.0.0 (20230911.1827)
 -->
<!-- Title: /github/workspace/dev_area/sourcecode/dbe/include/dbe/model_common_interface_macros.hpp Pages: 1 -->
<svg width="1504pt" height="550pt"
 viewBox="0.00 0.00 1504.25 550.00" xmlns="http://www.w3.org/2000/svg" xmlns:xlink="http://www.w3.org/1999/xlink">
<g id="graph0" class="graph" transform="scale(1 1) rotate(0) translate(4 546)">
<title>/github/workspace/dev_area/sourcecode/dbe/include/dbe/model_common_interface_macros.hpp</title>
<!-- Node1 -->
<g id="Node000001" class="node">
<title>Node1</title>
<g id="a_Node000001"><a xlink:title=" ">
<polygon fill="#999999" stroke="#666666" points="821.38,-542 680.88,-542 680.88,-489 821.38,-489 821.38,-542"/>
<text text-anchor="start" x="688.88" y="-528.5" font-family="Helvetica,sans-Serif" font-size="10.00">/github/workspace/dev</text>
<text text-anchor="start" x="688.88" y="-517.25" font-family="Helvetica,sans-Serif" font-size="10.00">_area/sourcecode/dbe</text>
<text text-anchor="start" x="688.88" y="-506" font-family="Helvetica,sans-Serif" font-size="10.00">/include/dbe/model_common</text>
<text text-anchor="middle" x="751.12" y="-494.75" font-family="Helvetica,sans-Serif" font-size="10.00">_interface_macros.hpp</text>
</a>
</g>
</g>
<!-- Node2 -->
<g id="Node000002" class="node">
<title>Node2</title>
<g id="a_Node000002"><a xlink:href="model__common__interface_8hpp.html" target="_top" xlink:title=" ">
<polygon fill="white" stroke="#666666" points="821.38,-453 680.88,-453 680.88,-400 821.38,-400 821.38,-453"/>
<text text-anchor="start" x="688.88" y="-439.5" font-family="Helvetica,sans-Serif" font-size="10.00">/github/workspace/dev</text>
<text text-anchor="start" x="688.88" y="-428.25" font-family="Helvetica,sans-Serif" font-size="10.00">_area/sourcecode/dbe</text>
<text text-anchor="start" x="688.88" y="-417" font-family="Helvetica,sans-Serif" font-size="10.00">/include/dbe/model_common</text>
<text text-anchor="middle" x="751.12" y="-405.75" font-family="Helvetica,sans-Serif" font-size="10.00">_interface.hpp</text>
</a>
</g>
</g>
<!-- Node1&#45;&gt;Node2 -->
<g id="edge1_Node000001_Node000002" class="edge">
<title>Node1&#45;&gt;Node2</title>
<g id="a_edge1_Node000001_Node000002"><a xlink:title=" ">
<path fill="none" stroke="#63b8ff" d="M744.44,-477.61C744.27,-469.41 744.42,-460.89 744.9,-453.25"/>
<polygon fill="#63b8ff" stroke="#63b8ff" points="740.94,-477.51 744.85,-487.36 747.93,-477.22 740.94,-477.51"/>
</a>
</g>
</g>
<!-- Node2&#45;&gt;Node1 -->
<g id="edge2_Node000002_Node000001" class="edge">
<title>Node2&#45;&gt;Node1</title>
<g id="a_edge2_Node000002_Node000001"><a xlink:title=" ">
<path fill="none" stroke="#63b8ff" d="M757.81,-464.51C757.98,-472.72 757.82,-481.24 757.34,-488.87"/>
<polygon fill="#63b8ff" stroke="#63b8ff" points="761.31,-464.61 757.41,-454.76 754.32,-464.9 761.31,-464.61"/>
</a>
</g>
</g>
<!-- Node3 -->
<g id="Node000003" class="node">
<title>Node3</title>
<g id="a_Node000003"><a xlink:href="model__common__operations_8hpp.html" target="_top" xlink:title=" ">
<polygon fill="white" stroke="#666666" points="545.38,-364 404.88,-364 404.88,-311 545.38,-311 545.38,-364"/>
<text text-anchor="start" x="412.88" y="-350.5" font-family="Helvetica,sans-Serif" font-size="10.00">/github/workspace/dev</text>
<text text-anchor="start" x="412.88" y="-339.25" font-family="Helvetica,sans-Serif" font-size="10.00">_area/sourcecode/dbe</text>
<text text-anchor="start" x="412.88" y="-328" font-family="Helvetica,sans-Serif" font-size="10.00">/include/dbe/model_common</text>
<text text-anchor="middle" x="475.12" y="-316.75" font-family="Helvetica,sans-Serif" font-size="10.00">_operations.hpp</text>
</a>
</g>
</g>
<!-- Node2&#45;&gt;Node3 -->
<g id="edge3_Node000002_Node000003" class="edge">
<title>Node2&#45;&gt;Node3</title>
<g id="a_edge3_Node000002_Node000003"><a xlink:title=" ">
<path fill="none" stroke="#63b8ff" d="M669.77,-402.81C631.91,-391.32 586.41,-377.1 545.65,-364.17"/>
<polygon fill="#63b8ff" stroke="#63b8ff" points="668.71,-406.15 679.3,-405.69 670.74,-399.44 668.71,-406.15"/>
</a>
</g>
</g>
<!-- Node4 -->
<g id="Node000004" class="node">
<title>Node4</title>
<g id="a_Node000004"><a xlink:href="subtreeproxy_8hpp.html" target="_top" xlink:title=" ">
<polygon fill="white" stroke="#666666" points="904.25,-197.25 760,-197.25 760,-155.5 904.25,-155.5 904.25,-197.25"/>
<text text-anchor="start" x="768" y="-183.75" font-family="Helvetica,sans-Serif" font-size="10.00">/github/workspace/dev</text>
<text text-anchor="start" x="768" y="-172.5" font-family="Helvetica,sans-Serif" font-size="10.00">_area/sourcecode/dbe</text>
<text text-anchor="middle" x="832.12" y="-161.25" font-family="Helvetica,sans-Serif" font-size="10.00">/include/dbe/subtreeproxy.hpp</text>
</a>
</g>
</g>
<!-- Node2&#45;&gt;Node4 -->
<g id="edge5_Node000002_Node000004" class="edge">
<title>Node2&#45;&gt;Node4</title>
<g id="a_edge5_Node000002_Node000004"><a xlink:title=" ">
<path fill="none" stroke="#63b8ff" d="M755.21,-388.42C760.53,-348.73 771.91,-284.56 794.12,-233.25 799.63,-220.55 808.13,-207.68 815.7,-197.51"/>
<polygon fill="#63b8ff" stroke="#63b8ff" points="751.76,-387.8 753.97,-398.16 758.7,-388.69 751.76,-387.8"/>
</a>
</g>
</g>
<!-- Node17 -->
<g id="Node000017" class="node">
<title>Node17</title>
<g id="a_Node000017"><a xlink:href="table_8hpp.html" target="_top" xlink:title=" ">
<polygon fill="white" stroke="#666666" points="677.25,-358.38 563,-358.38 563,-316.62 677.25,-316.62 677.25,-358.38"/>
<text text-anchor="start" x="571" y="-344.88" font-family="Helvetica,sans-Serif" font-size="10.00">/github/workspace/dev</text>
<text text-anchor="start" x="571" y="-333.62" font-family="Helvetica,sans-Serif" font-size="10.00">_area/sourcecode/dbe</text>
<text text-anchor="middle" x="620.12" y="-322.38" font-family="Helvetica,sans-Serif" font-size="10.00">/include/dbe/table.hpp</text>
</a>
</g>
</g>
<!-- Node2&#45;&gt;Node17 -->
<g id="edge19_Node000002_Node000017" class="edge">
<title>Node2&#45;&gt;Node17</title>
<g id="a_edge19_Node000002_Node000017"><a xlink:title=" ">
<path fill="none" stroke="#63b8ff" d="M702.66,-393.32C685.16,-381.69 665.9,-368.9 650.4,-358.61"/>
<polygon fill="#63b8ff" stroke="#63b8ff" points="700.65,-396.18 710.91,-398.8 704.52,-390.35 700.65,-396.18"/>
</a>
</g>
</g>
<!-- Node20 -->
<g id="Node000020" class="node">
<title>Node20</title>
<g id="a_Node000020"><a xlink:href="tableselection_8hpp.html" target="_top" xlink:title=" ">
<polygon fill="white" stroke="#666666" points="685.88,-275 536.38,-275 536.38,-233.25 685.88,-233.25 685.88,-275"/>
<text text-anchor="start" x="544.38" y="-261.5" font-family="Helvetica,sans-Serif" font-size="10.00">/github/workspace/dev</text>
<text text-anchor="start" x="544.38" y="-250.25" font-family="Helvetica,sans-Serif" font-size="10.00">_area/sourcecode/dbe</text>
<text text-anchor="middle" x="611.12" y="-239" font-family="Helvetica,sans-Serif" font-size="10.00">/include/dbe/tableselection.hpp</text>
</a>
</g>
</g>
<!-- Node2&#45;&gt;Node20 -->
<g id="edge34_Node000002_Node000020" class="edge">
<title>Node2&#45;&gt;Node20</title>
<g id="a_edge34_Node000002_Node000020"><a xlink:title=" ">
<path fill="none" stroke="#63b8ff" d="M735.49,-389.5C724.02,-365.62 706.86,-334.48 686.12,-311 674.09,-297.37 658.23,-284.97 644.19,-275.33"/>
<polygon fill="#63b8ff" stroke="#63b8ff" points="732.31,-390.96 739.71,-398.54 738.65,-388 732.31,-390.96"/>
</a>
</g>
</g>
<!-- Node24 -->
<g id="Node000024" class="node">
<title>Node24</title>
<g id="a_Node000024"><a xlink:href="tree_8hpp.html" target="_top" xlink:title=" ">
<polygon fill="white" stroke="#666666" points="1036.25,-197.25 922,-197.25 922,-155.5 1036.25,-155.5 1036.25,-197.25"/>
<text text-anchor="start" x="930" y="-183.75" font-family="Helvetica,sans-Serif" font-size="10.00">/github/workspace/dev</text>
<text text-anchor="start" x="930" y="-172.5" font-family="Helvetica,sans-Serif" font-size="10.00">_area/sourcecode/dbe</text>
<text text-anchor="middle" x="979.12" y="-161.25" font-family="Helvetica,sans-Serif" font-size="10.00">/include/dbe/tree.hpp</text>
</a>
</g>
</g>
<!-- Node2&#45;&gt;Node24 -->
<g id="edge35_Node000002_Node000024" class="edge">
<title>Node2&#45;&gt;Node24</title>
<g id="a_edge35_Node000002_Node000024"><a xlink:title=" ">
<path fill="none" stroke="#63b8ff" d="M767.28,-389.07C770.88,-380.84 774.66,-372.13 778.12,-364 802.76,-306.16 787.04,-277.07 832.12,-233.25 839.08,-226.49 883.54,-210.04 921.77,-196.73"/>
<polygon fill="#63b8ff" stroke="#63b8ff" points="764.11,-387.57 763.29,-398.14 770.52,-390.39 764.11,-387.57"/>
</a>
</g>
</g>
<!-- Node27 -->
<g id="Node000027" class="node">
<title>Node27</title>
<g id="a_Node000027"><a xlink:href="treeselection_8hpp.html" target="_top" xlink:title=" ">
<polygon fill="white" stroke="#666666" points="1199.62,-197.25 1054.62,-197.25 1054.62,-155.5 1199.62,-155.5 1199.62,-197.25"/>
<text text-anchor="start" x="1062.62" y="-183.75" font-family="Helvetica,sans-Serif" font-size="10.00">/github/workspace/dev</text>
<text text-anchor="start" x="1062.62" y="-172.5" font-family="Helvetica,sans-Serif" font-size="10.00">_area/sourcecode/dbe</text>
<text text-anchor="middle" x="1127.12" y="-161.25" font-family="Helvetica,sans-Serif" font-size="10.00">/include/dbe/treeselection.hpp</text>
</a>
</g>
</g>
<!-- Node2&#45;&gt;Node27 -->
<g id="edge41_Node000002_Node000027" class="edge">
<title>Node2&#45;&gt;Node27</title>
<g id="a_edge41_Node000002_Node000027"><a xlink:title=" ">
<path fill="none" stroke="#63b8ff" d="M779.84,-391.36C801.55,-366.94 833.02,-334.39 865.12,-311 932.7,-261.77 1021.03,-220.85 1075.91,-197.75"/>
<polygon fill="#63b8ff" stroke="#63b8ff" points="777.26,-388.99 773.29,-398.81 782.52,-393.61 777.26,-388.99"/>
</a>
</g>
</g>
<!-- Node28 -->
<g id="Node000028" class="node">
<title>Node28</title>
<g id="a_Node000028"><a xlink:href="model__common__interface_8cpp.html" target="_top" xlink:title=" ">
<polygon fill="white" stroke="#666666" points="1020,-364 874.25,-364 874.25,-311 1020,-311 1020,-364"/>
<text text-anchor="start" x="882.25" y="-350.5" font-family="Helvetica,sans-Serif" font-size="10.00">/github/workspace/dev</text>
<text text-anchor="start" x="882.25" y="-339.25" font-family="Helvetica,sans-Serif" font-size="10.00">_area/sourcecode/dbe</text>
<text text-anchor="start" x="882.25" y="-328" font-family="Helvetica,sans-Serif" font-size="10.00">/src/structure/model_common</text>
<text text-anchor="middle" x="947.12" y="-316.75" font-family="Helvetica,sans-Serif" font-size="10.00">_interface.cpp</text>
</a>
</g>
</g>
<!-- Node2&#45;&gt;Node28 -->
<g id="edge45_Node000002_Node000028" class="edge">
<title>Node2&#45;&gt;Node28</title>
<g id="a_edge45_Node000002_Node000028"><a xlink:title=" ">
<path fill="none" stroke="#63b8ff" d="M820.15,-394.86C842.61,-384.89 867.3,-373.93 888.89,-364.35"/>
<polygon fill="#63b8ff" stroke="#63b8ff" points="818.77,-391.64 811.05,-398.9 821.61,-398.04 818.77,-391.64"/>
</a>
</g>
</g>
<!-- Node3&#45;&gt;Node2 -->
<g id="edge4_Node000003_Node000002" class="edge">
<title>Node3&#45;&gt;Node2</title>
<g id="a_edge4_Node000003_Node000002"><a xlink:title=" ">
<path fill="none" stroke="#63b8ff" d="M556.7,-361.96C558.87,-362.65 561.01,-363.33 563.12,-364 602.06,-376.36 645.38,-389.91 680.67,-401.13"/>
<polygon fill="#63b8ff" stroke="#63b8ff" points="557.77,-358.63 547.18,-358.92 555.65,-365.29 557.77,-358.63"/>
</a>
</g>
</g>
<!-- Node5 -->
<g id="Node000005" class="node">
<title>Node5</title>
<g id="a_Node000005"><a xlink:href="MainWindow_8hpp.html" target="_top" xlink:title=" ">
<polygon fill="white" stroke="#666666" points="801.62,-119.5 656.62,-119.5 656.62,-77.75 801.62,-77.75 801.62,-119.5"/>
<text text-anchor="start" x="664.62" y="-106" font-family="Helvetica,sans-Serif" font-size="10.00">/github/workspace/dev</text>
<text text-anchor="start" x="664.62" y="-94.75" font-family="Helvetica,sans-Serif" font-size="10.00">_area/sourcecode/dbe</text>
<text text-anchor="middle" x="729.12" y="-83.5" font-family="Helvetica,sans-Serif" font-size="10.00">/include/dbe/MainWindow.hpp</text>
</a>
</g>
</g>
<!-- Node4&#45;&gt;Node5 -->
<g id="edge6_Node000004_Node000005" class="edge">
<title>Node4&#45;&gt;Node5</title>
<g id="a_edge6_Node000004_Node000005"><a xlink:title=" ">
<path fill="none" stroke="#63b8ff" d="M795.53,-148.46C782.78,-139.09 768.7,-128.73 756.8,-119.98"/>
<polygon fill="#63b8ff" stroke="#63b8ff" points="793.17,-151.07 803.3,-154.18 797.32,-145.43 793.17,-151.07"/>
</a>
</g>
</g>
<!-- Node9 -->
<g id="Node000009" class="node">
<title>Node9</title>
<g id="a_Node000009"><a xlink:href="MainWindow_8cpp.html" target="_top" xlink:title=" ">
<polygon fill="white" stroke="#666666" points="1460.88,-41.75 1317.38,-41.75 1317.38,0 1460.88,0 1460.88,-41.75"/>
<text text-anchor="start" x="1325.38" y="-28.25" font-family="Helvetica,sans-Serif" font-size="10.00">/github/workspace/dev</text>
<text text-anchor="start" x="1325.38" y="-17" font-family="Helvetica,sans-Serif" font-size="10.00">_area/sourcecode/dbe</text>
<text text-anchor="middle" x="1389.12" y="-5.75" font-family="Helvetica,sans-Serif" font-size="10.00">/src/internal/MainWindow.cpp</text>
</a>
</g>
</g>
<!-- Node4&#45;&gt;Node9 -->
<g id="edge16_Node000004_Node000009" class="edge">
<title>Node4&#45;&gt;Node9</title>
<g id="a_edge16_Node000004_Node000009"><a xlink:title=" ">
<path fill="none" stroke="#63b8ff" d="M828.47,-143.81C827.85,-122 831.2,-94.07 849.12,-77.75 886.96,-43.32 1257.62,-49.87 1308.12,-41.75 1311.13,-41.27 1314.18,-40.73 1317.26,-40.15"/>
<polygon fill="#63b8ff" stroke="#63b8ff" points="824.97,-143.91 829.06,-153.68 831.96,-143.49 824.97,-143.91"/>
</a>
</g>
</g>
<!-- Node15 -->
<g id="Node000015" class="node">
<title>Node15</title>
<g id="a_Node000015"><a xlink:href="CustomTreeView_8cpp.html" target="_top" xlink:title=" ">
<polygon fill="white" stroke="#666666" points="1196,-119.5 1026.25,-119.5 1026.25,-77.75 1196,-77.75 1196,-119.5"/>
<text text-anchor="start" x="1034.25" y="-106" font-family="Helvetica,sans-Serif" font-size="10.00">/github/workspace/dev</text>
<text text-anchor="start" x="1034.25" y="-94.75" font-family="Helvetica,sans-Serif" font-size="10.00">_area/sourcecode/dbe</text>
<text text-anchor="middle" x="1111.12" y="-83.5" font-family="Helvetica,sans-Serif" font-size="10.00">/src/structure/CustomTreeView.cpp</text>
</a>
</g>
</g>
<!-- Node4&#45;&gt;Node15 -->
<g id="edge17_Node000004_Node000015" class="edge">
<title>Node4&#45;&gt;Node15</title>
<g id="a_edge17_Node000004_Node000015"><a xlink:title=" ">
<path fill="none" stroke="#63b8ff" d="M915.36,-152.78C953.82,-142.33 999.14,-130.03 1036.48,-119.89"/>
<polygon fill="#63b8ff" stroke="#63b8ff" points="914.89,-149.28 906.16,-155.27 916.73,-156.03 914.89,-149.28"/>
</a>
</g>
</g>
<!-- Node16 -->
<g id="Node000016" class="node">
<title>Node16</title>
<g id="a_Node000016"><a xlink:href="subtreeproxy_8cpp.html" target="_top" xlink:title=" ">
<polygon fill="white" stroke="#666666" points="1007.88,-119.5 858.38,-119.5 858.38,-77.75 1007.88,-77.75 1007.88,-119.5"/>
<text text-anchor="start" x="866.38" y="-106" font-family="Helvetica,sans-Serif" font-size="10.00">/github/workspace/dev</text>
<text text-anchor="start" x="866.38" y="-94.75" font-family="Helvetica,sans-Serif" font-size="10.00">_area/sourcecode/dbe</text>
<text text-anchor="middle" x="933.12" y="-83.5" font-family="Helvetica,sans-Serif" font-size="10.00">/src/structure/subtreeproxy.cpp</text>
</a>
</g>
</g>
<!-- Node4&#45;&gt;Node16 -->
<g id="edge18_Node000004_Node000016" class="edge">
<title>Node4&#45;&gt;Node16</title>
<g id="a_edge18_Node000004_Node000016"><a xlink:title=" ">
<path fill="none" stroke="#63b8ff" d="M868.38,-148.19C880.78,-138.89 894.43,-128.65 905.98,-119.98"/>
<polygon fill="#63b8ff" stroke="#63b8ff" points="866.3,-145.37 860.4,-154.17 870.5,-150.97 866.3,-145.37"/>
</a>
</g>
</g>
<!-- Node6 -->
<g id="Node000006" class="node">
<title>Node6</title>
<g id="a_Node000006"><a xlink:href="Main_8cpp.html" target="_top" xlink:title=" ">
<polygon fill="white" stroke="#666666" points="786.25,-41.75 672,-41.75 672,0 786.25,0 786.25,-41.75"/>
<text text-anchor="start" x="680" y="-28.25" font-family="Helvetica,sans-Serif" font-size="10.00">/github/workspace/dev</text>
<text text-anchor="start" x="680" y="-17" font-family="Helvetica,sans-Serif" font-size="10.00">_area/sourcecode/dbe</text>
<text text-anchor="middle" x="729.12" y="-5.75" font-family="Helvetica,sans-Serif" font-size="10.00">/apps/Main.cpp</text>
</a>
</g>
</g>
<!-- Node5&#45;&gt;Node6 -->
<g id="edge7_Node000005_Node000006" class="edge">
<title>Node5&#45;&gt;Node6</title>
<g id="a_edge7_Node000005_Node000006"><a xlink:title=" ">
<path fill="none" stroke="#63b8ff" d="M729.12,-66C729.12,-57.96 729.12,-49.54 729.12,-42.23"/>
<polygon fill="#63b8ff" stroke="#63b8ff" points="725.63,-65.81 729.13,-75.81 732.63,-65.81 725.63,-65.81"/>
</a>
</g>
</g>
<!-- Node7 -->
<g id="Node000007" class="node">
<title>Node7</title>
<g id="a_Node000007"><a xlink:href="TableTab_8cpp.html" target="_top" xlink:title=" ">
<polygon fill="white" stroke="#666666" points="306.25,-41.75 192,-41.75 192,0 306.25,0 306.25,-41.75"/>
<text text-anchor="start" x="200" y="-28.25" font-family="Helvetica,sans-Serif" font-size="10.00">/github/workspace/dev</text>
<text text-anchor="start" x="200" y="-17" font-family="Helvetica,sans-Serif" font-size="10.00">_area/sourcecode/dbe</text>
<text text-anchor="middle" x="249.12" y="-5.75" font-family="Helvetica,sans-Serif" font-size="10.00">/src/TableTab.cpp</text>
</a>
</g>
</g>
<!-- Node5&#45;&gt;Node7 -->
<g id="edge8_Node000005_Node000007" class="edge">
<title>Node5&#45;&gt;Node7</title>
<g id="a_edge8_Node000005_Node000007"><a xlink:title=" ">
<path fill="none" stroke="#63b8ff" d="M645.07,-90.22C560.94,-81.89 428.13,-66.23 315.12,-41.75 312.32,-41.14 309.46,-40.47 306.58,-39.76"/>
<polygon fill="#63b8ff" stroke="#63b8ff" points="644.55,-93.69 654.84,-91.18 645.23,-86.72 644.55,-93.69"/>
</a>
</g>
</g>
<!-- Node8 -->
<g id="Node000008" class="node">
<title>Node8</title>
<g id="a_Node000008"><a xlink:href="GraphView_8cpp.html" target="_top" xlink:title=" ">
<polygon fill="white" stroke="#666666" points="947.88,-41.75 804.38,-41.75 804.38,0 947.88,0 947.88,-41.75"/>
<text text-anchor="start" x="812.38" y="-28.25" font-family="Helvetica,sans-Serif" font-size="10.00">/github/workspace/dev</text>
<text text-anchor="start" x="812.38" y="-17" font-family="Helvetica,sans-Serif" font-size="10.00">_area/sourcecode/dbe</text>
<text text-anchor="middle" x="876.12" y="-5.75" font-family="Helvetica,sans-Serif" font-size="10.00">/src/graphical/GraphView.cpp</text>
</a>
</g>
</g>
<!-- Node5&#45;&gt;Node8 -->
<g id="edge9_Node000005_Node000008" class="edge">
<title>Node5&#45;&gt;Node8</title>
<g id="a_edge9_Node000005_Node000008"><a xlink:title=" ">
<path fill="none" stroke="#63b8ff" d="M778.72,-72.07C797.59,-62.35 818.81,-51.41 836.62,-42.23"/>
<polygon fill="#63b8ff" stroke="#63b8ff" points="777.15,-68.94 769.86,-76.63 780.36,-75.16 777.15,-68.94"/>
</a>
</g>
</g>
<!-- Node5&#45;&gt;Node9 -->
<g id="edge10_Node000005_Node000009" class="edge">
<title>Node5&#45;&gt;Node9</title>
<g id="a_edge10_Node000005_Node000009"><a xlink:title=" ">
<path fill="none" stroke="#63b8ff" d="M813.09,-78.22C814.11,-78.06 815.12,-77.9 816.12,-77.75 1032.95,-45.24 1091.56,-75.99 1308.12,-41.75 1311.13,-41.28 1314.18,-40.74 1317.26,-40.17"/>
<polygon fill="#63b8ff" stroke="#63b8ff" points="812.83,-74.71 803.57,-79.86 814.01,-81.61 812.83,-74.71"/>
</a>
</g>
</g>
<!-- Node10 -->
<g id="Node000010" class="node">
<title>Node10</title>
<g id="a_Node000010"><a xlink:href="CustomTableView_8cpp.html" target="_top" xlink:title=" ">
<polygon fill="white" stroke="#666666" points="174.25,-41.75 0,-41.75 0,0 174.25,0 174.25,-41.75"/>
<text text-anchor="start" x="8" y="-28.25" font-family="Helvetica,sans-Serif" font-size="10.00">/github/workspace/dev</text>
<text text-anchor="start" x="8" y="-17" font-family="Helvetica,sans-Serif" font-size="10.00">_area/sourcecode/dbe</text>
<text text-anchor="middle" x="87.12" y="-5.75" font-family="Helvetica,sans-Serif" font-size="10.00">/src/structure/CustomTableView.cpp</text>
</a>
</g>
</g>
<!-- Node5&#45;&gt;Node10 -->
<g id="edge11_Node000005_Node000010" class="edge">
<title>Node5&#45;&gt;Node10</title>
<g id="a_edge11_Node000005_Node000010"><a xlink:title=" ">
<path fill="none" stroke="#63b8ff" d="M644.99,-91.7C537.46,-83.51 345.77,-66.84 183.12,-41.75 180.35,-41.32 177.53,-40.87 174.69,-40.39"/>
<polygon fill="#63b8ff" stroke="#63b8ff" points="644.66,-95.18 654.89,-92.45 645.18,-88.2 644.66,-95.18"/>
</a>
</g>
</g>
<!-- Node11 -->
<g id="Node000011" class="node">
<title>Node11</title>
<g id="a_Node000011"><a xlink:href="FileModel_8cpp.html" target="_top" xlink:title=" ">
<polygon fill="white" stroke="#666666" points="1102.5,-41.75 965.75,-41.75 965.75,0 1102.5,0 1102.5,-41.75"/>
<text text-anchor="start" x="973.75" y="-28.25" font-family="Helvetica,sans-Serif" font-size="10.00">/github/workspace/dev</text>
<text text-anchor="start" x="973.75" y="-17" font-family="Helvetica,sans-Serif" font-size="10.00">_area/sourcecode/dbe</text>
<text text-anchor="middle" x="1034.12" y="-5.75" font-family="Helvetica,sans-Serif" font-size="10.00">/src/structure/FileModel.cpp</text>
</a>
</g>
</g>
<!-- Node5&#45;&gt;Node11 -->
<g id="edge12_Node000005_Node000011" class="edge">
<title>Node5&#45;&gt;Node11</title>
<g id="a_edge12_Node000005_Node000011"><a xlink:title=" ">
<path fill="none" stroke="#63b8ff" d="M813.1,-77.31C856.18,-66.82 909.5,-53.73 957.12,-41.75 959.8,-41.08 962.53,-40.39 965.29,-39.69"/>
<polygon fill="#63b8ff" stroke="#63b8ff" points="812.45,-73.86 803.56,-79.63 814.1,-80.67 812.45,-73.86"/>
</a>
</g>
</g>
<!-- Node12 -->
<g id="Node000012" class="node">
<title>Node12</title>
<g id="a_Node000012"><a xlink:href="BatchChangeWidget_8cpp.html" target="_top" xlink:title=" ">
<polygon fill="white" stroke="#666666" points="1299.5,-41.75 1120.75,-41.75 1120.75,0 1299.5,0 1299.5,-41.75"/>
<text text-anchor="start" x="1128.75" y="-28.25" font-family="Helvetica,sans-Serif" font-size="10.00">/github/workspace/dev</text>
<text text-anchor="start" x="1128.75" y="-17" font-family="Helvetica,sans-Serif" font-size="10.00">_area/sourcecode/dbe</text>
<text text-anchor="middle" x="1210.12" y="-5.75" font-family="Helvetica,sans-Serif" font-size="10.00">/src/widgets/BatchChangeWidget.cpp</text>
</a>
</g>
</g>
<!-- Node5&#45;&gt;Node12 -->
<g id="edge13_Node000005_Node000012" class="edge">
<title>Node5&#45;&gt;Node12</title>
<g id="a_edge13_Node000005_Node000012"><a xlink:title=" ">
<path fill="none" stroke="#63b8ff" d="M813.1,-78.29C814.12,-78.1 815.12,-77.93 816.12,-77.75 946.24,-55.01 980.72,-62.76 1111.12,-41.75 1114.15,-41.26 1117.23,-40.75 1120.34,-40.21"/>
<polygon fill="#63b8ff" stroke="#63b8ff" points="812.77,-74.79 803.6,-80.09 814.08,-81.66 812.77,-74.79"/>
</a>
</g>
</g>
<!-- Node13 -->
<g id="Node000013" class="node">
<title>Node13</title>
<g id="a_Node000013"><a xlink:href="IncludeFileWidget_8cpp.html" target="_top" xlink:title=" ">
<polygon fill="white" stroke="#666666" points="491.88,-41.75 324.38,-41.75 324.38,0 491.88,0 491.88,-41.75"/>
<text text-anchor="start" x="332.38" y="-28.25" font-family="Helvetica,sans-Serif" font-size="10.00">/github/workspace/dev</text>
<text text-anchor="start" x="332.38" y="-17" font-family="Helvetica,sans-Serif" font-size="10.00">_area/sourcecode/dbe</text>
<text text-anchor="middle" x="408.12" y="-5.75" font-family="Helvetica,sans-Serif" font-size="10.00">/src/widgets/IncludeFileWidget.cpp</text>
</a>
</g>
</g>
<!-- Node5&#45;&gt;Node13 -->
<g id="edge14_Node000005_Node000013" class="edge">
<title>Node5&#45;&gt;Node13</title>
<g id="a_edge14_Node000005_Node000013"><a xlink:title=" ">
<path fill="none" stroke="#63b8ff" d="M645.19,-77.82C598.07,-66.7 539.46,-52.87 492.31,-41.74"/>
<polygon fill="#63b8ff" stroke="#63b8ff" points="644.28,-81.2 654.81,-80.09 645.88,-74.39 644.28,-81.2"/>
</a>
</g>
</g>
<!-- Node14 -->
<g id="Node000014" class="node">
<title>Node14</title>
<g id="a_Node000014"><a xlink:href="ObjectEditor_8cpp.html" target="_top" xlink:title=" ">
<polygon fill="white" stroke="#666666" points="653.88,-41.75 510.38,-41.75 510.38,0 653.88,0 653.88,-41.75"/>
<text text-anchor="start" x="518.38" y="-28.25" font-family="Helvetica,sans-Serif" font-size="10.00">/github/workspace/dev</text>
<text text-anchor="start" x="518.38" y="-17" font-family="Helvetica,sans-Serif" font-size="10.00">_area/sourcecode/dbe</text>
<text text-anchor="middle" x="582.12" y="-5.75" font-family="Helvetica,sans-Serif" font-size="10.00">/src/widgets/ObjectEditor.cpp</text>
</a>
</g>
</g>
<!-- Node5&#45;&gt;Node14 -->
<g id="edge15_Node000005_Node000014" class="edge">
<title>Node5&#45;&gt;Node14</title>
<g id="a_edge15_Node000005_Node000014"><a xlink:title=" ">
<path fill="none" stroke="#63b8ff" d="M679.53,-72.07C660.66,-62.35 639.44,-51.41 621.63,-42.23"/>
<polygon fill="#63b8ff" stroke="#63b8ff" points="677.89,-75.16 688.39,-76.63 681.1,-68.94 677.89,-75.16"/>
</a>
</g>
</g>
<!-- Node17&#45;&gt;Node5 -->
<g id="edge25_Node000017_Node000005" class="edge">
<title>Node17&#45;&gt;Node5</title>
<g id="a_edge25_Node000017_Node000005"><a xlink:title=" ">
<path fill="none" stroke="#63b8ff" d="M662.79,-309.46C674.85,-299.92 686.91,-288.22 695.12,-275 725.8,-225.6 729.78,-154.48 729.71,-119.96"/>
<polygon fill="#63b8ff" stroke="#63b8ff" points="660.75,-306.62 654.85,-315.42 664.95,-312.22 660.75,-306.62"/>
</a>
</g>
</g>
<!-- Node18 -->
<g id="Node000018" class="node">
<title>Node18</title>
<g id="a_Node000018"><a xlink:href="CustomTableView_8hpp.html" target="_top" xlink:title=" ">
<polygon fill="white" stroke="#666666" points="329.62,-275 160.62,-275 160.62,-233.25 329.62,-233.25 329.62,-275"/>
<text text-anchor="start" x="168.62" y="-261.5" font-family="Helvetica,sans-Serif" font-size="10.00">/github/workspace/dev</text>
<text text-anchor="start" x="168.62" y="-250.25" font-family="Helvetica,sans-Serif" font-size="10.00">_area/sourcecode/dbe</text>
<text text-anchor="middle" x="245.12" y="-239" font-family="Helvetica,sans-Serif" font-size="10.00">/include/dbe/CustomTableView.hpp</text>
</a>
</g>
</g>
<!-- Node17&#45;&gt;Node18 -->
<g id="edge20_Node000017_Node000018" class="edge">
<title>Node17&#45;&gt;Node18</title>
<g id="a_edge20_Node000017_Node000018"><a xlink:title=" ">
<path fill="none" stroke="#63b8ff" d="M560.05,-312.74C558.06,-312.13 556.08,-311.55 554.12,-311 466.3,-286.45 441.84,-291.33 352.12,-275 344.97,-273.7 337.54,-272.34 330.09,-270.97"/>
<polygon fill="#63b8ff" stroke="#63b8ff" points="558.71,-315.98 569.3,-315.77 560.89,-309.33 558.71,-315.98"/>
</a>
</g>
</g>
<!-- Node19 -->
<g id="Node000019" class="node">
<title>Node19</title>
<g id="a_Node000019"><a xlink:href="TableTab_8hpp.html" target="_top" xlink:title=" ">
<polygon fill="white" stroke="#666666" points="310.12,-197.25 180.12,-197.25 180.12,-155.5 310.12,-155.5 310.12,-197.25"/>
<text text-anchor="start" x="188.12" y="-183.75" font-family="Helvetica,sans-Serif" font-size="10.00">/github/workspace/dev</text>
<text text-anchor="start" x="188.12" y="-172.5" font-family="Helvetica,sans-Serif" font-size="10.00">_area/sourcecode/dbe</text>
<text text-anchor="middle" x="245.12" y="-161.25" font-family="Helvetica,sans-Serif" font-size="10.00">/include/dbe/TableTab.hpp</text>
</a>
</g>
</g>
<!-- Node17&#45;&gt;Node19 -->
<g id="edge26_Node000017_Node000019" class="edge">
<title>Node17&#45;&gt;Node19</title>
<g id="a_edge26_Node000017_Node000019"><a xlink:title=" ">
<path fill="none" stroke="#63b8ff" d="M559.51,-312.69C557.7,-312.1 555.9,-311.54 554.12,-311 483.96,-289.73 459.63,-305.87 393.12,-275 365.29,-262.08 363.54,-250.46 338.12,-233.25 319.72,-220.79 298.52,-207.94 281.02,-197.72"/>
<polygon fill="#63b8ff" stroke="#63b8ff" points="557.92,-315.84 568.51,-315.74 560.17,-309.21 557.92,-315.84"/>
</a>
</g>
</g>
<!-- Node17&#45;&gt;Node20 -->
<g id="edge27_Node000017_Node000020" class="edge">
<title>Node17&#45;&gt;Node20</title>
<g id="a_edge27_Node000017_Node000020"><a xlink:title=" ">
<path fill="none" stroke="#63b8ff" d="M616.66,-305.14C615.55,-295.12 614.35,-284.3 613.36,-275.29"/>
<polygon fill="#63b8ff" stroke="#63b8ff" points="613.16,-305.33 617.73,-314.88 620.11,-304.56 613.16,-305.33"/>
</a>
</g>
</g>
<!-- Node23 -->
<g id="Node000023" class="node">
<title>Node23</title>
<g id="a_Node000023"><a xlink:href="table_8cpp.html" target="_top" xlink:title=" ">
<polygon fill="white" stroke="#666666" points="518,-275 402.25,-275 402.25,-233.25 518,-233.25 518,-275"/>
<text text-anchor="start" x="410.25" y="-261.5" font-family="Helvetica,sans-Serif" font-size="10.00">/github/workspace/dev</text>
<text text-anchor="start" x="410.25" y="-250.25" font-family="Helvetica,sans-Serif" font-size="10.00">_area/sourcecode/dbe</text>
<text text-anchor="middle" x="460.12" y="-239" font-family="Helvetica,sans-Serif" font-size="10.00">/src/structure/table.cpp</text>
</a>
</g>
</g>
<!-- Node17&#45;&gt;Node23 -->
<g id="edge33_Node000017_Node000023" class="edge">
<title>Node17&#45;&gt;Node23</title>
<g id="a_edge33_Node000017_Node000023"><a xlink:title=" ">
<path fill="none" stroke="#63b8ff" d="M570.1,-311.06C547.57,-299.6 521.33,-286.25 500.13,-275.47"/>
<polygon fill="#63b8ff" stroke="#63b8ff" points="568.31,-314.08 578.81,-315.49 571.49,-307.84 568.31,-314.08"/>
</a>
</g>
</g>
<!-- Node18&#45;&gt;Node10 -->
<g id="edge24_Node000018_Node000010" class="edge">
<title>Node18&#45;&gt;Node10</title>
<g id="a_edge24_Node000018_Node000010"><a xlink:title=" ">
<path fill="none" stroke="#63b8ff" d="M169.72,-227.76C155.22,-219.93 141.38,-209.92 131.12,-197.25 93.8,-151.13 87.6,-77.52 86.92,-42.15"/>
<polygon fill="#63b8ff" stroke="#63b8ff" points="167.97,-230.8 178.47,-232.16 171.11,-224.54 167.97,-230.8"/>
</a>
</g>
</g>
<!-- Node18&#45;&gt;Node19 -->
<g id="edge21_Node000018_Node000019" class="edge">
<title>Node18&#45;&gt;Node19</title>
<g id="a_edge21_Node000018_Node000019"><a xlink:title=" ">
<path fill="none" stroke="#63b8ff" d="M245.12,-221.5C245.12,-213.46 245.12,-205.04 245.12,-197.73"/>
<polygon fill="#63b8ff" stroke="#63b8ff" points="241.63,-221.31 245.13,-231.31 248.63,-221.31 241.63,-221.31"/>
</a>
</g>
</g>
<!-- Node19&#45;&gt;Node5 -->
<g id="edge22_Node000019_Node000005" class="edge">
<title>Node19&#45;&gt;Node5</title>
<g id="a_edge22_Node000019_Node000005"><a xlink:title=" ">
<path fill="none" stroke="#63b8ff" d="M321.48,-155.15C444.24,-130.94 576.54,-115.13 656.45,-106.71"/>
<polygon fill="#63b8ff" stroke="#63b8ff" points="320.99,-151.68 311.87,-157.07 322.36,-158.54 320.99,-151.68"/>
</a>
</g>
</g>
<!-- Node19&#45;&gt;Node7 -->
<g id="edge23_Node000019_Node000007" class="edge">
<title>Node19&#45;&gt;Node7</title>
<g id="a_edge23_Node000019_Node000007"><a xlink:title=" ">
<path fill="none" stroke="#63b8ff" d="M245.94,-144.01C246.74,-113.46 247.93,-67.92 248.6,-41.95"/>
<polygon fill="#63b8ff" stroke="#63b8ff" points="242.45,-143.71 245.69,-153.79 249.45,-143.89 242.45,-143.71"/>
</a>
</g>
</g>
<!-- Node20&#45;&gt;Node5 -->
<g id="edge28_Node000020_Node000005" class="edge">
<title>Node20&#45;&gt;Node5</title>
<g id="a_edge28_Node000020_Node000005"><a xlink:title=" ">
<path fill="none" stroke="#63b8ff" d="M564.87,-225.99C555.3,-218.03 546.49,-208.41 541.12,-197.25 533.08,-180.53 530.03,-170.37 541.12,-155.5 555.3,-136.5 609.68,-121.64 656.33,-112.03"/>
<polygon fill="#63b8ff" stroke="#63b8ff" points="562.54,-228.61 572.61,-231.91 566.8,-223.06 562.54,-228.61"/>
</a>
</g>
</g>
<!-- Node20&#45;&gt;Node10 -->
<g id="edge31_Node000020_Node000010" class="edge">
<title>Node20&#45;&gt;Node10</title>
<g id="a_edge31_Node000020_Node000010"><a xlink:title=" ">
<path fill="none" stroke="#63b8ff" d="M524.75,-233.22C431.53,-221.83 233.52,-241.09 171.12,-197.25 157.31,-187.55 113.81,-85.96 95.44,-41.99"/>
<polygon fill="#63b8ff" stroke="#63b8ff" points="524.22,-236.68 534.62,-234.65 525.22,-229.76 524.22,-236.68"/>
</a>
</g>
</g>
<!-- Node20&#45;&gt;Node19 -->
<g id="edge29_Node000020_Node000019" class="edge">
<title>Node20&#45;&gt;Node19</title>
<g id="a_edge29_Node000020_Node000019"><a xlink:title=" ">
<path fill="none" stroke="#63b8ff" d="M524.87,-232.86C433.25,-214.64 407.26,-216.67 319.12,-197.25 316.27,-196.62 313.35,-195.95 310.42,-195.26"/>
<polygon fill="#63b8ff" stroke="#63b8ff" points="524.09,-236.28 534.59,-234.83 525.48,-229.42 524.09,-236.28"/>
</a>
</g>
</g>
<!-- Node21 -->
<g id="Node000021" class="node">
<title>Node21</title>
<g id="a_Node000021"><a xlink:href="CustomDelegate_8cpp.html" target="_top" xlink:title=" ">
<polygon fill="white" stroke="#666666" points="494.5,-197.25 327.75,-197.25 327.75,-155.5 494.5,-155.5 494.5,-197.25"/>
<text text-anchor="start" x="335.75" y="-183.75" font-family="Helvetica,sans-Serif" font-size="10.00">/github/workspace/dev</text>
<text text-anchor="start" x="335.75" y="-172.5" font-family="Helvetica,sans-Serif" font-size="10.00">_area/sourcecode/dbe</text>
<text text-anchor="middle" x="411.12" y="-161.25" font-family="Helvetica,sans-Serif" font-size="10.00">/src/structure/CustomDelegate.cpp</text>
</a>
</g>
</g>
<!-- Node20&#45;&gt;Node21 -->
<g id="edge30_Node000020_Node000021" class="edge">
<title>Node20&#45;&gt;Node21</title>
<g id="a_edge30_Node000020_Node000021"><a xlink:title=" ">
<path fill="none" stroke="#63b8ff" d="M546.84,-228.78C520.39,-218.76 490.11,-207.29 464.87,-197.73"/>
<polygon fill="#63b8ff" stroke="#63b8ff" points="545.52,-232.02 556.11,-232.29 548,-225.47 545.52,-232.02"/>
</a>
</g>
</g>
<!-- Node22 -->
<g id="Node000022" class="node">
<title>Node22</title>
<g id="a_Node000022"><a xlink:href="tableselection_8cpp.html" target="_top" xlink:title=" ">
<polygon fill="white" stroke="#666666" points="704.5,-197.25 549.75,-197.25 549.75,-155.5 704.5,-155.5 704.5,-197.25"/>
<text text-anchor="start" x="557.75" y="-183.75" font-family="Helvetica,sans-Serif" font-size="10.00">/github/workspace/dev</text>
<text text-anchor="start" x="557.75" y="-172.5" font-family="Helvetica,sans-Serif" font-size="10.00">_area/sourcecode/dbe</text>
<text text-anchor="middle" x="627.12" y="-161.25" font-family="Helvetica,sans-Serif" font-size="10.00">/src/structure/tableselection.cpp</text>
</a>
</g>
</g>
<!-- Node20&#45;&gt;Node22 -->
<g id="edge32_Node000020_Node000022" class="edge">
<title>Node20&#45;&gt;Node22</title>
<g id="a_edge32_Node000020_Node000022"><a xlink:title=" ">
<path fill="none" stroke="#63b8ff" d="M617.75,-221.78C619.46,-213.66 621.26,-205.12 622.83,-197.73"/>
<polygon fill="#63b8ff" stroke="#63b8ff" points="614.37,-220.84 615.73,-231.34 621.22,-222.28 614.37,-220.84"/>
</a>
</g>
</g>
<!-- Node24&#45;&gt;Node5 -->
<g id="edge36_Node000024_Node000005" class="edge">
<title>Node24&#45;&gt;Node5</title>
<g id="a_edge36_Node000024_Node000005"><a xlink:title=" ">
<path fill="none" stroke="#63b8ff" d="M910.94,-154.71C875.17,-143.88 831.52,-130.65 795.95,-119.87"/>
<polygon fill="#63b8ff" stroke="#63b8ff" points="909.74,-158.01 920.32,-157.56 911.77,-151.31 909.74,-158.01"/>
</a>
</g>
</g>
<!-- Node24&#45;&gt;Node15 -->
<g id="edge37_Node000024_Node000015" class="edge">
<title>Node24&#45;&gt;Node15</title>
<g id="a_edge37_Node000024_Node000015"><a xlink:title=" ">
<path fill="none" stroke="#63b8ff" d="M1024.13,-149.55C1040.95,-139.89 1059.81,-129.07 1075.65,-119.98"/>
<polygon fill="#63b8ff" stroke="#63b8ff" points="1022.74,-146.31 1015.81,-154.32 1026.23,-152.38 1022.74,-146.31"/>
</a>
</g>
</g>
<!-- Node24&#45;&gt;Node16 -->
<g id="edge38_Node000024_Node000016" class="edge">
<title>Node24&#45;&gt;Node16</title>
<g id="a_edge38_Node000024_Node000016"><a xlink:title=" ">
<path fill="none" stroke="#63b8ff" d="M960.94,-145.43C955.76,-136.89 950.23,-127.8 945.49,-119.98"/>
<polygon fill="#63b8ff" stroke="#63b8ff" points="957.83,-147.05 966.01,-153.78 963.81,-143.42 957.83,-147.05"/>
</a>
</g>
</g>
<!-- Node25 -->
<g id="Node000025" class="node">
<title>Node25</title>
<g id="a_Node000025"><a xlink:href="tree_8cpp.html" target="_top" xlink:title=" ">
<polygon fill="white" stroke="#666666" points="1328.25,-119.5 1214,-119.5 1214,-77.75 1328.25,-77.75 1328.25,-119.5"/>
<text text-anchor="start" x="1222" y="-106" font-family="Helvetica,sans-Serif" font-size="10.00">/github/workspace/dev</text>
<text text-anchor="start" x="1222" y="-94.75" font-family="Helvetica,sans-Serif" font-size="10.00">_area/sourcecode/dbe</text>
<text text-anchor="middle" x="1271.12" y="-83.5" font-family="Helvetica,sans-Serif" font-size="10.00">/src/structure/tree.cpp</text>
</a>
</g>
</g>
<!-- Node24&#45;&gt;Node25 -->
<g id="edge39_Node000024_Node000025" class="edge">
<title>Node24&#45;&gt;Node25</title>
<g id="a_edge39_Node000024_Node000025"><a xlink:title=" ">
<path fill="none" stroke="#63b8ff" d="M1047.37,-155C1117.52,-137.03 1137.93,-137.15 1205.12,-119.5 1207.9,-118.77 1210.74,-118 1213.6,-117.21"/>
<polygon fill="#63b8ff" stroke="#63b8ff" points="1046.91,-151.51 1038.11,-157.41 1048.67,-158.28 1046.91,-151.51"/>
</a>
</g>
</g>
<!-- Node26 -->
<g id="Node000026" class="node">
<title>Node26</title>
<g id="a_Node000026"><a xlink:href="treeselection_8cpp.html" target="_top" xlink:title=" ">
<polygon fill="white" stroke="#666666" points="1496.25,-119.5 1346,-119.5 1346,-77.75 1496.25,-77.75 1496.25,-119.5"/>
<text text-anchor="start" x="1354" y="-106" font-family="Helvetica,sans-Serif" font-size="10.00">/github/workspace/dev</text>
<text text-anchor="start" x="1354" y="-94.75" font-family="Helvetica,sans-Serif" font-size="10.00">_area/sourcecode/dbe</text>
<text text-anchor="middle" x="1421.12" y="-83.5" font-family="Helvetica,sans-Serif" font-size="10.00">/src/structure/treeselection.cpp</text>
</a>
</g>
</g>
<!-- Node24&#45;&gt;Node26 -->
<g id="edge40_Node000024_Node000026" class="edge">
<title>Node24&#45;&gt;Node26</title>
<g id="a_edge40_Node000024_Node000026"><a xlink:title=" ">
<path fill="none" stroke="#63b8ff" d="M1047.54,-155.17C1175.08,-129.29 1211.94,-141.96 1337.12,-119.5 1339.93,-119 1342.78,-118.46 1345.65,-117.9"/>
<polygon fill="#63b8ff" stroke="#63b8ff" points="1047.13,-151.68 1038.05,-157.14 1048.55,-158.54 1047.13,-151.68"/>
</a>
</g>
</g>
<!-- Node27&#45;&gt;Node5 -->
<g id="edge42_Node000027_Node000005" class="edge">
<title>Node27&#45;&gt;Node5</title>
<g id="a_edge42_Node000027_Node000005"><a xlink:title=" ">
<path fill="none" stroke="#63b8ff" d="M1043.36,-155.22C985.1,-143.47 875.53,-124.51 802.05,-111.97"/>
<polygon fill="#63b8ff" stroke="#63b8ff" points="1042.32,-158.58 1052.82,-157.17 1043.73,-151.72 1042.32,-158.58"/>
</a>
</g>
</g>
<!-- Node27&#45;&gt;Node15 -->
<g id="edge43_Node000027_Node000015" class="edge">
<title>Node27&#45;&gt;Node15</title>
<g id="a_edge43_Node000027_Node000015"><a xlink:title=" ">
<path fill="none" stroke="#63b8ff" d="M1120.5,-144.03C1118.79,-135.91 1116.99,-127.37 1115.42,-119.98"/>
<polygon fill="#63b8ff" stroke="#63b8ff" points="1117.03,-144.53 1122.52,-153.59 1123.88,-143.09 1117.03,-144.53"/>
</a>
</g>
</g>
<!-- Node27&#45;&gt;Node26 -->
<g id="edge44_Node000027_Node000026" class="edge">
<title>Node27&#45;&gt;Node26</title>
<g id="a_edge44_Node000027_Node000026"><a xlink:title=" ">
<path fill="none" stroke="#63b8ff" d="M1210.68,-153.85C1253.18,-142.9 1304.42,-129.69 1345.7,-119.06"/>
<polygon fill="#63b8ff" stroke="#63b8ff" points="1210.08,-150.39 1201.26,-156.27 1211.82,-157.17 1210.08,-150.39"/>
</a>
</g>
</g>
</g>
</svg>
