<?xml version="1.0" encoding="UTF-8" standalone="no"?>
<!DOCTYPE svg PUBLIC "-//W3C//DTD SVG 1.1//EN"
 "http://www.w3.org/Graphics/SVG/1.1/DTD/svg11.dtd">
<!-- Generated by graphviz version 9.0.0 (20230911.1827)
 -->
<!-- Title: /github/workspace/dev_area/build/trigger/codegen/include/trigger/opmon/moduleleveltrigger_info.pb.cc Pages: 1 -->
<svg width="1996pt" height="194pt"
 viewBox="0.00 0.00 1995.62 194.00" xmlns="http://www.w3.org/2000/svg" xmlns:xlink="http://www.w3.org/1999/xlink">
<g id="graph0" class="graph" transform="scale(1 1) rotate(0) translate(4 190)">
<title>/github/workspace/dev_area/build/trigger/codegen/include/trigger/opmon/moduleleveltrigger_info.pb.cc</title>
<!-- Node1 -->
<g id="Node000001" class="node">
<title>Node1</title>
<g id="a_Node000001"><a xlink:title=" ">
<polygon fill="#999999" stroke="#666666" points="1285,-186 1091.25,-186 1091.25,-133 1285,-133 1285,-186"/>
<text text-anchor="start" x="1099.25" y="-172.5" font-family="Helvetica,sans-Serif" font-size="10.00">/github/workspace/dev</text>
<text text-anchor="start" x="1099.25" y="-161.25" font-family="Helvetica,sans-Serif" font-size="10.00">_area/build/trigger/codegen</text>
<text text-anchor="start" x="1099.25" y="-150" font-family="Helvetica,sans-Serif" font-size="10.00">/include/trigger/opmon/moduleleveltrigger</text>
<text text-anchor="middle" x="1188.12" y="-138.75" font-family="Helvetica,sans-Serif" font-size="10.00">_info.pb.cc</text>
</a>
</g>
</g>
<!-- Node2 -->
<g id="Node000002" class="node">
<title>Node2</title>
<g id="a_Node000002"><a xlink:href="moduleleveltrigger__info_8pb_8h.html" target="_top" xlink:title=" ">
<polygon fill="white" stroke="#666666" points="1093.62,-97 936.62,-97 936.62,-66.5 1093.62,-66.5 1093.62,-97"/>
<text text-anchor="start" x="944.62" y="-83.5" font-family="Helvetica,sans-Serif" font-size="10.00">trigger/opmon/moduleleveltrigger</text>
<text text-anchor="middle" x="1015.12" y="-72.25" font-family="Helvetica,sans-Serif" font-size="10.00">_info.pb.h</text>
</a>
</g>
</g>
<!-- Node1&#45;&gt;Node2 -->
<g id="edge1_Node000001_Node000002" class="edge">
<title>Node1&#45;&gt;Node2</title>
<g id="a_edge1_Node000001_Node000002"><a xlink:title=" ">
<path fill="none" stroke="#63b8ff" d="M1129.07,-132.64C1106.13,-122.6 1080.31,-111.29 1059.06,-101.99"/>
<polygon fill="#63b8ff" stroke="#63b8ff" points="1060.66,-98.87 1050.1,-98.06 1057.86,-105.28 1060.66,-98.87"/>
</a>
</g>
</g>
<!-- Node6 -->
<g id="Node000006" class="node">
<title>Node6</title>
<g id="a_Node000006"><a xlink:title=" ">
<polygon fill="#e0e0e0" stroke="#999999" points="102.25,-30.5 0,-30.5 0,0 102.25,0 102.25,-30.5"/>
<text text-anchor="start" x="8" y="-17" font-family="Helvetica,sans-Serif" font-size="10.00">google/protobuf/port</text>
<text text-anchor="middle" x="51.12" y="-5.75" font-family="Helvetica,sans-Serif" font-size="10.00">_def.inc</text>
</a>
</g>
</g>
<!-- Node1&#45;&gt;Node6 -->
<g id="edge27_Node000001_Node000006" class="edge">
<title>Node1&#45;&gt;Node6</title>
<g id="a_edge27_Node000001_Node000006"><a xlink:title=" ">
<path fill="none" stroke="#63b8ff" d="M1090.98,-155.51C941.85,-149.9 647.86,-134.72 401.12,-97 299.17,-81.41 182.85,-52.26 113.3,-33.58"/>
<polygon fill="#63b8ff" stroke="#63b8ff" points="114.57,-30.29 104,-31.07 112.75,-37.05 114.57,-30.29"/>
</a>
</g>
</g>
<!-- Node7 -->
<g id="Node000007" class="node">
<title>Node7</title>
<g id="a_Node000007"><a xlink:title=" ">
<polygon fill="#e0e0e0" stroke="#999999" points="222.25,-30.5 120,-30.5 120,0 222.25,0 222.25,-30.5"/>
<text text-anchor="start" x="128" y="-17" font-family="Helvetica,sans-Serif" font-size="10.00">google/protobuf/port</text>
<text text-anchor="middle" x="171.12" y="-5.75" font-family="Helvetica,sans-Serif" font-size="10.00">_undef.inc</text>
</a>
</g>
</g>
<!-- Node1&#45;&gt;Node7 -->
<g id="edge28_Node000001_Node000007" class="edge">
<title>Node1&#45;&gt;Node7</title>
<g id="a_edge28_Node000001_Node000007"><a xlink:title=" ">
<path fill="none" stroke="#63b8ff" d="M1090.89,-150.89C972.49,-141.07 766.58,-122.2 591.12,-97 433.69,-74.39 392.17,-64.53 233.59,-30.98"/>
<polygon fill="#63b8ff" stroke="#63b8ff" points="234.46,-27.58 223.95,-28.94 233.01,-34.43 234.46,-27.58"/>
</a>
</g>
</g>
<!-- Node8 -->
<g id="Node000008" class="node">
<title>Node8</title>
<g id="a_Node000008"><a xlink:title=" ">
<polygon fill="#e0e0e0" stroke="#999999" points="333.75,-30.5 240.5,-30.5 240.5,0 333.75,0 333.75,-30.5"/>
<text text-anchor="start" x="248.5" y="-17" font-family="Helvetica,sans-Serif" font-size="10.00">google/protobuf/io</text>
<text text-anchor="middle" x="287.12" y="-5.75" font-family="Helvetica,sans-Serif" font-size="10.00">/coded_stream.h</text>
</a>
</g>
</g>
<!-- Node1&#45;&gt;Node8 -->
<g id="edge19_Node000001_Node000008" class="edge">
<title>Node1&#45;&gt;Node8</title>
<g id="a_edge19_Node000001_Node000008"><a xlink:title=" ">
<path fill="none" stroke="#63b8ff" d="M1090.97,-143.24C972.86,-124.76 767.45,-92.83 591.12,-66.5 484.1,-50.52 453.69,-52.41 345.25,-31.01"/>
<polygon fill="#63b8ff" stroke="#63b8ff" points="346.13,-27.62 335.64,-29.09 344.76,-34.48 346.13,-27.62"/>
</a>
</g>
</g>
<!-- Node14 -->
<g id="Node000014" class="node">
<title>Node14</title>
<g id="a_Node000014"><a xlink:title=" ">
<polygon fill="#e0e0e0" stroke="#999999" points="1842.38,-30.5 1713.88,-30.5 1713.88,0 1842.38,0 1842.38,-30.5"/>
<text text-anchor="start" x="1721.88" y="-17" font-family="Helvetica,sans-Serif" font-size="10.00">google/protobuf/generated</text>
<text text-anchor="middle" x="1778.12" y="-5.75" font-family="Helvetica,sans-Serif" font-size="10.00">_message_reflection.h</text>
</a>
</g>
</g>
<!-- Node1&#45;&gt;Node14 -->
<g id="edge23_Node000001_Node000014" class="edge">
<title>Node1&#45;&gt;Node14</title>
<g id="a_edge23_Node000001_Node000014"><a xlink:title=" ">
<path fill="none" stroke="#63b8ff" d="M1162.16,-132.91C1144.94,-112.87 1128.47,-85.33 1146.12,-66.5 1186.83,-23.09 1604.23,-37.07 1702.28,-30.35"/>
<polygon fill="#63b8ff" stroke="#63b8ff" points="1702.57,-33.84 1712.2,-29.43 1701.92,-26.87 1702.57,-33.84"/>
</a>
</g>
</g>
<!-- Node17 -->
<g id="Node000017" class="node">
<title>Node17</title>
<g id="a_Node000017"><a xlink:title=" ">
<polygon fill="#e0e0e0" stroke="#999999" points="1987.62,-30.5 1860.62,-30.5 1860.62,0 1987.62,0 1987.62,-30.5"/>
<text text-anchor="start" x="1868.62" y="-17" font-family="Helvetica,sans-Serif" font-size="10.00">google/protobuf/extension</text>
<text text-anchor="middle" x="1924.12" y="-5.75" font-family="Helvetica,sans-Serif" font-size="10.00">_set.h</text>
</a>
</g>
</g>
<!-- Node1&#45;&gt;Node17 -->
<g id="edge20_Node000001_Node000017" class="edge">
<title>Node1&#45;&gt;Node17</title>
<g id="a_edge20_Node000001_Node000017"><a xlink:title=" ">
<path fill="none" stroke="#63b8ff" d="M1176.1,-132.81C1168.42,-112.17 1162.67,-83.85 1179.12,-66.5 1228.66,-14.25 1737.05,-37.76 1849.34,-30.23"/>
<polygon fill="#63b8ff" stroke="#63b8ff" points="1849.36,-33.74 1859,-29.35 1848.72,-26.77 1849.36,-33.74"/>
</a>
</g>
</g>
<!-- Node19 -->
<g id="Node000019" class="node">
<title>Node19</title>
<g id="a_Node000019"><a xlink:title=" ">
<polygon fill="#e0e0e0" stroke="#999999" points="1244,-91.38 1188.25,-91.38 1188.25,-72.12 1244,-72.12 1244,-91.38"/>
<text text-anchor="middle" x="1216.12" y="-77.88" font-family="Helvetica,sans-Serif" font-size="10.00">algorithm</text>
</a>
</g>
</g>
<!-- Node1&#45;&gt;Node19 -->
<g id="edge18_Node000001_Node000019" class="edge">
<title>Node1&#45;&gt;Node19</title>
<g id="a_edge18_Node000001_Node000019"><a xlink:title=" ">
<path fill="none" stroke="#63b8ff" d="M1197.6,-132.85C1201.31,-122.84 1205.48,-111.54 1208.93,-102.21"/>
<polygon fill="#63b8ff" stroke="#63b8ff" points="1212.11,-103.7 1212.3,-93.11 1205.55,-101.28 1212.11,-103.7"/>
</a>
</g>
</g>
<!-- Node20 -->
<g id="Node000020" class="node">
<title>Node20</title>
<g id="a_Node000020"><a xlink:title=" ">
<polygon fill="#e0e0e0" stroke="#999999" points="1366,-97 1262.25,-97 1262.25,-66.5 1366,-66.5 1366,-97"/>
<text text-anchor="start" x="1270.25" y="-83.5" font-family="Helvetica,sans-Serif" font-size="10.00">google/protobuf/wire</text>
<text text-anchor="middle" x="1314.12" y="-72.25" font-family="Helvetica,sans-Serif" font-size="10.00">_format_lite.h</text>
</a>
</g>
</g>
<!-- Node1&#45;&gt;Node20 -->
<g id="edge21_Node000001_Node000020" class="edge">
<title>Node1&#45;&gt;Node20</title>
<g id="a_edge21_Node000001_Node000020"><a xlink:title=" ">
<path fill="none" stroke="#63b8ff" d="M1231.13,-132.64C1247.16,-123.01 1265.11,-112.22 1280.2,-103.14"/>
<polygon fill="#63b8ff" stroke="#63b8ff" points="1281.6,-106.39 1288.36,-98.24 1277.99,-100.39 1281.6,-106.39"/>
</a>
</g>
</g>
<!-- Node21 -->
<g id="Node000021" class="node">
<title>Node21</title>
<g id="a_Node000021"><a xlink:title=" ">
<polygon fill="#e0e0e0" stroke="#999999" points="1520.12,-91.38 1384.12,-91.38 1384.12,-72.12 1520.12,-72.12 1520.12,-91.38"/>
<text text-anchor="middle" x="1452.12" y="-77.88" font-family="Helvetica,sans-Serif" font-size="10.00">google/protobuf/descriptor.h</text>
</a>
</g>
</g>
<!-- Node1&#45;&gt;Node21 -->
<g id="edge22_Node000001_Node000021" class="edge">
<title>Node1&#45;&gt;Node21</title>
<g id="a_edge22_Node000001_Node000021"><a xlink:title=" ">
<path fill="none" stroke="#63b8ff" d="M1278.61,-132.54C1323.06,-119.78 1374.49,-105.02 1409.76,-94.91"/>
<polygon fill="#63b8ff" stroke="#63b8ff" points="1410.51,-98.33 1419.15,-92.21 1408.58,-91.6 1410.51,-98.33"/>
</a>
</g>
</g>
<!-- Node22 -->
<g id="Node000022" class="node">
<title>Node22</title>
<g id="a_Node000022"><a xlink:title=" ">
<polygon fill="#e0e0e0" stroke="#999999" points="1662.5,-97 1537.75,-97 1537.75,-66.5 1662.5,-66.5 1662.5,-97"/>
<text text-anchor="start" x="1545.75" y="-83.5" font-family="Helvetica,sans-Serif" font-size="10.00">google/protobuf/reflection</text>
<text text-anchor="middle" x="1600.12" y="-72.25" font-family="Helvetica,sans-Serif" font-size="10.00">_ops.h</text>
</a>
</g>
</g>
<!-- Node1&#45;&gt;Node22 -->
<g id="edge24_Node000001_Node000022" class="edge">
<title>Node1&#45;&gt;Node22</title>
<g id="a_edge24_Node000001_Node000022"><a xlink:title=" ">
<path fill="none" stroke="#63b8ff" d="M1285.23,-141.51C1350.71,-129.93 1439.36,-114.02 1526.28,-97.52"/>
<polygon fill="#63b8ff" stroke="#63b8ff" points="1526.76,-100.99 1535.93,-95.69 1525.45,-94.12 1526.76,-100.99"/>
</a>
</g>
</g>
<!-- Node23 -->
<g id="Node000023" class="node">
<title>Node23</title>
<g id="a_Node000023"><a xlink:title=" ">
<polygon fill="#e0e0e0" stroke="#999999" points="1784,-97 1680.25,-97 1680.25,-66.5 1784,-66.5 1784,-97"/>
<text text-anchor="start" x="1688.25" y="-83.5" font-family="Helvetica,sans-Serif" font-size="10.00">google/protobuf/wire</text>
<text text-anchor="middle" x="1732.12" y="-72.25" font-family="Helvetica,sans-Serif" font-size="10.00">_format.h</text>
</a>
</g>
</g>
<!-- Node1&#45;&gt;Node23 -->
<g id="edge25_Node000001_Node000023" class="edge">
<title>Node1&#45;&gt;Node23</title>
<g id="a_edge25_Node000001_Node000023"><a xlink:title=" ">
<path fill="none" stroke="#63b8ff" d="M1285.25,-149.1C1380.53,-139.2 1530.08,-121.86 1668.72,-97.32"/>
<polygon fill="#63b8ff" stroke="#63b8ff" points="1669.24,-100.78 1678.47,-95.58 1668.01,-93.89 1669.24,-100.78"/>
</a>
</g>
</g>
<!-- Node24 -->
<g id="Node000024" class="node">
<title>Node24</title>
<g id="a_Node000024"><a xlink:title=" ">
<polygon fill="#e0e0e0" stroke="#999999" points="1930.38,-97 1801.88,-97 1801.88,-66.5 1930.38,-66.5 1930.38,-97"/>
<text text-anchor="start" x="1809.88" y="-83.5" font-family="Helvetica,sans-Serif" font-size="10.00">google/protobuf/generated</text>
<text text-anchor="middle" x="1866.12" y="-72.25" font-family="Helvetica,sans-Serif" font-size="10.00">_message_tctable_impl.h</text>
</a>
</g>
</g>
<!-- Node1&#45;&gt;Node24 -->
<g id="edge26_Node000001_Node000024" class="edge">
<title>Node1&#45;&gt;Node24</title>
<g id="a_edge26_Node000001_Node000024"><a xlink:title=" ">
<path fill="none" stroke="#63b8ff" d="M1285.39,-151.37C1402.81,-142.14 1606.44,-124.15 1790.44,-97.31"/>
<polygon fill="#63b8ff" stroke="#63b8ff" points="1790.81,-100.8 1800.2,-95.88 1789.79,-93.87 1790.81,-100.8"/>
</a>
</g>
</g>
<!-- Node3 -->
<g id="Node000003" class="node">
<title>Node3</title>
<g id="a_Node000003"><a xlink:title=" ">
<polygon fill="#e0e0e0" stroke="#999999" points="1422.75,-24.88 1383.5,-24.88 1383.5,-5.63 1422.75,-5.63 1422.75,-24.88"/>
<text text-anchor="middle" x="1403.12" y="-11.38" font-family="Helvetica,sans-Serif" font-size="10.00">limits</text>
</a>
</g>
</g>
<!-- Node2&#45;&gt;Node3 -->
<g id="edge2_Node000002_Node000003" class="edge">
<title>Node2&#45;&gt;Node3</title>
<g id="a_edge2_Node000002_Node000003"><a xlink:title=" ">
<path fill="none" stroke="#63b8ff" d="M1094.01,-68.57C1098.78,-67.86 1103.52,-67.16 1108.12,-66.5 1226.2,-49.46 1260,-65.26 1374.12,-30.5 1374.93,-30.25 1375.74,-29.99 1376.55,-29.71"/>
<polygon fill="#63b8ff" stroke="#63b8ff" points="1377.68,-33.03 1385.54,-25.93 1374.97,-26.58 1377.68,-33.03"/>
</a>
</g>
</g>
<!-- Node4 -->
<g id="Node000004" class="node">
<title>Node4</title>
<g id="a_Node000004"><a xlink:title=" ">
<polygon fill="#e0e0e0" stroke="#999999" points="1481.12,-24.88 1441.12,-24.88 1441.12,-5.63 1481.12,-5.63 1481.12,-24.88"/>
<text text-anchor="middle" x="1461.12" y="-11.38" font-family="Helvetica,sans-Serif" font-size="10.00">string</text>
</a>
</g>
</g>
<!-- Node2&#45;&gt;Node4 -->
<g id="edge3_Node000002_Node000004" class="edge">
<title>Node2&#45;&gt;Node4</title>
<g id="a_edge3_Node000002_Node000004"><a xlink:title=" ">
<path fill="none" stroke="#63b8ff" d="M1093.99,-68.44C1098.77,-67.76 1103.51,-67.11 1108.12,-66.5 1251.76,-47.52 1293.03,-71.05 1432.12,-30.5 1433.09,-30.22 1434.06,-29.91 1435.04,-29.57"/>
<polygon fill="#63b8ff" stroke="#63b8ff" points="1436.01,-32.96 1443.87,-25.85 1433.3,-26.51 1436.01,-32.96"/>
</a>
</g>
</g>
<!-- Node5 -->
<g id="Node000005" class="node">
<title>Node5</title>
<g id="a_Node000005"><a xlink:title=" ">
<polygon fill="#e0e0e0" stroke="#999999" points="1560.62,-24.88 1499.62,-24.88 1499.62,-5.63 1560.62,-5.63 1560.62,-24.88"/>
<text text-anchor="middle" x="1530.12" y="-11.38" font-family="Helvetica,sans-Serif" font-size="10.00">type_traits</text>
</a>
</g>
</g>
<!-- Node2&#45;&gt;Node5 -->
<g id="edge4_Node000002_Node000005" class="edge">
<title>Node2&#45;&gt;Node5</title>
<g id="a_edge4_Node000002_Node000005"><a xlink:title=" ">
<path fill="none" stroke="#63b8ff" d="M1093.98,-68.34C1098.76,-67.69 1103.5,-67.07 1108.12,-66.5 1277.37,-45.58 1323.63,-67.4 1490.12,-30.5 1492.43,-29.99 1494.79,-29.38 1497.14,-28.71"/>
<polygon fill="#63b8ff" stroke="#63b8ff" points="1498.09,-32.08 1506.55,-25.7 1495.95,-25.42 1498.09,-32.08"/>
</a>
</g>
</g>
<!-- Node2&#45;&gt;Node6 -->
<g id="edge5_Node000002_Node000006" class="edge">
<title>Node2&#45;&gt;Node6</title>
<g id="a_edge5_Node000002_Node000006"><a xlink:title=" ">
<path fill="none" stroke="#63b8ff" d="M936.36,-81.06C780.63,-80.65 422.39,-74.65 113.68,-30.7"/>
<polygon fill="#63b8ff" stroke="#63b8ff" points="114.62,-27.3 104.22,-29.34 113.62,-34.23 114.62,-27.3"/>
</a>
</g>
</g>
<!-- Node2&#45;&gt;Node7 -->
<g id="edge6_Node000002_Node000007" class="edge">
<title>Node2&#45;&gt;Node7</title>
<g id="a_edge6_Node000002_Node000007"><a xlink:title=" ">
<path fill="none" stroke="#63b8ff" d="M936.44,-77.4C769.97,-70.05 385.68,-51.59 234.09,-30.73"/>
<polygon fill="#63b8ff" stroke="#63b8ff" points="234.62,-27.27 224.23,-29.31 233.63,-34.19 234.62,-27.27"/>
</a>
</g>
</g>
<!-- Node2&#45;&gt;Node8 -->
<g id="edge7_Node000002_Node000008" class="edge">
<title>Node2&#45;&gt;Node8</title>
<g id="a_edge7_Node000002_Node000008"><a xlink:title=" ">
<path fill="none" stroke="#63b8ff" d="M936.34,-74.87C774.36,-62.79 413.89,-35.9 345.35,-30.08"/>
<polygon fill="#63b8ff" stroke="#63b8ff" points="345.9,-26.61 335.62,-29.16 345.24,-33.58 345.9,-26.61"/>
</a>
</g>
</g>
<!-- Node9 -->
<g id="Node000009" class="node">
<title>Node9</title>
<g id="a_Node000009"><a xlink:title=" ">
<polygon fill="#e0e0e0" stroke="#999999" points="1695.75,-24.88 1578.5,-24.88 1578.5,-5.63 1695.75,-5.63 1695.75,-24.88"/>
<text text-anchor="middle" x="1637.12" y="-11.38" font-family="Helvetica,sans-Serif" font-size="10.00">google/protobuf/arena.h</text>
</a>
</g>
</g>
<!-- Node2&#45;&gt;Node9 -->
<g id="edge8_Node000002_Node000009" class="edge">
<title>Node2&#45;&gt;Node9</title>
<g id="a_edge8_Node000002_Node000009"><a xlink:title=" ">
<path fill="none" stroke="#63b8ff" d="M1093.97,-68.26C1098.75,-67.63 1103.5,-67.03 1108.12,-66.5 1312.72,-42.89 1366.29,-59.99 1570.12,-30.5 1575.79,-29.68 1581.7,-28.67 1587.55,-27.56"/>
<polygon fill="#63b8ff" stroke="#63b8ff" points="1588.06,-31.02 1597.18,-25.63 1586.69,-24.16 1588.06,-31.02"/>
</a>
</g>
</g>
<!-- Node10 -->
<g id="Node000010" class="node">
<title>Node10</title>
<g id="a_Node000010"><a xlink:title=" ">
<polygon fill="#e0e0e0" stroke="#999999" points="492.75,-24.88 351.5,-24.88 351.5,-5.63 492.75,-5.63 492.75,-24.88"/>
<text text-anchor="middle" x="422.12" y="-11.38" font-family="Helvetica,sans-Serif" font-size="10.00">google/protobuf/arenastring.h</text>
</a>
</g>
</g>
<!-- Node2&#45;&gt;Node10 -->
<g id="edge9_Node000002_Node000010" class="edge">
<title>Node2&#45;&gt;Node10</title>
<g id="a_edge9_Node000002_Node000010"><a xlink:title=" ">
<path fill="none" stroke="#63b8ff" d="M936.24,-74.96C835.33,-67.11 655.27,-51.61 502.12,-30.5 495.15,-29.54 487.86,-28.41 480.64,-27.22"/>
<polygon fill="#63b8ff" stroke="#63b8ff" points="481.34,-23.79 470.9,-25.56 480.17,-30.69 481.34,-23.79"/>
</a>
</g>
</g>
<!-- Node11 -->
<g id="Node000011" class="node">
<title>Node11</title>
<g id="a_Node000011"><a xlink:title=" ">
<polygon fill="#e0e0e0" stroke="#999999" points="639.38,-30.5 510.88,-30.5 510.88,0 639.38,0 639.38,-30.5"/>
<text text-anchor="start" x="518.88" y="-17" font-family="Helvetica,sans-Serif" font-size="10.00">google/protobuf/generated</text>
<text text-anchor="middle" x="575.12" y="-5.75" font-family="Helvetica,sans-Serif" font-size="10.00">_message_tctable_decl.h</text>
</a>
</g>
</g>
<!-- Node2&#45;&gt;Node11 -->
<g id="edge10_Node000002_Node000011" class="edge">
<title>Node2&#45;&gt;Node11</title>
<g id="a_edge10_Node000002_Node000011"><a xlink:title=" ">
<path fill="none" stroke="#63b8ff" d="M936.41,-71.19C864.7,-62.19 755.62,-47.8 650.78,-30.71"/>
<polygon fill="#63b8ff" stroke="#63b8ff" points="651.59,-27.3 641.16,-29.13 650.46,-34.21 651.59,-27.3"/>
</a>
</g>
</g>
<!-- Node12 -->
<g id="Node000012" class="node">
<title>Node12</title>
<g id="a_Node000012"><a xlink:title=" ">
<polygon fill="#e0e0e0" stroke="#999999" points="786.38,-30.5 657.88,-30.5 657.88,0 786.38,0 786.38,-30.5"/>
<text text-anchor="start" x="665.88" y="-17" font-family="Helvetica,sans-Serif" font-size="10.00">google/protobuf/generated</text>
<text text-anchor="middle" x="722.12" y="-5.75" font-family="Helvetica,sans-Serif" font-size="10.00">_message_util.h</text>
</a>
</g>
</g>
<!-- Node2&#45;&gt;Node12 -->
<g id="edge11_Node000002_Node000012" class="edge">
<title>Node2&#45;&gt;Node12</title>
<g id="a_edge11_Node000002_Node000012"><a xlink:title=" ">
<path fill="none" stroke="#63b8ff" d="M948.27,-66.03C903.49,-56.18 844.44,-43.18 797.92,-32.93"/>
<polygon fill="#63b8ff" stroke="#63b8ff" points="798.67,-29.52 788.15,-30.79 797.17,-36.35 798.67,-29.52"/>
</a>
</g>
</g>
<!-- Node13 -->
<g id="Node000013" class="node">
<title>Node13</title>
<g id="a_Node000013"><a xlink:title=" ">
<polygon fill="#e0e0e0" stroke="#999999" points="930.25,-30.5 804,-30.5 804,0 930.25,0 930.25,-30.5"/>
<text text-anchor="start" x="812" y="-17" font-family="Helvetica,sans-Serif" font-size="10.00">google/protobuf/metadata</text>
<text text-anchor="middle" x="867.12" y="-5.75" font-family="Helvetica,sans-Serif" font-size="10.00">_lite.h</text>
</a>
</g>
</g>
<!-- Node2&#45;&gt;Node13 -->
<g id="edge12_Node000002_Node000013" class="edge">
<title>Node2&#45;&gt;Node13</title>
<g id="a_edge12_Node000002_Node000013"><a xlink:title=" ">
<path fill="none" stroke="#63b8ff" d="M981.54,-66.11C960.71,-57.03 933.7,-45.27 911.16,-35.44"/>
<polygon fill="#63b8ff" stroke="#63b8ff" points="912.78,-32.33 902.22,-31.54 909.99,-38.75 912.78,-32.33"/>
</a>
</g>
</g>
<!-- Node2&#45;&gt;Node14 -->
<g id="edge13_Node000002_Node000014" class="edge">
<title>Node2&#45;&gt;Node14</title>
<g id="a_edge13_Node000002_Node000014"><a xlink:title=" ">
<path fill="none" stroke="#63b8ff" d="M1093.96,-68.16C1098.74,-67.55 1103.5,-66.99 1108.12,-66.5 1368.83,-38.73 1439.51,-63.34 1702.66,-30.69"/>
<polygon fill="#63b8ff" stroke="#63b8ff" points="1702.73,-34.21 1712.21,-29.49 1701.85,-27.27 1702.73,-34.21"/>
</a>
</g>
</g>
<!-- Node15 -->
<g id="Node000015" class="node">
<title>Node15</title>
<g id="a_Node000015"><a xlink:title=" ">
<polygon fill="#e0e0e0" stroke="#999999" points="1081.62,-24.88 948.62,-24.88 948.62,-5.63 1081.62,-5.63 1081.62,-24.88"/>
<text text-anchor="middle" x="1015.12" y="-11.38" font-family="Helvetica,sans-Serif" font-size="10.00">google/protobuf/message.h</text>
</a>
</g>
</g>
<!-- Node2&#45;&gt;Node15 -->
<g id="edge14_Node000002_Node000015" class="edge">
<title>Node2&#45;&gt;Node15</title>
<g id="a_edge14_Node000002_Node000015"><a xlink:title=" ">
<path fill="none" stroke="#63b8ff" d="M1015.12,-66.11C1015.12,-57.33 1015.12,-46.02 1015.12,-36.4"/>
<polygon fill="#63b8ff" stroke="#63b8ff" points="1018.63,-36.59 1015.13,-26.59 1011.63,-36.59 1018.63,-36.59"/>
</a>
</g>
</g>
<!-- Node16 -->
<g id="Node000016" class="node">
<title>Node16</title>
<g id="a_Node000016"><a xlink:title=" ">
<polygon fill="#e0e0e0" stroke="#999999" points="1222.75,-30.5 1099.5,-30.5 1099.5,0 1222.75,0 1222.75,-30.5"/>
<text text-anchor="start" x="1107.5" y="-17" font-family="Helvetica,sans-Serif" font-size="10.00">google/protobuf/repeated</text>
<text text-anchor="middle" x="1161.12" y="-5.75" font-family="Helvetica,sans-Serif" font-size="10.00">_field.h</text>
</a>
</g>
</g>
<!-- Node2&#45;&gt;Node16 -->
<g id="edge15_Node000002_Node000016" class="edge">
<title>Node2&#45;&gt;Node16</title>
<g id="a_edge15_Node000002_Node000016"><a xlink:title=" ">
<path fill="none" stroke="#63b8ff" d="M1048.25,-66.11C1068.72,-57.07 1095.21,-45.37 1117.38,-35.58"/>
<polygon fill="#63b8ff" stroke="#63b8ff" points="1118.76,-38.79 1126.49,-31.55 1115.93,-32.39 1118.76,-38.79"/>
</a>
</g>
</g>
<!-- Node2&#45;&gt;Node17 -->
<g id="edge16_Node000002_Node000017" class="edge">
<title>Node2&#45;&gt;Node17</title>
<g id="a_edge16_Node000002_Node000017"><a xlink:title=" ">
<path fill="none" stroke="#63b8ff" d="M1094.03,-71.43C1111.18,-69.61 1129.25,-67.85 1146.12,-66.5 1455.21,-41.82 1537.79,-68.02 1849.33,-30.58"/>
<polygon fill="#63b8ff" stroke="#63b8ff" points="1849.5,-34.08 1859.01,-29.4 1848.66,-27.13 1849.5,-34.08"/>
</a>
</g>
</g>
<!-- Node18 -->
<g id="Node000018" class="node">
<title>Node18</title>
<g id="a_Node000018"><a xlink:title=" ">
<polygon fill="#e0e0e0" stroke="#999999" points="1365.5,-30.5 1240.75,-30.5 1240.75,0 1365.5,0 1365.5,-30.5"/>
<text text-anchor="start" x="1248.75" y="-17" font-family="Helvetica,sans-Serif" font-size="10.00">google/protobuf/unknown</text>
<text text-anchor="middle" x="1303.12" y="-5.75" font-family="Helvetica,sans-Serif" font-size="10.00">_field_set.h</text>
</a>
</g>
</g>
<!-- Node2&#45;&gt;Node18 -->
<g id="edge17_Node000002_Node000018" class="edge">
<title>Node2&#45;&gt;Node18</title>
<g id="a_edge17_Node000002_Node000018"><a xlink:title=" ">
<path fill="none" stroke="#63b8ff" d="M1080.84,-66.03C1125.16,-56.11 1183.7,-43 1229.58,-32.72"/>
<polygon fill="#63b8ff" stroke="#63b8ff" points="1230.19,-36.17 1239.18,-30.57 1228.66,-29.34 1230.19,-36.17"/>
</a>
</g>
</g>
</g>
</svg>
