<?xml version="1.0" encoding="UTF-8" standalone="no"?>
<!DOCTYPE svg PUBLIC "-//W3C//DTD SVG 1.1//EN"
 "http://www.w3.org/Graphics/SVG/1.1/DTD/svg11.dtd">
<!-- Generated by graphviz version 9.0.0 (20230911.1827)
 -->
<!-- Title: /github/workspace/dev_area/sourcecode/appmodel/src/ModuleFactory.hpp Pages: 1 -->
<svg width="1909pt" height="128pt"
 viewBox="0.00 0.00 1909.25 127.50" xmlns="http://www.w3.org/2000/svg" xmlns:xlink="http://www.w3.org/1999/xlink">
<g id="graph0" class="graph" transform="scale(1 1) rotate(0) translate(4 123.5)">
<title>/github/workspace/dev_area/sourcecode/appmodel/src/ModuleFactory.hpp</title>
<!-- Node1 -->
<g id="Node000001" class="node">
<title>Node1</title>
<g id="a_Node000001"><a xlink:title=" ">
<polygon fill="#999999" stroke="#666666" points="1026.25,-119.5 888,-119.5 888,-77.75 1026.25,-77.75 1026.25,-119.5"/>
<text text-anchor="start" x="896" y="-106" font-family="Helvetica,sans-Serif" font-size="10.00">/github/workspace/dev</text>
<text text-anchor="start" x="896" y="-94.75" font-family="Helvetica,sans-Serif" font-size="10.00">_area/sourcecode/appmodel</text>
<text text-anchor="middle" x="957.12" y="-83.5" font-family="Helvetica,sans-Serif" font-size="10.00">/src/ModuleFactory.hpp</text>
</a>
</g>
</g>
<!-- Node2 -->
<g id="Node000002" class="node">
<title>Node2</title>
<g id="a_Node000002"><a xlink:href="sourcecode_2appmodel_2src_2DFApplication_8cpp.html" target="_top" xlink:title=" ">
<polygon fill="white" stroke="#666666" points="138.25,-41.75 0,-41.75 0,0 138.25,0 138.25,-41.75"/>
<text text-anchor="start" x="8" y="-28.25" font-family="Helvetica,sans-Serif" font-size="10.00">/github/workspace/dev</text>
<text text-anchor="start" x="8" y="-17" font-family="Helvetica,sans-Serif" font-size="10.00">_area/sourcecode/appmodel</text>
<text text-anchor="middle" x="69.12" y="-5.75" font-family="Helvetica,sans-Serif" font-size="10.00">/src/DFApplication.cpp</text>
</a>
</g>
</g>
<!-- Node1&#45;&gt;Node2 -->
<g id="edge1_Node000001_Node000002" class="edge">
<title>Node1&#45;&gt;Node2</title>
<g id="a_edge1_Node000001_Node000002"><a xlink:title=" ">
<path fill="none" stroke="#63b8ff" d="M876.49,-96.87C730.23,-94.44 411.8,-84.24 147.12,-41.75 144.37,-41.31 141.56,-40.81 138.74,-40.28"/>
<polygon fill="#63b8ff" stroke="#63b8ff" points="876,-100.36 886.06,-97.02 876.11,-93.36 876,-100.36"/>
</a>
</g>
</g>
<!-- Node3 -->
<g id="Node000003" class="node">
<title>Node3</title>
<g id="a_Node000003"><a xlink:href="sourcecode_2appmodel_2src_2DFOApplication_8cpp.html" target="_top" xlink:title=" ">
<polygon fill="white" stroke="#666666" points="294.25,-41.75 156,-41.75 156,0 294.25,0 294.25,-41.75"/>
<text text-anchor="start" x="164" y="-28.25" font-family="Helvetica,sans-Serif" font-size="10.00">/github/workspace/dev</text>
<text text-anchor="start" x="164" y="-17" font-family="Helvetica,sans-Serif" font-size="10.00">_area/sourcecode/appmodel</text>
<text text-anchor="middle" x="225.12" y="-5.75" font-family="Helvetica,sans-Serif" font-size="10.00">/src/DFOApplication.cpp</text>
</a>
</g>
</g>
<!-- Node1&#45;&gt;Node3 -->
<g id="edge2_Node000001_Node000003" class="edge">
<title>Node1&#45;&gt;Node3</title>
<g id="a_edge2_Node000001_Node000003"><a xlink:title=" ">
<path fill="none" stroke="#63b8ff" d="M876.67,-95C752.73,-90.01 507.97,-76.36 303.12,-41.75 300.37,-41.28 297.57,-40.77 294.75,-40.22"/>
<polygon fill="#63b8ff" stroke="#63b8ff" points="876.28,-98.49 886.41,-95.39 876.55,-91.5 876.28,-98.49"/>
</a>
</g>
</g>
<!-- Node4 -->
<g id="Node000004" class="node">
<title>Node4</title>
<g id="a_Node000004"><a xlink:href="sourcecode_2appmodel_2src_2DTSHSIApplication_8cpp.html" target="_top" xlink:title=" ">
<polygon fill="white" stroke="#666666" points="450.25,-41.75 312,-41.75 312,0 450.25,0 450.25,-41.75"/>
<text text-anchor="start" x="320" y="-28.25" font-family="Helvetica,sans-Serif" font-size="10.00">/github/workspace/dev</text>
<text text-anchor="start" x="320" y="-17" font-family="Helvetica,sans-Serif" font-size="10.00">_area/sourcecode/appmodel</text>
<text text-anchor="middle" x="381.12" y="-5.75" font-family="Helvetica,sans-Serif" font-size="10.00">/src/DTSHSIApplication.cpp</text>
</a>
</g>
</g>
<!-- Node1&#45;&gt;Node4 -->
<g id="edge3_Node000001_Node000004" class="edge">
<title>Node1&#45;&gt;Node4</title>
<g id="a_edge3_Node000001_Node000004"><a xlink:title=" ">
<path fill="none" stroke="#63b8ff" d="M876.41,-92.01C777.5,-84.33 605.05,-68.4 459.12,-41.75 456.24,-41.22 453.3,-40.65 450.34,-40.04"/>
<polygon fill="#63b8ff" stroke="#63b8ff" points="876.06,-95.49 886.3,-92.76 876.6,-88.51 876.06,-95.49"/>
</a>
</g>
</g>
<!-- Node5 -->
<g id="Node000005" class="node">
<title>Node5</title>
<g id="a_Node000005"><a xlink:href="sourcecode_2appmodel_2src_2FakeDataApplication_8cpp.html" target="_top" xlink:title=" ">
<polygon fill="white" stroke="#666666" points="611.88,-41.75 468.38,-41.75 468.38,0 611.88,0 611.88,-41.75"/>
<text text-anchor="start" x="476.38" y="-28.25" font-family="Helvetica,sans-Serif" font-size="10.00">/github/workspace/dev</text>
<text text-anchor="start" x="476.38" y="-17" font-family="Helvetica,sans-Serif" font-size="10.00">_area/sourcecode/appmodel</text>
<text text-anchor="middle" x="540.12" y="-5.75" font-family="Helvetica,sans-Serif" font-size="10.00">/src/FakeDataApplication.cpp</text>
</a>
</g>
</g>
<!-- Node1&#45;&gt;Node5 -->
<g id="edge4_Node000001_Node000005" class="edge">
<title>Node1&#45;&gt;Node5</title>
<g id="a_edge4_Node000001_Node000005"><a xlink:title=" ">
<path fill="none" stroke="#63b8ff" d="M876.57,-85.98C808.31,-75.7 707.96,-59.6 621.12,-41.75 618.15,-41.14 615.11,-40.49 612.05,-39.82"/>
<polygon fill="#63b8ff" stroke="#63b8ff" points="875.76,-89.4 886.17,-87.42 876.8,-82.48 875.76,-89.4"/>
</a>
</g>
</g>
<!-- Node6 -->
<g id="Node000006" class="node">
<title>Node6</title>
<g id="a_Node000006"><a xlink:href="sourcecode_2appmodel_2src_2FakeHSIApplication_8cpp.html" target="_top" xlink:title=" ">
<polygon fill="white" stroke="#666666" points="770.38,-41.75 629.88,-41.75 629.88,0 770.38,0 770.38,-41.75"/>
<text text-anchor="start" x="637.88" y="-28.25" font-family="Helvetica,sans-Serif" font-size="10.00">/github/workspace/dev</text>
<text text-anchor="start" x="637.88" y="-17" font-family="Helvetica,sans-Serif" font-size="10.00">_area/sourcecode/appmodel</text>
<text text-anchor="middle" x="700.12" y="-5.75" font-family="Helvetica,sans-Serif" font-size="10.00">/src/FakeHSIApplication.cpp</text>
</a>
</g>
</g>
<!-- Node1&#45;&gt;Node6 -->
<g id="edge5_Node000001_Node000006" class="edge">
<title>Node1&#45;&gt;Node6</title>
<g id="a_edge5_Node000001_Node000006"><a xlink:title=" ">
<path fill="none" stroke="#63b8ff" d="M877.23,-74.07C842.61,-63.87 802.49,-52.05 769.19,-42.23"/>
<polygon fill="#63b8ff" stroke="#63b8ff" points="876.22,-77.43 886.8,-76.9 878.2,-70.71 876.22,-77.43"/>
</a>
</g>
</g>
<!-- Node7 -->
<g id="Node000007" class="node">
<title>Node7</title>
<g id="a_Node000007"><a xlink:href="sourcecode_2appmodel_2src_2HSIEventToTCApplication_8cpp.html" target="_top" xlink:title=" ">
<polygon fill="white" stroke="#666666" points="955.88,-41.75 788.38,-41.75 788.38,0 955.88,0 955.88,-41.75"/>
<text text-anchor="start" x="796.38" y="-28.25" font-family="Helvetica,sans-Serif" font-size="10.00">/github/workspace/dev</text>
<text text-anchor="start" x="796.38" y="-17" font-family="Helvetica,sans-Serif" font-size="10.00">_area/sourcecode/appmodel</text>
<text text-anchor="middle" x="872.12" y="-5.75" font-family="Helvetica,sans-Serif" font-size="10.00">/src/HSIEventToTCApplication.cpp</text>
</a>
</g>
</g>
<!-- Node1&#45;&gt;Node7 -->
<g id="edge6_Node000001_Node000007" class="edge">
<title>Node1&#45;&gt;Node7</title>
<g id="a_edge6_Node000001_Node000007"><a xlink:title=" ">
<path fill="none" stroke="#63b8ff" d="M926,-69.89C915.73,-60.73 904.5,-50.73 894.97,-42.23"/>
<polygon fill="#63b8ff" stroke="#63b8ff" points="923.42,-72.28 933.22,-76.32 928.08,-67.05 923.42,-72.28"/>
</a>
</g>
</g>
<!-- Node8 -->
<g id="Node000008" class="node">
<title>Node8</title>
<g id="a_Node000008"><a xlink:href="sourcecode_2appmodel_2src_2MLTApplication_8cpp.html" target="_top" xlink:title=" ">
<polygon fill="white" stroke="#666666" points="1112.25,-41.75 974,-41.75 974,0 1112.25,0 1112.25,-41.75"/>
<text text-anchor="start" x="982" y="-28.25" font-family="Helvetica,sans-Serif" font-size="10.00">/github/workspace/dev</text>
<text text-anchor="start" x="982" y="-17" font-family="Helvetica,sans-Serif" font-size="10.00">_area/sourcecode/appmodel</text>
<text text-anchor="middle" x="1043.12" y="-5.75" font-family="Helvetica,sans-Serif" font-size="10.00">/src/MLTApplication.cpp</text>
</a>
</g>
</g>
<!-- Node1&#45;&gt;Node8 -->
<g id="edge7_Node000001_Node000008" class="edge">
<title>Node1&#45;&gt;Node8</title>
<g id="a_edge7_Node000001_Node000008"><a xlink:title=" ">
<path fill="none" stroke="#63b8ff" d="M988.61,-69.89C999.01,-60.73 1010.37,-50.73 1020.01,-42.23"/>
<polygon fill="#63b8ff" stroke="#63b8ff" points="986.5,-67.09 981.31,-76.32 991.12,-72.34 986.5,-67.09"/>
</a>
</g>
</g>
<!-- Node9 -->
<g id="Node000009" class="node">
<title>Node9</title>
<g id="a_Node000009"><a xlink:href="sourcecode_2appmodel_2src_2ReadoutApplication_8cpp.html" target="_top" xlink:title=" ">
<polygon fill="white" stroke="#666666" points="1268.25,-41.75 1130,-41.75 1130,0 1268.25,0 1268.25,-41.75"/>
<text text-anchor="start" x="1138" y="-28.25" font-family="Helvetica,sans-Serif" font-size="10.00">/github/workspace/dev</text>
<text text-anchor="start" x="1138" y="-17" font-family="Helvetica,sans-Serif" font-size="10.00">_area/sourcecode/appmodel</text>
<text text-anchor="middle" x="1199.12" y="-5.75" font-family="Helvetica,sans-Serif" font-size="10.00">/src/ReadoutApplication.cpp</text>
</a>
</g>
</g>
<!-- Node1&#45;&gt;Node9 -->
<g id="edge8_Node000001_Node000009" class="edge">
<title>Node1&#45;&gt;Node9</title>
<g id="a_edge8_Node000001_Node000009"><a xlink:title=" ">
<path fill="none" stroke="#63b8ff" d="M1032.78,-73.94C1065.28,-63.77 1102.87,-52 1134.09,-42.23"/>
<polygon fill="#63b8ff" stroke="#63b8ff" points="1031.92,-70.55 1023.42,-76.87 1034.01,-77.23 1031.92,-70.55"/>
</a>
</g>
</g>
<!-- Node10 -->
<g id="Node000010" class="node">
<title>Node10</title>
<g id="a_Node000010"><a xlink:href="sourcecode_2appmodel_2src_2SmartDaqApplication_8cpp.html" target="_top" xlink:title=" ">
<polygon fill="white" stroke="#666666" points="1431.62,-41.75 1286.62,-41.75 1286.62,0 1431.62,0 1431.62,-41.75"/>
<text text-anchor="start" x="1294.62" y="-28.25" font-family="Helvetica,sans-Serif" font-size="10.00">/github/workspace/dev</text>
<text text-anchor="start" x="1294.62" y="-17" font-family="Helvetica,sans-Serif" font-size="10.00">_area/sourcecode/appmodel</text>
<text text-anchor="middle" x="1359.12" y="-5.75" font-family="Helvetica,sans-Serif" font-size="10.00">/src/SmartDaqApplication.cpp</text>
</a>
</g>
</g>
<!-- Node1&#45;&gt;Node10 -->
<g id="edge9_Node000001_Node000010" class="edge">
<title>Node1&#45;&gt;Node10</title>
<g id="a_edge9_Node000001_Node000010"><a xlink:title=" ">
<path fill="none" stroke="#63b8ff" d="M1037.63,-85.05C1102.5,-74.57 1195.97,-58.65 1277.12,-41.75 1280.14,-41.12 1283.21,-40.46 1286.3,-39.79"/>
<polygon fill="#63b8ff" stroke="#63b8ff" points="1037.47,-81.53 1028.16,-86.58 1038.58,-88.45 1037.47,-81.53"/>
</a>
</g>
</g>
<!-- Node11 -->
<g id="Node000011" class="node">
<title>Node11</title>
<g id="a_Node000011"><a xlink:href="TPWriterApplication_8cpp.html" target="_top" xlink:title=" ">
<polygon fill="white" stroke="#666666" points="1589,-41.75 1449.25,-41.75 1449.25,0 1589,0 1589,-41.75"/>
<text text-anchor="start" x="1457.25" y="-28.25" font-family="Helvetica,sans-Serif" font-size="10.00">/github/workspace/dev</text>
<text text-anchor="start" x="1457.25" y="-17" font-family="Helvetica,sans-Serif" font-size="10.00">_area/sourcecode/appmodel</text>
<text text-anchor="middle" x="1519.12" y="-5.75" font-family="Helvetica,sans-Serif" font-size="10.00">/src/TPWriterApplication.cpp</text>
</a>
</g>
</g>
<!-- Node1&#45;&gt;Node11 -->
<g id="edge10_Node000001_Node000011" class="edge">
<title>Node1&#45;&gt;Node11</title>
<g id="a_edge10_Node000001_Node000011"><a xlink:title=" ">
<path fill="none" stroke="#63b8ff" d="M1037.9,-91.64C1134.4,-83.73 1300.44,-67.67 1441.12,-41.75 1443.74,-41.27 1446.39,-40.75 1449.06,-40.2"/>
<polygon fill="#63b8ff" stroke="#63b8ff" points="1037.68,-88.15 1028,-92.45 1038.25,-95.13 1037.68,-88.15"/>
</a>
</g>
</g>
<!-- Node12 -->
<g id="Node000012" class="node">
<title>Node12</title>
<g id="a_Node000012"><a xlink:href="sourcecode_2appmodel_2src_2TriggerApplication_8cpp.html" target="_top" xlink:title=" ">
<polygon fill="white" stroke="#666666" points="1745.25,-41.75 1607,-41.75 1607,0 1745.25,0 1745.25,-41.75"/>
<text text-anchor="start" x="1615" y="-28.25" font-family="Helvetica,sans-Serif" font-size="10.00">/github/workspace/dev</text>
<text text-anchor="start" x="1615" y="-17" font-family="Helvetica,sans-Serif" font-size="10.00">_area/sourcecode/appmodel</text>
<text text-anchor="middle" x="1676.12" y="-5.75" font-family="Helvetica,sans-Serif" font-size="10.00">/src/TriggerApplication.cpp</text>
</a>
</g>
</g>
<!-- Node1&#45;&gt;Node12 -->
<g id="edge11_Node000001_Node000012" class="edge">
<title>Node1&#45;&gt;Node12</title>
<g id="a_edge11_Node000001_Node000012"><a xlink:title=" ">
<path fill="none" stroke="#63b8ff" d="M1037.81,-94.8C1159.85,-89.58 1398.35,-75.68 1598.12,-41.75 1600.88,-41.28 1603.68,-40.77 1606.5,-40.21"/>
<polygon fill="#63b8ff" stroke="#63b8ff" points="1037.72,-91.3 1027.88,-95.21 1038.02,-98.29 1037.72,-91.3"/>
</a>
</g>
</g>
<!-- Node13 -->
<g id="Node000013" class="node">
<title>Node13</title>
<g id="a_Node000013"><a xlink:href="sourcecode_2appmodel_2src_2WIECApplication_8cpp.html" target="_top" xlink:title=" ">
<polygon fill="white" stroke="#666666" points="1901.25,-41.75 1763,-41.75 1763,0 1901.25,0 1901.25,-41.75"/>
<text text-anchor="start" x="1771" y="-28.25" font-family="Helvetica,sans-Serif" font-size="10.00">/github/workspace/dev</text>
<text text-anchor="start" x="1771" y="-17" font-family="Helvetica,sans-Serif" font-size="10.00">_area/sourcecode/appmodel</text>
<text text-anchor="middle" x="1832.12" y="-5.75" font-family="Helvetica,sans-Serif" font-size="10.00">/src/WIECApplication.cpp</text>
</a>
</g>
</g>
<!-- Node1&#45;&gt;Node13 -->
<g id="edge12_Node000001_Node000013" class="edge">
<title>Node1&#45;&gt;Node13</title>
<g id="a_edge12_Node000001_Node000013"><a xlink:title=" ">
<path fill="none" stroke="#63b8ff" d="M1038.01,-96.74C1182.61,-94.09 1494.63,-83.56 1754.12,-41.75 1756.88,-41.31 1759.69,-40.81 1762.51,-40.27"/>
<polygon fill="#63b8ff" stroke="#63b8ff" points="1038.08,-93.23 1028.15,-96.91 1038.2,-100.23 1038.08,-93.23"/>
</a>
</g>
</g>
</g>
</svg>
