<?xml version="1.0" encoding="UTF-8" standalone="no"?>
<!DOCTYPE svg PUBLIC "-//W3C//DTD SVG 1.1//EN"
 "http://www.w3.org/Graphics/SVG/1.1/DTD/svg11.dtd">
<!-- Generated by graphviz version 9.0.0 (20230911.1827)
 -->
<!-- Title: /github/workspace/dev_area/build/timinglibs/codegen/include/timinglibs/timingcmd/msgp.hpp Pages: 1 -->
<svg width="348pt" height="217pt"
 viewBox="0.00 0.00 348.12 216.50" xmlns="http://www.w3.org/2000/svg" xmlns:xlink="http://www.w3.org/1999/xlink">
<g id="graph0" class="graph" transform="scale(1 1) rotate(0) translate(4 212.5)">
<title>/github/workspace/dev_area/build/timinglibs/codegen/include/timinglibs/timingcmd/msgp.hpp</title>
<!-- Node1 -->
<g id="Node000001" class="node">
<title>Node1</title>
<g id="a_Node000001"><a xlink:title=" ">
<polygon fill="#999999" stroke="#666666" points="224.62,-208.5 90.88,-208.5 90.88,-155.5 224.62,-155.5 224.62,-208.5"/>
<text text-anchor="start" x="98.88" y="-195" font-family="Helvetica,sans-Serif" font-size="10.00">/github/workspace/dev</text>
<text text-anchor="start" x="98.88" y="-183.75" font-family="Helvetica,sans-Serif" font-size="10.00">_area/build/timinglibs</text>
<text text-anchor="start" x="98.88" y="-172.5" font-family="Helvetica,sans-Serif" font-size="10.00">/codegen/include/timinglibs</text>
<text text-anchor="middle" x="157.75" y="-161.25" font-family="Helvetica,sans-Serif" font-size="10.00">/timingcmd/msgp.hpp</text>
</a>
</g>
</g>
<!-- Node2 -->
<g id="Node000002" class="node">
<title>Node2</title>
<g id="a_Node000002"><a xlink:href="sourcecode_2timinglibs_2src_2TimingController_8cpp.html" target="_top" xlink:title=" ">
<polygon fill="white" stroke="#666666" points="137.5,-119.5 0,-119.5 0,-77.75 137.5,-77.75 137.5,-119.5"/>
<text text-anchor="start" x="8" y="-106" font-family="Helvetica,sans-Serif" font-size="10.00">/github/workspace/dev</text>
<text text-anchor="start" x="8" y="-94.75" font-family="Helvetica,sans-Serif" font-size="10.00">_area/sourcecode/timinglibs</text>
<text text-anchor="middle" x="68.75" y="-83.5" font-family="Helvetica,sans-Serif" font-size="10.00">/src/TimingController.cpp</text>
</a>
</g>
</g>
<!-- Node1&#45;&gt;Node2 -->
<g id="edge1_Node000001_Node000002" class="edge">
<title>Node1&#45;&gt;Node2</title>
<g id="a_edge1_Node000001_Node000002"><a xlink:title=" ">
<path fill="none" stroke="#63b8ff" d="M121.13,-147.52C110.84,-138.11 99.96,-128.16 90.81,-119.79"/>
<polygon fill="#63b8ff" stroke="#63b8ff" points="118.73,-150.07 128.47,-154.23 123.45,-144.9 118.73,-150.07"/>
</a>
</g>
</g>
<!-- Node3 -->
<g id="Node000003" class="node">
<title>Node3</title>
<g id="a_Node000003"><a xlink:href="sourcecode_2timinglibs_2src_2TimingHardwareManagerBase_8hpp.html" target="_top" xlink:title=" ">
<polygon fill="white" stroke="#666666" points="340.12,-119.5 155.38,-119.5 155.38,-77.75 340.12,-77.75 340.12,-119.5"/>
<text text-anchor="start" x="163.38" y="-106" font-family="Helvetica,sans-Serif" font-size="10.00">/github/workspace/dev</text>
<text text-anchor="start" x="163.38" y="-94.75" font-family="Helvetica,sans-Serif" font-size="10.00">_area/sourcecode/timinglibs</text>
<text text-anchor="middle" x="247.75" y="-83.5" font-family="Helvetica,sans-Serif" font-size="10.00">/src/TimingHardwareManagerBase.hpp</text>
</a>
</g>
</g>
<!-- Node1&#45;&gt;Node3 -->
<g id="edge2_Node000001_Node000003" class="edge">
<title>Node1&#45;&gt;Node3</title>
<g id="a_edge2_Node000001_Node000003"><a xlink:title=" ">
<path fill="none" stroke="#63b8ff" d="M194.47,-147.8C204.97,-138.31 216.09,-128.25 225.45,-119.79"/>
<polygon fill="#63b8ff" stroke="#63b8ff" points="192.42,-144.93 187.35,-154.24 197.11,-150.13 192.42,-144.93"/>
</a>
</g>
</g>
<!-- Node4 -->
<g id="Node000004" class="node">
<title>Node4</title>
<g id="a_Node000004"><a xlink:href="sourcecode_2timinglibs_2src_2TimingHardwareManagerBase_8cpp.html" target="_top" xlink:title=" ">
<polygon fill="white" stroke="#666666" points="340.12,-41.75 155.38,-41.75 155.38,0 340.12,0 340.12,-41.75"/>
<text text-anchor="start" x="163.38" y="-28.25" font-family="Helvetica,sans-Serif" font-size="10.00">/github/workspace/dev</text>
<text text-anchor="start" x="163.38" y="-17" font-family="Helvetica,sans-Serif" font-size="10.00">_area/sourcecode/timinglibs</text>
<text text-anchor="middle" x="247.75" y="-5.75" font-family="Helvetica,sans-Serif" font-size="10.00">/src/TimingHardwareManagerBase.cpp</text>
</a>
</g>
</g>
<!-- Node3&#45;&gt;Node4 -->
<g id="edge3_Node000003_Node000004" class="edge">
<title>Node3&#45;&gt;Node4</title>
<g id="a_edge3_Node000003_Node000004"><a xlink:title=" ">
<path fill="none" stroke="#63b8ff" d="M247.75,-66C247.75,-57.96 247.75,-49.54 247.75,-42.23"/>
<polygon fill="#63b8ff" stroke="#63b8ff" points="244.25,-65.81 247.75,-75.81 251.25,-65.81 244.25,-65.81"/>
</a>
</g>
</g>
</g>
</svg>
