<?xml version="1.0" encoding="UTF-8" standalone="no"?>
<!DOCTYPE svg PUBLIC "-//W3C//DTD SVG 1.1//EN"
 "http://www.w3.org/Graphics/SVG/1.1/DTD/svg11.dtd">
<!-- Generated by graphviz version 9.0.0 (20230911.1827)
 -->
<!-- Title: /github/workspace/dev_area/sourcecode/tpglibs/include/tpglibs/NaiveProcessor.hpp Pages: 1 -->
<svg width="717pt" height="383pt"
 viewBox="0.00 0.00 716.50 383.25" xmlns="http://www.w3.org/2000/svg" xmlns:xlink="http://www.w3.org/1999/xlink">
<g id="graph0" class="graph" transform="scale(1 1) rotate(0) translate(4 379.25)">
<title>/github/workspace/dev_area/sourcecode/tpglibs/include/tpglibs/NaiveProcessor.hpp</title>
<!-- Node1 -->
<g id="Node000001" class="node">
<title>Node1</title>
<g id="a_Node000001"><a xlink:title=" ">
<polygon fill="#999999" stroke="#666666" points="478.5,-375.25 306.5,-375.25 306.5,-333.5 478.5,-333.5 478.5,-375.25"/>
<text text-anchor="start" x="314.5" y="-361.75" font-family="Helvetica,sans-Serif" font-size="10.00">/github/workspace/dev</text>
<text text-anchor="start" x="314.5" y="-350.5" font-family="Helvetica,sans-Serif" font-size="10.00">_area/sourcecode/tpglibs</text>
<text text-anchor="middle" x="392.5" y="-339.25" font-family="Helvetica,sans-Serif" font-size="10.00">/include/tpglibs/NaiveProcessor.hpp</text>
</a>
</g>
</g>
<!-- Node2 -->
<g id="Node000002" class="node">
<title>Node2</title>
<g id="a_Node000002"><a xlink:href="NaiveFactory_8hpp.html" target="_top" xlink:title=" ">
<polygon fill="white" stroke="#666666" points="472.5,-297.5 312.5,-297.5 312.5,-255.75 472.5,-255.75 472.5,-297.5"/>
<text text-anchor="start" x="320.5" y="-284" font-family="Helvetica,sans-Serif" font-size="10.00">/github/workspace/dev</text>
<text text-anchor="start" x="320.5" y="-272.75" font-family="Helvetica,sans-Serif" font-size="10.00">_area/sourcecode/tpglibs</text>
<text text-anchor="middle" x="392.5" y="-261.5" font-family="Helvetica,sans-Serif" font-size="10.00">/include/tpglibs/NaiveFactory.hpp</text>
</a>
</g>
</g>
<!-- Node1&#45;&gt;Node2 -->
<g id="edge1_Node000001_Node000002" class="edge">
<title>Node1&#45;&gt;Node2</title>
<g id="a_edge1_Node000001_Node000002"><a xlink:title=" ">
<path fill="none" stroke="#63b8ff" d="M392.5,-321.75C392.5,-313.71 392.5,-305.29 392.5,-297.98"/>
<polygon fill="#63b8ff" stroke="#63b8ff" points="389,-321.56 392.5,-331.56 396,-321.56 389,-321.56"/>
</a>
</g>
</g>
<!-- Node3 -->
<g id="Node000003" class="node">
<title>Node3</title>
<g id="a_Node000003"><a xlink:href="NaiveFrugalPedestalSubtractProcessor_8hpp.html" target="_top" xlink:title=" ">
<polygon fill="white" stroke="#666666" points="236,-219.75 61,-219.75 61,-166.75 236,-166.75 236,-219.75"/>
<text text-anchor="start" x="69" y="-206.25" font-family="Helvetica,sans-Serif" font-size="10.00">/github/workspace/dev</text>
<text text-anchor="start" x="69" y="-195" font-family="Helvetica,sans-Serif" font-size="10.00">_area/sourcecode/tpglibs</text>
<text text-anchor="start" x="69" y="-183.75" font-family="Helvetica,sans-Serif" font-size="10.00">/include/tpglibs/NaiveFrugalPedestal</text>
<text text-anchor="middle" x="148.5" y="-172.5" font-family="Helvetica,sans-Serif" font-size="10.00">SubtractProcessor.hpp</text>
</a>
</g>
</g>
<!-- Node2&#45;&gt;Node3 -->
<g id="edge2_Node000002_Node000003" class="edge">
<title>Node2&#45;&gt;Node3</title>
<g id="a_edge2_Node000002_Node000003"><a xlink:title=" ">
<path fill="none" stroke="#63b8ff" d="M320.84,-251.73C291.1,-241.81 256.53,-230.28 226.18,-220.16"/>
<polygon fill="#63b8ff" stroke="#63b8ff" points="319.53,-254.98 330.12,-254.82 321.74,-248.34 319.53,-254.98"/>
</a>
</g>
</g>
<!-- Node5 -->
<g id="Node000005" class="node">
<title>Node5</title>
<g id="a_Node000005"><a xlink:href="NaiveRunSumProcessor_8hpp.html" target="_top" xlink:title=" ">
<polygon fill="white" stroke="#666666" points="497.25,-214.12 287.75,-214.12 287.75,-172.38 497.25,-172.38 497.25,-214.12"/>
<text text-anchor="start" x="295.75" y="-200.62" font-family="Helvetica,sans-Serif" font-size="10.00">/github/workspace/dev</text>
<text text-anchor="start" x="295.75" y="-189.38" font-family="Helvetica,sans-Serif" font-size="10.00">_area/sourcecode/tpglibs</text>
<text text-anchor="middle" x="392.5" y="-178.12" font-family="Helvetica,sans-Serif" font-size="10.00">/include/tpglibs/NaiveRunSumProcessor.hpp</text>
</a>
</g>
</g>
<!-- Node2&#45;&gt;Node5 -->
<g id="edge4_Node000002_Node000005" class="edge">
<title>Node2&#45;&gt;Node5</title>
<g id="a_edge4_Node000002_Node000005"><a xlink:title=" ">
<path fill="none" stroke="#63b8ff" d="M392.5,-244.27C392.5,-234.24 392.5,-223.42 392.5,-214.42"/>
<polygon fill="#63b8ff" stroke="#63b8ff" points="389,-244 392.5,-254 396,-244 389,-244"/>
</a>
</g>
</g>
<!-- Node9 -->
<g id="Node000009" class="node">
<title>Node9</title>
<g id="a_Node000009"><a xlink:href="NaiveThresholdProcessor_8hpp.html" target="_top" xlink:title=" ">
<polygon fill="white" stroke="#666666" points="684.75,-219.75 532.25,-219.75 532.25,-166.75 684.75,-166.75 684.75,-219.75"/>
<text text-anchor="start" x="540.25" y="-206.25" font-family="Helvetica,sans-Serif" font-size="10.00">/github/workspace/dev</text>
<text text-anchor="start" x="540.25" y="-195" font-family="Helvetica,sans-Serif" font-size="10.00">_area/sourcecode/tpglibs</text>
<text text-anchor="start" x="540.25" y="-183.75" font-family="Helvetica,sans-Serif" font-size="10.00">/include/tpglibs/NaiveThreshold</text>
<text text-anchor="middle" x="608.5" y="-172.5" font-family="Helvetica,sans-Serif" font-size="10.00">Processor.hpp</text>
</a>
</g>
</g>
<!-- Node2&#45;&gt;Node9 -->
<g id="edge8_Node000002_Node000009" class="edge">
<title>Node2&#45;&gt;Node9</title>
<g id="a_edge8_Node000002_Node000009"><a xlink:title=" ">
<path fill="none" stroke="#63b8ff" d="M456.98,-251.33C483.07,-241.5 513.22,-230.14 539.73,-220.16"/>
<polygon fill="#63b8ff" stroke="#63b8ff" points="455.99,-247.97 447.87,-254.77 458.46,-254.52 455.99,-247.97"/>
</a>
</g>
</g>
<!-- Node4 -->
<g id="Node000004" class="node">
<title>Node4</title>
<g id="a_Node000004"><a xlink:href="NaiveFrugalPedestalSubtractProcessor_8cpp.html" target="_top" xlink:title=" ">
<polygon fill="white" stroke="#666666" points="163,-130.75 0,-130.75 0,-77.75 163,-77.75 163,-130.75"/>
<text text-anchor="start" x="8" y="-117.25" font-family="Helvetica,sans-Serif" font-size="10.00">/github/workspace/dev</text>
<text text-anchor="start" x="8" y="-106" font-family="Helvetica,sans-Serif" font-size="10.00">_area/sourcecode/tpglibs</text>
<text text-anchor="start" x="8" y="-94.75" font-family="Helvetica,sans-Serif" font-size="10.00">/src/NaiveFrugalPedestalSubtract</text>
<text text-anchor="middle" x="81.5" y="-83.5" font-family="Helvetica,sans-Serif" font-size="10.00">Processor.cpp</text>
</a>
</g>
</g>
<!-- Node3&#45;&gt;Node4 -->
<g id="edge3_Node000003_Node000004" class="edge">
<title>Node3&#45;&gt;Node4</title>
<g id="a_edge3_Node000003_Node000004"><a xlink:title=" ">
<path fill="none" stroke="#63b8ff" d="M121.83,-157.62C114.99,-148.74 107.76,-139.34 101.33,-131"/>
<polygon fill="#63b8ff" stroke="#63b8ff" points="118.96,-159.63 127.84,-165.42 124.51,-155.36 118.96,-159.63"/>
</a>
</g>
</g>
<!-- Node6 -->
<g id="Node000006" class="node">
<title>Node6</title>
<g id="a_Node000006"><a xlink:href="NaiveAbsRunSumProcessor_8hpp.html" target="_top" xlink:title=" ">
<polygon fill="white" stroke="#666666" points="345.75,-130.75 181.25,-130.75 181.25,-77.75 345.75,-77.75 345.75,-130.75"/>
<text text-anchor="start" x="189.25" y="-117.25" font-family="Helvetica,sans-Serif" font-size="10.00">/github/workspace/dev</text>
<text text-anchor="start" x="189.25" y="-106" font-family="Helvetica,sans-Serif" font-size="10.00">_area/sourcecode/tpglibs</text>
<text text-anchor="start" x="189.25" y="-94.75" font-family="Helvetica,sans-Serif" font-size="10.00">/include/tpglibs/NaiveAbsRunSum</text>
<text text-anchor="middle" x="263.5" y="-83.5" font-family="Helvetica,sans-Serif" font-size="10.00">Processor.hpp</text>
</a>
</g>
</g>
<!-- Node5&#45;&gt;Node6 -->
<g id="edge5_Node000005_Node000006" class="edge">
<title>Node5&#45;&gt;Node6</title>
<g id="a_edge5_Node000005_Node000006"><a xlink:title=" ">
<path fill="none" stroke="#63b8ff" d="M353.26,-165.79C336.86,-154.73 317.87,-141.92 301.59,-130.94"/>
<polygon fill="#63b8ff" stroke="#63b8ff" points="351.08,-168.54 361.33,-171.23 354.99,-162.73 351.08,-168.54"/>
</a>
</g>
</g>
<!-- Node8 -->
<g id="Node000008" class="node">
<title>Node8</title>
<g id="a_Node000008"><a xlink:href="NaiveRunSumProcessor_8cpp.html" target="_top" xlink:title=" ">
<polygon fill="white" stroke="#666666" points="524.88,-125.12 364.12,-125.12 364.12,-83.38 524.88,-83.38 524.88,-125.12"/>
<text text-anchor="start" x="372.12" y="-111.62" font-family="Helvetica,sans-Serif" font-size="10.00">/github/workspace/dev</text>
<text text-anchor="start" x="372.12" y="-100.38" font-family="Helvetica,sans-Serif" font-size="10.00">_area/sourcecode/tpglibs</text>
<text text-anchor="middle" x="444.5" y="-89.12" font-family="Helvetica,sans-Serif" font-size="10.00">/src/NaiveRunSumProcessor.cpp</text>
</a>
</g>
</g>
<!-- Node5&#45;&gt;Node8 -->
<g id="edge7_Node000005_Node000008" class="edge">
<title>Node5&#45;&gt;Node8</title>
<g id="a_edge7_Node000005_Node000008"><a xlink:title=" ">
<path fill="none" stroke="#63b8ff" d="M410.37,-162.36C417.61,-150.24 425.79,-136.55 432.32,-125.62"/>
<polygon fill="#63b8ff" stroke="#63b8ff" points="407.46,-160.39 405.34,-170.77 413.47,-163.98 407.46,-160.39"/>
</a>
</g>
</g>
<!-- Node7 -->
<g id="Node000007" class="node">
<title>Node7</title>
<g id="a_Node000007"><a xlink:href="NaiveAbsRunSumProcessor_8cpp.html" target="_top" xlink:title=" ">
<polygon fill="white" stroke="#666666" points="352.5,-41.75 174.5,-41.75 174.5,0 352.5,0 352.5,-41.75"/>
<text text-anchor="start" x="182.5" y="-28.25" font-family="Helvetica,sans-Serif" font-size="10.00">/github/workspace/dev</text>
<text text-anchor="start" x="182.5" y="-17" font-family="Helvetica,sans-Serif" font-size="10.00">_area/sourcecode/tpglibs</text>
<text text-anchor="middle" x="263.5" y="-5.75" font-family="Helvetica,sans-Serif" font-size="10.00">/src/NaiveAbsRunSumProcessor.cpp</text>
</a>
</g>
</g>
<!-- Node6&#45;&gt;Node7 -->
<g id="edge6_Node000006_Node000007" class="edge">
<title>Node6&#45;&gt;Node7</title>
<g id="a_edge6_Node000006_Node000007"><a xlink:title=" ">
<path fill="none" stroke="#63b8ff" d="M263.5,-66.08C263.5,-57.8 263.5,-49.33 263.5,-42.04"/>
<polygon fill="#63b8ff" stroke="#63b8ff" points="260,-65.99 263.5,-75.99 267,-65.99 260,-65.99"/>
</a>
</g>
</g>
<!-- Node10 -->
<g id="Node000010" class="node">
<title>Node10</title>
<g id="a_Node000010"><a xlink:href="NaiveThresholdProcessor_8cpp.html" target="_top" xlink:title=" ">
<polygon fill="white" stroke="#666666" points="708.5,-125.12 542.5,-125.12 542.5,-83.38 708.5,-83.38 708.5,-125.12"/>
<text text-anchor="start" x="550.5" y="-111.62" font-family="Helvetica,sans-Serif" font-size="10.00">/github/workspace/dev</text>
<text text-anchor="start" x="550.5" y="-100.38" font-family="Helvetica,sans-Serif" font-size="10.00">_area/sourcecode/tpglibs</text>
<text text-anchor="middle" x="625.5" y="-89.12" font-family="Helvetica,sans-Serif" font-size="10.00">/src/NaiveThresholdProcessor.cpp</text>
</a>
</g>
</g>
<!-- Node9&#45;&gt;Node10 -->
<g id="edge9_Node000009_Node000010" class="edge">
<title>Node9&#45;&gt;Node10</title>
<g id="a_edge9_Node000009_Node000010"><a xlink:title=" ">
<path fill="none" stroke="#63b8ff" d="M615.7,-155.38C617.71,-145.13 619.81,-134.37 621.55,-125.46"/>
<polygon fill="#63b8ff" stroke="#63b8ff" points="612.28,-154.65 613.8,-165.13 619.15,-155.99 612.28,-154.65"/>
</a>
</g>
</g>
</g>
</svg>
