<?xml version="1.0" encoding="UTF-8" standalone="no"?>
<!DOCTYPE svg PUBLIC "-//W3C//DTD SVG 1.1//EN"
 "http://www.w3.org/Graphics/SVG/1.1/DTD/svg11.dtd">
<!-- Generated by graphviz version 9.0.0 (20230911.1827)
 -->
<!-- Title: /github/workspace/dev_area/sourcecode/tpglibs/include/tpglibs/NaiveProcessor.hpp Pages: 1 -->
<svg width="253pt" height="160pt"
 viewBox="0.00 0.00 252.62 160.25" xmlns="http://www.w3.org/2000/svg" xmlns:xlink="http://www.w3.org/1999/xlink">
<g id="graph0" class="graph" transform="scale(1 1) rotate(0) translate(4 156.25)">
<title>/github/workspace/dev_area/sourcecode/tpglibs/include/tpglibs/NaiveProcessor.hpp</title>
<!-- Node1 -->
<g id="Node000001" class="node">
<title>Node1</title>
<g id="a_Node000001"><a xlink:title=" ">
<polygon fill="#999999" stroke="#666666" points="244.62,-152.25 72.62,-152.25 72.62,-110.5 244.62,-110.5 244.62,-152.25"/>
<text text-anchor="start" x="80.62" y="-138.75" font-family="Helvetica,sans-Serif" font-size="10.00">/github/workspace/dev</text>
<text text-anchor="start" x="80.62" y="-127.5" font-family="Helvetica,sans-Serif" font-size="10.00">_area/sourcecode/tpglibs</text>
<text text-anchor="middle" x="158.62" y="-116.25" font-family="Helvetica,sans-Serif" font-size="10.00">/include/tpglibs/NaiveProcessor.hpp</text>
</a>
</g>
</g>
<!-- Node2 -->
<g id="Node000002" class="node">
<title>Node2</title>
<g id="a_Node000002"><a xlink:href="AbstractProcessor_8hpp.html" target="_top" xlink:title=" ">
<polygon fill="white" stroke="#666666" points="169.12,-74.5 54.12,-74.5 54.12,-55.25 169.12,-55.25 169.12,-74.5"/>
<text text-anchor="middle" x="111.62" y="-61" font-family="Helvetica,sans-Serif" font-size="10.00">AbstractProcessor.hpp</text>
</a>
</g>
</g>
<!-- Node1&#45;&gt;Node2 -->
<g id="edge1_Node000001_Node000002" class="edge">
<title>Node1&#45;&gt;Node2</title>
<g id="a_edge1_Node000001_Node000002"><a xlink:title=" ">
<path fill="none" stroke="#63b8ff" d="M144.01,-110.32C137.88,-101.91 130.8,-92.2 124.83,-84"/>
<polygon fill="#63b8ff" stroke="#63b8ff" points="127.84,-82.19 119.13,-76.17 122.19,-86.31 127.84,-82.19"/>
</a>
</g>
</g>
<!-- Node6 -->
<g id="Node000006" class="node">
<title>Node6</title>
<g id="a_Node000006"><a xlink:title=" ">
<polygon fill="#e0e0e0" stroke="#999999" points="224.12,-74.5 187.12,-74.5 187.12,-55.25 224.12,-55.25 224.12,-74.5"/>
<text text-anchor="middle" x="205.62" y="-61" font-family="Helvetica,sans-Serif" font-size="10.00">array</text>
</a>
</g>
</g>
<!-- Node1&#45;&gt;Node6 -->
<g id="edge5_Node000001_Node000006" class="edge">
<title>Node1&#45;&gt;Node6</title>
<g id="a_edge5_Node000001_Node000006"><a xlink:title=" ">
<path fill="none" stroke="#63b8ff" d="M173.24,-110.32C179.37,-101.91 186.45,-92.2 192.42,-84"/>
<polygon fill="#63b8ff" stroke="#63b8ff" points="195.06,-86.31 198.12,-76.17 189.41,-82.19 195.06,-86.31"/>
</a>
</g>
</g>
<!-- Node3 -->
<g id="Node000003" class="node">
<title>Node3</title>
<g id="a_Node000003"><a xlink:title=" ">
<polygon fill="#e0e0e0" stroke="#999999" points="45.25,-19.25 0,-19.25 0,0 45.25,0 45.25,-19.25"/>
<text text-anchor="middle" x="22.62" y="-5.75" font-family="Helvetica,sans-Serif" font-size="10.00">cstdint</text>
</a>
</g>
</g>
<!-- Node2&#45;&gt;Node3 -->
<g id="edge2_Node000002_Node000003" class="edge">
<title>Node2&#45;&gt;Node3</title>
<g id="a_edge2_Node000002_Node000003"><a xlink:title=" ">
<path fill="none" stroke="#63b8ff" d="M96.53,-54.84C83.1,-46.81 63.21,-34.91 47.45,-25.48"/>
<polygon fill="#63b8ff" stroke="#63b8ff" points="49.47,-22.61 39.1,-20.48 45.88,-28.62 49.47,-22.61"/>
</a>
</g>
</g>
<!-- Node4 -->
<g id="Node000004" class="node">
<title>Node4</title>
<g id="a_Node000004"><a xlink:title=" ">
<polygon fill="#e0e0e0" stroke="#999999" points="160.12,-19.25 63.12,-19.25 63.12,0 160.12,0 160.12,-19.25"/>
<text text-anchor="middle" x="111.62" y="-5.75" font-family="Helvetica,sans-Serif" font-size="10.00">nlohmann/json.hpp</text>
</a>
</g>
</g>
<!-- Node2&#45;&gt;Node4 -->
<g id="edge3_Node000002_Node000004" class="edge">
<title>Node2&#45;&gt;Node4</title>
<g id="a_edge3_Node000002_Node000004"><a xlink:title=" ">
<path fill="none" stroke="#63b8ff" d="M111.62,-55.08C111.62,-48.57 111.62,-39.42 111.62,-31.12"/>
<polygon fill="#63b8ff" stroke="#63b8ff" points="115.13,-31.12 111.63,-21.12 108.13,-31.12 115.13,-31.12"/>
</a>
</g>
</g>
<!-- Node5 -->
<g id="Node000005" class="node">
<title>Node5</title>
<g id="a_Node000005"><a xlink:title=" ">
<polygon fill="#e0e0e0" stroke="#999999" points="228.88,-19.25 178.38,-19.25 178.38,0 228.88,0 228.88,-19.25"/>
<text text-anchor="middle" x="203.62" y="-5.75" font-family="Helvetica,sans-Serif" font-size="10.00">memory</text>
</a>
</g>
</g>
<!-- Node2&#45;&gt;Node5 -->
<g id="edge4_Node000002_Node000005" class="edge">
<title>Node2&#45;&gt;Node5</title>
<g id="a_edge4_Node000002_Node000005"><a xlink:title=" ">
<path fill="none" stroke="#63b8ff" d="M127.23,-54.84C141.24,-46.73 162.06,-34.68 178.43,-25.21"/>
<polygon fill="#63b8ff" stroke="#63b8ff" points="179.73,-28.5 186.63,-20.46 176.22,-22.44 179.73,-28.5"/>
</a>
</g>
</g>
</g>
</svg>
