<?xml version="1.0" encoding="UTF-8" standalone="no"?>
<!DOCTYPE svg PUBLIC "-//W3C//DTD SVG 1.1//EN"
 "http://www.w3.org/Graphics/SVG/1.1/DTD/svg11.dtd">
<!-- Generated by graphviz version 9.0.0 (20230911.1827)
 -->
<!-- Title: /github/workspace/dev_area/sourcecode/dbe/include/dbe/ObjectEditor.hpp Pages: 1 -->
<svg width="976pt" height="205pt"
 viewBox="0.00 0.00 975.50 205.25" xmlns="http://www.w3.org/2000/svg" xmlns:xlink="http://www.w3.org/1999/xlink">
<g id="graph0" class="graph" transform="scale(1 1) rotate(0) translate(4 201.25)">
<title>/github/workspace/dev_area/sourcecode/dbe/include/dbe/ObjectEditor.hpp</title>
<!-- Node1 -->
<g id="Node000001" class="node">
<title>Node1</title>
<g id="a_Node000001"><a xlink:title=" ">
<polygon fill="#999999" stroke="#666666" points="650.12,-197.25 507.38,-197.25 507.38,-155.5 650.12,-155.5 650.12,-197.25"/>
<text text-anchor="start" x="515.38" y="-183.75" font-family="Helvetica,sans-Serif" font-size="10.00">/github/workspace/dev</text>
<text text-anchor="start" x="515.38" y="-172.5" font-family="Helvetica,sans-Serif" font-size="10.00">_area/sourcecode/dbe</text>
<text text-anchor="middle" x="578.75" y="-161.25" font-family="Helvetica,sans-Serif" font-size="10.00">/include/dbe/ObjectEditor.hpp</text>
</a>
</g>
</g>
<!-- Node2 -->
<g id="Node000002" class="node">
<title>Node2</title>
<g id="a_Node000002"><a xlink:href="ObjectCreator_8hpp.html" target="_top" xlink:title=" ">
<polygon fill="white" stroke="#666666" points="494.5,-119.5 345,-119.5 345,-77.75 494.5,-77.75 494.5,-119.5"/>
<text text-anchor="start" x="353" y="-106" font-family="Helvetica,sans-Serif" font-size="10.00">/github/workspace/dev</text>
<text text-anchor="start" x="353" y="-94.75" font-family="Helvetica,sans-Serif" font-size="10.00">_area/sourcecode/dbe</text>
<text text-anchor="middle" x="419.75" y="-83.5" font-family="Helvetica,sans-Serif" font-size="10.00">/include/dbe/ObjectCreator.hpp</text>
</a>
</g>
</g>
<!-- Node1&#45;&gt;Node2 -->
<g id="edge1_Node000001_Node000002" class="edge">
<title>Node1&#45;&gt;Node2</title>
<g id="a_edge1_Node000001_Node000002"><a xlink:title=" ">
<path fill="none" stroke="#63b8ff" d="M525.95,-150.22C505.34,-140.4 482.01,-129.29 462.48,-119.98"/>
<polygon fill="#63b8ff" stroke="#63b8ff" points="524.24,-153.28 534.77,-154.42 527.25,-146.96 524.24,-153.28"/>
</a>
</g>
</g>
<!-- Node4 -->
<g id="Node000004" class="node">
<title>Node4</title>
<g id="a_Node000004"><a xlink:href="MainWindow_8cpp.html" target="_top" xlink:title=" ">
<polygon fill="white" stroke="#666666" points="143.5,-41.75 0,-41.75 0,0 143.5,0 143.5,-41.75"/>
<text text-anchor="start" x="8" y="-28.25" font-family="Helvetica,sans-Serif" font-size="10.00">/github/workspace/dev</text>
<text text-anchor="start" x="8" y="-17" font-family="Helvetica,sans-Serif" font-size="10.00">_area/sourcecode/dbe</text>
<text text-anchor="middle" x="71.75" y="-5.75" font-family="Helvetica,sans-Serif" font-size="10.00">/src/internal/MainWindow.cpp</text>
</a>
</g>
</g>
<!-- Node1&#45;&gt;Node4 -->
<g id="edge7_Node000001_Node000004" class="edge">
<title>Node1&#45;&gt;Node4</title>
<g id="a_edge7_Node000001_Node000004"><a xlink:title=" ">
<path fill="none" stroke="#63b8ff" d="M495.77,-159.05C448.49,-149.06 388.36,-135.21 335.75,-119.5 259.43,-96.72 173.27,-63.37 120.74,-42.14"/>
<polygon fill="#63b8ff" stroke="#63b8ff" points="494.89,-162.44 505.4,-161.07 496.33,-155.59 494.89,-162.44"/>
</a>
</g>
</g>
<!-- Node5 -->
<g id="Node000005" class="node">
<title>Node5</title>
<g id="a_Node000005"><a xlink:href="CustomTableView_8cpp.html" target="_top" xlink:title=" ">
<polygon fill="white" stroke="#666666" points="665.88,-41.75 491.62,-41.75 491.62,0 665.88,0 665.88,-41.75"/>
<text text-anchor="start" x="499.62" y="-28.25" font-family="Helvetica,sans-Serif" font-size="10.00">/github/workspace/dev</text>
<text text-anchor="start" x="499.62" y="-17" font-family="Helvetica,sans-Serif" font-size="10.00">_area/sourcecode/dbe</text>
<text text-anchor="middle" x="578.75" y="-5.75" font-family="Helvetica,sans-Serif" font-size="10.00">/src/structure/CustomTableView.cpp</text>
</a>
</g>
</g>
<!-- Node1&#45;&gt;Node5 -->
<g id="edge8_Node000001_Node000005" class="edge">
<title>Node1&#45;&gt;Node5</title>
<g id="a_edge8_Node000001_Node000005"><a xlink:title=" ">
<path fill="none" stroke="#63b8ff" d="M578.75,-144.01C578.75,-113.46 578.75,-67.92 578.75,-41.95"/>
<polygon fill="#63b8ff" stroke="#63b8ff" points="575.25,-143.79 578.75,-153.79 582.25,-143.79 575.25,-143.79"/>
</a>
</g>
</g>
<!-- Node6 -->
<g id="Node000006" class="node">
<title>Node6</title>
<g id="a_Node000006"><a xlink:href="CustomTreeView_8cpp.html" target="_top" xlink:title=" ">
<polygon fill="white" stroke="#666666" points="853.62,-41.75 683.88,-41.75 683.88,0 853.62,0 853.62,-41.75"/>
<text text-anchor="start" x="691.88" y="-28.25" font-family="Helvetica,sans-Serif" font-size="10.00">/github/workspace/dev</text>
<text text-anchor="start" x="691.88" y="-17" font-family="Helvetica,sans-Serif" font-size="10.00">_area/sourcecode/dbe</text>
<text text-anchor="middle" x="768.75" y="-5.75" font-family="Helvetica,sans-Serif" font-size="10.00">/src/structure/CustomTreeView.cpp</text>
</a>
</g>
</g>
<!-- Node1&#45;&gt;Node6 -->
<g id="edge9_Node000001_Node000006" class="edge">
<title>Node1&#45;&gt;Node6</title>
<g id="a_edge9_Node000001_Node000006"><a xlink:title=" ">
<path fill="none" stroke="#63b8ff" d="M583.98,-144.03C589.02,-122.8 598.68,-95.48 616.75,-77.75 635.01,-59.83 659.5,-47.59 683.47,-39.26"/>
<polygon fill="#63b8ff" stroke="#63b8ff" points="580.59,-143.12 581.94,-153.62 587.44,-144.57 580.59,-143.12"/>
</a>
</g>
</g>
<!-- Node8 -->
<g id="Node000008" class="node">
<title>Node8</title>
<g id="a_Node000008"><a xlink:href="BuildingBlockEditors_8cpp.html" target="_top" xlink:title=" ">
<polygon fill="white" stroke="#666666" points="805.5,-119.5 626,-119.5 626,-77.75 805.5,-77.75 805.5,-119.5"/>
<text text-anchor="start" x="634" y="-106" font-family="Helvetica,sans-Serif" font-size="10.00">/github/workspace/dev</text>
<text text-anchor="start" x="634" y="-94.75" font-family="Helvetica,sans-Serif" font-size="10.00">_area/sourcecode/dbe</text>
<text text-anchor="middle" x="715.75" y="-83.5" font-family="Helvetica,sans-Serif" font-size="10.00">/src/widgets/BuildingBlockEditors.cpp</text>
</a>
</g>
</g>
<!-- Node1&#45;&gt;Node8 -->
<g id="edge10_Node000001_Node000008" class="edge">
<title>Node1&#45;&gt;Node8</title>
<g id="a_edge10_Node000001_Node000008"><a xlink:title=" ">
<path fill="none" stroke="#63b8ff" d="M625.46,-149.55C642.92,-139.89 662.49,-129.07 678.94,-119.98"/>
<polygon fill="#63b8ff" stroke="#63b8ff" points="623.85,-146.44 616.79,-154.34 627.23,-152.57 623.85,-146.44"/>
</a>
</g>
</g>
<!-- Node9 -->
<g id="Node000009" class="node">
<title>Node9</title>
<g id="a_Node000009"><a xlink:href="ObjectEditor_8cpp.html" target="_top" xlink:title=" ">
<polygon fill="white" stroke="#666666" points="967.5,-119.5 824,-119.5 824,-77.75 967.5,-77.75 967.5,-119.5"/>
<text text-anchor="start" x="832" y="-106" font-family="Helvetica,sans-Serif" font-size="10.00">/github/workspace/dev</text>
<text text-anchor="start" x="832" y="-94.75" font-family="Helvetica,sans-Serif" font-size="10.00">_area/sourcecode/dbe</text>
<text text-anchor="middle" x="895.75" y="-83.5" font-family="Helvetica,sans-Serif" font-size="10.00">/src/widgets/ObjectEditor.cpp</text>
</a>
</g>
</g>
<!-- Node1&#45;&gt;Node9 -->
<g id="edge11_Node000001_Node000009" class="edge">
<title>Node1&#45;&gt;Node9</title>
<g id="a_edge11_Node000001_Node000009"><a xlink:title=" ">
<path fill="none" stroke="#63b8ff" d="M661.52,-155.95C706.8,-145.28 763.89,-131.76 814.75,-119.5 817.71,-118.79 820.72,-118.06 823.77,-117.32"/>
<polygon fill="#63b8ff" stroke="#63b8ff" points="660.97,-152.49 652.04,-158.19 662.58,-159.3 660.97,-152.49"/>
</a>
</g>
</g>
<!-- Node3 -->
<g id="Node000003" class="node">
<title>Node3</title>
<g id="a_Node000003"><a xlink:href="GraphView_8cpp.html" target="_top" xlink:title=" ">
<polygon fill="white" stroke="#666666" points="473.5,-41.75 330,-41.75 330,0 473.5,0 473.5,-41.75"/>
<text text-anchor="start" x="338" y="-28.25" font-family="Helvetica,sans-Serif" font-size="10.00">/github/workspace/dev</text>
<text text-anchor="start" x="338" y="-17" font-family="Helvetica,sans-Serif" font-size="10.00">_area/sourcecode/dbe</text>
<text text-anchor="middle" x="401.75" y="-5.75" font-family="Helvetica,sans-Serif" font-size="10.00">/src/graphical/GraphView.cpp</text>
</a>
</g>
</g>
<!-- Node2&#45;&gt;Node3 -->
<g id="edge2_Node000002_Node000003" class="edge">
<title>Node2&#45;&gt;Node3</title>
<g id="a_edge2_Node000002_Node000003"><a xlink:title=" ">
<path fill="none" stroke="#63b8ff" d="M412.3,-66.28C410.37,-58.16 408.34,-49.62 406.59,-42.23"/>
<polygon fill="#63b8ff" stroke="#63b8ff" points="408.86,-66.93 414.58,-75.85 415.67,-65.31 408.86,-66.93"/>
</a>
</g>
</g>
<!-- Node2&#45;&gt;Node4 -->
<g id="edge3_Node000002_Node000004" class="edge">
<title>Node2&#45;&gt;Node4</title>
<g id="a_edge3_Node000002_Node000004"><a xlink:title=" ">
<path fill="none" stroke="#63b8ff" d="M333.25,-80.31C280.9,-69.63 212.88,-55.41 152.75,-41.75 149.78,-41.08 146.76,-40.38 143.71,-39.67"/>
<polygon fill="#63b8ff" stroke="#63b8ff" points="332.53,-83.73 343.02,-82.29 333.92,-76.87 332.53,-83.73"/>
</a>
</g>
</g>
<!-- Node2&#45;&gt;Node5 -->
<g id="edge4_Node000002_Node000005" class="edge">
<title>Node2&#45;&gt;Node5</title>
<g id="a_edge4_Node000002_Node000005"><a xlink:title=" ">
<path fill="none" stroke="#63b8ff" d="M472.55,-72.47C493.16,-62.65 516.49,-51.54 536.02,-42.23"/>
<polygon fill="#63b8ff" stroke="#63b8ff" points="471.25,-69.21 463.73,-76.67 474.26,-75.53 471.25,-69.21"/>
</a>
</g>
</g>
<!-- Node2&#45;&gt;Node6 -->
<g id="edge5_Node000002_Node000006" class="edge">
<title>Node2&#45;&gt;Node6</title>
<g id="a_edge5_Node000002_Node000006"><a xlink:title=" ">
<path fill="none" stroke="#63b8ff" d="M505.59,-78.99C559.78,-67.23 629.51,-52.1 683.58,-40.36"/>
<polygon fill="#63b8ff" stroke="#63b8ff" points="505.13,-75.51 496.1,-81.05 506.61,-82.35 505.13,-75.51"/>
</a>
</g>
</g>
<!-- Node7 -->
<g id="Node000007" class="node">
<title>Node7</title>
<g id="a_Node000007"><a xlink:href="ObjectCreator_8cpp.html" target="_top" xlink:title=" ">
<polygon fill="white" stroke="#666666" points="311.88,-41.75 161.62,-41.75 161.62,0 311.88,0 311.88,-41.75"/>
<text text-anchor="start" x="169.62" y="-28.25" font-family="Helvetica,sans-Serif" font-size="10.00">/github/workspace/dev</text>
<text text-anchor="start" x="169.62" y="-17" font-family="Helvetica,sans-Serif" font-size="10.00">_area/sourcecode/dbe</text>
<text text-anchor="middle" x="236.75" y="-5.75" font-family="Helvetica,sans-Serif" font-size="10.00">/src/widgets/ObjectCreator.cpp</text>
</a>
</g>
</g>
<!-- Node2&#45;&gt;Node7 -->
<g id="edge6_Node000002_Node000007" class="edge">
<title>Node2&#45;&gt;Node7</title>
<g id="a_edge6_Node000002_Node000007"><a xlink:title=" ">
<path fill="none" stroke="#63b8ff" d="M360.28,-73.01C336.24,-63.06 308.82,-51.71 285.93,-42.23"/>
<polygon fill="#63b8ff" stroke="#63b8ff" points="358.73,-76.16 369.31,-76.75 361.41,-69.69 358.73,-76.16"/>
</a>
</g>
</g>
</g>
</svg>
