<?xml version="1.0" encoding="UTF-8" standalone="no"?>
<!DOCTYPE svg PUBLIC "-//W3C//DTD SVG 1.1//EN"
 "http://www.w3.org/Graphics/SVG/1.1/DTD/svg11.dtd">
<!-- Generated by graphviz version 9.0.0 (20230911.1827)
 -->
<!-- Title: /github/workspace/dev_area/build/opmonlib/codegen/include/opmonlib/opmon_entry.pb.cc Pages: 1 -->
<svg width="2690pt" height="194pt"
 viewBox="0.00 0.00 2689.62 194.00" xmlns="http://www.w3.org/2000/svg" xmlns:xlink="http://www.w3.org/1999/xlink">
<g id="graph0" class="graph" transform="scale(1 1) rotate(0) translate(4 190)">
<title>/github/workspace/dev_area/build/opmonlib/codegen/include/opmonlib/opmon_entry.pb.cc</title>
<!-- Node1 -->
<g id="Node000001" class="node">
<title>Node1</title>
<g id="a_Node000001"><a xlink:title=" ">
<polygon fill="#999999" stroke="#666666" points="1375.88,-186 1244.38,-186 1244.38,-133 1375.88,-133 1375.88,-186"/>
<text text-anchor="start" x="1252.38" y="-172.5" font-family="Helvetica,sans-Serif" font-size="10.00">/github/workspace/dev</text>
<text text-anchor="start" x="1252.38" y="-161.25" font-family="Helvetica,sans-Serif" font-size="10.00">_area/build/opmonlib</text>
<text text-anchor="start" x="1252.38" y="-150" font-family="Helvetica,sans-Serif" font-size="10.00">/codegen/include/opmonlib</text>
<text text-anchor="middle" x="1310.12" y="-138.75" font-family="Helvetica,sans-Serif" font-size="10.00">/opmon_entry.pb.cc</text>
</a>
</g>
</g>
<!-- Node2 -->
<g id="Node000002" class="node">
<title>Node2</title>
<g id="a_Node000002"><a xlink:href="opmon__entry_8pb_8h.html" target="_top" xlink:title=" ">
<polygon fill="white" stroke="#666666" points="1216,-91.38 1082.25,-91.38 1082.25,-72.12 1216,-72.12 1216,-91.38"/>
<text text-anchor="middle" x="1149.12" y="-77.88" font-family="Helvetica,sans-Serif" font-size="10.00">opmonlib/opmon_entry.pb.h</text>
</a>
</g>
</g>
<!-- Node1&#45;&gt;Node2 -->
<g id="edge1_Node000001_Node000002" class="edge">
<title>Node1&#45;&gt;Node2</title>
<g id="a_edge1_Node000001_Node000002"><a xlink:title=" ">
<path fill="none" stroke="#63b8ff" d="M1255.17,-132.64C1229.57,-120.6 1200.13,-106.75 1178.77,-96.7"/>
<polygon fill="#63b8ff" stroke="#63b8ff" points="1180.31,-93.55 1169.77,-92.46 1177.33,-99.89 1180.31,-93.55"/>
</a>
</g>
</g>
<!-- Node6 -->
<g id="Node000006" class="node">
<title>Node6</title>
<g id="a_Node000006"><a xlink:title=" ">
<polygon fill="#e0e0e0" stroke="#999999" points="102.25,-30.5 0,-30.5 0,0 102.25,0 102.25,-30.5"/>
<text text-anchor="start" x="8" y="-17" font-family="Helvetica,sans-Serif" font-size="10.00">google/protobuf/port</text>
<text text-anchor="middle" x="51.12" y="-5.75" font-family="Helvetica,sans-Serif" font-size="10.00">_def.inc</text>
</a>
</g>
</g>
<!-- Node1&#45;&gt;Node6 -->
<g id="edge32_Node000001_Node000006" class="edge">
<title>Node1&#45;&gt;Node6</title>
<g id="a_edge32_Node000001_Node000006"><a xlink:title=" ">
<path fill="none" stroke="#63b8ff" d="M1243.89,-156.29C1100.72,-150.93 751.93,-134.83 462.12,-97 337.48,-80.73 193.76,-49.61 113.56,-31.12"/>
<polygon fill="#63b8ff" stroke="#63b8ff" points="114.68,-27.78 104.15,-28.94 113.1,-34.6 114.68,-27.78"/>
</a>
</g>
</g>
<!-- Node7 -->
<g id="Node000007" class="node">
<title>Node7</title>
<g id="a_Node000007"><a xlink:title=" ">
<polygon fill="#e0e0e0" stroke="#999999" points="222.25,-30.5 120,-30.5 120,0 222.25,0 222.25,-30.5"/>
<text text-anchor="start" x="128" y="-17" font-family="Helvetica,sans-Serif" font-size="10.00">google/protobuf/port</text>
<text text-anchor="middle" x="171.12" y="-5.75" font-family="Helvetica,sans-Serif" font-size="10.00">_undef.inc</text>
</a>
</g>
</g>
<!-- Node1&#45;&gt;Node7 -->
<g id="edge33_Node000001_Node000007" class="edge">
<title>Node1&#45;&gt;Node7</title>
<g id="a_edge33_Node000001_Node000007"><a xlink:title=" ">
<path fill="none" stroke="#63b8ff" d="M1243.97,-153.78C1076.08,-141.13 619.99,-102.59 233.57,-30.86"/>
<polygon fill="#63b8ff" stroke="#63b8ff" points="234.4,-27.45 223.93,-29.06 233.12,-34.33 234.4,-27.45"/>
</a>
</g>
</g>
<!-- Node8 -->
<g id="Node000008" class="node">
<title>Node8</title>
<g id="a_Node000008"><a xlink:title=" ">
<polygon fill="#e0e0e0" stroke="#999999" points="333.75,-30.5 240.5,-30.5 240.5,0 333.75,0 333.75,-30.5"/>
<text text-anchor="start" x="248.5" y="-17" font-family="Helvetica,sans-Serif" font-size="10.00">google/protobuf/io</text>
<text text-anchor="middle" x="287.12" y="-5.75" font-family="Helvetica,sans-Serif" font-size="10.00">/coded_stream.h</text>
</a>
</g>
</g>
<!-- Node1&#45;&gt;Node8 -->
<g id="edge24_Node000001_Node000008" class="edge">
<title>Node1&#45;&gt;Node8</title>
<g id="a_edge24_Node000001_Node000008"><a xlink:title=" ">
<path fill="none" stroke="#63b8ff" d="M1244.14,-147.18C1133.83,-128.53 904.87,-90.96 710.12,-66.5 551.16,-46.53 506.55,-58.24 345.37,-30.7"/>
<polygon fill="#63b8ff" stroke="#63b8ff" points="346.01,-27.26 335.56,-29 344.81,-34.16 346.01,-27.26"/>
</a>
</g>
</g>
<!-- Node14 -->
<g id="Node000014" class="node">
<title>Node14</title>
<g id="a_Node000014"><a xlink:title=" ">
<polygon fill="#e0e0e0" stroke="#999999" points="2536.38,-30.5 2407.88,-30.5 2407.88,0 2536.38,0 2536.38,-30.5"/>
<text text-anchor="start" x="2415.88" y="-17" font-family="Helvetica,sans-Serif" font-size="10.00">google/protobuf/generated</text>
<text text-anchor="middle" x="2472.12" y="-5.75" font-family="Helvetica,sans-Serif" font-size="10.00">_message_reflection.h</text>
</a>
</g>
</g>
<!-- Node1&#45;&gt;Node14 -->
<g id="edge28_Node000001_Node000014" class="edge">
<title>Node1&#45;&gt;Node14</title>
<g id="a_edge28_Node000001_Node000014"><a xlink:title=" ">
<path fill="none" stroke="#63b8ff" d="M1284,-132.75C1266.68,-112.62 1250.17,-85.04 1268.12,-66.5 1310.25,-23.02 2262.99,-36.38 2396.21,-30.09"/>
<polygon fill="#63b8ff" stroke="#63b8ff" points="2396.4,-33.58 2406.13,-29.4 2395.91,-26.6 2396.4,-33.58"/>
</a>
</g>
</g>
<!-- Node17 -->
<g id="Node000017" class="node">
<title>Node17</title>
<g id="a_Node000017"><a xlink:title=" ">
<polygon fill="#e0e0e0" stroke="#999999" points="2681.62,-30.5 2554.62,-30.5 2554.62,0 2681.62,0 2681.62,-30.5"/>
<text text-anchor="start" x="2562.62" y="-17" font-family="Helvetica,sans-Serif" font-size="10.00">google/protobuf/extension</text>
<text text-anchor="middle" x="2618.12" y="-5.75" font-family="Helvetica,sans-Serif" font-size="10.00">_set.h</text>
</a>
</g>
</g>
<!-- Node1&#45;&gt;Node17 -->
<g id="edge25_Node000001_Node000017" class="edge">
<title>Node1&#45;&gt;Node17</title>
<g id="a_edge25_Node000001_Node000017"><a xlink:title=" ">
<path fill="none" stroke="#63b8ff" d="M1297.99,-132.71C1290.25,-112 1284.46,-83.65 1301.12,-66.5 1347.7,-18.56 2402.75,-36.82 2543.35,-30.09"/>
<polygon fill="#63b8ff" stroke="#63b8ff" points="2543.28,-33.6 2553.01,-29.41 2542.79,-26.62 2543.28,-33.6"/>
</a>
</g>
</g>
<!-- Node24 -->
<g id="Node000024" class="node">
<title>Node24</title>
<g id="a_Node000024"><a xlink:title=" ">
<polygon fill="#e0e0e0" stroke="#999999" points="1366,-91.38 1310.25,-91.38 1310.25,-72.12 1366,-72.12 1366,-91.38"/>
<text text-anchor="middle" x="1338.12" y="-77.88" font-family="Helvetica,sans-Serif" font-size="10.00">algorithm</text>
</a>
</g>
</g>
<!-- Node1&#45;&gt;Node24 -->
<g id="edge23_Node000001_Node000024" class="edge">
<title>Node1&#45;&gt;Node24</title>
<g id="a_edge23_Node000001_Node000024"><a xlink:title=" ">
<path fill="none" stroke="#63b8ff" d="M1319.6,-132.85C1323.31,-122.84 1327.48,-111.54 1330.93,-102.21"/>
<polygon fill="#63b8ff" stroke="#63b8ff" points="1334.11,-103.7 1334.3,-93.11 1327.55,-101.28 1334.11,-103.7"/>
</a>
</g>
</g>
<!-- Node25 -->
<g id="Node000025" class="node">
<title>Node25</title>
<g id="a_Node000025"><a xlink:title=" ">
<polygon fill="#e0e0e0" stroke="#999999" points="1488,-97 1384.25,-97 1384.25,-66.5 1488,-66.5 1488,-97"/>
<text text-anchor="start" x="1392.25" y="-83.5" font-family="Helvetica,sans-Serif" font-size="10.00">google/protobuf/wire</text>
<text text-anchor="middle" x="1436.12" y="-72.25" font-family="Helvetica,sans-Serif" font-size="10.00">_format_lite.h</text>
</a>
</g>
</g>
<!-- Node1&#45;&gt;Node25 -->
<g id="edge26_Node000001_Node000025" class="edge">
<title>Node1&#45;&gt;Node25</title>
<g id="a_edge26_Node000001_Node000025"><a xlink:title=" ">
<path fill="none" stroke="#63b8ff" d="M1353.13,-132.64C1369.16,-123.01 1387.11,-112.22 1402.2,-103.14"/>
<polygon fill="#63b8ff" stroke="#63b8ff" points="1403.6,-106.39 1410.36,-98.24 1399.99,-100.39 1403.6,-106.39"/>
</a>
</g>
</g>
<!-- Node26 -->
<g id="Node000026" class="node">
<title>Node26</title>
<g id="a_Node000026"><a xlink:title=" ">
<polygon fill="#e0e0e0" stroke="#999999" points="1642.12,-91.38 1506.12,-91.38 1506.12,-72.12 1642.12,-72.12 1642.12,-91.38"/>
<text text-anchor="middle" x="1574.12" y="-77.88" font-family="Helvetica,sans-Serif" font-size="10.00">google/protobuf/descriptor.h</text>
</a>
</g>
</g>
<!-- Node1&#45;&gt;Node26 -->
<g id="edge27_Node000001_Node000026" class="edge">
<title>Node1&#45;&gt;Node26</title>
<g id="a_edge27_Node000001_Node000026"><a xlink:title=" ">
<path fill="none" stroke="#63b8ff" d="M1376.06,-139.58C1424.75,-125.61 1489.59,-107.01 1531.59,-94.95"/>
<polygon fill="#63b8ff" stroke="#63b8ff" points="1532.44,-98.35 1541.08,-92.23 1530.51,-91.62 1532.44,-98.35"/>
</a>
</g>
</g>
<!-- Node27 -->
<g id="Node000027" class="node">
<title>Node27</title>
<g id="a_Node000027"><a xlink:title=" ">
<polygon fill="#e0e0e0" stroke="#999999" points="1784.5,-97 1659.75,-97 1659.75,-66.5 1784.5,-66.5 1784.5,-97"/>
<text text-anchor="start" x="1667.75" y="-83.5" font-family="Helvetica,sans-Serif" font-size="10.00">google/protobuf/reflection</text>
<text text-anchor="middle" x="1722.12" y="-72.25" font-family="Helvetica,sans-Serif" font-size="10.00">_ops.h</text>
</a>
</g>
</g>
<!-- Node1&#45;&gt;Node27 -->
<g id="edge29_Node000001_Node000027" class="edge">
<title>Node1&#45;&gt;Node27</title>
<g id="a_edge29_Node000001_Node000027"><a xlink:title=" ">
<path fill="none" stroke="#63b8ff" d="M1376.2,-146.98C1442.47,-135.34 1547.74,-116.6 1648.15,-97.55"/>
<polygon fill="#63b8ff" stroke="#63b8ff" points="1648.76,-100.99 1657.93,-95.69 1647.45,-94.12 1648.76,-100.99"/>
</a>
</g>
</g>
<!-- Node28 -->
<g id="Node000028" class="node">
<title>Node28</title>
<g id="a_Node000028"><a xlink:title=" ">
<polygon fill="#e0e0e0" stroke="#999999" points="1906,-97 1802.25,-97 1802.25,-66.5 1906,-66.5 1906,-97"/>
<text text-anchor="start" x="1810.25" y="-83.5" font-family="Helvetica,sans-Serif" font-size="10.00">google/protobuf/wire</text>
<text text-anchor="middle" x="1854.12" y="-72.25" font-family="Helvetica,sans-Serif" font-size="10.00">_format.h</text>
</a>
</g>
</g>
<!-- Node1&#45;&gt;Node28 -->
<g id="edge30_Node000001_Node000028" class="edge">
<title>Node1&#45;&gt;Node28</title>
<g id="a_edge30_Node000001_Node000028"><a xlink:title=" ">
<path fill="none" stroke="#63b8ff" d="M1376.08,-152.27C1467.19,-143.19 1636.85,-124.55 1790.89,-97.29"/>
<polygon fill="#63b8ff" stroke="#63b8ff" points="1791.24,-100.78 1800.47,-95.58 1790.01,-93.89 1791.24,-100.78"/>
</a>
</g>
</g>
<!-- Node29 -->
<g id="Node000029" class="node">
<title>Node29</title>
<g id="a_Node000029"><a xlink:title=" ">
<polygon fill="#e0e0e0" stroke="#999999" points="2052.38,-97 1923.88,-97 1923.88,-66.5 2052.38,-66.5 2052.38,-97"/>
<text text-anchor="start" x="1931.88" y="-83.5" font-family="Helvetica,sans-Serif" font-size="10.00">google/protobuf/generated</text>
<text text-anchor="middle" x="1988.12" y="-72.25" font-family="Helvetica,sans-Serif" font-size="10.00">_message_tctable_impl.h</text>
</a>
</g>
</g>
<!-- Node1&#45;&gt;Node29 -->
<g id="edge31_Node000001_Node000029" class="edge">
<title>Node1&#45;&gt;Node29</title>
<g id="a_edge31_Node000001_Node000029"><a xlink:title=" ">
<path fill="none" stroke="#63b8ff" d="M1376.17,-153.78C1485.58,-145.51 1711.51,-126.61 1912.33,-97.33"/>
<polygon fill="#63b8ff" stroke="#63b8ff" points="1912.81,-100.8 1922.2,-95.88 1911.79,-93.87 1912.81,-100.8"/>
</a>
</g>
</g>
<!-- Node3 -->
<g id="Node000003" class="node">
<title>Node3</title>
<g id="a_Node000003"><a xlink:title=" ">
<polygon fill="#e0e0e0" stroke="#999999" points="561.75,-24.88 522.5,-24.88 522.5,-5.63 561.75,-5.63 561.75,-24.88"/>
<text text-anchor="middle" x="542.12" y="-11.38" font-family="Helvetica,sans-Serif" font-size="10.00">limits</text>
</a>
</g>
</g>
<!-- Node2&#45;&gt;Node3 -->
<g id="edge2_Node000002_Node000003" class="edge">
<title>Node2&#45;&gt;Node3</title>
<g id="a_edge2_Node000002_Node000003"><a xlink:title=" ">
<path fill="none" stroke="#63b8ff" d="M1082.01,-75.58C934.94,-64.16 595.4,-37.26 571.12,-30.5 570.16,-30.23 569.18,-29.93 568.2,-29.6"/>
<polygon fill="#63b8ff" stroke="#63b8ff" points="569.94,-26.53 559.36,-25.92 567.25,-32.99 569.94,-26.53"/>
</a>
</g>
</g>
<!-- Node4 -->
<g id="Node000004" class="node">
<title>Node4</title>
<g id="a_Node000004"><a xlink:title=" ">
<polygon fill="#e0e0e0" stroke="#999999" points="620.12,-24.88 580.12,-24.88 580.12,-5.63 620.12,-5.63 620.12,-24.88"/>
<text text-anchor="middle" x="600.12" y="-11.38" font-family="Helvetica,sans-Serif" font-size="10.00">string</text>
</a>
</g>
</g>
<!-- Node2&#45;&gt;Node4 -->
<g id="edge3_Node000002_Node000004" class="edge">
<title>Node2&#45;&gt;Node4</title>
<g id="a_edge3_Node000002_Node000004"><a xlink:title=" ">
<path fill="none" stroke="#63b8ff" d="M1081.87,-75.61C951.11,-65.41 671.66,-42.57 629.12,-30.5 628.16,-30.23 627.18,-29.92 626.21,-29.59"/>
<polygon fill="#63b8ff" stroke="#63b8ff" points="627.94,-26.52 617.37,-25.89 625.25,-32.98 627.94,-26.52"/>
</a>
</g>
</g>
<!-- Node5 -->
<g id="Node000005" class="node">
<title>Node5</title>
<g id="a_Node000005"><a xlink:title=" ">
<polygon fill="#e0e0e0" stroke="#999999" points="699.62,-24.88 638.62,-24.88 638.62,-5.63 699.62,-5.63 699.62,-24.88"/>
<text text-anchor="middle" x="669.12" y="-11.38" font-family="Helvetica,sans-Serif" font-size="10.00">type_traits</text>
</a>
</g>
</g>
<!-- Node2&#45;&gt;Node5 -->
<g id="edge4_Node000002_Node000005" class="edge">
<title>Node2&#45;&gt;Node5</title>
<g id="a_edge4_Node000002_Node000005"><a xlink:title=" ">
<path fill="none" stroke="#63b8ff" d="M1081.76,-75.04C976.37,-65.78 777.4,-46.86 708.12,-30.5 706.11,-30.02 704.05,-29.47 701.99,-28.88"/>
<polygon fill="#63b8ff" stroke="#63b8ff" points="703.15,-25.57 692.56,-25.79 700.97,-32.22 703.15,-25.57"/>
</a>
</g>
</g>
<!-- Node2&#45;&gt;Node6 -->
<g id="edge5_Node000002_Node000006" class="edge">
<title>Node2&#45;&gt;Node6</title>
<g id="a_edge5_Node000002_Node000006"><a xlink:title=" ">
<path fill="none" stroke="#63b8ff" d="M1082,-79.12C886.91,-74.14 321.22,-57.84 114.08,-30.69"/>
<polygon fill="#63b8ff" stroke="#63b8ff" points="114.6,-27.23 104.22,-29.35 113.65,-34.17 114.6,-27.23"/>
</a>
</g>
</g>
<!-- Node2&#45;&gt;Node7 -->
<g id="edge6_Node000002_Node000007" class="edge">
<title>Node2&#45;&gt;Node7</title>
<g id="a_edge6_Node000002_Node000007"><a xlink:title=" ">
<path fill="none" stroke="#63b8ff" d="M1082.06,-78.63C903.2,-72.75 416.52,-55.09 234.04,-30.7"/>
<polygon fill="#63b8ff" stroke="#63b8ff" points="234.61,-27.25 224.22,-29.33 233.64,-34.18 234.61,-27.25"/>
</a>
</g>
</g>
<!-- Node2&#45;&gt;Node8 -->
<g id="edge7_Node000002_Node000008" class="edge">
<title>Node2&#45;&gt;Node8</title>
<g id="a_edge7_Node000002_Node000008"><a xlink:title=" ">
<path fill="none" stroke="#63b8ff" d="M1082.15,-75.39C1046.26,-72.59 1001.3,-69.19 961.12,-66.5 690.23,-48.34 616.94,-71.98 345.05,-30.58"/>
<polygon fill="#63b8ff" stroke="#63b8ff" points="345.96,-27.17 335.54,-29.11 344.89,-34.09 345.96,-27.17"/>
</a>
</g>
</g>
<!-- Node9 -->
<g id="Node000009" class="node">
<title>Node9</title>
<g id="a_Node000009"><a xlink:title=" ">
<polygon fill="#e0e0e0" stroke="#999999" points="834.75,-24.88 717.5,-24.88 717.5,-5.63 834.75,-5.63 834.75,-24.88"/>
<text text-anchor="middle" x="776.12" y="-11.38" font-family="Helvetica,sans-Serif" font-size="10.00">google/protobuf/arena.h</text>
</a>
</g>
</g>
<!-- Node2&#45;&gt;Node9 -->
<g id="edge8_Node000002_Node000009" class="edge">
<title>Node2&#45;&gt;Node9</title>
<g id="a_edge8_Node000002_Node000009"><a xlink:title=" ">
<path fill="none" stroke="#63b8ff" d="M1088.6,-71.67C1026.76,-62.18 928.04,-46.49 843.12,-30.5 838.46,-29.62 833.62,-28.67 828.77,-27.69"/>
<polygon fill="#63b8ff" stroke="#63b8ff" points="829.51,-24.27 819.01,-25.68 828.09,-31.12 829.51,-24.27"/>
</a>
</g>
</g>
<!-- Node10 -->
<g id="Node000010" class="node">
<title>Node10</title>
<g id="a_Node000010"><a xlink:title=" ">
<polygon fill="#e0e0e0" stroke="#999999" points="993.75,-24.88 852.5,-24.88 852.5,-5.63 993.75,-5.63 993.75,-24.88"/>
<text text-anchor="middle" x="923.12" y="-11.38" font-family="Helvetica,sans-Serif" font-size="10.00">google/protobuf/arenastring.h</text>
</a>
</g>
</g>
<!-- Node2&#45;&gt;Node10 -->
<g id="edge9_Node000002_Node000010" class="edge">
<title>Node2&#45;&gt;Node10</title>
<g id="a_edge9_Node000002_Node000010"><a xlink:title=" ">
<path fill="none" stroke="#63b8ff" d="M1117.22,-71.65C1077.6,-60.34 1009.86,-41 965.8,-28.43"/>
<polygon fill="#63b8ff" stroke="#63b8ff" points="966.9,-25.1 956.32,-25.72 964.97,-31.83 966.9,-25.1"/>
</a>
</g>
</g>
<!-- Node11 -->
<g id="Node000011" class="node">
<title>Node11</title>
<g id="a_Node000011"><a xlink:title=" ">
<polygon fill="#e0e0e0" stroke="#999999" points="1140.38,-30.5 1011.88,-30.5 1011.88,0 1140.38,0 1140.38,-30.5"/>
<text text-anchor="start" x="1019.88" y="-17" font-family="Helvetica,sans-Serif" font-size="10.00">google/protobuf/generated</text>
<text text-anchor="middle" x="1076.12" y="-5.75" font-family="Helvetica,sans-Serif" font-size="10.00">_message_tctable_decl.h</text>
</a>
</g>
</g>
<!-- Node2&#45;&gt;Node11 -->
<g id="edge10_Node000002_Node000011" class="edge">
<title>Node2&#45;&gt;Node11</title>
<g id="a_edge10_Node000002_Node000011"><a xlink:title=" ">
<path fill="none" stroke="#63b8ff" d="M1138.97,-71.78C1129.23,-63.18 1114.13,-49.83 1101.18,-38.38"/>
<polygon fill="#63b8ff" stroke="#63b8ff" points="1103.58,-35.84 1093.77,-31.84 1098.95,-41.09 1103.58,-35.84"/>
</a>
</g>
</g>
<!-- Node12 -->
<g id="Node000012" class="node">
<title>Node12</title>
<g id="a_Node000012"><a xlink:title=" ">
<polygon fill="#e0e0e0" stroke="#999999" points="1287.38,-30.5 1158.88,-30.5 1158.88,0 1287.38,0 1287.38,-30.5"/>
<text text-anchor="start" x="1166.88" y="-17" font-family="Helvetica,sans-Serif" font-size="10.00">google/protobuf/generated</text>
<text text-anchor="middle" x="1223.12" y="-5.75" font-family="Helvetica,sans-Serif" font-size="10.00">_message_util.h</text>
</a>
</g>
</g>
<!-- Node2&#45;&gt;Node12 -->
<g id="edge11_Node000002_Node000012" class="edge">
<title>Node2&#45;&gt;Node12</title>
<g id="a_edge11_Node000002_Node000012"><a xlink:title=" ">
<path fill="none" stroke="#63b8ff" d="M1159.41,-71.78C1169.29,-63.18 1184.6,-49.83 1197.73,-38.38"/>
<polygon fill="#63b8ff" stroke="#63b8ff" points="1200.01,-41.04 1205.24,-31.84 1195.41,-35.77 1200.01,-41.04"/>
</a>
</g>
</g>
<!-- Node13 -->
<g id="Node000013" class="node">
<title>Node13</title>
<g id="a_Node000013"><a xlink:title=" ">
<polygon fill="#e0e0e0" stroke="#999999" points="1431.25,-30.5 1305,-30.5 1305,0 1431.25,0 1431.25,-30.5"/>
<text text-anchor="start" x="1313" y="-17" font-family="Helvetica,sans-Serif" font-size="10.00">google/protobuf/metadata</text>
<text text-anchor="middle" x="1368.12" y="-5.75" font-family="Helvetica,sans-Serif" font-size="10.00">_lite.h</text>
</a>
</g>
</g>
<!-- Node2&#45;&gt;Node13 -->
<g id="edge12_Node000002_Node000013" class="edge">
<title>Node2&#45;&gt;Node13</title>
<g id="a_edge12_Node000002_Node000013"><a xlink:title=" ">
<path fill="none" stroke="#63b8ff" d="M1180.04,-71.65C1213.05,-61.92 1266.2,-46.27 1307.59,-34.08"/>
<polygon fill="#63b8ff" stroke="#63b8ff" points="1308.33,-37.51 1316.93,-31.33 1306.35,-30.79 1308.33,-37.51"/>
</a>
</g>
</g>
<!-- Node2&#45;&gt;Node14 -->
<g id="edge13_Node000002_Node000014" class="edge">
<title>Node2&#45;&gt;Node14</title>
<g id="a_edge13_Node000002_Node000014"><a xlink:title=" ">
<path fill="none" stroke="#63b8ff" d="M1193.95,-71.68C1205.68,-69.64 1218.34,-67.71 1230.12,-66.5 1743.1,-13.75 1880,-86.74 2396.54,-30.52"/>
<polygon fill="#63b8ff" stroke="#63b8ff" points="2396.58,-34.03 2406.14,-29.46 2395.82,-27.08 2396.58,-34.03"/>
</a>
</g>
</g>
<!-- Node15 -->
<g id="Node000015" class="node">
<title>Node15</title>
<g id="a_Node000015"><a xlink:title=" ">
<polygon fill="#e0e0e0" stroke="#999999" points="1582.62,-24.88 1449.62,-24.88 1449.62,-5.63 1582.62,-5.63 1582.62,-24.88"/>
<text text-anchor="middle" x="1516.12" y="-11.38" font-family="Helvetica,sans-Serif" font-size="10.00">google/protobuf/message.h</text>
</a>
</g>
</g>
<!-- Node2&#45;&gt;Node15 -->
<g id="edge14_Node000002_Node000015" class="edge">
<title>Node2&#45;&gt;Node15</title>
<g id="a_edge14_Node000002_Node000015"><a xlink:title=" ">
<path fill="none" stroke="#63b8ff" d="M1200.54,-71.67C1210.36,-69.95 1220.56,-68.16 1230.12,-66.5 1323.42,-50.3 1346.92,-47.23 1440.12,-30.5 1445.68,-29.5 1451.46,-28.45 1457.24,-27.38"/>
<polygon fill="#63b8ff" stroke="#63b8ff" points="1457.62,-30.87 1466.82,-25.61 1456.35,-23.99 1457.62,-30.87"/>
</a>
</g>
</g>
<!-- Node16 -->
<g id="Node000016" class="node">
<title>Node16</title>
<g id="a_Node000016"><a xlink:title=" ">
<polygon fill="#e0e0e0" stroke="#999999" points="1723.75,-30.5 1600.5,-30.5 1600.5,0 1723.75,0 1723.75,-30.5"/>
<text text-anchor="start" x="1608.5" y="-17" font-family="Helvetica,sans-Serif" font-size="10.00">google/protobuf/repeated</text>
<text text-anchor="middle" x="1662.12" y="-5.75" font-family="Helvetica,sans-Serif" font-size="10.00">_field.h</text>
</a>
</g>
</g>
<!-- Node2&#45;&gt;Node16 -->
<g id="edge15_Node000002_Node000016" class="edge">
<title>Node2&#45;&gt;Node16</title>
<g id="a_edge15_Node000002_Node000016"><a xlink:title=" ">
<path fill="none" stroke="#63b8ff" d="M1197.43,-71.64C1208.17,-69.79 1219.52,-67.96 1230.12,-66.5 1386.7,-44.97 1430.31,-54.22 1589.21,-30.84"/>
<polygon fill="#63b8ff" stroke="#63b8ff" points="1589.48,-34.34 1598.85,-29.4 1588.44,-27.42 1589.48,-34.34"/>
</a>
</g>
</g>
<!-- Node2&#45;&gt;Node17 -->
<g id="edge16_Node000002_Node000017" class="edge">
<title>Node2&#45;&gt;Node17</title>
<g id="a_edge16_Node000002_Node000017"><a xlink:title=" ">
<path fill="none" stroke="#63b8ff" d="M1216.05,-71.65C1233.01,-69.65 1251.21,-67.75 1268.12,-66.5 1830.63,-24.98 1978.86,-92.21 2543.23,-30.55"/>
<polygon fill="#63b8ff" stroke="#63b8ff" points="2543.46,-34.05 2553.01,-29.47 2542.69,-27.09 2543.46,-34.05"/>
</a>
</g>
</g>
<!-- Node18 -->
<g id="Node000018" class="node">
<title>Node18</title>
<g id="a_Node000018"><a xlink:title=" ">
<polygon fill="#e0e0e0" stroke="#999999" points="1854.12,-24.88 1742.12,-24.88 1742.12,-5.63 1854.12,-5.63 1854.12,-24.88"/>
<text text-anchor="middle" x="1798.12" y="-11.38" font-family="Helvetica,sans-Serif" font-size="10.00">google/protobuf/map.h</text>
</a>
</g>
</g>
<!-- Node2&#45;&gt;Node18 -->
<g id="edge17_Node000002_Node000018" class="edge">
<title>Node2&#45;&gt;Node18</title>
<g id="a_edge17_Node000002_Node000018"><a xlink:title=" ">
<path fill="none" stroke="#63b8ff" d="M1196.12,-71.64C1207.23,-69.72 1219.07,-67.86 1230.12,-66.5 1452.56,-39.05 1511.31,-62.58 1733.12,-30.5 1738.7,-29.69 1744.51,-28.68 1750.26,-27.56"/>
<polygon fill="#63b8ff" stroke="#63b8ff" points="1750.6,-31.06 1759.69,-25.62 1749.19,-24.21 1750.6,-31.06"/>
</a>
</g>
</g>
<!-- Node19 -->
<g id="Node000019" class="node">
<title>Node19</title>
<g id="a_Node000019"><a xlink:title=" ">
<polygon fill="#e0e0e0" stroke="#999999" points="1976.38,-30.5 1871.88,-30.5 1871.88,0 1976.38,0 1976.38,-30.5"/>
<text text-anchor="start" x="1879.88" y="-17" font-family="Helvetica,sans-Serif" font-size="10.00">google/protobuf/map</text>
<text text-anchor="middle" x="1924.12" y="-5.75" font-family="Helvetica,sans-Serif" font-size="10.00">_entry.h</text>
</a>
</g>
</g>
<!-- Node2&#45;&gt;Node19 -->
<g id="edge18_Node000002_Node000019" class="edge">
<title>Node2&#45;&gt;Node19</title>
<g id="a_edge18_Node000002_Node000019"><a xlink:title=" ">
<path fill="none" stroke="#63b8ff" d="M1195.25,-71.67C1206.61,-69.7 1218.78,-67.82 1230.12,-66.5 1506.35,-34.46 1582.23,-69.75 1860.4,-30.72"/>
<polygon fill="#63b8ff" stroke="#63b8ff" points="1860.76,-34.2 1870.16,-29.33 1859.77,-27.27 1860.76,-34.2"/>
</a>
</g>
</g>
<!-- Node20 -->
<g id="Node000020" class="node">
<title>Node20</title>
<g id="a_Node000020"><a xlink:title=" ">
<polygon fill="#e0e0e0" stroke="#999999" points="2099.38,-30.5 1994.88,-30.5 1994.88,0 2099.38,0 2099.38,-30.5"/>
<text text-anchor="start" x="2002.88" y="-17" font-family="Helvetica,sans-Serif" font-size="10.00">google/protobuf/map</text>
<text text-anchor="middle" x="2047.12" y="-5.75" font-family="Helvetica,sans-Serif" font-size="10.00">_field_inl.h</text>
</a>
</g>
</g>
<!-- Node2&#45;&gt;Node20 -->
<g id="edge19_Node000002_Node000020" class="edge">
<title>Node2&#45;&gt;Node20</title>
<g id="a_edge19_Node000002_Node000020"><a xlink:title=" ">
<path fill="none" stroke="#63b8ff" d="M1194.81,-71.67C1206.3,-69.68 1218.63,-67.78 1230.12,-66.5 1560.41,-29.72 1650.4,-75.31 1983.54,-30.51"/>
<polygon fill="#63b8ff" stroke="#63b8ff" points="1983.54,-34.05 1992.98,-29.23 1982.6,-27.11 1983.54,-34.05"/>
</a>
</g>
</g>
<!-- Node21 -->
<g id="Node000021" class="node">
<title>Node21</title>
<g id="a_Node000021"><a xlink:title=" ">
<polygon fill="#e0e0e0" stroke="#999999" points="2246.38,-30.5 2117.88,-30.5 2117.88,0 2246.38,0 2246.38,-30.5"/>
<text text-anchor="start" x="2125.88" y="-17" font-family="Helvetica,sans-Serif" font-size="10.00">google/protobuf/generated</text>
<text text-anchor="middle" x="2182.12" y="-5.75" font-family="Helvetica,sans-Serif" font-size="10.00">_enum_reflection.h</text>
</a>
</g>
</g>
<!-- Node2&#45;&gt;Node21 -->
<g id="edge20_Node000002_Node000021" class="edge">
<title>Node2&#45;&gt;Node21</title>
<g id="a_edge20_Node000002_Node000021"><a xlink:title=" ">
<path fill="none" stroke="#63b8ff" d="M1194.38,-71.69C1205.99,-69.67 1218.48,-67.76 1230.12,-66.5 1614.72,-24.97 1718.22,-74.59 2106.37,-30.55"/>
<polygon fill="#63b8ff" stroke="#63b8ff" points="2106.6,-34.05 2116.14,-29.43 2105.8,-27.09 2106.6,-34.05"/>
</a>
</g>
</g>
<!-- Node22 -->
<g id="Node000022" class="node">
<title>Node22</title>
<g id="a_Node000022"><a xlink:title=" ">
<polygon fill="#e0e0e0" stroke="#999999" points="2389.5,-30.5 2264.75,-30.5 2264.75,0 2389.5,0 2389.5,-30.5"/>
<text text-anchor="start" x="2272.75" y="-17" font-family="Helvetica,sans-Serif" font-size="10.00">google/protobuf/unknown</text>
<text text-anchor="middle" x="2327.12" y="-5.75" font-family="Helvetica,sans-Serif" font-size="10.00">_field_set.h</text>
</a>
</g>
</g>
<!-- Node2&#45;&gt;Node22 -->
<g id="edge21_Node000002_Node000022" class="edge">
<title>Node2&#45;&gt;Node22</title>
<g id="a_edge21_Node000002_Node000022"><a xlink:title=" ">
<path fill="none" stroke="#63b8ff" d="M1194.38,-71.64C1205.99,-69.62 1218.48,-67.72 1230.12,-66.5 1679.71,-19.29 1800.32,-81.86 2252.95,-30.59"/>
<polygon fill="#63b8ff" stroke="#63b8ff" points="2253.35,-34.07 2262.89,-29.45 2252.55,-27.12 2253.35,-34.07"/>
</a>
</g>
</g>
<!-- Node23 -->
<g id="Node000023" class="node">
<title>Node23</title>
<g id="a_Node000023"><a xlink:title=" ">
<polygon fill="#e0e0e0" stroke="#999999" points="504,-24.88 352.25,-24.88 352.25,-5.63 504,-5.63 504,-24.88"/>
<text text-anchor="middle" x="428.12" y="-11.38" font-family="Helvetica,sans-Serif" font-size="10.00">google/protobuf/timestamp.pb.h</text>
</a>
</g>
</g>
<!-- Node2&#45;&gt;Node23 -->
<g id="edge22_Node000002_Node000023" class="edge">
<title>Node2&#45;&gt;Node23</title>
<g id="a_edge22_Node000002_Node000023"><a xlink:title=" ">
<path fill="none" stroke="#63b8ff" d="M1081.93,-75.6C924.12,-63.48 541,-33.93 513.12,-30.5 505.35,-29.54 497.21,-28.38 489.16,-27.14"/>
<polygon fill="#63b8ff" stroke="#63b8ff" points="489.83,-23.7 479.4,-25.58 488.73,-30.62 489.83,-23.7"/>
</a>
</g>
</g>
</g>
</svg>
