<?xml version="1.0" encoding="UTF-8" standalone="no"?>
<!DOCTYPE svg PUBLIC "-//W3C//DTD SVG 1.1//EN"
 "http://www.w3.org/Graphics/SVG/1.1/DTD/svg11.dtd">
<!-- Generated by graphviz version 9.0.0 (20230911.1827)
 -->
<!-- Title: /github/workspace/dev_area/sourcecode/dbe/src/widgets/OracleWidget.cpp Pages: 1 -->
<svg width="923pt" height="326pt"
 viewBox="0.00 0.00 922.71 326.00" xmlns="http://www.w3.org/2000/svg" xmlns:xlink="http://www.w3.org/1999/xlink">
<g id="graph0" class="graph" transform="scale(1 1) rotate(0) translate(4 322)">
<title>/github/workspace/dev_area/sourcecode/dbe/src/widgets/OracleWidget.cpp</title>
<!-- Node1 -->
<g id="Node000001" class="node">
<title>Node1</title>
<g id="a_Node000001"><a xlink:title=" ">
<polygon fill="#999999" stroke="#666666" points="352.25,-318 203.5,-318 203.5,-276.25 352.25,-276.25 352.25,-318"/>
<text text-anchor="start" x="211.5" y="-304.5" font-family="Helvetica,sans-Serif" font-size="10.00">/github/workspace/dev</text>
<text text-anchor="start" x="211.5" y="-293.25" font-family="Helvetica,sans-Serif" font-size="10.00">_area/sourcecode/dbe</text>
<text text-anchor="middle" x="277.88" y="-282" font-family="Helvetica,sans-Serif" font-size="10.00">/src/widgets/OracleWidget.cpp</text>
</a>
</g>
</g>
<!-- Node2 -->
<g id="Node000002" class="node">
<title>Node2</title>
<g id="a_Node000002"><a xlink:title=" ">
<polygon fill="#e0e0e0" stroke="#999999" points="79.75,-240.25 0,-240.25 0,-221 79.75,-221 79.75,-240.25"/>
<text text-anchor="middle" x="39.88" y="-226.75" font-family="Helvetica,sans-Serif" font-size="10.00">QMessageBox</text>
</a>
</g>
</g>
<!-- Node1&#45;&gt;Node2 -->
<g id="edge1_Node000001_Node000002" class="edge">
<title>Node1&#45;&gt;Node2</title>
<g id="a_edge1_Node000001_Node000002"><a xlink:title=" ">
<path fill="none" stroke="#63b8ff" d="M203.22,-275.89C164.15,-265.31 117.64,-252.7 84.26,-243.65"/>
<polygon fill="#63b8ff" stroke="#63b8ff" points="85.5,-240.36 74.93,-241.13 83.67,-247.12 85.5,-240.36"/>
</a>
</g>
</g>
<!-- Node3 -->
<g id="Node000003" class="node">
<title>Node3</title>
<g id="a_Node000003"><a xlink:href="OracleWidget_8hpp.html" target="_top" xlink:title=" ">
<polygon fill="white" stroke="#666666" points="209.5,-240.25 98.25,-240.25 98.25,-221 209.5,-221 209.5,-240.25"/>
<text text-anchor="middle" x="153.88" y="-226.75" font-family="Helvetica,sans-Serif" font-size="10.00">dbe/OracleWidget.hpp</text>
</a>
</g>
</g>
<!-- Node1&#45;&gt;Node3 -->
<g id="edge2_Node000001_Node000003" class="edge">
<title>Node1&#45;&gt;Node3</title>
<g id="a_edge2_Node000001_Node000003"><a xlink:title=" ">
<path fill="none" stroke="#63b8ff" d="M238.98,-275.89C220.16,-266.1 198.02,-254.59 181.04,-245.76"/>
<polygon fill="#63b8ff" stroke="#63b8ff" points="183.04,-242.85 172.56,-241.34 179.81,-249.06 183.04,-242.85"/>
</a>
</g>
</g>
<!-- Node6 -->
<g id="Node000006" class="node">
<title>Node6</title>
<g id="a_Node000006"><a xlink:title=" ">
<polygon fill="#e0e0e0" stroke="#999999" points="592.25,-240.25 497.5,-240.25 497.5,-221 592.25,-221 592.25,-240.25"/>
<text text-anchor="middle" x="544.88" y="-226.75" font-family="Helvetica,sans-Serif" font-size="10.00">ui_OracleWidget.h</text>
</a>
</g>
</g>
<!-- Node1&#45;&gt;Node6 -->
<g id="edge5_Node000001_Node000006" class="edge">
<title>Node1&#45;&gt;Node6</title>
<g id="a_edge5_Node000001_Node000006"><a xlink:title=" ">
<path fill="none" stroke="#63b8ff" d="M352.6,-278.07C398.62,-266.96 456.27,-253.03 496.39,-243.34"/>
<polygon fill="#63b8ff" stroke="#63b8ff" points="497.1,-246.77 506,-241.02 495.45,-239.96 497.1,-246.77"/>
</a>
</g>
</g>
<!-- Node7 -->
<g id="Node000007" class="node">
<title>Node7</title>
<g id="a_Node000007"><a xlink:href="messenger_8hpp.html" target="_top" xlink:title=" ">
<polygon fill="white" stroke="#666666" points="479.25,-240.25 378.5,-240.25 378.5,-221 479.25,-221 479.25,-240.25"/>
<text text-anchor="middle" x="428.88" y="-226.75" font-family="Helvetica,sans-Serif" font-size="10.00">dbe/messenger.hpp</text>
</a>
</g>
</g>
<!-- Node1&#45;&gt;Node7 -->
<g id="edge6_Node000001_Node000007" class="edge">
<title>Node1&#45;&gt;Node7</title>
<g id="a_edge6_Node000001_Node000007"><a xlink:title=" ">
<path fill="none" stroke="#63b8ff" d="M325.24,-275.89C348.7,-265.87 376.39,-254.04 397.24,-245.14"/>
<polygon fill="#63b8ff" stroke="#63b8ff" points="398.55,-248.39 406.37,-241.24 395.8,-241.95 398.55,-248.39"/>
</a>
</g>
</g>
<!-- Node4 -->
<g id="Node000004" class="node">
<title>Node4</title>
<g id="a_Node000004"><a xlink:title=" ">
<polygon fill="#e0e0e0" stroke="#999999" points="204.12,-19.25 153.62,-19.25 153.62,0 204.12,0 204.12,-19.25"/>
<text text-anchor="middle" x="178.88" y="-5.75" font-family="Helvetica,sans-Serif" font-size="10.00">memory</text>
</a>
</g>
</g>
<!-- Node3&#45;&gt;Node4 -->
<g id="edge3_Node000003_Node000004" class="edge">
<title>Node3&#45;&gt;Node4</title>
<g id="a_edge3_Node000003_Node000004"><a xlink:title=" ">
<path fill="none" stroke="#63b8ff" d="M142.8,-220.7C133.61,-212.53 121.22,-199.52 115.88,-185 95.96,-130.88 89.39,-106.47 115.88,-55.25 122.56,-42.32 134.91,-32.33 146.92,-25.11"/>
<polygon fill="#63b8ff" stroke="#63b8ff" points="148.38,-28.3 155.46,-20.43 145.01,-22.17 148.38,-28.3"/>
</a>
</g>
</g>
<!-- Node5 -->
<g id="Node000005" class="node">
<title>Node5</title>
<g id="a_Node000005"><a xlink:title=" ">
<polygon fill="#e0e0e0" stroke="#999999" points="63.62,-185 10.12,-185 10.12,-165.75 63.62,-165.75 63.62,-185"/>
<text text-anchor="middle" x="36.88" y="-171.5" font-family="Helvetica,sans-Serif" font-size="10.00">QWidget</text>
</a>
</g>
</g>
<!-- Node3&#45;&gt;Node5 -->
<g id="edge4_Node000003_Node000005" class="edge">
<title>Node3&#45;&gt;Node5</title>
<g id="a_edge4_Node000003_Node000005"><a xlink:title=" ">
<path fill="none" stroke="#63b8ff" d="M134.03,-220.59C115.71,-212.25 88.23,-199.75 67.17,-190.16"/>
<polygon fill="#63b8ff" stroke="#63b8ff" points="68.75,-187.04 58.2,-186.08 65.85,-193.41 68.75,-187.04"/>
</a>
</g>
</g>
<!-- Node7&#45;&gt;Node4 -->
<g id="edge26_Node000007_Node000004" class="edge">
<title>Node7&#45;&gt;Node4</title>
<g id="a_edge26_Node000007_Node000004"><a xlink:title=" ">
<path fill="none" stroke="#63b8ff" d="M378,-228.85C311.51,-224.71 197.8,-206.13 148.88,-129.75 128.63,-98.15 150.39,-53.71 165.98,-29.01"/>
<polygon fill="#63b8ff" stroke="#63b8ff" points="168.87,-30.97 171.49,-20.71 163.04,-27.1 168.87,-30.97"/>
</a>
</g>
</g>
<!-- Node8 -->
<g id="Node000008" class="node">
<title>Node8</title>
<g id="a_Node000008"><a xlink:href="dbe_2include_2dbe_2macro_8hpp.html" target="_top" xlink:title=" ">
<polygon fill="white" stroke="#666666" points="895.75,-129.75 816,-129.75 816,-110.5 895.75,-110.5 895.75,-129.75"/>
<text text-anchor="middle" x="855.88" y="-116.25" font-family="Helvetica,sans-Serif" font-size="10.00">dbe/macro.hpp</text>
</a>
</g>
</g>
<!-- Node7&#45;&gt;Node8 -->
<g id="edge7_Node000007_Node000008" class="edge">
<title>Node7&#45;&gt;Node8</title>
<g id="a_edge7_Node000007_Node000008"><a xlink:title=" ">
<path fill="none" stroke="#63b8ff" d="M479.44,-220.84C524.24,-212.71 591.29,-199.69 648.88,-185 708.84,-169.71 777.23,-147.69 818.44,-133.9"/>
<polygon fill="#63b8ff" stroke="#63b8ff" points="819.52,-137.23 827.89,-130.73 817.29,-130.6 819.52,-137.23"/>
</a>
</g>
</g>
<!-- Node9 -->
<g id="Node000009" class="node">
<title>Node9</title>
<g id="a_Node000009"><a xlink:title=" ">
<polygon fill="#e0e0e0" stroke="#999999" points="890.88,-19.25 850.88,-19.25 850.88,0 890.88,0 890.88,-19.25"/>
<text text-anchor="middle" x="870.88" y="-5.75" font-family="Helvetica,sans-Serif" font-size="10.00">string</text>
</a>
</g>
</g>
<!-- Node7&#45;&gt;Node9 -->
<g id="edge25_Node000007_Node000009" class="edge">
<title>Node7&#45;&gt;Node9</title>
<g id="a_edge25_Node000007_Node000009"><a xlink:title=" ">
<path fill="none" stroke="#63b8ff" d="M479.71,-221.75C545.48,-211.46 656.41,-193.72 696.88,-185 790.38,-164.84 846.56,-205.57 904.88,-129.75 928.15,-99.48 902.79,-53.9 885.06,-28.81"/>
<polygon fill="#63b8ff" stroke="#63b8ff" points="887.97,-26.86 879.21,-20.91 882.35,-31.03 887.97,-26.86"/>
</a>
</g>
</g>
<!-- Node12 -->
<g id="Node000012" class="node">
<title>Node12</title>
<g id="a_Node000012"><a xlink:href="msghandler_8hpp.html" target="_top" xlink:title=" ">
<polygon fill="white" stroke="#666666" points="426.38,-185 323.38,-185 323.38,-165.75 426.38,-165.75 426.38,-185"/>
<text text-anchor="middle" x="374.88" y="-171.5" font-family="Helvetica,sans-Serif" font-size="10.00">dbe/msghandler.hpp</text>
</a>
</g>
</g>
<!-- Node7&#45;&gt;Node12 -->
<g id="edge13_Node000007_Node000012" class="edge">
<title>Node7&#45;&gt;Node12</title>
<g id="a_edge13_Node000007_Node000012"><a xlink:title=" ">
<path fill="none" stroke="#63b8ff" d="M419.96,-220.83C412.42,-213.4 401.41,-202.54 392.15,-193.41"/>
<polygon fill="#63b8ff" stroke="#63b8ff" points="394.64,-190.95 385.06,-186.42 389.73,-195.94 394.64,-190.95"/>
</a>
</g>
</g>
<!-- Node13 -->
<g id="Node000013" class="node">
<title>Node13</title>
<g id="a_Node000013"><a xlink:title=" ">
<polygon fill="#e0e0e0" stroke="#999999" points="200,-129.75 157.75,-129.75 157.75,-110.5 200,-110.5 200,-129.75"/>
<text text-anchor="middle" x="178.88" y="-116.25" font-family="Helvetica,sans-Serif" font-size="10.00">mutex</text>
</a>
</g>
</g>
<!-- Node7&#45;&gt;Node13 -->
<g id="edge27_Node000007_Node000013" class="edge">
<title>Node7&#45;&gt;Node13</title>
<g id="a_edge27_Node000007_Node000013"><a xlink:title=" ">
<path fill="none" stroke="#63b8ff" d="M403.99,-220.56C380.56,-211.88 344.57,-198.2 313.88,-185 276.61,-168.98 234.47,-148.68 207.34,-135.32"/>
<polygon fill="#63b8ff" stroke="#63b8ff" points="208.9,-132.19 198.38,-130.89 205.8,-138.47 208.9,-132.19"/>
</a>
</g>
</g>
<!-- Node22 -->
<g id="Node000022" class="node">
<title>Node22</title>
<g id="a_Node000022"><a xlink:title=" ">
<polygon fill="#e0e0e0" stroke="#999999" points="521.62,-185 444.12,-185 444.12,-165.75 521.62,-165.75 521.62,-185"/>
<text text-anchor="middle" x="482.88" y="-171.5" font-family="Helvetica,sans-Serif" font-size="10.00">unordered_set</text>
</a>
</g>
</g>
<!-- Node7&#45;&gt;Node22 -->
<g id="edge28_Node000007_Node000022" class="edge">
<title>Node7&#45;&gt;Node22</title>
<g id="a_edge28_Node000007_Node000022"><a xlink:title=" ">
<path fill="none" stroke="#63b8ff" d="M437.79,-220.83C445.33,-213.4 456.34,-202.54 465.6,-193.41"/>
<polygon fill="#63b8ff" stroke="#63b8ff" points="468.02,-195.94 472.69,-186.42 463.11,-190.95 468.02,-195.94"/>
</a>
</g>
</g>
<!-- Node23 -->
<g id="Node000023" class="node">
<title>Node23</title>
<g id="a_Node000023"><a xlink:title=" ">
<polygon fill="#e0e0e0" stroke="#999999" points="576.38,-185 539.38,-185 539.38,-165.75 576.38,-165.75 576.38,-185"/>
<text text-anchor="middle" x="557.88" y="-171.5" font-family="Helvetica,sans-Serif" font-size="10.00">array</text>
</a>
</g>
</g>
<!-- Node7&#45;&gt;Node23 -->
<g id="edge29_Node000007_Node000023" class="edge">
<title>Node7&#45;&gt;Node23</title>
<g id="a_edge29_Node000007_Node000023"><a xlink:title=" ">
<path fill="none" stroke="#63b8ff" d="M450.76,-220.59C472.23,-211.73 505.1,-198.16 528.77,-188.39"/>
<polygon fill="#63b8ff" stroke="#63b8ff" points="529.93,-191.7 537.84,-184.64 527.26,-185.23 529.93,-191.7"/>
</a>
</g>
</g>
<!-- Node24 -->
<g id="Node000024" class="node">
<title>Node24</title>
<g id="a_Node000024"><a xlink:title=" ">
<polygon fill="#e0e0e0" stroke="#999999" points="639.5,-185 594.25,-185 594.25,-165.75 639.5,-165.75 639.5,-185"/>
<text text-anchor="middle" x="616.88" y="-171.5" font-family="Helvetica,sans-Serif" font-size="10.00">atomic</text>
</a>
</g>
</g>
<!-- Node7&#45;&gt;Node24 -->
<g id="edge30_Node000007_Node000024" class="edge">
<title>Node7&#45;&gt;Node24</title>
<g id="a_edge30_Node000007_Node000024"><a xlink:title=" ">
<path fill="none" stroke="#63b8ff" d="M460.77,-220.59C494.74,-210.97 548.32,-195.79 583.03,-185.96"/>
<polygon fill="#63b8ff" stroke="#63b8ff" points="583.89,-189.35 592.56,-183.26 581.99,-182.62 583.89,-189.35"/>
</a>
</g>
</g>
<!-- Node8&#45;&gt;Node9 -->
<g id="edge8_Node000008_Node000009" class="edge">
<title>Node8&#45;&gt;Node9</title>
<g id="a_edge8_Node000008_Node000009"><a xlink:title=" ">
<path fill="none" stroke="#63b8ff" d="M857.1,-110.25C859.49,-93 864.8,-54.58 868.08,-30.81"/>
<polygon fill="#63b8ff" stroke="#63b8ff" points="871.52,-31.51 869.42,-21.13 864.59,-30.55 871.52,-31.51"/>
</a>
</g>
</g>
<!-- Node10 -->
<g id="Node000010" class="node">
<title>Node10</title>
<g id="a_Node000010"><a xlink:href="convenience_8hpp.html" target="_top" xlink:title=" ">
<polygon fill="white" stroke="#666666" points="842.62,-74.5 735.12,-74.5 735.12,-55.25 842.62,-55.25 842.62,-74.5"/>
<text text-anchor="middle" x="788.88" y="-61" font-family="Helvetica,sans-Serif" font-size="10.00">dbe/convenience.hpp</text>
</a>
</g>
</g>
<!-- Node8&#45;&gt;Node10 -->
<g id="edge9_Node000008_Node000010" class="edge">
<title>Node8&#45;&gt;Node10</title>
<g id="a_edge9_Node000008_Node000010"><a xlink:title=" ">
<path fill="none" stroke="#63b8ff" d="M844.51,-110.09C834.83,-102.4 820.68,-91.15 809.07,-81.93"/>
<polygon fill="#63b8ff" stroke="#63b8ff" points="811.26,-79.2 801.26,-75.72 806.91,-84.68 811.26,-79.2"/>
</a>
</g>
</g>
<!-- Node10&#45;&gt;Node4 -->
<g id="edge10_Node000010_Node000004" class="edge">
<title>Node10&#45;&gt;Node4</title>
<g id="a_edge10_Node000010_Node000004"><a xlink:title=" ">
<path fill="none" stroke="#63b8ff" d="M734.74,-59.15C612.87,-48.51 319.56,-22.91 215.92,-13.86"/>
<polygon fill="#63b8ff" stroke="#63b8ff" points="216.29,-10.38 206.03,-13 215.68,-17.35 216.29,-10.38"/>
</a>
</g>
</g>
<!-- Node10&#45;&gt;Node9 -->
<g id="edge11_Node000010_Node000009" class="edge">
<title>Node10&#45;&gt;Node9</title>
<g id="a_edge11_Node000010_Node000009"><a xlink:title=" ">
<path fill="none" stroke="#63b8ff" d="M802.79,-54.84C815.04,-46.89 833.13,-35.14 847.59,-25.75"/>
<polygon fill="#63b8ff" stroke="#63b8ff" points="849.15,-28.91 855.63,-20.53 845.33,-23.04 849.15,-28.91"/>
</a>
</g>
</g>
<!-- Node11 -->
<g id="Node000011" class="node">
<title>Node11</title>
<g id="a_Node000011"><a xlink:title=" ">
<polygon fill="#e0e0e0" stroke="#999999" points="813.75,-19.25 764,-19.25 764,0 813.75,0 813.75,-19.25"/>
<text text-anchor="middle" x="788.88" y="-5.75" font-family="Helvetica,sans-Serif" font-size="10.00">typeinfo</text>
</a>
</g>
</g>
<!-- Node10&#45;&gt;Node11 -->
<g id="edge12_Node000010_Node000011" class="edge">
<title>Node10&#45;&gt;Node11</title>
<g id="a_edge12_Node000010_Node000011"><a xlink:title=" ">
<path fill="none" stroke="#63b8ff" d="M788.88,-55.08C788.88,-48.57 788.88,-39.42 788.88,-31.12"/>
<polygon fill="#63b8ff" stroke="#63b8ff" points="792.38,-31.12 788.88,-21.12 785.38,-31.12 792.38,-31.12"/>
</a>
</g>
</g>
<!-- Node12&#45;&gt;Node4 -->
<g id="edge14_Node000012_Node000004" class="edge">
<title>Node12&#45;&gt;Node4</title>
<g id="a_edge14_Node000012_Node000004"><a xlink:title=" ">
<path fill="none" stroke="#63b8ff" d="M323.27,-165.26C298.07,-158.74 268.59,-147.81 246.88,-129.75 214.63,-102.93 194.57,-56.64 185.19,-30.35"/>
<polygon fill="#63b8ff" stroke="#63b8ff" points="188.53,-29.31 182.01,-20.96 181.9,-31.56 188.53,-29.31"/>
</a>
</g>
</g>
<!-- Node12&#45;&gt;Node8 -->
<g id="edge22_Node000012_Node000008" class="edge">
<title>Node12&#45;&gt;Node8</title>
<g id="a_edge22_Node000012_Node000008"><a xlink:title=" ">
<path fill="none" stroke="#63b8ff" d="M426.57,-166.79C429.37,-166.43 432.16,-166.08 434.88,-165.75 596.25,-146.35 640.41,-151.91 804.55,-129.97"/>
<polygon fill="#63b8ff" stroke="#63b8ff" points="804.6,-133.49 814.04,-128.68 803.66,-126.56 804.6,-133.49"/>
</a>
</g>
</g>
<!-- Node12&#45;&gt;Node13 -->
<g id="edge15_Node000012_Node000013" class="edge">
<title>Node12&#45;&gt;Node13</title>
<g id="a_edge15_Node000012_Node000013"><a xlink:title=" ">
<path fill="none" stroke="#63b8ff" d="M341.63,-165.34C305.26,-155.46 247.36,-139.73 211.32,-129.94"/>
<polygon fill="#63b8ff" stroke="#63b8ff" points="212.47,-126.62 201.9,-127.38 210.63,-133.38 212.47,-126.62"/>
</a>
</g>
</g>
<!-- Node14 -->
<g id="Node000014" class="node">
<title>Node14</title>
<g id="a_Node000014"><a xlink:title=" ">
<polygon fill="#e0e0e0" stroke="#999999" points="685.38,-129.75 642.38,-129.75 642.38,-110.5 685.38,-110.5 685.38,-129.75"/>
<text text-anchor="middle" x="663.88" y="-116.25" font-family="Helvetica,sans-Serif" font-size="10.00">thread</text>
</a>
</g>
</g>
<!-- Node12&#45;&gt;Node14 -->
<g id="edge16_Node000012_Node000014" class="edge">
<title>Node12&#45;&gt;Node14</title>
<g id="a_edge16_Node000012_Node000014"><a xlink:title=" ">
<path fill="none" stroke="#63b8ff" d="M426.77,-166.12C486.03,-156.59 580.48,-141.03 631.02,-130.16"/>
<polygon fill="#63b8ff" stroke="#63b8ff" points="631.52,-133.64 640.51,-128.05 629.99,-126.81 631.52,-133.64"/>
</a>
</g>
</g>
<!-- Node15 -->
<g id="Node000015" class="node">
<title>Node15</title>
<g id="a_Node000015"><a xlink:title=" ">
<polygon fill="#e0e0e0" stroke="#999999" points="797.88,-129.75 703.88,-129.75 703.88,-110.5 797.88,-110.5 797.88,-129.75"/>
<text text-anchor="middle" x="750.88" y="-116.25" font-family="Helvetica,sans-Serif" font-size="10.00">condition_variable</text>
</a>
</g>
</g>
<!-- Node12&#45;&gt;Node15 -->
<g id="edge17_Node000012_Node000015" class="edge">
<title>Node12&#45;&gt;Node15</title>
<g id="a_edge17_Node000012_Node000015"><a xlink:title=" ">
<path fill="none" stroke="#63b8ff" d="M426.58,-166.92C429.39,-166.53 432.17,-166.13 434.88,-165.75 546.78,-149.96 577.54,-146.82 692.17,-130.13"/>
<polygon fill="#63b8ff" stroke="#63b8ff" points="692.64,-133.6 702.03,-128.69 691.63,-126.67 692.64,-133.6"/>
</a>
</g>
</g>
<!-- Node16 -->
<g id="Node000016" class="node">
<title>Node16</title>
<g id="a_Node000016"><a xlink:title=" ">
<polygon fill="#e0e0e0" stroke="#999999" points="298,-129.75 255.75,-129.75 255.75,-110.5 298,-110.5 298,-129.75"/>
<text text-anchor="middle" x="276.88" y="-116.25" font-family="Helvetica,sans-Serif" font-size="10.00">queue</text>
</a>
</g>
</g>
<!-- Node12&#45;&gt;Node16 -->
<g id="edge18_Node000012_Node000016" class="edge">
<title>Node12&#45;&gt;Node16</title>
<g id="a_edge18_Node000012_Node000016"><a xlink:title=" ">
<path fill="none" stroke="#63b8ff" d="M358.25,-165.34C343.19,-157.16 320.73,-144.96 303.22,-135.44"/>
<polygon fill="#63b8ff" stroke="#63b8ff" points="305.37,-132.62 294.91,-130.93 302.03,-138.77 305.37,-132.62"/>
</a>
</g>
</g>
<!-- Node17 -->
<g id="Node000017" class="node">
<title>Node17</title>
<g id="a_Node000017"><a xlink:title=" ">
<polygon fill="#e0e0e0" stroke="#999999" points="365.38,-129.75 316.38,-129.75 316.38,-110.5 365.38,-110.5 365.38,-129.75"/>
<text text-anchor="middle" x="340.88" y="-116.25" font-family="Helvetica,sans-Serif" font-size="10.00">fstream</text>
</a>
</g>
</g>
<!-- Node12&#45;&gt;Node17 -->
<g id="edge19_Node000012_Node000017" class="edge">
<title>Node12&#45;&gt;Node17</title>
<g id="a_edge19_Node000012_Node000017"><a xlink:title=" ">
<path fill="none" stroke="#63b8ff" d="M369.26,-165.58C364.76,-158.53 358.29,-148.4 352.66,-139.58"/>
<polygon fill="#63b8ff" stroke="#63b8ff" points="355.76,-137.93 347.43,-131.38 349.86,-141.7 355.76,-137.93"/>
</a>
</g>
</g>
<!-- Node18 -->
<g id="Node000018" class="node">
<title>Node18</title>
<g id="a_Node000018"><a xlink:title=" ">
<polygon fill="#e0e0e0" stroke="#999999" points="436.62,-129.75 383.12,-129.75 383.12,-110.5 436.62,-110.5 436.62,-129.75"/>
<text text-anchor="middle" x="409.88" y="-116.25" font-family="Helvetica,sans-Serif" font-size="10.00">iostream</text>
</a>
</g>
</g>
<!-- Node12&#45;&gt;Node18 -->
<g id="edge20_Node000012_Node000018" class="edge">
<title>Node12&#45;&gt;Node18</title>
<g id="a_edge20_Node000012_Node000018"><a xlink:title=" ">
<path fill="none" stroke="#63b8ff" d="M380.65,-165.58C385.29,-158.53 391.95,-148.4 397.74,-139.58"/>
<polygon fill="#63b8ff" stroke="#63b8ff" points="400.57,-141.65 403.14,-131.37 394.72,-137.81 400.57,-141.65"/>
</a>
</g>
</g>
<!-- Node19 -->
<g id="Node000019" class="node">
<title>Node19</title>
<g id="a_Node000019"><a xlink:title=" ">
<polygon fill="#e0e0e0" stroke="#999999" points="497.38,-129.75 454.38,-129.75 454.38,-110.5 497.38,-110.5 497.38,-129.75"/>
<text text-anchor="middle" x="475.88" y="-116.25" font-family="Helvetica,sans-Serif" font-size="10.00">vector</text>
</a>
</g>
</g>
<!-- Node12&#45;&gt;Node19 -->
<g id="edge21_Node000012_Node000019" class="edge">
<title>Node12&#45;&gt;Node19</title>
<g id="a_edge21_Node000012_Node000019"><a xlink:title=" ">
<path fill="none" stroke="#63b8ff" d="M392.01,-165.34C407.53,-157.16 430.68,-144.96 448.72,-135.44"/>
<polygon fill="#63b8ff" stroke="#63b8ff" points="450.11,-138.67 457.32,-130.91 446.84,-132.48 450.11,-138.67"/>
</a>
</g>
</g>
<!-- Node20 -->
<g id="Node000020" class="node">
<title>Node20</title>
<g id="a_Node000020"><a xlink:href="msghandler_8hxx.html" target="_top" xlink:title=" ">
<polygon fill="white" stroke="#666666" points="624.38,-129.75 515.38,-129.75 515.38,-110.5 624.38,-110.5 624.38,-129.75"/>
<text text-anchor="middle" x="569.88" y="-116.25" font-family="Helvetica,sans-Serif" font-size="10.00">detail/msghandler.hxx</text>
</a>
</g>
</g>
<!-- Node12&#45;&gt;Node20 -->
<g id="edge23_Node000012_Node000020" class="edge">
<title>Node12&#45;&gt;Node20</title>
<g id="a_edge23_Node000012_Node000020"><a xlink:title=" ">
<path fill="none" stroke="#63b8ff" d="M407.95,-165.34C440.31,-156.51 489.8,-142.99 525.55,-133.23"/>
<polygon fill="#63b8ff" stroke="#63b8ff" points="526.45,-136.61 535.17,-130.6 524.6,-129.86 526.45,-136.61"/>
</a>
</g>
</g>
<!-- Node21 -->
<g id="Node000021" class="node">
<title>Node21</title>
<g id="a_Node000021"><a xlink:title=" ">
<polygon fill="#e0e0e0" stroke="#999999" points="597.75,-74.5 542,-74.5 542,-55.25 597.75,-55.25 597.75,-74.5"/>
<text text-anchor="middle" x="569.88" y="-61" font-family="Helvetica,sans-Serif" font-size="10.00">algorithm</text>
</a>
</g>
</g>
<!-- Node20&#45;&gt;Node21 -->
<g id="edge24_Node000020_Node000021" class="edge">
<title>Node20&#45;&gt;Node21</title>
<g id="a_edge24_Node000020_Node000021"><a xlink:title=" ">
<path fill="none" stroke="#63b8ff" d="M569.88,-110.33C569.88,-103.82 569.88,-94.67 569.88,-86.37"/>
<polygon fill="#63b8ff" stroke="#63b8ff" points="573.38,-86.37 569.88,-76.37 566.38,-86.37 573.38,-86.37"/>
</a>
</g>
</g>
</g>
</svg>
