<?xml version="1.0" encoding="UTF-8" standalone="no"?>
<!DOCTYPE svg PUBLIC "-//W3C//DTD SVG 1.1//EN"
 "http://www.w3.org/Graphics/SVG/1.1/DTD/svg11.dtd">
<!-- Generated by graphviz version 9.0.0 (20230911.1827)
 -->
<!-- Title: /github/workspace/dev_area/sourcecode/oksdalgen/apps/parse_cmdl.cpp Pages: 1 -->
<svg width="292pt" height="105pt"
 viewBox="0.00 0.00 291.65 105.00" xmlns="http://www.w3.org/2000/svg" xmlns:xlink="http://www.w3.org/1999/xlink">
<g id="graph0" class="graph" transform="scale(1 1) rotate(0) translate(4 101)">
<title>/github/workspace/dev_area/sourcecode/oksdalgen/apps/parse_cmdl.cpp</title>
<!-- Node1 -->
<g id="Node000001" class="node">
<title>Node1</title>
<g id="a_Node000001"><a xlink:title=" ">
<polygon fill="#999999" stroke="#666666" points="222.5,-97 82,-97 82,-55.25 222.5,-55.25 222.5,-97"/>
<text text-anchor="start" x="90" y="-83.5" font-family="Helvetica,sans-Serif" font-size="10.00">/github/workspace/dev</text>
<text text-anchor="start" x="90" y="-72.25" font-family="Helvetica,sans-Serif" font-size="10.00">_area/sourcecode/oksdalgen</text>
<text text-anchor="middle" x="152.25" y="-61" font-family="Helvetica,sans-Serif" font-size="10.00">/apps/parse_cmdl.cpp</text>
</a>
</g>
</g>
<!-- Node2 -->
<g id="Node000002" class="node">
<title>Node2</title>
<g id="a_Node000002"><a xlink:title=" ">
<polygon fill="#e0e0e0" stroke="#999999" points="44.5,-19.25 0,-19.25 0,0 44.5,0 44.5,-19.25"/>
<text text-anchor="middle" x="22.25" y="-5.75" font-family="Helvetica,sans-Serif" font-size="10.00">cstdlib</text>
</a>
</g>
</g>
<!-- Node1&#45;&gt;Node2 -->
<g id="edge1_Node000001_Node000002" class="edge">
<title>Node1&#45;&gt;Node2</title>
<g id="a_edge1_Node000001_Node000002"><a xlink:title=" ">
<path fill="none" stroke="#63b8ff" d="M111.47,-54.89C91.74,-45.1 68.53,-33.59 50.73,-24.76"/>
<polygon fill="#63b8ff" stroke="#63b8ff" points="52.3,-21.63 41.78,-20.32 49.19,-27.9 52.3,-21.63"/>
</a>
</g>
</g>
<!-- Node3 -->
<g id="Node000003" class="node">
<title>Node3</title>
<g id="a_Node000003"><a xlink:title=" ">
<polygon fill="#e0e0e0" stroke="#999999" points="107.88,-19.25 62.62,-19.25 62.62,0 107.88,0 107.88,-19.25"/>
<text text-anchor="middle" x="85.25" y="-5.75" font-family="Helvetica,sans-Serif" font-size="10.00">cstring</text>
</a>
</g>
</g>
<!-- Node1&#45;&gt;Node3 -->
<g id="edge2_Node000001_Node000003" class="edge">
<title>Node1&#45;&gt;Node3</title>
<g id="a_edge2_Node000001_Node000003"><a xlink:title=" ">
<path fill="none" stroke="#63b8ff" d="M131.42,-55.07C122.29,-46.29 111.7,-36.09 102.96,-27.68"/>
<polygon fill="#63b8ff" stroke="#63b8ff" points="105.39,-25.16 95.76,-20.75 100.54,-30.2 105.39,-25.16"/>
</a>
</g>
</g>
<!-- Node4 -->
<g id="Node000004" class="node">
<title>Node4</title>
<g id="a_Node000004"><a xlink:title=" ">
<polygon fill="#e0e0e0" stroke="#999999" points="179,-19.25 125.5,-19.25 125.5,0 179,0 179,-19.25"/>
<text text-anchor="middle" x="152.25" y="-5.75" font-family="Helvetica,sans-Serif" font-size="10.00">iostream</text>
</a>
</g>
</g>
<!-- Node1&#45;&gt;Node4 -->
<g id="edge3_Node000001_Node000004" class="edge">
<title>Node1&#45;&gt;Node4</title>
<g id="a_edge3_Node000001_Node000004"><a xlink:title=" ">
<path fill="none" stroke="#63b8ff" d="M152.25,-55.07C152.25,-47.4 152.25,-38.64 152.25,-30.95"/>
<polygon fill="#63b8ff" stroke="#63b8ff" points="155.75,-31.21 152.25,-21.21 148.75,-31.21 155.75,-31.21"/>
</a>
</g>
</g>
<!-- Node5 -->
<g id="Node000005" class="node">
<title>Node5</title>
<g id="a_Node000005"><a xlink:title=" ">
<polygon fill="#e0e0e0" stroke="#999999" points="237.25,-19.25 197.25,-19.25 197.25,0 237.25,0 237.25,-19.25"/>
<text text-anchor="middle" x="217.25" y="-5.75" font-family="Helvetica,sans-Serif" font-size="10.00">string</text>
</a>
</g>
</g>
<!-- Node1&#45;&gt;Node5 -->
<g id="edge4_Node000001_Node000005" class="edge">
<title>Node1&#45;&gt;Node5</title>
<g id="a_edge4_Node000001_Node000005"><a xlink:title=" ">
<path fill="none" stroke="#63b8ff" d="M172.46,-55.07C181.31,-46.29 191.59,-36.09 200.06,-27.68"/>
<polygon fill="#63b8ff" stroke="#63b8ff" points="202.4,-30.29 207.03,-20.76 197.47,-25.32 202.4,-30.29"/>
</a>
</g>
</g>
<!-- Node6 -->
<g id="Node000006" class="node">
<title>Node6</title>
<g id="a_Node000006"><a xlink:title=" ">
<polygon fill="#e0e0e0" stroke="#999999" points="283.65,-19.25 254.85,-19.25 254.85,0 283.65,0 283.65,-19.25"/>
<text text-anchor="middle" x="269.25" y="-5.75" font-family="Helvetica,sans-Serif" font-size="10.00">list</text>
</a>
</g>
</g>
<!-- Node1&#45;&gt;Node6 -->
<g id="edge5_Node000001_Node000006" class="edge">
<title>Node1&#45;&gt;Node6</title>
<g id="a_edge5_Node000001_Node000006"><a xlink:title=" ">
<path fill="none" stroke="#63b8ff" d="M188.95,-54.89C207.09,-44.89 228.5,-33.09 244.64,-24.19"/>
<polygon fill="#63b8ff" stroke="#63b8ff" points="246.01,-27.43 253.08,-19.54 242.63,-21.3 246.01,-27.43"/>
</a>
</g>
</g>
</g>
</svg>
