<?xml version="1.0" encoding="UTF-8" standalone="no"?>
<!DOCTYPE svg PUBLIC "-//W3C//DTD SVG 1.1//EN"
 "http://www.w3.org/Graphics/SVG/1.1/DTD/svg11.dtd">
<!-- Generated by graphviz version 9.0.0 (20230911.1827)
 -->
<!-- Title: /github/workspace/dev_area/sourcecode/oks/src/pipeline.cpp Pages: 1 -->
<svg width="508pt" height="160pt"
 viewBox="0.00 0.00 508.12 160.25" xmlns="http://www.w3.org/2000/svg" xmlns:xlink="http://www.w3.org/1999/xlink">
<g id="graph0" class="graph" transform="scale(1 1) rotate(0) translate(4 156.25)">
<title>/github/workspace/dev_area/sourcecode/oks/src/pipeline.cpp</title>
<!-- Node1 -->
<g id="Node000001" class="node">
<title>Node1</title>
<g id="a_Node000001"><a xlink:title=" ">
<polygon fill="#999999" stroke="#666666" points="419.12,-152.25 304.88,-152.25 304.88,-110.5 419.12,-110.5 419.12,-152.25"/>
<text text-anchor="start" x="312.88" y="-138.75" font-family="Helvetica,sans-Serif" font-size="10.00">/github/workspace/dev</text>
<text text-anchor="start" x="312.88" y="-127.5" font-family="Helvetica,sans-Serif" font-size="10.00">_area/sourcecode/oks</text>
<text text-anchor="middle" x="362" y="-116.25" font-family="Helvetica,sans-Serif" font-size="10.00">/src/pipeline.cpp</text>
</a>
</g>
</g>
<!-- Node2 -->
<g id="Node000002" class="node">
<title>Node2</title>
<g id="a_Node000002"><a xlink:href="pipeline_8hpp.html" target="_top" xlink:title=" ">
<polygon fill="white" stroke="#666666" points="349.88,-74.5 264.12,-74.5 264.12,-55.25 349.88,-55.25 349.88,-74.5"/>
<text text-anchor="middle" x="307" y="-61" font-family="Helvetica,sans-Serif" font-size="10.00">oks/pipeline.hpp</text>
</a>
</g>
</g>
<!-- Node1&#45;&gt;Node2 -->
<g id="edge1_Node000001_Node000002" class="edge">
<title>Node1&#45;&gt;Node2</title>
<g id="a_edge1_Node000001_Node000002"><a xlink:title=" ">
<path fill="none" stroke="#63b8ff" d="M344.9,-110.32C337.57,-101.72 329.08,-91.77 322,-83.46"/>
<polygon fill="#63b8ff" stroke="#63b8ff" points="324.87,-81.44 315.72,-76.1 319.54,-85.98 324.87,-81.44"/>
</a>
</g>
</g>
<!-- Node8 -->
<g id="Node000008" class="node">
<title>Node8</title>
<g id="a_Node000008"><a xlink:title=" ">
<polygon fill="#e0e0e0" stroke="#999999" points="468,-74.5 368,-74.5 368,-55.25 468,-55.25 468,-74.5"/>
<text text-anchor="middle" x="418" y="-61" font-family="Helvetica,sans-Serif" font-size="10.00">boost/bind/bind.hpp</text>
</a>
</g>
</g>
<!-- Node1&#45;&gt;Node8 -->
<g id="edge7_Node000001_Node000008" class="edge">
<title>Node1&#45;&gt;Node8</title>
<g id="a_edge7_Node000001_Node000008"><a xlink:title=" ">
<path fill="none" stroke="#63b8ff" d="M379.41,-110.32C386.88,-101.72 395.52,-91.77 402.73,-83.46"/>
<polygon fill="#63b8ff" stroke="#63b8ff" points="405.22,-85.93 409.13,-76.09 399.93,-81.34 405.22,-85.93"/>
</a>
</g>
</g>
<!-- Node3 -->
<g id="Node000003" class="node">
<title>Node3</title>
<g id="a_Node000003"><a xlink:title=" ">
<polygon fill="#e0e0e0" stroke="#999999" points="88,-19.25 0,-19.25 0,0 88,0 88,-19.25"/>
<text text-anchor="middle" x="44" y="-5.75" font-family="Helvetica,sans-Serif" font-size="10.00">boost/thread.hpp</text>
</a>
</g>
</g>
<!-- Node2&#45;&gt;Node3 -->
<g id="edge2_Node000002_Node000003" class="edge">
<title>Node2&#45;&gt;Node3</title>
<g id="a_edge2_Node000002_Node000003"><a xlink:title=" ">
<path fill="none" stroke="#63b8ff" d="M263.87,-55.14C218.98,-46.05 148.53,-31.79 99.52,-21.87"/>
<polygon fill="#63b8ff" stroke="#63b8ff" points="100.46,-18.48 89.96,-19.93 99.07,-25.35 100.46,-18.48"/>
</a>
</g>
</g>
<!-- Node4 -->
<g id="Node000004" class="node">
<title>Node4</title>
<g id="a_Node000004"><a xlink:title=" ">
<polygon fill="#e0e0e0" stroke="#999999" points="224,-19.25 106,-19.25 106,0 224,0 224,-19.25"/>
<text text-anchor="middle" x="165" y="-5.75" font-family="Helvetica,sans-Serif" font-size="10.00">boost/thread/barrier.hpp</text>
</a>
</g>
</g>
<!-- Node2&#45;&gt;Node4 -->
<g id="edge3_Node000002_Node000004" class="edge">
<title>Node2&#45;&gt;Node4</title>
<g id="a_edge3_Node000002_Node000004"><a xlink:title=" ">
<path fill="none" stroke="#63b8ff" d="M282.91,-54.84C260.06,-46.27 225.48,-33.31 199.67,-23.63"/>
<polygon fill="#63b8ff" stroke="#63b8ff" points="201.22,-20.47 190.62,-20.23 198.76,-27.02 201.22,-20.47"/>
</a>
</g>
</g>
<!-- Node5 -->
<g id="Node000005" class="node">
<title>Node5</title>
<g id="a_Node000005"><a xlink:title=" ">
<polygon fill="#e0e0e0" stroke="#999999" points="372,-19.25 242,-19.25 242,0 372,0 372,-19.25"/>
<text text-anchor="middle" x="307" y="-5.75" font-family="Helvetica,sans-Serif" font-size="10.00">boost/thread/condition.hpp</text>
</a>
</g>
</g>
<!-- Node2&#45;&gt;Node5 -->
<g id="edge4_Node000002_Node000005" class="edge">
<title>Node2&#45;&gt;Node5</title>
<g id="a_edge4_Node000002_Node000005"><a xlink:title=" ">
<path fill="none" stroke="#63b8ff" d="M307,-55.08C307,-48.57 307,-39.42 307,-31.12"/>
<polygon fill="#63b8ff" stroke="#63b8ff" points="310.5,-31.12 307,-21.12 303.5,-31.12 310.5,-31.12"/>
</a>
</g>
</g>
<!-- Node6 -->
<g id="Node000006" class="node">
<title>Node6</title>
<g id="a_Node000006"><a xlink:title=" ">
<polygon fill="#e0e0e0" stroke="#999999" points="440.25,-19.25 389.75,-19.25 389.75,0 440.25,0 440.25,-19.25"/>
<text text-anchor="middle" x="415" y="-5.75" font-family="Helvetica,sans-Serif" font-size="10.00">memory</text>
</a>
</g>
</g>
<!-- Node2&#45;&gt;Node6 -->
<g id="edge5_Node000002_Node000006" class="edge">
<title>Node2&#45;&gt;Node6</title>
<g id="a_edge5_Node000002_Node000006"><a xlink:title=" ">
<path fill="none" stroke="#63b8ff" d="M325.32,-54.84C342.08,-46.58 367.13,-34.23 386.5,-24.68"/>
<polygon fill="#63b8ff" stroke="#63b8ff" points="387.81,-27.93 395.23,-20.37 384.72,-21.65 387.81,-27.93"/>
</a>
</g>
</g>
<!-- Node7 -->
<g id="Node000007" class="node">
<title>Node7</title>
<g id="a_Node000007"><a xlink:title=" ">
<polygon fill="#e0e0e0" stroke="#999999" points="500.12,-19.25 457.88,-19.25 457.88,0 500.12,0 500.12,-19.25"/>
<text text-anchor="middle" x="479" y="-5.75" font-family="Helvetica,sans-Serif" font-size="10.00">queue</text>
</a>
</g>
</g>
<!-- Node2&#45;&gt;Node7 -->
<g id="edge6_Node000002_Node000007" class="edge">
<title>Node2&#45;&gt;Node7</title>
<g id="a_edge6_Node000002_Node000007"><a xlink:title=" ">
<path fill="none" stroke="#63b8ff" d="M336.18,-54.84C366.82,-45.35 414.89,-30.47 446.67,-20.63"/>
<polygon fill="#63b8ff" stroke="#63b8ff" points="447.62,-24.01 456.13,-17.7 445.55,-17.32 447.62,-24.01"/>
</a>
</g>
</g>
</g>
</svg>
