<?xml version="1.0" encoding="UTF-8" standalone="no"?>
<!DOCTYPE svg PUBLIC "-//W3C//DTD SVG 1.1//EN"
 "http://www.w3.org/Graphics/SVG/1.1/DTD/svg11.dtd">
<!-- Generated by graphviz version 9.0.0 (20230911.1827)
 -->
<!-- Title: /github/workspace/dev_area/sourcecode/oks/include/oks/pipeline.hpp Pages: 1 -->
<svg width="508pt" height="105pt"
 viewBox="0.00 0.00 508.12 105.00" xmlns="http://www.w3.org/2000/svg" xmlns:xlink="http://www.w3.org/1999/xlink">
<g id="graph0" class="graph" transform="scale(1 1) rotate(0) translate(4 101)">
<title>/github/workspace/dev_area/sourcecode/oks/include/oks/pipeline.hpp</title>
<!-- Node1 -->
<g id="Node000001" class="node">
<title>Node1</title>
<g id="a_Node000001"><a xlink:title=" ">
<polygon fill="#999999" stroke="#666666" points="368.25,-97 245.75,-97 245.75,-55.25 368.25,-55.25 368.25,-97"/>
<text text-anchor="start" x="253.75" y="-83.5" font-family="Helvetica,sans-Serif" font-size="10.00">/github/workspace/dev</text>
<text text-anchor="start" x="253.75" y="-72.25" font-family="Helvetica,sans-Serif" font-size="10.00">_area/sourcecode/oks</text>
<text text-anchor="middle" x="307" y="-61" font-family="Helvetica,sans-Serif" font-size="10.00">/include/oks/pipeline.hpp</text>
</a>
</g>
</g>
<!-- Node2 -->
<g id="Node000002" class="node">
<title>Node2</title>
<g id="a_Node000002"><a xlink:title=" ">
<polygon fill="#e0e0e0" stroke="#999999" points="88,-19.25 0,-19.25 0,0 88,0 88,-19.25"/>
<text text-anchor="middle" x="44" y="-5.75" font-family="Helvetica,sans-Serif" font-size="10.00">boost/thread.hpp</text>
</a>
</g>
</g>
<!-- Node1&#45;&gt;Node2 -->
<g id="edge1_Node000001_Node000002" class="edge">
<title>Node1&#45;&gt;Node2</title>
<g id="a_edge1_Node000001_Node000002"><a xlink:title=" ">
<path fill="none" stroke="#63b8ff" d="M245.34,-60C198.51,-48.52 135.03,-32.95 91.96,-22.39"/>
<polygon fill="#63b8ff" stroke="#63b8ff" points="92.95,-19.03 82.4,-20.04 91.28,-25.82 92.95,-19.03"/>
</a>
</g>
</g>
<!-- Node3 -->
<g id="Node000003" class="node">
<title>Node3</title>
<g id="a_Node000003"><a xlink:title=" ">
<polygon fill="#e0e0e0" stroke="#999999" points="224,-19.25 106,-19.25 106,0 224,0 224,-19.25"/>
<text text-anchor="middle" x="165" y="-5.75" font-family="Helvetica,sans-Serif" font-size="10.00">boost/thread/barrier.hpp</text>
</a>
</g>
</g>
<!-- Node1&#45;&gt;Node3 -->
<g id="edge2_Node000001_Node000003" class="edge">
<title>Node1&#45;&gt;Node3</title>
<g id="a_edge2_Node000001_Node000003"><a xlink:title=" ">
<path fill="none" stroke="#63b8ff" d="M262.46,-54.89C240.6,-44.96 214.84,-33.26 195.29,-24.38"/>
<polygon fill="#63b8ff" stroke="#63b8ff" points="196.79,-21.22 186.23,-20.27 193.89,-27.59 196.79,-21.22"/>
</a>
</g>
</g>
<!-- Node4 -->
<g id="Node000004" class="node">
<title>Node4</title>
<g id="a_Node000004"><a xlink:title=" ">
<polygon fill="#e0e0e0" stroke="#999999" points="372,-19.25 242,-19.25 242,0 372,0 372,-19.25"/>
<text text-anchor="middle" x="307" y="-5.75" font-family="Helvetica,sans-Serif" font-size="10.00">boost/thread/condition.hpp</text>
</a>
</g>
</g>
<!-- Node1&#45;&gt;Node4 -->
<g id="edge3_Node000001_Node000004" class="edge">
<title>Node1&#45;&gt;Node4</title>
<g id="a_edge3_Node000001_Node000004"><a xlink:title=" ">
<path fill="none" stroke="#63b8ff" d="M307,-55.07C307,-47.4 307,-38.64 307,-30.95"/>
<polygon fill="#63b8ff" stroke="#63b8ff" points="310.5,-31.21 307,-21.21 303.5,-31.21 310.5,-31.21"/>
</a>
</g>
</g>
<!-- Node5 -->
<g id="Node000005" class="node">
<title>Node5</title>
<g id="a_Node000005"><a xlink:title=" ">
<polygon fill="#e0e0e0" stroke="#999999" points="440.25,-19.25 389.75,-19.25 389.75,0 440.25,0 440.25,-19.25"/>
<text text-anchor="middle" x="415" y="-5.75" font-family="Helvetica,sans-Serif" font-size="10.00">memory</text>
</a>
</g>
</g>
<!-- Node1&#45;&gt;Node5 -->
<g id="edge4_Node000001_Node000005" class="edge">
<title>Node1&#45;&gt;Node5</title>
<g id="a_edge4_Node000001_Node000005"><a xlink:title=" ">
<path fill="none" stroke="#63b8ff" d="M340.88,-54.89C356.8,-45.38 375.46,-34.24 390.07,-25.51"/>
<polygon fill="#63b8ff" stroke="#63b8ff" points="391.81,-28.55 398.6,-20.42 388.22,-22.54 391.81,-28.55"/>
</a>
</g>
</g>
<!-- Node6 -->
<g id="Node000006" class="node">
<title>Node6</title>
<g id="a_Node000006"><a xlink:title=" ">
<polygon fill="#e0e0e0" stroke="#999999" points="500.12,-19.25 457.88,-19.25 457.88,0 500.12,0 500.12,-19.25"/>
<text text-anchor="middle" x="479" y="-5.75" font-family="Helvetica,sans-Serif" font-size="10.00">queue</text>
</a>
</g>
</g>
<!-- Node1&#45;&gt;Node6 -->
<g id="edge5_Node000001_Node000006" class="edge">
<title>Node1&#45;&gt;Node6</title>
<g id="a_edge5_Node000001_Node000006"><a xlink:title=" ">
<path fill="none" stroke="#63b8ff" d="M360.95,-54.89C389.19,-44.31 422.8,-31.7 446.93,-22.65"/>
<polygon fill="#63b8ff" stroke="#63b8ff" points="448.06,-25.96 456.2,-19.18 445.61,-19.41 448.06,-25.96"/>
</a>
</g>
</g>
</g>
</svg>
