<?xml version="1.0" encoding="UTF-8" standalone="no"?>
<!DOCTYPE svg PUBLIC "-//W3C//DTD SVG 1.1//EN"
 "http://www.w3.org/Graphics/SVG/1.1/DTD/svg11.dtd">
<!-- Generated by graphviz version 9.0.0 (20230911.1827)
 -->
<!-- Title: /github/workspace/dev_area/sourcecode/fdreadoutlibs/include/fdreadoutlibs/wibeth/tpg/ProcessNaive.hpp Pages: 1 -->
<svg width="1421pt" height="404pt"
 viewBox="0.00 0.00 1421.12 403.75" xmlns="http://www.w3.org/2000/svg" xmlns:xlink="http://www.w3.org/1999/xlink">
<g id="graph0" class="graph" transform="scale(1 1) rotate(0) translate(4 399.75)">
<title>/github/workspace/dev_area/sourcecode/fdreadoutlibs/include/fdreadoutlibs/wibeth/tpg/ProcessNaive.hpp</title>
<!-- Node1 -->
<g id="Node000001" class="node">
<title>Node1</title>
<g id="a_Node000001"><a xlink:title=" ">
<polygon fill="#999999" stroke="#666666" points="1286.38,-395.75 1134.62,-395.75 1134.62,-342.75 1286.38,-342.75 1286.38,-395.75"/>
<text text-anchor="start" x="1142.62" y="-382.25" font-family="Helvetica,sans-Serif" font-size="10.00">/github/workspace/dev</text>
<text text-anchor="start" x="1142.62" y="-371" font-family="Helvetica,sans-Serif" font-size="10.00">_area/sourcecode/fdreadoutlibs</text>
<text text-anchor="start" x="1142.62" y="-359.75" font-family="Helvetica,sans-Serif" font-size="10.00">/include/fdreadoutlibs/wibeth</text>
<text text-anchor="middle" x="1210.5" y="-348.5" font-family="Helvetica,sans-Serif" font-size="10.00">/tpg/ProcessNaive.hpp</text>
</a>
</g>
</g>
<!-- Node2 -->
<g id="Node000002" class="node">
<title>Node2</title>
<g id="a_Node000002"><a xlink:href="FrameExpand_8hpp.html" target="_top" xlink:title=" ">
<polygon fill="white" stroke="#666666" points="1154.12,-251.5 1060.88,-251.5 1060.88,-232.25 1154.12,-232.25 1154.12,-251.5"/>
<text text-anchor="middle" x="1107.5" y="-238" font-family="Helvetica,sans-Serif" font-size="10.00">FrameExpand.hpp</text>
</a>
</g>
</g>
<!-- Node1&#45;&gt;Node2 -->
<g id="edge1_Node000001_Node000002" class="edge">
<title>Node1&#45;&gt;Node2</title>
<g id="a_edge1_Node000001_Node000002"><a xlink:title=" ">
<path fill="none" stroke="#63b8ff" d="M1199.9,-342.5C1192.2,-325.71 1180.67,-303.95 1166.5,-287.5 1156.78,-276.21 1143.75,-265.99 1132.41,-258.19"/>
<polygon fill="#63b8ff" stroke="#63b8ff" points="1134.54,-255.4 1124.27,-252.82 1130.69,-261.24 1134.54,-255.4"/>
</a>
</g>
</g>
<!-- Node3 -->
<g id="Node000003" class="node">
<title>Node3</title>
<g id="a_Node000003"><a xlink:href="TPGConstants__wibeth_8hpp.html" target="_top" xlink:title=" ">
<polygon fill="white" stroke="#666666" points="1296.62,-129.75 1164.38,-129.75 1164.38,-110.5 1296.62,-110.5 1296.62,-129.75"/>
<text text-anchor="middle" x="1230.5" y="-116.25" font-family="Helvetica,sans-Serif" font-size="10.00">TPGConstants_wibeth.hpp</text>
</a>
</g>
</g>
<!-- Node1&#45;&gt;Node3 -->
<g id="edge53_Node000001_Node000003" class="edge">
<title>Node1&#45;&gt;Node3</title>
<g id="a_edge53_Node000001_Node000003"><a xlink:title=" ">
<path fill="none" stroke="#63b8ff" d="M1212.6,-342.27C1216.6,-292.87 1225.22,-186.33 1228.84,-141.58"/>
<polygon fill="#63b8ff" stroke="#63b8ff" points="1232.32,-142.01 1229.64,-131.76 1225.34,-141.44 1232.32,-142.01"/>
</a>
</g>
</g>
<!-- Node6 -->
<g id="Node000006" class="node">
<title>Node6</title>
<g id="a_Node000006"><a xlink:title=" ">
<polygon fill="#e0e0e0" stroke="#999999" points="988.12,-19.25 948.88,-19.25 948.88,0 988.12,0 988.12,-19.25"/>
<text text-anchor="middle" x="968.5" y="-5.75" font-family="Helvetica,sans-Serif" font-size="10.00">limits</text>
</a>
</g>
</g>
<!-- Node1&#45;&gt;Node6 -->
<g id="edge56_Node000001_Node000006" class="edge">
<title>Node1&#45;&gt;Node6</title>
<g id="a_edge56_Node000001_Node000006"><a xlink:title=" ">
<path fill="none" stroke="#63b8ff" d="M1257.41,-342.33C1289.96,-320.53 1327.5,-286.04 1327.5,-242.88 1327.5,-242.88 1327.5,-242.88 1327.5,-119.12 1327.5,-84.14 1311.43,-73.36 1281.5,-55.25 1234.43,-26.77 1069.15,-15.53 999.65,-11.99"/>
<polygon fill="#63b8ff" stroke="#63b8ff" points="999.89,-8.5 989.73,-11.51 999.55,-15.49 999.89,-8.5"/>
</a>
</g>
</g>
<!-- Node10 -->
<g id="Node000010" class="node">
<title>Node10</title>
<g id="a_Node000010"><a xlink:title=" ">
<polygon fill="#e0e0e0" stroke="#999999" points="613.38,-74.5 557.62,-74.5 557.62,-55.25 613.38,-55.25 613.38,-74.5"/>
<text text-anchor="middle" x="585.5" y="-61" font-family="Helvetica,sans-Serif" font-size="10.00">algorithm</text>
</a>
</g>
</g>
<!-- Node1&#45;&gt;Node10 -->
<g id="edge54_Node000001_Node000010" class="edge">
<title>Node1&#45;&gt;Node10</title>
<g id="a_edge54_Node000001_Node000010"><a xlink:title=" ">
<path fill="none" stroke="#63b8ff" d="M1134.49,-353.62C1041.56,-333.51 896.5,-293.94 896.5,-242.88 896.5,-242.88 896.5,-242.88 896.5,-180 896.5,-122.79 708.71,-85.58 624.98,-71.83"/>
<polygon fill="#63b8ff" stroke="#63b8ff" points="625.57,-68.38 615.14,-70.25 624.46,-75.29 625.57,-68.38"/>
</a>
</g>
</g>
<!-- Node34 -->
<g id="Node000034" class="node">
<title>Node34</title>
<g id="a_Node000034"><a xlink:href="ProcessingInfo_8hpp.html" target="_top" xlink:title=" ">
<polygon fill="white" stroke="#666666" points="1157.12,-306.75 1057.88,-306.75 1057.88,-287.5 1157.12,-287.5 1157.12,-306.75"/>
<text text-anchor="middle" x="1107.5" y="-293.25" font-family="Helvetica,sans-Serif" font-size="10.00">ProcessingInfo.hpp</text>
</a>
</g>
</g>
<!-- Node1&#45;&gt;Node34 -->
<g id="edge50_Node000001_Node000034" class="edge">
<title>Node1&#45;&gt;Node34</title>
<g id="a_edge50_Node000001_Node000034"><a xlink:title=" ">
<path fill="none" stroke="#63b8ff" d="M1172.44,-342.34C1158.15,-332.61 1142.38,-321.87 1129.95,-313.41"/>
<polygon fill="#63b8ff" stroke="#63b8ff" points="1132.29,-310.77 1122.05,-308.03 1128.35,-316.55 1132.29,-310.77"/>
</a>
</g>
</g>
<!-- Node36 -->
<g id="Node000036" class="node">
<title>Node36</title>
<g id="a_Node000036"><a xlink:title=" ">
<polygon fill="#e0e0e0" stroke="#999999" points="1413.12,-306.75 1355.88,-306.75 1355.88,-287.5 1413.12,-287.5 1413.12,-306.75"/>
<text text-anchor="middle" x="1384.5" y="-293.25" font-family="Helvetica,sans-Serif" font-size="10.00">inttypes.h</text>
</a>
</g>
</g>
<!-- Node1&#45;&gt;Node36 -->
<g id="edge55_Node000001_Node000036" class="edge">
<title>Node1&#45;&gt;Node36</title>
<g id="a_edge55_Node000001_Node000036"><a xlink:title=" ">
<path fill="none" stroke="#63b8ff" d="M1274.8,-342.34C1300.85,-331.84 1329.82,-320.16 1351.44,-311.45"/>
<polygon fill="#63b8ff" stroke="#63b8ff" points="1352.66,-314.73 1360.62,-307.75 1350.04,-308.24 1352.66,-314.73"/>
</a>
</g>
</g>
<!-- Node2&#45;&gt;Node3 -->
<g id="edge2_Node000002_Node000003" class="edge">
<title>Node2&#45;&gt;Node3</title>
<g id="a_edge2_Node000002_Node000003"><a xlink:title=" ">
<path fill="none" stroke="#63b8ff" d="M1124.05,-231.76C1138.1,-223.56 1158.33,-210.61 1173.5,-196.25 1191.64,-179.07 1208.4,-155.69 1218.99,-139.59"/>
<polygon fill="#63b8ff" stroke="#63b8ff" points="1221.74,-141.79 1224.19,-131.48 1215.84,-138.01 1221.74,-141.79"/>
</a>
</g>
</g>
<!-- Node7 -->
<g id="Node000007" class="node">
<title>Node7</title>
<g id="a_Node000007"><a xlink:href="WIBEthFrame_8hpp.html" target="_top" xlink:title=" ">
<polygon fill="white" stroke="#666666" points="1101.12,-129.75 929.88,-129.75 929.88,-110.5 1101.12,-110.5 1101.12,-129.75"/>
<text text-anchor="middle" x="1015.5" y="-116.25" font-family="Helvetica,sans-Serif" font-size="10.00">fddetdataformats/WIBEthFrame.hpp</text>
</a>
</g>
</g>
<!-- Node2&#45;&gt;Node7 -->
<g id="edge6_Node000002_Node000007" class="edge">
<title>Node2&#45;&gt;Node7</title>
<g id="a_edge6_Node000002_Node000007"><a xlink:title=" ">
<path fill="none" stroke="#63b8ff" d="M1106.02,-232.17C1103.12,-217.25 1095.53,-186.43 1079.5,-165.75 1070.04,-153.54 1056.3,-143.35 1043.98,-135.81"/>
<polygon fill="#63b8ff" stroke="#63b8ff" points="1045.81,-132.82 1035.4,-130.86 1042.31,-138.89 1045.81,-132.82"/>
</a>
</g>
</g>
<!-- Node14 -->
<g id="Node000014" class="node">
<title>Node14</title>
<g id="a_Node000014"><a xlink:href="DUNEWIBEthTypeAdapter_8hpp.html" target="_top" xlink:title=" ">
<polygon fill="white" stroke="#666666" points="544.12,-196.25 408.88,-196.25 408.88,-165.75 544.12,-165.75 544.12,-196.25"/>
<text text-anchor="start" x="416.88" y="-182.75" font-family="Helvetica,sans-Serif" font-size="10.00">fdreadoutlibs/DUNEWIBEth</text>
<text text-anchor="middle" x="476.5" y="-171.5" font-family="Helvetica,sans-Serif" font-size="10.00">TypeAdapter.hpp</text>
</a>
</g>
</g>
<!-- Node2&#45;&gt;Node14 -->
<g id="edge16_Node000002_Node000014" class="edge">
<title>Node2&#45;&gt;Node14</title>
<g id="a_edge16_Node000002_Node000014"><a xlink:title=" ">
<path fill="none" stroke="#63b8ff" d="M1060.48,-233.4C1057.44,-232.99 1054.43,-232.6 1051.5,-232.25 874.94,-210.96 666.84,-195.04 555.79,-187.28"/>
<polygon fill="#63b8ff" stroke="#63b8ff" points="556.09,-183.79 545.87,-186.59 555.61,-190.77 556.09,-183.79"/>
</a>
</g>
</g>
<!-- Node31 -->
<g id="Node000031" class="node">
<title>Node31</title>
<g id="a_Node000031"><a xlink:title=" ">
<polygon fill="#e0e0e0" stroke="#999999" points="1070.25,-190.62 1016.75,-190.62 1016.75,-171.38 1070.25,-171.38 1070.25,-190.62"/>
<text text-anchor="middle" x="1043.5" y="-177.12" font-family="Helvetica,sans-Serif" font-size="10.00">iostream</text>
</a>
</g>
</g>
<!-- Node2&#45;&gt;Node31 -->
<g id="edge47_Node000002_Node000031" class="edge">
<title>Node2&#45;&gt;Node31</title>
<g id="a_edge47_Node000002_Node000031"><a xlink:title=" ">
<path fill="none" stroke="#63b8ff" d="M1097.78,-231.93C1088.19,-223.12 1073.31,-209.43 1061.56,-198.61"/>
<polygon fill="#63b8ff" stroke="#63b8ff" points="1064.15,-196.25 1054.43,-192.05 1059.42,-201.4 1064.15,-196.25"/>
</a>
</g>
</g>
<!-- Node32 -->
<g id="Node000032" class="node">
<title>Node32</title>
<g id="a_Node000032"><a xlink:title=" ">
<polygon fill="#e0e0e0" stroke="#999999" points="1164,-190.62 1127,-190.62 1127,-171.38 1164,-171.38 1164,-190.62"/>
<text text-anchor="middle" x="1145.5" y="-177.12" font-family="Helvetica,sans-Serif" font-size="10.00">array</text>
</a>
</g>
</g>
<!-- Node2&#45;&gt;Node32 -->
<g id="edge48_Node000002_Node000032" class="edge">
<title>Node2&#45;&gt;Node32</title>
<g id="a_edge48_Node000002_Node000032"><a xlink:title=" ">
<path fill="none" stroke="#63b8ff" d="M1113.27,-231.93C1118.63,-223.63 1126.77,-211.02 1133.53,-200.55"/>
<polygon fill="#63b8ff" stroke="#63b8ff" points="1136.37,-202.6 1138.85,-192.3 1130.49,-198.8 1136.37,-202.6"/>
</a>
</g>
</g>
<!-- Node33 -->
<g id="Node000033" class="node">
<title>Node33</title>
<g id="a_Node000033"><a xlink:title=" ">
<polygon fill="#e0e0e0" stroke="#999999" points="999.12,-190.62 935.88,-190.62 935.88,-171.38 999.12,-171.38 999.12,-190.62"/>
<text text-anchor="middle" x="967.5" y="-177.12" font-family="Helvetica,sans-Serif" font-size="10.00">immintrin.h</text>
</a>
</g>
</g>
<!-- Node2&#45;&gt;Node33 -->
<g id="edge49_Node000002_Node000033" class="edge">
<title>Node2&#45;&gt;Node33</title>
<g id="a_edge49_Node000002_Node000033"><a xlink:title=" ">
<path fill="none" stroke="#63b8ff" d="M1085.93,-231.8C1062.74,-222.05 1025.64,-206.45 999.15,-195.31"/>
<polygon fill="#63b8ff" stroke="#63b8ff" points="1000.83,-192.22 990.26,-191.57 998.12,-198.67 1000.83,-192.22"/>
</a>
</g>
</g>
<!-- Node4 -->
<g id="Node000004" class="node">
<title>Node4</title>
<g id="a_Node000004"><a xlink:title=" ">
<polygon fill="#e0e0e0" stroke="#999999" points="898.12,-19.25 852.88,-19.25 852.88,0 898.12,0 898.12,-19.25"/>
<text text-anchor="middle" x="875.5" y="-5.75" font-family="Helvetica,sans-Serif" font-size="10.00">cstdint</text>
</a>
</g>
</g>
<!-- Node3&#45;&gt;Node4 -->
<g id="edge3_Node000003_Node000004" class="edge">
<title>Node3&#45;&gt;Node4</title>
<g id="a_edge3_Node000003_Node000004"><a xlink:title=" ">
<path fill="none" stroke="#63b8ff" d="M1234.1,-110.44C1239.08,-96.85 1246.03,-70.54 1232.5,-55.25 1189.03,-6.12 1004.56,-27.63 939.5,-19.25 929.86,-18.01 919.4,-16.62 909.79,-15.32"/>
<polygon fill="#63b8ff" stroke="#63b8ff" points="910.48,-11.88 900.1,-14.01 909.54,-18.82 910.48,-11.88"/>
</a>
</g>
</g>
<!-- Node5 -->
<g id="Node000005" class="node">
<title>Node5</title>
<g id="a_Node000005"><a xlink:title=" ">
<polygon fill="#e0e0e0" stroke="#999999" points="1163.75,-74.5 1119.25,-74.5 1119.25,-55.25 1163.75,-55.25 1163.75,-74.5"/>
<text text-anchor="middle" x="1141.5" y="-61" font-family="Helvetica,sans-Serif" font-size="10.00">cstdlib</text>
</a>
</g>
</g>
<!-- Node3&#45;&gt;Node5 -->
<g id="edge4_Node000003_Node000005" class="edge">
<title>Node3&#45;&gt;Node5</title>
<g id="a_edge4_Node000003_Node000005"><a xlink:title=" ">
<path fill="none" stroke="#63b8ff" d="M1215.4,-110.09C1201.98,-102.06 1182.09,-90.16 1166.33,-80.73"/>
<polygon fill="#63b8ff" stroke="#63b8ff" points="1168.35,-77.86 1157.97,-75.73 1164.75,-83.87 1168.35,-77.86"/>
</a>
</g>
</g>
<!-- Node3&#45;&gt;Node6 -->
<g id="edge5_Node000003_Node000006" class="edge">
<title>Node3&#45;&gt;Node6</title>
<g id="a_edge5_Node000003_Node000006"><a xlink:title=" ">
<path fill="none" stroke="#63b8ff" d="M1241.85,-110.14C1257.01,-97.07 1280.35,-72.5 1265.5,-55.25 1231.48,-15.74 1069.35,-10.73 1000.04,-10.42"/>
<polygon fill="#63b8ff" stroke="#63b8ff" points="1000.13,-6.92 990.12,-10.42 1000.12,-13.92 1000.13,-6.92"/>
</a>
</g>
</g>
<!-- Node7&#45;&gt;Node4 -->
<g id="edge12_Node000007_Node000004" class="edge">
<title>Node7&#45;&gt;Node4</title>
<g id="a_edge12_Node000007_Node000004"><a xlink:title=" ">
<path fill="none" stroke="#63b8ff" d="M1015.27,-110.05C1014.43,-96.41 1010.9,-70.61 996.5,-55.25 973.82,-31.06 936.89,-19.93 909.79,-14.84"/>
<polygon fill="#63b8ff" stroke="#63b8ff" points="910.41,-11.39 899.97,-13.2 909.26,-18.3 910.41,-11.39"/>
</a>
</g>
</g>
<!-- Node7&#45;&gt;Node5 -->
<g id="edge14_Node000007_Node000005" class="edge">
<title>Node7&#45;&gt;Node5</title>
<g id="a_edge14_Node000007_Node000005"><a xlink:title=" ">
<path fill="none" stroke="#63b8ff" d="M1036.87,-110.09C1056.79,-101.68 1086.74,-89.02 1109.5,-79.4"/>
<polygon fill="#63b8ff" stroke="#63b8ff" points="1110.78,-82.66 1118.63,-75.54 1108.05,-76.21 1110.78,-82.66"/>
</a>
</g>
</g>
<!-- Node8 -->
<g id="Node000008" class="node">
<title>Node8</title>
<g id="a_Node000008"><a xlink:href="DAQEthHeader_8hpp.html" target="_top" xlink:title=" ">
<polygon fill="white" stroke="#666666" points="839,-74.5 670,-74.5 670,-55.25 839,-55.25 839,-74.5"/>
<text text-anchor="middle" x="754.5" y="-61" font-family="Helvetica,sans-Serif" font-size="10.00">detdataformats/DAQEthHeader.hpp</text>
</a>
</g>
</g>
<!-- Node7&#45;&gt;Node8 -->
<g id="edge7_Node000007_Node000008" class="edge">
<title>Node7&#45;&gt;Node8</title>
<g id="a_edge7_Node000007_Node000008"><a xlink:title=" ">
<path fill="none" stroke="#63b8ff" d="M970.93,-110.03C926.45,-100.96 857.99,-86.99 810.01,-77.2"/>
<polygon fill="#63b8ff" stroke="#63b8ff" points="810.87,-73.8 800.37,-75.23 809.47,-80.66 810.87,-73.8"/>
</a>
</g>
</g>
<!-- Node7&#45;&gt;Node10 -->
<g id="edge10_Node000007_Node000010" class="edge">
<title>Node7&#45;&gt;Node10</title>
<g id="a_edge10_Node000007_Node000010"><a xlink:title=" ">
<path fill="none" stroke="#63b8ff" d="M929.67,-111.44C850.85,-103.87 730.95,-91.04 627.5,-74.5 626.5,-74.34 625.49,-74.17 624.48,-74"/>
<polygon fill="#63b8ff" stroke="#63b8ff" points="625.41,-70.61 614.94,-72.25 624.14,-77.5 625.41,-70.61"/>
</a>
</g>
</g>
<!-- Node11 -->
<g id="Node000011" class="node">
<title>Node11</title>
<g id="a_Node000011"><a xlink:title=" ">
<polygon fill="#e0e0e0" stroke="#999999" points="660.62,-19.25 612.38,-19.25 612.38,0 660.62,0 660.62,-19.25"/>
<text text-anchor="middle" x="636.5" y="-5.75" font-family="Helvetica,sans-Serif" font-size="10.00">cassert</text>
</a>
</g>
</g>
<!-- Node7&#45;&gt;Node11 -->
<g id="edge11_Node000007_Node000011" class="edge">
<title>Node7&#45;&gt;Node11</title>
<g id="a_edge11_Node000007_Node000011"><a xlink:title=" ">
<path fill="none" stroke="#63b8ff" d="M929.75,-110.58C828.09,-100.12 671,-82.79 660.5,-74.5 647.27,-64.05 641.33,-45.48 638.67,-31.05"/>
<polygon fill="#63b8ff" stroke="#63b8ff" points="642.14,-30.65 637.28,-21.23 635.21,-31.63 642.14,-30.65"/>
</a>
</g>
</g>
<!-- Node12 -->
<g id="Node000012" class="node">
<title>Node12</title>
<g id="a_Node000012"><a xlink:title=" ">
<polygon fill="#e0e0e0" stroke="#999999" points="1223.62,-74.5 1181.38,-74.5 1181.38,-55.25 1223.62,-55.25 1223.62,-74.5"/>
<text text-anchor="middle" x="1202.5" y="-61" font-family="Helvetica,sans-Serif" font-size="10.00">cstdio</text>
</a>
</g>
</g>
<!-- Node7&#45;&gt;Node12 -->
<g id="edge13_Node000007_Node000012" class="edge">
<title>Node7&#45;&gt;Node12</title>
<g id="a_edge13_Node000007_Node000012"><a xlink:title=" ">
<path fill="none" stroke="#63b8ff" d="M1047.68,-110.01C1077.19,-101.64 1122.39,-88.81 1170.29,-75.13"/>
<polygon fill="#63b8ff" stroke="#63b8ff" points="1171.09,-78.54 1179.74,-72.42 1169.16,-71.81 1171.09,-78.54"/>
</a>
</g>
</g>
<!-- Node13 -->
<g id="Node000013" class="node">
<title>Node13</title>
<g id="a_Node000013"><a xlink:title=" ">
<polygon fill="#e0e0e0" stroke="#999999" points="1101.5,-74.5 1043.5,-74.5 1043.5,-55.25 1101.5,-55.25 1101.5,-74.5"/>
<text text-anchor="middle" x="1072.5" y="-61" font-family="Helvetica,sans-Serif" font-size="10.00">stdexcept</text>
</a>
</g>
</g>
<!-- Node7&#45;&gt;Node13 -->
<g id="edge15_Node000007_Node000013" class="edge">
<title>Node7&#45;&gt;Node13</title>
<g id="a_edge15_Node000007_Node000013"><a xlink:title=" ">
<path fill="none" stroke="#63b8ff" d="M1025.17,-110.09C1033.24,-102.55 1044.97,-91.6 1054.72,-82.48"/>
<polygon fill="#63b8ff" stroke="#63b8ff" points="1056.95,-85.19 1061.87,-75.81 1052.17,-80.08 1056.95,-85.19"/>
</a>
</g>
</g>
<!-- Node8&#45;&gt;Node4 -->
<g id="edge8_Node000008_Node000004" class="edge">
<title>Node8&#45;&gt;Node4</title>
<g id="a_edge8_Node000008_Node000004"><a xlink:title=" ">
<path fill="none" stroke="#63b8ff" d="M775.03,-54.84C794.06,-46.47 822.65,-33.88 844.47,-24.28"/>
<polygon fill="#63b8ff" stroke="#63b8ff" points="845.74,-27.54 853.49,-20.31 842.93,-21.14 845.74,-27.54"/>
</a>
</g>
</g>
<!-- Node9 -->
<g id="Node000009" class="node">
<title>Node9</title>
<g id="a_Node000009"><a xlink:title=" ">
<polygon fill="#e0e0e0" stroke="#999999" points="755.12,-19.25 703.88,-19.25 703.88,0 755.12,0 755.12,-19.25"/>
<text text-anchor="middle" x="729.5" y="-5.75" font-family="Helvetica,sans-Serif" font-size="10.00">ostream</text>
</a>
</g>
</g>
<!-- Node8&#45;&gt;Node9 -->
<g id="edge9_Node000008_Node000009" class="edge">
<title>Node8&#45;&gt;Node9</title>
<g id="a_edge9_Node000008_Node000009"><a xlink:title=" ">
<path fill="none" stroke="#63b8ff" d="M750.37,-55.08C747.17,-48.26 742.61,-38.56 738.57,-29.95"/>
<polygon fill="#63b8ff" stroke="#63b8ff" points="741.78,-28.54 734.36,-20.98 735.44,-31.52 741.78,-28.54"/>
</a>
</g>
</g>
<!-- Node14&#45;&gt;Node4 -->
<g id="edge42_Node000014_Node000004" class="edge">
<title>Node14&#45;&gt;Node4</title>
<g id="a_edge42_Node000014_Node000004"><a xlink:title=" ">
<path fill="none" stroke="#63b8ff" d="M480.28,-165.53C488.07,-138.81 508.64,-82.02 548.5,-55.25 572.53,-39.11 762.46,-20.64 841.34,-13.58"/>
<polygon fill="#63b8ff" stroke="#63b8ff" points="841.41,-17.08 851.06,-12.72 840.8,-10.11 841.41,-17.08"/>
</a>
</g>
</g>
<!-- Node14&#45;&gt;Node7 -->
<g id="edge41_Node000014_Node000007" class="edge">
<title>Node14&#45;&gt;Node7</title>
<g id="a_edge41_Node000014_Node000007"><a xlink:title=" ">
<path fill="none" stroke="#63b8ff" d="M544.49,-172.57C639.75,-162.17 813.32,-143.21 921.07,-131.44"/>
<polygon fill="#63b8ff" stroke="#63b8ff" points="921.19,-134.95 930.75,-130.38 920.43,-127.99 921.19,-134.95"/>
</a>
</g>
</g>
<!-- Node15 -->
<g id="Node000015" class="node">
<title>Node15</title>
<g id="a_Node000015"><a xlink:href="FragmentHeader_8hpp.html" target="_top" xlink:title=" ">
<polygon fill="white" stroke="#666666" points="355.12,-129.75 177.88,-129.75 177.88,-110.5 355.12,-110.5 355.12,-129.75"/>
<text text-anchor="middle" x="266.5" y="-116.25" font-family="Helvetica,sans-Serif" font-size="10.00">daqdataformats/FragmentHeader.hpp</text>
</a>
</g>
</g>
<!-- Node14&#45;&gt;Node15 -->
<g id="edge17_Node000014_Node000015" class="edge">
<title>Node14&#45;&gt;Node15</title>
<g id="a_edge17_Node000014_Node000015"><a xlink:title=" ">
<path fill="none" stroke="#63b8ff" d="M424.05,-165.3C388.8,-155.41 342.89,-142.54 309.74,-133.25"/>
<polygon fill="#63b8ff" stroke="#63b8ff" points="311.05,-129.98 300.47,-130.65 309.16,-136.72 311.05,-129.98"/>
</a>
</g>
</g>
<!-- Node16 -->
<g id="Node000016" class="node">
<title>Node16</title>
<g id="a_Node000016"><a xlink:href="SourceID_8hpp.html" target="_top" xlink:title=" ">
<polygon fill="white" stroke="#666666" points="501,-74.5 356,-74.5 356,-55.25 501,-55.25 501,-74.5"/>
<text text-anchor="middle" x="428.5" y="-61" font-family="Helvetica,sans-Serif" font-size="10.00">daqdataformats/SourceID.hpp</text>
</a>
</g>
</g>
<!-- Node14&#45;&gt;Node16 -->
<g id="edge40_Node000014_Node000016" class="edge">
<title>Node14&#45;&gt;Node16</title>
<g id="a_edge40_Node000014_Node000016"><a xlink:title=" ">
<path fill="none" stroke="#63b8ff" d="M473.89,-165.44C471,-151.06 465.64,-128.65 457.5,-110.5 453.4,-101.36 447.57,-91.95 442.21,-84.14"/>
<polygon fill="#63b8ff" stroke="#63b8ff" points="445.17,-82.28 436.5,-76.19 439.49,-86.36 445.17,-82.28"/>
</a>
</g>
</g>
<!-- Node22 -->
<g id="Node000022" class="node">
<title>Node22</title>
<g id="a_Node000022"><a xlink:title=" ">
<polygon fill="#e0e0e0" stroke="#999999" points="37,-19.25 0,-19.25 0,0 37,0 37,-19.25"/>
<text text-anchor="middle" x="18.5" y="-5.75" font-family="Helvetica,sans-Serif" font-size="10.00">tuple</text>
</a>
</g>
</g>
<!-- Node14&#45;&gt;Node22 -->
<g id="edge46_Node000014_Node000022" class="edge">
<title>Node14&#45;&gt;Node22</title>
<g id="a_edge46_Node000014_Node000022"><a xlink:title=" ">
<path fill="none" stroke="#63b8ff" d="M408.52,-177.99C336.27,-174.11 219.55,-162.76 124.5,-129.75 78.36,-113.72 57.37,-114.61 29.5,-74.5 20.64,-61.76 18.14,-44.2 17.71,-30.72"/>
<polygon fill="#63b8ff" stroke="#63b8ff" points="21.21,-30.88 17.78,-20.85 14.21,-30.82 21.21,-30.88"/>
</a>
</g>
</g>
<!-- Node28 -->
<g id="Node000028" class="node">
<title>Node28</title>
<g id="a_Node000028"><a xlink:title=" ">
<polygon fill="#e0e0e0" stroke="#999999" points="82,-74.5 39,-74.5 39,-55.25 82,-55.25 82,-74.5"/>
<text text-anchor="middle" x="60.5" y="-61" font-family="Helvetica,sans-Serif" font-size="10.00">vector</text>
</a>
</g>
</g>
<!-- Node14&#45;&gt;Node28 -->
<g id="edge44_Node000014_Node000028" class="edge">
<title>Node14&#45;&gt;Node28</title>
<g id="a_edge44_Node000014_Node000028"><a xlink:title=" ">
<path fill="none" stroke="#63b8ff" d="M408.6,-176.18C344.95,-170.92 247.96,-158.57 168.5,-129.75 136.12,-118.01 102.53,-96.4 81.59,-81.6"/>
<polygon fill="#63b8ff" stroke="#63b8ff" points="83.77,-78.85 73.61,-75.83 79.67,-84.53 83.77,-78.85"/>
</a>
</g>
</g>
<!-- Node29 -->
<g id="Node000029" class="node">
<title>Node29</title>
<g id="a_Node000029"><a xlink:title=" ">
<polygon fill="#e0e0e0" stroke="#999999" points="607.75,-129.75 557.25,-129.75 557.25,-110.5 607.75,-110.5 607.75,-129.75"/>
<text text-anchor="middle" x="582.5" y="-116.25" font-family="Helvetica,sans-Serif" font-size="10.00">memory</text>
</a>
</g>
</g>
<!-- Node14&#45;&gt;Node29 -->
<g id="edge43_Node000014_Node000029" class="edge">
<title>Node14&#45;&gt;Node29</title>
<g id="a_edge43_Node000014_Node000029"><a xlink:title=" ">
<path fill="none" stroke="#63b8ff" d="M502.97,-165.3C519.27,-156.24 540.08,-144.69 556.32,-135.66"/>
<polygon fill="#63b8ff" stroke="#63b8ff" points="557.88,-138.8 564.92,-130.89 554.48,-132.68 557.88,-138.8"/>
</a>
</g>
</g>
<!-- Node30 -->
<g id="Node000030" class="node">
<title>Node30</title>
<g id="a_Node000030"><a xlink:title=" ">
<polygon fill="#e0e0e0" stroke="#999999" points="448.12,-129.75 402.88,-129.75 402.88,-110.5 448.12,-110.5 448.12,-129.75"/>
<text text-anchor="middle" x="425.5" y="-116.25" font-family="Helvetica,sans-Serif" font-size="10.00">cstring</text>
</a>
</g>
</g>
<!-- Node14&#45;&gt;Node30 -->
<g id="edge45_Node000014_Node000030" class="edge">
<title>Node14&#45;&gt;Node30</title>
<g id="a_edge45_Node000014_Node000030"><a xlink:title=" ">
<path fill="none" stroke="#63b8ff" d="M463.89,-165.45C456.87,-157.34 448.09,-147.2 440.69,-138.66"/>
<polygon fill="#63b8ff" stroke="#63b8ff" points="443.55,-136.61 434.35,-131.35 438.26,-141.2 443.55,-136.61"/>
</a>
</g>
</g>
<!-- Node15&#45;&gt;Node5 -->
<g id="edge35_Node000015_Node000005" class="edge">
<title>Node15&#45;&gt;Node5</title>
<g id="a_edge35_Node000015_Node000005"><a xlink:title=" ">
<path fill="none" stroke="#63b8ff" d="M355.31,-112.89C368.12,-112.05 381.15,-111.23 393.5,-110.5 708.28,-91.91 793.56,-124.79 1107.67,-74.59"/>
<polygon fill="#63b8ff" stroke="#63b8ff" points="1108.13,-78.06 1117.45,-73.01 1107.02,-71.15 1108.13,-78.06"/>
</a>
</g>
</g>
<!-- Node15&#45;&gt;Node16 -->
<g id="edge18_Node000015_Node000016" class="edge">
<title>Node15&#45;&gt;Node16</title>
<g id="a_edge18_Node000015_Node000016"><a xlink:title=" ">
<path fill="none" stroke="#63b8ff" d="M293.98,-110.09C320.4,-101.41 360.56,-88.21 390.12,-78.49"/>
<polygon fill="#63b8ff" stroke="#63b8ff" points="391.04,-81.87 399.45,-75.43 388.85,-75.22 391.04,-81.87"/>
</a>
</g>
</g>
<!-- Node17 -->
<g id="Node000017" class="node">
<title>Node17</title>
<g id="a_Node000017"><a xlink:title=" ">
<polygon fill="#e0e0e0" stroke="#999999" points="246.62,-19.25 198.38,-19.25 198.38,0 246.62,0 246.62,-19.25"/>
<text text-anchor="middle" x="222.5" y="-5.75" font-family="Helvetica,sans-Serif" font-size="10.00">cstddef</text>
</a>
</g>
</g>
<!-- Node15&#45;&gt;Node17 -->
<g id="edge34_Node000015_Node000017" class="edge">
<title>Node15&#45;&gt;Node17</title>
<g id="a_edge34_Node000015_Node000017"><a xlink:title=" ">
<path fill="none" stroke="#63b8ff" d="M220.45,-110.08C200.62,-103.66 179.32,-92.79 167.5,-74.5 155.8,-56.39 175.78,-37.97 194.85,-25.6"/>
<polygon fill="#63b8ff" stroke="#63b8ff" points="196.54,-28.67 203.28,-20.49 192.91,-22.68 196.54,-28.67"/>
</a>
</g>
</g>
<!-- Node21 -->
<g id="Node000021" class="node">
<title>Node21</title>
<g id="a_Node000021"><a xlink:title=" ">
<polygon fill="#e0e0e0" stroke="#999999" points="152.5,-19.25 112.5,-19.25 112.5,0 152.5,0 152.5,-19.25"/>
<text text-anchor="middle" x="132.5" y="-5.75" font-family="Helvetica,sans-Serif" font-size="10.00">string</text>
</a>
</g>
</g>
<!-- Node15&#45;&gt;Node21 -->
<g id="edge38_Node000015_Node000021" class="edge">
<title>Node15&#45;&gt;Node21</title>
<g id="a_edge38_Node000015_Node000021"><a xlink:title=" ">
<path fill="none" stroke="#63b8ff" d="M226.38,-110.03C204.58,-103.33 178.49,-92.23 160.5,-74.5 148.36,-62.54 141.1,-44.42 137.03,-30.53"/>
<polygon fill="#63b8ff" stroke="#63b8ff" points="140.5,-29.95 134.61,-21.14 133.72,-31.7 140.5,-29.95"/>
</a>
</g>
</g>
<!-- Node24 -->
<g id="Node000024" class="node">
<title>Node24</title>
<g id="a_Node000024"><a xlink:href="daqdataformats_2include_2daqdataformats_2Types_8hpp.html" target="_top" xlink:title=" ">
<polygon fill="white" stroke="#666666" points="987.88,-74.5 857.12,-74.5 857.12,-55.25 987.88,-55.25 987.88,-74.5"/>
<text text-anchor="middle" x="922.5" y="-61" font-family="Helvetica,sans-Serif" font-size="10.00">daqdataformats/Types.hpp</text>
</a>
</g>
</g>
<!-- Node15&#45;&gt;Node24 -->
<g id="edge30_Node000015_Node000024" class="edge">
<title>Node15&#45;&gt;Node24</title>
<g id="a_edge30_Node000015_Node000024"><a xlink:title=" ">
<path fill="none" stroke="#63b8ff" d="M355.41,-112.71C488.96,-103.01 736.42,-84.75 845.32,-74.66"/>
<polygon fill="#63b8ff" stroke="#63b8ff" points="845.53,-78.15 855.16,-73.73 844.87,-71.19 845.53,-78.15"/>
</a>
</g>
</g>
<!-- Node25 -->
<g id="Node000025" class="node">
<title>Node25</title>
<g id="a_Node000025"><a xlink:title=" ">
<polygon fill="#e0e0e0" stroke="#999999" points="216.5,-74.5 176.5,-74.5 176.5,-55.25 216.5,-55.25 216.5,-74.5"/>
<text text-anchor="middle" x="196.5" y="-61" font-family="Helvetica,sans-Serif" font-size="10.00">bitset</text>
</a>
</g>
</g>
<!-- Node15&#45;&gt;Node25 -->
<g id="edge33_Node000015_Node000025" class="edge">
<title>Node15&#45;&gt;Node25</title>
<g id="a_edge33_Node000015_Node000025"><a xlink:title=" ">
<path fill="none" stroke="#63b8ff" d="M254.63,-110.09C244.41,-102.32 229.43,-90.92 217.24,-81.65"/>
<polygon fill="#63b8ff" stroke="#63b8ff" points="219.48,-78.96 209.4,-75.69 215.24,-84.53 219.48,-78.96"/>
</a>
</g>
</g>
<!-- Node26 -->
<g id="Node000026" class="node">
<title>Node26</title>
<g id="a_Node000026"><a xlink:title=" ">
<polygon fill="#e0e0e0" stroke="#999999" points="268.88,-74.5 234.12,-74.5 234.12,-55.25 268.88,-55.25 268.88,-74.5"/>
<text text-anchor="middle" x="251.5" y="-61" font-family="Helvetica,sans-Serif" font-size="10.00">map</text>
</a>
</g>
</g>
<!-- Node15&#45;&gt;Node26 -->
<g id="edge36_Node000015_Node000026" class="edge">
<title>Node15&#45;&gt;Node26</title>
<g id="a_edge36_Node000015_Node000026"><a xlink:title=" ">
<path fill="none" stroke="#63b8ff" d="M264.02,-110.33C262.15,-103.67 259.49,-94.24 257.11,-85.78"/>
<polygon fill="#63b8ff" stroke="#63b8ff" points="260.52,-84.99 254.44,-76.32 253.78,-86.89 260.52,-84.99"/>
</a>
</g>
</g>
<!-- Node27 -->
<g id="Node000027" class="node">
<title>Node27</title>
<g id="a_Node000027"><a xlink:title=" ">
<polygon fill="#e0e0e0" stroke="#999999" points="337.75,-74.5 287.25,-74.5 287.25,-55.25 337.75,-55.25 337.75,-74.5"/>
<text text-anchor="middle" x="312.5" y="-61" font-family="Helvetica,sans-Serif" font-size="10.00">numeric</text>
</a>
</g>
</g>
<!-- Node15&#45;&gt;Node27 -->
<g id="edge37_Node000015_Node000027" class="edge">
<title>Node15&#45;&gt;Node27</title>
<g id="a_edge37_Node000015_Node000027"><a xlink:title=" ">
<path fill="none" stroke="#63b8ff" d="M274.1,-110.33C280.38,-103.05 289.51,-92.48 297.3,-83.48"/>
<polygon fill="#63b8ff" stroke="#63b8ff" points="299.86,-85.86 303.75,-76 294.56,-81.28 299.86,-85.86"/>
</a>
</g>
</g>
<!-- Node15&#45;&gt;Node28 -->
<g id="edge39_Node000015_Node000028" class="edge">
<title>Node15&#45;&gt;Node28</title>
<g id="a_edge39_Node000015_Node000028"><a xlink:title=" ">
<path fill="none" stroke="#63b8ff" d="M231.55,-110.09C192.86,-100.09 130.96,-84.09 93.19,-74.33"/>
<polygon fill="#63b8ff" stroke="#63b8ff" points="94.32,-71 83.76,-71.89 92.57,-77.78 94.32,-71"/>
</a>
</g>
</g>
<!-- Node16&#45;&gt;Node4 -->
<g id="edge21_Node000016_Node000004" class="edge">
<title>Node16&#45;&gt;Node4</title>
<g id="a_edge21_Node000016_Node000004"><a xlink:title=" ">
<path fill="none" stroke="#63b8ff" d="M501.31,-55.2C599.27,-43.53 769.51,-23.25 841.64,-14.66"/>
<polygon fill="#63b8ff" stroke="#63b8ff" points="841.73,-18.17 851.25,-13.51 840.9,-11.22 841.73,-18.17"/>
</a>
</g>
</g>
<!-- Node16&#45;&gt;Node6 -->
<g id="edge24_Node000016_Node000006" class="edge">
<title>Node16&#45;&gt;Node6</title>
<g id="a_edge24_Node000016_Node000006"><a xlink:title=" ">
<path fill="none" stroke="#63b8ff" d="M501.24,-58.18C595.21,-50.58 763.79,-36.09 907.5,-19.25 917.14,-18.12 927.6,-16.71 937.1,-15.36"/>
<polygon fill="#63b8ff" stroke="#63b8ff" points="937.59,-18.82 946.98,-13.92 936.58,-11.9 937.59,-18.82"/>
</a>
</g>
</g>
<!-- Node16&#45;&gt;Node9 -->
<g id="edge25_Node000016_Node000009" class="edge">
<title>Node16&#45;&gt;Node9</title>
<g id="a_edge25_Node000016_Node000009"><a xlink:title=" ">
<path fill="none" stroke="#63b8ff" d="M479.9,-54.78C540.31,-44.09 639.07,-26.62 692.46,-17.18"/>
<polygon fill="#63b8ff" stroke="#63b8ff" points="693.02,-20.63 702.26,-15.44 691.8,-13.74 693.02,-20.63"/>
</a>
</g>
</g>
<!-- Node16&#45;&gt;Node11 -->
<g id="edge19_Node000016_Node000011" class="edge">
<title>Node16&#45;&gt;Node11</title>
<g id="a_edge19_Node000016_Node000011"><a xlink:title=" ">
<path fill="none" stroke="#63b8ff" d="M463.78,-54.84C502.02,-45.05 562.68,-29.52 601,-19.71"/>
<polygon fill="#63b8ff" stroke="#63b8ff" points="601.84,-23.11 610.66,-17.24 600.1,-16.33 601.84,-23.11"/>
</a>
</g>
</g>
<!-- Node16&#45;&gt;Node17 -->
<g id="edge20_Node000016_Node000017" class="edge">
<title>Node16&#45;&gt;Node17</title>
<g id="a_edge20_Node000016_Node000017"><a xlink:title=" ">
<path fill="none" stroke="#63b8ff" d="M393.55,-54.84C355.79,-45.08 295.94,-29.61 257.97,-19.79"/>
<polygon fill="#63b8ff" stroke="#63b8ff" points="258.96,-16.44 248.41,-17.32 257.21,-23.21 258.96,-16.44"/>
</a>
</g>
</g>
<!-- Node18 -->
<g id="Node000018" class="node">
<title>Node18</title>
<g id="a_Node000018"><a xlink:title=" ">
<polygon fill="#e0e0e0" stroke="#999999" points="446.38,-19.25 396.62,-19.25 396.62,0 446.38,0 446.38,-19.25"/>
<text text-anchor="middle" x="421.5" y="-5.75" font-family="Helvetica,sans-Serif" font-size="10.00">iomanip</text>
</a>
</g>
</g>
<!-- Node16&#45;&gt;Node18 -->
<g id="edge22_Node000016_Node000018" class="edge">
<title>Node16&#45;&gt;Node18</title>
<g id="a_edge22_Node000016_Node000018"><a xlink:title=" ">
<path fill="none" stroke="#63b8ff" d="M427.34,-55.08C426.48,-48.49 425.26,-39.21 424.16,-30.82"/>
<polygon fill="#63b8ff" stroke="#63b8ff" points="427.65,-30.57 422.88,-21.11 420.71,-31.48 427.65,-30.57"/>
</a>
</g>
</g>
<!-- Node19 -->
<g id="Node000019" class="node">
<title>Node19</title>
<g id="a_Node000019"><a xlink:title=" ">
<polygon fill="#e0e0e0" stroke="#999999" points="512.62,-19.25 464.38,-19.25 464.38,0 512.62,0 512.62,-19.25"/>
<text text-anchor="middle" x="488.5" y="-5.75" font-family="Helvetica,sans-Serif" font-size="10.00">istream</text>
</a>
</g>
</g>
<!-- Node16&#45;&gt;Node19 -->
<g id="edge23_Node000016_Node000019" class="edge">
<title>Node16&#45;&gt;Node19</title>
<g id="a_edge23_Node000016_Node000019"><a xlink:title=" ">
<path fill="none" stroke="#63b8ff" d="M438.68,-54.84C447.26,-47.22 459.77,-36.12 470.1,-26.95"/>
<polygon fill="#63b8ff" stroke="#63b8ff" points="472.18,-29.79 477.34,-20.53 467.54,-24.55 472.18,-29.79"/>
</a>
</g>
</g>
<!-- Node20 -->
<g id="Node000020" class="node">
<title>Node20</title>
<g id="a_Node000020"><a xlink:title=" ">
<polygon fill="#e0e0e0" stroke="#999999" points="582.12,-19.25 530.88,-19.25 530.88,0 582.12,0 582.12,-19.25"/>
<text text-anchor="middle" x="556.5" y="-5.75" font-family="Helvetica,sans-Serif" font-size="10.00">sstream</text>
</a>
</g>
</g>
<!-- Node16&#45;&gt;Node20 -->
<g id="edge26_Node000016_Node000020" class="edge">
<title>Node16&#45;&gt;Node20</title>
<g id="a_edge26_Node000016_Node000020"><a xlink:title=" ">
<path fill="none" stroke="#63b8ff" d="M450.21,-54.84C470.53,-46.39 501.15,-33.65 524.31,-24.02"/>
<polygon fill="#63b8ff" stroke="#63b8ff" points="525.39,-27.36 533.28,-20.28 522.71,-20.89 525.39,-27.36"/>
</a>
</g>
</g>
<!-- Node16&#45;&gt;Node21 -->
<g id="edge27_Node000016_Node000021" class="edge">
<title>Node16&#45;&gt;Node21</title>
<g id="a_edge27_Node000016_Node000021"><a xlink:title=" ">
<path fill="none" stroke="#63b8ff" d="M377.95,-54.78C316.65,-43.75 215.2,-25.5 164.06,-16.3"/>
<polygon fill="#63b8ff" stroke="#63b8ff" points="164.72,-12.87 154.26,-14.54 163.48,-19.76 164.72,-12.87"/>
</a>
</g>
</g>
<!-- Node16&#45;&gt;Node22 -->
<g id="edge28_Node000016_Node000022" class="edge">
<title>Node16&#45;&gt;Node22</title>
<g id="a_edge28_Node000016_Node000022"><a xlink:title=" ">
<path fill="none" stroke="#63b8ff" d="M358.48,-54.78C267.81,-43.01 113.72,-22.99 48.78,-14.56"/>
<polygon fill="#63b8ff" stroke="#63b8ff" points="49.24,-11.09 38.88,-13.27 48.34,-18.03 49.24,-11.09"/>
</a>
</g>
</g>
<!-- Node23 -->
<g id="Node000023" class="node">
<title>Node23</title>
<g id="a_Node000023"><a xlink:href="SourceID_8hxx.html" target="_top" xlink:title=" ">
<polygon fill="white" stroke="#666666" points="378.12,-19.25 278.88,-19.25 278.88,0 378.12,0 378.12,-19.25"/>
<text text-anchor="middle" x="328.5" y="-5.75" font-family="Helvetica,sans-Serif" font-size="10.00">detail/SourceID.hxx</text>
</a>
</g>
</g>
<!-- Node16&#45;&gt;Node23 -->
<g id="edge29_Node000016_Node000023" class="edge">
<title>Node16&#45;&gt;Node23</title>
<g id="a_edge29_Node000016_Node000023"><a xlink:title=" ">
<path fill="none" stroke="#63b8ff" d="M411.54,-54.84C396.24,-46.69 373.47,-34.57 355.64,-25.08"/>
<polygon fill="#63b8ff" stroke="#63b8ff" points="357.35,-22.02 346.88,-20.41 354.06,-28.2 357.35,-22.02"/>
</a>
</g>
</g>
<!-- Node24&#45;&gt;Node4 -->
<g id="edge31_Node000024_Node000004" class="edge">
<title>Node24&#45;&gt;Node4</title>
<g id="a_edge31_Node000024_Node000004"><a xlink:title=" ">
<path fill="none" stroke="#63b8ff" d="M914.74,-55.08C908.31,-47.8 898.99,-37.23 891.04,-28.23"/>
<polygon fill="#63b8ff" stroke="#63b8ff" points="893.67,-25.93 884.43,-20.74 888.42,-30.56 893.67,-25.93"/>
</a>
</g>
</g>
<!-- Node24&#45;&gt;Node6 -->
<g id="edge32_Node000024_Node000006" class="edge">
<title>Node24&#45;&gt;Node6</title>
<g id="a_edge32_Node000024_Node000006"><a xlink:title=" ">
<path fill="none" stroke="#63b8ff" d="M930.1,-55.08C936.38,-47.8 945.51,-37.23 953.3,-28.23"/>
<polygon fill="#63b8ff" stroke="#63b8ff" points="955.86,-30.61 959.75,-20.75 950.56,-26.03 955.86,-30.61"/>
</a>
</g>
</g>
<!-- Node34&#45;&gt;Node2 -->
<g id="edge51_Node000034_Node000002" class="edge">
<title>Node34&#45;&gt;Node2</title>
<g id="a_edge51_Node000034_Node000002"><a xlink:title=" ">
<path fill="none" stroke="#63b8ff" d="M1107.5,-287.33C1107.5,-280.82 1107.5,-271.67 1107.5,-263.37"/>
<polygon fill="#63b8ff" stroke="#63b8ff" points="1111,-263.37 1107.5,-253.37 1104,-263.37 1111,-263.37"/>
</a>
</g>
</g>
<!-- Node35 -->
<g id="Node000035" class="node">
<title>Node35</title>
<g id="a_Node000035"><a xlink:title=" ">
<polygon fill="#e0e0e0" stroke="#999999" points="1042.38,-251.5 926.62,-251.5 926.62,-232.25 1042.38,-232.25 1042.38,-251.5"/>
<text text-anchor="middle" x="984.5" y="-238" font-family="Helvetica,sans-Serif" font-size="10.00">boost/thread/future.hpp</text>
</a>
</g>
</g>
<!-- Node34&#45;&gt;Node35 -->
<g id="edge52_Node000034_Node000035" class="edge">
<title>Node34&#45;&gt;Node35</title>
<g id="a_edge52_Node000034_Node000035"><a xlink:title=" ">
<path fill="none" stroke="#63b8ff" d="M1086.63,-287.09C1067.2,-278.68 1037.96,-266.02 1015.74,-256.4"/>
<polygon fill="#63b8ff" stroke="#63b8ff" points="1017.42,-253.31 1006.86,-252.55 1014.64,-259.74 1017.42,-253.31"/>
</a>
</g>
</g>
</g>
</svg>
