<?xml version="1.0" encoding="UTF-8" standalone="no"?>
<!DOCTYPE svg PUBLIC "-//W3C//DTD SVG 1.1//EN"
 "http://www.w3.org/Graphics/SVG/1.1/DTD/svg11.dtd">
<!-- Generated by graphviz version 9.0.0 (20230911.1827)
 -->
<!-- Title: /github/workspace/dev_area/sourcecode/uhallibs/src/ProtocolAxi4Lite.cpp Pages: 1 -->
<svg width="1174pt" height="227pt"
 viewBox="0.00 0.00 1173.62 226.75" xmlns="http://www.w3.org/2000/svg" xmlns:xlink="http://www.w3.org/1999/xlink">
<g id="graph0" class="graph" transform="scale(1 1) rotate(0) translate(4 222.75)">
<title>/github/workspace/dev_area/sourcecode/uhallibs/src/ProtocolAxi4Lite.cpp</title>
<!-- Node1 -->
<g id="Node000001" class="node">
<title>Node1</title>
<g id="a_Node000001"><a xlink:title=" ">
<polygon fill="#999999" stroke="#666666" points="833.38,-218.75 704.12,-218.75 704.12,-177 833.38,-177 833.38,-218.75"/>
<text text-anchor="start" x="712.12" y="-205.25" font-family="Helvetica,sans-Serif" font-size="10.00">/github/workspace/dev</text>
<text text-anchor="start" x="712.12" y="-194" font-family="Helvetica,sans-Serif" font-size="10.00">_area/sourcecode/uhallibs</text>
<text text-anchor="middle" x="768.75" y="-182.75" font-family="Helvetica,sans-Serif" font-size="10.00">/src/ProtocolAxi4Lite.cpp</text>
</a>
</g>
</g>
<!-- Node2 -->
<g id="Node000002" class="node">
<title>Node2</title>
<g id="a_Node000002"><a xlink:href="ProtocolAxi4Lite_8hpp.html" target="_top" xlink:title=" ">
<polygon fill="white" stroke="#666666" points="584.38,-141 443.12,-141 443.12,-121.75 584.38,-121.75 584.38,-141"/>
<text text-anchor="middle" x="513.75" y="-127.5" font-family="Helvetica,sans-Serif" font-size="10.00">uhallibs/ProtocolAxi4Lite.hpp</text>
</a>
</g>
</g>
<!-- Node1&#45;&gt;Node2 -->
<g id="edge1_Node000001_Node000002" class="edge">
<title>Node1&#45;&gt;Node2</title>
<g id="a_edge1_Node000001_Node000002"><a xlink:title=" ">
<path fill="none" stroke="#63b8ff" d="M703.74,-180.43C659.06,-169.13 600.77,-154.39 560.6,-144.23"/>
<polygon fill="#63b8ff" stroke="#63b8ff" points="561.54,-140.85 550.99,-141.79 559.83,-147.64 561.54,-140.85"/>
</a>
</g>
</g>
<!-- Node15 -->
<g id="Node000015" class="node">
<title>Node15</title>
<g id="a_Node000015"><a xlink:href="formatters_8hpp.html" target="_top" xlink:title=" ">
<polygon fill="white" stroke="#666666" points="143.88,-85.75 29.62,-85.75 29.62,-66.5 143.88,-66.5 143.88,-85.75"/>
<text text-anchor="middle" x="86.75" y="-72.25" font-family="Helvetica,sans-Serif" font-size="10.00">uhallibs/formatters.hpp</text>
</a>
</g>
</g>
<!-- Node1&#45;&gt;Node15 -->
<g id="edge31_Node000001_Node000015" class="edge">
<title>Node1&#45;&gt;Node15</title>
<g id="a_edge31_Node000001_Node000015"><a xlink:title=" ">
<path fill="none" stroke="#63b8ff" d="M703.85,-186.38C636.32,-175.38 527.54,-157.45 433.75,-141 332.45,-123.23 214.76,-101.29 145.76,-88.3"/>
<polygon fill="#63b8ff" stroke="#63b8ff" points="146.66,-84.91 136.18,-86.49 145.36,-91.79 146.66,-84.91"/>
</a>
</g>
</g>
<!-- Node20 -->
<g id="Node000020" class="node">
<title>Node20</title>
<g id="a_Node000020"><a xlink:title=" ">
<polygon fill="#e0e0e0" stroke="#999999" points="644.88,-141 602.62,-141 602.62,-121.75 644.88,-121.75 644.88,-141"/>
<text text-anchor="middle" x="623.75" y="-127.5" font-family="Helvetica,sans-Serif" font-size="10.00">fcntl.h</text>
</a>
</g>
</g>
<!-- Node1&#45;&gt;Node20 -->
<g id="edge26_Node000001_Node000020" class="edge">
<title>Node1&#45;&gt;Node20</title>
<g id="a_edge26_Node000001_Node000020"><a xlink:title=" ">
<path fill="none" stroke="#63b8ff" d="M723.27,-176.64C700.84,-166.67 674.4,-154.9 654.4,-146.01"/>
<polygon fill="#63b8ff" stroke="#63b8ff" points="655.97,-142.88 645.41,-142.01 653.12,-149.27 655.97,-142.88"/>
</a>
</g>
</g>
<!-- Node21 -->
<g id="Node000021" class="node">
<title>Node21</title>
<g id="a_Node000021"><a xlink:title=" ">
<polygon fill="#e0e0e0" stroke="#999999" points="716.5,-141 663,-141 663,-121.75 716.5,-121.75 716.5,-141"/>
<text text-anchor="middle" x="689.75" y="-127.5" font-family="Helvetica,sans-Serif" font-size="10.00">sys/file.h</text>
</a>
</g>
</g>
<!-- Node1&#45;&gt;Node21 -->
<g id="edge27_Node000001_Node000021" class="edge">
<title>Node1&#45;&gt;Node21</title>
<g id="a_edge27_Node000001_Node000021"><a xlink:title=" ">
<path fill="none" stroke="#63b8ff" d="M744.19,-176.82C733.09,-167.76 720.15,-157.19 709.67,-148.64"/>
<polygon fill="#63b8ff" stroke="#63b8ff" points="711.99,-146.02 702.03,-142.4 707.56,-151.44 711.99,-146.02"/>
</a>
</g>
</g>
<!-- Node22 -->
<g id="Node000022" class="node">
<title>Node22</title>
<g id="a_Node000022"><a xlink:title=" ">
<polygon fill="#e0e0e0" stroke="#999999" points="803,-141 734.5,-141 734.5,-121.75 803,-121.75 803,-141"/>
<text text-anchor="middle" x="768.75" y="-127.5" font-family="Helvetica,sans-Serif" font-size="10.00">sys/mman.h</text>
</a>
</g>
</g>
<!-- Node1&#45;&gt;Node22 -->
<g id="edge28_Node000001_Node000022" class="edge">
<title>Node1&#45;&gt;Node22</title>
<g id="a_edge28_Node000001_Node000022"><a xlink:title=" ">
<path fill="none" stroke="#63b8ff" d="M768.75,-176.82C768.75,-169.15 768.75,-160.39 768.75,-152.7"/>
<polygon fill="#63b8ff" stroke="#63b8ff" points="772.25,-152.96 768.75,-142.96 765.25,-152.96 772.25,-152.96"/>
</a>
</g>
</g>
<!-- Node23 -->
<g id="Node000023" class="node">
<title>Node23</title>
<g id="a_Node000023"><a xlink:title=" ">
<polygon fill="#e0e0e0" stroke="#999999" points="870.62,-141 820.88,-141 820.88,-121.75 870.62,-121.75 870.62,-141"/>
<text text-anchor="middle" x="845.75" y="-127.5" font-family="Helvetica,sans-Serif" font-size="10.00">unistd.h</text>
</a>
</g>
</g>
<!-- Node1&#45;&gt;Node23 -->
<g id="edge29_Node000001_Node000023" class="edge">
<title>Node1&#45;&gt;Node23</title>
<g id="a_edge29_Node000001_Node000023"><a xlink:title=" ">
<path fill="none" stroke="#63b8ff" d="M792.69,-176.82C803.51,-167.76 816.12,-157.19 826.34,-148.64"/>
<polygon fill="#63b8ff" stroke="#63b8ff" points="828.34,-151.52 833.76,-142.42 823.85,-146.16 828.34,-151.52"/>
</a>
</g>
</g>
<!-- Node24 -->
<g id="Node000024" class="node">
<title>Node24</title>
<g id="a_Node000024"><a xlink:title=" ">
<polygon fill="#e0e0e0" stroke="#999999" points="931.25,-141 888.25,-141 888.25,-121.75 931.25,-121.75 931.25,-141"/>
<text text-anchor="middle" x="909.75" y="-127.5" font-family="Helvetica,sans-Serif" font-size="10.00">thread</text>
</a>
</g>
</g>
<!-- Node1&#45;&gt;Node24 -->
<g id="edge30_Node000001_Node000024" class="edge">
<title>Node1&#45;&gt;Node24</title>
<g id="a_edge30_Node000001_Node000024"><a xlink:title=" ">
<path fill="none" stroke="#63b8ff" d="M812.98,-176.64C834.68,-166.71 860.26,-155.01 879.67,-146.13"/>
<polygon fill="#63b8ff" stroke="#63b8ff" points="881.02,-149.37 888.66,-142.02 878.11,-143 881.02,-149.37"/>
</a>
</g>
</g>
<!-- Node25 -->
<g id="Node000025" class="node">
<title>Node25</title>
<g id="a_Node000025"><a xlink:title=" ">
<polygon fill="#e0e0e0" stroke="#999999" points="1061.75,-141 949.75,-141 949.75,-121.75 1061.75,-121.75 1061.75,-141"/>
<text text-anchor="middle" x="1005.75" y="-127.5" font-family="Helvetica,sans-Serif" font-size="10.00">uhal/ClientFactory.hpp</text>
</a>
</g>
</g>
<!-- Node1&#45;&gt;Node25 -->
<g id="edge32_Node000001_Node000025" class="edge">
<title>Node1&#45;&gt;Node25</title>
<g id="a_edge32_Node000001_Node000025"><a xlink:title=" ">
<path fill="none" stroke="#63b8ff" d="M833.82,-179.16C874.38,-168.13 925.5,-154.22 961.42,-144.44"/>
<polygon fill="#63b8ff" stroke="#63b8ff" points="962.32,-147.82 971.05,-141.82 960.48,-141.07 962.32,-147.82"/>
</a>
</g>
</g>
<!-- Node26 -->
<g id="Node000026" class="node">
<title>Node26</title>
<g id="a_Node000026"><a xlink:title=" ">
<polygon fill="#e0e0e0" stroke="#999999" points="1165.62,-141 1079.88,-141 1079.88,-121.75 1165.62,-121.75 1165.62,-141"/>
<text text-anchor="middle" x="1122.75" y="-127.5" font-family="Helvetica,sans-Serif" font-size="10.00">uhal/Buffers.hpp</text>
</a>
</g>
</g>
<!-- Node1&#45;&gt;Node26 -->
<g id="edge33_Node000001_Node000026" class="edge">
<title>Node1&#45;&gt;Node26</title>
<g id="a_edge33_Node000001_Node000026"><a xlink:title=" ">
<path fill="none" stroke="#63b8ff" d="M833.68,-185.04C900.95,-172.79 1004.91,-153.85 1068.11,-142.33"/>
<polygon fill="#63b8ff" stroke="#63b8ff" points="1068.72,-145.78 1077.93,-140.54 1067.47,-138.89 1068.72,-145.78"/>
</a>
</g>
</g>
<!-- Node3 -->
<g id="Node000003" class="node">
<title>Node3</title>
<g id="a_Node000003"><a xlink:title=" ">
<polygon fill="#e0e0e0" stroke="#999999" points="1133,-85.75 1082.5,-85.75 1082.5,-66.5 1133,-66.5 1133,-85.75"/>
<text text-anchor="middle" x="1107.75" y="-72.25" font-family="Helvetica,sans-Serif" font-size="10.00">stddef.h</text>
</a>
</g>
</g>
<!-- Node2&#45;&gt;Node3 -->
<g id="edge2_Node000002_Node000003" class="edge">
<title>Node2&#45;&gt;Node3</title>
<g id="a_edge2_Node000002_Node000003"><a xlink:title=" ">
<path fill="none" stroke="#63b8ff" d="M584.84,-122.59C587.85,-122.3 590.83,-122.02 593.75,-121.75 802.72,-102.64 859.99,-118.83 1071.08,-85.71"/>
<polygon fill="#63b8ff" stroke="#63b8ff" points="1071.42,-89.2 1080.74,-84.17 1070.32,-82.28 1071.42,-89.2"/>
</a>
</g>
</g>
<!-- Node4 -->
<g id="Node000004" class="node">
<title>Node4</title>
<g id="a_Node000004"><a xlink:title=" ">
<polygon fill="#e0e0e0" stroke="#999999" points="47.5,-24.88 0,-24.88 0,-5.63 47.5,-5.63 47.5,-24.88"/>
<text text-anchor="middle" x="23.75" y="-11.38" font-family="Helvetica,sans-Serif" font-size="10.00">stdint.h</text>
</a>
</g>
</g>
<!-- Node2&#45;&gt;Node4 -->
<g id="edge3_Node000002_Node000004" class="edge">
<title>Node2&#45;&gt;Node4</title>
<g id="a_edge3_Node000002_Node000004"><a xlink:title=" ">
<path fill="none" stroke="#63b8ff" d="M442.7,-129.13C313,-126.12 48.63,-116.26 20.75,-85.75 8.68,-72.53 11.59,-51.32 16.18,-35.81"/>
<polygon fill="#63b8ff" stroke="#63b8ff" points="19.37,-37.3 19.31,-26.71 12.75,-35.03 19.37,-37.3"/>
</a>
</g>
</g>
<!-- Node5 -->
<g id="Node000005" class="node">
<title>Node5</title>
<g id="a_Node000005"><a xlink:title=" ">
<polygon fill="#e0e0e0" stroke="#999999" points="505.38,-85.75 460.12,-85.75 460.12,-66.5 505.38,-66.5 505.38,-85.75"/>
<text text-anchor="middle" x="482.75" y="-72.25" font-family="Helvetica,sans-Serif" font-size="10.00">chrono</text>
</a>
</g>
</g>
<!-- Node2&#45;&gt;Node5 -->
<g id="edge4_Node000002_Node000005" class="edge">
<title>Node2&#45;&gt;Node5</title>
<g id="a_edge4_Node000002_Node000005"><a xlink:title=" ">
<path fill="none" stroke="#63b8ff" d="M508.63,-121.58C504.57,-114.61 498.76,-104.62 493.66,-95.87"/>
<polygon fill="#63b8ff" stroke="#63b8ff" points="496.8,-94.3 488.74,-87.42 490.75,-97.82 496.8,-94.3"/>
</a>
</g>
</g>
<!-- Node6 -->
<g id="Node000006" class="node">
<title>Node6</title>
<g id="a_Node000006"><a xlink:title=" ">
<polygon fill="#e0e0e0" stroke="#999999" points="565.88,-85.75 523.62,-85.75 523.62,-66.5 565.88,-66.5 565.88,-85.75"/>
<text text-anchor="middle" x="544.75" y="-72.25" font-family="Helvetica,sans-Serif" font-size="10.00">deque</text>
</a>
</g>
</g>
<!-- Node2&#45;&gt;Node6 -->
<g id="edge5_Node000002_Node000006" class="edge">
<title>Node2&#45;&gt;Node6</title>
<g id="a_edge5_Node000002_Node000006"><a xlink:title=" ">
<path fill="none" stroke="#63b8ff" d="M518.87,-121.58C522.93,-114.61 528.74,-104.62 533.84,-95.87"/>
<polygon fill="#63b8ff" stroke="#63b8ff" points="536.75,-97.82 538.76,-87.42 530.7,-94.3 536.75,-97.82"/>
</a>
</g>
</g>
<!-- Node7 -->
<g id="Node000007" class="node">
<title>Node7</title>
<g id="a_Node000007"><a xlink:title=" ">
<polygon fill="#e0e0e0" stroke="#999999" points="634,-85.75 583.5,-85.75 583.5,-66.5 634,-66.5 634,-85.75"/>
<text text-anchor="middle" x="608.75" y="-72.25" font-family="Helvetica,sans-Serif" font-size="10.00">memory</text>
</a>
</g>
</g>
<!-- Node2&#45;&gt;Node7 -->
<g id="edge6_Node000002_Node000007" class="edge">
<title>Node2&#45;&gt;Node7</title>
<g id="a_edge6_Node000002_Node000007"><a xlink:title=" ">
<path fill="none" stroke="#63b8ff" d="M529.87,-121.34C544.33,-113.23 565.83,-101.18 582.73,-91.71"/>
<polygon fill="#63b8ff" stroke="#63b8ff" points="584.22,-94.89 591.24,-86.94 580.8,-88.78 584.22,-94.89"/>
</a>
</g>
</g>
<!-- Node8 -->
<g id="Node000008" class="node">
<title>Node8</title>
<g id="a_Node000008"><a xlink:title=" ">
<polygon fill="#e0e0e0" stroke="#999999" points="693.88,-85.75 651.62,-85.75 651.62,-66.5 693.88,-66.5 693.88,-85.75"/>
<text text-anchor="middle" x="672.75" y="-72.25" font-family="Helvetica,sans-Serif" font-size="10.00">mutex</text>
</a>
</g>
</g>
<!-- Node2&#45;&gt;Node8 -->
<g id="edge7_Node000002_Node000008" class="edge">
<title>Node2&#45;&gt;Node8</title>
<g id="a_edge7_Node000002_Node000008"><a xlink:title=" ">
<path fill="none" stroke="#63b8ff" d="M540.72,-121.34C568.25,-112.12 611,-97.8 640.35,-87.98"/>
<polygon fill="#63b8ff" stroke="#63b8ff" points="641.46,-91.3 649.83,-84.8 639.24,-84.66 641.46,-91.3"/>
</a>
</g>
</g>
<!-- Node9 -->
<g id="Node000009" class="node">
<title>Node9</title>
<g id="a_Node000009"><a xlink:title=" ">
<polygon fill="#e0e0e0" stroke="#999999" points="265.75,-24.88 225.75,-24.88 225.75,-5.63 265.75,-5.63 265.75,-24.88"/>
<text text-anchor="middle" x="245.75" y="-11.38" font-family="Helvetica,sans-Serif" font-size="10.00">string</text>
</a>
</g>
</g>
<!-- Node2&#45;&gt;Node9 -->
<g id="edge8_Node000002_Node000009" class="edge">
<title>Node2&#45;&gt;Node9</title>
<g id="a_edge8_Node000002_Node000009"><a xlink:title=" ">
<path fill="none" stroke="#63b8ff" d="M442.66,-125.7C379.12,-120.1 292.24,-108.48 266.75,-85.75 252.79,-73.31 247.96,-51.95 246.36,-36.18"/>
<polygon fill="#63b8ff" stroke="#63b8ff" points="249.88,-36.29 245.76,-26.53 242.89,-36.73 249.88,-36.29"/>
</a>
</g>
</g>
<!-- Node10 -->
<g id="Node000010" class="node">
<title>Node10</title>
<g id="a_Node000010"><a xlink:title=" ">
<polygon fill="#e0e0e0" stroke="#999999" points="116,-24.88 77.5,-24.88 77.5,-5.63 116,-5.63 116,-24.88"/>
<text text-anchor="middle" x="96.75" y="-11.38" font-family="Helvetica,sans-Serif" font-size="10.00">utility</text>
</a>
</g>
</g>
<!-- Node2&#45;&gt;Node10 -->
<g id="edge9_Node000002_Node000010" class="edge">
<title>Node2&#45;&gt;Node10</title>
<g id="a_edge9_Node000002_Node000010"><a xlink:title=" ">
<path fill="none" stroke="#63b8ff" d="M442.69,-127.3C381.15,-122.87 290.5,-112.08 215.75,-85.75 178.79,-72.73 140.42,-47.93 117.57,-31.75"/>
<polygon fill="#63b8ff" stroke="#63b8ff" points="119.88,-29.1 109.73,-26.08 115.78,-34.77 119.88,-29.1"/>
</a>
</g>
</g>
<!-- Node11 -->
<g id="Node000011" class="node">
<title>Node11</title>
<g id="a_Node000011"><a xlink:title=" ">
<polygon fill="#e0e0e0" stroke="#999999" points="188.25,-24.88 145.25,-24.88 145.25,-5.63 188.25,-5.63 188.25,-24.88"/>
<text text-anchor="middle" x="166.75" y="-11.38" font-family="Helvetica,sans-Serif" font-size="10.00">vector</text>
</a>
</g>
</g>
<!-- Node2&#45;&gt;Node11 -->
<g id="edge10_Node000002_Node000011" class="edge">
<title>Node2&#45;&gt;Node11</title>
<g id="a_edge10_Node000002_Node000011"><a xlink:title=" ">
<path fill="none" stroke="#63b8ff" d="M442.69,-128.43C387.78,-124.59 311.06,-114.04 249.75,-85.75 222.68,-73.26 197.29,-49.56 181.89,-33.35"/>
<polygon fill="#63b8ff" stroke="#63b8ff" points="184.79,-31.33 175.44,-26.34 179.64,-36.07 184.79,-31.33"/>
</a>
</g>
</g>
<!-- Node12 -->
<g id="Node000012" class="node">
<title>Node12</title>
<g id="a_Node000012"><a xlink:title=" ">
<polygon fill="#e0e0e0" stroke="#999999" points="780.75,-24.88 662.75,-24.88 662.75,-5.63 780.75,-5.63 780.75,-24.88"/>
<text text-anchor="middle" x="721.75" y="-11.38" font-family="Helvetica,sans-Serif" font-size="10.00">uhal/ClientInterface.hpp</text>
</a>
</g>
</g>
<!-- Node2&#45;&gt;Node12 -->
<g id="edge11_Node000002_Node000012" class="edge">
<title>Node2&#45;&gt;Node12</title>
<g id="a_edge11_Node000002_Node000012"><a xlink:title=" ">
<path fill="none" stroke="#63b8ff" d="M584.54,-121.29C630.84,-113.95 685.77,-102.14 702.75,-85.75 715.96,-73 720.27,-52.02 721.54,-36.45"/>
<polygon fill="#63b8ff" stroke="#63b8ff" points="725.02,-37.03 721.95,-26.88 718.02,-36.72 725.02,-37.03"/>
</a>
</g>
</g>
<!-- Node13 -->
<g id="Node000013" class="node">
<title>Node13</title>
<g id="a_Node000013"><a xlink:title=" ">
<polygon fill="#e0e0e0" stroke="#999999" points="1064,-85.75 947.5,-85.75 947.5,-66.5 1064,-66.5 1064,-85.75"/>
<text text-anchor="middle" x="1005.75" y="-72.25" font-family="Helvetica,sans-Serif" font-size="10.00">uhal/ProtocolIPbus.hpp</text>
</a>
</g>
</g>
<!-- Node2&#45;&gt;Node13 -->
<g id="edge12_Node000002_Node000013" class="edge">
<title>Node2&#45;&gt;Node13</title>
<g id="a_edge12_Node000002_Node000013"><a xlink:title=" ">
<path fill="none" stroke="#63b8ff" d="M584.85,-122.7C587.86,-122.38 590.83,-122.06 593.75,-121.75 744.85,-105.61 782.75,-102.79 933.75,-85.75 934.43,-85.67 935.12,-85.59 935.81,-85.52"/>
<polygon fill="#63b8ff" stroke="#63b8ff" points="936.17,-89 945.71,-84.38 935.37,-82.04 936.17,-89"/>
</a>
</g>
</g>
<!-- Node14 -->
<g id="Node000014" class="node">
<title>Node14</title>
<g id="a_Node000014"><a xlink:title=" ">
<polygon fill="#e0e0e0" stroke="#999999" points="974.75,-24.88 862.75,-24.88 862.75,-5.63 974.75,-5.63 974.75,-24.88"/>
<text text-anchor="middle" x="918.75" y="-11.38" font-family="Helvetica,sans-Serif" font-size="10.00">uhal/log/exception.hpp</text>
</a>
</g>
</g>
<!-- Node2&#45;&gt;Node14 -->
<g id="edge13_Node000002_Node000014" class="edge">
<title>Node2&#45;&gt;Node14</title>
<g id="a_edge13_Node000002_Node000014"><a xlink:title=" ">
<path fill="none" stroke="#63b8ff" d="M584.51,-122.72C695.38,-110.66 897.79,-88.33 900.75,-85.75 914.7,-73.61 918.53,-52.2 919.28,-36.35"/>
<polygon fill="#63b8ff" stroke="#63b8ff" points="922.78,-36.64 919.35,-26.61 915.78,-36.59 922.78,-36.64"/>
</a>
</g>
</g>
<!-- Node2&#45;&gt;Node15 -->
<g id="edge14_Node000002_Node000015" class="edge">
<title>Node2&#45;&gt;Node15</title>
<g id="a_edge14_Node000002_Node000015"><a xlink:title=" ">
<path fill="none" stroke="#63b8ff" d="M442.76,-121.52C362.97,-111.57 234.31,-95.53 155.47,-85.69"/>
<polygon fill="#63b8ff" stroke="#63b8ff" points="156.06,-82.24 145.71,-84.48 155.2,-89.19 156.06,-82.24"/>
</a>
</g>
</g>
<!-- Node16 -->
<g id="Node000016" class="node">
<title>Node16</title>
<g id="a_Node000016"><a xlink:href="RobustMutex_8hpp.html" target="_top" xlink:title=" ">
<polygon fill="white" stroke="#666666" points="892.12,-85.75 749.38,-85.75 749.38,-66.5 892.12,-66.5 892.12,-85.75"/>
<text text-anchor="middle" x="820.75" y="-72.25" font-family="Helvetica,sans-Serif" font-size="10.00">uhallibs/ipc/RobustMutex.hpp</text>
</a>
</g>
</g>
<!-- Node2&#45;&gt;Node16 -->
<g id="edge19_Node000002_Node000016" class="edge">
<title>Node2&#45;&gt;Node16</title>
<g id="a_edge19_Node000002_Node000016"><a xlink:title=" ">
<path fill="none" stroke="#63b8ff" d="M566.18,-121.28C618.97,-112.12 700.47,-97.99 756.98,-88.19"/>
<polygon fill="#63b8ff" stroke="#63b8ff" points="757.54,-91.64 766.79,-86.48 756.34,-84.74 757.54,-91.64"/>
</a>
</g>
</g>
<!-- Node18 -->
<g id="Node000018" class="node">
<title>Node18</title>
<g id="a_Node000018"><a xlink:href="SharedMemObject_8hpp.html" target="_top" xlink:title=" ">
<polygon fill="white" stroke="#666666" points="442.12,-85.75 275.38,-85.75 275.38,-66.5 442.12,-66.5 442.12,-85.75"/>
<text text-anchor="middle" x="358.75" y="-72.25" font-family="Helvetica,sans-Serif" font-size="10.00">uhallibs/ipc/SharedMemObject.hpp</text>
</a>
</g>
</g>
<!-- Node2&#45;&gt;Node18 -->
<g id="edge23_Node000002_Node000018" class="edge">
<title>Node2&#45;&gt;Node18</title>
<g id="a_edge23_Node000002_Node000018"><a xlink:title=" ">
<path fill="none" stroke="#63b8ff" d="M487.46,-121.34C462.29,-112.7 424.1,-99.57 395.84,-89.87"/>
<polygon fill="#63b8ff" stroke="#63b8ff" points="397.2,-86.63 386.6,-86.69 394.92,-93.25 397.2,-86.63"/>
</a>
</g>
</g>
<!-- Node15&#45;&gt;Node4 -->
<g id="edge15_Node000015_Node000004" class="edge">
<title>Node15&#45;&gt;Node4</title>
<g id="a_edge15_Node000015_Node000004"><a xlink:title=" ">
<path fill="none" stroke="#63b8ff" d="M77.18,-66.18C67.75,-57.37 53.1,-43.68 41.52,-32.86"/>
<polygon fill="#63b8ff" stroke="#63b8ff" points="44.21,-30.58 34.51,-26.31 39.43,-35.69 44.21,-30.58"/>
</a>
</g>
</g>
<!-- Node15&#45;&gt;Node9 -->
<g id="edge16_Node000015_Node000009" class="edge">
<title>Node15&#45;&gt;Node9</title>
<g id="a_edge16_Node000015_Node000009"><a xlink:title=" ">
<path fill="none" stroke="#63b8ff" d="M111.25,-66.05C139.05,-55.76 184.47,-38.94 214.73,-27.74"/>
<polygon fill="#63b8ff" stroke="#63b8ff" points="215.93,-31.02 224.1,-24.27 213.5,-24.46 215.93,-31.02"/>
</a>
</g>
</g>
<!-- Node15&#45;&gt;Node10 -->
<g id="edge18_Node000015_Node000010" class="edge">
<title>Node15&#45;&gt;Node10</title>
<g id="a_edge18_Node000015_Node000010"><a xlink:title=" ">
<path fill="none" stroke="#63b8ff" d="M88.27,-66.18C89.61,-58.32 91.6,-46.57 93.32,-36.45"/>
<polygon fill="#63b8ff" stroke="#63b8ff" points="96.74,-37.21 94.96,-26.77 89.84,-36.04 96.74,-37.21"/>
</a>
</g>
</g>
<!-- Node15&#45;&gt;Node11 -->
<g id="edge17_Node000015_Node000011" class="edge">
<title>Node15&#45;&gt;Node11</title>
<g id="a_edge17_Node000015_Node000011"><a xlink:title=" ">
<path fill="none" stroke="#63b8ff" d="M98.9,-66.18C111.23,-57.11 130.58,-42.87 145.47,-31.91"/>
<polygon fill="#63b8ff" stroke="#63b8ff" points="147.29,-34.92 153.27,-26.17 143.14,-29.28 147.29,-34.92"/>
</a>
</g>
</g>
<!-- Node16&#45;&gt;Node12 -->
<g id="edge21_Node000016_Node000012" class="edge">
<title>Node16&#45;&gt;Node12</title>
<g id="a_edge21_Node000016_Node000012"><a xlink:title=" ">
<path fill="none" stroke="#63b8ff" d="M805.71,-66.18C790.09,-56.89 765.36,-42.19 746.78,-31.14"/>
<polygon fill="#63b8ff" stroke="#63b8ff" points="748.61,-28.15 738.23,-26.05 745.03,-34.17 748.61,-28.15"/>
</a>
</g>
</g>
<!-- Node16&#45;&gt;Node14 -->
<g id="edge22_Node000016_Node000014" class="edge">
<title>Node16&#45;&gt;Node14</title>
<g id="a_edge22_Node000016_Node000014"><a xlink:title=" ">
<path fill="none" stroke="#63b8ff" d="M835.63,-66.18C851.1,-56.89 875.58,-42.19 893.97,-31.14"/>
<polygon fill="#63b8ff" stroke="#63b8ff" points="895.66,-34.21 902.43,-26.06 892.05,-28.21 895.66,-34.21"/>
</a>
</g>
</g>
<!-- Node17 -->
<g id="Node000017" class="node">
<title>Node17</title>
<g id="a_Node000017"><a xlink:title=" ">
<polygon fill="#e0e0e0" stroke="#999999" points="844.38,-24.88 799.12,-24.88 799.12,-5.63 844.38,-5.63 844.38,-24.88"/>
<text text-anchor="middle" x="821.75" y="-11.38" font-family="Helvetica,sans-Serif" font-size="10.00">cstdint</text>
</a>
</g>
</g>
<!-- Node16&#45;&gt;Node17 -->
<g id="edge20_Node000016_Node000017" class="edge">
<title>Node16&#45;&gt;Node17</title>
<g id="a_edge20_Node000016_Node000017"><a xlink:title=" ">
<path fill="none" stroke="#63b8ff" d="M820.9,-66.18C821.03,-58.4 821.23,-46.83 821.4,-36.78"/>
<polygon fill="#63b8ff" stroke="#63b8ff" points="824.9,-36.85 821.57,-26.79 817.9,-36.73 824.9,-36.85"/>
</a>
</g>
</g>
<!-- Node18&#45;&gt;Node9 -->
<g id="edge24_Node000018_Node000009" class="edge">
<title>Node18&#45;&gt;Node9</title>
<g id="a_edge24_Node000018_Node000009"><a xlink:title=" ">
<path fill="none" stroke="#63b8ff" d="M341.59,-66.18C323.42,-56.72 294.47,-41.64 273.14,-30.52"/>
<polygon fill="#63b8ff" stroke="#63b8ff" points="274.9,-27.49 264.42,-25.98 271.67,-33.7 274.9,-27.49"/>
</a>
</g>
</g>
<!-- Node19 -->
<g id="Node000019" class="node">
<title>Node19</title>
<g id="a_Node000019"><a xlink:title=" ">
<polygon fill="#e0e0e0" stroke="#999999" points="435.25,-30.5 284.25,-30.5 284.25,0 435.25,0 435.25,-30.5"/>
<text text-anchor="start" x="292.25" y="-17" font-family="Helvetica,sans-Serif" font-size="10.00">boost/interprocess</text>
<text text-anchor="middle" x="359.75" y="-5.75" font-family="Helvetica,sans-Serif" font-size="10.00">/managed_shared_memory.hpp</text>
</a>
</g>
</g>
<!-- Node18&#45;&gt;Node19 -->
<g id="edge25_Node000018_Node000019" class="edge">
<title>Node18&#45;&gt;Node19</title>
<g id="a_edge25_Node000018_Node000019"><a xlink:title=" ">
<path fill="none" stroke="#63b8ff" d="M358.9,-66.18C359.01,-59.73 359.17,-50.66 359.31,-42.01"/>
<polygon fill="#63b8ff" stroke="#63b8ff" points="362.81,-42.35 359.48,-32.3 355.81,-42.23 362.81,-42.35"/>
</a>
</g>
</g>
</g>
</svg>
