<?xml version="1.0" encoding="UTF-8" standalone="no"?>
<!DOCTYPE svg PUBLIC "-//W3C//DTD SVG 1.1//EN"
 "http://www.w3.org/Graphics/SVG/1.1/DTD/svg11.dtd">
<!-- Generated by graphviz version 9.0.0 (20230911.1827)
 -->
<!-- Title: /github/workspace/dev_area/sourcecode/detdataformats/include/detdataformats/fwtp/RawTp.hpp Pages: 1 -->
<svg width="181pt" height="116pt"
 viewBox="0.00 0.00 180.50 116.25" xmlns="http://www.w3.org/2000/svg" xmlns:xlink="http://www.w3.org/1999/xlink">
<g id="graph0" class="graph" transform="scale(1 1) rotate(0) translate(4 112.25)">
<title>/github/workspace/dev_area/sourcecode/detdataformats/include/detdataformats/fwtp/RawTp.hpp</title>
<!-- Node1 -->
<g id="Node000001" class="node">
<title>Node1</title>
<g id="a_Node000001"><a xlink:title=" ">
<polygon fill="#999999" stroke="#666666" points="165.75,-108.25 4.25,-108.25 4.25,-55.25 165.75,-55.25 165.75,-108.25"/>
<text text-anchor="start" x="12.25" y="-94.75" font-family="Helvetica,sans-Serif" font-size="10.00">/github/workspace/dev</text>
<text text-anchor="start" x="12.25" y="-83.5" font-family="Helvetica,sans-Serif" font-size="10.00">_area/sourcecode/detdataformats</text>
<text text-anchor="start" x="12.25" y="-72.25" font-family="Helvetica,sans-Serif" font-size="10.00">/include/detdataformats/fwtp</text>
<text text-anchor="middle" x="85" y="-61" font-family="Helvetica,sans-Serif" font-size="10.00">/RawTp.hpp</text>
</a>
</g>
</g>
<!-- Node2 -->
<g id="Node000002" class="node">
<title>Node2</title>
<g id="a_Node000002"><a xlink:title=" ">
<polygon fill="#e0e0e0" stroke="#999999" points="40,-19.25 0,-19.25 0,0 40,0 40,-19.25"/>
<text text-anchor="middle" x="20" y="-5.75" font-family="Helvetica,sans-Serif" font-size="10.00">bitset</text>
</a>
</g>
</g>
<!-- Node1&#45;&gt;Node2 -->
<g id="edge1_Node000001_Node000002" class="edge">
<title>Node1&#45;&gt;Node2</title>
<g id="a_edge1_Node000001_Node000002"><a xlink:title=" ">
<path fill="none" stroke="#63b8ff" d="M61.17,-55.04C52.85,-46.06 43.71,-36.21 36.16,-28.06"/>
<polygon fill="#63b8ff" stroke="#63b8ff" points="38.84,-25.8 29.47,-20.85 33.71,-30.56 38.84,-25.8"/>
</a>
</g>
</g>
<!-- Node3 -->
<g id="Node000003" class="node">
<title>Node3</title>
<g id="a_Node000003"><a xlink:title=" ">
<polygon fill="#e0e0e0" stroke="#999999" points="111.75,-19.25 58.25,-19.25 58.25,0 111.75,0 111.75,-19.25"/>
<text text-anchor="middle" x="85" y="-5.75" font-family="Helvetica,sans-Serif" font-size="10.00">iostream</text>
</a>
</g>
</g>
<!-- Node1&#45;&gt;Node3 -->
<g id="edge2_Node000001_Node000003" class="edge">
<title>Node1&#45;&gt;Node3</title>
<g id="a_edge2_Node000001_Node000003"><a xlink:title=" ">
<path fill="none" stroke="#63b8ff" d="M85,-55.04C85,-47.12 85,-38.52 85,-31.02"/>
<polygon fill="#63b8ff" stroke="#63b8ff" points="88.5,-31.25 85,-21.25 81.5,-31.25 88.5,-31.25"/>
</a>
</g>
</g>
<!-- Node4 -->
<g id="Node000004" class="node">
<title>Node4</title>
<g id="a_Node000004"><a xlink:title=" ">
<polygon fill="#e0e0e0" stroke="#999999" points="172.5,-19.25 129.5,-19.25 129.5,0 172.5,0 172.5,-19.25"/>
<text text-anchor="middle" x="151" y="-5.75" font-family="Helvetica,sans-Serif" font-size="10.00">vector</text>
</a>
</g>
</g>
<!-- Node1&#45;&gt;Node4 -->
<g id="edge3_Node000001_Node000004" class="edge">
<title>Node1&#45;&gt;Node4</title>
<g id="a_edge3_Node000001_Node000004"><a xlink:title=" ">
<path fill="none" stroke="#63b8ff" d="M109.2,-55.04C117.65,-46.06 126.92,-36.21 134.59,-28.06"/>
<polygon fill="#63b8ff" stroke="#63b8ff" points="137.08,-30.52 141.39,-20.84 131.98,-25.72 137.08,-30.52"/>
</a>
</g>
</g>
</g>
</svg>
