<?xml version="1.0" encoding="UTF-8" standalone="no"?>
<!DOCTYPE svg PUBLIC "-//W3C//DTD SVG 1.1//EN"
 "http://www.w3.org/Graphics/SVG/1.1/DTD/svg11.dtd">
<!-- Generated by graphviz version 9.0.0 (20230911.1827)
 -->
<!-- Title: /github/workspace/dev_area/build/rcif/codegen/include/rcif/cmd/Structs.hpp Pages: 1 -->
<svg width="905pt" height="217pt"
 viewBox="0.00 0.00 904.88 216.50" xmlns="http://www.w3.org/2000/svg" xmlns:xlink="http://www.w3.org/1999/xlink">
<g id="graph0" class="graph" transform="scale(1 1) rotate(0) translate(4 212.5)">
<title>/github/workspace/dev_area/build/rcif/codegen/include/rcif/cmd/Structs.hpp</title>
<!-- Node1 -->
<g id="Node000001" class="node">
<title>Node1</title>
<g id="a_Node000001"><a xlink:title=" ">
<polygon fill="#999999" stroke="#666666" points="532.12,-208.5 391.62,-208.5 391.62,-166.75 532.12,-166.75 532.12,-208.5"/>
<text text-anchor="start" x="399.62" y="-195" font-family="Helvetica,sans-Serif" font-size="10.00">/github/workspace/dev</text>
<text text-anchor="start" x="399.62" y="-183.75" font-family="Helvetica,sans-Serif" font-size="10.00">_area/build/rcif/codegen</text>
<text text-anchor="middle" x="461.88" y="-172.5" font-family="Helvetica,sans-Serif" font-size="10.00">/include/rcif/cmd/Structs.hpp</text>
</a>
</g>
</g>
<!-- Node2 -->
<g id="Node000002" class="node">
<title>Node2</title>
<g id="a_Node000002"><a xlink:href="rcif_2codegen_2include_2rcif_2cmd_2Nljs_8hpp.html" target="_top" xlink:title=" ">
<polygon fill="white" stroke="#666666" points="525,-130.75 398.75,-130.75 398.75,-89 525,-89 525,-130.75"/>
<text text-anchor="start" x="406.75" y="-117.25" font-family="Helvetica,sans-Serif" font-size="10.00">/github/workspace/dev</text>
<text text-anchor="start" x="406.75" y="-106" font-family="Helvetica,sans-Serif" font-size="10.00">_area/build/rcif/codegen</text>
<text text-anchor="middle" x="461.88" y="-94.75" font-family="Helvetica,sans-Serif" font-size="10.00">/include/rcif/cmd/Nljs.hpp</text>
</a>
</g>
</g>
<!-- Node1&#45;&gt;Node2 -->
<g id="edge1_Node000001_Node000002" class="edge">
<title>Node1&#45;&gt;Node2</title>
<g id="a_edge1_Node000001_Node000002"><a xlink:title=" ">
<path fill="none" stroke="#63b8ff" d="M461.88,-155C461.88,-146.96 461.88,-138.54 461.88,-131.23"/>
<polygon fill="#63b8ff" stroke="#63b8ff" points="458.38,-154.81 461.88,-164.81 465.38,-154.81 458.38,-154.81"/>
</a>
</g>
</g>
<!-- Node3 -->
<g id="Node000003" class="node">
<title>Node3</title>
<g id="a_Node000003"><a xlink:href="sourcecode_2appfwk_2src_2Application_8cpp.html" target="_top" xlink:title=" ">
<polygon fill="white" stroke="#666666" points="127.75,-47.38 0,-47.38 0,-5.62 127.75,-5.62 127.75,-47.38"/>
<text text-anchor="start" x="8" y="-33.88" font-family="Helvetica,sans-Serif" font-size="10.00">/github/workspace/dev</text>
<text text-anchor="start" x="8" y="-22.62" font-family="Helvetica,sans-Serif" font-size="10.00">_area/sourcecode/appfwk</text>
<text text-anchor="middle" x="63.88" y="-11.38" font-family="Helvetica,sans-Serif" font-size="10.00">/src/Application.cpp</text>
</a>
</g>
</g>
<!-- Node2&#45;&gt;Node3 -->
<g id="edge2_Node000002_Node000003" class="edge">
<title>Node2&#45;&gt;Node3</title>
<g id="a_edge2_Node000002_Node000003"><a xlink:title=" ">
<path fill="none" stroke="#63b8ff" d="M387.13,-99.61C320.77,-90.54 221.49,-74.89 136.88,-53 131.03,-51.49 124.98,-49.72 118.98,-47.83"/>
<polygon fill="#63b8ff" stroke="#63b8ff" points="386.43,-103.05 396.81,-100.92 387.36,-96.11 386.43,-103.05"/>
</a>
</g>
</g>
<!-- Node4 -->
<g id="Node000004" class="node">
<title>Node4</title>
<g id="a_Node000004"><a xlink:href="FakeCardReaderBase_8hpp.html" target="_top" xlink:title=" ">
<polygon fill="white" stroke="#666666" points="344,-53 145.75,-53 145.75,0 344,0 344,-53"/>
<text text-anchor="start" x="153.75" y="-39.5" font-family="Helvetica,sans-Serif" font-size="10.00">/github/workspace/dev</text>
<text text-anchor="start" x="153.75" y="-28.25" font-family="Helvetica,sans-Serif" font-size="10.00">_area/sourcecode/datahandlinglibs</text>
<text text-anchor="start" x="153.75" y="-17" font-family="Helvetica,sans-Serif" font-size="10.00">/include/datahandlinglibs/FakeCardReader</text>
<text text-anchor="middle" x="244.88" y="-5.75" font-family="Helvetica,sans-Serif" font-size="10.00">Base.hpp</text>
</a>
</g>
</g>
<!-- Node2&#45;&gt;Node4 -->
<g id="edge3_Node000002_Node000004" class="edge">
<title>Node2&#45;&gt;Node4</title>
<g id="a_edge3_Node000002_Node000004"><a xlink:title=" ">
<path fill="none" stroke="#63b8ff" d="M397.1,-84.58C370.89,-74.75 340.59,-63.39 313.96,-53.41"/>
<polygon fill="#63b8ff" stroke="#63b8ff" points="395.67,-87.78 406.26,-88.02 398.12,-81.23 395.67,-87.78"/>
</a>
</g>
</g>
<!-- Node5 -->
<g id="Node000005" class="node">
<title>Node5</title>
<g id="a_Node000005"><a xlink:href="RawDataHandlerBase_8hpp.html" target="_top" xlink:title=" ">
<polygon fill="white" stroke="#666666" points="561.38,-53 362.38,-53 362.38,0 561.38,0 561.38,-53"/>
<text text-anchor="start" x="370.38" y="-39.5" font-family="Helvetica,sans-Serif" font-size="10.00">/github/workspace/dev</text>
<text text-anchor="start" x="370.38" y="-28.25" font-family="Helvetica,sans-Serif" font-size="10.00">_area/sourcecode/datahandlinglibs</text>
<text text-anchor="start" x="370.38" y="-17" font-family="Helvetica,sans-Serif" font-size="10.00">/include/datahandlinglibs/RawDataHandler</text>
<text text-anchor="middle" x="461.88" y="-5.75" font-family="Helvetica,sans-Serif" font-size="10.00">Base.hpp</text>
</a>
</g>
</g>
<!-- Node2&#45;&gt;Node5 -->
<g id="edge4_Node000002_Node000005" class="edge">
<title>Node2&#45;&gt;Node5</title>
<g id="a_edge4_Node000002_Node000005"><a xlink:title=" ">
<path fill="none" stroke="#63b8ff" d="M461.88,-77.52C461.88,-69.49 461.88,-60.94 461.88,-53.23"/>
<polygon fill="#63b8ff" stroke="#63b8ff" points="458.38,-77.25 461.88,-87.25 465.38,-77.25 458.38,-77.25"/>
</a>
</g>
</g>
<!-- Node6 -->
<g id="Node000006" class="node">
<title>Node6</title>
<g id="a_Node000006"><a xlink:href="sourcecode_2timinglibs_2src_2TimingHardwareInterface_8cpp.html" target="_top" xlink:title=" ">
<polygon fill="white" stroke="#666666" points="742.38,-47.38 579.38,-47.38 579.38,-5.62 742.38,-5.62 742.38,-47.38"/>
<text text-anchor="start" x="587.38" y="-33.88" font-family="Helvetica,sans-Serif" font-size="10.00">/github/workspace/dev</text>
<text text-anchor="start" x="587.38" y="-22.62" font-family="Helvetica,sans-Serif" font-size="10.00">_area/sourcecode/timinglibs</text>
<text text-anchor="middle" x="660.88" y="-11.38" font-family="Helvetica,sans-Serif" font-size="10.00">/src/TimingHardwareInterface.cpp</text>
</a>
</g>
</g>
<!-- Node2&#45;&gt;Node6 -->
<g id="edge5_Node000002_Node000006" class="edge">
<title>Node2&#45;&gt;Node6</title>
<g id="a_edge5_Node000002_Node000006"><a xlink:title=" ">
<path fill="none" stroke="#63b8ff" d="M522.2,-84.21C550.64,-72.58 584.16,-58.87 611.12,-47.85"/>
<polygon fill="#63b8ff" stroke="#63b8ff" points="520.91,-80.95 512.98,-87.98 523.56,-87.43 520.91,-80.95"/>
</a>
</g>
</g>
<!-- Node7 -->
<g id="Node000007" class="node">
<title>Node7</title>
<g id="a_Node000007"><a xlink:href="TPRequestHandler_8cpp.html" target="_top" xlink:title=" ">
<polygon fill="white" stroke="#666666" points="896.88,-47.38 760.88,-47.38 760.88,-5.62 896.88,-5.62 896.88,-47.38"/>
<text text-anchor="start" x="768.88" y="-33.88" font-family="Helvetica,sans-Serif" font-size="10.00">/github/workspace/dev</text>
<text text-anchor="start" x="768.88" y="-22.62" font-family="Helvetica,sans-Serif" font-size="10.00">_area/sourcecode/trigger</text>
<text text-anchor="middle" x="828.88" y="-11.38" font-family="Helvetica,sans-Serif" font-size="10.00">/src/TPRequestHandler.cpp</text>
</a>
</g>
</g>
<!-- Node2&#45;&gt;Node7 -->
<g id="edge6_Node000002_Node000007" class="edge">
<title>Node2&#45;&gt;Node7</title>
<g id="a_edge6_Node000002_Node000007"><a xlink:title=" ">
<path fill="none" stroke="#63b8ff" d="M536.55,-97.22C595.47,-87.37 679.51,-71.87 751.88,-53 757.87,-51.44 764.08,-49.66 770.25,-47.78"/>
<polygon fill="#63b8ff" stroke="#63b8ff" points="536.27,-93.72 526.97,-98.81 537.41,-100.63 536.27,-93.72"/>
</a>
</g>
</g>
</g>
</svg>
