<?xml version="1.0" encoding="UTF-8" standalone="no"?>
<!DOCTYPE svg PUBLIC "-//W3C//DTD SVG 1.1//EN"
 "http://www.w3.org/Graphics/SVG/1.1/DTD/svg11.dtd">
<!-- Generated by graphviz version 9.0.0 (20230911.1827)
 -->
<!-- Title: /github/workspace/dev_area/sourcecode/datahandlinglibs/include/datahandlinglibs/ReadoutTypes.hpp Pages: 1 -->
<svg width="248pt" height="105pt"
 viewBox="0.00 0.00 248.38 105.00" xmlns="http://www.w3.org/2000/svg" xmlns:xlink="http://www.w3.org/1999/xlink">
<g id="graph0" class="graph" transform="scale(1 1) rotate(0) translate(4 101)">
<title>/github/workspace/dev_area/sourcecode/datahandlinglibs/include/datahandlinglibs/ReadoutTypes.hpp</title>
<!-- Node1 -->
<g id="Node000001" class="node">
<title>Node1</title>
<g id="a_Node000001"><a xlink:title=" ">
<polygon fill="#999999" stroke="#666666" points="222.5,-97 16.75,-97 16.75,-55.25 222.5,-55.25 222.5,-97"/>
<text text-anchor="start" x="24.75" y="-83.5" font-family="Helvetica,sans-Serif" font-size="10.00">/github/workspace/dev</text>
<text text-anchor="start" x="24.75" y="-72.25" font-family="Helvetica,sans-Serif" font-size="10.00">_area/sourcecode/datahandlinglibs</text>
<text text-anchor="middle" x="119.62" y="-61" font-family="Helvetica,sans-Serif" font-size="10.00">/include/datahandlinglibs/ReadoutTypes.hpp</text>
</a>
</g>
</g>
<!-- Node2 -->
<g id="Node000002" class="node">
<title>Node2</title>
<g id="a_Node000002"><a xlink:title=" ">
<polygon fill="#e0e0e0" stroke="#999999" points="45.25,-19.25 0,-19.25 0,0 45.25,0 45.25,-19.25"/>
<text text-anchor="middle" x="22.62" y="-5.75" font-family="Helvetica,sans-Serif" font-size="10.00">cstdint</text>
</a>
</g>
</g>
<!-- Node1&#45;&gt;Node2 -->
<g id="edge1_Node000001_Node000002" class="edge">
<title>Node1&#45;&gt;Node2</title>
<g id="a_edge1_Node000001_Node000002"><a xlink:title=" ">
<path fill="none" stroke="#63b8ff" d="M89.2,-54.89C75.03,-45.47 58.46,-34.46 45.4,-25.77"/>
<polygon fill="#63b8ff" stroke="#63b8ff" points="47.71,-23.11 37.45,-20.48 43.84,-28.93 47.71,-23.11"/>
</a>
</g>
</g>
<!-- Node3 -->
<g id="Node000003" class="node">
<title>Node3</title>
<g id="a_Node000003"><a xlink:title=" ">
<polygon fill="#e0e0e0" stroke="#999999" points="113.88,-19.25 63.38,-19.25 63.38,0 113.88,0 113.88,-19.25"/>
<text text-anchor="middle" x="88.62" y="-5.75" font-family="Helvetica,sans-Serif" font-size="10.00">memory</text>
</a>
</g>
</g>
<!-- Node1&#45;&gt;Node3 -->
<g id="edge2_Node000001_Node000003" class="edge">
<title>Node1&#45;&gt;Node3</title>
<g id="a_edge2_Node000001_Node000003"><a xlink:title=" ">
<path fill="none" stroke="#63b8ff" d="M109.99,-55.07C106.12,-47.03 101.68,-37.8 97.86,-29.84"/>
<polygon fill="#63b8ff" stroke="#63b8ff" points="101.13,-28.56 93.64,-21.06 94.82,-31.59 101.13,-28.56"/>
</a>
</g>
</g>
<!-- Node4 -->
<g id="Node000004" class="node">
<title>Node4</title>
<g id="a_Node000004"><a xlink:title=" ">
<polygon fill="#e0e0e0" stroke="#999999" points="169.12,-19.25 132.12,-19.25 132.12,0 169.12,0 169.12,-19.25"/>
<text text-anchor="middle" x="150.62" y="-5.75" font-family="Helvetica,sans-Serif" font-size="10.00">tuple</text>
</a>
</g>
</g>
<!-- Node1&#45;&gt;Node4 -->
<g id="edge3_Node000001_Node000004" class="edge">
<title>Node1&#45;&gt;Node4</title>
<g id="a_edge3_Node000001_Node000004"><a xlink:title=" ">
<path fill="none" stroke="#63b8ff" d="M129.26,-55.07C133.13,-47.03 137.57,-37.8 141.39,-29.84"/>
<polygon fill="#63b8ff" stroke="#63b8ff" points="144.43,-31.59 145.61,-21.06 138.12,-28.56 144.43,-31.59"/>
</a>
</g>
</g>
<!-- Node5 -->
<g id="Node000005" class="node">
<title>Node5</title>
<g id="a_Node000005"><a xlink:title=" ">
<polygon fill="#e0e0e0" stroke="#999999" points="240.38,-19.25 186.88,-19.25 186.88,0 240.38,0 240.38,-19.25"/>
<text text-anchor="middle" x="213.62" y="-5.75" font-family="Helvetica,sans-Serif" font-size="10.00">iostream</text>
</a>
</g>
</g>
<!-- Node1&#45;&gt;Node5 -->
<g id="edge4_Node000001_Node000005" class="edge">
<title>Node1&#45;&gt;Node5</title>
<g id="a_edge4_Node000001_Node000005"><a xlink:title=" ">
<path fill="none" stroke="#63b8ff" d="M149.11,-54.89C162.7,-45.57 178.58,-34.67 191.18,-26.02"/>
<polygon fill="#63b8ff" stroke="#63b8ff" points="192.97,-29.04 199.23,-20.5 189.01,-23.27 192.97,-29.04"/>
</a>
</g>
</g>
</g>
</svg>
