<?xml version="1.0" encoding="UTF-8" standalone="no"?>
<!DOCTYPE svg PUBLIC "-//W3C//DTD SVG 1.1//EN"
 "http://www.w3.org/Graphics/SVG/1.1/DTD/svg11.dtd">
<!-- Generated by graphviz version 9.0.0 (20230911.1827)
 -->
<!-- Title: /github/workspace/dev_area/sourcecode/utilities/include/utilities/Resolver.hpp Pages: 1 -->
<svg width="318pt" height="128pt"
 viewBox="0.00 0.00 318.12 127.50" xmlns="http://www.w3.org/2000/svg" xmlns:xlink="http://www.w3.org/1999/xlink">
<g id="graph0" class="graph" transform="scale(1 1) rotate(0) translate(4 123.5)">
<title>/github/workspace/dev_area/sourcecode/utilities/include/utilities/Resolver.hpp</title>
<!-- Node1 -->
<g id="Node000001" class="node">
<title>Node1</title>
<g id="a_Node000001"><a xlink:title=" ">
<polygon fill="#999999" stroke="#666666" points="236,-119.5 93.25,-119.5 93.25,-77.75 236,-77.75 236,-119.5"/>
<text text-anchor="start" x="101.25" y="-106" font-family="Helvetica,sans-Serif" font-size="10.00">/github/workspace/dev</text>
<text text-anchor="start" x="101.25" y="-94.75" font-family="Helvetica,sans-Serif" font-size="10.00">_area/sourcecode/utilities</text>
<text text-anchor="middle" x="164.62" y="-83.5" font-family="Helvetica,sans-Serif" font-size="10.00">/include/utilities/Resolver.hpp</text>
</a>
</g>
</g>
<!-- Node2 -->
<g id="Node000002" class="node">
<title>Node2</title>
<g id="a_Node000002"><a xlink:href="NetworkManager_8cpp.html" target="_top" xlink:title=" ">
<polygon fill="white" stroke="#666666" points="165.25,-41.75 0,-41.75 0,0 165.25,0 165.25,-41.75"/>
<text text-anchor="start" x="8" y="-28.25" font-family="Helvetica,sans-Serif" font-size="10.00">/github/workspace/dev</text>
<text text-anchor="start" x="8" y="-17" font-family="Helvetica,sans-Serif" font-size="10.00">_area/sourcecode/iomanager</text>
<text text-anchor="middle" x="82.62" y="-5.75" font-family="Helvetica,sans-Serif" font-size="10.00">/src/network/NetworkManager.cpp</text>
</a>
</g>
</g>
<!-- Node1&#45;&gt;Node2 -->
<g id="edge1_Node000001_Node000002" class="edge">
<title>Node1&#45;&gt;Node2</title>
<g id="a_edge1_Node000001_Node000002"><a xlink:title=" ">
<path fill="none" stroke="#63b8ff" d="M134.3,-69.61C124.47,-60.53 113.77,-50.64 104.66,-42.23"/>
<polygon fill="#63b8ff" stroke="#63b8ff" points="131.82,-72.08 141.54,-76.3 136.57,-66.94 131.82,-72.08"/>
</a>
</g>
</g>
<!-- Node3 -->
<g id="Node000003" class="node">
<title>Node3</title>
<g id="a_Node000003"><a xlink:href="Resolver_8cpp.html" target="_top" xlink:title=" ">
<polygon fill="white" stroke="#666666" points="310.12,-41.75 183.12,-41.75 183.12,0 310.12,0 310.12,-41.75"/>
<text text-anchor="start" x="191.12" y="-28.25" font-family="Helvetica,sans-Serif" font-size="10.00">/github/workspace/dev</text>
<text text-anchor="start" x="191.12" y="-17" font-family="Helvetica,sans-Serif" font-size="10.00">_area/sourcecode/utilities</text>
<text text-anchor="middle" x="246.62" y="-5.75" font-family="Helvetica,sans-Serif" font-size="10.00">/src/Resolver.cpp</text>
</a>
</g>
</g>
<!-- Node1&#45;&gt;Node3 -->
<g id="edge2_Node000001_Node000003" class="edge">
<title>Node1&#45;&gt;Node3</title>
<g id="a_edge2_Node000001_Node000003"><a xlink:title=" ">
<path fill="none" stroke="#63b8ff" d="M194.95,-69.61C204.78,-60.53 215.48,-50.64 224.59,-42.23"/>
<polygon fill="#63b8ff" stroke="#63b8ff" points="192.68,-66.94 187.71,-76.3 197.43,-72.08 192.68,-66.94"/>
</a>
</g>
</g>
</g>
</svg>
