<?xml version="1.0" encoding="UTF-8" standalone="no"?>
<!DOCTYPE svg PUBLIC "-//W3C//DTD SVG 1.1//EN"
 "http://www.w3.org/Graphics/SVG/1.1/DTD/svg11.dtd">
<!-- Generated by graphviz version 9.0.0 (20230911.1827)
 -->
<!-- Title: /github/workspace/dev_area/sourcecode/uhallibs/include/uhallibs/ipc/RobustMutex.hpp Pages: 1 -->
<svg width="507pt" height="205pt"
 viewBox="0.00 0.00 506.62 205.25" xmlns="http://www.w3.org/2000/svg" xmlns:xlink="http://www.w3.org/1999/xlink">
<g id="graph0" class="graph" transform="scale(1 1) rotate(0) translate(4 201.25)">
<title>/github/workspace/dev_area/sourcecode/uhallibs/include/uhallibs/ipc/RobustMutex.hpp</title>
<!-- Node1 -->
<g id="Node000001" class="node">
<title>Node1</title>
<g id="a_Node000001"><a xlink:title=" ">
<polygon fill="#999999" stroke="#666666" points="363.75,-197.25 184.25,-197.25 184.25,-155.5 363.75,-155.5 363.75,-197.25"/>
<text text-anchor="start" x="192.25" y="-183.75" font-family="Helvetica,sans-Serif" font-size="10.00">/github/workspace/dev</text>
<text text-anchor="start" x="192.25" y="-172.5" font-family="Helvetica,sans-Serif" font-size="10.00">_area/sourcecode/uhallibs</text>
<text text-anchor="middle" x="274" y="-161.25" font-family="Helvetica,sans-Serif" font-size="10.00">/include/uhallibs/ipc/RobustMutex.hpp</text>
</a>
</g>
</g>
<!-- Node2 -->
<g id="Node000002" class="node">
<title>Node2</title>
<g id="a_Node000002"><a xlink:href="ProtocolAxi4Lite_8hpp.html" target="_top" xlink:title=" ">
<polygon fill="white" stroke="#666666" points="178,-119.5 0,-119.5 0,-77.75 178,-77.75 178,-119.5"/>
<text text-anchor="start" x="8" y="-106" font-family="Helvetica,sans-Serif" font-size="10.00">/github/workspace/dev</text>
<text text-anchor="start" x="8" y="-94.75" font-family="Helvetica,sans-Serif" font-size="10.00">_area/sourcecode/uhallibs</text>
<text text-anchor="middle" x="89" y="-83.5" font-family="Helvetica,sans-Serif" font-size="10.00">/include/uhallibs/ProtocolAxi4Lite.hpp</text>
</a>
</g>
</g>
<!-- Node1&#45;&gt;Node2 -->
<g id="edge1_Node000001_Node000002" class="edge">
<title>Node1&#45;&gt;Node2</title>
<g id="a_edge1_Node000001_Node000002"><a xlink:title=" ">
<path fill="none" stroke="#63b8ff" d="M213.88,-150.76C189.58,-140.81 161.85,-129.46 138.71,-119.98"/>
<polygon fill="#63b8ff" stroke="#63b8ff" points="212.44,-153.95 223.02,-154.5 215.09,-147.47 212.44,-153.95"/>
</a>
</g>
</g>
<!-- Node4 -->
<g id="Node000004" class="node">
<title>Node4</title>
<g id="a_Node000004"><a xlink:href="ProtocolFlx_8hpp.html" target="_top" xlink:title=" ">
<polygon fill="white" stroke="#666666" points="351.75,-119.5 196.25,-119.5 196.25,-77.75 351.75,-77.75 351.75,-119.5"/>
<text text-anchor="start" x="204.25" y="-106" font-family="Helvetica,sans-Serif" font-size="10.00">/github/workspace/dev</text>
<text text-anchor="start" x="204.25" y="-94.75" font-family="Helvetica,sans-Serif" font-size="10.00">_area/sourcecode/uhallibs</text>
<text text-anchor="middle" x="274" y="-83.5" font-family="Helvetica,sans-Serif" font-size="10.00">/include/uhallibs/ProtocolFlx.hpp</text>
</a>
</g>
</g>
<!-- Node1&#45;&gt;Node4 -->
<g id="edge3_Node000001_Node000004" class="edge">
<title>Node1&#45;&gt;Node4</title>
<g id="a_edge3_Node000001_Node000004"><a xlink:title=" ">
<path fill="none" stroke="#63b8ff" d="M274,-143.75C274,-135.71 274,-127.29 274,-119.98"/>
<polygon fill="#63b8ff" stroke="#63b8ff" points="270.5,-143.56 274,-153.56 277.5,-143.56 270.5,-143.56"/>
</a>
</g>
</g>
<!-- Node6 -->
<g id="Node000006" class="node">
<title>Node6</title>
<g id="a_Node000006"><a xlink:href="RobustMutex_8cpp.html" target="_top" xlink:title=" ">
<polygon fill="white" stroke="#666666" points="498.62,-119.5 369.38,-119.5 369.38,-77.75 498.62,-77.75 498.62,-119.5"/>
<text text-anchor="start" x="377.38" y="-106" font-family="Helvetica,sans-Serif" font-size="10.00">/github/workspace/dev</text>
<text text-anchor="start" x="377.38" y="-94.75" font-family="Helvetica,sans-Serif" font-size="10.00">_area/sourcecode/uhallibs</text>
<text text-anchor="middle" x="434" y="-83.5" font-family="Helvetica,sans-Serif" font-size="10.00">/src/RobustMutex.cpp</text>
</a>
</g>
</g>
<!-- Node1&#45;&gt;Node6 -->
<g id="edge5_Node000001_Node000006" class="edge">
<title>Node1&#45;&gt;Node6</title>
<g id="a_edge5_Node000001_Node000006"><a xlink:title=" ">
<path fill="none" stroke="#63b8ff" d="M327.13,-150.22C347.88,-140.4 371.35,-129.29 391,-119.98"/>
<polygon fill="#63b8ff" stroke="#63b8ff" points="325.79,-146.99 318.25,-154.43 328.78,-153.31 325.79,-146.99"/>
</a>
</g>
</g>
<!-- Node3 -->
<g id="Node000003" class="node">
<title>Node3</title>
<g id="a_Node000003"><a xlink:href="ProtocolAxi4Lite_8cpp.html" target="_top" xlink:title=" ">
<polygon fill="white" stroke="#666666" points="153.62,-41.75 24.38,-41.75 24.38,0 153.62,0 153.62,-41.75"/>
<text text-anchor="start" x="32.38" y="-28.25" font-family="Helvetica,sans-Serif" font-size="10.00">/github/workspace/dev</text>
<text text-anchor="start" x="32.38" y="-17" font-family="Helvetica,sans-Serif" font-size="10.00">_area/sourcecode/uhallibs</text>
<text text-anchor="middle" x="89" y="-5.75" font-family="Helvetica,sans-Serif" font-size="10.00">/src/ProtocolAxi4Lite.cpp</text>
</a>
</g>
</g>
<!-- Node2&#45;&gt;Node3 -->
<g id="edge2_Node000002_Node000003" class="edge">
<title>Node2&#45;&gt;Node3</title>
<g id="a_edge2_Node000002_Node000003"><a xlink:title=" ">
<path fill="none" stroke="#63b8ff" d="M89,-66C89,-57.96 89,-49.54 89,-42.23"/>
<polygon fill="#63b8ff" stroke="#63b8ff" points="85.5,-65.81 89,-75.81 92.5,-65.81 85.5,-65.81"/>
</a>
</g>
</g>
<!-- Node5 -->
<g id="Node000005" class="node">
<title>Node5</title>
<g id="a_Node000005"><a xlink:href="ProtocolFlx_8cpp.html" target="_top" xlink:title=" ">
<polygon fill="white" stroke="#666666" points="338.62,-41.75 209.38,-41.75 209.38,0 338.62,0 338.62,-41.75"/>
<text text-anchor="start" x="217.38" y="-28.25" font-family="Helvetica,sans-Serif" font-size="10.00">/github/workspace/dev</text>
<text text-anchor="start" x="217.38" y="-17" font-family="Helvetica,sans-Serif" font-size="10.00">_area/sourcecode/uhallibs</text>
<text text-anchor="middle" x="274" y="-5.75" font-family="Helvetica,sans-Serif" font-size="10.00">/src/ProtocolFlx.cpp</text>
</a>
</g>
</g>
<!-- Node4&#45;&gt;Node5 -->
<g id="edge4_Node000004_Node000005" class="edge">
<title>Node4&#45;&gt;Node5</title>
<g id="a_edge4_Node000004_Node000005"><a xlink:title=" ">
<path fill="none" stroke="#63b8ff" d="M274,-66C274,-57.96 274,-49.54 274,-42.23"/>
<polygon fill="#63b8ff" stroke="#63b8ff" points="270.5,-65.81 274,-75.81 277.5,-65.81 270.5,-65.81"/>
</a>
</g>
</g>
</g>
</svg>
