<?xml version="1.0" encoding="UTF-8" standalone="no"?>
<!DOCTYPE svg PUBLIC "-//W3C//DTD SVG 1.1//EN"
 "http://www.w3.org/Graphics/SVG/1.1/DTD/svg11.dtd">
<!-- Generated by graphviz version 9.0.0 (20230911.1827)
 -->
<!-- Title: /github/workspace/dev_area/sourcecode/uhallibs/src/RobustMutex.cpp Pages: 1 -->
<svg width="366pt" height="160pt"
 viewBox="0.00 0.00 366.38 160.25" xmlns="http://www.w3.org/2000/svg" xmlns:xlink="http://www.w3.org/1999/xlink">
<g id="graph0" class="graph" transform="scale(1 1) rotate(0) translate(4 156.25)">
<title>/github/workspace/dev_area/sourcecode/uhallibs/src/RobustMutex.cpp</title>
<!-- Node1 -->
<g id="Node000001" class="node">
<title>Node1</title>
<g id="a_Node000001"><a xlink:title=" ">
<polygon fill="#999999" stroke="#666666" points="299.25,-152.25 170,-152.25 170,-110.5 299.25,-110.5 299.25,-152.25"/>
<text text-anchor="start" x="178" y="-138.75" font-family="Helvetica,sans-Serif" font-size="10.00">/github/workspace/dev</text>
<text text-anchor="start" x="178" y="-127.5" font-family="Helvetica,sans-Serif" font-size="10.00">_area/sourcecode/uhallibs</text>
<text text-anchor="middle" x="234.62" y="-116.25" font-family="Helvetica,sans-Serif" font-size="10.00">/src/RobustMutex.cpp</text>
</a>
</g>
</g>
<!-- Node2 -->
<g id="Node000002" class="node">
<title>Node2</title>
<g id="a_Node000002"><a xlink:href="RobustMutex_8hpp.html" target="_top" xlink:title=" ">
<polygon fill="white" stroke="#666666" points="194,-74.5 51.25,-74.5 51.25,-55.25 194,-55.25 194,-74.5"/>
<text text-anchor="middle" x="122.62" y="-61" font-family="Helvetica,sans-Serif" font-size="10.00">uhallibs/ipc/RobustMutex.hpp</text>
</a>
</g>
</g>
<!-- Node1&#45;&gt;Node2 -->
<g id="edge1_Node000001_Node000002" class="edge">
<title>Node1&#45;&gt;Node2</title>
<g id="a_edge1_Node000001_Node000002"><a xlink:title=" ">
<path fill="none" stroke="#63b8ff" d="M199.49,-110.14C182.82,-100.54 163.25,-89.27 148.04,-80.51"/>
<polygon fill="#63b8ff" stroke="#63b8ff" points="150.01,-77.61 139.6,-75.65 146.52,-83.67 150.01,-77.61"/>
</a>
</g>
</g>
<!-- Node6 -->
<g id="Node000006" class="node">
<title>Node6</title>
<g id="a_Node000006"><a xlink:title=" ">
<polygon fill="#e0e0e0" stroke="#999999" points="257.25,-74.5 212,-74.5 212,-55.25 257.25,-55.25 257.25,-74.5"/>
<text text-anchor="middle" x="234.62" y="-61" font-family="Helvetica,sans-Serif" font-size="10.00">cstring</text>
</a>
</g>
</g>
<!-- Node1&#45;&gt;Node6 -->
<g id="edge5_Node000001_Node000006" class="edge">
<title>Node1&#45;&gt;Node6</title>
<g id="a_edge5_Node000001_Node000006"><a xlink:title=" ">
<path fill="none" stroke="#63b8ff" d="M234.62,-110.32C234.62,-102.65 234.62,-93.89 234.62,-86.2"/>
<polygon fill="#63b8ff" stroke="#63b8ff" points="238.13,-86.46 234.63,-76.46 231.13,-86.46 238.13,-86.46"/>
</a>
</g>
</g>
<!-- Node7 -->
<g id="Node000007" class="node">
<title>Node7</title>
<g id="a_Node000007"><a xlink:title=" ">
<polygon fill="#e0e0e0" stroke="#999999" points="358.38,-74.5 274.88,-74.5 274.88,-55.25 358.38,-55.25 358.38,-74.5"/>
<text text-anchor="middle" x="316.62" y="-61" font-family="Helvetica,sans-Serif" font-size="10.00">uhal/log/log.hpp</text>
</a>
</g>
</g>
<!-- Node1&#45;&gt;Node7 -->
<g id="edge6_Node000001_Node000007" class="edge">
<title>Node1&#45;&gt;Node7</title>
<g id="a_edge6_Node000001_Node000007"><a xlink:title=" ">
<path fill="none" stroke="#63b8ff" d="M260.12,-110.32C271.76,-101.17 285.35,-90.48 296.28,-81.88"/>
<polygon fill="#63b8ff" stroke="#63b8ff" points="298.21,-84.81 303.9,-75.88 293.88,-79.31 298.21,-84.81"/>
</a>
</g>
</g>
<!-- Node3 -->
<g id="Node000003" class="node">
<title>Node3</title>
<g id="a_Node000003"><a xlink:title=" ">
<polygon fill="#e0e0e0" stroke="#999999" points="45.25,-19.25 0,-19.25 0,0 45.25,0 45.25,-19.25"/>
<text text-anchor="middle" x="22.62" y="-5.75" font-family="Helvetica,sans-Serif" font-size="10.00">cstdint</text>
</a>
</g>
</g>
<!-- Node2&#45;&gt;Node3 -->
<g id="edge2_Node000002_Node000003" class="edge">
<title>Node2&#45;&gt;Node3</title>
<g id="a_edge2_Node000002_Node000003"><a xlink:title=" ">
<path fill="none" stroke="#63b8ff" d="M105.66,-54.84C90.36,-46.69 67.59,-34.57 49.76,-25.08"/>
<polygon fill="#63b8ff" stroke="#63b8ff" points="51.48,-22.02 41.01,-20.41 48.19,-28.2 51.48,-22.02"/>
</a>
</g>
</g>
<!-- Node4 -->
<g id="Node000004" class="node">
<title>Node4</title>
<g id="a_Node000004"><a xlink:title=" ">
<polygon fill="#e0e0e0" stroke="#999999" points="181.62,-19.25 63.62,-19.25 63.62,0 181.62,0 181.62,-19.25"/>
<text text-anchor="middle" x="122.62" y="-5.75" font-family="Helvetica,sans-Serif" font-size="10.00">uhal/ClientInterface.hpp</text>
</a>
</g>
</g>
<!-- Node2&#45;&gt;Node4 -->
<g id="edge3_Node000002_Node000004" class="edge">
<title>Node2&#45;&gt;Node4</title>
<g id="a_edge3_Node000002_Node000004"><a xlink:title=" ">
<path fill="none" stroke="#63b8ff" d="M122.62,-55.08C122.62,-48.57 122.62,-39.42 122.62,-31.12"/>
<polygon fill="#63b8ff" stroke="#63b8ff" points="126.13,-31.12 122.63,-21.12 119.13,-31.12 126.13,-31.12"/>
</a>
</g>
</g>
<!-- Node5 -->
<g id="Node000005" class="node">
<title>Node5</title>
<g id="a_Node000005"><a xlink:title=" ">
<polygon fill="#e0e0e0" stroke="#999999" points="311.62,-19.25 199.62,-19.25 199.62,0 311.62,0 311.62,-19.25"/>
<text text-anchor="middle" x="255.62" y="-5.75" font-family="Helvetica,sans-Serif" font-size="10.00">uhal/log/exception.hpp</text>
</a>
</g>
</g>
<!-- Node2&#45;&gt;Node5 -->
<g id="edge4_Node000002_Node000005" class="edge">
<title>Node2&#45;&gt;Node5</title>
<g id="a_edge4_Node000002_Node000005"><a xlink:title=" ">
<path fill="none" stroke="#63b8ff" d="M145.19,-54.84C166.4,-46.35 198.4,-33.54 222.5,-23.89"/>
<polygon fill="#63b8ff" stroke="#63b8ff" points="223.56,-27.23 231.55,-20.27 220.96,-20.73 223.56,-27.23"/>
</a>
</g>
</g>
</g>
</svg>
