<?xml version="1.0" encoding="UTF-8" standalone="no"?>
<!DOCTYPE svg PUBLIC "-//W3C//DTD SVG 1.1//EN"
 "http://www.w3.org/Graphics/SVG/1.1/DTD/svg11.dtd">
<!-- Generated by graphviz version 9.0.0 (20230911.1827)
 -->
<!-- Title: /github/workspace/dev_area/sourcecode/dbe/include/dbe/SchemaCustomMethodImplementationModel.hpp Pages: 1 -->
<svg width="476pt" height="239pt"
 viewBox="0.00 0.00 475.75 239.00" xmlns="http://www.w3.org/2000/svg" xmlns:xlink="http://www.w3.org/1999/xlink">
<g id="graph0" class="graph" transform="scale(1 1) rotate(0) translate(4 235)">
<title>/github/workspace/dev_area/sourcecode/dbe/include/dbe/SchemaCustomMethodImplementationModel.hpp</title>
<!-- Node1 -->
<g id="Node000001" class="node">
<title>Node1</title>
<g id="a_Node000001"><a xlink:title=" ">
<polygon fill="#999999" stroke="#666666" points="274,-231 100.5,-231 100.5,-178 274,-178 274,-231"/>
<text text-anchor="start" x="108.5" y="-217.5" font-family="Helvetica,sans-Serif" font-size="10.00">/github/workspace/dev</text>
<text text-anchor="start" x="108.5" y="-206.25" font-family="Helvetica,sans-Serif" font-size="10.00">_area/sourcecode/dbe</text>
<text text-anchor="start" x="108.5" y="-195" font-family="Helvetica,sans-Serif" font-size="10.00">/include/dbe/SchemaCustomMethod</text>
<text text-anchor="middle" x="187.25" y="-183.75" font-family="Helvetica,sans-Serif" font-size="10.00">ImplementationModel.hpp</text>
</a>
</g>
</g>
<!-- Node2 -->
<g id="Node000002" class="node">
<title>Node2</title>
<g id="a_Node000002"><a xlink:href="SchemaCustomMethodImplementationModel_8cpp.html" target="_top" xlink:title=" ">
<polygon fill="white" stroke="#666666" points="176.5,-142 0,-142 0,-89 176.5,-89 176.5,-142"/>
<text text-anchor="start" x="8" y="-128.5" font-family="Helvetica,sans-Serif" font-size="10.00">/github/workspace/dev</text>
<text text-anchor="start" x="8" y="-117.25" font-family="Helvetica,sans-Serif" font-size="10.00">_area/sourcecode/dbe</text>
<text text-anchor="start" x="8" y="-106" font-family="Helvetica,sans-Serif" font-size="10.00">/apps/SchemaEditor/SchemaCustom</text>
<text text-anchor="middle" x="88.25" y="-94.75" font-family="Helvetica,sans-Serif" font-size="10.00">MethodImplementationModel.cpp</text>
</a>
</g>
</g>
<!-- Node1&#45;&gt;Node2 -->
<g id="edge1_Node000001_Node000002" class="edge">
<title>Node1&#45;&gt;Node2</title>
<g id="a_edge1_Node000001_Node000002"><a xlink:title=" ">
<path fill="none" stroke="#63b8ff" d="M149.25,-170.11C138.8,-160.93 127.63,-151.11 117.74,-142.42"/>
<polygon fill="#63b8ff" stroke="#63b8ff" points="146.86,-172.66 156.68,-176.63 151.48,-167.4 146.86,-172.66"/>
</a>
</g>
</g>
<!-- Node3 -->
<g id="Node000003" class="node">
<title>Node3</title>
<g id="a_Node000003"><a xlink:href="SchemaMethodEditor_8hpp.html" target="_top" xlink:title=" ">
<polygon fill="white" stroke="#666666" points="377.5,-136.38 195,-136.38 195,-94.62 377.5,-94.62 377.5,-136.38"/>
<text text-anchor="start" x="203" y="-122.88" font-family="Helvetica,sans-Serif" font-size="10.00">/github/workspace/dev</text>
<text text-anchor="start" x="203" y="-111.62" font-family="Helvetica,sans-Serif" font-size="10.00">_area/sourcecode/dbe</text>
<text text-anchor="middle" x="286.25" y="-100.38" font-family="Helvetica,sans-Serif" font-size="10.00">/include/dbe/SchemaMethodEditor.hpp</text>
</a>
</g>
</g>
<!-- Node1&#45;&gt;Node3 -->
<g id="edge2_Node000001_Node000003" class="edge">
<title>Node1&#45;&gt;Node3</title>
<g id="a_edge2_Node000001_Node000003"><a xlink:title=" ">
<path fill="none" stroke="#63b8ff" d="M224.98,-170.34C237.91,-158.98 251.98,-146.62 263.37,-136.61"/>
<polygon fill="#63b8ff" stroke="#63b8ff" points="223.02,-167.4 217.82,-176.63 227.64,-172.66 223.02,-167.4"/>
</a>
</g>
</g>
<!-- Node4 -->
<g id="Node000004" class="node">
<title>Node4</title>
<g id="a_Node000004"><a xlink:href="SchemaClassEditor_8cpp.html" target="_top" xlink:title=" ">
<polygon fill="white" stroke="#666666" points="275,-53 107.5,-53 107.5,0 275,0 275,-53"/>
<text text-anchor="start" x="115.5" y="-39.5" font-family="Helvetica,sans-Serif" font-size="10.00">/github/workspace/dev</text>
<text text-anchor="start" x="115.5" y="-28.25" font-family="Helvetica,sans-Serif" font-size="10.00">_area/sourcecode/dbe</text>
<text text-anchor="start" x="115.5" y="-17" font-family="Helvetica,sans-Serif" font-size="10.00">/apps/SchemaEditor/SchemaClass</text>
<text text-anchor="middle" x="191.25" y="-5.75" font-family="Helvetica,sans-Serif" font-size="10.00">Editor.cpp</text>
</a>
</g>
</g>
<!-- Node3&#45;&gt;Node4 -->
<g id="edge3_Node000003_Node000004" class="edge">
<title>Node3&#45;&gt;Node4</title>
<g id="a_edge3_Node000003_Node000004"><a xlink:title=" ">
<path fill="none" stroke="#63b8ff" d="M255.99,-86.79C244.23,-76.02 230.84,-63.76 219.3,-53.19"/>
<polygon fill="#63b8ff" stroke="#63b8ff" points="253.36,-89.13 263.1,-93.3 258.09,-83.96 253.36,-89.13"/>
</a>
</g>
</g>
<!-- Node5 -->
<g id="Node000005" class="node">
<title>Node5</title>
<g id="a_Node000005"><a xlink:href="SchemaMethodEditor_8cpp.html" target="_top" xlink:title=" ">
<polygon fill="white" stroke="#666666" points="467.75,-53 292.75,-53 292.75,0 467.75,0 467.75,-53"/>
<text text-anchor="start" x="300.75" y="-39.5" font-family="Helvetica,sans-Serif" font-size="10.00">/github/workspace/dev</text>
<text text-anchor="start" x="300.75" y="-28.25" font-family="Helvetica,sans-Serif" font-size="10.00">_area/sourcecode/dbe</text>
<text text-anchor="start" x="300.75" y="-17" font-family="Helvetica,sans-Serif" font-size="10.00">/apps/SchemaEditor/SchemaMethod</text>
<text text-anchor="middle" x="380.25" y="-5.75" font-family="Helvetica,sans-Serif" font-size="10.00">Editor.cpp</text>
</a>
</g>
</g>
<!-- Node3&#45;&gt;Node5 -->
<g id="edge4_Node000003_Node000005" class="edge">
<title>Node3&#45;&gt;Node5</title>
<g id="a_edge4_Node000003_Node000005"><a xlink:title=" ">
<path fill="none" stroke="#63b8ff" d="M316.19,-86.79C327.82,-76.02 341.07,-63.76 352.49,-53.19"/>
<polygon fill="#63b8ff" stroke="#63b8ff" points="314.12,-83.93 309.16,-93.29 318.88,-89.07 314.12,-83.93"/>
</a>
</g>
</g>
</g>
</svg>
