<?xml version="1.0" encoding="UTF-8" standalone="no"?>
<!DOCTYPE svg PUBLIC "-//W3C//DTD SVG 1.1//EN"
 "http://www.w3.org/Graphics/SVG/1.1/DTD/svg11.dtd">
<!-- Generated by graphviz version 9.0.0 (20230911.1827)
 -->
<!-- Title: /github/workspace/dev_area/sourcecode/dbe/include/dbe/SchemaCommand.hpp Pages: 1 -->
<svg width="2936pt" height="217pt"
 viewBox="0.00 0.00 2935.50 216.50" xmlns="http://www.w3.org/2000/svg" xmlns:xlink="http://www.w3.org/1999/xlink">
<g id="graph0" class="graph" transform="scale(1 1) rotate(0) translate(4 212.5)">
<title>/github/workspace/dev_area/sourcecode/dbe/include/dbe/SchemaCommand.hpp</title>
<!-- Node1 -->
<g id="Node000001" class="node">
<title>Node1</title>
<g id="a_Node000001"><a xlink:title=" ">
<polygon fill="#999999" stroke="#666666" points="872.38,-208.5 702.62,-208.5 702.62,-166.75 872.38,-166.75 872.38,-208.5"/>
<text text-anchor="start" x="710.62" y="-195" font-family="Helvetica,sans-Serif" font-size="10.00">/github/workspace/dev</text>
<text text-anchor="start" x="710.62" y="-183.75" font-family="Helvetica,sans-Serif" font-size="10.00">_area/sourcecode/dbe</text>
<text text-anchor="middle" x="787.5" y="-172.5" font-family="Helvetica,sans-Serif" font-size="10.00">/include/dbe/SchemaCommand.hpp</text>
</a>
</g>
</g>
<!-- Node2 -->
<g id="Node000002" class="node">
<title>Node2</title>
<g id="a_Node000002"><a xlink:href="SchemaCommand_8cpp.html" target="_top" xlink:title=" ">
<polygon fill="white" stroke="#666666" points="205,-47.38 0,-47.38 0,-5.62 205,-5.62 205,-47.38"/>
<text text-anchor="start" x="8" y="-33.88" font-family="Helvetica,sans-Serif" font-size="10.00">/github/workspace/dev</text>
<text text-anchor="start" x="8" y="-22.62" font-family="Helvetica,sans-Serif" font-size="10.00">_area/sourcecode/dbe</text>
<text text-anchor="middle" x="102.5" y="-11.38" font-family="Helvetica,sans-Serif" font-size="10.00">/apps/SchemaEditor/SchemaCommand.cpp</text>
</a>
</g>
</g>
<!-- Node1&#45;&gt;Node2 -->
<g id="edge1_Node000001_Node000002" class="edge">
<title>Node1&#45;&gt;Node2</title>
<g id="a_edge1_Node000001_Node000002"><a xlink:title=" ">
<path fill="none" stroke="#63b8ff" d="M691.13,-164.24C557.69,-133.24 318.61,-77.7 190.03,-47.83"/>
<polygon fill="#63b8ff" stroke="#63b8ff" points="690.12,-167.6 700.66,-166.45 691.71,-160.78 690.12,-167.6"/>
</a>
</g>
</g>
<!-- Node3 -->
<g id="Node000003" class="node">
<title>Node3</title>
<g id="a_Node000003"><a xlink:href="SchemaKernelWrapper_8hpp.html" target="_top" xlink:title=" ">
<polygon fill="white" stroke="#666666" points="1471.12,-130.75 1281.88,-130.75 1281.88,-89 1471.12,-89 1471.12,-130.75"/>
<text text-anchor="start" x="1289.88" y="-117.25" font-family="Helvetica,sans-Serif" font-size="10.00">/github/workspace/dev</text>
<text text-anchor="start" x="1289.88" y="-106" font-family="Helvetica,sans-Serif" font-size="10.00">_area/sourcecode/dbe</text>
<text text-anchor="middle" x="1376.5" y="-94.75" font-family="Helvetica,sans-Serif" font-size="10.00">/include/dbe/SchemaKernelWrapper.hpp</text>
</a>
</g>
</g>
<!-- Node1&#45;&gt;Node3 -->
<g id="edge2_Node000001_Node000003" class="edge">
<title>Node1&#45;&gt;Node3</title>
<g id="a_edge2_Node000001_Node000003"><a xlink:title=" ">
<path fill="none" stroke="#63b8ff" d="M884.25,-174.18C994.27,-160.03 1172.73,-137.08 1281.86,-123.05"/>
<polygon fill="#63b8ff" stroke="#63b8ff" points="883.8,-170.71 874.33,-175.46 884.7,-177.65 883.8,-170.71"/>
</a>
</g>
</g>
<!-- Node3&#45;&gt;Node2 -->
<g id="edge5_Node000003_Node000002" class="edge">
<title>Node3&#45;&gt;Node2</title>
<g id="a_edge5_Node000003_Node000002"><a xlink:title=" ">
<path fill="none" stroke="#63b8ff" d="M1270.24,-106.19C1023.19,-99.55 415.8,-80.87 213.5,-53 203.71,-51.65 193.5,-49.86 183.43,-47.84"/>
<polygon fill="#63b8ff" stroke="#63b8ff" points="1270.13,-109.69 1280.22,-106.46 1270.32,-102.69 1270.13,-109.69"/>
</a>
</g>
</g>
<!-- Node4 -->
<g id="Node000004" class="node">
<title>Node4</title>
<g id="a_Node000004"><a xlink:href="SchemaAttributeEditor_8cpp.html" target="_top" xlink:title=" ">
<polygon fill="white" stroke="#666666" points="402.25,-53 222.75,-53 222.75,0 402.25,0 402.25,-53"/>
<text text-anchor="start" x="230.75" y="-39.5" font-family="Helvetica,sans-Serif" font-size="10.00">/github/workspace/dev</text>
<text text-anchor="start" x="230.75" y="-28.25" font-family="Helvetica,sans-Serif" font-size="10.00">_area/sourcecode/dbe</text>
<text text-anchor="start" x="230.75" y="-17" font-family="Helvetica,sans-Serif" font-size="10.00">/apps/SchemaEditor/SchemaAttribute</text>
<text text-anchor="middle" x="312.5" y="-5.75" font-family="Helvetica,sans-Serif" font-size="10.00">Editor.cpp</text>
</a>
</g>
</g>
<!-- Node3&#45;&gt;Node4 -->
<g id="edge3_Node000003_Node000004" class="edge">
<title>Node3&#45;&gt;Node4</title>
<g id="a_edge3_Node000003_Node000004"><a xlink:title=" ">
<path fill="none" stroke="#63b8ff" d="M1270.29,-105.33C1055.1,-97.72 574.29,-78.43 411.5,-53 408.61,-52.55 405.67,-52.05 402.72,-51.51"/>
<polygon fill="#63b8ff" stroke="#63b8ff" points="1269.95,-108.82 1280.07,-105.68 1270.2,-101.83 1269.95,-108.82"/>
</a>
</g>
</g>
<!-- Node5 -->
<g id="Node000005" class="node">
<title>Node5</title>
<g id="a_Node000005"><a xlink:href="SchemaClassEditor_8cpp.html" target="_top" xlink:title=" ">
<polygon fill="white" stroke="#666666" points="588.25,-53 420.75,-53 420.75,0 588.25,0 588.25,-53"/>
<text text-anchor="start" x="428.75" y="-39.5" font-family="Helvetica,sans-Serif" font-size="10.00">/github/workspace/dev</text>
<text text-anchor="start" x="428.75" y="-28.25" font-family="Helvetica,sans-Serif" font-size="10.00">_area/sourcecode/dbe</text>
<text text-anchor="start" x="428.75" y="-17" font-family="Helvetica,sans-Serif" font-size="10.00">/apps/SchemaEditor/SchemaClass</text>
<text text-anchor="middle" x="504.5" y="-5.75" font-family="Helvetica,sans-Serif" font-size="10.00">Editor.cpp</text>
</a>
</g>
</g>
<!-- Node3&#45;&gt;Node5 -->
<g id="edge4_Node000003_Node000005" class="edge">
<title>Node3&#45;&gt;Node5</title>
<g id="a_edge4_Node000003_Node000005"><a xlink:title=" ">
<path fill="none" stroke="#63b8ff" d="M1270.15,-107.83C1119.43,-104.85 835.53,-93.76 597.5,-53 594.61,-52.51 591.68,-51.96 588.74,-51.37"/>
<polygon fill="#63b8ff" stroke="#63b8ff" points="1270.07,-111.33 1280.14,-108.01 1270.21,-104.33 1270.07,-111.33"/>
</a>
</g>
</g>
<!-- Node6 -->
<g id="Node000006" class="node">
<title>Node6</title>
<g id="a_Node000006"><a xlink:href="SchemaCustomFileModel_8cpp.html" target="_top" xlink:title=" ">
<polygon fill="white" stroke="#666666" points="782.75,-53 606.25,-53 606.25,0 782.75,0 782.75,-53"/>
<text text-anchor="start" x="614.25" y="-39.5" font-family="Helvetica,sans-Serif" font-size="10.00">/github/workspace/dev</text>
<text text-anchor="start" x="614.25" y="-28.25" font-family="Helvetica,sans-Serif" font-size="10.00">_area/sourcecode/dbe</text>
<text text-anchor="start" x="614.25" y="-17" font-family="Helvetica,sans-Serif" font-size="10.00">/apps/SchemaEditor/SchemaCustom</text>
<text text-anchor="middle" x="694.5" y="-5.75" font-family="Helvetica,sans-Serif" font-size="10.00">FileModel.cpp</text>
</a>
</g>
</g>
<!-- Node3&#45;&gt;Node6 -->
<g id="edge6_Node000003_Node000006" class="edge">
<title>Node3&#45;&gt;Node6</title>
<g id="a_edge6_Node000003_Node000006"><a xlink:title=" ">
<path fill="none" stroke="#63b8ff" d="M1270.07,-103.79C1152.49,-96.99 957.87,-82.23 792.5,-53 789.38,-52.45 786.22,-51.85 783.03,-51.21"/>
<polygon fill="#63b8ff" stroke="#63b8ff" points="1269.86,-107.28 1280.04,-104.36 1270.26,-100.29 1269.86,-107.28"/>
</a>
</g>
</g>
<!-- Node7 -->
<g id="Node000007" class="node">
<title>Node7</title>
<g id="a_Node000007"><a xlink:href="SchemaCustomModelInterface_8cpp.html" target="_top" xlink:title=" ">
<polygon fill="white" stroke="#666666" points="977.75,-53 801.25,-53 801.25,0 977.75,0 977.75,-53"/>
<text text-anchor="start" x="809.25" y="-39.5" font-family="Helvetica,sans-Serif" font-size="10.00">/github/workspace/dev</text>
<text text-anchor="start" x="809.25" y="-28.25" font-family="Helvetica,sans-Serif" font-size="10.00">_area/sourcecode/dbe</text>
<text text-anchor="start" x="809.25" y="-17" font-family="Helvetica,sans-Serif" font-size="10.00">/apps/SchemaEditor/SchemaCustom</text>
<text text-anchor="middle" x="889.5" y="-5.75" font-family="Helvetica,sans-Serif" font-size="10.00">ModelInterface.cpp</text>
</a>
</g>
</g>
<!-- Node3&#45;&gt;Node7 -->
<g id="edge7_Node000003_Node000007" class="edge">
<title>Node3&#45;&gt;Node7</title>
<g id="a_edge7_Node000003_Node000007"><a xlink:title=" ">
<path fill="none" stroke="#63b8ff" d="M1270.31,-96.88C1191.8,-87.22 1082.49,-72.12 987.5,-53 984.4,-52.38 981.25,-51.71 978.07,-51.02"/>
<polygon fill="#63b8ff" stroke="#63b8ff" points="1269.81,-100.34 1280.17,-98.08 1270.66,-93.39 1269.81,-100.34"/>
</a>
</g>
</g>
<!-- Node8 -->
<g id="Node000008" class="node">
<title>Node8</title>
<g id="a_Node000008"><a xlink:href="SchemaCustomTableModel_8cpp.html" target="_top" xlink:title=" ">
<polygon fill="white" stroke="#666666" points="1172.75,-53 996.25,-53 996.25,0 1172.75,0 1172.75,-53"/>
<text text-anchor="start" x="1004.25" y="-39.5" font-family="Helvetica,sans-Serif" font-size="10.00">/github/workspace/dev</text>
<text text-anchor="start" x="1004.25" y="-28.25" font-family="Helvetica,sans-Serif" font-size="10.00">_area/sourcecode/dbe</text>
<text text-anchor="start" x="1004.25" y="-17" font-family="Helvetica,sans-Serif" font-size="10.00">/apps/SchemaEditor/SchemaCustom</text>
<text text-anchor="middle" x="1084.5" y="-5.75" font-family="Helvetica,sans-Serif" font-size="10.00">TableModel.cpp</text>
</a>
</g>
</g>
<!-- Node3&#45;&gt;Node8 -->
<g id="edge8_Node000003_Node000008" class="edge">
<title>Node3&#45;&gt;Node8</title>
<g id="a_edge8_Node000003_Node000008"><a xlink:title=" ">
<path fill="none" stroke="#63b8ff" d="M1292.69,-85.52C1255.27,-75.09 1211.14,-62.79 1173.16,-52.21"/>
<polygon fill="#63b8ff" stroke="#63b8ff" points="1291.54,-88.83 1302.11,-88.14 1293.42,-82.09 1291.54,-88.83"/>
</a>
</g>
</g>
<!-- Node9 -->
<g id="Node000009" class="node">
<title>Node9</title>
<g id="a_Node000009"><a xlink:href="SchemaGraphicArrow_8cpp.html" target="_top" xlink:title=" ">
<polygon fill="white" stroke="#666666" points="1367.75,-53 1191.25,-53 1191.25,0 1367.75,0 1367.75,-53"/>
<text text-anchor="start" x="1199.25" y="-39.5" font-family="Helvetica,sans-Serif" font-size="10.00">/github/workspace/dev</text>
<text text-anchor="start" x="1199.25" y="-28.25" font-family="Helvetica,sans-Serif" font-size="10.00">_area/sourcecode/dbe</text>
<text text-anchor="start" x="1199.25" y="-17" font-family="Helvetica,sans-Serif" font-size="10.00">/apps/SchemaEditor/SchemaGraphic</text>
<text text-anchor="middle" x="1279.5" y="-5.75" font-family="Helvetica,sans-Serif" font-size="10.00">Arrow.cpp</text>
</a>
</g>
</g>
<!-- Node3&#45;&gt;Node9 -->
<g id="edge9_Node000003_Node000009" class="edge">
<title>Node3&#45;&gt;Node9</title>
<g id="a_edge9_Node000003_Node000009"><a xlink:title=" ">
<path fill="none" stroke="#63b8ff" d="M1343.74,-81.39C1332.89,-72.29 1320.86,-62.2 1310.17,-53.23"/>
<polygon fill="#63b8ff" stroke="#63b8ff" points="1341.45,-84.04 1351.36,-87.79 1345.95,-78.68 1341.45,-84.04"/>
</a>
</g>
</g>
<!-- Node10 -->
<g id="Node000010" class="node">
<title>Node10</title>
<g id="a_Node000010"><a xlink:href="SchemaGraphicObject_8cpp.html" target="_top" xlink:title=" ">
<polygon fill="white" stroke="#666666" points="1562.75,-53 1386.25,-53 1386.25,0 1562.75,0 1562.75,-53"/>
<text text-anchor="start" x="1394.25" y="-39.5" font-family="Helvetica,sans-Serif" font-size="10.00">/github/workspace/dev</text>
<text text-anchor="start" x="1394.25" y="-28.25" font-family="Helvetica,sans-Serif" font-size="10.00">_area/sourcecode/dbe</text>
<text text-anchor="start" x="1394.25" y="-17" font-family="Helvetica,sans-Serif" font-size="10.00">/apps/SchemaEditor/SchemaGraphic</text>
<text text-anchor="middle" x="1474.5" y="-5.75" font-family="Helvetica,sans-Serif" font-size="10.00">Object.cpp</text>
</a>
</g>
</g>
<!-- Node3&#45;&gt;Node10 -->
<g id="edge10_Node000003_Node000010" class="edge">
<title>Node3&#45;&gt;Node10</title>
<g id="a_edge10_Node000003_Node000010"><a xlink:title=" ">
<path fill="none" stroke="#63b8ff" d="M1409.76,-81.25C1420.61,-72.25 1432.61,-62.28 1443.3,-53.41"/>
<polygon fill="#63b8ff" stroke="#63b8ff" points="1407.6,-78.5 1402.14,-87.58 1412.07,-83.89 1407.6,-78.5"/>
</a>
</g>
</g>
<!-- Node11 -->
<g id="Node000011" class="node">
<title>Node11</title>
<g id="a_Node000011"><a xlink:href="SchemaGraphicSegmentedArrow_8cpp.html" target="_top" xlink:title=" ">
<polygon fill="white" stroke="#666666" points="1757.75,-53 1581.25,-53 1581.25,0 1757.75,0 1757.75,-53"/>
<text text-anchor="start" x="1589.25" y="-39.5" font-family="Helvetica,sans-Serif" font-size="10.00">/github/workspace/dev</text>
<text text-anchor="start" x="1589.25" y="-28.25" font-family="Helvetica,sans-Serif" font-size="10.00">_area/sourcecode/dbe</text>
<text text-anchor="start" x="1589.25" y="-17" font-family="Helvetica,sans-Serif" font-size="10.00">/apps/SchemaEditor/SchemaGraphic</text>
<text text-anchor="middle" x="1669.5" y="-5.75" font-family="Helvetica,sans-Serif" font-size="10.00">SegmentedArrow.cpp</text>
</a>
</g>
</g>
<!-- Node3&#45;&gt;Node11 -->
<g id="edge11_Node000003_Node000011" class="edge">
<title>Node3&#45;&gt;Node11</title>
<g id="a_edge11_Node000003_Node000011"><a xlink:title=" ">
<path fill="none" stroke="#63b8ff" d="M1460.62,-85.51C1498.25,-75.06 1542.65,-62.73 1580.81,-52.13"/>
<polygon fill="#63b8ff" stroke="#63b8ff" points="1459.84,-82.1 1451.14,-88.15 1461.71,-88.84 1459.84,-82.1"/>
</a>
</g>
</g>
<!-- Node12 -->
<g id="Node000012" class="node">
<title>Node12</title>
<g id="a_Node000012"><a xlink:href="SchemaGraphicsScene_8cpp.html" target="_top" xlink:title=" ">
<polygon fill="white" stroke="#666666" points="1957.38,-53 1775.62,-53 1775.62,0 1957.38,0 1957.38,-53"/>
<text text-anchor="start" x="1783.62" y="-39.5" font-family="Helvetica,sans-Serif" font-size="10.00">/github/workspace/dev</text>
<text text-anchor="start" x="1783.62" y="-28.25" font-family="Helvetica,sans-Serif" font-size="10.00">_area/sourcecode/dbe</text>
<text text-anchor="start" x="1783.62" y="-17" font-family="Helvetica,sans-Serif" font-size="10.00">/apps/SchemaEditor/SchemaGraphics</text>
<text text-anchor="middle" x="1866.5" y="-5.75" font-family="Helvetica,sans-Serif" font-size="10.00">Scene.cpp</text>
</a>
</g>
</g>
<!-- Node3&#45;&gt;Node12 -->
<g id="edge12_Node000003_Node000012" class="edge">
<title>Node3&#45;&gt;Node12</title>
<g id="a_edge12_Node000003_Node000012"><a xlink:title=" ">
<path fill="none" stroke="#63b8ff" d="M1482.93,-96.76C1561.63,-87.04 1671.22,-71.92 1766.5,-53 1769.4,-52.42 1772.34,-51.82 1775.31,-51.18"/>
<polygon fill="#63b8ff" stroke="#63b8ff" points="1482.55,-93.28 1473.05,-97.97 1483.41,-100.23 1482.55,-93.28"/>
</a>
</g>
</g>
<!-- Node13 -->
<g id="Node000013" class="node">
<title>Node13</title>
<g id="a_Node000013"><a xlink:href="SchemaKernelWrapper_8cpp.html" target="_top" xlink:title=" ">
<polygon fill="white" stroke="#666666" points="2145.75,-53 1975.25,-53 1975.25,0 2145.75,0 2145.75,-53"/>
<text text-anchor="start" x="1983.25" y="-39.5" font-family="Helvetica,sans-Serif" font-size="10.00">/github/workspace/dev</text>
<text text-anchor="start" x="1983.25" y="-28.25" font-family="Helvetica,sans-Serif" font-size="10.00">_area/sourcecode/dbe</text>
<text text-anchor="start" x="1983.25" y="-17" font-family="Helvetica,sans-Serif" font-size="10.00">/apps/SchemaEditor/SchemaKernel</text>
<text text-anchor="middle" x="2060.5" y="-5.75" font-family="Helvetica,sans-Serif" font-size="10.00">Wrapper.cpp</text>
</a>
</g>
</g>
<!-- Node3&#45;&gt;Node13 -->
<g id="edge13_Node000003_Node000013" class="edge">
<title>Node3&#45;&gt;Node13</title>
<g id="a_edge13_Node000003_Node000013"><a xlink:title=" ">
<path fill="none" stroke="#63b8ff" d="M1482.68,-104.28C1601.37,-97.87 1798.92,-83.44 1966.5,-53 1969.25,-52.5 1972.03,-51.96 1974.83,-51.39"/>
<polygon fill="#63b8ff" stroke="#63b8ff" points="1482.76,-100.77 1472.96,-104.79 1483.13,-107.76 1482.76,-100.77"/>
</a>
</g>
</g>
<!-- Node14 -->
<g id="Node000014" class="node">
<title>Node14</title>
<g id="a_Node000014"><a xlink:href="SchemaMainWindow_8cpp.html" target="_top" xlink:title=" ">
<polygon fill="white" stroke="#666666" points="2327.38,-53 2163.62,-53 2163.62,0 2327.38,0 2327.38,-53"/>
<text text-anchor="start" x="2171.62" y="-39.5" font-family="Helvetica,sans-Serif" font-size="10.00">/github/workspace/dev</text>
<text text-anchor="start" x="2171.62" y="-28.25" font-family="Helvetica,sans-Serif" font-size="10.00">_area/sourcecode/dbe</text>
<text text-anchor="start" x="2171.62" y="-17" font-family="Helvetica,sans-Serif" font-size="10.00">/apps/SchemaEditor/SchemaMain</text>
<text text-anchor="middle" x="2245.5" y="-5.75" font-family="Helvetica,sans-Serif" font-size="10.00">Window.cpp</text>
</a>
</g>
</g>
<!-- Node3&#45;&gt;Node14 -->
<g id="edge14_Node000003_Node000014" class="edge">
<title>Node3&#45;&gt;Node14</title>
<g id="a_edge14_Node000003_Node000014"><a xlink:title=" ">
<path fill="none" stroke="#63b8ff" d="M1483.06,-107.99C1633.7,-105.22 1917.05,-94.36 2154.5,-53 2157.41,-52.49 2160.36,-51.93 2163.33,-51.33"/>
<polygon fill="#63b8ff" stroke="#63b8ff" points="1483.01,-104.49 1473.07,-108.17 1483.13,-111.49 1483.01,-104.49"/>
</a>
</g>
</g>
<!-- Node15 -->
<g id="Node000015" class="node">
<title>Node15</title>
<g id="a_Node000015"><a xlink:href="SchemaMethodEditor_8cpp.html" target="_top" xlink:title=" ">
<polygon fill="white" stroke="#666666" points="2520,-53 2345,-53 2345,0 2520,0 2520,-53"/>
<text text-anchor="start" x="2353" y="-39.5" font-family="Helvetica,sans-Serif" font-size="10.00">/github/workspace/dev</text>
<text text-anchor="start" x="2353" y="-28.25" font-family="Helvetica,sans-Serif" font-size="10.00">_area/sourcecode/dbe</text>
<text text-anchor="start" x="2353" y="-17" font-family="Helvetica,sans-Serif" font-size="10.00">/apps/SchemaEditor/SchemaMethod</text>
<text text-anchor="middle" x="2432.5" y="-5.75" font-family="Helvetica,sans-Serif" font-size="10.00">Editor.cpp</text>
</a>
</g>
</g>
<!-- Node3&#45;&gt;Node15 -->
<g id="edge15_Node000003_Node000015" class="edge">
<title>Node3&#45;&gt;Node15</title>
<g id="a_edge15_Node000003_Node000015"><a xlink:title=" ">
<path fill="none" stroke="#63b8ff" d="M1482.99,-109.65C1660.92,-109.39 2029.42,-102.21 2336.5,-53 2339.14,-52.58 2341.81,-52.11 2344.5,-51.61"/>
<polygon fill="#63b8ff" stroke="#63b8ff" points="1483.06,-106.15 1473.06,-109.65 1483.06,-113.15 1483.06,-106.15"/>
</a>
</g>
</g>
<!-- Node16 -->
<g id="Node000016" class="node">
<title>Node16</title>
<g id="a_Node000016"><a xlink:href="SchemaMethodImplementationEditor_8cpp.html" target="_top" xlink:title=" ">
<polygon fill="white" stroke="#666666" points="2713,-53 2538,-53 2538,0 2713,0 2713,-53"/>
<text text-anchor="start" x="2546" y="-39.5" font-family="Helvetica,sans-Serif" font-size="10.00">/github/workspace/dev</text>
<text text-anchor="start" x="2546" y="-28.25" font-family="Helvetica,sans-Serif" font-size="10.00">_area/sourcecode/dbe</text>
<text text-anchor="start" x="2546" y="-17" font-family="Helvetica,sans-Serif" font-size="10.00">/apps/SchemaEditor/SchemaMethod</text>
<text text-anchor="middle" x="2625.5" y="-5.75" font-family="Helvetica,sans-Serif" font-size="10.00">ImplementationEditor.cpp</text>
</a>
</g>
</g>
<!-- Node3&#45;&gt;Node16 -->
<g id="edge16_Node000003_Node000016" class="edge">
<title>Node3&#45;&gt;Node16</title>
<g id="a_edge16_Node000003_Node000016"><a xlink:title=" ">
<path fill="none" stroke="#63b8ff" d="M1482.81,-106.59C1728.45,-100.86 2329.68,-84.02 2529.5,-53 2532.14,-52.59 2534.81,-52.14 2537.51,-51.65"/>
<polygon fill="#63b8ff" stroke="#63b8ff" points="1482.81,-103.09 1472.89,-106.82 1482.97,-110.09 1482.81,-103.09"/>
</a>
</g>
</g>
<!-- Node17 -->
<g id="Node000017" class="node">
<title>Node17</title>
<g id="a_Node000017"><a xlink:href="SchemaRelationshipEditor_8cpp.html" target="_top" xlink:title=" ">
<polygon fill="white" stroke="#666666" points="2927.5,-53 2731.5,-53 2731.5,0 2927.5,0 2927.5,-53"/>
<text text-anchor="start" x="2739.5" y="-39.5" font-family="Helvetica,sans-Serif" font-size="10.00">/github/workspace/dev</text>
<text text-anchor="start" x="2739.5" y="-28.25" font-family="Helvetica,sans-Serif" font-size="10.00">_area/sourcecode/dbe</text>
<text text-anchor="start" x="2739.5" y="-17" font-family="Helvetica,sans-Serif" font-size="10.00">/apps/SchemaEditor/SchemaRelationship</text>
<text text-anchor="middle" x="2829.5" y="-5.75" font-family="Helvetica,sans-Serif" font-size="10.00">Editor.cpp</text>
</a>
</g>
</g>
<!-- Node3&#45;&gt;Node17 -->
<g id="edge17_Node000003_Node000017" class="edge">
<title>Node3&#45;&gt;Node17</title>
<g id="a_edge17_Node000003_Node000017"><a xlink:title=" ">
<path fill="none" stroke="#63b8ff" d="M1482.6,-107.11C1756.72,-102.12 2483.72,-86.09 2722.5,-53 2725.34,-52.61 2728.21,-52.17 2731.1,-51.7"/>
<polygon fill="#63b8ff" stroke="#63b8ff" points="1482.92,-103.6 1472.98,-107.28 1483.04,-110.6 1482.92,-103.6"/>
</a>
</g>
</g>
</g>
</svg>
