<?xml version="1.0" encoding="UTF-8" standalone="no"?>
<!DOCTYPE svg PUBLIC "-//W3C//DTD SVG 1.1//EN"
 "http://www.w3.org/Graphics/SVG/1.1/DTD/svg11.dtd">
<!-- Generated by graphviz version 9.0.0 (20230911.1827)
 -->
<!-- Title: /github/workspace/dev_area/sourcecode/dbe/include/dbe/SchemaMainWindow.hpp Pages: 1 -->
<svg width="308pt" height="139pt"
 viewBox="0.00 0.00 307.88 138.75" xmlns="http://www.w3.org/2000/svg" xmlns:xlink="http://www.w3.org/1999/xlink">
<g id="graph0" class="graph" transform="scale(1 1) rotate(0) translate(4 134.75)">
<title>/github/workspace/dev_area/sourcecode/dbe/include/dbe/SchemaMainWindow.hpp</title>
<!-- Node1 -->
<g id="Node000001" class="node">
<title>Node1</title>
<g id="a_Node000001"><a xlink:title=" ">
<polygon fill="#999999" stroke="#666666" points="251.38,-130.75 70.38,-130.75 70.38,-89 251.38,-89 251.38,-130.75"/>
<text text-anchor="start" x="78.38" y="-117.25" font-family="Helvetica,sans-Serif" font-size="10.00">/github/workspace/dev</text>
<text text-anchor="start" x="78.38" y="-106" font-family="Helvetica,sans-Serif" font-size="10.00">_area/sourcecode/dbe</text>
<text text-anchor="middle" x="160.88" y="-94.75" font-family="Helvetica,sans-Serif" font-size="10.00">/include/dbe/SchemaMainWindow.hpp</text>
</a>
</g>
</g>
<!-- Node2 -->
<g id="Node000002" class="node">
<title>Node2</title>
<g id="a_Node000002"><a xlink:href="SchemaMainWindow_8cpp.html" target="_top" xlink:title=" ">
<polygon fill="white" stroke="#666666" points="163.75,-53 0,-53 0,0 163.75,0 163.75,-53"/>
<text text-anchor="start" x="8" y="-39.5" font-family="Helvetica,sans-Serif" font-size="10.00">/github/workspace/dev</text>
<text text-anchor="start" x="8" y="-28.25" font-family="Helvetica,sans-Serif" font-size="10.00">_area/sourcecode/dbe</text>
<text text-anchor="start" x="8" y="-17" font-family="Helvetica,sans-Serif" font-size="10.00">/apps/SchemaEditor/SchemaMain</text>
<text text-anchor="middle" x="81.88" y="-5.75" font-family="Helvetica,sans-Serif" font-size="10.00">Window.cpp</text>
</a>
</g>
</g>
<!-- Node1&#45;&gt;Node2 -->
<g id="edge1_Node000001_Node000002" class="edge">
<title>Node1&#45;&gt;Node2</title>
<g id="a_edge1_Node000001_Node000002"><a xlink:title=" ">
<path fill="none" stroke="#63b8ff" d="M133.4,-80.57C124.77,-71.68 115.3,-61.93 106.85,-53.23"/>
<polygon fill="#63b8ff" stroke="#63b8ff" points="130.82,-82.94 140.29,-87.67 135.84,-78.06 130.82,-82.94"/>
</a>
</g>
</g>
<!-- Node3 -->
<g id="Node000003" class="node">
<title>Node3</title>
<g id="a_Node000003"><a xlink:href="SchemaMain_8cpp.html" target="_top" xlink:title=" ">
<polygon fill="white" stroke="#666666" points="299.88,-47.38 181.88,-47.38 181.88,-5.62 299.88,-5.62 299.88,-47.38"/>
<text text-anchor="start" x="189.88" y="-33.88" font-family="Helvetica,sans-Serif" font-size="10.00">/github/workspace/dev</text>
<text text-anchor="start" x="189.88" y="-22.62" font-family="Helvetica,sans-Serif" font-size="10.00">_area/sourcecode/dbe</text>
<text text-anchor="middle" x="240.88" y="-11.38" font-family="Helvetica,sans-Serif" font-size="10.00">/apps/SchemaMain.cpp</text>
</a>
</g>
</g>
<!-- Node1&#45;&gt;Node3 -->
<g id="edge2_Node000001_Node000003" class="edge">
<title>Node1&#45;&gt;Node3</title>
<g id="a_edge2_Node000001_Node000003"><a xlink:title=" ">
<path fill="none" stroke="#63b8ff" d="M188.52,-80.75C199.22,-69.87 211.23,-57.65 221.05,-47.67"/>
<polygon fill="#63b8ff" stroke="#63b8ff" points="186.23,-78.1 181.71,-87.68 191.22,-83 186.23,-78.1"/>
</a>
</g>
</g>
</g>
</svg>
