<?xml version="1.0" encoding="UTF-8" standalone="no"?>
<!DOCTYPE svg PUBLIC "-//W3C//DTD SVG 1.1//EN"
 "http://www.w3.org/Graphics/SVG/1.1/DTD/svg11.dtd">
<!-- Generated by graphviz version 9.0.0 (20230911.1827)
 -->
<!-- Title: /github/workspace/dev_area/sourcecode/dbe/include/dbe/SchemaCustomModelInterface.hpp Pages: 1 -->
<svg width="1562pt" height="328pt"
 viewBox="0.00 0.00 1561.50 328.00" xmlns="http://www.w3.org/2000/svg" xmlns:xlink="http://www.w3.org/1999/xlink">
<g id="graph0" class="graph" transform="scale(1 1) rotate(0) translate(4 324)">
<title>/github/workspace/dev_area/sourcecode/dbe/include/dbe/SchemaCustomModelInterface.hpp</title>
<!-- Node1 -->
<g id="Node000001" class="node">
<title>Node1</title>
<g id="a_Node000001"><a xlink:title=" ">
<polygon fill="#999999" stroke="#666666" points="763,-320 595.5,-320 595.5,-267 763,-267 763,-320"/>
<text text-anchor="start" x="603.5" y="-306.5" font-family="Helvetica,sans-Serif" font-size="10.00">/github/workspace/dev</text>
<text text-anchor="start" x="603.5" y="-295.25" font-family="Helvetica,sans-Serif" font-size="10.00">_area/sourcecode/dbe</text>
<text text-anchor="start" x="603.5" y="-284" font-family="Helvetica,sans-Serif" font-size="10.00">/include/dbe/SchemaCustomModel</text>
<text text-anchor="middle" x="679.25" y="-272.75" font-family="Helvetica,sans-Serif" font-size="10.00">Interface.hpp</text>
</a>
</g>
</g>
<!-- Node2 -->
<g id="Node000002" class="node">
<title>Node2</title>
<g id="a_Node000002"><a xlink:href="SchemaCustomModelInterface_8cpp.html" target="_top" xlink:title=" ">
<polygon fill="white" stroke="#666666" points="176.5,-231 0,-231 0,-178 176.5,-178 176.5,-231"/>
<text text-anchor="start" x="8" y="-217.5" font-family="Helvetica,sans-Serif" font-size="10.00">/github/workspace/dev</text>
<text text-anchor="start" x="8" y="-206.25" font-family="Helvetica,sans-Serif" font-size="10.00">_area/sourcecode/dbe</text>
<text text-anchor="start" x="8" y="-195" font-family="Helvetica,sans-Serif" font-size="10.00">/apps/SchemaEditor/SchemaCustom</text>
<text text-anchor="middle" x="88.25" y="-183.75" font-family="Helvetica,sans-Serif" font-size="10.00">ModelInterface.cpp</text>
</a>
</g>
</g>
<!-- Node1&#45;&gt;Node2 -->
<g id="edge1_Node000001_Node000002" class="edge">
<title>Node1&#45;&gt;Node2</title>
<g id="a_edge1_Node000001_Node000002"><a xlink:title=" ">
<path fill="none" stroke="#63b8ff" d="M583.97,-284.44C484.05,-275.09 322.73,-257.51 185.25,-231 182.51,-230.47 179.74,-229.91 176.95,-229.32"/>
<polygon fill="#63b8ff" stroke="#63b8ff" points="583.46,-287.9 593.74,-285.34 584.1,-280.93 583.46,-287.9"/>
</a>
</g>
</g>
<!-- Node3 -->
<g id="Node000003" class="node">
<title>Node3</title>
<g id="a_Node000003"><a xlink:href="SchemaCustomAttributeModel_8hpp.html" target="_top" xlink:title=" ">
<polygon fill="white" stroke="#666666" points="372.25,-231 194.25,-231 194.25,-178 372.25,-178 372.25,-231"/>
<text text-anchor="start" x="202.25" y="-217.5" font-family="Helvetica,sans-Serif" font-size="10.00">/github/workspace/dev</text>
<text text-anchor="start" x="202.25" y="-206.25" font-family="Helvetica,sans-Serif" font-size="10.00">_area/sourcecode/dbe</text>
<text text-anchor="start" x="202.25" y="-195" font-family="Helvetica,sans-Serif" font-size="10.00">/include/dbe/SchemaCustomAttribute</text>
<text text-anchor="middle" x="283.25" y="-183.75" font-family="Helvetica,sans-Serif" font-size="10.00">Model.hpp</text>
</a>
</g>
</g>
<!-- Node1&#45;&gt;Node3 -->
<g id="edge2_Node000001_Node000003" class="edge">
<title>Node1&#45;&gt;Node3</title>
<g id="a_edge2_Node000001_Node000003"><a xlink:title=" ">
<path fill="none" stroke="#63b8ff" d="M584.08,-274.15C525.44,-262.52 448.79,-246.75 381.25,-231 378.42,-230.34 375.56,-229.66 372.66,-228.97"/>
<polygon fill="#63b8ff" stroke="#63b8ff" points="583.21,-277.54 593.7,-276.05 584.57,-270.67 583.21,-277.54"/>
</a>
</g>
</g>
<!-- Node9 -->
<g id="Node000009" class="node">
<title>Node9</title>
<g id="a_Node000009"><a xlink:href="SchemaCustomMethodImplementationModel_8hpp.html" target="_top" xlink:title=" ">
<polygon fill="white" stroke="#666666" points="1354,-231 1180.5,-231 1180.5,-178 1354,-178 1354,-231"/>
<text text-anchor="start" x="1188.5" y="-217.5" font-family="Helvetica,sans-Serif" font-size="10.00">/github/workspace/dev</text>
<text text-anchor="start" x="1188.5" y="-206.25" font-family="Helvetica,sans-Serif" font-size="10.00">_area/sourcecode/dbe</text>
<text text-anchor="start" x="1188.5" y="-195" font-family="Helvetica,sans-Serif" font-size="10.00">/include/dbe/SchemaCustomMethod</text>
<text text-anchor="middle" x="1267.25" y="-183.75" font-family="Helvetica,sans-Serif" font-size="10.00">ImplementationModel.hpp</text>
</a>
</g>
</g>
<!-- Node1&#45;&gt;Node9 -->
<g id="edge8_Node000001_Node000009" class="edge">
<title>Node1&#45;&gt;Node9</title>
<g id="a_edge8_Node000001_Node000009"><a xlink:title=" ">
<path fill="none" stroke="#63b8ff" d="M774.53,-282.21C869.33,-271.44 1018.8,-253.05 1147.25,-231 1157.96,-229.16 1169.16,-227.04 1180.24,-224.83"/>
<polygon fill="#63b8ff" stroke="#63b8ff" points="774.29,-278.71 764.75,-283.31 775.08,-285.67 774.29,-278.71"/>
</a>
</g>
</g>
<!-- Node13 -->
<g id="Node000013" class="node">
<title>Node13</title>
<g id="a_Node000013"><a xlink:href="SchemaCustomMethodModel_8hpp.html" target="_top" xlink:title=" ">
<polygon fill="white" stroke="#666666" points="564,-231 390.5,-231 390.5,-178 564,-178 564,-231"/>
<text text-anchor="start" x="398.5" y="-217.5" font-family="Helvetica,sans-Serif" font-size="10.00">/github/workspace/dev</text>
<text text-anchor="start" x="398.5" y="-206.25" font-family="Helvetica,sans-Serif" font-size="10.00">_area/sourcecode/dbe</text>
<text text-anchor="start" x="398.5" y="-195" font-family="Helvetica,sans-Serif" font-size="10.00">/include/dbe/SchemaCustomMethod</text>
<text text-anchor="middle" x="477.25" y="-183.75" font-family="Helvetica,sans-Serif" font-size="10.00">Model.hpp</text>
</a>
</g>
</g>
<!-- Node1&#45;&gt;Node13 -->
<g id="edge13_Node000001_Node000013" class="edge">
<title>Node1&#45;&gt;Node13</title>
<g id="a_edge13_Node000001_Node000013"><a xlink:title=" ">
<path fill="none" stroke="#63b8ff" d="M608.43,-262C585.2,-251.99 559.62,-240.98 537.27,-231.35"/>
<polygon fill="#63b8ff" stroke="#63b8ff" points="606.96,-265.18 617.53,-265.92 609.73,-258.75 606.96,-265.18"/>
</a>
</g>
</g>
<!-- Node15 -->
<g id="Node000015" class="node">
<title>Node15</title>
<g id="a_Node000015"><a xlink:href="SchemaCustomRelationshipModel_8hpp.html" target="_top" xlink:title=" ">
<polygon fill="white" stroke="#666666" points="776.5,-231 582,-231 582,-178 776.5,-178 776.5,-231"/>
<text text-anchor="start" x="590" y="-217.5" font-family="Helvetica,sans-Serif" font-size="10.00">/github/workspace/dev</text>
<text text-anchor="start" x="590" y="-206.25" font-family="Helvetica,sans-Serif" font-size="10.00">_area/sourcecode/dbe</text>
<text text-anchor="start" x="590" y="-195" font-family="Helvetica,sans-Serif" font-size="10.00">/include/dbe/SchemaCustomRelationship</text>
<text text-anchor="middle" x="679.25" y="-183.75" font-family="Helvetica,sans-Serif" font-size="10.00">Model.hpp</text>
</a>
</g>
</g>
<!-- Node1&#45;&gt;Node15 -->
<g id="edge16_Node000001_Node000015" class="edge">
<title>Node1&#45;&gt;Node15</title>
<g id="a_edge16_Node000001_Node000015"><a xlink:title=" ">
<path fill="none" stroke="#63b8ff" d="M679.25,-255.61C679.25,-247.41 679.25,-238.89 679.25,-231.25"/>
<polygon fill="#63b8ff" stroke="#63b8ff" points="675.75,-255.35 679.25,-265.35 682.75,-255.35 675.75,-255.35"/>
</a>
</g>
</g>
<!-- Node17 -->
<g id="Node000017" class="node">
<title>Node17</title>
<g id="a_Node000017"><a xlink:href="SchemaCustomSubClassModel_8hpp.html" target="_top" xlink:title=" ">
<polygon fill="white" stroke="#666666" points="953.5,-231 795,-231 795,-178 953.5,-178 953.5,-231"/>
<text text-anchor="start" x="803" y="-217.5" font-family="Helvetica,sans-Serif" font-size="10.00">/github/workspace/dev</text>
<text text-anchor="start" x="803" y="-206.25" font-family="Helvetica,sans-Serif" font-size="10.00">_area/sourcecode/dbe</text>
<text text-anchor="start" x="803" y="-195" font-family="Helvetica,sans-Serif" font-size="10.00">/include/dbe/SchemaCustomSub</text>
<text text-anchor="middle" x="874.25" y="-183.75" font-family="Helvetica,sans-Serif" font-size="10.00">ClassModel.hpp</text>
</a>
</g>
</g>
<!-- Node1&#45;&gt;Node17 -->
<g id="edge19_Node000001_Node000017" class="edge">
<title>Node1&#45;&gt;Node17</title>
<g id="a_edge19_Node000001_Node000017"><a xlink:title=" ">
<path fill="none" stroke="#63b8ff" d="M747.92,-261.86C770.26,-251.89 794.83,-240.93 816.31,-231.35"/>
<polygon fill="#63b8ff" stroke="#63b8ff" points="746.58,-258.63 738.87,-265.9 749.43,-265.02 746.58,-258.63"/>
</a>
</g>
</g>
<!-- Node19 -->
<g id="Node000019" class="node">
<title>Node19</title>
<g id="a_Node000019"><a xlink:href="SchemaCustomSuperClassModel_8hpp.html" target="_top" xlink:title=" ">
<polygon fill="white" stroke="#666666" points="1138.62,-231 971.88,-231 971.88,-178 1138.62,-178 1138.62,-231"/>
<text text-anchor="start" x="979.88" y="-217.5" font-family="Helvetica,sans-Serif" font-size="10.00">/github/workspace/dev</text>
<text text-anchor="start" x="979.88" y="-206.25" font-family="Helvetica,sans-Serif" font-size="10.00">_area/sourcecode/dbe</text>
<text text-anchor="start" x="979.88" y="-195" font-family="Helvetica,sans-Serif" font-size="10.00">/include/dbe/SchemaCustomSuper</text>
<text text-anchor="middle" x="1055.25" y="-183.75" font-family="Helvetica,sans-Serif" font-size="10.00">ClassModel.hpp</text>
</a>
</g>
</g>
<!-- Node1&#45;&gt;Node19 -->
<g id="edge22_Node000001_Node000019" class="edge">
<title>Node1&#45;&gt;Node19</title>
<g id="a_edge22_Node000001_Node000019"><a xlink:title=" ">
<path fill="none" stroke="#63b8ff" d="M774.56,-273.12C829.59,-261.6 900.01,-246.28 962.25,-231 965.26,-230.26 968.32,-229.5 971.4,-228.71"/>
<polygon fill="#63b8ff" stroke="#63b8ff" points="773.97,-269.66 764.9,-275.13 775.4,-276.52 773.97,-269.66"/>
</a>
</g>
</g>
<!-- Node4 -->
<g id="Node000004" class="node">
<title>Node4</title>
<g id="a_Node000004"><a xlink:href="SchemaCustomAttributeModel_8cpp.html" target="_top" xlink:title=" ">
<polygon fill="white" stroke="#666666" points="184.5,-142 8,-142 8,-89 184.5,-89 184.5,-142"/>
<text text-anchor="start" x="16" y="-128.5" font-family="Helvetica,sans-Serif" font-size="10.00">/github/workspace/dev</text>
<text text-anchor="start" x="16" y="-117.25" font-family="Helvetica,sans-Serif" font-size="10.00">_area/sourcecode/dbe</text>
<text text-anchor="start" x="16" y="-106" font-family="Helvetica,sans-Serif" font-size="10.00">/apps/SchemaEditor/SchemaCustom</text>
<text text-anchor="middle" x="96.25" y="-94.75" font-family="Helvetica,sans-Serif" font-size="10.00">AttributeModel.cpp</text>
</a>
</g>
</g>
<!-- Node3&#45;&gt;Node4 -->
<g id="edge3_Node000003_Node000004" class="edge">
<title>Node3&#45;&gt;Node4</title>
<g id="a_edge3_Node000003_Node000004"><a xlink:title=" ">
<path fill="none" stroke="#63b8ff" d="M217.11,-172.73C195.76,-162.79 172.32,-151.89 151.82,-142.35"/>
<polygon fill="#63b8ff" stroke="#63b8ff" points="215.48,-175.83 226.02,-176.88 218.43,-169.48 215.48,-175.83"/>
</a>
</g>
</g>
<!-- Node5 -->
<g id="Node000005" class="node">
<title>Node5</title>
<g id="a_Node000005"><a xlink:href="SchemaClassEditor_8hpp.html" target="_top" xlink:title=" ">
<polygon fill="white" stroke="#666666" points="572.75,-136.38 397.75,-136.38 397.75,-94.62 572.75,-94.62 572.75,-136.38"/>
<text text-anchor="start" x="405.75" y="-122.88" font-family="Helvetica,sans-Serif" font-size="10.00">/github/workspace/dev</text>
<text text-anchor="start" x="405.75" y="-111.62" font-family="Helvetica,sans-Serif" font-size="10.00">_area/sourcecode/dbe</text>
<text text-anchor="middle" x="485.25" y="-100.38" font-family="Helvetica,sans-Serif" font-size="10.00">/include/dbe/SchemaClassEditor.hpp</text>
</a>
</g>
</g>
<!-- Node3&#45;&gt;Node5 -->
<g id="edge4_Node000003_Node000005" class="edge">
<title>Node3&#45;&gt;Node5</title>
<g id="a_edge4_Node000003_Node000005"><a xlink:title=" ">
<path fill="none" stroke="#63b8ff" d="M354.06,-173C381.88,-161.02 413.06,-147.59 438.04,-136.83"/>
<polygon fill="#63b8ff" stroke="#63b8ff" points="352.77,-169.75 344.97,-176.92 355.54,-176.18 352.77,-169.75"/>
</a>
</g>
</g>
<!-- Node6 -->
<g id="Node000006" class="node">
<title>Node6</title>
<g id="a_Node000006"><a xlink:href="SchemaClassEditor_8cpp.html" target="_top" xlink:title=" ">
<polygon fill="white" stroke="#666666" points="1053,-53 885.5,-53 885.5,0 1053,0 1053,-53"/>
<text text-anchor="start" x="893.5" y="-39.5" font-family="Helvetica,sans-Serif" font-size="10.00">/github/workspace/dev</text>
<text text-anchor="start" x="893.5" y="-28.25" font-family="Helvetica,sans-Serif" font-size="10.00">_area/sourcecode/dbe</text>
<text text-anchor="start" x="893.5" y="-17" font-family="Helvetica,sans-Serif" font-size="10.00">/apps/SchemaEditor/SchemaClass</text>
<text text-anchor="middle" x="969.25" y="-5.75" font-family="Helvetica,sans-Serif" font-size="10.00">Editor.cpp</text>
</a>
</g>
</g>
<!-- Node5&#45;&gt;Node6 -->
<g id="edge5_Node000005_Node000006" class="edge">
<title>Node5&#45;&gt;Node6</title>
<g id="a_edge5_Node000005_Node000006"><a xlink:title=" ">
<path fill="none" stroke="#63b8ff" d="M570.6,-91.56C574.53,-90.66 578.43,-89.8 582.25,-89 685.77,-67.22 806.32,-49.21 885.01,-38.42"/>
<polygon fill="#63b8ff" stroke="#63b8ff" points="569.88,-88.13 560.95,-93.83 571.49,-94.95 569.88,-88.13"/>
</a>
</g>
</g>
<!-- Node7 -->
<g id="Node000007" class="node">
<title>Node7</title>
<g id="a_Node000007"><a xlink:href="SchemaGraphicsScene_8cpp.html" target="_top" xlink:title=" ">
<polygon fill="white" stroke="#666666" points="481.12,-53 299.38,-53 299.38,0 481.12,0 481.12,-53"/>
<text text-anchor="start" x="307.38" y="-39.5" font-family="Helvetica,sans-Serif" font-size="10.00">/github/workspace/dev</text>
<text text-anchor="start" x="307.38" y="-28.25" font-family="Helvetica,sans-Serif" font-size="10.00">_area/sourcecode/dbe</text>
<text text-anchor="start" x="307.38" y="-17" font-family="Helvetica,sans-Serif" font-size="10.00">/apps/SchemaEditor/SchemaGraphics</text>
<text text-anchor="middle" x="390.25" y="-5.75" font-family="Helvetica,sans-Serif" font-size="10.00">Scene.cpp</text>
</a>
</g>
</g>
<!-- Node5&#45;&gt;Node7 -->
<g id="edge6_Node000005_Node000007" class="edge">
<title>Node5&#45;&gt;Node7</title>
<g id="a_edge6_Node000005_Node000007"><a xlink:title=" ">
<path fill="none" stroke="#63b8ff" d="M454.99,-86.79C443.23,-76.02 429.84,-63.76 418.3,-53.19"/>
<polygon fill="#63b8ff" stroke="#63b8ff" points="452.36,-89.13 462.1,-93.3 457.09,-83.96 452.36,-89.13"/>
</a>
</g>
</g>
<!-- Node8 -->
<g id="Node000008" class="node">
<title>Node8</title>
<g id="a_Node000008"><a xlink:href="SchemaMainWindow_8cpp.html" target="_top" xlink:title=" ">
<polygon fill="white" stroke="#666666" points="663.12,-53 499.38,-53 499.38,0 663.12,0 663.12,-53"/>
<text text-anchor="start" x="507.38" y="-39.5" font-family="Helvetica,sans-Serif" font-size="10.00">/github/workspace/dev</text>
<text text-anchor="start" x="507.38" y="-28.25" font-family="Helvetica,sans-Serif" font-size="10.00">_area/sourcecode/dbe</text>
<text text-anchor="start" x="507.38" y="-17" font-family="Helvetica,sans-Serif" font-size="10.00">/apps/SchemaEditor/SchemaMain</text>
<text text-anchor="middle" x="581.25" y="-5.75" font-family="Helvetica,sans-Serif" font-size="10.00">Window.cpp</text>
</a>
</g>
</g>
<!-- Node5&#45;&gt;Node8 -->
<g id="edge7_Node000005_Node000008" class="edge">
<title>Node5&#45;&gt;Node8</title>
<g id="a_edge7_Node000005_Node000008"><a xlink:title=" ">
<path fill="none" stroke="#63b8ff" d="M515.83,-86.79C527.71,-76.02 541.24,-63.76 552.9,-53.19"/>
<polygon fill="#63b8ff" stroke="#63b8ff" points="513.7,-84 508.64,-93.31 518.4,-89.18 513.7,-84"/>
</a>
</g>
</g>
<!-- Node10 -->
<g id="Node000010" class="node">
<title>Node10</title>
<g id="a_Node000010"><a xlink:href="SchemaCustomMethodImplementationModel_8cpp.html" target="_top" xlink:title=" ">
<polygon fill="white" stroke="#666666" points="1553.5,-142 1377,-142 1377,-89 1553.5,-89 1553.5,-142"/>
<text text-anchor="start" x="1385" y="-128.5" font-family="Helvetica,sans-Serif" font-size="10.00">/github/workspace/dev</text>
<text text-anchor="start" x="1385" y="-117.25" font-family="Helvetica,sans-Serif" font-size="10.00">_area/sourcecode/dbe</text>
<text text-anchor="start" x="1385" y="-106" font-family="Helvetica,sans-Serif" font-size="10.00">/apps/SchemaEditor/SchemaCustom</text>
<text text-anchor="middle" x="1465.25" y="-94.75" font-family="Helvetica,sans-Serif" font-size="10.00">MethodImplementationModel.cpp</text>
</a>
</g>
</g>
<!-- Node9&#45;&gt;Node10 -->
<g id="edge9_Node000009_Node000010" class="edge">
<title>Node9&#45;&gt;Node10</title>
<g id="a_edge9_Node000009_Node000010"><a xlink:title=" ">
<path fill="none" stroke="#63b8ff" d="M1336.67,-173C1359.44,-162.99 1384.51,-151.98 1406.42,-142.35"/>
<polygon fill="#63b8ff" stroke="#63b8ff" points="1335.52,-169.68 1327.77,-176.91 1338.34,-176.09 1335.52,-169.68"/>
</a>
</g>
</g>
<!-- Node11 -->
<g id="Node000011" class="node">
<title>Node11</title>
<g id="a_Node000011"><a xlink:href="SchemaMethodEditor_8hpp.html" target="_top" xlink:title=" ">
<polygon fill="white" stroke="#666666" points="1358.5,-136.38 1176,-136.38 1176,-94.62 1358.5,-94.62 1358.5,-136.38"/>
<text text-anchor="start" x="1184" y="-122.88" font-family="Helvetica,sans-Serif" font-size="10.00">/github/workspace/dev</text>
<text text-anchor="start" x="1184" y="-111.62" font-family="Helvetica,sans-Serif" font-size="10.00">_area/sourcecode/dbe</text>
<text text-anchor="middle" x="1267.25" y="-100.38" font-family="Helvetica,sans-Serif" font-size="10.00">/include/dbe/SchemaMethodEditor.hpp</text>
</a>
</g>
</g>
<!-- Node9&#45;&gt;Node11 -->
<g id="edge10_Node000009_Node000011" class="edge">
<title>Node9&#45;&gt;Node11</title>
<g id="a_edge10_Node000009_Node000011"><a xlink:title=" ">
<path fill="none" stroke="#63b8ff" d="M1267.25,-166.63C1267.25,-156.38 1267.25,-145.62 1267.25,-136.71"/>
<polygon fill="#63b8ff" stroke="#63b8ff" points="1263.75,-166.35 1267.25,-176.35 1270.75,-166.35 1263.75,-166.35"/>
</a>
</g>
</g>
<!-- Node11&#45;&gt;Node6 -->
<g id="edge11_Node000011_Node000006" class="edge">
<title>Node11&#45;&gt;Node6</title>
<g id="a_edge11_Node000011_Node000006"><a xlink:title=" ">
<path fill="none" stroke="#63b8ff" d="M1186.92,-91.05C1145.62,-78.99 1095.31,-64.3 1053.47,-52.09"/>
<polygon fill="#63b8ff" stroke="#63b8ff" points="1185.73,-94.35 1196.31,-93.79 1187.69,-87.63 1185.73,-94.35"/>
</a>
</g>
</g>
<!-- Node12 -->
<g id="Node000012" class="node">
<title>Node12</title>
<g id="a_Node000012"><a xlink:href="SchemaMethodEditor_8cpp.html" target="_top" xlink:title=" ">
<polygon fill="white" stroke="#666666" points="1354.75,-53 1179.75,-53 1179.75,0 1354.75,0 1354.75,-53"/>
<text text-anchor="start" x="1187.75" y="-39.5" font-family="Helvetica,sans-Serif" font-size="10.00">/github/workspace/dev</text>
<text text-anchor="start" x="1187.75" y="-28.25" font-family="Helvetica,sans-Serif" font-size="10.00">_area/sourcecode/dbe</text>
<text text-anchor="start" x="1187.75" y="-17" font-family="Helvetica,sans-Serif" font-size="10.00">/apps/SchemaEditor/SchemaMethod</text>
<text text-anchor="middle" x="1267.25" y="-5.75" font-family="Helvetica,sans-Serif" font-size="10.00">Editor.cpp</text>
</a>
</g>
</g>
<!-- Node11&#45;&gt;Node12 -->
<g id="edge12_Node000011_Node000012" class="edge">
<title>Node11&#45;&gt;Node12</title>
<g id="a_edge12_Node000011_Node000012"><a xlink:title=" ">
<path fill="none" stroke="#63b8ff" d="M1267.25,-82.97C1267.25,-73.19 1267.25,-62.53 1267.25,-53.19"/>
<polygon fill="#63b8ff" stroke="#63b8ff" points="1263.75,-82.81 1267.25,-92.81 1270.75,-82.81 1263.75,-82.81"/>
</a>
</g>
</g>
<!-- Node13&#45;&gt;Node5 -->
<g id="edge15_Node000013_Node000005" class="edge">
<title>Node13&#45;&gt;Node5</title>
<g id="a_edge15_Node000013_Node000005"><a xlink:title=" ">
<path fill="none" stroke="#63b8ff" d="M480.64,-166.63C481.58,-156.38 482.57,-145.62 483.39,-136.71"/>
<polygon fill="#63b8ff" stroke="#63b8ff" points="477.18,-166.08 479.75,-176.36 484.15,-166.72 477.18,-166.08"/>
</a>
</g>
</g>
<!-- Node14 -->
<g id="Node000014" class="node">
<title>Node14</title>
<g id="a_Node000014"><a xlink:href="SchemaCustomMethodModel_8cpp.html" target="_top" xlink:title=" ">
<polygon fill="white" stroke="#666666" points="379.5,-142 203,-142 203,-89 379.5,-89 379.5,-142"/>
<text text-anchor="start" x="211" y="-128.5" font-family="Helvetica,sans-Serif" font-size="10.00">/github/workspace/dev</text>
<text text-anchor="start" x="211" y="-117.25" font-family="Helvetica,sans-Serif" font-size="10.00">_area/sourcecode/dbe</text>
<text text-anchor="start" x="211" y="-106" font-family="Helvetica,sans-Serif" font-size="10.00">/apps/SchemaEditor/SchemaCustom</text>
<text text-anchor="middle" x="291.25" y="-94.75" font-family="Helvetica,sans-Serif" font-size="10.00">MethodModel.cpp</text>
</a>
</g>
</g>
<!-- Node13&#45;&gt;Node14 -->
<g id="edge14_Node000013_Node000014" class="edge">
<title>Node13&#45;&gt;Node14</title>
<g id="a_edge14_Node000013_Node000014"><a xlink:title=" ">
<path fill="none" stroke="#63b8ff" d="M411.46,-172.73C390.22,-162.79 366.91,-151.89 346.52,-142.35"/>
<polygon fill="#63b8ff" stroke="#63b8ff" points="409.78,-175.81 420.32,-176.87 412.75,-169.47 409.78,-175.81"/>
</a>
</g>
</g>
<!-- Node15&#45;&gt;Node5 -->
<g id="edge18_Node000015_Node000005" class="edge">
<title>Node15&#45;&gt;Node5</title>
<g id="a_edge18_Node000015_Node000005"><a xlink:title=" ">
<path fill="none" stroke="#63b8ff" d="M610.89,-172.84C584.26,-160.9 554.47,-147.54 530.59,-136.83"/>
<polygon fill="#63b8ff" stroke="#63b8ff" points="609.37,-176 619.93,-176.9 612.23,-169.61 609.37,-176"/>
</a>
</g>
</g>
<!-- Node16 -->
<g id="Node000016" class="node">
<title>Node16</title>
<g id="a_Node000016"><a xlink:href="SchemaCustomRelationshipModel_8cpp.html" target="_top" xlink:title=" ">
<polygon fill="white" stroke="#666666" points="767.5,-142 591,-142 591,-89 767.5,-89 767.5,-142"/>
<text text-anchor="start" x="599" y="-128.5" font-family="Helvetica,sans-Serif" font-size="10.00">/github/workspace/dev</text>
<text text-anchor="start" x="599" y="-117.25" font-family="Helvetica,sans-Serif" font-size="10.00">_area/sourcecode/dbe</text>
<text text-anchor="start" x="599" y="-106" font-family="Helvetica,sans-Serif" font-size="10.00">/apps/SchemaEditor/SchemaCustom</text>
<text text-anchor="middle" x="679.25" y="-94.75" font-family="Helvetica,sans-Serif" font-size="10.00">RelationshipModel.cpp</text>
</a>
</g>
</g>
<!-- Node15&#45;&gt;Node16 -->
<g id="edge17_Node000015_Node000016" class="edge">
<title>Node15&#45;&gt;Node16</title>
<g id="a_edge17_Node000015_Node000016"><a xlink:title=" ">
<path fill="none" stroke="#63b8ff" d="M679.25,-166.61C679.25,-158.41 679.25,-149.89 679.25,-142.25"/>
<polygon fill="#63b8ff" stroke="#63b8ff" points="675.75,-166.35 679.25,-176.35 682.75,-166.35 675.75,-166.35"/>
</a>
</g>
</g>
<!-- Node17&#45;&gt;Node5 -->
<g id="edge21_Node000017_Node000005" class="edge">
<title>Node17&#45;&gt;Node5</title>
<g id="a_edge21_Node000017_Node000005"><a xlink:title=" ">
<path fill="none" stroke="#63b8ff" d="M783.81,-177.78C694.04,-157.65 668.34,-160.92 582.25,-142 575.02,-140.41 567.52,-138.65 560.04,-136.81"/>
<polygon fill="#63b8ff" stroke="#63b8ff" points="782.78,-181.14 793.3,-179.95 784.33,-174.31 782.78,-181.14"/>
</a>
</g>
</g>
<!-- Node18 -->
<g id="Node000018" class="node">
<title>Node18</title>
<g id="a_Node000018"><a xlink:href="SchemaCustomSubClassModel_8cpp.html" target="_top" xlink:title=" ">
<polygon fill="white" stroke="#666666" points="962.5,-142 786,-142 786,-89 962.5,-89 962.5,-142"/>
<text text-anchor="start" x="794" y="-128.5" font-family="Helvetica,sans-Serif" font-size="10.00">/github/workspace/dev</text>
<text text-anchor="start" x="794" y="-117.25" font-family="Helvetica,sans-Serif" font-size="10.00">_area/sourcecode/dbe</text>
<text text-anchor="start" x="794" y="-106" font-family="Helvetica,sans-Serif" font-size="10.00">/apps/SchemaEditor/SchemaCustom</text>
<text text-anchor="middle" x="874.25" y="-94.75" font-family="Helvetica,sans-Serif" font-size="10.00">SubClassModel.cpp</text>
</a>
</g>
</g>
<!-- Node17&#45;&gt;Node18 -->
<g id="edge20_Node000017_Node000018" class="edge">
<title>Node17&#45;&gt;Node18</title>
<g id="a_edge20_Node000017_Node000018"><a xlink:title=" ">
<path fill="none" stroke="#63b8ff" d="M874.25,-166.61C874.25,-158.41 874.25,-149.89 874.25,-142.25"/>
<polygon fill="#63b8ff" stroke="#63b8ff" points="870.75,-166.35 874.25,-176.35 877.75,-166.35 870.75,-166.35"/>
</a>
</g>
</g>
<!-- Node19&#45;&gt;Node5 -->
<g id="edge24_Node000019_Node000005" class="edge">
<title>Node19&#45;&gt;Node5</title>
<g id="a_edge24_Node000019_Node000005"><a xlink:title=" ">
<path fill="none" stroke="#63b8ff" d="M960.33,-177.81C793.34,-148.47 745.69,-171.03 582.25,-142 574.11,-140.55 565.65,-138.77 557.27,-136.81"/>
<polygon fill="#63b8ff" stroke="#63b8ff" points="959.55,-181.23 970.01,-179.55 960.79,-174.34 959.55,-181.23"/>
</a>
</g>
</g>
<!-- Node20 -->
<g id="Node000020" class="node">
<title>Node20</title>
<g id="a_Node000020"><a xlink:href="SchemaCustomSuperClassModel_8cpp.html" target="_top" xlink:title=" ">
<polygon fill="white" stroke="#666666" points="1157.5,-142 981,-142 981,-89 1157.5,-89 1157.5,-142"/>
<text text-anchor="start" x="989" y="-128.5" font-family="Helvetica,sans-Serif" font-size="10.00">/github/workspace/dev</text>
<text text-anchor="start" x="989" y="-117.25" font-family="Helvetica,sans-Serif" font-size="10.00">_area/sourcecode/dbe</text>
<text text-anchor="start" x="989" y="-106" font-family="Helvetica,sans-Serif" font-size="10.00">/apps/SchemaEditor/SchemaCustom</text>
<text text-anchor="middle" x="1069.25" y="-94.75" font-family="Helvetica,sans-Serif" font-size="10.00">SuperClassModel.cpp</text>
</a>
</g>
</g>
<!-- Node19&#45;&gt;Node20 -->
<g id="edge23_Node000019_Node000020" class="edge">
<title>Node19&#45;&gt;Node20</title>
<g id="a_edge23_Node000019_Node000020"><a xlink:title=" ">
<path fill="none" stroke="#63b8ff" d="M1061.19,-166.61C1062.51,-158.41 1063.88,-149.89 1065.11,-142.25"/>
<polygon fill="#63b8ff" stroke="#63b8ff" points="1057.75,-165.94 1059.62,-176.37 1064.66,-167.06 1057.75,-165.94"/>
</a>
</g>
</g>
</g>
</svg>
