<?xml version="1.0" encoding="UTF-8" standalone="no"?>
<!DOCTYPE svg PUBLIC "-//W3C//DTD SVG 1.1//EN"
 "http://www.w3.org/Graphics/SVG/1.1/DTD/svg11.dtd">
<!-- Generated by graphviz version 9.0.0 (20230911.1827)
 -->
<!-- Title: /github/workspace/dev_area/sourcecode/serialization/include/serialization/Serialization.hpp Pages: 1 -->
<svg width="2005pt" height="349pt"
 viewBox="0.00 0.00 2004.50 348.50" xmlns="http://www.w3.org/2000/svg" xmlns:xlink="http://www.w3.org/1999/xlink">
<g id="graph0" class="graph" transform="scale(1 1) rotate(0) translate(4 344.5)">
<title>/github/workspace/dev_area/sourcecode/serialization/include/serialization/Serialization.hpp</title>
<!-- Node1 -->
<g id="Node000001" class="node">
<title>Node1</title>
<g id="a_Node000001"><a xlink:title=" ">
<polygon fill="#999999" stroke="#666666" points="1746.25,-340.5 1569,-340.5 1569,-298.75 1746.25,-298.75 1746.25,-340.5"/>
<text text-anchor="start" x="1577" y="-327" font-family="Helvetica,sans-Serif" font-size="10.00">/github/workspace/dev</text>
<text text-anchor="start" x="1577" y="-315.75" font-family="Helvetica,sans-Serif" font-size="10.00">_area/sourcecode/serialization</text>
<text text-anchor="middle" x="1657.63" y="-304.5" font-family="Helvetica,sans-Serif" font-size="10.00">/include/serialization/Serialization.hpp</text>
</a>
</g>
</g>
<!-- Node2 -->
<g id="Node000002" class="node">
<title>Node2</title>
<g id="a_Node000002"><a xlink:href="Issue_8hpp.html" target="_top" xlink:title=" ">
<polygon fill="white" stroke="#666666" points="426.88,-262.75 352.38,-262.75 352.38,-243.5 426.88,-243.5 426.88,-262.75"/>
<text text-anchor="middle" x="389.63" y="-249.25" font-family="Helvetica,sans-Serif" font-size="10.00">ers/Issue.hpp</text>
</a>
</g>
</g>
<!-- Node1&#45;&gt;Node2 -->
<g id="edge1_Node000001_Node000002" class="edge">
<title>Node1&#45;&gt;Node2</title>
<g id="a_edge1_Node000001_Node000002"><a xlink:title=" ">
<path fill="none" stroke="#63b8ff" d="M1568.72,-314.1C1321.03,-301.5 628.89,-266.3 438.59,-256.62"/>
<polygon fill="#63b8ff" stroke="#63b8ff" points="438.98,-253.13 428.82,-256.12 438.63,-260.12 438.98,-253.13"/>
</a>
</g>
</g>
<!-- Node7 -->
<g id="Node000007" class="node">
<title>Node7</title>
<g id="a_Node000007"><a xlink:title=" ">
<polygon fill="#e0e0e0" stroke="#999999" points="576.63,-74.5 536.63,-74.5 536.63,-55.25 576.63,-55.25 576.63,-74.5"/>
<text text-anchor="middle" x="556.63" y="-61" font-family="Helvetica,sans-Serif" font-size="10.00">string</text>
</a>
</g>
</g>
<!-- Node1&#45;&gt;Node7 -->
<g id="edge41_Node000001_Node000007" class="edge">
<title>Node1&#45;&gt;Node7</title>
<g id="a_edge41_Node000001_Node000007"><a xlink:title=" ">
<path fill="none" stroke="#63b8ff" d="M1624.92,-298.44C1612.18,-289.05 1598.53,-276.83 1589.63,-262.75 1552.36,-203.8 1605.78,-154.45 1551.63,-110.5 1511.6,-78.01 707.06,-82.76 588.26,-73.84"/>
<polygon fill="#63b8ff" stroke="#63b8ff" points="588.89,-70.39 578.58,-72.81 588.15,-77.35 588.89,-70.39"/>
</a>
</g>
</g>
<!-- Node14 -->
<g id="Node000014" class="node">
<title>Node14</title>
<g id="a_Node000014"><a xlink:title=" ">
<polygon fill="#e0e0e0" stroke="#999999" points="365.13,-74.5 322.13,-74.5 322.13,-55.25 365.13,-55.25 365.13,-74.5"/>
<text text-anchor="middle" x="343.63" y="-61" font-family="Helvetica,sans-Serif" font-size="10.00">vector</text>
</a>
</g>
</g>
<!-- Node1&#45;&gt;Node14 -->
<g id="edge42_Node000001_Node000014" class="edge">
<title>Node1&#45;&gt;Node14</title>
<g id="a_edge42_Node000001_Node000014"><a xlink:title=" ">
<path fill="none" stroke="#63b8ff" d="M1568.51,-318.73C1355.93,-318.13 802.56,-311.56 343.63,-262.75 198.81,-247.35 114.53,-318.83 20.63,-207.5 -62.93,-108.43 212.51,-76.37 310.41,-68.23"/>
<polygon fill="#63b8ff" stroke="#63b8ff" points="310.5,-71.74 320.19,-67.46 309.94,-64.76 310.5,-71.74"/>
</a>
</g>
</g>
<!-- Node28 -->
<g id="Node000028" class="node">
<title>Node28</title>
<g id="a_Node000028"><a xlink:title=" ">
<polygon fill="#e0e0e0" stroke="#999999" points="1716.25,-262.75 1599,-262.75 1599,-243.5 1716.25,-243.5 1716.25,-262.75"/>
<text text-anchor="middle" x="1657.63" y="-249.25" font-family="Helvetica,sans-Serif" font-size="10.00">boost/preprocessor.hpp</text>
</a>
</g>
</g>
<!-- Node1&#45;&gt;Node28 -->
<g id="edge37_Node000001_Node000028" class="edge">
<title>Node1&#45;&gt;Node28</title>
<g id="a_edge37_Node000001_Node000028"><a xlink:title=" ">
<path fill="none" stroke="#63b8ff" d="M1657.63,-298.57C1657.63,-290.9 1657.63,-282.14 1657.63,-274.45"/>
<polygon fill="#63b8ff" stroke="#63b8ff" points="1661.13,-274.71 1657.63,-264.71 1654.13,-274.71 1661.13,-274.71"/>
</a>
</g>
</g>
<!-- Node29 -->
<g id="Node000029" class="node">
<title>Node29</title>
<g id="a_Node000029"><a xlink:title=" ">
<polygon fill="#e0e0e0" stroke="#999999" points="1808.5,-262.75 1734.75,-262.75 1734.75,-243.5 1808.5,-243.5 1808.5,-262.75"/>
<text text-anchor="middle" x="1771.63" y="-249.25" font-family="Helvetica,sans-Serif" font-size="10.00">msgpack.hpp</text>
</a>
</g>
</g>
<!-- Node1&#45;&gt;Node29 -->
<g id="edge38_Node000001_Node000029" class="edge">
<title>Node1&#45;&gt;Node29</title>
<g id="a_edge38_Node000001_Node000029"><a xlink:title=" ">
<path fill="none" stroke="#63b8ff" d="M1693.39,-298.39C1710.36,-288.79 1730.28,-277.52 1745.76,-268.76"/>
<polygon fill="#63b8ff" stroke="#63b8ff" points="1747.39,-271.86 1754.37,-263.89 1743.94,-265.77 1747.39,-271.86"/>
</a>
</g>
</g>
<!-- Node30 -->
<g id="Node000030" class="node">
<title>Node30</title>
<g id="a_Node000030"><a xlink:title=" ">
<polygon fill="#e0e0e0" stroke="#999999" points="1923.13,-262.75 1826.13,-262.75 1826.13,-243.5 1923.13,-243.5 1923.13,-262.75"/>
<text text-anchor="middle" x="1874.63" y="-249.25" font-family="Helvetica,sans-Serif" font-size="10.00">nlohmann/json.hpp</text>
</a>
</g>
</g>
<!-- Node1&#45;&gt;Node30 -->
<g id="edge39_Node000001_Node000030" class="edge">
<title>Node1&#45;&gt;Node30</title>
<g id="a_edge39_Node000001_Node000030"><a xlink:title=" ">
<path fill="none" stroke="#63b8ff" d="M1725.99,-298.31C1761.13,-287.86 1802.81,-275.47 1833.08,-266.47"/>
<polygon fill="#63b8ff" stroke="#63b8ff" points="1834.05,-269.84 1842.63,-263.64 1832.05,-263.13 1834.05,-269.84"/>
</a>
</g>
</g>
<!-- Node31 -->
<g id="Node000031" class="node">
<title>Node31</title>
<g id="a_Node000031"><a xlink:title=" ">
<polygon fill="#e0e0e0" stroke="#999999" points="1996.5,-262.75 1940.75,-262.75 1940.75,-243.5 1996.5,-243.5 1996.5,-262.75"/>
<text text-anchor="middle" x="1968.63" y="-249.25" font-family="Helvetica,sans-Serif" font-size="10.00">algorithm</text>
</a>
</g>
</g>
<!-- Node1&#45;&gt;Node31 -->
<g id="edge40_Node000001_Node000031" class="edge">
<title>Node1&#45;&gt;Node31</title>
<g id="a_edge40_Node000001_Node000031"><a xlink:title=" ">
<path fill="none" stroke="#63b8ff" d="M1746.66,-301.35C1797.73,-291.25 1863.32,-277.95 1929.33,-263.43"/>
<polygon fill="#63b8ff" stroke="#63b8ff" points="1929.86,-266.9 1938.87,-261.32 1928.35,-260.06 1929.86,-266.9"/>
</a>
</g>
</g>
<!-- Node3 -->
<g id="Node000003" class="node">
<title>Node3</title>
<g id="a_Node000003"><a xlink:title=" ">
<polygon fill="#e0e0e0" stroke="#999999" points="75.25,-201.88 30,-201.88 30,-182.62 75.25,-182.62 75.25,-201.88"/>
<text text-anchor="middle" x="52.63" y="-188.38" font-family="Helvetica,sans-Serif" font-size="10.00">math.h</text>
</a>
</g>
</g>
<!-- Node2&#45;&gt;Node3 -->
<g id="edge2_Node000002_Node000003" class="edge">
<title>Node2&#45;&gt;Node3</title>
<g id="a_edge2_Node000002_Node000003"><a xlink:title=" ">
<path fill="none" stroke="#63b8ff" d="M352.15,-249.22C294.83,-244.17 182.3,-231.92 89.63,-207.5 88.01,-207.07 86.36,-206.6 84.7,-206.09"/>
<polygon fill="#63b8ff" stroke="#63b8ff" points="85.91,-202.8 75.32,-202.85 83.63,-209.42 85.91,-202.8"/>
</a>
</g>
</g>
<!-- Node4 -->
<g id="Node000004" class="node">
<title>Node4</title>
<g id="a_Node000004"><a xlink:title=" ">
<polygon fill="#e0e0e0" stroke="#999999" points="361.88,-201.88 317.38,-201.88 317.38,-182.62 361.88,-182.62 361.88,-201.88"/>
<text text-anchor="middle" x="339.63" y="-188.38" font-family="Helvetica,sans-Serif" font-size="10.00">stdio.h</text>
</a>
</g>
</g>
<!-- Node2&#45;&gt;Node4 -->
<g id="edge3_Node000002_Node000004" class="edge">
<title>Node2&#45;&gt;Node4</title>
<g id="a_edge3_Node000002_Node000004"><a xlink:title=" ">
<path fill="none" stroke="#63b8ff" d="M382.04,-243.18C374.77,-234.62 363.6,-221.48 354.55,-210.82"/>
<polygon fill="#63b8ff" stroke="#63b8ff" points="357.42,-208.79 348.27,-203.43 352.08,-213.32 357.42,-208.79"/>
</a>
</g>
</g>
<!-- Node5 -->
<g id="Node000005" class="node">
<title>Node5</title>
<g id="a_Node000005"><a xlink:title=" ">
<polygon fill="#e0e0e0" stroke="#999999" points="589.38,-201.88 541.88,-201.88 541.88,-182.62 589.38,-182.62 589.38,-201.88"/>
<text text-anchor="middle" x="565.63" y="-188.38" font-family="Helvetica,sans-Serif" font-size="10.00">string.h</text>
</a>
</g>
</g>
<!-- Node2&#45;&gt;Node5 -->
<g id="edge4_Node000002_Node000005" class="edge">
<title>Node2&#45;&gt;Node5</title>
<g id="a_edge4_Node000002_Node000005"><a xlink:title=" ">
<path fill="none" stroke="#63b8ff" d="M422.04,-243.07C451.24,-234.66 495.2,-221.38 532.63,-207.5 533.42,-207.21 534.22,-206.91 535.02,-206.6"/>
<polygon fill="#63b8ff" stroke="#63b8ff" points="536.17,-209.91 544.12,-202.9 533.54,-203.42 536.17,-209.91"/>
</a>
</g>
</g>
<!-- Node6 -->
<g id="Node000006" class="node">
<title>Node6</title>
<g id="a_Node000006"><a xlink:title=" ">
<polygon fill="#e0e0e0" stroke="#999999" points="211,-135.38 176.25,-135.38 176.25,-116.12 211,-116.12 211,-135.38"/>
<text text-anchor="middle" x="193.63" y="-121.88" font-family="Helvetica,sans-Serif" font-size="10.00">map</text>
</a>
</g>
</g>
<!-- Node2&#45;&gt;Node6 -->
<g id="edge5_Node000002_Node000006" class="edge">
<title>Node2&#45;&gt;Node6</title>
<g id="a_edge5_Node000002_Node000006"><a xlink:title=" ">
<path fill="none" stroke="#63b8ff" d="M352.08,-251.57C285.63,-249.71 151.59,-241.71 122.63,-207.5 102.63,-183.88 138.32,-156.98 165.96,-140.96"/>
<polygon fill="#63b8ff" stroke="#63b8ff" points="167.65,-144.02 174.7,-136.11 164.25,-137.9 167.65,-144.02"/>
</a>
</g>
</g>
<!-- Node2&#45;&gt;Node7 -->
<g id="edge6_Node000002_Node000007" class="edge">
<title>Node2&#45;&gt;Node7</title>
<g id="a_edge6_Node000002_Node000007"><a xlink:title=" ">
<path fill="none" stroke="#63b8ff" d="M427.19,-250.3C485.16,-246.6 592.2,-236 615.63,-207.5 624.24,-197.03 618.9,-190.15 615.63,-177 615.47,-176.37 583.48,-116.26 566.67,-84.72"/>
<polygon fill="#63b8ff" stroke="#63b8ff" points="569.94,-83.42 562.15,-76.24 563.77,-86.71 569.94,-83.42"/>
</a>
</g>
</g>
<!-- Node8 -->
<g id="Node000008" class="node">
<title>Node8</title>
<g id="a_Node000008"><a xlink:title=" ">
<polygon fill="#e0e0e0" stroke="#999999" points="431.38,-19.25 377.88,-19.25 377.88,0 431.38,0 431.38,-19.25"/>
<text text-anchor="middle" x="404.63" y="-5.75" font-family="Helvetica,sans-Serif" font-size="10.00">iostream</text>
</a>
</g>
</g>
<!-- Node2&#45;&gt;Node8 -->
<g id="edge7_Node000002_Node000008" class="edge">
<title>Node2&#45;&gt;Node8</title>
<g id="a_edge7_Node000002_Node000008"><a xlink:title=" ">
<path fill="none" stroke="#63b8ff" d="M352.18,-250.36C262.73,-245.78 42.4,-232.07 20.63,-207.5 -85.07,-88.25 249.94,-31.25 366.31,-15.38"/>
<polygon fill="#63b8ff" stroke="#63b8ff" points="366.55,-18.88 376,-14.09 365.62,-11.94 366.55,-18.88"/>
</a>
</g>
</g>
<!-- Node9 -->
<g id="Node000009" class="node">
<title>Node9</title>
<g id="a_Node000009"><a xlink:title=" ">
<polygon fill="#e0e0e0" stroke="#999999" points="183.25,-201.88 132,-201.88 132,-182.62 183.25,-182.62 183.25,-201.88"/>
<text text-anchor="middle" x="157.63" y="-188.38" font-family="Helvetica,sans-Serif" font-size="10.00">sstream</text>
</a>
</g>
</g>
<!-- Node2&#45;&gt;Node9 -->
<g id="edge8_Node000002_Node000009" class="edge">
<title>Node2&#45;&gt;Node9</title>
<g id="a_edge8_Node000002_Node000009"><a xlink:title=" ">
<path fill="none" stroke="#63b8ff" d="M352.11,-245.53C312.11,-238.05 247.16,-224.65 192.63,-207.5 191.29,-207.08 189.93,-206.63 188.57,-206.16"/>
<polygon fill="#63b8ff" stroke="#63b8ff" points="190.16,-203.02 179.57,-202.79 187.71,-209.57 190.16,-203.02"/>
</a>
</g>
</g>
<!-- Node10 -->
<g id="Node000010" class="node">
<title>Node10</title>
<g id="a_Node000010"><a xlink:title=" ">
<polygon fill="#e0e0e0" stroke="#999999" points="251.88,-201.88 201.38,-201.88 201.38,-182.62 251.88,-182.62 251.88,-201.88"/>
<text text-anchor="middle" x="226.63" y="-188.38" font-family="Helvetica,sans-Serif" font-size="10.00">memory</text>
</a>
</g>
</g>
<!-- Node2&#45;&gt;Node10 -->
<g id="edge9_Node000002_Node000010" class="edge">
<title>Node2&#45;&gt;Node10</title>
<g id="a_edge9_Node000002_Node000010"><a xlink:title=" ">
<path fill="none" stroke="#63b8ff" d="M362.52,-243.12C336.51,-234.38 296.2,-220.55 261.63,-207.5 260.69,-207.15 259.74,-206.78 258.78,-206.41"/>
<polygon fill="#63b8ff" stroke="#63b8ff" points="260.4,-203.29 249.81,-202.87 257.83,-209.8 260.4,-203.29"/>
</a>
</g>
</g>
<!-- Node11 -->
<g id="Node000011" class="node">
<title>Node11</title>
<g id="a_Node000011"><a xlink:title=" ">
<polygon fill="#e0e0e0" stroke="#999999" points="549.25,-135.38 504,-135.38 504,-116.12 549.25,-116.12 549.25,-135.38"/>
<text text-anchor="middle" x="526.63" y="-121.88" font-family="Helvetica,sans-Serif" font-size="10.00">chrono</text>
</a>
</g>
</g>
<!-- Node2&#45;&gt;Node11 -->
<g id="edge10_Node000002_Node000011" class="edge">
<title>Node2&#45;&gt;Node11</title>
<g id="a_edge10_Node000002_Node000011"><a xlink:title=" ">
<path fill="none" stroke="#63b8ff" d="M427.05,-249.64C481.25,-245.17 577.45,-233.68 598.63,-207.5 618.09,-183.44 582.68,-156.9 554.96,-141.04"/>
<polygon fill="#63b8ff" stroke="#63b8ff" points="557,-138.16 546.54,-136.43 553.63,-144.3 557,-138.16"/>
</a>
</g>
</g>
<!-- Node12 -->
<g id="Node000012" class="node">
<title>Node12</title>
<g id="a_Node000012"><a xlink:title=" ">
<polygon fill="#e0e0e0" stroke="#999999" points="299.03,-201.88 270.23,-201.88 270.23,-182.62 299.03,-182.62 299.03,-201.88"/>
<text text-anchor="middle" x="284.63" y="-188.38" font-family="Helvetica,sans-Serif" font-size="10.00">list</text>
</a>
</g>
</g>
<!-- Node2&#45;&gt;Node12 -->
<g id="edge11_Node000002_Node000012" class="edge">
<title>Node2&#45;&gt;Node12</title>
<g id="a_edge11_Node000002_Node000012"><a xlink:title=" ">
<path fill="none" stroke="#63b8ff" d="M372.79,-243.05C358.08,-235.08 335.96,-223 309.03,-207.64"/>
<polygon fill="#63b8ff" stroke="#63b8ff" points="311.04,-204.75 300.62,-202.82 307.56,-210.83 311.04,-204.75"/>
</a>
</g>
</g>
<!-- Node13 -->
<g id="Node000013" class="node">
<title>Node13</title>
<g id="a_Node000013"><a xlink:href="IssueFactory_8hpp.html" target="_top" xlink:title=" ">
<polygon fill="white" stroke="#666666" points="524,-201.88 417.25,-201.88 417.25,-182.62 524,-182.62 524,-201.88"/>
<text text-anchor="middle" x="470.63" y="-188.38" font-family="Helvetica,sans-Serif" font-size="10.00">ers/IssueFactory.hpp</text>
</a>
</g>
</g>
<!-- Node2&#45;&gt;Node13 -->
<g id="edge12_Node000002_Node000013" class="edge">
<title>Node2&#45;&gt;Node13</title>
<g id="a_edge12_Node000002_Node000013"><a xlink:title=" ">
<path fill="none" stroke="#63b8ff" d="M401.93,-243.18C414.42,-234.11 434.01,-219.87 449.08,-208.91"/>
<polygon fill="#63b8ff" stroke="#63b8ff" points="450.96,-211.88 456.99,-203.17 446.84,-206.21 450.96,-211.88"/>
</a>
</g>
</g>
<!-- Node15 -->
<g id="Node000015" class="node">
<title>Node15</title>
<g id="a_Node000015"><a xlink:href="Severity_8hpp.html" target="_top" xlink:title=" ">
<polygon fill="white" stroke="#666666" points="447.5,-135.38 361.75,-135.38 361.75,-116.12 447.5,-116.12 447.5,-135.38"/>
<text text-anchor="middle" x="404.63" y="-121.88" font-family="Helvetica,sans-Serif" font-size="10.00">ers/Severity.hpp</text>
</a>
</g>
</g>
<!-- Node2&#45;&gt;Node15 -->
<g id="edge29_Node000002_Node000015" class="edge">
<title>Node2&#45;&gt;Node15</title>
<g id="a_edge29_Node000002_Node000015"><a xlink:title=" ">
<path fill="none" stroke="#63b8ff" d="M390.71,-243.11C393.1,-223.14 398.88,-174.76 402.2,-147.08"/>
<polygon fill="#63b8ff" stroke="#63b8ff" points="405.67,-147.53 403.38,-137.19 398.72,-146.7 405.67,-147.53"/>
</a>
</g>
</g>
<!-- Node16 -->
<g id="Node000016" class="node">
<title>Node16</title>
<g id="a_Node000016"><a xlink:href="LocalContext_8hpp.html" target="_top" xlink:title=" ">
<polygon fill="white" stroke="#666666" points="791.38,-201.88 683.88,-201.88 683.88,-182.62 791.38,-182.62 791.38,-201.88"/>
<text text-anchor="middle" x="737.63" y="-188.38" font-family="Helvetica,sans-Serif" font-size="10.00">ers/LocalContext.hpp</text>
</a>
</g>
</g>
<!-- Node2&#45;&gt;Node16 -->
<g id="edge21_Node000002_Node000016" class="edge">
<title>Node2&#45;&gt;Node16</title>
<g id="a_edge21_Node000002_Node000016"><a xlink:title=" ">
<path fill="none" stroke="#63b8ff" d="M427.32,-246.71C481.18,-238.84 583.22,-223.43 669.63,-207.5 674.57,-206.59 679.7,-205.6 684.83,-204.58"/>
<polygon fill="#63b8ff" stroke="#63b8ff" points="685.39,-208.03 694.49,-202.61 684,-201.17 685.39,-208.03"/>
</a>
</g>
</g>
<!-- Node21 -->
<g id="Node000021" class="node">
<title>Node21</title>
<g id="a_Node000021"><a xlink:href="IssueDeclarationMacro_8hpp.html" target="_top" xlink:title=" ">
<polygon fill="white" stroke="#666666" points="1211.5,-207.5 1071.75,-207.5 1071.75,-177 1211.5,-177 1211.5,-207.5"/>
<text text-anchor="start" x="1079.75" y="-194" font-family="Helvetica,sans-Serif" font-size="10.00">ers/internal/IssueDeclaration</text>
<text text-anchor="middle" x="1141.63" y="-182.75" font-family="Helvetica,sans-Serif" font-size="10.00">Macro.hpp</text>
</a>
</g>
</g>
<!-- Node2&#45;&gt;Node21 -->
<g id="edge30_Node000002_Node000021" class="edge">
<title>Node2&#45;&gt;Node21</title>
<g id="a_edge30_Node000002_Node000021"><a xlink:title=" ">
<path fill="none" stroke="#63b8ff" d="M427.18,-249.19C543.31,-240.09 898.51,-212.28 1060.08,-199.63"/>
<polygon fill="#63b8ff" stroke="#63b8ff" points="1060.17,-203.14 1069.87,-198.87 1059.62,-196.16 1060.17,-203.14"/>
</a>
</g>
</g>
<!-- Node13&#45;&gt;Node6 -->
<g id="edge16_Node000013_Node000006" class="edge">
<title>Node13&#45;&gt;Node6</title>
<g id="a_edge16_Node000013_Node000006"><a xlink:title=" ">
<path fill="none" stroke="#63b8ff" d="M431.53,-182.15C375.06,-169 272,-145 222.15,-133.39"/>
<polygon fill="#63b8ff" stroke="#63b8ff" points="223.24,-130.05 212.71,-131.19 221.65,-136.87 223.24,-130.05"/>
</a>
</g>
</g>
<!-- Node13&#45;&gt;Node7 -->
<g id="edge14_Node000013_Node000007" class="edge">
<title>Node13&#45;&gt;Node7</title>
<g id="a_edge14_Node000013_Node000007"><a xlink:title=" ">
<path fill="none" stroke="#63b8ff" d="M471.41,-182.18C473.17,-166.31 478.62,-133.03 494.63,-110.5 503.33,-98.25 516.47,-88.11 528.42,-80.6"/>
<polygon fill="#63b8ff" stroke="#63b8ff" points="529.91,-83.79 536.75,-75.7 526.36,-77.76 529.91,-83.79"/>
</a>
</g>
</g>
<!-- Node13&#45;&gt;Node11 -->
<g id="edge13_Node000013_Node000011" class="edge">
<title>Node13&#45;&gt;Node11</title>
<g id="a_edge13_Node000013_Node000011"><a xlink:title=" ">
<path fill="none" stroke="#63b8ff" d="M478.42,-182.28C486.94,-172.46 500.82,-156.48 511.5,-144.17"/>
<polygon fill="#63b8ff" stroke="#63b8ff" points="514,-146.63 517.92,-136.79 508.72,-142.04 514,-146.63"/>
</a>
</g>
</g>
<!-- Node13&#45;&gt;Node14 -->
<g id="edge15_Node000013_Node000014" class="edge">
<title>Node13&#45;&gt;Node14</title>
<g id="a_edge15_Node000013_Node000014"><a xlink:title=" ">
<path fill="none" stroke="#63b8ff" d="M420.58,-182.13C396.27,-175.06 368.87,-162.64 352.63,-141 340.82,-125.26 339.75,-102.21 340.89,-85.8"/>
<polygon fill="#63b8ff" stroke="#63b8ff" points="344.33,-86.6 341.9,-76.28 337.37,-85.86 344.33,-86.6"/>
</a>
</g>
</g>
<!-- Node13&#45;&gt;Node15 -->
<g id="edge17_Node000013_Node000015" class="edge">
<title>Node13&#45;&gt;Node15</title>
<g id="a_edge17_Node000013_Node000015"><a xlink:title=" ">
<path fill="none" stroke="#63b8ff" d="M461.45,-182.28C451.21,-172.27 434.4,-155.85 421.72,-143.45"/>
<polygon fill="#63b8ff" stroke="#63b8ff" points="424.41,-141.19 414.81,-136.7 419.52,-146.19 424.41,-141.19"/>
</a>
</g>
</g>
<!-- Node15&#45;&gt;Node7 -->
<g id="edge18_Node000015_Node000007" class="edge">
<title>Node15&#45;&gt;Node7</title>
<g id="a_edge18_Node000015_Node000007"><a xlink:title=" ">
<path fill="none" stroke="#63b8ff" d="M428.05,-115.68C454.22,-105.54 496.71,-89.08 525.62,-77.89"/>
<polygon fill="#63b8ff" stroke="#63b8ff" points="526.88,-81.15 534.94,-74.28 524.35,-74.63 526.88,-81.15"/>
</a>
</g>
</g>
<!-- Node15&#45;&gt;Node8 -->
<g id="edge20_Node000015_Node000008" class="edge">
<title>Node15&#45;&gt;Node8</title>
<g id="a_edge20_Node000015_Node000008"><a xlink:title=" ">
<path fill="none" stroke="#63b8ff" d="M404.63,-115.79C404.63,-97.63 404.63,-56.04 404.63,-30.95"/>
<polygon fill="#63b8ff" stroke="#63b8ff" points="408.13,-31.05 404.63,-21.05 401.13,-31.05 408.13,-31.05"/>
</a>
</g>
</g>
<!-- Node15&#45;&gt;Node14 -->
<g id="edge19_Node000015_Node000014" class="edge">
<title>Node15&#45;&gt;Node14</title>
<g id="a_edge19_Node000015_Node000014"><a xlink:title=" ">
<path fill="none" stroke="#63b8ff" d="M395.36,-115.81C386.32,-107.08 372.32,-93.57 361.17,-82.8"/>
<polygon fill="#63b8ff" stroke="#63b8ff" points="363.7,-80.38 354.07,-75.95 358.83,-85.42 363.7,-80.38"/>
</a>
</g>
</g>
<!-- Node17 -->
<g id="Node000017" class="node">
<title>Node17</title>
<g id="a_Node000017"><a xlink:title=" ">
<polygon fill="#e0e0e0" stroke="#999999" points="840,-135.38 775.25,-135.38 775.25,-116.12 840,-116.12 840,-135.38"/>
<text text-anchor="middle" x="807.63" y="-121.88" font-family="Helvetica,sans-Serif" font-size="10.00">sys/types.h</text>
</a>
</g>
</g>
<!-- Node16&#45;&gt;Node17 -->
<g id="edge22_Node000016_Node000017" class="edge">
<title>Node16&#45;&gt;Node17</title>
<g id="a_edge22_Node000016_Node000017"><a xlink:title=" ">
<path fill="none" stroke="#63b8ff" d="M747.36,-182.28C758.33,-172.17 776.4,-155.53 789.89,-143.1"/>
<polygon fill="#63b8ff" stroke="#63b8ff" points="791.88,-146.02 796.87,-136.67 787.14,-140.87 791.88,-146.02"/>
</a>
</g>
</g>
<!-- Node18 -->
<g id="Node000018" class="node">
<title>Node18</title>
<g id="a_Node000018"><a xlink:title=" ">
<polygon fill="#e0e0e0" stroke="#999999" points="757.5,-135.38 707.75,-135.38 707.75,-116.12 757.5,-116.12 757.5,-135.38"/>
<text text-anchor="middle" x="732.63" y="-121.88" font-family="Helvetica,sans-Serif" font-size="10.00">unistd.h</text>
</a>
</g>
</g>
<!-- Node16&#45;&gt;Node18 -->
<g id="edge23_Node000016_Node000018" class="edge">
<title>Node16&#45;&gt;Node18</title>
<g id="a_edge23_Node000016_Node000018"><a xlink:title=" ">
<path fill="none" stroke="#63b8ff" d="M736.93,-182.28C736.23,-173.14 735.1,-158.64 734.18,-146.75"/>
<polygon fill="#63b8ff" stroke="#63b8ff" points="737.7,-146.85 733.44,-137.15 730.72,-147.39 737.7,-146.85"/>
</a>
</g>
</g>
<!-- Node19 -->
<g id="Node000019" class="node">
<title>Node19</title>
<g id="a_Node000019"><a xlink:href="Context_8hpp.html" target="_top" xlink:title=" ">
<polygon fill="white" stroke="#666666" points="689.38,-135.38 605.88,-135.38 605.88,-116.12 689.38,-116.12 689.38,-135.38"/>
<text text-anchor="middle" x="647.63" y="-121.88" font-family="Helvetica,sans-Serif" font-size="10.00">ers/Context.hpp</text>
</a>
</g>
</g>
<!-- Node16&#45;&gt;Node19 -->
<g id="edge24_Node000016_Node000019" class="edge">
<title>Node16&#45;&gt;Node19</title>
<g id="a_edge24_Node000016_Node000019"><a xlink:title=" ">
<path fill="none" stroke="#63b8ff" d="M725.12,-182.28C710.69,-171.94 686.72,-154.77 669.26,-142.25"/>
<polygon fill="#63b8ff" stroke="#63b8ff" points="671.72,-139.71 661.56,-136.73 667.65,-145.4 671.72,-139.71"/>
</a>
</g>
</g>
<!-- Node19&#45;&gt;Node7 -->
<g id="edge25_Node000019_Node000007" class="edge">
<title>Node19&#45;&gt;Node7</title>
<g id="a_edge25_Node000019_Node000007"><a xlink:title=" ">
<path fill="none" stroke="#63b8ff" d="M633.81,-115.81C619.51,-106.56 596.93,-91.95 579.88,-80.92"/>
<polygon fill="#63b8ff" stroke="#63b8ff" points="582.15,-78.22 571.85,-75.72 578.35,-84.09 582.15,-78.22"/>
</a>
</g>
</g>
<!-- Node19&#45;&gt;Node14 -->
<g id="edge26_Node000019_Node000014" class="edge">
<title>Node19&#45;&gt;Node14</title>
<g id="a_edge26_Node000019_Node000014"><a xlink:title=" ">
<path fill="none" stroke="#63b8ff" d="M605.68,-116.63C544.52,-104.78 432.15,-83.02 376.55,-72.25"/>
<polygon fill="#63b8ff" stroke="#63b8ff" points="377.25,-68.82 366.76,-70.36 375.92,-75.69 377.25,-68.82"/>
</a>
</g>
</g>
<!-- Node20 -->
<g id="Node000020" class="node">
<title>Node20</title>
<g id="a_Node000020"><a xlink:href="ers_2include_2ers_2Configuration_8hpp.html" target="_top" xlink:title=" ">
<polygon fill="white" stroke="#666666" points="701,-74.5 594.25,-74.5 594.25,-55.25 701,-55.25 701,-74.5"/>
<text text-anchor="middle" x="647.63" y="-61" font-family="Helvetica,sans-Serif" font-size="10.00">ers/Configuration.hpp</text>
</a>
</g>
</g>
<!-- Node19&#45;&gt;Node20 -->
<g id="edge27_Node000019_Node000020" class="edge">
<title>Node19&#45;&gt;Node20</title>
<g id="a_edge27_Node000019_Node000020"><a xlink:title=" ">
<path fill="none" stroke="#63b8ff" d="M647.63,-115.81C647.63,-108.03 647.63,-96.45 647.63,-86.41"/>
<polygon fill="#63b8ff" stroke="#63b8ff" points="651.13,-86.41 647.63,-76.41 644.13,-86.41 651.13,-86.41"/>
</a>
</g>
</g>
<!-- Node20&#45;&gt;Node8 -->
<g id="edge28_Node000020_Node000008" class="edge">
<title>Node20&#45;&gt;Node8</title>
<g id="a_edge28_Node000020_Node000008"><a xlink:title=" ">
<path fill="none" stroke="#63b8ff" d="M606.13,-54.78C560.34,-44.75 487.26,-28.73 442.83,-19"/>
<polygon fill="#63b8ff" stroke="#63b8ff" points="443.64,-15.59 433.12,-16.87 442.14,-22.43 443.64,-15.59"/>
</a>
</g>
</g>
<!-- Node22 -->
<g id="Node000022" class="node">
<title>Node22</title>
<g id="a_Node000022"><a xlink:title=" ">
<polygon fill="#e0e0e0" stroke="#999999" points="1425.25,-141 1326,-141 1326,-110.5 1425.25,-110.5 1425.25,-141"/>
<text text-anchor="start" x="1334" y="-127.5" font-family="Helvetica,sans-Serif" font-size="10.00">boost/preprocessor</text>
<text text-anchor="middle" x="1375.63" y="-116.25" font-family="Helvetica,sans-Serif" font-size="10.00">/if.hpp</text>
</a>
</g>
</g>
<!-- Node21&#45;&gt;Node22 -->
<g id="edge31_Node000021_Node000022" class="edge">
<title>Node21&#45;&gt;Node22</title>
<g id="a_edge31_Node000021_Node000022"><a xlink:title=" ">
<path fill="none" stroke="#63b8ff" d="M1195.02,-176.53C1230.75,-166.69 1277.84,-153.7 1314.98,-143.47"/>
<polygon fill="#63b8ff" stroke="#63b8ff" points="1315.5,-146.95 1324.21,-140.92 1313.64,-140.21 1315.5,-146.95"/>
</a>
</g>
</g>
<!-- Node23 -->
<g id="Node000023" class="node">
<title>Node23</title>
<g id="a_Node000023"><a xlink:title=" ">
<polygon fill="#e0e0e0" stroke="#999999" points="1542.25,-141 1443,-141 1443,-110.5 1542.25,-110.5 1542.25,-141"/>
<text text-anchor="start" x="1451" y="-127.5" font-family="Helvetica,sans-Serif" font-size="10.00">boost/preprocessor</text>
<text text-anchor="middle" x="1492.63" y="-116.25" font-family="Helvetica,sans-Serif" font-size="10.00">/seq.hpp</text>
</a>
</g>
</g>
<!-- Node21&#45;&gt;Node23 -->
<g id="edge32_Node000021_Node000023" class="edge">
<title>Node21&#45;&gt;Node23</title>
<g id="a_edge32_Node000021_Node000023"><a xlink:title=" ">
<path fill="none" stroke="#63b8ff" d="M1211.75,-180.66C1268.72,-171.73 1351.37,-158.03 1431.87,-141.5"/>
<polygon fill="#63b8ff" stroke="#63b8ff" points="1432.13,-145.02 1441.21,-139.56 1430.71,-138.17 1432.13,-145.02"/>
</a>
</g>
</g>
<!-- Node24 -->
<g id="Node000024" class="node">
<title>Node24</title>
<g id="a_Node000024"><a xlink:title=" ">
<polygon fill="#e0e0e0" stroke="#999999" points="957.25,-141 858,-141 858,-110.5 957.25,-110.5 957.25,-141"/>
<text text-anchor="start" x="866" y="-127.5" font-family="Helvetica,sans-Serif" font-size="10.00">boost/preprocessor</text>
<text text-anchor="middle" x="907.63" y="-116.25" font-family="Helvetica,sans-Serif" font-size="10.00">/tuple.hpp</text>
</a>
</g>
</g>
<!-- Node21&#45;&gt;Node24 -->
<g id="edge33_Node000021_Node000024" class="edge">
<title>Node21&#45;&gt;Node24</title>
<g id="a_edge33_Node000021_Node000024"><a xlink:title=" ">
<path fill="none" stroke="#63b8ff" d="M1088.24,-176.53C1052.51,-166.69 1005.42,-153.7 968.28,-143.47"/>
<polygon fill="#63b8ff" stroke="#63b8ff" points="969.62,-140.21 959.05,-140.92 967.76,-146.95 969.62,-140.21"/>
</a>
</g>
</g>
<!-- Node25 -->
<g id="Node000025" class="node">
<title>Node25</title>
<g id="a_Node000025"><a xlink:title=" ">
<polygon fill="#e0e0e0" stroke="#999999" points="1074.25,-141 975,-141 975,-110.5 1074.25,-110.5 1074.25,-141"/>
<text text-anchor="start" x="983" y="-127.5" font-family="Helvetica,sans-Serif" font-size="10.00">boost/preprocessor</text>
<text text-anchor="middle" x="1024.63" y="-116.25" font-family="Helvetica,sans-Serif" font-size="10.00">/logical.hpp</text>
</a>
</g>
</g>
<!-- Node21&#45;&gt;Node25 -->
<g id="edge34_Node000021_Node000025" class="edge">
<title>Node21&#45;&gt;Node25</title>
<g id="a_edge34_Node000021_Node000025"><a xlink:title=" ">
<path fill="none" stroke="#63b8ff" d="M1115.08,-176.61C1099.07,-167.79 1078.46,-156.43 1060.96,-146.78"/>
<polygon fill="#63b8ff" stroke="#63b8ff" points="1062.85,-143.82 1052.4,-142.06 1059.47,-149.95 1062.85,-143.82"/>
</a>
</g>
</g>
<!-- Node26 -->
<g id="Node000026" class="node">
<title>Node26</title>
<g id="a_Node000026"><a xlink:title=" ">
<polygon fill="#e0e0e0" stroke="#999999" points="1191.25,-141 1092,-141 1092,-110.5 1191.25,-110.5 1191.25,-141"/>
<text text-anchor="start" x="1100" y="-127.5" font-family="Helvetica,sans-Serif" font-size="10.00">boost/preprocessor</text>
<text text-anchor="middle" x="1141.63" y="-116.25" font-family="Helvetica,sans-Serif" font-size="10.00">/stringize.hpp</text>
</a>
</g>
</g>
<!-- Node21&#45;&gt;Node26 -->
<g id="edge35_Node000021_Node000026" class="edge">
<title>Node21&#45;&gt;Node26</title>
<g id="a_edge35_Node000021_Node000026"><a xlink:title=" ">
<path fill="none" stroke="#63b8ff" d="M1141.63,-176.61C1141.63,-169.52 1141.63,-160.79 1141.63,-152.63"/>
<polygon fill="#63b8ff" stroke="#63b8ff" points="1145.13,-152.84 1141.63,-142.84 1138.13,-152.84 1145.13,-152.84"/>
</a>
</g>
</g>
<!-- Node27 -->
<g id="Node000027" class="node">
<title>Node27</title>
<g id="a_Node000027"><a xlink:title=" ">
<polygon fill="#e0e0e0" stroke="#999999" points="1308.25,-141 1209,-141 1209,-110.5 1308.25,-110.5 1308.25,-141"/>
<text text-anchor="start" x="1217" y="-127.5" font-family="Helvetica,sans-Serif" font-size="10.00">boost/preprocessor</text>
<text text-anchor="middle" x="1258.63" y="-116.25" font-family="Helvetica,sans-Serif" font-size="10.00">/comparison.hpp</text>
</a>
</g>
</g>
<!-- Node21&#45;&gt;Node27 -->
<g id="edge36_Node000021_Node000027" class="edge">
<title>Node21&#45;&gt;Node27</title>
<g id="a_edge36_Node000021_Node000027"><a xlink:title=" ">
<path fill="none" stroke="#63b8ff" d="M1168.18,-176.61C1184.18,-167.79 1204.79,-156.43 1222.3,-146.78"/>
<polygon fill="#63b8ff" stroke="#63b8ff" points="1223.79,-149.95 1230.86,-142.06 1220.41,-143.82 1223.79,-149.95"/>
</a>
</g>
</g>
</g>
</svg>
