<?xml version="1.0" encoding="UTF-8" standalone="no"?>
<!DOCTYPE svg PUBLIC "-//W3C//DTD SVG 1.1//EN"
 "http://www.w3.org/Graphics/SVG/1.1/DTD/svg11.dtd">
<!-- Generated by graphviz version 9.0.0 (20230911.1827)
 -->
<!-- Title: /github/workspace/dev_area/sourcecode/trigger/include/trigger/Set.hpp Pages: 1 -->
<svg width="635pt" height="283pt"
 viewBox="0.00 0.00 635.38 283.00" xmlns="http://www.w3.org/2000/svg" xmlns:xlink="http://www.w3.org/1999/xlink">
<g id="graph0" class="graph" transform="scale(1 1) rotate(0) translate(4 279)">
<title>/github/workspace/dev_area/sourcecode/trigger/include/trigger/Set.hpp</title>
<!-- Node1 -->
<g id="Node000001" class="node">
<title>Node1</title>
<g id="a_Node000001"><a xlink:title=" ">
<polygon fill="#999999" stroke="#666666" points="345.88,-275 222.62,-275 222.62,-233.25 345.88,-233.25 345.88,-275"/>
<text text-anchor="start" x="230.62" y="-261.5" font-family="Helvetica,sans-Serif" font-size="10.00">/github/workspace/dev</text>
<text text-anchor="start" x="230.62" y="-250.25" font-family="Helvetica,sans-Serif" font-size="10.00">_area/sourcecode/trigger</text>
<text text-anchor="middle" x="284.25" y="-239" font-family="Helvetica,sans-Serif" font-size="10.00">/include/trigger/Set.hpp</text>
</a>
</g>
</g>
<!-- Node2 -->
<g id="Node000002" class="node">
<title>Node2</title>
<g id="a_Node000002"><a xlink:href="TASet_8hpp.html" target="_top" xlink:title=" ">
<polygon fill="white" stroke="#666666" points="128.5,-197.25 0,-197.25 0,-155.5 128.5,-155.5 128.5,-197.25"/>
<text text-anchor="start" x="8" y="-183.75" font-family="Helvetica,sans-Serif" font-size="10.00">/github/workspace/dev</text>
<text text-anchor="start" x="8" y="-172.5" font-family="Helvetica,sans-Serif" font-size="10.00">_area/sourcecode/trigger</text>
<text text-anchor="middle" x="64.25" y="-161.25" font-family="Helvetica,sans-Serif" font-size="10.00">/include/trigger/TASet.hpp</text>
</a>
</g>
</g>
<!-- Node1&#45;&gt;Node2 -->
<g id="edge1_Node000001_Node000002" class="edge">
<title>Node1&#45;&gt;Node2</title>
<g id="a_edge1_Node000001_Node000002"><a xlink:title=" ">
<path fill="none" stroke="#63b8ff" d="M214.7,-229.18C185.33,-219.07 151.5,-207.42 123.37,-197.73"/>
<polygon fill="#63b8ff" stroke="#63b8ff" points="213.27,-232.39 223.86,-232.33 215.55,-225.77 213.27,-232.39"/>
</a>
</g>
</g>
<!-- Node3 -->
<g id="Node000003" class="node">
<title>Node3</title>
<g id="a_Node000003"><a xlink:href="TCSet_8hpp.html" target="_top" xlink:title=" ">
<polygon fill="white" stroke="#666666" points="275.5,-197.25 147,-197.25 147,-155.5 275.5,-155.5 275.5,-197.25"/>
<text text-anchor="start" x="155" y="-183.75" font-family="Helvetica,sans-Serif" font-size="10.00">/github/workspace/dev</text>
<text text-anchor="start" x="155" y="-172.5" font-family="Helvetica,sans-Serif" font-size="10.00">_area/sourcecode/trigger</text>
<text text-anchor="middle" x="211.25" y="-161.25" font-family="Helvetica,sans-Serif" font-size="10.00">/include/trigger/TCSet.hpp</text>
</a>
</g>
</g>
<!-- Node1&#45;&gt;Node3 -->
<g id="edge2_Node000001_Node000003" class="edge">
<title>Node1&#45;&gt;Node3</title>
<g id="a_edge2_Node000001_Node000003"><a xlink:title=" ">
<path fill="none" stroke="#63b8ff" d="M256.72,-224.56C248.12,-215.64 238.81,-205.97 230.87,-197.73"/>
<polygon fill="#63b8ff" stroke="#63b8ff" points="254.18,-226.96 263.64,-231.74 259.22,-222.11 254.18,-226.96"/>
</a>
</g>
</g>
<!-- Node4 -->
<g id="Node000004" class="node">
<title>Node4</title>
<g id="a_Node000004"><a xlink:href="TPSet_8hpp.html" target="_top" xlink:title=" ">
<polygon fill="white" stroke="#666666" points="422.5,-197.25 294,-197.25 294,-155.5 422.5,-155.5 422.5,-197.25"/>
<text text-anchor="start" x="302" y="-183.75" font-family="Helvetica,sans-Serif" font-size="10.00">/github/workspace/dev</text>
<text text-anchor="start" x="302" y="-172.5" font-family="Helvetica,sans-Serif" font-size="10.00">_area/sourcecode/trigger</text>
<text text-anchor="middle" x="358.25" y="-161.25" font-family="Helvetica,sans-Serif" font-size="10.00">/include/trigger/TPSet.hpp</text>
</a>
</g>
</g>
<!-- Node1&#45;&gt;Node4 -->
<g id="edge3_Node000001_Node000004" class="edge">
<title>Node1&#45;&gt;Node4</title>
<g id="a_edge3_Node000001_Node000004"><a xlink:title=" ">
<path fill="none" stroke="#63b8ff" d="M311.88,-224.84C320.68,-215.84 330.23,-206.06 338.36,-197.73"/>
<polygon fill="#63b8ff" stroke="#63b8ff" points="309.62,-222.14 305.14,-231.74 314.63,-227.04 309.62,-222.14"/>
</a>
</g>
</g>
<!-- Node10 -->
<g id="Node000010" class="node">
<title>Node10</title>
<g id="a_Node000010"><a xlink:href="TriggerGenericMaker_8hpp.html" target="_top" xlink:title=" ">
<polygon fill="white" stroke="#666666" points="614.38,-197.25 440.12,-197.25 440.12,-155.5 614.38,-155.5 614.38,-197.25"/>
<text text-anchor="start" x="448.12" y="-183.75" font-family="Helvetica,sans-Serif" font-size="10.00">/github/workspace/dev</text>
<text text-anchor="start" x="448.12" y="-172.5" font-family="Helvetica,sans-Serif" font-size="10.00">_area/sourcecode/trigger</text>
<text text-anchor="middle" x="527.25" y="-161.25" font-family="Helvetica,sans-Serif" font-size="10.00">/src/trigger/TriggerGenericMaker.hpp</text>
</a>
</g>
</g>
<!-- Node1&#45;&gt;Node10 -->
<g id="edge9_Node000001_Node000010" class="edge">
<title>Node1&#45;&gt;Node10</title>
<g id="a_edge9_Node000001_Node000010"><a xlink:title=" ">
<path fill="none" stroke="#63b8ff" d="M356.82,-230.5C390.23,-220.09 429.56,-207.83 462.02,-197.71"/>
<polygon fill="#63b8ff" stroke="#63b8ff" points="356.15,-227.05 347.64,-233.36 358.23,-233.73 356.15,-227.05"/>
</a>
</g>
</g>
<!-- Node5 -->
<g id="Node000005" class="node">
<title>Node5</title>
<g id="a_Node000005"><a xlink:href="TPBundleHandler_8hpp.html" target="_top" xlink:title=" ">
<polygon fill="white" stroke="#666666" points="257.25,-119.5 79.25,-119.5 79.25,-77.75 257.25,-77.75 257.25,-119.5"/>
<text text-anchor="start" x="87.25" y="-106" font-family="Helvetica,sans-Serif" font-size="10.00">/github/workspace/dev</text>
<text text-anchor="start" x="87.25" y="-94.75" font-family="Helvetica,sans-Serif" font-size="10.00">_area/sourcecode/dfmodules</text>
<text text-anchor="middle" x="168.25" y="-83.5" font-family="Helvetica,sans-Serif" font-size="10.00">/src/dfmodules/TPBundleHandler.hpp</text>
</a>
</g>
</g>
<!-- Node4&#45;&gt;Node5 -->
<g id="edge4_Node000004_Node000005" class="edge">
<title>Node4&#45;&gt;Node5</title>
<g id="a_edge4_Node000004_Node000005"><a xlink:title=" ">
<path fill="none" stroke="#63b8ff" d="M296.84,-150.89C271.8,-140.91 243.18,-129.5 219.31,-119.98"/>
<polygon fill="#63b8ff" stroke="#63b8ff" points="295.34,-154.06 305.93,-154.51 297.93,-147.56 295.34,-154.06"/>
</a>
</g>
</g>
<!-- Node7 -->
<g id="Node000007" class="node">
<title>Node7</title>
<g id="a_Node000007"><a xlink:href="TPRequestHandler_8hpp.html" target="_top" xlink:title=" ">
<polygon fill="white" stroke="#666666" points="441.25,-119.5 275.25,-119.5 275.25,-77.75 441.25,-77.75 441.25,-119.5"/>
<text text-anchor="start" x="283.25" y="-106" font-family="Helvetica,sans-Serif" font-size="10.00">/github/workspace/dev</text>
<text text-anchor="start" x="283.25" y="-94.75" font-family="Helvetica,sans-Serif" font-size="10.00">_area/sourcecode/trigger</text>
<text text-anchor="middle" x="358.25" y="-83.5" font-family="Helvetica,sans-Serif" font-size="10.00">/src/trigger/TPRequestHandler.hpp</text>
</a>
</g>
</g>
<!-- Node4&#45;&gt;Node7 -->
<g id="edge6_Node000004_Node000007" class="edge">
<title>Node4&#45;&gt;Node7</title>
<g id="a_edge6_Node000004_Node000007"><a xlink:title=" ">
<path fill="none" stroke="#63b8ff" d="M358.25,-143.75C358.25,-135.71 358.25,-127.29 358.25,-119.98"/>
<polygon fill="#63b8ff" stroke="#63b8ff" points="354.75,-143.56 358.25,-153.56 361.75,-143.56 354.75,-143.56"/>
</a>
</g>
</g>
<!-- Node9 -->
<g id="Node000009" class="node">
<title>Node9</title>
<g id="a_Node000009"><a xlink:href="TPSetSourceModel_8hpp.html" target="_top" xlink:title=" ">
<polygon fill="white" stroke="#666666" points="627.38,-119.5 459.12,-119.5 459.12,-77.75 627.38,-77.75 627.38,-119.5"/>
<text text-anchor="start" x="467.12" y="-106" font-family="Helvetica,sans-Serif" font-size="10.00">/github/workspace/dev</text>
<text text-anchor="start" x="467.12" y="-94.75" font-family="Helvetica,sans-Serif" font-size="10.00">_area/sourcecode/trigger</text>
<text text-anchor="middle" x="543.25" y="-83.5" font-family="Helvetica,sans-Serif" font-size="10.00">/src/trigger/TPSetSourceModel.hpp</text>
</a>
</g>
</g>
<!-- Node4&#45;&gt;Node9 -->
<g id="edge8_Node000004_Node000009" class="edge">
<title>Node4&#45;&gt;Node9</title>
<g id="a_edge8_Node000004_Node000009"><a xlink:title=" ">
<path fill="none" stroke="#63b8ff" d="M418.37,-150.76C442.67,-140.81 470.4,-129.46 493.54,-119.98"/>
<polygon fill="#63b8ff" stroke="#63b8ff" points="417.16,-147.47 409.23,-154.5 419.81,-153.95 417.16,-147.47"/>
</a>
</g>
</g>
<!-- Node6 -->
<g id="Node000006" class="node">
<title>Node6</title>
<g id="a_Node000006"><a xlink:href="TPBundleHandler_8cpp.html" target="_top" xlink:title=" ">
<polygon fill="white" stroke="#666666" points="238.88,-41.75 97.62,-41.75 97.62,0 238.88,0 238.88,-41.75"/>
<text text-anchor="start" x="105.62" y="-28.25" font-family="Helvetica,sans-Serif" font-size="10.00">/github/workspace/dev</text>
<text text-anchor="start" x="105.62" y="-17" font-family="Helvetica,sans-Serif" font-size="10.00">_area/sourcecode/dfmodules</text>
<text text-anchor="middle" x="168.25" y="-5.75" font-family="Helvetica,sans-Serif" font-size="10.00">/src/TPBundleHandler.cpp</text>
</a>
</g>
</g>
<!-- Node5&#45;&gt;Node6 -->
<g id="edge5_Node000005_Node000006" class="edge">
<title>Node5&#45;&gt;Node6</title>
<g id="a_edge5_Node000005_Node000006"><a xlink:title=" ">
<path fill="none" stroke="#63b8ff" d="M168.25,-66C168.25,-57.96 168.25,-49.54 168.25,-42.23"/>
<polygon fill="#63b8ff" stroke="#63b8ff" points="164.75,-65.81 168.25,-75.81 171.75,-65.81 164.75,-65.81"/>
</a>
</g>
</g>
<!-- Node8 -->
<g id="Node000008" class="node">
<title>Node8</title>
<g id="a_Node000008"><a xlink:href="TPRequestHandler_8cpp.html" target="_top" xlink:title=" ">
<polygon fill="white" stroke="#666666" points="426.25,-41.75 290.25,-41.75 290.25,0 426.25,0 426.25,-41.75"/>
<text text-anchor="start" x="298.25" y="-28.25" font-family="Helvetica,sans-Serif" font-size="10.00">/github/workspace/dev</text>
<text text-anchor="start" x="298.25" y="-17" font-family="Helvetica,sans-Serif" font-size="10.00">_area/sourcecode/trigger</text>
<text text-anchor="middle" x="358.25" y="-5.75" font-family="Helvetica,sans-Serif" font-size="10.00">/src/TPRequestHandler.cpp</text>
</a>
</g>
</g>
<!-- Node7&#45;&gt;Node8 -->
<g id="edge7_Node000007_Node000008" class="edge">
<title>Node7&#45;&gt;Node8</title>
<g id="a_edge7_Node000007_Node000008"><a xlink:title=" ">
<path fill="none" stroke="#63b8ff" d="M358.25,-66C358.25,-57.96 358.25,-49.54 358.25,-42.23"/>
<polygon fill="#63b8ff" stroke="#63b8ff" points="354.75,-65.81 358.25,-75.81 361.75,-65.81 354.75,-65.81"/>
</a>
</g>
</g>
</g>
</svg>
