<?xml version="1.0" encoding="UTF-8" standalone="no"?>
<!DOCTYPE svg PUBLIC "-//W3C//DTD SVG 1.1//EN"
 "http://www.w3.org/Graphics/SVG/1.1/DTD/svg11.dtd">
<!-- Generated by graphviz version 9.0.0 (20230911.1827)
 -->
<!-- Title: /github/workspace/dev_area/sourcecode/trigger/include/trigger/Set.hpp Pages: 1 -->
<svg width="775pt" height="160pt"
 viewBox="0.00 0.00 775.01 160.25" xmlns="http://www.w3.org/2000/svg" xmlns:xlink="http://www.w3.org/1999/xlink">
<g id="graph0" class="graph" transform="scale(1 1) rotate(0) translate(4 156.25)">
<title>/github/workspace/dev_area/sourcecode/trigger/include/trigger/Set.hpp</title>
<!-- Node1 -->
<g id="Node000001" class="node">
<title>Node1</title>
<g id="a_Node000001"><a xlink:title=" ">
<polygon fill="#999999" stroke="#666666" points="285.01,-152.25 161.76,-152.25 161.76,-110.5 285.01,-110.5 285.01,-152.25"/>
<text text-anchor="start" x="169.76" y="-138.75" font-family="Helvetica,sans-Serif" font-size="10.00">/github/workspace/dev</text>
<text text-anchor="start" x="169.76" y="-127.5" font-family="Helvetica,sans-Serif" font-size="10.00">_area/sourcecode/trigger</text>
<text text-anchor="middle" x="223.39" y="-116.25" font-family="Helvetica,sans-Serif" font-size="10.00">/include/trigger/Set.hpp</text>
</a>
</g>
</g>
<!-- Node2 -->
<g id="Node000002" class="node">
<title>Node2</title>
<g id="a_Node000002"><a xlink:href="SourceID_8hpp.html" target="_top" xlink:title=" ">
<polygon fill="white" stroke="#666666" points="451.89,-74.5 306.89,-74.5 306.89,-55.25 451.89,-55.25 451.89,-74.5"/>
<text text-anchor="middle" x="379.39" y="-61" font-family="Helvetica,sans-Serif" font-size="10.00">daqdataformats/SourceID.hpp</text>
</a>
</g>
</g>
<!-- Node1&#45;&gt;Node2 -->
<g id="edge1_Node000001_Node000002" class="edge">
<title>Node1&#45;&gt;Node2</title>
<g id="a_edge1_Node000001_Node000002"><a xlink:title=" ">
<path fill="none" stroke="#63b8ff" d="M272.32,-110.14C296.67,-100.08 325.43,-88.19 347.01,-79.26"/>
<polygon fill="#63b8ff" stroke="#63b8ff" points="348.27,-82.53 356.17,-75.47 345.6,-76.06 348.27,-82.53"/>
</a>
</g>
</g>
<!-- Node5 -->
<g id="Node000005" class="node">
<title>Node5</title>
<g id="a_Node000005"><a xlink:title=" ">
<polygon fill="#e0e0e0" stroke="#999999" points="74.01,-19.25 28.76,-19.25 28.76,0 74.01,0 74.01,-19.25"/>
<text text-anchor="middle" x="51.39" y="-5.75" font-family="Helvetica,sans-Serif" font-size="10.00">cstdint</text>
</a>
</g>
</g>
<!-- Node1&#45;&gt;Node5 -->
<g id="edge19_Node000001_Node000005" class="edge">
<title>Node1&#45;&gt;Node5</title>
<g id="a_edge19_Node000001_Node000005"><a xlink:title=" ">
<path fill="none" stroke="#63b8ff" d="M161.4,-123.04C103.62,-114.77 23.56,-99.17 4.39,-74.5 -8.23,-58.26 9.87,-39.23 27.14,-26.19"/>
<polygon fill="#63b8ff" stroke="#63b8ff" points="29.06,-29.12 35.21,-20.49 25.03,-23.4 29.06,-29.12"/>
</a>
</g>
</g>
<!-- Node14 -->
<g id="Node000014" class="node">
<title>Node14</title>
<g id="a_Node000014"><a xlink:href="daqdataformats_2include_2daqdataformats_2Types_8hpp.html" target="_top" xlink:title=" ">
<polygon fill="white" stroke="#666666" points="288.76,-74.5 158.01,-74.5 158.01,-55.25 288.76,-55.25 288.76,-74.5"/>
<text text-anchor="middle" x="223.39" y="-61" font-family="Helvetica,sans-Serif" font-size="10.00">daqdataformats/Types.hpp</text>
</a>
</g>
</g>
<!-- Node1&#45;&gt;Node14 -->
<g id="edge13_Node000001_Node000014" class="edge">
<title>Node1&#45;&gt;Node14</title>
<g id="a_edge13_Node000001_Node000014"><a xlink:title=" ">
<path fill="none" stroke="#63b8ff" d="M223.39,-110.32C223.39,-102.65 223.39,-93.89 223.39,-86.2"/>
<polygon fill="#63b8ff" stroke="#63b8ff" points="226.89,-86.46 223.39,-76.46 219.89,-86.46 226.89,-86.46"/>
</a>
</g>
</g>
<!-- Node15 -->
<g id="Node000015" class="node">
<title>Node15</title>
<g id="a_Node000015"><a xlink:href="trgdataformats_2include_2trgdataformats_2Types_8hpp.html" target="_top" xlink:title=" ">
<polygon fill="white" stroke="#666666" points="139.51,-74.5 13.26,-74.5 13.26,-55.25 139.51,-55.25 139.51,-74.5"/>
<text text-anchor="middle" x="76.39" y="-61" font-family="Helvetica,sans-Serif" font-size="10.00">trgdataformats/Types.hpp</text>
</a>
</g>
</g>
<!-- Node1&#45;&gt;Node15 -->
<g id="edge16_Node000001_Node000015" class="edge">
<title>Node1&#45;&gt;Node15</title>
<g id="a_edge16_Node000001_Node000015"><a xlink:title=" ">
<path fill="none" stroke="#63b8ff" d="M177.28,-110.14C154.55,-100.17 127.73,-88.4 107.46,-79.51"/>
<polygon fill="#63b8ff" stroke="#63b8ff" points="108.89,-76.32 98.33,-75.5 106.08,-82.73 108.89,-76.32"/>
</a>
</g>
</g>
<!-- Node16 -->
<g id="Node000016" class="node">
<title>Node16</title>
<g id="a_Node000016"><a xlink:title=" ">
<polygon fill="#e0e0e0" stroke="#999999" points="512.89,-74.5 469.89,-74.5 469.89,-55.25 512.89,-55.25 512.89,-74.5"/>
<text text-anchor="middle" x="491.39" y="-61" font-family="Helvetica,sans-Serif" font-size="10.00">vector</text>
</a>
</g>
</g>
<!-- Node1&#45;&gt;Node16 -->
<g id="edge20_Node000001_Node000016" class="edge">
<title>Node1&#45;&gt;Node16</title>
<g id="a_edge20_Node000001_Node000016"><a xlink:title=" ">
<path fill="none" stroke="#63b8ff" d="M285.23,-116.74C330.76,-106.49 394.41,-91.76 458.37,-75.2"/>
<polygon fill="#63b8ff" stroke="#63b8ff" points="459.21,-78.6 468,-72.69 457.44,-71.83 459.21,-78.6"/>
</a>
</g>
</g>
<!-- Node3 -->
<g id="Node000003" class="node">
<title>Node3</title>
<g id="a_Node000003"><a xlink:title=" ">
<polygon fill="#e0e0e0" stroke="#999999" points="428.51,-19.25 380.26,-19.25 380.26,0 428.51,0 428.51,-19.25"/>
<text text-anchor="middle" x="404.39" y="-5.75" font-family="Helvetica,sans-Serif" font-size="10.00">cassert</text>
</a>
</g>
</g>
<!-- Node2&#45;&gt;Node3 -->
<g id="edge2_Node000002_Node000003" class="edge">
<title>Node2&#45;&gt;Node3</title>
<g id="a_edge2_Node000002_Node000003"><a xlink:title=" ">
<path fill="none" stroke="#63b8ff" d="M383.52,-55.08C386.72,-48.26 391.27,-38.56 395.31,-29.95"/>
<polygon fill="#63b8ff" stroke="#63b8ff" points="398.44,-31.52 399.53,-20.98 392.11,-28.54 398.44,-31.52"/>
</a>
</g>
</g>
<!-- Node4 -->
<g id="Node000004" class="node">
<title>Node4</title>
<g id="a_Node000004"><a xlink:title=" ">
<polygon fill="#e0e0e0" stroke="#999999" points="494.51,-19.25 446.26,-19.25 446.26,0 494.51,0 494.51,-19.25"/>
<text text-anchor="middle" x="470.39" y="-5.75" font-family="Helvetica,sans-Serif" font-size="10.00">cstddef</text>
</a>
</g>
</g>
<!-- Node2&#45;&gt;Node4 -->
<g id="edge3_Node000002_Node000004" class="edge">
<title>Node2&#45;&gt;Node4</title>
<g id="a_edge3_Node000002_Node000004"><a xlink:title=" ">
<path fill="none" stroke="#63b8ff" d="M394.82,-54.84C408.55,-46.81 428.89,-34.91 445,-25.48"/>
<polygon fill="#63b8ff" stroke="#63b8ff" points="446.71,-28.54 453.57,-20.47 443.17,-22.5 446.71,-28.54"/>
</a>
</g>
</g>
<!-- Node2&#45;&gt;Node5 -->
<g id="edge4_Node000002_Node000005" class="edge">
<title>Node2&#45;&gt;Node5</title>
<g id="a_edge4_Node000002_Node000005"><a xlink:title=" ">
<path fill="none" stroke="#63b8ff" d="M306.62,-55.46C248.81,-48.21 165.75,-36.5 85.17,-19.65"/>
<polygon fill="#63b8ff" stroke="#63b8ff" points="86.32,-16.31 75.81,-17.66 84.87,-23.16 86.32,-16.31"/>
</a>
</g>
</g>
<!-- Node6 -->
<g id="Node000006" class="node">
<title>Node6</title>
<g id="a_Node000006"><a xlink:title=" ">
<polygon fill="#e0e0e0" stroke="#999999" points="562.26,-19.25 512.51,-19.25 512.51,0 562.26,0 562.26,-19.25"/>
<text text-anchor="middle" x="537.39" y="-5.75" font-family="Helvetica,sans-Serif" font-size="10.00">iomanip</text>
</a>
</g>
</g>
<!-- Node2&#45;&gt;Node6 -->
<g id="edge5_Node000002_Node000006" class="edge">
<title>Node2&#45;&gt;Node6</title>
<g id="a_edge5_Node000002_Node000006"><a xlink:title=" ">
<path fill="none" stroke="#63b8ff" d="M406.19,-54.84C432.31,-46.04 472.2,-32.6 501.14,-22.84"/>
<polygon fill="#63b8ff" stroke="#63b8ff" points="502.23,-26.17 510.59,-19.66 500,-19.53 502.23,-26.17"/>
</a>
</g>
</g>
<!-- Node7 -->
<g id="Node000007" class="node">
<title>Node7</title>
<g id="a_Node000007"><a xlink:title=" ">
<polygon fill="#e0e0e0" stroke="#999999" points="628.51,-19.25 580.26,-19.25 580.26,0 628.51,0 628.51,-19.25"/>
<text text-anchor="middle" x="604.39" y="-5.75" font-family="Helvetica,sans-Serif" font-size="10.00">istream</text>
</a>
</g>
</g>
<!-- Node2&#45;&gt;Node7 -->
<g id="edge6_Node000002_Node000007" class="edge">
<title>Node2&#45;&gt;Node7</title>
<g id="a_edge6_Node000002_Node000007"><a xlink:title=" ">
<path fill="none" stroke="#63b8ff" d="M419.92,-54.79C456.47,-46.53 511.99,-33.79 568.89,-19.82"/>
<polygon fill="#63b8ff" stroke="#63b8ff" points="569.56,-23.26 578.43,-17.47 567.88,-16.46 569.56,-23.26"/>
</a>
</g>
</g>
<!-- Node8 -->
<g id="Node000008" class="node">
<title>Node8</title>
<g id="a_Node000008"><a xlink:title=" ">
<polygon fill="#e0e0e0" stroke="#999999" points="131.01,-19.25 91.76,-19.25 91.76,0 131.01,0 131.01,-19.25"/>
<text text-anchor="middle" x="111.39" y="-5.75" font-family="Helvetica,sans-Serif" font-size="10.00">limits</text>
</a>
</g>
</g>
<!-- Node2&#45;&gt;Node8 -->
<g id="edge7_Node000002_Node000008" class="edge">
<title>Node2&#45;&gt;Node8</title>
<g id="a_edge7_Node000002_Node000008"><a xlink:title=" ">
<path fill="none" stroke="#63b8ff" d="M321.56,-54.82C275.5,-47.21 209.18,-35.39 142.43,-19.53"/>
<polygon fill="#63b8ff" stroke="#63b8ff" points="143.29,-16.13 132.75,-17.19 141.65,-22.94 143.29,-16.13"/>
</a>
</g>
</g>
<!-- Node9 -->
<g id="Node000009" class="node">
<title>Node9</title>
<g id="a_Node000009"><a xlink:title=" ">
<polygon fill="#e0e0e0" stroke="#999999" points="698.01,-19.25 646.76,-19.25 646.76,0 698.01,0 698.01,-19.25"/>
<text text-anchor="middle" x="672.39" y="-5.75" font-family="Helvetica,sans-Serif" font-size="10.00">ostream</text>
</a>
</g>
</g>
<!-- Node2&#45;&gt;Node9 -->
<g id="edge8_Node000002_Node000009" class="edge">
<title>Node2&#45;&gt;Node9</title>
<g id="a_edge8_Node000002_Node000009"><a xlink:title=" ">
<path fill="none" stroke="#63b8ff" d="M439.05,-54.78C488.93,-46.89 562.18,-34.68 635.2,-19.58"/>
<polygon fill="#63b8ff" stroke="#63b8ff" points="635.89,-23.01 644.96,-17.54 634.45,-16.16 635.89,-23.01"/>
</a>
</g>
</g>
<!-- Node10 -->
<g id="Node000010" class="node">
<title>Node10</title>
<g id="a_Node000010"><a xlink:title=" ">
<polygon fill="#e0e0e0" stroke="#999999" points="767.01,-19.25 715.76,-19.25 715.76,0 767.01,0 767.01,-19.25"/>
<text text-anchor="middle" x="741.39" y="-5.75" font-family="Helvetica,sans-Serif" font-size="10.00">sstream</text>
</a>
</g>
</g>
<!-- Node2&#45;&gt;Node10 -->
<g id="edge9_Node000002_Node000010" class="edge">
<title>Node2&#45;&gt;Node10</title>
<g id="a_edge9_Node000002_Node000010"><a xlink:title=" ">
<path fill="none" stroke="#63b8ff" d="M452.22,-54.94C528.47,-45.43 644.37,-30.47 704.26,-19.63"/>
<polygon fill="#63b8ff" stroke="#63b8ff" points="704.8,-23.09 713.98,-17.8 703.5,-16.21 704.8,-23.09"/>
</a>
</g>
</g>
<!-- Node11 -->
<g id="Node000011" class="node">
<title>Node11</title>
<g id="a_Node000011"><a xlink:title=" ">
<polygon fill="#e0e0e0" stroke="#999999" points="189.39,-19.25 149.39,-19.25 149.39,0 189.39,0 189.39,-19.25"/>
<text text-anchor="middle" x="169.39" y="-5.75" font-family="Helvetica,sans-Serif" font-size="10.00">string</text>
</a>
</g>
</g>
<!-- Node2&#45;&gt;Node11 -->
<g id="edge10_Node000002_Node000011" class="edge">
<title>Node2&#45;&gt;Node11</title>
<g id="a_edge10_Node000002_Node000011"><a xlink:title=" ">
<path fill="none" stroke="#63b8ff" d="M341.01,-54.79C306.78,-46.6 255.04,-33.98 200.61,-19.49"/>
<polygon fill="#63b8ff" stroke="#63b8ff" points="201.72,-16.17 191.15,-16.96 199.91,-22.93 201.72,-16.17"/>
</a>
</g>
</g>
<!-- Node12 -->
<g id="Node000012" class="node">
<title>Node12</title>
<g id="a_Node000012"><a xlink:title=" ">
<polygon fill="#e0e0e0" stroke="#999999" points="244.89,-19.25 207.89,-19.25 207.89,0 244.89,0 244.89,-19.25"/>
<text text-anchor="middle" x="226.39" y="-5.75" font-family="Helvetica,sans-Serif" font-size="10.00">tuple</text>
</a>
</g>
</g>
<!-- Node2&#45;&gt;Node12 -->
<g id="edge11_Node000002_Node000012" class="edge">
<title>Node2&#45;&gt;Node12</title>
<g id="a_edge11_Node000002_Node000012"><a xlink:title=" ">
<path fill="none" stroke="#63b8ff" d="M353.43,-54.84C326.46,-45.45 284.3,-30.78 256.03,-20.94"/>
<polygon fill="#63b8ff" stroke="#63b8ff" points="257.24,-17.66 246.65,-17.68 254.94,-24.27 257.24,-17.66"/>
</a>
</g>
</g>
<!-- Node13 -->
<g id="Node000013" class="node">
<title>Node13</title>
<g id="a_Node000013"><a xlink:href="SourceID_8hxx.html" target="_top" xlink:title=" ">
<polygon fill="white" stroke="#666666" points="362.01,-19.25 262.76,-19.25 262.76,0 362.01,0 362.01,-19.25"/>
<text text-anchor="middle" x="312.39" y="-5.75" font-family="Helvetica,sans-Serif" font-size="10.00">detail/SourceID.hxx</text>
</a>
</g>
</g>
<!-- Node2&#45;&gt;Node13 -->
<g id="edge12_Node000002_Node000013" class="edge">
<title>Node2&#45;&gt;Node13</title>
<g id="a_edge12_Node000002_Node000013"><a xlink:title=" ">
<path fill="none" stroke="#63b8ff" d="M368.02,-54.84C358.34,-47.15 344.19,-35.9 332.58,-26.68"/>
<polygon fill="#63b8ff" stroke="#63b8ff" points="334.78,-23.95 324.77,-20.47 330.42,-29.43 334.78,-23.95"/>
</a>
</g>
</g>
<!-- Node14&#45;&gt;Node5 -->
<g id="edge14_Node000014_Node000005" class="edge">
<title>Node14&#45;&gt;Node5</title>
<g id="a_edge14_Node000014_Node000005"><a xlink:title=" ">
<path fill="none" stroke="#63b8ff" d="M194.21,-54.84C164.08,-45.51 117.1,-30.97 85.32,-21.13"/>
<polygon fill="#63b8ff" stroke="#63b8ff" points="86.4,-17.8 75.81,-18.19 84.33,-24.49 86.4,-17.8"/>
</a>
</g>
</g>
<!-- Node14&#45;&gt;Node8 -->
<g id="edge15_Node000014_Node000008" class="edge">
<title>Node14&#45;&gt;Node8</title>
<g id="a_edge15_Node000014_Node000008"><a xlink:title=" ">
<path fill="none" stroke="#63b8ff" d="M204.39,-54.84C186.93,-46.54 160.79,-34.11 140.66,-24.54"/>
<polygon fill="#63b8ff" stroke="#63b8ff" points="142.38,-21.49 131.85,-20.35 139.38,-27.81 142.38,-21.49"/>
</a>
</g>
</g>
<!-- Node15&#45;&gt;Node5 -->
<g id="edge17_Node000015_Node000005" class="edge">
<title>Node15&#45;&gt;Node5</title>
<g id="a_edge17_Node000015_Node000005"><a xlink:title=" ">
<path fill="none" stroke="#63b8ff" d="M72.26,-55.08C69.06,-48.26 64.5,-38.56 60.46,-29.95"/>
<polygon fill="#63b8ff" stroke="#63b8ff" points="63.67,-28.54 56.25,-20.98 57.33,-31.52 63.67,-28.54"/>
</a>
</g>
</g>
<!-- Node15&#45;&gt;Node8 -->
<g id="edge18_Node000015_Node000008" class="edge">
<title>Node15&#45;&gt;Node8</title>
<g id="a_edge18_Node000015_Node000008"><a xlink:title=" ">
<path fill="none" stroke="#63b8ff" d="M82.17,-55.08C86.8,-48.03 93.46,-37.9 99.25,-29.08"/>
<polygon fill="#63b8ff" stroke="#63b8ff" points="102.08,-31.15 104.65,-20.87 96.23,-27.31 102.08,-31.15"/>
</a>
</g>
</g>
</g>
</svg>
