<?xml version="1.0" encoding="UTF-8" standalone="no"?>
<!DOCTYPE svg PUBLIC "-//W3C//DTD SVG 1.1//EN"
 "http://www.w3.org/Graphics/SVG/1.1/DTD/svg11.dtd">
<!-- Generated by graphviz version 9.0.0 (20230911.1827)
 -->
<!-- Title: /github/workspace/dev_area/sourcecode/daqdataformats/include/daqdataformats/SourceID.hpp Pages: 1 -->
<svg width="747pt" height="105pt"
 viewBox="0.00 0.00 746.75 105.00" xmlns="http://www.w3.org/2000/svg" xmlns:xlink="http://www.w3.org/1999/xlink">
<g id="graph0" class="graph" transform="scale(1 1) rotate(0) translate(4 101)">
<title>/github/workspace/dev_area/sourcecode/daqdataformats/include/daqdataformats/SourceID.hpp</title>
<!-- Node1 -->
<g id="Node000001" class="node">
<title>Node1</title>
<g id="a_Node000001"><a xlink:title=" ">
<polygon fill="#999999" stroke="#666666" points="441,-97 259.25,-97 259.25,-55.25 441,-55.25 441,-97"/>
<text text-anchor="start" x="267.25" y="-83.5" font-family="Helvetica,sans-Serif" font-size="10.00">/github/workspace/dev</text>
<text text-anchor="start" x="267.25" y="-72.25" font-family="Helvetica,sans-Serif" font-size="10.00">_area/sourcecode/daqdataformats</text>
<text text-anchor="middle" x="350.12" y="-61" font-family="Helvetica,sans-Serif" font-size="10.00">/include/daqdataformats/SourceID.hpp</text>
</a>
</g>
</g>
<!-- Node2 -->
<g id="Node000002" class="node">
<title>Node2</title>
<g id="a_Node000002"><a xlink:title=" ">
<polygon fill="#e0e0e0" stroke="#999999" points="48.25,-19.25 0,-19.25 0,0 48.25,0 48.25,-19.25"/>
<text text-anchor="middle" x="24.12" y="-5.75" font-family="Helvetica,sans-Serif" font-size="10.00">cassert</text>
</a>
</g>
</g>
<!-- Node1&#45;&gt;Node2 -->
<g id="edge1_Node000001_Node000002" class="edge">
<title>Node1&#45;&gt;Node2</title>
<g id="a_edge1_Node000001_Node000002"><a xlink:title=" ">
<path fill="none" stroke="#63b8ff" d="M259.06,-59.39C203.89,-49.47 131.87,-35.85 59.7,-19.72"/>
<polygon fill="#63b8ff" stroke="#63b8ff" points="60.59,-16.33 50.07,-17.55 59.05,-23.16 60.59,-16.33"/>
</a>
</g>
</g>
<!-- Node3 -->
<g id="Node000003" class="node">
<title>Node3</title>
<g id="a_Node000003"><a xlink:title=" ">
<polygon fill="#e0e0e0" stroke="#999999" points="114.25,-19.25 66,-19.25 66,0 114.25,0 114.25,-19.25"/>
<text text-anchor="middle" x="90.12" y="-5.75" font-family="Helvetica,sans-Serif" font-size="10.00">cstddef</text>
</a>
</g>
</g>
<!-- Node1&#45;&gt;Node3 -->
<g id="edge2_Node000001_Node000003" class="edge">
<title>Node1&#45;&gt;Node3</title>
<g id="a_edge2_Node000001_Node000003"><a xlink:title=" ">
<path fill="none" stroke="#63b8ff" d="M266.24,-54.78C226.23,-45 177.42,-32.98 125.7,-19.88"/>
<polygon fill="#63b8ff" stroke="#63b8ff" points="126.64,-16.51 116.09,-17.44 124.92,-23.29 126.64,-16.51"/>
</a>
</g>
</g>
<!-- Node4 -->
<g id="Node000004" class="node">
<title>Node4</title>
<g id="a_Node000004"><a xlink:title=" ">
<polygon fill="#e0e0e0" stroke="#999999" points="177.75,-19.25 132.5,-19.25 132.5,0 177.75,0 177.75,-19.25"/>
<text text-anchor="middle" x="155.12" y="-5.75" font-family="Helvetica,sans-Serif" font-size="10.00">cstdint</text>
</a>
</g>
</g>
<!-- Node1&#45;&gt;Node4 -->
<g id="edge3_Node000001_Node000004" class="edge">
<title>Node1&#45;&gt;Node4</title>
<g id="a_edge3_Node000001_Node000004"><a xlink:title=" ">
<path fill="none" stroke="#63b8ff" d="M288.69,-54.81C255.53,-43.84 215.88,-30.72 188.44,-21.65"/>
<polygon fill="#63b8ff" stroke="#63b8ff" points="189.88,-18.43 179.28,-18.62 187.68,-25.08 189.88,-18.43"/>
</a>
</g>
</g>
<!-- Node5 -->
<g id="Node000005" class="node">
<title>Node5</title>
<g id="a_Node000005"><a xlink:title=" ">
<polygon fill="#e0e0e0" stroke="#999999" points="246,-19.25 196.25,-19.25 196.25,0 246,0 246,-19.25"/>
<text text-anchor="middle" x="221.12" y="-5.75" font-family="Helvetica,sans-Serif" font-size="10.00">iomanip</text>
</a>
</g>
</g>
<!-- Node1&#45;&gt;Node5 -->
<g id="edge4_Node000001_Node000005" class="edge">
<title>Node1&#45;&gt;Node5</title>
<g id="a_edge4_Node000001_Node000005"><a xlink:title=" ">
<path fill="none" stroke="#63b8ff" d="M309.66,-54.89C290.08,-45.1 267.05,-33.59 249.39,-24.76"/>
<polygon fill="#63b8ff" stroke="#63b8ff" points="251.03,-21.66 240.52,-20.32 247.9,-27.92 251.03,-21.66"/>
</a>
</g>
</g>
<!-- Node6 -->
<g id="Node000006" class="node">
<title>Node6</title>
<g id="a_Node000006"><a xlink:title=" ">
<polygon fill="#e0e0e0" stroke="#999999" points="312.25,-19.25 264,-19.25 264,0 312.25,0 312.25,-19.25"/>
<text text-anchor="middle" x="288.12" y="-5.75" font-family="Helvetica,sans-Serif" font-size="10.00">istream</text>
</a>
</g>
</g>
<!-- Node1&#45;&gt;Node6 -->
<g id="edge5_Node000001_Node000006" class="edge">
<title>Node1&#45;&gt;Node6</title>
<g id="a_edge5_Node000001_Node000006"><a xlink:title=" ">
<path fill="none" stroke="#63b8ff" d="M330.85,-55.07C322.49,-46.38 312.81,-36.3 304.77,-27.94"/>
<polygon fill="#63b8ff" stroke="#63b8ff" points="307.35,-25.57 297.89,-20.79 302.3,-30.42 307.35,-25.57"/>
</a>
</g>
</g>
<!-- Node7 -->
<g id="Node000007" class="node">
<title>Node7</title>
<g id="a_Node000007"><a xlink:title=" ">
<polygon fill="#e0e0e0" stroke="#999999" points="369.75,-19.25 330.5,-19.25 330.5,0 369.75,0 369.75,-19.25"/>
<text text-anchor="middle" x="350.12" y="-5.75" font-family="Helvetica,sans-Serif" font-size="10.00">limits</text>
</a>
</g>
</g>
<!-- Node1&#45;&gt;Node7 -->
<g id="edge6_Node000001_Node000007" class="edge">
<title>Node1&#45;&gt;Node7</title>
<g id="a_edge6_Node000001_Node000007"><a xlink:title=" ">
<path fill="none" stroke="#63b8ff" d="M350.12,-55.07C350.12,-47.4 350.12,-38.64 350.12,-30.95"/>
<polygon fill="#63b8ff" stroke="#63b8ff" points="353.63,-31.21 350.13,-21.21 346.63,-31.21 353.63,-31.21"/>
</a>
</g>
</g>
<!-- Node8 -->
<g id="Node000008" class="node">
<title>Node8</title>
<g id="a_Node000008"><a xlink:title=" ">
<polygon fill="#e0e0e0" stroke="#999999" points="438.75,-19.25 387.5,-19.25 387.5,0 438.75,0 438.75,-19.25"/>
<text text-anchor="middle" x="413.12" y="-5.75" font-family="Helvetica,sans-Serif" font-size="10.00">ostream</text>
</a>
</g>
</g>
<!-- Node1&#45;&gt;Node8 -->
<g id="edge7_Node000001_Node000008" class="edge">
<title>Node1&#45;&gt;Node8</title>
<g id="a_edge7_Node000001_Node000008"><a xlink:title=" ">
<path fill="none" stroke="#63b8ff" d="M369.71,-55.07C378.29,-46.29 388.25,-36.09 396.47,-27.68"/>
<polygon fill="#63b8ff" stroke="#63b8ff" points="398.72,-30.38 403.21,-20.78 393.72,-25.49 398.72,-30.38"/>
</a>
</g>
</g>
<!-- Node9 -->
<g id="Node000009" class="node">
<title>Node9</title>
<g id="a_Node000009"><a xlink:title=" ">
<polygon fill="#e0e0e0" stroke="#999999" points="507.75,-19.25 456.5,-19.25 456.5,0 507.75,0 507.75,-19.25"/>
<text text-anchor="middle" x="482.12" y="-5.75" font-family="Helvetica,sans-Serif" font-size="10.00">sstream</text>
</a>
</g>
</g>
<!-- Node1&#45;&gt;Node9 -->
<g id="edge8_Node000001_Node000009" class="edge">
<title>Node1&#45;&gt;Node9</title>
<g id="a_edge8_Node000001_Node000009"><a xlink:title=" ">
<path fill="none" stroke="#63b8ff" d="M391.53,-54.89C411.66,-45.06 435.35,-33.48 453.46,-24.63"/>
<polygon fill="#63b8ff" stroke="#63b8ff" points="454.86,-27.84 462.31,-20.31 451.79,-21.55 454.86,-27.84"/>
</a>
</g>
</g>
<!-- Node10 -->
<g id="Node000010" class="node">
<title>Node10</title>
<g id="a_Node000010"><a xlink:title=" ">
<polygon fill="#e0e0e0" stroke="#999999" points="566.12,-19.25 526.12,-19.25 526.12,0 566.12,0 566.12,-19.25"/>
<text text-anchor="middle" x="546.12" y="-5.75" font-family="Helvetica,sans-Serif" font-size="10.00">string</text>
</a>
</g>
</g>
<!-- Node1&#45;&gt;Node10 -->
<g id="edge9_Node000001_Node000010" class="edge">
<title>Node1&#45;&gt;Node10</title>
<g id="a_edge9_Node000001_Node000010"><a xlink:title=" ">
<path fill="none" stroke="#63b8ff" d="M411.87,-54.81C446.19,-43.51 487.42,-29.94 515.05,-20.85"/>
<polygon fill="#63b8ff" stroke="#63b8ff" points="515.8,-24.29 524.21,-17.84 513.61,-17.64 515.8,-24.29"/>
</a>
</g>
</g>
<!-- Node11 -->
<g id="Node000011" class="node">
<title>Node11</title>
<g id="a_Node000011"><a xlink:title=" ">
<polygon fill="#e0e0e0" stroke="#999999" points="621.62,-19.25 584.62,-19.25 584.62,0 621.62,0 621.62,-19.25"/>
<text text-anchor="middle" x="603.12" y="-5.75" font-family="Helvetica,sans-Serif" font-size="10.00">tuple</text>
</a>
</g>
</g>
<!-- Node1&#45;&gt;Node11 -->
<g id="edge10_Node000001_Node000011" class="edge">
<title>Node1&#45;&gt;Node11</title>
<g id="a_edge10_Node000001_Node000011"><a xlink:title=" ">
<path fill="none" stroke="#63b8ff" d="M436.69,-54.81C475.85,-45.34 522.92,-33.57 573.37,-19.62"/>
<polygon fill="#63b8ff" stroke="#63b8ff" points="574.04,-23.07 582.73,-17.02 572.16,-16.33 574.04,-23.07"/>
</a>
</g>
</g>
<!-- Node12 -->
<g id="Node000012" class="node">
<title>Node12</title>
<g id="a_Node000012"><a xlink:href="SourceID_8hxx.html" target="_top" xlink:title=" ">
<polygon fill="white" stroke="#666666" points="738.75,-19.25 639.5,-19.25 639.5,0 738.75,0 738.75,-19.25"/>
<text text-anchor="middle" x="689.12" y="-5.75" font-family="Helvetica,sans-Serif" font-size="10.00">detail/SourceID.hxx</text>
</a>
</g>
</g>
<!-- Node1&#45;&gt;Node12 -->
<g id="edge11_Node000001_Node000012" class="edge">
<title>Node1&#45;&gt;Node12</title>
<g id="a_edge11_Node000001_Node000012"><a xlink:title=" ">
<path fill="none" stroke="#63b8ff" d="M441.42,-57.76C501.53,-46.32 578.44,-31.68 630.5,-21.78"/>
<polygon fill="#63b8ff" stroke="#63b8ff" points="630.88,-25.27 640.05,-19.96 629.57,-18.39 630.88,-25.27"/>
</a>
</g>
</g>
</g>
</svg>
