<?xml version="1.0" encoding="UTF-8" standalone="no"?>
<!DOCTYPE svg PUBLIC "-//W3C//DTD SVG 1.1//EN"
 "http://www.w3.org/Graphics/SVG/1.1/DTD/svg11.dtd">
<!-- Generated by graphviz version 9.0.0 (20230911.1827)
 -->
<!-- Title: /github/workspace/dev_area/sourcecode/ers/include/ers/StreamFactory.hpp Pages: 1 -->
<svg width="1372pt" height="349pt"
 viewBox="0.00 0.00 1371.50 348.50" xmlns="http://www.w3.org/2000/svg" xmlns:xlink="http://www.w3.org/1999/xlink">
<g id="graph0" class="graph" transform="scale(1 1) rotate(0) translate(4 344.5)">
<title>/github/workspace/dev_area/sourcecode/ers/include/ers/StreamFactory.hpp</title>
<!-- Node1 -->
<g id="Node000001" class="node">
<title>Node1</title>
<g id="a_Node000001"><a xlink:title=" ">
<polygon fill="#999999" stroke="#666666" points="281.38,-340.5 130.38,-340.5 130.38,-298.75 281.38,-298.75 281.38,-340.5"/>
<text text-anchor="start" x="138.38" y="-327" font-family="Helvetica,sans-Serif" font-size="10.00">/github/workspace/dev</text>
<text text-anchor="start" x="138.38" y="-315.75" font-family="Helvetica,sans-Serif" font-size="10.00">_area/sourcecode/ers</text>
<text text-anchor="middle" x="205.88" y="-304.5" font-family="Helvetica,sans-Serif" font-size="10.00">/include/ers/StreamFactory.hpp</text>
</a>
</g>
</g>
<!-- Node2 -->
<g id="Node000002" class="node">
<title>Node2</title>
<g id="a_Node000002"><a xlink:href="Severity_8hpp.html" target="_top" xlink:title=" ">
<polygon fill="white" stroke="#666666" points="85.75,-135.38 0,-135.38 0,-116.12 85.75,-116.12 85.75,-135.38"/>
<text text-anchor="middle" x="42.88" y="-121.88" font-family="Helvetica,sans-Serif" font-size="10.00">ers/Severity.hpp</text>
</a>
</g>
</g>
<!-- Node1&#45;&gt;Node2 -->
<g id="edge1_Node000001_Node000002" class="edge">
<title>Node1&#45;&gt;Node2</title>
<g id="a_edge1_Node000001_Node000002"><a xlink:title=" ">
<path fill="none" stroke="#63b8ff" d="M178.24,-298.27C151.6,-277.62 111.39,-243.63 83.88,-207.5 69.32,-188.39 57.54,-163.34 50.4,-146.24"/>
<polygon fill="#63b8ff" stroke="#63b8ff" points="53.76,-145.22 46.79,-137.24 47.27,-147.83 53.76,-145.22"/>
</a>
</g>
</g>
<!-- Node6 -->
<g id="Node000006" class="node">
<title>Node6</title>
<g id="a_Node000006"><a xlink:href="Context_8hpp.html" target="_top" xlink:title=" ">
<polygon fill="white" stroke="#666666" points="263.62,-135.38 180.12,-135.38 180.12,-116.12 263.62,-116.12 263.62,-135.38"/>
<text text-anchor="middle" x="221.88" y="-121.88" font-family="Helvetica,sans-Serif" font-size="10.00">ers/Context.hpp</text>
</a>
</g>
</g>
<!-- Node1&#45;&gt;Node6 -->
<g id="edge5_Node000001_Node000006" class="edge">
<title>Node1&#45;&gt;Node6</title>
<g id="a_edge5_Node000001_Node000006"><a xlink:title=" ">
<path fill="none" stroke="#63b8ff" d="M190.67,-298.28C171.66,-270.19 143.81,-218.29 162.88,-177 169.6,-162.45 182.84,-150.55 195.08,-142"/>
<polygon fill="#63b8ff" stroke="#63b8ff" points="196.78,-145.07 203.27,-136.69 192.98,-139.19 196.78,-145.07"/>
</a>
</g>
</g>
<!-- Node8 -->
<g id="Node000008" class="node">
<title>Node8</title>
<g id="a_Node000008"><a xlink:href="Issue_8hpp.html" target="_top" xlink:title=" ">
<polygon fill="white" stroke="#666666" points="595.12,-262.75 520.62,-262.75 520.62,-243.5 595.12,-243.5 595.12,-262.75"/>
<text text-anchor="middle" x="557.88" y="-249.25" font-family="Helvetica,sans-Serif" font-size="10.00">ers/Issue.hpp</text>
</a>
</g>
</g>
<!-- Node1&#45;&gt;Node8 -->
<g id="edge10_Node000001_Node000008" class="edge">
<title>Node1&#45;&gt;Node8</title>
<g id="a_edge10_Node000001_Node000008"><a xlink:title=" ">
<path fill="none" stroke="#63b8ff" d="M281.82,-304.71C350.79,-292.07 450.45,-273.81 509.26,-263.03"/>
<polygon fill="#63b8ff" stroke="#63b8ff" points="509.76,-266.5 518.96,-261.26 508.5,-259.61 509.76,-266.5"/>
</a>
</g>
</g>
<!-- Node12 -->
<g id="Node000012" class="node">
<title>Node12</title>
<g id="a_Node000012"><a xlink:title=" ">
<polygon fill="#e0e0e0" stroke="#999999" points="354.25,-135.38 319.5,-135.38 319.5,-116.12 354.25,-116.12 354.25,-135.38"/>
<text text-anchor="middle" x="336.88" y="-121.88" font-family="Helvetica,sans-Serif" font-size="10.00">map</text>
</a>
</g>
</g>
<!-- Node1&#45;&gt;Node12 -->
<g id="edge39_Node000001_Node000012" class="edge">
<title>Node1&#45;&gt;Node12</title>
<g id="a_edge39_Node000001_Node000012"><a xlink:title=" ">
<path fill="none" stroke="#63b8ff" d="M221.27,-298.47C237.93,-276.46 265.02,-239.99 286.88,-207.5 300.92,-186.62 315.98,-161.95 325.86,-145.42"/>
<polygon fill="#63b8ff" stroke="#63b8ff" points="328.67,-147.54 330.77,-137.15 322.65,-143.96 328.67,-147.54"/>
</a>
</g>
</g>
<!-- Node3 -->
<g id="Node000003" class="node">
<title>Node3</title>
<g id="a_Node000003"><a xlink:title=" ">
<polygon fill="#e0e0e0" stroke="#999999" points="141.88,-74.5 101.88,-74.5 101.88,-55.25 141.88,-55.25 141.88,-74.5"/>
<text text-anchor="middle" x="121.88" y="-61" font-family="Helvetica,sans-Serif" font-size="10.00">string</text>
</a>
</g>
</g>
<!-- Node2&#45;&gt;Node3 -->
<g id="edge2_Node000002_Node000003" class="edge">
<title>Node2&#45;&gt;Node3</title>
<g id="a_edge2_Node000002_Node000003"><a xlink:title=" ">
<path fill="none" stroke="#63b8ff" d="M54.87,-115.81C67.05,-106.73 86.16,-92.49 100.86,-81.54"/>
<polygon fill="#63b8ff" stroke="#63b8ff" points="102.62,-84.59 108.55,-75.81 98.44,-78.97 102.62,-84.59"/>
</a>
</g>
</g>
<!-- Node4 -->
<g id="Node000004" class="node">
<title>Node4</title>
<g id="a_Node000004"><a xlink:title=" ">
<polygon fill="#e0e0e0" stroke="#999999" points="220.38,-74.5 177.38,-74.5 177.38,-55.25 220.38,-55.25 220.38,-74.5"/>
<text text-anchor="middle" x="198.88" y="-61" font-family="Helvetica,sans-Serif" font-size="10.00">vector</text>
</a>
</g>
</g>
<!-- Node2&#45;&gt;Node4 -->
<g id="edge3_Node000002_Node000004" class="edge">
<title>Node2&#45;&gt;Node4</title>
<g id="a_edge3_Node000002_Node000004"><a xlink:title=" ">
<path fill="none" stroke="#63b8ff" d="M66.91,-115.68C93.58,-105.61 136.78,-89.31 166.44,-78.12"/>
<polygon fill="#63b8ff" stroke="#63b8ff" points="167.55,-81.44 175.67,-74.63 165.07,-74.89 167.55,-81.44"/>
</a>
</g>
</g>
<!-- Node5 -->
<g id="Node000005" class="node">
<title>Node5</title>
<g id="a_Node000005"><a xlink:title=" ">
<polygon fill="#e0e0e0" stroke="#999999" points="318.62,-19.25 265.12,-19.25 265.12,0 318.62,0 318.62,-19.25"/>
<text text-anchor="middle" x="291.88" y="-5.75" font-family="Helvetica,sans-Serif" font-size="10.00">iostream</text>
</a>
</g>
</g>
<!-- Node2&#45;&gt;Node5 -->
<g id="edge4_Node000002_Node000005" class="edge">
<title>Node2&#45;&gt;Node5</title>
<g id="a_edge4_Node000002_Node000005"><a xlink:title=" ">
<path fill="none" stroke="#63b8ff" d="M46.65,-115.9C53.52,-100.92 69.56,-70.65 92.88,-55.25 141.88,-22.87 210.95,-13.72 253.49,-11.28"/>
<polygon fill="#63b8ff" stroke="#63b8ff" points="253.41,-14.79 263.23,-10.83 253.08,-7.8 253.41,-14.79"/>
</a>
</g>
</g>
<!-- Node6&#45;&gt;Node3 -->
<g id="edge6_Node000006_Node000003" class="edge">
<title>Node6&#45;&gt;Node3</title>
<g id="a_edge6_Node000006_Node000003"><a xlink:title=" ">
<path fill="none" stroke="#63b8ff" d="M206.69,-115.81C190.83,-106.47 165.69,-91.67 146.9,-80.61"/>
<polygon fill="#63b8ff" stroke="#63b8ff" points="148.9,-77.73 138.51,-75.67 145.35,-83.76 148.9,-77.73"/>
</a>
</g>
</g>
<!-- Node6&#45;&gt;Node4 -->
<g id="edge7_Node000006_Node000004" class="edge">
<title>Node6&#45;&gt;Node4</title>
<g id="a_edge7_Node000006_Node000004"><a xlink:title=" ">
<path fill="none" stroke="#63b8ff" d="M218.38,-115.81C215.24,-107.77 210.52,-95.68 206.51,-85.41"/>
<polygon fill="#63b8ff" stroke="#63b8ff" points="209.85,-84.35 202.95,-76.31 203.33,-86.9 209.85,-84.35"/>
</a>
</g>
</g>
<!-- Node7 -->
<g id="Node000007" class="node">
<title>Node7</title>
<g id="a_Node000007"><a xlink:href="ers_2include_2ers_2Configuration_8hpp.html" target="_top" xlink:title=" ">
<polygon fill="white" stroke="#666666" points="345.25,-74.5 238.5,-74.5 238.5,-55.25 345.25,-55.25 345.25,-74.5"/>
<text text-anchor="middle" x="291.88" y="-61" font-family="Helvetica,sans-Serif" font-size="10.00">ers/Configuration.hpp</text>
</a>
</g>
</g>
<!-- Node6&#45;&gt;Node7 -->
<g id="edge8_Node000006_Node000007" class="edge">
<title>Node6&#45;&gt;Node7</title>
<g id="a_edge8_Node000006_Node000007"><a xlink:title=" ">
<path fill="none" stroke="#63b8ff" d="M232.51,-115.81C243.09,-106.9 259.59,-93.03 272.5,-82.17"/>
<polygon fill="#63b8ff" stroke="#63b8ff" points="274.58,-84.99 279.99,-75.88 270.08,-79.63 274.58,-84.99"/>
</a>
</g>
</g>
<!-- Node7&#45;&gt;Node5 -->
<g id="edge9_Node000007_Node000005" class="edge">
<title>Node7&#45;&gt;Node5</title>
<g id="a_edge9_Node000007_Node000005"><a xlink:title=" ">
<path fill="none" stroke="#63b8ff" d="M291.88,-55.08C291.88,-48.57 291.88,-39.42 291.88,-31.12"/>
<polygon fill="#63b8ff" stroke="#63b8ff" points="295.38,-31.12 291.88,-21.12 288.38,-31.12 295.38,-31.12"/>
</a>
</g>
</g>
<!-- Node8&#45;&gt;Node2 -->
<g id="edge31_Node000008_Node000002" class="edge">
<title>Node8&#45;&gt;Node2</title>
<g id="a_edge31_Node000008_Node000002"><a xlink:title=" ">
<path fill="none" stroke="#63b8ff" d="M520.33,-251.24C429.28,-248.61 199.18,-238.95 129.88,-207.5 98.87,-193.43 71.65,-163.89 56.24,-144.71"/>
<polygon fill="#63b8ff" stroke="#63b8ff" points="59.13,-142.71 50.23,-136.95 53.59,-147 59.13,-142.71"/>
</a>
</g>
</g>
<!-- Node8&#45;&gt;Node3 -->
<g id="edge15_Node000008_Node000003" class="edge">
<title>Node8&#45;&gt;Node3</title>
<g id="a_edge15_Node000008_Node000003"><a xlink:title=" ">
<path fill="none" stroke="#63b8ff" d="M520.31,-250.23C426.94,-245.2 189.91,-230.31 162.88,-207.5 126.93,-177.18 121.46,-117.45 121.24,-86.13"/>
<polygon fill="#63b8ff" stroke="#63b8ff" points="124.73,-86.51 121.36,-76.47 117.73,-86.42 124.73,-86.51"/>
</a>
</g>
</g>
<!-- Node8&#45;&gt;Node5 -->
<g id="edge16_Node000008_Node000005" class="edge">
<title>Node8&#45;&gt;Node5</title>
<g id="a_edge16_Node000008_Node000005"><a xlink:title=" ">
<path fill="none" stroke="#63b8ff" d="M520.21,-251.25C484.86,-248.4 432.79,-238.7 400.88,-207.5 350.24,-157.99 395.21,-112.76 353.88,-55.25 345.11,-43.05 331.96,-32.91 320.02,-25.39"/>
<polygon fill="#63b8ff" stroke="#63b8ff" points="322.1,-22.56 311.71,-20.48 318.54,-28.58 322.1,-22.56"/>
</a>
</g>
</g>
<!-- Node9 -->
<g id="Node000009" class="node">
<title>Node9</title>
<g id="a_Node000009"><a xlink:title=" ">
<polygon fill="#e0e0e0" stroke="#999999" points="580.5,-201.88 535.25,-201.88 535.25,-182.62 580.5,-182.62 580.5,-201.88"/>
<text text-anchor="middle" x="557.88" y="-188.38" font-family="Helvetica,sans-Serif" font-size="10.00">math.h</text>
</a>
</g>
</g>
<!-- Node8&#45;&gt;Node9 -->
<g id="edge11_Node000008_Node000009" class="edge">
<title>Node8&#45;&gt;Node9</title>
<g id="a_edge11_Node000008_Node000009"><a xlink:title=" ">
<path fill="none" stroke="#63b8ff" d="M557.88,-243.18C557.88,-235.4 557.88,-223.83 557.88,-213.78"/>
<polygon fill="#63b8ff" stroke="#63b8ff" points="561.38,-213.79 557.88,-203.79 554.38,-213.79 561.38,-213.79"/>
</a>
</g>
</g>
<!-- Node10 -->
<g id="Node000010" class="node">
<title>Node10</title>
<g id="a_Node000010"><a xlink:title=" ">
<polygon fill="#e0e0e0" stroke="#999999" points="643.12,-201.88 598.62,-201.88 598.62,-182.62 643.12,-182.62 643.12,-201.88"/>
<text text-anchor="middle" x="620.88" y="-188.38" font-family="Helvetica,sans-Serif" font-size="10.00">stdio.h</text>
</a>
</g>
</g>
<!-- Node8&#45;&gt;Node10 -->
<g id="edge12_Node000008_Node000010" class="edge">
<title>Node8&#45;&gt;Node10</title>
<g id="a_edge12_Node000008_Node000010"><a xlink:title=" ">
<path fill="none" stroke="#63b8ff" d="M567.44,-243.18C576.88,-234.37 591.53,-220.68 603.1,-209.86"/>
<polygon fill="#63b8ff" stroke="#63b8ff" points="605.19,-212.69 610.11,-203.31 600.41,-207.58 605.19,-212.69"/>
</a>
</g>
</g>
<!-- Node11 -->
<g id="Node000011" class="node">
<title>Node11</title>
<g id="a_Node000011"><a xlink:title=" ">
<polygon fill="#e0e0e0" stroke="#999999" points="708.62,-201.88 661.12,-201.88 661.12,-182.62 708.62,-182.62 708.62,-201.88"/>
<text text-anchor="middle" x="684.88" y="-188.38" font-family="Helvetica,sans-Serif" font-size="10.00">string.h</text>
</a>
</g>
</g>
<!-- Node8&#45;&gt;Node11 -->
<g id="edge13_Node000008_Node000011" class="edge">
<title>Node8&#45;&gt;Node11</title>
<g id="a_edge13_Node000008_Node000011"><a xlink:title=" ">
<path fill="none" stroke="#63b8ff" d="M577.44,-243.05C598.2,-233.43 631.24,-218.12 655.2,-207.01"/>
<polygon fill="#63b8ff" stroke="#63b8ff" points="656.52,-210.25 664.12,-202.87 653.58,-203.9 656.52,-210.25"/>
</a>
</g>
</g>
<!-- Node8&#45;&gt;Node12 -->
<g id="edge14_Node000008_Node000012" class="edge">
<title>Node8&#45;&gt;Node12</title>
<g id="a_edge14_Node000008_Node000012"><a xlink:title=" ">
<path fill="none" stroke="#63b8ff" d="M520.39,-247.52C471.72,-240.85 390.34,-227.1 367.88,-207.5 350.22,-192.1 342.57,-165.48 339.29,-147.04"/>
<polygon fill="#63b8ff" stroke="#63b8ff" points="342.78,-146.7 337.86,-137.31 335.85,-147.71 342.78,-146.7"/>
</a>
</g>
</g>
<!-- Node13 -->
<g id="Node000013" class="node">
<title>Node13</title>
<g id="a_Node000013"><a xlink:title=" ">
<polygon fill="#e0e0e0" stroke="#999999" points="777.5,-201.88 726.25,-201.88 726.25,-182.62 777.5,-182.62 777.5,-201.88"/>
<text text-anchor="middle" x="751.88" y="-188.38" font-family="Helvetica,sans-Serif" font-size="10.00">sstream</text>
</a>
</g>
</g>
<!-- Node8&#45;&gt;Node13 -->
<g id="edge17_Node000008_Node000013" class="edge">
<title>Node8&#45;&gt;Node13</title>
<g id="a_edge17_Node000008_Node000013"><a xlink:title=" ">
<path fill="none" stroke="#63b8ff" d="M595.46,-243.06C628.15,-234.84 676.61,-221.84 717.88,-207.5 718.85,-207.16 719.84,-206.81 720.84,-206.44"/>
<polygon fill="#63b8ff" stroke="#63b8ff" points="722.09,-209.71 730.13,-202.81 719.54,-203.19 722.09,-209.71"/>
</a>
</g>
</g>
<!-- Node14 -->
<g id="Node000014" class="node">
<title>Node14</title>
<g id="a_Node000014"><a xlink:title=" ">
<polygon fill="#e0e0e0" stroke="#999999" points="846.12,-201.88 795.62,-201.88 795.62,-182.62 846.12,-182.62 846.12,-201.88"/>
<text text-anchor="middle" x="820.88" y="-188.38" font-family="Helvetica,sans-Serif" font-size="10.00">memory</text>
</a>
</g>
</g>
<!-- Node8&#45;&gt;Node14 -->
<g id="edge18_Node000008_Node000014" class="edge">
<title>Node8&#45;&gt;Node14</title>
<g id="a_edge18_Node000008_Node000014"><a xlink:title=" ">
<path fill="none" stroke="#63b8ff" d="M595.33,-247.23C641.15,-240.69 720.79,-227.56 786.88,-207.5 788.22,-207.09 789.58,-206.65 790.95,-206.18"/>
<polygon fill="#63b8ff" stroke="#63b8ff" points="791.83,-209.59 799.93,-202.77 789.34,-203.05 791.83,-209.59"/>
</a>
</g>
</g>
<!-- Node15 -->
<g id="Node000015" class="node">
<title>Node15</title>
<g id="a_Node000015"><a xlink:title=" ">
<polygon fill="#e0e0e0" stroke="#999999" points="455.5,-135.38 410.25,-135.38 410.25,-116.12 455.5,-116.12 455.5,-135.38"/>
<text text-anchor="middle" x="432.88" y="-121.88" font-family="Helvetica,sans-Serif" font-size="10.00">chrono</text>
</a>
</g>
</g>
<!-- Node8&#45;&gt;Node15 -->
<g id="edge19_Node000008_Node000015" class="edge">
<title>Node8&#45;&gt;Node15</title>
<g id="a_edge19_Node000008_Node000015"><a xlink:title=" ">
<path fill="none" stroke="#63b8ff" d="M595.61,-252.29C667.93,-251.71 821.83,-245.88 854.88,-207.5 863.72,-197.23 864.01,-187.02 854.88,-177 796.23,-112.69 549.08,-163 464.88,-141 463.52,-140.65 462.15,-140.24 460.77,-139.79"/>
<polygon fill="#63b8ff" stroke="#63b8ff" points="462.44,-136.69 451.85,-136.35 459.92,-143.22 462.44,-136.69"/>
</a>
</g>
</g>
<!-- Node16 -->
<g id="Node000016" class="node">
<title>Node16</title>
<g id="a_Node000016"><a xlink:title=" ">
<polygon fill="#e0e0e0" stroke="#999999" points="930.27,-201.88 901.48,-201.88 901.48,-182.62 930.27,-182.62 930.27,-201.88"/>
<text text-anchor="middle" x="915.88" y="-188.38" font-family="Helvetica,sans-Serif" font-size="10.00">list</text>
</a>
</g>
</g>
<!-- Node8&#45;&gt;Node16 -->
<g id="edge20_Node000008_Node000016" class="edge">
<title>Node8&#45;&gt;Node16</title>
<g id="a_edge20_Node000008_Node000016"><a xlink:title=" ">
<path fill="none" stroke="#63b8ff" d="M595.38,-251.13C657.54,-248.58 785.23,-239.54 887.88,-207.5 888.85,-207.19 889.84,-206.86 890.83,-206.49"/>
<polygon fill="#63b8ff" stroke="#63b8ff" points="892.05,-209.78 899.77,-202.52 889.21,-203.38 892.05,-209.78"/>
</a>
</g>
</g>
<!-- Node17 -->
<g id="Node000017" class="node">
<title>Node17</title>
<g id="a_Node000017"><a xlink:href="IssueFactory_8hpp.html" target="_top" xlink:title=" ">
<polygon fill="white" stroke="#666666" points="278.25,-201.88 171.5,-201.88 171.5,-182.62 278.25,-182.62 278.25,-201.88"/>
<text text-anchor="middle" x="224.88" y="-188.38" font-family="Helvetica,sans-Serif" font-size="10.00">ers/IssueFactory.hpp</text>
</a>
</g>
</g>
<!-- Node8&#45;&gt;Node17 -->
<g id="edge21_Node000008_Node000017" class="edge">
<title>Node8&#45;&gt;Node17</title>
<g id="a_edge21_Node000008_Node000017"><a xlink:title=" ">
<path fill="none" stroke="#63b8ff" d="M520.32,-245.49C463.77,-235.49 356.07,-216.45 287.51,-204.32"/>
<polygon fill="#63b8ff" stroke="#63b8ff" points="288.38,-200.92 277.92,-202.63 287.16,-207.82 288.38,-200.92"/>
</a>
</g>
</g>
<!-- Node18 -->
<g id="Node000018" class="node">
<title>Node18</title>
<g id="a_Node000018"><a xlink:href="LocalContext_8hpp.html" target="_top" xlink:title=" ">
<polygon fill="white" stroke="#666666" points="517.62,-201.88 410.12,-201.88 410.12,-182.62 517.62,-182.62 517.62,-201.88"/>
<text text-anchor="middle" x="463.88" y="-188.38" font-family="Helvetica,sans-Serif" font-size="10.00">ers/LocalContext.hpp</text>
</a>
</g>
</g>
<!-- Node8&#45;&gt;Node18 -->
<g id="edge27_Node000008_Node000018" class="edge">
<title>Node8&#45;&gt;Node18</title>
<g id="a_edge27_Node000008_Node000018"><a xlink:title=" ">
<path fill="none" stroke="#63b8ff" d="M543.6,-243.18C528.83,-233.93 505.5,-219.32 487.89,-208.29"/>
<polygon fill="#63b8ff" stroke="#63b8ff" points="489.9,-205.42 479.57,-203.08 486.19,-211.35 489.9,-205.42"/>
</a>
</g>
</g>
<!-- Node21 -->
<g id="Node000021" class="node">
<title>Node21</title>
<g id="a_Node000021"><a xlink:href="IssueDeclarationMacro_8hpp.html" target="_top" xlink:title=" ">
<polygon fill="white" stroke="#666666" points="1087.75,-207.5 948,-207.5 948,-177 1087.75,-177 1087.75,-207.5"/>
<text text-anchor="start" x="956" y="-194" font-family="Helvetica,sans-Serif" font-size="10.00">ers/internal/IssueDeclaration</text>
<text text-anchor="middle" x="1017.88" y="-182.75" font-family="Helvetica,sans-Serif" font-size="10.00">Macro.hpp</text>
</a>
</g>
</g>
<!-- Node8&#45;&gt;Node21 -->
<g id="edge32_Node000008_Node000021" class="edge">
<title>Node8&#45;&gt;Node21</title>
<g id="a_edge32_Node000008_Node000021"><a xlink:title=" ">
<path fill="none" stroke="#63b8ff" d="M595.56,-248.49C662.2,-241.9 805.43,-226.97 936.66,-207.77"/>
<polygon fill="#63b8ff" stroke="#63b8ff" points="936.82,-211.28 946.2,-206.36 935.8,-204.36 936.82,-211.28"/>
</a>
</g>
</g>
<!-- Node17&#45;&gt;Node2 -->
<g id="edge26_Node000017_Node000002" class="edge">
<title>Node17&#45;&gt;Node2</title>
<g id="a_edge26_Node000017_Node000002"><a xlink:title=" ">
<path fill="none" stroke="#63b8ff" d="M199.18,-182.15C167.75,-171.01 114.34,-152.08 78.83,-139.49"/>
<polygon fill="#63b8ff" stroke="#63b8ff" points="80.46,-136.36 69.86,-136.31 78.12,-142.95 80.46,-136.36"/>
</a>
</g>
</g>
<!-- Node17&#45;&gt;Node3 -->
<g id="edge23_Node000017_Node000003" class="edge">
<title>Node17&#45;&gt;Node3</title>
<g id="a_edge23_Node000017_Node000003"><a xlink:title=" ">
<path fill="none" stroke="#63b8ff" d="M213.78,-182.32C202.31,-172.78 184.23,-156.87 170.88,-141 155.72,-123 141.38,-100.07 132.18,-84.3"/>
<polygon fill="#63b8ff" stroke="#63b8ff" points="135.43,-82.94 127.43,-76 129.35,-86.42 135.43,-82.94"/>
</a>
</g>
</g>
<!-- Node17&#45;&gt;Node4 -->
<g id="edge24_Node000017_Node000004" class="edge">
<title>Node17&#45;&gt;Node4</title>
<g id="a_edge24_Node000017_Node000004"><a xlink:title=" ">
<path fill="none" stroke="#63b8ff" d="M237.02,-182.36C255.69,-167.57 287.79,-136.91 272.88,-110.5 263.88,-94.58 246.68,-83.7 231.12,-76.68"/>
<polygon fill="#63b8ff" stroke="#63b8ff" points="232.72,-73.55 222.14,-72.99 230.06,-80.02 232.72,-73.55"/>
</a>
</g>
</g>
<!-- Node17&#45;&gt;Node12 -->
<g id="edge25_Node000017_Node000012" class="edge">
<title>Node17&#45;&gt;Node12</title>
<g id="a_edge25_Node000017_Node000012"><a xlink:title=" ">
<path fill="none" stroke="#63b8ff" d="M240.45,-182.28C258.73,-171.75 289.33,-154.13 311.16,-141.56"/>
<polygon fill="#63b8ff" stroke="#63b8ff" points="312.84,-144.63 319.76,-136.61 309.35,-138.56 312.84,-144.63"/>
</a>
</g>
</g>
<!-- Node17&#45;&gt;Node15 -->
<g id="edge22_Node000017_Node000015" class="edge">
<title>Node17&#45;&gt;Node15</title>
<g id="a_edge22_Node000017_Node000015"><a xlink:title=" ">
<path fill="none" stroke="#63b8ff" d="M254.24,-182.15C292.33,-170.33 358.68,-149.76 398.91,-137.28"/>
<polygon fill="#63b8ff" stroke="#63b8ff" points="399.8,-140.67 408.31,-134.37 397.73,-133.98 399.8,-140.67"/>
</a>
</g>
</g>
<!-- Node18&#45;&gt;Node6 -->
<g id="edge30_Node000018_Node000006" class="edge">
<title>Node18&#45;&gt;Node6</title>
<g id="a_edge30_Node000018_Node000006"><a xlink:title=" ">
<path fill="none" stroke="#63b8ff" d="M429.72,-182.15C387.11,-170.79 314.13,-151.34 266.97,-138.77"/>
<polygon fill="#63b8ff" stroke="#63b8ff" points="267.89,-135.39 257.32,-136.2 266.08,-142.16 267.89,-135.39"/>
</a>
</g>
</g>
<!-- Node19 -->
<g id="Node000019" class="node">
<title>Node19</title>
<g id="a_Node000019"><a xlink:title=" ">
<polygon fill="#e0e0e0" stroke="#999999" points="538.25,-135.38 473.5,-135.38 473.5,-116.12 538.25,-116.12 538.25,-135.38"/>
<text text-anchor="middle" x="505.88" y="-121.88" font-family="Helvetica,sans-Serif" font-size="10.00">sys/types.h</text>
</a>
</g>
</g>
<!-- Node18&#45;&gt;Node19 -->
<g id="edge28_Node000018_Node000019" class="edge">
<title>Node18&#45;&gt;Node19</title>
<g id="a_edge28_Node000018_Node000019"><a xlink:title=" ">
<path fill="none" stroke="#63b8ff" d="M469.71,-182.28C475.92,-172.75 485.91,-157.41 493.82,-145.27"/>
<polygon fill="#63b8ff" stroke="#63b8ff" points="496.74,-147.2 499.26,-136.91 490.87,-143.38 496.74,-147.2"/>
</a>
</g>
</g>
<!-- Node20 -->
<g id="Node000020" class="node">
<title>Node20</title>
<g id="a_Node000020"><a xlink:title=" ">
<polygon fill="#e0e0e0" stroke="#999999" points="605.75,-135.38 556,-135.38 556,-116.12 605.75,-116.12 605.75,-135.38"/>
<text text-anchor="middle" x="580.88" y="-121.88" font-family="Helvetica,sans-Serif" font-size="10.00">unistd.h</text>
</a>
</g>
</g>
<!-- Node18&#45;&gt;Node20 -->
<g id="edge29_Node000018_Node000020" class="edge">
<title>Node18&#45;&gt;Node20</title>
<g id="a_edge29_Node000018_Node000020"><a xlink:title=" ">
<path fill="none" stroke="#63b8ff" d="M480.39,-182.15C499.64,-171.53 531.71,-153.85 554.44,-141.32"/>
<polygon fill="#63b8ff" stroke="#63b8ff" points="556.05,-144.43 563.12,-136.54 552.67,-138.3 556.05,-144.43"/>
</a>
</g>
</g>
<!-- Node22 -->
<g id="Node000022" class="node">
<title>Node22</title>
<g id="a_Node000022"><a xlink:title=" ">
<polygon fill="#e0e0e0" stroke="#999999" points="778.5,-141 679.25,-141 679.25,-110.5 778.5,-110.5 778.5,-141"/>
<text text-anchor="start" x="687.25" y="-127.5" font-family="Helvetica,sans-Serif" font-size="10.00">boost/preprocessor</text>
<text text-anchor="middle" x="728.88" y="-116.25" font-family="Helvetica,sans-Serif" font-size="10.00">/if.hpp</text>
</a>
</g>
</g>
<!-- Node21&#45;&gt;Node22 -->
<g id="edge33_Node000021_Node000022" class="edge">
<title>Node21&#45;&gt;Node22</title>
<g id="a_edge33_Node000021_Node000022"><a xlink:title=" ">
<path fill="none" stroke="#63b8ff" d="M947.76,-176.51C904.6,-167.31 847.87,-155.02 789.71,-141.63"/>
<polygon fill="#63b8ff" stroke="#63b8ff" points="790.85,-138.3 780.32,-139.46 789.27,-145.12 790.85,-138.3"/>
</a>
</g>
</g>
<!-- Node23 -->
<g id="Node000023" class="node">
<title>Node23</title>
<g id="a_Node000023"><a xlink:title=" ">
<polygon fill="#e0e0e0" stroke="#999999" points="895.5,-141 796.25,-141 796.25,-110.5 895.5,-110.5 895.5,-141"/>
<text text-anchor="start" x="804.25" y="-127.5" font-family="Helvetica,sans-Serif" font-size="10.00">boost/preprocessor</text>
<text text-anchor="middle" x="845.88" y="-116.25" font-family="Helvetica,sans-Serif" font-size="10.00">/seq.hpp</text>
</a>
</g>
</g>
<!-- Node21&#45;&gt;Node23 -->
<g id="edge34_Node000021_Node000023" class="edge">
<title>Node21&#45;&gt;Node23</title>
<g id="a_edge34_Node000021_Node000023"><a xlink:title=" ">
<path fill="none" stroke="#63b8ff" d="M978.85,-176.61C954.19,-167.37 922.11,-155.34 895.64,-145.41"/>
<polygon fill="#63b8ff" stroke="#63b8ff" points="897.06,-142.21 886.46,-141.97 894.6,-148.76 897.06,-142.21"/>
</a>
</g>
</g>
<!-- Node24 -->
<g id="Node000024" class="node">
<title>Node24</title>
<g id="a_Node000024"><a xlink:title=" ">
<polygon fill="#e0e0e0" stroke="#999999" points="1012.5,-141 913.25,-141 913.25,-110.5 1012.5,-110.5 1012.5,-141"/>
<text text-anchor="start" x="921.25" y="-127.5" font-family="Helvetica,sans-Serif" font-size="10.00">boost/preprocessor</text>
<text text-anchor="middle" x="962.88" y="-116.25" font-family="Helvetica,sans-Serif" font-size="10.00">/tuple.hpp</text>
</a>
</g>
</g>
<!-- Node21&#45;&gt;Node24 -->
<g id="edge35_Node000021_Node000024" class="edge">
<title>Node21&#45;&gt;Node24</title>
<g id="a_edge35_Node000021_Node000024"><a xlink:title=" ">
<path fill="none" stroke="#63b8ff" d="M1005.39,-176.61C998.71,-168.78 990.33,-158.94 982.77,-150.08"/>
<polygon fill="#63b8ff" stroke="#63b8ff" points="985.44,-147.82 976.29,-142.48 980.11,-152.36 985.44,-147.82"/>
</a>
</g>
</g>
<!-- Node25 -->
<g id="Node000025" class="node">
<title>Node25</title>
<g id="a_Node000025"><a xlink:title=" ">
<polygon fill="#e0e0e0" stroke="#999999" points="1129.5,-141 1030.25,-141 1030.25,-110.5 1129.5,-110.5 1129.5,-141"/>
<text text-anchor="start" x="1038.25" y="-127.5" font-family="Helvetica,sans-Serif" font-size="10.00">boost/preprocessor</text>
<text text-anchor="middle" x="1079.88" y="-116.25" font-family="Helvetica,sans-Serif" font-size="10.00">/logical.hpp</text>
</a>
</g>
</g>
<!-- Node21&#45;&gt;Node25 -->
<g id="edge36_Node000021_Node000025" class="edge">
<title>Node21&#45;&gt;Node25</title>
<g id="a_edge36_Node000021_Node000025"><a xlink:title=" ">
<path fill="none" stroke="#63b8ff" d="M1031.94,-176.61C1039.63,-168.61 1049.33,-158.53 1057.98,-149.53"/>
<polygon fill="#63b8ff" stroke="#63b8ff" points="1060.41,-152.05 1064.81,-142.42 1055.36,-147.2 1060.41,-152.05"/>
</a>
</g>
</g>
<!-- Node26 -->
<g id="Node000026" class="node">
<title>Node26</title>
<g id="a_Node000026"><a xlink:title=" ">
<polygon fill="#e0e0e0" stroke="#999999" points="1246.5,-141 1147.25,-141 1147.25,-110.5 1246.5,-110.5 1246.5,-141"/>
<text text-anchor="start" x="1155.25" y="-127.5" font-family="Helvetica,sans-Serif" font-size="10.00">boost/preprocessor</text>
<text text-anchor="middle" x="1196.88" y="-116.25" font-family="Helvetica,sans-Serif" font-size="10.00">/stringize.hpp</text>
</a>
</g>
</g>
<!-- Node21&#45;&gt;Node26 -->
<g id="edge37_Node000021_Node000026" class="edge">
<title>Node21&#45;&gt;Node26</title>
<g id="a_edge37_Node000021_Node000026"><a xlink:title=" ">
<path fill="none" stroke="#63b8ff" d="M1058.49,-176.61C1084.26,-167.33 1117.83,-155.23 1145.46,-145.28"/>
<polygon fill="#63b8ff" stroke="#63b8ff" points="1146.46,-148.64 1154.68,-141.95 1144.09,-142.05 1146.46,-148.64"/>
</a>
</g>
</g>
<!-- Node27 -->
<g id="Node000027" class="node">
<title>Node27</title>
<g id="a_Node000027"><a xlink:title=" ">
<polygon fill="#e0e0e0" stroke="#999999" points="1363.5,-141 1264.25,-141 1264.25,-110.5 1363.5,-110.5 1363.5,-141"/>
<text text-anchor="start" x="1272.25" y="-127.5" font-family="Helvetica,sans-Serif" font-size="10.00">boost/preprocessor</text>
<text text-anchor="middle" x="1313.88" y="-116.25" font-family="Helvetica,sans-Serif" font-size="10.00">/comparison.hpp</text>
</a>
</g>
</g>
<!-- Node21&#45;&gt;Node27 -->
<g id="edge38_Node000021_Node000027" class="edge">
<title>Node21&#45;&gt;Node27</title>
<g id="a_edge38_Node000021_Node000027"><a xlink:title=" ">
<path fill="none" stroke="#63b8ff" d="M1088.04,-177.07C1132.82,-167.87 1192.37,-155.37 1252.99,-141.62"/>
<polygon fill="#63b8ff" stroke="#63b8ff" points="1253.46,-145.11 1262.44,-139.47 1251.91,-138.28 1253.46,-145.11"/>
</a>
</g>
</g>
</g>
</svg>
