<?xml version="1.0" encoding="UTF-8" standalone="no"?>
<!DOCTYPE svg PUBLIC "-//W3C//DTD SVG 1.1//EN"
 "http://www.w3.org/Graphics/SVG/1.1/DTD/svg11.dtd">
<!-- Generated by graphviz version 9.0.0 (20230911.1827)
 -->
<!-- Title: wib::PowerWIBDefaultTypeInternal Pages: 1 -->
<svg width="266pt" height="172pt"
 viewBox="0.00 0.00 265.50 171.50" xmlns="http://www.w3.org/2000/svg" xmlns:xlink="http://www.w3.org/1999/xlink">
<g id="graph0" class="graph" transform="scale(1 1) rotate(0) translate(4 167.5)">
<title>wib::PowerWIBDefaultTypeInternal</title>
<!-- Node1 -->
<g id="Node000001" class="node">
<title>Node1</title>
<g id="a_Node000001"><a xlink:title=" ">
<polygon fill="#999999" stroke="#666666" points="200.12,-30.5 66.38,-30.5 66.38,0 200.12,0 200.12,-30.5"/>
<text text-anchor="start" x="74.38" y="-17" font-family="Helvetica,sans-Serif" font-size="10.00">wib::PowerWIBDefaultType</text>
<text text-anchor="middle" x="133.25" y="-5.75" font-family="Helvetica,sans-Serif" font-size="10.00">Internal</text>
</a>
</g>
</g>
<!-- Node2 -->
<g id="Node000002" class="node">
<title>Node2</title>
<g id="a_Node000002"><a xlink:href="classwib_1_1PowerWIB.html" target="_top" xlink:title=" ">
<polygon fill="white" stroke="#666666" points="174.25,-97 92.25,-97 92.25,-77.75 174.25,-77.75 174.25,-97"/>
<text text-anchor="middle" x="133.25" y="-83.5" font-family="Helvetica,sans-Serif" font-size="10.00">wib::PowerWIB</text>
</a>
</g>
</g>
<!-- Node2&#45;&gt;Node1 -->
<g id="edge1_Node000001_Node000002" class="edge">
<title>Node2&#45;&gt;Node1</title>
<g id="a_edge1_Node000001_Node000002"><a xlink:title=" ">
<path fill="none" stroke="#9a32cd" stroke-dasharray="5,2" d="M133.25,-66.17C133.25,-54.91 133.25,-41.14 133.25,-30.92"/>
<polygon fill="#9a32cd" stroke="#9a32cd" points="129.75,-65.98 133.25,-75.98 136.75,-65.98 129.75,-65.98"/>
</a>
</g>
<text text-anchor="middle" x="155.38" y="-50.25" font-family="Helvetica,sans-Serif" font-size="10.00" fill="grey"> _instance</text>
</g>
<!-- Node3 -->
<g id="Node000003" class="node">
<title>Node3</title>
<g id="a_Node000003"><a xlink:title=" ">
<polygon fill="white" stroke="#666666" points="128.5,-163.5 0,-163.5 0,-144.25 128.5,-144.25 128.5,-163.5"/>
<text text-anchor="middle" x="64.25" y="-150" font-family="Helvetica,sans-Serif" font-size="10.00">google::protobuf::Message</text>
</a>
</g>
</g>
<!-- Node3&#45;&gt;Node2 -->
<g id="edge2_Node000002_Node000003" class="edge">
<title>Node3&#45;&gt;Node2</title>
<g id="a_edge2_Node000002_Node000003"><a xlink:title=" ">
<path fill="none" stroke="#63b8ff" d="M82.22,-136.08C95.5,-123.66 113.06,-107.25 123.74,-97.27"/>
<polygon fill="#63b8ff" stroke="#63b8ff" points="79.87,-133.49 74.95,-142.87 84.65,-138.6 79.87,-133.49"/>
</a>
</g>
</g>
<!-- Node4 -->
<g id="Node000004" class="node">
<title>Node4</title>
<g id="a_Node000004"><a xlink:href="structwib_1_1PowerWIB_1_1Impl__.html" target="_top" xlink:title=" ">
<polygon fill="white" stroke="#666666" points="257.5,-163.5 147,-163.5 147,-144.25 257.5,-144.25 257.5,-163.5"/>
<text text-anchor="middle" x="202.25" y="-150" font-family="Helvetica,sans-Serif" font-size="10.00">wib::PowerWIB::Impl_</text>
</a>
</g>
</g>
<!-- Node4&#45;&gt;Node2 -->
<g id="edge3_Node000002_Node000004" class="edge">
<title>Node4&#45;&gt;Node2</title>
<g id="a_edge3_Node000002_Node000004"><a xlink:title=" ">
<path fill="none" stroke="#9a32cd" stroke-dasharray="5,2" d="M184.28,-136.08C171,-123.66 153.44,-107.25 142.76,-97.27"/>
<polygon fill="#9a32cd" stroke="#9a32cd" points="181.85,-138.6 191.55,-142.87 186.63,-133.49 181.85,-138.6"/>
</a>
</g>
<text text-anchor="middle" x="186.62" y="-116.75" font-family="Helvetica,sans-Serif" font-size="10.00" fill="grey"> _impl_</text>
</g>
</g>
</svg>
