<?xml version="1.0" encoding="UTF-8" standalone="no"?>
<!DOCTYPE svg PUBLIC "-//W3C//DTD SVG 1.1//EN"
 "http://www.w3.org/Graphics/SVG/1.1/DTD/svg11.dtd">
<!-- Generated by graphviz version 9.0.0 (20230911.1827)
 -->
<!-- Title: dunedaq::trigger::TAWrapper Pages: 1 -->
<svg width="146pt" height="161pt"
 viewBox="0.00 0.00 145.50 161.25" xmlns="http://www.w3.org/2000/svg" xmlns:xlink="http://www.w3.org/1999/xlink">
<g id="graph0" class="graph" transform="scale(1 1) rotate(0) translate(4 157.25)">
<title>dunedaq::trigger::TAWrapper</title>
<!-- Node1 -->
<g id="Node000001" class="node">
<title>Node1</title>
<g id="a_Node000001"><a xlink:title=" ">
<polygon fill="#999999" stroke="#666666" points="137.5,-19.25 0,-19.25 0,0 137.5,0 137.5,-19.25"/>
<text text-anchor="middle" x="68.75" y="-5.75" font-family="Helvetica,sans-Serif" font-size="10.00">dunedaq::trigger::TAWrapper</text>
</a>
</g>
</g>
<!-- Node2 -->
<g id="Node000002" class="node">
<title>Node2</title>
<g id="a_Node000002"><a xlink:href="structtriggeralgs_1_1TriggerActivity.html" target="_top" xlink:title=" ">
<polygon fill="white" stroke="#666666" points="132.62,-85.75 4.88,-85.75 4.88,-66.5 132.62,-66.5 132.62,-85.75"/>
<text text-anchor="middle" x="68.75" y="-72.25" font-family="Helvetica,sans-Serif" font-size="10.00">triggeralgs::TriggerActivity</text>
</a>
</g>
</g>
<!-- Node2&#45;&gt;Node1 -->
<g id="edge1_Node000001_Node000002" class="edge">
<title>Node2&#45;&gt;Node1</title>
<g id="a_edge1_Node000001_Node000002"><a xlink:title=" ">
<path fill="none" stroke="#9a32cd" stroke-dasharray="5,2" d="M68.75,-54.65C68.75,-42.82 68.75,-28.54 68.75,-19.52"/>
<polygon fill="#9a32cd" stroke="#9a32cd" points="65.25,-54.64 68.75,-64.64 72.25,-54.64 65.25,-54.64"/>
</a>
</g>
<text text-anchor="middle" x="85.25" y="-39" font-family="Helvetica,sans-Serif" font-size="10.00" fill="grey"> activity</text>
</g>
<!-- Node3 -->
<g id="Node000003" class="node">
<title>Node3</title>
<g id="a_Node000003"><a xlink:href="structdunedaq_1_1trgdataformats_1_1TriggerActivityData.html" target="_top" xlink:title=" ">
<polygon fill="white" stroke="#666666" points="128.88,-153.25 8.62,-153.25 8.62,-122.75 128.88,-122.75 128.88,-153.25"/>
<text text-anchor="start" x="16.62" y="-139.75" font-family="Helvetica,sans-Serif" font-size="10.00">dunedaq::trgdataformats</text>
<text text-anchor="middle" x="68.75" y="-128.5" font-family="Helvetica,sans-Serif" font-size="10.00">::TriggerActivityData</text>
</a>
</g>
</g>
<!-- Node3&#45;&gt;Node2 -->
<g id="edge2_Node000002_Node000003" class="edge">
<title>Node3&#45;&gt;Node2</title>
<g id="a_edge2_Node000002_Node000003"><a xlink:title=" ">
<path fill="none" stroke="#63b8ff" d="M68.75,-111.27C68.75,-102.29 68.75,-92.79 68.75,-86.1"/>
<polygon fill="#63b8ff" stroke="#63b8ff" points="65.25,-110.99 68.75,-120.99 72.25,-110.99 65.25,-110.99"/>
</a>
</g>
</g>
</g>
</svg>
