<?xml version="1.0" encoding="UTF-8" standalone="no"?>
<!DOCTYPE svg PUBLIC "-//W3C//DTD SVG 1.1//EN"
 "http://www.w3.org/Graphics/SVG/1.1/DTD/svg11.dtd">
<!-- Generated by graphviz version 9.0.0 (20230911.1827)
 -->
<!-- Title: dunedaq::timing::timingfirmwareinfo::TimingDeviceInfo Pages: 1 -->
<svg width="441pt" height="186pt"
 viewBox="0.00 0.00 440.50 185.50" xmlns="http://www.w3.org/2000/svg" xmlns:xlink="http://www.w3.org/1999/xlink">
<g id="graph0" class="graph" transform="scale(1 1) rotate(0) translate(4 181.5)">
<title>dunedaq::timing::timingfirmwareinfo::TimingDeviceInfo</title>
<!-- Node1 -->
<g id="Node000001" class="node">
<title>Node1</title>
<g id="a_Node000001"><a xlink:title=" ">
<polygon fill="#999999" stroke="#666666" points="432.5,-103.5 265.75,-103.5 265.75,-73 432.5,-73 432.5,-103.5"/>
<text text-anchor="start" x="273.75" y="-90" font-family="Helvetica,sans-Serif" font-size="10.00">dunedaq::timing::timingfirmwareinfo</text>
<text text-anchor="middle" x="349.12" y="-78.75" font-family="Helvetica,sans-Serif" font-size="10.00">::TimingDeviceInfo</text>
</a>
</g>
</g>
<!-- Node2 -->
<g id="Node000002" class="node">
<title>Node2</title>
<g id="a_Node000002"><a xlink:href="structdunedaq_1_1timing_1_1timinghardwareinfo_1_1TimingPLLMonitorData.html" target="_top" xlink:title=" ">
<polygon fill="white" stroke="#666666" points="169.75,-177.5 0,-177.5 0,-147 169.75,-147 169.75,-177.5"/>
<text text-anchor="start" x="8" y="-164" font-family="Helvetica,sans-Serif" font-size="10.00">dunedaq::timing::timinghardwareinfo</text>
<text text-anchor="middle" x="84.88" y="-152.75" font-family="Helvetica,sans-Serif" font-size="10.00">::TimingPLLMonitorData</text>
</a>
</g>
</g>
<!-- Node2&#45;&gt;Node1 -->
<g id="edge1_Node000001_Node000002" class="edge">
<title>Node2&#45;&gt;Node1</title>
<g id="a_edge1_Node000001_Node000002"><a xlink:title=" ">
<path fill="none" stroke="#9a32cd" stroke-dasharray="5,2" d="M153.69,-143.56C182.68,-135.53 216.89,-126 247.75,-117.25 262.85,-112.97 279.2,-108.27 294.24,-103.93"/>
<polygon fill="#9a32cd" stroke="#9a32cd" points="153.01,-140.12 144.31,-146.16 154.88,-146.86 153.01,-140.12"/>
</a>
</g>
<text text-anchor="middle" x="217.75" y="-135" font-family="Helvetica,sans-Serif" font-size="10.00" fill="grey"> pll_info</text>
</g>
<!-- Node3 -->
<g id="Node000003" class="node">
<title>Node3</title>
<g id="a_Node000003"><a xlink:href="structdunedaq_1_1timing_1_1timingfirmwareinfo_1_1MasterMonitorData.html" target="_top" xlink:title=" ">
<polygon fill="white" stroke="#666666" points="168.25,-128.5 1.5,-128.5 1.5,-98 168.25,-98 168.25,-128.5"/>
<text text-anchor="start" x="9.5" y="-115" font-family="Helvetica,sans-Serif" font-size="10.00">dunedaq::timing::timingfirmwareinfo</text>
<text text-anchor="middle" x="84.88" y="-103.75" font-family="Helvetica,sans-Serif" font-size="10.00">::MasterMonitorData</text>
</a>
</g>
</g>
<!-- Node3&#45;&gt;Node1 -->
<g id="edge2_Node000001_Node000003" class="edge">
<title>Node3&#45;&gt;Node1</title>
<g id="a_edge2_Node000001_Node000003"><a xlink:title=" ">
<path fill="none" stroke="#9a32cd" stroke-dasharray="5,2" d="M179.9,-104.29C207.87,-101.62 238.29,-98.72 265.47,-96.13"/>
<polygon fill="#9a32cd" stroke="#9a32cd" points="179.62,-100.8 170,-105.23 180.29,-107.77 179.62,-100.8"/>
</a>
</g>
<text text-anchor="middle" x="217.75" y="-104" font-family="Helvetica,sans-Serif" font-size="10.00" fill="grey"> master_info</text>
</g>
<!-- Node4 -->
<g id="Node000004" class="node">
<title>Node4</title>
<g id="a_Node000004"><a xlink:href="structdunedaq_1_1timing_1_1timingendpointinfo_1_1TimingEndpointInfo.html" target="_top" xlink:title=" ">
<polygon fill="white" stroke="#666666" points="168.25,-79.5 1.5,-79.5 1.5,-49 168.25,-49 168.25,-79.5"/>
<text text-anchor="start" x="9.5" y="-66" font-family="Helvetica,sans-Serif" font-size="10.00">dunedaq::timing::timingendpointinfo</text>
<text text-anchor="middle" x="84.88" y="-54.75" font-family="Helvetica,sans-Serif" font-size="10.00">::TimingEndpointInfo</text>
</a>
</g>
</g>
<!-- Node4&#45;&gt;Node1 -->
<g id="edge3_Node000001_Node000004" class="edge">
<title>Node4&#45;&gt;Node1</title>
<g id="a_edge3_Node000001_Node000004"><a xlink:title=" ">
<path fill="none" stroke="#9a32cd" stroke-dasharray="5,2" d="M179.9,-72.85C207.87,-75.41 238.29,-78.2 265.47,-80.69"/>
<polygon fill="#9a32cd" stroke="#9a32cd" points="180.28,-69.37 170,-71.95 179.64,-76.35 180.28,-69.37"/>
</a>
</g>
<text text-anchor="middle" x="217.75" y="-80" font-family="Helvetica,sans-Serif" font-size="10.00" fill="grey"> endpoint_info</text>
</g>
<!-- Node5 -->
<g id="Node000005" class="node">
<title>Node5</title>
<g id="a_Node000005"><a xlink:href="structdunedaq_1_1timing_1_1timingfirmwareinfo_1_1HSIFirmwareMonitorData.html" target="_top" xlink:title=" ">
<polygon fill="white" stroke="#666666" points="168.25,-30.5 1.5,-30.5 1.5,0 168.25,0 168.25,-30.5"/>
<text text-anchor="start" x="9.5" y="-17" font-family="Helvetica,sans-Serif" font-size="10.00">dunedaq::timing::timingfirmwareinfo</text>
<text text-anchor="middle" x="84.88" y="-5.75" font-family="Helvetica,sans-Serif" font-size="10.00">::HSIFirmwareMonitorData</text>
</a>
</g>
</g>
<!-- Node5&#45;&gt;Node1 -->
<g id="edge4_Node000001_Node000005" class="edge">
<title>Node5&#45;&gt;Node1</title>
<g id="a_edge4_Node000001_Node000005"><a xlink:title=" ">
<path fill="none" stroke="#9a32cd" stroke-dasharray="5,2" d="M158.4,-33.83C186.38,-41.15 218.61,-49.76 247.75,-58 263.86,-62.55 281.36,-67.74 297.16,-72.52"/>
<polygon fill="#9a32cd" stroke="#9a32cd" points="159.53,-30.51 148.97,-31.37 157.76,-37.28 159.53,-30.51"/>
</a>
</g>
<text text-anchor="middle" x="217.75" y="-59" font-family="Helvetica,sans-Serif" font-size="10.00" fill="grey"> hsi_info</text>
</g>
</g>
</svg>
