<?xml version="1.0" encoding="UTF-8" standalone="no"?>
<!DOCTYPE svg PUBLIC "-//W3C//DTD SVG 1.1//EN"
 "http://www.w3.org/Graphics/SVG/1.1/DTD/svg11.dtd">
<!-- Generated by graphviz version 9.0.0 (20230911.1827)
 -->
<!-- Title: wib::ScriptDefaultTypeInternal Pages: 1 -->
<svg width="244pt" height="160pt"
 viewBox="0.00 0.00 244.00 160.25" xmlns="http://www.w3.org/2000/svg" xmlns:xlink="http://www.w3.org/1999/xlink">
<g id="graph0" class="graph" transform="scale(1 1) rotate(0) translate(4 156.25)">
<title>wib::ScriptDefaultTypeInternal</title>
<!-- Node1 -->
<g id="Node000001" class="node">
<title>Node1</title>
<g id="a_Node000001"><a xlink:title=" ">
<polygon fill="#999999" stroke="#666666" points="199.75,-19.25 54.75,-19.25 54.75,0 199.75,0 199.75,-19.25"/>
<text text-anchor="middle" x="127.25" y="-5.75" font-family="Helvetica,sans-Serif" font-size="10.00">wib::ScriptDefaultTypeInternal</text>
</a>
</g>
</g>
<!-- Node2 -->
<g id="Node000002" class="node">
<title>Node2</title>
<g id="a_Node000002"><a xlink:href="classwib_1_1Script.html" target="_top" xlink:title=" ">
<polygon fill="white" stroke="#666666" points="157.75,-85.75 96.75,-85.75 96.75,-66.5 157.75,-66.5 157.75,-85.75"/>
<text text-anchor="middle" x="127.25" y="-72.25" font-family="Helvetica,sans-Serif" font-size="10.00">wib::Script</text>
</a>
</g>
</g>
<!-- Node2&#45;&gt;Node1 -->
<g id="edge1_Node000001_Node000002" class="edge">
<title>Node2&#45;&gt;Node1</title>
<g id="a_edge1_Node000001_Node000002"><a xlink:title=" ">
<path fill="none" stroke="#9a32cd" stroke-dasharray="5,2" d="M127.25,-54.65C127.25,-42.82 127.25,-28.54 127.25,-19.52"/>
<polygon fill="#9a32cd" stroke="#9a32cd" points="123.75,-54.64 127.25,-64.64 130.75,-54.64 123.75,-54.64"/>
</a>
</g>
<text text-anchor="middle" x="149.38" y="-39" font-family="Helvetica,sans-Serif" font-size="10.00" fill="grey"> _instance</text>
</g>
<!-- Node3 -->
<g id="Node000003" class="node">
<title>Node3</title>
<g id="a_Node000003"><a xlink:title=" ">
<polygon fill="white" stroke="#666666" points="128.5,-152.25 0,-152.25 0,-133 128.5,-133 128.5,-152.25"/>
<text text-anchor="middle" x="64.25" y="-138.75" font-family="Helvetica,sans-Serif" font-size="10.00">google::protobuf::Message</text>
</a>
</g>
</g>
<!-- Node3&#45;&gt;Node2 -->
<g id="edge2_Node000002_Node000003" class="edge">
<title>Node3&#45;&gt;Node2</title>
<g id="a_edge2_Node000002_Node000003"><a xlink:title=" ">
<path fill="none" stroke="#63b8ff" d="M81.01,-124.47C93.09,-112.1 108.91,-95.9 118.56,-86.02"/>
<polygon fill="#63b8ff" stroke="#63b8ff" points="78.55,-121.97 74.07,-131.57 83.56,-126.87 78.55,-121.97"/>
</a>
</g>
</g>
<!-- Node4 -->
<g id="Node000004" class="node">
<title>Node4</title>
<g id="a_Node000004"><a xlink:href="structwib_1_1Script_1_1Impl__.html" target="_top" xlink:title=" ">
<polygon fill="white" stroke="#666666" points="236,-152.25 146.5,-152.25 146.5,-133 236,-133 236,-152.25"/>
<text text-anchor="middle" x="191.25" y="-138.75" font-family="Helvetica,sans-Serif" font-size="10.00">wib::Script::Impl_</text>
</a>
</g>
</g>
<!-- Node4&#45;&gt;Node2 -->
<g id="edge3_Node000002_Node000004" class="edge">
<title>Node4&#45;&gt;Node2</title>
<g id="a_edge3_Node000002_Node000004"><a xlink:title=" ">
<path fill="none" stroke="#9a32cd" stroke-dasharray="5,2" d="M174.58,-124.83C162.27,-112.41 145.98,-96 136.07,-86.02"/>
<polygon fill="#9a32cd" stroke="#9a32cd" points="171.76,-126.95 181.29,-131.58 176.73,-122.02 171.76,-126.95"/>
</a>
</g>
<text text-anchor="middle" x="177.62" y="-105.5" font-family="Helvetica,sans-Serif" font-size="10.00" fill="grey"> _impl_</text>
</g>
</g>
</svg>
