<?xml version="1.0" encoding="UTF-8" standalone="no"?>
<!DOCTYPE svg PUBLIC "-//W3C//DTD SVG 1.1//EN"
 "http://www.w3.org/Graphics/SVG/1.1/DTD/svg11.dtd">
<!-- Generated by graphviz version 9.0.0 (20230911.1827)
 -->
<!-- Title: dbe::interface::messenger::msglevels Pages: 1 -->
<svg width="292pt" height="105pt"
 viewBox="0.00 0.00 291.62 105.00" xmlns="http://www.w3.org/2000/svg" xmlns:xlink="http://www.w3.org/1999/xlink">
<g id="graph0" class="graph" transform="scale(1 1) rotate(0) translate(4 101)">
<title>dbe::interface::messenger::msglevels</title>
<!-- Node1 -->
<g id="Node000001" class="node">
<title>Node1</title>
<g id="a_Node000001"><a xlink:title=" ">
<polygon fill="#999999" stroke="#666666" points="201.25,-97 75,-97 75,-66.5 201.25,-66.5 201.25,-97"/>
<text text-anchor="start" x="83" y="-83.5" font-family="Helvetica,sans-Serif" font-size="10.00">dbe::interface::messenger</text>
<text text-anchor="middle" x="138.12" y="-72.25" font-family="Helvetica,sans-Serif" font-size="10.00">::msglevels</text>
</a>
</g>
</g>
<!-- Node2 -->
<g id="Node000002" class="node">
<title>Node2</title>
<g id="a_Node000002"><a xlink:href="classdbe_1_1interface_1_1messenger_1_1console.html" target="_top" xlink:title=" ">
<polygon fill="white" stroke="#666666" points="126.25,-30.5 0,-30.5 0,0 126.25,0 126.25,-30.5"/>
<text text-anchor="start" x="8" y="-17" font-family="Helvetica,sans-Serif" font-size="10.00">dbe::interface::messenger</text>
<text text-anchor="middle" x="63.12" y="-5.75" font-family="Helvetica,sans-Serif" font-size="10.00">::console</text>
</a>
</g>
</g>
<!-- Node1&#45;&gt;Node2 -->
<g id="edge1_Node000001_Node000002" class="edge">
<title>Node1&#45;&gt;Node2</title>
<g id="a_edge1_Node000001_Node000002"><a xlink:title=" ">
<path fill="none" stroke="#63b8ff" d="M112.53,-58.74C101.82,-49.53 89.65,-39.06 80.08,-30.83"/>
<polygon fill="#63b8ff" stroke="#63b8ff" points="110.09,-61.26 119.96,-65.13 114.66,-55.95 110.09,-61.26"/>
</a>
</g>
</g>
<!-- Node3 -->
<g id="Node000003" class="node">
<title>Node3</title>
<g id="a_Node000003"><a xlink:href="classdbe_1_1interface_1_1messenger_1_1qt.html" target="_top" xlink:title=" ">
<polygon fill="white" stroke="#666666" points="283.62,-24.88 144.62,-24.88 144.62,-5.63 283.62,-5.63 283.62,-24.88"/>
<text text-anchor="middle" x="214.12" y="-11.38" font-family="Helvetica,sans-Serif" font-size="10.00">dbe::interface::messenger::qt</text>
</a>
</g>
</g>
<!-- Node1&#45;&gt;Node3 -->
<g id="edge2_Node000001_Node000003" class="edge">
<title>Node1&#45;&gt;Node3</title>
<g id="a_edge2_Node000001_Node000003"><a xlink:title=" ">
<path fill="none" stroke="#63b8ff" d="M163.91,-58.87C177.54,-47.3 193.52,-33.74 203.73,-25.07"/>
<polygon fill="#63b8ff" stroke="#63b8ff" points="161.88,-56 156.52,-65.13 166.41,-61.33 161.88,-56"/>
</a>
</g>
</g>
</g>
</svg>
