<?xml version="1.0" encoding="UTF-8" standalone="no"?>
<!DOCTYPE svg PUBLIC "-//W3C//DTD SVG 1.1//EN"
 "http://www.w3.org/Graphics/SVG/1.1/DTD/svg11.dtd">
<!-- Generated by graphviz version 9.0.0 (20230911.1827)
 -->
<!-- Title: triggeralgs::dbscan::Cluster Pages: 1 -->
<svg width="244pt" height="183pt"
 viewBox="0.00 0.00 243.62 182.75" xmlns="http://www.w3.org/2000/svg" xmlns:xlink="http://www.w3.org/1999/xlink">
<g id="graph0" class="graph" transform="scale(1 1) rotate(0) translate(4 178.75)">
<title>triggeralgs::dbscan::Cluster</title>
<!-- Node1 -->
<g id="Node000001" class="node">
<title>Node1</title>
<g id="a_Node000001"><a xlink:title=" ">
<polygon fill="#999999" stroke="#666666" points="128,-30.5 31,-30.5 31,0 128,0 128,-30.5"/>
<text text-anchor="start" x="39" y="-17" font-family="Helvetica,sans-Serif" font-size="10.00">triggeralgs::dbscan</text>
<text text-anchor="middle" x="79.5" y="-5.75" font-family="Helvetica,sans-Serif" font-size="10.00">::Cluster</text>
</a>
</g>
</g>
<!-- Node2 -->
<g id="Node000002" class="node">
<title>Node2</title>
<g id="a_Node000002"><a xlink:href="structtriggeralgs_1_1dbscan_1_1Hit.html" target="_top" xlink:title=" ">
<polygon fill="white" stroke="#666666" points="198.62,-97 84.38,-97 84.38,-77.75 198.62,-77.75 198.62,-97"/>
<text text-anchor="middle" x="141.5" y="-83.5" font-family="Helvetica,sans-Serif" font-size="10.00">triggeralgs::dbscan::Hit</text>
</a>
</g>
</g>
<!-- Node2&#45;&gt;Node1 -->
<g id="edge1_Node000001_Node000002" class="edge">
<title>Node2&#45;&gt;Node1</title>
<g id="a_edge1_Node000001_Node000002"><a xlink:title=" ">
<path fill="none" stroke="#9a32cd" stroke-dasharray="5,2" d="M126.15,-69.02C115.8,-57.3 102.28,-42.02 92.47,-30.92"/>
<polygon fill="#9a32cd" stroke="#9a32cd" points="123.4,-71.19 132.65,-76.36 128.64,-66.55 123.4,-71.19"/>
</a>
</g>
<text text-anchor="middle" x="156.75" y="-50.25" font-family="Helvetica,sans-Serif" font-size="10.00" fill="grey"> latest_core_point</text>
</g>
<!-- Node3 -->
<g id="Node000003" class="node">
<title>Node3</title>
<g id="a_Node000003"><a xlink:href="classtriggeralgs_1_1dbscan_1_1HitSet.html" target="_top" xlink:title=" ">
<polygon fill="white" stroke="#666666" points="97,-174.75 0,-174.75 0,-144.25 97,-144.25 97,-174.75"/>
<text text-anchor="start" x="8" y="-161.25" font-family="Helvetica,sans-Serif" font-size="10.00">triggeralgs::dbscan</text>
<text text-anchor="middle" x="48.5" y="-150" font-family="Helvetica,sans-Serif" font-size="10.00">::HitSet</text>
</a>
</g>
</g>
<!-- Node3&#45;&gt;Node1 -->
<g id="edge4_Node000001_Node000003" class="edge">
<title>Node3&#45;&gt;Node1</title>
<g id="a_edge4_Node000001_Node000003"><a xlink:title=" ">
<path fill="none" stroke="#9a32cd" stroke-dasharray="5,2" d="M49.83,-132.89C51.03,-116.88 53.3,-95.93 57.5,-77.75 61.33,-61.18 68.23,-42.91 73.28,-30.63"/>
<polygon fill="#9a32cd" stroke="#9a32cd" points="46.36,-132.32 49.2,-142.53 53.34,-132.78 46.36,-132.32"/>
</a>
</g>
<text text-anchor="middle" x="66.5" y="-83.5" font-family="Helvetica,sans-Serif" font-size="10.00" fill="grey"> hits</text>
</g>
<!-- Node3&#45;&gt;Node2 -->
<g id="edge2_Node000002_Node000003" class="edge">
<title>Node3&#45;&gt;Node2</title>
<g id="a_edge2_Node000002_Node000003"><a xlink:title=" ">
<path fill="none" stroke="#9a32cd" stroke-dasharray="5,2" d="M73.82,-136.56C82.3,-129.48 91.91,-121.72 101,-115 109.39,-108.8 119.15,-102.36 126.99,-97.36"/>
<polygon fill="#9a32cd" stroke="#9a32cd" points="71.67,-133.8 66.3,-142.93 76.19,-139.14 71.67,-133.8"/>
</a>
</g>
<text text-anchor="middle" x="126.25" y="-116.75" font-family="Helvetica,sans-Serif" font-size="10.00" fill="grey"> neighbours</text>
</g>
<!-- Node4 -->
<g id="Node000004" class="node">
<title>Node4</title>
<g id="a_Node000004"><a xlink:href="structdunedaq_1_1trgdataformats_1_1TriggerPrimitive.html" target="_top" xlink:title="A single energy deposition on a TPC or PDS channel.">
<polygon fill="white" stroke="#666666" points="235.62,-174.75 115.38,-174.75 115.38,-144.25 235.62,-144.25 235.62,-174.75"/>
<text text-anchor="start" x="123.38" y="-161.25" font-family="Helvetica,sans-Serif" font-size="10.00">dunedaq::trgdataformats</text>
<text text-anchor="middle" x="175.5" y="-150" font-family="Helvetica,sans-Serif" font-size="10.00">::TriggerPrimitive</text>
</a>
</g>
</g>
<!-- Node4&#45;&gt;Node2 -->
<g id="edge3_Node000002_Node000004" class="edge">
<title>Node4&#45;&gt;Node2</title>
<g id="a_edge3_Node000002_Node000004"><a xlink:title=" ">
<path fill="none" stroke="#9a32cd" stroke-dasharray="5,2" d="M163.57,-133.89C157.37,-121.11 150.19,-106.3 145.75,-97.13"/>
<polygon fill="#9a32cd" stroke="#9a32cd" points="160.28,-135.14 167.79,-142.61 166.58,-132.08 160.28,-135.14"/>
</a>
</g>
<text text-anchor="middle" x="180" y="-116.75" font-family="Helvetica,sans-Serif" font-size="10.00" fill="grey"> primitive</text>
</g>
</g>
</svg>
