<?xml version="1.0" encoding="UTF-8" standalone="no"?>
<!DOCTYPE svg PUBLIC "-//W3C//DTD SVG 1.1//EN"
 "http://www.w3.org/Graphics/SVG/1.1/DTD/svg11.dtd">
<!-- Generated by graphviz version 9.0.0 (20230911.1827)
 -->
<!-- Title: dunedaq::trigger::opmon::TriggerLatencyStandaloneDefaultTypeInternal Pages: 1 -->
<svg width="587pt" height="88pt"
 viewBox="0.00 0.00 587.00 87.50" xmlns="http://www.w3.org/2000/svg" xmlns:xlink="http://www.w3.org/1999/xlink">
<g id="graph0" class="graph" transform="scale(1 1) rotate(0) translate(4 83.5)">
<title>dunedaq::trigger::opmon::TriggerLatencyStandaloneDefaultTypeInternal</title>
<!-- Node1 -->
<g id="Node000001" class="node">
<title>Node1</title>
<g id="a_Node000001"><a xlink:title=" ">
<polygon fill="#999999" stroke="#666666" points="579,-65.75 414.5,-65.75 414.5,-24 579,-24 579,-65.75"/>
<text text-anchor="start" x="422.5" y="-52.25" font-family="Helvetica,sans-Serif" font-size="10.00">dunedaq::trigger::opmon</text>
<text text-anchor="start" x="422.5" y="-41" font-family="Helvetica,sans-Serif" font-size="10.00">::TriggerLatencyStandaloneDefault</text>
<text text-anchor="middle" x="496.75" y="-29.75" font-family="Helvetica,sans-Serif" font-size="10.00">TypeInternal</text>
</a>
</g>
</g>
<!-- Node2 -->
<g id="Node000002" class="node">
<title>Node2</title>
<g id="a_Node000002"><a xlink:href="classdunedaq_1_1trigger_1_1opmon_1_1TriggerLatencyStandalone.html" target="_top" xlink:title=" ">
<polygon fill="white" stroke="#666666" points="334.25,-60.12 200.5,-60.12 200.5,-29.62 334.25,-29.62 334.25,-60.12"/>
<text text-anchor="start" x="208.5" y="-46.62" font-family="Helvetica,sans-Serif" font-size="10.00">dunedaq::trigger::opmon</text>
<text text-anchor="middle" x="267.38" y="-35.38" font-family="Helvetica,sans-Serif" font-size="10.00">::TriggerLatencyStandalone</text>
</a>
</g>
</g>
<!-- Node2&#45;&gt;Node1 -->
<g id="edge1_Node000001_Node000002" class="edge">
<title>Node2&#45;&gt;Node1</title>
<g id="a_edge1_Node000001_Node000002"><a xlink:title=" ">
<path fill="none" stroke="#9a32cd" stroke-dasharray="5,2" d="M345.77,-44.88C367.81,-44.88 391.88,-44.88 414.16,-44.88"/>
<polygon fill="#9a32cd" stroke="#9a32cd" points="345.96,-41.38 335.96,-44.88 345.96,-48.38 345.96,-41.38"/>
</a>
</g>
<text text-anchor="middle" x="374.38" y="-46.62" font-family="Helvetica,sans-Serif" font-size="10.00" fill="grey"> _instance</text>
</g>
<!-- Node3 -->
<g id="Node000003" class="node">
<title>Node3</title>
<g id="a_Node000003"><a xlink:title=" ">
<polygon fill="white" stroke="#666666" points="131.12,-79.5 2.62,-79.5 2.62,-60.25 131.12,-60.25 131.12,-79.5"/>
<text text-anchor="middle" x="66.88" y="-66" font-family="Helvetica,sans-Serif" font-size="10.00">google::protobuf::Message</text>
</a>
</g>
</g>
<!-- Node3&#45;&gt;Node2 -->
<g id="edge2_Node000002_Node000003" class="edge">
<title>Node3&#45;&gt;Node2</title>
<g id="a_edge2_Node000002_Node000003"><a xlink:title=" ">
<path fill="none" stroke="#63b8ff" d="M142.73,-60.45C161.57,-58.08 181.65,-55.55 200.03,-53.23"/>
<polygon fill="#63b8ff" stroke="#63b8ff" points="142.49,-56.95 133,-61.67 143.36,-63.9 142.49,-56.95"/>
</a>
</g>
</g>
<!-- Node4 -->
<g id="Node000004" class="node">
<title>Node4</title>
<g id="a_Node000004"><a xlink:href="structdunedaq_1_1trigger_1_1opmon_1_1TriggerLatencyStandalone_1_1Impl__.html" target="_top" xlink:title=" ">
<polygon fill="white" stroke="#666666" points="133.75,-41.75 0,-41.75 0,0 133.75,0 133.75,-41.75"/>
<text text-anchor="start" x="8" y="-28.25" font-family="Helvetica,sans-Serif" font-size="10.00">dunedaq::trigger::opmon</text>
<text text-anchor="start" x="8" y="-17" font-family="Helvetica,sans-Serif" font-size="10.00">::TriggerLatencyStandalone</text>
<text text-anchor="middle" x="66.88" y="-5.75" font-family="Helvetica,sans-Serif" font-size="10.00">::Impl_</text>
</a>
</g>
</g>
<!-- Node4&#45;&gt;Node2 -->
<g id="edge3_Node000002_Node000004" class="edge">
<title>Node4&#45;&gt;Node2</title>
<g id="a_edge3_Node000002_Node000004"><a xlink:title=" ">
<path fill="none" stroke="#9a32cd" stroke-dasharray="5,2" d="M145.61,-30.27C163.61,-32.45 182.6,-34.75 200.06,-36.86"/>
<polygon fill="#9a32cd" stroke="#9a32cd" points="146.1,-26.81 135.75,-29.08 145.26,-33.76 146.1,-26.81"/>
</a>
</g>
<text text-anchor="middle" x="167.12" y="-36.62" font-family="Helvetica,sans-Serif" font-size="10.00" fill="grey"> _impl_</text>
</g>
</g>
</svg>
