<?xml version="1.0" encoding="UTF-8" standalone="no"?>
<!DOCTYPE svg PUBLIC "-//W3C//DTD SVG 1.1//EN"
 "http://www.w3.org/Graphics/SVG/1.1/DTD/svg11.dtd">
<!-- Generated by graphviz version 9.0.0 (20230911.1827)
 -->
<!-- Title: dbe::config_object_representation&lt; S &gt; Pages: 1 -->
<svg width="239pt" height="262pt"
 viewBox="0.00 0.00 239.12 261.50" xmlns="http://www.w3.org/2000/svg" xmlns:xlink="http://www.w3.org/1999/xlink">
<g id="graph0" class="graph" transform="scale(1 1) rotate(0) translate(4 257.5)">
<title>dbe::config_object_representation&lt; S &gt;</title>
<!-- Node1 -->
<g id="Node000001" class="node">
<title>Node1</title>
<g id="a_Node000001"><a xlink:title=" ">
<polygon fill="#999999" stroke="#666666" points="137.62,-30.5 31.62,-30.5 31.62,0 137.62,0 137.62,-30.5"/>
<text text-anchor="start" x="39.62" y="-17" font-family="Helvetica,sans-Serif" font-size="10.00">dbe::config_object</text>
<text text-anchor="middle" x="84.62" y="-5.75" font-family="Helvetica,sans-Serif" font-size="10.00">_representation&lt; S &gt;</text>
</a>
</g>
</g>
<!-- Node2 -->
<g id="Node000002" class="node">
<title>Node2</title>
<g id="a_Node000002"><a xlink:href="classdbe_1_1config__object__description.html" target="_top" xlink:title=" ">
<polygon fill="white" stroke="#666666" points="148.12,-108.25 21.12,-108.25 21.12,-77.75 148.12,-77.75 148.12,-108.25"/>
<text text-anchor="start" x="29.12" y="-94.75" font-family="Helvetica,sans-Serif" font-size="10.00">dbe::config_object</text>
<text text-anchor="middle" x="84.62" y="-83.5" font-family="Helvetica,sans-Serif" font-size="10.00">_description&lt; std::string &gt;</text>
</a>
</g>
</g>
<!-- Node2&#45;&gt;Node1 -->
<g id="edge1_Node000001_Node000002" class="edge">
<title>Node2&#45;&gt;Node1</title>
<g id="a_edge1_Node000001_Node000002"><a xlink:title=" ">
<path fill="none" stroke="#9a32cd" stroke-dasharray="5,2" d="M84.62,-65.97C84.62,-54.21 84.62,-40.76 84.62,-30.81"/>
<polygon fill="#9a32cd" stroke="#9a32cd" points="81.13,-65.88 84.63,-75.88 88.13,-65.88 81.13,-65.88"/>
</a>
</g>
<text text-anchor="middle" x="91.38" y="-50.25" font-family="Helvetica,sans-Serif" font-size="10.00" fill="grey"> ref</text>
</g>
<!-- Node3 -->
<g id="Node000003" class="node">
<title>Node3</title>
<g id="a_Node000003"><a xlink:href="classdbe_1_1config__object__key.html" target="_top" xlink:title=" ">
<polygon fill="white" stroke="#666666" points="93.25,-186 0,-186 0,-155.5 93.25,-155.5 93.25,-186"/>
<text text-anchor="start" x="8" y="-172.5" font-family="Helvetica,sans-Serif" font-size="10.00">dbe::config_object</text>
<text text-anchor="middle" x="46.62" y="-161.25" font-family="Helvetica,sans-Serif" font-size="10.00">_key&lt; S &gt;</text>
</a>
</g>
</g>
<!-- Node3&#45;&gt;Node2 -->
<g id="edge2_Node000002_Node000003" class="edge">
<title>Node3&#45;&gt;Node2</title>
<g id="a_edge2_Node000002_Node000003"><a xlink:title=" ">
<path fill="none" stroke="#8b1a1a" d="M58.94,-145.2C65.01,-133.1 72.12,-118.92 77.32,-108.56"/>
<polygon fill="#8b1a1a" stroke="#8b1a1a" points="55.99,-143.28 54.63,-153.79 62.24,-146.42 55.99,-143.28"/>
</a>
</g>
</g>
<!-- Node4 -->
<g id="Node000004" class="node">
<title>Node4</title>
<g id="a_Node000004"><a xlink:href="classdbe_1_1inner_1_1configobject_1_1tref.html" target="_top" xlink:title=" ">
<polygon fill="white" stroke="#666666" points="224.38,-186 110.88,-186 110.88,-155.5 224.38,-155.5 224.38,-186"/>
<text text-anchor="start" x="118.88" y="-172.5" font-family="Helvetica,sans-Serif" font-size="10.00">dbe::inner::configobject</text>
<text text-anchor="middle" x="167.62" y="-161.25" font-family="Helvetica,sans-Serif" font-size="10.00">::tref</text>
</a>
</g>
</g>
<!-- Node4&#45;&gt;Node2 -->
<g id="edge3_Node000002_Node000004" class="edge">
<title>Node4&#45;&gt;Node2</title>
<g id="a_edge3_Node000002_Node000004"><a xlink:title=" ">
<path fill="none" stroke="#9a32cd" stroke-dasharray="5,2" d="M143.5,-147.73C129.68,-135.12 112.74,-119.66 100.58,-108.56"/>
<polygon fill="#9a32cd" stroke="#9a32cd" points="140.76,-149.97 150.5,-154.12 145.48,-144.8 140.76,-149.97"/>
</a>
</g>
<text text-anchor="middle" x="180.88" y="-128" font-family="Helvetica,sans-Serif" font-size="10.00" fill="grey"> this_referenced_object</text>
</g>
<!-- Node5 -->
<g id="Node000005" class="node">
<title>Node5</title>
<g id="a_Node000005"><a xlink:href="classdbe_1_1inner_1_1configobject_1_1ref__interface.html" target="_top" xlink:title=" ">
<polygon fill="white" stroke="#666666" points="224.38,-253.5 110.88,-253.5 110.88,-223 224.38,-223 224.38,-253.5"/>
<text text-anchor="start" x="118.88" y="-240" font-family="Helvetica,sans-Serif" font-size="10.00">dbe::inner::configobject</text>
<text text-anchor="middle" x="167.62" y="-228.75" font-family="Helvetica,sans-Serif" font-size="10.00">::ref_interface&lt; tref &gt;</text>
</a>
</g>
</g>
<!-- Node5&#45;&gt;Node4 -->
<g id="edge4_Node000004_Node000005" class="edge">
<title>Node5&#45;&gt;Node4</title>
<g id="a_edge4_Node000004_Node000005"><a xlink:title=" ">
<path fill="none" stroke="#63b8ff" d="M167.62,-211.34C167.62,-202.8 167.62,-193.62 167.62,-186.25"/>
<polygon fill="#63b8ff" stroke="#63b8ff" points="164.13,-211.2 167.63,-221.2 171.13,-211.2 164.13,-211.2"/>
</a>
</g>
</g>
</g>
</svg>
