<?xml version="1.0" encoding="UTF-8" standalone="no"?>
<!DOCTYPE svg PUBLIC "-//W3C//DTD SVG 1.1//EN"
 "http://www.w3.org/Graphics/SVG/1.1/DTD/svg11.dtd">
<!-- Generated by graphviz version 9.0.0 (20230911.1827)
 -->
<!-- Title: dunedaq::datahandlinglibs::opmon::DataProcessorInfoDefaultTypeInternal Pages: 1 -->
<svg width="620pt" height="76pt"
 viewBox="0.00 0.00 620.00 75.88" xmlns="http://www.w3.org/2000/svg" xmlns:xlink="http://www.w3.org/1999/xlink">
<g id="graph0" class="graph" transform="scale(1 1) rotate(0) translate(4 71.88)">
<title>dunedaq::datahandlinglibs::opmon::DataProcessorInfoDefaultTypeInternal</title>
<!-- Node1 -->
<g id="Node000001" class="node">
<title>Node1</title>
<g id="a_Node000001"><a xlink:title=" ">
<polygon fill="#999999" stroke="#666666" points="612,-57.12 446,-57.12 446,-15.38 612,-15.38 612,-57.12"/>
<text text-anchor="start" x="454" y="-43.62" font-family="Helvetica,sans-Serif" font-size="10.00">dunedaq::datahandlinglibs</text>
<text text-anchor="start" x="454" y="-32.38" font-family="Helvetica,sans-Serif" font-size="10.00">::opmon::DataProcessorInfoDefault</text>
<text text-anchor="middle" x="529" y="-21.12" font-family="Helvetica,sans-Serif" font-size="10.00">TypeInternal</text>
</a>
</g>
</g>
<!-- Node2 -->
<g id="Node000002" class="node">
<title>Node2</title>
<g id="a_Node000002"><a xlink:href="classdunedaq_1_1datahandlinglibs_1_1opmon_1_1DataProcessorInfo.html" target="_top" xlink:title=" ">
<polygon fill="white" stroke="#666666" points="365.75,-51.5 230.5,-51.5 230.5,-21 365.75,-21 365.75,-51.5"/>
<text text-anchor="start" x="238.5" y="-38" font-family="Helvetica,sans-Serif" font-size="10.00">dunedaq::datahandlinglibs</text>
<text text-anchor="middle" x="298.12" y="-26.75" font-family="Helvetica,sans-Serif" font-size="10.00">::opmon::DataProcessorInfo</text>
</a>
</g>
</g>
<!-- Node2&#45;&gt;Node1 -->
<g id="edge1_Node000001_Node000002" class="edge">
<title>Node2&#45;&gt;Node1</title>
<g id="a_edge1_Node000001_Node000002"><a xlink:title=" ">
<path fill="none" stroke="#9a32cd" stroke-dasharray="5,2" d="M377.57,-36.25C399.6,-36.25 423.62,-36.25 445.86,-36.25"/>
<polygon fill="#9a32cd" stroke="#9a32cd" points="377.76,-32.75 367.76,-36.25 377.76,-39.75 377.76,-32.75"/>
</a>
</g>
<text text-anchor="middle" x="405.88" y="-38" font-family="Helvetica,sans-Serif" font-size="10.00" fill="grey"> _instance</text>
</g>
<!-- Node3 -->
<g id="Node000003" class="node">
<title>Node3</title>
<g id="a_Node000003"><a xlink:title=" ">
<polygon fill="white" stroke="#666666" points="146.12,-67.88 17.62,-67.88 17.62,-48.62 146.12,-48.62 146.12,-67.88"/>
<text text-anchor="middle" x="81.88" y="-54.38" font-family="Helvetica,sans-Serif" font-size="10.00">google::protobuf::Message</text>
</a>
</g>
</g>
<!-- Node3&#45;&gt;Node2 -->
<g id="edge2_Node000002_Node000003" class="edge">
<title>Node3&#45;&gt;Node2</title>
<g id="a_edge2_Node000002_Node000003"><a xlink:title=" ">
<path fill="none" stroke="#63b8ff" d="M157.94,-50.54C181.51,-48.12 207.36,-45.47 230.32,-43.11"/>
<polygon fill="#63b8ff" stroke="#63b8ff" points="157.67,-47.05 148.08,-51.55 158.39,-54.01 157.67,-47.05"/>
</a>
</g>
</g>
<!-- Node4 -->
<g id="Node000004" class="node">
<title>Node4</title>
<g id="a_Node000004"><a xlink:href="structdunedaq_1_1datahandlinglibs_1_1opmon_1_1DataProcessorInfo_1_1Impl__.html" target="_top" xlink:title=" ">
<polygon fill="white" stroke="#666666" points="163.75,-30.5 0,-30.5 0,0 163.75,0 163.75,-30.5"/>
<text text-anchor="start" x="8" y="-17" font-family="Helvetica,sans-Serif" font-size="10.00">dunedaq::datahandlinglibs</text>
<text text-anchor="middle" x="81.88" y="-5.75" font-family="Helvetica,sans-Serif" font-size="10.00">::opmon::DataProcessorInfo::Impl_</text>
</a>
</g>
</g>
<!-- Node4&#45;&gt;Node2 -->
<g id="edge3_Node000002_Node000004" class="edge">
<title>Node4&#45;&gt;Node2</title>
<g id="a_edge3_Node000002_Node000004"><a xlink:title=" ">
<path fill="none" stroke="#9a32cd" stroke-dasharray="5,2" d="M175.52,-24.33C193.9,-26.13 212.85,-27.99 230.17,-29.69"/>
<polygon fill="#9a32cd" stroke="#9a32cd" points="175.98,-20.86 165.69,-23.37 175.3,-27.83 175.98,-20.86"/>
</a>
</g>
<text text-anchor="middle" x="197.12" y="-30" font-family="Helvetica,sans-Serif" font-size="10.00" fill="grey"> _impl_</text>
</g>
</g>
</svg>
