<?xml version="1.0" encoding="UTF-8" standalone="no"?>
<!DOCTYPE svg PUBLIC "-//W3C//DTD SVG 1.1//EN"
 "http://www.w3.org/Graphics/SVG/1.1/DTD/svg11.dtd">
<!-- Generated by graphviz version 9.0.0 (20230911.1827)
 -->
<!-- Title: wib::SetFakeTimeDefaultTypeInternal Pages: 1 -->
<svg width="278pt" height="172pt"
 viewBox="0.00 0.00 277.50 171.50" xmlns="http://www.w3.org/2000/svg" xmlns:xlink="http://www.w3.org/1999/xlink">
<g id="graph0" class="graph" transform="scale(1 1) rotate(0) translate(4 167.5)">
<title>wib::SetFakeTimeDefaultTypeInternal</title>
<!-- Node1 -->
<g id="Node000001" class="node">
<title>Node1</title>
<g id="a_Node000001"><a xlink:title=" ">
<polygon fill="#999999" stroke="#666666" points="209.12,-30.5 63.38,-30.5 63.38,0 209.12,0 209.12,-30.5"/>
<text text-anchor="start" x="71.38" y="-17" font-family="Helvetica,sans-Serif" font-size="10.00">wib::SetFakeTimeDefaultType</text>
<text text-anchor="middle" x="136.25" y="-5.75" font-family="Helvetica,sans-Serif" font-size="10.00">Internal</text>
</a>
</g>
</g>
<!-- Node2 -->
<g id="Node000002" class="node">
<title>Node2</title>
<g id="a_Node000002"><a xlink:href="classwib_1_1SetFakeTime.html" target="_top" xlink:title=" ">
<polygon fill="white" stroke="#666666" points="183.25,-97 89.25,-97 89.25,-77.75 183.25,-77.75 183.25,-97"/>
<text text-anchor="middle" x="136.25" y="-83.5" font-family="Helvetica,sans-Serif" font-size="10.00">wib::SetFakeTime</text>
</a>
</g>
</g>
<!-- Node2&#45;&gt;Node1 -->
<g id="edge1_Node000001_Node000002" class="edge">
<title>Node2&#45;&gt;Node1</title>
<g id="a_edge1_Node000001_Node000002"><a xlink:title=" ">
<path fill="none" stroke="#9a32cd" stroke-dasharray="5,2" d="M136.25,-66.17C136.25,-54.91 136.25,-41.14 136.25,-30.92"/>
<polygon fill="#9a32cd" stroke="#9a32cd" points="132.75,-65.98 136.25,-75.98 139.75,-65.98 132.75,-65.98"/>
</a>
</g>
<text text-anchor="middle" x="158.38" y="-50.25" font-family="Helvetica,sans-Serif" font-size="10.00" fill="grey"> _instance</text>
</g>
<!-- Node3 -->
<g id="Node000003" class="node">
<title>Node3</title>
<g id="a_Node000003"><a xlink:title=" ">
<polygon fill="white" stroke="#666666" points="128.5,-163.5 0,-163.5 0,-144.25 128.5,-144.25 128.5,-163.5"/>
<text text-anchor="middle" x="64.25" y="-150" font-family="Helvetica,sans-Serif" font-size="10.00">google::protobuf::Message</text>
</a>
</g>
</g>
<!-- Node3&#45;&gt;Node2 -->
<g id="edge2_Node000002_Node000003" class="edge">
<title>Node3&#45;&gt;Node2</title>
<g id="a_edge2_Node000002_Node000003"><a xlink:title=" ">
<path fill="none" stroke="#63b8ff" d="M82.6,-136.44C96.5,-123.98 115.08,-107.34 126.32,-97.27"/>
<polygon fill="#63b8ff" stroke="#63b8ff" points="80.5,-133.62 75.39,-142.9 85.17,-138.83 80.5,-133.62"/>
</a>
</g>
</g>
<!-- Node4 -->
<g id="Node000004" class="node">
<title>Node4</title>
<g id="a_Node000004"><a xlink:href="structwib_1_1SetFakeTime_1_1Impl__.html" target="_top" xlink:title=" ">
<polygon fill="white" stroke="#666666" points="269.5,-163.5 147,-163.5 147,-144.25 269.5,-144.25 269.5,-163.5"/>
<text text-anchor="middle" x="208.25" y="-150" font-family="Helvetica,sans-Serif" font-size="10.00">wib::SetFakeTime::Impl_</text>
</a>
</g>
</g>
<!-- Node4&#45;&gt;Node2 -->
<g id="edge3_Node000002_Node000004" class="edge">
<title>Node4&#45;&gt;Node2</title>
<g id="a_edge3_Node000002_Node000004"><a xlink:title=" ">
<path fill="none" stroke="#9a32cd" stroke-dasharray="5,2" d="M189.9,-136.44C176,-123.98 157.42,-107.34 146.18,-97.27"/>
<polygon fill="#9a32cd" stroke="#9a32cd" points="187.33,-138.83 197.11,-142.9 192,-133.62 187.33,-138.83"/>
</a>
</g>
<text text-anchor="middle" x="191.62" y="-116.75" font-family="Helvetica,sans-Serif" font-size="10.00" fill="grey"> _impl_</text>
</g>
</g>
</svg>
