<?xml version="1.0" encoding="UTF-8" standalone="no"?>
<!DOCTYPE svg PUBLIC "-//W3C//DTD SVG 1.1//EN"
 "http://www.w3.org/Graphics/SVG/1.1/DTD/svg11.dtd">
<!-- Generated by graphviz version 9.0.0 (20230911.1827)
 -->
<!-- Title: dunedaq::hsilibs::opmon::HSIReadoutInfoDefaultTypeInternal Pages: 1 -->
<svg width="274pt" height="194pt"
 viewBox="0.00 0.00 273.62 194.00" xmlns="http://www.w3.org/2000/svg" xmlns:xlink="http://www.w3.org/1999/xlink">
<g id="graph0" class="graph" transform="scale(1 1) rotate(0) translate(4 190)">
<title>dunedaq::hsilibs::opmon::HSIReadoutInfoDefaultTypeInternal</title>
<!-- Node1 -->
<g id="Node000001" class="node">
<title>Node1</title>
<g id="a_Node000001"><a xlink:title=" ">
<polygon fill="#999999" stroke="#666666" points="222.38,-30.5 48.12,-30.5 48.12,0 222.38,0 222.38,-30.5"/>
<text text-anchor="start" x="56.12" y="-17" font-family="Helvetica,sans-Serif" font-size="10.00">dunedaq::hsilibs::opmon</text>
<text text-anchor="middle" x="135.25" y="-5.75" font-family="Helvetica,sans-Serif" font-size="10.00">::HSIReadoutInfoDefaultTypeInternal</text>
</a>
</g>
</g>
<!-- Node2 -->
<g id="Node000002" class="node">
<title>Node2</title>
<g id="a_Node000002"><a xlink:href="classdunedaq_1_1hsilibs_1_1opmon_1_1HSIReadoutInfo.html" target="_top" xlink:title=" ">
<polygon fill="white" stroke="#666666" points="194.62,-108.25 75.88,-108.25 75.88,-77.75 194.62,-77.75 194.62,-108.25"/>
<text text-anchor="start" x="83.88" y="-94.75" font-family="Helvetica,sans-Serif" font-size="10.00">dunedaq::hsilibs::opmon</text>
<text text-anchor="middle" x="135.25" y="-83.5" font-family="Helvetica,sans-Serif" font-size="10.00">::HSIReadoutInfo</text>
</a>
</g>
</g>
<!-- Node2&#45;&gt;Node1 -->
<g id="edge1_Node000001_Node000002" class="edge">
<title>Node2&#45;&gt;Node1</title>
<g id="a_edge1_Node000001_Node000002"><a xlink:title=" ">
<path fill="none" stroke="#9a32cd" stroke-dasharray="5,2" d="M135.25,-65.97C135.25,-54.21 135.25,-40.76 135.25,-30.81"/>
<polygon fill="#9a32cd" stroke="#9a32cd" points="131.75,-65.88 135.25,-75.88 138.75,-65.88 131.75,-65.88"/>
</a>
</g>
<text text-anchor="middle" x="157.38" y="-50.25" font-family="Helvetica,sans-Serif" font-size="10.00" fill="grey"> _instance</text>
</g>
<!-- Node3 -->
<g id="Node000003" class="node">
<title>Node3</title>
<g id="a_Node000003"><a xlink:title=" ">
<polygon fill="white" stroke="#666666" points="128.5,-180.38 0,-180.38 0,-161.12 128.5,-161.12 128.5,-180.38"/>
<text text-anchor="middle" x="64.25" y="-166.88" font-family="Helvetica,sans-Serif" font-size="10.00">google::protobuf::Message</text>
</a>
</g>
</g>
<!-- Node3&#45;&gt;Node2 -->
<g id="edge2_Node000002_Node000003" class="edge">
<title>Node3&#45;&gt;Node2</title>
<g id="a_edge2_Node000002_Node000003"><a xlink:title=" ">
<path fill="none" stroke="#63b8ff" d="M80.41,-152.51C92.81,-139.28 109.73,-121.23 121.48,-108.69"/>
<polygon fill="#63b8ff" stroke="#63b8ff" points="77.99,-149.97 73.71,-159.66 83.1,-154.76 77.99,-149.97"/>
</a>
</g>
</g>
<!-- Node4 -->
<g id="Node000004" class="node">
<title>Node4</title>
<g id="a_Node000004"><a xlink:href="structdunedaq_1_1hsilibs_1_1opmon_1_1HSIReadoutInfo_1_1Impl__.html" target="_top" xlink:title=" ">
<polygon fill="white" stroke="#666666" points="265.62,-186 146.88,-186 146.88,-155.5 265.62,-155.5 265.62,-186"/>
<text text-anchor="start" x="154.88" y="-172.5" font-family="Helvetica,sans-Serif" font-size="10.00">dunedaq::hsilibs::opmon</text>
<text text-anchor="middle" x="206.25" y="-161.25" font-family="Helvetica,sans-Serif" font-size="10.00">::HSIReadoutInfo::Impl_</text>
</a>
</g>
</g>
<!-- Node4&#45;&gt;Node2 -->
<g id="edge3_Node000002_Node000004" class="edge">
<title>Node4&#45;&gt;Node2</title>
<g id="a_edge3_Node000002_Node000004"><a xlink:title=" ">
<path fill="none" stroke="#9a32cd" stroke-dasharray="5,2" d="M184.94,-147.01C173.25,-134.54 159.1,-119.45 148.9,-108.56"/>
<polygon fill="#9a32cd" stroke="#9a32cd" points="182.13,-149.14 191.53,-154.04 187.24,-144.35 182.13,-149.14"/>
</a>
</g>
<text text-anchor="middle" x="189.62" y="-128" font-family="Helvetica,sans-Serif" font-size="10.00" fill="grey"> _impl_</text>
</g>
</g>
</svg>
