<?xml version="1.0" encoding="UTF-8" standalone="no"?>
<!DOCTYPE svg PUBLIC "-//W3C//DTD SVG 1.1//EN"
 "http://www.w3.org/Graphics/SVG/1.1/DTD/svg11.dtd">
<!-- Generated by graphviz version 9.0.0 (20230911.1827)
 -->
<!-- Title: wib::GetTimestamp_TimestampDefaultTypeInternal Pages: 1 -->
<svg width="308pt" height="183pt"
 viewBox="0.00 0.00 308.25 182.75" xmlns="http://www.w3.org/2000/svg" xmlns:xlink="http://www.w3.org/1999/xlink">
<g id="graph0" class="graph" transform="scale(1 1) rotate(0) translate(4 178.75)">
<title>wib::GetTimestamp_TimestampDefaultTypeInternal</title>
<!-- Node1 -->
<g id="Node000001" class="node">
<title>Node1</title>
<g id="a_Node000001"><a xlink:title=" ">
<polygon fill="#999999" stroke="#666666" points="220.25,-30.5 66.25,-30.5 66.25,0 220.25,0 220.25,-30.5"/>
<text text-anchor="start" x="74.25" y="-17" font-family="Helvetica,sans-Serif" font-size="10.00">wib::GetTimestamp_Timestamp</text>
<text text-anchor="middle" x="143.25" y="-5.75" font-family="Helvetica,sans-Serif" font-size="10.00">DefaultTypeInternal</text>
</a>
</g>
</g>
<!-- Node2 -->
<g id="Node000002" class="node">
<title>Node2</title>
<g id="a_Node000002"><a xlink:href="classwib_1_1GetTimestamp__Timestamp.html" target="_top" xlink:title=" ">
<polygon fill="white" stroke="#666666" points="220.25,-97 66.25,-97 66.25,-77.75 220.25,-77.75 220.25,-97"/>
<text text-anchor="middle" x="143.25" y="-83.5" font-family="Helvetica,sans-Serif" font-size="10.00">wib::GetTimestamp_Timestamp</text>
</a>
</g>
</g>
<!-- Node2&#45;&gt;Node1 -->
<g id="edge1_Node000001_Node000002" class="edge">
<title>Node2&#45;&gt;Node1</title>
<g id="a_edge1_Node000001_Node000002"><a xlink:title=" ">
<path fill="none" stroke="#9a32cd" stroke-dasharray="5,2" d="M143.25,-66.17C143.25,-54.91 143.25,-41.14 143.25,-30.92"/>
<polygon fill="#9a32cd" stroke="#9a32cd" points="139.75,-65.98 143.25,-75.98 146.75,-65.98 139.75,-65.98"/>
</a>
</g>
<text text-anchor="middle" x="165.38" y="-50.25" font-family="Helvetica,sans-Serif" font-size="10.00" fill="grey"> _instance</text>
</g>
<!-- Node3 -->
<g id="Node000003" class="node">
<title>Node3</title>
<g id="a_Node000003"><a xlink:title=" ">
<polygon fill="white" stroke="#666666" points="128.5,-169.12 0,-169.12 0,-149.88 128.5,-149.88 128.5,-169.12"/>
<text text-anchor="middle" x="64.25" y="-155.62" font-family="Helvetica,sans-Serif" font-size="10.00">google::protobuf::Message</text>
</a>
</g>
</g>
<!-- Node3&#45;&gt;Node2 -->
<g id="edge2_Node000002_Node000003" class="edge">
<title>Node3&#45;&gt;Node2</title>
<g id="a_edge2_Node000002_Node000003"><a xlink:title=" ">
<path fill="none" stroke="#63b8ff" d="M82.66,-142.16C98.36,-128.22 120.36,-108.69 133.08,-97.41"/>
<polygon fill="#63b8ff" stroke="#63b8ff" points="80.54,-139.36 75.39,-148.61 85.19,-144.59 80.54,-139.36"/>
</a>
</g>
</g>
<!-- Node4 -->
<g id="Node000004" class="node">
<title>Node4</title>
<g id="a_Node000004"><a xlink:href="structwib_1_1GetTimestamp__Timestamp_1_1Impl__.html" target="_top" xlink:title=" ">
<polygon fill="white" stroke="#666666" points="300.25,-174.75 146.25,-174.75 146.25,-144.25 300.25,-144.25 300.25,-174.75"/>
<text text-anchor="start" x="154.25" y="-161.25" font-family="Helvetica,sans-Serif" font-size="10.00">wib::GetTimestamp_Timestamp</text>
<text text-anchor="middle" x="223.25" y="-150" font-family="Helvetica,sans-Serif" font-size="10.00">::Impl_</text>
</a>
</g>
</g>
<!-- Node4&#45;&gt;Node2 -->
<g id="edge3_Node000002_Node000004" class="edge">
<title>Node4&#45;&gt;Node2</title>
<g id="a_edge3_Node000002_Node000004"><a xlink:title=" ">
<path fill="none" stroke="#9a32cd" stroke-dasharray="5,2" d="M198.19,-136.54C182.99,-123.21 164.43,-106.94 153.24,-97.13"/>
<polygon fill="#9a32cd" stroke="#9a32cd" points="195.71,-139.01 205.54,-142.97 200.32,-133.75 195.71,-139.01"/>
</a>
</g>
<text text-anchor="middle" x="201.62" y="-116.75" font-family="Helvetica,sans-Serif" font-size="10.00" fill="grey"> _impl_</text>
</g>
</g>
</svg>
