<?xml version="1.0" encoding="UTF-8" standalone="no"?>
<!DOCTYPE svg PUBLIC "-//W3C//DTD SVG 1.1//EN"
 "http://www.w3.org/Graphics/SVG/1.1/DTD/svg11.dtd">
<!-- Generated by graphviz version 9.0.0 (20230911.1827)
 -->
<!-- Title: wib::LogControl_LogDefaultTypeInternal Pages: 1 -->
<svg width="260pt" height="183pt"
 viewBox="0.00 0.00 259.50 182.75" xmlns="http://www.w3.org/2000/svg" xmlns:xlink="http://www.w3.org/1999/xlink">
<g id="graph0" class="graph" transform="scale(1 1) rotate(0) translate(4 178.75)">
<title>wib::LogControl_LogDefaultTypeInternal</title>
<!-- Node1 -->
<g id="Node000001" class="node">
<title>Node1</title>
<g id="a_Node000001"><a xlink:title=" ">
<polygon fill="#999999" stroke="#666666" points="198.88,-30.5 63.62,-30.5 63.62,0 198.88,0 198.88,-30.5"/>
<text text-anchor="start" x="71.62" y="-17" font-family="Helvetica,sans-Serif" font-size="10.00">wib::LogControl_LogDefault</text>
<text text-anchor="middle" x="131.25" y="-5.75" font-family="Helvetica,sans-Serif" font-size="10.00">TypeInternal</text>
</a>
</g>
</g>
<!-- Node2 -->
<g id="Node000002" class="node">
<title>Node2</title>
<g id="a_Node000002"><a xlink:href="classwib_1_1LogControl__Log.html" target="_top" xlink:title=" ">
<polygon fill="white" stroke="#666666" points="183.5,-97 79,-97 79,-77.75 183.5,-77.75 183.5,-97"/>
<text text-anchor="middle" x="131.25" y="-83.5" font-family="Helvetica,sans-Serif" font-size="10.00">wib::LogControl_Log</text>
</a>
</g>
</g>
<!-- Node2&#45;&gt;Node1 -->
<g id="edge1_Node000001_Node000002" class="edge">
<title>Node2&#45;&gt;Node1</title>
<g id="a_edge1_Node000001_Node000002"><a xlink:title=" ">
<path fill="none" stroke="#9a32cd" stroke-dasharray="5,2" d="M131.25,-66.17C131.25,-54.91 131.25,-41.14 131.25,-30.92"/>
<polygon fill="#9a32cd" stroke="#9a32cd" points="127.75,-65.98 131.25,-75.98 134.75,-65.98 127.75,-65.98"/>
</a>
</g>
<text text-anchor="middle" x="153.38" y="-50.25" font-family="Helvetica,sans-Serif" font-size="10.00" fill="grey"> _instance</text>
</g>
<!-- Node3 -->
<g id="Node000003" class="node">
<title>Node3</title>
<g id="a_Node000003"><a xlink:title=" ">
<polygon fill="white" stroke="#666666" points="128.5,-169.12 0,-169.12 0,-149.88 128.5,-149.88 128.5,-169.12"/>
<text text-anchor="middle" x="64.25" y="-155.62" font-family="Helvetica,sans-Serif" font-size="10.00">google::protobuf::Message</text>
</a>
</g>
</g>
<!-- Node3&#45;&gt;Node2 -->
<g id="edge2_Node000002_Node000003" class="edge">
<title>Node3&#45;&gt;Node2</title>
<g id="a_edge2_Node000002_Node000003"><a xlink:title=" ">
<path fill="none" stroke="#63b8ff" d="M80.61,-141.37C93.87,-127.49 112.04,-108.48 122.62,-97.41"/>
<polygon fill="#63b8ff" stroke="#63b8ff" points="78.16,-138.88 73.78,-148.52 83.22,-143.71 78.16,-138.88"/>
</a>
</g>
</g>
<!-- Node4 -->
<g id="Node000004" class="node">
<title>Node4</title>
<g id="a_Node000004"><a xlink:href="structwib_1_1LogControl__Log_1_1Impl__.html" target="_top" xlink:title=" ">
<polygon fill="white" stroke="#666666" points="251.5,-174.75 147,-174.75 147,-144.25 251.5,-144.25 251.5,-174.75"/>
<text text-anchor="start" x="155" y="-161.25" font-family="Helvetica,sans-Serif" font-size="10.00">wib::LogControl_Log</text>
<text text-anchor="middle" x="199.25" y="-150" font-family="Helvetica,sans-Serif" font-size="10.00">::Impl_</text>
</a>
</g>
</g>
<!-- Node4&#45;&gt;Node2 -->
<g id="edge3_Node000002_Node000004" class="edge">
<title>Node4&#45;&gt;Node2</title>
<g id="a_edge3_Node000002_Node000004"><a xlink:title=" ">
<path fill="none" stroke="#9a32cd" stroke-dasharray="5,2" d="M177.22,-135.79C164.44,-122.61 149.08,-106.76 139.74,-97.13"/>
<polygon fill="#9a32cd" stroke="#9a32cd" points="174.63,-138.14 184.11,-142.88 179.66,-133.27 174.63,-138.14"/>
</a>
</g>
<text text-anchor="middle" x="182.62" y="-116.75" font-family="Helvetica,sans-Serif" font-size="10.00" fill="grey"> _impl_</text>
</g>
</g>
</svg>
