<?xml version="1.0" encoding="UTF-8" standalone="no"?>
<!DOCTYPE svg PUBLIC "-//W3C//DTD SVG 1.1//EN"
 "http://www.w3.org/Graphics/SVG/1.1/DTD/svg11.dtd">
<!-- Generated by graphviz version 9.0.0 (20230911.1827)
 -->
<!-- Title: dunedaq::datahandlinglibs::opmon::TPChannelInfoDefaultTypeInternal Pages: 1 -->
<svg width="302pt" height="205pt"
 viewBox="0.00 0.00 301.88 205.25" xmlns="http://www.w3.org/2000/svg" xmlns:xlink="http://www.w3.org/1999/xlink">
<g id="graph0" class="graph" transform="scale(1 1) rotate(0) translate(4 201.25)">
<title>dunedaq::datahandlinglibs::opmon::TPChannelInfoDefaultTypeInternal</title>
<!-- Node1 -->
<g id="Node000001" class="node">
<title>Node1</title>
<g id="a_Node000001"><a xlink:title=" ">
<polygon fill="#999999" stroke="#666666" points="227.5,-41.75 57,-41.75 57,0 227.5,0 227.5,-41.75"/>
<text text-anchor="start" x="65" y="-28.25" font-family="Helvetica,sans-Serif" font-size="10.00">dunedaq::datahandlinglibs</text>
<text text-anchor="start" x="65" y="-17" font-family="Helvetica,sans-Serif" font-size="10.00">::opmon::TPChannelInfoDefaultType</text>
<text text-anchor="middle" x="142.25" y="-5.75" font-family="Helvetica,sans-Serif" font-size="10.00">Internal</text>
</a>
</g>
</g>
<!-- Node2 -->
<g id="Node000002" class="node">
<title>Node2</title>
<g id="a_Node000002"><a xlink:href="classdunedaq_1_1datahandlinglibs_1_1opmon_1_1TPChannelInfo.html" target="_top" xlink:title=" ">
<polygon fill="white" stroke="#666666" points="205.75,-119.5 78.75,-119.5 78.75,-89 205.75,-89 205.75,-119.5"/>
<text text-anchor="start" x="86.75" y="-106" font-family="Helvetica,sans-Serif" font-size="10.00">dunedaq::datahandlinglibs</text>
<text text-anchor="middle" x="142.25" y="-94.75" font-family="Helvetica,sans-Serif" font-size="10.00">::opmon::TPChannelInfo</text>
</a>
</g>
</g>
<!-- Node2&#45;&gt;Node1 -->
<g id="edge1_Node000001_Node000002" class="edge">
<title>Node2&#45;&gt;Node1</title>
<g id="a_edge1_Node000001_Node000002"><a xlink:title=" ">
<path fill="none" stroke="#9a32cd" stroke-dasharray="5,2" d="M142.25,-77.26C142.25,-65.88 142.25,-52.73 142.25,-42.1"/>
<polygon fill="#9a32cd" stroke="#9a32cd" points="138.75,-77.19 142.25,-87.19 145.75,-77.19 138.75,-77.19"/>
</a>
</g>
<text text-anchor="middle" x="164.38" y="-61.5" font-family="Helvetica,sans-Serif" font-size="10.00" fill="grey"> _instance</text>
</g>
<!-- Node3 -->
<g id="Node000003" class="node">
<title>Node3</title>
<g id="a_Node000003"><a xlink:title=" ">
<polygon fill="white" stroke="#666666" points="128.5,-191.62 0,-191.62 0,-172.38 128.5,-172.38 128.5,-191.62"/>
<text text-anchor="middle" x="64.25" y="-178.12" font-family="Helvetica,sans-Serif" font-size="10.00">google::protobuf::Message</text>
</a>
</g>
</g>
<!-- Node3&#45;&gt;Node2 -->
<g id="edge2_Node000002_Node000003" class="edge">
<title>Node3&#45;&gt;Node2</title>
<g id="a_edge2_Node000002_Node000003"><a xlink:title=" ">
<path fill="none" stroke="#63b8ff" d="M81.61,-164.14C95.26,-150.88 114.09,-132.6 127.12,-119.94"/>
<polygon fill="#63b8ff" stroke="#63b8ff" points="79.33,-161.48 74.59,-170.96 84.2,-166.5 79.33,-161.48"/>
</a>
</g>
</g>
<!-- Node4 -->
<g id="Node000004" class="node">
<title>Node4</title>
<g id="a_Node000004"><a xlink:href="structdunedaq_1_1datahandlinglibs_1_1opmon_1_1TPChannelInfo_1_1Impl__.html" target="_top" xlink:title=" ">
<polygon fill="white" stroke="#666666" points="293.88,-197.25 146.62,-197.25 146.62,-166.75 293.88,-166.75 293.88,-197.25"/>
<text text-anchor="start" x="154.62" y="-183.75" font-family="Helvetica,sans-Serif" font-size="10.00">dunedaq::datahandlinglibs</text>
<text text-anchor="middle" x="220.25" y="-172.5" font-family="Helvetica,sans-Serif" font-size="10.00">::opmon::TPChannelInfo::Impl_</text>
</a>
</g>
</g>
<!-- Node4&#45;&gt;Node2 -->
<g id="edge3_Node000002_Node000004" class="edge">
<title>Node4&#45;&gt;Node2</title>
<g id="a_edge3_Node000002_Node000004"><a xlink:title=" ">
<path fill="none" stroke="#9a32cd" stroke-dasharray="5,2" d="M197.21,-158.62C184.29,-146.08 168.56,-130.8 157.24,-119.81"/>
<polygon fill="#9a32cd" stroke="#9a32cd" points="194.51,-160.88 204.13,-165.34 199.39,-155.86 194.51,-160.88"/>
</a>
</g>
<text text-anchor="middle" x="201.62" y="-139.25" font-family="Helvetica,sans-Serif" font-size="10.00" fill="grey"> _impl_</text>
</g>
</g>
</svg>
