<?xml version="1.0" encoding="UTF-8" standalone="no"?>
<!DOCTYPE svg PUBLIC "-//W3C//DTD SVG 1.1//EN"
 "http://www.w3.org/Graphics/SVG/1.1/DTD/svg11.dtd">
<!-- Generated by graphviz version 9.0.0 (20230911.1827)
 -->
<!-- Title: dunedaq::dfmodules::opmon::DataWriterInfoDefaultTypeInternal Pages: 1 -->
<svg width="272pt" height="217pt"
 viewBox="0.00 0.00 271.50 216.50" xmlns="http://www.w3.org/2000/svg" xmlns:xlink="http://www.w3.org/1999/xlink">
<g id="graph0" class="graph" transform="scale(1 1) rotate(0) translate(4 212.5)">
<title>dunedaq::dfmodules::opmon::DataWriterInfoDefaultTypeInternal</title>
<!-- Node1 -->
<g id="Node000001" class="node">
<title>Node1</title>
<g id="a_Node000001"><a xlink:title=" ">
<polygon fill="#999999" stroke="#666666" points="207.88,-41.75 60.62,-41.75 60.62,0 207.88,0 207.88,-41.75"/>
<text text-anchor="start" x="68.62" y="-28.25" font-family="Helvetica,sans-Serif" font-size="10.00">dunedaq::dfmodules</text>
<text text-anchor="start" x="68.62" y="-17" font-family="Helvetica,sans-Serif" font-size="10.00">::opmon::DataWriterInfoDefault</text>
<text text-anchor="middle" x="134.25" y="-5.75" font-family="Helvetica,sans-Serif" font-size="10.00">TypeInternal</text>
</a>
</g>
</g>
<!-- Node2 -->
<g id="Node000002" class="node">
<title>Node2</title>
<g id="a_Node000002"><a xlink:href="classdunedaq_1_1dfmodules_1_1opmon_1_1DataWriterInfo.html" target="_top" xlink:title=" ">
<polygon fill="white" stroke="#666666" points="192.5,-119.5 76,-119.5 76,-89 192.5,-89 192.5,-119.5"/>
<text text-anchor="start" x="84" y="-106" font-family="Helvetica,sans-Serif" font-size="10.00">dunedaq::dfmodules</text>
<text text-anchor="middle" x="134.25" y="-94.75" font-family="Helvetica,sans-Serif" font-size="10.00">::opmon::DataWriterInfo</text>
</a>
</g>
</g>
<!-- Node2&#45;&gt;Node1 -->
<g id="edge1_Node000001_Node000002" class="edge">
<title>Node2&#45;&gt;Node1</title>
<g id="a_edge1_Node000001_Node000002"><a xlink:title=" ">
<path fill="none" stroke="#9a32cd" stroke-dasharray="5,2" d="M134.25,-77.26C134.25,-65.88 134.25,-52.73 134.25,-42.1"/>
<polygon fill="#9a32cd" stroke="#9a32cd" points="130.75,-77.19 134.25,-87.19 137.75,-77.19 130.75,-77.19"/>
</a>
</g>
<text text-anchor="middle" x="156.38" y="-61.5" font-family="Helvetica,sans-Serif" font-size="10.00" fill="grey"> _instance</text>
</g>
<!-- Node3 -->
<g id="Node000003" class="node">
<title>Node3</title>
<g id="a_Node000003"><a xlink:title=" ">
<polygon fill="white" stroke="#666666" points="128.5,-197.25 0,-197.25 0,-178 128.5,-178 128.5,-197.25"/>
<text text-anchor="middle" x="64.25" y="-183.75" font-family="Helvetica,sans-Serif" font-size="10.00">google::protobuf::Message</text>
</a>
</g>
</g>
<!-- Node3&#45;&gt;Node2 -->
<g id="edge2_Node000002_Node000003" class="edge">
<title>Node3&#45;&gt;Node2</title>
<g id="a_edge2_Node000002_Node000003"><a xlink:title=" ">
<path fill="none" stroke="#63b8ff" d="M79.47,-168.94C92.12,-154.23 109.9,-133.55 121.74,-119.79"/>
<polygon fill="#63b8ff" stroke="#63b8ff" points="76.86,-166.59 73,-176.46 82.17,-171.16 76.86,-166.59"/>
</a>
</g>
</g>
<!-- Node4 -->
<g id="Node000004" class="node">
<title>Node4</title>
<g id="a_Node000004"><a xlink:href="structdunedaq_1_1dfmodules_1_1opmon_1_1DataWriterInfo_1_1Impl__.html" target="_top" xlink:title=" ">
<polygon fill="white" stroke="#666666" points="263.5,-208.5 147,-208.5 147,-166.75 263.5,-166.75 263.5,-208.5"/>
<text text-anchor="start" x="155" y="-195" font-family="Helvetica,sans-Serif" font-size="10.00">dunedaq::dfmodules</text>
<text text-anchor="start" x="155" y="-183.75" font-family="Helvetica,sans-Serif" font-size="10.00">::opmon::DataWriterInfo</text>
<text text-anchor="middle" x="205.25" y="-172.5" font-family="Helvetica,sans-Serif" font-size="10.00">::Impl_</text>
</a>
</g>
</g>
<!-- Node4&#45;&gt;Node2 -->
<g id="edge3_Node000002_Node000004" class="edge">
<title>Node4&#45;&gt;Node2</title>
<g id="a_edge3_Node000002_Node000004"><a xlink:title=" ">
<path fill="none" stroke="#9a32cd" stroke-dasharray="5,2" d="M180.21,-157.93C168.95,-145.02 156.15,-130.35 146.92,-119.77"/>
<polygon fill="#9a32cd" stroke="#9a32cd" points="177.49,-160.14 186.7,-165.37 182.77,-155.53 177.49,-160.14"/>
</a>
</g>
<text text-anchor="middle" x="186.62" y="-139.25" font-family="Helvetica,sans-Serif" font-size="10.00" fill="grey"> _impl_</text>
</g>
</g>
</svg>
