<?xml version="1.0" encoding="UTF-8" standalone="no"?>
<!DOCTYPE svg PUBLIC "-//W3C//DTD SVG 1.1//EN"
 "http://www.w3.org/Graphics/SVG/1.1/DTD/svg11.dtd">
<!-- Generated by graphviz version 9.0.0 (20230911.1827)
 -->
<!-- Title: wib::RecompileDefaultTypeInternal Pages: 1 -->
<svg width="141pt" height="173pt"
 viewBox="0.00 0.00 141.00 172.50" xmlns="http://www.w3.org/2000/svg" xmlns:xlink="http://www.w3.org/1999/xlink">
<g id="graph0" class="graph" transform="scale(1 1) rotate(0) translate(4 168.5)">
<title>wib::RecompileDefaultTypeInternal</title>
<!-- Node1 -->
<g id="Node000001" class="node">
<title>Node1</title>
<g id="a_Node000001"><a xlink:title=" ">
<polygon fill="#999999" stroke="#666666" points="133,-30.5 0,-30.5 0,0 133,0 133,-30.5"/>
<text text-anchor="start" x="8" y="-17" font-family="Helvetica,sans-Serif" font-size="10.00">wib::RecompileDefaultType</text>
<text text-anchor="middle" x="66.5" y="-5.75" font-family="Helvetica,sans-Serif" font-size="10.00">Internal</text>
</a>
</g>
</g>
<!-- Node2 -->
<g id="Node000002" class="node">
<title>Node2</title>
<g id="a_Node000002"><a xlink:href="classwib_1_1Recompile.html" target="_top" xlink:title=" ">
<polygon fill="white" stroke="#666666" points="107.12,-97 25.88,-97 25.88,-77.75 107.12,-77.75 107.12,-97"/>
<text text-anchor="middle" x="66.5" y="-83.5" font-family="Helvetica,sans-Serif" font-size="10.00">wib::Recompile</text>
</a>
</g>
</g>
<!-- Node2&#45;&gt;Node1 -->
<g id="edge1_Node000001_Node000002" class="edge">
<title>Node2&#45;&gt;Node1</title>
<g id="a_edge1_Node000001_Node000002"><a xlink:title=" ">
<path fill="none" stroke="#9a32cd" stroke-dasharray="5,2" d="M66.5,-66.17C66.5,-54.91 66.5,-41.14 66.5,-30.92"/>
<polygon fill="#9a32cd" stroke="#9a32cd" points="63,-65.98 66.5,-75.98 70,-65.98 63,-65.98"/>
</a>
</g>
<text text-anchor="middle" x="88.62" y="-50.25" font-family="Helvetica,sans-Serif" font-size="10.00" fill="grey"> _instance</text>
</g>
<!-- Node3 -->
<g id="Node000003" class="node">
<title>Node3</title>
<g id="a_Node000003"><a xlink:title=" ">
<polygon fill="white" stroke="#666666" points="126.62,-164.5 6.38,-164.5 6.38,-134 126.62,-134 126.62,-164.5"/>
<text text-anchor="start" x="14.38" y="-151" font-family="Helvetica,sans-Serif" font-size="10.00">google::protobuf::internal</text>
<text text-anchor="middle" x="66.5" y="-139.75" font-family="Helvetica,sans-Serif" font-size="10.00">::ZeroFieldsBase</text>
</a>
</g>
</g>
<!-- Node3&#45;&gt;Node2 -->
<g id="edge2_Node000002_Node000003" class="edge">
<title>Node3&#45;&gt;Node2</title>
<g id="a_edge2_Node000002_Node000003"><a xlink:title=" ">
<path fill="none" stroke="#63b8ff" d="M66.5,-122.52C66.5,-113.54 66.5,-104.04 66.5,-97.35"/>
<polygon fill="#63b8ff" stroke="#63b8ff" points="63,-122.24 66.5,-132.24 70,-122.24 63,-122.24"/>
</a>
</g>
</g>
</g>
</svg>
