<?xml version="1.0" encoding="UTF-8" standalone="no"?>
<!DOCTYPE svg PUBLIC "-//W3C//DTD SVG 1.1//EN"
 "http://www.w3.org/Graphics/SVG/1.1/DTD/svg11.dtd">
<!-- Generated by graphviz version 9.0.0 (20230911.1827)
 -->
<!-- Title: dbe::config_object_representation&lt; S &gt; Pages: 1 -->
<svg width="212pt" height="105pt"
 viewBox="0.00 0.00 212.25 105.00" xmlns="http://www.w3.org/2000/svg" xmlns:xlink="http://www.w3.org/1999/xlink">
<g id="graph0" class="graph" transform="scale(1 1) rotate(0) translate(4 101)">
<title>dbe::config_object_representation&lt; S &gt;</title>
<!-- Node1 -->
<g id="Node000001" class="node">
<title>Node1</title>
<g id="a_Node000001"><a xlink:title=" ">
<polygon fill="#999999" stroke="#666666" points="154.62,-97 48.62,-97 48.62,-66.5 154.62,-66.5 154.62,-97"/>
<text text-anchor="start" x="56.62" y="-83.5" font-family="Helvetica,sans-Serif" font-size="10.00">dbe::config_object</text>
<text text-anchor="middle" x="101.62" y="-72.25" font-family="Helvetica,sans-Serif" font-size="10.00">_representation&lt; S &gt;</text>
</a>
</g>
</g>
<!-- Node2 -->
<g id="Node000002" class="node">
<title>Node2</title>
<g id="a_Node000002"><a xlink:href="structdbe_1_1config__object__aggregates.html" target="_top" xlink:title=" ">
<polygon fill="white" stroke="#666666" points="93.25,-30.5 0,-30.5 0,0 93.25,0 93.25,-30.5"/>
<text text-anchor="start" x="8" y="-17" font-family="Helvetica,sans-Serif" font-size="10.00">dbe::config_object</text>
<text text-anchor="middle" x="46.62" y="-5.75" font-family="Helvetica,sans-Serif" font-size="10.00">_aggregates&lt; S &gt;</text>
</a>
</g>
</g>
<!-- Node1&#45;&gt;Node2 -->
<g id="edge1_Node000001_Node000002" class="edge">
<title>Node1&#45;&gt;Node2</title>
<g id="a_edge1_Node000001_Node000002"><a xlink:title=" ">
<path fill="none" stroke="#63b8ff" d="M81.91,-57.63C74.29,-48.69 65.8,-38.74 59.06,-30.83"/>
<polygon fill="#63b8ff" stroke="#63b8ff" points="79.01,-59.62 88.16,-64.96 84.34,-55.08 79.01,-59.62"/>
</a>
</g>
</g>
<!-- Node3 -->
<g id="Node000003" class="node">
<title>Node3</title>
<g id="a_Node000003"><a xlink:href="structdbe_1_1config__object__linked.html" target="_top" xlink:title=" ">
<polygon fill="white" stroke="#666666" points="204.25,-30.5 111,-30.5 111,0 204.25,0 204.25,-30.5"/>
<text text-anchor="start" x="119" y="-17" font-family="Helvetica,sans-Serif" font-size="10.00">dbe::config_object</text>
<text text-anchor="middle" x="157.62" y="-5.75" font-family="Helvetica,sans-Serif" font-size="10.00">_linked&lt; S &gt;</text>
</a>
</g>
</g>
<!-- Node1&#45;&gt;Node3 -->
<g id="edge2_Node000001_Node000003" class="edge">
<title>Node1&#45;&gt;Node3</title>
<g id="a_edge2_Node000001_Node000003"><a xlink:title=" ">
<path fill="none" stroke="#63b8ff" d="M121.7,-57.63C129.46,-48.69 138.1,-38.74 144.97,-30.83"/>
<polygon fill="#63b8ff" stroke="#63b8ff" points="119.24,-55.13 115.32,-64.97 124.52,-59.71 119.24,-55.13"/>
</a>
</g>
</g>
</g>
</svg>
