<?xml version="1.0" encoding="UTF-8" standalone="no"?>
<!DOCTYPE svg PUBLIC "-//W3C//DTD SVG 1.1//EN"
 "http://www.w3.org/Graphics/SVG/1.1/DTD/svg11.dtd">
<!-- Generated by graphviz version 9.0.0 (20230911.1827)
 -->
<!-- Title: wib::GetSWVersion_VersionDefaultTypeInternal Pages: 1 -->
<svg width="292pt" height="183pt"
 viewBox="0.00 0.00 292.38 182.75" xmlns="http://www.w3.org/2000/svg" xmlns:xlink="http://www.w3.org/1999/xlink">
<g id="graph0" class="graph" transform="scale(1 1) rotate(0) translate(4 178.75)">
<title>wib::GetSWVersion_VersionDefaultTypeInternal</title>
<!-- Node1 -->
<g id="Node000001" class="node">
<title>Node1</title>
<g id="a_Node000001"><a xlink:title=" ">
<polygon fill="#999999" stroke="#666666" points="208.38,-30.5 70.12,-30.5 70.12,0 208.38,0 208.38,-30.5"/>
<text text-anchor="start" x="78.12" y="-17" font-family="Helvetica,sans-Serif" font-size="10.00">wib::GetSWVersion_Version</text>
<text text-anchor="middle" x="139.25" y="-5.75" font-family="Helvetica,sans-Serif" font-size="10.00">DefaultTypeInternal</text>
</a>
</g>
</g>
<!-- Node2 -->
<g id="Node000002" class="node">
<title>Node2</title>
<g id="a_Node000002"><a xlink:href="classwib_1_1GetSWVersion__Version.html" target="_top" xlink:title=" ">
<polygon fill="white" stroke="#666666" points="208.38,-97 70.12,-97 70.12,-77.75 208.38,-77.75 208.38,-97"/>
<text text-anchor="middle" x="139.25" y="-83.5" font-family="Helvetica,sans-Serif" font-size="10.00">wib::GetSWVersion_Version</text>
</a>
</g>
</g>
<!-- Node2&#45;&gt;Node1 -->
<g id="edge1_Node000001_Node000002" class="edge">
<title>Node2&#45;&gt;Node1</title>
<g id="a_edge1_Node000001_Node000002"><a xlink:title=" ">
<path fill="none" stroke="#9a32cd" stroke-dasharray="5,2" d="M139.25,-66.17C139.25,-54.91 139.25,-41.14 139.25,-30.92"/>
<polygon fill="#9a32cd" stroke="#9a32cd" points="135.75,-65.98 139.25,-75.98 142.75,-65.98 135.75,-65.98"/>
</a>
</g>
<text text-anchor="middle" x="161.38" y="-50.25" font-family="Helvetica,sans-Serif" font-size="10.00" fill="grey"> _instance</text>
</g>
<!-- Node3 -->
<g id="Node000003" class="node">
<title>Node3</title>
<g id="a_Node000003"><a xlink:title=" ">
<polygon fill="white" stroke="#666666" points="128.5,-169.12 0,-169.12 0,-149.88 128.5,-149.88 128.5,-169.12"/>
<text text-anchor="middle" x="64.25" y="-155.62" font-family="Helvetica,sans-Serif" font-size="10.00">google::protobuf::Message</text>
</a>
</g>
</g>
<!-- Node3&#45;&gt;Node2 -->
<g id="edge2_Node000002_Node000003" class="edge">
<title>Node3&#45;&gt;Node2</title>
<g id="a_edge2_Node000002_Node000003"><a xlink:title=" ">
<path fill="none" stroke="#63b8ff" d="M82.14,-141.77C97.02,-127.86 117.63,-108.59 129.59,-97.41"/>
<polygon fill="#63b8ff" stroke="#63b8ff" points="79.77,-139.2 74.85,-148.58 84.55,-144.31 79.77,-139.2"/>
</a>
</g>
</g>
<!-- Node4 -->
<g id="Node000004" class="node">
<title>Node4</title>
<g id="a_Node000004"><a xlink:href="structwib_1_1GetSWVersion__Version_1_1Impl__.html" target="_top" xlink:title=" ">
<polygon fill="white" stroke="#666666" points="284.38,-174.75 146.12,-174.75 146.12,-144.25 284.38,-144.25 284.38,-174.75"/>
<text text-anchor="start" x="154.12" y="-161.25" font-family="Helvetica,sans-Serif" font-size="10.00">wib::GetSWVersion_Version</text>
<text text-anchor="middle" x="215.25" y="-150" font-family="Helvetica,sans-Serif" font-size="10.00">::Impl_</text>
</a>
</g>
</g>
<!-- Node4&#45;&gt;Node2 -->
<g id="edge3_Node000002_Node000004" class="edge">
<title>Node4&#45;&gt;Node2</title>
<g id="a_edge3_Node000002_Node000004"><a xlink:title=" ">
<path fill="none" stroke="#9a32cd" stroke-dasharray="5,2" d="M191.04,-136.16C176.68,-122.91 159.27,-106.85 148.74,-97.13"/>
<polygon fill="#9a32cd" stroke="#9a32cd" points="188.67,-138.73 198.39,-142.94 193.41,-133.59 188.67,-138.73"/>
</a>
</g>
<text text-anchor="middle" x="195.62" y="-116.75" font-family="Helvetica,sans-Serif" font-size="10.00" fill="grey"> _impl_</text>
</g>
</g>
</svg>
