<?xml version="1.0" encoding="UTF-8" standalone="no"?>
<!DOCTYPE svg PUBLIC "-//W3C//DTD SVG 1.1//EN"
 "http://www.w3.org/Graphics/SVG/1.1/DTD/svg11.dtd">
<!-- Generated by graphviz version 9.0.0 (20230911.1827)
 -->
<!-- Title: dunedaq::trigger::opmon::RandomTCMakerInfoDefaultTypeInternal Pages: 1 -->
<svg width="296pt" height="205pt"
 viewBox="0.00 0.00 295.88 205.25" xmlns="http://www.w3.org/2000/svg" xmlns:xlink="http://www.w3.org/1999/xlink">
<g id="graph0" class="graph" transform="scale(1 1) rotate(0) translate(4 201.25)">
<title>dunedaq::trigger::opmon::RandomTCMakerInfoDefaultTypeInternal</title>
<!-- Node1 -->
<g id="Node000001" class="node">
<title>Node1</title>
<g id="a_Node000001"><a xlink:title=" ">
<polygon fill="#999999" stroke="#666666" points="222.5,-41.75 58,-41.75 58,0 222.5,0 222.5,-41.75"/>
<text text-anchor="start" x="66" y="-28.25" font-family="Helvetica,sans-Serif" font-size="10.00">dunedaq::trigger::opmon</text>
<text text-anchor="start" x="66" y="-17" font-family="Helvetica,sans-Serif" font-size="10.00">::RandomTCMakerInfoDefaultType</text>
<text text-anchor="middle" x="140.25" y="-5.75" font-family="Helvetica,sans-Serif" font-size="10.00">Internal</text>
</a>
</g>
</g>
<!-- Node2 -->
<g id="Node000002" class="node">
<title>Node2</title>
<g id="a_Node000002"><a xlink:href="classdunedaq_1_1trigger_1_1opmon_1_1RandomTCMakerInfo.html" target="_top" xlink:title=" ">
<polygon fill="white" stroke="#666666" points="199.25,-119.5 81.25,-119.5 81.25,-89 199.25,-89 199.25,-119.5"/>
<text text-anchor="start" x="89.25" y="-106" font-family="Helvetica,sans-Serif" font-size="10.00">dunedaq::trigger::opmon</text>
<text text-anchor="middle" x="140.25" y="-94.75" font-family="Helvetica,sans-Serif" font-size="10.00">::RandomTCMakerInfo</text>
</a>
</g>
</g>
<!-- Node2&#45;&gt;Node1 -->
<g id="edge1_Node000001_Node000002" class="edge">
<title>Node2&#45;&gt;Node1</title>
<g id="a_edge1_Node000001_Node000002"><a xlink:title=" ">
<path fill="none" stroke="#9a32cd" stroke-dasharray="5,2" d="M140.25,-77.26C140.25,-65.88 140.25,-52.73 140.25,-42.1"/>
<polygon fill="#9a32cd" stroke="#9a32cd" points="136.75,-77.19 140.25,-87.19 143.75,-77.19 136.75,-77.19"/>
</a>
</g>
<text text-anchor="middle" x="162.38" y="-61.5" font-family="Helvetica,sans-Serif" font-size="10.00" fill="grey"> _instance</text>
</g>
<!-- Node3 -->
<g id="Node000003" class="node">
<title>Node3</title>
<g id="a_Node000003"><a xlink:title=" ">
<polygon fill="white" stroke="#666666" points="128.5,-191.62 0,-191.62 0,-172.38 128.5,-172.38 128.5,-191.62"/>
<text text-anchor="middle" x="64.25" y="-178.12" font-family="Helvetica,sans-Serif" font-size="10.00">google::protobuf::Message</text>
</a>
</g>
</g>
<!-- Node3&#45;&gt;Node2 -->
<g id="edge2_Node000002_Node000003" class="edge">
<title>Node3&#45;&gt;Node2</title>
<g id="a_edge2_Node000002_Node000003"><a xlink:title=" ">
<path fill="none" stroke="#63b8ff" d="M81.17,-164.14C94.47,-150.88 112.81,-132.6 125.51,-119.94"/>
<polygon fill="#63b8ff" stroke="#63b8ff" points="78.95,-161.41 74.34,-170.94 83.89,-166.36 78.95,-161.41"/>
</a>
</g>
</g>
<!-- Node4 -->
<g id="Node000004" class="node">
<title>Node4</title>
<g id="a_Node000004"><a xlink:href="structdunedaq_1_1trigger_1_1opmon_1_1RandomTCMakerInfo_1_1Impl__.html" target="_top" xlink:title=" ">
<polygon fill="white" stroke="#666666" points="287.88,-197.25 146.62,-197.25 146.62,-166.75 287.88,-166.75 287.88,-197.25"/>
<text text-anchor="start" x="154.62" y="-183.75" font-family="Helvetica,sans-Serif" font-size="10.00">dunedaq::trigger::opmon</text>
<text text-anchor="middle" x="217.25" y="-172.5" font-family="Helvetica,sans-Serif" font-size="10.00">::RandomTCMakerInfo::Impl_</text>
</a>
</g>
</g>
<!-- Node4&#45;&gt;Node2 -->
<g id="edge3_Node000002_Node000004" class="edge">
<title>Node4&#45;&gt;Node2</title>
<g id="a_edge3_Node000002_Node000004"><a xlink:title=" ">
<path fill="none" stroke="#9a32cd" stroke-dasharray="5,2" d="M194.5,-158.62C181.76,-146.08 166.22,-130.8 155.05,-119.81"/>
<polygon fill="#9a32cd" stroke="#9a32cd" points="191.74,-160.82 201.32,-165.33 196.65,-155.83 191.74,-160.82"/>
</a>
</g>
<text text-anchor="middle" x="198.62" y="-139.25" font-family="Helvetica,sans-Serif" font-size="10.00" fill="grey"> _impl_</text>
</g>
</g>
</svg>
