<?xml version="1.0" encoding="UTF-8" standalone="no"?>
<!DOCTYPE svg PUBLIC "-//W3C//DTD SVG 1.1//EN"
 "http://www.w3.org/Graphics/SVG/1.1/DTD/svg11.dtd">
<!-- Generated by graphviz version 9.0.0 (20230911.1827)
 -->
<!-- Title: dunedaq::ersschema::IssueChain::Impl_ Pages: 1 -->
<svg width="260pt" height="350pt"
 viewBox="0.00 0.00 259.88 349.50" xmlns="http://www.w3.org/2000/svg" xmlns:xlink="http://www.w3.org/1999/xlink">
<g id="graph0" class="graph" transform="scale(1 1) rotate(0) translate(4 345.5)">
<title>dunedaq::ersschema::IssueChain::Impl_</title>
<!-- Node1 -->
<g id="Node000001" class="node">
<title>Node1</title>
<g id="a_Node000001"><a xlink:title=" ">
<polygon fill="#999999" stroke="#666666" points="132.88,-30.5 27.62,-30.5 27.62,0 132.88,0 132.88,-30.5"/>
<text text-anchor="start" x="35.62" y="-17" font-family="Helvetica,sans-Serif" font-size="10.00">dunedaq::ersschema</text>
<text text-anchor="middle" x="80.25" y="-5.75" font-family="Helvetica,sans-Serif" font-size="10.00">::IssueChain::Impl_</text>
</a>
</g>
</g>
<!-- Node2 -->
<g id="Node000002" class="node">
<title>Node2</title>
<g id="a_Node000002"><a xlink:href="classdunedaq_1_1ersschema_1_1SimpleIssue.html" target="_top" xlink:title=" ">
<polygon fill="white" stroke="#666666" points="132.88,-108.25 27.62,-108.25 27.62,-77.75 132.88,-77.75 132.88,-108.25"/>
<text text-anchor="start" x="35.62" y="-94.75" font-family="Helvetica,sans-Serif" font-size="10.00">dunedaq::ersschema</text>
<text text-anchor="middle" x="80.25" y="-83.5" font-family="Helvetica,sans-Serif" font-size="10.00">::SimpleIssue</text>
</a>
</g>
</g>
<!-- Node2&#45;&gt;Node1 -->
<g id="edge1_Node000001_Node000002" class="edge">
<title>Node2&#45;&gt;Node1</title>
<g id="a_edge1_Node000001_Node000002"><a xlink:title=" ">
<path fill="none" stroke="#9a32cd" stroke-dasharray="5,2" d="M80.25,-65.97C80.25,-54.21 80.25,-40.76 80.25,-30.81"/>
<polygon fill="#9a32cd" stroke="#9a32cd" points="76.75,-65.88 80.25,-75.88 83.75,-65.88 76.75,-65.88"/>
</a>
</g>
<text text-anchor="middle" x="92.62" y="-50.25" font-family="Helvetica,sans-Serif" font-size="10.00" fill="grey"> final_</text>
</g>
<!-- Node3 -->
<g id="Node000003" class="node">
<title>Node3</title>
<g id="a_Node000003"><a xlink:title=" ">
<polygon fill="white" stroke="#666666" points="128.5,-335.88 0,-335.88 0,-316.62 128.5,-316.62 128.5,-335.88"/>
<text text-anchor="middle" x="64.25" y="-322.38" font-family="Helvetica,sans-Serif" font-size="10.00">google::protobuf::Message</text>
</a>
</g>
</g>
<!-- Node3&#45;&gt;Node2 -->
<g id="edge2_Node000002_Node000003" class="edge">
<title>Node3&#45;&gt;Node2</title>
<g id="a_edge2_Node000002_Node000003"><a xlink:title=" ">
<path fill="none" stroke="#63b8ff" d="M65.66,-304.83C68.84,-258.91 76.49,-148.41 79.24,-108.6"/>
<polygon fill="#63b8ff" stroke="#63b8ff" points="62.18,-304.46 64.98,-314.67 69.16,-304.94 62.18,-304.46"/>
</a>
</g>
</g>
<!-- Node5 -->
<g id="Node000005" class="node">
<title>Node5</title>
<g id="a_Node000005"><a xlink:href="classdunedaq_1_1ersschema_1_1Context.html" target="_top" xlink:title=" ">
<polygon fill="white" stroke="#666666" points="197.88,-263.75 92.62,-263.75 92.62,-233.25 197.88,-233.25 197.88,-263.75"/>
<text text-anchor="start" x="100.62" y="-250.25" font-family="Helvetica,sans-Serif" font-size="10.00">dunedaq::ersschema</text>
<text text-anchor="middle" x="145.25" y="-239" font-family="Helvetica,sans-Serif" font-size="10.00">::Context</text>
</a>
</g>
</g>
<!-- Node3&#45;&gt;Node5 -->
<g id="edge5_Node000005_Node000003" class="edge">
<title>Node3&#45;&gt;Node5</title>
<g id="a_edge5_Node000005_Node000003"><a xlink:title=" ">
<path fill="none" stroke="#63b8ff" d="M81.88,-308.76C96.08,-295.48 115.87,-276.97 129.54,-264.19"/>
<polygon fill="#63b8ff" stroke="#63b8ff" points="79.88,-305.84 74.97,-315.23 84.66,-310.96 79.88,-305.84"/>
</a>
</g>
</g>
<!-- Node4 -->
<g id="Node000004" class="node">
<title>Node4</title>
<g id="a_Node000004"><a xlink:href="structdunedaq_1_1ersschema_1_1SimpleIssue_1_1Impl__.html" target="_top" xlink:title=" ">
<polygon fill="white" stroke="#666666" points="197.88,-186 92.62,-186 92.62,-155.5 197.88,-155.5 197.88,-186"/>
<text text-anchor="start" x="100.62" y="-172.5" font-family="Helvetica,sans-Serif" font-size="10.00">dunedaq::ersschema</text>
<text text-anchor="middle" x="145.25" y="-161.25" font-family="Helvetica,sans-Serif" font-size="10.00">::SimpleIssue::Impl_</text>
</a>
</g>
</g>
<!-- Node4&#45;&gt;Node2 -->
<g id="edge3_Node000002_Node000004" class="edge">
<title>Node4&#45;&gt;Node2</title>
<g id="a_edge3_Node000002_Node000004"><a xlink:title=" ">
<path fill="none" stroke="#9a32cd" stroke-dasharray="5,2" d="M125.43,-146.65C114.79,-134.25 102,-119.34 92.74,-108.56"/>
<polygon fill="#9a32cd" stroke="#9a32cd" points="122.56,-148.69 131.73,-154 127.88,-144.13 122.56,-148.69"/>
</a>
</g>
<text text-anchor="middle" x="132.62" y="-128" font-family="Helvetica,sans-Serif" font-size="10.00" fill="grey"> _impl_</text>
</g>
<!-- Node5&#45;&gt;Node4 -->
<g id="edge4_Node000004_Node000005" class="edge">
<title>Node5&#45;&gt;Node4</title>
<g id="a_edge4_Node000004_Node000005"><a xlink:title=" ">
<path fill="none" stroke="#9a32cd" stroke-dasharray="5,2" d="M145.25,-221.47C145.25,-209.71 145.25,-196.26 145.25,-186.31"/>
<polygon fill="#9a32cd" stroke="#9a32cd" points="141.75,-221.38 145.25,-231.38 148.75,-221.38 141.75,-221.38"/>
</a>
</g>
<text text-anchor="middle" x="164.75" y="-205.75" font-family="Helvetica,sans-Serif" font-size="10.00" fill="grey"> context_</text>
</g>
<!-- Node6 -->
<g id="Node000006" class="node">
<title>Node6</title>
<g id="a_Node000006"><a xlink:href="structdunedaq_1_1ersschema_1_1Context_1_1Impl__.html" target="_top" xlink:title=" ">
<polygon fill="white" stroke="#666666" points="251.88,-341.5 146.62,-341.5 146.62,-311 251.88,-311 251.88,-341.5"/>
<text text-anchor="start" x="154.62" y="-328" font-family="Helvetica,sans-Serif" font-size="10.00">dunedaq::ersschema</text>
<text text-anchor="middle" x="199.25" y="-316.75" font-family="Helvetica,sans-Serif" font-size="10.00">::Context::Impl_</text>
</a>
</g>
</g>
<!-- Node6&#45;&gt;Node5 -->
<g id="edge6_Node000005_Node000006" class="edge">
<title>Node6&#45;&gt;Node5</title>
<g id="a_edge6_Node000005_Node000006"><a xlink:title=" ">
<path fill="none" stroke="#9a32cd" stroke-dasharray="5,2" d="M182.27,-301.43C173.53,-289.17 163.17,-274.63 155.63,-264.06"/>
<polygon fill="#9a32cd" stroke="#9a32cd" points="179.3,-303.3 187.96,-309.41 185,-299.24 179.3,-303.3"/>
</a>
</g>
<text text-anchor="middle" x="191.62" y="-283.5" font-family="Helvetica,sans-Serif" font-size="10.00" fill="grey"> _impl_</text>
</g>
</g>
</svg>
