<?xml version="1.0" encoding="UTF-8" standalone="no"?>
<!DOCTYPE svg PUBLIC "-//W3C//DTD SVG 1.1//EN"
 "http://www.w3.org/Graphics/SVG/1.1/DTD/svg11.dtd">
<!-- Generated by graphviz version 9.0.0 (20230911.1827)
 -->
<!-- Title: wib::UpdateDefaultTypeInternal Pages: 1 -->
<svg width="250pt" height="160pt"
 viewBox="0.00 0.00 250.00 160.25" xmlns="http://www.w3.org/2000/svg" xmlns:xlink="http://www.w3.org/1999/xlink">
<g id="graph0" class="graph" transform="scale(1 1) rotate(0) translate(4 156.25)">
<title>wib::UpdateDefaultTypeInternal</title>
<!-- Node1 -->
<g id="Node000001" class="node">
<title>Node1</title>
<g id="a_Node000001"><a xlink:title=" ">
<polygon fill="#999999" stroke="#666666" points="204.75,-19.25 53.75,-19.25 53.75,0 204.75,0 204.75,-19.25"/>
<text text-anchor="middle" x="129.25" y="-5.75" font-family="Helvetica,sans-Serif" font-size="10.00">wib::UpdateDefaultTypeInternal</text>
</a>
</g>
</g>
<!-- Node2 -->
<g id="Node000002" class="node">
<title>Node2</title>
<g id="a_Node000002"><a xlink:href="classwib_1_1Update.html" target="_top" xlink:title=" ">
<polygon fill="white" stroke="#666666" points="162.75,-85.75 95.75,-85.75 95.75,-66.5 162.75,-66.5 162.75,-85.75"/>
<text text-anchor="middle" x="129.25" y="-72.25" font-family="Helvetica,sans-Serif" font-size="10.00">wib::Update</text>
</a>
</g>
</g>
<!-- Node2&#45;&gt;Node1 -->
<g id="edge1_Node000001_Node000002" class="edge">
<title>Node2&#45;&gt;Node1</title>
<g id="a_edge1_Node000001_Node000002"><a xlink:title=" ">
<path fill="none" stroke="#9a32cd" stroke-dasharray="5,2" d="M129.25,-54.65C129.25,-42.82 129.25,-28.54 129.25,-19.52"/>
<polygon fill="#9a32cd" stroke="#9a32cd" points="125.75,-54.64 129.25,-64.64 132.75,-54.64 125.75,-54.64"/>
</a>
</g>
<text text-anchor="middle" x="151.38" y="-39" font-family="Helvetica,sans-Serif" font-size="10.00" fill="grey"> _instance</text>
</g>
<!-- Node3 -->
<g id="Node000003" class="node">
<title>Node3</title>
<g id="a_Node000003"><a xlink:title=" ">
<polygon fill="white" stroke="#666666" points="128.5,-152.25 0,-152.25 0,-133 128.5,-133 128.5,-152.25"/>
<text text-anchor="middle" x="64.25" y="-138.75" font-family="Helvetica,sans-Serif" font-size="10.00">google::protobuf::Message</text>
</a>
</g>
</g>
<!-- Node3&#45;&gt;Node2 -->
<g id="edge2_Node000002_Node000003" class="edge">
<title>Node3&#45;&gt;Node2</title>
<g id="a_edge2_Node000002_Node000003"><a xlink:title=" ">
<path fill="none" stroke="#63b8ff" d="M81.18,-124.83C93.69,-112.41 110.23,-96 120.29,-86.02"/>
<polygon fill="#63b8ff" stroke="#63b8ff" points="79,-122.06 74.36,-131.59 83.93,-127.03 79,-122.06"/>
</a>
</g>
</g>
<!-- Node4 -->
<g id="Node000004" class="node">
<title>Node4</title>
<g id="a_Node000004"><a xlink:href="structwib_1_1Update_1_1Impl__.html" target="_top" xlink:title=" ">
<polygon fill="white" stroke="#666666" points="242,-152.25 146.5,-152.25 146.5,-133 242,-133 242,-152.25"/>
<text text-anchor="middle" x="194.25" y="-138.75" font-family="Helvetica,sans-Serif" font-size="10.00">wib::Update::Impl_</text>
</a>
</g>
</g>
<!-- Node4&#45;&gt;Node2 -->
<g id="edge3_Node000002_Node000004" class="edge">
<title>Node4&#45;&gt;Node2</title>
<g id="a_edge3_Node000002_Node000004"><a xlink:title=" ">
<path fill="none" stroke="#9a32cd" stroke-dasharray="5,2" d="M177.32,-124.83C164.81,-112.41 148.27,-96 138.21,-86.02"/>
<polygon fill="#9a32cd" stroke="#9a32cd" points="174.57,-127.03 184.14,-131.59 179.5,-122.06 174.57,-127.03"/>
</a>
</g>
<text text-anchor="middle" x="180.62" y="-105.5" font-family="Helvetica,sans-Serif" font-size="10.00" fill="grey"> _impl_</text>
</g>
</g>
</svg>
