<?xml version="1.0" encoding="UTF-8" standalone="no"?>
<!DOCTYPE svg PUBLIC "-//W3C//DTD SVG 1.1//EN"
 "http://www.w3.org/Graphics/SVG/1.1/DTD/svg11.dtd">
<!-- Generated by graphviz version 9.0.0 (20230911.1827)
 -->
<!-- Title: dunedaq::opmon::OpMonEntry::Impl_ Pages: 1 -->
<svg width="286pt" height="183pt"
 viewBox="0.00 0.00 285.62 182.75" xmlns="http://www.w3.org/2000/svg" xmlns:xlink="http://www.w3.org/1999/xlink">
<g id="graph0" class="graph" transform="scale(1 1) rotate(0) translate(4 178.75)">
<title>dunedaq::opmon::OpMonEntry::Impl_</title>
<!-- Node1 -->
<g id="Node000001" class="node">
<title>Node1</title>
<g id="a_Node000001"><a xlink:title=" ">
<polygon fill="#999999" stroke="#666666" points="210.38,-30.5 66.12,-30.5 66.12,0 210.38,0 210.38,-30.5"/>
<text text-anchor="start" x="74.12" y="-17" font-family="Helvetica,sans-Serif" font-size="10.00">dunedaq::opmon::OpMonEntry</text>
<text text-anchor="middle" x="138.25" y="-5.75" font-family="Helvetica,sans-Serif" font-size="10.00">::Impl_</text>
</a>
</g>
</g>
<!-- Node2 -->
<g id="Node000002" class="node">
<title>Node2</title>
<g id="a_Node000002"><a xlink:href="classdunedaq_1_1opmon_1_1OpMonId.html" target="_top" xlink:title=" ">
<polygon fill="white" stroke="#666666" points="203.62,-97 72.88,-97 72.88,-77.75 203.62,-77.75 203.62,-97"/>
<text text-anchor="middle" x="138.25" y="-83.5" font-family="Helvetica,sans-Serif" font-size="10.00">dunedaq::opmon::OpMonId</text>
</a>
</g>
</g>
<!-- Node2&#45;&gt;Node1 -->
<g id="edge1_Node000001_Node000002" class="edge">
<title>Node2&#45;&gt;Node1</title>
<g id="a_edge1_Node000001_Node000002"><a xlink:title=" ">
<path fill="none" stroke="#9a32cd" stroke-dasharray="5,2" d="M138.25,-66.17C138.25,-54.91 138.25,-41.14 138.25,-30.92"/>
<polygon fill="#9a32cd" stroke="#9a32cd" points="134.75,-65.98 138.25,-75.98 141.75,-65.98 134.75,-65.98"/>
</a>
</g>
<text text-anchor="middle" x="153.62" y="-50.25" font-family="Helvetica,sans-Serif" font-size="10.00" fill="grey"> origin_</text>
</g>
<!-- Node3 -->
<g id="Node000003" class="node">
<title>Node3</title>
<g id="a_Node000003"><a xlink:title=" ">
<polygon fill="white" stroke="#666666" points="128.5,-169.12 0,-169.12 0,-149.88 128.5,-149.88 128.5,-169.12"/>
<text text-anchor="middle" x="64.25" y="-155.62" font-family="Helvetica,sans-Serif" font-size="10.00">google::protobuf::Message</text>
</a>
</g>
</g>
<!-- Node3&#45;&gt;Node2 -->
<g id="edge2_Node000002_Node000003" class="edge">
<title>Node3&#45;&gt;Node2</title>
<g id="a_edge2_Node000002_Node000003"><a xlink:title=" ">
<path fill="none" stroke="#63b8ff" d="M81.91,-141.77C96.59,-127.86 116.92,-108.59 128.72,-97.41"/>
<polygon fill="#63b8ff" stroke="#63b8ff" points="79.57,-139.16 74.72,-148.58 84.39,-144.24 79.57,-139.16"/>
</a>
</g>
</g>
<!-- Node4 -->
<g id="Node000004" class="node">
<title>Node4</title>
<g id="a_Node000004"><a xlink:href="structdunedaq_1_1opmon_1_1OpMonId_1_1Impl__.html" target="_top" xlink:title=" ">
<polygon fill="white" stroke="#666666" points="277.62,-174.75 146.88,-174.75 146.88,-144.25 277.62,-144.25 277.62,-174.75"/>
<text text-anchor="start" x="154.88" y="-161.25" font-family="Helvetica,sans-Serif" font-size="10.00">dunedaq::opmon::OpMonId</text>
<text text-anchor="middle" x="212.25" y="-150" font-family="Helvetica,sans-Serif" font-size="10.00">::Impl_</text>
</a>
</g>
</g>
<!-- Node4&#45;&gt;Node2 -->
<g id="edge3_Node000002_Node000004" class="edge">
<title>Node4&#45;&gt;Node2</title>
<g id="a_edge3_Node000002_Node000004"><a xlink:title=" ">
<path fill="none" stroke="#9a32cd" stroke-dasharray="5,2" d="M188.68,-136.16C174.69,-122.91 157.75,-106.85 147.49,-97.13"/>
<polygon fill="#9a32cd" stroke="#9a32cd" points="186.15,-138.59 195.82,-142.93 190.97,-133.51 186.15,-138.59"/>
</a>
</g>
<text text-anchor="middle" x="193.62" y="-116.75" font-family="Helvetica,sans-Serif" font-size="10.00" fill="grey"> _impl_</text>
</g>
</g>
</svg>
