<?xml version="1.0" encoding="UTF-8" standalone="no"?>
<!DOCTYPE svg PUBLIC "-//W3C//DTD SVG 1.1//EN"
 "http://www.w3.org/Graphics/SVG/1.1/DTD/svg11.dtd">
<!-- Generated by graphviz version 9.0.0 (20230911.1827)
 -->
<!-- Title: /github/workspace/dev_area/sourcecode/dbe/include/dbe/subtreeproxy.hpp Pages: 1 -->
<svg width="1470pt" height="205pt"
 viewBox="0.00 0.00 1469.50 205.25" xmlns="http://www.w3.org/2000/svg" xmlns:xlink="http://www.w3.org/1999/xlink">
<g id="graph0" class="graph" transform="scale(1 1) rotate(0) translate(4 201.25)">
<title>/github/workspace/dev_area/sourcecode/dbe/include/dbe/subtreeproxy.hpp</title>
<!-- Node1 -->
<g id="Node000001" class="node">
<title>Node1</title>
<g id="a_Node000001"><a xlink:title=" ">
<polygon fill="#999999" stroke="#666666" points="744.88,-197.25 600.62,-197.25 600.62,-155.5 744.88,-155.5 744.88,-197.25"/>
<text text-anchor="start" x="608.62" y="-183.75" font-family="Helvetica,sans-Serif" font-size="10.00">/github/workspace/dev</text>
<text text-anchor="start" x="608.62" y="-172.5" font-family="Helvetica,sans-Serif" font-size="10.00">_area/sourcecode/dbe</text>
<text text-anchor="middle" x="672.75" y="-161.25" font-family="Helvetica,sans-Serif" font-size="10.00">/include/dbe/subtreeproxy.hpp</text>
</a>
</g>
</g>
<!-- Node2 -->
<g id="Node000002" class="node">
<title>Node2</title>
<g id="a_Node000002"><a xlink:href="MainWindow_8hpp.html" target="_top" xlink:title=" ">
<polygon fill="white" stroke="#666666" points="658.25,-119.5 513.25,-119.5 513.25,-77.75 658.25,-77.75 658.25,-119.5"/>
<text text-anchor="start" x="521.25" y="-106" font-family="Helvetica,sans-Serif" font-size="10.00">/github/workspace/dev</text>
<text text-anchor="start" x="521.25" y="-94.75" font-family="Helvetica,sans-Serif" font-size="10.00">_area/sourcecode/dbe</text>
<text text-anchor="middle" x="585.75" y="-83.5" font-family="Helvetica,sans-Serif" font-size="10.00">/include/dbe/MainWindow.hpp</text>
</a>
</g>
</g>
<!-- Node1&#45;&gt;Node2 -->
<g id="edge1_Node000001_Node000002" class="edge">
<title>Node1&#45;&gt;Node2</title>
<g id="a_edge1_Node000001_Node000002"><a xlink:title=" ">
<path fill="none" stroke="#63b8ff" d="M640.89,-147.64C630.38,-138.48 618.89,-128.48 609.13,-119.98"/>
<polygon fill="#63b8ff" stroke="#63b8ff" points="638.45,-150.15 648.29,-154.08 643.05,-144.88 638.45,-150.15"/>
</a>
</g>
</g>
<!-- Node6 -->
<g id="Node000006" class="node">
<title>Node6</title>
<g id="a_Node000006"><a xlink:href="MainWindow_8cpp.html" target="_top" xlink:title=" ">
<polygon fill="white" stroke="#666666" points="143.5,-41.75 0,-41.75 0,0 143.5,0 143.5,-41.75"/>
<text text-anchor="start" x="8" y="-28.25" font-family="Helvetica,sans-Serif" font-size="10.00">/github/workspace/dev</text>
<text text-anchor="start" x="8" y="-17" font-family="Helvetica,sans-Serif" font-size="10.00">_area/sourcecode/dbe</text>
<text text-anchor="middle" x="71.75" y="-5.75" font-family="Helvetica,sans-Serif" font-size="10.00">/src/internal/MainWindow.cpp</text>
</a>
</g>
</g>
<!-- Node1&#45;&gt;Node6 -->
<g id="edge11_Node000001_Node000006" class="edge">
<title>Node1&#45;&gt;Node6</title>
<g id="a_edge11_Node000001_Node000006"><a xlink:title=" ">
<path fill="none" stroke="#63b8ff" d="M589.44,-154.1C470.88,-123.82 255.47,-68.8 143.57,-40.22"/>
<polygon fill="#63b8ff" stroke="#63b8ff" points="588.23,-157.4 598.79,-156.48 589.97,-150.62 588.23,-157.4"/>
</a>
</g>
</g>
<!-- Node12 -->
<g id="Node000012" class="node">
<title>Node12</title>
<g id="a_Node000012"><a xlink:href="CustomTreeView_8cpp.html" target="_top" xlink:title=" ">
<polygon fill="white" stroke="#666666" points="845.62,-119.5 675.88,-119.5 675.88,-77.75 845.62,-77.75 845.62,-119.5"/>
<text text-anchor="start" x="683.88" y="-106" font-family="Helvetica,sans-Serif" font-size="10.00">/github/workspace/dev</text>
<text text-anchor="start" x="683.88" y="-94.75" font-family="Helvetica,sans-Serif" font-size="10.00">_area/sourcecode/dbe</text>
<text text-anchor="middle" x="760.75" y="-83.5" font-family="Helvetica,sans-Serif" font-size="10.00">/src/structure/CustomTreeView.cpp</text>
</a>
</g>
</g>
<!-- Node1&#45;&gt;Node12 -->
<g id="edge12_Node000001_Node000012" class="edge">
<title>Node1&#45;&gt;Node12</title>
<g id="a_edge12_Node000001_Node000012"><a xlink:title=" ">
<path fill="none" stroke="#63b8ff" d="M704.97,-147.64C715.61,-138.48 727.23,-128.48 737.1,-119.98"/>
<polygon fill="#63b8ff" stroke="#63b8ff" points="702.78,-144.91 697.48,-154.09 707.34,-150.22 702.78,-144.91"/>
</a>
</g>
</g>
<!-- Node13 -->
<g id="Node000013" class="node">
<title>Node13</title>
<g id="a_Node000013"><a xlink:href="subtreeproxy_8cpp.html" target="_top" xlink:title=" ">
<polygon fill="white" stroke="#666666" points="1013.5,-119.5 864,-119.5 864,-77.75 1013.5,-77.75 1013.5,-119.5"/>
<text text-anchor="start" x="872" y="-106" font-family="Helvetica,sans-Serif" font-size="10.00">/github/workspace/dev</text>
<text text-anchor="start" x="872" y="-94.75" font-family="Helvetica,sans-Serif" font-size="10.00">_area/sourcecode/dbe</text>
<text text-anchor="middle" x="938.75" y="-83.5" font-family="Helvetica,sans-Serif" font-size="10.00">/src/structure/subtreeproxy.cpp</text>
</a>
</g>
</g>
<!-- Node1&#45;&gt;Node13 -->
<g id="edge13_Node000001_Node000013" class="edge">
<title>Node1&#45;&gt;Node13</title>
<g id="a_edge13_Node000001_Node000013"><a xlink:title=" ">
<path fill="none" stroke="#63b8ff" d="M754.98,-151.96C790.91,-141.73 832.66,-129.84 867.27,-119.98"/>
<polygon fill="#63b8ff" stroke="#63b8ff" points="754.15,-148.56 745.49,-154.66 756.07,-155.29 754.15,-148.56"/>
</a>
</g>
</g>
<!-- Node3 -->
<g id="Node000003" class="node">
<title>Node3</title>
<g id="a_Node000003"><a xlink:href="Main_8cpp.html" target="_top" xlink:title=" ">
<polygon fill="white" stroke="#666666" points="275.88,-41.75 161.62,-41.75 161.62,0 275.88,0 275.88,-41.75"/>
<text text-anchor="start" x="169.62" y="-28.25" font-family="Helvetica,sans-Serif" font-size="10.00">/github/workspace/dev</text>
<text text-anchor="start" x="169.62" y="-17" font-family="Helvetica,sans-Serif" font-size="10.00">_area/sourcecode/dbe</text>
<text text-anchor="middle" x="218.75" y="-5.75" font-family="Helvetica,sans-Serif" font-size="10.00">/apps/Main.cpp</text>
</a>
</g>
</g>
<!-- Node2&#45;&gt;Node3 -->
<g id="edge2_Node000002_Node000003" class="edge">
<title>Node2&#45;&gt;Node3</title>
<g id="a_edge2_Node000002_Node000003"><a xlink:title=" ">
<path fill="none" stroke="#63b8ff" d="M501.85,-84.57C441.18,-74.52 357.44,-59.39 284.75,-41.75 281.96,-41.07 279.11,-40.35 276.24,-39.59"/>
<polygon fill="#63b8ff" stroke="#63b8ff" points="500.98,-87.97 511.41,-86.14 502.11,-81.07 500.98,-87.97"/>
</a>
</g>
</g>
<!-- Node4 -->
<g id="Node000004" class="node">
<title>Node4</title>
<g id="a_Node000004"><a xlink:href="TableTab_8cpp.html" target="_top" xlink:title=" ">
<polygon fill="white" stroke="#666666" points="407.88,-41.75 293.62,-41.75 293.62,0 407.88,0 407.88,-41.75"/>
<text text-anchor="start" x="301.62" y="-28.25" font-family="Helvetica,sans-Serif" font-size="10.00">/github/workspace/dev</text>
<text text-anchor="start" x="301.62" y="-17" font-family="Helvetica,sans-Serif" font-size="10.00">_area/sourcecode/dbe</text>
<text text-anchor="middle" x="350.75" y="-5.75" font-family="Helvetica,sans-Serif" font-size="10.00">/src/TableTab.cpp</text>
</a>
</g>
</g>
<!-- Node2&#45;&gt;Node4 -->
<g id="edge3_Node000002_Node000004" class="edge">
<title>Node2&#45;&gt;Node4</title>
<g id="a_edge3_Node000002_Node000004"><a xlink:title=" ">
<path fill="none" stroke="#63b8ff" d="M512.11,-73.89C478.61,-63.09 439.56,-50.5 408.26,-40.41"/>
<polygon fill="#63b8ff" stroke="#63b8ff" points="510.74,-77.12 521.33,-76.86 512.89,-70.46 510.74,-77.12"/>
</a>
</g>
</g>
<!-- Node5 -->
<g id="Node000005" class="node">
<title>Node5</title>
<g id="a_Node000005"><a xlink:href="GraphView_8cpp.html" target="_top" xlink:title=" ">
<polygon fill="white" stroke="#666666" points="569.5,-41.75 426,-41.75 426,0 569.5,0 569.5,-41.75"/>
<text text-anchor="start" x="434" y="-28.25" font-family="Helvetica,sans-Serif" font-size="10.00">/github/workspace/dev</text>
<text text-anchor="start" x="434" y="-17" font-family="Helvetica,sans-Serif" font-size="10.00">_area/sourcecode/dbe</text>
<text text-anchor="middle" x="497.75" y="-5.75" font-family="Helvetica,sans-Serif" font-size="10.00">/src/graphical/GraphView.cpp</text>
</a>
</g>
</g>
<!-- Node2&#45;&gt;Node5 -->
<g id="edge4_Node000002_Node000005" class="edge">
<title>Node2&#45;&gt;Node5</title>
<g id="a_edge4_Node000002_Node000005"><a xlink:title=" ">
<path fill="none" stroke="#63b8ff" d="M553.53,-69.89C542.89,-60.73 531.27,-50.73 521.4,-42.23"/>
<polygon fill="#63b8ff" stroke="#63b8ff" points="551.16,-72.47 561.02,-76.34 555.72,-67.16 551.16,-72.47"/>
</a>
</g>
</g>
<!-- Node2&#45;&gt;Node6 -->
<g id="edge5_Node000002_Node000006" class="edge">
<title>Node2&#45;&gt;Node6</title>
<g id="a_edge5_Node000002_Node000006"><a xlink:title=" ">
<path fill="none" stroke="#63b8ff" d="M501.76,-89.61C414.2,-80.6 273.21,-64.23 152.75,-41.75 149.76,-41.19 146.72,-40.59 143.65,-39.96"/>
<polygon fill="#63b8ff" stroke="#63b8ff" points="501.15,-93.07 511.45,-90.6 501.86,-86.1 501.15,-93.07"/>
</a>
</g>
</g>
<!-- Node7 -->
<g id="Node000007" class="node">
<title>Node7</title>
<g id="a_Node000007"><a xlink:href="CustomTableView_8cpp.html" target="_top" xlink:title=" ">
<polygon fill="white" stroke="#666666" points="761.88,-41.75 587.62,-41.75 587.62,0 761.88,0 761.88,-41.75"/>
<text text-anchor="start" x="595.62" y="-28.25" font-family="Helvetica,sans-Serif" font-size="10.00">/github/workspace/dev</text>
<text text-anchor="start" x="595.62" y="-17" font-family="Helvetica,sans-Serif" font-size="10.00">_area/sourcecode/dbe</text>
<text text-anchor="middle" x="674.75" y="-5.75" font-family="Helvetica,sans-Serif" font-size="10.00">/src/structure/CustomTableView.cpp</text>
</a>
</g>
</g>
<!-- Node2&#45;&gt;Node7 -->
<g id="edge6_Node000002_Node000007" class="edge">
<title>Node2&#45;&gt;Node7</title>
<g id="a_edge6_Node000002_Node000007"><a xlink:title=" ">
<path fill="none" stroke="#63b8ff" d="M618.34,-69.89C629.09,-60.73 640.85,-50.73 650.83,-42.23"/>
<polygon fill="#63b8ff" stroke="#63b8ff" points="616.1,-67.2 610.75,-76.34 620.64,-72.53 616.1,-67.2"/>
</a>
</g>
</g>
<!-- Node8 -->
<g id="Node000008" class="node">
<title>Node8</title>
<g id="a_Node000008"><a xlink:href="FileModel_8cpp.html" target="_top" xlink:title=" ">
<polygon fill="white" stroke="#666666" points="917.12,-41.75 780.38,-41.75 780.38,0 917.12,0 917.12,-41.75"/>
<text text-anchor="start" x="788.38" y="-28.25" font-family="Helvetica,sans-Serif" font-size="10.00">/github/workspace/dev</text>
<text text-anchor="start" x="788.38" y="-17" font-family="Helvetica,sans-Serif" font-size="10.00">_area/sourcecode/dbe</text>
<text text-anchor="middle" x="848.75" y="-5.75" font-family="Helvetica,sans-Serif" font-size="10.00">/src/structure/FileModel.cpp</text>
</a>
</g>
</g>
<!-- Node2&#45;&gt;Node8 -->
<g id="edge7_Node000002_Node000008" class="edge">
<title>Node2&#45;&gt;Node8</title>
<g id="a_edge7_Node000002_Node000008"><a xlink:title=" ">
<path fill="none" stroke="#63b8ff" d="M667.23,-74.16C703.35,-63.75 745.38,-51.65 779.9,-41.71"/>
<polygon fill="#63b8ff" stroke="#63b8ff" points="666.32,-70.78 657.68,-76.91 668.26,-77.5 666.32,-70.78"/>
</a>
</g>
</g>
<!-- Node9 -->
<g id="Node000009" class="node">
<title>Node9</title>
<g id="a_Node000009"><a xlink:href="BatchChangeWidget_8cpp.html" target="_top" xlink:title=" ">
<polygon fill="white" stroke="#666666" points="1114.12,-41.75 935.38,-41.75 935.38,0 1114.12,0 1114.12,-41.75"/>
<text text-anchor="start" x="943.38" y="-28.25" font-family="Helvetica,sans-Serif" font-size="10.00">/github/workspace/dev</text>
<text text-anchor="start" x="943.38" y="-17" font-family="Helvetica,sans-Serif" font-size="10.00">_area/sourcecode/dbe</text>
<text text-anchor="middle" x="1024.75" y="-5.75" font-family="Helvetica,sans-Serif" font-size="10.00">/src/widgets/BatchChangeWidget.cpp</text>
</a>
</g>
</g>
<!-- Node2&#45;&gt;Node9 -->
<g id="edge8_Node000002_Node000009" class="edge">
<title>Node2&#45;&gt;Node9</title>
<g id="a_edge8_Node000002_Node000009"><a xlink:title=" ">
<path fill="none" stroke="#63b8ff" d="M669.74,-77.27C782.87,-56.18 814.75,-60.59 925.75,-41.75 928.77,-41.24 931.85,-40.7 934.95,-40.15"/>
<polygon fill="#63b8ff" stroke="#63b8ff" points="669.19,-73.81 660.02,-79.11 670.49,-80.69 669.19,-73.81"/>
</a>
</g>
</g>
<!-- Node10 -->
<g id="Node000010" class="node">
<title>Node10</title>
<g id="a_Node000010"><a xlink:href="IncludeFileWidget_8cpp.html" target="_top" xlink:title=" ">
<polygon fill="white" stroke="#666666" points="1299.5,-41.75 1132,-41.75 1132,0 1299.5,0 1299.5,-41.75"/>
<text text-anchor="start" x="1140" y="-28.25" font-family="Helvetica,sans-Serif" font-size="10.00">/github/workspace/dev</text>
<text text-anchor="start" x="1140" y="-17" font-family="Helvetica,sans-Serif" font-size="10.00">_area/sourcecode/dbe</text>
<text text-anchor="middle" x="1215.75" y="-5.75" font-family="Helvetica,sans-Serif" font-size="10.00">/src/widgets/IncludeFileWidget.cpp</text>
</a>
</g>
</g>
<!-- Node2&#45;&gt;Node10 -->
<g id="edge9_Node000002_Node000010" class="edge">
<title>Node2&#45;&gt;Node10</title>
<g id="a_edge9_Node000002_Node000010"><a xlink:title=" ">
<path fill="none" stroke="#63b8ff" d="M669.67,-77.41C869.46,-46.33 925.21,-70.53 1122.75,-41.75 1125.69,-41.32 1128.68,-40.86 1131.69,-40.36"/>
<polygon fill="#63b8ff" stroke="#63b8ff" points="669.32,-73.93 659.99,-78.95 670.41,-80.84 669.32,-73.93"/>
</a>
</g>
</g>
<!-- Node11 -->
<g id="Node000011" class="node">
<title>Node11</title>
<g id="a_Node000011"><a xlink:href="ObjectEditor_8cpp.html" target="_top" xlink:title=" ">
<polygon fill="white" stroke="#666666" points="1461.5,-41.75 1318,-41.75 1318,0 1461.5,0 1461.5,-41.75"/>
<text text-anchor="start" x="1326" y="-28.25" font-family="Helvetica,sans-Serif" font-size="10.00">/github/workspace/dev</text>
<text text-anchor="start" x="1326" y="-17" font-family="Helvetica,sans-Serif" font-size="10.00">_area/sourcecode/dbe</text>
<text text-anchor="middle" x="1389.75" y="-5.75" font-family="Helvetica,sans-Serif" font-size="10.00">/src/widgets/ObjectEditor.cpp</text>
</a>
</g>
</g>
<!-- Node2&#45;&gt;Node11 -->
<g id="edge10_Node000002_Node000011" class="edge">
<title>Node2&#45;&gt;Node11</title>
<g id="a_edge10_Node000002_Node000011"><a xlink:title=" ">
<path fill="none" stroke="#63b8ff" d="M669.46,-77.49C951.38,-36.73 1029.69,-83.44 1308.75,-41.75 1311.76,-41.3 1314.82,-40.79 1317.9,-40.23"/>
<polygon fill="#63b8ff" stroke="#63b8ff" points="669.36,-73.97 659.98,-78.89 670.38,-80.89 669.36,-73.97"/>
</a>
</g>
</g>
</g>
</svg>
