<?xml version="1.0" encoding="UTF-8" standalone="no"?>
<!DOCTYPE svg PUBLIC "-//W3C//DTD SVG 1.1//EN"
 "http://www.w3.org/Graphics/SVG/1.1/DTD/svg11.dtd">
<!-- Generated by graphviz version 9.0.0 (20230911.1827)
 -->
<!-- Title: /github/workspace/dev_area/sourcecode/datahandlinglibs/include/datahandlinglibs/models/detail/TaskRawDataProcessorModel.hxx Pages: 1 -->
<svg width="1803pt" height="317pt"
 viewBox="0.00 0.00 1802.62 316.75" xmlns="http://www.w3.org/2000/svg" xmlns:xlink="http://www.w3.org/1999/xlink">
<g id="graph0" class="graph" transform="scale(1 1) rotate(0) translate(4 312.75)">
<title>/github/workspace/dev_area/sourcecode/datahandlinglibs/include/datahandlinglibs/models/detail/TaskRawDataProcessorModel.hxx</title>
<!-- Node1 -->
<g id="Node000001" class="node">
<title>Node1</title>
<g id="a_Node000001"><a xlink:title=" ">
<polygon fill="#999999" stroke="#666666" points="1084.25,-308.75 890.5,-308.75 890.5,-255.75 1084.25,-255.75 1084.25,-308.75"/>
<text text-anchor="start" x="898.5" y="-295.25" font-family="Helvetica,sans-Serif" font-size="10.00">/github/workspace/dev</text>
<text text-anchor="start" x="898.5" y="-284" font-family="Helvetica,sans-Serif" font-size="10.00">_area/sourcecode/datahandlinglibs</text>
<text text-anchor="start" x="898.5" y="-272.75" font-family="Helvetica,sans-Serif" font-size="10.00">/include/datahandlinglibs/models</text>
<text text-anchor="middle" x="987.38" y="-261.5" font-family="Helvetica,sans-Serif" font-size="10.00">/detail/TaskRawDataProcessorModel.hxx</text>
</a>
</g>
</g>
<!-- Node2 -->
<g id="Node000002" class="node">
<title>Node2</title>
<g id="a_Node000002"><a xlink:href="TaskRawDataProcessorModel_8hpp.html" target="_top" xlink:title=" ">
<polygon fill="white" stroke="#666666" points="1071.88,-219.75 902.88,-219.75 902.88,-166.75 1071.88,-166.75 1071.88,-219.75"/>
<text text-anchor="start" x="910.88" y="-206.25" font-family="Helvetica,sans-Serif" font-size="10.00">/github/workspace/dev</text>
<text text-anchor="start" x="910.88" y="-195" font-family="Helvetica,sans-Serif" font-size="10.00">_area/sourcecode/datahandlinglibs</text>
<text text-anchor="start" x="910.88" y="-183.75" font-family="Helvetica,sans-Serif" font-size="10.00">/include/datahandlinglibs/models</text>
<text text-anchor="middle" x="987.38" y="-172.5" font-family="Helvetica,sans-Serif" font-size="10.00">/TaskRawDataProcessorModel.hpp</text>
</a>
</g>
</g>
<!-- Node1&#45;&gt;Node2 -->
<g id="edge1_Node000001_Node000002" class="edge">
<title>Node1&#45;&gt;Node2</title>
<g id="a_edge1_Node000001_Node000002"><a xlink:title=" ">
<path fill="none" stroke="#63b8ff" d="M987.38,-244.36C987.38,-236.16 987.38,-227.64 987.38,-220"/>
<polygon fill="#63b8ff" stroke="#63b8ff" points="983.88,-244.1 987.38,-254.1 990.88,-244.1 983.88,-244.1"/>
</a>
</g>
</g>
<!-- Node3 -->
<g id="Node000003" class="node">
<title>Node3</title>
<g id="a_Node000003"><a xlink:href="Readoutlibs_8cpp.html" target="_top" xlink:title=" ">
<polygon fill="white" stroke="#666666" points="170.38,-125.12 4.38,-125.12 4.38,-83.38 170.38,-83.38 170.38,-125.12"/>
<text text-anchor="start" x="12.38" y="-111.62" font-family="Helvetica,sans-Serif" font-size="10.00">/github/workspace/dev</text>
<text text-anchor="start" x="12.38" y="-100.38" font-family="Helvetica,sans-Serif" font-size="10.00">_area/sourcecode/datahandlinglibs</text>
<text text-anchor="middle" x="87.38" y="-89.12" font-family="Helvetica,sans-Serif" font-size="10.00">/src/Readoutlibs.cpp</text>
</a>
</g>
</g>
<!-- Node2&#45;&gt;Node3 -->
<g id="edge2_Node000002_Node000003" class="edge">
<title>Node2&#45;&gt;Node3</title>
<g id="a_edge2_Node000002_Node000003"><a xlink:title=" ">
<path fill="none" stroke="#63b8ff" d="M891.54,-190.96C739.47,-187.58 434.05,-175.3 179.38,-130.75 171.46,-129.36 163.24,-127.59 155.11,-125.62"/>
<polygon fill="#63b8ff" stroke="#63b8ff" points="891.08,-194.46 901.15,-191.17 891.23,-187.46 891.08,-194.46"/>
</a>
</g>
</g>
<!-- Node4 -->
<g id="Node000004" class="node">
<title>Node4</title>
<g id="a_Node000004"><a xlink:href="DAPHNEFrameProcessor_8hpp.html" target="_top" xlink:title=" ">
<polygon fill="white" stroke="#666666" points="733.25,-130.75 581.5,-130.75 581.5,-77.75 733.25,-77.75 733.25,-130.75"/>
<text text-anchor="start" x="589.5" y="-117.25" font-family="Helvetica,sans-Serif" font-size="10.00">/github/workspace/dev</text>
<text text-anchor="start" x="589.5" y="-106" font-family="Helvetica,sans-Serif" font-size="10.00">_area/sourcecode/fdreadoutlibs</text>
<text text-anchor="start" x="589.5" y="-94.75" font-family="Helvetica,sans-Serif" font-size="10.00">/include/fdreadoutlibs/daphne</text>
<text text-anchor="middle" x="657.38" y="-83.5" font-family="Helvetica,sans-Serif" font-size="10.00">/DAPHNEFrameProcessor.hpp</text>
</a>
</g>
</g>
<!-- Node2&#45;&gt;Node4 -->
<g id="edge3_Node000002_Node000004" class="edge">
<title>Node2&#45;&gt;Node4</title>
<g id="a_edge3_Node000002_Node000004"><a xlink:title=" ">
<path fill="none" stroke="#63b8ff" d="M891.51,-166.98C841.28,-153.73 780.61,-137.74 733.62,-125.35"/>
<polygon fill="#63b8ff" stroke="#63b8ff" points="890.37,-170.29 900.93,-169.46 892.15,-163.53 890.37,-170.29"/>
</a>
</g>
</g>
<!-- Node7 -->
<g id="Node000007" class="node">
<title>Node7</title>
<g id="a_Node000007"><a xlink:href="DAPHNEStreamFrameProcessor_8hpp.html" target="_top" xlink:title=" ">
<polygon fill="white" stroke="#666666" points="985.25,-130.75 803.5,-130.75 803.5,-77.75 985.25,-77.75 985.25,-130.75"/>
<text text-anchor="start" x="811.5" y="-117.25" font-family="Helvetica,sans-Serif" font-size="10.00">/github/workspace/dev</text>
<text text-anchor="start" x="811.5" y="-106" font-family="Helvetica,sans-Serif" font-size="10.00">_area/sourcecode/fdreadoutlibs</text>
<text text-anchor="start" x="811.5" y="-94.75" font-family="Helvetica,sans-Serif" font-size="10.00">/include/fdreadoutlibs/daphne</text>
<text text-anchor="middle" x="894.38" y="-83.5" font-family="Helvetica,sans-Serif" font-size="10.00">/DAPHNEStreamFrameProcessor.hpp</text>
</a>
</g>
</g>
<!-- Node2&#45;&gt;Node7 -->
<g id="edge6_Node000002_Node000007" class="edge">
<title>Node2&#45;&gt;Node7</title>
<g id="a_edge6_Node000002_Node000007"><a xlink:title=" ">
<path fill="none" stroke="#63b8ff" d="M951.39,-158.58C941.66,-149.48 931.28,-139.77 922.08,-131.17"/>
<polygon fill="#63b8ff" stroke="#63b8ff" points="948.92,-161.07 958.62,-165.35 953.71,-155.96 948.92,-161.07"/>
</a>
</g>
</g>
<!-- Node9 -->
<g id="Node000009" class="node">
<title>Node9</title>
<g id="a_Node000009"><a xlink:href="TDEEthFrameProcessor_8hpp.html" target="_top" xlink:title=" ">
<polygon fill="white" stroke="#666666" points="1156.25,-130.75 1004.5,-130.75 1004.5,-77.75 1156.25,-77.75 1156.25,-130.75"/>
<text text-anchor="start" x="1012.5" y="-117.25" font-family="Helvetica,sans-Serif" font-size="10.00">/github/workspace/dev</text>
<text text-anchor="start" x="1012.5" y="-106" font-family="Helvetica,sans-Serif" font-size="10.00">_area/sourcecode/fdreadoutlibs</text>
<text text-anchor="start" x="1012.5" y="-94.75" font-family="Helvetica,sans-Serif" font-size="10.00">/include/fdreadoutlibs/tde</text>
<text text-anchor="middle" x="1080.38" y="-83.5" font-family="Helvetica,sans-Serif" font-size="10.00">/TDEEthFrameProcessor.hpp</text>
</a>
</g>
</g>
<!-- Node2&#45;&gt;Node9 -->
<g id="edge8_Node000002_Node000009" class="edge">
<title>Node2&#45;&gt;Node9</title>
<g id="a_edge8_Node000002_Node000009"><a xlink:title=" ">
<path fill="none" stroke="#63b8ff" d="M1023.36,-158.58C1033.09,-149.48 1043.47,-139.77 1052.67,-131.17"/>
<polygon fill="#63b8ff" stroke="#63b8ff" points="1021.04,-155.96 1016.13,-165.35 1025.83,-161.07 1021.04,-155.96"/>
</a>
</g>
</g>
<!-- Node11 -->
<g id="Node000011" class="node">
<title>Node11</title>
<g id="a_Node000011"><a xlink:href="TDEFrameProcessor_8hpp.html" target="_top" xlink:title=" ">
<polygon fill="white" stroke="#666666" points="340.25,-130.75 188.5,-130.75 188.5,-77.75 340.25,-77.75 340.25,-130.75"/>
<text text-anchor="start" x="196.5" y="-117.25" font-family="Helvetica,sans-Serif" font-size="10.00">/github/workspace/dev</text>
<text text-anchor="start" x="196.5" y="-106" font-family="Helvetica,sans-Serif" font-size="10.00">_area/sourcecode/fdreadoutlibs</text>
<text text-anchor="start" x="196.5" y="-94.75" font-family="Helvetica,sans-Serif" font-size="10.00">/include/fdreadoutlibs/tde</text>
<text text-anchor="middle" x="264.38" y="-83.5" font-family="Helvetica,sans-Serif" font-size="10.00">/TDEFrameProcessor.hpp</text>
</a>
</g>
</g>
<!-- Node2&#45;&gt;Node11 -->
<g id="edge10_Node000002_Node000011" class="edge">
<title>Node2&#45;&gt;Node11</title>
<g id="a_edge10_Node000002_Node000011"><a xlink:title=" ">
<path fill="none" stroke="#63b8ff" d="M891.24,-187.86C767.26,-181.06 545.32,-165 358.38,-130.75 352.55,-129.68 346.57,-128.43 340.57,-127.07"/>
<polygon fill="#63b8ff" stroke="#63b8ff" points="890.88,-191.35 901.05,-188.39 891.25,-184.36 890.88,-191.35"/>
</a>
</g>
</g>
<!-- Node13 -->
<g id="Node000013" class="node">
<title>Node13</title>
<g id="a_Node000013"><a xlink:href="WIBEthFrameProcessor_8hpp.html" target="_top" xlink:title=" ">
<polygon fill="white" stroke="#666666" points="519.25,-130.75 367.5,-130.75 367.5,-77.75 519.25,-77.75 519.25,-130.75"/>
<text text-anchor="start" x="375.5" y="-117.25" font-family="Helvetica,sans-Serif" font-size="10.00">/github/workspace/dev</text>
<text text-anchor="start" x="375.5" y="-106" font-family="Helvetica,sans-Serif" font-size="10.00">_area/sourcecode/fdreadoutlibs</text>
<text text-anchor="start" x="375.5" y="-94.75" font-family="Helvetica,sans-Serif" font-size="10.00">/include/fdreadoutlibs/wibeth</text>
<text text-anchor="middle" x="443.38" y="-83.5" font-family="Helvetica,sans-Serif" font-size="10.00">/WIBEthFrameProcessor.hpp</text>
</a>
</g>
</g>
<!-- Node2&#45;&gt;Node13 -->
<g id="edge13_Node000002_Node000013" class="edge">
<title>Node2&#45;&gt;Node13</title>
<g id="a_edge13_Node000002_Node000013"><a xlink:title=" ">
<path fill="none" stroke="#63b8ff" d="M891.19,-179.33C806.94,-167.7 681.31,-149.58 572.38,-130.75 555.28,-127.8 536.96,-124.35 519.66,-120.96"/>
<polygon fill="#63b8ff" stroke="#63b8ff" points="890.65,-182.79 901.04,-180.69 891.61,-175.86 890.65,-182.79"/>
</a>
</g>
</g>
<!-- Node15 -->
<g id="Node000015" class="node">
<title>Node15</title>
<g id="a_Node000015"><a xlink:href="sourcecode_2hsilibs_2src_2HSIFrameProcessor_8hpp.html" target="_top" xlink:title=" ">
<polygon fill="white" stroke="#666666" points="1317.75,-125.12 1175,-125.12 1175,-83.38 1317.75,-83.38 1317.75,-125.12"/>
<text text-anchor="start" x="1183" y="-111.62" font-family="Helvetica,sans-Serif" font-size="10.00">/github/workspace/dev</text>
<text text-anchor="start" x="1183" y="-100.38" font-family="Helvetica,sans-Serif" font-size="10.00">_area/sourcecode/hsilibs</text>
<text text-anchor="middle" x="1246.38" y="-89.12" font-family="Helvetica,sans-Serif" font-size="10.00">/src/HSIFrameProcessor.hpp</text>
</a>
</g>
</g>
<!-- Node2&#45;&gt;Node15 -->
<g id="edge16_Node000002_Node000015" class="edge">
<title>Node2&#45;&gt;Node15</title>
<g id="a_edge16_Node000002_Node000015"><a xlink:title=" ">
<path fill="none" stroke="#63b8ff" d="M1075.35,-162.7C1111.71,-150.48 1152.97,-136.63 1185.85,-125.58"/>
<polygon fill="#63b8ff" stroke="#63b8ff" points="1074.53,-159.28 1066.17,-165.78 1076.76,-165.92 1074.53,-159.28"/>
</a>
</g>
</g>
<!-- Node17 -->
<g id="Node000017" class="node">
<title>Node17</title>
<g id="a_Node000017"><a xlink:href="TAProcessor_8hpp.html" target="_top" xlink:title=" ">
<polygon fill="white" stroke="#666666" points="1476.62,-125.12 1336.12,-125.12 1336.12,-83.38 1476.62,-83.38 1476.62,-125.12"/>
<text text-anchor="start" x="1344.12" y="-111.62" font-family="Helvetica,sans-Serif" font-size="10.00">/github/workspace/dev</text>
<text text-anchor="start" x="1344.12" y="-100.38" font-family="Helvetica,sans-Serif" font-size="10.00">_area/sourcecode/trigger</text>
<text text-anchor="middle" x="1406.38" y="-89.12" font-family="Helvetica,sans-Serif" font-size="10.00">/src/trigger/TAProcessor.hpp</text>
</a>
</g>
</g>
<!-- Node2&#45;&gt;Node17 -->
<g id="edge18_Node000002_Node000017" class="edge">
<title>Node2&#45;&gt;Node17</title>
<g id="a_edge18_Node000002_Node000017"><a xlink:title=" ">
<path fill="none" stroke="#63b8ff" d="M1083.46,-178.21C1151.72,-167.41 1245.28,-150.94 1326.38,-130.75 1332.6,-129.2 1339.05,-127.43 1345.46,-125.56"/>
<polygon fill="#63b8ff" stroke="#63b8ff" points="1083.14,-174.72 1073.8,-179.72 1084.22,-181.63 1083.14,-174.72"/>
</a>
</g>
</g>
<!-- Node19 -->
<g id="Node000019" class="node">
<title>Node19</title>
<g id="a_Node000019"><a xlink:href="TCProcessor_8hpp.html" target="_top" xlink:title=" ">
<polygon fill="white" stroke="#666666" points="1635.62,-125.12 1495.12,-125.12 1495.12,-83.38 1635.62,-83.38 1635.62,-125.12"/>
<text text-anchor="start" x="1503.12" y="-111.62" font-family="Helvetica,sans-Serif" font-size="10.00">/github/workspace/dev</text>
<text text-anchor="start" x="1503.12" y="-100.38" font-family="Helvetica,sans-Serif" font-size="10.00">_area/sourcecode/trigger</text>
<text text-anchor="middle" x="1565.38" y="-89.12" font-family="Helvetica,sans-Serif" font-size="10.00">/src/trigger/TCProcessor.hpp</text>
</a>
</g>
</g>
<!-- Node2&#45;&gt;Node19 -->
<g id="edge20_Node000002_Node000019" class="edge">
<title>Node2&#45;&gt;Node19</title>
<g id="a_edge20_Node000002_Node000019"><a xlink:title=" ">
<path fill="none" stroke="#63b8ff" d="M1083.73,-185.68C1184.7,-177.56 1347.51,-160.96 1485.38,-130.75 1492.07,-129.28 1499,-127.5 1505.86,-125.55"/>
<polygon fill="#63b8ff" stroke="#63b8ff" points="1083.53,-182.19 1073.84,-186.47 1084.09,-189.17 1083.53,-182.19"/>
</a>
</g>
</g>
<!-- Node21 -->
<g id="Node000021" class="node">
<title>Node21</title>
<g id="a_Node000021"><a xlink:href="TPProcessor_8hpp.html" target="_top" xlink:title=" ">
<polygon fill="white" stroke="#666666" points="1794.62,-125.12 1654.12,-125.12 1654.12,-83.38 1794.62,-83.38 1794.62,-125.12"/>
<text text-anchor="start" x="1662.12" y="-111.62" font-family="Helvetica,sans-Serif" font-size="10.00">/github/workspace/dev</text>
<text text-anchor="start" x="1662.12" y="-100.38" font-family="Helvetica,sans-Serif" font-size="10.00">_area/sourcecode/trigger</text>
<text text-anchor="middle" x="1724.38" y="-89.12" font-family="Helvetica,sans-Serif" font-size="10.00">/src/trigger/TPProcessor.hpp</text>
</a>
</g>
</g>
<!-- Node2&#45;&gt;Node21 -->
<g id="edge22_Node000002_Node000021" class="edge">
<title>Node2&#45;&gt;Node21</title>
<g id="a_edge22_Node000002_Node000021"><a xlink:title=" ">
<path fill="none" stroke="#63b8ff" d="M1083.61,-189.71C1212.48,-184.85 1447.69,-170.82 1644.38,-130.75 1651.37,-129.32 1658.62,-127.51 1665.77,-125.51"/>
<polygon fill="#63b8ff" stroke="#63b8ff" points="1083.61,-186.21 1073.74,-190.07 1083.87,-193.2 1083.61,-186.21"/>
</a>
</g>
</g>
<!-- Node5 -->
<g id="Node000005" class="node">
<title>Node5</title>
<g id="a_Node000005"><a xlink:href="FDReadoutlibs_8cpp.html" target="_top" xlink:title=" ">
<polygon fill="white" stroke="#666666" points="330.25,-41.75 178.5,-41.75 178.5,0 330.25,0 330.25,-41.75"/>
<text text-anchor="start" x="186.5" y="-28.25" font-family="Helvetica,sans-Serif" font-size="10.00">/github/workspace/dev</text>
<text text-anchor="start" x="186.5" y="-17" font-family="Helvetica,sans-Serif" font-size="10.00">_area/sourcecode/fdreadoutlibs</text>
<text text-anchor="middle" x="254.38" y="-5.75" font-family="Helvetica,sans-Serif" font-size="10.00">/src/FDReadoutlibs.cpp</text>
</a>
</g>
</g>
<!-- Node4&#45;&gt;Node5 -->
<g id="edge4_Node000004_Node000005" class="edge">
<title>Node4&#45;&gt;Node5</title>
<g id="a_edge4_Node000004_Node000005"><a xlink:title=" ">
<path fill="none" stroke="#63b8ff" d="M570.21,-85.93C556.22,-83.18 541.9,-80.38 528.38,-77.75 444.43,-61.46 423.03,-59.49 339.38,-41.75 336.41,-41.12 333.39,-40.47 330.34,-39.8"/>
<polygon fill="#63b8ff" stroke="#63b8ff" points="569.36,-89.33 579.85,-87.84 570.72,-82.47 569.36,-89.33"/>
</a>
</g>
</g>
<!-- Node6 -->
<g id="Node000006" class="node">
<title>Node6</title>
<g id="a_Node000006"><a xlink:href="DAPHNEFrameProcessor_8cpp.html" target="_top" xlink:title=" ">
<polygon fill="white" stroke="#666666" points="758,-41.75 556.75,-41.75 556.75,0 758,0 758,-41.75"/>
<text text-anchor="start" x="564.75" y="-28.25" font-family="Helvetica,sans-Serif" font-size="10.00">/github/workspace/dev</text>
<text text-anchor="start" x="564.75" y="-17" font-family="Helvetica,sans-Serif" font-size="10.00">_area/sourcecode/fdreadoutlibs</text>
<text text-anchor="middle" x="657.38" y="-5.75" font-family="Helvetica,sans-Serif" font-size="10.00">/src/daphne/DAPHNEFrameProcessor.cpp</text>
</a>
</g>
</g>
<!-- Node4&#45;&gt;Node6 -->
<g id="edge5_Node000004_Node000006" class="edge">
<title>Node4&#45;&gt;Node6</title>
<g id="a_edge5_Node000004_Node000006"><a xlink:title=" ">
<path fill="none" stroke="#63b8ff" d="M657.38,-66.08C657.38,-57.8 657.38,-49.33 657.38,-42.04"/>
<polygon fill="#63b8ff" stroke="#63b8ff" points="653.88,-65.99 657.38,-75.99 660.88,-65.99 653.88,-65.99"/>
</a>
</g>
</g>
<!-- Node8 -->
<g id="Node000008" class="node">
<title>Node8</title>
<g id="a_Node000008"><a xlink:href="DAPHNEStreamFrameProcessor_8cpp.html" target="_top" xlink:title=" ">
<polygon fill="white" stroke="#666666" points="1008.75,-41.75 776,-41.75 776,0 1008.75,0 1008.75,-41.75"/>
<text text-anchor="start" x="784" y="-28.25" font-family="Helvetica,sans-Serif" font-size="10.00">/github/workspace/dev</text>
<text text-anchor="start" x="784" y="-17" font-family="Helvetica,sans-Serif" font-size="10.00">_area/sourcecode/fdreadoutlibs</text>
<text text-anchor="middle" x="892.38" y="-5.75" font-family="Helvetica,sans-Serif" font-size="10.00">/src/daphne/DAPHNEStreamFrameProcessor.cpp</text>
</a>
</g>
</g>
<!-- Node7&#45;&gt;Node8 -->
<g id="edge7_Node000007_Node000008" class="edge">
<title>Node7&#45;&gt;Node8</title>
<g id="a_edge7_Node000007_Node000008"><a xlink:title=" ">
<path fill="none" stroke="#63b8ff" d="M893.46,-66.08C893.26,-57.8 893.05,-49.33 892.87,-42.04"/>
<polygon fill="#63b8ff" stroke="#63b8ff" points="889.96,-66.08 893.7,-75.99 896.96,-65.91 889.96,-66.08"/>
</a>
</g>
</g>
<!-- Node10 -->
<g id="Node000010" class="node">
<title>Node10</title>
<g id="a_Node000010"><a xlink:href="TDEEthFrameProcessor_8cpp.html" target="_top" xlink:title=" ">
<polygon fill="white" stroke="#666666" points="1201.88,-41.75 1026.88,-41.75 1026.88,0 1201.88,0 1201.88,-41.75"/>
<text text-anchor="start" x="1034.88" y="-28.25" font-family="Helvetica,sans-Serif" font-size="10.00">/github/workspace/dev</text>
<text text-anchor="start" x="1034.88" y="-17" font-family="Helvetica,sans-Serif" font-size="10.00">_area/sourcecode/fdreadoutlibs</text>
<text text-anchor="middle" x="1114.38" y="-5.75" font-family="Helvetica,sans-Serif" font-size="10.00">/src/tde/TDEEthFrameProcessor.cpp</text>
</a>
</g>
</g>
<!-- Node9&#45;&gt;Node10 -->
<g id="edge9_Node000009_Node000010" class="edge">
<title>Node9&#45;&gt;Node10</title>
<g id="a_edge9_Node000009_Node000010"><a xlink:title=" ">
<path fill="none" stroke="#63b8ff" d="M1095.55,-66.93C1099.12,-58.38 1102.8,-49.58 1105.95,-42.04"/>
<polygon fill="#63b8ff" stroke="#63b8ff" points="1092.34,-65.53 1091.72,-76.11 1098.8,-68.23 1092.34,-65.53"/>
</a>
</g>
</g>
<!-- Node11&#45;&gt;Node5 -->
<g id="edge11_Node000011_Node000005" class="edge">
<title>Node11&#45;&gt;Node5</title>
<g id="a_edge11_Node000011_Node000005"><a xlink:title=" ">
<path fill="none" stroke="#63b8ff" d="M259.81,-66.08C258.79,-57.8 257.75,-49.33 256.85,-42.04"/>
<polygon fill="#63b8ff" stroke="#63b8ff" points="256.33,-66.5 261.03,-76 263.28,-65.65 256.33,-66.5"/>
</a>
</g>
</g>
<!-- Node12 -->
<g id="Node000012" class="node">
<title>Node12</title>
<g id="a_Node000012"><a xlink:href="TDEFrameProcessor_8cpp.html" target="_top" xlink:title=" ">
<polygon fill="white" stroke="#666666" points="160.75,-41.75 0,-41.75 0,0 160.75,0 160.75,-41.75"/>
<text text-anchor="start" x="8" y="-28.25" font-family="Helvetica,sans-Serif" font-size="10.00">/github/workspace/dev</text>
<text text-anchor="start" x="8" y="-17" font-family="Helvetica,sans-Serif" font-size="10.00">_area/sourcecode/fdreadoutlibs</text>
<text text-anchor="middle" x="80.38" y="-5.75" font-family="Helvetica,sans-Serif" font-size="10.00">/src/tde/TDEFrameProcessor.cpp</text>
</a>
</g>
</g>
<!-- Node11&#45;&gt;Node12 -->
<g id="edge12_Node000011_Node000012" class="edge">
<title>Node11&#45;&gt;Node12</title>
<g id="a_edge12_Node000011_Node000012"><a xlink:title=" ">
<path fill="none" stroke="#63b8ff" d="M195.24,-72.67C172.21,-62.49 147.14,-51.4 126.32,-42.19"/>
<polygon fill="#63b8ff" stroke="#63b8ff" points="193.7,-75.82 204.27,-76.67 196.54,-69.42 193.7,-75.82"/>
</a>
</g>
</g>
<!-- Node13&#45;&gt;Node5 -->
<g id="edge14_Node000013_Node000005" class="edge">
<title>Node13&#45;&gt;Node5</title>
<g id="a_edge14_Node000013_Node000005"><a xlink:title=" ">
<path fill="none" stroke="#63b8ff" d="M372.68,-72.81C348.94,-62.59 323.06,-51.45 301.57,-42.19"/>
<polygon fill="#63b8ff" stroke="#63b8ff" points="371.1,-75.94 381.66,-76.68 373.86,-69.51 371.1,-75.94"/>
</a>
</g>
</g>
<!-- Node14 -->
<g id="Node000014" class="node">
<title>Node14</title>
<g id="a_Node000014"><a xlink:href="WIBEthFrameProcessor_8cpp.html" target="_top" xlink:title=" ">
<polygon fill="white" stroke="#666666" points="538.38,-41.75 348.38,-41.75 348.38,0 538.38,0 538.38,-41.75"/>
<text text-anchor="start" x="356.38" y="-28.25" font-family="Helvetica,sans-Serif" font-size="10.00">/github/workspace/dev</text>
<text text-anchor="start" x="356.38" y="-17" font-family="Helvetica,sans-Serif" font-size="10.00">_area/sourcecode/fdreadoutlibs</text>
<text text-anchor="middle" x="443.38" y="-5.75" font-family="Helvetica,sans-Serif" font-size="10.00">/src/wibeth/WIBEthFrameProcessor.cpp</text>
</a>
</g>
</g>
<!-- Node13&#45;&gt;Node14 -->
<g id="edge15_Node000013_Node000014" class="edge">
<title>Node13&#45;&gt;Node14</title>
<g id="a_edge15_Node000013_Node000014"><a xlink:title=" ">
<path fill="none" stroke="#63b8ff" d="M443.38,-66.08C443.38,-57.8 443.38,-49.33 443.38,-42.04"/>
<polygon fill="#63b8ff" stroke="#63b8ff" points="439.88,-65.99 443.38,-75.99 446.88,-65.99 439.88,-65.99"/>
</a>
</g>
</g>
<!-- Node16 -->
<g id="Node000016" class="node">
<title>Node16</title>
<g id="a_Node000016"><a xlink:href="sourcecode_2hsilibs_2src_2HSIFrameProcessor_8cpp.html" target="_top" xlink:title=" ">
<polygon fill="white" stroke="#666666" points="1362.75,-41.75 1220,-41.75 1220,0 1362.75,0 1362.75,-41.75"/>
<text text-anchor="start" x="1228" y="-28.25" font-family="Helvetica,sans-Serif" font-size="10.00">/github/workspace/dev</text>
<text text-anchor="start" x="1228" y="-17" font-family="Helvetica,sans-Serif" font-size="10.00">_area/sourcecode/hsilibs</text>
<text text-anchor="middle" x="1291.38" y="-5.75" font-family="Helvetica,sans-Serif" font-size="10.00">/src/HSIFrameProcessor.cpp</text>
</a>
</g>
</g>
<!-- Node15&#45;&gt;Node16 -->
<g id="edge17_Node000015_Node000016" class="edge">
<title>Node15&#45;&gt;Node16</title>
<g id="a_edge17_Node000015_Node000016"><a xlink:title=" ">
<path fill="none" stroke="#63b8ff" d="M1263,-73.19C1268.74,-62.81 1275.03,-51.44 1280.22,-42.04"/>
<polygon fill="#63b8ff" stroke="#63b8ff" points="1260.01,-71.37 1258.23,-81.81 1266.13,-74.75 1260.01,-71.37"/>
</a>
</g>
</g>
<!-- Node18 -->
<g id="Node000018" class="node">
<title>Node18</title>
<g id="a_Node000018"><a xlink:href="TAProcessor_8cpp.html" target="_top" xlink:title=" ">
<polygon fill="white" stroke="#666666" points="1504,-41.75 1380.75,-41.75 1380.75,0 1504,0 1504,-41.75"/>
<text text-anchor="start" x="1388.75" y="-28.25" font-family="Helvetica,sans-Serif" font-size="10.00">/github/workspace/dev</text>
<text text-anchor="start" x="1388.75" y="-17" font-family="Helvetica,sans-Serif" font-size="10.00">_area/sourcecode/trigger</text>
<text text-anchor="middle" x="1442.38" y="-5.75" font-family="Helvetica,sans-Serif" font-size="10.00">/src/TAProcessor.cpp</text>
</a>
</g>
</g>
<!-- Node17&#45;&gt;Node18 -->
<g id="edge19_Node000017_Node000018" class="edge">
<title>Node17&#45;&gt;Node18</title>
<g id="a_edge19_Node000017_Node000018"><a xlink:title=" ">
<path fill="none" stroke="#63b8ff" d="M1419.82,-72.87C1424.37,-62.58 1429.34,-51.34 1433.45,-42.04"/>
<polygon fill="#63b8ff" stroke="#63b8ff" points="1416.73,-71.19 1415.89,-81.75 1423.13,-74.02 1416.73,-71.19"/>
</a>
</g>
</g>
<!-- Node20 -->
<g id="Node000020" class="node">
<title>Node20</title>
<g id="a_Node000020"><a xlink:href="TCProcessor_8cpp.html" target="_top" xlink:title=" ">
<polygon fill="white" stroke="#666666" points="1645,-41.75 1521.75,-41.75 1521.75,0 1645,0 1645,-41.75"/>
<text text-anchor="start" x="1529.75" y="-28.25" font-family="Helvetica,sans-Serif" font-size="10.00">/github/workspace/dev</text>
<text text-anchor="start" x="1529.75" y="-17" font-family="Helvetica,sans-Serif" font-size="10.00">_area/sourcecode/trigger</text>
<text text-anchor="middle" x="1583.38" y="-5.75" font-family="Helvetica,sans-Serif" font-size="10.00">/src/TCProcessor.cpp</text>
</a>
</g>
</g>
<!-- Node19&#45;&gt;Node20 -->
<g id="edge21_Node000019_Node000020" class="edge">
<title>Node19&#45;&gt;Node20</title>
<g id="a_edge21_Node000019_Node000020"><a xlink:title=" ">
<path fill="none" stroke="#63b8ff" d="M1572.24,-72.22C1574.48,-62.1 1576.9,-51.14 1578.91,-42.04"/>
<polygon fill="#63b8ff" stroke="#63b8ff" points="1568.89,-71.14 1570.15,-81.66 1575.73,-72.65 1568.89,-71.14"/>
</a>
</g>
</g>
<!-- Node22 -->
<g id="Node000022" class="node">
<title>Node22</title>
<g id="a_Node000022"><a xlink:href="TPProcessor_8cpp.html" target="_top" xlink:title=" ">
<polygon fill="white" stroke="#666666" points="1786,-41.75 1662.75,-41.75 1662.75,0 1786,0 1786,-41.75"/>
<text text-anchor="start" x="1670.75" y="-28.25" font-family="Helvetica,sans-Serif" font-size="10.00">/github/workspace/dev</text>
<text text-anchor="start" x="1670.75" y="-17" font-family="Helvetica,sans-Serif" font-size="10.00">_area/sourcecode/trigger</text>
<text text-anchor="middle" x="1724.38" y="-5.75" font-family="Helvetica,sans-Serif" font-size="10.00">/src/TPProcessor.cpp</text>
</a>
</g>
</g>
<!-- Node21&#45;&gt;Node22 -->
<g id="edge23_Node000021_Node000022" class="edge">
<title>Node21&#45;&gt;Node22</title>
<g id="a_edge23_Node000021_Node000022"><a xlink:title=" ">
<path fill="none" stroke="#63b8ff" d="M1724.38,-71.89C1724.38,-61.87 1724.38,-51.05 1724.38,-42.04"/>
<polygon fill="#63b8ff" stroke="#63b8ff" points="1720.88,-71.62 1724.38,-81.62 1727.88,-71.62 1720.88,-71.62"/>
</a>
</g>
</g>
</g>
</svg>
