<?xml version="1.0" encoding="UTF-8" standalone="no"?>
<!DOCTYPE svg PUBLIC "-//W3C//DTD SVG 1.1//EN"
 "http://www.w3.org/Graphics/SVG/1.1/DTD/svg11.dtd">
<!-- Generated by graphviz version 9.0.0 (20230911.1827)
 -->
<!-- Title: /github/workspace/dev_area/sourcecode/fddetdataformats/include/fddetdataformats/TDE16Frame.hpp Pages: 1 -->
<svg width="673pt" height="160pt"
 viewBox="0.00 0.00 672.50 160.25" xmlns="http://www.w3.org/2000/svg" xmlns:xlink="http://www.w3.org/1999/xlink">
<g id="graph0" class="graph" transform="scale(1 1) rotate(0) translate(4 156.25)">
<title>/github/workspace/dev_area/sourcecode/fddetdataformats/include/fddetdataformats/TDE16Frame.hpp</title>
<!-- Node1 -->
<g id="Node000001" class="node">
<title>Node1</title>
<g id="a_Node000001"><a xlink:title=" ">
<polygon fill="#999999" stroke="#666666" points="379.12,-152.25 174.88,-152.25 174.88,-110.5 379.12,-110.5 379.12,-152.25"/>
<text text-anchor="start" x="182.88" y="-138.75" font-family="Helvetica,sans-Serif" font-size="10.00">/github/workspace/dev</text>
<text text-anchor="start" x="182.88" y="-127.5" font-family="Helvetica,sans-Serif" font-size="10.00">_area/sourcecode/fddetdataformats</text>
<text text-anchor="middle" x="277" y="-116.25" font-family="Helvetica,sans-Serif" font-size="10.00">/include/fddetdataformats/TDE16Frame.hpp</text>
</a>
</g>
</g>
<!-- Node2 -->
<g id="Node000002" class="node">
<title>Node2</title>
<g id="a_Node000002"><a xlink:title=" ">
<polygon fill="#e0e0e0" stroke="#999999" points="40,-74.5 0,-74.5 0,-55.25 40,-55.25 40,-74.5"/>
<text text-anchor="middle" x="20" y="-61" font-family="Helvetica,sans-Serif" font-size="10.00">bitset</text>
</a>
</g>
</g>
<!-- Node1&#45;&gt;Node2 -->
<g id="edge1_Node000001_Node000002" class="edge">
<title>Node1&#45;&gt;Node2</title>
<g id="a_edge1_Node000001_Node000002"><a xlink:title=" ">
<path fill="none" stroke="#63b8ff" d="M189.59,-110.01C149.87,-100.5 102.06,-88.72 51.15,-74.99"/>
<polygon fill="#63b8ff" stroke="#63b8ff" points="52.27,-71.67 41.71,-72.43 50.44,-78.42 52.27,-71.67"/>
</a>
</g>
</g>
<!-- Node3 -->
<g id="Node000003" class="node">
<title>Node3</title>
<g id="a_Node000003"><a xlink:title=" ">
<polygon fill="#e0e0e0" stroke="#999999" points="111.75,-74.5 58.25,-74.5 58.25,-55.25 111.75,-55.25 111.75,-74.5"/>
<text text-anchor="middle" x="85" y="-61" font-family="Helvetica,sans-Serif" font-size="10.00">iostream</text>
</a>
</g>
</g>
<!-- Node1&#45;&gt;Node3 -->
<g id="edge2_Node000001_Node000003" class="edge">
<title>Node1&#45;&gt;Node3</title>
<g id="a_edge2_Node000001_Node000003"><a xlink:title=" ">
<path fill="none" stroke="#63b8ff" d="M216.51,-110.06C185.83,-99.75 149.52,-87.55 122.83,-78.58"/>
<polygon fill="#63b8ff" stroke="#63b8ff" points="124.05,-75.3 113.46,-75.44 121.83,-81.94 124.05,-75.3"/>
</a>
</g>
</g>
<!-- Node4 -->
<g id="Node000004" class="node">
<title>Node4</title>
<g id="a_Node000004"><a xlink:title=" ">
<polygon fill="#e0e0e0" stroke="#999999" points="172.5,-74.5 129.5,-74.5 129.5,-55.25 172.5,-55.25 172.5,-74.5"/>
<text text-anchor="middle" x="151" y="-61" font-family="Helvetica,sans-Serif" font-size="10.00">vector</text>
</a>
</g>
</g>
<!-- Node1&#45;&gt;Node4 -->
<g id="edge3_Node000001_Node000004" class="edge">
<title>Node1&#45;&gt;Node4</title>
<g id="a_edge3_Node000001_Node000004"><a xlink:title=" ">
<path fill="none" stroke="#63b8ff" d="M237.48,-110.14C218.35,-100.35 195.86,-88.84 178.61,-80.01"/>
<polygon fill="#63b8ff" stroke="#63b8ff" points="180.46,-77.03 169.97,-75.58 177.27,-83.26 180.46,-77.03"/>
</a>
</g>
</g>
<!-- Node5 -->
<g id="Node000005" class="node">
<title>Node5</title>
<g id="a_Node000005"><a xlink:title=" ">
<polygon fill="#e0e0e0" stroke="#999999" points="249,-74.5 191,-74.5 191,-55.25 249,-55.25 249,-74.5"/>
<text text-anchor="middle" x="220" y="-61" font-family="Helvetica,sans-Serif" font-size="10.00">stdexcept</text>
</a>
</g>
</g>
<!-- Node1&#45;&gt;Node5 -->
<g id="edge4_Node000001_Node000005" class="edge">
<title>Node1&#45;&gt;Node5</title>
<g id="a_edge4_Node000001_Node000005"><a xlink:title=" ">
<path fill="none" stroke="#63b8ff" d="M259.28,-110.32C251.68,-101.72 242.88,-91.77 235.54,-83.46"/>
<polygon fill="#63b8ff" stroke="#63b8ff" points="238.26,-81.26 229.02,-76.08 233.02,-85.89 238.26,-81.26"/>
</a>
</g>
</g>
<!-- Node6 -->
<g id="Node000006" class="node">
<title>Node6</title>
<g id="a_Node000006"><a xlink:title=" ">
<polygon fill="#e0e0e0" stroke="#999999" points="421.62,-19.25 370.38,-19.25 370.38,0 421.62,0 421.62,-19.25"/>
<text text-anchor="middle" x="396" y="-5.75" font-family="Helvetica,sans-Serif" font-size="10.00">ostream</text>
</a>
</g>
</g>
<!-- Node1&#45;&gt;Node6 -->
<g id="edge5_Node000001_Node000006" class="edge">
<title>Node1&#45;&gt;Node6</title>
<g id="a_edge5_Node000001_Node000006"><a xlink:title=" ">
<path fill="none" stroke="#63b8ff" d="M277.42,-110.01C278.78,-93.52 283.1,-70.59 296,-55.25 311.98,-36.26 337.66,-25.03 359,-18.59"/>
<polygon fill="#63b8ff" stroke="#63b8ff" points="359.83,-21.99 368.54,-15.96 357.97,-15.24 359.83,-21.99"/>
</a>
</g>
</g>
<!-- Node7 -->
<g id="Node000007" class="node">
<title>Node7</title>
<g id="a_Node000007"><a xlink:title=" ">
<polygon fill="#e0e0e0" stroke="#999999" points="345,-74.5 305,-74.5 305,-55.25 345,-55.25 345,-74.5"/>
<text text-anchor="middle" x="325" y="-61" font-family="Helvetica,sans-Serif" font-size="10.00">string</text>
</a>
</g>
</g>
<!-- Node1&#45;&gt;Node7 -->
<g id="edge6_Node000001_Node000007" class="edge">
<title>Node1&#45;&gt;Node7</title>
<g id="a_edge6_Node000001_Node000007"><a xlink:title=" ">
<path fill="none" stroke="#63b8ff" d="M291.92,-110.32C298.19,-101.91 305.41,-92.2 311.51,-84"/>
<polygon fill="#63b8ff" stroke="#63b8ff" points="314.18,-86.27 317.35,-76.16 308.57,-82.09 314.18,-86.27"/>
</a>
</g>
</g>
<!-- Node8 -->
<g id="Node000008" class="node">
<title>Node8</title>
<g id="a_Node000008"><a xlink:title=" ">
<polygon fill="#e0e0e0" stroke="#999999" points="412.5,-74.5 363.5,-74.5 363.5,-55.25 412.5,-55.25 412.5,-74.5"/>
<text text-anchor="middle" x="388" y="-61" font-family="Helvetica,sans-Serif" font-size="10.00">fstream</text>
</a>
</g>
</g>
<!-- Node1&#45;&gt;Node8 -->
<g id="edge7_Node000001_Node000008" class="edge">
<title>Node1&#45;&gt;Node8</title>
<g id="a_edge7_Node000001_Node000008"><a xlink:title=" ">
<path fill="none" stroke="#63b8ff" d="M311.82,-110.14C328.35,-100.54 347.73,-89.27 362.81,-80.51"/>
<polygon fill="#63b8ff" stroke="#63b8ff" points="364.28,-83.71 371.17,-75.65 360.76,-77.65 364.28,-83.71"/>
</a>
</g>
</g>
<!-- Node9 -->
<g id="Node000009" class="node">
<title>Node9</title>
<g id="a_Node000009"><a xlink:title=" ">
<polygon fill="#e0e0e0" stroke="#999999" points="477,-74.5 431,-74.5 431,-55.25 477,-55.25 477,-74.5"/>
<text text-anchor="middle" x="454" y="-61" font-family="Helvetica,sans-Serif" font-size="10.00">iterator</text>
</a>
</g>
</g>
<!-- Node1&#45;&gt;Node9 -->
<g id="edge8_Node000001_Node000009" class="edge">
<title>Node1&#45;&gt;Node9</title>
<g id="a_edge8_Node000001_Node000009"><a xlink:title=" ">
<path fill="none" stroke="#63b8ff" d="M332.52,-110.14C361.18,-99.7 395.23,-87.29 419.97,-78.27"/>
<polygon fill="#63b8ff" stroke="#63b8ff" points="421.02,-81.62 429.21,-74.91 418.62,-75.04 421.02,-81.62"/>
</a>
</g>
</g>
<!-- Node10 -->
<g id="Node000010" class="node">
<title>Node10</title>
<g id="a_Node000010"><a xlink:href="DAQEthHeader_8hpp.html" target="_top" xlink:title=" ">
<polygon fill="white" stroke="#666666" points="664.5,-74.5 495.5,-74.5 495.5,-55.25 664.5,-55.25 664.5,-74.5"/>
<text text-anchor="middle" x="580" y="-61" font-family="Helvetica,sans-Serif" font-size="10.00">detdataformats/DAQEthHeader.hpp</text>
</a>
</g>
</g>
<!-- Node1&#45;&gt;Node10 -->
<g id="edge9_Node000001_Node000010" class="edge">
<title>Node1&#45;&gt;Node10</title>
<g id="a_edge9_Node000001_Node000010"><a xlink:title=" ">
<path fill="none" stroke="#63b8ff" d="M372.46,-110.06C423.14,-99.27 483.58,-86.4 526.12,-77.34"/>
<polygon fill="#63b8ff" stroke="#63b8ff" points="526.82,-80.77 535.87,-75.27 525.36,-73.93 526.82,-80.77"/>
</a>
</g>
</g>
<!-- Node10&#45;&gt;Node6 -->
<g id="edge11_Node000010_Node000006" class="edge">
<title>Node10&#45;&gt;Node6</title>
<g id="a_edge11_Node000010_Node000006"><a xlink:title=" ">
<path fill="none" stroke="#63b8ff" d="M548.79,-54.84C516.73,-45.56 466.85,-31.13 432.87,-21.29"/>
<polygon fill="#63b8ff" stroke="#63b8ff" points="434.04,-17.99 423.46,-18.57 432.09,-24.71 434.04,-17.99"/>
</a>
</g>
</g>
<!-- Node11 -->
<g id="Node000011" class="node">
<title>Node11</title>
<g id="a_Node000011"><a xlink:title=" ">
<polygon fill="#e0e0e0" stroke="#999999" points="602.62,-19.25 557.38,-19.25 557.38,0 602.62,0 602.62,-19.25"/>
<text text-anchor="middle" x="580" y="-5.75" font-family="Helvetica,sans-Serif" font-size="10.00">cstdint</text>
</a>
</g>
</g>
<!-- Node10&#45;&gt;Node11 -->
<g id="edge10_Node000010_Node000011" class="edge">
<title>Node10&#45;&gt;Node11</title>
<g id="a_edge10_Node000010_Node000011"><a xlink:title=" ">
<path fill="none" stroke="#63b8ff" d="M580,-55.08C580,-48.57 580,-39.42 580,-31.12"/>
<polygon fill="#63b8ff" stroke="#63b8ff" points="583.5,-31.12 580,-21.12 576.5,-31.12 583.5,-31.12"/>
</a>
</g>
</g>
</g>
</svg>
