<?xml version="1.0" encoding="UTF-8" standalone="no"?>
<!DOCTYPE svg PUBLIC "-//W3C//DTD SVG 1.1//EN"
 "http://www.w3.org/Graphics/SVG/1.1/DTD/svg11.dtd">
<!-- Generated by graphviz version 9.0.0 (20230911.1827)
 -->
<!-- Title: /github/workspace/dev_area/sourcecode/fdreadoutlibs/include/fdreadoutlibs/TDEFrameTypeAdapter.hpp Pages: 1 -->
<svg width="1619pt" height="227pt"
 viewBox="0.00 0.00 1619.12 226.75" xmlns="http://www.w3.org/2000/svg" xmlns:xlink="http://www.w3.org/1999/xlink">
<g id="graph0" class="graph" transform="scale(1 1) rotate(0) translate(4 222.75)">
<title>/github/workspace/dev_area/sourcecode/fdreadoutlibs/include/fdreadoutlibs/TDEFrameTypeAdapter.hpp</title>
<!-- Node1 -->
<g id="Node000001" class="node">
<title>Node1</title>
<g id="a_Node000001"><a xlink:title=" ">
<polygon fill="#999999" stroke="#666666" points="1028.88,-218.75 850.12,-218.75 850.12,-165.75 1028.88,-165.75 1028.88,-218.75"/>
<text text-anchor="start" x="858.12" y="-205.25" font-family="Helvetica,sans-Serif" font-size="10.00">/github/workspace/dev</text>
<text text-anchor="start" x="858.12" y="-194" font-family="Helvetica,sans-Serif" font-size="10.00">_area/sourcecode/fdreadoutlibs</text>
<text text-anchor="start" x="858.12" y="-182.75" font-family="Helvetica,sans-Serif" font-size="10.00">/include/fdreadoutlibs/TDEFrameType</text>
<text text-anchor="middle" x="939.5" y="-171.5" font-family="Helvetica,sans-Serif" font-size="10.00">Adapter.hpp</text>
</a>
</g>
</g>
<!-- Node2 -->
<g id="Node000002" class="node">
<title>Node2</title>
<g id="a_Node000002"><a xlink:href="FragmentHeader_8hpp.html" target="_top" xlink:title=" ">
<polygon fill="white" stroke="#666666" points="662.12,-129.75 484.88,-129.75 484.88,-110.5 662.12,-110.5 662.12,-129.75"/>
<text text-anchor="middle" x="573.5" y="-116.25" font-family="Helvetica,sans-Serif" font-size="10.00">daqdataformats/FragmentHeader.hpp</text>
</a>
</g>
</g>
<!-- Node1&#45;&gt;Node2 -->
<g id="edge1_Node000001_Node000002" class="edge">
<title>Node1&#45;&gt;Node2</title>
<g id="a_edge1_Node000001_Node000002"><a xlink:title=" ">
<path fill="none" stroke="#63b8ff" d="M849.97,-174.1C782.21,-161.11 691.09,-143.66 632.32,-132.39"/>
<polygon fill="#63b8ff" stroke="#63b8ff" points="632.98,-128.96 622.5,-130.51 631.66,-135.83 632.98,-128.96"/>
</a>
</g>
</g>
<!-- Node3 -->
<g id="Node000003" class="node">
<title>Node3</title>
<g id="a_Node000003"><a xlink:href="SourceID_8hpp.html" target="_top" xlink:title=" ">
<polygon fill="white" stroke="#666666" points="369,-74.5 224,-74.5 224,-55.25 369,-55.25 369,-74.5"/>
<text text-anchor="middle" x="296.5" y="-61" font-family="Helvetica,sans-Serif" font-size="10.00">daqdataformats/SourceID.hpp</text>
</a>
</g>
</g>
<!-- Node1&#45;&gt;Node3 -->
<g id="edge24_Node000001_Node000003" class="edge">
<title>Node1&#45;&gt;Node3</title>
<g id="a_edge24_Node000001_Node000003"><a xlink:title=" ">
<path fill="none" stroke="#63b8ff" d="M849.95,-185.02C755.74,-177.15 603.65,-160.74 475.5,-129.75 422.4,-116.91 363.1,-93.96 327.84,-79.35"/>
<polygon fill="#63b8ff" stroke="#63b8ff" points="329.25,-76.14 318.67,-75.5 326.54,-82.6 329.25,-76.14"/>
</a>
</g>
</g>
<!-- Node6 -->
<g id="Node000006" class="node">
<title>Node6</title>
<g id="a_Node000006"><a xlink:title=" ">
<polygon fill="#e0e0e0" stroke="#999999" points="1208.12,-19.25 1162.88,-19.25 1162.88,0 1208.12,0 1208.12,-19.25"/>
<text text-anchor="middle" x="1185.5" y="-5.75" font-family="Helvetica,sans-Serif" font-size="10.00">cstdint</text>
</a>
</g>
</g>
<!-- Node1&#45;&gt;Node6 -->
<g id="edge37_Node000001_Node000006" class="edge">
<title>Node1&#45;&gt;Node6</title>
<g id="a_edge37_Node000001_Node000006"><a xlink:title=" ">
<path fill="none" stroke="#63b8ff" d="M1029.15,-183.93C1161.4,-171.07 1398.77,-139.38 1450.5,-74.5 1455.83,-67.81 1456.02,-61.78 1450.5,-55.25 1421.29,-20.71 1284.26,-12.89 1219.53,-11.13"/>
<polygon fill="#63b8ff" stroke="#63b8ff" points="1219.92,-7.64 1209.84,-10.9 1219.76,-14.64 1219.92,-7.64"/>
</a>
</g>
</g>
<!-- Node13 -->
<g id="Node000013" class="node">
<title>Node13</title>
<g id="a_Node000013"><a xlink:title=" ">
<polygon fill="#e0e0e0" stroke="#999999" points="37,-19.25 0,-19.25 0,0 37,0 37,-19.25"/>
<text text-anchor="middle" x="18.5" y="-5.75" font-family="Helvetica,sans-Serif" font-size="10.00">tuple</text>
</a>
</g>
</g>
<!-- Node1&#45;&gt;Node13 -->
<g id="edge41_Node000001_Node000013" class="edge">
<title>Node1&#45;&gt;Node13</title>
<g id="a_edge41_Node000001_Node000013"><a xlink:title=" ">
<path fill="none" stroke="#63b8ff" d="M849.97,-185.52C743.32,-177.65 560.13,-160.79 405.5,-129.75 318.86,-112.36 298.97,-100.47 214.5,-74.5 155.29,-56.29 86.54,-33.51 48.22,-20.65"/>
<polygon fill="#63b8ff" stroke="#63b8ff" points="49.38,-17.35 38.79,-17.48 47.15,-23.99 49.38,-17.35"/>
</a>
</g>
</g>
<!-- Node20 -->
<g id="Node000020" class="node">
<title>Node20</title>
<g id="a_Node000020"><a xlink:title=" ">
<polygon fill="#e0e0e0" stroke="#999999" points="840,-74.5 797,-74.5 797,-55.25 840,-55.25 840,-74.5"/>
<text text-anchor="middle" x="818.5" y="-61" font-family="Helvetica,sans-Serif" font-size="10.00">vector</text>
</a>
</g>
</g>
<!-- Node1&#45;&gt;Node20 -->
<g id="edge39_Node000001_Node000020" class="edge">
<title>Node1&#45;&gt;Node20</title>
<g id="a_edge39_Node000001_Node000020"><a xlink:title=" ">
<path fill="none" stroke="#63b8ff" d="M914.43,-165.27C890.56,-140.55 855.34,-104.05 834.88,-82.85"/>
<polygon fill="#63b8ff" stroke="#63b8ff" points="837.61,-80.63 828.14,-75.87 832.57,-85.49 837.61,-80.63"/>
</a>
</g>
</g>
<!-- Node21 -->
<g id="Node000021" class="node">
<title>Node21</title>
<g id="a_Node000021"><a xlink:href="TDE16Frame_8hpp.html" target="_top" xlink:title=" ">
<polygon fill="white" stroke="#666666" points="1096.25,-129.75 928.75,-129.75 928.75,-110.5 1096.25,-110.5 1096.25,-129.75"/>
<text text-anchor="middle" x="1012.5" y="-116.25" font-family="Helvetica,sans-Serif" font-size="10.00">fddetdataformats/TDE16Frame.hpp</text>
</a>
</g>
</g>
<!-- Node1&#45;&gt;Node21 -->
<g id="edge25_Node000001_Node000021" class="edge">
<title>Node1&#45;&gt;Node21</title>
<g id="a_edge25_Node000001_Node000021"><a xlink:title=" ">
<path fill="none" stroke="#63b8ff" d="M966.27,-165.54C975.81,-156.37 986.31,-146.28 994.89,-138.04"/>
<polygon fill="#63b8ff" stroke="#63b8ff" points="997.14,-140.74 1001.92,-131.28 992.29,-135.69 997.14,-140.74"/>
</a>
</g>
</g>
<!-- Node27 -->
<g id="Node000027" class="node">
<title>Node27</title>
<g id="a_Node000027"><a xlink:title=" ">
<polygon fill="#e0e0e0" stroke="#999999" points="1547.75,-129.75 1497.25,-129.75 1497.25,-110.5 1547.75,-110.5 1547.75,-129.75"/>
<text text-anchor="middle" x="1522.5" y="-116.25" font-family="Helvetica,sans-Serif" font-size="10.00">memory</text>
</a>
</g>
</g>
<!-- Node1&#45;&gt;Node27 -->
<g id="edge38_Node000001_Node000027" class="edge">
<title>Node1&#45;&gt;Node27</title>
<g id="a_edge38_Node000001_Node000027"><a xlink:title=" ">
<path fill="none" stroke="#63b8ff" d="M1028.95,-184.04C1137.08,-174.66 1324.35,-156.27 1483.5,-129.75 1484.32,-129.61 1485.15,-129.47 1485.99,-129.32"/>
<polygon fill="#63b8ff" stroke="#63b8ff" points="1486.35,-132.82 1495.5,-127.46 1485.01,-125.95 1486.35,-132.82"/>
</a>
</g>
</g>
<!-- Node28 -->
<g id="Node000028" class="node">
<title>Node28</title>
<g id="a_Node000028"><a xlink:title=" ">
<polygon fill="#e0e0e0" stroke="#999999" points="1611.12,-129.75 1565.88,-129.75 1565.88,-110.5 1611.12,-110.5 1611.12,-129.75"/>
<text text-anchor="middle" x="1588.5" y="-116.25" font-family="Helvetica,sans-Serif" font-size="10.00">cstring</text>
</a>
</g>
</g>
<!-- Node1&#45;&gt;Node28 -->
<g id="edge40_Node000001_Node000028" class="edge">
<title>Node1&#45;&gt;Node28</title>
<g id="a_edge40_Node000001_Node000028"><a xlink:title=" ">
<path fill="none" stroke="#63b8ff" d="M1029.29,-186.92C1147.67,-180.19 1362.43,-164.41 1554.38,-129.83"/>
<polygon fill="#63b8ff" stroke="#63b8ff" points="1554.83,-133.31 1564.04,-128.07 1553.58,-126.42 1554.83,-133.31"/>
</a>
</g>
</g>
<!-- Node2&#45;&gt;Node3 -->
<g id="edge2_Node000002_Node000003" class="edge">
<title>Node2&#45;&gt;Node3</title>
<g id="a_edge2_Node000002_Node000003"><a xlink:title=" ">
<path fill="none" stroke="#63b8ff" d="M526.2,-110.03C478.79,-100.92 405.72,-86.87 354.77,-77.08"/>
<polygon fill="#63b8ff" stroke="#63b8ff" points="355.58,-73.67 345.09,-75.22 354.25,-80.54 355.58,-73.67"/>
</a>
</g>
</g>
<!-- Node5 -->
<g id="Node000005" class="node">
<title>Node5</title>
<g id="a_Node000005"><a xlink:title=" ">
<polygon fill="#e0e0e0" stroke="#999999" points="490.62,-19.25 442.38,-19.25 442.38,0 490.62,0 490.62,-19.25"/>
<text text-anchor="middle" x="466.5" y="-5.75" font-family="Helvetica,sans-Serif" font-size="10.00">cstddef</text>
</a>
</g>
</g>
<!-- Node2&#45;&gt;Node5 -->
<g id="edge18_Node000002_Node000005" class="edge">
<title>Node2&#45;&gt;Node5</title>
<g id="a_edge18_Node000002_Node000005"><a xlink:title=" ">
<path fill="none" stroke="#63b8ff" d="M499.77,-110.03C478.47,-103.6 457.49,-92.74 444.5,-74.5 434.74,-60.8 442.82,-42.4 451.82,-28.86"/>
<polygon fill="#63b8ff" stroke="#63b8ff" points="454.61,-30.98 457.7,-20.85 448.96,-26.84 454.61,-30.98"/>
</a>
</g>
</g>
<!-- Node12 -->
<g id="Node000012" class="node">
<title>Node12</title>
<g id="a_Node000012"><a xlink:title=" ">
<polygon fill="#e0e0e0" stroke="#999999" points="606.5,-19.25 566.5,-19.25 566.5,0 606.5,0 606.5,-19.25"/>
<text text-anchor="middle" x="586.5" y="-5.75" font-family="Helvetica,sans-Serif" font-size="10.00">string</text>
</a>
</g>
</g>
<!-- Node2&#45;&gt;Node12 -->
<g id="edge22_Node000002_Node000012" class="edge">
<title>Node2&#45;&gt;Node12</title>
<g id="a_edge22_Node000002_Node000012"><a xlink:title=" ">
<path fill="none" stroke="#63b8ff" d="M518.64,-110.04C478.38,-100.84 434,-83.83 454.5,-55.25 457.57,-50.97 517.65,-31.83 555.68,-20.05"/>
<polygon fill="#63b8ff" stroke="#63b8ff" points="556.26,-23.54 564.78,-17.25 554.19,-16.85 556.26,-23.54"/>
</a>
</g>
</g>
<!-- Node15 -->
<g id="Node000015" class="node">
<title>Node15</title>
<g id="a_Node000015"><a xlink:href="daqdataformats_2include_2daqdataformats_2Types_8hpp.html" target="_top" xlink:title=" ">
<polygon fill="white" stroke="#666666" points="778.88,-74.5 648.12,-74.5 648.12,-55.25 778.88,-55.25 778.88,-74.5"/>
<text text-anchor="middle" x="713.5" y="-61" font-family="Helvetica,sans-Serif" font-size="10.00">daqdataformats/Types.hpp</text>
</a>
</g>
</g>
<!-- Node2&#45;&gt;Node15 -->
<g id="edge14_Node000002_Node000015" class="edge">
<title>Node2&#45;&gt;Node15</title>
<g id="a_edge14_Node000002_Node000015"><a xlink:title=" ">
<path fill="none" stroke="#63b8ff" d="M597.25,-110.09C619.67,-101.56 653.56,-88.67 678.97,-79.01"/>
<polygon fill="#63b8ff" stroke="#63b8ff" points="680.12,-82.32 688.22,-75.49 677.63,-75.77 680.12,-82.32"/>
</a>
</g>
</g>
<!-- Node16 -->
<g id="Node000016" class="node">
<title>Node16</title>
<g id="a_Node000016"><a xlink:title=" ">
<polygon fill="#e0e0e0" stroke="#999999" points="898.5,-74.5 858.5,-74.5 858.5,-55.25 898.5,-55.25 898.5,-74.5"/>
<text text-anchor="middle" x="878.5" y="-61" font-family="Helvetica,sans-Serif" font-size="10.00">bitset</text>
</a>
</g>
</g>
<!-- Node2&#45;&gt;Node16 -->
<g id="edge17_Node000002_Node000016" class="edge">
<title>Node2&#45;&gt;Node16</title>
<g id="a_edge17_Node000002_Node000016"><a xlink:title=" ">
<path fill="none" stroke="#63b8ff" d="M645.76,-110.04C699.11,-102.73 773.62,-91.29 847.43,-74.72"/>
<polygon fill="#63b8ff" stroke="#63b8ff" points="847.86,-78.21 856.83,-72.58 846.3,-71.39 847.86,-78.21"/>
</a>
</g>
</g>
<!-- Node17 -->
<g id="Node000017" class="node">
<title>Node17</title>
<g id="a_Node000017"><a xlink:title=" ">
<polygon fill="#e0e0e0" stroke="#999999" points="507.75,-74.5 463.25,-74.5 463.25,-55.25 507.75,-55.25 507.75,-74.5"/>
<text text-anchor="middle" x="485.5" y="-61" font-family="Helvetica,sans-Serif" font-size="10.00">cstdlib</text>
</a>
</g>
</g>
<!-- Node2&#45;&gt;Node17 -->
<g id="edge19_Node000002_Node000017" class="edge">
<title>Node2&#45;&gt;Node17</title>
<g id="a_edge19_Node000002_Node000017"><a xlink:title=" ">
<path fill="none" stroke="#63b8ff" d="M558.57,-110.09C545.3,-102.06 525.63,-90.16 510.05,-80.73"/>
<polygon fill="#63b8ff" stroke="#63b8ff" points="512.16,-77.92 501.8,-75.74 508.54,-83.91 512.16,-77.92"/>
</a>
</g>
</g>
<!-- Node18 -->
<g id="Node000018" class="node">
<title>Node18</title>
<g id="a_Node000018"><a xlink:title=" ">
<polygon fill="#e0e0e0" stroke="#999999" points="560.88,-74.5 526.12,-74.5 526.12,-55.25 560.88,-55.25 560.88,-74.5"/>
<text text-anchor="middle" x="543.5" y="-61" font-family="Helvetica,sans-Serif" font-size="10.00">map</text>
</a>
</g>
</g>
<!-- Node2&#45;&gt;Node18 -->
<g id="edge20_Node000002_Node000018" class="edge">
<title>Node2&#45;&gt;Node18</title>
<g id="a_edge20_Node000002_Node000018"><a xlink:title=" ">
<path fill="none" stroke="#63b8ff" d="M568.55,-110.33C564.62,-103.36 558.99,-93.37 554.06,-84.62"/>
<polygon fill="#63b8ff" stroke="#63b8ff" points="557.26,-83.17 549.3,-76.18 551.16,-86.61 557.26,-83.17"/>
</a>
</g>
</g>
<!-- Node19 -->
<g id="Node000019" class="node">
<title>Node19</title>
<g id="a_Node000019"><a xlink:title=" ">
<polygon fill="#e0e0e0" stroke="#999999" points="629.75,-74.5 579.25,-74.5 579.25,-55.25 629.75,-55.25 629.75,-74.5"/>
<text text-anchor="middle" x="604.5" y="-61" font-family="Helvetica,sans-Serif" font-size="10.00">numeric</text>
</a>
</g>
</g>
<!-- Node2&#45;&gt;Node19 -->
<g id="edge21_Node000002_Node000019" class="edge">
<title>Node2&#45;&gt;Node19</title>
<g id="a_edge21_Node000002_Node000019"><a xlink:title=" ">
<path fill="none" stroke="#63b8ff" d="M578.62,-110.33C582.68,-103.36 588.49,-93.37 593.59,-84.62"/>
<polygon fill="#63b8ff" stroke="#63b8ff" points="596.5,-86.57 598.51,-76.17 590.45,-83.05 596.5,-86.57"/>
</a>
</g>
</g>
<!-- Node2&#45;&gt;Node20 -->
<g id="edge23_Node000002_Node000020" class="edge">
<title>Node2&#45;&gt;Node20</title>
<g id="a_edge23_Node000002_Node000020"><a xlink:title=" ">
<path fill="none" stroke="#63b8ff" d="M621.72,-110.01C662.77,-102.04 723.53,-89.75 785.38,-74.89"/>
<polygon fill="#63b8ff" stroke="#63b8ff" points="786.17,-78.3 795.06,-72.54 784.52,-71.49 786.17,-78.3"/>
</a>
</g>
</g>
<!-- Node4 -->
<g id="Node000004" class="node">
<title>Node4</title>
<g id="a_Node000004"><a xlink:title=" ">
<polygon fill="#e0e0e0" stroke="#999999" points="220.62,-19.25 172.38,-19.25 172.38,0 220.62,0 220.62,-19.25"/>
<text text-anchor="middle" x="196.5" y="-5.75" font-family="Helvetica,sans-Serif" font-size="10.00">cassert</text>
</a>
</g>
</g>
<!-- Node3&#45;&gt;Node4 -->
<g id="edge3_Node000003_Node000004" class="edge">
<title>Node3&#45;&gt;Node4</title>
<g id="a_edge3_Node000003_Node000004"><a xlink:title=" ">
<path fill="none" stroke="#63b8ff" d="M279.54,-54.84C264.24,-46.69 241.47,-34.57 223.64,-25.08"/>
<polygon fill="#63b8ff" stroke="#63b8ff" points="225.35,-22.02 214.88,-20.41 222.06,-28.2 225.35,-22.02"/>
</a>
</g>
</g>
<!-- Node3&#45;&gt;Node5 -->
<g id="edge4_Node000003_Node000005" class="edge">
<title>Node3&#45;&gt;Node5</title>
<g id="a_edge4_Node000003_Node000005"><a xlink:title=" ">
<path fill="none" stroke="#63b8ff" d="M325.34,-54.84C354.53,-45.7 399.72,-31.54 431.07,-21.72"/>
<polygon fill="#63b8ff" stroke="#63b8ff" points="432,-25.1 440.5,-18.77 429.91,-18.42 432,-25.1"/>
</a>
</g>
</g>
<!-- Node3&#45;&gt;Node6 -->
<g id="edge5_Node000003_Node000006" class="edge">
<title>Node3&#45;&gt;Node6</title>
<g id="a_edge5_Node000003_Node000006"><a xlink:title=" ">
<path fill="none" stroke="#63b8ff" d="M369.26,-59.88C396.05,-58.42 426.66,-56.75 454.5,-55.25 755.38,-39.04 831.87,-51.06 1131.5,-19.25 1137.87,-18.57 1144.64,-17.65 1151.15,-16.67"/>
<polygon fill="#63b8ff" stroke="#63b8ff" points="1151.63,-20.13 1160.95,-15.09 1150.52,-13.22 1151.63,-20.13"/>
</a>
</g>
</g>
<!-- Node7 -->
<g id="Node000007" class="node">
<title>Node7</title>
<g id="a_Node000007"><a xlink:title=" ">
<polygon fill="#e0e0e0" stroke="#999999" points="288.38,-19.25 238.62,-19.25 238.62,0 288.38,0 288.38,-19.25"/>
<text text-anchor="middle" x="263.5" y="-5.75" font-family="Helvetica,sans-Serif" font-size="10.00">iomanip</text>
</a>
</g>
</g>
<!-- Node3&#45;&gt;Node7 -->
<g id="edge6_Node000003_Node000007" class="edge">
<title>Node3&#45;&gt;Node7</title>
<g id="a_edge6_Node000003_Node000007"><a xlink:title=" ">
<path fill="none" stroke="#63b8ff" d="M291.05,-55.08C286.73,-48.11 280.54,-38.12 275.12,-29.37"/>
<polygon fill="#63b8ff" stroke="#63b8ff" points="278.11,-27.55 269.86,-20.9 272.16,-31.24 278.11,-27.55"/>
</a>
</g>
</g>
<!-- Node8 -->
<g id="Node000008" class="node">
<title>Node8</title>
<g id="a_Node000008"><a xlink:title=" ">
<polygon fill="#e0e0e0" stroke="#999999" points="354.62,-19.25 306.38,-19.25 306.38,0 354.62,0 354.62,-19.25"/>
<text text-anchor="middle" x="330.5" y="-5.75" font-family="Helvetica,sans-Serif" font-size="10.00">istream</text>
</a>
</g>
</g>
<!-- Node3&#45;&gt;Node8 -->
<g id="edge7_Node000003_Node000008" class="edge">
<title>Node3&#45;&gt;Node8</title>
<g id="a_edge7_Node000003_Node000008"><a xlink:title=" ">
<path fill="none" stroke="#63b8ff" d="M302.11,-55.08C306.62,-48.03 313.09,-37.9 318.71,-29.08"/>
<polygon fill="#63b8ff" stroke="#63b8ff" points="321.52,-31.2 323.95,-20.88 315.62,-27.43 321.52,-31.2"/>
</a>
</g>
</g>
<!-- Node9 -->
<g id="Node000009" class="node">
<title>Node9</title>
<g id="a_Node000009"><a xlink:title=" ">
<polygon fill="#e0e0e0" stroke="#999999" points="548.12,-19.25 508.88,-19.25 508.88,0 548.12,0 548.12,-19.25"/>
<text text-anchor="middle" x="528.5" y="-5.75" font-family="Helvetica,sans-Serif" font-size="10.00">limits</text>
</a>
</g>
</g>
<!-- Node3&#45;&gt;Node9 -->
<g id="edge8_Node000003_Node000009" class="edge">
<title>Node3&#45;&gt;Node9</title>
<g id="a_edge8_Node000003_Node000009"><a xlink:title=" ">
<path fill="none" stroke="#63b8ff" d="M342.28,-54.8C381.15,-46.88 438.64,-34.64 497.57,-19.6"/>
<polygon fill="#63b8ff" stroke="#63b8ff" points="498.31,-23.02 507.12,-17.13 496.56,-16.24 498.31,-23.02"/>
</a>
</g>
</g>
<!-- Node10 -->
<g id="Node000010" class="node">
<title>Node10</title>
<g id="a_Node000010"><a xlink:title=" ">
<polygon fill="#e0e0e0" stroke="#999999" points="1122.12,-19.25 1070.88,-19.25 1070.88,0 1122.12,0 1122.12,-19.25"/>
<text text-anchor="middle" x="1096.5" y="-5.75" font-family="Helvetica,sans-Serif" font-size="10.00">ostream</text>
</a>
</g>
</g>
<!-- Node3&#45;&gt;Node10 -->
<g id="edge9_Node000003_Node000010" class="edge">
<title>Node3&#45;&gt;Node10</title>
<g id="a_edge9_Node000003_Node000010"><a xlink:title=" ">
<path fill="none" stroke="#63b8ff" d="M369.26,-59.03C534.77,-48.02 934.69,-21.4 1058.99,-13.12"/>
<polygon fill="#63b8ff" stroke="#63b8ff" points="1059.22,-16.61 1068.96,-12.46 1058.75,-9.63 1059.22,-16.61"/>
</a>
</g>
</g>
<!-- Node11 -->
<g id="Node000011" class="node">
<title>Node11</title>
<g id="a_Node000011"><a xlink:title=" ">
<polygon fill="#e0e0e0" stroke="#999999" points="424.12,-19.25 372.88,-19.25 372.88,0 424.12,0 424.12,-19.25"/>
<text text-anchor="middle" x="398.5" y="-5.75" font-family="Helvetica,sans-Serif" font-size="10.00">sstream</text>
</a>
</g>
</g>
<!-- Node3&#45;&gt;Node11 -->
<g id="edge10_Node000003_Node000011" class="edge">
<title>Node3&#45;&gt;Node11</title>
<g id="a_edge10_Node000003_Node000011"><a xlink:title=" ">
<path fill="none" stroke="#63b8ff" d="M313.8,-54.84C329.48,-46.66 352.85,-34.46 371.08,-24.94"/>
<polygon fill="#63b8ff" stroke="#63b8ff" points="372.53,-28.13 379.77,-20.4 369.29,-21.93 372.53,-28.13"/>
</a>
</g>
</g>
<!-- Node3&#45;&gt;Node12 -->
<g id="edge11_Node000003_Node000012" class="edge">
<title>Node3&#45;&gt;Node12</title>
<g id="a_edge11_Node000003_Node000012"><a xlink:title=" ">
<path fill="none" stroke="#63b8ff" d="M362.91,-54.76C413.33,-47.34 484.55,-35.75 555.4,-19.51"/>
<polygon fill="#63b8ff" stroke="#63b8ff" points="555.88,-22.99 564.83,-17.31 554.29,-16.17 555.88,-22.99"/>
</a>
</g>
</g>
<!-- Node3&#45;&gt;Node13 -->
<g id="edge12_Node000003_Node000013" class="edge">
<title>Node3&#45;&gt;Node13</title>
<g id="a_edge12_Node000003_Node000013"><a xlink:title=" ">
<path fill="none" stroke="#63b8ff" d="M231.52,-54.76C183.14,-47.41 115.32,-35.96 48.08,-19.64"/>
<polygon fill="#63b8ff" stroke="#63b8ff" points="49.31,-16.34 38.76,-17.34 47.63,-23.14 49.31,-16.34"/>
</a>
</g>
</g>
<!-- Node14 -->
<g id="Node000014" class="node">
<title>Node14</title>
<g id="a_Node000014"><a xlink:href="SourceID_8hxx.html" target="_top" xlink:title=" ">
<polygon fill="white" stroke="#666666" points="154.12,-19.25 54.88,-19.25 54.88,0 154.12,0 154.12,-19.25"/>
<text text-anchor="middle" x="104.5" y="-5.75" font-family="Helvetica,sans-Serif" font-size="10.00">detail/SourceID.hxx</text>
</a>
</g>
</g>
<!-- Node3&#45;&gt;Node14 -->
<g id="edge13_Node000003_Node000014" class="edge">
<title>Node3&#45;&gt;Node14</title>
<g id="a_edge13_Node000003_Node000014"><a xlink:title=" ">
<path fill="none" stroke="#63b8ff" d="M263.93,-54.84C232.07,-46.01 183.34,-32.49 148.14,-22.73"/>
<polygon fill="#63b8ff" stroke="#63b8ff" points="149.26,-19.41 138.69,-20.11 147.39,-26.15 149.26,-19.41"/>
</a>
</g>
</g>
<!-- Node15&#45;&gt;Node6 -->
<g id="edge15_Node000015_Node000006" class="edge">
<title>Node15&#45;&gt;Node6</title>
<g id="a_edge15_Node000015_Node000006"><a xlink:title=" ">
<path fill="none" stroke="#63b8ff" d="M779.35,-56.27C782.44,-55.92 785.5,-55.58 788.5,-55.25 940.86,-38.49 979.54,-39.35 1131.5,-19.25 1137.85,-18.41 1144.61,-17.41 1151.12,-16.4"/>
<polygon fill="#63b8ff" stroke="#63b8ff" points="1151.6,-19.87 1160.92,-14.83 1150.49,-12.96 1151.6,-19.87"/>
</a>
</g>
</g>
<!-- Node15&#45;&gt;Node9 -->
<g id="edge16_Node000015_Node000009" class="edge">
<title>Node15&#45;&gt;Node9</title>
<g id="a_edge16_Node000015_Node000009"><a xlink:title=" ">
<path fill="none" stroke="#63b8ff" d="M681.5,-54.83C652.17,-46.51 607.25,-33.72 559.37,-19.77"/>
<polygon fill="#63b8ff" stroke="#63b8ff" points="560.49,-16.46 549.91,-17.02 558.53,-23.18 560.49,-16.46"/>
</a>
</g>
</g>
<!-- Node21&#45;&gt;Node10 -->
<g id="edge30_Node000021_Node000010" class="edge">
<title>Node21&#45;&gt;Node10</title>
<g id="a_edge30_Node000021_Node000010"><a xlink:title=" ">
<path fill="none" stroke="#63b8ff" d="M1032.28,-110.13C1046.78,-102.56 1065.9,-90.44 1077.5,-74.5 1086.79,-61.74 1091.57,-44.44 1094.01,-31.07"/>
<polygon fill="#63b8ff" stroke="#63b8ff" points="1097.47,-31.62 1095.49,-21.22 1090.55,-30.59 1097.47,-31.62"/>
</a>
</g>
</g>
<!-- Node21&#45;&gt;Node12 -->
<g id="edge31_Node000021_Node000012" class="edge">
<title>Node21&#45;&gt;Node12</title>
<g id="a_edge31_Node000021_Node000012"><a xlink:title=" ">
<path fill="none" stroke="#63b8ff" d="M999.34,-110.19C975.7,-94.28 926.69,-62.09 907.5,-55.25 806.06,-19.1 676.89,-12.06 618.14,-10.81"/>
<polygon fill="#63b8ff" stroke="#63b8ff" points="618.28,-7.31 608.22,-10.65 618.16,-14.31 618.28,-7.31"/>
</a>
</g>
</g>
<!-- Node21&#45;&gt;Node16 -->
<g id="edge26_Node000021_Node000016" class="edge">
<title>Node21&#45;&gt;Node16</title>
<g id="a_edge26_Node000021_Node000016"><a xlink:title=" ">
<path fill="none" stroke="#63b8ff" d="M989.77,-110.09C967.62,-101.29 933.8,-87.85 909.26,-78.1"/>
<polygon fill="#63b8ff" stroke="#63b8ff" points="910.7,-74.91 900.12,-74.46 908.12,-81.41 910.7,-74.91"/>
</a>
</g>
</g>
<!-- Node21&#45;&gt;Node20 -->
<g id="edge28_Node000021_Node000020" class="edge">
<title>Node21&#45;&gt;Node20</title>
<g id="a_edge28_Node000021_Node000020"><a xlink:title=" ">
<path fill="none" stroke="#63b8ff" d="M979.09,-110.02C948.38,-101.65 901.32,-88.78 851.24,-74.97"/>
<polygon fill="#63b8ff" stroke="#63b8ff" points="852.21,-71.61 841.64,-72.32 850.34,-78.36 852.21,-71.61"/>
</a>
</g>
</g>
<!-- Node22 -->
<g id="Node000022" class="node">
<title>Node22</title>
<g id="a_Node000022"><a xlink:title=" ">
<polygon fill="#e0e0e0" stroke="#999999" points="1365.25,-74.5 1311.75,-74.5 1311.75,-55.25 1365.25,-55.25 1365.25,-74.5"/>
<text text-anchor="middle" x="1338.5" y="-61" font-family="Helvetica,sans-Serif" font-size="10.00">iostream</text>
</a>
</g>
</g>
<!-- Node21&#45;&gt;Node22 -->
<g id="edge27_Node000021_Node000022" class="edge">
<title>Node21&#45;&gt;Node22</title>
<g id="a_edge27_Node000021_Node000022"><a xlink:title=" ">
<path fill="none" stroke="#63b8ff" d="M1083.67,-110.02C1140.12,-102.39 1221.25,-90.5 1300.29,-75.01"/>
<polygon fill="#63b8ff" stroke="#63b8ff" points="1300.81,-78.48 1309.94,-73.1 1299.45,-71.61 1300.81,-78.48"/>
</a>
</g>
</g>
<!-- Node23 -->
<g id="Node000023" class="node">
<title>Node23</title>
<g id="a_Node000023"><a xlink:title=" ">
<polygon fill="#e0e0e0" stroke="#999999" points="1441.5,-74.5 1383.5,-74.5 1383.5,-55.25 1441.5,-55.25 1441.5,-74.5"/>
<text text-anchor="middle" x="1412.5" y="-61" font-family="Helvetica,sans-Serif" font-size="10.00">stdexcept</text>
</a>
</g>
</g>
<!-- Node21&#45;&gt;Node23 -->
<g id="edge29_Node000021_Node000023" class="edge">
<title>Node21&#45;&gt;Node23</title>
<g id="a_edge29_Node000021_Node000023"><a xlink:title=" ">
<path fill="none" stroke="#63b8ff" d="M1096.61,-111.18C1167.55,-103.92 1271.96,-91.94 1371.88,-74.8"/>
<polygon fill="#63b8ff" stroke="#63b8ff" points="1372.36,-78.27 1381.61,-73.11 1371.16,-71.38 1372.36,-78.27"/>
</a>
</g>
</g>
<!-- Node24 -->
<g id="Node000024" class="node">
<title>Node24</title>
<g id="a_Node000024"><a xlink:title=" ">
<polygon fill="#e0e0e0" stroke="#999999" points="1004,-74.5 955,-74.5 955,-55.25 1004,-55.25 1004,-74.5"/>
<text text-anchor="middle" x="979.5" y="-61" font-family="Helvetica,sans-Serif" font-size="10.00">fstream</text>
</a>
</g>
</g>
<!-- Node21&#45;&gt;Node24 -->
<g id="edge32_Node000021_Node000024" class="edge">
<title>Node21&#45;&gt;Node24</title>
<g id="a_edge32_Node000021_Node000024"><a xlink:title=" ">
<path fill="none" stroke="#63b8ff" d="M1007.05,-110.33C1002.73,-103.36 996.54,-93.37 991.12,-84.62"/>
<polygon fill="#63b8ff" stroke="#63b8ff" points="994.11,-82.8 985.86,-76.15 988.16,-86.49 994.11,-82.8"/>
</a>
</g>
</g>
<!-- Node25 -->
<g id="Node000025" class="node">
<title>Node25</title>
<g id="a_Node000025"><a xlink:title=" ">
<polygon fill="#e0e0e0" stroke="#999999" points="1068.5,-74.5 1022.5,-74.5 1022.5,-55.25 1068.5,-55.25 1068.5,-74.5"/>
<text text-anchor="middle" x="1045.5" y="-61" font-family="Helvetica,sans-Serif" font-size="10.00">iterator</text>
</a>
</g>
</g>
<!-- Node21&#45;&gt;Node25 -->
<g id="edge33_Node000021_Node000025" class="edge">
<title>Node21&#45;&gt;Node25</title>
<g id="a_edge33_Node000021_Node000025"><a xlink:title=" ">
<path fill="none" stroke="#63b8ff" d="M1017.95,-110.33C1022.27,-103.36 1028.46,-93.37 1033.88,-84.62"/>
<polygon fill="#63b8ff" stroke="#63b8ff" points="1036.84,-86.49 1039.14,-76.15 1030.89,-82.8 1036.84,-86.49"/>
</a>
</g>
</g>
<!-- Node26 -->
<g id="Node000026" class="node">
<title>Node26</title>
<g id="a_Node000026"><a xlink:href="DAQEthHeader_8hpp.html" target="_top" xlink:title=" ">
<polygon fill="white" stroke="#666666" points="1294,-74.5 1125,-74.5 1125,-55.25 1294,-55.25 1294,-74.5"/>
<text text-anchor="middle" x="1209.5" y="-61" font-family="Helvetica,sans-Serif" font-size="10.00">detdataformats/DAQEthHeader.hpp</text>
</a>
</g>
</g>
<!-- Node21&#45;&gt;Node26 -->
<g id="edge34_Node000021_Node000026" class="edge">
<title>Node21&#45;&gt;Node26</title>
<g id="a_edge34_Node000021_Node000026"><a xlink:title=" ">
<path fill="none" stroke="#63b8ff" d="M1045.92,-110.09C1078.75,-101.22 1129.04,-87.62 1165.19,-77.85"/>
<polygon fill="#63b8ff" stroke="#63b8ff" points="1165.72,-81.34 1174.46,-75.35 1163.89,-74.58 1165.72,-81.34"/>
</a>
</g>
</g>
<!-- Node26&#45;&gt;Node6 -->
<g id="edge35_Node000026_Node000006" class="edge">
<title>Node26&#45;&gt;Node6</title>
<g id="a_edge35_Node000026_Node000006"><a xlink:title=" ">
<path fill="none" stroke="#63b8ff" d="M1205.54,-55.08C1202.46,-48.26 1198.09,-38.56 1194.21,-29.95"/>
<polygon fill="#63b8ff" stroke="#63b8ff" points="1197.47,-28.67 1190.17,-20.99 1191.09,-31.54 1197.47,-28.67"/>
</a>
</g>
</g>
<!-- Node26&#45;&gt;Node10 -->
<g id="edge36_Node000026_Node000010" class="edge">
<title>Node26&#45;&gt;Node10</title>
<g id="a_edge36_Node000026_Node000010"><a xlink:title=" ">
<path fill="none" stroke="#63b8ff" d="M1190.33,-54.84C1172.72,-46.54 1146.34,-34.11 1126.04,-24.54"/>
<polygon fill="#63b8ff" stroke="#63b8ff" points="1127.67,-21.44 1117.13,-20.35 1124.69,-27.78 1127.67,-21.44"/>
</a>
</g>
</g>
</g>
</svg>
