<?xml version="1.0" encoding="UTF-8" standalone="no"?>
<!DOCTYPE svg PUBLIC "-//W3C//DTD SVG 1.1//EN"
 "http://www.w3.org/Graphics/SVG/1.1/DTD/svg11.dtd">
<!-- Generated by graphviz version 9.0.0 (20230911.1827)
 -->
<!-- Title: /github/workspace/dev_area/build/timinglibs/codegen/include/timinglibs/timingcmd/Structs.hpp Pages: 1 -->
<svg width="826pt" height="395pt"
 viewBox="0.00 0.00 825.94 394.50" xmlns="http://www.w3.org/2000/svg" xmlns:xlink="http://www.w3.org/1999/xlink">
<g id="graph0" class="graph" transform="scale(1 1) rotate(0) translate(4 390.5)">
<title>/github/workspace/dev_area/build/timinglibs/codegen/include/timinglibs/timingcmd/Structs.hpp</title>
<!-- Node1 -->
<g id="Node000001" class="node">
<title>Node1</title>
<g id="a_Node000001"><a xlink:title=" ">
<polygon fill="#999999" stroke="#666666" points="440.44,-386.5 306.69,-386.5 306.69,-333.5 440.44,-333.5 440.44,-386.5"/>
<text text-anchor="start" x="314.69" y="-373" font-family="Helvetica,sans-Serif" font-size="10.00">/github/workspace/dev</text>
<text text-anchor="start" x="314.69" y="-361.75" font-family="Helvetica,sans-Serif" font-size="10.00">_area/build/timinglibs</text>
<text text-anchor="start" x="314.69" y="-350.5" font-family="Helvetica,sans-Serif" font-size="10.00">/codegen/include/timinglibs</text>
<text text-anchor="middle" x="373.56" y="-339.25" font-family="Helvetica,sans-Serif" font-size="10.00">/timingcmd/Structs.hpp</text>
</a>
</g>
</g>
<!-- Node2 -->
<g id="Node000002" class="node">
<title>Node2</title>
<g id="a_Node000002"><a xlink:href="timinglibs_2codegen_2include_2timinglibs_2timingcmd_2Nljs_8hpp.html" target="_top" xlink:title=" ">
<polygon fill="white" stroke="#666666" points="569.44,-297.5 435.69,-297.5 435.69,-244.5 569.44,-244.5 569.44,-297.5"/>
<text text-anchor="start" x="443.69" y="-284" font-family="Helvetica,sans-Serif" font-size="10.00">/github/workspace/dev</text>
<text text-anchor="start" x="443.69" y="-272.75" font-family="Helvetica,sans-Serif" font-size="10.00">_area/build/timinglibs</text>
<text text-anchor="start" x="443.69" y="-261.5" font-family="Helvetica,sans-Serif" font-size="10.00">/codegen/include/timinglibs</text>
<text text-anchor="middle" x="502.56" y="-250.25" font-family="Helvetica,sans-Serif" font-size="10.00">/timingcmd/Nljs.hpp</text>
</a>
</g>
</g>
<!-- Node1&#45;&gt;Node2 -->
<g id="edge1_Node000001_Node000002" class="edge">
<title>Node1&#45;&gt;Node2</title>
<g id="a_edge1_Node000001_Node000002"><a xlink:title=" ">
<path fill="none" stroke="#63b8ff" d="M421.45,-326.71C435.52,-317.21 450.73,-306.96 464.13,-297.92"/>
<polygon fill="#63b8ff" stroke="#63b8ff" points="419.51,-323.79 413.17,-332.29 423.42,-329.6 419.51,-323.79"/>
</a>
</g>
</g>
<!-- Node3 -->
<g id="Node000003" class="node">
<title>Node3</title>
<g id="a_Node000003"><a xlink:href="msgp_8hpp.html" target="_top" xlink:title=" ">
<polygon fill="white" stroke="#666666" points="759.44,-208.5 625.69,-208.5 625.69,-155.5 759.44,-155.5 759.44,-208.5"/>
<text text-anchor="start" x="633.69" y="-195" font-family="Helvetica,sans-Serif" font-size="10.00">/github/workspace/dev</text>
<text text-anchor="start" x="633.69" y="-183.75" font-family="Helvetica,sans-Serif" font-size="10.00">_area/build/timinglibs</text>
<text text-anchor="start" x="633.69" y="-172.5" font-family="Helvetica,sans-Serif" font-size="10.00">/codegen/include/timinglibs</text>
<text text-anchor="middle" x="692.56" y="-161.25" font-family="Helvetica,sans-Serif" font-size="10.00">/timingcmd/msgp.hpp</text>
</a>
</g>
</g>
<!-- Node1&#45;&gt;Node3 -->
<g id="edge14_Node000001_Node000003" class="edge">
<title>Node1&#45;&gt;Node3</title>
<g id="a_edge14_Node000001_Node000003"><a xlink:title=" ">
<path fill="none" stroke="#63b8ff" d="M451.72,-345.13C491.63,-335.74 539.81,-320.71 578.56,-297.5 617.55,-274.15 652.85,-234.5 673.51,-208.53"/>
<polygon fill="#63b8ff" stroke="#63b8ff" points="451.15,-341.67 442.17,-347.3 452.7,-348.5 451.15,-341.67"/>
</a>
</g>
</g>
<!-- Node4 -->
<g id="Node000004" class="node">
<title>Node4</title>
<g id="a_Node000004"><a xlink:href="sourcecode_2timinglibs_2src_2TimingController_8cpp.html" target="_top" xlink:title=" ">
<polygon fill="white" stroke="#666666" points="416.31,-119.5 278.81,-119.5 278.81,-77.75 416.31,-77.75 416.31,-119.5"/>
<text text-anchor="start" x="286.81" y="-106" font-family="Helvetica,sans-Serif" font-size="10.00">/github/workspace/dev</text>
<text text-anchor="start" x="286.81" y="-94.75" font-family="Helvetica,sans-Serif" font-size="10.00">_area/sourcecode/timinglibs</text>
<text text-anchor="middle" x="347.56" y="-83.5" font-family="Helvetica,sans-Serif" font-size="10.00">/src/TimingController.cpp</text>
</a>
</g>
</g>
<!-- Node1&#45;&gt;Node4 -->
<g id="edge19_Node000001_Node000004" class="edge">
<title>Node1&#45;&gt;Node4</title>
<g id="a_edge19_Node000001_Node000004"><a xlink:title=" ">
<path fill="none" stroke="#63b8ff" d="M294.9,-353.31C207.88,-342.04 74.2,-308.46 30.56,-208.5 21.14,-186.91 15.42,-173.54 30.56,-155.5 31.06,-154.9 185.42,-127.9 278.52,-111.65"/>
<polygon fill="#63b8ff" stroke="#63b8ff" points="294.47,-356.79 304.82,-354.52 295.31,-349.84 294.47,-356.79"/>
</a>
</g>
</g>
<!-- Node5 -->
<g id="Node000005" class="node">
<title>Node5</title>
<g id="a_Node000005"><a xlink:href="TimingHardwareManagerBase_8hpp.html" target="_top" xlink:title=" ">
<polygon fill="white" stroke="#666666" points="817.94,-119.5 633.19,-119.5 633.19,-77.75 817.94,-77.75 817.94,-119.5"/>
<text text-anchor="start" x="641.19" y="-106" font-family="Helvetica,sans-Serif" font-size="10.00">/github/workspace/dev</text>
<text text-anchor="start" x="641.19" y="-94.75" font-family="Helvetica,sans-Serif" font-size="10.00">_area/sourcecode/timinglibs</text>
<text text-anchor="middle" x="725.56" y="-83.5" font-family="Helvetica,sans-Serif" font-size="10.00">/src/TimingHardwareManagerBase.hpp</text>
</a>
</g>
</g>
<!-- Node1&#45;&gt;Node5 -->
<g id="edge22_Node000001_Node000005" class="edge">
<title>Node1&#45;&gt;Node5</title>
<g id="a_edge22_Node000001_Node000005"><a xlink:title=" ">
<path fill="none" stroke="#63b8ff" d="M452.33,-352.16C541.34,-343.22 679.55,-325.36 723.56,-297.5 781.9,-260.57 814.38,-218.69 786.56,-155.5 780.31,-141.3 768.48,-129.14 756.89,-119.82"/>
<polygon fill="#63b8ff" stroke="#63b8ff" points="452.04,-348.67 442.43,-353.13 452.73,-355.63 452.04,-348.67"/>
</a>
</g>
</g>
<!-- Node7 -->
<g id="Node000007" class="node">
<title>Node7</title>
<g id="a_Node000007"><a xlink:href="TimingEndpointControllerBase_8cpp.html" target="_top" xlink:title=" ">
<polygon fill="white" stroke="#666666" points="223.56,-119.5 39.56,-119.5 39.56,-77.75 223.56,-77.75 223.56,-119.5"/>
<text text-anchor="start" x="47.56" y="-106" font-family="Helvetica,sans-Serif" font-size="10.00">/github/workspace/dev</text>
<text text-anchor="start" x="47.56" y="-94.75" font-family="Helvetica,sans-Serif" font-size="10.00">_area/sourcecode/timinglibs</text>
<text text-anchor="middle" x="131.56" y="-83.5" font-family="Helvetica,sans-Serif" font-size="10.00">/src/TimingEndpointControllerBase.cpp</text>
</a>
</g>
</g>
<!-- Node1&#45;&gt;Node7 -->
<g id="edge20_Node000001_Node000007" class="edge">
<title>Node1&#45;&gt;Node7</title>
<g id="a_edge20_Node000001_Node000007"><a xlink:title=" ">
<path fill="none" stroke="#63b8ff" d="M295.07,-352.61C212.22,-344.4 88.69,-327.48 52.56,-297.5 2.54,-255.99 -16.83,-210.66 17.56,-155.5 27.42,-139.7 43.19,-128.24 59.89,-119.98"/>
<polygon fill="#63b8ff" stroke="#63b8ff" points="294.69,-356.09 304.98,-353.57 295.36,-349.13 294.69,-356.09"/>
</a>
</g>
</g>
<!-- Node8 -->
<g id="Node000008" class="node">
<title>Node8</title>
<g id="a_Node000008"><a xlink:href="TimingEndpointControllerBase_8hpp.html" target="_top" xlink:title=" ">
<polygon fill="white" stroke="#666666" points="223.56,-202.88 39.56,-202.88 39.56,-161.12 223.56,-161.12 223.56,-202.88"/>
<text text-anchor="start" x="47.56" y="-189.38" font-family="Helvetica,sans-Serif" font-size="10.00">/github/workspace/dev</text>
<text text-anchor="start" x="47.56" y="-178.12" font-family="Helvetica,sans-Serif" font-size="10.00">_area/sourcecode/timinglibs</text>
<text text-anchor="middle" x="131.56" y="-166.88" font-family="Helvetica,sans-Serif" font-size="10.00">/src/TimingEndpointControllerBase.hpp</text>
</a>
</g>
</g>
<!-- Node1&#45;&gt;Node8 -->
<g id="edge21_Node000001_Node000008" class="edge">
<title>Node1&#45;&gt;Node8</title>
<g id="a_edge21_Node000001_Node000008"><a xlink:title=" ">
<path fill="none" stroke="#63b8ff" d="M295.22,-346.56C239.07,-336.01 170.06,-319.15 150.56,-297.5 127.24,-271.59 126.76,-228.41 128.9,-203.13"/>
<polygon fill="#63b8ff" stroke="#63b8ff" points="294.31,-349.95 304.78,-348.31 295.57,-343.07 294.31,-349.95"/>
</a>
</g>
</g>
<!-- Node9 -->
<g id="Node000009" class="node">
<title>Node9</title>
<g id="a_Node000009"><a xlink:href="TimingMasterControllerBase_8cpp.html" target="_top" xlink:title=" ">
<polygon fill="white" stroke="#666666" points="614.81,-119.5 438.31,-119.5 438.31,-77.75 614.81,-77.75 614.81,-119.5"/>
<text text-anchor="start" x="446.31" y="-106" font-family="Helvetica,sans-Serif" font-size="10.00">/github/workspace/dev</text>
<text text-anchor="start" x="446.31" y="-94.75" font-family="Helvetica,sans-Serif" font-size="10.00">_area/sourcecode/timinglibs</text>
<text text-anchor="middle" x="526.56" y="-83.5" font-family="Helvetica,sans-Serif" font-size="10.00">/src/TimingMasterControllerBase.cpp</text>
</a>
</g>
</g>
<!-- Node1&#45;&gt;Node9 -->
<g id="edge23_Node000001_Node000009" class="edge">
<title>Node1&#45;&gt;Node9</title>
<g id="a_edge23_Node000001_Node000009"><a xlink:title=" ">
<path fill="none" stroke="#63b8ff" d="M452.11,-356.7C548.47,-348.98 706.67,-319.12 768.56,-208.5 780.07,-187.94 783.23,-173.93 768.56,-155.5 766.04,-152.33 683.12,-133.63 615.04,-118.73"/>
<polygon fill="#63b8ff" stroke="#63b8ff" points="451.9,-353.21 442.18,-357.43 452.41,-360.19 451.9,-353.21"/>
</a>
</g>
</g>
<!-- Node10 -->
<g id="Node000010" class="node">
<title>Node10</title>
<g id="a_Node000010"><a xlink:href="TimingMasterControllerBase_8hpp.html" target="_top" xlink:title=" ">
<polygon fill="white" stroke="#666666" points="455.81,-202.88 279.31,-202.88 279.31,-161.12 455.81,-161.12 455.81,-202.88"/>
<text text-anchor="start" x="287.31" y="-189.38" font-family="Helvetica,sans-Serif" font-size="10.00">/github/workspace/dev</text>
<text text-anchor="start" x="287.31" y="-178.12" font-family="Helvetica,sans-Serif" font-size="10.00">_area/sourcecode/timinglibs</text>
<text text-anchor="middle" x="367.56" y="-166.88" font-family="Helvetica,sans-Serif" font-size="10.00">/src/TimingMasterControllerBase.hpp</text>
</a>
</g>
</g>
<!-- Node1&#45;&gt;Node10 -->
<g id="edge24_Node000001_Node000010" class="edge">
<title>Node1&#45;&gt;Node10</title>
<g id="a_edge24_Node000001_Node000010"><a xlink:title=" ">
<path fill="none" stroke="#63b8ff" d="M372.3,-321.97C371.07,-285.86 369.24,-232.26 368.26,-203.32"/>
<polygon fill="#63b8ff" stroke="#63b8ff" points="368.79,-321.64 372.63,-331.52 375.78,-321.4 368.79,-321.64"/>
</a>
</g>
</g>
<!-- Node11 -->
<g id="Node000011" class="node">
<title>Node11</title>
<g id="a_Node000011"><a xlink:href="sourcecode_2timinglibs_2include_2timinglibs_2TimingController_8hpp.html" target="_top" xlink:title=" ">
<polygon fill="white" stroke="#666666" points="345.31,-291.88 159.81,-291.88 159.81,-250.12 345.31,-250.12 345.31,-291.88"/>
<text text-anchor="start" x="167.81" y="-278.38" font-family="Helvetica,sans-Serif" font-size="10.00">/github/workspace/dev</text>
<text text-anchor="start" x="167.81" y="-267.12" font-family="Helvetica,sans-Serif" font-size="10.00">_area/sourcecode/timinglibs</text>
<text text-anchor="middle" x="252.56" y="-255.88" font-family="Helvetica,sans-Serif" font-size="10.00">/include/timinglibs/TimingController.hpp</text>
</a>
</g>
</g>
<!-- Node1&#45;&gt;Node11 -->
<g id="edge15_Node000001_Node000011" class="edge">
<title>Node1&#45;&gt;Node11</title>
<g id="a_edge15_Node000001_Node000011"><a xlink:title=" ">
<path fill="none" stroke="#63b8ff" d="M328.35,-326.49C312.3,-314.95 294.71,-302.31 280.53,-292.11"/>
<polygon fill="#63b8ff" stroke="#63b8ff" points="326.2,-329.25 336.36,-332.25 330.28,-323.57 326.2,-329.25"/>
</a>
</g>
</g>
<!-- Node2&#45;&gt;Node3 -->
<g id="edge2_Node000002_Node000003" class="edge">
<title>Node2&#45;&gt;Node3</title>
<g id="a_edge2_Node000002_Node000003"><a xlink:title=" ">
<path fill="none" stroke="#63b8ff" d="M569.77,-239.23C591.46,-229.29 615.27,-218.39 636.11,-208.85"/>
<polygon fill="#63b8ff" stroke="#63b8ff" points="568.32,-236.04 560.69,-243.38 571.24,-242.4 568.32,-236.04"/>
</a>
</g>
</g>
<!-- Node2&#45;&gt;Node4 -->
<g id="edge6_Node000002_Node000004" class="edge">
<title>Node2&#45;&gt;Node4</title>
<g id="a_edge6_Node000002_Node000004"><a xlink:title=" ">
<path fill="none" stroke="#63b8ff" d="M510.75,-232.88C513.9,-208.62 513.56,-177.49 497.56,-155.5 487.3,-141.4 451.05,-127.69 416.76,-117.39"/>
<polygon fill="#63b8ff" stroke="#63b8ff" points="507.3,-232.24 509.2,-242.67 514.22,-233.33 507.3,-232.24"/>
</a>
</g>
</g>
<!-- Node2&#45;&gt;Node5 -->
<g id="edge10_Node000002_Node000005" class="edge">
<title>Node2&#45;&gt;Node5</title>
<g id="a_edge10_Node000002_Node000005"><a xlink:title=" ">
<path fill="none" stroke="#63b8ff" d="M531.29,-235.88C553.01,-211.47 584.48,-178.92 616.56,-155.5 635.46,-141.71 658.24,-129.45 678.08,-119.96"/>
<polygon fill="#63b8ff" stroke="#63b8ff" points="528.71,-233.51 524.74,-243.33 533.97,-238.13 528.71,-233.51"/>
</a>
</g>
</g>
<!-- Node2&#45;&gt;Node7 -->
<g id="edge7_Node000002_Node000007" class="edge">
<title>Node2&#45;&gt;Node7</title>
<g id="a_edge7_Node000002_Node000007"><a xlink:title=" ">
<path fill="none" stroke="#63b8ff" d="M500.05,-233.26C496.29,-207.66 487.05,-174.76 464.56,-155.5 459.94,-151.54 320.88,-129.16 223.95,-113.95"/>
<polygon fill="#63b8ff" stroke="#63b8ff" points="496.55,-233.44 501.24,-242.94 503.5,-232.58 496.55,-233.44"/>
</a>
</g>
</g>
<!-- Node2&#45;&gt;Node8 -->
<g id="edge8_Node000002_Node000008" class="edge">
<title>Node2&#45;&gt;Node8</title>
<g id="a_edge8_Node000002_Node000008"><a xlink:title=" ">
<path fill="none" stroke="#63b8ff" d="M424.39,-251.67C364.04,-237.52 280.59,-217.95 218.21,-203.32"/>
<polygon fill="#63b8ff" stroke="#63b8ff" points="423.37,-255.02 433.9,-253.9 424.97,-248.21 423.37,-255.02"/>
</a>
</g>
</g>
<!-- Node2&#45;&gt;Node9 -->
<g id="edge11_Node000002_Node000009" class="edge">
<title>Node2&#45;&gt;Node9</title>
<g id="a_edge11_Node000002_Node000009"><a xlink:title=" ">
<path fill="none" stroke="#63b8ff" d="M525.48,-234.31C529.64,-226.13 533.36,-217.26 535.56,-208.5 543.19,-178.15 537.25,-141.69 532.06,-119.61"/>
<polygon fill="#63b8ff" stroke="#63b8ff" points="522.51,-232.45 520.78,-242.9 528.65,-235.81 522.51,-232.45"/>
</a>
</g>
</g>
<!-- Node2&#45;&gt;Node10 -->
<g id="edge12_Node000002_Node000010" class="edge">
<title>Node2&#45;&gt;Node10</title>
<g id="a_edge12_Node000002_Node000010"><a xlink:title=" ">
<path fill="none" stroke="#63b8ff" d="M453.12,-238.14C434.95,-226.43 414.89,-213.5 398.76,-203.11"/>
<polygon fill="#63b8ff" stroke="#63b8ff" points="450.85,-240.84 461.15,-243.31 454.64,-234.95 450.85,-240.84"/>
</a>
</g>
</g>
<!-- Node3&#45;&gt;Node4 -->
<g id="edge3_Node000003_Node000004" class="edge">
<title>Node3&#45;&gt;Node4</title>
<g id="a_edge3_Node000003_Node000004"><a xlink:title=" ">
<path fill="none" stroke="#63b8ff" d="M614.02,-162.81C561.73,-150.65 491.5,-134.25 429.56,-119.5 425.29,-118.48 420.89,-117.43 416.45,-116.37"/>
<polygon fill="#63b8ff" stroke="#63b8ff" points="613.23,-166.22 623.76,-165.07 614.81,-159.4 613.23,-166.22"/>
</a>
</g>
</g>
<!-- Node3&#45;&gt;Node5 -->
<g id="edge4_Node000003_Node000005" class="edge">
<title>Node3&#45;&gt;Node5</title>
<g id="a_edge4_Node000003_Node000005"><a xlink:title=" ">
<path fill="none" stroke="#63b8ff" d="M707.29,-144.68C710.76,-136.13 714.33,-127.33 717.38,-119.79"/>
<polygon fill="#63b8ff" stroke="#63b8ff" points="704.09,-143.27 703.57,-153.85 710.57,-145.9 704.09,-143.27"/>
</a>
</g>
</g>
<!-- Node6 -->
<g id="Node000006" class="node">
<title>Node6</title>
<g id="a_Node000006"><a xlink:href="TimingHardwareManagerBase_8cpp.html" target="_top" xlink:title=" ">
<polygon fill="white" stroke="#666666" points="817.94,-41.75 633.19,-41.75 633.19,0 817.94,0 817.94,-41.75"/>
<text text-anchor="start" x="641.19" y="-28.25" font-family="Helvetica,sans-Serif" font-size="10.00">/github/workspace/dev</text>
<text text-anchor="start" x="641.19" y="-17" font-family="Helvetica,sans-Serif" font-size="10.00">_area/sourcecode/timinglibs</text>
<text text-anchor="middle" x="725.56" y="-5.75" font-family="Helvetica,sans-Serif" font-size="10.00">/src/TimingHardwareManagerBase.cpp</text>
</a>
</g>
</g>
<!-- Node5&#45;&gt;Node6 -->
<g id="edge5_Node000005_Node000006" class="edge">
<title>Node5&#45;&gt;Node6</title>
<g id="a_edge5_Node000005_Node000006"><a xlink:title=" ">
<path fill="none" stroke="#63b8ff" d="M725.56,-66C725.56,-57.96 725.56,-49.54 725.56,-42.23"/>
<polygon fill="#63b8ff" stroke="#63b8ff" points="722.06,-65.81 725.56,-75.81 729.06,-65.81 722.06,-65.81"/>
</a>
</g>
</g>
<!-- Node8&#45;&gt;Node7 -->
<g id="edge9_Node000008_Node000007" class="edge">
<title>Node8&#45;&gt;Node7</title>
<g id="a_edge9_Node000008_Node000007"><a xlink:title=" ">
<path fill="none" stroke="#63b8ff" d="M131.56,-149.64C131.56,-139.62 131.56,-128.8 131.56,-119.79"/>
<polygon fill="#63b8ff" stroke="#63b8ff" points="128.06,-149.37 131.56,-159.37 135.06,-149.37 128.06,-149.37"/>
</a>
</g>
</g>
<!-- Node10&#45;&gt;Node9 -->
<g id="edge13_Node000010_Node000009" class="edge">
<title>Node10&#45;&gt;Node9</title>
<g id="a_edge13_Node000010_Node000009"><a xlink:title=" ">
<path fill="none" stroke="#63b8ff" d="M417.27,-155.56C439.66,-144.1 465.74,-130.75 486.81,-119.97"/>
<polygon fill="#63b8ff" stroke="#63b8ff" points="415.93,-152.31 408.62,-159.99 419.12,-158.55 415.93,-152.31"/>
</a>
</g>
</g>
<!-- Node11&#45;&gt;Node4 -->
<g id="edge16_Node000011_Node000004" class="edge">
<title>Node11&#45;&gt;Node4</title>
<g id="a_edge16_Node000011_Node000004"><a xlink:title=" ">
<path fill="none" stroke="#63b8ff" d="M251.18,-238.34C251.55,-214.01 255.28,-180.46 270.56,-155.5 279.53,-140.85 293.92,-128.88 307.85,-119.84"/>
<polygon fill="#63b8ff" stroke="#63b8ff" points="247.68,-238.3 251.24,-248.28 254.68,-238.26 247.68,-238.3"/>
</a>
</g>
</g>
<!-- Node11&#45;&gt;Node8 -->
<g id="edge17_Node000011_Node000008" class="edge">
<title>Node11&#45;&gt;Node8</title>
<g id="a_edge17_Node000011_Node000008"><a xlink:title=" ">
<path fill="none" stroke="#63b8ff" d="M215.48,-243.34C197.59,-230.47 176.47,-215.29 159.89,-203.37"/>
<polygon fill="#63b8ff" stroke="#63b8ff" points="213.11,-245.94 223.27,-248.94 217.19,-240.26 213.11,-245.94"/>
</a>
</g>
</g>
<!-- Node11&#45;&gt;Node10 -->
<g id="edge18_Node000011_Node000010" class="edge">
<title>Node11&#45;&gt;Node10</title>
<g id="a_edge18_Node000011_Node000010"><a xlink:title=" ">
<path fill="none" stroke="#63b8ff" d="M288.28,-242.98C305.18,-230.2 325.03,-215.18 340.64,-203.37"/>
<polygon fill="#63b8ff" stroke="#63b8ff" points="286.31,-240.08 280.44,-248.91 290.53,-245.67 286.31,-240.08"/>
</a>
</g>
</g>
</g>
</svg>
