<?xml version="1.0" encoding="UTF-8" standalone="no"?>
<!DOCTYPE svg PUBLIC "-//W3C//DTD SVG 1.1//EN"
 "http://www.w3.org/Graphics/SVG/1.1/DTD/svg11.dtd">
<!-- Generated by graphviz version 9.0.0 (20230911.1827)
 -->
<!-- Title: /github/workspace/dev_area/build/timing/codegen/include/timing/timinghardwareinfo/Structs.hpp Pages: 1 -->
<svg width="172pt" height="116pt"
 viewBox="0.00 0.00 171.75 116.25" xmlns="http://www.w3.org/2000/svg" xmlns:xlink="http://www.w3.org/1999/xlink">
<g id="graph0" class="graph" transform="scale(1 1) rotate(0) translate(4 112.25)">
<title>/github/workspace/dev_area/build/timing/codegen/include/timing/timinghardwareinfo/Structs.hpp</title>
<!-- Node1 -->
<g id="Node000001" class="node">
<title>Node1</title>
<g id="a_Node000001"><a xlink:title=" ">
<polygon fill="#999999" stroke="#666666" points="163.75,-108.25 0,-108.25 0,-55.25 163.75,-55.25 163.75,-108.25"/>
<text text-anchor="start" x="8" y="-94.75" font-family="Helvetica,sans-Serif" font-size="10.00">/github/workspace/dev</text>
<text text-anchor="start" x="8" y="-83.5" font-family="Helvetica,sans-Serif" font-size="10.00">_area/build/timing/codegen</text>
<text text-anchor="start" x="8" y="-72.25" font-family="Helvetica,sans-Serif" font-size="10.00">/include/timing/timinghardwareinfo</text>
<text text-anchor="middle" x="81.88" y="-61" font-family="Helvetica,sans-Serif" font-size="10.00">/Structs.hpp</text>
</a>
</g>
</g>
<!-- Node2 -->
<g id="Node000002" class="node">
<title>Node2</title>
<g id="a_Node000002"><a xlink:title=" ">
<polygon fill="#e0e0e0" stroke="#999999" points="74.5,-19.25 29.25,-19.25 29.25,0 74.5,0 74.5,-19.25"/>
<text text-anchor="middle" x="51.88" y="-5.75" font-family="Helvetica,sans-Serif" font-size="10.00">cstdint</text>
</a>
</g>
</g>
<!-- Node1&#45;&gt;Node2 -->
<g id="edge1_Node000001_Node000002" class="edge">
<title>Node1&#45;&gt;Node2</title>
<g id="a_edge1_Node000001_Node000002"><a xlink:title=" ">
<path fill="none" stroke="#63b8ff" d="M70.87,-55.04C67.37,-46.83 63.54,-37.89 60.25,-30.2"/>
<polygon fill="#63b8ff" stroke="#63b8ff" points="63.52,-28.95 56.37,-21.13 57.08,-31.7 63.52,-28.95"/>
</a>
</g>
</g>
<!-- Node3 -->
<g id="Node000003" class="node">
<title>Node3</title>
<g id="a_Node000003"><a xlink:title=" ">
<polygon fill="#e0e0e0" stroke="#999999" points="132.88,-19.25 92.88,-19.25 92.88,0 132.88,0 132.88,-19.25"/>
<text text-anchor="middle" x="112.88" y="-5.75" font-family="Helvetica,sans-Serif" font-size="10.00">string</text>
</a>
</g>
</g>
<!-- Node1&#45;&gt;Node3 -->
<g id="edge2_Node000001_Node000003" class="edge">
<title>Node1&#45;&gt;Node3</title>
<g id="a_edge2_Node000001_Node000003"><a xlink:title=" ">
<path fill="none" stroke="#63b8ff" d="M93.24,-55.04C96.87,-46.83 100.82,-37.89 104.22,-30.2"/>
<polygon fill="#63b8ff" stroke="#63b8ff" points="107.39,-31.68 108.24,-21.12 100.99,-28.85 107.39,-31.68"/>
</a>
</g>
</g>
</g>
</svg>
