<?xml version="1.0" encoding="UTF-8" standalone="no"?>
<!DOCTYPE svg PUBLIC "-//W3C//DTD SVG 1.1//EN"
 "http://www.w3.org/Graphics/SVG/1.1/DTD/svg11.dtd">
<!-- Generated by graphviz version 9.0.0 (20230911.1827)
 -->
<!-- Title: /github/workspace/dev_area/build/timinglibs/codegen/include/timinglibs/timingcmd/Nljs.hpp Pages: 1 -->
<svg width="773pt" height="306pt"
 viewBox="0.00 0.00 773.00 305.50" xmlns="http://www.w3.org/2000/svg" xmlns:xlink="http://www.w3.org/1999/xlink">
<g id="graph0" class="graph" transform="scale(1 1) rotate(0) translate(4 301.5)">
<title>/github/workspace/dev_area/build/timinglibs/codegen/include/timinglibs/timingcmd/Nljs.hpp</title>
<!-- Node1 -->
<g id="Node000001" class="node">
<title>Node1</title>
<g id="a_Node000001"><a xlink:title=" ">
<polygon fill="#999999" stroke="#666666" points="387.62,-297.5 253.88,-297.5 253.88,-244.5 387.62,-244.5 387.62,-297.5"/>
<text text-anchor="start" x="261.88" y="-284" font-family="Helvetica,sans-Serif" font-size="10.00">/github/workspace/dev</text>
<text text-anchor="start" x="261.88" y="-272.75" font-family="Helvetica,sans-Serif" font-size="10.00">_area/build/timinglibs</text>
<text text-anchor="start" x="261.88" y="-261.5" font-family="Helvetica,sans-Serif" font-size="10.00">/codegen/include/timinglibs</text>
<text text-anchor="middle" x="320.75" y="-250.25" font-family="Helvetica,sans-Serif" font-size="10.00">/timingcmd/Nljs.hpp</text>
</a>
</g>
</g>
<!-- Node2 -->
<g id="Node000002" class="node">
<title>Node2</title>
<g id="a_Node000002"><a xlink:href="msgp_8hpp.html" target="_top" xlink:title=" ">
<polygon fill="white" stroke="#666666" points="254.62,-208.5 120.88,-208.5 120.88,-155.5 254.62,-155.5 254.62,-208.5"/>
<text text-anchor="start" x="128.88" y="-195" font-family="Helvetica,sans-Serif" font-size="10.00">/github/workspace/dev</text>
<text text-anchor="start" x="128.88" y="-183.75" font-family="Helvetica,sans-Serif" font-size="10.00">_area/build/timinglibs</text>
<text text-anchor="start" x="128.88" y="-172.5" font-family="Helvetica,sans-Serif" font-size="10.00">/codegen/include/timinglibs</text>
<text text-anchor="middle" x="187.75" y="-161.25" font-family="Helvetica,sans-Serif" font-size="10.00">/timingcmd/msgp.hpp</text>
</a>
</g>
</g>
<!-- Node1&#45;&gt;Node2 -->
<g id="edge1_Node000001_Node000002" class="edge">
<title>Node1&#45;&gt;Node2</title>
<g id="a_edge1_Node000001_Node000002"><a xlink:title=" ">
<path fill="none" stroke="#63b8ff" d="M271.8,-237.98C257.17,-228.41 241.32,-218.04 227.37,-208.92"/>
<polygon fill="#63b8ff" stroke="#63b8ff" points="269.65,-240.76 279.94,-243.3 273.49,-234.9 269.65,-240.76"/>
</a>
</g>
</g>
<!-- Node3 -->
<g id="Node000003" class="node">
<title>Node3</title>
<g id="a_Node000003"><a xlink:href="sourcecode_2timinglibs_2src_2TimingController_8cpp.html" target="_top" xlink:title=" ">
<polygon fill="white" stroke="#666666" points="137.5,-119.5 0,-119.5 0,-77.75 137.5,-77.75 137.5,-119.5"/>
<text text-anchor="start" x="8" y="-106" font-family="Helvetica,sans-Serif" font-size="10.00">/github/workspace/dev</text>
<text text-anchor="start" x="8" y="-94.75" font-family="Helvetica,sans-Serif" font-size="10.00">_area/sourcecode/timinglibs</text>
<text text-anchor="middle" x="68.75" y="-83.5" font-family="Helvetica,sans-Serif" font-size="10.00">/src/TimingController.cpp</text>
</a>
</g>
</g>
<!-- Node1&#45;&gt;Node3 -->
<g id="edge5_Node000001_Node000003" class="edge">
<title>Node1&#45;&gt;Node3</title>
<g id="a_edge5_Node000001_Node000003"><a xlink:title=" ">
<path fill="none" stroke="#63b8ff" d="M242.18,-263.6C199.04,-256.33 147.25,-240.94 111.75,-208.5 86.1,-185.06 75.53,-144.35 71.34,-119.91"/>
<polygon fill="#63b8ff" stroke="#63b8ff" points="241.6,-267.05 252.02,-265.13 242.68,-260.13 241.6,-267.05"/>
</a>
</g>
</g>
<!-- Node4 -->
<g id="Node000004" class="node">
<title>Node4</title>
<g id="a_Node000004"><a xlink:href="TimingHardwareManagerBase_8hpp.html" target="_top" xlink:title=" ">
<polygon fill="white" stroke="#666666" points="340.12,-119.5 155.38,-119.5 155.38,-77.75 340.12,-77.75 340.12,-119.5"/>
<text text-anchor="start" x="163.38" y="-106" font-family="Helvetica,sans-Serif" font-size="10.00">/github/workspace/dev</text>
<text text-anchor="start" x="163.38" y="-94.75" font-family="Helvetica,sans-Serif" font-size="10.00">_area/sourcecode/timinglibs</text>
<text text-anchor="middle" x="247.75" y="-83.5" font-family="Helvetica,sans-Serif" font-size="10.00">/src/TimingHardwareManagerBase.hpp</text>
</a>
</g>
</g>
<!-- Node1&#45;&gt;Node4 -->
<g id="edge9_Node000001_Node000004" class="edge">
<title>Node1&#45;&gt;Node4</title>
<g id="a_edge9_Node000001_Node000004"><a xlink:title=" ">
<path fill="none" stroke="#63b8ff" d="M305.29,-233.92C290.41,-199.2 268.45,-147.95 256.42,-119.86"/>
<polygon fill="#63b8ff" stroke="#63b8ff" points="301.91,-234.92 309.07,-242.73 308.35,-232.16 301.91,-234.92"/>
</a>
</g>
</g>
<!-- Node6 -->
<g id="Node000006" class="node">
<title>Node6</title>
<g id="a_Node000006"><a xlink:href="TimingEndpointControllerBase_8cpp.html" target="_top" xlink:title=" ">
<polygon fill="white" stroke="#666666" points="541.75,-119.5 357.75,-119.5 357.75,-77.75 541.75,-77.75 541.75,-119.5"/>
<text text-anchor="start" x="365.75" y="-106" font-family="Helvetica,sans-Serif" font-size="10.00">/github/workspace/dev</text>
<text text-anchor="start" x="365.75" y="-94.75" font-family="Helvetica,sans-Serif" font-size="10.00">_area/sourcecode/timinglibs</text>
<text text-anchor="middle" x="449.75" y="-83.5" font-family="Helvetica,sans-Serif" font-size="10.00">/src/TimingEndpointControllerBase.cpp</text>
</a>
</g>
</g>
<!-- Node1&#45;&gt;Node6 -->
<g id="edge6_Node000001_Node000006" class="edge">
<title>Node1&#45;&gt;Node6</title>
<g id="a_edge6_Node000001_Node000006"><a xlink:title=" ">
<path fill="none" stroke="#63b8ff" d="M318.67,-233.02C319.16,-208.83 323.47,-177.71 339.75,-155.5 351.21,-139.87 368.32,-128.3 385.64,-119.89"/>
<polygon fill="#63b8ff" stroke="#63b8ff" points="315.17,-232.77 318.7,-242.76 322.17,-232.75 315.17,-232.77"/>
</a>
</g>
</g>
<!-- Node7 -->
<g id="Node000007" class="node">
<title>Node7</title>
<g id="a_Node000007"><a xlink:href="TimingEndpointControllerBase_8hpp.html" target="_top" xlink:title=" ">
<polygon fill="white" stroke="#666666" points="532.75,-202.88 348.75,-202.88 348.75,-161.12 532.75,-161.12 532.75,-202.88"/>
<text text-anchor="start" x="356.75" y="-189.38" font-family="Helvetica,sans-Serif" font-size="10.00">/github/workspace/dev</text>
<text text-anchor="start" x="356.75" y="-178.12" font-family="Helvetica,sans-Serif" font-size="10.00">_area/sourcecode/timinglibs</text>
<text text-anchor="middle" x="440.75" y="-166.88" font-family="Helvetica,sans-Serif" font-size="10.00">/src/TimingEndpointControllerBase.hpp</text>
</a>
</g>
</g>
<!-- Node1&#45;&gt;Node7 -->
<g id="edge7_Node000001_Node000007" class="edge">
<title>Node1&#45;&gt;Node7</title>
<g id="a_edge7_Node000001_Node000007"><a xlink:title=" ">
<path fill="none" stroke="#63b8ff" d="M365.59,-237.49C381.51,-225.95 398.95,-213.31 413.02,-203.11"/>
<polygon fill="#63b8ff" stroke="#63b8ff" points="363.7,-234.54 357.65,-243.24 367.8,-240.21 363.7,-234.54"/>
</a>
</g>
</g>
<!-- Node8 -->
<g id="Node000008" class="node">
<title>Node8</title>
<g id="a_Node000008"><a xlink:href="TimingMasterControllerBase_8cpp.html" target="_top" xlink:title=" ">
<polygon fill="white" stroke="#666666" points="750,-119.5 573.5,-119.5 573.5,-77.75 750,-77.75 750,-119.5"/>
<text text-anchor="start" x="581.5" y="-106" font-family="Helvetica,sans-Serif" font-size="10.00">/github/workspace/dev</text>
<text text-anchor="start" x="581.5" y="-94.75" font-family="Helvetica,sans-Serif" font-size="10.00">_area/sourcecode/timinglibs</text>
<text text-anchor="middle" x="661.75" y="-83.5" font-family="Helvetica,sans-Serif" font-size="10.00">/src/TimingMasterControllerBase.cpp</text>
</a>
</g>
</g>
<!-- Node1&#45;&gt;Node8 -->
<g id="edge10_Node000001_Node000008" class="edge">
<title>Node1&#45;&gt;Node8</title>
<g id="a_edge10_Node000001_Node000008"><a xlink:title=" ">
<path fill="none" stroke="#63b8ff" d="M399.28,-261.27C444.2,-253.23 499.77,-237.84 541.75,-208.5 565.51,-191.89 559.01,-175.75 579.75,-155.5 593.56,-142.02 610.98,-129.64 626.21,-119.98"/>
<polygon fill="#63b8ff" stroke="#63b8ff" points="398.88,-257.79 389.6,-262.91 400.04,-264.69 398.88,-257.79"/>
</a>
</g>
</g>
<!-- Node9 -->
<g id="Node000009" class="node">
<title>Node9</title>
<g id="a_Node000009"><a xlink:href="TimingMasterControllerBase_8hpp.html" target="_top" xlink:title=" ">
<polygon fill="white" stroke="#666666" points="765,-202.88 588.5,-202.88 588.5,-161.12 765,-161.12 765,-202.88"/>
<text text-anchor="start" x="596.5" y="-189.38" font-family="Helvetica,sans-Serif" font-size="10.00">/github/workspace/dev</text>
<text text-anchor="start" x="596.5" y="-178.12" font-family="Helvetica,sans-Serif" font-size="10.00">_area/sourcecode/timinglibs</text>
<text text-anchor="middle" x="676.75" y="-166.88" font-family="Helvetica,sans-Serif" font-size="10.00">/src/TimingMasterControllerBase.hpp</text>
</a>
</g>
</g>
<!-- Node1&#45;&gt;Node9 -->
<g id="edge11_Node000001_Node000009" class="edge">
<title>Node1&#45;&gt;Node9</title>
<g id="a_edge11_Node000001_Node000009"><a xlink:title=" ">
<path fill="none" stroke="#63b8ff" d="M399.01,-251.21C449.24,-239.11 515.87,-222.99 574.75,-208.5 581.57,-206.82 588.65,-205.07 595.75,-203.31"/>
<polygon fill="#63b8ff" stroke="#63b8ff" points="398.27,-247.79 389.37,-253.53 399.91,-254.59 398.27,-247.79"/>
</a>
</g>
</g>
<!-- Node2&#45;&gt;Node3 -->
<g id="edge2_Node000002_Node000003" class="edge">
<title>Node2&#45;&gt;Node3</title>
<g id="a_edge2_Node000002_Node000003"><a xlink:title=" ">
<path fill="none" stroke="#63b8ff" d="M140.61,-148.76C126.4,-139.05 111.2,-128.66 98.46,-119.94"/>
<polygon fill="#63b8ff" stroke="#63b8ff" points="138.29,-151.42 148.52,-154.17 142.24,-145.64 138.29,-151.42"/>
</a>
</g>
</g>
<!-- Node2&#45;&gt;Node4 -->
<g id="edge3_Node000002_Node000004" class="edge">
<title>Node2&#45;&gt;Node4</title>
<g id="a_edge3_Node000002_Node000004"><a xlink:title=" ">
<path fill="none" stroke="#63b8ff" d="M213.48,-146.1C220.11,-137.12 227.02,-127.75 232.88,-119.79"/>
<polygon fill="#63b8ff" stroke="#63b8ff" points="210.75,-143.91 207.63,-154.03 216.38,-148.06 210.75,-143.91"/>
</a>
</g>
</g>
<!-- Node5 -->
<g id="Node000005" class="node">
<title>Node5</title>
<g id="a_Node000005"><a xlink:href="TimingHardwareManagerBase_8cpp.html" target="_top" xlink:title=" ">
<polygon fill="white" stroke="#666666" points="340.12,-41.75 155.38,-41.75 155.38,0 340.12,0 340.12,-41.75"/>
<text text-anchor="start" x="163.38" y="-28.25" font-family="Helvetica,sans-Serif" font-size="10.00">/github/workspace/dev</text>
<text text-anchor="start" x="163.38" y="-17" font-family="Helvetica,sans-Serif" font-size="10.00">_area/sourcecode/timinglibs</text>
<text text-anchor="middle" x="247.75" y="-5.75" font-family="Helvetica,sans-Serif" font-size="10.00">/src/TimingHardwareManagerBase.cpp</text>
</a>
</g>
</g>
<!-- Node4&#45;&gt;Node5 -->
<g id="edge4_Node000004_Node000005" class="edge">
<title>Node4&#45;&gt;Node5</title>
<g id="a_edge4_Node000004_Node000005"><a xlink:title=" ">
<path fill="none" stroke="#63b8ff" d="M247.75,-66C247.75,-57.96 247.75,-49.54 247.75,-42.23"/>
<polygon fill="#63b8ff" stroke="#63b8ff" points="244.25,-65.81 247.75,-75.81 251.25,-65.81 244.25,-65.81"/>
</a>
</g>
</g>
<!-- Node7&#45;&gt;Node6 -->
<g id="edge8_Node000007_Node000006" class="edge">
<title>Node7&#45;&gt;Node6</title>
<g id="a_edge8_Node000007_Node000006"><a xlink:title=" ">
<path fill="none" stroke="#63b8ff" d="M444.22,-149.64C445.33,-139.62 446.52,-128.8 447.52,-119.79"/>
<polygon fill="#63b8ff" stroke="#63b8ff" points="440.76,-149.06 443.14,-159.38 447.72,-149.83 440.76,-149.06"/>
</a>
</g>
</g>
<!-- Node9&#45;&gt;Node8 -->
<g id="edge12_Node000009_Node000008" class="edge">
<title>Node9&#45;&gt;Node8</title>
<g id="a_edge12_Node000009_Node000008"><a xlink:title=" ">
<path fill="none" stroke="#63b8ff" d="M670.97,-149.64C669.12,-139.62 667.13,-128.8 665.47,-119.79"/>
<polygon fill="#63b8ff" stroke="#63b8ff" points="667.51,-150.2 672.77,-159.4 674.4,-148.93 667.51,-150.2"/>
</a>
</g>
</g>
</g>
</svg>
