<?xml version="1.0" encoding="UTF-8" standalone="no"?>
<!DOCTYPE svg PUBLIC "-//W3C//DTD SVG 1.1//EN"
 "http://www.w3.org/Graphics/SVG/1.1/DTD/svg11.dtd">
<!-- Generated by graphviz version 9.0.0 (20230911.1827)
 -->
<!-- Title: /github/workspace/dev_area/build/timing/codegen/include/timing/timingendpointinfo/Nljs.hpp Pages: 1 -->
<svg width="248pt" height="183pt"
 viewBox="0.00 0.00 247.50 182.75" xmlns="http://www.w3.org/2000/svg" xmlns:xlink="http://www.w3.org/1999/xlink">
<g id="graph0" class="graph" transform="scale(1 1) rotate(0) translate(4 178.75)">
<title>/github/workspace/dev_area/build/timing/codegen/include/timing/timingendpointinfo/Nljs.hpp</title>
<!-- Node1 -->
<g id="Node000001" class="node">
<title>Node1</title>
<g id="a_Node000001"><a xlink:title=" ">
<polygon fill="#999999" stroke="#666666" points="206.38,-174.75 45.62,-174.75 45.62,-121.75 206.38,-121.75 206.38,-174.75"/>
<text text-anchor="start" x="53.62" y="-161.25" font-family="Helvetica,sans-Serif" font-size="10.00">/github/workspace/dev</text>
<text text-anchor="start" x="53.62" y="-150" font-family="Helvetica,sans-Serif" font-size="10.00">_area/build/timing/codegen</text>
<text text-anchor="start" x="53.62" y="-138.75" font-family="Helvetica,sans-Serif" font-size="10.00">/include/timing/timingendpointinfo</text>
<text text-anchor="middle" x="126" y="-127.5" font-family="Helvetica,sans-Serif" font-size="10.00">/Nljs.hpp</text>
</a>
</g>
</g>
<!-- Node2 -->
<g id="Node000002" class="node">
<title>Node2</title>
<g id="a_Node000002"><a xlink:href="timing_2codegen_2include_2timing_2timingendpointinfo_2Structs_8hpp.html" target="_top" xlink:title=" ">
<polygon fill="white" stroke="#666666" points="124,-85.75 0,-85.75 0,-55.25 124,-55.25 124,-85.75"/>
<text text-anchor="start" x="8" y="-72.25" font-family="Helvetica,sans-Serif" font-size="10.00">timing/timingendpointinfo</text>
<text text-anchor="middle" x="62" y="-61" font-family="Helvetica,sans-Serif" font-size="10.00">/Structs.hpp</text>
</a>
</g>
</g>
<!-- Node1&#45;&gt;Node2 -->
<g id="edge1_Node000001_Node000002" class="edge">
<title>Node1&#45;&gt;Node2</title>
<g id="a_edge1_Node000001_Node000002"><a xlink:title=" ">
<path fill="none" stroke="#63b8ff" d="M104.33,-121.6C96.98,-112.9 88.82,-103.24 81.63,-94.74"/>
<polygon fill="#63b8ff" stroke="#63b8ff" points="84.42,-92.61 75.29,-87.23 79.07,-97.13 84.42,-92.61"/>
</a>
</g>
</g>
<!-- Node5 -->
<g id="Node000005" class="node">
<title>Node5</title>
<g id="a_Node000005"><a xlink:title=" ">
<polygon fill="#e0e0e0" stroke="#999999" points="239.5,-80.12 142.5,-80.12 142.5,-60.88 239.5,-60.88 239.5,-80.12"/>
<text text-anchor="middle" x="191" y="-66.62" font-family="Helvetica,sans-Serif" font-size="10.00">nlohmann/json.hpp</text>
</a>
</g>
</g>
<!-- Node1&#45;&gt;Node5 -->
<g id="edge4_Node000001_Node000005" class="edge">
<title>Node1&#45;&gt;Node5</title>
<g id="a_edge4_Node000001_Node000005"><a xlink:title=" ">
<path fill="none" stroke="#63b8ff" d="M148.01,-121.6C157.18,-110.92 167.6,-98.77 175.88,-89.12"/>
<polygon fill="#63b8ff" stroke="#63b8ff" points="178.49,-91.46 182.34,-81.59 173.17,-86.9 178.49,-91.46"/>
</a>
</g>
</g>
<!-- Node3 -->
<g id="Node000003" class="node">
<title>Node3</title>
<g id="a_Node000003"><a xlink:title=" ">
<polygon fill="#e0e0e0" stroke="#999999" points="54.62,-19.25 9.38,-19.25 9.38,0 54.62,0 54.62,-19.25"/>
<text text-anchor="middle" x="32" y="-5.75" font-family="Helvetica,sans-Serif" font-size="10.00">cstdint</text>
</a>
</g>
</g>
<!-- Node2&#45;&gt;Node3 -->
<g id="edge2_Node000002_Node000003" class="edge">
<title>Node2&#45;&gt;Node3</title>
<g id="a_edge2_Node000002_Node000003"><a xlink:title=" ">
<path fill="none" stroke="#63b8ff" d="M54.58,-54.95C50.72,-47.36 45.94,-37.99 41.78,-29.82"/>
<polygon fill="#63b8ff" stroke="#63b8ff" points="44.97,-28.37 37.31,-21.05 38.73,-31.55 44.97,-28.37"/>
</a>
</g>
</g>
<!-- Node4 -->
<g id="Node000004" class="node">
<title>Node4</title>
<g id="a_Node000004"><a xlink:title=" ">
<polygon fill="#e0e0e0" stroke="#999999" points="113,-19.25 73,-19.25 73,0 113,0 113,-19.25"/>
<text text-anchor="middle" x="93" y="-5.75" font-family="Helvetica,sans-Serif" font-size="10.00">string</text>
</a>
</g>
</g>
<!-- Node2&#45;&gt;Node4 -->
<g id="edge3_Node000002_Node000004" class="edge">
<title>Node2&#45;&gt;Node4</title>
<g id="a_edge3_Node000002_Node000004"><a xlink:title=" ">
<path fill="none" stroke="#63b8ff" d="M69.66,-54.95C73.66,-47.36 78.59,-37.99 82.89,-29.82"/>
<polygon fill="#63b8ff" stroke="#63b8ff" points="85.95,-31.52 87.52,-21.04 79.76,-28.26 85.95,-31.52"/>
</a>
</g>
</g>
</g>
</svg>
