<?xml version="1.0" encoding="UTF-8" standalone="no"?>
<!DOCTYPE svg PUBLIC "-//W3C//DTD SVG 1.1//EN"
 "http://www.w3.org/Graphics/SVG/1.1/DTD/svg11.dtd">
<!-- Generated by graphviz version 9.0.0 (20230911.1827)
 -->
<!-- Title: /github/workspace/dev_area/build/timing/codegen/include/timing/timinghardwareinfo/Nljs.hpp Pages: 1 -->
<svg width="250pt" height="183pt"
 viewBox="0.00 0.00 250.00 182.75" xmlns="http://www.w3.org/2000/svg" xmlns:xlink="http://www.w3.org/1999/xlink">
<g id="graph0" class="graph" transform="scale(1 1) rotate(0) translate(4 178.75)">
<title>/github/workspace/dev_area/build/timing/codegen/include/timing/timinghardwareinfo/Nljs.hpp</title>
<!-- Node1 -->
<g id="Node000001" class="node">
<title>Node1</title>
<g id="a_Node000001"><a xlink:title=" ">
<polygon fill="#999999" stroke="#666666" points="210.38,-174.75 46.62,-174.75 46.62,-121.75 210.38,-121.75 210.38,-174.75"/>
<text text-anchor="start" x="54.62" y="-161.25" font-family="Helvetica,sans-Serif" font-size="10.00">/github/workspace/dev</text>
<text text-anchor="start" x="54.62" y="-150" font-family="Helvetica,sans-Serif" font-size="10.00">_area/build/timing/codegen</text>
<text text-anchor="start" x="54.62" y="-138.75" font-family="Helvetica,sans-Serif" font-size="10.00">/include/timing/timinghardwareinfo</text>
<text text-anchor="middle" x="128.5" y="-127.5" font-family="Helvetica,sans-Serif" font-size="10.00">/Nljs.hpp</text>
</a>
</g>
</g>
<!-- Node2 -->
<g id="Node000002" class="node">
<title>Node2</title>
<g id="a_Node000002"><a xlink:href="timing_2codegen_2include_2timing_2timinghardwareinfo_2Structs_8hpp.html" target="_top" xlink:title=" ">
<polygon fill="white" stroke="#666666" points="127,-85.75 0,-85.75 0,-55.25 127,-55.25 127,-85.75"/>
<text text-anchor="start" x="8" y="-72.25" font-family="Helvetica,sans-Serif" font-size="10.00">timing/timinghardwareinfo</text>
<text text-anchor="middle" x="63.5" y="-61" font-family="Helvetica,sans-Serif" font-size="10.00">/Structs.hpp</text>
</a>
</g>
</g>
<!-- Node1&#45;&gt;Node2 -->
<g id="edge1_Node000001_Node000002" class="edge">
<title>Node1&#45;&gt;Node2</title>
<g id="a_edge1_Node000001_Node000002"><a xlink:title=" ">
<path fill="none" stroke="#63b8ff" d="M106.49,-121.6C99.03,-112.9 90.74,-103.24 83.44,-94.74"/>
<polygon fill="#63b8ff" stroke="#63b8ff" points="86.16,-92.53 76.99,-87.22 80.85,-97.09 86.16,-92.53"/>
</a>
</g>
</g>
<!-- Node5 -->
<g id="Node000005" class="node">
<title>Node5</title>
<g id="a_Node000005"><a xlink:title=" ">
<polygon fill="#e0e0e0" stroke="#999999" points="242,-80.12 145,-80.12 145,-60.88 242,-60.88 242,-80.12"/>
<text text-anchor="middle" x="193.5" y="-66.62" font-family="Helvetica,sans-Serif" font-size="10.00">nlohmann/json.hpp</text>
</a>
</g>
</g>
<!-- Node1&#45;&gt;Node5 -->
<g id="edge4_Node000001_Node000005" class="edge">
<title>Node1&#45;&gt;Node5</title>
<g id="a_edge4_Node000001_Node000005"><a xlink:title=" ">
<path fill="none" stroke="#63b8ff" d="M150.51,-121.6C159.68,-110.92 170.1,-98.77 178.38,-89.12"/>
<polygon fill="#63b8ff" stroke="#63b8ff" points="180.99,-91.46 184.84,-81.59 175.67,-86.9 180.99,-91.46"/>
</a>
</g>
</g>
<!-- Node3 -->
<g id="Node000003" class="node">
<title>Node3</title>
<g id="a_Node000003"><a xlink:title=" ">
<polygon fill="#e0e0e0" stroke="#999999" points="56.13,-19.25 10.88,-19.25 10.88,0 56.13,0 56.13,-19.25"/>
<text text-anchor="middle" x="33.5" y="-5.75" font-family="Helvetica,sans-Serif" font-size="10.00">cstdint</text>
</a>
</g>
</g>
<!-- Node2&#45;&gt;Node3 -->
<g id="edge2_Node000002_Node000003" class="edge">
<title>Node2&#45;&gt;Node3</title>
<g id="a_edge2_Node000002_Node000003"><a xlink:title=" ">
<path fill="none" stroke="#63b8ff" d="M56.08,-54.95C52.22,-47.36 47.44,-37.99 43.28,-29.82"/>
<polygon fill="#63b8ff" stroke="#63b8ff" points="46.47,-28.37 38.81,-21.05 40.23,-31.55 46.47,-28.37"/>
</a>
</g>
</g>
<!-- Node4 -->
<g id="Node000004" class="node">
<title>Node4</title>
<g id="a_Node000004"><a xlink:title=" ">
<polygon fill="#e0e0e0" stroke="#999999" points="114.5,-19.25 74.5,-19.25 74.5,0 114.5,0 114.5,-19.25"/>
<text text-anchor="middle" x="94.5" y="-5.75" font-family="Helvetica,sans-Serif" font-size="10.00">string</text>
</a>
</g>
</g>
<!-- Node2&#45;&gt;Node4 -->
<g id="edge3_Node000002_Node000004" class="edge">
<title>Node2&#45;&gt;Node4</title>
<g id="a_edge3_Node000002_Node000004"><a xlink:title=" ">
<path fill="none" stroke="#63b8ff" d="M71.16,-54.95C75.16,-47.36 80.09,-37.99 84.39,-29.82"/>
<polygon fill="#63b8ff" stroke="#63b8ff" points="87.45,-31.52 89.02,-21.04 81.26,-28.26 87.45,-31.52"/>
</a>
</g>
</g>
</g>
</svg>
