<?xml version="1.0" encoding="UTF-8" standalone="no"?>
<!DOCTYPE svg PUBLIC "-//W3C//DTD SVG 1.1//EN"
 "http://www.w3.org/Graphics/SVG/1.1/DTD/svg11.dtd">
<!-- Generated by graphviz version 9.0.0 (20230911.1827)
 -->
<!-- Title: /github/workspace/dev_area/sourcecode/timing/include/timing/TopDesignInterface.hpp Pages: 1 -->
<svg width="2041pt" height="528pt"
 viewBox="0.00 0.00 2040.75 527.50" xmlns="http://www.w3.org/2000/svg" xmlns:xlink="http://www.w3.org/1999/xlink">
<g id="graph0" class="graph" transform="scale(1 1) rotate(0) translate(4 523.5)">
<title>/github/workspace/dev_area/sourcecode/timing/include/timing/TopDesignInterface.hpp</title>
<!-- Node1 -->
<g id="Node000001" class="node">
<title>Node1</title>
<g id="a_Node000001"><a xlink:title=" ">
<polygon fill="#999999" stroke="#666666" points="969.38,-519.5 784.62,-519.5 784.62,-477.75 969.38,-477.75 969.38,-519.5"/>
<text text-anchor="start" x="792.62" y="-506" font-family="Helvetica,sans-Serif" font-size="10.00">/github/workspace/dev</text>
<text text-anchor="start" x="792.62" y="-494.75" font-family="Helvetica,sans-Serif" font-size="10.00">_area/sourcecode/timing</text>
<text text-anchor="middle" x="877" y="-483.5" font-family="Helvetica,sans-Serif" font-size="10.00">/include/timing/TopDesignInterface.hpp</text>
</a>
</g>
</g>
<!-- Node2 -->
<g id="Node000002" class="node">
<title>Node2</title>
<g id="a_Node000002"><a xlink:href="CDRMuxDesignInterface_8hpp.html" target="_top" xlink:title=" ">
<polygon fill="white" stroke="#666666" points="643.25,-275 436.75,-275 436.75,-233.25 643.25,-233.25 643.25,-275"/>
<text text-anchor="start" x="444.75" y="-261.5" font-family="Helvetica,sans-Serif" font-size="10.00">/github/workspace/dev</text>
<text text-anchor="start" x="444.75" y="-250.25" font-family="Helvetica,sans-Serif" font-size="10.00">_area/sourcecode/timing</text>
<text text-anchor="middle" x="540" y="-239" font-family="Helvetica,sans-Serif" font-size="10.00">/include/timing/CDRMuxDesignInterface.hpp</text>
</a>
</g>
</g>
<!-- Node1&#45;&gt;Node2 -->
<g id="edge1_Node000001_Node000002" class="edge">
<title>Node1&#45;&gt;Node2</title>
<g id="a_edge1_Node000001_Node000002"><a xlink:title=" ">
<path fill="none" stroke="#63b8ff" d="M773.3,-474.16C708.84,-454.64 628.68,-420.64 577,-364 554.12,-338.93 545.31,-299.14 541.98,-275.24"/>
<polygon fill="#63b8ff" stroke="#63b8ff" points="772.29,-477.52 782.87,-476.98 774.27,-470.8 772.29,-477.52"/>
</a>
</g>
</g>
<!-- Node11 -->
<g id="Node000011" class="node">
<title>Node11</title>
<g id="a_Node000011"><a xlink:href="EndpointDesignInterface_8hpp.html" target="_top" xlink:title=" ">
<polygon fill="white" stroke="#666666" points="951.75,-364 802.25,-364 802.25,-311 951.75,-311 951.75,-364"/>
<text text-anchor="start" x="810.25" y="-350.5" font-family="Helvetica,sans-Serif" font-size="10.00">/github/workspace/dev</text>
<text text-anchor="start" x="810.25" y="-339.25" font-family="Helvetica,sans-Serif" font-size="10.00">_area/sourcecode/timing</text>
<text text-anchor="start" x="810.25" y="-328" font-family="Helvetica,sans-Serif" font-size="10.00">/include/timing/EndpointDesign</text>
<text text-anchor="middle" x="877" y="-316.75" font-family="Helvetica,sans-Serif" font-size="10.00">Interface.hpp</text>
</a>
</g>
</g>
<!-- Node1&#45;&gt;Node11 -->
<g id="edge13_Node000001_Node000011" class="edge">
<title>Node1&#45;&gt;Node11</title>
<g id="a_edge13_Node000001_Node000011"><a xlink:title=" ">
<path fill="none" stroke="#63b8ff" d="M877,-466.04C877,-436.22 877,-392.03 877,-364.28"/>
<polygon fill="#63b8ff" stroke="#63b8ff" points="873.5,-465.96 877,-475.96 880.5,-465.96 873.5,-465.96"/>
</a>
</g>
</g>
<!-- Node22 -->
<g id="Node000022" class="node">
<title>Node22</title>
<g id="a_Node000022"><a xlink:href="sourcecode_2timinglibs_2src_2TimingHardwareManagerBase_8hpp.html" target="_top" xlink:title=" ">
<polygon fill="white" stroke="#666666" points="362.38,-197.25 177.62,-197.25 177.62,-155.5 362.38,-155.5 362.38,-197.25"/>
<text text-anchor="start" x="185.62" y="-183.75" font-family="Helvetica,sans-Serif" font-size="10.00">/github/workspace/dev</text>
<text text-anchor="start" x="185.62" y="-172.5" font-family="Helvetica,sans-Serif" font-size="10.00">_area/sourcecode/timinglibs</text>
<text text-anchor="middle" x="270" y="-161.25" font-family="Helvetica,sans-Serif" font-size="10.00">/src/TimingHardwareManagerBase.hpp</text>
</a>
</g>
</g>
<!-- Node1&#45;&gt;Node22 -->
<g id="edge60_Node000001_Node000022" class="edge">
<title>Node1&#45;&gt;Node22</title>
<g id="a_edge60_Node000001_Node000022"><a xlink:title=" ">
<path fill="none" stroke="#63b8ff" d="M773.14,-483.17C724.38,-474.44 666.11,-461.15 616,-441.75 478.79,-388.63 435.24,-377.83 330,-275 306.81,-252.34 288.82,-218.96 278.82,-197.69"/>
<polygon fill="#63b8ff" stroke="#63b8ff" points="772.4,-486.6 782.86,-484.87 773.61,-479.7 772.4,-486.6"/>
</a>
</g>
</g>
<!-- Node27 -->
<g id="Node000027" class="node">
<title>Node27</title>
<g id="a_Node000027"><a xlink:href="SFPMuxDesignInterface_8hpp.html" target="_top" xlink:title=" ">
<polygon fill="white" stroke="#666666" points="1688.88,-441.75 1483.12,-441.75 1483.12,-400 1688.88,-400 1688.88,-441.75"/>
<text text-anchor="start" x="1491.12" y="-428.25" font-family="Helvetica,sans-Serif" font-size="10.00">/github/workspace/dev</text>
<text text-anchor="start" x="1491.12" y="-417" font-family="Helvetica,sans-Serif" font-size="10.00">_area/sourcecode/timing</text>
<text text-anchor="middle" x="1586" y="-405.75" font-family="Helvetica,sans-Serif" font-size="10.00">/include/timing/SFPMuxDesignInterface.hpp</text>
</a>
</g>
</g>
<!-- Node1&#45;&gt;Node27 -->
<g id="edge41_Node000001_Node000027" class="edge">
<title>Node1&#45;&gt;Node27</title>
<g id="a_edge41_Node000001_Node000027"><a xlink:title=" ">
<path fill="none" stroke="#63b8ff" d="M980.79,-486.54C1115.28,-472.17 1348.38,-447.26 1482.65,-432.92"/>
<polygon fill="#63b8ff" stroke="#63b8ff" points="980.77,-483.02 971.19,-487.56 981.51,-489.98 980.77,-483.02"/>
</a>
</g>
</g>
<!-- Node30 -->
<g id="Node000030" class="node">
<title>Node30</title>
<g id="a_Node000030"><a xlink:href="TopDesign_8hpp.html" target="_top" xlink:title=" ">
<polygon fill="white" stroke="#666666" points="1100.25,-441.75 953.75,-441.75 953.75,-400 1100.25,-400 1100.25,-441.75"/>
<text text-anchor="start" x="961.75" y="-428.25" font-family="Helvetica,sans-Serif" font-size="10.00">/github/workspace/dev</text>
<text text-anchor="start" x="961.75" y="-417" font-family="Helvetica,sans-Serif" font-size="10.00">_area/sourcecode/timing</text>
<text text-anchor="middle" x="1027" y="-405.75" font-family="Helvetica,sans-Serif" font-size="10.00">/include/timing/TopDesign.hpp</text>
</a>
</g>
</g>
<!-- Node1&#45;&gt;Node30 -->
<g id="edge46_Node000001_Node000030" class="edge">
<title>Node1&#45;&gt;Node30</title>
<g id="a_edge46_Node000001_Node000030"><a xlink:title=" ">
<path fill="none" stroke="#63b8ff" d="M927.34,-472.2C946.66,-462.45 968.43,-451.45 986.69,-442.23"/>
<polygon fill="#63b8ff" stroke="#63b8ff" points="925.9,-469.01 918.55,-476.64 929.05,-475.26 925.9,-469.01"/>
</a>
</g>
</g>
<!-- Node3 -->
<g id="Node000003" class="node">
<title>Node3</title>
<g id="a_Node000003"><a xlink:href="FanoutDesign_8hpp.html" target="_top" xlink:title=" ">
<polygon fill="white" stroke="#666666" points="160,-197.25 0,-197.25 0,-155.5 160,-155.5 160,-197.25"/>
<text text-anchor="start" x="8" y="-183.75" font-family="Helvetica,sans-Serif" font-size="10.00">/github/workspace/dev</text>
<text text-anchor="start" x="8" y="-172.5" font-family="Helvetica,sans-Serif" font-size="10.00">_area/sourcecode/timing</text>
<text text-anchor="middle" x="80" y="-161.25" font-family="Helvetica,sans-Serif" font-size="10.00">/include/timing/FanoutDesign.hpp</text>
</a>
</g>
</g>
<!-- Node2&#45;&gt;Node3 -->
<g id="edge2_Node000002_Node000003" class="edge">
<title>Node2&#45;&gt;Node3</title>
<g id="a_edge2_Node000002_Node000003"><a xlink:title=" ">
<path fill="none" stroke="#63b8ff" d="M425.4,-237.98C351.9,-227.75 254.57,-213.23 169,-197.25 166.2,-196.73 163.35,-196.18 160.48,-195.61"/>
<polygon fill="#63b8ff" stroke="#63b8ff" points="424.64,-241.41 435.02,-239.32 425.6,-234.48 424.64,-241.41"/>
</a>
</g>
</g>
<!-- Node6 -->
<g id="Node000006" class="node">
<title>Node6</title>
<g id="a_Node000006"><a xlink:href="sourcecode_2timinglibs_2src_2TimingHardwareManagerBase_8cpp.html" target="_top" xlink:title=" ">
<polygon fill="white" stroke="#666666" points="413.38,-119.5 228.62,-119.5 228.62,-77.75 413.38,-77.75 413.38,-119.5"/>
<text text-anchor="start" x="236.62" y="-106" font-family="Helvetica,sans-Serif" font-size="10.00">/github/workspace/dev</text>
<text text-anchor="start" x="236.62" y="-94.75" font-family="Helvetica,sans-Serif" font-size="10.00">_area/sourcecode/timinglibs</text>
<text text-anchor="middle" x="321" y="-83.5" font-family="Helvetica,sans-Serif" font-size="10.00">/src/TimingHardwareManagerBase.cpp</text>
</a>
</g>
</g>
<!-- Node2&#45;&gt;Node6 -->
<g id="edge12_Node000002_Node000006" class="edge">
<title>Node2&#45;&gt;Node6</title>
<g id="a_edge12_Node000002_Node000006"><a xlink:title=" ">
<path fill="none" stroke="#63b8ff" d="M466.91,-228.54C447.19,-220.18 426.48,-209.74 409,-197.25 407.95,-196.5 364.39,-148.01 338.96,-119.66"/>
<polygon fill="#63b8ff" stroke="#63b8ff" points="465.45,-231.72 476.03,-232.26 468.1,-225.24 465.45,-231.72"/>
</a>
</g>
</g>
<!-- Node7 -->
<g id="Node000007" class="node">
<title>Node7</title>
<g id="a_Node000007"><a xlink:href="GaiaDesign_8hpp.html" target="_top" xlink:title=" ">
<polygon fill="white" stroke="#666666" points="568.12,-197.25 417.88,-197.25 417.88,-155.5 568.12,-155.5 568.12,-197.25"/>
<text text-anchor="start" x="425.88" y="-183.75" font-family="Helvetica,sans-Serif" font-size="10.00">/github/workspace/dev</text>
<text text-anchor="start" x="425.88" y="-172.5" font-family="Helvetica,sans-Serif" font-size="10.00">_area/sourcecode/timing</text>
<text text-anchor="middle" x="493" y="-161.25" font-family="Helvetica,sans-Serif" font-size="10.00">/include/timing/GaiaDesign.hpp</text>
</a>
</g>
</g>
<!-- Node2&#45;&gt;Node7 -->
<g id="edge6_Node000002_Node000007" class="edge">
<title>Node2&#45;&gt;Node7</title>
<g id="a_edge6_Node000002_Node000007"><a xlink:title=" ">
<path fill="none" stroke="#63b8ff" d="M521.42,-223.18C516.12,-214.64 510.48,-205.55 505.63,-197.73"/>
<polygon fill="#63b8ff" stroke="#63b8ff" points="518.36,-224.89 526.61,-231.54 524.31,-221.2 518.36,-224.89"/>
</a>
</g>
</g>
<!-- Node9 -->
<g id="Node000009" class="node">
<title>Node9</title>
<g id="a_Node000009"><a xlink:href="KerberosDesign_8hpp.html" target="_top" xlink:title=" ">
<polygon fill="white" stroke="#666666" points="755.5,-197.25 586.5,-197.25 586.5,-155.5 755.5,-155.5 755.5,-197.25"/>
<text text-anchor="start" x="594.5" y="-183.75" font-family="Helvetica,sans-Serif" font-size="10.00">/github/workspace/dev</text>
<text text-anchor="start" x="594.5" y="-172.5" font-family="Helvetica,sans-Serif" font-size="10.00">_area/sourcecode/timing</text>
<text text-anchor="middle" x="671" y="-161.25" font-family="Helvetica,sans-Serif" font-size="10.00">/include/timing/KerberosDesign.hpp</text>
</a>
</g>
</g>
<!-- Node2&#45;&gt;Node9 -->
<g id="edge9_Node000002_Node000009" class="edge">
<title>Node2&#45;&gt;Node9</title>
<g id="a_edge9_Node000002_Node000009"><a xlink:title=" ">
<path fill="none" stroke="#63b8ff" d="M584.67,-227.3C601.36,-217.64 620.07,-206.82 635.8,-197.73"/>
<polygon fill="#63b8ff" stroke="#63b8ff" points="583.32,-224.03 576.42,-232.07 586.82,-230.09 583.32,-224.03"/>
</a>
</g>
</g>
<!-- Node4 -->
<g id="Node000004" class="node">
<title>Node4</title>
<g id="a_Node000004"><a xlink:href="top__designs_8cpp.html" target="_top" xlink:title=" ">
<polygon fill="white" stroke="#666666" points="1072.88,-41.75 939.12,-41.75 939.12,0 1072.88,0 1072.88,-41.75"/>
<text text-anchor="start" x="947.12" y="-28.25" font-family="Helvetica,sans-Serif" font-size="10.00">/github/workspace/dev</text>
<text text-anchor="start" x="947.12" y="-17" font-family="Helvetica,sans-Serif" font-size="10.00">_area/sourcecode/timing</text>
<text text-anchor="middle" x="1006" y="-5.75" font-family="Helvetica,sans-Serif" font-size="10.00">/pybindsrc/top_designs.cpp</text>
</a>
</g>
</g>
<!-- Node3&#45;&gt;Node4 -->
<g id="edge3_Node000003_Node000004" class="edge">
<title>Node3&#45;&gt;Node4</title>
<g id="a_edge3_Node000003_Node000004"><a xlink:title=" ">
<path fill="none" stroke="#63b8ff" d="M69.63,-144.37C64.58,-122.88 62.65,-95.11 79,-77.75 108.43,-46.5 730.63,-28.57 938.82,-23.43"/>
<polygon fill="#63b8ff" stroke="#63b8ff" points="66.18,-145.05 72.17,-153.8 72.94,-143.23 66.18,-145.05"/>
</a>
</g>
</g>
<!-- Node5 -->
<g id="Node000005" class="node">
<title>Node5</title>
<g id="a_Node000005"><a xlink:href="FanoutDesign_8cpp.html" target="_top" xlink:title=" ">
<polygon fill="white" stroke="#666666" points="210.25,-119.5 87.75,-119.5 87.75,-77.75 210.25,-77.75 210.25,-119.5"/>
<text text-anchor="start" x="95.75" y="-106" font-family="Helvetica,sans-Serif" font-size="10.00">/github/workspace/dev</text>
<text text-anchor="start" x="95.75" y="-94.75" font-family="Helvetica,sans-Serif" font-size="10.00">_area/sourcecode/timing</text>
<text text-anchor="middle" x="149" y="-83.5" font-family="Helvetica,sans-Serif" font-size="10.00">/src/FanoutDesign.cpp</text>
</a>
</g>
</g>
<!-- Node3&#45;&gt;Node5 -->
<g id="edge4_Node000003_Node000005" class="edge">
<title>Node3&#45;&gt;Node5</title>
<g id="a_edge4_Node000003_Node000005"><a xlink:title=" ">
<path fill="none" stroke="#63b8ff" d="M106.02,-146.81C114.15,-137.89 122.95,-128.22 130.46,-119.98"/>
<polygon fill="#63b8ff" stroke="#63b8ff" points="103.66,-144.21 99.51,-153.96 108.83,-148.92 103.66,-144.21"/>
</a>
</g>
</g>
<!-- Node3&#45;&gt;Node6 -->
<g id="edge5_Node000003_Node000006" class="edge">
<title>Node3&#45;&gt;Node6</title>
<g id="a_edge5_Node000003_Node000006"><a xlink:title=" ">
<path fill="none" stroke="#63b8ff" d="M155.35,-151.69C187.71,-141.52 225.15,-129.75 256.24,-119.98"/>
<polygon fill="#63b8ff" stroke="#63b8ff" points="154.52,-148.28 146.03,-154.62 156.62,-154.96 154.52,-148.28"/>
</a>
</g>
</g>
<!-- Node7&#45;&gt;Node4 -->
<g id="edge7_Node000007_Node000004" class="edge">
<title>Node7&#45;&gt;Node4</title>
<g id="a_edge7_Node000007_Node000004"><a xlink:title=" ">
<path fill="none" stroke="#63b8ff" d="M529.46,-148.06C540.54,-139.29 552.54,-129.3 563,-119.5 581.31,-102.34 578.8,-89.44 601,-77.75 658.23,-47.61 839.24,-32.07 938.78,-25.61"/>
<polygon fill="#63b8ff" stroke="#63b8ff" points="527.35,-145.27 521.62,-154.18 531.65,-150.79 527.35,-145.27"/>
</a>
</g>
</g>
<!-- Node8 -->
<g id="Node000008" class="node">
<title>Node8</title>
<g id="a_Node000008"><a xlink:href="GaiaDesign_8cpp.html" target="_top" xlink:title=" ">
<polygon fill="white" stroke="#666666" points="554.25,-119.5 431.75,-119.5 431.75,-77.75 554.25,-77.75 554.25,-119.5"/>
<text text-anchor="start" x="439.75" y="-106" font-family="Helvetica,sans-Serif" font-size="10.00">/github/workspace/dev</text>
<text text-anchor="start" x="439.75" y="-94.75" font-family="Helvetica,sans-Serif" font-size="10.00">_area/sourcecode/timing</text>
<text text-anchor="middle" x="493" y="-83.5" font-family="Helvetica,sans-Serif" font-size="10.00">/src/GaiaDesign.cpp</text>
</a>
</g>
</g>
<!-- Node7&#45;&gt;Node8 -->
<g id="edge8_Node000007_Node000008" class="edge">
<title>Node7&#45;&gt;Node8</title>
<g id="a_edge8_Node000007_Node000008"><a xlink:title=" ">
<path fill="none" stroke="#63b8ff" d="M493,-143.75C493,-135.71 493,-127.29 493,-119.98"/>
<polygon fill="#63b8ff" stroke="#63b8ff" points="489.5,-143.56 493,-153.56 496.5,-143.56 489.5,-143.56"/>
</a>
</g>
</g>
<!-- Node9&#45;&gt;Node4 -->
<g id="edge10_Node000009_Node000004" class="edge">
<title>Node9&#45;&gt;Node4</title>
<g id="a_edge10_Node000009_Node000004"><a xlink:title=" ">
<path fill="none" stroke="#63b8ff" d="M709.71,-148.78C741.92,-127.5 789.51,-97.99 834,-77.75 867.58,-62.48 906.57,-49.45 938.93,-39.83"/>
<polygon fill="#63b8ff" stroke="#63b8ff" points="707.87,-145.8 701.5,-154.25 711.76,-151.62 707.87,-145.8"/>
</a>
</g>
</g>
<!-- Node10 -->
<g id="Node000010" class="node">
<title>Node10</title>
<g id="a_Node000010"><a xlink:href="KerberosDesign_8cpp.html" target="_top" xlink:title=" ">
<polygon fill="white" stroke="#666666" points="732.25,-119.5 609.75,-119.5 609.75,-77.75 732.25,-77.75 732.25,-119.5"/>
<text text-anchor="start" x="617.75" y="-106" font-family="Helvetica,sans-Serif" font-size="10.00">/github/workspace/dev</text>
<text text-anchor="start" x="617.75" y="-94.75" font-family="Helvetica,sans-Serif" font-size="10.00">_area/sourcecode/timing</text>
<text text-anchor="middle" x="671" y="-83.5" font-family="Helvetica,sans-Serif" font-size="10.00">/src/KerberosDesign.cpp</text>
</a>
</g>
</g>
<!-- Node9&#45;&gt;Node10 -->
<g id="edge11_Node000009_Node000010" class="edge">
<title>Node9&#45;&gt;Node10</title>
<g id="a_edge11_Node000009_Node000010"><a xlink:title=" ">
<path fill="none" stroke="#63b8ff" d="M671,-143.75C671,-135.71 671,-127.29 671,-119.98"/>
<polygon fill="#63b8ff" stroke="#63b8ff" points="667.5,-143.56 671,-153.56 674.5,-143.56 667.5,-143.56"/>
</a>
</g>
</g>
<!-- Node11&#45;&gt;Node3 -->
<g id="edge24_Node000011_Node000003" class="edge">
<title>Node11&#45;&gt;Node3</title>
<g id="a_edge24_Node000011_Node000003"><a xlink:title=" ">
<path fill="none" stroke="#63b8ff" d="M790.98,-310.84C607.58,-277.98 548.25,-333.37 375,-275 342.11,-263.92 340.95,-246.82 309,-233.25 295.06,-227.33 220.7,-209.58 160.44,-195.66"/>
<polygon fill="#63b8ff" stroke="#63b8ff" points="790.13,-314.24 800.6,-312.64 791.41,-307.36 790.13,-314.24"/>
</a>
</g>
</g>
<!-- Node11&#45;&gt;Node7 -->
<g id="edge25_Node000011_Node000007" class="edge">
<title>Node11&#45;&gt;Node7</title>
<g id="a_edge25_Node000011_Node000007"><a xlink:title=" ">
<path fill="none" stroke="#63b8ff" d="M791.08,-310C747.2,-296.1 701.13,-280.78 692,-275 670.28,-261.27 673.6,-247.17 652,-233.25 626.67,-216.93 595.98,-204.69 568.35,-195.9"/>
<polygon fill="#63b8ff" stroke="#63b8ff" points="789.83,-313.28 800.42,-312.95 791.94,-306.6 789.83,-313.28"/>
</a>
</g>
</g>
<!-- Node11&#45;&gt;Node9 -->
<g id="edge33_Node000011_Node000009" class="edge">
<title>Node11&#45;&gt;Node9</title>
<g id="a_edge33_Node000011_Node000009"><a xlink:title=" ">
<path fill="none" stroke="#63b8ff" d="M791.42,-306.54C764.36,-295.94 738.71,-284.33 728,-275 703.59,-253.72 686.97,-219.32 678.23,-197.55"/>
<polygon fill="#63b8ff" stroke="#63b8ff" points="789.83,-309.68 800.41,-310.01 792.34,-303.15 789.83,-309.68"/>
</a>
</g>
</g>
<!-- Node12 -->
<g id="Node000012" class="node">
<title>Node12</title>
<g id="a_Node000012"><a xlink:href="CRTDesignInterface_8hpp.html" target="_top" xlink:title=" ">
<polygon fill="white" stroke="#666666" points="1891.88,-275 1704.12,-275 1704.12,-233.25 1891.88,-233.25 1891.88,-275"/>
<text text-anchor="start" x="1712.12" y="-261.5" font-family="Helvetica,sans-Serif" font-size="10.00">/github/workspace/dev</text>
<text text-anchor="start" x="1712.12" y="-250.25" font-family="Helvetica,sans-Serif" font-size="10.00">_area/sourcecode/timing</text>
<text text-anchor="middle" x="1798" y="-239" font-family="Helvetica,sans-Serif" font-size="10.00">/include/timing/CRTDesignInterface.hpp</text>
</a>
</g>
</g>
<!-- Node11&#45;&gt;Node12 -->
<g id="edge14_Node000011_Node000012" class="edge">
<title>Node11&#45;&gt;Node12</title>
<g id="a_edge14_Node000011_Node000012"><a xlink:title=" ">
<path fill="none" stroke="#63b8ff" d="M963.38,-332.99C1112.23,-326.27 1426.46,-309.12 1690,-275 1694.54,-274.41 1699.17,-273.76 1703.85,-273.06"/>
<polygon fill="#63b8ff" stroke="#63b8ff" points="963.44,-329.49 953.6,-333.43 963.75,-336.48 963.44,-329.49"/>
</a>
</g>
</g>
<!-- Node15 -->
<g id="Node000015" class="node">
<title>Node15</title>
<g id="a_Node000015"><a xlink:href="EndpointDesign_8hpp.html" target="_top" xlink:title=" ">
<polygon fill="white" stroke="#666666" points="1324.75,-275 1157.25,-275 1157.25,-233.25 1324.75,-233.25 1324.75,-275"/>
<text text-anchor="start" x="1165.25" y="-261.5" font-family="Helvetica,sans-Serif" font-size="10.00">/github/workspace/dev</text>
<text text-anchor="start" x="1165.25" y="-250.25" font-family="Helvetica,sans-Serif" font-size="10.00">_area/sourcecode/timing</text>
<text text-anchor="middle" x="1241" y="-239" font-family="Helvetica,sans-Serif" font-size="10.00">/include/timing/EndpointDesign.hpp</text>
</a>
</g>
</g>
<!-- Node11&#45;&gt;Node15 -->
<g id="edge18_Node000011_Node000015" class="edge">
<title>Node11&#45;&gt;Node15</title>
<g id="a_edge18_Node000011_Node000015"><a xlink:title=" ">
<path fill="none" stroke="#63b8ff" d="M963.06,-317.26C1021.63,-304.17 1098.75,-286.93 1156.89,-273.93"/>
<polygon fill="#63b8ff" stroke="#63b8ff" points="962.45,-313.81 953.46,-319.41 963.98,-320.64 962.45,-313.81"/>
</a>
</g>
</g>
<!-- Node19 -->
<g id="Node000019" class="node">
<title>Node19</title>
<g id="a_Node000019"><a xlink:href="HSIDesignInterface_8hpp.html" target="_top" xlink:title=" ">
<polygon fill="white" stroke="#666666" points="922.75,-275 737.25,-275 737.25,-233.25 922.75,-233.25 922.75,-275"/>
<text text-anchor="start" x="745.25" y="-261.5" font-family="Helvetica,sans-Serif" font-size="10.00">/github/workspace/dev</text>
<text text-anchor="start" x="745.25" y="-250.25" font-family="Helvetica,sans-Serif" font-size="10.00">_area/sourcecode/timing</text>
<text text-anchor="middle" x="830" y="-239" font-family="Helvetica,sans-Serif" font-size="10.00">/include/timing/HSIDesignInterface.hpp</text>
</a>
</g>
</g>
<!-- Node11&#45;&gt;Node19 -->
<g id="edge26_Node000011_Node000019" class="edge">
<title>Node11&#45;&gt;Node19</title>
<g id="a_edge26_Node000011_Node000019"><a xlink:title=" ">
<path fill="none" stroke="#63b8ff" d="M856.52,-301.03C851.43,-292.22 846.15,-283.08 841.65,-275.29"/>
<polygon fill="#63b8ff" stroke="#63b8ff" points="853.34,-302.53 861.37,-309.44 859.4,-299.03 853.34,-302.53"/>
</a>
</g>
</g>
<!-- Node11&#45;&gt;Node22 -->
<g id="edge40_Node000011_Node000022" class="edge">
<title>Node11&#45;&gt;Node22</title>
<g id="a_edge40_Node000011_Node000022"><a xlink:title=" ">
<path fill="none" stroke="#63b8ff" d="M790.87,-310.82C630.6,-281.79 574.65,-337.35 428,-275 401.67,-263.81 402.78,-249.16 379,-233.25 359.03,-219.89 335.45,-207.43 315.34,-197.69"/>
<polygon fill="#63b8ff" stroke="#63b8ff" points="790.11,-314.24 800.59,-312.68 791.43,-307.37 790.11,-314.24"/>
</a>
</g>
</g>
<!-- Node23 -->
<g id="Node000023" class="node">
<title>Node23</title>
<g id="a_Node000023"><a xlink:href="OuroborosDesign_8hpp.html" target="_top" xlink:title=" ">
<polygon fill="white" stroke="#666666" points="1133.5,-197.25 958.5,-197.25 958.5,-155.5 1133.5,-155.5 1133.5,-197.25"/>
<text text-anchor="start" x="966.5" y="-183.75" font-family="Helvetica,sans-Serif" font-size="10.00">/github/workspace/dev</text>
<text text-anchor="start" x="966.5" y="-172.5" font-family="Helvetica,sans-Serif" font-size="10.00">_area/sourcecode/timing</text>
<text text-anchor="middle" x="1046" y="-161.25" font-family="Helvetica,sans-Serif" font-size="10.00">/include/timing/OuroborosDesign.hpp</text>
</a>
</g>
</g>
<!-- Node11&#45;&gt;Node23 -->
<g id="edge34_Node000011_Node000023" class="edge">
<title>Node11&#45;&gt;Node23</title>
<g id="a_edge34_Node000011_Node000023"><a xlink:title=" ">
<path fill="none" stroke="#63b8ff" d="M907.64,-302.32C934.06,-272.87 968.26,-234.83 970,-233.25 984.2,-220.39 1001.3,-207.61 1015.68,-197.53"/>
<polygon fill="#63b8ff" stroke="#63b8ff" points="905.16,-299.84 901.09,-309.62 910.38,-304.51 905.16,-299.84"/>
</a>
</g>
</g>
<!-- Node25 -->
<g id="Node000025" class="node">
<title>Node25</title>
<g id="a_Node000025"><a xlink:href="OuroborosMuxDesign_8hpp.html" target="_top" xlink:title=" ">
<polygon fill="white" stroke="#666666" points="1851.5,-119.5 1658.5,-119.5 1658.5,-77.75 1851.5,-77.75 1851.5,-119.5"/>
<text text-anchor="start" x="1666.5" y="-106" font-family="Helvetica,sans-Serif" font-size="10.00">/github/workspace/dev</text>
<text text-anchor="start" x="1666.5" y="-94.75" font-family="Helvetica,sans-Serif" font-size="10.00">_area/sourcecode/timing</text>
<text text-anchor="middle" x="1755" y="-83.5" font-family="Helvetica,sans-Serif" font-size="10.00">/include/timing/OuroborosMuxDesign.hpp</text>
</a>
</g>
</g>
<!-- Node11&#45;&gt;Node25 -->
<g id="edge37_Node000011_Node000025" class="edge">
<title>Node11&#45;&gt;Node25</title>
<g id="a_edge37_Node000011_Node000025"><a xlink:title=" ">
<path fill="none" stroke="#63b8ff" d="M963.35,-327.06C1193.76,-301.46 1807.57,-230.42 1836,-197.25 1848.07,-183.16 1844.63,-171.93 1836,-155.5 1828.14,-140.53 1814.24,-128.78 1800.16,-120"/>
<polygon fill="#63b8ff" stroke="#63b8ff" points="963.07,-323.57 953.52,-328.15 963.85,-330.52 963.07,-323.57"/>
</a>
</g>
</g>
<!-- Node13 -->
<g id="Node000013" class="node">
<title>Node13</title>
<g id="a_Node000013"><a xlink:href="CRTDesign_8hpp.html" target="_top" xlink:title=" ">
<polygon fill="white" stroke="#666666" points="2032.75,-197.25 1883.25,-197.25 1883.25,-155.5 2032.75,-155.5 2032.75,-197.25"/>
<text text-anchor="start" x="1891.25" y="-183.75" font-family="Helvetica,sans-Serif" font-size="10.00">/github/workspace/dev</text>
<text text-anchor="start" x="1891.25" y="-172.5" font-family="Helvetica,sans-Serif" font-size="10.00">_area/sourcecode/timing</text>
<text text-anchor="middle" x="1958" y="-161.25" font-family="Helvetica,sans-Serif" font-size="10.00">/include/timing/CRTDesign.hpp</text>
</a>
</g>
</g>
<!-- Node12&#45;&gt;Node13 -->
<g id="edge15_Node000012_Node000013" class="edge">
<title>Node12&#45;&gt;Node13</title>
<g id="a_edge15_Node000012_Node000013"><a xlink:title=" ">
<path fill="none" stroke="#63b8ff" d="M1851.13,-227.97C1871.88,-218.15 1895.35,-207.04 1915,-197.73"/>
<polygon fill="#63b8ff" stroke="#63b8ff" points="1849.79,-224.74 1842.25,-232.18 1852.78,-231.06 1849.79,-224.74"/>
</a>
</g>
</g>
<!-- Node13&#45;&gt;Node4 -->
<g id="edge16_Node000013_Node000004" class="edge">
<title>Node13&#45;&gt;Node4</title>
<g id="a_edge16_Node000013_Node000004"><a xlink:title=" ">
<path fill="none" stroke="#63b8ff" d="M1927.53,-147.34C1918.23,-138.56 1908.07,-128.76 1899,-119.5 1881.43,-101.58 1883.61,-88.64 1861,-77.75 1790.76,-43.92 1262.27,-28.03 1073.09,-23.38"/>
<polygon fill="#63b8ff" stroke="#63b8ff" points="1924.98,-149.74 1934.67,-154.02 1929.76,-144.63 1924.98,-149.74"/>
</a>
</g>
</g>
<!-- Node14 -->
<g id="Node000014" class="node">
<title>Node14</title>
<g id="a_Node000014"><a xlink:href="CRTDesign_8cpp.html" target="_top" xlink:title=" ">
<polygon fill="white" stroke="#666666" points="2030.25,-119.5 1907.75,-119.5 1907.75,-77.75 2030.25,-77.75 2030.25,-119.5"/>
<text text-anchor="start" x="1915.75" y="-106" font-family="Helvetica,sans-Serif" font-size="10.00">/github/workspace/dev</text>
<text text-anchor="start" x="1915.75" y="-94.75" font-family="Helvetica,sans-Serif" font-size="10.00">_area/sourcecode/timing</text>
<text text-anchor="middle" x="1969" y="-83.5" font-family="Helvetica,sans-Serif" font-size="10.00">/src/CRTDesign.cpp</text>
</a>
</g>
</g>
<!-- Node13&#45;&gt;Node14 -->
<g id="edge17_Node000013_Node000014" class="edge">
<title>Node13&#45;&gt;Node14</title>
<g id="a_edge17_Node000013_Node000014"><a xlink:title=" ">
<path fill="none" stroke="#63b8ff" d="M1962.59,-143.75C1963.76,-135.71 1964.98,-127.29 1966.04,-119.98"/>
<polygon fill="#63b8ff" stroke="#63b8ff" points="1959.14,-143.18 1961.17,-153.58 1966.07,-144.18 1959.14,-143.18"/>
</a>
</g>
</g>
<!-- Node15&#45;&gt;Node4 -->
<g id="edge22_Node000015_Node000004" class="edge">
<title>Node15&#45;&gt;Node4</title>
<g id="a_edge22_Node000015_Node000004"><a xlink:title=" ">
<path fill="none" stroke="#63b8ff" d="M1336.23,-245.72C1408.77,-235.6 1491.57,-211.74 1462,-155.5 1433.63,-101.54 1405.57,-100.48 1349,-77.75 1257.89,-41.14 1143.99,-28.5 1073.11,-24.14"/>
<polygon fill="#63b8ff" stroke="#63b8ff" points="1336.12,-242.2 1326.66,-246.97 1337.03,-249.14 1336.12,-242.2"/>
</a>
</g>
</g>
<!-- Node16 -->
<g id="Node000016" class="node">
<title>Node16</title>
<g id="a_Node000016"><a xlink:href="ChronosDesign_8hpp.html" target="_top" xlink:title=" ">
<polygon fill="white" stroke="#666666" points="940,-197.25 774,-197.25 774,-155.5 940,-155.5 940,-197.25"/>
<text text-anchor="start" x="782" y="-183.75" font-family="Helvetica,sans-Serif" font-size="10.00">/github/workspace/dev</text>
<text text-anchor="start" x="782" y="-172.5" font-family="Helvetica,sans-Serif" font-size="10.00">_area/sourcecode/timing</text>
<text text-anchor="middle" x="857" y="-161.25" font-family="Helvetica,sans-Serif" font-size="10.00">/include/timing/ChronosDesign.hpp</text>
</a>
</g>
</g>
<!-- Node15&#45;&gt;Node16 -->
<g id="edge19_Node000015_Node000016" class="edge">
<title>Node15&#45;&gt;Node16</title>
<g id="a_edge19_Node000015_Node000016"><a xlink:title=" ">
<path fill="none" stroke="#63b8ff" d="M1145.83,-232.86C1057.95,-215.74 1033.72,-214.06 949,-197.25 946.11,-196.68 943.18,-196.09 940.22,-195.48"/>
<polygon fill="#63b8ff" stroke="#63b8ff" points="1144.9,-236.24 1155.39,-234.73 1146.25,-229.37 1144.9,-236.24"/>
</a>
</g>
</g>
<!-- Node18 -->
<g id="Node000018" class="node">
<title>Node18</title>
<g id="a_Node000018"><a xlink:href="EndpointDesign_8cpp.html" target="_top" xlink:title=" ">
<polygon fill="white" stroke="#666666" points="1631.25,-197.25 1508.75,-197.25 1508.75,-155.5 1631.25,-155.5 1631.25,-197.25"/>
<text text-anchor="start" x="1516.75" y="-183.75" font-family="Helvetica,sans-Serif" font-size="10.00">/github/workspace/dev</text>
<text text-anchor="start" x="1516.75" y="-172.5" font-family="Helvetica,sans-Serif" font-size="10.00">_area/sourcecode/timing</text>
<text text-anchor="middle" x="1570" y="-161.25" font-family="Helvetica,sans-Serif" font-size="10.00">/src/EndpointDesign.cpp</text>
</a>
</g>
</g>
<!-- Node15&#45;&gt;Node18 -->
<g id="edge23_Node000015_Node000018" class="edge">
<title>Node15&#45;&gt;Node18</title>
<g id="a_edge23_Node000015_Node000018"><a xlink:title=" ">
<path fill="none" stroke="#63b8ff" d="M1335.97,-233.23C1383.79,-222.97 1442.59,-209.95 1495,-197.25 1499.32,-196.2 1503.77,-195.1 1508.25,-193.96"/>
<polygon fill="#63b8ff" stroke="#63b8ff" points="1335.53,-229.75 1326.49,-235.27 1337,-236.59 1335.53,-229.75"/>
</a>
</g>
</g>
<!-- Node16&#45;&gt;Node4 -->
<g id="edge20_Node000016_Node000004" class="edge">
<title>Node16&#45;&gt;Node4</title>
<g id="a_edge20_Node000016_Node000004"><a xlink:title=" ">
<path fill="none" stroke="#63b8ff" d="M843.85,-144.29C837.35,-123.62 833.45,-96.87 847,-77.75 867.81,-48.39 905.32,-34.34 938.69,-27.67"/>
<polygon fill="#63b8ff" stroke="#63b8ff" points="840.52,-145.36 847.14,-153.63 847.12,-143.03 840.52,-145.36"/>
</a>
</g>
</g>
<!-- Node17 -->
<g id="Node000017" class="node">
<title>Node17</title>
<g id="a_Node000017"><a xlink:href="ChronosDesign_8cpp.html" target="_top" xlink:title=" ">
<polygon fill="white" stroke="#666666" points="978.25,-119.5 855.75,-119.5 855.75,-77.75 978.25,-77.75 978.25,-119.5"/>
<text text-anchor="start" x="863.75" y="-106" font-family="Helvetica,sans-Serif" font-size="10.00">/github/workspace/dev</text>
<text text-anchor="start" x="863.75" y="-94.75" font-family="Helvetica,sans-Serif" font-size="10.00">_area/sourcecode/timing</text>
<text text-anchor="middle" x="917" y="-83.5" font-family="Helvetica,sans-Serif" font-size="10.00">/src/ChronosDesign.cpp</text>
</a>
</g>
</g>
<!-- Node16&#45;&gt;Node17 -->
<g id="edge21_Node000016_Node000017" class="edge">
<title>Node16&#45;&gt;Node17</title>
<g id="a_edge21_Node000016_Node000017"><a xlink:title=" ">
<path fill="none" stroke="#63b8ff" d="M880.06,-146.26C887.01,-137.49 894.48,-128.05 900.88,-119.98"/>
<polygon fill="#63b8ff" stroke="#63b8ff" points="877.48,-143.88 874.02,-153.89 882.97,-148.22 877.48,-143.88"/>
</a>
</g>
</g>
<!-- Node19&#45;&gt;Node16 -->
<g id="edge30_Node000019_Node000016" class="edge">
<title>Node19&#45;&gt;Node16</title>
<g id="a_edge30_Node000019_Node000016"><a xlink:title=" ">
<path fill="none" stroke="#63b8ff" d="M841.07,-222.06C844,-213.86 847.08,-205.21 849.74,-197.73"/>
<polygon fill="#63b8ff" stroke="#63b8ff" points="837.8,-220.81 837.74,-231.4 844.4,-223.16 837.8,-220.81"/>
</a>
</g>
</g>
<!-- Node20 -->
<g id="Node000020" class="node">
<title>Node20</title>
<g id="a_Node000020"><a xlink:href="BoreasDesign_8hpp.html" target="_top" xlink:title=" ">
<polygon fill="white" stroke="#666666" points="1312.38,-197.25 1151.62,-197.25 1151.62,-155.5 1312.38,-155.5 1312.38,-197.25"/>
<text text-anchor="start" x="1159.62" y="-183.75" font-family="Helvetica,sans-Serif" font-size="10.00">/github/workspace/dev</text>
<text text-anchor="start" x="1159.62" y="-172.5" font-family="Helvetica,sans-Serif" font-size="10.00">_area/sourcecode/timing</text>
<text text-anchor="middle" x="1232" y="-161.25" font-family="Helvetica,sans-Serif" font-size="10.00">/include/timing/BoreasDesign.hpp</text>
</a>
</g>
</g>
<!-- Node19&#45;&gt;Node20 -->
<g id="edge27_Node000019_Node000020" class="edge">
<title>Node19&#45;&gt;Node20</title>
<g id="a_edge27_Node000019_Node000020"><a xlink:title=" ">
<path fill="none" stroke="#63b8ff" d="M934.15,-235.55C994.89,-225.03 1072.91,-211.06 1142,-197.25 1145.14,-196.62 1148.34,-195.97 1151.56,-195.31"/>
<polygon fill="#63b8ff" stroke="#63b8ff" points="933.77,-232.06 924.51,-237.21 934.96,-238.96 933.77,-232.06"/>
</a>
</g>
</g>
<!-- Node19&#45;&gt;Node22 -->
<g id="edge31_Node000019_Node000022" class="edge">
<title>Node19&#45;&gt;Node22</title>
<g id="a_edge31_Node000019_Node000022"><a xlink:title=" ">
<path fill="none" stroke="#63b8ff" d="M725.91,-239.61C640.69,-228.47 517,-212.14 409,-197.25 394.03,-195.19 378.15,-192.96 362.7,-190.76"/>
<polygon fill="#63b8ff" stroke="#63b8ff" points="725.29,-243.05 735.65,-240.88 726.19,-236.11 725.29,-243.05"/>
</a>
</g>
</g>
<!-- Node20&#45;&gt;Node4 -->
<g id="edge28_Node000020_Node000004" class="edge">
<title>Node20&#45;&gt;Node4</title>
<g id="a_edge28_Node000020_Node000004"><a xlink:title=" ">
<path fill="none" stroke="#63b8ff" d="M1219.73,-145.02C1209.59,-123.47 1193.26,-95.36 1171,-77.75 1142.9,-55.51 1105.46,-41.89 1073.34,-33.67"/>
<polygon fill="#63b8ff" stroke="#63b8ff" points="1216.43,-146.22 1223.71,-153.91 1222.82,-143.36 1216.43,-146.22"/>
</a>
</g>
</g>
<!-- Node21 -->
<g id="Node000021" class="node">
<title>Node21</title>
<g id="a_Node000021"><a xlink:href="BoreasDesign_8cpp.html" target="_top" xlink:title=" ">
<polygon fill="white" stroke="#666666" points="1340.25,-119.5 1217.75,-119.5 1217.75,-77.75 1340.25,-77.75 1340.25,-119.5"/>
<text text-anchor="start" x="1225.75" y="-106" font-family="Helvetica,sans-Serif" font-size="10.00">/github/workspace/dev</text>
<text text-anchor="start" x="1225.75" y="-94.75" font-family="Helvetica,sans-Serif" font-size="10.00">_area/sourcecode/timing</text>
<text text-anchor="middle" x="1279" y="-83.5" font-family="Helvetica,sans-Serif" font-size="10.00">/src/BoreasDesign.cpp</text>
</a>
</g>
</g>
<!-- Node20&#45;&gt;Node21 -->
<g id="edge29_Node000020_Node000021" class="edge">
<title>Node20&#45;&gt;Node21</title>
<g id="a_edge29_Node000020_Node000021"><a xlink:title=" ">
<path fill="none" stroke="#63b8ff" d="M1250.58,-145.43C1255.88,-136.89 1261.52,-127.8 1266.37,-119.98"/>
<polygon fill="#63b8ff" stroke="#63b8ff" points="1247.69,-143.45 1245.39,-153.79 1253.64,-147.14 1247.69,-143.45"/>
</a>
</g>
</g>
<!-- Node22&#45;&gt;Node6 -->
<g id="edge32_Node000022_Node000006" class="edge">
<title>Node22&#45;&gt;Node6</title>
<g id="a_edge32_Node000022_Node000006"><a xlink:title=" ">
<path fill="none" stroke="#63b8ff" d="M289.98,-145.7C295.78,-137.09 301.97,-127.88 307.3,-119.98"/>
<polygon fill="#63b8ff" stroke="#63b8ff" points="287.19,-143.57 284.51,-153.82 293,-147.48 287.19,-143.57"/>
</a>
</g>
</g>
<!-- Node23&#45;&gt;Node4 -->
<g id="edge35_Node000023_Node000004" class="edge">
<title>Node23&#45;&gt;Node4</title>
<g id="a_edge35_Node000023_Node000004"><a xlink:title=" ">
<path fill="none" stroke="#63b8ff" d="M1033.42,-144.71C1030.39,-136.6 1027.35,-127.79 1025,-119.5 1017.52,-93.08 1012,-61.82 1008.9,-41.92"/>
<polygon fill="#63b8ff" stroke="#63b8ff" points="1030.07,-145.74 1036.94,-153.8 1036.6,-143.21 1030.07,-145.74"/>
</a>
</g>
</g>
<!-- Node24 -->
<g id="Node000024" class="node">
<title>Node24</title>
<g id="a_Node000024"><a xlink:href="OuroborosDesign_8cpp.html" target="_top" xlink:title=" ">
<polygon fill="white" stroke="#666666" points="1162.25,-119.5 1033.75,-119.5 1033.75,-77.75 1162.25,-77.75 1162.25,-119.5"/>
<text text-anchor="start" x="1041.75" y="-106" font-family="Helvetica,sans-Serif" font-size="10.00">/github/workspace/dev</text>
<text text-anchor="start" x="1041.75" y="-94.75" font-family="Helvetica,sans-Serif" font-size="10.00">_area/sourcecode/timing</text>
<text text-anchor="middle" x="1098" y="-83.5" font-family="Helvetica,sans-Serif" font-size="10.00">/src/OuroborosDesign.cpp</text>
</a>
</g>
</g>
<!-- Node23&#45;&gt;Node24 -->
<g id="edge36_Node000023_Node000024" class="edge">
<title>Node23&#45;&gt;Node24</title>
<g id="a_edge36_Node000023_Node000024"><a xlink:title=" ">
<path fill="none" stroke="#63b8ff" d="M1066.37,-145.7C1072.28,-137.09 1078.6,-127.88 1084.03,-119.98"/>
<polygon fill="#63b8ff" stroke="#63b8ff" points="1063.57,-143.6 1060.79,-153.83 1069.34,-147.56 1063.57,-143.6"/>
</a>
</g>
</g>
<!-- Node25&#45;&gt;Node4 -->
<g id="edge38_Node000025_Node000004" class="edge">
<title>Node25&#45;&gt;Node4</title>
<g id="a_edge38_Node000025_Node000004"><a xlink:title=" ">
<path fill="none" stroke="#63b8ff" d="M1646.9,-77.39C1431.92,-48.33 1188.32,-32.13 1073,-25.46"/>
<polygon fill="#63b8ff" stroke="#63b8ff" points="1646.21,-80.82 1656.59,-78.71 1647.15,-73.89 1646.21,-80.82"/>
</a>
</g>
</g>
<!-- Node26 -->
<g id="Node000026" class="node">
<title>Node26</title>
<g id="a_Node000026"><a xlink:href="OuroborosMuxDesign_8cpp.html" target="_top" xlink:title=" ">
<polygon fill="white" stroke="#666666" points="1828.25,-41.75 1681.75,-41.75 1681.75,0 1828.25,0 1828.25,-41.75"/>
<text text-anchor="start" x="1689.75" y="-28.25" font-family="Helvetica,sans-Serif" font-size="10.00">/github/workspace/dev</text>
<text text-anchor="start" x="1689.75" y="-17" font-family="Helvetica,sans-Serif" font-size="10.00">_area/sourcecode/timing</text>
<text text-anchor="middle" x="1755" y="-5.75" font-family="Helvetica,sans-Serif" font-size="10.00">/src/OuroborosMuxDesign.cpp</text>
</a>
</g>
</g>
<!-- Node25&#45;&gt;Node26 -->
<g id="edge39_Node000025_Node000026" class="edge">
<title>Node25&#45;&gt;Node26</title>
<g id="a_edge39_Node000025_Node000026"><a xlink:title=" ">
<path fill="none" stroke="#63b8ff" d="M1755,-66C1755,-57.96 1755,-49.54 1755,-42.23"/>
<polygon fill="#63b8ff" stroke="#63b8ff" points="1751.5,-65.81 1755,-75.81 1758.5,-65.81 1751.5,-65.81"/>
</a>
</g>
</g>
<!-- Node28 -->
<g id="Node000028" class="node">
<title>Node28</title>
<g id="a_Node000028"><a xlink:href="MasterMuxDesign_8hpp.html" target="_top" xlink:title=" ">
<polygon fill="white" stroke="#666666" points="1827,-197.25 1649,-197.25 1649,-155.5 1827,-155.5 1827,-197.25"/>
<text text-anchor="start" x="1657" y="-183.75" font-family="Helvetica,sans-Serif" font-size="10.00">/github/workspace/dev</text>
<text text-anchor="start" x="1657" y="-172.5" font-family="Helvetica,sans-Serif" font-size="10.00">_area/sourcecode/timing</text>
<text text-anchor="middle" x="1738" y="-161.25" font-family="Helvetica,sans-Serif" font-size="10.00">/include/timing/MasterMuxDesign.hpp</text>
</a>
</g>
</g>
<!-- Node27&#45;&gt;Node28 -->
<g id="edge42_Node000027_Node000028" class="edge">
<title>Node27&#45;&gt;Node28</title>
<g id="a_edge42_Node000027_Node000028"><a xlink:title=" ">
<path fill="none" stroke="#63b8ff" d="M1699.98,-399.56C1770.97,-380.39 1856.9,-343.82 1901,-275 1911.01,-259.38 1911.79,-248.35 1901,-233.25 1883.79,-209.15 1855.51,-195.33 1827.3,-187.45"/>
<polygon fill="#63b8ff" stroke="#63b8ff" points="1699.44,-396.09 1690.64,-402 1701.2,-402.86 1699.44,-396.09"/>
</a>
</g>
</g>
<!-- Node28&#45;&gt;Node6 -->
<g id="edge45_Node000028_Node000006" class="edge">
<title>Node28&#45;&gt;Node6</title>
<g id="a_edge45_Node000028_Node000006"><a xlink:title=" ">
<path fill="none" stroke="#63b8ff" d="M1637.5,-155.33C1100.48,-94.67 957.12,-179.04 423,-119.5 419.95,-119.16 416.86,-118.78 413.74,-118.36"/>
<polygon fill="#63b8ff" stroke="#63b8ff" points="1636.8,-158.77 1647.14,-156.43 1637.6,-151.81 1636.8,-158.77"/>
</a>
</g>
</g>
<!-- Node28&#45;&gt;Node25 -->
<g id="edge43_Node000028_Node000025" class="edge">
<title>Node28&#45;&gt;Node25</title>
<g id="a_edge43_Node000028_Node000025"><a xlink:title=" ">
<path fill="none" stroke="#63b8ff" d="M1745.03,-144.03C1746.86,-135.91 1748.77,-127.37 1750.43,-119.98"/>
<polygon fill="#63b8ff" stroke="#63b8ff" points="1741.66,-143.07 1742.89,-153.6 1748.49,-144.61 1741.66,-143.07"/>
</a>
</g>
</g>
<!-- Node29 -->
<g id="Node000029" class="node">
<title>Node29</title>
<g id="a_Node000029"><a xlink:href="MasterMuxDesign_8cpp.html" target="_top" xlink:title=" ">
<polygon fill="white" stroke="#666666" points="1640.75,-119.5 1509.25,-119.5 1509.25,-77.75 1640.75,-77.75 1640.75,-119.5"/>
<text text-anchor="start" x="1517.25" y="-106" font-family="Helvetica,sans-Serif" font-size="10.00">/github/workspace/dev</text>
<text text-anchor="start" x="1517.25" y="-94.75" font-family="Helvetica,sans-Serif" font-size="10.00">_area/sourcecode/timing</text>
<text text-anchor="middle" x="1575" y="-83.5" font-family="Helvetica,sans-Serif" font-size="10.00">/src/MasterMuxDesign.cpp</text>
</a>
</g>
</g>
<!-- Node28&#45;&gt;Node29 -->
<g id="edge44_Node000028_Node000029" class="edge">
<title>Node28&#45;&gt;Node29</title>
<g id="a_edge44_Node000028_Node000029"><a xlink:title=" ">
<path fill="none" stroke="#63b8ff" d="M1684.17,-150.36C1662.96,-140.5 1638.92,-129.33 1618.8,-119.98"/>
<polygon fill="#63b8ff" stroke="#63b8ff" points="1682.4,-153.4 1692.95,-154.44 1685.35,-147.05 1682.4,-153.4"/>
</a>
</g>
</g>
<!-- Node30&#45;&gt;Node3 -->
<g id="edge49_Node000030_Node000003" class="edge">
<title>Node30&#45;&gt;Node3</title>
<g id="a_edge49_Node000030_Node000003"><a xlink:title=" ">
<path fill="none" stroke="#63b8ff" d="M941.99,-414.34C850.86,-407.24 702.38,-392.31 577,-364 454.57,-336.36 426.38,-319.42 309,-275 244.12,-250.45 170.58,-218.31 124.74,-197.75"/>
<polygon fill="#63b8ff" stroke="#63b8ff" points="941.61,-417.82 951.85,-415.09 942.15,-410.84 941.61,-417.82"/>
</a>
</g>
</g>
<!-- Node30&#45;&gt;Node13 -->
<g id="edge47_Node000030_Node000013" class="edge">
<title>Node30&#45;&gt;Node13</title>
<g id="a_edge47_Node000030_Node000013"><a xlink:title=" ">
<path fill="none" stroke="#63b8ff" d="M1111.66,-414.92C1305.25,-402.18 1773.4,-362.91 1901,-275 1928.15,-256.29 1944.21,-220.1 1952.05,-197.42"/>
<polygon fill="#63b8ff" stroke="#63b8ff" points="1111.68,-411.41 1101.93,-415.56 1112.14,-418.4 1111.68,-411.41"/>
</a>
</g>
</g>
<!-- Node30&#45;&gt;Node15 -->
<g id="edge48_Node000030_Node000015" class="edge">
<title>Node30&#45;&gt;Node15</title>
<g id="a_edge48_Node000030_Node000015"><a xlink:title=" ">
<path fill="none" stroke="#63b8ff" d="M1062.17,-392.8C1104.94,-359.87 1176.16,-305.04 1214.54,-275.49"/>
<polygon fill="#63b8ff" stroke="#63b8ff" points="1060.23,-389.88 1054.44,-398.75 1064.5,-395.42 1060.23,-389.88"/>
</a>
</g>
</g>
<!-- Node31 -->
<g id="Node000031" class="node">
<title>Node31</title>
<g id="a_Node000031"><a xlink:href="MasterDesign_8hpp.html" target="_top" xlink:title=" ">
<polygon fill="white" stroke="#666666" points="1139,-275 979,-275 979,-233.25 1139,-233.25 1139,-275"/>
<text text-anchor="start" x="987" y="-261.5" font-family="Helvetica,sans-Serif" font-size="10.00">/github/workspace/dev</text>
<text text-anchor="start" x="987" y="-250.25" font-family="Helvetica,sans-Serif" font-size="10.00">_area/sourcecode/timing</text>
<text text-anchor="middle" x="1059" y="-239" font-family="Helvetica,sans-Serif" font-size="10.00">/include/timing/MasterDesign.hpp</text>
</a>
</g>
</g>
<!-- Node30&#45;&gt;Node31 -->
<g id="edge50_Node000030_Node000031" class="edge">
<title>Node30&#45;&gt;Node31</title>
<g id="a_edge50_Node000030_Node000031"><a xlink:title=" ">
<path fill="none" stroke="#63b8ff" d="M1033.04,-388.76C1039.5,-355.54 1049.53,-303.87 1055.04,-275.49"/>
<polygon fill="#63b8ff" stroke="#63b8ff" points="1029.68,-387.7 1031.21,-398.19 1036.55,-389.04 1029.68,-387.7"/>
</a>
</g>
</g>
<!-- Node33 -->
<g id="Node000033" class="node">
<title>Node33</title>
<g id="a_Node000033"><a xlink:href="MasterDesignInterface_8hpp.html" target="_top" xlink:title=" ">
<polygon fill="white" stroke="#666666" points="784.12,-358.38 585.88,-358.38 585.88,-316.62 784.12,-316.62 784.12,-358.38"/>
<text text-anchor="start" x="593.88" y="-344.88" font-family="Helvetica,sans-Serif" font-size="10.00">/github/workspace/dev</text>
<text text-anchor="start" x="593.88" y="-333.62" font-family="Helvetica,sans-Serif" font-size="10.00">_area/sourcecode/timing</text>
<text text-anchor="middle" x="685" y="-322.38" font-family="Helvetica,sans-Serif" font-size="10.00">/include/timing/MasterDesignInterface.hpp</text>
</a>
</g>
</g>
<!-- Node30&#45;&gt;Node33 -->
<g id="edge57_Node000030_Node000033" class="edge">
<title>Node30&#45;&gt;Node33</title>
<g id="a_edge57_Node000030_Node000033"><a xlink:title=" ">
<path fill="none" stroke="#63b8ff" d="M942.69,-399.82C890.33,-387.36 823.23,-371.39 770.62,-358.87"/>
<polygon fill="#63b8ff" stroke="#63b8ff" points="941.62,-403.16 952.16,-402.07 943.24,-396.35 941.62,-403.16"/>
</a>
</g>
</g>
<!-- Node31&#45;&gt;Node7 -->
<g id="edge52_Node000031_Node000007" class="edge">
<title>Node31&#45;&gt;Node7</title>
<g id="a_edge52_Node000031_Node000007"><a xlink:title=" ">
<path fill="none" stroke="#63b8ff" d="M967.46,-238.19C955.54,-236.43 943.49,-234.73 932,-233.25 774.71,-212.98 733.39,-223.56 577,-197.25 574.19,-196.78 571.34,-196.27 568.46,-195.72"/>
<polygon fill="#63b8ff" stroke="#63b8ff" points="966.91,-241.65 977.32,-239.68 967.95,-234.73 966.91,-241.65"/>
</a>
</g>
</g>
<!-- Node31&#45;&gt;Node9 -->
<g id="edge53_Node000031_Node000009" class="edge">
<title>Node31&#45;&gt;Node9</title>
<g id="a_edge53_Node000031_Node000009"><a xlink:title=" ">
<path fill="none" stroke="#63b8ff" d="M967.75,-236.28C909.65,-225.44 832.83,-210.87 765,-197.25 761.97,-196.64 758.9,-196.02 755.79,-195.39"/>
<polygon fill="#63b8ff" stroke="#63b8ff" points="966.78,-239.66 977.25,-238.05 968.06,-232.78 966.78,-239.66"/>
</a>
</g>
</g>
<!-- Node31&#45;&gt;Node20 -->
<g id="edge51_Node000031_Node000020" class="edge">
<title>Node31&#45;&gt;Node20</title>
<g id="a_edge51_Node000031_Node000020"><a xlink:title=" ">
<path fill="none" stroke="#63b8ff" d="M1115.83,-228.24C1138.41,-218.35 1164.07,-207.12 1185.51,-197.73"/>
<polygon fill="#63b8ff" stroke="#63b8ff" points="1114.5,-225 1106.75,-232.22 1117.31,-231.41 1114.5,-225"/>
</a>
</g>
</g>
<!-- Node31&#45;&gt;Node23 -->
<g id="edge55_Node000031_Node000023" class="edge">
<title>Node31&#45;&gt;Node23</title>
<g id="a_edge55_Node000031_Node000023"><a xlink:title=" ">
<path fill="none" stroke="#63b8ff" d="M1053.57,-221.5C1052.19,-213.46 1050.75,-205.04 1049.49,-197.73"/>
<polygon fill="#63b8ff" stroke="#63b8ff" points="1050.12,-222.07 1055.26,-231.33 1057.02,-220.89 1050.12,-222.07"/>
</a>
</g>
</g>
<!-- Node31&#45;&gt;Node28 -->
<g id="edge54_Node000031_Node000028" class="edge">
<title>Node31&#45;&gt;Node28</title>
<g id="a_edge54_Node000031_Node000028"><a xlink:title=" ">
<path fill="none" stroke="#63b8ff" d="M1150.52,-233C1366.87,-202.11 1426.4,-226.6 1640,-197.25 1642.84,-196.86 1645.72,-196.44 1648.62,-195.99"/>
<polygon fill="#63b8ff" stroke="#63b8ff" points="1150.32,-229.49 1140.93,-234.39 1151.33,-236.42 1150.32,-229.49"/>
</a>
</g>
</g>
<!-- Node32 -->
<g id="Node000032" class="node">
<title>Node32</title>
<g id="a_Node000032"><a xlink:href="MasterDesign_8cpp.html" target="_top" xlink:title=" ">
<polygon fill="white" stroke="#666666" points="1453.25,-197.25 1330.75,-197.25 1330.75,-155.5 1453.25,-155.5 1453.25,-197.25"/>
<text text-anchor="start" x="1338.75" y="-183.75" font-family="Helvetica,sans-Serif" font-size="10.00">/github/workspace/dev</text>
<text text-anchor="start" x="1338.75" y="-172.5" font-family="Helvetica,sans-Serif" font-size="10.00">_area/sourcecode/timing</text>
<text text-anchor="middle" x="1392" y="-161.25" font-family="Helvetica,sans-Serif" font-size="10.00">/src/MasterDesign.cpp</text>
</a>
</g>
</g>
<!-- Node31&#45;&gt;Node32 -->
<g id="edge56_Node000031_Node000032" class="edge">
<title>Node31&#45;&gt;Node32</title>
<g id="a_edge56_Node000031_Node000032"><a xlink:title=" ">
<path fill="none" stroke="#63b8ff" d="M1150.21,-232.8C1226.67,-216.58 1248.13,-215.01 1321,-197.25 1324.11,-196.49 1327.29,-195.69 1330.49,-194.87"/>
<polygon fill="#63b8ff" stroke="#63b8ff" points="1149.57,-229.36 1140.52,-234.88 1151.03,-236.21 1149.57,-229.36"/>
</a>
</g>
</g>
<!-- Node33&#45;&gt;Node22 -->
<g id="edge59_Node000033_Node000022" class="edge">
<title>Node33&#45;&gt;Node22</title>
<g id="a_edge59_Node000033_Node000022"><a xlink:title=" ">
<path fill="none" stroke="#63b8ff" d="M574.13,-325C518.45,-316.28 451.08,-301.13 395,-275 353.32,-255.58 312.82,-219.95 289.71,-197.53"/>
<polygon fill="#63b8ff" stroke="#63b8ff" points="573.55,-328.46 583.96,-326.49 574.6,-321.53 573.55,-328.46"/>
</a>
</g>
</g>
<!-- Node33&#45;&gt;Node31 -->
<g id="edge58_Node000033_Node000031" class="edge">
<title>Node33&#45;&gt;Node31</title>
<g id="a_edge58_Node000033_Node000031"><a xlink:title=" ">
<path fill="none" stroke="#63b8ff" d="M781.32,-313.63C785.27,-312.73 789.17,-311.85 793,-311 855.18,-297.13 925.75,-282.35 978.57,-271.48"/>
<polygon fill="#63b8ff" stroke="#63b8ff" points="780.59,-310.21 771.62,-315.85 782.15,-317.03 780.59,-310.21"/>
</a>
</g>
</g>
</g>
</svg>
