<?xml version="1.0" encoding="UTF-8" standalone="no"?>
<!DOCTYPE svg PUBLIC "-//W3C//DTD SVG 1.1//EN"
 "http://www.w3.org/Graphics/SVG/1.1/DTD/svg11.dtd">
<!-- Generated by graphviz version 9.0.0 (20230911.1827)
 -->
<!-- Title: /github/workspace/dev_area/sourcecode/tpglibs/include/tpglibs/AbstractFactory.hpp Pages: 1 -->
<svg width="654pt" height="105pt"
 viewBox="0.00 0.00 654.12 105.00" xmlns="http://www.w3.org/2000/svg" xmlns:xlink="http://www.w3.org/1999/xlink">
<g id="graph0" class="graph" transform="scale(1 1) rotate(0) translate(4 101)">
<title>/github/workspace/dev_area/sourcecode/tpglibs/include/tpglibs/AbstractFactory.hpp</title>
<!-- Node1 -->
<g id="Node000001" class="node">
<title>Node1</title>
<g id="a_Node000001"><a xlink:title=" ">
<polygon fill="#999999" stroke="#666666" points="362.25,-97 191,-97 191,-55.25 362.25,-55.25 362.25,-97"/>
<text text-anchor="start" x="199" y="-83.5" font-family="Helvetica,sans-Serif" font-size="10.00">/github/workspace/dev</text>
<text text-anchor="start" x="199" y="-72.25" font-family="Helvetica,sans-Serif" font-size="10.00">_area/sourcecode/tpglibs</text>
<text text-anchor="middle" x="276.62" y="-61" font-family="Helvetica,sans-Serif" font-size="10.00">/include/tpglibs/AbstractFactory.hpp</text>
</a>
</g>
</g>
<!-- Node2 -->
<g id="Node000002" class="node">
<title>Node2</title>
<g id="a_Node000002"><a xlink:title=" ">
<polygon fill="#e0e0e0" stroke="#999999" points="45.25,-19.25 0,-19.25 0,0 45.25,0 45.25,-19.25"/>
<text text-anchor="middle" x="22.62" y="-5.75" font-family="Helvetica,sans-Serif" font-size="10.00">cstdint</text>
</a>
</g>
</g>
<!-- Node1&#45;&gt;Node2 -->
<g id="edge1_Node000001_Node000002" class="edge">
<title>Node1&#45;&gt;Node2</title>
<g id="a_edge1_Node000001_Node000002"><a xlink:title=" ">
<path fill="none" stroke="#63b8ff" d="M193.36,-54.81C154.26,-45.13 106.75,-33.2 56.69,-20.02"/>
<polygon fill="#63b8ff" stroke="#63b8ff" points="57.66,-16.65 47.09,-17.48 55.87,-23.42 57.66,-16.65"/>
</a>
</g>
</g>
<!-- Node3 -->
<g id="Node000003" class="node">
<title>Node3</title>
<g id="a_Node000003"><a xlink:title=" ">
<polygon fill="#e0e0e0" stroke="#999999" points="120.25,-19.25 63,-19.25 63,0 120.25,0 120.25,-19.25"/>
<text text-anchor="middle" x="91.62" y="-5.75" font-family="Helvetica,sans-Serif" font-size="10.00">exception</text>
</a>
</g>
</g>
<!-- Node1&#45;&gt;Node3 -->
<g id="edge2_Node000001_Node000003" class="edge">
<title>Node1&#45;&gt;Node3</title>
<g id="a_edge2_Node000001_Node000003"><a xlink:title=" ">
<path fill="none" stroke="#63b8ff" d="M218.34,-54.81C188.82,-44.51 153.88,-32.33 128.18,-23.37"/>
<polygon fill="#63b8ff" stroke="#63b8ff" points="129.45,-20.1 118.85,-20.12 127.14,-26.71 129.45,-20.1"/>
</a>
</g>
</g>
<!-- Node4 -->
<g id="Node000004" class="node">
<title>Node4</title>
<g id="a_Node000004"><a xlink:title=" ">
<polygon fill="#e0e0e0" stroke="#999999" points="196.62,-19.25 138.62,-19.25 138.62,0 196.62,0 196.62,-19.25"/>
<text text-anchor="middle" x="167.62" y="-5.75" font-family="Helvetica,sans-Serif" font-size="10.00">functional</text>
</a>
</g>
</g>
<!-- Node1&#45;&gt;Node4 -->
<g id="edge3_Node000001_Node000004" class="edge">
<title>Node1&#45;&gt;Node4</title>
<g id="a_edge3_Node000001_Node000004"><a xlink:title=" ">
<path fill="none" stroke="#63b8ff" d="M242.44,-54.89C226.2,-45.29 207.16,-34.02 192.36,-25.26"/>
<polygon fill="#63b8ff" stroke="#63b8ff" points="194.56,-22.5 184.17,-20.42 190.99,-28.52 194.56,-22.5"/>
</a>
</g>
</g>
<!-- Node5 -->
<g id="Node000005" class="node">
<title>Node5</title>
<g id="a_Node000005"><a xlink:title=" ">
<polygon fill="#e0e0e0" stroke="#999999" points="268.38,-19.25 214.88,-19.25 214.88,0 268.38,0 268.38,-19.25"/>
<text text-anchor="middle" x="241.62" y="-5.75" font-family="Helvetica,sans-Serif" font-size="10.00">iostream</text>
</a>
</g>
</g>
<!-- Node1&#45;&gt;Node5 -->
<g id="edge4_Node000001_Node000005" class="edge">
<title>Node1&#45;&gt;Node5</title>
<g id="a_edge4_Node000001_Node000005"><a xlink:title=" ">
<path fill="none" stroke="#63b8ff" d="M265.74,-55.07C261.33,-46.93 256.25,-37.58 251.9,-29.57"/>
<polygon fill="#63b8ff" stroke="#63b8ff" points="255.11,-28.15 247.27,-21.03 248.96,-31.48 255.11,-28.15"/>
</a>
</g>
</g>
<!-- Node6 -->
<g id="Node000006" class="node">
<title>Node6</title>
<g id="a_Node000006"><a xlink:title=" ">
<polygon fill="#e0e0e0" stroke="#999999" points="336.88,-19.25 286.38,-19.25 286.38,0 336.88,0 336.88,-19.25"/>
<text text-anchor="middle" x="311.62" y="-5.75" font-family="Helvetica,sans-Serif" font-size="10.00">memory</text>
</a>
</g>
</g>
<!-- Node1&#45;&gt;Node6 -->
<g id="edge5_Node000001_Node000006" class="edge">
<title>Node1&#45;&gt;Node6</title>
<g id="a_edge5_Node000001_Node000006"><a xlink:title=" ">
<path fill="none" stroke="#63b8ff" d="M287.51,-55.07C291.92,-46.93 297,-37.58 301.35,-29.57"/>
<polygon fill="#63b8ff" stroke="#63b8ff" points="304.29,-31.48 305.98,-21.03 298.14,-28.15 304.29,-31.48"/>
</a>
</g>
</g>
<!-- Node7 -->
<g id="Node000007" class="node">
<title>Node7</title>
<g id="a_Node000007"><a xlink:title=" ">
<polygon fill="#e0e0e0" stroke="#999999" points="394.62,-19.25 354.62,-19.25 354.62,0 394.62,0 394.62,-19.25"/>
<text text-anchor="middle" x="374.62" y="-5.75" font-family="Helvetica,sans-Serif" font-size="10.00">string</text>
</a>
</g>
</g>
<!-- Node1&#45;&gt;Node7 -->
<g id="edge6_Node000001_Node000007" class="edge">
<title>Node1&#45;&gt;Node7</title>
<g id="a_edge6_Node000001_Node000007"><a xlink:title=" ">
<path fill="none" stroke="#63b8ff" d="M307.36,-54.89C321.68,-45.47 338.42,-34.46 351.62,-25.77"/>
<polygon fill="#63b8ff" stroke="#63b8ff" points="353.23,-28.9 359.66,-20.48 349.38,-23.05 353.23,-28.9"/>
</a>
</g>
</g>
<!-- Node8 -->
<g id="Node000008" class="node">
<title>Node8</title>
<g id="a_Node000008"><a xlink:title=" ">
<polygon fill="#e0e0e0" stroke="#999999" points="495,-19.25 412.25,-19.25 412.25,0 495,0 495,-19.25"/>
<text text-anchor="middle" x="453.62" y="-5.75" font-family="Helvetica,sans-Serif" font-size="10.00">unordered_map</text>
</a>
</g>
</g>
<!-- Node1&#45;&gt;Node8 -->
<g id="edge7_Node000001_Node000008" class="edge">
<title>Node1&#45;&gt;Node8</title>
<g id="a_edge7_Node000001_Node000008"><a xlink:title=" ">
<path fill="none" stroke="#63b8ff" d="M332.14,-54.89C360.28,-44.64 393.6,-32.5 418.22,-23.53"/>
<polygon fill="#63b8ff" stroke="#63b8ff" points="419.25,-26.87 427.45,-20.16 416.86,-20.3 419.25,-26.87"/>
</a>
</g>
</g>
<!-- Node9 -->
<g id="Node000009" class="node">
<title>Node9</title>
<g id="a_Node000009"><a xlink:href="tpglibs_2include_2tpglibs_2AbstractFactory_8hxx.html" target="_top" xlink:title=" ">
<polygon fill="white" stroke="#666666" points="646.12,-19.25 513.12,-19.25 513.12,0 646.12,0 646.12,-19.25"/>
<text text-anchor="middle" x="579.62" y="-5.75" font-family="Helvetica,sans-Serif" font-size="10.00">tpglibs/AbstractFactory.hxx</text>
</a>
</g>
</g>
<!-- Node1&#45;&gt;Node9 -->
<g id="edge8_Node000001_Node000009" class="edge">
<title>Node1&#45;&gt;Node9</title>
<g id="a_edge8_Node000001_Node000009"><a xlink:title=" ">
<path fill="none" stroke="#63b8ff" d="M362.64,-56.81C415.22,-45.62 480.84,-31.65 526.07,-22.03"/>
<polygon fill="#63b8ff" stroke="#63b8ff" points="526.57,-25.5 535.62,-19.99 525.12,-18.65 526.57,-25.5"/>
</a>
</g>
</g>
</g>
</svg>
