<?xml version="1.0" encoding="UTF-8" standalone="no"?>
<!DOCTYPE svg PUBLIC "-//W3C//DTD SVG 1.1//EN"
 "http://www.w3.org/Graphics/SVG/1.1/DTD/svg11.dtd">
<!-- Generated by graphviz version 9.0.0 (20230911.1827)
 -->
<!-- Title: /github/workspace/dev_area/sourcecode/triggeralgs/include/triggeralgs/TPWindow.hpp Pages: 1 -->
<svg width="914pt" height="217pt"
 viewBox="0.00 0.00 914.00 216.50" xmlns="http://www.w3.org/2000/svg" xmlns:xlink="http://www.w3.org/1999/xlink">
<g id="graph0" class="graph" transform="scale(1 1) rotate(0) translate(4 212.5)">
<title>/github/workspace/dev_area/sourcecode/triggeralgs/include/triggeralgs/TPWindow.hpp</title>
<!-- Node1 -->
<g id="Node000001" class="node">
<title>Node1</title>
<g id="a_Node000001"><a xlink:title=" ">
<polygon fill="#999999" stroke="#666666" points="626.38,-208.5 460.38,-208.5 460.38,-166.75 626.38,-166.75 626.38,-208.5"/>
<text text-anchor="start" x="468.38" y="-195" font-family="Helvetica,sans-Serif" font-size="10.00">/github/workspace/dev</text>
<text text-anchor="start" x="468.38" y="-183.75" font-family="Helvetica,sans-Serif" font-size="10.00">_area/sourcecode/triggeralgs</text>
<text text-anchor="middle" x="543.38" y="-172.5" font-family="Helvetica,sans-Serif" font-size="10.00">/include/triggeralgs/TPWindow.hpp</text>
</a>
</g>
</g>
<!-- Node2 -->
<g id="Node000002" class="node">
<title>Node2</title>
<g id="a_Node000002"><a xlink:href="sourcecode_2triggeralgs_2include_2triggeralgs_2ChannelAdjacency_2TAMakerChannelAdjacencyAlgorithm_8hpp.html" target="_top" xlink:title=" ">
<polygon fill="white" stroke="#666666" points="287.5,-130.75 89.25,-130.75 89.25,-77.75 287.5,-77.75 287.5,-130.75"/>
<text text-anchor="start" x="97.25" y="-117.25" font-family="Helvetica,sans-Serif" font-size="10.00">/github/workspace/dev</text>
<text text-anchor="start" x="97.25" y="-106" font-family="Helvetica,sans-Serif" font-size="10.00">_area/sourcecode/triggeralgs</text>
<text text-anchor="start" x="97.25" y="-94.75" font-family="Helvetica,sans-Serif" font-size="10.00">/include/triggeralgs/ChannelAdjacency</text>
<text text-anchor="middle" x="188.38" y="-83.5" font-family="Helvetica,sans-Serif" font-size="10.00">/TAMakerChannelAdjacencyAlgorithm.hpp</text>
</a>
</g>
</g>
<!-- Node1&#45;&gt;Node2 -->
<g id="edge1_Node000001_Node000002" class="edge">
<title>Node1&#45;&gt;Node2</title>
<g id="a_edge1_Node000001_Node000002"><a xlink:title=" ">
<path fill="none" stroke="#63b8ff" d="M449.06,-165.01C399.31,-153.6 338.3,-139.62 287.81,-128.04"/>
<polygon fill="#63b8ff" stroke="#63b8ff" points="448.14,-168.39 458.67,-167.21 449.7,-161.56 448.14,-168.39"/>
</a>
</g>
</g>
<!-- Node4 -->
<g id="Node000004" class="node">
<title>Node4</title>
<g id="a_Node000004"><a xlink:href="sourcecode_2triggeralgs_2include_2triggeralgs_2HorizontalMuon_2TAMakerHorizontalMuonAlgorithm_8hpp.html" target="_top" xlink:title=" ">
<polygon fill="white" stroke="#666666" points="532.12,-130.75 346.62,-130.75 346.62,-77.75 532.12,-77.75 532.12,-130.75"/>
<text text-anchor="start" x="354.62" y="-117.25" font-family="Helvetica,sans-Serif" font-size="10.00">/github/workspace/dev</text>
<text text-anchor="start" x="354.62" y="-106" font-family="Helvetica,sans-Serif" font-size="10.00">_area/sourcecode/triggeralgs</text>
<text text-anchor="start" x="354.62" y="-94.75" font-family="Helvetica,sans-Serif" font-size="10.00">/include/triggeralgs/HorizontalMuon</text>
<text text-anchor="middle" x="439.38" y="-83.5" font-family="Helvetica,sans-Serif" font-size="10.00">/TAMakerHorizontalMuonAlgorithm.hpp</text>
</a>
</g>
</g>
<!-- Node1&#45;&gt;Node4 -->
<g id="edge3_Node000001_Node000004" class="edge">
<title>Node1&#45;&gt;Node4</title>
<g id="a_edge3_Node000001_Node000004"><a xlink:title=" ">
<path fill="none" stroke="#63b8ff" d="M508.42,-159.27C496.82,-150.2 483.94,-140.12 472.49,-131.16"/>
<polygon fill="#63b8ff" stroke="#63b8ff" points="506.18,-161.96 516.21,-165.37 510.49,-156.45 506.18,-161.96"/>
</a>
</g>
</g>
<!-- Node7 -->
<g id="Node000007" class="node">
<title>Node7</title>
<g id="a_Node000007"><a xlink:href="sourcecode_2triggeralgs_2include_2triggeralgs_2PlaneCoincidence_2TAMakerPlaneCoincidenceAlgorithm_8hpp.html" target="_top" xlink:title=" ">
<polygon fill="white" stroke="#666666" points="746.38,-130.75 550.38,-130.75 550.38,-77.75 746.38,-77.75 746.38,-130.75"/>
<text text-anchor="start" x="558.38" y="-117.25" font-family="Helvetica,sans-Serif" font-size="10.00">/github/workspace/dev</text>
<text text-anchor="start" x="558.38" y="-106" font-family="Helvetica,sans-Serif" font-size="10.00">_area/sourcecode/triggeralgs</text>
<text text-anchor="start" x="558.38" y="-94.75" font-family="Helvetica,sans-Serif" font-size="10.00">/include/triggeralgs/PlaneCoincidence</text>
<text text-anchor="middle" x="648.38" y="-83.5" font-family="Helvetica,sans-Serif" font-size="10.00">/TAMakerPlaneCoincidenceAlgorithm.hpp</text>
</a>
</g>
</g>
<!-- Node1&#45;&gt;Node7 -->
<g id="edge6_Node000001_Node000007" class="edge">
<title>Node1&#45;&gt;Node7</title>
<g id="a_edge6_Node000001_Node000007"><a xlink:title=" ">
<path fill="none" stroke="#63b8ff" d="M578.67,-159.27C590.38,-150.2 603.38,-140.12 614.95,-131.16"/>
<polygon fill="#63b8ff" stroke="#63b8ff" points="576.56,-156.48 570.8,-165.37 580.84,-162.01 576.56,-156.48"/>
</a>
</g>
</g>
<!-- Node9 -->
<g id="Node000009" class="node">
<title>Node9</title>
<g id="a_Node000009"><a xlink:href="TPWindow_8cpp.html" target="_top" xlink:title=" ">
<polygon fill="white" stroke="#666666" points="906,-125.12 764.75,-125.12 764.75,-83.38 906,-83.38 906,-125.12"/>
<text text-anchor="start" x="772.75" y="-111.62" font-family="Helvetica,sans-Serif" font-size="10.00">/github/workspace/dev</text>
<text text-anchor="start" x="772.75" y="-100.38" font-family="Helvetica,sans-Serif" font-size="10.00">_area/sourcecode/triggeralgs</text>
<text text-anchor="middle" x="835.38" y="-89.12" font-family="Helvetica,sans-Serif" font-size="10.00">/src/TPWindow.cpp</text>
</a>
</g>
</g>
<!-- Node1&#45;&gt;Node9 -->
<g id="edge8_Node000001_Node000009" class="edge">
<title>Node1&#45;&gt;Node9</title>
<g id="a_edge8_Node000001_Node000009"><a xlink:title=" ">
<path fill="none" stroke="#63b8ff" d="M635.31,-163.48C672.68,-153.79 716.21,-142.15 755.38,-130.75 760.97,-129.12 766.78,-127.38 772.58,-125.6"/>
<polygon fill="#63b8ff" stroke="#63b8ff" points="634.7,-160.02 625.89,-165.92 636.45,-166.8 634.7,-160.02"/>
</a>
</g>
</g>
<!-- Node3 -->
<g id="Node000003" class="node">
<title>Node3</title>
<g id="a_Node000003"><a xlink:href="sourcecode_2triggeralgs_2src_2TAMakerChannelAdjacencyAlgorithm_8cpp.html" target="_top" xlink:title=" ">
<polygon fill="white" stroke="#666666" points="214.75,-41.75 0,-41.75 0,0 214.75,0 214.75,-41.75"/>
<text text-anchor="start" x="8" y="-28.25" font-family="Helvetica,sans-Serif" font-size="10.00">/github/workspace/dev</text>
<text text-anchor="start" x="8" y="-17" font-family="Helvetica,sans-Serif" font-size="10.00">_area/sourcecode/triggeralgs</text>
<text text-anchor="middle" x="107.38" y="-5.75" font-family="Helvetica,sans-Serif" font-size="10.00">/src/TAMakerChannelAdjacencyAlgorithm.cpp</text>
</a>
</g>
</g>
<!-- Node2&#45;&gt;Node3 -->
<g id="edge2_Node000002_Node000003" class="edge">
<title>Node2&#45;&gt;Node3</title>
<g id="a_edge2_Node000002_Node000003"><a xlink:title=" ">
<path fill="none" stroke="#63b8ff" d="M154.77,-69.49C145.48,-60.16 135.7,-50.33 127.45,-42.04"/>
<polygon fill="#63b8ff" stroke="#63b8ff" points="152.14,-71.81 161.68,-76.43 157.1,-66.87 152.14,-71.81"/>
</a>
</g>
</g>
<!-- Node5 -->
<g id="Node000005" class="node">
<title>Node5</title>
<g id="a_Node000005"><a xlink:href="tapipe_8cxx.html" target="_top" xlink:title=" ">
<polygon fill="white" stroke="#666666" points="361.62,-41.75 233.12,-41.75 233.12,0 361.62,0 361.62,-41.75"/>
<text text-anchor="start" x="241.12" y="-28.25" font-family="Helvetica,sans-Serif" font-size="10.00">/github/workspace/dev</text>
<text text-anchor="start" x="241.12" y="-17" font-family="Helvetica,sans-Serif" font-size="10.00">_area/sourcecode/trgtools</text>
<text text-anchor="middle" x="297.38" y="-5.75" font-family="Helvetica,sans-Serif" font-size="10.00">/apps/tapipe.cxx</text>
</a>
</g>
</g>
<!-- Node4&#45;&gt;Node5 -->
<g id="edge4_Node000004_Node000005" class="edge">
<title>Node4&#45;&gt;Node5</title>
<g id="a_edge4_Node000004_Node000005"><a xlink:title=" ">
<path fill="none" stroke="#63b8ff" d="M384.09,-71.57C366.86,-61.69 348.32,-51.07 332.83,-42.19"/>
<polygon fill="#63b8ff" stroke="#63b8ff" points="382.33,-74.59 392.74,-76.53 385.81,-68.52 382.33,-74.59"/>
</a>
</g>
</g>
<!-- Node6 -->
<g id="Node000006" class="node">
<title>Node6</title>
<g id="a_Node000006"><a xlink:href="sourcecode_2triggeralgs_2src_2TAMakerHorizontalMuonAlgorithm_8cpp.html" target="_top" xlink:title=" ">
<polygon fill="white" stroke="#666666" points="581.38,-41.75 379.38,-41.75 379.38,0 581.38,0 581.38,-41.75"/>
<text text-anchor="start" x="387.38" y="-28.25" font-family="Helvetica,sans-Serif" font-size="10.00">/github/workspace/dev</text>
<text text-anchor="start" x="387.38" y="-17" font-family="Helvetica,sans-Serif" font-size="10.00">_area/sourcecode/triggeralgs</text>
<text text-anchor="middle" x="480.38" y="-5.75" font-family="Helvetica,sans-Serif" font-size="10.00">/src/TAMakerHorizontalMuonAlgorithm.cpp</text>
</a>
</g>
</g>
<!-- Node4&#45;&gt;Node6 -->
<g id="edge5_Node000004_Node000006" class="edge">
<title>Node4&#45;&gt;Node6</title>
<g id="a_edge5_Node000004_Node000006"><a xlink:title=" ">
<path fill="none" stroke="#63b8ff" d="M457.39,-67.5C461.78,-58.78 466.33,-49.74 470.21,-42.04"/>
<polygon fill="#63b8ff" stroke="#63b8ff" points="454.4,-65.65 453.03,-76.15 460.65,-68.8 454.4,-65.65"/>
</a>
</g>
</g>
<!-- Node8 -->
<g id="Node000008" class="node">
<title>Node8</title>
<g id="a_Node000008"><a xlink:href="sourcecode_2triggeralgs_2src_2TAMakerPlaneCoincidenceAlgorithm_8cpp.html" target="_top" xlink:title=" ">
<polygon fill="white" stroke="#666666" points="811.62,-41.75 599.12,-41.75 599.12,0 811.62,0 811.62,-41.75"/>
<text text-anchor="start" x="607.12" y="-28.25" font-family="Helvetica,sans-Serif" font-size="10.00">/github/workspace/dev</text>
<text text-anchor="start" x="607.12" y="-17" font-family="Helvetica,sans-Serif" font-size="10.00">_area/sourcecode/triggeralgs</text>
<text text-anchor="middle" x="705.38" y="-5.75" font-family="Helvetica,sans-Serif" font-size="10.00">/src/TAMakerPlaneCoincidenceAlgorithm.cpp</text>
</a>
</g>
</g>
<!-- Node7&#45;&gt;Node8 -->
<g id="edge7_Node000007_Node000008" class="edge">
<title>Node7&#45;&gt;Node8</title>
<g id="a_edge7_Node000007_Node000008"><a xlink:title=" ">
<path fill="none" stroke="#63b8ff" d="M672.82,-68.35C679.11,-59.37 685.68,-50 691.25,-42.04"/>
<polygon fill="#63b8ff" stroke="#63b8ff" points="670.15,-66.06 667.28,-76.26 675.88,-70.08 670.15,-66.06"/>
</a>
</g>
</g>
</g>
</svg>
