<?xml version="1.0" encoding="UTF-8" standalone="no"?>
<!DOCTYPE svg PUBLIC "-//W3C//DTD SVG 1.1//EN"
 "http://www.w3.org/Graphics/SVG/1.1/DTD/svg11.dtd">
<!-- Generated by graphviz version 9.0.0 (20230911.1827)
 -->
<!-- Title: /github/workspace/dev_area/sourcecode/triggeralgs/include/triggeralgs/TPWindow.hpp Pages: 1 -->
<svg width="520pt" height="271pt"
 viewBox="0.00 0.00 519.62 270.75" xmlns="http://www.w3.org/2000/svg" xmlns:xlink="http://www.w3.org/1999/xlink">
<g id="graph0" class="graph" transform="scale(1 1) rotate(0) translate(4 266.75)">
<title>/github/workspace/dev_area/sourcecode/triggeralgs/include/triggeralgs/TPWindow.hpp</title>
<!-- Node1 -->
<g id="Node000001" class="node">
<title>Node1</title>
<g id="a_Node000001"><a xlink:title=" ">
<polygon fill="#999999" stroke="#666666" points="407.12,-262.75 241.12,-262.75 241.12,-221 407.12,-221 407.12,-262.75"/>
<text text-anchor="start" x="249.12" y="-249.25" font-family="Helvetica,sans-Serif" font-size="10.00">/github/workspace/dev</text>
<text text-anchor="start" x="249.12" y="-238" font-family="Helvetica,sans-Serif" font-size="10.00">_area/sourcecode/triggeralgs</text>
<text text-anchor="middle" x="324.12" y="-226.75" font-family="Helvetica,sans-Serif" font-size="10.00">/include/triggeralgs/TPWindow.hpp</text>
</a>
</g>
</g>
<!-- Node2 -->
<g id="Node000002" class="node">
<title>Node2</title>
<g id="a_Node000002"><a xlink:href="triggeralgs_2include_2triggeralgs_2TriggerPrimitive_8hpp.html" target="_top" xlink:title=" ">
<polygon fill="white" stroke="#666666" points="280.25,-185 130,-185 130,-165.75 280.25,-165.75 280.25,-185"/>
<text text-anchor="middle" x="205.12" y="-171.5" font-family="Helvetica,sans-Serif" font-size="10.00">triggeralgs/TriggerPrimitive.hpp</text>
</a>
</g>
</g>
<!-- Node1&#45;&gt;Node2 -->
<g id="edge1_Node000001_Node000002" class="edge">
<title>Node1&#45;&gt;Node2</title>
<g id="a_edge1_Node000001_Node000002"><a xlink:title=" ">
<path fill="none" stroke="#63b8ff" d="M286.8,-220.64C268.91,-210.95 247.89,-199.56 231.66,-190.76"/>
<polygon fill="#63b8ff" stroke="#63b8ff" points="233.56,-187.8 223.1,-186.12 230.22,-193.96 233.56,-187.8"/>
</a>
</g>
</g>
<!-- Node11 -->
<g id="Node000011" class="node">
<title>Node11</title>
<g id="a_Node000011"><a xlink:href="triggeralgs_2include_2triggeralgs_2Types_8hpp.html" target="_top" xlink:title=" ">
<polygon fill="white" stroke="#666666" points="117.25,-129.75 9,-129.75 9,-110.5 117.25,-110.5 117.25,-129.75"/>
<text text-anchor="middle" x="63.12" y="-116.25" font-family="Helvetica,sans-Serif" font-size="10.00">triggeralgs/Types.hpp</text>
</a>
</g>
</g>
<!-- Node1&#45;&gt;Node11 -->
<g id="edge11_Node000001_Node000011" class="edge">
<title>Node1&#45;&gt;Node11</title>
<g id="a_edge11_Node000001_Node000011"><a xlink:title=" ">
<path fill="none" stroke="#63b8ff" d="M240.81,-228.94C202.32,-220.76 157.25,-207.2 121.12,-185 102.23,-173.39 85.79,-153.84 75.29,-139.42"/>
<polygon fill="#63b8ff" stroke="#63b8ff" points="78.19,-137.46 69.6,-131.26 72.44,-141.46 78.19,-137.46"/>
</a>
</g>
</g>
<!-- Node12 -->
<g id="Node000012" class="node">
<title>Node12</title>
<g id="a_Node000012"><a xlink:title=" ">
<polygon fill="#e0e0e0" stroke="#999999" points="349.75,-185 298.5,-185 298.5,-165.75 349.75,-165.75 349.75,-185"/>
<text text-anchor="middle" x="324.12" y="-171.5" font-family="Helvetica,sans-Serif" font-size="10.00">ostream</text>
</a>
</g>
</g>
<!-- Node1&#45;&gt;Node12 -->
<g id="edge13_Node000001_Node000012" class="edge">
<title>Node1&#45;&gt;Node12</title>
<g id="a_edge13_Node000001_Node000012"><a xlink:title=" ">
<path fill="none" stroke="#63b8ff" d="M324.12,-220.82C324.12,-213.15 324.12,-204.39 324.12,-196.7"/>
<polygon fill="#63b8ff" stroke="#63b8ff" points="327.63,-196.96 324.13,-186.96 320.63,-196.96 327.63,-196.96"/>
</a>
</g>
</g>
<!-- Node13 -->
<g id="Node000013" class="node">
<title>Node13</title>
<g id="a_Node000013"><a xlink:title=" ">
<polygon fill="#e0e0e0" stroke="#999999" points="450.5,-185 367.75,-185 367.75,-165.75 450.5,-165.75 450.5,-185"/>
<text text-anchor="middle" x="409.12" y="-171.5" font-family="Helvetica,sans-Serif" font-size="10.00">unordered_map</text>
</a>
</g>
</g>
<!-- Node1&#45;&gt;Node13 -->
<g id="edge14_Node000001_Node000013" class="edge">
<title>Node1&#45;&gt;Node13</title>
<g id="a_edge14_Node000001_Node000013"><a xlink:title=" ">
<path fill="none" stroke="#63b8ff" d="M350.55,-220.82C362.62,-211.67 376.7,-200.98 388.04,-192.38"/>
<polygon fill="#63b8ff" stroke="#63b8ff" points="390.12,-195.19 395.97,-186.36 385.88,-189.62 390.12,-195.19"/>
</a>
</g>
</g>
<!-- Node14 -->
<g id="Node000014" class="node">
<title>Node14</title>
<g id="a_Node000014"><a xlink:title=" ">
<polygon fill="#e0e0e0" stroke="#999999" points="511.62,-185 468.62,-185 468.62,-165.75 511.62,-165.75 511.62,-185"/>
<text text-anchor="middle" x="490.12" y="-171.5" font-family="Helvetica,sans-Serif" font-size="10.00">vector</text>
</a>
</g>
</g>
<!-- Node1&#45;&gt;Node14 -->
<g id="edge15_Node000001_Node000014" class="edge">
<title>Node1&#45;&gt;Node14</title>
<g id="a_edge15_Node000001_Node000014"><a xlink:title=" ">
<path fill="none" stroke="#63b8ff" d="M376.19,-220.64C402.83,-210.29 434.43,-198.02 457.58,-189.02"/>
<polygon fill="#63b8ff" stroke="#63b8ff" points="458.75,-192.32 466.8,-185.44 456.21,-185.8 458.75,-192.32"/>
</a>
</g>
</g>
<!-- Node3 -->
<g id="Node000003" class="node">
<title>Node3</title>
<g id="a_Node000003"><a xlink:href="trgdataformats_2include_2trgdataformats_2TriggerPrimitive_8hpp.html" target="_top" xlink:title=" ">
<polygon fill="white" stroke="#666666" points="303.25,-129.75 135,-129.75 135,-110.5 303.25,-110.5 303.25,-129.75"/>
<text text-anchor="middle" x="219.12" y="-116.25" font-family="Helvetica,sans-Serif" font-size="10.00">trgdataformats/TriggerPrimitive.hpp</text>
</a>
</g>
</g>
<!-- Node2&#45;&gt;Node3 -->
<g id="edge2_Node000002_Node000003" class="edge">
<title>Node2&#45;&gt;Node3</title>
<g id="a_edge2_Node000002_Node000003"><a xlink:title=" ">
<path fill="none" stroke="#63b8ff" d="M207.44,-165.58C209.19,-158.92 211.67,-149.49 213.89,-141.03"/>
<polygon fill="#63b8ff" stroke="#63b8ff" points="217.22,-142.13 216.38,-131.57 210.45,-140.35 217.22,-142.13"/>
</a>
</g>
</g>
<!-- Node4 -->
<g id="Node000004" class="node">
<title>Node4</title>
<g id="a_Node000004"><a xlink:href="trgdataformats_2include_2trgdataformats_2Types_8hpp.html" target="_top" xlink:title=" ">
<polygon fill="white" stroke="#666666" points="126.25,-74.5 0,-74.5 0,-55.25 126.25,-55.25 126.25,-74.5"/>
<text text-anchor="middle" x="63.12" y="-61" font-family="Helvetica,sans-Serif" font-size="10.00">trgdataformats/Types.hpp</text>
</a>
</g>
</g>
<!-- Node3&#45;&gt;Node4 -->
<g id="edge3_Node000003_Node000004" class="edge">
<title>Node3&#45;&gt;Node4</title>
<g id="a_edge3_Node000003_Node000004"><a xlink:title=" ">
<path fill="none" stroke="#63b8ff" d="M192.66,-110.09C167.34,-101.45 128.89,-88.32 100.46,-78.62"/>
<polygon fill="#63b8ff" stroke="#63b8ff" points="101.75,-75.36 91.15,-75.44 99.48,-81.98 101.75,-75.36"/>
</a>
</g>
</g>
<!-- Node5 -->
<g id="Node000005" class="node">
<title>Node5</title>
<g id="a_Node000005"><a xlink:title=" ">
<polygon fill="#e0e0e0" stroke="#999999" points="160.75,-19.25 115.5,-19.25 115.5,0 160.75,0 160.75,-19.25"/>
<text text-anchor="middle" x="138.12" y="-5.75" font-family="Helvetica,sans-Serif" font-size="10.00">cstdint</text>
</a>
</g>
</g>
<!-- Node3&#45;&gt;Node5 -->
<g id="edge8_Node000003_Node000005" class="edge">
<title>Node3&#45;&gt;Node5</title>
<g id="a_edge8_Node000003_Node000005"><a xlink:title=" ">
<path fill="none" stroke="#63b8ff" d="M207.98,-110.01C198.04,-101.51 183.51,-88.13 173.12,-74.5 162.46,-60.5 153.04,-42.83 146.67,-29.63"/>
<polygon fill="#63b8ff" stroke="#63b8ff" points="149.93,-28.34 142.54,-20.76 143.59,-31.3 149.93,-28.34"/>
</a>
</g>
</g>
<!-- Node7 -->
<g id="Node000007" class="node">
<title>Node7</title>
<g id="a_Node000007"><a xlink:title=" ">
<polygon fill="#e0e0e0" stroke="#999999" points="222.12,-74.5 182.12,-74.5 182.12,-55.25 222.12,-55.25 222.12,-74.5"/>
<text text-anchor="middle" x="202.12" y="-61" font-family="Helvetica,sans-Serif" font-size="10.00">bitset</text>
</a>
</g>
</g>
<!-- Node3&#45;&gt;Node7 -->
<g id="edge6_Node000003_Node000007" class="edge">
<title>Node3&#45;&gt;Node7</title>
<g id="a_edge6_Node000003_Node000007"><a xlink:title=" ">
<path fill="none" stroke="#63b8ff" d="M216.32,-110.33C214.19,-103.67 211.18,-94.24 208.48,-85.78"/>
<polygon fill="#63b8ff" stroke="#63b8ff" points="211.83,-84.76 205.45,-76.3 205.16,-86.89 211.83,-84.76"/>
</a>
</g>
</g>
<!-- Node8 -->
<g id="Node000008" class="node">
<title>Node8</title>
<g id="a_Node000008"><a xlink:title=" ">
<polygon fill="#e0e0e0" stroke="#999999" points="288.25,-74.5 240,-74.5 240,-55.25 288.25,-55.25 288.25,-74.5"/>
<text text-anchor="middle" x="264.12" y="-61" font-family="Helvetica,sans-Serif" font-size="10.00">cstddef</text>
</a>
</g>
</g>
<!-- Node3&#45;&gt;Node8 -->
<g id="edge7_Node000003_Node000008" class="edge">
<title>Node3&#45;&gt;Node8</title>
<g id="a_edge7_Node000003_Node000008"><a xlink:title=" ">
<path fill="none" stroke="#63b8ff" d="M226.56,-110.33C232.71,-103.05 241.64,-92.48 249.25,-83.48"/>
<polygon fill="#63b8ff" stroke="#63b8ff" points="251.77,-85.91 255.56,-76.02 246.43,-81.39 251.77,-85.91"/>
</a>
</g>
</g>
<!-- Node9 -->
<g id="Node000009" class="node">
<title>Node9</title>
<g id="a_Node000009"><a xlink:title=" ">
<polygon fill="#e0e0e0" stroke="#999999" points="359.88,-74.5 306.38,-74.5 306.38,-55.25 359.88,-55.25 359.88,-74.5"/>
<text text-anchor="middle" x="333.12" y="-61" font-family="Helvetica,sans-Serif" font-size="10.00">iostream</text>
</a>
</g>
</g>
<!-- Node3&#45;&gt;Node9 -->
<g id="edge9_Node000003_Node000009" class="edge">
<title>Node3&#45;&gt;Node9</title>
<g id="a_edge9_Node000003_Node000009"><a xlink:title=" ">
<path fill="none" stroke="#63b8ff" d="M238.46,-110.09C256.23,-101.79 282.84,-89.36 303.33,-79.79"/>
<polygon fill="#63b8ff" stroke="#63b8ff" points="304.74,-83 312.32,-75.59 301.78,-76.65 304.74,-83"/>
</a>
</g>
</g>
<!-- Node10 -->
<g id="Node000010" class="node">
<title>Node10</title>
<g id="a_Node000010"><a xlink:title=" ">
<polygon fill="#e0e0e0" stroke="#999999" points="438.62,-74.5 377.62,-74.5 377.62,-55.25 438.62,-55.25 438.62,-74.5"/>
<text text-anchor="middle" x="408.12" y="-61" font-family="Helvetica,sans-Serif" font-size="10.00">type_traits</text>
</a>
</g>
</g>
<!-- Node3&#45;&gt;Node10 -->
<g id="edge10_Node000003_Node000010" class="edge">
<title>Node3&#45;&gt;Node10</title>
<g id="a_edge10_Node000003_Node000010"><a xlink:title=" ">
<path fill="none" stroke="#63b8ff" d="M251.19,-110.09C282.93,-101.15 331.68,-87.41 366.42,-77.63"/>
<polygon fill="#63b8ff" stroke="#63b8ff" points="367.03,-81.09 375.71,-75.01 365.13,-74.35 367.03,-81.09"/>
</a>
</g>
</g>
<!-- Node4&#45;&gt;Node5 -->
<g id="edge4_Node000004_Node000005" class="edge">
<title>Node4&#45;&gt;Node5</title>
<g id="a_edge4_Node000004_Node000005"><a xlink:title=" ">
<path fill="none" stroke="#63b8ff" d="M75.85,-54.84C86.84,-47.04 102.97,-35.59 116.06,-26.29"/>
<polygon fill="#63b8ff" stroke="#63b8ff" points="117.98,-29.22 124.11,-20.58 113.93,-23.51 117.98,-29.22"/>
</a>
</g>
</g>
<!-- Node6 -->
<g id="Node000006" class="node">
<title>Node6</title>
<g id="a_Node000006"><a xlink:title=" ">
<polygon fill="#e0e0e0" stroke="#999999" points="82.75,-19.25 43.5,-19.25 43.5,0 82.75,0 82.75,-19.25"/>
<text text-anchor="middle" x="63.12" y="-5.75" font-family="Helvetica,sans-Serif" font-size="10.00">limits</text>
</a>
</g>
</g>
<!-- Node4&#45;&gt;Node6 -->
<g id="edge5_Node000004_Node000006" class="edge">
<title>Node4&#45;&gt;Node6</title>
<g id="a_edge5_Node000004_Node000006"><a xlink:title=" ">
<path fill="none" stroke="#63b8ff" d="M63.12,-55.08C63.12,-48.57 63.12,-39.42 63.12,-31.12"/>
<polygon fill="#63b8ff" stroke="#63b8ff" points="66.63,-31.12 63.13,-21.12 59.63,-31.12 66.63,-31.12"/>
</a>
</g>
</g>
<!-- Node11&#45;&gt;Node4 -->
<g id="edge12_Node000011_Node000004" class="edge">
<title>Node11&#45;&gt;Node4</title>
<g id="a_edge12_Node000011_Node000004"><a xlink:title=" ">
<path fill="none" stroke="#63b8ff" d="M63.12,-110.33C63.12,-103.82 63.12,-94.67 63.12,-86.37"/>
<polygon fill="#63b8ff" stroke="#63b8ff" points="66.63,-86.37 63.13,-76.37 59.63,-86.37 66.63,-86.37"/>
</a>
</g>
</g>
</g>
</svg>
