<?xml version="1.0" encoding="UTF-8" standalone="no"?>
<!DOCTYPE svg PUBLIC "-//W3C//DTD SVG 1.1//EN"
 "http://www.w3.org/Graphics/SVG/1.1/DTD/svg11.dtd">
<!-- Generated by graphviz version 9.0.0 (20230911.1827)
 -->
<!-- Title: /github/workspace/dev_area/build/dfmodules/codegen/include/dfmodules/opmon/TRBuilderData.pb.h Pages: 1 -->
<svg width="378pt" height="228pt"
 viewBox="0.00 0.00 378.00 227.75" xmlns="http://www.w3.org/2000/svg" xmlns:xlink="http://www.w3.org/1999/xlink">
<g id="graph0" class="graph" transform="scale(1 1) rotate(0) translate(4 223.75)">
<title>/github/workspace/dev_area/build/dfmodules/codegen/include/dfmodules/opmon/TRBuilderData.pb.h</title>
<!-- Node1 -->
<g id="Node000001" class="node">
<title>Node1</title>
<g id="a_Node000001"><a xlink:title=" ">
<polygon fill="#999999" stroke="#666666" points="236.62,-219.75 99.12,-219.75 99.12,-166.75 236.62,-166.75 236.62,-219.75"/>
<text text-anchor="start" x="107.12" y="-206.25" font-family="Helvetica,sans-Serif" font-size="10.00">/github/workspace/dev</text>
<text text-anchor="start" x="107.12" y="-195" font-family="Helvetica,sans-Serif" font-size="10.00">_area/build/dfmodules</text>
<text text-anchor="start" x="107.12" y="-183.75" font-family="Helvetica,sans-Serif" font-size="10.00">/codegen/include/dfmodules</text>
<text text-anchor="middle" x="167.88" y="-172.5" font-family="Helvetica,sans-Serif" font-size="10.00">/opmon/TRBuilderData.pb.h</text>
</a>
</g>
</g>
<!-- Node2 -->
<g id="Node000002" class="node">
<title>Node2</title>
<g id="a_Node000002"><a xlink:href="TRBuilderData_8pb_8cc.html" target="_top" xlink:title=" ">
<polygon fill="white" stroke="#666666" points="139.75,-130.75 0,-130.75 0,-77.75 139.75,-77.75 139.75,-130.75"/>
<text text-anchor="start" x="8" y="-117.25" font-family="Helvetica,sans-Serif" font-size="10.00">/github/workspace/dev</text>
<text text-anchor="start" x="8" y="-106" font-family="Helvetica,sans-Serif" font-size="10.00">_area/build/dfmodules</text>
<text text-anchor="start" x="8" y="-94.75" font-family="Helvetica,sans-Serif" font-size="10.00">/codegen/include/dfmodules</text>
<text text-anchor="middle" x="69.88" y="-83.5" font-family="Helvetica,sans-Serif" font-size="10.00">/opmon/TRBuilderData.pb.cc</text>
</a>
</g>
</g>
<!-- Node1&#45;&gt;Node2 -->
<g id="edge1_Node000001_Node000002" class="edge">
<title>Node1&#45;&gt;Node2</title>
<g id="a_edge1_Node000001_Node000002"><a xlink:title=" ">
<path fill="none" stroke="#63b8ff" d="M130.26,-158.86C119.92,-149.68 108.86,-139.86 99.07,-131.17"/>
<polygon fill="#63b8ff" stroke="#63b8ff" points="127.8,-161.36 137.61,-165.38 132.45,-156.12 127.8,-161.36"/>
</a>
</g>
</g>
<!-- Node3 -->
<g id="Node000003" class="node">
<title>Node3</title>
<g id="a_Node000003"><a xlink:href="TriggerRecordBuilderData_8cpp.html" target="_top" xlink:title=" ">
<polygon fill="white" stroke="#666666" points="307.12,-41.75 142.62,-41.75 142.62,0 307.12,0 307.12,-41.75"/>
<text text-anchor="start" x="150.62" y="-28.25" font-family="Helvetica,sans-Serif" font-size="10.00">/github/workspace/dev</text>
<text text-anchor="start" x="150.62" y="-17" font-family="Helvetica,sans-Serif" font-size="10.00">_area/sourcecode/dfmodules</text>
<text text-anchor="middle" x="224.88" y="-5.75" font-family="Helvetica,sans-Serif" font-size="10.00">/src/TriggerRecordBuilderData.cpp</text>
</a>
</g>
</g>
<!-- Node1&#45;&gt;Node3 -->
<g id="edge2_Node000001_Node000003" class="edge">
<title>Node1&#45;&gt;Node3</title>
<g id="a_edge2_Node000001_Node000003"><a xlink:title=" ">
<path fill="none" stroke="#63b8ff" d="M169.97,-155.06C172.25,-132.11 176.99,-102.44 186.88,-77.75 191.98,-65.01 200.35,-52.24 207.94,-42.14"/>
<polygon fill="#63b8ff" stroke="#63b8ff" points="166.5,-154.61 169.12,-164.88 173.47,-155.22 166.5,-154.61"/>
</a>
</g>
</g>
<!-- Node4 -->
<g id="Node000004" class="node">
<title>Node4</title>
<g id="a_Node000004"><a xlink:href="TriggerRecordBuilderData_8hpp.html" target="_top" xlink:title=" ">
<polygon fill="white" stroke="#666666" points="370,-130.75 195.75,-130.75 195.75,-77.75 370,-77.75 370,-130.75"/>
<text text-anchor="start" x="203.75" y="-117.25" font-family="Helvetica,sans-Serif" font-size="10.00">/github/workspace/dev</text>
<text text-anchor="start" x="203.75" y="-106" font-family="Helvetica,sans-Serif" font-size="10.00">_area/sourcecode/dfmodules</text>
<text text-anchor="start" x="203.75" y="-94.75" font-family="Helvetica,sans-Serif" font-size="10.00">/src/dfmodules/TriggerRecordBuilder</text>
<text text-anchor="middle" x="282.88" y="-83.5" font-family="Helvetica,sans-Serif" font-size="10.00">Data.hpp</text>
</a>
</g>
</g>
<!-- Node1&#45;&gt;Node4 -->
<g id="edge3_Node000001_Node000004" class="edge">
<title>Node1&#45;&gt;Node4</title>
<g id="a_edge3_Node000001_Node000004"><a xlink:title=" ">
<path fill="none" stroke="#63b8ff" d="M210.92,-159.68C223.37,-150.27 236.78,-140.12 248.62,-131.17"/>
<polygon fill="#63b8ff" stroke="#63b8ff" points="209.14,-156.65 203.27,-165.47 213.36,-162.23 209.14,-156.65"/>
</a>
</g>
</g>
<!-- Node4&#45;&gt;Node3 -->
<g id="edge4_Node000004_Node000003" class="edge">
<title>Node4&#45;&gt;Node3</title>
<g id="a_edge4_Node000004_Node000003"><a xlink:title=" ">
<path fill="none" stroke="#63b8ff" d="M258,-68.35C251.6,-59.37 244.92,-50 239.25,-42.04"/>
<polygon fill="#63b8ff" stroke="#63b8ff" points="254.99,-70.16 263.64,-76.27 260.69,-66.1 254.99,-70.16"/>
</a>
</g>
</g>
</g>
</svg>
