<?xml version="1.0" encoding="UTF-8" standalone="no"?>
<!DOCTYPE svg PUBLIC "-//W3C//DTD SVG 1.1//EN"
 "http://www.w3.org/Graphics/SVG/1.1/DTD/svg11.dtd">
<!-- Generated by graphviz version 9.0.0 (20230911.1827)
 -->
<!-- Title: /github/workspace/dev_area/sourcecode/triggeralgs/include/triggeralgs/TriggerPrimitiveMaker.hpp Pages: 1 -->
<svg width="1852pt" height="415pt"
 viewBox="0.00 0.00 1851.53 415.00" xmlns="http://www.w3.org/2000/svg" xmlns:xlink="http://www.w3.org/1999/xlink">
<g id="graph0" class="graph" transform="scale(1 1) rotate(0) translate(4 411)">
<title>/github/workspace/dev_area/sourcecode/triggeralgs/include/triggeralgs/TriggerPrimitiveMaker.hpp</title>
<!-- Node1 -->
<g id="Node000001" class="node">
<title>Node1</title>
<g id="a_Node000001"><a xlink:title=" ">
<polygon fill="#999999" stroke="#666666" points="1568.53,-407 1399.53,-407 1399.53,-354 1568.53,-354 1568.53,-407"/>
<text text-anchor="start" x="1407.53" y="-393.5" font-family="Helvetica,sans-Serif" font-size="10.00">/github/workspace/dev</text>
<text text-anchor="start" x="1407.53" y="-382.25" font-family="Helvetica,sans-Serif" font-size="10.00">_area/sourcecode/triggeralgs</text>
<text text-anchor="start" x="1407.53" y="-371" font-family="Helvetica,sans-Serif" font-size="10.00">/include/triggeralgs/TriggerPrimitive</text>
<text text-anchor="middle" x="1484.03" y="-359.75" font-family="Helvetica,sans-Serif" font-size="10.00">Maker.hpp</text>
</a>
</g>
</g>
<!-- Node2 -->
<g id="Node000002" class="node">
<title>Node2</title>
<g id="a_Node000002"><a xlink:href="triggeralgs_2include_2triggeralgs_2Issues_8hpp.html" target="_top" xlink:title=" ">
<polygon fill="white" stroke="#666666" points="433.66,-318 322.41,-318 322.41,-298.75 433.66,-298.75 433.66,-318"/>
<text text-anchor="middle" x="378.03" y="-304.5" font-family="Helvetica,sans-Serif" font-size="10.00">triggeralgs/Issues.hpp</text>
</a>
</g>
</g>
<!-- Node1&#45;&gt;Node2 -->
<g id="edge1_Node000001_Node000002" class="edge">
<title>Node1&#45;&gt;Node2</title>
<g id="a_edge1_Node000001_Node000002"><a xlink:title=" ">
<path fill="none" stroke="#63b8ff" d="M1399.08,-374.11C1186.92,-360.66 637.15,-325.8 445.28,-313.64"/>
<polygon fill="#63b8ff" stroke="#63b8ff" points="445.69,-310.16 435.49,-313.02 445.25,-317.14 445.69,-310.16"/>
</a>
</g>
</g>
<!-- Node15 -->
<g id="Node000015" class="node">
<title>Node15</title>
<g id="a_Node000015"><a xlink:title=" ">
<polygon fill="#e0e0e0" stroke="#999999" points="443.53,-74.5 400.53,-74.5 400.53,-55.25 443.53,-55.25 443.53,-74.5"/>
<text text-anchor="middle" x="422.03" y="-61" font-family="Helvetica,sans-Serif" font-size="10.00">vector</text>
</a>
</g>
</g>
<!-- Node1&#45;&gt;Node15 -->
<g id="edge50_Node000001_Node000015" class="edge">
<title>Node1&#45;&gt;Node15</title>
<g id="a_edge50_Node000001_Node000015"><a xlink:title=" ">
<path fill="none" stroke="#63b8ff" d="M1449.04,-353.74C1437.45,-343.7 1425.4,-331.39 1417.03,-318 1401.33,-292.88 1398.03,-283.74 1398.03,-254.12 1398.03,-254.12 1398.03,-254.12 1398.03,-191.25 1398.03,-154.38 1407.48,-133.96 1379.03,-110.5 1339.82,-78.17 515.49,-80.52 465.03,-74.5 461.77,-74.11 458.39,-73.61 455.02,-73.04"/>
<polygon fill="#63b8ff" stroke="#63b8ff" points="455.76,-69.62 445.29,-71.22 454.47,-76.5 455.76,-69.62"/>
</a>
</g>
</g>
<!-- Node29 -->
<g id="Node000029" class="node">
<title>Node29</title>
<g id="a_Node000029"><a xlink:href="triggeralgs_2include_2triggeralgs_2Logging_8hpp.html" target="_top" xlink:title=" ">
<polygon fill="white" stroke="#666666" points="1542.28,-318 1425.78,-318 1425.78,-298.75 1542.28,-298.75 1542.28,-318"/>
<text text-anchor="middle" x="1484.03" y="-304.5" font-family="Helvetica,sans-Serif" font-size="10.00">triggeralgs/Logging.hpp</text>
</a>
</g>
</g>
<!-- Node1&#45;&gt;Node29 -->
<g id="edge39_Node000001_Node000029" class="edge">
<title>Node1&#45;&gt;Node29</title>
<g id="a_edge39_Node000001_Node000029"><a xlink:title=" ">
<path fill="none" stroke="#63b8ff" d="M1484.03,-353.79C1484.03,-345.87 1484.03,-337.27 1484.03,-329.77"/>
<polygon fill="#63b8ff" stroke="#63b8ff" points="1487.53,-330 1484.03,-320 1480.53,-330 1487.53,-330"/>
</a>
</g>
</g>
<!-- Node30 -->
<g id="Node000030" class="node">
<title>Node30</title>
<g id="a_Node000030"><a xlink:href="trgdataformats_2include_2trgdataformats_2TriggerPrimitive_8hpp.html" target="_top" xlink:title=" ">
<polygon fill="white" stroke="#666666" points="1728.16,-318 1559.91,-318 1559.91,-298.75 1728.16,-298.75 1728.16,-318"/>
<text text-anchor="middle" x="1644.03" y="-304.5" font-family="Helvetica,sans-Serif" font-size="10.00">trgdataformats/TriggerPrimitive.hpp</text>
</a>
</g>
</g>
<!-- Node1&#45;&gt;Node30 -->
<g id="edge40_Node000001_Node000030" class="edge">
<title>Node1&#45;&gt;Node30</title>
<g id="a_edge40_Node000001_Node000030"><a xlink:title=" ">
<path fill="none" stroke="#63b8ff" d="M1543.15,-353.59C1566.89,-343.18 1593.26,-331.63 1613.08,-322.94"/>
<polygon fill="#63b8ff" stroke="#63b8ff" points="1614.23,-326.26 1621.98,-319.04 1611.42,-319.85 1614.23,-326.26"/>
</a>
</g>
</g>
<!-- Node37 -->
<g id="Node000037" class="node">
<title>Node37</title>
<g id="a_Node000037"><a xlink:title=" ">
<polygon fill="#e0e0e0" stroke="#999999" points="1843.53,-318 1746.53,-318 1746.53,-298.75 1843.53,-298.75 1843.53,-318"/>
<text text-anchor="middle" x="1795.03" y="-304.5" font-family="Helvetica,sans-Serif" font-size="10.00">nlohmann/json.hpp</text>
</a>
</g>
</g>
<!-- Node1&#45;&gt;Node37 -->
<g id="edge49_Node000001_Node000037" class="edge">
<title>Node1&#45;&gt;Node37</title>
<g id="a_edge49_Node000001_Node000037"><a xlink:title=" ">
<path fill="none" stroke="#63b8ff" d="M1569.01,-360.34C1624.84,-347.75 1696.05,-331.69 1743.47,-321"/>
<polygon fill="#63b8ff" stroke="#63b8ff" points="1744.23,-324.42 1753.21,-318.8 1742.69,-317.59 1744.23,-324.42"/>
</a>
</g>
</g>
<!-- Node3 -->
<g id="Node000003" class="node">
<title>Node3</title>
<g id="a_Node000003"><a xlink:href="Issue_8hpp.html" target="_top" xlink:title=" ">
<polygon fill="white" stroke="#666666" points="415.28,-262.75 340.78,-262.75 340.78,-243.5 415.28,-243.5 415.28,-262.75"/>
<text text-anchor="middle" x="378.03" y="-249.25" font-family="Helvetica,sans-Serif" font-size="10.00">ers/Issue.hpp</text>
</a>
</g>
</g>
<!-- Node2&#45;&gt;Node3 -->
<g id="edge2_Node000002_Node000003" class="edge">
<title>Node2&#45;&gt;Node3</title>
<g id="a_edge2_Node000002_Node000003"><a xlink:title=" ">
<path fill="none" stroke="#63b8ff" d="M378.03,-298.58C378.03,-292.07 378.03,-282.92 378.03,-274.62"/>
<polygon fill="#63b8ff" stroke="#63b8ff" points="381.53,-274.62 378.03,-264.62 374.53,-274.62 381.53,-274.62"/>
</a>
</g>
</g>
<!-- Node8 -->
<g id="Node000008" class="node">
<title>Node8</title>
<g id="a_Node000008"><a xlink:title=" ">
<polygon fill="#e0e0e0" stroke="#999999" points="231.03,-74.5 191.03,-74.5 191.03,-55.25 231.03,-55.25 231.03,-74.5"/>
<text text-anchor="middle" x="211.03" y="-61" font-family="Helvetica,sans-Serif" font-size="10.00">string</text>
</a>
</g>
</g>
<!-- Node2&#45;&gt;Node8 -->
<g id="edge38_Node000002_Node000008" class="edge">
<title>Node2&#45;&gt;Node8</title>
<g id="a_edge38_Node000002_Node000008"><a xlink:title=" ">
<path fill="none" stroke="#63b8ff" d="M322.08,-300.64C227.95,-288.02 44.39,-257.51 6.03,-207.5 -14.98,-180.11 26.92,-116.61 34.03,-110.5 75.23,-75.12 140.58,-67.11 179.29,-65.68"/>
<polygon fill="#63b8ff" stroke="#63b8ff" points="179.2,-69.18 189.11,-65.46 179.04,-62.19 179.2,-69.18"/>
</a>
</g>
</g>
<!-- Node4 -->
<g id="Node000004" class="node">
<title>Node4</title>
<g id="a_Node000004"><a xlink:title=" ">
<polygon fill="#e0e0e0" stroke="#999999" points="492.66,-201.88 447.41,-201.88 447.41,-182.62 492.66,-182.62 492.66,-201.88"/>
<text text-anchor="middle" x="470.03" y="-188.38" font-family="Helvetica,sans-Serif" font-size="10.00">math.h</text>
</a>
</g>
</g>
<!-- Node3&#45;&gt;Node4 -->
<g id="edge3_Node000003_Node000004" class="edge">
<title>Node3&#45;&gt;Node4</title>
<g id="a_edge3_Node000003_Node000004"><a xlink:title=" ">
<path fill="none" stroke="#63b8ff" d="M392,-243.18C406.46,-233.93 429.29,-219.32 446.53,-208.29"/>
<polygon fill="#63b8ff" stroke="#63b8ff" points="448.11,-211.43 454.65,-203.09 444.34,-205.53 448.11,-211.43"/>
</a>
</g>
</g>
<!-- Node5 -->
<g id="Node000005" class="node">
<title>Node5</title>
<g id="a_Node000005"><a xlink:title=" ">
<polygon fill="#e0e0e0" stroke="#999999" points="555.28,-201.88 510.78,-201.88 510.78,-182.62 555.28,-182.62 555.28,-201.88"/>
<text text-anchor="middle" x="533.03" y="-188.38" font-family="Helvetica,sans-Serif" font-size="10.00">stdio.h</text>
</a>
</g>
</g>
<!-- Node3&#45;&gt;Node5 -->
<g id="edge4_Node000003_Node000005" class="edge">
<title>Node3&#45;&gt;Node5</title>
<g id="a_edge4_Node000003_Node000005"><a xlink:title=" ">
<path fill="none" stroke="#63b8ff" d="M405.38,-243.04C430.67,-234.45 469.21,-220.92 502.03,-207.5 502.65,-207.25 503.27,-206.99 503.9,-206.73"/>
<polygon fill="#63b8ff" stroke="#63b8ff" points="504.98,-210.07 512.74,-202.86 502.17,-203.66 504.98,-210.07"/>
</a>
</g>
</g>
<!-- Node6 -->
<g id="Node000006" class="node">
<title>Node6</title>
<g id="a_Node000006"><a xlink:title=" ">
<polygon fill="#e0e0e0" stroke="#999999" points="620.78,-201.88 573.28,-201.88 573.28,-182.62 620.78,-182.62 620.78,-201.88"/>
<text text-anchor="middle" x="597.03" y="-188.38" font-family="Helvetica,sans-Serif" font-size="10.00">string.h</text>
</a>
</g>
</g>
<!-- Node3&#45;&gt;Node6 -->
<g id="edge5_Node000003_Node000006" class="edge">
<title>Node3&#45;&gt;Node6</title>
<g id="a_edge5_Node000003_Node000006"><a xlink:title=" ">
<path fill="none" stroke="#63b8ff" d="M415.62,-245.09C453.57,-237.53 513.62,-224.29 564.03,-207.5 565.01,-207.17 566.01,-206.83 567.01,-206.47"/>
<polygon fill="#63b8ff" stroke="#63b8ff" points="568.27,-209.73 576.29,-202.81 565.71,-203.22 568.27,-209.73"/>
</a>
</g>
</g>
<!-- Node7 -->
<g id="Node000007" class="node">
<title>Node7</title>
<g id="a_Node000007"><a xlink:title=" ">
<polygon fill="#e0e0e0" stroke="#999999" points="415.41,-135.38 380.66,-135.38 380.66,-116.12 415.41,-116.12 415.41,-135.38"/>
<text text-anchor="middle" x="398.03" y="-121.88" font-family="Helvetica,sans-Serif" font-size="10.00">map</text>
</a>
</g>
</g>
<!-- Node3&#45;&gt;Node7 -->
<g id="edge6_Node000003_Node000007" class="edge">
<title>Node3&#45;&gt;Node7</title>
<g id="a_edge6_Node000003_Node000007"><a xlink:title=" ">
<path fill="none" stroke="#63b8ff" d="M384.08,-243.02C389.47,-234.32 396.97,-220.62 400.03,-207.5 404.75,-187.26 403.33,-163.39 401.3,-146.87"/>
<polygon fill="#63b8ff" stroke="#63b8ff" points="404.82,-146.76 399.94,-137.36 397.9,-147.76 404.82,-146.76"/>
</a>
</g>
</g>
<!-- Node3&#45;&gt;Node8 -->
<g id="edge7_Node000003_Node000008" class="edge">
<title>Node3&#45;&gt;Node8</title>
<g id="a_edge7_Node000003_Node000008"><a xlink:title=" ">
<path fill="none" stroke="#63b8ff" d="M340.61,-248.55C291.71,-243.01 210.18,-230.51 192.03,-207.5 163.83,-171.73 185.86,-114.41 200.57,-84.86"/>
<polygon fill="#63b8ff" stroke="#63b8ff" points="203.66,-86.49 205.2,-76.01 197.46,-83.24 203.66,-86.49"/>
</a>
</g>
</g>
<!-- Node9 -->
<g id="Node000009" class="node">
<title>Node9</title>
<g id="a_Node000009"><a xlink:title=" ">
<polygon fill="#e0e0e0" stroke="#999999" points="1033.78,-19.25 980.28,-19.25 980.28,0 1033.78,0 1033.78,-19.25"/>
<text text-anchor="middle" x="1007.03" y="-5.75" font-family="Helvetica,sans-Serif" font-size="10.00">iostream</text>
</a>
</g>
</g>
<!-- Node3&#45;&gt;Node9 -->
<g id="edge8_Node000003_Node000009" class="edge">
<title>Node3&#45;&gt;Node9</title>
<g id="a_edge8_Node000003_Node000009"><a xlink:title=" ">
<path fill="none" stroke="#63b8ff" d="M415.77,-250.98C590.69,-245.27 1316.71,-217.09 1379.03,-141 1470.66,-29.13 1157.59,-13.11 1045.47,-10.93"/>
<polygon fill="#63b8ff" stroke="#63b8ff" points="1045.62,-7.43 1035.56,-10.77 1045.5,-14.43 1045.62,-7.43"/>
</a>
</g>
</g>
<!-- Node10 -->
<g id="Node000010" class="node">
<title>Node10</title>
<g id="a_Node000010"><a xlink:title=" ">
<polygon fill="#e0e0e0" stroke="#999999" points="76.66,-201.88 25.41,-201.88 25.41,-182.62 76.66,-182.62 76.66,-201.88"/>
<text text-anchor="middle" x="51.03" y="-188.38" font-family="Helvetica,sans-Serif" font-size="10.00">sstream</text>
</a>
</g>
</g>
<!-- Node3&#45;&gt;Node10 -->
<g id="edge9_Node000003_Node000010" class="edge">
<title>Node3&#45;&gt;Node10</title>
<g id="a_edge9_Node000003_Node000010"><a xlink:title=" ">
<path fill="none" stroke="#63b8ff" d="M340.57,-249.23C284.43,-244.27 175.51,-232.18 86.03,-207.5 84.64,-207.12 83.24,-206.7 81.82,-206.24"/>
<polygon fill="#63b8ff" stroke="#63b8ff" points="83.13,-202.99 72.53,-202.88 80.74,-209.57 83.13,-202.99"/>
</a>
</g>
</g>
<!-- Node11 -->
<g id="Node000011" class="node">
<title>Node11</title>
<g id="a_Node000011"><a xlink:title=" ">
<polygon fill="#e0e0e0" stroke="#999999" points="145.28,-201.88 94.78,-201.88 94.78,-182.62 145.28,-182.62 145.28,-201.88"/>
<text text-anchor="middle" x="120.03" y="-188.38" font-family="Helvetica,sans-Serif" font-size="10.00">memory</text>
</a>
</g>
</g>
<!-- Node3&#45;&gt;Node11 -->
<g id="edge10_Node000003_Node000011" class="edge">
<title>Node3&#45;&gt;Node11</title>
<g id="a_edge10_Node000003_Node000011"><a xlink:title=" ">
<path fill="none" stroke="#63b8ff" d="M340.42,-246.22C296.47,-238.92 221.76,-225.24 159.03,-207.5 157.3,-207.01 155.54,-206.48 153.76,-205.92"/>
<polygon fill="#63b8ff" stroke="#63b8ff" points="154.97,-202.64 144.37,-202.75 152.73,-209.27 154.97,-202.64"/>
</a>
</g>
</g>
<!-- Node12 -->
<g id="Node000012" class="node">
<title>Node12</title>
<g id="a_Node000012"><a xlink:title=" ">
<polygon fill="#e0e0e0" stroke="#999999" points="88.66,-135.38 43.41,-135.38 43.41,-116.12 88.66,-116.12 88.66,-135.38"/>
<text text-anchor="middle" x="66.03" y="-121.88" font-family="Helvetica,sans-Serif" font-size="10.00">chrono</text>
</a>
</g>
</g>
<!-- Node3&#45;&gt;Node12 -->
<g id="edge11_Node000003_Node000012" class="edge">
<title>Node3&#45;&gt;Node12</title>
<g id="a_edge11_Node000003_Node000012"><a xlink:title=" ">
<path fill="none" stroke="#63b8ff" d="M340.32,-250.26C251.94,-245.49 37.29,-231.54 16.03,-207.5 -1.87,-187.25 23.64,-159.83 44.32,-142.72"/>
<polygon fill="#63b8ff" stroke="#63b8ff" points="46.42,-145.52 52.12,-136.59 42.09,-140.02 46.42,-145.52"/>
</a>
</g>
</g>
<!-- Node13 -->
<g id="Node000013" class="node">
<title>Node13</title>
<g id="a_Node000013"><a xlink:title=" ">
<polygon fill="#e0e0e0" stroke="#999999" points="229.43,-201.88 200.63,-201.88 200.63,-182.62 229.43,-182.62 229.43,-201.88"/>
<text text-anchor="middle" x="215.03" y="-188.38" font-family="Helvetica,sans-Serif" font-size="10.00">list</text>
</a>
</g>
</g>
<!-- Node3&#45;&gt;Node13 -->
<g id="edge12_Node000003_Node000013" class="edge">
<title>Node3&#45;&gt;Node13</title>
<g id="a_edge12_Node000003_Node000013"><a xlink:title=" ">
<path fill="none" stroke="#63b8ff" d="M345.89,-243C318.22,-234.79 277.43,-221.84 243.03,-207.5 241.92,-207.04 240.8,-206.55 239.67,-206.04"/>
<polygon fill="#63b8ff" stroke="#63b8ff" points="241.55,-203.06 231.02,-201.88 238.51,-209.37 241.55,-203.06"/>
</a>
</g>
</g>
<!-- Node14 -->
<g id="Node000014" class="node">
<title>Node14</title>
<g id="a_Node000014"><a xlink:href="IssueFactory_8hpp.html" target="_top" xlink:title=" ">
<polygon fill="white" stroke="#666666" points="391.41,-201.88 284.66,-201.88 284.66,-182.62 391.41,-182.62 391.41,-201.88"/>
<text text-anchor="middle" x="338.03" y="-188.38" font-family="Helvetica,sans-Serif" font-size="10.00">ers/IssueFactory.hpp</text>
</a>
</g>
</g>
<!-- Node3&#45;&gt;Node14 -->
<g id="edge13_Node000003_Node000014" class="edge">
<title>Node3&#45;&gt;Node14</title>
<g id="a_edge13_Node000003_Node000014"><a xlink:title=" ">
<path fill="none" stroke="#63b8ff" d="M371.96,-243.18C366.32,-234.88 357.75,-222.27 350.63,-211.8"/>
<polygon fill="#63b8ff" stroke="#63b8ff" points="353.53,-209.83 345.01,-203.53 347.74,-213.77 353.53,-209.83"/>
</a>
</g>
</g>
<!-- Node16 -->
<g id="Node000016" class="node">
<title>Node16</title>
<g id="a_Node000016"><a xlink:href="Severity_8hpp.html" target="_top" xlink:title=" ">
<polygon fill="white" stroke="#666666" points="324.91,-135.38 239.16,-135.38 239.16,-116.12 324.91,-116.12 324.91,-135.38"/>
<text text-anchor="middle" x="282.03" y="-121.88" font-family="Helvetica,sans-Serif" font-size="10.00">ers/Severity.hpp</text>
</a>
</g>
</g>
<!-- Node3&#45;&gt;Node16 -->
<g id="edge30_Node000003_Node000016" class="edge">
<title>Node3&#45;&gt;Node16</title>
<g id="a_edge30_Node000003_Node000016"><a xlink:title=" ">
<path fill="none" stroke="#63b8ff" d="M340.53,-246.21C317.69,-240.47 290.26,-229.26 276.03,-207.5 264.15,-189.34 268.78,-163.72 274.33,-146.24"/>
<polygon fill="#63b8ff" stroke="#63b8ff" points="277.54,-147.65 277.61,-137.05 270.95,-145.29 277.54,-147.65"/>
</a>
</g>
</g>
<!-- Node17 -->
<g id="Node000017" class="node">
<title>Node17</title>
<g id="a_Node000017"><a xlink:href="LocalContext_8hpp.html" target="_top" xlink:title=" ">
<polygon fill="white" stroke="#666666" points="746.78,-201.88 639.28,-201.88 639.28,-182.62 746.78,-182.62 746.78,-201.88"/>
<text text-anchor="middle" x="693.03" y="-188.38" font-family="Helvetica,sans-Serif" font-size="10.00">ers/LocalContext.hpp</text>
</a>
</g>
</g>
<!-- Node3&#45;&gt;Node17 -->
<g id="edge22_Node000003_Node000017" class="edge">
<title>Node3&#45;&gt;Node17</title>
<g id="a_edge22_Node000003_Node000017"><a xlink:title=" ">
<path fill="none" stroke="#63b8ff" d="M415.71,-246.02C465.06,-237.9 554.24,-222.77 630.03,-207.5 634.3,-206.64 638.72,-205.71 643.15,-204.76"/>
<polygon fill="#63b8ff" stroke="#63b8ff" points="643.61,-208.24 652.63,-202.68 642.11,-201.4 643.61,-208.24"/>
</a>
</g>
</g>
<!-- Node22 -->
<g id="Node000022" class="node">
<title>Node22</title>
<g id="a_Node000022"><a xlink:href="IssueDeclarationMacro_8hpp.html" target="_top" xlink:title=" ">
<polygon fill="white" stroke="#666666" points="1038.91,-207.5 899.16,-207.5 899.16,-177 1038.91,-177 1038.91,-207.5"/>
<text text-anchor="start" x="907.16" y="-194" font-family="Helvetica,sans-Serif" font-size="10.00">ers/internal/IssueDeclaration</text>
<text text-anchor="middle" x="969.03" y="-182.75" font-family="Helvetica,sans-Serif" font-size="10.00">Macro.hpp</text>
</a>
</g>
</g>
<!-- Node3&#45;&gt;Node22 -->
<g id="edge31_Node000003_Node000022" class="edge">
<title>Node3&#45;&gt;Node22</title>
<g id="a_edge31_Node000003_Node000022"><a xlink:title=" ">
<path fill="none" stroke="#63b8ff" d="M415.45,-248.4C509.54,-239.02 757.7,-214.3 887.42,-201.38"/>
<polygon fill="#63b8ff" stroke="#63b8ff" points="887.72,-204.87 897.33,-200.39 887.03,-197.9 887.72,-204.87"/>
</a>
</g>
</g>
<!-- Node14&#45;&gt;Node7 -->
<g id="edge17_Node000014_Node000007" class="edge">
<title>Node14&#45;&gt;Node7</title>
<g id="a_edge17_Node000014_Node000007"><a xlink:title=" ">
<path fill="none" stroke="#63b8ff" d="M346.37,-182.28C355.6,-172.37 370.67,-156.16 382.16,-143.81"/>
<polygon fill="#63b8ff" stroke="#63b8ff" points="384.48,-146.46 388.73,-136.75 379.35,-141.69 384.48,-146.46"/>
</a>
</g>
</g>
<!-- Node14&#45;&gt;Node8 -->
<g id="edge15_Node000014_Node000008" class="edge">
<title>Node14&#45;&gt;Node8</title>
<g id="a_edge15_Node000014_Node000008"><a xlink:title=" ">
<path fill="none" stroke="#63b8ff" d="M299.08,-182.19C275.82,-174.83 247.5,-162.11 230.03,-141 217.18,-125.48 212.86,-102.39 211.49,-85.92"/>
<polygon fill="#63b8ff" stroke="#63b8ff" points="215.01,-86.16 211,-76.35 208.02,-86.51 215.01,-86.16"/>
</a>
</g>
</g>
<!-- Node14&#45;&gt;Node12 -->
<g id="edge14_Node000014_Node000012" class="edge">
<title>Node14&#45;&gt;Node12</title>
<g id="a_edge14_Node000014_Node000012"><a xlink:title=" ">
<path fill="none" stroke="#63b8ff" d="M299.64,-182.15C246.38,-169.52 150.92,-146.88 100.08,-134.82"/>
<polygon fill="#63b8ff" stroke="#63b8ff" points="101.06,-131.46 90.52,-132.56 99.45,-138.27 101.06,-131.46"/>
</a>
</g>
</g>
<!-- Node14&#45;&gt;Node15 -->
<g id="edge16_Node000014_Node000015" class="edge">
<title>Node14&#45;&gt;Node15</title>
<g id="a_edge16_Node000014_Node000015"><a xlink:title=" ">
<path fill="none" stroke="#63b8ff" d="M340.29,-182.6C344.64,-167.11 355.23,-134.02 372.03,-110.5 379.74,-99.71 390.5,-89.68 400.06,-81.87"/>
<polygon fill="#63b8ff" stroke="#63b8ff" points="402.13,-84.69 407.87,-75.79 397.83,-79.17 402.13,-84.69"/>
</a>
</g>
</g>
<!-- Node14&#45;&gt;Node16 -->
<g id="edge18_Node000014_Node000016" class="edge">
<title>Node14&#45;&gt;Node16</title>
<g id="a_edge18_Node000014_Node000016"><a xlink:title=" ">
<path fill="none" stroke="#63b8ff" d="M330.24,-182.28C321.72,-172.46 307.84,-156.48 297.16,-144.17"/>
<polygon fill="#63b8ff" stroke="#63b8ff" points="299.94,-142.04 290.74,-136.79 294.66,-146.63 299.94,-142.04"/>
</a>
</g>
</g>
<!-- Node16&#45;&gt;Node8 -->
<g id="edge19_Node000016_Node000008" class="edge">
<title>Node16&#45;&gt;Node8</title>
<g id="a_edge19_Node000016_Node000008"><a xlink:title=" ">
<path fill="none" stroke="#63b8ff" d="M271.25,-115.81C260.51,-106.9 243.78,-93.03 230.68,-82.17"/>
<polygon fill="#63b8ff" stroke="#63b8ff" points="233.01,-79.56 223.08,-75.87 228.54,-84.94 233.01,-79.56"/>
</a>
</g>
</g>
<!-- Node16&#45;&gt;Node9 -->
<g id="edge21_Node000016_Node000009" class="edge">
<title>Node16&#45;&gt;Node9</title>
<g id="a_edge21_Node000016_Node000009"><a xlink:title=" ">
<path fill="none" stroke="#63b8ff" d="M292.25,-115.7C310.54,-100.12 350.77,-68.59 391.03,-55.25 499.03,-19.46 851.27,-12.34 968.61,-10.95"/>
<polygon fill="#63b8ff" stroke="#63b8ff" points="968.37,-14.46 978.33,-10.85 968.3,-7.46 968.37,-14.46"/>
</a>
</g>
</g>
<!-- Node16&#45;&gt;Node15 -->
<g id="edge20_Node000016_Node000015" class="edge">
<title>Node16&#45;&gt;Node15</title>
<g id="a_edge20_Node000016_Node000015"><a xlink:title=" ">
<path fill="none" stroke="#63b8ff" d="M303.6,-115.68C326.79,-105.93 363.89,-90.33 390.38,-79.18"/>
<polygon fill="#63b8ff" stroke="#63b8ff" points="391.41,-82.55 399.27,-75.45 388.7,-76.1 391.41,-82.55"/>
</a>
</g>
</g>
<!-- Node18 -->
<g id="Node000018" class="node">
<title>Node18</title>
<g id="a_Node000018"><a xlink:title=" ">
<polygon fill="#e0e0e0" stroke="#999999" points="599.41,-135.38 534.66,-135.38 534.66,-116.12 599.41,-116.12 599.41,-135.38"/>
<text text-anchor="middle" x="567.03" y="-121.88" font-family="Helvetica,sans-Serif" font-size="10.00">sys/types.h</text>
</a>
</g>
</g>
<!-- Node17&#45;&gt;Node18 -->
<g id="edge23_Node000017_Node000018" class="edge">
<title>Node17&#45;&gt;Node18</title>
<g id="a_edge23_Node000017_Node000018"><a xlink:title=" ">
<path fill="none" stroke="#63b8ff" d="M675.24,-182.15C654.33,-171.44 619.35,-153.53 594.84,-140.99"/>
<polygon fill="#63b8ff" stroke="#63b8ff" points="596.57,-137.94 586.07,-136.5 593.38,-144.17 596.57,-137.94"/>
</a>
</g>
</g>
<!-- Node19 -->
<g id="Node000019" class="node">
<title>Node19</title>
<g id="a_Node000019"><a xlink:title=" ">
<polygon fill="#e0e0e0" stroke="#999999" points="666.91,-135.38 617.16,-135.38 617.16,-116.12 666.91,-116.12 666.91,-135.38"/>
<text text-anchor="middle" x="642.03" y="-121.88" font-family="Helvetica,sans-Serif" font-size="10.00">unistd.h</text>
</a>
</g>
</g>
<!-- Node17&#45;&gt;Node19 -->
<g id="edge24_Node000017_Node000019" class="edge">
<title>Node17&#45;&gt;Node19</title>
<g id="a_edge24_Node000017_Node000019"><a xlink:title=" ">
<path fill="none" stroke="#63b8ff" d="M685.94,-182.28C678.25,-172.56 665.78,-156.79 656.09,-144.53"/>
<polygon fill="#63b8ff" stroke="#63b8ff" points="658.95,-142.5 650,-136.83 653.46,-146.84 658.95,-142.5"/>
</a>
</g>
</g>
<!-- Node20 -->
<g id="Node000020" class="node">
<title>Node20</title>
<g id="a_Node000020"><a xlink:href="Context_8hpp.html" target="_top" xlink:title=" ">
<polygon fill="white" stroke="#666666" points="516.78,-135.38 433.28,-135.38 433.28,-116.12 516.78,-116.12 516.78,-135.38"/>
<text text-anchor="middle" x="475.03" y="-121.88" font-family="Helvetica,sans-Serif" font-size="10.00">ers/Context.hpp</text>
</a>
</g>
</g>
<!-- Node17&#45;&gt;Node20 -->
<g id="edge25_Node000017_Node000020" class="edge">
<title>Node17&#45;&gt;Node20</title>
<g id="a_edge25_Node000017_Node000020"><a xlink:title=" ">
<path fill="none" stroke="#63b8ff" d="M662.26,-182.15C624.12,-170.86 558.97,-151.59 516.46,-139.01"/>
<polygon fill="#63b8ff" stroke="#63b8ff" points="517.68,-135.72 507.1,-136.24 515.69,-142.43 517.68,-135.72"/>
</a>
</g>
</g>
<!-- Node20&#45;&gt;Node8 -->
<g id="edge26_Node000020_Node000008" class="edge">
<title>Node20&#45;&gt;Node8</title>
<g id="a_edge26_Node000020_Node000008"><a xlink:title=" ">
<path fill="none" stroke="#63b8ff" d="M443.83,-115.68C437.31,-113.88 430.46,-112.07 424.03,-110.5 359.92,-94.85 284.14,-79.78 242.45,-71.79"/>
<polygon fill="#63b8ff" stroke="#63b8ff" points="243.36,-68.4 232.88,-69.96 242.05,-75.27 243.36,-68.4"/>
</a>
</g>
</g>
<!-- Node20&#45;&gt;Node15 -->
<g id="edge27_Node000020_Node000015" class="edge">
<title>Node20&#45;&gt;Node15</title>
<g id="a_edge27_Node000020_Node000015"><a xlink:title=" ">
<path fill="none" stroke="#63b8ff" d="M466.98,-115.81C459.28,-107.25 447.44,-94.1 437.85,-83.45"/>
<polygon fill="#63b8ff" stroke="#63b8ff" points="440.46,-81.12 431.17,-76.03 435.26,-85.8 440.46,-81.12"/>
</a>
</g>
</g>
<!-- Node21 -->
<g id="Node000021" class="node">
<title>Node21</title>
<g id="a_Node000021"><a xlink:href="ers_2include_2ers_2Configuration_8hpp.html" target="_top" xlink:title=" ">
<polygon fill="white" stroke="#666666" points="580.41,-74.5 473.66,-74.5 473.66,-55.25 580.41,-55.25 580.41,-74.5"/>
<text text-anchor="middle" x="527.03" y="-61" font-family="Helvetica,sans-Serif" font-size="10.00">ers/Configuration.hpp</text>
</a>
</g>
</g>
<!-- Node20&#45;&gt;Node21 -->
<g id="edge28_Node000020_Node000021" class="edge">
<title>Node20&#45;&gt;Node21</title>
<g id="a_edge28_Node000020_Node000021"><a xlink:title=" ">
<path fill="none" stroke="#63b8ff" d="M482.93,-115.81C490.49,-107.25 502.1,-94.1 511.51,-83.45"/>
<polygon fill="#63b8ff" stroke="#63b8ff" points="514.06,-85.85 518.06,-76.04 508.81,-81.21 514.06,-85.85"/>
</a>
</g>
</g>
<!-- Node21&#45;&gt;Node9 -->
<g id="edge29_Node000021_Node000009" class="edge">
<title>Node21&#45;&gt;Node9</title>
<g id="a_edge29_Node000021_Node000009"><a xlink:title=" ">
<path fill="none" stroke="#63b8ff" d="M580.7,-57.92C678.48,-47.07 883.41,-24.34 968.61,-14.89"/>
<polygon fill="#63b8ff" stroke="#63b8ff" points="968.76,-18.39 978.31,-13.81 967.98,-11.44 968.76,-18.39"/>
</a>
</g>
</g>
<!-- Node23 -->
<g id="Node000023" class="node">
<title>Node23</title>
<g id="a_Node000023"><a xlink:title=" ">
<polygon fill="#e0e0e0" stroke="#999999" points="901.66,-141 802.41,-141 802.41,-110.5 901.66,-110.5 901.66,-141"/>
<text text-anchor="start" x="810.41" y="-127.5" font-family="Helvetica,sans-Serif" font-size="10.00">boost/preprocessor</text>
<text text-anchor="middle" x="852.03" y="-116.25" font-family="Helvetica,sans-Serif" font-size="10.00">/if.hpp</text>
</a>
</g>
</g>
<!-- Node22&#45;&gt;Node23 -->
<g id="edge32_Node000022_Node000023" class="edge">
<title>Node22&#45;&gt;Node23</title>
<g id="a_edge32_Node000022_Node000023"><a xlink:title=" ">
<path fill="none" stroke="#63b8ff" d="M942.48,-176.61C926.47,-167.79 905.87,-156.43 888.36,-146.78"/>
<polygon fill="#63b8ff" stroke="#63b8ff" points="890.25,-143.82 879.8,-142.06 886.87,-149.95 890.25,-143.82"/>
</a>
</g>
</g>
<!-- Node24 -->
<g id="Node000024" class="node">
<title>Node24</title>
<g id="a_Node000024"><a xlink:title=" ">
<polygon fill="#e0e0e0" stroke="#999999" points="1018.66,-141 919.41,-141 919.41,-110.5 1018.66,-110.5 1018.66,-141"/>
<text text-anchor="start" x="927.41" y="-127.5" font-family="Helvetica,sans-Serif" font-size="10.00">boost/preprocessor</text>
<text text-anchor="middle" x="969.03" y="-116.25" font-family="Helvetica,sans-Serif" font-size="10.00">/seq.hpp</text>
</a>
</g>
</g>
<!-- Node22&#45;&gt;Node24 -->
<g id="edge33_Node000022_Node000024" class="edge">
<title>Node22&#45;&gt;Node24</title>
<g id="a_edge33_Node000022_Node000024"><a xlink:title=" ">
<path fill="none" stroke="#63b8ff" d="M969.03,-176.61C969.03,-169.52 969.03,-160.79 969.03,-152.63"/>
<polygon fill="#63b8ff" stroke="#63b8ff" points="972.53,-152.84 969.03,-142.84 965.53,-152.84 972.53,-152.84"/>
</a>
</g>
</g>
<!-- Node25 -->
<g id="Node000025" class="node">
<title>Node25</title>
<g id="a_Node000025"><a xlink:title=" ">
<polygon fill="#e0e0e0" stroke="#999999" points="1135.66,-141 1036.41,-141 1036.41,-110.5 1135.66,-110.5 1135.66,-141"/>
<text text-anchor="start" x="1044.41" y="-127.5" font-family="Helvetica,sans-Serif" font-size="10.00">boost/preprocessor</text>
<text text-anchor="middle" x="1086.03" y="-116.25" font-family="Helvetica,sans-Serif" font-size="10.00">/tuple.hpp</text>
</a>
</g>
</g>
<!-- Node22&#45;&gt;Node25 -->
<g id="edge34_Node000022_Node000025" class="edge">
<title>Node22&#45;&gt;Node25</title>
<g id="a_edge34_Node000022_Node000025"><a xlink:title=" ">
<path fill="none" stroke="#63b8ff" d="M995.58,-176.61C1011.59,-167.79 1032.2,-156.43 1049.7,-146.78"/>
<polygon fill="#63b8ff" stroke="#63b8ff" points="1051.19,-149.95 1058.26,-142.06 1047.81,-143.82 1051.19,-149.95"/>
</a>
</g>
</g>
<!-- Node26 -->
<g id="Node000026" class="node">
<title>Node26</title>
<g id="a_Node000026"><a xlink:title=" ">
<polygon fill="#e0e0e0" stroke="#999999" points="1252.66,-141 1153.41,-141 1153.41,-110.5 1252.66,-110.5 1252.66,-141"/>
<text text-anchor="start" x="1161.41" y="-127.5" font-family="Helvetica,sans-Serif" font-size="10.00">boost/preprocessor</text>
<text text-anchor="middle" x="1203.03" y="-116.25" font-family="Helvetica,sans-Serif" font-size="10.00">/logical.hpp</text>
</a>
</g>
</g>
<!-- Node22&#45;&gt;Node26 -->
<g id="edge35_Node000022_Node000026" class="edge">
<title>Node22&#45;&gt;Node26</title>
<g id="a_edge35_Node000022_Node000026"><a xlink:title=" ">
<path fill="none" stroke="#63b8ff" d="M1022.42,-176.53C1058.15,-166.69 1105.24,-153.7 1142.38,-143.47"/>
<polygon fill="#63b8ff" stroke="#63b8ff" points="1142.9,-146.95 1151.61,-140.92 1141.04,-140.21 1142.9,-146.95"/>
</a>
</g>
</g>
<!-- Node27 -->
<g id="Node000027" class="node">
<title>Node27</title>
<g id="a_Node000027"><a xlink:title=" ">
<polygon fill="#e0e0e0" stroke="#999999" points="1369.66,-141 1270.41,-141 1270.41,-110.5 1369.66,-110.5 1369.66,-141"/>
<text text-anchor="start" x="1278.41" y="-127.5" font-family="Helvetica,sans-Serif" font-size="10.00">boost/preprocessor</text>
<text text-anchor="middle" x="1320.03" y="-116.25" font-family="Helvetica,sans-Serif" font-size="10.00">/stringize.hpp</text>
</a>
</g>
</g>
<!-- Node22&#45;&gt;Node27 -->
<g id="edge36_Node000022_Node000027" class="edge">
<title>Node22&#45;&gt;Node27</title>
<g id="a_edge36_Node000022_Node000027"><a xlink:title=" ">
<path fill="none" stroke="#63b8ff" d="M1039.15,-180.66C1096.12,-171.73 1178.77,-158.03 1259.27,-141.5"/>
<polygon fill="#63b8ff" stroke="#63b8ff" points="1259.53,-145.02 1268.61,-139.56 1258.11,-138.17 1259.53,-145.02"/>
</a>
</g>
</g>
<!-- Node28 -->
<g id="Node000028" class="node">
<title>Node28</title>
<g id="a_Node000028"><a xlink:title=" ">
<polygon fill="#e0e0e0" stroke="#999999" points="784.66,-141 685.41,-141 685.41,-110.5 784.66,-110.5 784.66,-141"/>
<text text-anchor="start" x="693.41" y="-127.5" font-family="Helvetica,sans-Serif" font-size="10.00">boost/preprocessor</text>
<text text-anchor="middle" x="735.03" y="-116.25" font-family="Helvetica,sans-Serif" font-size="10.00">/comparison.hpp</text>
</a>
</g>
</g>
<!-- Node22&#45;&gt;Node28 -->
<g id="edge37_Node000022_Node000028" class="edge">
<title>Node22&#45;&gt;Node28</title>
<g id="a_edge37_Node000022_Node000028"><a xlink:title=" ">
<path fill="none" stroke="#63b8ff" d="M915.64,-176.53C879.91,-166.69 832.82,-153.7 795.68,-143.47"/>
<polygon fill="#63b8ff" stroke="#63b8ff" points="797.02,-140.21 786.45,-140.92 795.16,-146.95 797.02,-140.21"/>
</a>
</g>
</g>
<!-- Node30&#45;&gt;Node9 -->
<g id="edge47_Node000030_Node000009" class="edge">
<title>Node30&#45;&gt;Node9</title>
<g id="a_edge47_Node000030_Node000009"><a xlink:title=" ">
<path fill="none" stroke="#63b8ff" d="M1699.23,-298.29C1740.3,-290.45 1791.78,-278 1807.03,-262.75 1829.67,-240.1 1826.03,-225.27 1826.03,-193.25 1826.03,-193.25 1826.03,-193.25 1826.03,-124.75 1826.03,-44.92 1207.72,-17.66 1045.58,-11.88"/>
<polygon fill="#63b8ff" stroke="#63b8ff" points="1045.91,-8.39 1035.79,-11.54 1045.66,-15.38 1045.91,-8.39"/>
</a>
</g>
</g>
<!-- Node31 -->
<g id="Node000031" class="node">
<title>Node31</title>
<g id="a_Node000031"><a xlink:href="trgdataformats_2include_2trgdataformats_2Types_8hpp.html" target="_top" xlink:title=" ">
<polygon fill="white" stroke="#666666" points="1798.16,-262.75 1671.91,-262.75 1671.91,-243.5 1798.16,-243.5 1798.16,-262.75"/>
<text text-anchor="middle" x="1735.03" y="-249.25" font-family="Helvetica,sans-Serif" font-size="10.00">trgdataformats/Types.hpp</text>
</a>
</g>
</g>
<!-- Node30&#45;&gt;Node31 -->
<g id="edge41_Node000030_Node000031" class="edge">
<title>Node30&#45;&gt;Node31</title>
<g id="a_edge41_Node000030_Node000031"><a xlink:title=" ">
<path fill="none" stroke="#63b8ff" d="M1659.47,-298.34C1673.19,-290.31 1693.53,-278.41 1709.65,-268.98"/>
<polygon fill="#63b8ff" stroke="#63b8ff" points="1711.35,-272.04 1718.21,-263.97 1707.81,-266 1711.35,-272.04"/>
</a>
</g>
</g>
<!-- Node32 -->
<g id="Node000032" class="node">
<title>Node32</title>
<g id="a_Node000032"><a xlink:title=" ">
<polygon fill="#e0e0e0" stroke="#999999" points="1682.66,-201.88 1637.41,-201.88 1637.41,-182.62 1682.66,-182.62 1682.66,-201.88"/>
<text text-anchor="middle" x="1660.03" y="-188.38" font-family="Helvetica,sans-Serif" font-size="10.00">cstdint</text>
</a>
</g>
</g>
<!-- Node30&#45;&gt;Node32 -->
<g id="edge46_Node000030_Node000032" class="edge">
<title>Node30&#45;&gt;Node32</title>
<g id="a_edge46_Node000030_Node000032"><a xlink:title=" ">
<path fill="none" stroke="#63b8ff" d="M1645.29,-298.42C1647.84,-280.17 1653.72,-238.28 1657.23,-213.23"/>
<polygon fill="#63b8ff" stroke="#63b8ff" points="1660.65,-214.05 1658.57,-203.66 1653.72,-213.08 1660.65,-214.05"/>
</a>
</g>
</g>
<!-- Node34 -->
<g id="Node000034" class="node">
<title>Node34</title>
<g id="a_Node000034"><a xlink:title=" ">
<polygon fill="#e0e0e0" stroke="#999999" points="1470.03,-262.75 1430.03,-262.75 1430.03,-243.5 1470.03,-243.5 1470.03,-262.75"/>
<text text-anchor="middle" x="1450.03" y="-249.25" font-family="Helvetica,sans-Serif" font-size="10.00">bitset</text>
</a>
</g>
</g>
<!-- Node30&#45;&gt;Node34 -->
<g id="edge44_Node000030_Node000034" class="edge">
<title>Node30&#45;&gt;Node34</title>
<g id="a_edge44_Node000030_Node000034"><a xlink:title=" ">
<path fill="none" stroke="#63b8ff" d="M1609.51,-298.31C1578.37,-290.07 1531.03,-277.4 1481.28,-263.34"/>
<polygon fill="#63b8ff" stroke="#63b8ff" points="1482.32,-260 1471.75,-260.63 1480.41,-266.73 1482.32,-260"/>
</a>
</g>
</g>
<!-- Node35 -->
<g id="Node000035" class="node">
<title>Node35</title>
<g id="a_Node000035"><a xlink:title=" ">
<polygon fill="#e0e0e0" stroke="#999999" points="1536.16,-262.75 1487.91,-262.75 1487.91,-243.5 1536.16,-243.5 1536.16,-262.75"/>
<text text-anchor="middle" x="1512.03" y="-249.25" font-family="Helvetica,sans-Serif" font-size="10.00">cstddef</text>
</a>
</g>
</g>
<!-- Node30&#45;&gt;Node35 -->
<g id="edge45_Node000030_Node000035" class="edge">
<title>Node30&#45;&gt;Node35</title>
<g id="a_edge45_Node000030_Node000035"><a xlink:title=" ">
<path fill="none" stroke="#63b8ff" d="M1621.64,-298.34C1600.59,-289.85 1568.83,-277.04 1544.91,-267.39"/>
<polygon fill="#63b8ff" stroke="#63b8ff" points="1546.52,-264.26 1535.94,-263.77 1543.9,-270.76 1546.52,-264.26"/>
</a>
</g>
</g>
<!-- Node36 -->
<g id="Node000036" class="node">
<title>Node36</title>
<g id="a_Node000036"><a xlink:title=" ">
<polygon fill="#e0e0e0" stroke="#999999" points="1615.53,-262.75 1554.53,-262.75 1554.53,-243.5 1615.53,-243.5 1615.53,-262.75"/>
<text text-anchor="middle" x="1585.03" y="-249.25" font-family="Helvetica,sans-Serif" font-size="10.00">type_traits</text>
</a>
</g>
</g>
<!-- Node30&#45;&gt;Node36 -->
<g id="edge48_Node000030_Node000036" class="edge">
<title>Node30&#45;&gt;Node36</title>
<g id="a_edge48_Node000030_Node000036"><a xlink:title=" ">
<path fill="none" stroke="#63b8ff" d="M1634.02,-298.34C1625.66,-290.8 1613.53,-279.85 1603.43,-270.73"/>
<polygon fill="#63b8ff" stroke="#63b8ff" points="1605.78,-268.14 1596.01,-264.04 1601.09,-273.34 1605.78,-268.14"/>
</a>
</g>
</g>
<!-- Node31&#45;&gt;Node32 -->
<g id="edge42_Node000031_Node000032" class="edge">
<title>Node31&#45;&gt;Node32</title>
<g id="a_edge42_Node000031_Node000032"><a xlink:title=" ">
<path fill="none" stroke="#63b8ff" d="M1723.64,-243.18C1712.19,-234.19 1694.28,-220.14 1680.38,-209.23"/>
<polygon fill="#63b8ff" stroke="#63b8ff" points="1682.75,-206.63 1672.72,-203.21 1678.42,-212.14 1682.75,-206.63"/>
</a>
</g>
</g>
<!-- Node33 -->
<g id="Node000033" class="node">
<title>Node33</title>
<g id="a_Node000033"><a xlink:title=" ">
<polygon fill="#e0e0e0" stroke="#999999" points="1754.66,-201.88 1715.41,-201.88 1715.41,-182.62 1754.66,-182.62 1754.66,-201.88"/>
<text text-anchor="middle" x="1735.03" y="-188.38" font-family="Helvetica,sans-Serif" font-size="10.00">limits</text>
</a>
</g>
</g>
<!-- Node31&#45;&gt;Node33 -->
<g id="edge43_Node000031_Node000033" class="edge">
<title>Node31&#45;&gt;Node33</title>
<g id="a_edge43_Node000031_Node000033"><a xlink:title=" ">
<path fill="none" stroke="#63b8ff" d="M1735.03,-243.18C1735.03,-235.4 1735.03,-223.83 1735.03,-213.78"/>
<polygon fill="#63b8ff" stroke="#63b8ff" points="1738.53,-213.79 1735.03,-203.79 1731.53,-213.79 1738.53,-213.79"/>
</a>
</g>
</g>
</g>
</svg>
