<?xml version="1.0" encoding="UTF-8" standalone="no"?>
<!DOCTYPE svg PUBLIC "-//W3C//DTD SVG 1.1//EN"
 "http://www.w3.org/Graphics/SVG/1.1/DTD/svg11.dtd">
<!-- Generated by graphviz version 9.0.0 (20230911.1827)
 -->
<!-- Title: /github/workspace/dev_area/sourcecode/triggeralgs/include/triggeralgs/TriggerActivity.hpp Pages: 1 -->
<svg width="471pt" height="282pt"
 viewBox="0.00 0.00 471.00 282.00" xmlns="http://www.w3.org/2000/svg" xmlns:xlink="http://www.w3.org/1999/xlink">
<g id="graph0" class="graph" transform="scale(1 1) rotate(0) translate(4 278)">
<title>/github/workspace/dev_area/sourcecode/triggeralgs/include/triggeralgs/TriggerActivity.hpp</title>
<!-- Node1 -->
<g id="Node000001" class="node">
<title>Node1</title>
<g id="a_Node000001"><a xlink:title=" ">
<polygon fill="#999999" stroke="#666666" points="463,-274 282,-274 282,-232.25 463,-232.25 463,-274"/>
<text text-anchor="start" x="290" y="-260.5" font-family="Helvetica,sans-Serif" font-size="10.00">/github/workspace/dev</text>
<text text-anchor="start" x="290" y="-249.25" font-family="Helvetica,sans-Serif" font-size="10.00">_area/sourcecode/triggeralgs</text>
<text text-anchor="middle" x="372.5" y="-238" font-family="Helvetica,sans-Serif" font-size="10.00">/include/triggeralgs/TriggerActivity.hpp</text>
</a>
</g>
</g>
<!-- Node2 -->
<g id="Node000002" class="node">
<title>Node2</title>
<g id="a_Node000002"><a xlink:href="TriggerActivityData_8hpp.html" target="_top" xlink:title=" ">
<polygon fill="white" stroke="#666666" points="462.62,-141 318.38,-141 318.38,-110.5 462.62,-110.5 462.62,-141"/>
<text text-anchor="start" x="326.38" y="-127.5" font-family="Helvetica,sans-Serif" font-size="10.00">trgdataformats/TriggerActivity</text>
<text text-anchor="middle" x="390.5" y="-116.25" font-family="Helvetica,sans-Serif" font-size="10.00">Data.hpp</text>
</a>
</g>
</g>
<!-- Node1&#45;&gt;Node2 -->
<g id="edge1_Node000001_Node000002" class="edge">
<title>Node1&#45;&gt;Node2</title>
<g id="a_edge1_Node000001_Node000002"><a xlink:title=" ">
<path fill="none" stroke="#63b8ff" d="M375.39,-231.98C378.49,-210.41 383.41,-176.1 386.79,-152.56"/>
<polygon fill="#63b8ff" stroke="#63b8ff" points="390.23,-153.25 388.19,-142.86 383.3,-152.26 390.23,-153.25"/>
</a>
</g>
</g>
<!-- Node6 -->
<g id="Node000006" class="node">
<title>Node6</title>
<g id="a_Node000006"><a xlink:href="triggeralgs_2include_2triggeralgs_2TriggerPrimitive_8hpp.html" target="_top" xlink:title=" ">
<polygon fill="white" stroke="#666666" points="326.62,-196.25 176.38,-196.25 176.38,-177 326.62,-177 326.62,-196.25"/>
<text text-anchor="middle" x="251.5" y="-182.75" font-family="Helvetica,sans-Serif" font-size="10.00">triggeralgs/TriggerPrimitive.hpp</text>
</a>
</g>
</g>
<!-- Node1&#45;&gt;Node6 -->
<g id="edge6_Node000001_Node000006" class="edge">
<title>Node1&#45;&gt;Node6</title>
<g id="a_edge6_Node000001_Node000006"><a xlink:title=" ">
<path fill="none" stroke="#63b8ff" d="M334.55,-231.89C316.35,-222.2 294.99,-210.81 278.48,-202.01"/>
<polygon fill="#63b8ff" stroke="#63b8ff" points="280.23,-198.97 269.76,-197.36 276.93,-205.15 280.23,-198.97"/>
</a>
</g>
</g>
<!-- Node12 -->
<g id="Node000012" class="node">
<title>Node12</title>
<g id="a_Node000012"><a xlink:title=" ">
<polygon fill="#e0e0e0" stroke="#999999" points="444,-196.25 401,-196.25 401,-177 444,-177 444,-196.25"/>
<text text-anchor="middle" x="422.5" y="-182.75" font-family="Helvetica,sans-Serif" font-size="10.00">vector</text>
</a>
</g>
</g>
<!-- Node1&#45;&gt;Node12 -->
<g id="edge14_Node000001_Node000012" class="edge">
<title>Node1&#45;&gt;Node12</title>
<g id="a_edge14_Node000001_Node000012"><a xlink:title=" ">
<path fill="none" stroke="#63b8ff" d="M388.05,-232.07C394.57,-223.66 402.1,-213.95 408.45,-205.75"/>
<polygon fill="#63b8ff" stroke="#63b8ff" points="411.18,-207.94 414.54,-197.89 405.65,-203.65 411.18,-207.94"/>
</a>
</g>
</g>
<!-- Node3 -->
<g id="Node000003" class="node">
<title>Node3</title>
<g id="a_Node000003"><a xlink:href="trgdataformats_2include_2trgdataformats_2Types_8hpp.html" target="_top" xlink:title=" ">
<polygon fill="white" stroke="#666666" points="439.62,-74.5 313.38,-74.5 313.38,-55.25 439.62,-55.25 439.62,-74.5"/>
<text text-anchor="middle" x="376.5" y="-61" font-family="Helvetica,sans-Serif" font-size="10.00">trgdataformats/Types.hpp</text>
</a>
</g>
</g>
<!-- Node2&#45;&gt;Node3 -->
<g id="edge2_Node000002_Node000003" class="edge">
<title>Node2&#45;&gt;Node3</title>
<g id="a_edge2_Node000002_Node000003"><a xlink:title=" ">
<path fill="none" stroke="#63b8ff" d="M387.04,-110.2C385.3,-102.87 383.16,-93.87 381.26,-85.91"/>
<polygon fill="#63b8ff" stroke="#63b8ff" points="384.73,-85.34 379.01,-76.42 377.92,-86.96 384.73,-85.34"/>
</a>
</g>
</g>
<!-- Node4 -->
<g id="Node000004" class="node">
<title>Node4</title>
<g id="a_Node000004"><a xlink:title=" ">
<polygon fill="#e0e0e0" stroke="#999999" points="369.12,-19.25 323.88,-19.25 323.88,0 369.12,0 369.12,-19.25"/>
<text text-anchor="middle" x="346.5" y="-5.75" font-family="Helvetica,sans-Serif" font-size="10.00">cstdint</text>
</a>
</g>
</g>
<!-- Node2&#45;&gt;Node4 -->
<g id="edge5_Node000002_Node000004" class="edge">
<title>Node2&#45;&gt;Node4</title>
<g id="a_edge5_Node000002_Node000004"><a xlink:title=" ">
<path fill="none" stroke="#63b8ff" d="M417.09,-110.09C438.07,-96.54 461.75,-75.5 448.5,-55.25 440.54,-43.08 406.69,-29.79 380.13,-20.91"/>
<polygon fill="#63b8ff" stroke="#63b8ff" points="381.33,-17.62 370.74,-17.86 379.17,-24.28 381.33,-17.62"/>
</a>
</g>
</g>
<!-- Node3&#45;&gt;Node4 -->
<g id="edge3_Node000003_Node000004" class="edge">
<title>Node3&#45;&gt;Node4</title>
<g id="a_edge3_Node000003_Node000004"><a xlink:title=" ">
<path fill="none" stroke="#63b8ff" d="M371.55,-55.08C367.62,-48.11 361.99,-38.12 357.06,-29.37"/>
<polygon fill="#63b8ff" stroke="#63b8ff" points="360.26,-27.92 352.3,-20.93 354.16,-31.36 360.26,-27.92"/>
</a>
</g>
</g>
<!-- Node5 -->
<g id="Node000005" class="node">
<title>Node5</title>
<g id="a_Node000005"><a xlink:title=" ">
<polygon fill="#e0e0e0" stroke="#999999" points="426.12,-19.25 386.88,-19.25 386.88,0 426.12,0 426.12,-19.25"/>
<text text-anchor="middle" x="406.5" y="-5.75" font-family="Helvetica,sans-Serif" font-size="10.00">limits</text>
</a>
</g>
</g>
<!-- Node3&#45;&gt;Node5 -->
<g id="edge4_Node000003_Node000005" class="edge">
<title>Node3&#45;&gt;Node5</title>
<g id="a_edge4_Node000003_Node000005"><a xlink:title=" ">
<path fill="none" stroke="#63b8ff" d="M381.45,-55.08C385.38,-48.11 391.01,-38.12 395.94,-29.37"/>
<polygon fill="#63b8ff" stroke="#63b8ff" points="398.84,-31.36 400.7,-20.93 392.74,-27.92 398.84,-31.36"/>
</a>
</g>
</g>
<!-- Node7 -->
<g id="Node000007" class="node">
<title>Node7</title>
<g id="a_Node000007"><a xlink:href="trgdataformats_2include_2trgdataformats_2TriggerPrimitive_8hpp.html" target="_top" xlink:title=" ">
<polygon fill="white" stroke="#666666" points="300.62,-135.38 132.38,-135.38 132.38,-116.12 300.62,-116.12 300.62,-135.38"/>
<text text-anchor="middle" x="216.5" y="-121.88" font-family="Helvetica,sans-Serif" font-size="10.00">trgdataformats/TriggerPrimitive.hpp</text>
</a>
</g>
</g>
<!-- Node6&#45;&gt;Node7 -->
<g id="edge7_Node000006_Node000007" class="edge">
<title>Node6&#45;&gt;Node7</title>
<g id="a_edge7_Node000006_Node000007"><a xlink:title=" ">
<path fill="none" stroke="#63b8ff" d="M246.18,-176.68C241.3,-168.47 233.91,-156.03 227.72,-145.62"/>
<polygon fill="#63b8ff" stroke="#63b8ff" points="230.76,-143.88 222.64,-137.08 224.74,-147.46 230.76,-143.88"/>
</a>
</g>
</g>
<!-- Node7&#45;&gt;Node3 -->
<g id="edge8_Node000007_Node000003" class="edge">
<title>Node7&#45;&gt;Node3</title>
<g id="a_edge8_Node000007_Node000003"><a xlink:title=" ">
<path fill="none" stroke="#63b8ff" d="M241.15,-115.68C267.93,-105.83 310.94,-90 341.27,-78.84"/>
<polygon fill="#63b8ff" stroke="#63b8ff" points="342.23,-82.22 350.4,-75.48 339.81,-75.65 342.23,-82.22"/>
</a>
</g>
</g>
<!-- Node7&#45;&gt;Node4 -->
<g id="edge11_Node000007_Node000004" class="edge">
<title>Node7&#45;&gt;Node4</title>
<g id="a_edge11_Node000007_Node000004"><a xlink:title=" ">
<path fill="none" stroke="#63b8ff" d="M226.7,-115.79C248.53,-96.63 300.06,-51.39 327.89,-26.96"/>
<polygon fill="#63b8ff" stroke="#63b8ff" points="330,-29.76 335.21,-20.54 325.38,-24.5 330,-29.76"/>
</a>
</g>
</g>
<!-- Node8 -->
<g id="Node000008" class="node">
<title>Node8</title>
<g id="a_Node000008"><a xlink:title=" ">
<polygon fill="#e0e0e0" stroke="#999999" points="119.5,-74.5 79.5,-74.5 79.5,-55.25 119.5,-55.25 119.5,-74.5"/>
<text text-anchor="middle" x="99.5" y="-61" font-family="Helvetica,sans-Serif" font-size="10.00">bitset</text>
</a>
</g>
</g>
<!-- Node7&#45;&gt;Node8 -->
<g id="edge9_Node000007_Node000008" class="edge">
<title>Node7&#45;&gt;Node8</title>
<g id="a_edge9_Node000007_Node000008"><a xlink:title=" ">
<path fill="none" stroke="#63b8ff" d="M198.48,-115.68C179.53,-106.14 149.46,-91.02 127.44,-79.93"/>
<polygon fill="#63b8ff" stroke="#63b8ff" points="129.21,-76.91 118.71,-75.54 126.06,-83.16 129.21,-76.91"/>
</a>
</g>
</g>
<!-- Node9 -->
<g id="Node000009" class="node">
<title>Node9</title>
<g id="a_Node000009"><a xlink:title=" ">
<polygon fill="#e0e0e0" stroke="#999999" points="185.62,-74.5 137.38,-74.5 137.38,-55.25 185.62,-55.25 185.62,-74.5"/>
<text text-anchor="middle" x="161.5" y="-61" font-family="Helvetica,sans-Serif" font-size="10.00">cstddef</text>
</a>
</g>
</g>
<!-- Node7&#45;&gt;Node9 -->
<g id="edge10_Node000007_Node000009" class="edge">
<title>Node7&#45;&gt;Node9</title>
<g id="a_edge10_Node000007_Node000009"><a xlink:title=" ">
<path fill="none" stroke="#63b8ff" d="M208.15,-115.81C200.07,-107.16 187.62,-93.84 177.61,-83.12"/>
<polygon fill="#63b8ff" stroke="#63b8ff" points="180.35,-80.93 170.97,-76.01 175.23,-85.7 180.35,-80.93"/>
</a>
</g>
</g>
<!-- Node10 -->
<g id="Node000010" class="node">
<title>Node10</title>
<g id="a_Node000010"><a xlink:title=" ">
<polygon fill="#e0e0e0" stroke="#999999" points="257.25,-74.5 203.75,-74.5 203.75,-55.25 257.25,-55.25 257.25,-74.5"/>
<text text-anchor="middle" x="230.5" y="-61" font-family="Helvetica,sans-Serif" font-size="10.00">iostream</text>
</a>
</g>
</g>
<!-- Node7&#45;&gt;Node10 -->
<g id="edge12_Node000007_Node000010" class="edge">
<title>Node7&#45;&gt;Node10</title>
<g id="a_edge12_Node000007_Node000010"><a xlink:title=" ">
<path fill="none" stroke="#63b8ff" d="M218.63,-115.81C220.5,-107.94 223.29,-96.2 225.7,-86.07"/>
<polygon fill="#63b8ff" stroke="#63b8ff" points="229.1,-86.91 228,-76.37 222.29,-85.29 229.1,-86.91"/>
</a>
</g>
</g>
<!-- Node11 -->
<g id="Node000011" class="node">
<title>Node11</title>
<g id="a_Node000011"><a xlink:title=" ">
<polygon fill="#e0e0e0" stroke="#999999" points="61,-74.5 0,-74.5 0,-55.25 61,-55.25 61,-74.5"/>
<text text-anchor="middle" x="30.5" y="-61" font-family="Helvetica,sans-Serif" font-size="10.00">type_traits</text>
</a>
</g>
</g>
<!-- Node7&#45;&gt;Node11 -->
<g id="edge13_Node000007_Node000011" class="edge">
<title>Node7&#45;&gt;Node11</title>
<g id="a_edge13_Node000007_Node000011"><a xlink:title=" ">
<path fill="none" stroke="#63b8ff" d="M187.85,-115.68C156.31,-105.7 105.4,-89.58 70.07,-78.4"/>
<polygon fill="#63b8ff" stroke="#63b8ff" points="71.22,-75.09 60.63,-75.41 69.11,-81.77 71.22,-75.09"/>
</a>
</g>
</g>
</g>
</svg>
