<?xml version="1.0" encoding="UTF-8" standalone="no"?>
<!DOCTYPE svg PUBLIC "-//W3C//DTD SVG 1.1//EN"
 "http://www.w3.org/Graphics/SVG/1.1/DTD/svg11.dtd">
<!-- Generated by graphviz version 9.0.0 (20230911.1827)
 -->
<!-- Title: /github/workspace/dev_area/sourcecode/trgdataformats/include/trgdataformats/TriggerActivityData.hpp Pages: 1 -->
<svg width="208pt" height="172pt"
 viewBox="0.00 0.00 207.62 171.50" xmlns="http://www.w3.org/2000/svg" xmlns:xlink="http://www.w3.org/1999/xlink">
<g id="graph0" class="graph" transform="scale(1 1) rotate(0) translate(4 167.5)">
<title>/github/workspace/dev_area/sourcecode/trgdataformats/include/trgdataformats/TriggerActivityData.hpp</title>
<!-- Node1 -->
<g id="Node000001" class="node">
<title>Node1</title>
<g id="a_Node000001"><a xlink:title=" ">
<polygon fill="#999999" stroke="#666666" points="181,-163.5 0,-163.5 0,-110.5 181,-110.5 181,-163.5"/>
<text text-anchor="start" x="8" y="-150" font-family="Helvetica,sans-Serif" font-size="10.00">/github/workspace/dev</text>
<text text-anchor="start" x="8" y="-138.75" font-family="Helvetica,sans-Serif" font-size="10.00">_area/sourcecode/trgdataformats</text>
<text text-anchor="start" x="8" y="-127.5" font-family="Helvetica,sans-Serif" font-size="10.00">/include/trgdataformats/TriggerActivity</text>
<text text-anchor="middle" x="90.5" y="-116.25" font-family="Helvetica,sans-Serif" font-size="10.00">Data.hpp</text>
</a>
</g>
</g>
<!-- Node2 -->
<g id="Node000002" class="node">
<title>Node2</title>
<g id="a_Node000002"><a xlink:href="trgdataformats_2include_2trgdataformats_2Types_8hpp.html" target="_top" xlink:title=" ">
<polygon fill="white" stroke="#666666" points="199.62,-74.5 73.38,-74.5 73.38,-55.25 199.62,-55.25 199.62,-74.5"/>
<text text-anchor="middle" x="136.5" y="-61" font-family="Helvetica,sans-Serif" font-size="10.00">trgdataformats/Types.hpp</text>
</a>
</g>
</g>
<!-- Node1&#45;&gt;Node2 -->
<g id="edge1_Node000001_Node000002" class="edge">
<title>Node1&#45;&gt;Node2</title>
<g id="a_edge1_Node000001_Node000002"><a xlink:title=" ">
<path fill="none" stroke="#63b8ff" d="M107.37,-110.29C113,-101.7 119.16,-92.3 124.37,-84.37"/>
<polygon fill="#63b8ff" stroke="#63b8ff" points="127.13,-86.53 129.69,-76.25 121.28,-82.69 127.13,-86.53"/>
</a>
</g>
</g>
<!-- Node3 -->
<g id="Node000003" class="node">
<title>Node3</title>
<g id="a_Node000003"><a xlink:title=" ">
<polygon fill="#e0e0e0" stroke="#999999" points="84.12,-19.25 38.88,-19.25 38.88,0 84.12,0 84.12,-19.25"/>
<text text-anchor="middle" x="61.5" y="-5.75" font-family="Helvetica,sans-Serif" font-size="10.00">cstdint</text>
</a>
</g>
</g>
<!-- Node1&#45;&gt;Node3 -->
<g id="edge4_Node000001_Node000003" class="edge">
<title>Node1&#45;&gt;Node3</title>
<g id="a_edge4_Node000001_Node000003"><a xlink:title=" ">
<path fill="none" stroke="#63b8ff" d="M77.12,-110.04C72.24,-99.32 67.25,-86.6 64.5,-74.5 61.22,-60.05 60.54,-43.3 60.65,-30.58"/>
<polygon fill="#63b8ff" stroke="#63b8ff" points="64.14,-31.04 60.91,-20.95 57.14,-30.85 64.14,-31.04"/>
</a>
</g>
</g>
<!-- Node2&#45;&gt;Node3 -->
<g id="edge2_Node000002_Node000003" class="edge">
<title>Node2&#45;&gt;Node3</title>
<g id="a_edge2_Node000002_Node000003"><a xlink:title=" ">
<path fill="none" stroke="#63b8ff" d="M123.78,-54.84C112.79,-47.04 96.66,-35.59 83.57,-26.29"/>
<polygon fill="#63b8ff" stroke="#63b8ff" points="85.7,-23.51 75.52,-20.58 81.65,-29.22 85.7,-23.51"/>
</a>
</g>
</g>
<!-- Node4 -->
<g id="Node000004" class="node">
<title>Node4</title>
<g id="a_Node000004"><a xlink:title=" ">
<polygon fill="#e0e0e0" stroke="#999999" points="156.12,-19.25 116.88,-19.25 116.88,0 156.12,0 156.12,-19.25"/>
<text text-anchor="middle" x="136.5" y="-5.75" font-family="Helvetica,sans-Serif" font-size="10.00">limits</text>
</a>
</g>
</g>
<!-- Node2&#45;&gt;Node4 -->
<g id="edge3_Node000002_Node000004" class="edge">
<title>Node2&#45;&gt;Node4</title>
<g id="a_edge3_Node000002_Node000004"><a xlink:title=" ">
<path fill="none" stroke="#63b8ff" d="M136.5,-55.08C136.5,-48.57 136.5,-39.42 136.5,-31.12"/>
<polygon fill="#63b8ff" stroke="#63b8ff" points="140,-31.12 136.5,-21.12 133,-31.12 140,-31.12"/>
</a>
</g>
</g>
</g>
</svg>
