<?xml version="1.0" encoding="UTF-8" standalone="no"?>
<!DOCTYPE svg PUBLIC "-//W3C//DTD SVG 1.1//EN"
 "http://www.w3.org/Graphics/SVG/1.1/DTD/svg11.dtd">
<!-- Generated by graphviz version 9.0.0 (20230911.1827)
 -->
<!-- Title: /github/workspace/dev_area/sourcecode/daqdataformats/include/daqdataformats/TriggerRecordHeaderData.hpp Pages: 1 -->
<svg width="1186pt" height="406pt"
 viewBox="0.00 0.00 1186.00 405.75" xmlns="http://www.w3.org/2000/svg" xmlns:xlink="http://www.w3.org/1999/xlink">
<g id="graph0" class="graph" transform="scale(1 1) rotate(0) translate(4 401.75)">
<title>/github/workspace/dev_area/sourcecode/daqdataformats/include/daqdataformats/TriggerRecordHeaderData.hpp</title>
<!-- Node1 -->
<g id="Node000001" class="node">
<title>Node1</title>
<g id="a_Node000001"><a xlink:title=" ">
<polygon fill="#999999" stroke="#666666" points="593.75,-397.75 409.75,-397.75 409.75,-344.75 593.75,-344.75 593.75,-397.75"/>
<text text-anchor="start" x="417.75" y="-384.25" font-family="Helvetica,sans-Serif" font-size="10.00">/github/workspace/dev</text>
<text text-anchor="start" x="417.75" y="-373" font-family="Helvetica,sans-Serif" font-size="10.00">_area/sourcecode/daqdataformats</text>
<text text-anchor="start" x="417.75" y="-361.75" font-family="Helvetica,sans-Serif" font-size="10.00">/include/daqdataformats/TriggerRecord</text>
<text text-anchor="middle" x="501.75" y="-350.5" font-family="Helvetica,sans-Serif" font-size="10.00">HeaderData.hpp</text>
</a>
</g>
</g>
<!-- Node2 -->
<g id="Node000002" class="node">
<title>Node2</title>
<g id="a_Node000002"><a xlink:href="TriggerRecordHeader_8hpp.html" target="_top" xlink:title=" ">
<polygon fill="white" stroke="#666666" points="593.75,-308.75 409.75,-308.75 409.75,-255.75 593.75,-255.75 593.75,-308.75"/>
<text text-anchor="start" x="417.75" y="-295.25" font-family="Helvetica,sans-Serif" font-size="10.00">/github/workspace/dev</text>
<text text-anchor="start" x="417.75" y="-284" font-family="Helvetica,sans-Serif" font-size="10.00">_area/sourcecode/daqdataformats</text>
<text text-anchor="start" x="417.75" y="-272.75" font-family="Helvetica,sans-Serif" font-size="10.00">/include/daqdataformats/TriggerRecord</text>
<text text-anchor="middle" x="501.75" y="-261.5" font-family="Helvetica,sans-Serif" font-size="10.00">Header.hpp</text>
</a>
</g>
</g>
<!-- Node1&#45;&gt;Node2 -->
<g id="edge1_Node000001_Node000002" class="edge">
<title>Node1&#45;&gt;Node2</title>
<g id="a_edge1_Node000001_Node000002"><a xlink:title=" ">
<path fill="none" stroke="#63b8ff" d="M501.75,-333.36C501.75,-325.16 501.75,-316.64 501.75,-309"/>
<polygon fill="#63b8ff" stroke="#63b8ff" points="498.25,-333.1 501.75,-343.1 505.25,-333.1 498.25,-333.1"/>
</a>
</g>
</g>
<!-- Node3 -->
<g id="Node000003" class="node">
<title>Node3</title>
<g id="a_Node000003"><a xlink:href="TriggerRecord_8hpp.html" target="_top" xlink:title=" ">
<polygon fill="white" stroke="#666666" points="667.75,-214.12 465.75,-214.12 465.75,-172.38 667.75,-172.38 667.75,-214.12"/>
<text text-anchor="start" x="473.75" y="-200.62" font-family="Helvetica,sans-Serif" font-size="10.00">/github/workspace/dev</text>
<text text-anchor="start" x="473.75" y="-189.38" font-family="Helvetica,sans-Serif" font-size="10.00">_area/sourcecode/daqdataformats</text>
<text text-anchor="middle" x="566.75" y="-178.12" font-family="Helvetica,sans-Serif" font-size="10.00">/include/daqdataformats/TriggerRecord.hpp</text>
</a>
</g>
</g>
<!-- Node2&#45;&gt;Node3 -->
<g id="edge2_Node000002_Node000003" class="edge">
<title>Node2&#45;&gt;Node3</title>
<g id="a_edge2_Node000002_Node000003"><a xlink:title=" ">
<path fill="none" stroke="#63b8ff" d="M527.57,-246.69C535.74,-235.76 544.49,-224.04 551.65,-214.46"/>
<polygon fill="#63b8ff" stroke="#63b8ff" points="524.99,-244.3 521.81,-254.41 530.6,-248.49 524.99,-244.3"/>
</a>
</g>
</g>
<!-- Node4 -->
<g id="Node000004" class="node">
<title>Node4</title>
<g id="a_Node000004"><a xlink:href="trigger__record_8cpp.html" target="_top" xlink:title=" ">
<polygon fill="white" stroke="#666666" points="519.62,-125.12 355.88,-125.12 355.88,-83.38 519.62,-83.38 519.62,-125.12"/>
<text text-anchor="start" x="363.88" y="-111.62" font-family="Helvetica,sans-Serif" font-size="10.00">/github/workspace/dev</text>
<text text-anchor="start" x="363.88" y="-100.38" font-family="Helvetica,sans-Serif" font-size="10.00">_area/sourcecode/daqdataformats</text>
<text text-anchor="middle" x="437.75" y="-89.12" font-family="Helvetica,sans-Serif" font-size="10.00">/pybindsrc/trigger_record.cpp</text>
</a>
</g>
</g>
<!-- Node2&#45;&gt;Node4 -->
<g id="edge12_Node000002_Node000004" class="edge">
<title>Node2&#45;&gt;Node4</title>
<g id="a_edge12_Node000002_Node000004"><a xlink:title=" ">
<path fill="none" stroke="#63b8ff" d="M471.78,-246.13C466.02,-237.9 460.58,-228.87 456.75,-219.75 443.63,-188.54 439.55,-148.99 438.29,-125.48"/>
<polygon fill="#63b8ff" stroke="#63b8ff" points="468.97,-248.2 477.74,-254.15 474.59,-244.03 468.97,-248.2"/>
</a>
</g>
</g>
<!-- Node13 -->
<g id="Node000013" class="node">
<title>Node13</title>
<g id="a_Node000013"><a xlink:href="TriggerRecordHeader__serialization_8hpp.html" target="_top" xlink:title=" ">
<polygon fill="white" stroke="#666666" points="337.62,-219.75 167.88,-219.75 167.88,-166.75 337.62,-166.75 337.62,-219.75"/>
<text text-anchor="start" x="175.88" y="-206.25" font-family="Helvetica,sans-Serif" font-size="10.00">/github/workspace/dev</text>
<text text-anchor="start" x="175.88" y="-195" font-family="Helvetica,sans-Serif" font-size="10.00">_area/sourcecode/dfmessages</text>
<text text-anchor="start" x="175.88" y="-183.75" font-family="Helvetica,sans-Serif" font-size="10.00">/include/dfmessages/TriggerRecord</text>
<text text-anchor="middle" x="252.75" y="-172.5" font-family="Helvetica,sans-Serif" font-size="10.00">Header_serialization.hpp</text>
</a>
</g>
</g>
<!-- Node2&#45;&gt;Node13 -->
<g id="edge13_Node000002_Node000013" class="edge">
<title>Node2&#45;&gt;Node13</title>
<g id="a_edge13_Node000002_Node000013"><a xlink:title=" ">
<path fill="none" stroke="#63b8ff" d="M416.77,-251.56C387.52,-241.34 355.03,-229.99 326.74,-220.1"/>
<polygon fill="#63b8ff" stroke="#63b8ff" points="415.36,-254.77 425.95,-254.77 417.66,-248.16 415.36,-254.77"/>
</a>
</g>
</g>
<!-- Node15 -->
<g id="Node000015" class="node">
<title>Node15</title>
<g id="a_Node000015"><a xlink:href="HDF5FileLayout_8hpp.html" target="_top" xlink:title=" ">
<polygon fill="white" stroke="#666666" points="900.75,-214.12 722.75,-214.12 722.75,-172.38 900.75,-172.38 900.75,-214.12"/>
<text text-anchor="start" x="730.75" y="-200.62" font-family="Helvetica,sans-Serif" font-size="10.00">/github/workspace/dev</text>
<text text-anchor="start" x="730.75" y="-189.38" font-family="Helvetica,sans-Serif" font-size="10.00">_area/sourcecode/hdf5libs</text>
<text text-anchor="middle" x="811.75" y="-178.12" font-family="Helvetica,sans-Serif" font-size="10.00">/include/hdf5libs/HDF5FileLayout.hpp</text>
</a>
</g>
</g>
<!-- Node2&#45;&gt;Node15 -->
<g id="edge16_Node000002_Node000015" class="edge">
<title>Node2&#45;&gt;Node15</title>
<g id="a_edge16_Node000002_Node000015"><a xlink:title=" ">
<path fill="none" stroke="#63b8ff" d="M605,-252.27C649.13,-239.89 699.59,-225.73 739.61,-214.5"/>
<polygon fill="#63b8ff" stroke="#63b8ff" points="604.06,-248.9 595.38,-254.97 605.95,-255.64 604.06,-248.9"/>
</a>
</g>
</g>
<!-- Node3&#45;&gt;Node4 -->
<g id="edge3_Node000003_Node000004" class="edge">
<title>Node3&#45;&gt;Node4</title>
<g id="a_edge3_Node000003_Node000004"><a xlink:title=" ">
<path fill="none" stroke="#63b8ff" d="M527.48,-165.76C508.35,-152.86 485.71,-137.59 467.95,-125.62"/>
<polygon fill="#63b8ff" stroke="#63b8ff" points="525.33,-168.54 535.58,-171.23 529.24,-162.73 525.33,-168.54"/>
</a>
</g>
</g>
<!-- Node5 -->
<g id="Node000005" class="node">
<title>Node5</title>
<g id="a_Node000005"><a xlink:href="TriggerRecord__serialization_8hpp.html" target="_top" xlink:title=" ">
<polygon fill="white" stroke="#666666" points="337.62,-130.75 167.88,-130.75 167.88,-77.75 337.62,-77.75 337.62,-130.75"/>
<text text-anchor="start" x="175.88" y="-117.25" font-family="Helvetica,sans-Serif" font-size="10.00">/github/workspace/dev</text>
<text text-anchor="start" x="175.88" y="-106" font-family="Helvetica,sans-Serif" font-size="10.00">_area/sourcecode/dfmessages</text>
<text text-anchor="start" x="175.88" y="-94.75" font-family="Helvetica,sans-Serif" font-size="10.00">/include/dfmessages/TriggerRecord</text>
<text text-anchor="middle" x="252.75" y="-83.5" font-family="Helvetica,sans-Serif" font-size="10.00">_serialization.hpp</text>
</a>
</g>
</g>
<!-- Node3&#45;&gt;Node5 -->
<g id="edge4_Node000003_Node000005" class="edge">
<title>Node3&#45;&gt;Node5</title>
<g id="a_edge4_Node000003_Node000005"><a xlink:title=" ">
<path fill="none" stroke="#63b8ff" d="M482.68,-168.96C437.92,-156.56 383,-141.34 338.06,-128.89"/>
<polygon fill="#63b8ff" stroke="#63b8ff" points="481.5,-172.26 492.07,-171.56 483.37,-165.51 481.5,-172.26"/>
</a>
</g>
</g>
<!-- Node6 -->
<g id="Node000006" class="node">
<title>Node6</title>
<g id="a_Node000006"><a xlink:href="DataStore_8hpp.html" target="_top" xlink:title=" ">
<polygon fill="white" stroke="#666666" points="699.88,-125.12 537.62,-125.12 537.62,-83.38 699.88,-83.38 699.88,-125.12"/>
<text text-anchor="start" x="545.62" y="-111.62" font-family="Helvetica,sans-Serif" font-size="10.00">/github/workspace/dev</text>
<text text-anchor="start" x="545.62" y="-100.38" font-family="Helvetica,sans-Serif" font-size="10.00">_area/sourcecode/dfmodules</text>
<text text-anchor="middle" x="618.75" y="-89.12" font-family="Helvetica,sans-Serif" font-size="10.00">/include/dfmodules/DataStore.hpp</text>
</a>
</g>
</g>
<!-- Node3&#45;&gt;Node6 -->
<g id="edge5_Node000003_Node000006" class="edge">
<title>Node3&#45;&gt;Node6</title>
<g id="a_edge5_Node000003_Node000006"><a xlink:title=" ">
<path fill="none" stroke="#63b8ff" d="M584.62,-162.36C591.86,-150.24 600.04,-136.55 606.57,-125.62"/>
<polygon fill="#63b8ff" stroke="#63b8ff" points="581.71,-160.39 579.59,-170.77 587.72,-163.98 581.71,-160.39"/>
</a>
</g>
</g>
<!-- Node7 -->
<g id="Node000007" class="node">
<title>Node7</title>
<g id="a_Node000007"><a xlink:href="HDF5RawDataFile_8hpp.html" target="_top" xlink:title=" ">
<polygon fill="white" stroke="#666666" points="906,-125.12 717.5,-125.12 717.5,-83.38 906,-83.38 906,-125.12"/>
<text text-anchor="start" x="725.5" y="-111.62" font-family="Helvetica,sans-Serif" font-size="10.00">/github/workspace/dev</text>
<text text-anchor="start" x="725.5" y="-100.38" font-family="Helvetica,sans-Serif" font-size="10.00">_area/sourcecode/hdf5libs</text>
<text text-anchor="middle" x="811.75" y="-89.12" font-family="Helvetica,sans-Serif" font-size="10.00">/include/hdf5libs/HDF5RawDataFile.hpp</text>
</a>
</g>
</g>
<!-- Node3&#45;&gt;Node7 -->
<g id="edge6_Node000003_Node000007" class="edge">
<title>Node3&#45;&gt;Node7</title>
<g id="a_edge6_Node000003_Node000007"><a xlink:title=" ">
<path fill="none" stroke="#63b8ff" d="M634.28,-168.27C672.04,-154.86 718.58,-138.34 754.53,-125.57"/>
<polygon fill="#63b8ff" stroke="#63b8ff" points="633.56,-164.81 625.31,-171.46 635.9,-171.41 633.56,-164.81"/>
</a>
</g>
</g>
<!-- Node8 -->
<g id="Node000008" class="node">
<title>Node8</title>
<g id="a_Node000008"><a xlink:href="hdf5rawdatafile_8cpp.html" target="_top" xlink:title=" ">
<polygon fill="white" stroke="#666666" points="576,-41.75 429.5,-41.75 429.5,0 576,0 576,-41.75"/>
<text text-anchor="start" x="437.5" y="-28.25" font-family="Helvetica,sans-Serif" font-size="10.00">/github/workspace/dev</text>
<text text-anchor="start" x="437.5" y="-17" font-family="Helvetica,sans-Serif" font-size="10.00">_area/sourcecode/hdf5libs</text>
<text text-anchor="middle" x="502.75" y="-5.75" font-family="Helvetica,sans-Serif" font-size="10.00">/pybindsrc/hdf5rawdatafile.cpp</text>
</a>
</g>
</g>
<!-- Node7&#45;&gt;Node8 -->
<g id="edge7_Node000007_Node000008" class="edge">
<title>Node7&#45;&gt;Node8</title>
<g id="a_edge7_Node000007_Node000008"><a xlink:title=" ">
<path fill="none" stroke="#63b8ff" d="M723.57,-80.03C676.99,-67.76 620.48,-52.88 576.29,-41.24"/>
<polygon fill="#63b8ff" stroke="#63b8ff" points="722.55,-83.38 733.11,-82.54 724.33,-76.61 722.55,-83.38"/>
</a>
</g>
</g>
<!-- Node9 -->
<g id="Node000009" class="node">
<title>Node9</title>
<g id="a_Node000009"><a xlink:href="HDF5RawDataFile_8cpp.html" target="_top" xlink:title=" ">
<polygon fill="white" stroke="#666666" points="729,-41.75 594.5,-41.75 594.5,0 729,0 729,-41.75"/>
<text text-anchor="start" x="602.5" y="-28.25" font-family="Helvetica,sans-Serif" font-size="10.00">/github/workspace/dev</text>
<text text-anchor="start" x="602.5" y="-17" font-family="Helvetica,sans-Serif" font-size="10.00">_area/sourcecode/hdf5libs</text>
<text text-anchor="middle" x="661.75" y="-5.75" font-family="Helvetica,sans-Serif" font-size="10.00">/src/HDF5RawDataFile.cpp</text>
</a>
</g>
</g>
<!-- Node7&#45;&gt;Node9 -->
<g id="edge8_Node000007_Node000009" class="edge">
<title>Node7&#45;&gt;Node9</title>
<g id="a_edge8_Node000007_Node000009"><a xlink:title=" ">
<path fill="none" stroke="#63b8ff" d="M764.28,-77.5C743.29,-66.11 718.95,-52.91 699.26,-42.22"/>
<polygon fill="#63b8ff" stroke="#63b8ff" points="762.5,-80.51 772.96,-82.2 765.83,-74.36 762.5,-80.51"/>
</a>
</g>
</g>
<!-- Node10 -->
<g id="Node000010" class="node">
<title>Node10</title>
<g id="a_Node000010"><a xlink:href="copy__tpstream_8cxx.html" target="_top" xlink:title=" ">
<polygon fill="white" stroke="#666666" points="876,-41.75 747.5,-41.75 747.5,0 876,0 876,-41.75"/>
<text text-anchor="start" x="755.5" y="-28.25" font-family="Helvetica,sans-Serif" font-size="10.00">/github/workspace/dev</text>
<text text-anchor="start" x="755.5" y="-17" font-family="Helvetica,sans-Serif" font-size="10.00">_area/sourcecode/trgtools</text>
<text text-anchor="middle" x="811.75" y="-5.75" font-family="Helvetica,sans-Serif" font-size="10.00">/apps/copy_tpstream.cxx</text>
</a>
</g>
</g>
<!-- Node7&#45;&gt;Node10 -->
<g id="edge9_Node000007_Node000010" class="edge">
<title>Node7&#45;&gt;Node10</title>
<g id="a_edge9_Node000007_Node000010"><a xlink:title=" ">
<path fill="none" stroke="#63b8ff" d="M811.75,-71.89C811.75,-61.87 811.75,-51.05 811.75,-42.04"/>
<polygon fill="#63b8ff" stroke="#63b8ff" points="808.25,-71.62 811.75,-81.62 815.25,-71.62 808.25,-71.62"/>
</a>
</g>
</g>
<!-- Node11 -->
<g id="Node000011" class="node">
<title>Node11</title>
<g id="a_Node000011"><a xlink:href="process__tpstream_8cxx.html" target="_top" xlink:title=" ">
<polygon fill="white" stroke="#666666" points="1031.5,-41.75 894,-41.75 894,0 1031.5,0 1031.5,-41.75"/>
<text text-anchor="start" x="902" y="-28.25" font-family="Helvetica,sans-Serif" font-size="10.00">/github/workspace/dev</text>
<text text-anchor="start" x="902" y="-17" font-family="Helvetica,sans-Serif" font-size="10.00">_area/sourcecode/trgtools</text>
<text text-anchor="middle" x="962.75" y="-5.75" font-family="Helvetica,sans-Serif" font-size="10.00">/apps/process_tpstream.cxx</text>
</a>
</g>
</g>
<!-- Node7&#45;&gt;Node11 -->
<g id="edge10_Node000007_Node000011" class="edge">
<title>Node7&#45;&gt;Node11</title>
<g id="a_edge10_Node000007_Node000011"><a xlink:title=" ">
<path fill="none" stroke="#63b8ff" d="M859.53,-77.5C880.67,-66.11 905.17,-52.91 924.99,-42.22"/>
<polygon fill="#63b8ff" stroke="#63b8ff" points="857.94,-74.38 850.8,-82.21 861.26,-80.54 857.94,-74.38"/>
</a>
</g>
</g>
<!-- Node12 -->
<g id="Node000012" class="node">
<title>Node12</title>
<g id="a_Node000012"><a xlink:href="tapipe_8cxx.html" target="_top" xlink:title=" ">
<polygon fill="white" stroke="#666666" points="1178,-41.75 1049.5,-41.75 1049.5,0 1178,0 1178,-41.75"/>
<text text-anchor="start" x="1057.5" y="-28.25" font-family="Helvetica,sans-Serif" font-size="10.00">/github/workspace/dev</text>
<text text-anchor="start" x="1057.5" y="-17" font-family="Helvetica,sans-Serif" font-size="10.00">_area/sourcecode/trgtools</text>
<text text-anchor="middle" x="1113.75" y="-5.75" font-family="Helvetica,sans-Serif" font-size="10.00">/apps/tapipe.cxx</text>
</a>
</g>
</g>
<!-- Node7&#45;&gt;Node12 -->
<g id="edge11_Node000007_Node000012" class="edge">
<title>Node7&#45;&gt;Node12</title>
<g id="a_edge11_Node000007_Node000012"><a xlink:title=" ">
<path fill="none" stroke="#63b8ff" d="M898.78,-79.95C941.56,-68.48 993.87,-54.43 1040.75,-41.75 1043.54,-41 1046.39,-40.22 1049.27,-39.44"/>
<polygon fill="#63b8ff" stroke="#63b8ff" points="898.05,-76.52 889.3,-82.49 899.87,-83.28 898.05,-76.52"/>
</a>
</g>
</g>
<!-- Node13&#45;&gt;Node5 -->
<g id="edge14_Node000013_Node000005" class="edge">
<title>Node13&#45;&gt;Node5</title>
<g id="a_edge14_Node000013_Node000005"><a xlink:title=" ">
<path fill="none" stroke="#63b8ff" d="M252.75,-155.36C252.75,-147.16 252.75,-138.64 252.75,-131"/>
<polygon fill="#63b8ff" stroke="#63b8ff" points="249.25,-155.1 252.75,-165.1 256.25,-155.1 249.25,-155.1"/>
</a>
</g>
</g>
<!-- Node14 -->
<g id="Node000014" class="node">
<title>Node14</title>
<g id="a_Node000014"><a xlink:href="Serialization_8cpp.html" target="_top" xlink:title=" ">
<polygon fill="white" stroke="#666666" points="149.5,-125.12 0,-125.12 0,-83.38 149.5,-83.38 149.5,-125.12"/>
<text text-anchor="start" x="8" y="-111.62" font-family="Helvetica,sans-Serif" font-size="10.00">/github/workspace/dev</text>
<text text-anchor="start" x="8" y="-100.38" font-family="Helvetica,sans-Serif" font-size="10.00">_area/sourcecode/dfmessages</text>
<text text-anchor="middle" x="74.75" y="-89.12" font-family="Helvetica,sans-Serif" font-size="10.00">/src/Serialization.cpp</text>
</a>
</g>
</g>
<!-- Node13&#45;&gt;Node14 -->
<g id="edge15_Node000013_Node000014" class="edge">
<title>Node13&#45;&gt;Node14</title>
<g id="a_edge15_Node000013_Node000014"><a xlink:title=" ">
<path fill="none" stroke="#63b8ff" d="M189.57,-161.37C165.19,-149.46 137.98,-136.16 116.17,-125.5"/>
<polygon fill="#63b8ff" stroke="#63b8ff" points="187.95,-164.47 198.47,-165.72 191.02,-158.18 187.95,-164.47"/>
</a>
</g>
</g>
<!-- Node15&#45;&gt;Node7 -->
<g id="edge17_Node000015_Node000007" class="edge">
<title>Node15&#45;&gt;Node7</title>
<g id="a_edge17_Node000015_Node000007"><a xlink:title=" ">
<path fill="none" stroke="#63b8ff" d="M811.75,-160.89C811.75,-149.15 811.75,-136.12 811.75,-125.62"/>
<polygon fill="#63b8ff" stroke="#63b8ff" points="808.25,-160.56 811.75,-170.56 815.25,-160.56 808.25,-160.56"/>
</a>
</g>
</g>
<!-- Node16 -->
<g id="Node000016" class="node">
<title>Node16</title>
<g id="a_Node000016"><a xlink:href="HDF5FileLayout_8cpp.html" target="_top" xlink:title=" ">
<polygon fill="white" stroke="#666666" points="1053.75,-125.12 923.75,-125.12 923.75,-83.38 1053.75,-83.38 1053.75,-125.12"/>
<text text-anchor="start" x="931.75" y="-111.62" font-family="Helvetica,sans-Serif" font-size="10.00">/github/workspace/dev</text>
<text text-anchor="start" x="931.75" y="-100.38" font-family="Helvetica,sans-Serif" font-size="10.00">_area/sourcecode/hdf5libs</text>
<text text-anchor="middle" x="988.75" y="-89.12" font-family="Helvetica,sans-Serif" font-size="10.00">/src/HDF5FileLayout.cpp</text>
</a>
</g>
</g>
<!-- Node15&#45;&gt;Node16 -->
<g id="edge18_Node000015_Node000016" class="edge">
<title>Node15&#45;&gt;Node16</title>
<g id="a_edge18_Node000015_Node000016"><a xlink:title=" ">
<path fill="none" stroke="#63b8ff" d="M863.13,-166.99C889.89,-153.84 922.17,-137.98 947.31,-125.62"/>
<polygon fill="#63b8ff" stroke="#63b8ff" points="861.59,-163.85 854.16,-171.4 864.68,-170.13 861.59,-163.85"/>
</a>
</g>
</g>
</g>
</svg>
