<?xml version="1.0" encoding="UTF-8" standalone="no"?>
<!DOCTYPE svg PUBLIC "-//W3C//DTD SVG 1.1//EN"
 "http://www.w3.org/Graphics/SVG/1.1/DTD/svg11.dtd">
<!-- Generated by graphviz version 9.0.0 (20230911.1827)
 -->
<!-- Title: /github/workspace/dev_area/sourcecode/triggeralgs/include/triggeralgs/TriggerDecision.hpp Pages: 1 -->
<svg width="503pt" height="282pt"
 viewBox="0.00 0.00 503.13 282.00" xmlns="http://www.w3.org/2000/svg" xmlns:xlink="http://www.w3.org/1999/xlink">
<g id="graph0" class="graph" transform="scale(1 1) rotate(0) translate(4 278)">
<title>/github/workspace/dev_area/sourcecode/triggeralgs/include/triggeralgs/TriggerDecision.hpp</title>
<!-- Node1 -->
<g id="Node000001" class="node">
<title>Node1</title>
<g id="a_Node000001"><a xlink:title=" ">
<polygon fill="#999999" stroke="#666666" points="399.13,-274 212.88,-274 212.88,-232.25 399.13,-232.25 399.13,-274"/>
<text text-anchor="start" x="220.88" y="-260.5" font-family="Helvetica,sans-Serif" font-size="10.00">/github/workspace/dev</text>
<text text-anchor="start" x="220.88" y="-249.25" font-family="Helvetica,sans-Serif" font-size="10.00">_area/sourcecode/triggeralgs</text>
<text text-anchor="middle" x="306" y="-238" font-family="Helvetica,sans-Serif" font-size="10.00">/include/triggeralgs/TriggerDecision.hpp</text>
</a>
</g>
</g>
<!-- Node2 -->
<g id="Node000002" class="node">
<title>Node2</title>
<g id="a_Node000002"><a xlink:href="TriggerCandidate_8hpp.html" target="_top" xlink:title=" ">
<polygon fill="white" stroke="#666666" points="330.75,-196.25 175.25,-196.25 175.25,-177 330.75,-177 330.75,-196.25"/>
<text text-anchor="middle" x="253" y="-182.75" font-family="Helvetica,sans-Serif" font-size="10.00">triggeralgs/TriggerCandidate.hpp</text>
</a>
</g>
</g>
<!-- Node1&#45;&gt;Node2 -->
<g id="edge1_Node000001_Node000002" class="edge">
<title>Node1&#45;&gt;Node2</title>
<g id="a_edge1_Node000001_Node000002"><a xlink:title=" ">
<path fill="none" stroke="#63b8ff" d="M289.53,-232.07C282.54,-223.56 274.46,-213.73 267.68,-205.48"/>
<polygon fill="#63b8ff" stroke="#63b8ff" points="270.47,-203.37 261.42,-197.86 265.06,-207.81 270.47,-203.37"/>
</a>
</g>
</g>
<!-- Node5 -->
<g id="Node000005" class="node">
<title>Node5</title>
<g id="a_Node000005"><a xlink:title=" ">
<polygon fill="#e0e0e0" stroke="#999999" points="178.63,-19.25 133.38,-19.25 133.38,0 178.63,0 178.63,-19.25"/>
<text text-anchor="middle" x="156" y="-5.75" font-family="Helvetica,sans-Serif" font-size="10.00">cstdint</text>
</a>
</g>
</g>
<!-- Node1&#45;&gt;Node5 -->
<g id="edge15_Node000001_Node000005" class="edge">
<title>Node1&#45;&gt;Node5</title>
<g id="a_edge15_Node000001_Node000005"><a xlink:title=" ">
<path fill="none" stroke="#63b8ff" d="M212.44,-245.11C142.55,-234.4 51.42,-207.61 5,-141 -2.57,-130.13 -1,-66.71 8,-55.25 34.85,-21.09 86.94,-12.29 121.6,-10.43"/>
<polygon fill="#63b8ff" stroke="#63b8ff" points="121.68,-13.93 131.55,-10.09 121.44,-6.94 121.68,-13.93"/>
</a>
</g>
</g>
<!-- Node10 -->
<g id="Node000010" class="node">
<title>Node10</title>
<g id="a_Node000010"><a xlink:title=" ">
<polygon fill="#e0e0e0" stroke="#999999" points="393.5,-135.38 350.5,-135.38 350.5,-116.12 393.5,-116.12 393.5,-135.38"/>
<text text-anchor="middle" x="372" y="-121.88" font-family="Helvetica,sans-Serif" font-size="10.00">vector</text>
</a>
</g>
</g>
<!-- Node1&#45;&gt;Node10 -->
<g id="edge16_Node000001_Node000010" class="edge">
<title>Node1&#45;&gt;Node10</title>
<g id="a_edge16_Node000001_Node000010"><a xlink:title=" ">
<path fill="none" stroke="#63b8ff" d="M319.18,-231.76C325.73,-221.31 333.6,-208.28 340,-196.25 348.88,-179.58 357.77,-159.98 363.92,-145.86"/>
<polygon fill="#63b8ff" stroke="#63b8ff" points="367.05,-147.43 367.78,-136.86 360.62,-144.66 367.05,-147.43"/>
</a>
</g>
</g>
<!-- Node11 -->
<g id="Node000011" class="node">
<title>Node11</title>
<g id="a_Node000011"><a xlink:href="triggeralgs_2include_2triggeralgs_2Types_8hpp.html" target="_top" xlink:title=" ">
<polygon fill="white" stroke="#666666" points="495.13,-196.25 386.88,-196.25 386.88,-177 495.13,-177 495.13,-196.25"/>
<text text-anchor="middle" x="441" y="-182.75" font-family="Helvetica,sans-Serif" font-size="10.00">triggeralgs/Types.hpp</text>
</a>
</g>
</g>
<!-- Node1&#45;&gt;Node11 -->
<g id="edge13_Node000001_Node000011" class="edge">
<title>Node1&#45;&gt;Node11</title>
<g id="a_edge13_Node000001_Node000011"><a xlink:title=" ">
<path fill="none" stroke="#63b8ff" d="M348.35,-231.89C369.03,-222.01 393.4,-210.37 411.95,-201.51"/>
<polygon fill="#63b8ff" stroke="#63b8ff" points="413.25,-204.77 420.76,-197.3 410.23,-198.45 413.25,-204.77"/>
</a>
</g>
</g>
<!-- Node3 -->
<g id="Node000003" class="node">
<title>Node3</title>
<g id="a_Node000003"><a xlink:href="TriggerActivityData_8hpp.html" target="_top" xlink:title=" ">
<polygon fill="white" stroke="#666666" points="332.13,-141 187.88,-141 187.88,-110.5 332.13,-110.5 332.13,-141"/>
<text text-anchor="start" x="195.88" y="-127.5" font-family="Helvetica,sans-Serif" font-size="10.00">trgdataformats/TriggerActivity</text>
<text text-anchor="middle" x="260" y="-116.25" font-family="Helvetica,sans-Serif" font-size="10.00">Data.hpp</text>
</a>
</g>
</g>
<!-- Node2&#45;&gt;Node3 -->
<g id="edge2_Node000002_Node000003" class="edge">
<title>Node2&#45;&gt;Node3</title>
<g id="a_edge2_Node000002_Node000003"><a xlink:title=" ">
<path fill="none" stroke="#63b8ff" d="M254.07,-176.68C254.84,-170.23 255.91,-161.16 256.94,-152.51"/>
<polygon fill="#63b8ff" stroke="#63b8ff" points="260.39,-153.13 258.1,-142.79 253.44,-152.3 260.39,-153.13"/>
</a>
</g>
</g>
<!-- Node7 -->
<g id="Node000007" class="node">
<title>Node7</title>
<g id="a_Node000007"><a xlink:href="TriggerCandidateData_8hpp.html" target="_top" xlink:title=" ">
<polygon fill="white" stroke="#666666" points="169.75,-141 14.25,-141 14.25,-110.5 169.75,-110.5 169.75,-141"/>
<text text-anchor="start" x="22.25" y="-127.5" font-family="Helvetica,sans-Serif" font-size="10.00">trgdataformats/TriggerCandidate</text>
<text text-anchor="middle" x="92" y="-116.25" font-family="Helvetica,sans-Serif" font-size="10.00">Data.hpp</text>
</a>
</g>
</g>
<!-- Node2&#45;&gt;Node7 -->
<g id="edge7_Node000002_Node000007" class="edge">
<title>Node2&#45;&gt;Node7</title>
<g id="a_edge7_Node000002_Node000007"><a xlink:title=" ">
<path fill="none" stroke="#63b8ff" d="M228.2,-176.55C205.52,-168.26 171.27,-155.73 142.79,-145.32"/>
<polygon fill="#63b8ff" stroke="#63b8ff" points="144.2,-142.11 133.61,-141.96 141.8,-148.69 144.2,-142.11"/>
</a>
</g>
</g>
<!-- Node2&#45;&gt;Node10 -->
<g id="edge12_Node000002_Node000010" class="edge">
<title>Node2&#45;&gt;Node10</title>
<g id="a_edge12_Node000002_Node000010"><a xlink:title=" ">
<path fill="none" stroke="#63b8ff" d="M271.34,-176.55C290.61,-167.02 321.19,-151.89 343.59,-140.81"/>
<polygon fill="#63b8ff" stroke="#63b8ff" points="345.08,-143.98 352.49,-136.41 341.97,-137.7 345.08,-143.98"/>
</a>
</g>
</g>
<!-- Node4 -->
<g id="Node000004" class="node">
<title>Node4</title>
<g id="a_Node000004"><a xlink:href="trgdataformats_2include_2trgdataformats_2Types_8hpp.html" target="_top" xlink:title=" ">
<polygon fill="white" stroke="#666666" points="329.13,-74.5 202.88,-74.5 202.88,-55.25 329.13,-55.25 329.13,-74.5"/>
<text text-anchor="middle" x="266" y="-61" font-family="Helvetica,sans-Serif" font-size="10.00">trgdataformats/Types.hpp</text>
</a>
</g>
</g>
<!-- Node3&#45;&gt;Node4 -->
<g id="edge3_Node000003_Node000004" class="edge">
<title>Node3&#45;&gt;Node4</title>
<g id="a_edge3_Node000003_Node000004"><a xlink:title=" ">
<path fill="none" stroke="#63b8ff" d="M261.49,-110.2C262.23,-102.96 263.13,-94.09 263.93,-86.19"/>
<polygon fill="#63b8ff" stroke="#63b8ff" points="267.39,-86.76 264.93,-76.46 260.43,-86.05 267.39,-86.76"/>
</a>
</g>
</g>
<!-- Node3&#45;&gt;Node5 -->
<g id="edge6_Node000003_Node000005" class="edge">
<title>Node3&#45;&gt;Node5</title>
<g id="a_edge6_Node000003_Node000005"><a xlink:title=" ">
<path fill="none" stroke="#63b8ff" d="M236.52,-110.16C223.03,-101.02 206.37,-88.36 194,-74.5 181.93,-60.96 171.65,-43.02 164.84,-29.6"/>
<polygon fill="#63b8ff" stroke="#63b8ff" points="168.16,-28.41 160.64,-20.95 161.86,-31.47 168.16,-28.41"/>
</a>
</g>
</g>
<!-- Node4&#45;&gt;Node5 -->
<g id="edge4_Node000004_Node000005" class="edge">
<title>Node4&#45;&gt;Node5</title>
<g id="a_edge4_Node000004_Node000005"><a xlink:title=" ">
<path fill="none" stroke="#63b8ff" d="M247.34,-54.84C230.28,-46.58 204.76,-34.23 185.03,-24.68"/>
<polygon fill="#63b8ff" stroke="#63b8ff" points="186.64,-21.57 176.12,-20.36 183.59,-27.87 186.64,-21.57"/>
</a>
</g>
</g>
<!-- Node6 -->
<g id="Node000006" class="node">
<title>Node6</title>
<g id="a_Node000006"><a xlink:title=" ">
<polygon fill="#e0e0e0" stroke="#999999" points="285.63,-19.25 246.38,-19.25 246.38,0 285.63,0 285.63,-19.25"/>
<text text-anchor="middle" x="266" y="-5.75" font-family="Helvetica,sans-Serif" font-size="10.00">limits</text>
</a>
</g>
</g>
<!-- Node4&#45;&gt;Node6 -->
<g id="edge5_Node000004_Node000006" class="edge">
<title>Node4&#45;&gt;Node6</title>
<g id="a_edge5_Node000004_Node000006"><a xlink:title=" ">
<path fill="none" stroke="#63b8ff" d="M266,-55.08C266,-48.57 266,-39.42 266,-31.12"/>
<polygon fill="#63b8ff" stroke="#63b8ff" points="269.5,-31.12 266,-21.12 262.5,-31.12 269.5,-31.12"/>
</a>
</g>
</g>
<!-- Node7&#45;&gt;Node4 -->
<g id="edge8_Node000007_Node000004" class="edge">
<title>Node7&#45;&gt;Node4</title>
<g id="a_edge8_Node000007_Node000004"><a xlink:title=" ">
<path fill="none" stroke="#63b8ff" d="M135.46,-110.05C164.04,-100.38 201.06,-87.85 228.37,-78.61"/>
<polygon fill="#63b8ff" stroke="#63b8ff" points="229.28,-82 237.63,-75.48 227.04,-75.37 229.28,-82"/>
</a>
</g>
</g>
<!-- Node7&#45;&gt;Node5 -->
<g id="edge9_Node000007_Node000005" class="edge">
<title>Node7&#45;&gt;Node5</title>
<g id="a_edge9_Node000007_Node000005"><a xlink:title=" ">
<path fill="none" stroke="#63b8ff" d="M100.11,-110.3C111.61,-89.78 132.69,-52.2 145.42,-29.5"/>
<polygon fill="#63b8ff" stroke="#63b8ff" points="148.34,-31.45 150.18,-21.02 142.23,-28.03 148.34,-31.45"/>
</a>
</g>
</g>
<!-- Node8 -->
<g id="Node000008" class="node">
<title>Node8</title>
<g id="a_Node000008"><a xlink:title=" ">
<polygon fill="#e0e0e0" stroke="#999999" points="51.38,-74.5 16.63,-74.5 16.63,-55.25 51.38,-55.25 51.38,-74.5"/>
<text text-anchor="middle" x="34" y="-61" font-family="Helvetica,sans-Serif" font-size="10.00">map</text>
</a>
</g>
</g>
<!-- Node7&#45;&gt;Node8 -->
<g id="edge10_Node000007_Node000008" class="edge">
<title>Node7&#45;&gt;Node8</title>
<g id="a_edge10_Node000007_Node000008"><a xlink:title=" ">
<path fill="none" stroke="#63b8ff" d="M77.67,-110.2C69.6,-102.01 59.48,-91.73 51.01,-83.14"/>
<polygon fill="#63b8ff" stroke="#63b8ff" points="53.52,-80.7 44.01,-76.03 48.53,-85.61 53.52,-80.7"/>
</a>
</g>
</g>
<!-- Node9 -->
<g id="Node000009" class="node">
<title>Node9</title>
<g id="a_Node000009"><a xlink:title=" ">
<polygon fill="#e0e0e0" stroke="#999999" points="109,-74.5 69,-74.5 69,-55.25 109,-55.25 109,-74.5"/>
<text text-anchor="middle" x="89" y="-61" font-family="Helvetica,sans-Serif" font-size="10.00">string</text>
</a>
</g>
</g>
<!-- Node7&#45;&gt;Node9 -->
<g id="edge11_Node000007_Node000009" class="edge">
<title>Node7&#45;&gt;Node9</title>
<g id="a_edge11_Node000007_Node000009"><a xlink:title=" ">
<path fill="none" stroke="#63b8ff" d="M91.26,-110.2C90.89,-102.96 90.44,-94.09 90.04,-86.19"/>
<polygon fill="#63b8ff" stroke="#63b8ff" points="93.55,-86.27 89.54,-76.46 86.56,-86.63 93.55,-86.27"/>
</a>
</g>
</g>
<!-- Node11&#45;&gt;Node4 -->
<g id="edge14_Node000011_Node000004" class="edge">
<title>Node11&#45;&gt;Node4</title>
<g id="a_edge14_Node000011_Node000004"><a xlink:title=" ">
<path fill="none" stroke="#63b8ff" d="M438.81,-176.83C434.46,-161.21 423.28,-128.58 402,-110.5 383.54,-94.8 359.4,-84.59 336.59,-77.96"/>
<polygon fill="#63b8ff" stroke="#63b8ff" points="337.56,-74.59 327,-75.38 335.74,-81.35 337.56,-74.59"/>
</a>
</g>
</g>
</g>
</svg>
