<?xml version="1.0" encoding="UTF-8" standalone="no"?>
<!DOCTYPE svg PUBLIC "-//W3C//DTD SVG 1.1//EN"
 "http://www.w3.org/Graphics/SVG/1.1/DTD/svg11.dtd">
<!-- Generated by graphviz version 9.0.0 (20230911.1827)
 -->
<!-- Title: /github/workspace/dev_area/sourcecode/oksutils/include/oksutils/oks/tz.hpp Pages: 1 -->
<svg width="366pt" height="116pt"
 viewBox="0.00 0.00 365.62 116.25" xmlns="http://www.w3.org/2000/svg" xmlns:xlink="http://www.w3.org/1999/xlink">
<g id="graph0" class="graph" transform="scale(1 1) rotate(0) translate(4 112.25)">
<title>/github/workspace/dev_area/sourcecode/oksutils/include/oksutils/oks/tz.hpp</title>
<!-- Node1 -->
<g id="Node000001" class="node">
<title>Node1</title>
<g id="a_Node000001"><a xlink:title=" ">
<polygon fill="#999999" stroke="#666666" points="193.88,-108.25 60.12,-108.25 60.12,-66.5 193.88,-66.5 193.88,-108.25"/>
<text text-anchor="start" x="68.12" y="-94.75" font-family="Helvetica,sans-Serif" font-size="10.00">/github/workspace/dev</text>
<text text-anchor="start" x="68.12" y="-83.5" font-family="Helvetica,sans-Serif" font-size="10.00">_area/sourcecode/oksutils</text>
<text text-anchor="middle" x="127" y="-72.25" font-family="Helvetica,sans-Serif" font-size="10.00">/include/oksutils/oks/tz.hpp</text>
</a>
</g>
</g>
<!-- Node2 -->
<g id="Node000002" class="node">
<title>Node2</title>
<g id="a_Node000002"><a xlink:title=" ">
<polygon fill="#e0e0e0" stroke="#999999" points="40,-24.88 0,-24.88 0,-5.63 40,-5.63 40,-24.88"/>
<text text-anchor="middle" x="20" y="-11.38" font-family="Helvetica,sans-Serif" font-size="10.00">string</text>
</a>
</g>
</g>
<!-- Node1&#45;&gt;Node2 -->
<g id="edge1_Node000001_Node000002" class="edge">
<title>Node1&#45;&gt;Node2</title>
<g id="a_edge1_Node000001_Node000002"><a xlink:title=" ">
<path fill="none" stroke="#63b8ff" d="M96.05,-66.09C79.14,-55.01 58.55,-41.52 43.06,-31.36"/>
<polygon fill="#63b8ff" stroke="#63b8ff" points="45.26,-28.62 34.98,-26.06 41.42,-34.47 45.26,-28.62"/>
</a>
</g>
</g>
<!-- Node3 -->
<g id="Node000003" class="node">
<title>Node3</title>
<g id="a_Node000003"><a xlink:title=" ">
<polygon fill="#e0e0e0" stroke="#999999" points="101.5,-24.88 58.5,-24.88 58.5,-5.63 101.5,-5.63 101.5,-24.88"/>
<text text-anchor="middle" x="80" y="-11.38" font-family="Helvetica,sans-Serif" font-size="10.00">vector</text>
</a>
</g>
</g>
<!-- Node1&#45;&gt;Node3 -->
<g id="edge2_Node000001_Node000003" class="edge">
<title>Node1&#45;&gt;Node3</title>
<g id="a_edge2_Node000001_Node000003"><a xlink:title=" ">
<path fill="none" stroke="#63b8ff" d="M113.41,-66.09C106.72,-56.11 98.72,-44.17 92.22,-34.48"/>
<polygon fill="#63b8ff" stroke="#63b8ff" points="95.22,-32.67 86.74,-26.31 89.4,-36.56 95.22,-32.67"/>
</a>
</g>
</g>
<!-- Node4 -->
<g id="Node000004" class="node">
<title>Node4</title>
<g id="a_Node000004"><a xlink:title=" ">
<polygon fill="#e0e0e0" stroke="#999999" points="228.5,-30.5 119.5,-30.5 119.5,0 228.5,0 228.5,-30.5"/>
<text text-anchor="start" x="127.5" y="-17" font-family="Helvetica,sans-Serif" font-size="10.00">boost/date_time/local</text>
<text text-anchor="middle" x="174" y="-5.75" font-family="Helvetica,sans-Serif" font-size="10.00">_time/local_time.hpp</text>
</a>
</g>
</g>
<!-- Node1&#45;&gt;Node4 -->
<g id="edge3_Node000001_Node000004" class="edge">
<title>Node1&#45;&gt;Node4</title>
<g id="a_edge3_Node000001_Node000004"><a xlink:title=" ">
<path fill="none" stroke="#63b8ff" d="M140.59,-66.09C146.05,-57.95 152.38,-48.51 158.05,-40.05"/>
<polygon fill="#63b8ff" stroke="#63b8ff" points="160.81,-42.21 163.47,-31.96 155,-38.32 160.81,-42.21"/>
</a>
</g>
</g>
<!-- Node5 -->
<g id="Node000005" class="node">
<title>Node5</title>
<g id="a_Node000005"><a xlink:title=" ">
<polygon fill="#e0e0e0" stroke="#999999" points="357.62,-30.5 246.38,-30.5 246.38,0 357.62,0 357.62,-30.5"/>
<text text-anchor="start" x="254.38" y="-17" font-family="Helvetica,sans-Serif" font-size="10.00">boost/date_time/posix</text>
<text text-anchor="middle" x="302" y="-5.75" font-family="Helvetica,sans-Serif" font-size="10.00">_time/ptime.hpp</text>
</a>
</g>
</g>
<!-- Node1&#45;&gt;Node5 -->
<g id="edge4_Node000001_Node000005" class="edge">
<title>Node1&#45;&gt;Node5</title>
<g id="a_edge4_Node000001_Node000005"><a xlink:title=" ">
<path fill="none" stroke="#63b8ff" d="M177.62,-66.09C201.95,-56.34 230.95,-44.72 254.82,-35.16"/>
<polygon fill="#63b8ff" stroke="#63b8ff" points="256.01,-38.45 263.99,-31.48 253.4,-31.95 256.01,-38.45"/>
</a>
</g>
</g>
</g>
</svg>
