<?xml version="1.0" encoding="UTF-8" standalone="no"?>
<!DOCTYPE svg PUBLIC "-//W3C//DTD SVG 1.1//EN"
 "http://www.w3.org/Graphics/SVG/1.1/DTD/svg11.dtd">
<!-- Generated by graphviz version 9.0.0 (20230911.1827)
 -->
<!-- Title: /github/workspace/dev_area/sourcecode/detchannelmaps/src/VDColdboxChannelMapService.hpp Pages: 1 -->
<svg width="197pt" height="105pt"
 viewBox="0.00 0.00 196.50 105.00" xmlns="http://www.w3.org/2000/svg" xmlns:xlink="http://www.w3.org/1999/xlink">
<g id="graph0" class="graph" transform="scale(1 1) rotate(0) translate(4 101)">
<title>/github/workspace/dev_area/sourcecode/detchannelmaps/src/VDColdboxChannelMapService.hpp</title>
<!-- Node1 -->
<g id="Node000001" class="node">
<title>Node1</title>
<g id="a_Node000001"><a xlink:title=" ">
<polygon fill="#999999" stroke="#666666" points="188.5,-97 0,-97 0,-55.25 188.5,-55.25 188.5,-97"/>
<text text-anchor="start" x="8" y="-83.5" font-family="Helvetica,sans-Serif" font-size="10.00">/github/workspace/dev</text>
<text text-anchor="start" x="8" y="-72.25" font-family="Helvetica,sans-Serif" font-size="10.00">_area/sourcecode/detchannelmaps</text>
<text text-anchor="middle" x="94.25" y="-61" font-family="Helvetica,sans-Serif" font-size="10.00">/src/VDColdboxChannelMapService.hpp</text>
</a>
</g>
</g>
<!-- Node2 -->
<g id="Node000002" class="node">
<title>Node2</title>
<g id="a_Node000002"><a xlink:title=" ">
<polygon fill="#e0e0e0" stroke="#999999" points="96.62,-19.25 13.88,-19.25 13.88,0 96.62,0 96.62,-19.25"/>
<text text-anchor="middle" x="55.25" y="-5.75" font-family="Helvetica,sans-Serif" font-size="10.00">unordered_map</text>
</a>
</g>
</g>
<!-- Node1&#45;&gt;Node2 -->
<g id="edge1_Node000001_Node000002" class="edge">
<title>Node1&#45;&gt;Node2</title>
<g id="a_edge1_Node000001_Node000002"><a xlink:title=" ">
<path fill="none" stroke="#63b8ff" d="M82.12,-55.07C77.15,-46.84 71.42,-37.37 66.54,-29.29"/>
<polygon fill="#63b8ff" stroke="#63b8ff" points="69.69,-27.74 61.52,-20.99 63.7,-31.36 69.69,-27.74"/>
</a>
</g>
</g>
<!-- Node3 -->
<g id="Node000003" class="node">
<title>Node3</title>
<g id="a_Node000003"><a xlink:title=" ">
<polygon fill="#e0e0e0" stroke="#999999" points="154.25,-19.25 114.25,-19.25 114.25,0 154.25,0 154.25,-19.25"/>
<text text-anchor="middle" x="134.25" y="-5.75" font-family="Helvetica,sans-Serif" font-size="10.00">string</text>
</a>
</g>
</g>
<!-- Node1&#45;&gt;Node3 -->
<g id="edge2_Node000001_Node000003" class="edge">
<title>Node1&#45;&gt;Node3</title>
<g id="a_edge2_Node000001_Node000003"><a xlink:title=" ">
<path fill="none" stroke="#63b8ff" d="M106.69,-55.07C111.79,-46.84 117.66,-37.37 122.67,-29.29"/>
<polygon fill="#63b8ff" stroke="#63b8ff" points="125.53,-31.32 127.83,-20.98 119.58,-27.64 125.53,-31.32"/>
</a>
</g>
</g>
</g>
</svg>
