<?xml version="1.0" encoding="UTF-8" standalone="no"?>
<!DOCTYPE svg PUBLIC "-//W3C//DTD SVG 1.1//EN"
 "http://www.w3.org/Graphics/SVG/1.1/DTD/svg11.dtd">
<!-- Generated by graphviz version 9.0.0 (20230911.1827)
 -->
<!-- Title: /github/workspace/dev_area/sourcecode/dbe/include/dbe/version.hpp Pages: 1 -->
<svg width="730pt" height="128pt"
 viewBox="0.00 0.00 730.25 127.50" xmlns="http://www.w3.org/2000/svg" xmlns:xlink="http://www.w3.org/1999/xlink">
<g id="graph0" class="graph" transform="scale(1 1) rotate(0) translate(4 123.5)">
<title>/github/workspace/dev_area/sourcecode/dbe/include/dbe/version.hpp</title>
<!-- Node1 -->
<g id="Node000001" class="node">
<title>Node1</title>
<g id="a_Node000001"><a xlink:title=" ">
<polygon fill="#999999" stroke="#666666" points="427.62,-119.5 306.62,-119.5 306.62,-77.75 427.62,-77.75 427.62,-119.5"/>
<text text-anchor="start" x="314.62" y="-106" font-family="Helvetica,sans-Serif" font-size="10.00">/github/workspace/dev</text>
<text text-anchor="start" x="314.62" y="-94.75" font-family="Helvetica,sans-Serif" font-size="10.00">_area/sourcecode/dbe</text>
<text text-anchor="middle" x="367.12" y="-83.5" font-family="Helvetica,sans-Serif" font-size="10.00">/include/dbe/version.hpp</text>
</a>
</g>
</g>
<!-- Node2 -->
<g id="Node000002" class="node">
<title>Node2</title>
<g id="a_Node000002"><a xlink:href="MyApplication_8cpp.html" target="_top" xlink:title=" ">
<polygon fill="white" stroke="#666666" points="114.25,-41.75 0,-41.75 0,0 114.25,0 114.25,-41.75"/>
<text text-anchor="start" x="8" y="-28.25" font-family="Helvetica,sans-Serif" font-size="10.00">/github/workspace/dev</text>
<text text-anchor="start" x="8" y="-17" font-family="Helvetica,sans-Serif" font-size="10.00">_area/sourcecode/dbe</text>
<text text-anchor="middle" x="57.12" y="-5.75" font-family="Helvetica,sans-Serif" font-size="10.00">/src/MyApplication.cpp</text>
</a>
</g>
</g>
<!-- Node1&#45;&gt;Node2 -->
<g id="edge1_Node000001_Node000002" class="edge">
<title>Node1&#45;&gt;Node2</title>
<g id="a_edge1_Node000001_Node000002"><a xlink:title=" ">
<path fill="none" stroke="#63b8ff" d="M295.11,-82.47C246.36,-71.88 180.61,-56.97 123.12,-41.75 120.35,-41.01 117.51,-40.24 114.65,-39.45"/>
<polygon fill="#63b8ff" stroke="#63b8ff" points="294.19,-85.85 304.7,-84.54 295.67,-79.01 294.19,-85.85"/>
</a>
</g>
</g>
<!-- Node3 -->
<g id="Node000003" class="node">
<title>Node3</title>
<g id="a_Node000003"><a xlink:href="MainWindow_8cpp.html" target="_top" xlink:title=" ">
<polygon fill="white" stroke="#666666" points="275.88,-41.75 132.38,-41.75 132.38,0 275.88,0 275.88,-41.75"/>
<text text-anchor="start" x="140.38" y="-28.25" font-family="Helvetica,sans-Serif" font-size="10.00">/github/workspace/dev</text>
<text text-anchor="start" x="140.38" y="-17" font-family="Helvetica,sans-Serif" font-size="10.00">_area/sourcecode/dbe</text>
<text text-anchor="middle" x="204.12" y="-5.75" font-family="Helvetica,sans-Serif" font-size="10.00">/src/internal/MainWindow.cpp</text>
</a>
</g>
</g>
<!-- Node1&#45;&gt;Node3 -->
<g id="edge2_Node000001_Node000003" class="edge">
<title>Node1&#45;&gt;Node3</title>
<g id="a_edge2_Node000001_Node000003"><a xlink:title=" ">
<path fill="none" stroke="#63b8ff" d="M313.29,-72.61C292.08,-62.75 268.04,-51.58 247.93,-42.23"/>
<polygon fill="#63b8ff" stroke="#63b8ff" points="311.53,-75.65 322.07,-76.69 314.48,-69.3 311.53,-75.65"/>
</a>
</g>
</g>
<!-- Node4 -->
<g id="Node000004" class="node">
<title>Node4</title>
<g id="a_Node000004"><a xlink:href="confaccessor_8cpp.html" target="_top" xlink:title=" ">
<polygon fill="white" stroke="#666666" points="440.38,-41.75 293.88,-41.75 293.88,0 440.38,0 440.38,-41.75"/>
<text text-anchor="start" x="301.88" y="-28.25" font-family="Helvetica,sans-Serif" font-size="10.00">/github/workspace/dev</text>
<text text-anchor="start" x="301.88" y="-17" font-family="Helvetica,sans-Serif" font-size="10.00">_area/sourcecode/dbe</text>
<text text-anchor="middle" x="367.12" y="-5.75" font-family="Helvetica,sans-Serif" font-size="10.00">/src/internal/confaccessor.cpp</text>
</a>
</g>
</g>
<!-- Node1&#45;&gt;Node4 -->
<g id="edge3_Node000001_Node000004" class="edge">
<title>Node1&#45;&gt;Node4</title>
<g id="a_edge3_Node000001_Node000004"><a xlink:title=" ">
<path fill="none" stroke="#63b8ff" d="M367.12,-66C367.12,-57.96 367.12,-49.54 367.12,-42.23"/>
<polygon fill="#63b8ff" stroke="#63b8ff" points="363.63,-65.81 367.13,-75.81 370.63,-65.81 363.63,-65.81"/>
</a>
</g>
</g>
<!-- Node5 -->
<g id="Node000005" class="node">
<title>Node5</title>
<g id="a_Node000005"><a xlink:href="config__api_8cpp.html" target="_top" xlink:title=" ">
<polygon fill="white" stroke="#666666" points="589.88,-41.75 458.38,-41.75 458.38,0 589.88,0 589.88,-41.75"/>
<text text-anchor="start" x="466.38" y="-28.25" font-family="Helvetica,sans-Serif" font-size="10.00">/github/workspace/dev</text>
<text text-anchor="start" x="466.38" y="-17" font-family="Helvetica,sans-Serif" font-size="10.00">_area/sourcecode/dbe</text>
<text text-anchor="middle" x="524.12" y="-5.75" font-family="Helvetica,sans-Serif" font-size="10.00">/src/internal/config_api.cpp</text>
</a>
</g>
</g>
<!-- Node1&#45;&gt;Node5 -->
<g id="edge4_Node000001_Node000005" class="edge">
<title>Node1&#45;&gt;Node5</title>
<g id="a_edge4_Node000001_Node000005"><a xlink:title=" ">
<path fill="none" stroke="#63b8ff" d="M419.54,-72.34C439.83,-62.55 462.74,-51.49 481.94,-42.23"/>
<polygon fill="#63b8ff" stroke="#63b8ff" points="418.05,-69.17 410.56,-76.67 421.09,-75.47 418.05,-69.17"/>
</a>
</g>
</g>
<!-- Node6 -->
<g id="Node000006" class="node">
<title>Node6</title>
<g id="a_Node000006"><a xlink:href="tree_8cpp.html" target="_top" xlink:title=" ">
<polygon fill="white" stroke="#666666" points="722.25,-41.75 608,-41.75 608,0 722.25,0 722.25,-41.75"/>
<text text-anchor="start" x="616" y="-28.25" font-family="Helvetica,sans-Serif" font-size="10.00">/github/workspace/dev</text>
<text text-anchor="start" x="616" y="-17" font-family="Helvetica,sans-Serif" font-size="10.00">_area/sourcecode/dbe</text>
<text text-anchor="middle" x="665.12" y="-5.75" font-family="Helvetica,sans-Serif" font-size="10.00">/src/structure/tree.cpp</text>
</a>
</g>
</g>
<!-- Node1&#45;&gt;Node6 -->
<g id="edge5_Node000001_Node000006" class="edge">
<title>Node1&#45;&gt;Node6</title>
<g id="a_edge5_Node000001_Node000006"><a xlink:title=" ">
<path fill="none" stroke="#63b8ff" d="M438.99,-81.41C484.95,-70.78 545.74,-56.2 599.12,-41.75 601.9,-41 604.73,-40.21 607.59,-39.41"/>
<polygon fill="#63b8ff" stroke="#63b8ff" points="438.37,-77.97 429.41,-83.62 439.94,-84.79 438.37,-77.97"/>
</a>
</g>
</g>
</g>
</svg>
