<?xml version="1.0" encoding="UTF-8" standalone="no"?>
<!DOCTYPE svg PUBLIC "-//W3C//DTD SVG 1.1//EN"
 "http://www.w3.org/Graphics/SVG/1.1/DTD/svg11.dtd">
<!-- Generated by graphviz version 9.0.0 (20230911.1827)
 -->
<!-- Title: /github/workspace/dev_area/sourcecode/rawdatautils/pybindsrc/WIB2Unpacker.cpp Pages: 1 -->
<svg width="1041pt" height="271pt"
 viewBox="0.00 0.00 1041.38 270.75" xmlns="http://www.w3.org/2000/svg" xmlns:xlink="http://www.w3.org/1999/xlink">
<g id="graph0" class="graph" transform="scale(1 1) rotate(0) translate(4 266.75)">
<title>/github/workspace/dev_area/sourcecode/rawdatautils/pybindsrc/WIB2Unpacker.cpp</title>
<!-- Node1 -->
<g id="Node000001" class="node">
<title>Node1</title>
<g id="a_Node000001"><a xlink:title=" ">
<polygon fill="#999999" stroke="#666666" points="441.25,-262.75 292.5,-262.75 292.5,-221 441.25,-221 441.25,-262.75"/>
<text text-anchor="start" x="300.5" y="-249.25" font-family="Helvetica,sans-Serif" font-size="10.00">/github/workspace/dev</text>
<text text-anchor="start" x="300.5" y="-238" font-family="Helvetica,sans-Serif" font-size="10.00">_area/sourcecode/rawdatautils</text>
<text text-anchor="middle" x="366.88" y="-226.75" font-family="Helvetica,sans-Serif" font-size="10.00">/pybindsrc/WIB2Unpacker.cpp</text>
</a>
</g>
</g>
<!-- Node2 -->
<g id="Node000002" class="node">
<title>Node2</title>
<g id="a_Node000002"><a xlink:href="WIB2Frame_8hpp.html" target="_top" xlink:title=" ">
<polygon fill="white" stroke="#666666" points="197,-129.75 34.75,-129.75 34.75,-110.5 197,-110.5 197,-129.75"/>
<text text-anchor="middle" x="115.88" y="-116.25" font-family="Helvetica,sans-Serif" font-size="10.00">fddetdataformats/WIB2Frame.hpp</text>
</a>
</g>
</g>
<!-- Node1&#45;&gt;Node2 -->
<g id="edge1_Node000001_Node000002" class="edge">
<title>Node1&#45;&gt;Node2</title>
<g id="a_edge1_Node000001_Node000002"><a xlink:title=" ">
<path fill="none" stroke="#63b8ff" d="M298.93,-220.62C271,-211.26 238.73,-199.08 210.88,-185 183.66,-171.25 154.94,-151.04 136.3,-137.05"/>
<polygon fill="#63b8ff" stroke="#63b8ff" points="138.57,-134.38 128.5,-131.1 134.33,-139.94 138.57,-134.38"/>
</a>
</g>
</g>
<!-- Node5 -->
<g id="Node000005" class="node">
<title>Node5</title>
<g id="a_Node000005"><a xlink:title=" ">
<polygon fill="#e0e0e0" stroke="#999999" points="327.5,-19.25 282.25,-19.25 282.25,0 327.5,0 327.5,-19.25"/>
<text text-anchor="middle" x="304.88" y="-5.75" font-family="Helvetica,sans-Serif" font-size="10.00">cstdint</text>
</a>
</g>
</g>
<!-- Node1&#45;&gt;Node5 -->
<g id="edge43_Node000001_Node000005" class="edge">
<title>Node1&#45;&gt;Node5</title>
<g id="a_edge43_Node000001_Node000005"><a xlink:title=" ">
<path fill="none" stroke="#63b8ff" d="M343.76,-220.57C312.89,-191.73 259.65,-135.57 238.88,-74.5 236.12,-66.4 234.86,-62.81 238.88,-55.25 245.99,-41.85 259.12,-31.74 271.81,-24.56"/>
<polygon fill="#63b8ff" stroke="#63b8ff" points="273.14,-27.82 280.42,-20.12 269.93,-21.6 273.14,-27.82"/>
</a>
</g>
</g>
<!-- Node9 -->
<g id="Node000009" class="node">
<title>Node9</title>
<g id="a_Node000009"><a xlink:href="Fragment_8hpp.html" target="_top" xlink:title=" ">
<polygon fill="white" stroke="#666666" points="604.75,-185 459,-185 459,-165.75 604.75,-165.75 604.75,-185"/>
<text text-anchor="middle" x="531.88" y="-171.5" font-family="Helvetica,sans-Serif" font-size="10.00">daqdataformats/Fragment.hpp</text>
</a>
</g>
</g>
<!-- Node1&#45;&gt;Node9 -->
<g id="edge8_Node000001_Node000009" class="edge">
<title>Node1&#45;&gt;Node9</title>
<g id="a_edge8_Node000001_Node000009"><a xlink:title=" ">
<path fill="none" stroke="#63b8ff" d="M418.63,-220.64C444.62,-210.48 475.36,-198.47 498.25,-189.52"/>
<polygon fill="#63b8ff" stroke="#63b8ff" points="499.35,-192.85 507.39,-185.95 496.8,-186.33 499.35,-192.85"/>
</a>
</g>
</g>
<!-- Node29 -->
<g id="Node000029" class="node">
<title>Node29</title>
<g id="a_Node000029"><a xlink:title=" ">
<polygon fill="#e0e0e0" stroke="#999999" points="716.5,-185 623.25,-185 623.25,-165.75 716.5,-165.75 716.5,-185"/>
<text text-anchor="middle" x="669.88" y="-171.5" font-family="Helvetica,sans-Serif" font-size="10.00">pybind11/numpy.h</text>
</a>
</g>
</g>
<!-- Node1&#45;&gt;Node29 -->
<g id="edge44_Node000001_Node000029" class="edge">
<title>Node1&#45;&gt;Node29</title>
<g id="a_edge44_Node000001_Node000029"><a xlink:title=" ">
<path fill="none" stroke="#63b8ff" d="M441.39,-225.01C495.4,-213.51 567.21,-198.23 615.8,-187.89"/>
<polygon fill="#63b8ff" stroke="#63b8ff" points="616.48,-191.32 625.54,-185.81 615.03,-184.47 616.48,-191.32"/>
</a>
</g>
</g>
<!-- Node3 -->
<g id="Node000003" class="node">
<title>Node3</title>
<g id="a_Node000003"><a xlink:title=" ">
<polygon fill="#e0e0e0" stroke="#999999" points="55.75,-74.5 0,-74.5 0,-55.25 55.75,-55.25 55.75,-74.5"/>
<text text-anchor="middle" x="27.88" y="-61" font-family="Helvetica,sans-Serif" font-size="10.00">algorithm</text>
</a>
</g>
</g>
<!-- Node2&#45;&gt;Node3 -->
<g id="edge2_Node000002_Node000003" class="edge">
<title>Node2&#45;&gt;Node3</title>
<g id="a_edge2_Node000002_Node000003"><a xlink:title=" ">
<path fill="none" stroke="#63b8ff" d="M100.95,-110.09C87.67,-102.06 68.01,-90.16 52.42,-80.73"/>
<polygon fill="#63b8ff" stroke="#63b8ff" points="54.54,-77.92 44.17,-75.74 50.91,-83.91 54.54,-77.92"/>
</a>
</g>
</g>
<!-- Node4 -->
<g id="Node000004" class="node">
<title>Node4</title>
<g id="a_Node000004"><a xlink:title=" ">
<polygon fill="#e0e0e0" stroke="#999999" points="186,-19.25 137.75,-19.25 137.75,0 186,0 186,-19.25"/>
<text text-anchor="middle" x="161.88" y="-5.75" font-family="Helvetica,sans-Serif" font-size="10.00">cassert</text>
</a>
</g>
</g>
<!-- Node2&#45;&gt;Node4 -->
<g id="edge3_Node000002_Node000004" class="edge">
<title>Node2&#45;&gt;Node4</title>
<g id="a_edge3_Node000002_Node000004"><a xlink:title=" ">
<path fill="none" stroke="#63b8ff" d="M111.91,-110.39C106.74,-97.64 99.3,-73.45 107.88,-55.25 113.59,-43.12 124.39,-33.16 134.85,-25.75"/>
<polygon fill="#63b8ff" stroke="#63b8ff" points="136.45,-28.89 142.93,-20.5 132.63,-23.02 136.45,-28.89"/>
</a>
</g>
</g>
<!-- Node2&#45;&gt;Node5 -->
<g id="edge4_Node000002_Node000005" class="edge">
<title>Node2&#45;&gt;Node5</title>
<g id="a_edge4_Node000002_Node000005"><a xlink:title=" ">
<path fill="none" stroke="#63b8ff" d="M116.83,-110.28C118.79,-96.48 124.57,-69.89 140.88,-55.25 177.03,-22.78 234.53,-13.62 270.96,-11.22"/>
<polygon fill="#63b8ff" stroke="#63b8ff" points="270.67,-14.73 280.48,-10.73 270.31,-7.74 270.67,-14.73"/>
</a>
</g>
</g>
<!-- Node6 -->
<g id="Node000006" class="node">
<title>Node6</title>
<g id="a_Node000006"><a xlink:title=" ">
<polygon fill="#e0e0e0" stroke="#999999" points="192,-74.5 149.75,-74.5 149.75,-55.25 192,-55.25 192,-74.5"/>
<text text-anchor="middle" x="170.88" y="-61" font-family="Helvetica,sans-Serif" font-size="10.00">cstdio</text>
</a>
</g>
</g>
<!-- Node2&#45;&gt;Node6 -->
<g id="edge5_Node000002_Node000006" class="edge">
<title>Node2&#45;&gt;Node6</title>
<g id="a_edge5_Node000002_Node000006"><a xlink:title=" ">
<path fill="none" stroke="#63b8ff" d="M124.96,-110.33C132.71,-102.82 144.09,-91.81 153.57,-82.63"/>
<polygon fill="#63b8ff" stroke="#63b8ff" points="155.76,-85.38 160.51,-75.91 150.89,-80.35 155.76,-85.38"/>
</a>
</g>
</g>
<!-- Node7 -->
<g id="Node000007" class="node">
<title>Node7</title>
<g id="a_Node000007"><a xlink:title=" ">
<polygon fill="#e0e0e0" stroke="#999999" points="368.12,-74.5 323.62,-74.5 323.62,-55.25 368.12,-55.25 368.12,-74.5"/>
<text text-anchor="middle" x="345.88" y="-61" font-family="Helvetica,sans-Serif" font-size="10.00">cstdlib</text>
</a>
</g>
</g>
<!-- Node2&#45;&gt;Node7 -->
<g id="edge6_Node000002_Node000007" class="edge">
<title>Node2&#45;&gt;Node7</title>
<g id="a_edge6_Node000002_Node000007"><a xlink:title=" ">
<path fill="none" stroke="#63b8ff" d="M159.5,-110.01C197.55,-101.91 254.49,-89.43 312.4,-75.03"/>
<polygon fill="#63b8ff" stroke="#63b8ff" points="312.91,-78.51 321.76,-72.69 311.2,-71.72 312.91,-78.51"/>
</a>
</g>
</g>
<!-- Node8 -->
<g id="Node000008" class="node">
<title>Node8</title>
<g id="a_Node000008"><a xlink:title=" ">
<polygon fill="#e0e0e0" stroke="#999999" points="305.88,-74.5 247.88,-74.5 247.88,-55.25 305.88,-55.25 305.88,-74.5"/>
<text text-anchor="middle" x="276.88" y="-61" font-family="Helvetica,sans-Serif" font-size="10.00">stdexcept</text>
</a>
</g>
</g>
<!-- Node2&#45;&gt;Node8 -->
<g id="edge7_Node000002_Node000008" class="edge">
<title>Node2&#45;&gt;Node8</title>
<g id="a_edge7_Node000002_Node000008"><a xlink:title=" ">
<path fill="none" stroke="#63b8ff" d="M143.19,-110.09C169.44,-101.41 209.35,-88.21 238.73,-78.49"/>
<polygon fill="#63b8ff" stroke="#63b8ff" points="239.6,-81.89 247.99,-75.43 237.4,-75.24 239.6,-81.89"/>
</a>
</g>
</g>
<!-- Node9&#45;&gt;Node5 -->
<g id="edge35_Node000009_Node000005" class="edge">
<title>Node9&#45;&gt;Node5</title>
<g id="a_edge35_Node000009_Node000005"><a xlink:title=" ">
<path fill="none" stroke="#63b8ff" d="M486.34,-165.3C462.78,-158.71 434.85,-147.69 414.88,-129.75 387.22,-104.91 402.04,-82.6 376.88,-55.25 365.37,-42.75 349.58,-32.44 335.72,-24.89"/>
<polygon fill="#63b8ff" stroke="#63b8ff" points="337.44,-21.84 326.95,-20.36 334.23,-28.06 337.44,-21.84"/>
</a>
</g>
</g>
<!-- Node9&#45;&gt;Node7 -->
<g id="edge36_Node000009_Node000007" class="edge">
<title>Node9&#45;&gt;Node7</title>
<g id="a_edge36_Node000009_Node000007"><a xlink:title=" ">
<path fill="none" stroke="#63b8ff" d="M462.82,-165.31C435.37,-158.95 404.92,-148.13 381.88,-129.75 367.57,-118.34 357.98,-99.6 352.32,-85.37"/>
<polygon fill="#63b8ff" stroke="#63b8ff" points="355.68,-84.36 348.99,-76.15 349.09,-86.74 355.68,-84.36"/>
</a>
</g>
</g>
<!-- Node9&#45;&gt;Node8 -->
<g id="edge40_Node000009_Node000008" class="edge">
<title>Node9&#45;&gt;Node8</title>
<g id="a_edge40_Node000009_Node000008"><a xlink:title=" ">
<path fill="none" stroke="#63b8ff" d="M475.6,-165.3C441.53,-158.43 397.86,-147.16 361.88,-129.75 336.32,-117.39 310.79,-96.82 294.48,-82.37"/>
<polygon fill="#63b8ff" stroke="#63b8ff" points="296.88,-79.83 287.13,-75.7 292.18,-85.01 296.88,-79.83"/>
</a>
</g>
</g>
<!-- Node10 -->
<g id="Node000010" class="node">
<title>Node10</title>
<g id="a_Node000010"><a xlink:href="FragmentHeader_8hpp.html" target="_top" xlink:title=" ">
<polygon fill="white" stroke="#666666" points="852.5,-129.75 675.25,-129.75 675.25,-110.5 852.5,-110.5 852.5,-129.75"/>
<text text-anchor="middle" x="763.88" y="-116.25" font-family="Helvetica,sans-Serif" font-size="10.00">daqdataformats/FragmentHeader.hpp</text>
</a>
</g>
</g>
<!-- Node9&#45;&gt;Node10 -->
<g id="edge9_Node000009_Node000010" class="edge">
<title>Node9&#45;&gt;Node10</title>
<g id="a_edge9_Node000009_Node000010"><a xlink:title=" ">
<path fill="none" stroke="#63b8ff" d="M571.49,-165.28C610.7,-156.28 670.86,-142.48 713.45,-132.7"/>
<polygon fill="#63b8ff" stroke="#63b8ff" points="713.98,-136.17 722.94,-130.52 712.42,-129.35 713.98,-136.17"/>
</a>
</g>
</g>
<!-- Node11 -->
<g id="Node000011" class="node">
<title>Node11</title>
<g id="a_Node000011"><a xlink:href="SourceID_8hpp.html" target="_top" xlink:title=" ">
<polygon fill="white" stroke="#666666" points="717.38,-74.5 572.38,-74.5 572.38,-55.25 717.38,-55.25 717.38,-74.5"/>
<text text-anchor="middle" x="644.88" y="-61" font-family="Helvetica,sans-Serif" font-size="10.00">daqdataformats/SourceID.hpp</text>
</a>
</g>
</g>
<!-- Node9&#45;&gt;Node11 -->
<g id="edge32_Node000009_Node000011" class="edge">
<title>Node9&#45;&gt;Node11</title>
<g id="a_edge32_Node000009_Node000011"><a xlink:title=" ">
<path fill="none" stroke="#63b8ff" d="M550.28,-165.36C565.31,-157.4 586.5,-144.74 601.88,-129.75 615.47,-116.49 627.21,-98.28 634.98,-84.7"/>
<polygon fill="#63b8ff" stroke="#63b8ff" points="637.84,-86.76 639.58,-76.31 631.7,-83.39 637.84,-86.76"/>
</a>
</g>
</g>
<!-- Node21 -->
<g id="Node000021" class="node">
<title>Node21</title>
<g id="a_Node000021"><a xlink:href="daqdataformats_2include_2daqdataformats_2Types_8hpp.html" target="_top" xlink:title=" ">
<polygon fill="white" stroke="#666666" points="554.25,-74.5 423.5,-74.5 423.5,-55.25 554.25,-55.25 554.25,-74.5"/>
<text text-anchor="middle" x="488.88" y="-61" font-family="Helvetica,sans-Serif" font-size="10.00">daqdataformats/Types.hpp</text>
</a>
</g>
</g>
<!-- Node9&#45;&gt;Node21 -->
<g id="edge33_Node000009_Node000021" class="edge">
<title>Node9&#45;&gt;Node21</title>
<g id="a_edge33_Node000009_Node000021"><a xlink:title=" ">
<path fill="none" stroke="#63b8ff" d="M549.79,-165.3C570.64,-153.48 600.57,-131.79 586.88,-110.5 577.25,-95.54 561.24,-85.54 544.92,-78.87"/>
<polygon fill="#63b8ff" stroke="#63b8ff" points="546.23,-75.62 535.64,-75.47 543.83,-82.2 546.23,-75.62"/>
</a>
</g>
</g>
<!-- Node22 -->
<g id="Node000022" class="node">
<title>Node22</title>
<g id="a_Node000022"><a xlink:title=" ">
<polygon fill="#e0e0e0" stroke="#999999" points="903.88,-74.5 863.88,-74.5 863.88,-55.25 903.88,-55.25 903.88,-74.5"/>
<text text-anchor="middle" x="883.88" y="-61" font-family="Helvetica,sans-Serif" font-size="10.00">bitset</text>
</a>
</g>
</g>
<!-- Node9&#45;&gt;Node22 -->
<g id="edge34_Node000009_Node000022" class="edge">
<title>Node9&#45;&gt;Node22</title>
<g id="a_edge34_Node000009_Node000022"><a xlink:title=" ">
<path fill="none" stroke="#63b8ff" d="M605.13,-166.43C699.32,-155.93 852.03,-137.83 861.88,-129.75 874.78,-119.17 880.14,-100.61 882.35,-86.22"/>
<polygon fill="#63b8ff" stroke="#63b8ff" points="885.81,-86.77 883.43,-76.45 878.85,-86 885.81,-86.77"/>
</a>
</g>
</g>
<!-- Node24 -->
<g id="Node000024" class="node">
<title>Node24</title>
<g id="a_Node000024"><a xlink:title=" ">
<polygon fill="#e0e0e0" stroke="#999999" points="972.12,-74.5 921.62,-74.5 921.62,-55.25 972.12,-55.25 972.12,-74.5"/>
<text text-anchor="middle" x="946.88" y="-61" font-family="Helvetica,sans-Serif" font-size="10.00">numeric</text>
</a>
</g>
</g>
<!-- Node9&#45;&gt;Node24 -->
<g id="edge39_Node000009_Node000024" class="edge">
<title>Node9&#45;&gt;Node24</title>
<g id="a_edge39_Node000009_Node000024"><a xlink:title=" ">
<path fill="none" stroke="#63b8ff" d="M604.89,-166.27C703.8,-155.11 869.56,-135.72 881.88,-129.75 903.59,-119.21 922.51,-98.55 934.25,-83.57"/>
<polygon fill="#63b8ff" stroke="#63b8ff" points="936.79,-86.02 939.98,-75.92 931.19,-81.82 936.79,-86.02"/>
</a>
</g>
</g>
<!-- Node25 -->
<g id="Node000025" class="node">
<title>Node25</title>
<g id="a_Node000025"><a xlink:title=" ">
<polygon fill="#e0e0e0" stroke="#999999" points="1033.38,-74.5 990.38,-74.5 990.38,-55.25 1033.38,-55.25 1033.38,-74.5"/>
<text text-anchor="middle" x="1011.88" y="-61" font-family="Helvetica,sans-Serif" font-size="10.00">vector</text>
</a>
</g>
</g>
<!-- Node9&#45;&gt;Node25 -->
<g id="edge42_Node000009_Node000025" class="edge">
<title>Node9&#45;&gt;Node25</title>
<g id="a_edge42_Node000009_Node000025"><a xlink:title=" ">
<path fill="none" stroke="#63b8ff" d="M605.05,-166.54C710.65,-155.11 894.74,-134.69 908.88,-129.75 940.31,-118.76 972.24,-96.94 992.04,-81.89"/>
<polygon fill="#63b8ff" stroke="#63b8ff" points="994.05,-84.76 999.79,-75.85 989.75,-79.24 994.05,-84.76"/>
</a>
</g>
</g>
<!-- Node26 -->
<g id="Node000026" class="node">
<title>Node26</title>
<g id="a_Node000026"><a xlink:title=" ">
<polygon fill="#e0e0e0" stroke="#999999" points="469.5,-129.75 424.25,-129.75 424.25,-110.5 469.5,-110.5 469.5,-129.75"/>
<text text-anchor="middle" x="446.88" y="-116.25" font-family="Helvetica,sans-Serif" font-size="10.00">cstring</text>
</a>
</g>
</g>
<!-- Node9&#45;&gt;Node26 -->
<g id="edge37_Node000009_Node000026" class="edge">
<title>Node9&#45;&gt;Node26</title>
<g id="a_edge37_Node000009_Node000026"><a xlink:title=" ">
<path fill="none" stroke="#63b8ff" d="M517.46,-165.34C504.76,-157.39 486,-145.64 471.02,-136.25"/>
<polygon fill="#63b8ff" stroke="#63b8ff" points="472.98,-133.35 462.65,-131.01 469.26,-139.28 472.98,-133.35"/>
</a>
</g>
</g>
<!-- Node27 -->
<g id="Node000027" class="node">
<title>Node27</title>
<g id="a_Node000027"><a xlink:title=" ">
<polygon fill="#e0e0e0" stroke="#999999" points="521.88,-129.75 487.88,-129.75 487.88,-110.5 521.88,-110.5 521.88,-129.75"/>
<text text-anchor="middle" x="504.88" y="-116.25" font-family="Helvetica,sans-Serif" font-size="10.00">new</text>
</a>
</g>
</g>
<!-- Node9&#45;&gt;Node27 -->
<g id="edge38_Node000009_Node000027" class="edge">
<title>Node9&#45;&gt;Node27</title>
<g id="a_edge38_Node000009_Node000027"><a xlink:title=" ">
<path fill="none" stroke="#63b8ff" d="M527.42,-165.58C523.92,-158.69 518.93,-148.84 514.53,-140.16"/>
<polygon fill="#63b8ff" stroke="#63b8ff" points="517.76,-138.8 510.11,-131.46 511.52,-141.96 517.76,-138.8"/>
</a>
</g>
</g>
<!-- Node28 -->
<g id="Node000028" class="node">
<title>Node28</title>
<g id="a_Node000028"><a xlink:title=" ">
<polygon fill="#e0e0e0" stroke="#999999" points="578.12,-129.75 539.62,-129.75 539.62,-110.5 578.12,-110.5 578.12,-129.75"/>
<text text-anchor="middle" x="558.88" y="-116.25" font-family="Helvetica,sans-Serif" font-size="10.00">utility</text>
</a>
</g>
</g>
<!-- Node9&#45;&gt;Node28 -->
<g id="edge41_Node000009_Node000028" class="edge">
<title>Node9&#45;&gt;Node28</title>
<g id="a_edge41_Node000009_Node000028"><a xlink:title=" ">
<path fill="none" stroke="#63b8ff" d="M536.33,-165.58C539.83,-158.69 544.82,-148.84 549.22,-140.16"/>
<polygon fill="#63b8ff" stroke="#63b8ff" points="552.23,-141.96 553.64,-131.46 545.99,-138.8 552.23,-141.96"/>
</a>
</g>
</g>
<!-- Node10&#45;&gt;Node7 -->
<g id="edge27_Node000010_Node000007" class="edge">
<title>Node10&#45;&gt;Node7</title>
<g id="a_edge27_Node000010_Node000007"><a xlink:title=" ">
<path fill="none" stroke="#63b8ff" d="M692.49,-110.03C601.43,-98.43 447.61,-78.84 379.76,-70.19"/>
<polygon fill="#63b8ff" stroke="#63b8ff" points="380.36,-66.74 370,-68.95 379.48,-73.68 380.36,-66.74"/>
</a>
</g>
</g>
<!-- Node10&#45;&gt;Node11 -->
<g id="edge10_Node000010_Node000011" class="edge">
<title>Node10&#45;&gt;Node11</title>
<g id="a_edge10_Node000010_Node000011"><a xlink:title=" ">
<path fill="none" stroke="#63b8ff" d="M743.69,-110.09C724.97,-101.72 696.85,-89.13 675.39,-79.53"/>
<polygon fill="#63b8ff" stroke="#63b8ff" points="677.1,-76.46 666.54,-75.57 674.24,-82.85 677.1,-76.46"/>
</a>
</g>
</g>
<!-- Node12 -->
<g id="Node000012" class="node">
<title>Node12</title>
<g id="a_Node000012"><a xlink:title=" ">
<polygon fill="#e0e0e0" stroke="#999999" points="895,-19.25 846.75,-19.25 846.75,0 895,0 895,-19.25"/>
<text text-anchor="middle" x="870.88" y="-5.75" font-family="Helvetica,sans-Serif" font-size="10.00">cstddef</text>
</a>
</g>
</g>
<!-- Node10&#45;&gt;Node12 -->
<g id="edge26_Node000010_Node000012" class="edge">
<title>Node10&#45;&gt;Node12</title>
<g id="a_edge26_Node000010_Node000012"><a xlink:title=" ">
<path fill="none" stroke="#63b8ff" d="M761.25,-110.39C757.84,-97.21 753.58,-71.98 764.88,-55.25 773.27,-42.82 808.34,-29.6 835.88,-20.81"/>
<polygon fill="#63b8ff" stroke="#63b8ff" points="836.78,-24.19 845.29,-17.89 834.7,-17.51 836.78,-24.19"/>
</a>
</g>
</g>
<!-- Node18 -->
<g id="Node000018" class="node">
<title>Node18</title>
<g id="a_Node000018"><a xlink:title=" ">
<polygon fill="#e0e0e0" stroke="#999999" points="952.88,-19.25 912.88,-19.25 912.88,0 952.88,0 952.88,-19.25"/>
<text text-anchor="middle" x="932.88" y="-5.75" font-family="Helvetica,sans-Serif" font-size="10.00">string</text>
</a>
</g>
</g>
<!-- Node10&#45;&gt;Node18 -->
<g id="edge30_Node000010_Node000018" class="edge">
<title>Node10&#45;&gt;Node18</title>
<g id="a_edge30_Node000010_Node000018"><a xlink:title=" ">
<path fill="none" stroke="#63b8ff" d="M775.99,-110.08C793.21,-97.36 825.87,-73.67 854.88,-55.25 871.67,-44.58 891.1,-33.46 906.36,-24.99"/>
<polygon fill="#63b8ff" stroke="#63b8ff" points="907.78,-28.21 914.85,-20.32 904.4,-22.08 907.78,-28.21"/>
</a>
</g>
</g>
<!-- Node10&#45;&gt;Node21 -->
<g id="edge22_Node000010_Node000021" class="edge">
<title>Node10&#45;&gt;Node21</title>
<g id="a_edge22_Node000010_Node000021"><a xlink:title=" ">
<path fill="none" stroke="#63b8ff" d="M716.91,-110.03C669.85,-100.92 597.31,-86.87 546.72,-77.08"/>
<polygon fill="#63b8ff" stroke="#63b8ff" points="547.61,-73.68 537.13,-75.22 546.28,-80.56 547.61,-73.68"/>
</a>
</g>
</g>
<!-- Node10&#45;&gt;Node22 -->
<g id="edge25_Node000010_Node000022" class="edge">
<title>Node10&#45;&gt;Node22</title>
<g id="a_edge25_Node000010_Node000022"><a xlink:title=" ">
<path fill="none" stroke="#63b8ff" d="M784.23,-110.09C803.11,-101.72 831.46,-89.13 853.1,-79.53"/>
<polygon fill="#63b8ff" stroke="#63b8ff" points="854.31,-82.82 862.04,-75.57 851.48,-76.42 854.31,-82.82"/>
</a>
</g>
</g>
<!-- Node23 -->
<g id="Node000023" class="node">
<title>Node23</title>
<g id="a_Node000023"><a xlink:title=" ">
<polygon fill="#e0e0e0" stroke="#999999" points="808.25,-74.5 773.5,-74.5 773.5,-55.25 808.25,-55.25 808.25,-74.5"/>
<text text-anchor="middle" x="790.88" y="-61" font-family="Helvetica,sans-Serif" font-size="10.00">map</text>
</a>
</g>
</g>
<!-- Node10&#45;&gt;Node23 -->
<g id="edge28_Node000010_Node000023" class="edge">
<title>Node10&#45;&gt;Node23</title>
<g id="a_edge28_Node000010_Node000023"><a xlink:title=" ">
<path fill="none" stroke="#63b8ff" d="M768.33,-110.33C771.83,-103.44 776.82,-93.59 781.22,-84.91"/>
<polygon fill="#63b8ff" stroke="#63b8ff" points="784.23,-86.71 785.64,-76.21 777.99,-83.55 784.23,-86.71"/>
</a>
</g>
</g>
<!-- Node10&#45;&gt;Node24 -->
<g id="edge29_Node000010_Node000024" class="edge">
<title>Node10&#45;&gt;Node24</title>
<g id="a_edge29_Node000010_Node000024"><a xlink:title=" ">
<path fill="none" stroke="#63b8ff" d="M794.92,-110.09C826.89,-100.79 876.7,-86.3 910.5,-76.46"/>
<polygon fill="#63b8ff" stroke="#63b8ff" points="911.22,-79.89 919.85,-73.74 909.27,-73.17 911.22,-79.89"/>
</a>
</g>
</g>
<!-- Node10&#45;&gt;Node25 -->
<g id="edge31_Node000010_Node000025" class="edge">
<title>Node10&#45;&gt;Node25</title>
<g id="a_edge31_Node000010_Node000025"><a xlink:title=" ">
<path fill="none" stroke="#63b8ff" d="M812.78,-110.06C854.49,-102.11 916.27,-89.8 979.01,-74.82"/>
<polygon fill="#63b8ff" stroke="#63b8ff" points="979.54,-78.29 988.44,-72.54 977.89,-71.48 979.54,-78.29"/>
</a>
</g>
</g>
<!-- Node11&#45;&gt;Node4 -->
<g id="edge11_Node000011_Node000004" class="edge">
<title>Node11&#45;&gt;Node4</title>
<g id="a_edge11_Node000011_Node000004"><a xlink:title=" ">
<path fill="none" stroke="#63b8ff" d="M572.04,-55.85C466.89,-44.25 276.52,-23.26 197.62,-14.57"/>
<polygon fill="#63b8ff" stroke="#63b8ff" points="198.2,-11.11 187.88,-13.49 197.44,-18.07 198.2,-11.11"/>
</a>
</g>
</g>
<!-- Node11&#45;&gt;Node5 -->
<g id="edge13_Node000011_Node000005" class="edge">
<title>Node11&#45;&gt;Node5</title>
<g id="a_edge13_Node000011_Node000005"><a xlink:title=" ">
<path fill="none" stroke="#63b8ff" d="M571.99,-56.02C511.72,-48.91 423.73,-37.14 338.95,-19.69"/>
<polygon fill="#63b8ff" stroke="#63b8ff" points="339.8,-16.29 329.3,-17.67 338.37,-23.14 339.8,-16.29"/>
</a>
</g>
</g>
<!-- Node11&#45;&gt;Node12 -->
<g id="edge12_Node000011_Node000012" class="edge">
<title>Node11&#45;&gt;Node12</title>
<g id="a_edge12_Node000011_Node000012"><a xlink:title=" ">
<path fill="none" stroke="#63b8ff" d="M685.62,-54.81C722.37,-46.55 778.17,-33.82 835.32,-19.83"/>
<polygon fill="#63b8ff" stroke="#63b8ff" points="836.04,-23.26 844.92,-17.47 834.37,-16.46 836.04,-23.26"/>
</a>
</g>
</g>
<!-- Node13 -->
<g id="Node000013" class="node">
<title>Node13</title>
<g id="a_Node000013"><a xlink:title=" ">
<polygon fill="#e0e0e0" stroke="#999999" points="762.75,-19.25 713,-19.25 713,0 762.75,0 762.75,-19.25"/>
<text text-anchor="middle" x="737.88" y="-5.75" font-family="Helvetica,sans-Serif" font-size="10.00">iomanip</text>
</a>
</g>
</g>
<!-- Node11&#45;&gt;Node13 -->
<g id="edge14_Node000011_Node000013" class="edge">
<title>Node11&#45;&gt;Node13</title>
<g id="a_edge14_Node000011_Node000013"><a xlink:title=" ">
<path fill="none" stroke="#63b8ff" d="M660.65,-54.84C674.81,-46.73 695.86,-34.68 712.4,-25.21"/>
<polygon fill="#63b8ff" stroke="#63b8ff" points="713.77,-28.46 720.71,-20.45 710.29,-22.39 713.77,-28.46"/>
</a>
</g>
</g>
<!-- Node14 -->
<g id="Node000014" class="node">
<title>Node14</title>
<g id="a_Node000014"><a xlink:title=" ">
<polygon fill="#e0e0e0" stroke="#999999" points="829,-19.25 780.75,-19.25 780.75,0 829,0 829,-19.25"/>
<text text-anchor="middle" x="804.88" y="-5.75" font-family="Helvetica,sans-Serif" font-size="10.00">istream</text>
</a>
</g>
</g>
<!-- Node11&#45;&gt;Node14 -->
<g id="edge15_Node000011_Node000014" class="edge">
<title>Node11&#45;&gt;Node14</title>
<g id="a_edge15_Node000011_Node000014"><a xlink:title=" ">
<path fill="none" stroke="#63b8ff" d="M672.02,-54.84C698.98,-45.87 740.43,-32.07 769.86,-22.28"/>
<polygon fill="#63b8ff" stroke="#63b8ff" points="770.67,-25.7 779.05,-19.22 768.46,-19.06 770.67,-25.7"/>
</a>
</g>
</g>
<!-- Node15 -->
<g id="Node000015" class="node">
<title>Node15</title>
<g id="a_Node000015"><a xlink:title=" ">
<polygon fill="#e0e0e0" stroke="#999999" points="384.5,-19.25 345.25,-19.25 345.25,0 384.5,0 384.5,-19.25"/>
<text text-anchor="middle" x="364.88" y="-5.75" font-family="Helvetica,sans-Serif" font-size="10.00">limits</text>
</a>
</g>
</g>
<!-- Node11&#45;&gt;Node15 -->
<g id="edge16_Node000011_Node000015" class="edge">
<title>Node11&#45;&gt;Node15</title>
<g id="a_edge16_Node000011_Node000015"><a xlink:title=" ">
<path fill="none" stroke="#63b8ff" d="M580.73,-54.76C532.13,-47.34 463.54,-35.78 395.84,-19.75"/>
<polygon fill="#63b8ff" stroke="#63b8ff" points="396.99,-16.43 386.45,-17.5 395.36,-23.24 396.99,-16.43"/>
</a>
</g>
</g>
<!-- Node16 -->
<g id="Node000016" class="node">
<title>Node16</title>
<g id="a_Node000016"><a xlink:title=" ">
<polygon fill="#e0e0e0" stroke="#999999" points="453.5,-19.25 402.25,-19.25 402.25,0 453.5,0 453.5,-19.25"/>
<text text-anchor="middle" x="427.88" y="-5.75" font-family="Helvetica,sans-Serif" font-size="10.00">ostream</text>
</a>
</g>
</g>
<!-- Node11&#45;&gt;Node16 -->
<g id="edge17_Node000011_Node000016" class="edge">
<title>Node11&#45;&gt;Node16</title>
<g id="a_edge17_Node000011_Node000016"><a xlink:title=" ">
<path fill="none" stroke="#63b8ff" d="M607.35,-54.83C572.65,-46.45 519.36,-33.51 464.78,-19.96"/>
<polygon fill="#63b8ff" stroke="#63b8ff" points="465.88,-16.62 455.33,-17.61 464.19,-23.42 465.88,-16.62"/>
</a>
</g>
</g>
<!-- Node17 -->
<g id="Node000017" class="node">
<title>Node17</title>
<g id="a_Node000017"><a xlink:title=" ">
<polygon fill="#e0e0e0" stroke="#999999" points="522.5,-19.25 471.25,-19.25 471.25,0 522.5,0 522.5,-19.25"/>
<text text-anchor="middle" x="496.88" y="-5.75" font-family="Helvetica,sans-Serif" font-size="10.00">sstream</text>
</a>
</g>
</g>
<!-- Node11&#45;&gt;Node17 -->
<g id="edge18_Node000011_Node000017" class="edge">
<title>Node11&#45;&gt;Node17</title>
<g id="a_edge18_Node000011_Node000017"><a xlink:title=" ">
<path fill="none" stroke="#63b8ff" d="M619.77,-54.84C595.85,-46.24 559.59,-33.19 532.65,-23.5"/>
<polygon fill="#63b8ff" stroke="#63b8ff" points="534.12,-20.31 523.53,-20.21 531.75,-26.89 534.12,-20.31"/>
</a>
</g>
</g>
<!-- Node11&#45;&gt;Node18 -->
<g id="edge19_Node000011_Node000018" class="edge">
<title>Node11&#45;&gt;Node18</title>
<g id="a_edge19_Node000011_Node000018"><a xlink:title=" ">
<path fill="none" stroke="#63b8ff" d="M710.5,-54.77C760.55,-47.32 831.35,-35.71 901.83,-19.5"/>
<polygon fill="#63b8ff" stroke="#63b8ff" points="902.26,-22.99 911.2,-17.31 900.67,-16.17 902.26,-22.99"/>
</a>
</g>
</g>
<!-- Node19 -->
<g id="Node000019" class="node">
<title>Node19</title>
<g id="a_Node000019"><a xlink:title=" ">
<polygon fill="#e0e0e0" stroke="#999999" points="577.38,-19.25 540.38,-19.25 540.38,0 577.38,0 577.38,-19.25"/>
<text text-anchor="middle" x="558.88" y="-5.75" font-family="Helvetica,sans-Serif" font-size="10.00">tuple</text>
</a>
</g>
</g>
<!-- Node11&#45;&gt;Node19 -->
<g id="edge20_Node000011_Node000019" class="edge">
<title>Node11&#45;&gt;Node19</title>
<g id="a_edge20_Node000011_Node000019"><a xlink:title=" ">
<path fill="none" stroke="#63b8ff" d="M630.29,-54.84C617.44,-46.89 598.46,-35.14 583.3,-25.75"/>
<polygon fill="#63b8ff" stroke="#63b8ff" points="585.17,-22.79 574.82,-20.5 581.48,-28.74 585.17,-22.79"/>
</a>
</g>
</g>
<!-- Node20 -->
<g id="Node000020" class="node">
<title>Node20</title>
<g id="a_Node000020"><a xlink:href="SourceID_8hxx.html" target="_top" xlink:title=" ">
<polygon fill="white" stroke="#666666" points="694.5,-19.25 595.25,-19.25 595.25,0 694.5,0 694.5,-19.25"/>
<text text-anchor="middle" x="644.88" y="-5.75" font-family="Helvetica,sans-Serif" font-size="10.00">detail/SourceID.hxx</text>
</a>
</g>
</g>
<!-- Node11&#45;&gt;Node20 -->
<g id="edge21_Node000011_Node000020" class="edge">
<title>Node11&#45;&gt;Node20</title>
<g id="a_edge21_Node000011_Node000020"><a xlink:title=" ">
<path fill="none" stroke="#63b8ff" d="M644.88,-55.08C644.88,-48.57 644.88,-39.42 644.88,-31.12"/>
<polygon fill="#63b8ff" stroke="#63b8ff" points="648.38,-31.12 644.88,-21.12 641.38,-31.12 648.38,-31.12"/>
</a>
</g>
</g>
<!-- Node21&#45;&gt;Node5 -->
<g id="edge23_Node000021_Node000005" class="edge">
<title>Node21&#45;&gt;Node5</title>
<g id="a_edge23_Node000021_Node000005"><a xlink:title=" ">
<path fill="none" stroke="#63b8ff" d="M457.66,-54.84C424.59,-45.27 372.55,-30.21 338.57,-20.38"/>
<polygon fill="#63b8ff" stroke="#63b8ff" points="339.82,-17.1 329.24,-17.68 337.88,-23.82 339.82,-17.1"/>
</a>
</g>
</g>
<!-- Node21&#45;&gt;Node15 -->
<g id="edge24_Node000021_Node000015" class="edge">
<title>Node21&#45;&gt;Node15</title>
<g id="a_edge24_Node000021_Node000015"><a xlink:title=" ">
<path fill="none" stroke="#63b8ff" d="M467.84,-54.84C447.89,-46.27 417.69,-33.31 395.15,-23.63"/>
<polygon fill="#63b8ff" stroke="#63b8ff" points="396.74,-20.5 386.17,-19.77 393.98,-26.93 396.74,-20.5"/>
</a>
</g>
</g>
</g>
</svg>
