<?xml version="1.0" encoding="UTF-8" standalone="no"?>
<!DOCTYPE svg PUBLIC "-//W3C//DTD SVG 1.1//EN"
 "http://www.w3.org/Graphics/SVG/1.1/DTD/svg11.dtd">
<!-- Generated by graphviz version 9.0.0 (20230911.1827)
 -->
<!-- Title: /github/workspace/dev_area/sourcecode/wibmod/src/wib.pb.cc Pages: 1 -->
<svg width="2281pt" height="183pt"
 viewBox="0.00 0.00 2280.62 182.75" xmlns="http://www.w3.org/2000/svg" xmlns:xlink="http://www.w3.org/1999/xlink">
<g id="graph0" class="graph" transform="scale(1 1) rotate(0) translate(4 178.75)">
<title>/github/workspace/dev_area/sourcecode/wibmod/src/wib.pb.cc</title>
<!-- Node1 -->
<g id="Node000001" class="node">
<title>Node1</title>
<g id="a_Node000001"><a xlink:title=" ">
<polygon fill="#999999" stroke="#666666" points="1268.12,-174.75 1138.12,-174.75 1138.12,-133 1268.12,-133 1268.12,-174.75"/>
<text text-anchor="start" x="1146.12" y="-161.25" font-family="Helvetica,sans-Serif" font-size="10.00">/github/workspace/dev</text>
<text text-anchor="start" x="1146.12" y="-150" font-family="Helvetica,sans-Serif" font-size="10.00">_area/sourcecode/wibmod</text>
<text text-anchor="middle" x="1203.12" y="-138.75" font-family="Helvetica,sans-Serif" font-size="10.00">/src/wib.pb.cc</text>
</a>
</g>
</g>
<!-- Node2 -->
<g id="Node000002" class="node">
<title>Node2</title>
<g id="a_Node000002"><a xlink:href="wib_8pb_8h.html" target="_top" xlink:title=" ">
<polygon fill="white" stroke="#666666" points="1108.75,-91.38 1057.5,-91.38 1057.5,-72.12 1108.75,-72.12 1108.75,-91.38"/>
<text text-anchor="middle" x="1083.12" y="-77.88" font-family="Helvetica,sans-Serif" font-size="10.00">wib.pb.h</text>
</a>
</g>
</g>
<!-- Node1&#45;&gt;Node2 -->
<g id="edge1_Node000001_Node000002" class="edge">
<title>Node1&#45;&gt;Node2</title>
<g id="a_edge1_Node000001_Node000002"><a xlink:title=" ">
<path fill="none" stroke="#63b8ff" d="M1168.42,-132.59C1149.09,-121.3 1125.48,-107.5 1108,-97.29"/>
<polygon fill="#63b8ff" stroke="#63b8ff" points="1110.21,-94.52 1099.81,-92.5 1106.68,-100.57 1110.21,-94.52"/>
</a>
</g>
</g>
<!-- Node6 -->
<g id="Node000006" class="node">
<title>Node6</title>
<g id="a_Node000006"><a xlink:title=" ">
<polygon fill="#e0e0e0" stroke="#999999" points="102.25,-30.5 0,-30.5 0,0 102.25,0 102.25,-30.5"/>
<text text-anchor="start" x="8" y="-17" font-family="Helvetica,sans-Serif" font-size="10.00">google/protobuf/port</text>
<text text-anchor="middle" x="51.12" y="-5.75" font-family="Helvetica,sans-Serif" font-size="10.00">_def.inc</text>
</a>
</g>
</g>
<!-- Node1&#45;&gt;Node6 -->
<g id="edge29_Node000001_Node000006" class="edge">
<title>Node1&#45;&gt;Node6</title>
<g id="a_edge29_Node000001_Node000006"><a xlink:title=" ">
<path fill="none" stroke="#63b8ff" d="M1137.68,-150.89C1005.25,-146.26 696.21,-132.32 439.12,-97 322.99,-81.05 189.59,-50.56 113.34,-31.95"/>
<polygon fill="#63b8ff" stroke="#63b8ff" points="114.53,-28.64 103.98,-29.66 112.86,-35.44 114.53,-28.64"/>
</a>
</g>
</g>
<!-- Node7 -->
<g id="Node000007" class="node">
<title>Node7</title>
<g id="a_Node000007"><a xlink:title=" ">
<polygon fill="#e0e0e0" stroke="#999999" points="222.25,-30.5 120,-30.5 120,0 222.25,0 222.25,-30.5"/>
<text text-anchor="start" x="128" y="-17" font-family="Helvetica,sans-Serif" font-size="10.00">google/protobuf/port</text>
<text text-anchor="middle" x="171.12" y="-5.75" font-family="Helvetica,sans-Serif" font-size="10.00">_undef.inc</text>
</a>
</g>
</g>
<!-- Node1&#45;&gt;Node7 -->
<g id="edge30_Node000001_Node000007" class="edge">
<title>Node1&#45;&gt;Node7</title>
<g id="a_edge30_Node000001_Node000007"><a xlink:title=" ">
<path fill="none" stroke="#63b8ff" d="M1137.81,-147.7C982.3,-134.72 578,-97.13 233.65,-30.9"/>
<polygon fill="#63b8ff" stroke="#63b8ff" points="234.42,-27.48 223.94,-29.02 233.09,-34.36 234.42,-27.48"/>
</a>
</g>
</g>
<!-- Node8 -->
<g id="Node000008" class="node">
<title>Node8</title>
<g id="a_Node000008"><a xlink:title=" ">
<polygon fill="#e0e0e0" stroke="#999999" points="333.75,-30.5 240.5,-30.5 240.5,0 333.75,0 333.75,-30.5"/>
<text text-anchor="start" x="248.5" y="-17" font-family="Helvetica,sans-Serif" font-size="10.00">google/protobuf/io</text>
<text text-anchor="middle" x="287.12" y="-5.75" font-family="Helvetica,sans-Serif" font-size="10.00">/coded_stream.h</text>
</a>
</g>
</g>
<!-- Node1&#45;&gt;Node8 -->
<g id="edge21_Node000001_Node000008" class="edge">
<title>Node1&#45;&gt;Node8</title>
<g id="a_edge21_Node000001_Node000008"><a xlink:title=" ">
<path fill="none" stroke="#63b8ff" d="M1137.68,-141.26C1036.86,-123.6 837.34,-89.63 667.12,-66.5 526.78,-47.43 487.06,-56.31 345.41,-30.95"/>
<polygon fill="#63b8ff" stroke="#63b8ff" points="346.08,-27.52 335.62,-29.17 344.83,-34.41 346.08,-27.52"/>
</a>
</g>
</g>
<!-- Node15 -->
<g id="Node000015" class="node">
<title>Node15</title>
<g id="a_Node000015"><a xlink:title=" ">
<polygon fill="#e0e0e0" stroke="#999999" points="2127.38,-30.5 1998.88,-30.5 1998.88,0 2127.38,0 2127.38,-30.5"/>
<text text-anchor="start" x="2006.88" y="-17" font-family="Helvetica,sans-Serif" font-size="10.00">google/protobuf/generated</text>
<text text-anchor="middle" x="2063.12" y="-5.75" font-family="Helvetica,sans-Serif" font-size="10.00">_message_reflection.h</text>
</a>
</g>
</g>
<!-- Node1&#45;&gt;Node15 -->
<g id="edge25_Node000001_Node000015" class="edge">
<title>Node1&#45;&gt;Node15</title>
<g id="a_edge25_Node000001_Node000015"><a xlink:title=" ">
<path fill="none" stroke="#63b8ff" d="M1181.02,-132.6C1162.92,-113.61 1143.02,-85.41 1161.12,-66.5 1191.57,-34.7 1878.3,-35.76 1987.3,-30.2"/>
<polygon fill="#63b8ff" stroke="#63b8ff" points="1987.49,-33.69 1997.21,-29.47 1986.98,-26.71 1987.49,-33.69"/>
</a>
</g>
</g>
<!-- Node18 -->
<g id="Node000018" class="node">
<title>Node18</title>
<g id="a_Node000018"><a xlink:title=" ">
<polygon fill="#e0e0e0" stroke="#999999" points="2272.62,-30.5 2145.62,-30.5 2145.62,0 2272.62,0 2272.62,-30.5"/>
<text text-anchor="start" x="2153.62" y="-17" font-family="Helvetica,sans-Serif" font-size="10.00">google/protobuf/extension</text>
<text text-anchor="middle" x="2209.12" y="-5.75" font-family="Helvetica,sans-Serif" font-size="10.00">_set.h</text>
</a>
</g>
</g>
<!-- Node1&#45;&gt;Node18 -->
<g id="edge22_Node000001_Node000018" class="edge">
<title>Node1&#45;&gt;Node18</title>
<g id="a_edge22_Node000001_Node000018"><a xlink:title=" ">
<path fill="none" stroke="#63b8ff" d="M1193.07,-132.51C1185,-112.91 1177.5,-83.77 1194.12,-66.5 1228.95,-30.31 2015.45,-35.97 2134.07,-30.09"/>
<polygon fill="#63b8ff" stroke="#63b8ff" points="2134.28,-33.58 2144,-29.38 2133.78,-26.6 2134.28,-33.58"/>
</a>
</g>
</g>
<!-- Node21 -->
<g id="Node000021" class="node">
<title>Node21</title>
<g id="a_Node000021"><a xlink:title=" ">
<polygon fill="#e0e0e0" stroke="#999999" points="1259,-91.38 1203.25,-91.38 1203.25,-72.12 1259,-72.12 1259,-91.38"/>
<text text-anchor="middle" x="1231.12" y="-77.88" font-family="Helvetica,sans-Serif" font-size="10.00">algorithm</text>
</a>
</g>
</g>
<!-- Node1&#45;&gt;Node21 -->
<g id="edge20_Node000001_Node000021" class="edge">
<title>Node1&#45;&gt;Node21</title>
<g id="a_edge20_Node000001_Node000021"><a xlink:title=" ">
<path fill="none" stroke="#63b8ff" d="M1211.22,-132.59C1215.04,-123.04 1219.57,-111.69 1223.35,-102.23"/>
<polygon fill="#63b8ff" stroke="#63b8ff" points="1226.59,-103.54 1227.05,-92.96 1220.09,-100.95 1226.59,-103.54"/>
</a>
</g>
</g>
<!-- Node22 -->
<g id="Node000022" class="node">
<title>Node22</title>
<g id="a_Node000022"><a xlink:title=" ">
<polygon fill="#e0e0e0" stroke="#999999" points="1381,-97 1277.25,-97 1277.25,-66.5 1381,-66.5 1381,-97"/>
<text text-anchor="start" x="1285.25" y="-83.5" font-family="Helvetica,sans-Serif" font-size="10.00">google/protobuf/wire</text>
<text text-anchor="middle" x="1329.12" y="-72.25" font-family="Helvetica,sans-Serif" font-size="10.00">_format_lite.h</text>
</a>
</g>
</g>
<!-- Node1&#45;&gt;Node22 -->
<g id="edge23_Node000001_Node000022" class="edge">
<title>Node1&#45;&gt;Node22</title>
<g id="a_edge23_Node000001_Node000022"><a xlink:title=" ">
<path fill="none" stroke="#63b8ff" d="M1239.57,-132.59C1256.3,-123.28 1276.09,-112.26 1292.81,-102.96"/>
<polygon fill="#63b8ff" stroke="#63b8ff" points="1294.41,-106.08 1301.44,-98.16 1291,-99.96 1294.41,-106.08"/>
</a>
</g>
</g>
<!-- Node23 -->
<g id="Node000023" class="node">
<title>Node23</title>
<g id="a_Node000023"><a xlink:title=" ">
<polygon fill="#e0e0e0" stroke="#999999" points="1535.12,-91.38 1399.12,-91.38 1399.12,-72.12 1535.12,-72.12 1535.12,-91.38"/>
<text text-anchor="middle" x="1467.12" y="-77.88" font-family="Helvetica,sans-Serif" font-size="10.00">google/protobuf/descriptor.h</text>
</a>
</g>
</g>
<!-- Node1&#45;&gt;Node23 -->
<g id="edge24_Node000001_Node000023" class="edge">
<title>Node1&#45;&gt;Node23</title>
<g id="a_edge24_Node000001_Node000023"><a xlink:title=" ">
<path fill="none" stroke="#63b8ff" d="M1268.38,-135.54C1316.08,-122.87 1379.55,-106.01 1421.79,-94.79"/>
<polygon fill="#63b8ff" stroke="#63b8ff" points="1422.62,-98.19 1431.39,-92.24 1420.82,-91.43 1422.62,-98.19"/>
</a>
</g>
</g>
<!-- Node24 -->
<g id="Node000024" class="node">
<title>Node24</title>
<g id="a_Node000024"><a xlink:title=" ">
<polygon fill="#e0e0e0" stroke="#999999" points="1677.5,-97 1552.75,-97 1552.75,-66.5 1677.5,-66.5 1677.5,-97"/>
<text text-anchor="start" x="1560.75" y="-83.5" font-family="Helvetica,sans-Serif" font-size="10.00">google/protobuf/reflection</text>
<text text-anchor="middle" x="1615.12" y="-72.25" font-family="Helvetica,sans-Serif" font-size="10.00">_ops.h</text>
</a>
</g>
</g>
<!-- Node1&#45;&gt;Node24 -->
<g id="edge26_Node000001_Node000024" class="edge">
<title>Node1&#45;&gt;Node24</title>
<g id="a_edge26_Node000001_Node000024"><a xlink:title=" ">
<path fill="none" stroke="#63b8ff" d="M1268.62,-142.85C1334.87,-132.56 1440.54,-115.7 1541.14,-97.51"/>
<polygon fill="#63b8ff" stroke="#63b8ff" points="1541.73,-100.96 1550.94,-95.73 1540.47,-94.07 1541.73,-100.96"/>
</a>
</g>
</g>
<!-- Node25 -->
<g id="Node000025" class="node">
<title>Node25</title>
<g id="a_Node000025"><a xlink:title=" ">
<polygon fill="#e0e0e0" stroke="#999999" points="1799,-97 1695.25,-97 1695.25,-66.5 1799,-66.5 1799,-97"/>
<text text-anchor="start" x="1703.25" y="-83.5" font-family="Helvetica,sans-Serif" font-size="10.00">google/protobuf/wire</text>
<text text-anchor="middle" x="1747.12" y="-72.25" font-family="Helvetica,sans-Serif" font-size="10.00">_format.h</text>
</a>
</g>
</g>
<!-- Node1&#45;&gt;Node25 -->
<g id="edge27_Node000001_Node000025" class="edge">
<title>Node1&#45;&gt;Node25</title>
<g id="a_edge27_Node000001_Node000025"><a xlink:title=" ">
<path fill="none" stroke="#63b8ff" d="M1268.31,-147.72C1359.24,-139.99 1529.46,-123.63 1683.87,-97.26"/>
<polygon fill="#63b8ff" stroke="#63b8ff" points="1684.21,-100.76 1693.47,-95.61 1683.02,-93.86 1684.21,-100.76"/>
</a>
</g>
</g>
<!-- Node26 -->
<g id="Node000026" class="node">
<title>Node26</title>
<g id="a_Node000026"><a xlink:title=" ">
<polygon fill="#e0e0e0" stroke="#999999" points="1945.38,-97 1816.88,-97 1816.88,-66.5 1945.38,-66.5 1945.38,-97"/>
<text text-anchor="start" x="1824.88" y="-83.5" font-family="Helvetica,sans-Serif" font-size="10.00">google/protobuf/generated</text>
<text text-anchor="middle" x="1881.12" y="-72.25" font-family="Helvetica,sans-Serif" font-size="10.00">_message_tctable_impl.h</text>
</a>
</g>
</g>
<!-- Node1&#45;&gt;Node26 -->
<g id="edge28_Node000001_Node000026" class="edge">
<title>Node1&#45;&gt;Node26</title>
<g id="a_edge28_Node000001_Node000026"><a xlink:title=" ">
<path fill="none" stroke="#63b8ff" d="M1268.29,-149.02C1377.37,-142.08 1604,-125.66 1805.31,-97.31"/>
<polygon fill="#63b8ff" stroke="#63b8ff" points="1805.79,-100.78 1815.2,-95.9 1804.81,-93.85 1805.79,-100.78"/>
</a>
</g>
</g>
<!-- Node3 -->
<g id="Node000003" class="node">
<title>Node3</title>
<g id="a_Node000003"><a xlink:title=" ">
<polygon fill="#e0e0e0" stroke="#999999" points="1922.75,-24.88 1883.5,-24.88 1883.5,-5.63 1922.75,-5.63 1922.75,-24.88"/>
<text text-anchor="middle" x="1903.12" y="-11.38" font-family="Helvetica,sans-Serif" font-size="10.00">limits</text>
</a>
</g>
</g>
<!-- Node2&#45;&gt;Node3 -->
<g id="edge2_Node000002_Node000003" class="edge">
<title>Node2&#45;&gt;Node3</title>
<g id="a_edge2_Node000002_Node000003"><a xlink:title=" ">
<path fill="none" stroke="#63b8ff" d="M1104.8,-71.72C1110.66,-69.65 1117.05,-67.7 1123.12,-66.5 1451.39,-1.65 1551.71,-116.29 1875.12,-30.5 1875.96,-30.28 1876.79,-30.03 1877.62,-29.76"/>
<polygon fill="#63b8ff" stroke="#63b8ff" points="1878.94,-33.01 1886.79,-25.9 1876.22,-26.56 1878.94,-33.01"/>
</a>
</g>
</g>
<!-- Node4 -->
<g id="Node000004" class="node">
<title>Node4</title>
<g id="a_Node000004"><a xlink:title=" ">
<polygon fill="#e0e0e0" stroke="#999999" points="1981.12,-24.88 1941.12,-24.88 1941.12,-5.63 1981.12,-5.63 1981.12,-24.88"/>
<text text-anchor="middle" x="1961.12" y="-11.38" font-family="Helvetica,sans-Serif" font-size="10.00">string</text>
</a>
</g>
</g>
<!-- Node2&#45;&gt;Node4 -->
<g id="edge3_Node000002_Node000004" class="edge">
<title>Node2&#45;&gt;Node4</title>
<g id="a_edge3_Node000002_Node000004"><a xlink:title=" ">
<path fill="none" stroke="#63b8ff" d="M1104.8,-71.71C1110.65,-69.63 1117.05,-67.69 1123.12,-66.5 1476.33,2.66 1583.46,-119.75 1932.12,-30.5 1933.12,-30.24 1934.13,-29.95 1935.13,-29.63"/>
<polygon fill="#63b8ff" stroke="#63b8ff" points="1936.3,-32.93 1944.22,-25.9 1933.64,-26.46 1936.3,-32.93"/>
</a>
</g>
</g>
<!-- Node5 -->
<g id="Node000005" class="node">
<title>Node5</title>
<g id="a_Node000005"><a xlink:title=" ">
<polygon fill="#e0e0e0" stroke="#999999" points="412.62,-24.88 351.62,-24.88 351.62,-5.63 412.62,-5.63 412.62,-24.88"/>
<text text-anchor="middle" x="382.12" y="-11.38" font-family="Helvetica,sans-Serif" font-size="10.00">type_traits</text>
</a>
</g>
</g>
<!-- Node2&#45;&gt;Node5 -->
<g id="edge4_Node000002_Node000005" class="edge">
<title>Node2&#45;&gt;Node5</title>
<g id="a_edge4_Node000002_Node000005"><a xlink:title=" ">
<path fill="none" stroke="#63b8ff" d="M1057.15,-78.15C1026.73,-75.15 974.79,-70.16 930.12,-66.5 704.09,-47.98 642.91,-77.88 421.12,-30.5 418.96,-30.04 416.75,-29.48 414.54,-28.86"/>
<polygon fill="#63b8ff" stroke="#63b8ff" points="415.7,-25.56 405.11,-25.81 413.55,-32.22 415.7,-25.56"/>
</a>
</g>
</g>
<!-- Node2&#45;&gt;Node6 -->
<g id="edge5_Node000002_Node000006" class="edge">
<title>Node2&#45;&gt;Node6</title>
<g id="a_edge5_Node000002_Node000006"><a xlink:title=" ">
<path fill="none" stroke="#63b8ff" d="M1057.05,-81.13C944.92,-82.41 492.66,-83.89 113.91,-30.72"/>
<polygon fill="#63b8ff" stroke="#63b8ff" points="114.61,-27.29 104.22,-29.35 113.63,-34.22 114.61,-27.29"/>
</a>
</g>
</g>
<!-- Node2&#45;&gt;Node7 -->
<g id="edge6_Node000002_Node000007" class="edge">
<title>Node2&#45;&gt;Node7</title>
<g id="a_edge6_Node000002_Node000007"><a xlink:title=" ">
<path fill="none" stroke="#63b8ff" d="M1057.18,-79.83C935.33,-75.42 418.41,-55.67 233.87,-30.68"/>
<polygon fill="#63b8ff" stroke="#63b8ff" points="234.62,-27.25 224.22,-29.32 233.63,-34.19 234.62,-27.25"/>
</a>
</g>
</g>
<!-- Node2&#45;&gt;Node8 -->
<g id="edge7_Node000002_Node000008" class="edge">
<title>Node2&#45;&gt;Node8</title>
<g id="a_edge7_Node000002_Node000008"><a xlink:title=" ">
<path fill="none" stroke="#63b8ff" d="M1057.16,-78.08C1026.74,-75.01 974.81,-69.95 930.12,-66.5 672.77,-46.64 602.69,-70.82 345.31,-30.82"/>
<polygon fill="#63b8ff" stroke="#63b8ff" points="346.02,-27.39 335.6,-29.29 344.93,-34.3 346.02,-27.39"/>
</a>
</g>
</g>
<!-- Node9 -->
<g id="Node000009" class="node">
<title>Node9</title>
<g id="a_Node000009"><a xlink:title=" ">
<polygon fill="#e0e0e0" stroke="#999999" points="547.75,-24.88 430.5,-24.88 430.5,-5.63 547.75,-5.63 547.75,-24.88"/>
<text text-anchor="middle" x="489.12" y="-11.38" font-family="Helvetica,sans-Serif" font-size="10.00">google/protobuf/arena.h</text>
</a>
</g>
</g>
<!-- Node2&#45;&gt;Node9 -->
<g id="edge8_Node000002_Node000009" class="edge">
<title>Node2&#45;&gt;Node9</title>
<g id="a_edge8_Node000002_Node000009"><a xlink:title=" ">
<path fill="none" stroke="#63b8ff" d="M1057.32,-78.33C953.17,-68.56 568.69,-32.43 556.12,-30.5 550.75,-29.68 545.16,-28.69 539.6,-27.63"/>
<polygon fill="#63b8ff" stroke="#63b8ff" points="540.29,-24.2 529.8,-25.67 538.91,-31.06 540.29,-24.2"/>
</a>
</g>
</g>
<!-- Node10 -->
<g id="Node000010" class="node">
<title>Node10</title>
<g id="a_Node000010"><a xlink:title=" ">
<polygon fill="#e0e0e0" stroke="#999999" points="706.75,-24.88 565.5,-24.88 565.5,-5.63 706.75,-5.63 706.75,-24.88"/>
<text text-anchor="middle" x="636.12" y="-11.38" font-family="Helvetica,sans-Serif" font-size="10.00">google/protobuf/arenastring.h</text>
</a>
</g>
</g>
<!-- Node2&#45;&gt;Node10 -->
<g id="edge9_Node000002_Node000010" class="edge">
<title>Node2&#45;&gt;Node10</title>
<g id="a_edge9_Node000002_Node000010"><a xlink:title=" ">
<path fill="none" stroke="#63b8ff" d="M1057.27,-77.57C997.24,-70.12 843.81,-50.61 716.12,-30.5 709.7,-29.49 702.99,-28.38 696.31,-27.24"/>
<polygon fill="#63b8ff" stroke="#63b8ff" points="697.09,-23.82 686.64,-25.56 695.9,-30.72 697.09,-23.82"/>
</a>
</g>
</g>
<!-- Node11 -->
<g id="Node000011" class="node">
<title>Node11</title>
<g id="a_Node000011"><a xlink:title=" ">
<polygon fill="#e0e0e0" stroke="#999999" points="853.38,-30.5 724.88,-30.5 724.88,0 853.38,0 853.38,-30.5"/>
<text text-anchor="start" x="732.88" y="-17" font-family="Helvetica,sans-Serif" font-size="10.00">google/protobuf/generated</text>
<text text-anchor="middle" x="789.12" y="-5.75" font-family="Helvetica,sans-Serif" font-size="10.00">_message_bases.h</text>
</a>
</g>
</g>
<!-- Node2&#45;&gt;Node11 -->
<g id="edge10_Node000002_Node000011" class="edge">
<title>Node2&#45;&gt;Node11</title>
<g id="a_edge10_Node000002_Node000011"><a xlink:title=" ">
<path fill="none" stroke="#63b8ff" d="M1057.03,-75.03C1014.35,-65.66 928.01,-46.72 864.84,-32.86"/>
<polygon fill="#63b8ff" stroke="#63b8ff" points="865.73,-29.47 855.21,-30.75 864.23,-36.31 865.73,-29.47"/>
</a>
</g>
</g>
<!-- Node12 -->
<g id="Node000012" class="node">
<title>Node12</title>
<g id="a_Node000012"><a xlink:title=" ">
<polygon fill="#e0e0e0" stroke="#999999" points="1000.38,-30.5 871.88,-30.5 871.88,0 1000.38,0 1000.38,-30.5"/>
<text text-anchor="start" x="879.88" y="-17" font-family="Helvetica,sans-Serif" font-size="10.00">google/protobuf/generated</text>
<text text-anchor="middle" x="936.12" y="-5.75" font-family="Helvetica,sans-Serif" font-size="10.00">_message_tctable_decl.h</text>
</a>
</g>
</g>
<!-- Node2&#45;&gt;Node12 -->
<g id="edge11_Node000002_Node000012" class="edge">
<title>Node2&#45;&gt;Node12</title>
<g id="a_edge11_Node000002_Node000012"><a xlink:title=" ">
<path fill="none" stroke="#63b8ff" d="M1062.38,-71.65C1041.07,-62.3 1007.25,-47.46 979.98,-35.49"/>
<polygon fill="#63b8ff" stroke="#63b8ff" points="981.46,-32.32 970.9,-31.51 978.65,-38.73 981.46,-32.32"/>
</a>
</g>
</g>
<!-- Node13 -->
<g id="Node000013" class="node">
<title>Node13</title>
<g id="a_Node000013"><a xlink:title=" ">
<polygon fill="#e0e0e0" stroke="#999999" points="1147.38,-30.5 1018.88,-30.5 1018.88,0 1147.38,0 1147.38,-30.5"/>
<text text-anchor="start" x="1026.88" y="-17" font-family="Helvetica,sans-Serif" font-size="10.00">google/protobuf/generated</text>
<text text-anchor="middle" x="1083.12" y="-5.75" font-family="Helvetica,sans-Serif" font-size="10.00">_message_util.h</text>
</a>
</g>
</g>
<!-- Node2&#45;&gt;Node13 -->
<g id="edge12_Node000002_Node000013" class="edge">
<title>Node2&#45;&gt;Node13</title>
<g id="a_edge12_Node000002_Node000013"><a xlink:title=" ">
<path fill="none" stroke="#63b8ff" d="M1083.12,-71.78C1083.12,-64.04 1083.12,-52.45 1083.12,-41.87"/>
<polygon fill="#63b8ff" stroke="#63b8ff" points="1086.63,-42.11 1083.13,-32.11 1079.63,-42.11 1086.63,-42.11"/>
</a>
</g>
</g>
<!-- Node14 -->
<g id="Node000014" class="node">
<title>Node14</title>
<g id="a_Node000014"><a xlink:title=" ">
<polygon fill="#e0e0e0" stroke="#999999" points="1291.25,-30.5 1165,-30.5 1165,0 1291.25,0 1291.25,-30.5"/>
<text text-anchor="start" x="1173" y="-17" font-family="Helvetica,sans-Serif" font-size="10.00">google/protobuf/metadata</text>
<text text-anchor="middle" x="1228.12" y="-5.75" font-family="Helvetica,sans-Serif" font-size="10.00">_lite.h</text>
</a>
</g>
</g>
<!-- Node2&#45;&gt;Node14 -->
<g id="edge13_Node000002_Node000014" class="edge">
<title>Node2&#45;&gt;Node14</title>
<g id="a_edge13_Node000002_Node000014"><a xlink:title=" ">
<path fill="none" stroke="#63b8ff" d="M1103.59,-71.65C1124.61,-62.3 1157.96,-47.46 1184.87,-35.49"/>
<polygon fill="#63b8ff" stroke="#63b8ff" points="1186.1,-38.78 1193.81,-31.51 1183.25,-32.38 1186.1,-38.78"/>
</a>
</g>
</g>
<!-- Node2&#45;&gt;Node15 -->
<g id="edge14_Node000002_Node000015" class="edge">
<title>Node2&#45;&gt;Node15</title>
<g id="a_edge14_Node000002_Node000015"><a xlink:title=" ">
<path fill="none" stroke="#63b8ff" d="M1104.8,-71.7C1110.65,-69.62 1117.05,-67.68 1123.12,-66.5 1498.02,6.32 1605.02,-73.97 1987.33,-30.69"/>
<polygon fill="#63b8ff" stroke="#63b8ff" points="1987.69,-34.17 1997.22,-29.54 1986.88,-27.22 1987.69,-34.17"/>
</a>
</g>
</g>
<!-- Node16 -->
<g id="Node000016" class="node">
<title>Node16</title>
<g id="a_Node000016"><a xlink:title=" ">
<polygon fill="#e0e0e0" stroke="#999999" points="1442.62,-24.88 1309.62,-24.88 1309.62,-5.63 1442.62,-5.63 1442.62,-24.88"/>
<text text-anchor="middle" x="1376.12" y="-11.38" font-family="Helvetica,sans-Serif" font-size="10.00">google/protobuf/message.h</text>
</a>
</g>
</g>
<!-- Node2&#45;&gt;Node16 -->
<g id="edge15_Node000002_Node000016" class="edge">
<title>Node2&#45;&gt;Node16</title>
<g id="a_edge15_Node000002_Node000016"><a xlink:title=" ">
<path fill="none" stroke="#63b8ff" d="M1106.63,-71.73C1112,-69.85 1117.72,-67.99 1123.12,-66.5 1141.6,-61.4 1248.54,-40.65 1317.34,-27.46"/>
<polygon fill="#63b8ff" stroke="#63b8ff" points="1317.8,-30.93 1326.97,-25.61 1316.49,-24.06 1317.8,-30.93"/>
</a>
</g>
</g>
<!-- Node17 -->
<g id="Node000017" class="node">
<title>Node17</title>
<g id="a_Node000017"><a xlink:title=" ">
<polygon fill="#e0e0e0" stroke="#999999" points="1583.75,-30.5 1460.5,-30.5 1460.5,0 1583.75,0 1583.75,-30.5"/>
<text text-anchor="start" x="1468.5" y="-17" font-family="Helvetica,sans-Serif" font-size="10.00">google/protobuf/repeated</text>
<text text-anchor="middle" x="1522.12" y="-5.75" font-family="Helvetica,sans-Serif" font-size="10.00">_field.h</text>
</a>
</g>
</g>
<!-- Node2&#45;&gt;Node17 -->
<g id="edge16_Node000002_Node000017" class="edge">
<title>Node2&#45;&gt;Node17</title>
<g id="a_edge16_Node000002_Node000017"><a xlink:title=" ">
<path fill="none" stroke="#63b8ff" d="M1105.7,-71.68C1111.32,-69.71 1117.38,-67.82 1123.12,-66.5 1262.99,-34.4 1304.76,-52.27 1449.3,-30.83"/>
<polygon fill="#63b8ff" stroke="#63b8ff" points="1449.49,-34.34 1458.85,-29.38 1448.43,-27.42 1449.49,-34.34"/>
</a>
</g>
</g>
<!-- Node2&#45;&gt;Node18 -->
<g id="edge17_Node000002_Node000018" class="edge">
<title>Node2&#45;&gt;Node18</title>
<g id="a_edge17_Node000002_Node000018"><a xlink:title=" ">
<path fill="none" stroke="#63b8ff" d="M1108.99,-75.06C1124.11,-71.98 1143.61,-68.41 1161.12,-66.5 1588.51,-19.82 1703.4,-79.16 2134.3,-30.55"/>
<polygon fill="#63b8ff" stroke="#63b8ff" points="2134.47,-34.06 2144.01,-29.44 2133.68,-27.1 2134.47,-34.06"/>
</a>
</g>
</g>
<!-- Node19 -->
<g id="Node000019" class="node">
<title>Node19</title>
<g id="a_Node000019"><a xlink:title=" ">
<polygon fill="#e0e0e0" stroke="#999999" points="1726.5,-30.5 1601.75,-30.5 1601.75,0 1726.5,0 1726.5,-30.5"/>
<text text-anchor="start" x="1609.75" y="-17" font-family="Helvetica,sans-Serif" font-size="10.00">google/protobuf/unknown</text>
<text text-anchor="middle" x="1664.12" y="-5.75" font-family="Helvetica,sans-Serif" font-size="10.00">_field_set.h</text>
</a>
</g>
</g>
<!-- Node2&#45;&gt;Node19 -->
<g id="edge18_Node000002_Node000019" class="edge">
<title>Node2&#45;&gt;Node19</title>
<g id="a_edge18_Node000002_Node000019"><a xlink:title=" ">
<path fill="none" stroke="#63b8ff" d="M1105.25,-71.69C1110.98,-69.67 1117.21,-67.76 1123.12,-66.5 1324.45,-23.73 1383.53,-57.92 1590.24,-30.77"/>
<polygon fill="#63b8ff" stroke="#63b8ff" points="1590.53,-34.26 1599.98,-29.46 1589.6,-27.33 1590.53,-34.26"/>
</a>
</g>
</g>
<!-- Node20 -->
<g id="Node000020" class="node">
<title>Node20</title>
<g id="a_Node000020"><a xlink:title=" ">
<polygon fill="#e0e0e0" stroke="#999999" points="1865.62,-24.88 1744.62,-24.88 1744.62,-5.63 1865.62,-5.63 1865.62,-24.88"/>
<text text-anchor="middle" x="1805.12" y="-11.38" font-family="Helvetica,sans-Serif" font-size="10.00">google/protobuf/any.pb.h</text>
</a>
</g>
</g>
<!-- Node2&#45;&gt;Node20 -->
<g id="edge19_Node000002_Node000020" class="edge">
<title>Node2&#45;&gt;Node20</title>
<g id="a_edge19_Node000002_Node000020"><a xlink:title=" ">
<path fill="none" stroke="#63b8ff" d="M1104.81,-71.77C1110.66,-69.69 1117.06,-67.73 1123.12,-66.5 1390.14,-12.24 1464.95,-65.77 1735.12,-30.5 1741.27,-29.7 1747.69,-28.66 1754.04,-27.52"/>
<polygon fill="#63b8ff" stroke="#63b8ff" points="1754.66,-30.97 1763.82,-25.66 1753.35,-24.09 1754.66,-30.97"/>
</a>
</g>
</g>
</g>
</svg>
