<?xml version="1.0" encoding="UTF-8" standalone="no"?>
<!DOCTYPE svg PUBLIC "-//W3C//DTD SVG 1.1//EN"
 "http://www.w3.org/Graphics/SVG/1.1/DTD/svg11.dtd">
<!-- Generated by graphviz version 9.0.0 (20230911.1827)
 -->
<!-- Title: /github/workspace/dev_area/sourcecode/wibmod/src/WIB1/WIB_SI5342.cpp Pages: 1 -->
<svg width="1230pt" height="337pt"
 viewBox="0.00 0.00 1229.62 337.25" xmlns="http://www.w3.org/2000/svg" xmlns:xlink="http://www.w3.org/1999/xlink">
<g id="graph0" class="graph" transform="scale(1 1) rotate(0) translate(4 333.25)">
<title>/github/workspace/dev_area/sourcecode/wibmod/src/WIB1/WIB_SI5342.cpp</title>
<!-- Node1 -->
<g id="Node000001" class="node">
<title>Node1</title>
<g id="a_Node000001"><a xlink:title=" ">
<polygon fill="#999999" stroke="#666666" points="1032.38,-329.25 897.12,-329.25 897.12,-287.5 1032.38,-287.5 1032.38,-329.25"/>
<text text-anchor="start" x="905.12" y="-315.75" font-family="Helvetica,sans-Serif" font-size="10.00">/github/workspace/dev</text>
<text text-anchor="start" x="905.12" y="-304.5" font-family="Helvetica,sans-Serif" font-size="10.00">_area/sourcecode/wibmod</text>
<text text-anchor="middle" x="964.75" y="-293.25" font-family="Helvetica,sans-Serif" font-size="10.00">/src/WIB1/WIB_SI5342.cpp</text>
</a>
</g>
</g>
<!-- Node2 -->
<g id="Node000002" class="node">
<title>Node2</title>
<g id="a_Node000002"><a xlink:href="WIB_8hh.html" target="_top" xlink:title=" ">
<polygon fill="white" stroke="#666666" points="350.38,-251.5 239.12,-251.5 239.12,-232.25 350.38,-232.25 350.38,-251.5"/>
<text text-anchor="middle" x="294.75" y="-238" font-family="Helvetica,sans-Serif" font-size="10.00">wibmod/WIB1/WIB.hh</text>
</a>
</g>
</g>
<!-- Node1&#45;&gt;Node2 -->
<g id="edge1_Node000001_Node000002" class="edge">
<title>Node1&#45;&gt;Node2</title>
<g id="a_edge1_Node000001_Node000002"><a xlink:title=" ">
<path fill="none" stroke="#63b8ff" d="M896.82,-300.84C768.13,-288.45 490.23,-261.69 362.04,-249.35"/>
<polygon fill="#63b8ff" stroke="#63b8ff" points="362.64,-245.89 352.35,-248.42 361.97,-252.86 362.64,-245.89"/>
</a>
</g>
</g>
<!-- Node14 -->
<g id="Node000014" class="node">
<title>Node14</title>
<g id="a_Node000014"><a xlink:href="WIBException_8hh.html" target="_top" xlink:title=" ">
<polygon fill="white" stroke="#666666" points="989.38,-251.5 836.12,-251.5 836.12,-232.25 989.38,-232.25 989.38,-251.5"/>
<text text-anchor="middle" x="912.75" y="-238" font-family="Helvetica,sans-Serif" font-size="10.00">wibmod/WIB1/WIBException.hh</text>
</a>
</g>
</g>
<!-- Node1&#45;&gt;Node14 -->
<g id="edge21_Node000001_Node000014" class="edge">
<title>Node1&#45;&gt;Node14</title>
<g id="a_edge21_Node000001_Node000014"><a xlink:title=" ">
<path fill="none" stroke="#63b8ff" d="M948.58,-287.32C941.72,-278.81 933.8,-268.98 927.15,-260.73"/>
<polygon fill="#63b8ff" stroke="#63b8ff" points="930.01,-258.71 921.01,-253.12 924.56,-263.11 930.01,-258.71"/>
</a>
</g>
</g>
<!-- Node20 -->
<g id="Node000020" class="node">
<title>Node20</title>
<g id="a_Node000020"><a xlink:title=" ">
<polygon fill="#e0e0e0" stroke="#999999" points="1221.62,-129.75 1171.88,-129.75 1171.88,-110.5 1221.62,-110.5 1221.62,-129.75"/>
<text text-anchor="middle" x="1196.75" y="-116.25" font-family="Helvetica,sans-Serif" font-size="10.00">unistd.h</text>
</a>
</g>
</g>
<!-- Node1&#45;&gt;Node20 -->
<g id="edge33_Node000001_Node000020" class="edge">
<title>Node1&#45;&gt;Node20</title>
<g id="a_edge33_Node000001_Node000020"><a xlink:title=" ">
<path fill="none" stroke="#63b8ff" d="M982.4,-287.21C996.63,-271.47 1017.53,-249.45 1037.75,-232.25 1082.66,-194.05 1140.49,-156.13 1172.58,-135.97"/>
<polygon fill="#63b8ff" stroke="#63b8ff" points="1174.13,-139.13 1180.76,-130.87 1170.42,-133.19 1174.13,-139.13"/>
</a>
</g>
</g>
<!-- Node24 -->
<g id="Node000024" class="node">
<title>Node24</title>
<g id="a_Node000024"><a xlink:title=" ">
<polygon fill="#e0e0e0" stroke="#999999" points="1095.25,-251.5 1046.25,-251.5 1046.25,-232.25 1095.25,-232.25 1095.25,-251.5"/>
<text text-anchor="middle" x="1070.75" y="-238" font-family="Helvetica,sans-Serif" font-size="10.00">fstream</text>
</a>
</g>
</g>
<!-- Node1&#45;&gt;Node24 -->
<g id="edge32_Node000001_Node000024" class="edge">
<title>Node1&#45;&gt;Node24</title>
<g id="a_edge32_Node000001_Node000024"><a xlink:title=" ">
<path fill="none" stroke="#63b8ff" d="M998,-287.14C1013.63,-277.63 1031.94,-266.49 1046.28,-257.76"/>
<polygon fill="#63b8ff" stroke="#63b8ff" points="1047.91,-260.87 1054.63,-252.68 1044.27,-254.89 1047.91,-260.87"/>
</a>
</g>
</g>
<!-- Node3 -->
<g id="Node000003" class="node">
<title>Node3</title>
<g id="a_Node000003"><a xlink:href="WIBBase_8hh.html" target="_top" xlink:title=" ">
<polygon fill="white" stroke="#666666" points="361.62,-190.62 227.88,-190.62 227.88,-171.38 361.62,-171.38 361.62,-190.62"/>
<text text-anchor="middle" x="294.75" y="-177.12" font-family="Helvetica,sans-Serif" font-size="10.00">wibmod/WIB1/WIBBase.hh</text>
</a>
</g>
</g>
<!-- Node2&#45;&gt;Node3 -->
<g id="edge2_Node000002_Node000003" class="edge">
<title>Node2&#45;&gt;Node3</title>
<g id="a_edge2_Node000002_Node000003"><a xlink:title=" ">
<path fill="none" stroke="#63b8ff" d="M294.75,-231.93C294.75,-224.15 294.75,-212.58 294.75,-202.53"/>
<polygon fill="#63b8ff" stroke="#63b8ff" points="298.25,-202.54 294.75,-192.54 291.25,-202.54 298.25,-202.54"/>
</a>
</g>
</g>
<!-- Node5 -->
<g id="Node000005" class="node">
<title>Node5</title>
<g id="a_Node000005"><a xlink:title=" ">
<polygon fill="#e0e0e0" stroke="#999999" points="47.5,-19.25 0,-19.25 0,0 47.5,0 47.5,-19.25"/>
<text text-anchor="middle" x="23.75" y="-5.75" font-family="Helvetica,sans-Serif" font-size="10.00">stdint.h</text>
</a>
</g>
</g>
<!-- Node2&#45;&gt;Node5 -->
<g id="edge20_Node000002_Node000005" class="edge">
<title>Node2&#45;&gt;Node5</title>
<g id="a_edge20_Node000002_Node000005"><a xlink:title=" ">
<path fill="none" stroke="#63b8ff" d="M264.19,-231.78C207.3,-213.01 86.36,-164.07 35.75,-74.5 28.18,-61.1 25.27,-43.84 24.2,-30.65"/>
<polygon fill="#63b8ff" stroke="#63b8ff" points="27.72,-30.82 23.73,-21.01 20.72,-31.17 27.72,-30.82"/>
</a>
</g>
</g>
<!-- Node4 -->
<g id="Node000004" class="node">
<title>Node4</title>
<g id="a_Node000004"><a xlink:title=" ">
<polygon fill="#e0e0e0" stroke="#999999" points="583.75,-19.25 543.75,-19.25 543.75,0 583.75,0 583.75,-19.25"/>
<text text-anchor="middle" x="563.75" y="-5.75" font-family="Helvetica,sans-Serif" font-size="10.00">string</text>
</a>
</g>
</g>
<!-- Node3&#45;&gt;Node4 -->
<g id="edge3_Node000003_Node000004" class="edge">
<title>Node3&#45;&gt;Node4</title>
<g id="a_edge3_Node000003_Node000004"><a xlink:title=" ">
<path fill="none" stroke="#63b8ff" d="M361.86,-174.67C426.28,-165.57 520.3,-140.97 565.75,-74.5 574.48,-61.74 573.11,-43.94 570.05,-30.38"/>
<polygon fill="#63b8ff" stroke="#63b8ff" points="573.45,-29.54 567.42,-20.83 566.71,-31.4 573.45,-29.54"/>
</a>
</g>
</g>
<!-- Node3&#45;&gt;Node5 -->
<g id="edge4_Node000003_Node000005" class="edge">
<title>Node3&#45;&gt;Node5</title>
<g id="a_edge4_Node000003_Node000005"><a xlink:title=" ">
<path fill="none" stroke="#63b8ff" d="M250.43,-170.91C197.28,-157.93 108.42,-129.34 52.75,-74.5 40.54,-62.47 32.99,-44.36 28.66,-30.49"/>
<polygon fill="#63b8ff" stroke="#63b8ff" points="32.11,-29.81 26.06,-21.11 25.36,-31.68 32.11,-29.81"/>
</a>
</g>
</g>
<!-- Node6 -->
<g id="Node000006" class="node">
<title>Node6</title>
<g id="a_Node000006"><a xlink:href="AddressTable_8hh.html" target="_top" xlink:title=" ">
<polygon fill="white" stroke="#666666" points="371,-129.75 218.5,-129.75 218.5,-110.5 371,-110.5 371,-129.75"/>
<text text-anchor="middle" x="294.75" y="-116.25" font-family="Helvetica,sans-Serif" font-size="10.00">wibmod/WIB1/AddressTable.hh</text>
</a>
</g>
</g>
<!-- Node3&#45;&gt;Node6 -->
<g id="edge5_Node000003_Node000006" class="edge">
<title>Node3&#45;&gt;Node6</title>
<g id="a_edge5_Node000003_Node000006"><a xlink:title=" ">
<path fill="none" stroke="#63b8ff" d="M294.75,-171.06C294.75,-163.28 294.75,-151.7 294.75,-141.66"/>
<polygon fill="#63b8ff" stroke="#63b8ff" points="298.25,-141.66 294.75,-131.66 291.25,-141.66 298.25,-141.66"/>
</a>
</g>
</g>
<!-- Node6&#45;&gt;Node4 -->
<g id="edge6_Node000006_Node000004" class="edge">
<title>Node6&#45;&gt;Node4</title>
<g id="a_edge6_Node000006_Node000004"><a xlink:title=" ">
<path fill="none" stroke="#63b8ff" d="M371.38,-114.18C435.21,-108.52 519.6,-96.97 544.75,-74.5 557.03,-63.53 561.53,-45.02 563.1,-30.74"/>
<polygon fill="#63b8ff" stroke="#63b8ff" points="566.57,-31.3 563.75,-21.09 559.59,-30.83 566.57,-31.3"/>
</a>
</g>
</g>
<!-- Node6&#45;&gt;Node5 -->
<g id="edge10_Node000006_Node000005" class="edge">
<title>Node6&#45;&gt;Node5</title>
<g id="a_edge10_Node000006_Node000005"><a xlink:title=" ">
<path fill="none" stroke="#63b8ff" d="M218.11,-115.16C175.03,-110.1 121.66,-98.93 79.75,-74.5 60.89,-63.5 45.11,-43.86 35.16,-29.25"/>
<polygon fill="#63b8ff" stroke="#63b8ff" points="38.17,-27.47 29.81,-20.97 32.3,-31.27 38.17,-27.47"/>
</a>
</g>
</g>
<!-- Node7 -->
<g id="Node000007" class="node">
<title>Node7</title>
<g id="a_Node000007"><a xlink:title=" ">
<polygon fill="#e0e0e0" stroke="#999999" points="278.25,-19.25 235.25,-19.25 235.25,0 278.25,0 278.25,-19.25"/>
<text text-anchor="middle" x="256.75" y="-5.75" font-family="Helvetica,sans-Serif" font-size="10.00">vector</text>
</a>
</g>
</g>
<!-- Node6&#45;&gt;Node7 -->
<g id="edge7_Node000006_Node000007" class="edge">
<title>Node6&#45;&gt;Node7</title>
<g id="a_edge7_Node000006_Node000007"><a xlink:title=" ">
<path fill="none" stroke="#63b8ff" d="M291.64,-110.25C285.57,-92.92 272.02,-54.23 263.71,-30.49"/>
<polygon fill="#63b8ff" stroke="#63b8ff" points="267.01,-29.34 260.4,-21.06 260.41,-31.65 267.01,-29.34"/>
</a>
</g>
</g>
<!-- Node8 -->
<g id="Node000008" class="node">
<title>Node8</title>
<g id="a_Node000008"><a xlink:title=" ">
<polygon fill="#e0e0e0" stroke="#999999" points="471.62,-19.25 343.88,-19.25 343.88,0 471.62,0 471.62,-19.25"/>
<text text-anchor="middle" x="407.75" y="-5.75" font-family="Helvetica,sans-Serif" font-size="10.00">boost/unordered_map.hpp</text>
</a>
</g>
</g>
<!-- Node6&#45;&gt;Node8 -->
<g id="edge8_Node000006_Node000008" class="edge">
<title>Node6&#45;&gt;Node8</title>
<g id="a_edge8_Node000006_Node000008"><a xlink:title=" ">
<path fill="none" stroke="#63b8ff" d="M295.16,-110.21C296.23,-96.78 300.05,-71.24 313.75,-55.25 326.31,-40.59 344.75,-30.4 361.98,-23.49"/>
<polygon fill="#63b8ff" stroke="#63b8ff" points="362.91,-26.88 371.07,-20.13 360.48,-20.32 362.91,-26.88"/>
</a>
</g>
</g>
<!-- Node9 -->
<g id="Node000009" class="node">
<title>Node9</title>
<g id="a_Node000009"><a xlink:title=" ">
<polygon fill="#e0e0e0" stroke="#999999" points="357.12,-74.5 322.38,-74.5 322.38,-55.25 357.12,-55.25 357.12,-74.5"/>
<text text-anchor="middle" x="339.75" y="-61" font-family="Helvetica,sans-Serif" font-size="10.00">map</text>
</a>
</g>
</g>
<!-- Node6&#45;&gt;Node9 -->
<g id="edge9_Node000006_Node000009" class="edge">
<title>Node6&#45;&gt;Node9</title>
<g id="a_edge9_Node000006_Node000009"><a xlink:title=" ">
<path fill="none" stroke="#63b8ff" d="M302.18,-110.33C308.33,-103.05 317.26,-92.48 324.88,-83.48"/>
<polygon fill="#63b8ff" stroke="#63b8ff" points="327.4,-85.91 331.18,-76.02 322.05,-81.39 327.4,-85.91"/>
</a>
</g>
</g>
<!-- Node10 -->
<g id="Node000010" class="node">
<title>Node10</title>
<g id="a_Node000010"><a xlink:href="ItemConversion_8hh.html" target="_top" xlink:title=" ">
<polygon fill="white" stroke="#666666" points="536.12,-74.5 375.38,-74.5 375.38,-55.25 536.12,-55.25 536.12,-74.5"/>
<text text-anchor="middle" x="455.75" y="-61" font-family="Helvetica,sans-Serif" font-size="10.00">wibmod/WIB1/ItemConversion.hh</text>
</a>
</g>
</g>
<!-- Node6&#45;&gt;Node10 -->
<g id="edge11_Node000006_Node000010" class="edge">
<title>Node6&#45;&gt;Node10</title>
<g id="a_edge11_Node000006_Node000010"><a xlink:title=" ">
<path fill="none" stroke="#63b8ff" d="M322.06,-110.09C348.31,-101.41 388.23,-88.21 417.61,-78.49"/>
<polygon fill="#63b8ff" stroke="#63b8ff" points="418.47,-81.89 426.87,-75.43 416.27,-75.24 418.47,-81.89"/>
</a>
</g>
</g>
<!-- Node11 -->
<g id="Node000011" class="node">
<title>Node11</title>
<g id="a_Node000011"><a xlink:href="BNL__UDP_8hh.html" target="_top" xlink:title=" ">
<polygon fill="white" stroke="#666666" points="228.25,-74.5 89.25,-74.5 89.25,-55.25 228.25,-55.25 228.25,-74.5"/>
<text text-anchor="middle" x="158.75" y="-61" font-family="Helvetica,sans-Serif" font-size="10.00">wibmod/WIB1/BNL_UDP.hh</text>
</a>
</g>
</g>
<!-- Node6&#45;&gt;Node11 -->
<g id="edge14_Node000006_Node000011" class="edge">
<title>Node6&#45;&gt;Node11</title>
<g id="a_edge14_Node000006_Node000011"><a xlink:title=" ">
<path fill="none" stroke="#63b8ff" d="M271.68,-110.09C249.99,-101.6 217.27,-88.79 192.62,-79.14"/>
<polygon fill="#63b8ff" stroke="#63b8ff" points="193.93,-75.89 183.34,-75.5 191.38,-82.41 193.93,-75.89"/>
</a>
</g>
</g>
<!-- Node10&#45;&gt;Node4 -->
<g id="edge12_Node000010_Node000004" class="edge">
<title>Node10&#45;&gt;Node4</title>
<g id="a_edge12_Node000010_Node000004"><a xlink:title=" ">
<path fill="none" stroke="#63b8ff" d="M474.07,-54.84C490.83,-46.58 515.88,-34.23 535.25,-24.68"/>
<polygon fill="#63b8ff" stroke="#63b8ff" points="536.56,-27.93 543.98,-20.37 533.47,-21.65 536.56,-27.93"/>
</a>
</g>
</g>
<!-- Node10&#45;&gt;Node8 -->
<g id="edge13_Node000010_Node000008" class="edge">
<title>Node10&#45;&gt;Node8</title>
<g id="a_edge13_Node000010_Node000008"><a xlink:title=" ">
<path fill="none" stroke="#63b8ff" d="M447.82,-55.08C441.19,-47.73 431.53,-37.01 423.36,-27.94"/>
<polygon fill="#63b8ff" stroke="#63b8ff" points="426.16,-25.82 416.86,-20.73 420.96,-30.5 426.16,-25.82"/>
</a>
</g>
</g>
<!-- Node11&#45;&gt;Node4 -->
<g id="edge15_Node000011_Node000004" class="edge">
<title>Node11&#45;&gt;Node4</title>
<g id="a_edge15_Node000011_Node000004"><a xlink:title=" ">
<path fill="none" stroke="#63b8ff" d="M227.91,-54.78C316.81,-43.09 467.44,-23.29 532.4,-14.75"/>
<polygon fill="#63b8ff" stroke="#63b8ff" points="532.54,-18.26 542,-13.49 531.62,-11.32 532.54,-18.26"/>
</a>
</g>
</g>
<!-- Node11&#45;&gt;Node5 -->
<g id="edge17_Node000011_Node000005" class="edge">
<title>Node11&#45;&gt;Node5</title>
<g id="a_edge17_Node000011_Node000005"><a xlink:title=" ">
<path fill="none" stroke="#63b8ff" d="M135.85,-54.84C114.32,-46.35 81.84,-33.54 57.37,-23.89"/>
<polygon fill="#63b8ff" stroke="#63b8ff" points="58.76,-20.67 48.17,-20.26 56.19,-27.18 58.76,-20.67"/>
</a>
</g>
</g>
<!-- Node11&#45;&gt;Node7 -->
<g id="edge16_Node000011_Node000007" class="edge">
<title>Node11&#45;&gt;Node7</title>
<g id="a_edge16_Node000011_Node000007"><a xlink:title=" ">
<path fill="none" stroke="#63b8ff" d="M175.37,-54.84C190.44,-46.66 212.89,-34.46 230.4,-24.94"/>
<polygon fill="#63b8ff" stroke="#63b8ff" points="231.6,-28.27 238.71,-20.43 228.26,-22.12 231.6,-28.27"/>
</a>
</g>
</g>
<!-- Node12 -->
<g id="Node000012" class="node">
<title>Node12</title>
<g id="a_Node000012"><a xlink:title=" ">
<polygon fill="#e0e0e0" stroke="#999999" points="136.12,-19.25 65.38,-19.25 65.38,0 136.12,0 136.12,-19.25"/>
<text text-anchor="middle" x="100.75" y="-5.75" font-family="Helvetica,sans-Serif" font-size="10.00">sys/socket.h</text>
</a>
</g>
</g>
<!-- Node11&#45;&gt;Node12 -->
<g id="edge18_Node000011_Node000012" class="edge">
<title>Node11&#45;&gt;Node12</title>
<g id="a_edge18_Node000011_Node000012"><a xlink:title=" ">
<path fill="none" stroke="#63b8ff" d="M148.91,-54.84C140.7,-47.3 128.77,-36.35 118.84,-27.23"/>
<polygon fill="#63b8ff" stroke="#63b8ff" points="121.29,-24.73 111.56,-20.55 116.56,-29.89 121.29,-24.73"/>
</a>
</g>
</g>
<!-- Node13 -->
<g id="Node000013" class="node">
<title>Node13</title>
<g id="a_Node000013"><a xlink:title=" ">
<polygon fill="#e0e0e0" stroke="#999999" points="217.38,-19.25 154.12,-19.25 154.12,0 217.38,0 217.38,-19.25"/>
<text text-anchor="middle" x="185.75" y="-5.75" font-family="Helvetica,sans-Serif" font-size="10.00">netinet/ip.h</text>
</a>
</g>
</g>
<!-- Node11&#45;&gt;Node13 -->
<g id="edge19_Node000011_Node000013" class="edge">
<title>Node11&#45;&gt;Node13</title>
<g id="a_edge19_Node000011_Node000013"><a xlink:title=" ">
<path fill="none" stroke="#63b8ff" d="M163.21,-55.08C166.7,-48.19 171.7,-38.34 176.1,-29.66"/>
<polygon fill="#63b8ff" stroke="#63b8ff" points="179.11,-31.46 180.51,-20.96 172.87,-28.3 179.11,-31.46"/>
</a>
</g>
</g>
<!-- Node15 -->
<g id="Node000015" class="node">
<title>Node15</title>
<g id="a_Node000015"><a xlink:href="ExceptionBase_8hh.html" target="_top" xlink:title=" ">
<polygon fill="white" stroke="#666666" points="980.75,-196.25 844.75,-196.25 844.75,-165.75 980.75,-165.75 980.75,-196.25"/>
<text text-anchor="start" x="852.75" y="-182.75" font-family="Helvetica,sans-Serif" font-size="10.00">wibmod/WIB1/BUException</text>
<text text-anchor="middle" x="912.75" y="-171.5" font-family="Helvetica,sans-Serif" font-size="10.00">/ExceptionBase.hh</text>
</a>
</g>
</g>
<!-- Node14&#45;&gt;Node15 -->
<g id="edge22_Node000014_Node000015" class="edge">
<title>Node14&#45;&gt;Node15</title>
<g id="a_edge22_Node000014_Node000015"><a xlink:title=" ">
<path fill="none" stroke="#63b8ff" d="M912.75,-231.93C912.75,-225.48 912.75,-216.41 912.75,-207.76"/>
<polygon fill="#63b8ff" stroke="#63b8ff" points="916.25,-208.05 912.75,-198.05 909.25,-208.05 916.25,-208.05"/>
</a>
</g>
</g>
<!-- Node15&#45;&gt;Node4 -->
<g id="edge25_Node000015_Node000004" class="edge">
<title>Node15&#45;&gt;Node4</title>
<g id="a_edge25_Node000015_Node000004"><a xlink:title=" ">
<path fill="none" stroke="#63b8ff" d="M844.52,-179.1C790.58,-175.56 715.21,-164.09 658.75,-129.75 618.21,-105.09 587.84,-56.5 573.29,-29.63"/>
<polygon fill="#63b8ff" stroke="#63b8ff" points="576.47,-28.16 568.74,-20.91 570.27,-31.4 576.47,-28.16"/>
</a>
</g>
</g>
<!-- Node16 -->
<g id="Node000016" class="node">
<title>Node16</title>
<g id="a_Node000016"><a xlink:title=" ">
<polygon fill="#e0e0e0" stroke="#999999" points="871.38,-129.75 814.12,-129.75 814.12,-110.5 871.38,-110.5 871.38,-129.75"/>
<text text-anchor="middle" x="842.75" y="-116.25" font-family="Helvetica,sans-Serif" font-size="10.00">exception</text>
</a>
</g>
</g>
<!-- Node15&#45;&gt;Node16 -->
<g id="edge23_Node000015_Node000016" class="edge">
<title>Node15&#45;&gt;Node16</title>
<g id="a_edge23_Node000015_Node000016"><a xlink:title=" ">
<path fill="none" stroke="#63b8ff" d="M895.45,-165.45C885.4,-157 872.72,-146.33 862.32,-137.58"/>
<polygon fill="#63b8ff" stroke="#63b8ff" points="864.61,-134.93 854.7,-131.18 860.1,-140.29 864.61,-134.93"/>
</a>
</g>
</g>
<!-- Node17 -->
<g id="Node000017" class="node">
<title>Node17</title>
<g id="a_Node000017"><a xlink:title=" ">
<polygon fill="#e0e0e0" stroke="#999999" points="936.5,-129.75 889,-129.75 889,-110.5 936.5,-110.5 936.5,-129.75"/>
<text text-anchor="middle" x="912.75" y="-116.25" font-family="Helvetica,sans-Serif" font-size="10.00">string.h</text>
</a>
</g>
</g>
<!-- Node15&#45;&gt;Node17 -->
<g id="edge24_Node000015_Node000017" class="edge">
<title>Node15&#45;&gt;Node17</title>
<g id="a_edge24_Node000015_Node000017"><a xlink:title=" ">
<path fill="none" stroke="#63b8ff" d="M912.75,-165.45C912.75,-158.21 912.75,-149.34 912.75,-141.44"/>
<polygon fill="#63b8ff" stroke="#63b8ff" points="916.25,-141.71 912.75,-131.71 909.25,-141.71 916.25,-141.71"/>
</a>
</g>
</g>
<!-- Node18 -->
<g id="Node000018" class="node">
<title>Node18</title>
<g id="a_Node000018"><a xlink:title=" ">
<polygon fill="#e0e0e0" stroke="#999999" points="1001.12,-129.75 954.38,-129.75 954.38,-110.5 1001.12,-110.5 1001.12,-129.75"/>
<text text-anchor="middle" x="977.75" y="-116.25" font-family="Helvetica,sans-Serif" font-size="10.00">stdlib.h</text>
</a>
</g>
</g>
<!-- Node15&#45;&gt;Node18 -->
<g id="edge26_Node000015_Node000018" class="edge">
<title>Node15&#45;&gt;Node18</title>
<g id="a_edge26_Node000015_Node000018"><a xlink:title=" ">
<path fill="none" stroke="#63b8ff" d="M928.82,-165.45C938.05,-157.09 949.68,-146.55 959.28,-137.85"/>
<polygon fill="#63b8ff" stroke="#63b8ff" points="961.55,-140.52 966.61,-131.22 956.85,-135.34 961.55,-140.52"/>
</a>
</g>
</g>
<!-- Node19 -->
<g id="Node000019" class="node">
<title>Node19</title>
<g id="a_Node000019"><a xlink:title=" ">
<polygon fill="#e0e0e0" stroke="#999999" points="1064,-129.75 1019.5,-129.75 1019.5,-110.5 1064,-110.5 1064,-129.75"/>
<text text-anchor="middle" x="1041.75" y="-116.25" font-family="Helvetica,sans-Serif" font-size="10.00">stdio.h</text>
</a>
</g>
</g>
<!-- Node15&#45;&gt;Node19 -->
<g id="edge27_Node000015_Node000019" class="edge">
<title>Node15&#45;&gt;Node19</title>
<g id="a_edge27_Node000015_Node000019"><a xlink:title=" ">
<path fill="none" stroke="#63b8ff" d="M944.97,-165.3C965.37,-155.98 991.58,-144.02 1011.57,-134.9"/>
<polygon fill="#63b8ff" stroke="#63b8ff" points="1012.95,-138.12 1020.59,-130.78 1010.04,-131.75 1012.95,-138.12"/>
</a>
</g>
</g>
<!-- Node15&#45;&gt;Node20 -->
<g id="edge28_Node000015_Node000020" class="edge">
<title>Node15&#45;&gt;Node20</title>
<g id="a_edge28_Node000015_Node000020"><a xlink:title=" ">
<path fill="none" stroke="#63b8ff" d="M981.12,-167.22C1028.82,-158.07 1094.22,-145.11 1160.46,-130.18"/>
<polygon fill="#63b8ff" stroke="#63b8ff" points="1161.08,-133.63 1170.06,-128.01 1159.53,-126.81 1161.08,-133.63"/>
</a>
</g>
</g>
<!-- Node21 -->
<g id="Node000021" class="node">
<title>Node21</title>
<g id="a_Node000021"><a xlink:title=" ">
<polygon fill="#e0e0e0" stroke="#999999" points="1153.5,-129.75 1082,-129.75 1082,-110.5 1153.5,-110.5 1153.5,-129.75"/>
<text text-anchor="middle" x="1117.75" y="-116.25" font-family="Helvetica,sans-Serif" font-size="10.00">sys/syscall.h</text>
</a>
</g>
</g>
<!-- Node15&#45;&gt;Node21 -->
<g id="edge29_Node000015_Node000021" class="edge">
<title>Node15&#45;&gt;Node21</title>
<g id="a_edge29_Node000015_Node000021"><a xlink:title=" ">
<path fill="none" stroke="#63b8ff" d="M963.95,-165.3C998.22,-155.45 1042.79,-142.65 1075.12,-133.37"/>
<polygon fill="#63b8ff" stroke="#63b8ff" points="1075.91,-136.78 1084.55,-130.66 1073.98,-130.05 1075.91,-136.78"/>
</a>
</g>
</g>
<!-- Node22 -->
<g id="Node000022" class="node">
<title>Node22</title>
<g id="a_Node000022"><a xlink:title=" ">
<polygon fill="#e0e0e0" stroke="#999999" points="727.5,-129.75 668,-129.75 668,-110.5 727.5,-110.5 727.5,-129.75"/>
<text text-anchor="middle" x="697.75" y="-116.25" font-family="Helvetica,sans-Serif" font-size="10.00">execinfo.h</text>
</a>
</g>
</g>
<!-- Node15&#45;&gt;Node22 -->
<g id="edge30_Node000015_Node000022" class="edge">
<title>Node15&#45;&gt;Node22</title>
<g id="a_edge30_Node000015_Node000022"><a xlink:title=" ">
<path fill="none" stroke="#63b8ff" d="M859.05,-165.3C821.84,-155.11 773.04,-141.74 738.9,-132.39"/>
<polygon fill="#63b8ff" stroke="#63b8ff" points="739.95,-129.05 729.38,-129.79 738.1,-135.8 739.95,-129.05"/>
</a>
</g>
</g>
<!-- Node23 -->
<g id="Node000023" class="node">
<title>Node23</title>
<g id="a_Node000023"><a xlink:title=" ">
<polygon fill="#e0e0e0" stroke="#999999" points="796,-129.75 745.5,-129.75 745.5,-110.5 796,-110.5 796,-129.75"/>
<text text-anchor="middle" x="770.75" y="-116.25" font-family="Helvetica,sans-Serif" font-size="10.00">cxxabi.h</text>
</a>
</g>
</g>
<!-- Node15&#45;&gt;Node23 -->
<g id="edge31_Node000015_Node000023" class="edge">
<title>Node15&#45;&gt;Node23</title>
<g id="a_edge31_Node000015_Node000023"><a xlink:title=" ">
<path fill="none" stroke="#63b8ff" d="M877.28,-165.3C854.51,-155.85 825.18,-143.69 803.06,-134.52"/>
<polygon fill="#63b8ff" stroke="#63b8ff" points="804.5,-131.33 793.93,-130.73 801.82,-137.8 804.5,-131.33"/>
</a>
</g>
</g>
</g>
</svg>
