<?xml version="1.0" encoding="UTF-8" standalone="no"?>
<!DOCTYPE svg PUBLIC "-//W3C//DTD SVG 1.1//EN"
 "http://www.w3.org/Graphics/SVG/1.1/DTD/svg11.dtd">
<!-- Generated by graphviz version 9.0.0 (20230911.1827)
 -->
<!-- Title: /github/workspace/dev_area/sourcecode/wibmod/src/wibmod/WIB1/WIBBase.hh Pages: 1 -->
<svg width="529pt" height="216pt"
 viewBox="0.00 0.00 529.07 215.50" xmlns="http://www.w3.org/2000/svg" xmlns:xlink="http://www.w3.org/1999/xlink">
<g id="graph0" class="graph" transform="scale(1 1) rotate(0) translate(4 211.5)">
<title>/github/workspace/dev_area/sourcecode/wibmod/src/wibmod/WIB1/WIBBase.hh</title>
<!-- Node1 -->
<g id="Node000001" class="node">
<title>Node1</title>
<g id="a_Node000001"><a xlink:title=" ">
<polygon fill="#999999" stroke="#666666" points="332.95,-207.5 179.7,-207.5 179.7,-165.75 332.95,-165.75 332.95,-207.5"/>
<text text-anchor="start" x="187.7" y="-194" font-family="Helvetica,sans-Serif" font-size="10.00">/github/workspace/dev</text>
<text text-anchor="start" x="187.7" y="-182.75" font-family="Helvetica,sans-Serif" font-size="10.00">_area/sourcecode/wibmod</text>
<text text-anchor="middle" x="256.32" y="-171.5" font-family="Helvetica,sans-Serif" font-size="10.00">/src/wibmod/WIB1/WIBBase.hh</text>
</a>
</g>
</g>
<!-- Node2 -->
<g id="Node000002" class="node">
<title>Node2</title>
<g id="a_Node000002"><a xlink:title=" ">
<polygon fill="#e0e0e0" stroke="#999999" points="46.32,-19.25 6.32,-19.25 6.32,0 46.32,0 46.32,-19.25"/>
<text text-anchor="middle" x="26.32" y="-5.75" font-family="Helvetica,sans-Serif" font-size="10.00">string</text>
</a>
</g>
</g>
<!-- Node1&#45;&gt;Node2 -->
<g id="edge1_Node000001_Node000002" class="edge">
<title>Node1&#45;&gt;Node2</title>
<g id="a_edge1_Node000001_Node000002"><a xlink:title=" ">
<path fill="none" stroke="#63b8ff" d="M179.35,-174.43C120.37,-161.38 42.78,-133.48 4.32,-74.5 -4.86,-60.41 3.15,-42.05 11.98,-28.64"/>
<polygon fill="#63b8ff" stroke="#63b8ff" points="14.68,-30.87 17.72,-20.72 9.02,-26.76 14.68,-30.87"/>
</a>
</g>
</g>
<!-- Node3 -->
<g id="Node000003" class="node">
<title>Node3</title>
<g id="a_Node000003"><a xlink:title=" ">
<polygon fill="#e0e0e0" stroke="#999999" points="521.07,-19.25 473.57,-19.25 473.57,0 521.07,0 521.07,-19.25"/>
<text text-anchor="middle" x="497.32" y="-5.75" font-family="Helvetica,sans-Serif" font-size="10.00">stdint.h</text>
</a>
</g>
</g>
<!-- Node1&#45;&gt;Node3 -->
<g id="edge2_Node000001_Node000003" class="edge">
<title>Node1&#45;&gt;Node3</title>
<g id="a_edge2_Node000001_Node000003"><a xlink:title=" ">
<path fill="none" stroke="#63b8ff" d="M333.21,-165.4C382.08,-148.72 442.96,-120.21 480.32,-74.5 490.44,-62.12 494.58,-44.29 496.25,-30.62"/>
<polygon fill="#63b8ff" stroke="#63b8ff" points="499.71,-31.27 497.07,-21.01 492.74,-30.67 499.71,-31.27"/>
</a>
</g>
</g>
<!-- Node4 -->
<g id="Node000004" class="node">
<title>Node4</title>
<g id="a_Node000004"><a xlink:href="AddressTable_8hh.html" target="_top" xlink:title=" ">
<polygon fill="white" stroke="#666666" points="332.57,-129.75 180.07,-129.75 180.07,-110.5 332.57,-110.5 332.57,-129.75"/>
<text text-anchor="middle" x="256.32" y="-116.25" font-family="Helvetica,sans-Serif" font-size="10.00">wibmod/WIB1/AddressTable.hh</text>
</a>
</g>
</g>
<!-- Node1&#45;&gt;Node4 -->
<g id="edge3_Node000001_Node000004" class="edge">
<title>Node1&#45;&gt;Node4</title>
<g id="a_edge3_Node000001_Node000004"><a xlink:title=" ">
<path fill="none" stroke="#63b8ff" d="M256.32,-165.57C256.32,-157.9 256.32,-149.14 256.32,-141.45"/>
<polygon fill="#63b8ff" stroke="#63b8ff" points="259.82,-141.71 256.32,-131.71 252.82,-141.71 259.82,-141.71"/>
</a>
</g>
</g>
<!-- Node4&#45;&gt;Node2 -->
<g id="edge4_Node000004_Node000002" class="edge">
<title>Node4&#45;&gt;Node2</title>
<g id="a_edge4_Node000004_Node000002"><a xlink:title=" ">
<path fill="none" stroke="#63b8ff" d="M179.86,-115.42C117.05,-110.58 35.17,-99.54 14.32,-74.5 3.96,-62.05 9,-43.46 15.42,-29.55"/>
<polygon fill="#63b8ff" stroke="#63b8ff" points="18.39,-31.42 19.9,-20.94 12.18,-28.19 18.39,-31.42"/>
</a>
</g>
</g>
<!-- Node4&#45;&gt;Node3 -->
<g id="edge8_Node000004_Node000003" class="edge">
<title>Node4&#45;&gt;Node3</title>
<g id="a_edge8_Node000004_Node000003"><a xlink:title=" ">
<path fill="none" stroke="#63b8ff" d="M332.66,-116.16C372.83,-111.34 421.12,-100.07 457.32,-74.5 472.84,-63.54 483.62,-44.47 490.05,-30.01"/>
<polygon fill="#63b8ff" stroke="#63b8ff" points="493.17,-31.63 493.71,-21.05 486.69,-28.98 493.17,-31.63"/>
</a>
</g>
</g>
<!-- Node5 -->
<g id="Node000005" class="node">
<title>Node5</title>
<g id="a_Node000005"><a xlink:title=" ">
<polygon fill="#e0e0e0" stroke="#999999" points="454.82,-19.25 411.82,-19.25 411.82,0 454.82,0 454.82,-19.25"/>
<text text-anchor="middle" x="433.32" y="-5.75" font-family="Helvetica,sans-Serif" font-size="10.00">vector</text>
</a>
</g>
</g>
<!-- Node4&#45;&gt;Node5 -->
<g id="edge5_Node000004_Node000005" class="edge">
<title>Node4&#45;&gt;Node5</title>
<g id="a_edge5_Node000004_Node000005"><a xlink:title=" ">
<path fill="none" stroke="#63b8ff" d="M332.58,-110.17C376.93,-103.23 426.71,-91.81 440.32,-74.5 450.13,-62.03 446.88,-43.71 442.06,-29.88"/>
<polygon fill="#63b8ff" stroke="#63b8ff" points="445.44,-28.92 438.45,-20.95 438.95,-31.54 445.44,-28.92"/>
</a>
</g>
</g>
<!-- Node6 -->
<g id="Node000006" class="node">
<title>Node6</title>
<g id="a_Node000006"><a xlink:title=" ">
<polygon fill="#e0e0e0" stroke="#999999" points="195.2,-19.25 67.45,-19.25 67.45,0 195.2,0 195.2,-19.25"/>
<text text-anchor="middle" x="131.32" y="-5.75" font-family="Helvetica,sans-Serif" font-size="10.00">boost/unordered_map.hpp</text>
</a>
</g>
</g>
<!-- Node4&#45;&gt;Node6 -->
<g id="edge6_Node000004_Node000006" class="edge">
<title>Node4&#45;&gt;Node6</title>
<g id="a_edge6_Node000004_Node000006"><a xlink:title=" ">
<path fill="none" stroke="#63b8ff" d="M248.03,-110.01C236.2,-97.2 213.55,-73.42 192.32,-55.25 180.18,-44.85 165.77,-34.24 154.01,-25.97"/>
<polygon fill="#63b8ff" stroke="#63b8ff" points="156.32,-23.32 146.1,-20.5 152.33,-29.07 156.32,-23.32"/>
</a>
</g>
</g>
<!-- Node7 -->
<g id="Node000007" class="node">
<title>Node7</title>
<g id="a_Node000007"><a xlink:title=" ">
<polygon fill="#e0e0e0" stroke="#999999" points="273.7,-74.5 238.95,-74.5 238.95,-55.25 273.7,-55.25 273.7,-74.5"/>
<text text-anchor="middle" x="256.32" y="-61" font-family="Helvetica,sans-Serif" font-size="10.00">map</text>
</a>
</g>
</g>
<!-- Node4&#45;&gt;Node7 -->
<g id="edge7_Node000004_Node000007" class="edge">
<title>Node4&#45;&gt;Node7</title>
<g id="a_edge7_Node000004_Node000007"><a xlink:title=" ">
<path fill="none" stroke="#63b8ff" d="M256.32,-110.33C256.32,-103.82 256.32,-94.67 256.32,-86.37"/>
<polygon fill="#63b8ff" stroke="#63b8ff" points="259.82,-86.37 256.32,-76.37 252.82,-86.37 259.82,-86.37"/>
</a>
</g>
</g>
<!-- Node8 -->
<g id="Node000008" class="node">
<title>Node8</title>
<g id="a_Node000008"><a xlink:href="ItemConversion_8hh.html" target="_top" xlink:title=" ">
<polygon fill="white" stroke="#666666" points="183.7,-74.5 22.95,-74.5 22.95,-55.25 183.7,-55.25 183.7,-74.5"/>
<text text-anchor="middle" x="103.32" y="-61" font-family="Helvetica,sans-Serif" font-size="10.00">wibmod/WIB1/ItemConversion.hh</text>
</a>
</g>
</g>
<!-- Node4&#45;&gt;Node8 -->
<g id="edge9_Node000004_Node000008" class="edge">
<title>Node4&#45;&gt;Node8</title>
<g id="a_edge9_Node000004_Node000008"><a xlink:title=" ">
<path fill="none" stroke="#63b8ff" d="M230.37,-110.09C205.53,-101.45 167.83,-88.32 139.94,-78.62"/>
<polygon fill="#63b8ff" stroke="#63b8ff" points="141.43,-75.43 130.84,-75.45 139.13,-82.04 141.43,-75.43"/>
</a>
</g>
</g>
<!-- Node9 -->
<g id="Node000009" class="node">
<title>Node9</title>
<g id="a_Node000009"><a xlink:href="BNL__UDP_8hh.html" target="_top" xlink:title=" ">
<polygon fill="white" stroke="#666666" points="430.82,-74.5 291.82,-74.5 291.82,-55.25 430.82,-55.25 430.82,-74.5"/>
<text text-anchor="middle" x="361.32" y="-61" font-family="Helvetica,sans-Serif" font-size="10.00">wibmod/WIB1/BNL_UDP.hh</text>
</a>
</g>
</g>
<!-- Node4&#45;&gt;Node9 -->
<g id="edge12_Node000004_Node000009" class="edge">
<title>Node4&#45;&gt;Node9</title>
<g id="a_edge12_Node000004_Node000009"><a xlink:title=" ">
<path fill="none" stroke="#63b8ff" d="M274.14,-110.09C290.35,-101.87 314.56,-89.59 333.36,-80.06"/>
<polygon fill="#63b8ff" stroke="#63b8ff" points="334.74,-83.28 342.08,-75.64 331.57,-77.04 334.74,-83.28"/>
</a>
</g>
</g>
<!-- Node8&#45;&gt;Node2 -->
<g id="edge10_Node000008_Node000002" class="edge">
<title>Node8&#45;&gt;Node2</title>
<g id="a_edge10_Node000008_Node000002"><a xlink:title=" ">
<path fill="none" stroke="#63b8ff" d="M90.26,-54.84C78.87,-46.96 62.09,-35.36 48.59,-26.02"/>
<polygon fill="#63b8ff" stroke="#63b8ff" points="50.91,-23.37 40.7,-20.56 46.93,-29.13 50.91,-23.37"/>
</a>
</g>
</g>
<!-- Node8&#45;&gt;Node6 -->
<g id="edge11_Node000008_Node000006" class="edge">
<title>Node8&#45;&gt;Node6</title>
<g id="a_edge11_Node000008_Node000006"><a xlink:title=" ">
<path fill="none" stroke="#63b8ff" d="M107.95,-55.08C111.57,-48.19 116.75,-38.34 121.31,-29.66"/>
<polygon fill="#63b8ff" stroke="#63b8ff" points="124.34,-31.43 125.9,-20.95 118.14,-28.17 124.34,-31.43"/>
</a>
</g>
</g>
<!-- Node9&#45;&gt;Node2 -->
<g id="edge13_Node000009_Node000002" class="edge">
<title>Node9&#45;&gt;Node2</title>
<g id="a_edge13_Node000009_Node000002"><a xlink:title=" ">
<path fill="none" stroke="#63b8ff" d="M291.42,-55.94C229.74,-48.38 137.59,-35.71 58.32,-19.25 58.08,-19.2 57.84,-19.15 57.6,-19.1"/>
<polygon fill="#63b8ff" stroke="#63b8ff" points="58.56,-15.73 48.02,-16.81 56.94,-22.54 58.56,-15.73"/>
</a>
</g>
</g>
<!-- Node9&#45;&gt;Node3 -->
<g id="edge15_Node000009_Node000003" class="edge">
<title>Node9&#45;&gt;Node3</title>
<g id="a_edge15_Node000009_Node000003"><a xlink:title=" ">
<path fill="none" stroke="#63b8ff" d="M384.39,-54.84C406.08,-46.35 438.81,-33.54 463.45,-23.89"/>
<polygon fill="#63b8ff" stroke="#63b8ff" points="464.7,-27.16 472.73,-20.25 462.14,-20.64 464.7,-27.16"/>
</a>
</g>
</g>
<!-- Node9&#45;&gt;Node5 -->
<g id="edge14_Node000009_Node000005" class="edge">
<title>Node9&#45;&gt;Node5</title>
<g id="a_edge14_Node000009_Node000005"><a xlink:title=" ">
<path fill="none" stroke="#63b8ff" d="M373.54,-54.84C384.15,-46.99 399.76,-35.45 412.37,-26.12"/>
<polygon fill="#63b8ff" stroke="#63b8ff" points="414.12,-29.19 420.07,-20.42 409.95,-23.56 414.12,-29.19"/>
</a>
</g>
</g>
<!-- Node10 -->
<g id="Node000010" class="node">
<title>Node10</title>
<g id="a_Node000010"><a xlink:title=" ">
<polygon fill="#e0e0e0" stroke="#999999" points="311.7,-19.25 240.95,-19.25 240.95,0 311.7,0 311.7,-19.25"/>
<text text-anchor="middle" x="276.32" y="-5.75" font-family="Helvetica,sans-Serif" font-size="10.00">sys/socket.h</text>
</a>
</g>
</g>
<!-- Node9&#45;&gt;Node10 -->
<g id="edge16_Node000009_Node000010" class="edge">
<title>Node9&#45;&gt;Node10</title>
<g id="a_edge16_Node000009_Node000010"><a xlink:title=" ">
<path fill="none" stroke="#63b8ff" d="M346.91,-54.84C334.21,-46.89 315.45,-35.14 300.47,-25.75"/>
<polygon fill="#63b8ff" stroke="#63b8ff" points="302.43,-22.85 292.1,-20.51 298.71,-28.78 302.43,-22.85"/>
</a>
</g>
</g>
<!-- Node11 -->
<g id="Node000011" class="node">
<title>Node11</title>
<g id="a_Node000011"><a xlink:title=" ">
<polygon fill="#e0e0e0" stroke="#999999" points="392.95,-19.25 329.7,-19.25 329.7,0 392.95,0 392.95,-19.25"/>
<text text-anchor="middle" x="361.32" y="-5.75" font-family="Helvetica,sans-Serif" font-size="10.00">netinet/ip.h</text>
</a>
</g>
</g>
<!-- Node9&#45;&gt;Node11 -->
<g id="edge17_Node000009_Node000011" class="edge">
<title>Node9&#45;&gt;Node11</title>
<g id="a_edge17_Node000009_Node000011"><a xlink:title=" ">
<path fill="none" stroke="#63b8ff" d="M361.32,-55.08C361.32,-48.57 361.32,-39.42 361.32,-31.12"/>
<polygon fill="#63b8ff" stroke="#63b8ff" points="364.82,-31.12 361.32,-21.12 357.82,-31.12 364.82,-31.12"/>
</a>
</g>
</g>
</g>
</svg>
