<?xml version="1.0" encoding="UTF-8" standalone="no"?>
<!DOCTYPE svg PUBLIC "-//W3C//DTD SVG 1.1//EN"
 "http://www.w3.org/Graphics/SVG/1.1/DTD/svg11.dtd">
<!-- Generated by graphviz version 9.0.0 (20230911.1827)
 -->
<!-- Title: /github/workspace/dev_area/sourcecode/fddetdataformats/include/fddetdataformats/WIBEthFrame.hpp Pages: 1 -->
<svg width="542pt" height="160pt"
 viewBox="0.00 0.00 541.62 160.25" xmlns="http://www.w3.org/2000/svg" xmlns:xlink="http://www.w3.org/1999/xlink">
<g id="graph0" class="graph" transform="scale(1 1) rotate(0) translate(4 156.25)">
<title>/github/workspace/dev_area/sourcecode/fddetdataformats/include/fddetdataformats/WIBEthFrame.hpp</title>
<!-- Node1 -->
<g id="Node000001" class="node">
<title>Node1</title>
<g id="a_Node000001"><a xlink:title=" ">
<polygon fill="#999999" stroke="#666666" points="415.62,-152.25 207.62,-152.25 207.62,-110.5 415.62,-110.5 415.62,-152.25"/>
<text text-anchor="start" x="215.62" y="-138.75" font-family="Helvetica,sans-Serif" font-size="10.00">/github/workspace/dev</text>
<text text-anchor="start" x="215.62" y="-127.5" font-family="Helvetica,sans-Serif" font-size="10.00">_area/sourcecode/fddetdataformats</text>
<text text-anchor="middle" x="311.62" y="-116.25" font-family="Helvetica,sans-Serif" font-size="10.00">/include/fddetdataformats/WIBEthFrame.hpp</text>
</a>
</g>
</g>
<!-- Node2 -->
<g id="Node000002" class="node">
<title>Node2</title>
<g id="a_Node000002"><a xlink:href="DAQEthHeader_8hpp.html" target="_top" xlink:title=" ">
<polygon fill="white" stroke="#666666" points="196.12,-74.5 27.12,-74.5 27.12,-55.25 196.12,-55.25 196.12,-74.5"/>
<text text-anchor="middle" x="111.62" y="-61" font-family="Helvetica,sans-Serif" font-size="10.00">detdataformats/DAQEthHeader.hpp</text>
</a>
</g>
</g>
<!-- Node1&#45;&gt;Node2 -->
<g id="edge1_Node000001_Node000002" class="edge">
<title>Node1&#45;&gt;Node2</title>
<g id="a_edge1_Node000001_Node000002"><a xlink:title=" ">
<path fill="none" stroke="#63b8ff" d="M248.62,-110.06C216.52,-99.7 178.49,-87.44 150.66,-78.46"/>
<polygon fill="#63b8ff" stroke="#63b8ff" points="151.81,-75.16 141.22,-75.42 149.66,-81.82 151.81,-75.16"/>
</a>
</g>
</g>
<!-- Node3 -->
<g id="Node000003" class="node">
<title>Node3</title>
<g id="a_Node000003"><a xlink:title=" ">
<polygon fill="#e0e0e0" stroke="#999999" points="45.25,-19.25 0,-19.25 0,0 45.25,0 45.25,-19.25"/>
<text text-anchor="middle" x="22.62" y="-5.75" font-family="Helvetica,sans-Serif" font-size="10.00">cstdint</text>
</a>
</g>
</g>
<!-- Node1&#45;&gt;Node3 -->
<g id="edge6_Node000001_Node000003" class="edge">
<title>Node1&#45;&gt;Node3</title>
<g id="a_edge6_Node000001_Node000003"><a xlink:title=" ">
<path fill="none" stroke="#63b8ff" d="M207.29,-124.34C132.77,-117.59 41.65,-103.52 17.62,-74.5 7.54,-62.32 10.2,-43.96 14.56,-30.05"/>
<polygon fill="#63b8ff" stroke="#63b8ff" points="17.7,-31.66 17.86,-21.06 11.13,-29.25 17.7,-31.66"/>
</a>
</g>
</g>
<!-- Node5 -->
<g id="Node000005" class="node">
<title>Node5</title>
<g id="a_Node000005"><a xlink:title=" ">
<polygon fill="#e0e0e0" stroke="#999999" points="269.5,-74.5 213.75,-74.5 213.75,-55.25 269.5,-55.25 269.5,-74.5"/>
<text text-anchor="middle" x="241.62" y="-61" font-family="Helvetica,sans-Serif" font-size="10.00">algorithm</text>
</a>
</g>
</g>
<!-- Node1&#45;&gt;Node5 -->
<g id="edge4_Node000001_Node000005" class="edge">
<title>Node1&#45;&gt;Node5</title>
<g id="a_edge4_Node000001_Node000005"><a xlink:title=" ">
<path fill="none" stroke="#63b8ff" d="M289.86,-110.32C280.23,-101.44 269.03,-91.12 259.85,-82.66"/>
<polygon fill="#63b8ff" stroke="#63b8ff" points="262.31,-80.17 252.58,-75.97 257.56,-85.32 262.31,-80.17"/>
</a>
</g>
</g>
<!-- Node6 -->
<g id="Node000006" class="node">
<title>Node6</title>
<g id="a_Node000006"><a xlink:title=" ">
<polygon fill="#e0e0e0" stroke="#999999" points="335.75,-74.5 287.5,-74.5 287.5,-55.25 335.75,-55.25 335.75,-74.5"/>
<text text-anchor="middle" x="311.62" y="-61" font-family="Helvetica,sans-Serif" font-size="10.00">cassert</text>
</a>
</g>
</g>
<!-- Node1&#45;&gt;Node6 -->
<g id="edge5_Node000001_Node000006" class="edge">
<title>Node1&#45;&gt;Node6</title>
<g id="a_edge5_Node000001_Node000006"><a xlink:title=" ">
<path fill="none" stroke="#63b8ff" d="M311.62,-110.32C311.62,-102.65 311.62,-93.89 311.62,-86.2"/>
<polygon fill="#63b8ff" stroke="#63b8ff" points="315.13,-86.46 311.63,-76.46 308.13,-86.46 315.13,-86.46"/>
</a>
</g>
</g>
<!-- Node7 -->
<g id="Node000007" class="node">
<title>Node7</title>
<g id="a_Node000007"><a xlink:title=" ">
<polygon fill="#e0e0e0" stroke="#999999" points="395.75,-74.5 353.5,-74.5 353.5,-55.25 395.75,-55.25 395.75,-74.5"/>
<text text-anchor="middle" x="374.62" y="-61" font-family="Helvetica,sans-Serif" font-size="10.00">cstdio</text>
</a>
</g>
</g>
<!-- Node1&#45;&gt;Node7 -->
<g id="edge7_Node000001_Node000007" class="edge">
<title>Node1&#45;&gt;Node7</title>
<g id="a_edge7_Node000001_Node000007"><a xlink:title=" ">
<path fill="none" stroke="#63b8ff" d="M331.21,-110.32C339.79,-101.54 349.75,-91.34 357.97,-82.93"/>
<polygon fill="#63b8ff" stroke="#63b8ff" points="360.22,-85.63 364.71,-76.03 355.22,-80.74 360.22,-85.63"/>
</a>
</g>
</g>
<!-- Node8 -->
<g id="Node000008" class="node">
<title>Node8</title>
<g id="a_Node000008"><a xlink:title=" ">
<polygon fill="#e0e0e0" stroke="#999999" points="457.88,-74.5 413.38,-74.5 413.38,-55.25 457.88,-55.25 457.88,-74.5"/>
<text text-anchor="middle" x="435.62" y="-61" font-family="Helvetica,sans-Serif" font-size="10.00">cstdlib</text>
</a>
</g>
</g>
<!-- Node1&#45;&gt;Node8 -->
<g id="edge8_Node000001_Node000008" class="edge">
<title>Node1&#45;&gt;Node8</title>
<g id="a_edge8_Node000001_Node000008"><a xlink:title=" ">
<path fill="none" stroke="#63b8ff" d="M350.52,-110.14C369.34,-100.35 391.48,-88.84 408.46,-80.01"/>
<polygon fill="#63b8ff" stroke="#63b8ff" points="409.69,-83.31 416.94,-75.59 406.46,-77.1 409.69,-83.31"/>
</a>
</g>
</g>
<!-- Node9 -->
<g id="Node000009" class="node">
<title>Node9</title>
<g id="a_Node000009"><a xlink:title=" ">
<polygon fill="#e0e0e0" stroke="#999999" points="533.62,-74.5 475.62,-74.5 475.62,-55.25 533.62,-55.25 533.62,-74.5"/>
<text text-anchor="middle" x="504.62" y="-61" font-family="Helvetica,sans-Serif" font-size="10.00">stdexcept</text>
</a>
</g>
</g>
<!-- Node1&#45;&gt;Node9 -->
<g id="edge9_Node000001_Node000009" class="edge">
<title>Node1&#45;&gt;Node9</title>
<g id="a_edge9_Node000001_Node000009"><a xlink:title=" ">
<path fill="none" stroke="#63b8ff" d="M372.43,-110.06C403.27,-99.75 439.77,-87.55 466.6,-78.58"/>
<polygon fill="#63b8ff" stroke="#63b8ff" points="467.65,-81.92 476.02,-75.43 465.43,-75.28 467.65,-81.92"/>
</a>
</g>
</g>
<!-- Node2&#45;&gt;Node3 -->
<g id="edge2_Node000002_Node000003" class="edge">
<title>Node2&#45;&gt;Node3</title>
<g id="a_edge2_Node000002_Node000003"><a xlink:title=" ">
<path fill="none" stroke="#63b8ff" d="M96.53,-54.84C83.1,-46.81 63.21,-34.91 47.45,-25.48"/>
<polygon fill="#63b8ff" stroke="#63b8ff" points="49.47,-22.61 39.1,-20.48 45.88,-28.62 49.47,-22.61"/>
</a>
</g>
</g>
<!-- Node4 -->
<g id="Node000004" class="node">
<title>Node4</title>
<g id="a_Node000004"><a xlink:title=" ">
<polygon fill="#e0e0e0" stroke="#999999" points="137.25,-19.25 86,-19.25 86,0 137.25,0 137.25,-19.25"/>
<text text-anchor="middle" x="111.62" y="-5.75" font-family="Helvetica,sans-Serif" font-size="10.00">ostream</text>
</a>
</g>
</g>
<!-- Node2&#45;&gt;Node4 -->
<g id="edge3_Node000002_Node000004" class="edge">
<title>Node2&#45;&gt;Node4</title>
<g id="a_edge3_Node000002_Node000004"><a xlink:title=" ">
<path fill="none" stroke="#63b8ff" d="M111.62,-55.08C111.62,-48.57 111.62,-39.42 111.62,-31.12"/>
<polygon fill="#63b8ff" stroke="#63b8ff" points="115.13,-31.12 111.63,-21.12 108.13,-31.12 115.13,-31.12"/>
</a>
</g>
</g>
</g>
</svg>
