<?xml version="1.0" encoding="UTF-8" standalone="no"?>
<!DOCTYPE svg PUBLIC "-//W3C//DTD SVG 1.1//EN"
 "http://www.w3.org/Graphics/SVG/1.1/DTD/svg11.dtd">
<!-- Generated by graphviz version 9.0.0 (20230911.1827)
 -->
<!-- Title: /github/workspace/dev_area/sourcecode/fddetdataformats/include/fddetdataformats/WIBEthFrame.hpp Pages: 1 -->
<svg width="1371pt" height="484pt"
 viewBox="0.00 0.00 1370.75 483.50" xmlns="http://www.w3.org/2000/svg" xmlns:xlink="http://www.w3.org/1999/xlink">
<g id="graph0" class="graph" transform="scale(1 1) rotate(0) translate(4 479.5)">
<title>/github/workspace/dev_area/sourcecode/fddetdataformats/include/fddetdataformats/WIBEthFrame.hpp</title>
<!-- Node1 -->
<g id="Node000001" class="node">
<title>Node1</title>
<g id="a_Node000001"><a xlink:title=" ">
<polygon fill="#999999" stroke="#666666" points="911.38,-475.5 703.38,-475.5 703.38,-433.75 911.38,-433.75 911.38,-475.5"/>
<text text-anchor="start" x="711.38" y="-462" font-family="Helvetica,sans-Serif" font-size="10.00">/github/workspace/dev</text>
<text text-anchor="start" x="711.38" y="-450.75" font-family="Helvetica,sans-Serif" font-size="10.00">_area/sourcecode/fddetdataformats</text>
<text text-anchor="middle" x="807.38" y="-439.5" font-family="Helvetica,sans-Serif" font-size="10.00">/include/fddetdataformats/WIBEthFrame.hpp</text>
</a>
</g>
</g>
<!-- Node2 -->
<g id="Node000002" class="node">
<title>Node2</title>
<g id="a_Node000002"><a xlink:href="wibeth_8cpp.html" target="_top" xlink:title=" ">
<polygon fill="white" stroke="#666666" points="530.25,-392.12 360.5,-392.12 360.5,-350.38 530.25,-350.38 530.25,-392.12"/>
<text text-anchor="start" x="368.5" y="-378.62" font-family="Helvetica,sans-Serif" font-size="10.00">/github/workspace/dev</text>
<text text-anchor="start" x="368.5" y="-367.38" font-family="Helvetica,sans-Serif" font-size="10.00">_area/sourcecode/fddetdataformats</text>
<text text-anchor="middle" x="445.38" y="-356.12" font-family="Helvetica,sans-Serif" font-size="10.00">/pybindsrc/wibeth.cpp</text>
</a>
</g>
</g>
<!-- Node1&#45;&gt;Node2 -->
<g id="edge1_Node000001_Node000002" class="edge">
<title>Node1&#45;&gt;Node2</title>
<g id="a_edge1_Node000001_Node000002"><a xlink:title=" ">
<path fill="none" stroke="#63b8ff" d="M691.93,-431.3C644.24,-421.65 588.5,-409.81 538.38,-397.75 531.7,-396.14 524.78,-394.4 517.86,-392.6"/>
<polygon fill="#63b8ff" stroke="#63b8ff" points="690.95,-434.67 701.44,-433.22 692.33,-427.81 690.95,-434.67"/>
</a>
</g>
</g>
<!-- Node3 -->
<g id="Node000003" class="node">
<title>Node3</title>
<g id="a_Node000003"><a xlink:href="DUNEWIBEthTypeAdapter_8hpp.html" target="_top" xlink:title=" ">
<polygon fill="white" stroke="#666666" points="740.88,-397.75 547.88,-397.75 547.88,-344.75 740.88,-344.75 740.88,-397.75"/>
<text text-anchor="start" x="555.88" y="-384.25" font-family="Helvetica,sans-Serif" font-size="10.00">/github/workspace/dev</text>
<text text-anchor="start" x="555.88" y="-373" font-family="Helvetica,sans-Serif" font-size="10.00">_area/sourcecode/fdreadoutlibs</text>
<text text-anchor="start" x="555.88" y="-361.75" font-family="Helvetica,sans-Serif" font-size="10.00">/include/fdreadoutlibs/DUNEWIBEthType</text>
<text text-anchor="middle" x="644.38" y="-350.5" font-family="Helvetica,sans-Serif" font-size="10.00">Adapter.hpp</text>
</a>
</g>
</g>
<!-- Node1&#45;&gt;Node3 -->
<g id="edge2_Node000001_Node000003" class="edge">
<title>Node1&#45;&gt;Node3</title>
<g id="a_edge2_Node000001_Node000003"><a xlink:title=" ">
<path fill="none" stroke="#63b8ff" d="M756.61,-428.28C737.41,-418.7 715.56,-407.79 696.27,-398.16"/>
<polygon fill="#63b8ff" stroke="#63b8ff" points="754.8,-431.29 765.31,-432.62 757.93,-425.03 754.8,-431.29"/>
</a>
</g>
</g>
<!-- Node8 -->
<g id="Node000008" class="node">
<title>Node8</title>
<g id="a_Node000008"><a xlink:href="FrameExpand_8hpp.html" target="_top" xlink:title=" ">
<polygon fill="white" stroke="#666666" points="782.25,-308.75 630.5,-308.75 630.5,-255.75 782.25,-255.75 782.25,-308.75"/>
<text text-anchor="start" x="638.5" y="-295.25" font-family="Helvetica,sans-Serif" font-size="10.00">/github/workspace/dev</text>
<text text-anchor="start" x="638.5" y="-284" font-family="Helvetica,sans-Serif" font-size="10.00">_area/sourcecode/fdreadoutlibs</text>
<text text-anchor="start" x="638.5" y="-272.75" font-family="Helvetica,sans-Serif" font-size="10.00">/include/fdreadoutlibs/wibeth</text>
<text text-anchor="middle" x="706.38" y="-261.5" font-family="Helvetica,sans-Serif" font-size="10.00">/tpg/FrameExpand.hpp</text>
</a>
</g>
</g>
<!-- Node1&#45;&gt;Node8 -->
<g id="edge29_Node000001_Node000008" class="edge">
<title>Node1&#45;&gt;Node8</title>
<g id="a_edge29_Node000001_Node000008"><a xlink:title=" ">
<path fill="none" stroke="#63b8ff" d="M792.93,-423.34C782.01,-401.14 766.23,-370.52 750.38,-344.75 742.94,-332.67 733.95,-319.84 726.04,-309.04"/>
<polygon fill="#63b8ff" stroke="#63b8ff" points="789.69,-424.68 797.22,-432.14 795.99,-421.62 789.69,-424.68"/>
</a>
</g>
</g>
<!-- Node23 -->
<g id="Node000023" class="node">
<title>Node23</title>
<g id="a_Node000023"><a xlink:href="RegisterToChannelNumber_8hpp.html" target="_top" xlink:title=" ">
<polygon fill="white" stroke="#666666" points="970.62,-308.75 800.12,-308.75 800.12,-255.75 970.62,-255.75 970.62,-308.75"/>
<text text-anchor="start" x="808.12" y="-295.25" font-family="Helvetica,sans-Serif" font-size="10.00">/github/workspace/dev</text>
<text text-anchor="start" x="808.12" y="-284" font-family="Helvetica,sans-Serif" font-size="10.00">_area/sourcecode/fdreadoutlibs</text>
<text text-anchor="start" x="808.12" y="-272.75" font-family="Helvetica,sans-Serif" font-size="10.00">/include/fdreadoutlibs/wibeth</text>
<text text-anchor="middle" x="885.38" y="-261.5" font-family="Helvetica,sans-Serif" font-size="10.00">/tpg/RegisterToChannelNumber.hpp</text>
</a>
</g>
</g>
<!-- Node1&#45;&gt;Node23 -->
<g id="edge30_Node000001_Node000023" class="edge">
<title>Node1&#45;&gt;Node23</title>
<g id="a_edge30_Node000001_Node000023"><a xlink:title=" ">
<path fill="none" stroke="#63b8ff" d="M808.04,-421.93C809.65,-399.34 814.18,-368.84 826.38,-344.75 833.06,-331.55 843.52,-319.28 853.8,-309.22"/>
<polygon fill="#63b8ff" stroke="#63b8ff" points="804.56,-421.57 807.52,-431.74 811.55,-421.94 804.56,-421.57"/>
</a>
</g>
</g>
<!-- Node24 -->
<g id="Node000024" class="node">
<title>Node24</title>
<g id="a_Node000024"><a xlink:href="WIBtoWIBEth_8hpp.html" target="_top" xlink:title=" ">
<polygon fill="white" stroke="#666666" points="1021.5,-392.12 835.25,-392.12 835.25,-350.38 1021.5,-350.38 1021.5,-392.12"/>
<text text-anchor="start" x="843.25" y="-378.62" font-family="Helvetica,sans-Serif" font-size="10.00">/github/workspace/dev</text>
<text text-anchor="start" x="843.25" y="-367.38" font-family="Helvetica,sans-Serif" font-size="10.00">_area/sourcecode/rawdatautils</text>
<text text-anchor="middle" x="928.38" y="-356.12" font-family="Helvetica,sans-Serif" font-size="10.00">/include/rawdatautils/WIBtoWIBEth.hpp</text>
</a>
</g>
</g>
<!-- Node1&#45;&gt;Node24 -->
<g id="edge32_Node000001_Node000024" class="edge">
<title>Node1&#45;&gt;Node24</title>
<g id="a_edge32_Node000001_Node000024"><a xlink:title=" ">
<path fill="none" stroke="#63b8ff" d="M847.06,-426.94C863.67,-415.77 882.67,-402.99 898.12,-392.6"/>
<polygon fill="#63b8ff" stroke="#63b8ff" points="845.2,-423.97 838.85,-432.46 849.1,-429.78 845.2,-423.97"/>
</a>
</g>
</g>
<!-- Node26 -->
<g id="Node000026" class="node">
<title>Node26</title>
<g id="a_Node000026"><a xlink:href="WIBEthUnpacker_8cpp.html" target="_top" xlink:title=" ">
<polygon fill="white" stroke="#666666" points="1195.5,-392.12 1039.25,-392.12 1039.25,-350.38 1195.5,-350.38 1195.5,-392.12"/>
<text text-anchor="start" x="1047.25" y="-378.62" font-family="Helvetica,sans-Serif" font-size="10.00">/github/workspace/dev</text>
<text text-anchor="start" x="1047.25" y="-367.38" font-family="Helvetica,sans-Serif" font-size="10.00">_area/sourcecode/rawdatautils</text>
<text text-anchor="middle" x="1117.38" y="-356.12" font-family="Helvetica,sans-Serif" font-size="10.00">/pybindsrc/WIBEthUnpacker.cpp</text>
</a>
</g>
</g>
<!-- Node1&#45;&gt;Node26 -->
<g id="edge34_Node000001_Node000026" class="edge">
<title>Node1&#45;&gt;Node26</title>
<g id="a_edge34_Node000001_Node000026"><a xlink:title=" ">
<path fill="none" stroke="#63b8ff" d="M902.99,-430.55C942.51,-420.78 988.74,-409.06 1030.38,-397.75 1036.45,-396.1 1042.75,-394.34 1049.06,-392.55"/>
<polygon fill="#63b8ff" stroke="#63b8ff" points="902.37,-427.1 893.5,-432.89 904.05,-433.89 902.37,-427.1"/>
</a>
</g>
</g>
<!-- Node27 -->
<g id="Node000027" class="node">
<title>Node27</title>
<g id="a_Node000027"><a xlink:href="unpack_8cpp.html" target="_top" xlink:title=" ">
<polygon fill="white" stroke="#666666" points="1362.75,-392.12 1214,-392.12 1214,-350.38 1362.75,-350.38 1362.75,-392.12"/>
<text text-anchor="start" x="1222" y="-378.62" font-family="Helvetica,sans-Serif" font-size="10.00">/github/workspace/dev</text>
<text text-anchor="start" x="1222" y="-367.38" font-family="Helvetica,sans-Serif" font-size="10.00">_area/sourcecode/rawdatautils</text>
<text text-anchor="middle" x="1288.38" y="-356.12" font-family="Helvetica,sans-Serif" font-size="10.00">/pybindsrc/unpack.cpp</text>
</a>
</g>
</g>
<!-- Node1&#45;&gt;Node27 -->
<g id="edge35_Node000001_Node000027" class="edge">
<title>Node1&#45;&gt;Node27</title>
<g id="a_edge35_Node000001_Node000027"><a xlink:title=" ">
<path fill="none" stroke="#63b8ff" d="M922.86,-442.15C1002.53,-433.08 1110.58,-418.46 1204.38,-397.75 1211.22,-396.24 1218.32,-394.45 1225.36,-392.52"/>
<polygon fill="#63b8ff" stroke="#63b8ff" points="922.86,-438.63 913.32,-443.23 923.65,-445.59 922.86,-438.63"/>
</a>
</g>
</g>
<!-- Node4 -->
<g id="Node000004" class="node">
<title>Node4</title>
<g id="a_Node000004"><a xlink:href="CreateSource_8hpp.html" target="_top" xlink:title=" ">
<polygon fill="white" stroke="#666666" points="612.5,-303.12 480.25,-303.12 480.25,-261.38 612.5,-261.38 612.5,-303.12"/>
<text text-anchor="start" x="488.25" y="-289.62" font-family="Helvetica,sans-Serif" font-size="10.00">/github/workspace/dev</text>
<text text-anchor="start" x="488.25" y="-278.38" font-family="Helvetica,sans-Serif" font-size="10.00">_area/sourcecode/dpdklibs</text>
<text text-anchor="middle" x="546.38" y="-267.12" font-family="Helvetica,sans-Serif" font-size="10.00">/src/CreateSource.hpp</text>
</a>
</g>
</g>
<!-- Node3&#45;&gt;Node4 -->
<g id="edge3_Node000003_Node000004" class="edge">
<title>Node3&#45;&gt;Node4</title>
<g id="a_edge3_Node000003_Node000004"><a xlink:title=" ">
<path fill="none" stroke="#63b8ff" d="M606.66,-336.77C593.96,-325.49 580.19,-313.27 569.02,-303.36"/>
<polygon fill="#63b8ff" stroke="#63b8ff" points="604.3,-339.36 614.11,-343.38 608.95,-334.12 604.3,-339.36"/>
</a>
</g>
</g>
<!-- Node5 -->
<g id="Node000005" class="node">
<title>Node5</title>
<g id="a_Node000005"><a xlink:href="WIBEthFrameProcessor_8hpp.html" target="_top" xlink:title=" ">
<polygon fill="white" stroke="#666666" points="356.25,-308.75 204.5,-308.75 204.5,-255.75 356.25,-255.75 356.25,-308.75"/>
<text text-anchor="start" x="212.5" y="-295.25" font-family="Helvetica,sans-Serif" font-size="10.00">/github/workspace/dev</text>
<text text-anchor="start" x="212.5" y="-284" font-family="Helvetica,sans-Serif" font-size="10.00">_area/sourcecode/fdreadoutlibs</text>
<text text-anchor="start" x="212.5" y="-272.75" font-family="Helvetica,sans-Serif" font-size="10.00">/include/fdreadoutlibs/wibeth</text>
<text text-anchor="middle" x="280.38" y="-261.5" font-family="Helvetica,sans-Serif" font-size="10.00">/WIBEthFrameProcessor.hpp</text>
</a>
</g>
</g>
<!-- Node3&#45;&gt;Node5 -->
<g id="edge4_Node000003_Node000005" class="edge">
<title>Node3&#45;&gt;Node5</title>
<g id="a_edge4_Node000003_Node000005"><a xlink:title=" ">
<path fill="none" stroke="#63b8ff" d="M536.42,-344.04C470.62,-328.26 405.5,-312.81 356.61,-301.24"/>
<polygon fill="#63b8ff" stroke="#63b8ff" points="535.4,-347.4 545.94,-346.33 537.03,-340.59 535.4,-347.4"/>
</a>
</g>
</g>
<!-- Node3&#45;&gt;Node8 -->
<g id="edge7_Node000003_Node000008" class="edge">
<title>Node3&#45;&gt;Node8</title>
<g id="a_edge7_Node000003_Node000008"><a xlink:title=" ">
<path fill="none" stroke="#63b8ff" d="M669.26,-335.34C675.53,-326.54 682.14,-317.25 688.02,-309"/>
<polygon fill="#63b8ff" stroke="#63b8ff" points="666.47,-333.21 663.52,-343.39 672.17,-337.27 666.47,-333.21"/>
</a>
</g>
</g>
<!-- Node6 -->
<g id="Node000006" class="node">
<title>Node6</title>
<g id="a_Node000006"><a xlink:href="FDReadoutlibs_8cpp.html" target="_top" xlink:title=" ">
<polygon fill="white" stroke="#666666" points="167.25,-214.12 15.5,-214.12 15.5,-172.38 167.25,-172.38 167.25,-214.12"/>
<text text-anchor="start" x="23.5" y="-200.62" font-family="Helvetica,sans-Serif" font-size="10.00">/github/workspace/dev</text>
<text text-anchor="start" x="23.5" y="-189.38" font-family="Helvetica,sans-Serif" font-size="10.00">_area/sourcecode/fdreadoutlibs</text>
<text text-anchor="middle" x="91.38" y="-178.12" font-family="Helvetica,sans-Serif" font-size="10.00">/src/FDReadoutlibs.cpp</text>
</a>
</g>
</g>
<!-- Node5&#45;&gt;Node6 -->
<g id="edge5_Node000005_Node000006" class="edge">
<title>Node5&#45;&gt;Node6</title>
<g id="a_edge5_Node000005_Node000006"><a xlink:title=" ">
<path fill="none" stroke="#63b8ff" d="M213.78,-250.59C187.84,-238.65 158.82,-225.29 135.54,-214.58"/>
<polygon fill="#63b8ff" stroke="#63b8ff" points="212,-253.63 222.55,-254.63 214.93,-247.27 212,-253.63"/>
</a>
</g>
</g>
<!-- Node7 -->
<g id="Node000007" class="node">
<title>Node7</title>
<g id="a_Node000007"><a xlink:href="WIBEthFrameProcessor_8cpp.html" target="_top" xlink:title=" ">
<polygon fill="white" stroke="#666666" points="375.38,-214.12 185.38,-214.12 185.38,-172.38 375.38,-172.38 375.38,-214.12"/>
<text text-anchor="start" x="193.38" y="-200.62" font-family="Helvetica,sans-Serif" font-size="10.00">/github/workspace/dev</text>
<text text-anchor="start" x="193.38" y="-189.38" font-family="Helvetica,sans-Serif" font-size="10.00">_area/sourcecode/fdreadoutlibs</text>
<text text-anchor="middle" x="280.38" y="-178.12" font-family="Helvetica,sans-Serif" font-size="10.00">/src/wibeth/WIBEthFrameProcessor.cpp</text>
</a>
</g>
</g>
<!-- Node5&#45;&gt;Node7 -->
<g id="edge6_Node000005_Node000007" class="edge">
<title>Node5&#45;&gt;Node7</title>
<g id="a_edge6_Node000005_Node000007"><a xlink:title=" ">
<path fill="none" stroke="#63b8ff" d="M280.38,-244.38C280.38,-234.13 280.38,-223.37 280.38,-214.46"/>
<polygon fill="#63b8ff" stroke="#63b8ff" points="276.88,-244.1 280.38,-254.1 283.88,-244.1 276.88,-244.1"/>
</a>
</g>
</g>
<!-- Node9 -->
<g id="Node000009" class="node">
<title>Node9</title>
<g id="a_Node000009"><a xlink:href="ProcessAVX2_8hpp.html" target="_top" xlink:title=" ">
<polygon fill="white" stroke="#666666" points="1218.25,-130.75 1066.5,-130.75 1066.5,-77.75 1218.25,-77.75 1218.25,-130.75"/>
<text text-anchor="start" x="1074.5" y="-117.25" font-family="Helvetica,sans-Serif" font-size="10.00">/github/workspace/dev</text>
<text text-anchor="start" x="1074.5" y="-106" font-family="Helvetica,sans-Serif" font-size="10.00">_area/sourcecode/fdreadoutlibs</text>
<text text-anchor="start" x="1074.5" y="-94.75" font-family="Helvetica,sans-Serif" font-size="10.00">/include/fdreadoutlibs/wibeth</text>
<text text-anchor="middle" x="1142.38" y="-83.5" font-family="Helvetica,sans-Serif" font-size="10.00">/tpg/ProcessAVX2.hpp</text>
</a>
</g>
</g>
<!-- Node8&#45;&gt;Node9 -->
<g id="edge8_Node000008_Node000009" class="edge">
<title>Node8&#45;&gt;Node9</title>
<g id="a_edge8_Node000008_Node000009"><a xlink:title=" ">
<path fill="none" stroke="#63b8ff" d="M751.04,-248.43C761.8,-239.64 772.91,-229.78 782.38,-219.75 802.26,-198.67 795.66,-181.89 820.38,-166.75 911.22,-111.08 953.43,-154.12 1057.38,-130.75 1060.23,-130.11 1063.13,-129.42 1066.05,-128.7"/>
<polygon fill="#63b8ff" stroke="#63b8ff" points="748.95,-245.62 743.31,-254.59 753.31,-251.09 748.95,-245.62"/>
</a>
</g>
</g>
<!-- Node11 -->
<g id="Node000011" class="node">
<title>Node11</title>
<g id="a_Node000011"><a xlink:href="ProcessAVX2FIR_8hpp.html" target="_top" xlink:title=" ">
<polygon fill="white" stroke="#666666" points="182.25,-130.75 30.5,-130.75 30.5,-77.75 182.25,-77.75 182.25,-130.75"/>
<text text-anchor="start" x="38.5" y="-117.25" font-family="Helvetica,sans-Serif" font-size="10.00">/github/workspace/dev</text>
<text text-anchor="start" x="38.5" y="-106" font-family="Helvetica,sans-Serif" font-size="10.00">_area/sourcecode/fdreadoutlibs</text>
<text text-anchor="start" x="38.5" y="-94.75" font-family="Helvetica,sans-Serif" font-size="10.00">/include/fdreadoutlibs/wibeth</text>
<text text-anchor="middle" x="106.38" y="-83.5" font-family="Helvetica,sans-Serif" font-size="10.00">/tpg/ProcessAVX2FIR.hpp</text>
</a>
</g>
</g>
<!-- Node8&#45;&gt;Node11 -->
<g id="edge10_Node000008_Node000011" class="edge">
<title>Node8&#45;&gt;Node11</title>
<g id="a_edge10_Node000008_Node000011"><a xlink:title=" ">
<path fill="none" stroke="#63b8ff" d="M618.79,-255.41C528.76,-237.23 490.68,-269.29 417.38,-219.75 394.38,-204.21 407.29,-182.4 384.38,-166.75 312.32,-117.54 276.17,-151.32 191.38,-130.75 188.53,-130.06 185.64,-129.33 182.73,-128.58"/>
<polygon fill="#63b8ff" stroke="#63b8ff" points="618.04,-258.83 628.56,-257.56 619.54,-251.99 618.04,-258.83"/>
</a>
</g>
</g>
<!-- Node13 -->
<g id="Node000013" class="node">
<title>Node13</title>
<g id="a_Node000013"><a xlink:href="ProcessAbsRSAVX2_8hpp.html" target="_top" xlink:title=" ">
<polygon fill="white" stroke="#666666" points="352.25,-130.75 200.5,-130.75 200.5,-77.75 352.25,-77.75 352.25,-130.75"/>
<text text-anchor="start" x="208.5" y="-117.25" font-family="Helvetica,sans-Serif" font-size="10.00">/github/workspace/dev</text>
<text text-anchor="start" x="208.5" y="-106" font-family="Helvetica,sans-Serif" font-size="10.00">_area/sourcecode/fdreadoutlibs</text>
<text text-anchor="start" x="208.5" y="-94.75" font-family="Helvetica,sans-Serif" font-size="10.00">/include/fdreadoutlibs/wibeth</text>
<text text-anchor="middle" x="276.38" y="-83.5" font-family="Helvetica,sans-Serif" font-size="10.00">/tpg/ProcessAbsRSAVX2.hpp</text>
</a>
</g>
</g>
<!-- Node8&#45;&gt;Node13 -->
<g id="edge12_Node000008_Node000013" class="edge">
<title>Node8&#45;&gt;Node13</title>
<g id="a_edge12_Node000008_Node000013"><a xlink:title=" ">
<path fill="none" stroke="#63b8ff" d="M619.53,-255.5C547.76,-239.06 519.79,-256.55 460.38,-219.75 434.59,-203.78 441.52,-185.11 417.38,-166.75 398.03,-152.04 374.62,-140.01 352.48,-130.63"/>
<polygon fill="#63b8ff" stroke="#63b8ff" points="618.43,-258.83 628.98,-257.82 620.11,-252.03 618.43,-258.83"/>
</a>
</g>
</g>
<!-- Node15 -->
<g id="Node000015" class="node">
<title>Node15</title>
<g id="a_Node000015"><a xlink:href="ProcessNaive_8hpp.html" target="_top" xlink:title=" ">
<polygon fill="white" stroke="#666666" points="522.25,-130.75 370.5,-130.75 370.5,-77.75 522.25,-77.75 522.25,-130.75"/>
<text text-anchor="start" x="378.5" y="-117.25" font-family="Helvetica,sans-Serif" font-size="10.00">/github/workspace/dev</text>
<text text-anchor="start" x="378.5" y="-106" font-family="Helvetica,sans-Serif" font-size="10.00">_area/sourcecode/fdreadoutlibs</text>
<text text-anchor="start" x="378.5" y="-94.75" font-family="Helvetica,sans-Serif" font-size="10.00">/include/fdreadoutlibs/wibeth</text>
<text text-anchor="middle" x="446.38" y="-83.5" font-family="Helvetica,sans-Serif" font-size="10.00">/tpg/ProcessNaive.hpp</text>
</a>
</g>
</g>
<!-- Node8&#45;&gt;Node15 -->
<g id="edge14_Node000008_Node000015" class="edge">
<title>Node8&#45;&gt;Node15</title>
<g id="a_edge14_Node000008_Node000015"><a xlink:title=" ">
<path fill="none" stroke="#63b8ff" d="M619.58,-255.47C563.73,-241.43 538.88,-254.89 498.38,-219.75 471.66,-196.57 457.93,-156.88 451.45,-130.85"/>
<polygon fill="#63b8ff" stroke="#63b8ff" points="618.35,-258.76 628.92,-258.02 620.2,-252.01 618.35,-258.76"/>
</a>
</g>
</g>
<!-- Node16 -->
<g id="Node000016" class="node">
<title>Node16</title>
<g id="a_Node000016"><a xlink:href="ProcessNaiveFIR_8hpp.html" target="_top" xlink:title=" ">
<polygon fill="white" stroke="#666666" points="692.25,-130.75 540.5,-130.75 540.5,-77.75 692.25,-77.75 692.25,-130.75"/>
<text text-anchor="start" x="548.5" y="-117.25" font-family="Helvetica,sans-Serif" font-size="10.00">/github/workspace/dev</text>
<text text-anchor="start" x="548.5" y="-106" font-family="Helvetica,sans-Serif" font-size="10.00">_area/sourcecode/fdreadoutlibs</text>
<text text-anchor="start" x="548.5" y="-94.75" font-family="Helvetica,sans-Serif" font-size="10.00">/include/fdreadoutlibs/wibeth</text>
<text text-anchor="middle" x="616.38" y="-83.5" font-family="Helvetica,sans-Serif" font-size="10.00">/tpg/ProcessNaiveFIR.hpp</text>
</a>
</g>
</g>
<!-- Node8&#45;&gt;Node16 -->
<g id="edge15_Node000008_Node000016" class="edge">
<title>Node8&#45;&gt;Node16</title>
<g id="a_edge15_Node000008_Node000016"><a xlink:title=" ">
<path fill="none" stroke="#63b8ff" d="M697.99,-244.42C691.79,-221.21 682.05,-191.13 668.38,-166.75 661.26,-154.07 651.35,-141.54 642.08,-131.13"/>
<polygon fill="#63b8ff" stroke="#63b8ff" points="694.59,-245.24 700.45,-254.06 701.37,-243.51 694.59,-245.24"/>
</a>
</g>
</g>
<!-- Node17 -->
<g id="Node000017" class="node">
<title>Node17</title>
<g id="a_Node000017"><a xlink:href="ProcessNaiveRS_8hpp.html" target="_top" xlink:title=" ">
<polygon fill="white" stroke="#666666" points="862.25,-130.75 710.5,-130.75 710.5,-77.75 862.25,-77.75 862.25,-130.75"/>
<text text-anchor="start" x="718.5" y="-117.25" font-family="Helvetica,sans-Serif" font-size="10.00">/github/workspace/dev</text>
<text text-anchor="start" x="718.5" y="-106" font-family="Helvetica,sans-Serif" font-size="10.00">_area/sourcecode/fdreadoutlibs</text>
<text text-anchor="start" x="718.5" y="-94.75" font-family="Helvetica,sans-Serif" font-size="10.00">/include/fdreadoutlibs/wibeth</text>
<text text-anchor="middle" x="786.38" y="-83.5" font-family="Helvetica,sans-Serif" font-size="10.00">/tpg/ProcessNaiveRS.hpp</text>
</a>
</g>
</g>
<!-- Node8&#45;&gt;Node17 -->
<g id="edge16_Node000008_Node000017" class="edge">
<title>Node8&#45;&gt;Node17</title>
<g id="a_edge16_Node000008_Node000017"><a xlink:title=" ">
<path fill="none" stroke="#63b8ff" d="M718.07,-245.07C725.92,-222.18 737.06,-192.21 749.38,-166.75 755.23,-154.63 762.73,-141.8 769.45,-131"/>
<polygon fill="#63b8ff" stroke="#63b8ff" points="714.85,-243.65 714.97,-254.25 721.48,-245.89 714.85,-243.65"/>
</a>
</g>
</g>
<!-- Node18 -->
<g id="Node000018" class="node">
<title>Node18</title>
<g id="a_Node000018"><a xlink:href="ProcessStandardRSAVX2_8hpp.html" target="_top" xlink:title=" ">
<polygon fill="white" stroke="#666666" points="1048.12,-130.75 880.62,-130.75 880.62,-77.75 1048.12,-77.75 1048.12,-130.75"/>
<text text-anchor="start" x="888.62" y="-117.25" font-family="Helvetica,sans-Serif" font-size="10.00">/github/workspace/dev</text>
<text text-anchor="start" x="888.62" y="-106" font-family="Helvetica,sans-Serif" font-size="10.00">_area/sourcecode/fdreadoutlibs</text>
<text text-anchor="start" x="888.62" y="-94.75" font-family="Helvetica,sans-Serif" font-size="10.00">/include/fdreadoutlibs/wibeth</text>
<text text-anchor="middle" x="964.38" y="-83.5" font-family="Helvetica,sans-Serif" font-size="10.00">/tpg/ProcessStandardRSAVX2.hpp</text>
</a>
</g>
</g>
<!-- Node8&#45;&gt;Node18 -->
<g id="edge17_Node000008_Node000018" class="edge">
<title>Node8&#45;&gt;Node18</title>
<g id="a_edge17_Node000008_Node000018"><a xlink:title=" ">
<path fill="none" stroke="#63b8ff" d="M730.81,-246.44C754.3,-213.03 786.39,-167.49 787.38,-166.75 802.91,-155.07 842.51,-140.89 880.32,-129.09"/>
<polygon fill="#63b8ff" stroke="#63b8ff" points="728.2,-244.07 725.32,-254.26 733.93,-248.09 728.2,-244.07"/>
</a>
</g>
</g>
<!-- Node20 -->
<g id="Node000020" class="node">
<title>Node20</title>
<g id="a_Node000020"><a xlink:href="ProcessingInfo_8hpp.html" target="_top" xlink:title=" ">
<polygon fill="white" stroke="#666666" points="659.25,-219.75 507.5,-219.75 507.5,-166.75 659.25,-166.75 659.25,-219.75"/>
<text text-anchor="start" x="515.5" y="-206.25" font-family="Helvetica,sans-Serif" font-size="10.00">/github/workspace/dev</text>
<text text-anchor="start" x="515.5" y="-195" font-family="Helvetica,sans-Serif" font-size="10.00">_area/sourcecode/fdreadoutlibs</text>
<text text-anchor="start" x="515.5" y="-183.75" font-family="Helvetica,sans-Serif" font-size="10.00">/include/fdreadoutlibs/wibeth</text>
<text text-anchor="middle" x="583.38" y="-172.5" font-family="Helvetica,sans-Serif" font-size="10.00">/tpg/ProcessingInfo.hpp</text>
</a>
</g>
</g>
<!-- Node8&#45;&gt;Node20 -->
<g id="edge19_Node000008_Node000020" class="edge">
<title>Node8&#45;&gt;Node20</title>
<g id="a_edge19_Node000008_Node000020"><a xlink:title=" ">
<path fill="none" stroke="#63b8ff" d="M660.72,-248.96C647.3,-239.46 632.8,-229.21 620.02,-220.17"/>
<polygon fill="#63b8ff" stroke="#63b8ff" points="658.38,-251.59 668.57,-254.51 662.43,-245.88 658.38,-251.59"/>
</a>
</g>
</g>
<!-- Node21 -->
<g id="Node000021" class="node">
<title>Node21</title>
<g id="a_Node000021"><a xlink:href="FrameExpand_8cpp.html" target="_top" xlink:title=" ">
<polygon fill="white" stroke="#666666" points="989.75,-214.12 829,-214.12 829,-172.38 989.75,-172.38 989.75,-214.12"/>
<text text-anchor="start" x="837" y="-200.62" font-family="Helvetica,sans-Serif" font-size="10.00">/github/workspace/dev</text>
<text text-anchor="start" x="837" y="-189.38" font-family="Helvetica,sans-Serif" font-size="10.00">_area/sourcecode/fdreadoutlibs</text>
<text text-anchor="middle" x="909.38" y="-178.12" font-family="Helvetica,sans-Serif" font-size="10.00">/src/wibeth/tpg/FrameExpand.cpp</text>
</a>
</g>
</g>
<!-- Node8&#45;&gt;Node21 -->
<g id="edge27_Node000008_Node000021" class="edge">
<title>Node8&#45;&gt;Node21</title>
<g id="a_edge27_Node000008_Node000021"><a xlink:title=" ">
<path fill="none" stroke="#63b8ff" d="M777.54,-250.75C805.49,-238.77 836.83,-225.34 861.93,-214.58"/>
<polygon fill="#63b8ff" stroke="#63b8ff" points="776.21,-247.51 768.4,-254.67 778.97,-253.95 776.21,-247.51"/>
</a>
</g>
</g>
<!-- Node22 -->
<g id="Node000022" class="node">
<title>Node22</title>
<g id="a_Node000022"><a xlink:href="RegisterToChannelNumber_8cpp.html" target="_top" xlink:title=" ">
<polygon fill="white" stroke="#666666" points="1226.62,-214.12 1008.12,-214.12 1008.12,-172.38 1226.62,-172.38 1226.62,-214.12"/>
<text text-anchor="start" x="1016.12" y="-200.62" font-family="Helvetica,sans-Serif" font-size="10.00">/github/workspace/dev</text>
<text text-anchor="start" x="1016.12" y="-189.38" font-family="Helvetica,sans-Serif" font-size="10.00">_area/sourcecode/fdreadoutlibs</text>
<text text-anchor="middle" x="1117.38" y="-178.12" font-family="Helvetica,sans-Serif" font-size="10.00">/src/wibeth/tpg/RegisterToChannelNumber.cpp</text>
</a>
</g>
</g>
<!-- Node8&#45;&gt;Node22 -->
<g id="edge28_Node000008_Node000022" class="edge">
<title>Node8&#45;&gt;Node22</title>
<g id="a_edge28_Node000008_Node000022"><a xlink:title=" ">
<path fill="none" stroke="#63b8ff" d="M793.77,-255.3C884.22,-234.51 910.19,-236.86 998.38,-219.75 1006.78,-218.12 1015.5,-216.37 1024.23,-214.57"/>
<polygon fill="#63b8ff" stroke="#63b8ff" points="793.13,-251.85 784.19,-257.54 794.72,-258.67 793.13,-251.85"/>
</a>
</g>
</g>
<!-- Node10 -->
<g id="Node000010" class="node">
<title>Node10</title>
<g id="a_Node000010"><a xlink:href="ProcessAVX2_8cpp.html" target="_top" xlink:title=" ">
<polygon fill="white" stroke="#666666" points="1237.88,-41.75 1074.88,-41.75 1074.88,0 1237.88,0 1237.88,-41.75"/>
<text text-anchor="start" x="1082.88" y="-28.25" font-family="Helvetica,sans-Serif" font-size="10.00">/github/workspace/dev</text>
<text text-anchor="start" x="1082.88" y="-17" font-family="Helvetica,sans-Serif" font-size="10.00">_area/sourcecode/fdreadoutlibs</text>
<text text-anchor="middle" x="1156.38" y="-5.75" font-family="Helvetica,sans-Serif" font-size="10.00">/src/wibeth/tpg/ProcessAVX2.cpp</text>
</a>
</g>
</g>
<!-- Node9&#45;&gt;Node10 -->
<g id="edge9_Node000009_Node000010" class="edge">
<title>Node9&#45;&gt;Node10</title>
<g id="a_edge9_Node000009_Node000010"><a xlink:title=" ">
<path fill="none" stroke="#63b8ff" d="M1148.72,-66.36C1150.16,-57.99 1151.64,-49.41 1152.91,-42.04"/>
<polygon fill="#63b8ff" stroke="#63b8ff" points="1145.31,-65.56 1147.06,-76.01 1152.21,-66.75 1145.31,-65.56"/>
</a>
</g>
</g>
<!-- Node12 -->
<g id="Node000012" class="node">
<title>Node12</title>
<g id="a_Node000012"><a xlink:href="ProcessAVX2FIR_8cpp.html" target="_top" xlink:title=" ">
<polygon fill="white" stroke="#666666" points="178.75,-41.75 0,-41.75 0,0 178.75,0 178.75,-41.75"/>
<text text-anchor="start" x="8" y="-28.25" font-family="Helvetica,sans-Serif" font-size="10.00">/github/workspace/dev</text>
<text text-anchor="start" x="8" y="-17" font-family="Helvetica,sans-Serif" font-size="10.00">_area/sourcecode/fdreadoutlibs</text>
<text text-anchor="middle" x="89.38" y="-5.75" font-family="Helvetica,sans-Serif" font-size="10.00">/src/wibeth/tpg/ProcessAVX2FIR.cpp</text>
</a>
</g>
</g>
<!-- Node11&#45;&gt;Node12 -->
<g id="edge11_Node000011_Node000012" class="edge">
<title>Node11&#45;&gt;Node12</title>
<g id="a_edge11_Node000011_Node000012"><a xlink:title=" ">
<path fill="none" stroke="#63b8ff" d="M98.67,-66.36C96.92,-57.99 95.13,-49.41 93.59,-42.04"/>
<polygon fill="#63b8ff" stroke="#63b8ff" points="95.22,-66.95 100.69,-76.02 102.07,-65.52 95.22,-66.95"/>
</a>
</g>
</g>
<!-- Node14 -->
<g id="Node000014" class="node">
<title>Node14</title>
<g id="a_Node000014"><a xlink:href="ProcessAbsRSAVX2_8cpp.html" target="_top" xlink:title=" ">
<polygon fill="white" stroke="#666666" points="390.25,-41.75 196.5,-41.75 196.5,0 390.25,0 390.25,-41.75"/>
<text text-anchor="start" x="204.5" y="-28.25" font-family="Helvetica,sans-Serif" font-size="10.00">/github/workspace/dev</text>
<text text-anchor="start" x="204.5" y="-17" font-family="Helvetica,sans-Serif" font-size="10.00">_area/sourcecode/fdreadoutlibs</text>
<text text-anchor="middle" x="293.38" y="-5.75" font-family="Helvetica,sans-Serif" font-size="10.00">/src/wibeth/tpg/ProcessAbsRSAVX2.cpp</text>
</a>
</g>
</g>
<!-- Node13&#45;&gt;Node14 -->
<g id="edge13_Node000013_Node000014" class="edge">
<title>Node13&#45;&gt;Node14</title>
<g id="a_edge13_Node000013_Node000014"><a xlink:title=" ">
<path fill="none" stroke="#63b8ff" d="M284.08,-66.36C285.83,-57.99 287.62,-49.41 289.16,-42.04"/>
<polygon fill="#63b8ff" stroke="#63b8ff" points="280.68,-65.52 282.06,-76.02 287.53,-66.95 280.68,-65.52"/>
</a>
</g>
</g>
<!-- Node19 -->
<g id="Node000019" class="node">
<title>Node19</title>
<g id="a_Node000019"><a xlink:href="ProcessStandardRSAVX2_8cpp.html" target="_top" xlink:title=" ">
<polygon fill="white" stroke="#666666" points="1057.12,-41.75 841.62,-41.75 841.62,0 1057.12,0 1057.12,-41.75"/>
<text text-anchor="start" x="849.62" y="-28.25" font-family="Helvetica,sans-Serif" font-size="10.00">/github/workspace/dev</text>
<text text-anchor="start" x="849.62" y="-17" font-family="Helvetica,sans-Serif" font-size="10.00">_area/sourcecode/fdreadoutlibs</text>
<text text-anchor="middle" x="949.38" y="-5.75" font-family="Helvetica,sans-Serif" font-size="10.00">/src/wibeth/tpg/ProcessStandardRSAVX2.cpp</text>
</a>
</g>
</g>
<!-- Node18&#45;&gt;Node19 -->
<g id="edge18_Node000018_Node000019" class="edge">
<title>Node18&#45;&gt;Node19</title>
<g id="a_edge18_Node000018_Node000019"><a xlink:title=" ">
<path fill="none" stroke="#63b8ff" d="M957.58,-66.36C956.03,-57.99 954.45,-49.41 953.09,-42.04"/>
<polygon fill="#63b8ff" stroke="#63b8ff" points="954.1,-66.81 959.35,-76.01 960.98,-65.55 954.1,-66.81"/>
</a>
</g>
</g>
<!-- Node20&#45;&gt;Node9 -->
<g id="edge20_Node000020_Node000009" class="edge">
<title>Node20&#45;&gt;Node9</title>
<g id="a_edge20_Node000020_Node000009"><a xlink:title=" ">
<path fill="none" stroke="#63b8ff" d="M670.83,-181.27C802.6,-164.69 1038.73,-134.73 1057.38,-130.75 1060.24,-130.14 1063.14,-129.48 1066.07,-128.78"/>
<polygon fill="#63b8ff" stroke="#63b8ff" points="670.57,-177.78 661.09,-182.5 671.45,-184.73 670.57,-177.78"/>
</a>
</g>
</g>
<!-- Node20&#45;&gt;Node11 -->
<g id="edge21_Node000020_Node000011" class="edge">
<title>Node20&#45;&gt;Node11</title>
<g id="a_edge21_Node000020_Node000011"><a xlink:title=" ">
<path fill="none" stroke="#63b8ff" d="M496.25,-178.89C385.31,-161.83 206.13,-134.1 191.38,-130.75 188.52,-130.1 185.62,-129.41 182.7,-128.68"/>
<polygon fill="#63b8ff" stroke="#63b8ff" points="495.52,-182.32 505.93,-180.38 496.58,-175.4 495.52,-182.32"/>
</a>
</g>
</g>
<!-- Node20&#45;&gt;Node13 -->
<g id="edge22_Node000020_Node000013" class="edge">
<title>Node20&#45;&gt;Node13</title>
<g id="a_edge22_Node000020_Node000013"><a xlink:title=" ">
<path fill="none" stroke="#63b8ff" d="M496.19,-168.56C455.21,-157.3 405.73,-143.54 361.38,-130.75 358.41,-129.9 355.4,-129.02 352.35,-128.13"/>
<polygon fill="#63b8ff" stroke="#63b8ff" points="495.2,-171.91 505.77,-171.18 497.05,-165.16 495.2,-171.91"/>
</a>
</g>
</g>
<!-- Node20&#45;&gt;Node15 -->
<g id="edge23_Node000020_Node000015" class="edge">
<title>Node20&#45;&gt;Node15</title>
<g id="a_edge23_Node000020_Node000015"><a xlink:title=" ">
<path fill="none" stroke="#63b8ff" d="M532.95,-160.23C517.89,-150.66 501.56,-140.29 487.19,-131.17"/>
<polygon fill="#63b8ff" stroke="#63b8ff" points="531.05,-163.17 541.36,-165.57 534.8,-157.26 531.05,-163.17"/>
</a>
</g>
</g>
<!-- Node20&#45;&gt;Node16 -->
<g id="edge24_Node000020_Node000016" class="edge">
<title>Node20&#45;&gt;Node16</title>
<g id="a_edge24_Node000020_Node000016"><a xlink:title=" ">
<path fill="none" stroke="#63b8ff" d="M597.15,-155.93C600.33,-147.55 603.64,-138.82 606.61,-131"/>
<polygon fill="#63b8ff" stroke="#63b8ff" points="593.91,-154.61 593.63,-165.2 600.45,-157.09 593.91,-154.61"/>
</a>
</g>
</g>
<!-- Node20&#45;&gt;Node17 -->
<g id="edge25_Node000020_Node000017" class="edge">
<title>Node20&#45;&gt;Node17</title>
<g id="a_edge25_Node000020_Node000017"><a xlink:title=" ">
<path fill="none" stroke="#63b8ff" d="M654.55,-161.75C677.89,-151.74 703.59,-140.73 726.06,-131.1"/>
<polygon fill="#63b8ff" stroke="#63b8ff" points="653.21,-158.51 645.4,-165.67 655.97,-164.95 653.21,-158.51"/>
</a>
</g>
</g>
<!-- Node20&#45;&gt;Node18 -->
<g id="edge26_Node000020_Node000018" class="edge">
<title>Node20&#45;&gt;Node18</title>
<g id="a_edge26_Node000020_Node000018"><a xlink:title=" ">
<path fill="none" stroke="#63b8ff" d="M670.93,-174.91C728.16,-163.24 804.43,-147.06 871.38,-130.75 874.3,-130.04 877.28,-129.3 880.28,-128.54"/>
<polygon fill="#63b8ff" stroke="#63b8ff" points="670.33,-171.46 661.23,-176.88 671.72,-178.32 670.33,-171.46"/>
</a>
</g>
</g>
<!-- Node23&#45;&gt;Node22 -->
<g id="edge31_Node000023_Node000022" class="edge">
<title>Node23&#45;&gt;Node22</title>
<g id="a_edge31_Node000023_Node000022"><a xlink:title=" ">
<path fill="none" stroke="#63b8ff" d="M965.44,-251.23C997.7,-239.13 1034.09,-225.48 1063.16,-214.58"/>
<polygon fill="#63b8ff" stroke="#63b8ff" points="964.22,-247.95 956.09,-254.73 966.68,-254.5 964.22,-247.95"/>
</a>
</g>
</g>
<!-- Node25 -->
<g id="Node000025" class="node">
<title>Node25</title>
<g id="a_Node000025"><a xlink:href="file__conversion_8cpp.html" target="_top" xlink:title=" ">
<polygon fill="white" stroke="#666666" points="1137.75,-303.12 989,-303.12 989,-261.38 1137.75,-261.38 1137.75,-303.12"/>
<text text-anchor="start" x="997" y="-289.62" font-family="Helvetica,sans-Serif" font-size="10.00">/github/workspace/dev</text>
<text text-anchor="start" x="997" y="-278.38" font-family="Helvetica,sans-Serif" font-size="10.00">_area/sourcecode/rawdatautils</text>
<text text-anchor="middle" x="1063.38" y="-267.12" font-family="Helvetica,sans-Serif" font-size="10.00">/pybindsrc/file_conversion.cpp</text>
</a>
</g>
</g>
<!-- Node24&#45;&gt;Node25 -->
<g id="edge33_Node000024_Node000025" class="edge">
<title>Node24&#45;&gt;Node25</title>
<g id="a_edge33_Node000024_Node000025"><a xlink:title=" ">
<path fill="none" stroke="#63b8ff" d="M969.2,-343.94C989.28,-331 1013.1,-315.65 1031.77,-303.62"/>
<polygon fill="#63b8ff" stroke="#63b8ff" points="967.47,-340.89 960.96,-349.25 971.26,-346.78 967.47,-340.89"/>
</a>
</g>
</g>
</g>
</svg>
