<?xml version="1.0" encoding="UTF-8" standalone="no"?>
<!DOCTYPE svg PUBLIC "-//W3C//DTD SVG 1.1//EN"
 "http://www.w3.org/Graphics/SVG/1.1/DTD/svg11.dtd">
<!-- Generated by graphviz version 9.0.0 (20230911.1827)
 -->
<!-- Title: /github/workspace/dev_area/sourcecode/rawdatautils/include/rawdatautils/WIBtoWIB2.hpp Pages: 1 -->
<svg width="595pt" height="160pt"
 viewBox="0.00 0.00 594.50 160.25" xmlns="http://www.w3.org/2000/svg" xmlns:xlink="http://www.w3.org/1999/xlink">
<g id="graph0" class="graph" transform="scale(1 1) rotate(0) translate(4 156.25)">
<title>/github/workspace/dev_area/sourcecode/rawdatautils/include/rawdatautils/WIBtoWIB2.hpp</title>
<!-- Node1 -->
<g id="Node000001" class="node">
<title>Node1</title>
<g id="a_Node000001"><a xlink:title=" ">
<polygon fill="#999999" stroke="#666666" points="394.38,-152.25 217.12,-152.25 217.12,-110.5 394.38,-110.5 394.38,-152.25"/>
<text text-anchor="start" x="225.12" y="-138.75" font-family="Helvetica,sans-Serif" font-size="10.00">/github/workspace/dev</text>
<text text-anchor="start" x="225.12" y="-127.5" font-family="Helvetica,sans-Serif" font-size="10.00">_area/sourcecode/rawdatautils</text>
<text text-anchor="middle" x="305.75" y="-116.25" font-family="Helvetica,sans-Serif" font-size="10.00">/include/rawdatautils/WIBtoWIB2.hpp</text>
</a>
</g>
</g>
<!-- Node2 -->
<g id="Node000002" class="node">
<title>Node2</title>
<g id="a_Node000002"><a xlink:title=" ">
<polygon fill="#e0e0e0" stroke="#999999" points="312.38,-19.25 267.12,-19.25 267.12,0 312.38,0 312.38,-19.25"/>
<text text-anchor="middle" x="289.75" y="-5.75" font-family="Helvetica,sans-Serif" font-size="10.00">cstdint</text>
</a>
</g>
</g>
<!-- Node1&#45;&gt;Node2 -->
<g id="edge1_Node000001_Node000002" class="edge">
<title>Node1&#45;&gt;Node2</title>
<g id="a_edge1_Node000001_Node000002"><a xlink:title=" ">
<path fill="none" stroke="#63b8ff" d="M289.27,-110.23C282.08,-100.15 274.45,-87.37 270.75,-74.5 266.4,-59.36 272.05,-42.26 278.29,-29.57"/>
<polygon fill="#63b8ff" stroke="#63b8ff" points="281.23,-31.49 282.97,-21.03 275.09,-28.12 281.23,-31.49"/>
</a>
</g>
</g>
<!-- Node3 -->
<g id="Node000003" class="node">
<title>Node3</title>
<g id="a_Node000003"><a xlink:title=" ">
<polygon fill="#e0e0e0" stroke="#999999" points="53.5,-19.25 0,-19.25 0,0 53.5,0 53.5,-19.25"/>
<text text-anchor="middle" x="26.75" y="-5.75" font-family="Helvetica,sans-Serif" font-size="10.00">iostream</text>
</a>
</g>
</g>
<!-- Node1&#45;&gt;Node3 -->
<g id="edge2_Node000001_Node000003" class="edge">
<title>Node1&#45;&gt;Node3</title>
<g id="a_edge2_Node000001_Node000003"><a xlink:title=" ">
<path fill="none" stroke="#63b8ff" d="M216.83,-118.81C155.73,-109.33 81.37,-94.26 56.75,-74.5 43.01,-63.48 35.24,-44.69 31.07,-30.34"/>
<polygon fill="#63b8ff" stroke="#63b8ff" points="34.57,-29.9 28.73,-21.06 27.78,-31.61 34.57,-29.9"/>
</a>
</g>
</g>
<!-- Node4 -->
<g id="Node000004" class="node">
<title>Node4</title>
<g id="a_Node000004"><a xlink:title=" ">
<polygon fill="#e0e0e0" stroke="#999999" points="509.25,-74.5 460.25,-74.5 460.25,-55.25 509.25,-55.25 509.25,-74.5"/>
<text text-anchor="middle" x="484.75" y="-61" font-family="Helvetica,sans-Serif" font-size="10.00">fstream</text>
</a>
</g>
</g>
<!-- Node1&#45;&gt;Node4 -->
<g id="edge3_Node000001_Node000004" class="edge">
<title>Node1&#45;&gt;Node4</title>
<g id="a_edge3_Node000001_Node000004"><a xlink:title=" ">
<path fill="none" stroke="#63b8ff" d="M361.9,-110.14C390.53,-99.83 424.47,-87.6 449.41,-78.61"/>
<polygon fill="#63b8ff" stroke="#63b8ff" points="450.55,-81.92 458.77,-75.24 448.17,-75.33 450.55,-81.92"/>
</a>
</g>
</g>
<!-- Node5 -->
<g id="Node000005" class="node">
<title>Node5</title>
<g id="a_Node000005"><a xlink:title=" ">
<polygon fill="#e0e0e0" stroke="#999999" points="586.5,-74.5 527,-74.5 527,-55.25 586.5,-55.25 586.5,-74.5"/>
<text text-anchor="middle" x="556.75" y="-61" font-family="Helvetica,sans-Serif" font-size="10.00">filesystem</text>
</a>
</g>
</g>
<!-- Node1&#45;&gt;Node5 -->
<g id="edge4_Node000001_Node000005" class="edge">
<title>Node1&#45;&gt;Node5</title>
<g id="a_edge4_Node000001_Node000005"><a xlink:title=" ">
<path fill="none" stroke="#63b8ff" d="M384.82,-110.06C428.26,-98.89 480.34,-85.51 515.71,-76.42"/>
<polygon fill="#63b8ff" stroke="#63b8ff" points="516.29,-79.88 525.11,-74.01 514.55,-73.11 516.29,-79.88"/>
</a>
</g>
</g>
<!-- Node6 -->
<g id="Node000006" class="node">
<title>Node6</title>
<g id="a_Node000006"><a xlink:href="WIBFrame_8hpp.html" target="_top" xlink:title=" ">
<polygon fill="white" stroke="#666666" points="223.25,-74.5 66.25,-74.5 66.25,-55.25 223.25,-55.25 223.25,-74.5"/>
<text text-anchor="middle" x="144.75" y="-61" font-family="Helvetica,sans-Serif" font-size="10.00">fddetdataformats/WIBFrame.hpp</text>
</a>
</g>
</g>
<!-- Node1&#45;&gt;Node6 -->
<g id="edge5_Node000001_Node000006" class="edge">
<title>Node1&#45;&gt;Node6</title>
<g id="a_edge5_Node000001_Node000006"><a xlink:title=" ">
<path fill="none" stroke="#63b8ff" d="M255.25,-110.14C230.01,-100.03 200.17,-88.08 177.86,-79.14"/>
<polygon fill="#63b8ff" stroke="#63b8ff" points="179.25,-75.93 168.67,-75.46 176.65,-82.43 179.25,-75.93"/>
</a>
</g>
</g>
<!-- Node10 -->
<g id="Node000010" class="node">
<title>Node10</title>
<g id="a_Node000010"><a xlink:href="WIB2Frame_8hpp.html" target="_top" xlink:title=" ">
<polygon fill="white" stroke="#666666" points="441.88,-74.5 279.62,-74.5 279.62,-55.25 441.88,-55.25 441.88,-74.5"/>
<text text-anchor="middle" x="360.75" y="-61" font-family="Helvetica,sans-Serif" font-size="10.00">fddetdataformats/WIB2Frame.hpp</text>
</a>
</g>
</g>
<!-- Node1&#45;&gt;Node10 -->
<g id="edge10_Node000001_Node000010" class="edge">
<title>Node1&#45;&gt;Node10</title>
<g id="a_edge10_Node000001_Node000010"><a xlink:title=" ">
<path fill="none" stroke="#63b8ff" d="M322.85,-110.32C330.18,-101.72 338.67,-91.77 345.75,-83.46"/>
<polygon fill="#63b8ff" stroke="#63b8ff" points="348.21,-85.98 352.03,-76.1 342.88,-81.44 348.21,-85.98"/>
</a>
</g>
</g>
<!-- Node6&#45;&gt;Node3 -->
<g id="edge7_Node000006_Node000003" class="edge">
<title>Node6&#45;&gt;Node3</title>
<g id="a_edge7_Node000006_Node000003"><a xlink:title=" ">
<path fill="none" stroke="#63b8ff" d="M124.73,-54.84C106.26,-46.5 78.54,-34 57.3,-24.41"/>
<polygon fill="#63b8ff" stroke="#63b8ff" points="58.8,-21.25 48.24,-20.33 55.92,-27.63 58.8,-21.25"/>
</a>
</g>
</g>
<!-- Node7 -->
<g id="Node000007" class="node">
<title>Node7</title>
<g id="a_Node000007"><a xlink:title=" ">
<polygon fill="#e0e0e0" stroke="#999999" points="172.75,-19.25 132.75,-19.25 132.75,0 172.75,0 172.75,-19.25"/>
<text text-anchor="middle" x="152.75" y="-5.75" font-family="Helvetica,sans-Serif" font-size="10.00">bitset</text>
</a>
</g>
</g>
<!-- Node6&#45;&gt;Node7 -->
<g id="edge6_Node000006_Node000007" class="edge">
<title>Node6&#45;&gt;Node7</title>
<g id="a_edge6_Node000006_Node000007"><a xlink:title=" ">
<path fill="none" stroke="#63b8ff" d="M146.07,-55.08C147.06,-48.49 148.46,-39.21 149.72,-30.82"/>
<polygon fill="#63b8ff" stroke="#63b8ff" points="153.15,-31.51 151.18,-21.11 146.23,-30.47 153.15,-31.51"/>
</a>
</g>
</g>
<!-- Node8 -->
<g id="Node000008" class="node">
<title>Node8</title>
<g id="a_Node000008"><a xlink:title=" ">
<polygon fill="#e0e0e0" stroke="#999999" points="114.25,-19.25 71.25,-19.25 71.25,0 114.25,0 114.25,-19.25"/>
<text text-anchor="middle" x="92.75" y="-5.75" font-family="Helvetica,sans-Serif" font-size="10.00">vector</text>
</a>
</g>
</g>
<!-- Node6&#45;&gt;Node8 -->
<g id="edge8_Node000006_Node000008" class="edge">
<title>Node6&#45;&gt;Node8</title>
<g id="a_edge8_Node000006_Node000008"><a xlink:title=" ">
<path fill="none" stroke="#63b8ff" d="M136.16,-55.08C128.91,-47.65 118.3,-36.79 109.38,-27.66"/>
<polygon fill="#63b8ff" stroke="#63b8ff" points="112.07,-25.4 102.58,-20.69 107.06,-30.29 112.07,-25.4"/>
</a>
</g>
</g>
<!-- Node9 -->
<g id="Node000009" class="node">
<title>Node9</title>
<g id="a_Node000009"><a xlink:title=" ">
<polygon fill="#e0e0e0" stroke="#999999" points="248.75,-19.25 190.75,-19.25 190.75,0 248.75,0 248.75,-19.25"/>
<text text-anchor="middle" x="219.75" y="-5.75" font-family="Helvetica,sans-Serif" font-size="10.00">stdexcept</text>
</a>
</g>
</g>
<!-- Node6&#45;&gt;Node9 -->
<g id="edge9_Node000006_Node000009" class="edge">
<title>Node6&#45;&gt;Node9</title>
<g id="a_edge9_Node000006_Node000009"><a xlink:title=" ">
<path fill="none" stroke="#63b8ff" d="M157.47,-54.84C168.46,-47.04 184.59,-35.59 197.68,-26.29"/>
<polygon fill="#63b8ff" stroke="#63b8ff" points="199.6,-29.22 205.73,-20.58 195.55,-23.51 199.6,-29.22"/>
</a>
</g>
</g>
<!-- Node10&#45;&gt;Node2 -->
<g id="edge13_Node000010_Node000002" class="edge">
<title>Node10&#45;&gt;Node2</title>
<g id="a_edge13_Node000010_Node000002"><a xlink:title=" ">
<path fill="none" stroke="#63b8ff" d="M348.71,-54.84C338.34,-47.07 323.15,-35.67 310.78,-26.4"/>
<polygon fill="#63b8ff" stroke="#63b8ff" points="312.93,-23.63 302.83,-20.43 308.73,-29.23 312.93,-23.63"/>
</a>
</g>
</g>
<!-- Node10&#45;&gt;Node9 -->
<g id="edge16_Node000010_Node000009" class="edge">
<title>Node10&#45;&gt;Node9</title>
<g id="a_edge16_Node000010_Node000009"><a xlink:title=" ">
<path fill="none" stroke="#63b8ff" d="M336.83,-54.84C314.25,-46.31 280.11,-33.42 254.52,-23.76"/>
<polygon fill="#63b8ff" stroke="#63b8ff" points="255.79,-20.5 245.2,-20.24 253.32,-27.04 255.79,-20.5"/>
</a>
</g>
</g>
<!-- Node11 -->
<g id="Node000011" class="node">
<title>Node11</title>
<g id="a_Node000011"><a xlink:title=" ">
<polygon fill="#e0e0e0" stroke="#999999" points="448.62,-19.25 392.88,-19.25 392.88,0 448.62,0 448.62,-19.25"/>
<text text-anchor="middle" x="420.75" y="-5.75" font-family="Helvetica,sans-Serif" font-size="10.00">algorithm</text>
</a>
</g>
</g>
<!-- Node10&#45;&gt;Node11 -->
<g id="edge11_Node000010_Node000011" class="edge">
<title>Node10&#45;&gt;Node11</title>
<g id="a_edge11_Node000010_Node000011"><a xlink:title=" ">
<path fill="none" stroke="#63b8ff" d="M370.93,-54.84C379.51,-47.22 392.02,-36.12 402.35,-26.95"/>
<polygon fill="#63b8ff" stroke="#63b8ff" points="404.43,-29.79 409.59,-20.53 399.79,-24.55 404.43,-29.79"/>
</a>
</g>
</g>
<!-- Node12 -->
<g id="Node000012" class="node">
<title>Node12</title>
<g id="a_Node000012"><a xlink:title=" ">
<polygon fill="#e0e0e0" stroke="#999999" points="514.88,-19.25 466.62,-19.25 466.62,0 514.88,0 514.88,-19.25"/>
<text text-anchor="middle" x="490.75" y="-5.75" font-family="Helvetica,sans-Serif" font-size="10.00">cassert</text>
</a>
</g>
</g>
<!-- Node10&#45;&gt;Node12 -->
<g id="edge12_Node000010_Node000012" class="edge">
<title>Node10&#45;&gt;Node12</title>
<g id="a_edge12_Node000010_Node000012"><a xlink:title=" ">
<path fill="none" stroke="#63b8ff" d="M382.8,-54.84C403.44,-46.39 434.53,-33.65 458.05,-24.02"/>
<polygon fill="#63b8ff" stroke="#63b8ff" points="459.26,-27.31 467.19,-20.28 456.61,-20.83 459.26,-27.31"/>
</a>
</g>
</g>
<!-- Node13 -->
<g id="Node000013" class="node">
<title>Node13</title>
<g id="a_Node000013"><a xlink:title=" ">
<polygon fill="#e0e0e0" stroke="#999999" points="574.88,-19.25 532.62,-19.25 532.62,0 574.88,0 574.88,-19.25"/>
<text text-anchor="middle" x="553.75" y="-5.75" font-family="Helvetica,sans-Serif" font-size="10.00">cstdio</text>
</a>
</g>
</g>
<!-- Node10&#45;&gt;Node13 -->
<g id="edge14_Node000010_Node000013" class="edge">
<title>Node10&#45;&gt;Node13</title>
<g id="a_edge14_Node000010_Node000013"><a xlink:title=" ">
<path fill="none" stroke="#63b8ff" d="M394.5,-54.77C425.23,-46.45 472.15,-33.67 521.28,-19.92"/>
<polygon fill="#63b8ff" stroke="#63b8ff" points="521.99,-23.36 530.67,-17.29 520.1,-16.62 521.99,-23.36"/>
</a>
</g>
</g>
<!-- Node14 -->
<g id="Node000014" class="node">
<title>Node14</title>
<g id="a_Node000014"><a xlink:title=" ">
<polygon fill="#e0e0e0" stroke="#999999" points="375,-19.25 330.5,-19.25 330.5,0 375,0 375,-19.25"/>
<text text-anchor="middle" x="352.75" y="-5.75" font-family="Helvetica,sans-Serif" font-size="10.00">cstdlib</text>
</a>
</g>
</g>
<!-- Node10&#45;&gt;Node14 -->
<g id="edge15_Node000010_Node000014" class="edge">
<title>Node10&#45;&gt;Node14</title>
<g id="a_edge15_Node000010_Node000014"><a xlink:title=" ">
<path fill="none" stroke="#63b8ff" d="M359.43,-55.08C358.44,-48.49 357.04,-39.21 355.78,-30.82"/>
<polygon fill="#63b8ff" stroke="#63b8ff" points="359.27,-30.47 354.32,-21.11 352.35,-31.51 359.27,-30.47"/>
</a>
</g>
</g>
</g>
</svg>
