<?xml version="1.0" encoding="UTF-8" standalone="no"?>
<!DOCTYPE svg PUBLIC "-//W3C//DTD SVG 1.1//EN"
 "http://www.w3.org/Graphics/SVG/1.1/DTD/svg11.dtd">
<!-- Generated by graphviz version 9.0.0 (20230911.1827)
 -->
<!-- Title: /github/workspace/dev_area/sourcecode/utilities/include/utilities/WorkerThread.hpp Pages: 1 -->
<svg width="1500pt" height="306pt"
 viewBox="0.00 0.00 1499.50 305.50" xmlns="http://www.w3.org/2000/svg" xmlns:xlink="http://www.w3.org/1999/xlink">
<g id="graph0" class="graph" transform="scale(1 1) rotate(0) translate(4 301.5)">
<title>/github/workspace/dev_area/sourcecode/utilities/include/utilities/WorkerThread.hpp</title>
<!-- Node1 -->
<g id="Node000001" class="node">
<title>Node1</title>
<g id="a_Node000001"><a xlink:title=" ">
<polygon fill="#999999" stroke="#666666" points="841.62,-297.5 676.38,-297.5 676.38,-255.75 841.62,-255.75 841.62,-297.5"/>
<text text-anchor="start" x="684.38" y="-284" font-family="Helvetica,sans-Serif" font-size="10.00">/github/workspace/dev</text>
<text text-anchor="start" x="684.38" y="-272.75" font-family="Helvetica,sans-Serif" font-size="10.00">_area/sourcecode/utilities</text>
<text text-anchor="middle" x="759" y="-261.5" font-family="Helvetica,sans-Serif" font-size="10.00">/include/utilities/WorkerThread.hpp</text>
</a>
</g>
</g>
<!-- Node2 -->
<g id="Node000002" class="node">
<title>Node2</title>
<g id="a_Node000002"><a xlink:href="RecorderConcept_8hpp.html" target="_top" xlink:title=" ">
<polygon fill="white" stroke="#666666" points="277,-219.75 111,-219.75 111,-166.75 277,-166.75 277,-219.75"/>
<text text-anchor="start" x="119" y="-206.25" font-family="Helvetica,sans-Serif" font-size="10.00">/github/workspace/dev</text>
<text text-anchor="start" x="119" y="-195" font-family="Helvetica,sans-Serif" font-size="10.00">_area/sourcecode/datahandlinglibs</text>
<text text-anchor="start" x="119" y="-183.75" font-family="Helvetica,sans-Serif" font-size="10.00">/include/datahandlinglibs/concepts</text>
<text text-anchor="middle" x="194" y="-172.5" font-family="Helvetica,sans-Serif" font-size="10.00">/RecorderConcept.hpp</text>
</a>
</g>
</g>
<!-- Node1&#45;&gt;Node2 -->
<g id="edge1_Node000001_Node000002" class="edge">
<title>Node1&#45;&gt;Node2</title>
<g id="a_edge1_Node000001_Node000002"><a xlink:title=" ">
<path fill="none" stroke="#63b8ff" d="M664.53,-268.74C568.58,-260.75 416.01,-245.29 286,-219.75 283.07,-219.17 280.1,-218.55 277.11,-217.9"/>
<polygon fill="#63b8ff" stroke="#63b8ff" points="664.19,-272.22 674.44,-269.55 664.76,-265.25 664.19,-272.22"/>
</a>
</g>
</g>
<!-- Node3 -->
<g id="Node000003" class="node">
<title>Node3</title>
<g id="a_Node000003"><a xlink:href="RecorderModel_8hpp.html" target="_top" xlink:title=" ">
<polygon fill="white" stroke="#666666" points="166,-130.75 0,-130.75 0,-77.75 166,-77.75 166,-130.75"/>
<text text-anchor="start" x="8" y="-117.25" font-family="Helvetica,sans-Serif" font-size="10.00">/github/workspace/dev</text>
<text text-anchor="start" x="8" y="-106" font-family="Helvetica,sans-Serif" font-size="10.00">_area/sourcecode/datahandlinglibs</text>
<text text-anchor="start" x="8" y="-94.75" font-family="Helvetica,sans-Serif" font-size="10.00">/include/datahandlinglibs/models</text>
<text text-anchor="middle" x="83" y="-83.5" font-family="Helvetica,sans-Serif" font-size="10.00">/RecorderModel.hpp</text>
</a>
</g>
</g>
<!-- Node1&#45;&gt;Node3 -->
<g id="edge5_Node000001_Node000003" class="edge">
<title>Node1&#45;&gt;Node3</title>
<g id="a_edge5_Node000001_Node000003"><a xlink:title=" ">
<path fill="none" stroke="#63b8ff" d="M664.73,-273.9C492.86,-269.86 142.43,-257.09 102,-219.75 77.87,-197.47 76.76,-157.14 79.15,-130.78"/>
<polygon fill="#63b8ff" stroke="#63b8ff" points="664.45,-277.4 674.53,-274.13 664.61,-270.4 664.45,-277.4"/>
</a>
</g>
</g>
<!-- Node5 -->
<g id="Node000005" class="node">
<title>Node5</title>
<g id="a_Node000005"><a xlink:href="TriggerInhibitAgent_8hpp.html" target="_top" xlink:title=" ">
<polygon fill="white" stroke="#666666" points="478.62,-214.12 295.38,-214.12 295.38,-172.38 478.62,-172.38 478.62,-214.12"/>
<text text-anchor="start" x="303.38" y="-200.62" font-family="Helvetica,sans-Serif" font-size="10.00">/github/workspace/dev</text>
<text text-anchor="start" x="303.38" y="-189.38" font-family="Helvetica,sans-Serif" font-size="10.00">_area/sourcecode/dfmodules</text>
<text text-anchor="middle" x="387" y="-178.12" font-family="Helvetica,sans-Serif" font-size="10.00">/src/dfmodules/TriggerInhibitAgent.hpp</text>
</a>
</g>
</g>
<!-- Node1&#45;&gt;Node5 -->
<g id="edge6_Node000001_Node000005" class="edge">
<title>Node1&#45;&gt;Node5</title>
<g id="a_edge6_Node000001_Node000005"><a xlink:title=" ">
<path fill="none" stroke="#63b8ff" d="M664.81,-257.26C612.59,-246.82 546.56,-233.17 488,-219.75 480.86,-218.11 473.45,-216.36 466.04,-214.56"/>
<polygon fill="#63b8ff" stroke="#63b8ff" points="664.09,-260.69 674.59,-259.21 665.46,-253.82 664.09,-260.69"/>
</a>
</g>
</g>
<!-- Node7 -->
<g id="Node000007" class="node">
<title>Node7</title>
<g id="a_Node000007"><a xlink:href="HSIEventSender_8hpp.html" target="_top" xlink:title=" ">
<polygon fill="white" stroke="#666666" points="671.12,-214.12 496.88,-214.12 496.88,-172.38 671.12,-172.38 671.12,-214.12"/>
<text text-anchor="start" x="504.88" y="-200.62" font-family="Helvetica,sans-Serif" font-size="10.00">/github/workspace/dev</text>
<text text-anchor="start" x="504.88" y="-189.38" font-family="Helvetica,sans-Serif" font-size="10.00">_area/sourcecode/hsilibs</text>
<text text-anchor="middle" x="584" y="-178.12" font-family="Helvetica,sans-Serif" font-size="10.00">/include/hsilibs/HSIEventSender.hpp</text>
</a>
</g>
</g>
<!-- Node1&#45;&gt;Node7 -->
<g id="edge8_Node000001_Node000007" class="edge">
<title>Node1&#45;&gt;Node7</title>
<g id="a_edge8_Node000001_Node000007"><a xlink:title=" ">
<path fill="none" stroke="#63b8ff" d="M704.95,-250.49C680.16,-238.97 651.15,-225.48 627.76,-214.6"/>
<polygon fill="#63b8ff" stroke="#63b8ff" points="703.38,-253.62 713.92,-254.66 706.33,-247.27 703.38,-253.62"/>
</a>
</g>
</g>
<!-- Node9 -->
<g id="Node000009" class="node">
<title>Node9</title>
<g id="a_Node000009"><a xlink:href="sourcecode_2timinglibs_2include_2timinglibs_2TimingController_8hpp.html" target="_top" xlink:title=" ">
<polygon fill="white" stroke="#666666" points="912.75,-214.12 727.25,-214.12 727.25,-172.38 912.75,-172.38 912.75,-214.12"/>
<text text-anchor="start" x="735.25" y="-200.62" font-family="Helvetica,sans-Serif" font-size="10.00">/github/workspace/dev</text>
<text text-anchor="start" x="735.25" y="-189.38" font-family="Helvetica,sans-Serif" font-size="10.00">_area/sourcecode/timinglibs</text>
<text text-anchor="middle" x="820" y="-178.12" font-family="Helvetica,sans-Serif" font-size="10.00">/include/timinglibs/TimingController.hpp</text>
</a>
</g>
</g>
<!-- Node1&#45;&gt;Node9 -->
<g id="edge10_Node000001_Node000009" class="edge">
<title>Node1&#45;&gt;Node9</title>
<g id="a_edge10_Node000001_Node000009"><a xlink:title=" ">
<path fill="none" stroke="#63b8ff" d="M780.8,-246.54C788.78,-235.9 797.62,-224.11 804.88,-214.42"/>
<polygon fill="#63b8ff" stroke="#63b8ff" points="778.18,-244.2 774.99,-254.3 783.79,-248.4 778.18,-244.2"/>
</a>
</g>
</g>
<!-- Node11 -->
<g id="Node000011" class="node">
<title>Node11</title>
<g id="a_Node000011"><a xlink:href="TimingEndpointControllerBase_8hpp.html" target="_top" xlink:title=" ">
<polygon fill="white" stroke="#666666" points="762,-125.12 578,-125.12 578,-83.38 762,-83.38 762,-125.12"/>
<text text-anchor="start" x="586" y="-111.62" font-family="Helvetica,sans-Serif" font-size="10.00">/github/workspace/dev</text>
<text text-anchor="start" x="586" y="-100.38" font-family="Helvetica,sans-Serif" font-size="10.00">_area/sourcecode/timinglibs</text>
<text text-anchor="middle" x="670" y="-89.12" font-family="Helvetica,sans-Serif" font-size="10.00">/src/TimingEndpointControllerBase.hpp</text>
</a>
</g>
</g>
<!-- Node1&#45;&gt;Node11 -->
<g id="edge16_Node000001_Node000011" class="edge">
<title>Node1&#45;&gt;Node11</title>
<g id="a_edge16_Node000001_Node000011"><a xlink:title=" ">
<path fill="none" stroke="#63b8ff" d="M735.61,-246.48C729.46,-238.12 723.12,-228.8 718,-219.75 700.16,-188.24 685.07,-148.77 676.79,-125.37"/>
<polygon fill="#63b8ff" stroke="#63b8ff" points="732.66,-248.38 741.49,-254.24 738.25,-244.16 732.66,-248.38"/>
</a>
</g>
</g>
<!-- Node13 -->
<g id="Node000013" class="node">
<title>Node13</title>
<g id="a_Node000013"><a xlink:href="TimingMasterControllerBase_8hpp.html" target="_top" xlink:title=" ">
<polygon fill="white" stroke="#666666" points="1112.25,-125.12 935.75,-125.12 935.75,-83.38 1112.25,-83.38 1112.25,-125.12"/>
<text text-anchor="start" x="943.75" y="-111.62" font-family="Helvetica,sans-Serif" font-size="10.00">/github/workspace/dev</text>
<text text-anchor="start" x="943.75" y="-100.38" font-family="Helvetica,sans-Serif" font-size="10.00">_area/sourcecode/timinglibs</text>
<text text-anchor="middle" x="1024" y="-89.12" font-family="Helvetica,sans-Serif" font-size="10.00">/src/TimingMasterControllerBase.hpp</text>
</a>
</g>
</g>
<!-- Node1&#45;&gt;Node13 -->
<g id="edge19_Node000001_Node000013" class="edge">
<title>Node1&#45;&gt;Node13</title>
<g id="a_edge19_Node000001_Node000013"><a xlink:title=" ">
<path fill="none" stroke="#63b8ff" d="M852.4,-254.56C876.56,-246.28 901.51,-234.99 922,-219.75 945.26,-202.45 941.03,-188.66 960,-166.75 972.71,-152.07 988.41,-136.94 1001.08,-125.37"/>
<polygon fill="#63b8ff" stroke="#63b8ff" points="851.6,-251.14 843.18,-257.57 853.78,-257.79 851.6,-251.14"/>
</a>
</g>
</g>
<!-- Node15 -->
<g id="Node000015" class="node">
<title>Node15</title>
<g id="a_Node000015"><a xlink:href="TimingHardwareManagerBase_8hpp.html" target="_top" xlink:title=" ">
<polygon fill="white" stroke="#666666" points="1153.38,-214.12 968.62,-214.12 968.62,-172.38 1153.38,-172.38 1153.38,-214.12"/>
<text text-anchor="start" x="976.62" y="-200.62" font-family="Helvetica,sans-Serif" font-size="10.00">/github/workspace/dev</text>
<text text-anchor="start" x="976.62" y="-189.38" font-family="Helvetica,sans-Serif" font-size="10.00">_area/sourcecode/timinglibs</text>
<text text-anchor="middle" x="1061" y="-178.12" font-family="Helvetica,sans-Serif" font-size="10.00">/src/TimingHardwareManagerBase.hpp</text>
</a>
</g>
</g>
<!-- Node1&#45;&gt;Node15 -->
<g id="edge17_Node000001_Node000015" class="edge">
<title>Node1&#45;&gt;Node15</title>
<g id="a_edge17_Node000001_Node000015"><a xlink:title=" ">
<path fill="none" stroke="#63b8ff" d="M845.46,-252.33C889.66,-240.42 942.95,-226.06 985.49,-214.6"/>
<polygon fill="#63b8ff" stroke="#63b8ff" points="844.63,-248.93 835.89,-254.91 846.46,-255.68 844.63,-248.93"/>
</a>
</g>
</g>
<!-- Node17 -->
<g id="Node000017" class="node">
<title>Node17</title>
<g id="a_Node000017"><a xlink:href="TriggerGenericMaker_8hpp.html" target="_top" xlink:title=" ">
<polygon fill="white" stroke="#666666" points="1346.12,-214.12 1171.88,-214.12 1171.88,-172.38 1346.12,-172.38 1346.12,-214.12"/>
<text text-anchor="start" x="1179.88" y="-200.62" font-family="Helvetica,sans-Serif" font-size="10.00">/github/workspace/dev</text>
<text text-anchor="start" x="1179.88" y="-189.38" font-family="Helvetica,sans-Serif" font-size="10.00">_area/sourcecode/trigger</text>
<text text-anchor="middle" x="1259" y="-178.12" font-family="Helvetica,sans-Serif" font-size="10.00">/src/trigger/TriggerGenericMaker.hpp</text>
</a>
</g>
</g>
<!-- Node1&#45;&gt;Node17 -->
<g id="edge20_Node000001_Node000017" class="edge">
<title>Node1&#45;&gt;Node17</title>
<g id="a_edge20_Node000001_Node000017"><a xlink:title=" ">
<path fill="none" stroke="#63b8ff" d="M853.37,-265.76C935.39,-256.43 1057.15,-240.72 1162,-219.75 1169.6,-218.23 1177.49,-216.47 1185.33,-214.59"/>
<polygon fill="#63b8ff" stroke="#63b8ff" points="853.12,-262.27 843.57,-266.87 853.9,-269.23 853.12,-262.27"/>
</a>
</g>
</g>
<!-- Node18 -->
<g id="Node000018" class="node">
<title>Node18</title>
<g id="a_Node000018"><a xlink:href="WorkerThread_8cpp.html" target="_top" xlink:title=" ">
<polygon fill="white" stroke="#666666" points="1491.5,-214.12 1364.5,-214.12 1364.5,-172.38 1491.5,-172.38 1491.5,-214.12"/>
<text text-anchor="start" x="1372.5" y="-200.62" font-family="Helvetica,sans-Serif" font-size="10.00">/github/workspace/dev</text>
<text text-anchor="start" x="1372.5" y="-189.38" font-family="Helvetica,sans-Serif" font-size="10.00">_area/sourcecode/utilities</text>
<text text-anchor="middle" x="1428" y="-178.12" font-family="Helvetica,sans-Serif" font-size="10.00">/src/WorkerThread.cpp</text>
</a>
</g>
</g>
<!-- Node1&#45;&gt;Node18 -->
<g id="edge21_Node000001_Node000018" class="edge">
<title>Node1&#45;&gt;Node18</title>
<g id="a_edge21_Node000001_Node000018"><a xlink:title=" ">
<path fill="none" stroke="#63b8ff" d="M853.08,-273.83C971.46,-269.97 1180.4,-257.84 1355,-219.75 1361.43,-218.35 1368.07,-216.55 1374.61,-214.56"/>
<polygon fill="#63b8ff" stroke="#63b8ff" points="853.31,-270.32 843.43,-274.13 853.53,-277.31 853.31,-270.32"/>
</a>
</g>
</g>
<!-- Node2&#45;&gt;Node3 -->
<g id="edge2_Node000002_Node000003" class="edge">
<title>Node2&#45;&gt;Node3</title>
<g id="a_edge2_Node000002_Node000003"><a xlink:title=" ">
<path fill="none" stroke="#63b8ff" d="M152.1,-159.41C140.18,-150.07 127.38,-140.03 116.07,-131.17"/>
<polygon fill="#63b8ff" stroke="#63b8ff" points="149.78,-162.03 159.81,-165.45 154.09,-156.53 149.78,-162.03"/>
</a>
</g>
</g>
<!-- Node4 -->
<g id="Node000004" class="node">
<title>Node4</title>
<g id="a_Node000004"><a xlink:href="Readoutlibs_8cpp.html" target="_top" xlink:title=" ">
<polygon fill="white" stroke="#666666" points="222,-41.75 56,-41.75 56,0 222,0 222,-41.75"/>
<text text-anchor="start" x="64" y="-28.25" font-family="Helvetica,sans-Serif" font-size="10.00">/github/workspace/dev</text>
<text text-anchor="start" x="64" y="-17" font-family="Helvetica,sans-Serif" font-size="10.00">_area/sourcecode/datahandlinglibs</text>
<text text-anchor="middle" x="139" y="-5.75" font-family="Helvetica,sans-Serif" font-size="10.00">/src/Readoutlibs.cpp</text>
</a>
</g>
</g>
<!-- Node2&#45;&gt;Node4 -->
<g id="edge4_Node000002_Node000004" class="edge">
<title>Node2&#45;&gt;Node4</title>
<g id="a_edge4_Node000002_Node000004"><a xlink:title=" ">
<path fill="none" stroke="#63b8ff" d="M191.69,-155.14C189.33,-132.23 184.58,-102.56 175,-77.75 170.1,-65.05 162.06,-52.18 154.83,-42.01"/>
<polygon fill="#63b8ff" stroke="#63b8ff" points="188.19,-155.3 192.58,-164.94 195.16,-154.67 188.19,-155.3"/>
</a>
</g>
</g>
<!-- Node3&#45;&gt;Node4 -->
<g id="edge3_Node000003_Node000004" class="edge">
<title>Node3&#45;&gt;Node4</title>
<g id="a_edge3_Node000003_Node000004"><a xlink:title=" ">
<path fill="none" stroke="#63b8ff" d="M107.21,-68.07C113.33,-59.17 119.71,-49.91 125.12,-42.04"/>
<polygon fill="#63b8ff" stroke="#63b8ff" points="104.36,-66.03 101.58,-76.26 110.13,-70 104.36,-66.03"/>
</a>
</g>
</g>
<!-- Node6 -->
<g id="Node000006" class="node">
<title>Node6</title>
<g id="a_Node000006"><a xlink:href="TriggerInhibitAgent_8cpp.html" target="_top" xlink:title=" ">
<polygon fill="white" stroke="#666666" points="415.62,-125.12 274.38,-125.12 274.38,-83.38 415.62,-83.38 415.62,-125.12"/>
<text text-anchor="start" x="282.38" y="-111.62" font-family="Helvetica,sans-Serif" font-size="10.00">/github/workspace/dev</text>
<text text-anchor="start" x="282.38" y="-100.38" font-family="Helvetica,sans-Serif" font-size="10.00">_area/sourcecode/dfmodules</text>
<text text-anchor="middle" x="345" y="-89.12" font-family="Helvetica,sans-Serif" font-size="10.00">/src/TriggerInhibitAgent.cpp</text>
</a>
</g>
</g>
<!-- Node5&#45;&gt;Node6 -->
<g id="edge7_Node000005_Node000006" class="edge">
<title>Node5&#45;&gt;Node6</title>
<g id="a_edge7_Node000005_Node000006"><a xlink:title=" ">
<path fill="none" stroke="#63b8ff" d="M372.39,-161.99C366.59,-149.97 360.06,-136.45 354.83,-125.62"/>
<polygon fill="#63b8ff" stroke="#63b8ff" points="369.1,-163.22 376.6,-170.71 375.41,-160.18 369.1,-163.22"/>
</a>
</g>
</g>
<!-- Node8 -->
<g id="Node000008" class="node">
<title>Node8</title>
<g id="a_Node000008"><a xlink:href="HSIEventSender_8cpp.html" target="_top" xlink:title=" ">
<polygon fill="white" stroke="#666666" points="560.12,-125.12 433.88,-125.12 433.88,-83.38 560.12,-83.38 560.12,-125.12"/>
<text text-anchor="start" x="441.88" y="-111.62" font-family="Helvetica,sans-Serif" font-size="10.00">/github/workspace/dev</text>
<text text-anchor="start" x="441.88" y="-100.38" font-family="Helvetica,sans-Serif" font-size="10.00">_area/sourcecode/hsilibs</text>
<text text-anchor="middle" x="497" y="-89.12" font-family="Helvetica,sans-Serif" font-size="10.00">/src/HSIEventSender.cpp</text>
</a>
</g>
</g>
<!-- Node7&#45;&gt;Node8 -->
<g id="edge9_Node000007_Node000008" class="edge">
<title>Node7&#45;&gt;Node8</title>
<g id="a_edge9_Node000007_Node000008"><a xlink:title=" ">
<path fill="none" stroke="#63b8ff" d="M555.91,-164.16C543.36,-151.61 528.85,-137.1 517.37,-125.62"/>
<polygon fill="#63b8ff" stroke="#63b8ff" points="553.21,-166.41 562.75,-171 558.16,-161.46 553.21,-166.41"/>
</a>
</g>
</g>
<!-- Node10 -->
<g id="Node000010" class="node">
<title>Node10</title>
<g id="a_Node000010"><a xlink:href="sourcecode_2timinglibs_2src_2TimingController_8cpp.html" target="_top" xlink:title=" ">
<polygon fill="white" stroke="#666666" points="917.75,-125.12 780.25,-125.12 780.25,-83.38 917.75,-83.38 917.75,-125.12"/>
<text text-anchor="start" x="788.25" y="-111.62" font-family="Helvetica,sans-Serif" font-size="10.00">/github/workspace/dev</text>
<text text-anchor="start" x="788.25" y="-100.38" font-family="Helvetica,sans-Serif" font-size="10.00">_area/sourcecode/timinglibs</text>
<text text-anchor="middle" x="849" y="-89.12" font-family="Helvetica,sans-Serif" font-size="10.00">/src/TimingController.cpp</text>
</a>
</g>
</g>
<!-- Node9&#45;&gt;Node10 -->
<g id="edge11_Node000009_Node000010" class="edge">
<title>Node9&#45;&gt;Node10</title>
<g id="a_edge11_Node000009_Node000010"><a xlink:title=" ">
<path fill="none" stroke="#63b8ff" d="M830.33,-161.26C834.28,-149.42 838.67,-136.23 842.21,-125.62"/>
<polygon fill="#63b8ff" stroke="#63b8ff" points="827.05,-160.04 827.2,-170.64 833.69,-162.26 827.05,-160.04"/>
</a>
</g>
</g>
<!-- Node9&#45;&gt;Node11 -->
<g id="edge12_Node000009_Node000011" class="edge">
<title>Node9&#45;&gt;Node11</title>
<g id="a_edge12_Node000009_Node000011"><a xlink:title=" ">
<path fill="none" stroke="#63b8ff" d="M775.55,-166.47C753.06,-153.42 726.14,-137.81 705.12,-125.62"/>
<polygon fill="#63b8ff" stroke="#63b8ff" points="773.49,-169.32 783.9,-171.31 777.01,-163.27 773.49,-169.32"/>
</a>
</g>
</g>
<!-- Node9&#45;&gt;Node13 -->
<g id="edge14_Node000009_Node000013" class="edge">
<title>Node9&#45;&gt;Node13</title>
<g id="a_edge14_Node000009_Node000013"><a xlink:title=" ">
<path fill="none" stroke="#63b8ff" d="M877.85,-167.58C908.99,-154.3 946.93,-138.12 976.35,-125.57"/>
<polygon fill="#63b8ff" stroke="#63b8ff" points="876.79,-164.23 868.96,-171.37 879.54,-170.66 876.79,-164.23"/>
</a>
</g>
</g>
<!-- Node12 -->
<g id="Node000012" class="node">
<title>Node12</title>
<g id="a_Node000012"><a xlink:href="TimingEndpointControllerBase_8cpp.html" target="_top" xlink:title=" ">
<polygon fill="white" stroke="#666666" points="762,-41.75 578,-41.75 578,0 762,0 762,-41.75"/>
<text text-anchor="start" x="586" y="-28.25" font-family="Helvetica,sans-Serif" font-size="10.00">/github/workspace/dev</text>
<text text-anchor="start" x="586" y="-17" font-family="Helvetica,sans-Serif" font-size="10.00">_area/sourcecode/timinglibs</text>
<text text-anchor="middle" x="670" y="-5.75" font-family="Helvetica,sans-Serif" font-size="10.00">/src/TimingEndpointControllerBase.cpp</text>
</a>
</g>
</g>
<!-- Node11&#45;&gt;Node12 -->
<g id="edge13_Node000011_Node000012" class="edge">
<title>Node11&#45;&gt;Node12</title>
<g id="a_edge13_Node000011_Node000012"><a xlink:title=" ">
<path fill="none" stroke="#63b8ff" d="M670,-71.89C670,-61.87 670,-51.05 670,-42.04"/>
<polygon fill="#63b8ff" stroke="#63b8ff" points="666.5,-71.62 670,-81.62 673.5,-71.62 666.5,-71.62"/>
</a>
</g>
</g>
<!-- Node14 -->
<g id="Node000014" class="node">
<title>Node14</title>
<g id="a_Node000014"><a xlink:href="TimingMasterControllerBase_8cpp.html" target="_top" xlink:title=" ">
<polygon fill="white" stroke="#666666" points="1112.25,-41.75 935.75,-41.75 935.75,0 1112.25,0 1112.25,-41.75"/>
<text text-anchor="start" x="943.75" y="-28.25" font-family="Helvetica,sans-Serif" font-size="10.00">/github/workspace/dev</text>
<text text-anchor="start" x="943.75" y="-17" font-family="Helvetica,sans-Serif" font-size="10.00">_area/sourcecode/timinglibs</text>
<text text-anchor="middle" x="1024" y="-5.75" font-family="Helvetica,sans-Serif" font-size="10.00">/src/TimingMasterControllerBase.cpp</text>
</a>
</g>
</g>
<!-- Node13&#45;&gt;Node14 -->
<g id="edge15_Node000013_Node000014" class="edge">
<title>Node13&#45;&gt;Node14</title>
<g id="a_edge15_Node000013_Node000014"><a xlink:title=" ">
<path fill="none" stroke="#63b8ff" d="M1024,-71.89C1024,-61.87 1024,-51.05 1024,-42.04"/>
<polygon fill="#63b8ff" stroke="#63b8ff" points="1020.5,-71.62 1024,-81.62 1027.5,-71.62 1020.5,-71.62"/>
</a>
</g>
</g>
<!-- Node16 -->
<g id="Node000016" class="node">
<title>Node16</title>
<g id="a_Node000016"><a xlink:href="TimingHardwareManagerBase_8cpp.html" target="_top" xlink:title=" ">
<polygon fill="white" stroke="#666666" points="1315.38,-125.12 1130.62,-125.12 1130.62,-83.38 1315.38,-83.38 1315.38,-125.12"/>
<text text-anchor="start" x="1138.62" y="-111.62" font-family="Helvetica,sans-Serif" font-size="10.00">/github/workspace/dev</text>
<text text-anchor="start" x="1138.62" y="-100.38" font-family="Helvetica,sans-Serif" font-size="10.00">_area/sourcecode/timinglibs</text>
<text text-anchor="middle" x="1223" y="-89.12" font-family="Helvetica,sans-Serif" font-size="10.00">/src/TimingHardwareManagerBase.cpp</text>
</a>
</g>
</g>
<!-- Node15&#45;&gt;Node16 -->
<g id="edge18_Node000015_Node000016" class="edge">
<title>Node15&#45;&gt;Node16</title>
<g id="a_edge18_Node000015_Node000016"><a xlink:title=" ">
<path fill="none" stroke="#63b8ff" d="M1108.68,-166.64C1133.04,-153.56 1162.27,-137.87 1185.07,-125.62"/>
<polygon fill="#63b8ff" stroke="#63b8ff" points="1107.06,-163.54 1099.91,-171.36 1110.37,-169.71 1107.06,-163.54"/>
</a>
</g>
</g>
</g>
</svg>
